<?xml version="1.0" encoding="utf-8" standalone="no"?>
<!DOCTYPE svg PUBLIC "-//W3C//DTD SVG 1.1//EN"
  "http://www.w3.org/Graphics/SVG/1.1/DTD/svg11.dtd">
<svg xmlns:xlink="http://www.w3.org/1999/xlink" width="460.8pt" height="345.6pt" viewBox="0 0 460.8 345.6" xmlns="http://www.w3.org/2000/svg" version="1.1">
 <metadata>
  <rdf:RDF xmlns:dc="http://purl.org/dc/elements/1.1/" xmlns:cc="http://creativecommons.org/ns#" xmlns:rdf="http://www.w3.org/1999/02/22-rdf-syntax-ns#">
   <cc:Work>
    <dc:type rdf:resource="http://purl.org/dc/dcmitype/StillImage"/>
    <dc:date>2024-07-18T12:58:55.897807</dc:date>
    <dc:format>image/svg+xml</dc:format>
    <dc:creator>
     <cc:Agent>
      <dc:title>Matplotlib v3.9.1, https://matplotlib.org/</dc:title>
     </cc:Agent>
    </dc:creator>
   </cc:Work>
  </rdf:RDF>
 </metadata>
 <defs>
  <style type="text/css">*{stroke-linejoin: round; stroke-linecap: butt}</style>
 </defs>
 <g id="figure_1">
  <g id="patch_1">
   <path d="M 0 345.6 
L 460.8 345.6 
L 460.8 0 
L 0 0 
z
" style="fill: #ffffff"/>
  </g>
  <g id="axes_1">
   <g id="patch_2">
    <path d="M 41.537 299.32 
L 447.84 299.32 
L 447.84 16.74 
L 41.537 16.74 
z
" style="fill: #ffffff"/>
   </g>
   <g id="line2d_1">
    <path d="M 41.537 282.697647 
L 447.84 282.697647 
" clip-path="url(#p0a1177212b)" style="fill: none; stroke-dasharray: 1.75,2.8875; stroke-dashoffset: 0; stroke: #c0c0c0; stroke-width: 1.75"/>
   </g>
   <g id="line2d_2">
    <path d="M 91.245767 -1 
L 91.265323 0.813214 
L 91.830417 41.931808 
L 92.395512 71.79827 
L 92.960606 90.548463 
L 93.525701 98.869393 
L 94.090796 99.678423 
L 94.65589 99.525251 
L 95.220985 99.825884 
L 96.351174 92.486109 
L 96.916268 96.885888 
L 97.481363 100.141085 
L 98.046458 101.375519 
L 99.176647 114.360035 
L 99.741741 116.758885 
L 100.306836 116.891463 
L 101.437025 121.819539 
L 102.00212 120.950837 
L 102.567214 117.571255 
L 103.132309 115.635364 
L 103.697403 117.008777 
L 104.262498 121.675334 
L 105.392687 133.78065 
L 105.957782 137.792046 
L 106.522876 140.813036 
L 107.087971 142.488343 
L 107.653065 141.425274 
L 108.21816 137.895273 
L 108.783255 136.384114 
L 109.913444 141.564825 
L 110.478538 142.541273 
L 111.043633 143.982607 
L 112.173822 149.545404 
L 112.738917 149.225486 
L 113.304011 147.779071 
L 113.869106 148.538817 
L 114.4342 150.22343 
L 114.999295 150.849693 
L 116.129484 150.909069 
L 116.694579 151.357402 
L 117.259673 151.531411 
L 117.824768 149.93913 
L 118.389862 146.032919 
L 118.954957 144.612471 
L 120.085146 153.851718 
L 120.650241 155.35966 
L 121.78043 156.040003 
L 122.345524 155.25523 
L 123.475713 150.639804 
L 124.040808 149.827045 
L 124.605903 150.335825 
L 125.170997 150.075197 
L 125.736092 148.890156 
L 126.301186 147.35771 
L 127.431376 143.054632 
L 127.99647 143.760989 
L 128.561565 144.093551 
L 129.691754 139.35277 
L 130.256848 139.67903 
L 131.387038 141.848645 
L 131.952132 142.506081 
L 132.517227 141.875923 
L 133.082321 139.811484 
L 133.647416 136.69283 
L 134.21251 134.383961 
L 134.777605 135.608621 
L 135.3427 137.599882 
L 135.907794 136.171629 
L 136.472889 133.269023 
L 137.037983 132.658221 
L 137.603078 130.823624 
L 138.168172 124.112616 
L 138.733267 115.508749 
L 139.298362 113.322704 
L 139.863456 115.446981 
L 140.428551 114.002331 
L 140.993645 105.821968 
L 141.55874 93.744515 
L 142.123834 96.104465 
L 142.688929 107.746938 
L 143.254024 111.268125 
L 143.819118 103.758406 
L 144.384213 84.989515 
L 144.949307 54.944735 
L 145.671501 -1 
M 153.300999 -1 
L 153.425726 10.069703 
L 153.990821 49.020158 
L 154.555915 76.950954 
L 155.12101 94.425772 
L 155.686104 102.945304 
L 156.251199 105.197497 
L 156.816293 102.849734 
L 157.381388 94.180222 
L 157.946483 76.513642 
L 158.511577 48.37358 
L 159.191193 -1 
M 173.362236 -1 
L 173.769131 31.014551 
L 174.334225 64.266498 
L 174.89932 86.522699 
L 175.464414 98.566122 
L 176.029509 102.755351 
L 176.594604 103.088362 
L 177.159698 100.397626 
L 177.724793 90.932392 
L 178.289887 71.710119 
L 178.854982 41.625801 
L 179.434786 -1 
M 184.907798 -1 
L 185.071022 13.238031 
L 185.636117 51.247061 
L 186.201211 77.97202 
L 186.766306 93.412909 
L 187.331401 97.569727 
L 187.896495 90.442479 
L 188.46159 72.031856 
L 189.591779 12.086802 
L 190.156873 41.301959 
L 190.721968 76.495837 
L 191.287063 101.0834 
L 191.852157 115.073296 
L 192.417252 118.946796 
L 192.982346 115.099845 
L 193.547441 112.77279 
L 194.112535 117.927086 
L 194.67763 121.821555 
L 195.242725 123.983796 
L 196.372914 134.149349 
L 196.938008 134.606876 
L 197.503103 131.644437 
L 198.068197 129.376966 
L 198.633292 130.859125 
L 199.198387 136.288264 
L 199.763481 143.183379 
L 200.328576 148.097561 
L 201.458765 152.21553 
L 202.02386 156.144641 
L 203.154049 167.382485 
L 203.719143 170.193961 
L 204.849332 172.383906 
L 205.414427 175.433602 
L 206.544616 183.13575 
L 209.370089 198.569291 
L 216.716318 233.321152 
L 217.846508 237.512897 
L 219.541791 244.347103 
L 221.237075 250.273255 
L 222.367264 254.565383 
L 225.192737 263.746628 
L 227.453115 269.830112 
L 230.843683 276.621761 
L 231.973872 278.313996 
L 234.23425 281.021617 
L 234.799345 281.480336 
L 235.929534 281.929811 
L 238.755007 282.697829 
L 239.885196 282.560476 
L 240.450291 282.310481 
L 241.58048 281.504364 
L 243.275764 280.044856 
L 244.405953 278.642658 
L 246.666331 275.341403 
L 247.79652 273.262501 
L 250.621993 267.390384 
L 252.317277 263.084247 
L 253.447466 260.177326 
L 255.707844 253.21732 
L 259.663506 241.530726 
L 261.35879 234.591572 
L 263.054074 228.854089 
L 263.619168 226.854109 
L 265.314452 222.110972 
L 268.139925 210.149724 
L 268.705019 207.882686 
L 269.270114 206.347796 
L 269.835209 205.408482 
L 270.400303 204.082272 
L 270.965398 201.995251 
L 272.660682 194.381375 
L 273.790871 191.915214 
L 274.355965 189.915081 
L 275.486154 183.660843 
L 276.051249 181.560687 
L 276.616344 181.123232 
L 277.181438 181.025209 
L 277.746533 179.400438 
L 278.876722 172.106672 
L 280.006911 167.745973 
L 281.702195 158.75023 
L 282.267289 156.773975 
L 282.832384 155.499243 
L 283.397478 155.462385 
L 283.962573 156.243832 
L 284.527668 156.165135 
L 285.092762 153.329363 
L 286.222951 144.056888 
L 286.788046 141.71093 
L 287.35314 140.347228 
L 287.918235 140.535172 
L 288.48333 141.878501 
L 289.048424 142.784225 
L 289.613519 142.469289 
L 290.178613 141.92168 
L 290.743708 143.138133 
L 291.308803 145.856746 
L 291.873897 147.705672 
L 292.438992 146.72105 
L 293.569181 141.048429 
L 294.134275 138.295298 
L 295.829559 126.129067 
L 296.394654 124.604122 
L 296.959748 126.765814 
L 297.524843 129.586695 
L 298.089937 130.938713 
L 298.655032 130.378245 
L 299.220127 128.604593 
L 299.785221 129.420909 
L 300.350316 133.090788 
L 300.91541 135.88884 
L 301.480505 137.129538 
L 302.045599 136.547386 
L 302.610694 134.017564 
L 303.175789 132.322657 
L 304.305978 133.948054 
L 304.871072 132.775901 
L 306.001261 129.091934 
L 306.566356 128.311374 
L 307.131451 129.410489 
L 307.696545 130.865649 
L 308.26164 129.891319 
L 308.826734 127.305711 
L 309.391829 126.037699 
L 309.956924 126.273457 
L 310.522018 127.572391 
L 311.087113 129.199181 
L 311.652207 129.6913 
L 312.217302 129.440725 
L 312.782396 128.035981 
L 313.347491 124.453707 
L 313.912586 123.189948 
L 315.042775 135.121916 
L 315.607869 138.461698 
L 316.172964 140.008908 
L 316.738058 140.575111 
L 317.303153 139.095326 
L 317.868248 137.171407 
L 318.433342 136.398727 
L 319.563531 132.296008 
L 320.128626 133.176334 
L 320.69372 133.826777 
L 321.82391 128.567461 
L 322.389004 131.172013 
L 322.954099 136.318643 
L 323.519193 139.796679 
L 324.084288 140.527937 
L 324.649382 138.033411 
L 325.214477 133.162732 
L 325.779572 130.403648 
L 326.344666 132.075837 
L 326.909761 134.784091 
L 327.474855 136.717009 
L 328.605045 139.240649 
L 329.735234 143.349724 
L 330.865423 148.698448 
L 331.430517 151.251985 
L 331.995612 152.114113 
L 332.560707 151.126779 
L 334.25599 144.385346 
L 334.821085 141.963513 
L 335.951274 130.239003 
L 336.516369 132.018591 
L 337.081463 138.866676 
L 337.646558 143.40957 
L 338.211652 144.743361 
L 338.776747 143.678654 
L 339.341841 141.284105 
L 339.906936 140.92682 
L 341.037125 149.054007 
L 341.60222 151.115749 
L 342.167314 151.962641 
L 342.732409 151.358627 
L 343.297503 147.669031 
L 343.862598 141.893199 
L 344.427693 138.762231 
L 344.992787 141.254787 
L 345.557882 145.226261 
L 346.122976 146.423265 
L 347.253166 142.411499 
L 347.81826 141.700194 
L 348.383355 139.763418 
L 348.948449 135.874724 
L 349.513544 135.914849 
L 350.078638 140.948655 
L 350.643733 144.970234 
L 351.208828 146.382015 
L 351.773922 146.794541 
L 352.339017 146.453414 
L 352.904111 143.791562 
L 353.469206 138.874419 
L 354.0343 135.788275 
L 354.599395 137.862978 
L 356.294679 151.395788 
L 356.859773 150.553121 
L 359.120152 131.755685 
L 359.685246 128.825613 
L 360.250341 128.857896 
L 360.815435 129.503392 
L 361.945624 122.654005 
L 362.510719 129.620272 
L 363.075814 142.043673 
L 363.640908 149.297965 
L 364.206003 149.526526 
L 364.771097 146.183905 
L 365.336192 146.391652 
L 365.901287 150.009594 
L 366.466381 150.498585 
L 367.031476 145.056605 
L 367.59657 136.455386 
L 368.161665 135.136897 
L 368.726759 140.966638 
L 369.291854 144.58302 
L 369.856949 144.420518 
L 370.422043 143.31367 
L 370.987138 145.18567 
L 371.552232 149.222642 
L 372.117327 151.086761 
L 372.682421 149.423528 
L 373.247516 147.142151 
L 374.377705 147.676962 
L 374.9428 145.670563 
L 375.507894 144.950878 
L 376.638083 152.281493 
L 377.203178 152.108243 
L 378.898462 140.709537 
L 379.463556 139.107464 
L 380.028651 139.841842 
L 381.15884 147.271012 
L 381.723935 149.386166 
L 382.289029 149.966548 
L 382.854124 149.977247 
L 383.984313 150.518018 
L 384.549408 149.114591 
L 385.114502 145.106428 
L 386.244691 134.796408 
L 386.809786 131.440756 
L 387.37488 133.250552 
L 387.939975 137.746838 
L 389.070164 143.747069 
L 389.635259 145.889417 
L 390.200353 146.99978 
L 390.765448 147.390815 
L 391.330542 146.660682 
L 391.895637 143.930674 
L 393.590921 130.999518 
L 394.156015 127.719126 
L 394.72111 126.681776 
L 395.286204 130.050768 
L 395.851299 134.313273 
L 396.416394 134.685435 
L 396.981488 129.228649 
L 397.546583 119.931169 
L 398.111677 116.860113 
L 398.676772 120.485198 
L 399.806961 120.836154 
L 400.372056 126.891996 
L 400.93715 131.360965 
L 401.502245 128.430268 
L 402.067339 119.078205 
L 402.632434 116.355343 
L 403.197529 125.182237 
L 403.762623 130.074433 
L 404.327718 126.899066 
L 404.892812 116.804264 
L 405.457907 102.635711 
L 406.023001 94.558149 
L 407.153191 107.048949 
L 407.718285 107.526208 
L 408.28338 104.133364 
L 408.848474 104.22744 
L 409.413569 109.257531 
L 409.978663 110.119257 
L 411.108853 97.333002 
L 412.239042 111.209283 
L 412.804136 108.746491 
L 413.369231 100.094113 
L 413.934325 101.105476 
L 414.49942 111.445208 
L 415.064515 117.025579 
L 415.629609 114.247923 
L 416.194704 102.448725 
L 416.759798 86.669895 
L 417.324893 88.023878 
L 417.889987 96.586316 
L 418.455082 96.09603 
L 419.020177 84.469128 
L 419.585271 61.56737 
L 420.150366 27.382119 
L 420.503115 -1 
M 422.47584 -1 
L 422.975839 36.78841 
L 423.540933 68.212899 
L 424.106028 88.353317 
L 424.671122 97.209665 
L 425.236217 94.781941 
L 425.801312 81.070147 
L 426.366406 56.074283 
L 427.178552 -1 
M 436.708158 -1 
L 437.103203 30.557713 
L 437.668298 64.867407 
L 438.233392 88.846943 
L 438.798487 103.464673 
L 439.363581 110.375385 
L 439.928676 111.788183 
L 440.493771 109.21858 
L 441.058865 101.814929 
L 441.62396 87.111054 
L 442.189054 63.047206 
L 442.754149 28.521905 
L 443.121009 -1 
L 443.121009 -1 
" clip-path="url(#p0a1177212b)" style="fill: none; stroke: #1e2e79; stroke-width: 2.5; stroke-linecap: square"/>
   </g>
   <g id="line2d_3">
    <path d="M 61.673259 -1 
L 61.880405 16.826084 
L 62.445499 54.126036 
L 63.010594 80.096199 
L 63.575688 94.736572 
L 64.140783 98.047156 
L 64.705878 90.027951 
L 65.270972 70.678956 
L 65.836067 40.000171 
L 66.387596 -1 
M 83.268006 -1 
L 83.353999 6.819966 
L 83.919093 47.084219 
L 84.484188 76.514358 
L 85.049282 95.746438 
L 85.614377 105.968089 
L 86.179471 108.910351 
L 86.744566 106.947745 
L 87.309661 104.119491 
L 87.874755 102.484401 
L 88.43985 99.050664 
L 89.004944 96.936082 
L 90.135134 103.613269 
L 90.700228 113.613727 
L 91.265323 128.582872 
L 91.830417 137.881517 
L 92.395512 138.644107 
L 92.960606 131.574177 
L 93.525701 121.054483 
L 94.090796 121.376903 
L 94.65589 133.329352 
L 95.220985 142.842175 
L 95.786079 147.046248 
L 97.481363 152.347824 
L 98.046458 153.501803 
L 98.611552 153.572422 
L 99.741741 150.53775 
L 100.306836 151.176659 
L 101.437025 157.179816 
L 102.567214 159.604621 
L 103.132309 163.353258 
L 103.697403 167.973857 
L 104.262498 169.636785 
L 105.392687 166.101679 
L 105.957782 167.008496 
L 106.522876 169.290983 
L 107.653065 175.638291 
L 108.21816 177.38053 
L 108.783255 177.725547 
L 109.348349 177.26808 
L 109.913444 176.581596 
L 110.478538 176.64782 
L 111.608727 178.392757 
L 113.304011 180.501266 
L 113.869106 180.436693 
L 114.4342 180.622759 
L 114.999295 182.107045 
L 115.564389 183.913324 
L 116.129484 184.423631 
L 116.694579 183.902148 
L 117.259673 183.740769 
L 117.824768 183.994107 
L 118.389862 183.563669 
L 118.954957 182.148649 
L 119.520051 181.112929 
L 120.085146 181.597491 
L 120.650241 182.495269 
L 121.215335 182.562808 
L 122.910619 179.825796 
L 123.475713 178.241895 
L 124.040808 177.374571 
L 124.605903 177.856993 
L 125.170997 177.41361 
L 125.736092 175.540462 
L 126.301186 173.055373 
L 127.431376 166.011981 
L 127.99647 164.985877 
L 128.561565 166.654317 
L 129.126659 167.828993 
L 129.691754 166.77363 
L 130.256848 164.653807 
L 130.821943 163.791528 
L 131.952132 164.639737 
L 132.517227 164.057508 
L 133.082321 162.698454 
L 133.647416 161.733127 
L 134.21251 161.35829 
L 134.777605 159.632292 
L 135.3427 156.280798 
L 135.907794 154.559074 
L 137.037983 157.794491 
L 137.603078 157.218592 
L 138.168172 154.357961 
L 138.733267 149.896425 
L 139.863456 139.858605 
L 140.428551 136.519936 
L 140.993645 133.929488 
L 141.55874 132.902981 
L 142.688929 135.877633 
L 143.254024 134.483532 
L 143.819118 131.168132 
L 144.384213 128.883932 
L 144.949307 127.234535 
L 146.079497 120.452796 
L 146.644591 116.366169 
L 147.209686 107.860369 
L 147.77478 95.368582 
L 148.339875 97.382838 
L 148.904969 109.76031 
L 149.470064 115.521498 
L 150.035159 113.936641 
L 150.600253 108.238386 
L 151.165348 103.917497 
L 151.730442 106.492093 
L 152.295537 110.072724 
L 152.860631 107.77 
L 153.425726 99.442742 
L 153.990821 94.354488 
L 154.555915 97.938599 
L 155.12101 97.366121 
L 155.686104 86.554877 
L 156.251199 64.548531 
L 156.816293 31.228759 
L 157.224206 -1 
M 186.179383 -1 
L 186.201211 1.032177 
L 186.766306 42.312711 
L 187.331401 72.264602 
L 187.896495 90.898507 
L 188.46159 98.32564 
L 189.026684 95.684411 
L 189.591779 91.403078 
L 190.721968 109.789865 
L 191.287063 112.120942 
L 191.852157 108.794102 
L 192.417252 104.584237 
L 192.982346 98.609882 
L 193.547441 88.113872 
L 194.112535 88.290271 
L 195.242725 117.894086 
L 196.372914 134.053 
L 196.938008 139.38944 
L 197.503103 141.196987 
L 198.068197 139.565363 
L 198.633292 138.336874 
L 199.198387 142.046472 
L 200.328576 156.722436 
L 200.89367 159.257891 
L 201.458765 157.958259 
L 202.02386 155.922434 
L 202.588954 156.798239 
L 204.284238 171.72014 
L 205.414427 178.5813 
L 206.544616 184.839554 
L 208.804994 199.820643 
L 209.935184 205.609901 
L 210.500278 207.558671 
L 212.195562 212.293519 
L 213.325751 218.484381 
L 214.45594 224.369481 
L 216.151224 231.754704 
L 217.281413 235.976196 
L 219.541791 246.006534 
L 223.497453 259.818158 
L 225.192737 265.111003 
L 227.453115 271.019648 
L 228.583305 273.358947 
L 231.408777 278.546047 
L 232.538967 279.871486 
L 234.23425 281.336695 
L 235.929534 282.708819 
L 236.494629 283.028813 
L 237.059723 283.187275 
L 237.624818 283.1077 
L 238.755007 282.696633 
L 240.450291 282.198068 
L 241.58048 281.801925 
L 242.145574 281.40997 
L 243.275764 280.227297 
L 244.405953 278.642658 
L 245.536142 277.040108 
L 247.231426 274.998478 
L 247.79652 273.873489 
L 249.491804 269.762759 
L 251.187088 266.103208 
L 252.317277 263.491458 
L 254.577655 257.141407 
L 256.272939 251.946453 
L 257.968223 245.862831 
L 259.098412 242.728106 
L 263.054074 228.656442 
L 264.184263 223.704371 
L 265.314452 220.291714 
L 266.444641 216.886495 
L 267.57483 213.133757 
L 268.705019 210.25537 
L 270.965398 201.982904 
L 271.530492 199.140504 
L 273.225776 188.80347 
L 275.486154 182.547103 
L 276.051249 180.439056 
L 276.616344 177.324731 
L 277.746533 170.182957 
L 278.311627 167.969239 
L 278.876722 167.477329 
L 279.441816 167.652607 
L 280.006911 166.957912 
L 280.572006 165.582566 
L 281.1371 163.606229 
L 281.702195 159.934202 
L 282.267289 155.017484 
L 282.832384 151.387358 
L 283.397478 149.084765 
L 283.962573 145.208385 
L 284.527668 139.333732 
L 285.092762 135.922004 
L 285.657857 138.042663 
L 287.35314 149.495246 
L 287.918235 150.232452 
L 288.48333 146.357615 
L 290.178613 125.10478 
L 290.743708 119.395853 
L 291.873897 114.700646 
L 292.438992 108.249515 
L 293.004086 96.860829 
L 293.569181 92.690621 
L 294.69937 114.863785 
L 295.264465 118.373366 
L 295.829559 120.066793 
L 296.394654 122.710537 
L 296.959748 122.177398 
L 297.524843 115.215713 
L 298.089937 106.699661 
L 298.655032 107.806478 
L 299.220127 114.847384 
L 299.785221 120.258323 
L 300.350316 119.733842 
L 301.480505 103.599034 
L 302.045599 108.416726 
L 302.610694 115.882376 
L 303.175789 116.942604 
L 303.740883 110.21069 
L 304.305978 100.218279 
L 304.871072 99.224351 
L 306.001261 106.990507 
L 306.566356 112.987111 
L 307.131451 117.678419 
L 307.696545 116.781397 
L 308.26164 111.209925 
L 308.826734 107.71958 
L 309.391829 108.272467 
L 309.956924 107.282423 
L 310.522018 103.046143 
L 311.087113 99.989262 
L 311.652207 100.295944 
L 312.217302 96.690584 
L 312.782396 88.835202 
L 313.347491 92.542115 
L 313.912586 104.162647 
L 314.47768 109.679919 
L 315.042775 106.660328 
L 315.607869 94.873929 
L 316.172964 78.4661 
L 316.738058 84.581393 
L 317.303153 103.395962 
L 317.868248 114.204303 
L 318.433342 117.094384 
L 318.998437 116.688979 
L 319.563531 117.458877 
L 320.128626 117.722381 
L 320.69372 114.768185 
L 321.258815 110.519812 
L 321.82391 110.047971 
L 322.389004 115.091145 
L 322.954099 118.784918 
L 323.519193 115.507291 
L 324.084288 103.660843 
L 325.214477 64.047541 
L 325.779572 79.50172 
L 326.344666 99.336218 
L 326.909761 110.743132 
L 328.605045 125.757845 
L 329.170139 129.574885 
L 329.735234 130.421177 
L 330.300328 129.312669 
L 331.430517 125.133315 
L 331.995612 122.365341 
L 332.560707 115.739723 
L 333.125801 103.403592 
L 333.690896 98.456483 
L 334.25599 113.21058 
L 334.821085 124.978182 
L 335.386179 127.853918 
L 336.516369 120.630477 
L 337.081463 121.419743 
L 337.646558 123.608771 
L 338.211652 122.487 
L 339.341841 113.050737 
L 339.906936 116.250658 
L 340.472031 122.845894 
L 341.037125 124.148984 
L 341.60222 117.325894 
L 342.167314 106.817203 
L 342.732409 111.472195 
L 343.297503 125.163526 
L 343.862598 133.768915 
L 344.427693 136.909535 
L 344.992787 136.497618 
L 345.557882 134.03596 
L 346.122976 130.670217 
L 346.688071 129.762821 
L 347.81826 136.64461 
L 348.383355 136.565551 
L 348.948449 136.008074 
L 349.513544 137.833132 
L 350.078638 140.757284 
L 350.643733 141.539513 
L 351.208828 138.97739 
L 351.773922 135.263119 
L 352.339017 133.616027 
L 352.904111 133.783984 
L 353.469206 132.040768 
L 354.0343 127.915726 
L 354.599395 128.179145 
L 355.16449 133.028445 
L 355.729584 136.768328 
L 356.294679 139.552941 
L 356.859773 140.829797 
L 357.424868 139.118109 
L 357.989962 136.21091 
L 358.555057 134.658544 
L 359.120152 135.054408 
L 359.685246 136.682053 
L 360.250341 137.871086 
L 361.945624 139.978168 
L 363.075814 142.982794 
L 363.640908 143.617506 
L 364.206003 143.210573 
L 364.771097 140.636247 
L 365.336192 135.12172 
L 365.901287 128.491674 
L 366.466381 123.30096 
L 367.031476 120.062159 
L 367.59657 121.395244 
L 368.726759 135.730828 
L 369.291854 137.20007 
L 370.422043 132.042404 
L 370.987138 132.56622 
L 371.552232 134.632442 
L 372.117327 138.562176 
L 372.682421 143.739721 
L 373.247516 146.695768 
L 373.812611 145.977416 
L 375.507894 139.274689 
L 376.638083 132.662548 
L 377.203178 128.020722 
L 377.768273 127.581178 
L 378.898462 144.957229 
L 379.463556 148.056294 
L 380.028651 144.920464 
L 380.593745 138.825699 
L 381.15884 136.887031 
L 381.723935 139.524259 
L 382.289029 140.64372 
L 382.854124 138.171274 
L 383.419218 133.714607 
L 383.984313 130.843074 
L 384.549408 131.027339 
L 385.114502 133.66908 
L 386.244691 141.875567 
L 386.809786 142.811686 
L 387.37488 142.511978 
L 387.939975 142.86327 
L 389.070164 144.861084 
L 389.635259 144.22967 
L 390.200353 141.885455 
L 390.765448 141.043946 
L 391.330542 143.497493 
L 391.895637 147.061174 
L 392.460732 149.668218 
L 393.025826 150.340959 
L 393.590921 148.724544 
L 394.156015 146.093954 
L 394.72111 144.067995 
L 395.286204 141.494138 
L 395.851299 137.749201 
L 396.416394 135.506421 
L 396.981488 136.997631 
L 397.546583 140.501784 
L 398.111677 143.167541 
L 398.676772 143.446473 
L 399.241866 142.262627 
L 399.806961 142.074383 
L 400.372056 142.338294 
L 400.93715 141.540155 
L 401.502245 140.961932 
L 402.067339 140.722746 
L 402.632434 140.092211 
L 403.197529 140.494814 
L 403.762623 141.228293 
L 404.327718 140.197677 
L 404.892812 137.459531 
L 406.023001 130.578383 
L 407.153191 120.754864 
L 407.718285 119.339437 
L 408.28338 119.37357 
L 408.848474 118.175331 
L 409.413569 119.524762 
L 409.978663 123.08707 
L 410.543758 123.772484 
L 411.108853 121.441025 
L 411.673947 121.842908 
L 412.239042 124.944698 
L 412.804136 123.421774 
L 413.369231 113.75746 
L 413.934325 99.869467 
L 414.49942 102.878222 
L 415.064515 116.976834 
L 415.629609 126.271702 
L 416.194704 130.302421 
L 416.759798 131.794829 
L 417.324893 132.335755 
L 417.889987 129.292801 
L 418.455082 119.149194 
L 419.020177 100.120907 
L 420.150366 42.820132 
L 420.71546 60.080417 
L 421.280555 83.582282 
L 421.84565 96.172301 
L 422.410744 97.449085 
L 422.975839 87.635397 
L 423.540933 71.345652 
L 424.106028 75.177726 
L 424.671122 91.312944 
L 425.236217 99.002173 
L 425.801312 98.556229 
L 426.366406 97.587198 
L 426.931501 99.506747 
L 427.496595 96.514355 
L 428.06169 86.999004 
L 428.626784 85.851444 
L 429.191879 95.281989 
L 429.756974 98.078737 
L 430.322068 89.978418 
L 430.887163 70.582872 
L 431.452257 39.861975 
L 432.007339 -1 
M 432.785772 -1 
L 433.712636 61.19435 
L 434.27773 84.522735 
L 434.842825 96.521375 
L 435.407919 97.190226 
L 435.973014 86.529288 
L 436.538108 64.53856 
L 437.103203 31.218042 
L 437.510956 -1 
M 439.790459 -1 
L 439.928676 11.247592 
L 440.493771 49.994229 
L 441.058865 77.41108 
L 441.62396 93.498141 
L 442.189054 98.255413 
L 442.754149 91.682895 
L 443.319243 73.780588 
L 443.884338 44.548491 
L 444.503736 -1 
L 444.503736 -1 
" clip-path="url(#p0a1177212b)" style="fill: none; stroke: #ec4067; stroke-width: 2.5; stroke-linecap: square"/>
   </g>
   <g id="matplotlib.axis_1">
    <g id="xtick_1">
     <g id="line2d_4">
      <defs>
       <path id="m56e0be8575" d="M 0 0 
L 0 3.5 
" style="stroke: #c2c1c1; stroke-width: 0.8"/>
      </defs>
      <g>
       <use xlink:href="#m56e0be8575" x="41.537" y="299.32" style="fill: #c2c1c1; stroke: #c2c1c1; stroke-width: 0.8"/>
      </g>
     </g>
     <g id="text_1">
      <!-- 0 -->
      <g style="fill: #191919" transform="translate(38.726844 313.82) scale(0.1 -0.1)">
       <defs>
        <path id="Roboto-Regular-30" d="M 3234 1944 
Q 3234 825 2848 381 
Q 2463 -63 1800 -63 
Q 1156 -63 764 368 
Q 372 800 359 1872 
L 359 2638 
Q 359 3753 750 4183 
Q 1141 4613 1794 4613 
Q 2447 4613 2834 4195 
Q 3222 3778 3234 2709 
L 3234 1944 
z
M 2653 2734 
Q 2653 3503 2434 3822 
Q 2216 4141 1794 4141 
Q 1388 4141 1167 3831 
Q 947 3522 941 2778 
L 941 1850 
Q 941 1088 1164 750 
Q 1388 413 1800 413 
Q 2222 413 2436 745 
Q 2650 1078 2653 1825 
L 2653 2734 
z
" transform="scale(0.015625)"/>
       </defs>
       <use xlink:href="#Roboto-Regular-30"/>
      </g>
     </g>
    </g>
    <g id="xtick_2">
     <g id="line2d_5">
      <g>
       <use xlink:href="#m56e0be8575" x="109.254167" y="299.32" style="fill: #c2c1c1; stroke: #c2c1c1; stroke-width: 0.8"/>
      </g>
     </g>
     <g id="text_2">
      <!-- 60 -->
      <g style="fill: #191919" transform="translate(103.633854 313.82) scale(0.1 -0.1)">
       <defs>
        <path id="Roboto-Regular-36" d="M 3291 1484 
Q 3291 838 2930 387 
Q 2569 -63 1878 -63 
Q 1388 -63 1063 198 
Q 738 459 577 861 
Q 416 1263 416 1684 
L 416 1956 
Q 416 2597 595 3194 
Q 775 3791 1247 4173 
Q 1719 4556 2597 4556 
L 2647 4556 
L 2647 4066 
Q 2041 4066 1705 3853 
Q 1369 3641 1205 3302 
Q 1041 2963 1006 2575 
Q 1369 2984 1984 2984 
Q 2438 2984 2727 2765 
Q 3016 2547 3153 2201 
Q 3291 1856 3291 1484 
z
M 997 1666 
Q 997 1059 1267 737 
Q 1538 416 1878 416 
Q 2278 416 2498 708 
Q 2719 1000 2719 1456 
Q 2719 1863 2516 2184 
Q 2313 2506 1891 2506 
Q 1588 2506 1341 2325 
Q 1094 2144 997 1884 
L 997 1666 
z
" transform="scale(0.015625)"/>
       </defs>
       <use xlink:href="#Roboto-Regular-36"/>
       <use xlink:href="#Roboto-Regular-30" x="56.201172"/>
      </g>
     </g>
    </g>
    <g id="xtick_3">
     <g id="line2d_6">
      <g>
       <use xlink:href="#m56e0be8575" x="176.971333" y="299.32" style="fill: #c2c1c1; stroke: #c2c1c1; stroke-width: 0.8"/>
      </g>
     </g>
     <g id="text_3">
      <!-- 120 -->
      <g style="fill: #191919" transform="translate(168.540865 313.82) scale(0.1 -0.1)">
       <defs>
        <path id="Roboto-Regular-31" d="M 2278 4575 
L 2278 0 
L 1700 0 
L 1700 3853 
L 534 3428 
L 534 3950 
L 2188 4575 
L 2278 4575 
z
" transform="scale(0.015625)"/>
        <path id="Roboto-Regular-32" d="M 3359 475 
L 3359 0 
L 381 0 
L 381 416 
L 1925 2134 
Q 2306 2566 2439 2819 
Q 2572 3072 2572 3328 
Q 2572 3663 2364 3900 
Q 2156 4138 1778 4138 
Q 1322 4138 1097 3878 
Q 872 3619 872 3213 
L 294 3213 
Q 294 3788 672 4200 
Q 1050 4613 1778 4613 
Q 2422 4613 2786 4278 
Q 3150 3944 3150 3397 
Q 3150 2997 2903 2592 
Q 2656 2188 2297 1797 
L 1078 475 
L 3359 475 
z
" transform="scale(0.015625)"/>
       </defs>
       <use xlink:href="#Roboto-Regular-31"/>
       <use xlink:href="#Roboto-Regular-32" x="56.201172"/>
       <use xlink:href="#Roboto-Regular-30" x="112.402344"/>
      </g>
     </g>
    </g>
    <g id="xtick_4">
     <g id="line2d_7">
      <g>
       <use xlink:href="#m56e0be8575" x="244.6885" y="299.32" style="fill: #c2c1c1; stroke: #c2c1c1; stroke-width: 0.8"/>
      </g>
     </g>
     <g id="text_4">
      <!-- 180 -->
      <g style="fill: #191919" transform="translate(236.258031 313.82) scale(0.1 -0.1)">
       <defs>
        <path id="Roboto-Regular-38" d="M 3244 1231 
Q 3244 606 2826 271 
Q 2409 -63 1796 -63 
Q 1184 -63 767 271 
Q 350 606 350 1231 
Q 350 1613 554 1905 
Q 759 2197 1109 2347 
Q 806 2494 629 2762 
Q 453 3031 453 3366 
Q 453 3963 833 4288 
Q 1213 4613 1794 4613 
Q 2378 4613 2758 4288 
Q 3138 3963 3138 3366 
Q 3138 3028 2956 2761 
Q 2775 2494 2472 2347 
Q 2825 2197 3034 1903 
Q 3244 1609 3244 1231 
z
M 2559 3356 
Q 2559 3697 2346 3917 
Q 2134 4138 1793 4138 
Q 1453 4138 1243 3927 
Q 1034 3716 1034 3356 
Q 1034 3003 1243 2790 
Q 1453 2578 1797 2578 
Q 2138 2578 2348 2790 
Q 2559 3003 2559 3356 
z
M 2663 1244 
Q 2663 1625 2420 1865 
Q 2178 2106 1791 2106 
Q 1394 2106 1161 1865 
Q 928 1625 928 1244 
Q 928 850 1161 631 
Q 1394 413 1797 413 
Q 2200 413 2431 631 
Q 2663 850 2663 1244 
z
" transform="scale(0.015625)"/>
       </defs>
       <use xlink:href="#Roboto-Regular-31"/>
       <use xlink:href="#Roboto-Regular-38" x="56.201172"/>
       <use xlink:href="#Roboto-Regular-30" x="112.402344"/>
      </g>
     </g>
    </g>
    <g id="xtick_5">
     <g id="line2d_8">
      <g>
       <use xlink:href="#m56e0be8575" x="312.405667" y="299.32" style="fill: #c2c1c1; stroke: #c2c1c1; stroke-width: 0.8"/>
      </g>
     </g>
     <g id="text_5">
      <!-- 240 -->
      <g style="fill: #191919" transform="translate(303.975198 313.82) scale(0.1 -0.1)">
       <defs>
        <path id="Roboto-Regular-34" d="M 166 1397 
L 2203 4550 
L 2819 4550 
L 2819 1531 
L 3453 1531 
L 3453 1056 
L 2819 1056 
L 2819 0 
L 2241 0 
L 2241 1056 
L 166 1056 
L 166 1397 
z
M 822 1531 
L 2241 1531 
L 2241 3766 
L 2169 3638 
L 822 1531 
z
" transform="scale(0.015625)"/>
       </defs>
       <use xlink:href="#Roboto-Regular-32"/>
       <use xlink:href="#Roboto-Regular-34" x="56.201172"/>
       <use xlink:href="#Roboto-Regular-30" x="112.402344"/>
      </g>
     </g>
    </g>
    <g id="xtick_6">
     <g id="line2d_9">
      <g>
       <use xlink:href="#m56e0be8575" x="380.122833" y="299.32" style="fill: #c2c1c1; stroke: #c2c1c1; stroke-width: 0.8"/>
      </g>
     </g>
     <g id="text_6">
      <!-- 300 -->
      <g style="fill: #191919" transform="translate(371.692365 313.82) scale(0.1 -0.1)">
       <defs>
        <path id="Roboto-Regular-33" d="M 1222 2084 
L 1222 2559 
L 1647 2559 
Q 2094 2563 2312 2784 
Q 2531 3006 2531 3338 
Q 2531 4138 1738 4138 
Q 1369 4138 1141 3927 
Q 913 3716 913 3359 
L 334 3359 
Q 334 3881 720 4247 
Q 1106 4613 1738 4613 
Q 2353 4613 2733 4286 
Q 3113 3959 3113 3325 
Q 3113 3072 2942 2784 
Q 2772 2497 2397 2338 
Q 2850 2191 3015 1884 
Q 3181 1578 3181 1269 
Q 3181 631 2768 284 
Q 2356 -63 1741 -63 
Q 1147 -63 722 267 
Q 297 597 297 1203 
L 875 1203 
Q 875 844 1108 628 
Q 1341 413 1741 413 
Q 2138 413 2369 622 
Q 2600 831 2600 1256 
Q 2600 1681 2337 1882 
Q 2075 2084 1634 2084 
L 1222 2084 
z
" transform="scale(0.015625)"/>
       </defs>
       <use xlink:href="#Roboto-Regular-33"/>
       <use xlink:href="#Roboto-Regular-30" x="56.201172"/>
       <use xlink:href="#Roboto-Regular-30" x="112.402344"/>
      </g>
     </g>
    </g>
    <g id="xtick_7">
     <g id="line2d_10">
      <g>
       <use xlink:href="#m56e0be8575" x="447.84" y="299.32" style="fill: #c2c1c1; stroke: #c2c1c1; stroke-width: 0.8"/>
      </g>
     </g>
     <g id="text_7">
      <!-- 360 -->
      <g style="fill: #191919" transform="translate(439.409531 313.82) scale(0.1 -0.1)">
       <use xlink:href="#Roboto-Regular-33"/>
       <use xlink:href="#Roboto-Regular-36" x="56.201172"/>
       <use xlink:href="#Roboto-Regular-30" x="112.402344"/>
      </g>
     </g>
    </g>
    <g id="text_8">
     <!-- Glu222 $\chi$ [deg.] -->
     <g style="fill: #191919" transform="translate(203.5885 329.81125) scale(0.12 -0.12)">
      <defs>
       <path id="Roboto-Bold-47" d="M 4009 2391 
L 4009 575 
Q 3847 381 3433 159 
Q 3019 -63 2269 -63 
Q 1384 -63 839 510 
Q 294 1084 294 2138 
L 294 2409 
Q 294 3463 816 4039 
Q 1338 4616 2203 4616 
Q 3088 4616 3509 4191 
Q 3931 3766 4006 3103 
L 3094 3103 
Q 3041 3447 2847 3653 
Q 2653 3859 2228 3859 
Q 1306 3859 1250 2584 
L 1247 2138 
Q 1247 1419 1514 1056 
Q 1781 694 2319 694 
Q 2656 694 2825 770 
Q 2994 847 3069 919 
L 3069 1703 
L 2219 1703 
L 2219 2391 
L 4009 2391 
z
" transform="scale(0.015625)"/>
       <path id="Roboto-Bold-6c" d="M 1303 4800 
L 1303 0 
L 397 0 
L 397 4800 
L 1303 4800 
z
" transform="scale(0.015625)"/>
       <path id="Roboto-Bold-75" d="M 2400 0 
L 2375 347 
Q 2044 -63 1450 -63 
Q 953 -63 642 228 
Q 331 519 328 1181 
L 328 3381 
L 1231 3381 
L 1231 1188 
Q 1231 906 1365 789 
Q 1500 672 1709 672 
Q 2169 672 2344 994 
L 2344 3381 
L 3250 3381 
L 3250 0 
L 2400 0 
z
" transform="scale(0.015625)"/>
       <path id="Roboto-Bold-32" d="M 3428 728 
L 3428 0 
L 313 0 
L 313 619 
L 1784 2188 
Q 2116 2553 2245 2792 
Q 2375 3031 2375 3234 
Q 2375 3538 2223 3713 
Q 2072 3888 1788 3888 
Q 1466 3888 1295 3669 
Q 1125 3450 1125 3119 
L 222 3119 
Q 222 3734 645 4175 
Q 1069 4616 1803 4616 
Q 2519 4616 2900 4270 
Q 3281 3925 3281 3325 
Q 3281 2875 3014 2470 
Q 2747 2066 2284 1581 
L 1472 728 
L 3428 728 
z
" transform="scale(0.015625)"/>
       <path id="Roboto-Bold-20" transform="scale(0.015625)"/>
       <path id="DejaVuSans-Oblique-3c7" d="M 1922 -781 
L 1691 416 
L 394 -1334 
L -284 -1334 
L 1553 1141 
L 1269 2613 
Q 1194 3006 713 3006 
L 559 3006 
L 653 3500 
L 872 3494 
Q 1675 3472 1775 2950 
L 2006 1753 
L 3303 3503 
L 3981 3503 
L 2144 1028 
L 2428 -444 
Q 2503 -838 2984 -838 
L 3138 -838 
L 3044 -1331 
L 2825 -1325 
Q 2022 -1303 1922 -781 
z
" transform="scale(0.015625)"/>
       <path id="Roboto-Bold-5b" d="M 1728 5297 
L 1728 4600 
L 1281 4600 
L 1281 -366 
L 1728 -366 
L 1728 -1059 
L 375 -1059 
L 375 5297 
L 1728 5297 
z
" transform="scale(0.015625)"/>
       <path id="Roboto-Bold-64" d="M 2438 0 
L 2394 359 
Q 2059 -63 1528 -63 
Q 900 -63 553 425 
Q 206 913 206 1650 
L 206 1716 
Q 206 2488 553 2966 
Q 900 3444 1534 3444 
Q 2028 3444 2347 3078 
L 2347 4800 
L 3253 4800 
L 3253 0 
L 2438 0 
z
M 1113 1650 
Q 1113 1244 1256 958 
Q 1400 672 1756 672 
Q 2169 672 2347 1022 
L 2347 2363 
Q 2175 2713 1763 2713 
Q 1409 2713 1261 2425 
Q 1113 2138 1113 1650 
z
" transform="scale(0.015625)"/>
       <path id="Roboto-Bold-65" d="M 3225 550 
Q 3063 319 2731 128 
Q 2400 -63 1906 -63 
Q 1119 -63 675 414 
Q 231 891 228 1566 
L 228 1697 
Q 228 2463 654 2953 
Q 1081 3444 1806 3444 
Q 2534 3444 2915 2987 
Q 3297 2531 3297 1781 
L 3297 1397 
L 1144 1397 
Q 1191 1069 1403 867 
Q 1616 666 1963 666 
Q 2478 666 2778 1044 
L 3225 550 
z
M 1800 2716 
Q 1513 2716 1356 2522 
Q 1200 2328 1153 2016 
L 2409 2016 
L 2409 2084 
Q 2403 2356 2258 2536 
Q 2113 2716 1800 2716 
z
" transform="scale(0.015625)"/>
       <path id="Roboto-Bold-67" d="M 1681 -1331 
Q 1375 -1331 1008 -1203 
Q 641 -1075 422 -803 
L 822 -253 
Q 1156 -628 1644 -628 
Q 2003 -628 2203 -436 
Q 2403 -244 2403 113 
L 2403 294 
Q 2084 -63 1581 -63 
Q 953 -63 587 418 
Q 222 900 216 1625 
L 216 1716 
Q 216 2488 583 2966 
Q 950 3444 1588 3444 
Q 2147 3444 2456 3063 
L 2491 3381 
L 3309 3381 
L 3309 116 
Q 3309 -581 2857 -956 
Q 2406 -1331 1681 -1331 
z
M 1119 1650 
Q 1119 1244 1286 958 
Q 1453 672 1809 672 
Q 2222 672 2403 984 
L 2403 2403 
Q 2225 2713 1816 2713 
Q 1463 2713 1291 2423 
Q 1119 2134 1119 1716 
L 1119 1650 
z
" transform="scale(0.015625)"/>
       <path id="Roboto-Bold-2e" d="M 394 447 
Q 394 653 533 792 
Q 672 931 906 931 
Q 1141 931 1278 792 
Q 1416 653 1416 447 
Q 1416 244 1278 105 
Q 1141 -34 906 -34 
Q 672 -34 533 105 
Q 394 244 394 447 
z
" transform="scale(0.015625)"/>
       <path id="Roboto-Bold-5d" d="M 41 4600 
L 41 5297 
L 1394 5297 
L 1394 -1059 
L 41 -1059 
L 41 -366 
L 491 -366 
L 491 4600 
L 41 4600 
z
" transform="scale(0.015625)"/>
      </defs>
      <use xlink:href="#Roboto-Bold-47" transform="translate(0 0.234375)"/>
      <use xlink:href="#Roboto-Bold-6c" transform="translate(68.115234 0.234375)"/>
      <use xlink:href="#Roboto-Bold-75" transform="translate(94.628906 0.234375)"/>
      <use xlink:href="#Roboto-Bold-32" transform="translate(150.634766 0.234375)"/>
      <use xlink:href="#Roboto-Bold-32" transform="translate(208.007812 0.234375)"/>
      <use xlink:href="#Roboto-Bold-32" transform="translate(265.380859 0.234375)"/>
      <use xlink:href="#Roboto-Bold-20" transform="translate(322.753906 0.234375)"/>
      <use xlink:href="#DejaVuSans-Oblique-3c7" transform="translate(347.65625 0.234375)"/>
      <use xlink:href="#Roboto-Bold-20" transform="translate(406.835938 0.234375)"/>
      <use xlink:href="#Roboto-Bold-5b" transform="translate(431.738281 0.234375)"/>
      <use xlink:href="#Roboto-Bold-64" transform="translate(459.570312 0.234375)"/>
      <use xlink:href="#Roboto-Bold-65" transform="translate(515.966797 0.234375)"/>
      <use xlink:href="#Roboto-Bold-67" transform="translate(570.019531 0.234375)"/>
      <use xlink:href="#Roboto-Bold-2e" transform="translate(627.148438 0.234375)"/>
      <use xlink:href="#Roboto-Bold-5d" transform="translate(656.25 0.234375)"/>
     </g>
    </g>
   </g>
   <g id="matplotlib.axis_2">
    <g id="ytick_1">
     <g id="line2d_11">
      <defs>
       <path id="mec5859bf89" d="M 0 0 
L -3.5 0 
" style="stroke: #c2c1c1; stroke-width: 0.8"/>
      </defs>
      <g>
       <use xlink:href="#mec5859bf89" x="41.537" y="282.697647" style="fill: #c2c1c1; stroke: #c2c1c1; stroke-width: 0.8"/>
      </g>
     </g>
     <g id="text_9">
      <!-- 0 -->
      <g style="fill: #191919" transform="translate(28.916687 286.447647) scale(0.1 -0.1)">
       <use xlink:href="#Roboto-Regular-30"/>
      </g>
     </g>
    </g>
    <g id="ytick_2">
     <g id="line2d_12">
      <g>
       <use xlink:href="#mec5859bf89" x="41.537" y="249.452941" style="fill: #c2c1c1; stroke: #c2c1c1; stroke-width: 0.8"/>
      </g>
     </g>
     <g id="text_10">
      <!-- 1 -->
      <g style="fill: #191919" transform="translate(28.916687 253.202941) scale(0.1 -0.1)">
       <use xlink:href="#Roboto-Regular-31"/>
      </g>
     </g>
    </g>
    <g id="ytick_3">
     <g id="line2d_13">
      <g>
       <use xlink:href="#mec5859bf89" x="41.537" y="216.208235" style="fill: #c2c1c1; stroke: #c2c1c1; stroke-width: 0.8"/>
      </g>
     </g>
     <g id="text_11">
      <!-- 2 -->
      <g style="fill: #191919" transform="translate(28.916687 219.958235) scale(0.1 -0.1)">
       <use xlink:href="#Roboto-Regular-32"/>
      </g>
     </g>
    </g>
    <g id="ytick_4">
     <g id="line2d_14">
      <g>
       <use xlink:href="#mec5859bf89" x="41.537" y="182.963529" style="fill: #c2c1c1; stroke: #c2c1c1; stroke-width: 0.8"/>
      </g>
     </g>
     <g id="text_12">
      <!-- 3 -->
      <g style="fill: #191919" transform="translate(28.916687 186.713529) scale(0.1 -0.1)">
       <use xlink:href="#Roboto-Regular-33"/>
      </g>
     </g>
    </g>
    <g id="ytick_5">
     <g id="line2d_15">
      <g>
       <use xlink:href="#mec5859bf89" x="41.537" y="149.718824" style="fill: #c2c1c1; stroke: #c2c1c1; stroke-width: 0.8"/>
      </g>
     </g>
     <g id="text_13">
      <!-- 4 -->
      <g style="fill: #191919" transform="translate(28.916687 153.468824) scale(0.1 -0.1)">
       <use xlink:href="#Roboto-Regular-34"/>
      </g>
     </g>
    </g>
    <g id="ytick_6">
     <g id="line2d_16">
      <g>
       <use xlink:href="#mec5859bf89" x="41.537" y="116.474118" style="fill: #c2c1c1; stroke: #c2c1c1; stroke-width: 0.8"/>
      </g>
     </g>
     <g id="text_14">
      <!-- 5 -->
      <g style="fill: #191919" transform="translate(28.916687 120.224118) scale(0.1 -0.1)">
       <defs>
        <path id="Roboto-Regular-35" d="M 1109 2166 
L 647 2284 
L 875 4550 
L 3209 4550 
L 3209 4016 
L 1366 4016 
L 1228 2778 
Q 1572 2975 1988 2975 
Q 2616 2975 2980 2561 
Q 3344 2147 3344 1450 
Q 3344 797 2987 367 
Q 2631 -63 1903 -63 
Q 1350 -63 947 248 
Q 544 559 481 1197 
L 1031 1197 
Q 1141 413 1903 413 
Q 2313 413 2538 691 
Q 2763 969 2763 1444 
Q 2763 1872 2527 2164 
Q 2291 2456 1853 2456 
Q 1563 2456 1413 2378 
Q 1263 2300 1109 2166 
z
" transform="scale(0.015625)"/>
       </defs>
       <use xlink:href="#Roboto-Regular-35"/>
      </g>
     </g>
    </g>
    <g id="ytick_7">
     <g id="line2d_17">
      <g>
       <use xlink:href="#mec5859bf89" x="41.537" y="83.229412" style="fill: #c2c1c1; stroke: #c2c1c1; stroke-width: 0.8"/>
      </g>
     </g>
     <g id="text_15">
      <!-- 6 -->
      <g style="fill: #191919" transform="translate(28.916687 86.979412) scale(0.1 -0.1)">
       <use xlink:href="#Roboto-Regular-36"/>
      </g>
     </g>
    </g>
    <g id="ytick_8">
     <g id="line2d_18">
      <g>
       <use xlink:href="#mec5859bf89" x="41.537" y="49.984706" style="fill: #c2c1c1; stroke: #c2c1c1; stroke-width: 0.8"/>
      </g>
     </g>
     <g id="text_16">
      <!-- 7 -->
      <g style="fill: #191919" transform="translate(28.916687 53.734706) scale(0.1 -0.1)">
       <defs>
        <path id="Roboto-Regular-37" d="M 3319 4550 
L 3319 4225 
L 1434 0 
L 825 0 
L 2706 4075 
L 244 4075 
L 244 4550 
L 3319 4550 
z
" transform="scale(0.015625)"/>
       </defs>
       <use xlink:href="#Roboto-Regular-37"/>
      </g>
     </g>
    </g>
    <g id="ytick_9">
     <g id="line2d_19">
      <g>
       <use xlink:href="#mec5859bf89" x="41.537" y="16.74" style="fill: #c2c1c1; stroke: #c2c1c1; stroke-width: 0.8"/>
      </g>
     </g>
     <g id="text_17">
      <!-- 8 -->
      <g style="fill: #191919" transform="translate(28.916687 20.49) scale(0.1 -0.1)">
       <use xlink:href="#Roboto-Regular-38"/>
      </g>
     </g>
    </g>
    <g id="text_18">
     <!-- PMF [kcal/mol] -->
     <g style="fill: #191919" transform="translate(22.479187 198.849687) rotate(-90) scale(0.12 -0.12)">
      <defs>
       <path id="Roboto-Bold-50" d="M 1347 1606 
L 1347 0 
L 406 0 
L 406 4550 
L 2184 4550 
Q 2991 4550 3442 4125 
Q 3894 3700 3894 3047 
Q 3894 2388 3442 1997 
Q 2991 1606 2184 1606 
L 1347 1606 
z
M 1347 3791 
L 1347 2363 
L 2184 2363 
Q 2588 2363 2766 2553 
Q 2944 2744 2944 3041 
Q 2944 3338 2766 3564 
Q 2588 3791 2184 3791 
L 1347 3791 
z
" transform="scale(0.015625)"/>
       <path id="Roboto-Bold-4d" d="M 2800 1250 
L 3966 4550 
L 5194 4550 
L 5194 0 
L 4253 0 
L 4253 1244 
L 4347 3381 
L 3122 0 
L 2478 0 
L 1253 3381 
L 1347 1244 
L 1347 0 
L 406 0 
L 406 4550 
L 1634 4550 
L 2800 1250 
z
" transform="scale(0.015625)"/>
       <path id="Roboto-Bold-46" d="M 406 0 
L 406 4550 
L 3372 4550 
L 3372 3791 
L 1347 3791 
L 1347 2616 
L 3147 2616 
L 3147 1859 
L 1347 1859 
L 1347 0 
L 406 0 
z
" transform="scale(0.015625)"/>
       <path id="Roboto-Bold-6b" d="M 2444 0 
L 1575 1356 
L 1253 1034 
L 1253 0 
L 350 0 
L 350 4803 
L 1253 4803 
L 1253 2144 
L 1428 2369 
L 2291 3381 
L 3375 3381 
L 2156 1975 
L 3484 0 
L 2444 0 
z
" transform="scale(0.015625)"/>
       <path id="Roboto-Bold-63" d="M 1753 666 
Q 2000 666 2159 802 
Q 2319 938 2322 1169 
L 3172 1169 
Q 3166 631 2761 284 
Q 2356 -63 1769 -63 
Q 984 -63 595 432 
Q 206 928 206 1647 
L 206 1734 
Q 206 2450 593 2947 
Q 981 3444 1766 3444 
Q 2388 3444 2777 3087 
Q 3166 2731 3172 2122 
L 2322 2122 
Q 2319 2369 2172 2542 
Q 2025 2716 1750 2716 
Q 1356 2716 1234 2420 
Q 1113 2125 1113 1647 
Q 1113 1256 1233 961 
Q 1353 666 1753 666 
z
" transform="scale(0.015625)"/>
       <path id="Roboto-Bold-61" d="M 2306 0 
Q 2250 119 2216 303 
Q 1888 -63 1363 -63 
Q 878 -63 547 223 
Q 216 509 216 950 
Q 216 1481 609 1773 
Q 1003 2066 1775 2066 
L 2178 2066 
L 2178 2263 
Q 2178 2497 2058 2636 
Q 1938 2775 1678 2775 
Q 1194 2775 1194 2369 
L 291 2369 
Q 291 2809 681 3126 
Q 1072 3444 1728 3444 
Q 2313 3444 2698 3147 
Q 3084 2850 3084 2256 
L 3084 750 
Q 3091 300 3219 53 
L 3219 0 
L 2306 0 
z
M 1559 628 
Q 1788 628 1948 729 
Q 2109 831 2178 953 
L 2178 1541 
L 1809 1541 
Q 1450 1541 1284 1389 
Q 1119 1238 1119 1016 
Q 1119 847 1236 737 
Q 1353 628 1559 628 
z
" transform="scale(0.015625)"/>
       <path id="Roboto-Bold-2f" d="M 2306 4550 
L 631 -391 
L -41 -391 
L 1634 4550 
L 2306 4550 
z
" transform="scale(0.015625)"/>
       <path id="Roboto-Bold-6d" d="M 1806 2713 
Q 1431 2713 1253 2394 
L 1253 0 
L 347 0 
L 347 3381 
L 1197 3381 
L 1228 3009 
Q 1581 3444 2197 3444 
Q 2850 3444 3094 2928 
Q 3441 3444 4109 3444 
Q 4597 3444 4894 3156 
Q 5191 2869 5194 2169 
L 5194 0 
L 4288 0 
L 4288 2156 
Q 4288 2494 4152 2603 
Q 4016 2713 3781 2713 
Q 3381 2713 3222 2334 
L 3222 0 
L 2319 0 
L 2319 2150 
Q 2319 2484 2181 2598 
Q 2044 2713 1806 2713 
z
" transform="scale(0.015625)"/>
       <path id="Roboto-Bold-6f" d="M 206 1722 
Q 206 2459 625 2951 
Q 1044 3444 1806 3444 
Q 2578 3444 2993 2951 
Q 3409 2459 3409 1722 
L 3409 1656 
Q 3409 919 2993 428 
Q 2578 -63 1813 -63 
Q 1053 -63 636 415 
Q 219 894 206 1616 
L 206 1722 
z
M 1113 1656 
Q 1113 1244 1270 955 
Q 1428 666 1813 666 
Q 2191 666 2348 953 
Q 2506 1241 2506 1722 
Q 2506 2125 2348 2420 
Q 2191 2716 1806 2716 
Q 1425 2716 1269 2422 
Q 1113 2128 1113 1656 
z
" transform="scale(0.015625)"/>
      </defs>
      <use xlink:href="#Roboto-Bold-50"/>
      <use xlink:href="#Roboto-Bold-4d" x="64.550781"/>
      <use xlink:href="#Roboto-Bold-46" x="152.148438"/>
      <use xlink:href="#Roboto-Bold-20" x="206.982422"/>
      <use xlink:href="#Roboto-Bold-5b" x="231.884766"/>
      <use xlink:href="#Roboto-Bold-6b" x="259.716797"/>
      <use xlink:href="#Roboto-Bold-63" x="313.134766"/>
      <use xlink:href="#Roboto-Bold-61" x="365.332031"/>
      <use xlink:href="#Roboto-Bold-6c" x="418.945312"/>
      <use xlink:href="#Roboto-Bold-2f" x="445.458984"/>
      <use xlink:href="#Roboto-Bold-6d" x="482.861328"/>
      <use xlink:href="#Roboto-Bold-6f" x="569.433594"/>
      <use xlink:href="#Roboto-Bold-6c" x="625.976562"/>
      <use xlink:href="#Roboto-Bold-5d" x="652.490234"/>
     </g>
    </g>
   </g>
   <g id="line2d_20">
    <path d="M 61.090173 -1 
L 61.31531 18.280414 
L 61.880405 55.665934 
L 62.445499 82.043002 
L 63.010594 97.411618 
L 63.575688 101.771783 
L 64.140783 95.123496 
L 64.705878 77.466757 
L 65.270972 48.801566 
L 65.948991 -1 
M 71.802101 -1 
L 72.052107 20.191896 
L 72.617202 57.08396 
L 73.182296 82.967572 
L 73.747391 97.842732 
L 74.312485 101.70944 
L 74.87758 94.567697 
L 75.442675 76.417502 
L 76.007769 47.258855 
L 76.662215 -1 
M 80.078581 -1 
L 80.528526 37.079933 
L 81.09362 74.982165 
L 81.658715 103.418613 
L 82.223809 123.065379 
L 82.788904 134.988767 
L 83.353999 140.830928 
L 83.919093 142.683883 
L 84.484188 142.310725 
L 85.049282 140.038197 
L 86.179471 130.158889 
L 86.744566 130.19674 
L 87.874755 138.092725 
L 88.43985 139.491377 
L 89.004944 136.874504 
L 89.570039 131.115127 
L 90.135134 127.709245 
L 90.700228 131.772256 
L 91.265323 138.112622 
L 91.830417 140.993289 
L 92.395512 139.415433 
L 92.960606 136.343186 
L 93.525701 137.91434 
L 94.65589 150.191644 
L 95.220985 154.289792 
L 95.786079 155.188444 
L 96.916268 151.534435 
L 97.481363 151.371663 
L 98.046458 153.448453 
L 98.611552 157.293876 
L 99.176647 159.864449 
L 99.741741 160.423737 
L 100.306836 162.444894 
L 101.437025 170.925393 
L 102.00212 172.50705 
L 102.567214 172.400389 
L 103.132309 172.650705 
L 103.697403 173.73812 
L 104.262498 174.533179 
L 104.827592 174.590645 
L 105.392687 174.478194 
L 105.957782 175.067368 
L 107.087971 177.622344 
L 107.653065 179.644509 
L 108.21816 182.149426 
L 108.783255 183.857688 
L 109.348349 184.283662 
L 109.913444 184.322151 
L 110.478538 184.992747 
L 111.043633 185.9384 
L 111.608727 186.238271 
L 112.173822 186.147875 
L 112.738917 186.77306 
L 113.869106 190.350581 
L 114.4342 190.897789 
L 114.999295 189.933528 
L 115.564389 188.512879 
L 116.129484 188.21616 
L 117.259673 190.246103 
L 118.954957 192.018406 
L 119.520051 191.118885 
L 120.650241 187.409037 
L 121.215335 187.163348 
L 122.345524 188.871056 
L 122.910619 189.267697 
L 123.475713 188.422981 
L 124.605903 184.661983 
L 125.736092 182.323073 
L 126.301186 181.538959 
L 127.431376 181.68745 
L 128.561565 179.601402 
L 129.691754 179.129748 
L 131.387038 176.85573 
L 131.952132 176.296694 
L 132.517227 174.068922 
L 133.647416 164.070946 
L 134.21251 161.209045 
L 134.777605 161.697034 
L 136.472889 167.936404 
L 137.037983 167.985839 
L 137.603078 164.949917 
L 138.168172 158.750124 
L 138.733267 151.200338 
L 139.298362 146.173431 
L 139.863456 145.898601 
L 140.428551 147.783854 
L 140.993645 148.084086 
L 141.55874 146.400351 
L 142.123834 146.108357 
L 142.688929 147.721328 
L 143.254024 147.825361 
L 144.384213 145.061863 
L 144.949307 142.371097 
L 146.644591 127.417409 
L 147.209686 121.044798 
L 147.77478 119.472895 
L 148.339875 125.51841 
L 148.904969 129.07171 
L 149.470064 125.980673 
L 150.035159 120.002532 
L 150.600253 116.784997 
L 151.165348 112.772539 
L 151.730442 102.189045 
L 152.295537 84.5427 
L 152.860631 77.978713 
L 153.425726 93.850007 
L 153.990821 106.561895 
L 154.555915 112.615152 
L 155.12101 114.482114 
L 155.686104 114.225995 
L 156.251199 112.715784 
L 156.816293 110.573191 
L 157.381388 106.748285 
L 157.946483 97.525175 
L 158.511577 81.476016 
L 159.076672 77.400764 
L 159.641766 96.433013 
L 160.206861 110.651104 
L 160.771955 114.848093 
L 161.33705 108.796992 
L 161.902145 92.45662 
L 162.467239 65.812727 
L 163.032334 33.73828 
L 163.597428 46.106612 
L 164.162523 75.124218 
L 164.727618 93.864068 
L 165.292712 101.604155 
L 165.857807 98.335894 
L 166.422901 84.059182 
L 166.987996 58.774018 
L 167.833599 -1 
M 174.500651 -1 
L 174.89932 30.785398 
L 175.464414 64.831258 
L 176.029509 87.868666 
L 176.594604 99.897622 
L 177.159698 100.918126 
L 177.724793 90.930184 
L 178.289887 69.934621 
L 179.420076 7.483538 
L 181.11536 96.905305 
L 181.680455 112.194763 
L 182.245549 119.077335 
L 182.810644 118.873363 
L 183.940833 107.906011 
L 184.505928 107.4908 
L 185.071022 110.485886 
L 185.636117 115.234491 
L 186.201211 118.554945 
L 186.766306 117.069105 
L 187.331401 111.967965 
L 187.896495 104.149136 
L 188.46159 90.572533 
L 189.026684 72.25135 
L 189.591779 77.415778 
L 190.156873 99.889062 
L 190.721968 117.925145 
L 191.287063 131.717961 
L 191.852157 142.202719 
L 192.417252 148.845189 
L 192.982346 151.698848 
L 193.547441 152.471147 
L 194.67763 153.060465 
L 195.242725 154.029706 
L 195.807819 156.635003 
L 196.938008 164.700137 
L 197.503103 165.715549 
L 198.633292 163.033244 
L 199.198387 163.517422 
L 199.763481 166.598589 
L 200.89367 176.309787 
L 201.458765 178.719243 
L 202.02386 179.297488 
L 202.588954 179.483423 
L 203.154049 181.096241 
L 204.284238 188.545961 
L 205.414427 196.008019 
L 205.979522 197.934497 
L 206.544616 198.83127 
L 207.109711 200.2408 
L 207.674805 203.113381 
L 208.804994 210.353359 
L 209.370089 213.069316 
L 209.935184 214.918478 
L 210.500278 216.303308 
L 211.065373 218.029168 
L 212.195562 223.213429 
L 213.325751 228.060995 
L 214.45594 231.516447 
L 217.281413 241.790869 
L 220.671981 252.697676 
L 223.497453 261.283671 
L 226.888021 268.791713 
L 228.01821 271.488032 
L 229.148399 273.587133 
L 231.408777 276.75882 
L 231.973872 277.501656 
L 233.669156 279.106868 
L 235.364439 281.398587 
L 235.929534 281.879461 
L 237.059723 282.43556 
L 238.189912 282.641755 
L 241.015385 282.816248 
L 242.710669 282.812266 
L 243.275764 282.468084 
L 245.536142 280.596151 
L 247.79652 278.897473 
L 248.361615 278.263825 
L 250.056898 275.672315 
L 252.882371 270.96851 
L 256.272939 264.51042 
L 258.533317 259.188055 
L 260.793695 252.9697 
L 263.619168 245.653708 
L 264.749357 241.638303 
L 270.400303 224.634375 
L 272.095587 219.174955 
L 273.790871 213.393943 
L 274.92106 209.723358 
L 276.051249 205.540091 
L 276.616344 204.314508 
L 277.746533 202.945305 
L 278.311627 201.469668 
L 281.1371 188.499117 
L 282.267289 184.327208 
L 282.832384 183.052872 
L 283.962573 182.365263 
L 284.527668 180.969006 
L 285.092762 178.180403 
L 285.657857 174.64072 
L 286.222951 172.311299 
L 286.788046 172.292993 
L 287.35314 172.851265 
L 287.918235 172.494591 
L 289.048424 169.783603 
L 289.613519 168.23074 
L 290.178613 165.337481 
L 291.873897 151.240312 
L 292.438992 148.58629 
L 293.004086 146.964804 
L 293.569181 148.373267 
L 294.69937 157.577415 
L 295.264465 158.961269 
L 295.829559 157.048286 
L 296.394654 153.809019 
L 296.959748 152.044557 
L 297.524843 151.884535 
L 298.089937 151.060017 
L 298.655032 148.447184 
L 299.785221 139.753559 
L 300.350316 137.393059 
L 300.91541 138.358525 
L 302.045599 146.418946 
L 302.610694 147.718731 
L 303.175789 147.855775 
L 303.740883 150.255524 
L 304.305978 153.412528 
L 304.871072 153.646761 
L 306.566356 147.674317 
L 307.696545 139.674541 
L 308.26164 138.95323 
L 308.826734 139.882722 
L 309.391829 137.390275 
L 310.522018 126.635985 
L 311.087113 125.631122 
L 311.652207 129.477793 
L 312.217302 135.174674 
L 312.782396 139.201248 
L 314.47768 148.551341 
L 315.607869 150.488164 
L 316.172964 152.650799 
L 316.738058 153.248819 
L 317.303153 150.606201 
L 317.868248 146.31803 
L 318.433342 143.895632 
L 318.998437 144.684416 
L 319.563531 146.610779 
L 320.128626 148.009126 
L 320.69372 148.132558 
L 321.258815 148.394191 
L 321.82391 150.813078 
L 322.954099 158.766504 
L 323.519193 160.644341 
L 324.084288 160.055825 
L 325.214477 156.623657 
L 325.779572 156.624918 
L 326.344666 158.847597 
L 327.474855 166.025791 
L 328.03995 166.979624 
L 328.605045 164.85302 
L 329.170139 162.182467 
L 329.735234 162.04696 
L 330.300328 164.452244 
L 331.430517 170.718095 
L 331.995612 172.437933 
L 332.560707 173.370378 
L 333.125801 173.479918 
L 333.690896 173.233711 
L 334.25599 174.005637 
L 335.386179 178.230916 
L 335.951274 179.355352 
L 336.516369 178.747993 
L 337.081463 177.355053 
L 337.646558 176.920838 
L 338.211652 177.669407 
L 338.776747 179.05087 
L 339.341841 181.359373 
L 340.472031 187.791136 
L 341.037125 189.466981 
L 341.60222 189.514735 
L 342.167314 188.86219 
L 342.732409 188.906719 
L 343.297503 190.106489 
L 343.862598 191.831648 
L 344.427693 193.096514 
L 344.992787 193.316581 
L 345.557882 192.927365 
L 346.122976 192.995362 
L 346.688071 193.858551 
L 348.383355 197.148044 
L 348.948449 197.974182 
L 349.513544 198.285577 
L 350.078638 198.341732 
L 350.643733 199.21749 
L 351.773922 202.969402 
L 352.339017 204.066792 
L 352.904111 204.320641 
L 353.469206 203.956288 
L 354.0343 203.987765 
L 354.599395 205.231204 
L 355.16449 206.764074 
L 357.424868 210.91001 
L 357.989962 211.408906 
L 358.555057 211.246283 
L 359.120152 210.939532 
L 359.685246 211.145926 
L 360.250341 211.498555 
L 360.815435 211.571529 
L 361.38053 211.983038 
L 361.945624 212.860945 
L 362.510719 213.395388 
L 363.075814 213.485158 
L 363.640908 213.377481 
L 364.771097 212.745381 
L 365.336192 212.93855 
L 367.031476 214.38113 
L 367.59657 213.997955 
L 368.726759 212.256382 
L 369.291854 212.130283 
L 369.856949 212.758123 
L 370.987138 214.60557 
L 371.552232 214.770278 
L 372.117327 214.505711 
L 372.682421 214.448106 
L 373.247516 214.535262 
L 373.812611 214.230769 
L 375.507894 211.485359 
L 376.638083 210.522709 
L 377.203178 210.464408 
L 377.768273 210.595327 
L 378.333367 210.029821 
L 379.463556 207.298535 
L 380.028651 205.863182 
L 380.593745 204.946768 
L 381.15884 204.902849 
L 381.723935 205.014992 
L 383.419218 204.48299 
L 384.549408 202.741548 
L 385.114502 202.598635 
L 385.679597 202.953301 
L 386.244691 202.900054 
L 386.809786 202.137113 
L 388.50507 199.237204 
L 389.070164 199.234321 
L 389.635259 199.559082 
L 390.200353 199.454912 
L 390.765448 198.578519 
L 391.895637 195.103672 
L 393.025826 191.687388 
L 393.590921 190.340076 
L 394.72111 188.449718 
L 395.851299 186.567091 
L 396.981488 185.903185 
L 397.546583 185.094456 
L 398.111677 183.929986 
L 398.676772 182.013534 
L 399.806961 176.735896 
L 400.93715 173.227871 
L 401.502245 170.629861 
L 402.067339 168.752433 
L 402.632434 169.990272 
L 403.197529 171.822745 
L 403.762623 171.260702 
L 404.327718 168.937008 
L 404.892812 165.917588 
L 406.023001 157.561702 
L 406.588096 154.983529 
L 407.153191 155.155999 
L 408.28338 158.949305 
L 408.848474 159.154722 
L 409.413569 156.065121 
L 409.978663 149.28113 
L 410.543758 141.115887 
L 411.108853 136.035415 
L 411.673947 135.779294 
L 412.239042 137.373901 
L 413.369231 139.271996 
L 413.934325 140.352923 
L 414.49942 139.098132 
L 416.194704 128.658351 
L 416.759798 127.50655 
L 417.324893 129.278155 
L 417.889987 131.743299 
L 418.455082 132.57107 
L 419.020177 131.732805 
L 419.585271 129.464441 
L 420.150366 124.669961 
L 420.71546 116.049754 
L 421.280555 104.411303 
L 421.84565 99.836062 
L 422.410744 107.804295 
L 422.975839 113.852938 
L 423.540933 113.537845 
L 424.106028 110.639041 
L 424.671122 111.090596 
L 425.236217 112.658395 
L 425.801312 109.952759 
L 426.366406 100.246875 
L 426.931501 81.85886 
L 427.496595 53.637804 
L 428.245802 -1 
M 429.659756 -1 
L 430.322068 47.609315 
L 430.887163 76.716913 
L 431.452257 95.029775 
L 432.017352 103.326755 
L 432.582446 104.55789 
L 433.147541 104.507958 
L 433.712636 103.773231 
L 434.27773 96.612963 
L 434.842825 79.643049 
L 435.407919 51.925409 
L 436.135179 -1 
L 436.135179 -1 
" clip-path="url(#p0a1177212b)" style="fill: none; stroke: #f99752; stroke-width: 2.5; stroke-linecap: square"/>
   </g>
   <g id="patch_3">
    <path d="M 41.537 299.32 
L 41.537 16.74 
" style="fill: none; stroke: #c2c1c1; stroke-width: 0.8; stroke-linejoin: miter; stroke-linecap: square"/>
   </g>
   <g id="patch_4">
    <path d="M 447.84 299.32 
L 447.84 16.74 
" style="fill: none; stroke: #c2c1c1; stroke-width: 0.8; stroke-linejoin: miter; stroke-linecap: square"/>
   </g>
   <g id="patch_5">
    <path d="M 41.537 299.32 
L 447.84 299.32 
" style="fill: none; stroke: #c2c1c1; stroke-width: 0.8; stroke-linejoin: miter; stroke-linecap: square"/>
   </g>
   <g id="patch_6">
    <path d="M 41.537 16.74 
L 447.84 16.74 
" style="fill: none; stroke: #c2c1c1; stroke-width: 0.8; stroke-linejoin: miter; stroke-linecap: square"/>
   </g>
   <g id="legend_1">
    <g id="line2d_21">
     <path d="M 204.61225 32.34 
L 216.61225 32.34 
L 228.61225 32.34 
" style="fill: none; stroke: #1e2e79; stroke-width: 2.5; stroke-linecap: square"/>
    </g>
    <g id="text_19">
     <!-- Reduced -->
     <g transform="translate(238.21225 36.54) scale(0.12 -0.12)">
      <defs>
       <path id="Roboto-Regular-52" d="M 3188 0 
L 2200 1844 
L 1131 1844 
L 1131 0 
L 528 0 
L 528 4550 
L 2034 4550 
Q 2800 4550 3214 4200 
Q 3628 3850 3628 3184 
Q 3628 2759 3398 2442 
Q 3169 2125 2763 1969 
L 3831 38 
L 3831 0 
L 3188 0 
z
M 1131 4056 
L 1131 2334 
L 2053 2334 
Q 2538 2334 2783 2582 
Q 3028 2831 3028 3184 
Q 3028 3578 2792 3817 
Q 2556 4056 2034 4056 
L 1131 4056 
z
" transform="scale(0.015625)"/>
       <path id="Roboto-Regular-65" d="M 3116 591 
Q 2950 341 2647 139 
Q 2344 -63 1844 -63 
Q 1138 -63 714 396 
Q 291 856 291 1572 
L 291 1703 
Q 291 2256 502 2645 
Q 713 3034 1050 3239 
Q 1388 3444 1769 3444 
Q 2494 3444 2826 2970 
Q 3159 2497 3159 1788 
L 3159 1528 
L 872 1528 
Q 884 1063 1148 736 
Q 1413 409 1875 409 
Q 2181 409 2393 534 
Q 2606 659 2766 869 
L 3116 591 
z
M 1769 2969 
Q 1425 2969 1187 2719 
Q 950 2469 891 2000 
L 2581 2000 
L 2581 2044 
Q 2559 2381 2386 2675 
Q 2213 2969 1769 2969 
z
" transform="scale(0.015625)"/>
       <path id="Roboto-Regular-64" d="M 2622 0 
L 2594 363 
Q 2247 -63 1628 -63 
Q 1034 -63 668 418 
Q 303 900 297 1628 
L 297 1719 
Q 297 2494 664 2969 
Q 1031 3444 1634 3444 
Q 2231 3444 2572 3044 
L 2572 4800 
L 3153 4800 
L 3153 0 
L 2622 0 
z
M 878 1653 
Q 878 1150 1090 789 
Q 1303 428 1772 428 
Q 2309 428 2572 919 
L 2572 2475 
Q 2313 2956 1778 2956 
Q 1306 2956 1092 2589 
Q 878 2222 878 1719 
L 878 1653 
z
" transform="scale(0.015625)"/>
       <path id="Roboto-Regular-75" d="M 2538 0 
L 2525 334 
Q 2194 -63 1538 -63 
Q 1041 -63 734 231 
Q 428 525 428 1200 
L 428 3381 
L 1006 3381 
L 1006 1194 
Q 1006 738 1198 583 
Q 1391 428 1628 428 
Q 2281 428 2509 919 
L 2509 3381 
L 3091 3381 
L 3091 0 
L 2538 0 
z
" transform="scale(0.015625)"/>
       <path id="Roboto-Regular-63" d="M 1794 413 
Q 2103 413 2336 597 
Q 2569 781 2591 1069 
L 3141 1069 
Q 3119 616 2725 276 
Q 2331 -63 1794 -63 
Q 1031 -63 661 440 
Q 291 944 291 1625 
L 291 1756 
Q 291 2438 661 2941 
Q 1031 3444 1794 3444 
Q 2388 3444 2753 3092 
Q 3119 2741 3141 2219 
L 2591 2219 
Q 2569 2531 2355 2750 
Q 2141 2969 1794 2969 
Q 1438 2969 1236 2787 
Q 1034 2606 951 2328 
Q 869 2050 869 1756 
L 869 1625 
Q 869 1328 950 1050 
Q 1031 772 1232 592 
Q 1434 413 1794 413 
z
" transform="scale(0.015625)"/>
      </defs>
      <use xlink:href="#Roboto-Regular-52"/>
      <use xlink:href="#Roboto-Regular-65" x="61.621094"/>
      <use xlink:href="#Roboto-Regular-64" x="114.648438"/>
      <use xlink:href="#Roboto-Regular-75" x="171.044922"/>
      <use xlink:href="#Roboto-Regular-63" x="226.171875"/>
      <use xlink:href="#Roboto-Regular-65" x="278.515625"/>
      <use xlink:href="#Roboto-Regular-64" x="331.542969"/>
     </g>
    </g>
    <g id="line2d_22">
     <path d="M 204.61225 49.7775 
L 216.61225 49.7775 
L 228.61225 49.7775 
" style="fill: none; stroke: #ec4067; stroke-width: 2.5; stroke-linecap: square"/>
    </g>
    <g id="text_20">
     <!-- Oxidized -->
     <g transform="translate(238.21225 53.9775) scale(0.12 -0.12)">
      <defs>
       <path id="Roboto-Regular-4f" d="M 4031 2131 
Q 4031 1106 3534 521 
Q 3038 -63 2206 -63 
Q 1397 -63 884 521 
Q 372 1106 372 2131 
L 372 2419 
Q 372 3441 881 4027 
Q 1391 4613 2200 4613 
Q 3025 4613 3523 4036 
Q 4022 3459 4031 2456 
L 4031 2131 
z
M 3434 2425 
Q 3434 3238 3109 3669 
Q 2784 4100 2200 4100 
Q 1641 4100 1305 3669 
Q 969 3238 969 2425 
L 969 2131 
Q 969 1313 1308 880 
Q 1647 447 2206 447 
Q 2794 447 3114 880 
Q 3434 1313 3434 2131 
L 3434 2425 
z
" transform="scale(0.015625)"/>
       <path id="Roboto-Regular-78" d="M 831 3381 
L 1572 2150 
L 2322 3381 
L 3000 3381 
L 1894 1713 
L 3034 0 
L 2366 0 
L 1584 1269 
L 803 0 
L 131 0 
L 1269 1713 
L 166 3381 
L 831 3381 
z
" transform="scale(0.015625)"/>
       <path id="Roboto-Regular-69" d="M 444 4278 
Q 444 4419 530 4516 
Q 616 4613 784 4613 
Q 950 4613 1039 4516 
Q 1128 4419 1128 4278 
Q 1128 4144 1039 4048 
Q 950 3953 784 3953 
Q 616 3953 530 4048 
Q 444 4144 444 4278 
z
M 1069 3381 
L 1069 0 
L 488 0 
L 488 3381 
L 1069 3381 
z
" transform="scale(0.015625)"/>
       <path id="Roboto-Regular-7a" d="M 303 2903 
L 303 3381 
L 2869 3381 
L 2869 2972 
L 988 475 
L 2959 475 
L 2959 0 
L 278 0 
L 278 425 
L 2141 2903 
L 303 2903 
z
" transform="scale(0.015625)"/>
      </defs>
      <use xlink:href="#Roboto-Regular-4f"/>
      <use xlink:href="#Roboto-Regular-78" x="68.798828"/>
      <use xlink:href="#Roboto-Regular-69" x="118.408203"/>
      <use xlink:href="#Roboto-Regular-64" x="142.724609"/>
      <use xlink:href="#Roboto-Regular-69" x="199.121094"/>
      <use xlink:href="#Roboto-Regular-7a" x="223.4375"/>
      <use xlink:href="#Roboto-Regular-65" x="273.046875"/>
      <use xlink:href="#Roboto-Regular-64" x="326.074219"/>
     </g>
    </g>
    <g id="line2d_23">
     <path d="M 204.61225 67.84125 
L 216.61225 67.84125 
L 228.61225 67.84125 
" style="fill: none; stroke: #f99752; stroke-width: 2.5; stroke-linecap: square"/>
    </g>
    <g id="text_21">
     <!-- Cu(I) -->
     <g transform="translate(238.21225 72.04125) scale(0.12 -0.12)">
      <defs>
       <path id="Roboto-Regular-43" d="M 3275 1447 
L 3875 1447 
Q 3806 800 3387 368 
Q 2969 -63 2150 -63 
Q 1356 -63 870 504 
Q 384 1072 375 2013 
L 375 2500 
Q 375 3456 867 4034 
Q 1359 4613 2203 4613 
Q 2975 4613 3390 4188 
Q 3806 3763 3875 3091 
L 3275 3091 
Q 3206 3566 2968 3842 
Q 2731 4119 2203 4119 
Q 1600 4119 1287 3675 
Q 975 3231 975 2506 
L 975 2047 
Q 975 1375 1259 901 
Q 1544 428 2150 428 
Q 2725 428 2961 697 
Q 3197 966 3275 1447 
z
" transform="scale(0.015625)"/>
       <path id="Roboto-Regular-28" d="M 419 1850 
Q 419 2756 678 3434 
Q 938 4113 1294 4541 
Q 1650 4969 1947 5134 
L 2069 4753 
Q 1700 4475 1348 3761 
Q 997 3047 997 1813 
Q 997 625 1348 -97 
Q 1700 -819 2069 -1119 
L 1947 -1469 
Q 1650 -1306 1294 -878 
Q 938 -450 678 226 
Q 419 903 419 1850 
z
" transform="scale(0.015625)"/>
       <path id="Roboto-Regular-49" d="M 1175 4550 
L 1175 0 
L 572 0 
L 572 4550 
L 1175 4550 
z
" transform="scale(0.015625)"/>
       <path id="Roboto-Regular-29" d="M 1772 1819 
Q 1772 906 1512 228 
Q 1253 -450 895 -878 
Q 538 -1306 244 -1469 
L 122 -1119 
Q 488 -841 841 -109 
Q 1194 622 1194 1856 
Q 1194 2647 1019 3236 
Q 844 3825 594 4212 
Q 344 4600 122 4781 
L 244 5134 
Q 538 4969 895 4541 
Q 1253 4113 1512 3436 
Q 1772 2759 1772 1819 
z
" transform="scale(0.015625)"/>
      </defs>
      <use xlink:href="#Roboto-Regular-43"/>
      <use xlink:href="#Roboto-Regular-75" x="65.087891"/>
      <use xlink:href="#Roboto-Regular-28" x="120.214844"/>
      <use xlink:href="#Roboto-Regular-49" x="154.443359"/>
      <use xlink:href="#Roboto-Regular-29" x="181.640625"/>
     </g>
    </g>
   </g>
  </g>
 </g>
 <defs>
  <clipPath id="p0a1177212b">
   <rect x="41.537" y="16.74" width="406.303" height="282.58"/>
  </clipPath>
 </defs>
</svg>
