<?xml version="1.0" encoding="utf-8" standalone="no"?>
<!DOCTYPE svg PUBLIC "-//W3C//DTD SVG 1.1//EN"
  "http://www.w3.org/Graphics/SVG/1.1/DTD/svg11.dtd">
<svg xmlns:xlink="http://www.w3.org/1999/xlink" width="460.8pt" height="345.6pt" viewBox="0 0 460.8 345.6" xmlns="http://www.w3.org/2000/svg" version="1.1">
 <metadata>
  <rdf:RDF xmlns:dc="http://purl.org/dc/elements/1.1/" xmlns:cc="http://creativecommons.org/ns#" xmlns:rdf="http://www.w3.org/1999/02/22-rdf-syntax-ns#">
   <cc:Work>
    <dc:type rdf:resource="http://purl.org/dc/dcmitype/StillImage"/>
    <dc:date>2024-06-10T22:05:17.854176</dc:date>
    <dc:format>image/svg+xml</dc:format>
    <dc:creator>
     <cc:Agent>
      <dc:title>Matplotlib v3.8.4, https://matplotlib.org/</dc:title>
     </cc:Agent>
    </dc:creator>
   </cc:Work>
  </rdf:RDF>
 </metadata>
 <defs>
  <style type="text/css">*{stroke-linejoin: round; stroke-linecap: butt}</style>
 </defs>
 <g id="figure_1">
  <g id="patch_1">
   <path d="M 0 345.6 
L 460.8 345.6 
L 460.8 0 
L 0 0 
z
" style="fill: #ffffff"/>
  </g>
  <g id="axes_1">
   <g id="patch_2">
    <path d="M 54.02 302.8525 
L 450 302.8525 
L 450 10.8 
L 54.02 10.8 
z
" style="fill: #ffffff"/>
   </g>
   <g id="patch_3">
    <path d="M 56.263214 302.8525 
L 60.657067 302.8525 
L 60.657067 302.064576 
L 56.263214 302.064576 
z
" clip-path="url(#pc0715d3f3c)" style="fill: #1e2e79; fill-opacity: 0.5; stroke: #000000; stroke-width: 0.33128; stroke-linejoin: miter"/>
   </g>
   <g id="patch_4">
    <path d="M 60.657067 302.8525 
L 65.05092 302.8525 
L 65.05092 291.34881 
L 60.657067 291.34881 
z
" clip-path="url(#pc0715d3f3c)" style="fill: #1e2e79; fill-opacity: 0.5; stroke: #000000; stroke-width: 0.33128; stroke-linejoin: miter"/>
   </g>
   <g id="patch_5">
    <path d="M 65.05092 302.8525 
L 69.444772 302.8525 
L 69.444772 252.504157 
L 65.05092 252.504157 
z
" clip-path="url(#pc0715d3f3c)" style="fill: #1e2e79; fill-opacity: 0.5; stroke: #000000; stroke-width: 0.33128; stroke-linejoin: miter"/>
   </g>
   <g id="patch_6">
    <path d="M 69.444772 302.8525 
L 73.838625 302.8525 
L 73.838625 165.517349 
L 69.444772 165.517349 
z
" clip-path="url(#pc0715d3f3c)" style="fill: #1e2e79; fill-opacity: 0.5; stroke: #000000; stroke-width: 0.33128; stroke-linejoin: miter"/>
   </g>
   <g id="patch_7">
    <path d="M 73.838625 302.8525 
L 78.232478 302.8525 
L 78.232478 77.348655 
L 73.838625 77.348655 
z
" clip-path="url(#pc0715d3f3c)" style="fill: #1e2e79; fill-opacity: 0.5; stroke: #000000; stroke-width: 0.33128; stroke-linejoin: miter"/>
   </g>
   <g id="patch_8">
    <path d="M 78.232478 302.8525 
L 82.626331 302.8525 
L 82.626331 30.86114 
L 78.232478 30.86114 
z
" clip-path="url(#pc0715d3f3c)" style="fill: #1e2e79; fill-opacity: 0.5; stroke: #000000; stroke-width: 0.33128; stroke-linejoin: miter"/>
   </g>
   <g id="patch_9">
    <path d="M 82.626331 302.8525 
L 87.020183 302.8525 
L 87.020183 30.230801 
L 82.626331 30.230801 
z
" clip-path="url(#pc0715d3f3c)" style="fill: #1e2e79; fill-opacity: 0.5; stroke: #000000; stroke-width: 0.33128; stroke-linejoin: miter"/>
   </g>
   <g id="patch_10">
    <path d="M 87.020183 302.8525 
L 91.414036 302.8525 
L 91.414036 46.777205 
L 87.020183 46.777205 
z
" clip-path="url(#pc0715d3f3c)" style="fill: #1e2e79; fill-opacity: 0.5; stroke: #000000; stroke-width: 0.33128; stroke-linejoin: miter"/>
   </g>
   <g id="patch_11">
    <path d="M 91.414036 302.8525 
L 95.807889 302.8525 
L 95.807889 91.216117 
L 91.414036 91.216117 
z
" clip-path="url(#pc0715d3f3c)" style="fill: #1e2e79; fill-opacity: 0.5; stroke: #000000; stroke-width: 0.33128; stroke-linejoin: miter"/>
   </g>
   <g id="patch_12">
    <path d="M 95.807889 302.8525 
L 100.201741 302.8525 
L 100.201741 128.169752 
L 95.807889 128.169752 
z
" clip-path="url(#pc0715d3f3c)" style="fill: #1e2e79; fill-opacity: 0.5; stroke: #000000; stroke-width: 0.33128; stroke-linejoin: miter"/>
   </g>
   <g id="patch_13">
    <path d="M 100.201741 302.8525 
L 104.595594 302.8525 
L 104.595594 144.873741 
L 100.201741 144.873741 
z
" clip-path="url(#pc0715d3f3c)" style="fill: #1e2e79; fill-opacity: 0.5; stroke: #000000; stroke-width: 0.33128; stroke-linejoin: miter"/>
   </g>
   <g id="patch_14">
    <path d="M 104.595594 302.8525 
L 108.989447 302.8525 
L 108.989447 153.146943 
L 104.595594 153.146943 
z
" clip-path="url(#pc0715d3f3c)" style="fill: #1e2e79; fill-opacity: 0.5; stroke: #000000; stroke-width: 0.33128; stroke-linejoin: miter"/>
   </g>
   <g id="patch_15">
    <path d="M 108.989447 302.8525 
L 113.3833 302.8525 
L 113.3833 163.074785 
L 108.989447 163.074785 
z
" clip-path="url(#pc0715d3f3c)" style="fill: #1e2e79; fill-opacity: 0.5; stroke: #000000; stroke-width: 0.33128; stroke-linejoin: miter"/>
   </g>
   <g id="patch_16">
    <path d="M 113.3833 302.8525 
L 117.777152 302.8525 
L 117.777152 171.269194 
L 113.3833 171.269194 
z
" clip-path="url(#pc0715d3f3c)" style="fill: #1e2e79; fill-opacity: 0.5; stroke: #000000; stroke-width: 0.33128; stroke-linejoin: miter"/>
   </g>
   <g id="patch_17">
    <path d="M 117.777152 302.8525 
L 122.171005 302.8525 
L 122.171005 174.972437 
L 117.777152 174.972437 
z
" clip-path="url(#pc0715d3f3c)" style="fill: #1e2e79; fill-opacity: 0.5; stroke: #000000; stroke-width: 0.33128; stroke-linejoin: miter"/>
   </g>
   <g id="patch_18">
    <path d="M 122.171005 302.8525 
L 126.564858 302.8525 
L 126.564858 168.432668 
L 122.171005 168.432668 
z
" clip-path="url(#pc0715d3f3c)" style="fill: #1e2e79; fill-opacity: 0.5; stroke: #000000; stroke-width: 0.33128; stroke-linejoin: miter"/>
   </g>
   <g id="patch_19">
    <path d="M 126.564858 302.8525 
L 130.958711 302.8525 
L 130.958711 171.505572 
L 126.564858 171.505572 
z
" clip-path="url(#pc0715d3f3c)" style="fill: #1e2e79; fill-opacity: 0.5; stroke: #000000; stroke-width: 0.33128; stroke-linejoin: miter"/>
   </g>
   <g id="patch_20">
    <path d="M 130.958711 302.8525 
L 135.352563 302.8525 
L 135.352563 158.426033 
L 130.958711 158.426033 
z
" clip-path="url(#pc0715d3f3c)" style="fill: #1e2e79; fill-opacity: 0.5; stroke: #000000; stroke-width: 0.33128; stroke-linejoin: miter"/>
   </g>
   <g id="patch_21">
    <path d="M 135.352563 302.8525 
L 139.746416 302.8525 
L 139.746416 156.613808 
L 135.352563 156.613808 
z
" clip-path="url(#pc0715d3f3c)" style="fill: #1e2e79; fill-opacity: 0.5; stroke: #000000; stroke-width: 0.33128; stroke-linejoin: miter"/>
   </g>
   <g id="patch_22">
    <path d="M 139.746416 302.8525 
L 144.140269 302.8525 
L 144.140269 149.049738 
L 139.746416 149.049738 
z
" clip-path="url(#pc0715d3f3c)" style="fill: #1e2e79; fill-opacity: 0.5; stroke: #000000; stroke-width: 0.33128; stroke-linejoin: miter"/>
   </g>
   <g id="patch_23">
    <path d="M 144.140269 302.8525 
L 148.534121 302.8525 
L 148.534121 141.56446 
L 144.140269 141.56446 
z
" clip-path="url(#pc0715d3f3c)" style="fill: #1e2e79; fill-opacity: 0.5; stroke: #000000; stroke-width: 0.33128; stroke-linejoin: miter"/>
   </g>
   <g id="patch_24">
    <path d="M 148.534121 302.8525 
L 152.927974 302.8525 
L 152.927974 136.758124 
L 148.534121 136.758124 
z
" clip-path="url(#pc0715d3f3c)" style="fill: #1e2e79; fill-opacity: 0.5; stroke: #000000; stroke-width: 0.33128; stroke-linejoin: miter"/>
   </g>
   <g id="patch_25">
    <path d="M 152.927974 302.8525 
L 157.321827 302.8525 
L 157.321827 127.618206 
L 152.927974 127.618206 
z
" clip-path="url(#pc0715d3f3c)" style="fill: #1e2e79; fill-opacity: 0.5; stroke: #000000; stroke-width: 0.33128; stroke-linejoin: miter"/>
   </g>
   <g id="patch_26">
    <path d="M 157.321827 302.8525 
L 161.71568 302.8525 
L 161.71568 122.023945 
L 157.321827 122.023945 
z
" clip-path="url(#pc0715d3f3c)" style="fill: #1e2e79; fill-opacity: 0.5; stroke: #000000; stroke-width: 0.33128; stroke-linejoin: miter"/>
   </g>
   <g id="patch_27">
    <path d="M 161.71568 302.8525 
L 166.109532 302.8525 
L 166.109532 107.132182 
L 161.71568 107.132182 
z
" clip-path="url(#pc0715d3f3c)" style="fill: #1e2e79; fill-opacity: 0.5; stroke: #000000; stroke-width: 0.33128; stroke-linejoin: miter"/>
   </g>
   <g id="patch_28">
    <path d="M 166.109532 302.8525 
L 170.503385 302.8525 
L 170.503385 102.325846 
L 166.109532 102.325846 
z
" clip-path="url(#pc0715d3f3c)" style="fill: #1e2e79; fill-opacity: 0.5; stroke: #000000; stroke-width: 0.33128; stroke-linejoin: miter"/>
   </g>
   <g id="patch_29">
    <path d="M 170.503385 302.8525 
L 174.897238 302.8525 
L 174.897238 94.91936 
L 170.503385 94.91936 
z
" clip-path="url(#pc0715d3f3c)" style="fill: #1e2e79; fill-opacity: 0.5; stroke: #000000; stroke-width: 0.33128; stroke-linejoin: miter"/>
   </g>
   <g id="patch_30">
    <path d="M 174.897238 302.8525 
L 179.291091 302.8525 
L 179.291091 89.561477 
L 174.897238 89.561477 
z
" clip-path="url(#pc0715d3f3c)" style="fill: #1e2e79; fill-opacity: 0.5; stroke: #000000; stroke-width: 0.33128; stroke-linejoin: miter"/>
   </g>
   <g id="patch_31">
    <path d="M 179.291091 302.8525 
L 183.684943 302.8525 
L 183.684943 84.912726 
L 179.291091 84.912726 
z
" clip-path="url(#pc0715d3f3c)" style="fill: #1e2e79; fill-opacity: 0.5; stroke: #000000; stroke-width: 0.33128; stroke-linejoin: miter"/>
   </g>
   <g id="patch_32">
    <path d="M 183.684943 302.8525 
L 188.078796 302.8525 
L 188.078796 71.675603 
L 183.684943 71.675603 
z
" clip-path="url(#pc0715d3f3c)" style="fill: #1e2e79; fill-opacity: 0.5; stroke: #000000; stroke-width: 0.33128; stroke-linejoin: miter"/>
   </g>
   <g id="patch_33">
    <path d="M 188.078796 302.8525 
L 192.472649 302.8525 
L 192.472649 77.427448 
L 188.078796 77.427448 
z
" clip-path="url(#pc0715d3f3c)" style="fill: #1e2e79; fill-opacity: 0.5; stroke: #000000; stroke-width: 0.33128; stroke-linejoin: miter"/>
   </g>
   <g id="patch_34">
    <path d="M 192.472649 302.8525 
L 196.866501 302.8525 
L 196.866501 61.038629 
L 192.472649 61.038629 
z
" clip-path="url(#pc0715d3f3c)" style="fill: #1e2e79; fill-opacity: 0.5; stroke: #000000; stroke-width: 0.33128; stroke-linejoin: miter"/>
   </g>
   <g id="patch_35">
    <path d="M 196.866501 302.8525 
L 201.260354 302.8525 
L 201.260354 62.929646 
L 196.866501 62.929646 
z
" clip-path="url(#pc0715d3f3c)" style="fill: #1e2e79; fill-opacity: 0.5; stroke: #000000; stroke-width: 0.33128; stroke-linejoin: miter"/>
   </g>
   <g id="patch_36">
    <path d="M 201.260354 302.8525 
L 205.654207 302.8525 
L 205.654207 62.614477 
L 201.260354 62.614477 
z
" clip-path="url(#pc0715d3f3c)" style="fill: #1e2e79; fill-opacity: 0.5; stroke: #000000; stroke-width: 0.33128; stroke-linejoin: miter"/>
   </g>
   <g id="patch_37">
    <path d="M 205.654207 302.8525 
L 210.04806 302.8525 
L 210.04806 64.663079 
L 205.654207 64.663079 
z
" clip-path="url(#pc0715d3f3c)" style="fill: #1e2e79; fill-opacity: 0.5; stroke: #000000; stroke-width: 0.33128; stroke-linejoin: miter"/>
   </g>
   <g id="patch_38">
    <path d="M 210.04806 302.8525 
L 214.441912 302.8525 
L 214.441912 64.978249 
L 210.04806 64.978249 
z
" clip-path="url(#pc0715d3f3c)" style="fill: #1e2e79; fill-opacity: 0.5; stroke: #000000; stroke-width: 0.33128; stroke-linejoin: miter"/>
   </g>
   <g id="patch_39">
    <path d="M 214.441912 302.8525 
L 218.835765 302.8525 
L 218.835765 67.735983 
L 214.441912 67.735983 
z
" clip-path="url(#pc0715d3f3c)" style="fill: #1e2e79; fill-opacity: 0.5; stroke: #000000; stroke-width: 0.33128; stroke-linejoin: miter"/>
   </g>
   <g id="patch_40">
    <path d="M 218.835765 302.8525 
L 223.229618 302.8525 
L 223.229618 68.996661 
L 218.835765 68.996661 
z
" clip-path="url(#pc0715d3f3c)" style="fill: #1e2e79; fill-opacity: 0.5; stroke: #000000; stroke-width: 0.33128; stroke-linejoin: miter"/>
   </g>
   <g id="patch_41">
    <path d="M 223.229618 302.8525 
L 227.623471 302.8525 
L 227.623471 68.839076 
L 223.229618 68.839076 
z
" clip-path="url(#pc0715d3f3c)" style="fill: #1e2e79; fill-opacity: 0.5; stroke: #000000; stroke-width: 0.33128; stroke-linejoin: miter"/>
   </g>
   <g id="patch_42">
    <path d="M 227.623471 302.8525 
L 232.017323 302.8525 
L 232.017323 66.160135 
L 227.623471 66.160135 
z
" clip-path="url(#pc0715d3f3c)" style="fill: #1e2e79; fill-opacity: 0.5; stroke: #000000; stroke-width: 0.33128; stroke-linejoin: miter"/>
   </g>
   <g id="patch_43">
    <path d="M 232.017323 302.8525 
L 236.411176 302.8525 
L 236.411176 67.578398 
L 232.017323 67.578398 
z
" clip-path="url(#pc0715d3f3c)" style="fill: #1e2e79; fill-opacity: 0.5; stroke: #000000; stroke-width: 0.33128; stroke-linejoin: miter"/>
   </g>
   <g id="patch_44">
    <path d="M 236.411176 302.8525 
L 240.805029 302.8525 
L 240.805029 70.493717 
L 236.411176 70.493717 
z
" clip-path="url(#pc0715d3f3c)" style="fill: #1e2e79; fill-opacity: 0.5; stroke: #000000; stroke-width: 0.33128; stroke-linejoin: miter"/>
   </g>
   <g id="patch_45">
    <path d="M 240.805029 302.8525 
L 245.198881 302.8525 
L 245.198881 61.905345 
L 240.805029 61.905345 
z
" clip-path="url(#pc0715d3f3c)" style="fill: #1e2e79; fill-opacity: 0.5; stroke: #000000; stroke-width: 0.33128; stroke-linejoin: miter"/>
   </g>
   <g id="patch_46">
    <path d="M 245.198881 302.8525 
L 249.592734 302.8525 
L 249.592734 55.207991 
L 245.198881 55.207991 
z
" clip-path="url(#pc0715d3f3c)" style="fill: #1e2e79; fill-opacity: 0.5; stroke: #000000; stroke-width: 0.33128; stroke-linejoin: miter"/>
   </g>
   <g id="patch_47">
    <path d="M 249.592734 302.8525 
L 253.986587 302.8525 
L 253.986587 62.850854 
L 249.592734 62.850854 
z
" clip-path="url(#pc0715d3f3c)" style="fill: #1e2e79; fill-opacity: 0.5; stroke: #000000; stroke-width: 0.33128; stroke-linejoin: miter"/>
   </g>
   <g id="patch_48">
    <path d="M 253.986587 302.8525 
L 258.38044 302.8525 
L 258.38044 43.783094 
L 253.986587 43.783094 
z
" clip-path="url(#pc0715d3f3c)" style="fill: #1e2e79; fill-opacity: 0.5; stroke: #000000; stroke-width: 0.33128; stroke-linejoin: miter"/>
   </g>
   <g id="patch_49">
    <path d="M 258.38044 302.8525 
L 262.774292 302.8525 
L 262.774292 38.976757 
L 258.38044 38.976757 
z
" clip-path="url(#pc0715d3f3c)" style="fill: #1e2e79; fill-opacity: 0.5; stroke: #000000; stroke-width: 0.33128; stroke-linejoin: miter"/>
   </g>
   <g id="patch_50">
    <path d="M 262.774292 302.8525 
L 267.168145 302.8525 
L 267.168145 40.867775 
L 262.774292 40.867775 
z
" clip-path="url(#pc0715d3f3c)" style="fill: #1e2e79; fill-opacity: 0.5; stroke: #000000; stroke-width: 0.33128; stroke-linejoin: miter"/>
   </g>
   <g id="patch_51">
    <path d="M 267.168145 302.8525 
L 271.561998 302.8525 
L 271.561998 39.607096 
L 267.168145 39.607096 
z
" clip-path="url(#pc0715d3f3c)" style="fill: #1e2e79; fill-opacity: 0.5; stroke: #000000; stroke-width: 0.33128; stroke-linejoin: miter"/>
   </g>
   <g id="patch_52">
    <path d="M 271.561998 302.8525 
L 275.95585 302.8525 
L 275.95585 51.662333 
L 271.561998 51.662333 
z
" clip-path="url(#pc0715d3f3c)" style="fill: #1e2e79; fill-opacity: 0.5; stroke: #000000; stroke-width: 0.33128; stroke-linejoin: miter"/>
   </g>
   <g id="patch_53">
    <path d="M 275.95585 302.8525 
L 280.349703 302.8525 
L 280.349703 50.55924 
L 275.95585 50.55924 
z
" clip-path="url(#pc0715d3f3c)" style="fill: #1e2e79; fill-opacity: 0.5; stroke: #000000; stroke-width: 0.33128; stroke-linejoin: miter"/>
   </g>
   <g id="patch_54">
    <path d="M 280.349703 302.8525 
L 284.743556 302.8525 
L 284.743556 72.699904 
L 280.349703 72.699904 
z
" clip-path="url(#pc0715d3f3c)" style="fill: #1e2e79; fill-opacity: 0.5; stroke: #000000; stroke-width: 0.33128; stroke-linejoin: miter"/>
   </g>
   <g id="patch_55">
    <path d="M 284.743556 302.8525 
L 289.137409 302.8525 
L 289.137409 101.931884 
L 284.743556 101.931884 
z
" clip-path="url(#pc0715d3f3c)" style="fill: #1e2e79; fill-opacity: 0.5; stroke: #000000; stroke-width: 0.33128; stroke-linejoin: miter"/>
   </g>
   <g id="patch_56">
    <path d="M 289.137409 302.8525 
L 293.531261 302.8525 
L 293.531261 121.945153 
L 289.137409 121.945153 
z
" clip-path="url(#pc0715d3f3c)" style="fill: #1e2e79; fill-opacity: 0.5; stroke: #000000; stroke-width: 0.33128; stroke-linejoin: miter"/>
   </g>
   <g id="patch_57">
    <path d="M 293.531261 302.8525 
L 297.925114 302.8525 
L 297.925114 135.261068 
L 293.531261 135.261068 
z
" clip-path="url(#pc0715d3f3c)" style="fill: #1e2e79; fill-opacity: 0.5; stroke: #000000; stroke-width: 0.33128; stroke-linejoin: miter"/>
   </g>
   <g id="patch_58">
    <path d="M 297.925114 302.8525 
L 302.318967 302.8525 
L 302.318967 158.110864 
L 297.925114 158.110864 
z
" clip-path="url(#pc0715d3f3c)" style="fill: #1e2e79; fill-opacity: 0.5; stroke: #000000; stroke-width: 0.33128; stroke-linejoin: miter"/>
   </g>
   <g id="patch_59">
    <path d="M 302.318967 302.8525 
L 306.71282 302.8525 
L 306.71282 184.348733 
L 302.318967 184.348733 
z
" clip-path="url(#pc0715d3f3c)" style="fill: #1e2e79; fill-opacity: 0.5; stroke: #000000; stroke-width: 0.33128; stroke-linejoin: miter"/>
   </g>
   <g id="patch_60">
    <path d="M 306.71282 302.8525 
L 311.106672 302.8525 
L 311.106672 194.355367 
L 306.71282 194.355367 
z
" clip-path="url(#pc0715d3f3c)" style="fill: #1e2e79; fill-opacity: 0.5; stroke: #000000; stroke-width: 0.33128; stroke-linejoin: miter"/>
   </g>
   <g id="patch_61">
    <path d="M 311.106672 302.8525 
L 315.500525 302.8525 
L 315.500525 217.914294 
L 311.106672 217.914294 
z
" clip-path="url(#pc0715d3f3c)" style="fill: #1e2e79; fill-opacity: 0.5; stroke: #000000; stroke-width: 0.33128; stroke-linejoin: miter"/>
   </g>
   <g id="patch_62">
    <path d="M 315.500525 302.8525 
L 319.894378 302.8525 
L 319.894378 223.114593 
L 315.500525 223.114593 
z
" clip-path="url(#pc0715d3f3c)" style="fill: #1e2e79; fill-opacity: 0.5; stroke: #000000; stroke-width: 0.33128; stroke-linejoin: miter"/>
   </g>
   <g id="patch_63">
    <path d="M 319.894378 302.8525 
L 324.28823 302.8525 
L 324.28823 240.606505 
L 319.894378 240.606505 
z
" clip-path="url(#pc0715d3f3c)" style="fill: #1e2e79; fill-opacity: 0.5; stroke: #000000; stroke-width: 0.33128; stroke-linejoin: miter"/>
   </g>
   <g id="patch_64">
    <path d="M 324.28823 302.8525 
L 328.682083 302.8525 
L 328.682083 251.007102 
L 324.28823 251.007102 
z
" clip-path="url(#pc0715d3f3c)" style="fill: #1e2e79; fill-opacity: 0.5; stroke: #000000; stroke-width: 0.33128; stroke-linejoin: miter"/>
   </g>
   <g id="patch_65">
    <path d="M 328.682083 302.8525 
L 333.075936 302.8525 
L 333.075936 261.171321 
L 328.682083 261.171321 
z
" clip-path="url(#pc0715d3f3c)" style="fill: #1e2e79; fill-opacity: 0.5; stroke: #000000; stroke-width: 0.33128; stroke-linejoin: miter"/>
   </g>
   <g id="patch_66">
    <path d="M 333.075936 302.8525 
L 337.469789 302.8525 
L 337.469789 265.74128 
L 333.075936 265.74128 
z
" clip-path="url(#pc0715d3f3c)" style="fill: #1e2e79; fill-opacity: 0.5; stroke: #000000; stroke-width: 0.33128; stroke-linejoin: miter"/>
   </g>
   <g id="patch_67">
    <path d="M 337.469789 302.8525 
L 341.863641 302.8525 
L 341.863641 272.753804 
L 337.469789 272.753804 
z
" clip-path="url(#pc0715d3f3c)" style="fill: #1e2e79; fill-opacity: 0.5; stroke: #000000; stroke-width: 0.33128; stroke-linejoin: miter"/>
   </g>
   <g id="patch_68">
    <path d="M 341.863641 302.8525 
L 346.257494 302.8525 
L 346.257494 274.644821 
L 341.863641 274.644821 
z
" clip-path="url(#pc0715d3f3c)" style="fill: #1e2e79; fill-opacity: 0.5; stroke: #000000; stroke-width: 0.33128; stroke-linejoin: miter"/>
   </g>
   <g id="patch_69">
    <path d="M 346.257494 302.8525 
L 350.651347 302.8525 
L 350.651347 280.633044 
L 346.257494 280.633044 
z
" clip-path="url(#pc0715d3f3c)" style="fill: #1e2e79; fill-opacity: 0.5; stroke: #000000; stroke-width: 0.33128; stroke-linejoin: miter"/>
   </g>
   <g id="patch_70">
    <path d="M 350.651347 302.8525 
L 355.0452 302.8525 
L 355.0452 281.972514 
L 350.651347 281.972514 
z
" clip-path="url(#pc0715d3f3c)" style="fill: #1e2e79; fill-opacity: 0.5; stroke: #000000; stroke-width: 0.33128; stroke-linejoin: miter"/>
   </g>
   <g id="patch_71">
    <path d="M 355.0452 302.8525 
L 359.439052 302.8525 
L 359.439052 285.596965 
L 355.0452 285.596965 
z
" clip-path="url(#pc0715d3f3c)" style="fill: #1e2e79; fill-opacity: 0.5; stroke: #000000; stroke-width: 0.33128; stroke-linejoin: miter"/>
   </g>
   <g id="patch_72">
    <path d="M 359.439052 302.8525 
L 363.832905 302.8525 
L 363.832905 287.487982 
L 359.439052 287.487982 
z
" clip-path="url(#pc0715d3f3c)" style="fill: #1e2e79; fill-opacity: 0.5; stroke: #000000; stroke-width: 0.33128; stroke-linejoin: miter"/>
   </g>
   <g id="patch_73">
    <path d="M 363.832905 302.8525 
L 368.226758 302.8525 
L 368.226758 288.512283 
L 363.832905 288.512283 
z
" clip-path="url(#pc0715d3f3c)" style="fill: #1e2e79; fill-opacity: 0.5; stroke: #000000; stroke-width: 0.33128; stroke-linejoin: miter"/>
   </g>
   <g id="patch_74">
    <path d="M 368.226758 302.8525 
L 372.62061 302.8525 
L 372.62061 291.663979 
L 368.226758 291.663979 
z
" clip-path="url(#pc0715d3f3c)" style="fill: #1e2e79; fill-opacity: 0.5; stroke: #000000; stroke-width: 0.33128; stroke-linejoin: miter"/>
   </g>
   <g id="patch_75">
    <path d="M 372.62061 302.8525 
L 377.014463 302.8525 
L 377.014463 291.900357 
L 372.62061 291.900357 
z
" clip-path="url(#pc0715d3f3c)" style="fill: #1e2e79; fill-opacity: 0.5; stroke: #000000; stroke-width: 0.33128; stroke-linejoin: miter"/>
   </g>
   <g id="patch_76">
    <path d="M 377.014463 302.8525 
L 381.408316 302.8525 
L 381.408316 294.264129 
L 377.014463 294.264129 
z
" clip-path="url(#pc0715d3f3c)" style="fill: #1e2e79; fill-opacity: 0.5; stroke: #000000; stroke-width: 0.33128; stroke-linejoin: miter"/>
   </g>
   <g id="patch_77">
    <path d="M 381.408316 302.8525 
L 385.802169 302.8525 
L 385.802169 295.446015 
L 381.408316 295.446015 
z
" clip-path="url(#pc0715d3f3c)" style="fill: #1e2e79; fill-opacity: 0.5; stroke: #000000; stroke-width: 0.33128; stroke-linejoin: miter"/>
   </g>
   <g id="patch_78">
    <path d="M 385.802169 302.8525 
L 390.196021 302.8525 
L 390.196021 295.839977 
L 385.802169 295.839977 
z
" clip-path="url(#pc0715d3f3c)" style="fill: #1e2e79; fill-opacity: 0.5; stroke: #000000; stroke-width: 0.33128; stroke-linejoin: miter"/>
   </g>
   <g id="patch_79">
    <path d="M 390.196021 302.8525 
L 394.589874 302.8525 
L 394.589874 297.967371 
L 390.196021 297.967371 
z
" clip-path="url(#pc0715d3f3c)" style="fill: #1e2e79; fill-opacity: 0.5; stroke: #000000; stroke-width: 0.33128; stroke-linejoin: miter"/>
   </g>
   <g id="patch_80">
    <path d="M 394.589874 302.8525 
L 398.983727 302.8525 
L 398.983727 299.149257 
L 394.589874 299.149257 
z
" clip-path="url(#pc0715d3f3c)" style="fill: #1e2e79; fill-opacity: 0.5; stroke: #000000; stroke-width: 0.33128; stroke-linejoin: miter"/>
   </g>
   <g id="patch_81">
    <path d="M 398.983727 302.8525 
L 403.37758 302.8525 
L 403.37758 298.91288 
L 398.983727 298.91288 
z
" clip-path="url(#pc0715d3f3c)" style="fill: #1e2e79; fill-opacity: 0.5; stroke: #000000; stroke-width: 0.33128; stroke-linejoin: miter"/>
   </g>
   <g id="patch_82">
    <path d="M 403.37758 302.8525 
L 407.771432 302.8525 
L 407.771432 299.700804 
L 403.37758 299.700804 
z
" clip-path="url(#pc0715d3f3c)" style="fill: #1e2e79; fill-opacity: 0.5; stroke: #000000; stroke-width: 0.33128; stroke-linejoin: miter"/>
   </g>
   <g id="patch_83">
    <path d="M 407.771432 302.8525 
L 412.165285 302.8525 
L 412.165285 300.803898 
L 407.771432 300.803898 
z
" clip-path="url(#pc0715d3f3c)" style="fill: #1e2e79; fill-opacity: 0.5; stroke: #000000; stroke-width: 0.33128; stroke-linejoin: miter"/>
   </g>
   <g id="patch_84">
    <path d="M 412.165285 302.8525 
L 416.559138 302.8525 
L 416.559138 300.88269 
L 412.165285 300.88269 
z
" clip-path="url(#pc0715d3f3c)" style="fill: #1e2e79; fill-opacity: 0.5; stroke: #000000; stroke-width: 0.33128; stroke-linejoin: miter"/>
   </g>
   <g id="patch_85">
    <path d="M 416.559138 302.8525 
L 420.95299 302.8525 
L 420.95299 301.19786 
L 416.559138 301.19786 
z
" clip-path="url(#pc0715d3f3c)" style="fill: #1e2e79; fill-opacity: 0.5; stroke: #000000; stroke-width: 0.33128; stroke-linejoin: miter"/>
   </g>
   <g id="patch_86">
    <path d="M 420.95299 302.8525 
L 425.346843 302.8525 
L 425.346843 301.670614 
L 420.95299 301.670614 
z
" clip-path="url(#pc0715d3f3c)" style="fill: #1e2e79; fill-opacity: 0.5; stroke: #000000; stroke-width: 0.33128; stroke-linejoin: miter"/>
   </g>
   <g id="patch_87">
    <path d="M 425.346843 302.8525 
L 429.740696 302.8525 
L 429.740696 301.749406 
L 425.346843 301.749406 
z
" clip-path="url(#pc0715d3f3c)" style="fill: #1e2e79; fill-opacity: 0.5; stroke: #000000; stroke-width: 0.33128; stroke-linejoin: miter"/>
   </g>
   <g id="patch_88">
    <path d="M 429.740696 302.8525 
L 434.134549 302.8525 
L 434.134549 302.222161 
L 429.740696 302.222161 
z
" clip-path="url(#pc0715d3f3c)" style="fill: #1e2e79; fill-opacity: 0.5; stroke: #000000; stroke-width: 0.33128; stroke-linejoin: miter"/>
   </g>
   <g id="patch_89">
    <path d="M 434.134549 302.8525 
L 438.528401 302.8525 
L 438.528401 302.379746 
L 434.134549 302.379746 
z
" clip-path="url(#pc0715d3f3c)" style="fill: #1e2e79; fill-opacity: 0.5; stroke: #000000; stroke-width: 0.33128; stroke-linejoin: miter"/>
   </g>
   <g id="patch_90">
    <path d="M 438.528401 302.8525 
L 442.922254 302.8525 
L 442.922254 302.694915 
L 438.528401 302.694915 
z
" clip-path="url(#pc0715d3f3c)" style="fill: #1e2e79; fill-opacity: 0.5; stroke: #000000; stroke-width: 0.33128; stroke-linejoin: miter"/>
   </g>
   <g id="patch_91">
    <path d="M 442.922254 302.8525 
L 447.316107 302.8525 
L 447.316107 302.458538 
L 442.922254 302.458538 
z
" clip-path="url(#pc0715d3f3c)" style="fill: #1e2e79; fill-opacity: 0.5; stroke: #000000; stroke-width: 0.33128; stroke-linejoin: miter"/>
   </g>
   <g id="patch_92">
    <path d="M 447.316107 302.8525 
L 451.709959 302.8525 
L 451.709959 302.694915 
L 447.316107 302.694915 
z
" clip-path="url(#pc0715d3f3c)" style="fill: #1e2e79; fill-opacity: 0.5; stroke: #000000; stroke-width: 0.33128; stroke-linejoin: miter"/>
   </g>
   <g id="patch_93">
    <path d="M 451.709959 302.8525 
L 456.103812 302.8525 
L 456.103812 302.8525 
L 451.709959 302.8525 
z
" clip-path="url(#pc0715d3f3c)" style="fill: #1e2e79; fill-opacity: 0.5; stroke: #000000; stroke-width: 0.33128; stroke-linejoin: miter"/>
   </g>
   <g id="patch_94">
    <path d="M 456.103812 302.8525 
L 460.497665 302.8525 
L 460.497665 302.8525 
L 456.103812 302.8525 
z
" clip-path="url(#pc0715d3f3c)" style="fill: #1e2e79; fill-opacity: 0.5; stroke: #000000; stroke-width: 0.33128; stroke-linejoin: miter"/>
   </g>
   <g id="patch_95">
    <path d="M 460.497665 302.8525 
L 464.891518 302.8525 
L 464.891518 302.694915 
L 460.497665 302.694915 
z
" clip-path="url(#pc0715d3f3c)" style="fill: #1e2e79; fill-opacity: 0.5; stroke: #000000; stroke-width: 0.33128; stroke-linejoin: miter"/>
   </g>
   <g id="patch_96">
    <path d="M 464.891518 302.8525 
L 469.28537 302.8525 
L 469.28537 302.8525 
L 464.891518 302.8525 
z
" clip-path="url(#pc0715d3f3c)" style="fill: #1e2e79; fill-opacity: 0.5; stroke: #000000; stroke-width: 0.33128; stroke-linejoin: miter"/>
   </g>
   <g id="patch_97">
    <path d="M 469.28537 302.8525 
L 473.679223 302.8525 
L 473.679223 302.773708 
L 469.28537 302.773708 
z
" clip-path="url(#pc0715d3f3c)" style="fill: #1e2e79; fill-opacity: 0.5; stroke: #000000; stroke-width: 0.33128; stroke-linejoin: miter"/>
   </g>
   <g id="patch_98">
    <path d="M 473.679223 302.8525 
L 478.073076 302.8525 
L 478.073076 302.8525 
L 473.679223 302.8525 
z
" clip-path="url(#pc0715d3f3c)" style="fill: #1e2e79; fill-opacity: 0.5; stroke: #000000; stroke-width: 0.33128; stroke-linejoin: miter"/>
   </g>
   <g id="patch_99">
    <path d="M 478.073076 302.8525 
L 482.466929 302.8525 
L 482.466929 302.8525 
L 478.073076 302.8525 
z
" clip-path="url(#pc0715d3f3c)" style="fill: #1e2e79; fill-opacity: 0.5; stroke: #000000; stroke-width: 0.33128; stroke-linejoin: miter"/>
   </g>
   <g id="patch_100">
    <path d="M 482.466929 302.8525 
L 486.860781 302.8525 
L 486.860781 302.773708 
L 482.466929 302.773708 
z
" clip-path="url(#pc0715d3f3c)" style="fill: #1e2e79; fill-opacity: 0.5; stroke: #000000; stroke-width: 0.33128; stroke-linejoin: miter"/>
   </g>
   <g id="patch_101">
    <path d="M 59.06263 302.8525 
L 62.877578 302.8525 
L 62.877578 301.945011 
L 59.06263 301.945011 
z
" clip-path="url(#pc0715d3f3c)" style="fill: #f99752; fill-opacity: 0.5; stroke: #000000; stroke-width: 0.287633; stroke-linejoin: miter"/>
   </g>
   <g id="patch_102">
    <path d="M 62.877578 302.8525 
L 66.692526 302.8525 
L 66.692526 292.960875 
L 62.877578 292.960875 
z
" clip-path="url(#pc0715d3f3c)" style="fill: #f99752; fill-opacity: 0.5; stroke: #000000; stroke-width: 0.287633; stroke-linejoin: miter"/>
   </g>
   <g id="patch_103">
    <path d="M 66.692526 302.8525 
L 70.507475 302.8525 
L 70.507475 270.636657 
L 66.692526 270.636657 
z
" clip-path="url(#pc0715d3f3c)" style="fill: #f99752; fill-opacity: 0.5; stroke: #000000; stroke-width: 0.287633; stroke-linejoin: miter"/>
   </g>
   <g id="patch_104">
    <path d="M 70.507475 302.8525 
L 74.322423 302.8525 
L 74.322423 234.246366 
L 70.507475 234.246366 
z
" clip-path="url(#pc0715d3f3c)" style="fill: #f99752; fill-opacity: 0.5; stroke: #000000; stroke-width: 0.287633; stroke-linejoin: miter"/>
   </g>
   <g id="patch_105">
    <path d="M 74.322423 302.8525 
L 78.137372 302.8525 
L 78.137372 200.66929 
L 74.322423 200.66929 
z
" clip-path="url(#pc0715d3f3c)" style="fill: #f99752; fill-opacity: 0.5; stroke: #000000; stroke-width: 0.287633; stroke-linejoin: miter"/>
   </g>
   <g id="patch_106">
    <path d="M 78.137372 302.8525 
L 81.95232 302.8525 
L 81.95232 173.444634 
L 78.137372 173.444634 
z
" clip-path="url(#pc0715d3f3c)" style="fill: #f99752; fill-opacity: 0.5; stroke: #000000; stroke-width: 0.287633; stroke-linejoin: miter"/>
   </g>
   <g id="patch_107">
    <path d="M 81.95232 302.8525 
L 85.767268 302.8525 
L 85.767268 170.177675 
L 81.95232 170.177675 
z
" clip-path="url(#pc0715d3f3c)" style="fill: #f99752; fill-opacity: 0.5; stroke: #000000; stroke-width: 0.287633; stroke-linejoin: miter"/>
   </g>
   <g id="patch_108">
    <path d="M 85.767268 302.8525 
L 89.582217 302.8525 
L 89.582217 178.345072 
L 85.767268 178.345072 
z
" clip-path="url(#pc0715d3f3c)" style="fill: #f99752; fill-opacity: 0.5; stroke: #000000; stroke-width: 0.287633; stroke-linejoin: miter"/>
   </g>
   <g id="patch_109">
    <path d="M 89.582217 302.8525 
L 93.397165 302.8525 
L 93.397165 187.329209 
L 89.582217 187.329209 
z
" clip-path="url(#pc0715d3f3c)" style="fill: #f99752; fill-opacity: 0.5; stroke: #000000; stroke-width: 0.287633; stroke-linejoin: miter"/>
   </g>
   <g id="patch_110">
    <path d="M 93.397165 302.8525 
L 97.212113 302.8525 
L 97.212113 193.953875 
L 93.397165 193.953875 
z
" clip-path="url(#pc0715d3f3c)" style="fill: #f99752; fill-opacity: 0.5; stroke: #000000; stroke-width: 0.287633; stroke-linejoin: miter"/>
   </g>
   <g id="patch_111">
    <path d="M 97.212113 302.8525 
L 101.027062 302.8525 
L 101.027062 205.569728 
L 97.212113 205.569728 
z
" clip-path="url(#pc0715d3f3c)" style="fill: #f99752; fill-opacity: 0.5; stroke: #000000; stroke-width: 0.287633; stroke-linejoin: miter"/>
   </g>
   <g id="patch_112">
    <path d="M 101.027062 302.8525 
L 104.84201 302.8525 
L 104.84201 210.742413 
L 101.027062 210.742413 
z
" clip-path="url(#pc0715d3f3c)" style="fill: #f99752; fill-opacity: 0.5; stroke: #000000; stroke-width: 0.287633; stroke-linejoin: miter"/>
   </g>
   <g id="patch_113">
    <path d="M 104.84201 302.8525 
L 108.656959 302.8525 
L 108.656959 215.552102 
L 104.84201 215.552102 
z
" clip-path="url(#pc0715d3f3c)" style="fill: #f99752; fill-opacity: 0.5; stroke: #000000; stroke-width: 0.287633; stroke-linejoin: miter"/>
   </g>
   <g id="patch_114">
    <path d="M 108.656959 302.8525 
L 112.471907 302.8525 
L 112.471907 213.555627 
L 108.656959 213.555627 
z
" clip-path="url(#pc0715d3f3c)" style="fill: #f99752; fill-opacity: 0.5; stroke: #000000; stroke-width: 0.287633; stroke-linejoin: miter"/>
   </g>
   <g id="patch_115">
    <path d="M 112.471907 302.8525 
L 116.286855 302.8525 
L 116.286855 213.555627 
L 112.471907 213.555627 
z
" clip-path="url(#pc0715d3f3c)" style="fill: #f99752; fill-opacity: 0.5; stroke: #000000; stroke-width: 0.287633; stroke-linejoin: miter"/>
   </g>
   <g id="patch_116">
    <path d="M 116.286855 302.8525 
L 120.101804 302.8525 
L 120.101804 212.920385 
L 116.286855 212.920385 
z
" clip-path="url(#pc0715d3f3c)" style="fill: #f99752; fill-opacity: 0.5; stroke: #000000; stroke-width: 0.287633; stroke-linejoin: miter"/>
   </g>
   <g id="patch_117">
    <path d="M 120.101804 302.8525 
L 123.916752 302.8525 
L 123.916752 205.932724 
L 120.101804 205.932724 
z
" clip-path="url(#pc0715d3f3c)" style="fill: #f99752; fill-opacity: 0.5; stroke: #000000; stroke-width: 0.287633; stroke-linejoin: miter"/>
   </g>
   <g id="patch_118">
    <path d="M 123.916752 302.8525 
L 127.731701 302.8525 
L 127.731701 200.850788 
L 123.916752 200.850788 
z
" clip-path="url(#pc0715d3f3c)" style="fill: #f99752; fill-opacity: 0.5; stroke: #000000; stroke-width: 0.287633; stroke-linejoin: miter"/>
   </g>
   <g id="patch_119">
    <path d="M 127.731701 302.8525 
L 131.546649 302.8525 
L 131.546649 195.95035 
L 127.731701 195.95035 
z
" clip-path="url(#pc0715d3f3c)" style="fill: #f99752; fill-opacity: 0.5; stroke: #000000; stroke-width: 0.287633; stroke-linejoin: miter"/>
   </g>
   <g id="patch_120">
    <path d="M 131.546649 302.8525 
L 135.361597 302.8525 
L 135.361597 186.240222 
L 131.546649 186.240222 
z
" clip-path="url(#pc0715d3f3c)" style="fill: #f99752; fill-opacity: 0.5; stroke: #000000; stroke-width: 0.287633; stroke-linejoin: miter"/>
   </g>
   <g id="patch_121">
    <path d="M 135.361597 302.8525 
L 139.176546 302.8525 
L 139.176546 172.264899 
L 135.361597 172.264899 
z
" clip-path="url(#pc0715d3f3c)" style="fill: #f99752; fill-opacity: 0.5; stroke: #000000; stroke-width: 0.287633; stroke-linejoin: miter"/>
   </g>
   <g id="patch_122">
    <path d="M 139.176546 302.8525 
L 142.991494 302.8525 
L 142.991494 161.10279 
L 139.176546 161.10279 
z
" clip-path="url(#pc0715d3f3c)" style="fill: #f99752; fill-opacity: 0.5; stroke: #000000; stroke-width: 0.287633; stroke-linejoin: miter"/>
   </g>
   <g id="patch_123">
    <path d="M 142.991494 302.8525 
L 146.806443 302.8525 
L 146.806443 147.490462 
L 142.991494 147.490462 
z
" clip-path="url(#pc0715d3f3c)" style="fill: #f99752; fill-opacity: 0.5; stroke: #000000; stroke-width: 0.287633; stroke-linejoin: miter"/>
   </g>
   <g id="patch_124">
    <path d="M 146.806443 302.8525 
L 150.621391 302.8525 
L 150.621391 134.422627 
L 146.806443 134.422627 
z
" clip-path="url(#pc0715d3f3c)" style="fill: #f99752; fill-opacity: 0.5; stroke: #000000; stroke-width: 0.287633; stroke-linejoin: miter"/>
   </g>
   <g id="patch_125">
    <path d="M 150.621391 302.8525 
L 154.436339 302.8525 
L 154.436339 123.351266 
L 150.621391 123.351266 
z
" clip-path="url(#pc0715d3f3c)" style="fill: #f99752; fill-opacity: 0.5; stroke: #000000; stroke-width: 0.287633; stroke-linejoin: miter"/>
   </g>
   <g id="patch_126">
    <path d="M 154.436339 302.8525 
L 158.251288 302.8525 
L 158.251288 111.826162 
L 154.436339 111.826162 
z
" clip-path="url(#pc0715d3f3c)" style="fill: #f99752; fill-opacity: 0.5; stroke: #000000; stroke-width: 0.287633; stroke-linejoin: miter"/>
   </g>
   <g id="patch_127">
    <path d="M 158.251288 302.8525 
L 162.066236 302.8525 
L 162.066236 89.683442 
L 158.251288 89.683442 
z
" clip-path="url(#pc0715d3f3c)" style="fill: #f99752; fill-opacity: 0.5; stroke: #000000; stroke-width: 0.287633; stroke-linejoin: miter"/>
   </g>
   <g id="patch_128">
    <path d="M 162.066236 302.8525 
L 165.881184 302.8525 
L 165.881184 81.969789 
L 162.066236 81.969789 
z
" clip-path="url(#pc0715d3f3c)" style="fill: #f99752; fill-opacity: 0.5; stroke: #000000; stroke-width: 0.287633; stroke-linejoin: miter"/>
   </g>
   <g id="patch_129">
    <path d="M 165.881184 302.8525 
L 169.696133 302.8525 
L 169.696133 77.704593 
L 165.881184 77.704593 
z
" clip-path="url(#pc0715d3f3c)" style="fill: #f99752; fill-opacity: 0.5; stroke: #000000; stroke-width: 0.287633; stroke-linejoin: miter"/>
   </g>
   <g id="patch_130">
    <path d="M 169.696133 302.8525 
L 173.511081 302.8525 
L 173.511081 74.437634 
L 169.696133 74.437634 
z
" clip-path="url(#pc0715d3f3c)" style="fill: #f99752; fill-opacity: 0.5; stroke: #000000; stroke-width: 0.287633; stroke-linejoin: miter"/>
   </g>
   <g id="patch_131">
    <path d="M 173.511081 302.8525 
L 177.32603 302.8525 
L 177.32603 57.104603 
L 173.511081 57.104603 
z
" clip-path="url(#pc0715d3f3c)" style="fill: #f99752; fill-opacity: 0.5; stroke: #000000; stroke-width: 0.287633; stroke-linejoin: miter"/>
   </g>
   <g id="patch_132">
    <path d="M 177.32603 302.8525 
L 181.140978 302.8525 
L 181.140978 52.294914 
L 177.32603 52.294914 
z
" clip-path="url(#pc0715d3f3c)" style="fill: #f99752; fill-opacity: 0.5; stroke: #000000; stroke-width: 0.287633; stroke-linejoin: miter"/>
   </g>
   <g id="patch_133">
    <path d="M 181.140978 302.8525 
L 184.955926 302.8525 
L 184.955926 41.768046 
L 181.140978 41.768046 
z
" clip-path="url(#pc0715d3f3c)" style="fill: #f99752; fill-opacity: 0.5; stroke: #000000; stroke-width: 0.287633; stroke-linejoin: miter"/>
   </g>
   <g id="patch_134">
    <path d="M 184.955926 302.8525 
L 188.770875 302.8525 
L 188.770875 36.141618 
L 184.955926 36.141618 
z
" clip-path="url(#pc0715d3f3c)" style="fill: #f99752; fill-opacity: 0.5; stroke: #000000; stroke-width: 0.287633; stroke-linejoin: miter"/>
   </g>
   <g id="patch_135">
    <path d="M 188.770875 302.8525 
L 192.585823 302.8525 
L 192.585823 38.591837 
L 188.770875 38.591837 
z
" clip-path="url(#pc0715d3f3c)" style="fill: #f99752; fill-opacity: 0.5; stroke: #000000; stroke-width: 0.287633; stroke-linejoin: miter"/>
   </g>
   <g id="patch_136">
    <path d="M 192.585823 302.8525 
L 196.400772 302.8525 
L 196.400772 31.785673 
L 192.585823 31.785673 
z
" clip-path="url(#pc0715d3f3c)" style="fill: #f99752; fill-opacity: 0.5; stroke: #000000; stroke-width: 0.287633; stroke-linejoin: miter"/>
   </g>
   <g id="patch_137">
    <path d="M 196.400772 302.8525 
L 200.21572 302.8525 
L 200.21572 27.701974 
L 196.400772 27.701974 
z
" clip-path="url(#pc0715d3f3c)" style="fill: #f99752; fill-opacity: 0.5; stroke: #000000; stroke-width: 0.287633; stroke-linejoin: miter"/>
   </g>
   <g id="patch_138">
    <path d="M 200.21572 302.8525 
L 204.030668 302.8525 
L 204.030668 24.707262 
L 200.21572 24.707262 
z
" clip-path="url(#pc0715d3f3c)" style="fill: #f99752; fill-opacity: 0.5; stroke: #000000; stroke-width: 0.287633; stroke-linejoin: miter"/>
   </g>
   <g id="patch_139">
    <path d="M 204.030668 302.8525 
L 207.845617 302.8525 
L 207.845617 33.963645 
L 204.030668 33.963645 
z
" clip-path="url(#pc0715d3f3c)" style="fill: #f99752; fill-opacity: 0.5; stroke: #000000; stroke-width: 0.287633; stroke-linejoin: miter"/>
   </g>
   <g id="patch_140">
    <path d="M 207.845617 302.8525 
L 211.660565 302.8525 
L 211.660565 43.85527 
L 207.845617 43.85527 
z
" clip-path="url(#pc0715d3f3c)" style="fill: #f99752; fill-opacity: 0.5; stroke: #000000; stroke-width: 0.287633; stroke-linejoin: miter"/>
   </g>
   <g id="patch_141">
    <path d="M 211.660565 302.8525 
L 215.475514 302.8525 
L 215.475514 41.405051 
L 211.660565 41.405051 
z
" clip-path="url(#pc0715d3f3c)" style="fill: #f99752; fill-opacity: 0.5; stroke: #000000; stroke-width: 0.287633; stroke-linejoin: miter"/>
   </g>
   <g id="patch_142">
    <path d="M 215.475514 302.8525 
L 219.290462 302.8525 
L 219.290462 39.771572 
L 215.475514 39.771572 
z
" clip-path="url(#pc0715d3f3c)" style="fill: #f99752; fill-opacity: 0.5; stroke: #000000; stroke-width: 0.287633; stroke-linejoin: miter"/>
   </g>
   <g id="patch_143">
    <path d="M 219.290462 302.8525 
L 223.10541 302.8525 
L 223.10541 46.577736 
L 219.290462 46.577736 
z
" clip-path="url(#pc0715d3f3c)" style="fill: #f99752; fill-opacity: 0.5; stroke: #000000; stroke-width: 0.287633; stroke-linejoin: miter"/>
   </g>
   <g id="patch_144">
    <path d="M 223.10541 302.8525 
L 226.920359 302.8525 
L 226.920359 49.844695 
L 223.10541 49.844695 
z
" clip-path="url(#pc0715d3f3c)" style="fill: #f99752; fill-opacity: 0.5; stroke: #000000; stroke-width: 0.287633; stroke-linejoin: miter"/>
   </g>
   <g id="patch_145">
    <path d="M 226.920359 302.8525 
L 230.735307 302.8525 
L 230.735307 49.663197 
L 226.920359 49.663197 
z
" clip-path="url(#pc0715d3f3c)" style="fill: #f99752; fill-opacity: 0.5; stroke: #000000; stroke-width: 0.287633; stroke-linejoin: miter"/>
   </g>
   <g id="patch_146">
    <path d="M 230.735307 302.8525 
L 234.550255 302.8525 
L 234.550255 54.745133 
L 230.735307 54.745133 
z
" clip-path="url(#pc0715d3f3c)" style="fill: #f99752; fill-opacity: 0.5; stroke: #000000; stroke-width: 0.287633; stroke-linejoin: miter"/>
   </g>
   <g id="patch_147">
    <path d="M 234.550255 302.8525 
L 238.365204 302.8525 
L 238.365204 53.202402 
L 234.550255 53.202402 
z
" clip-path="url(#pc0715d3f3c)" style="fill: #f99752; fill-opacity: 0.5; stroke: #000000; stroke-width: 0.287633; stroke-linejoin: miter"/>
   </g>
   <g id="patch_148">
    <path d="M 238.365204 302.8525 
L 242.180152 302.8525 
L 242.180152 58.91958 
L 238.365204 58.91958 
z
" clip-path="url(#pc0715d3f3c)" style="fill: #f99752; fill-opacity: 0.5; stroke: #000000; stroke-width: 0.287633; stroke-linejoin: miter"/>
   </g>
   <g id="patch_149">
    <path d="M 242.180152 302.8525 
L 245.995101 302.8525 
L 245.995101 64.727507 
L 242.180152 64.727507 
z
" clip-path="url(#pc0715d3f3c)" style="fill: #f99752; fill-opacity: 0.5; stroke: #000000; stroke-width: 0.287633; stroke-linejoin: miter"/>
   </g>
   <g id="patch_150">
    <path d="M 245.995101 302.8525 
L 249.810049 302.8525 
L 249.810049 65.634995 
L 245.995101 65.634995 
z
" clip-path="url(#pc0715d3f3c)" style="fill: #f99752; fill-opacity: 0.5; stroke: #000000; stroke-width: 0.287633; stroke-linejoin: miter"/>
   </g>
   <g id="patch_151">
    <path d="M 249.810049 302.8525 
L 253.624997 302.8525 
L 253.624997 64.909004 
L 249.810049 64.909004 
z
" clip-path="url(#pc0715d3f3c)" style="fill: #f99752; fill-opacity: 0.5; stroke: #000000; stroke-width: 0.287633; stroke-linejoin: miter"/>
   </g>
   <g id="patch_152">
    <path d="M 253.624997 302.8525 
L 257.439946 302.8525 
L 257.439946 69.355698 
L 253.624997 69.355698 
z
" clip-path="url(#pc0715d3f3c)" style="fill: #f99752; fill-opacity: 0.5; stroke: #000000; stroke-width: 0.287633; stroke-linejoin: miter"/>
   </g>
   <g id="patch_153">
    <path d="M 257.439946 302.8525 
L 261.254894 302.8525 
L 261.254894 53.565398 
L 257.439946 53.565398 
z
" clip-path="url(#pc0715d3f3c)" style="fill: #f99752; fill-opacity: 0.5; stroke: #000000; stroke-width: 0.287633; stroke-linejoin: miter"/>
   </g>
   <g id="patch_154">
    <path d="M 261.254894 302.8525 
L 265.069843 302.8525 
L 265.069843 47.394475 
L 261.254894 47.394475 
z
" clip-path="url(#pc0715d3f3c)" style="fill: #f99752; fill-opacity: 0.5; stroke: #000000; stroke-width: 0.287633; stroke-linejoin: miter"/>
   </g>
   <g id="patch_155">
    <path d="M 265.069843 302.8525 
L 268.884791 302.8525 
L 268.884791 45.307252 
L 265.069843 45.307252 
z
" clip-path="url(#pc0715d3f3c)" style="fill: #f99752; fill-opacity: 0.5; stroke: #000000; stroke-width: 0.287633; stroke-linejoin: miter"/>
   </g>
   <g id="patch_156">
    <path d="M 268.884791 302.8525 
L 272.699739 302.8525 
L 272.699739 37.956595 
L 268.884791 37.956595 
z
" clip-path="url(#pc0715d3f3c)" style="fill: #f99752; fill-opacity: 0.5; stroke: #000000; stroke-width: 0.287633; stroke-linejoin: miter"/>
   </g>
   <g id="patch_157">
    <path d="M 272.699739 302.8525 
L 276.514688 302.8525 
L 276.514688 39.771572 
L 272.699739 39.771572 
z
" clip-path="url(#pc0715d3f3c)" style="fill: #f99752; fill-opacity: 0.5; stroke: #000000; stroke-width: 0.287633; stroke-linejoin: miter"/>
   </g>
   <g id="patch_158">
    <path d="M 276.514688 302.8525 
L 280.329636 302.8525 
L 280.329636 35.052631 
L 276.514688 35.052631 
z
" clip-path="url(#pc0715d3f3c)" style="fill: #f99752; fill-opacity: 0.5; stroke: #000000; stroke-width: 0.287633; stroke-linejoin: miter"/>
   </g>
   <g id="patch_159">
    <path d="M 280.329636 302.8525 
L 284.144585 302.8525 
L 284.144585 39.227079 
L 280.329636 39.227079 
z
" clip-path="url(#pc0715d3f3c)" style="fill: #f99752; fill-opacity: 0.5; stroke: #000000; stroke-width: 0.287633; stroke-linejoin: miter"/>
   </g>
   <g id="patch_160">
    <path d="M 284.144585 302.8525 
L 287.959533 302.8525 
L 287.959533 36.595362 
L 284.144585 36.595362 
z
" clip-path="url(#pc0715d3f3c)" style="fill: #f99752; fill-opacity: 0.5; stroke: #000000; stroke-width: 0.287633; stroke-linejoin: miter"/>
   </g>
   <g id="patch_161">
    <path d="M 287.959533 302.8525 
L 291.774481 302.8525 
L 291.774481 52.657909 
L 287.959533 52.657909 
z
" clip-path="url(#pc0715d3f3c)" style="fill: #f99752; fill-opacity: 0.5; stroke: #000000; stroke-width: 0.287633; stroke-linejoin: miter"/>
   </g>
   <g id="patch_162">
    <path d="M 291.774481 302.8525 
L 295.58943 302.8525 
L 295.58943 66.088739 
L 291.774481 66.088739 
z
" clip-path="url(#pc0715d3f3c)" style="fill: #f99752; fill-opacity: 0.5; stroke: #000000; stroke-width: 0.287633; stroke-linejoin: miter"/>
   </g>
   <g id="patch_163">
    <path d="M 295.58943 302.8525 
L 299.404378 302.8525 
L 299.404378 81.0623 
L 295.58943 81.0623 
z
" clip-path="url(#pc0715d3f3c)" style="fill: #f99752; fill-opacity: 0.5; stroke: #000000; stroke-width: 0.287633; stroke-linejoin: miter"/>
   </g>
   <g id="patch_164">
    <path d="M 299.404378 302.8525 
L 303.219326 302.8525 
L 303.219326 99.847313 
L 299.404378 99.847313 
z
" clip-path="url(#pc0715d3f3c)" style="fill: #f99752; fill-opacity: 0.5; stroke: #000000; stroke-width: 0.287633; stroke-linejoin: miter"/>
   </g>
   <g id="patch_165">
    <path d="M 303.219326 302.8525 
L 307.034275 302.8525 
L 307.034275 126.345979 
L 303.219326 126.345979 
z
" clip-path="url(#pc0715d3f3c)" style="fill: #f99752; fill-opacity: 0.5; stroke: #000000; stroke-width: 0.287633; stroke-linejoin: miter"/>
   </g>
   <g id="patch_166">
    <path d="M 307.034275 302.8525 
L 310.849223 302.8525 
L 310.849223 146.310727 
L 307.034275 146.310727 
z
" clip-path="url(#pc0715d3f3c)" style="fill: #f99752; fill-opacity: 0.5; stroke: #000000; stroke-width: 0.287633; stroke-linejoin: miter"/>
   </g>
   <g id="patch_167">
    <path d="M 310.849223 302.8525 
L 314.664172 302.8525 
L 314.664172 165.095739 
L 310.849223 165.095739 
z
" clip-path="url(#pc0715d3f3c)" style="fill: #f99752; fill-opacity: 0.5; stroke: #000000; stroke-width: 0.287633; stroke-linejoin: miter"/>
   </g>
   <g id="patch_168">
    <path d="M 314.664172 302.8525 
L 318.47912 302.8525 
L 318.47912 178.798816 
L 314.664172 178.798816 
z
" clip-path="url(#pc0715d3f3c)" style="fill: #f99752; fill-opacity: 0.5; stroke: #000000; stroke-width: 0.287633; stroke-linejoin: miter"/>
   </g>
   <g id="patch_169">
    <path d="M 318.47912 302.8525 
L 322.294068 302.8525 
L 322.294068 197.946825 
L 318.47912 197.946825 
z
" clip-path="url(#pc0715d3f3c)" style="fill: #f99752; fill-opacity: 0.5; stroke: #000000; stroke-width: 0.287633; stroke-linejoin: miter"/>
   </g>
   <g id="patch_170">
    <path d="M 322.294068 302.8525 
L 326.109017 302.8525 
L 326.109017 210.651664 
L 322.294068 210.651664 
z
" clip-path="url(#pc0715d3f3c)" style="fill: #f99752; fill-opacity: 0.5; stroke: #000000; stroke-width: 0.287633; stroke-linejoin: miter"/>
   </g>
   <g id="patch_171">
    <path d="M 326.109017 302.8525 
L 329.923965 302.8525 
L 329.923965 223.175006 
L 326.109017 223.175006 
z
" clip-path="url(#pc0715d3f3c)" style="fill: #f99752; fill-opacity: 0.5; stroke: #000000; stroke-width: 0.287633; stroke-linejoin: miter"/>
   </g>
   <g id="patch_172">
    <path d="M 329.923965 302.8525 
L 333.738914 302.8525 
L 333.738914 228.43844 
L 329.923965 228.43844 
z
" clip-path="url(#pc0715d3f3c)" style="fill: #f99752; fill-opacity: 0.5; stroke: #000000; stroke-width: 0.287633; stroke-linejoin: miter"/>
   </g>
   <g id="patch_173">
    <path d="M 333.738914 302.8525 
L 337.553862 302.8525 
L 337.553862 246.678959 
L 333.738914 246.678959 
z
" clip-path="url(#pc0715d3f3c)" style="fill: #f99752; fill-opacity: 0.5; stroke: #000000; stroke-width: 0.287633; stroke-linejoin: miter"/>
   </g>
   <g id="patch_174">
    <path d="M 337.553862 302.8525 
L 341.36881 302.8525 
L 341.36881 256.661333 
L 337.553862 256.661333 
z
" clip-path="url(#pc0715d3f3c)" style="fill: #f99752; fill-opacity: 0.5; stroke: #000000; stroke-width: 0.287633; stroke-linejoin: miter"/>
   </g>
   <g id="patch_175">
    <path d="M 341.36881 302.8525 
L 345.183759 302.8525 
L 345.183759 262.106264 
L 341.36881 262.106264 
z
" clip-path="url(#pc0715d3f3c)" style="fill: #f99752; fill-opacity: 0.5; stroke: #000000; stroke-width: 0.287633; stroke-linejoin: miter"/>
   </g>
   <g id="patch_176">
    <path d="M 345.183759 302.8525 
L 348.998707 302.8525 
L 348.998707 263.739744 
L 345.183759 263.739744 
z
" clip-path="url(#pc0715d3f3c)" style="fill: #f99752; fill-opacity: 0.5; stroke: #000000; stroke-width: 0.287633; stroke-linejoin: miter"/>
   </g>
   <g id="patch_177">
    <path d="M 348.998707 302.8525 
L 352.813656 302.8525 
L 352.813656 270.36441 
L 348.998707 270.36441 
z
" clip-path="url(#pc0715d3f3c)" style="fill: #f99752; fill-opacity: 0.5; stroke: #000000; stroke-width: 0.287633; stroke-linejoin: miter"/>
   </g>
   <g id="patch_178">
    <path d="M 352.813656 302.8525 
L 356.628604 302.8525 
L 356.628604 276.71683 
L 352.813656 276.71683 
z
" clip-path="url(#pc0715d3f3c)" style="fill: #f99752; fill-opacity: 0.5; stroke: #000000; stroke-width: 0.287633; stroke-linejoin: miter"/>
   </g>
   <g id="patch_179">
    <path d="M 356.628604 302.8525 
L 360.443552 302.8525 
L 360.443552 281.345022 
L 356.628604 281.345022 
z
" clip-path="url(#pc0715d3f3c)" style="fill: #f99752; fill-opacity: 0.5; stroke: #000000; stroke-width: 0.287633; stroke-linejoin: miter"/>
   </g>
   <g id="patch_180">
    <path d="M 360.443552 302.8525 
L 364.258501 302.8525 
L 364.258501 283.704492 
L 360.443552 283.704492 
z
" clip-path="url(#pc0715d3f3c)" style="fill: #f99752; fill-opacity: 0.5; stroke: #000000; stroke-width: 0.287633; stroke-linejoin: miter"/>
   </g>
   <g id="patch_181">
    <path d="M 364.258501 302.8525 
L 368.073449 302.8525 
L 368.073449 284.430483 
L 364.258501 284.430483 
z
" clip-path="url(#pc0715d3f3c)" style="fill: #f99752; fill-opacity: 0.5; stroke: #000000; stroke-width: 0.287633; stroke-linejoin: miter"/>
   </g>
   <g id="patch_182">
    <path d="M 368.073449 302.8525 
L 371.888397 302.8525 
L 371.888397 287.334446 
L 368.073449 287.334446 
z
" clip-path="url(#pc0715d3f3c)" style="fill: #f99752; fill-opacity: 0.5; stroke: #000000; stroke-width: 0.287633; stroke-linejoin: miter"/>
   </g>
   <g id="patch_183">
    <path d="M 371.888397 302.8525 
L 375.703346 302.8525 
L 375.703346 288.60493 
L 371.888397 288.60493 
z
" clip-path="url(#pc0715d3f3c)" style="fill: #f99752; fill-opacity: 0.5; stroke: #000000; stroke-width: 0.287633; stroke-linejoin: miter"/>
   </g>
   <g id="patch_184">
    <path d="M 375.703346 302.8525 
L 379.518294 302.8525 
L 379.518294 291.236647 
L 375.703346 291.236647 
z
" clip-path="url(#pc0715d3f3c)" style="fill: #f99752; fill-opacity: 0.5; stroke: #000000; stroke-width: 0.287633; stroke-linejoin: miter"/>
   </g>
   <g id="patch_185">
    <path d="M 379.518294 302.8525 
L 383.333243 302.8525 
L 383.333243 292.234884 
L 379.518294 292.234884 
z
" clip-path="url(#pc0715d3f3c)" style="fill: #f99752; fill-opacity: 0.5; stroke: #000000; stroke-width: 0.287633; stroke-linejoin: miter"/>
   </g>
   <g id="patch_186">
    <path d="M 383.333243 302.8525 
L 387.148191 302.8525 
L 387.148191 294.866601 
L 383.333243 294.866601 
z
" clip-path="url(#pc0715d3f3c)" style="fill: #f99752; fill-opacity: 0.5; stroke: #000000; stroke-width: 0.287633; stroke-linejoin: miter"/>
   </g>
   <g id="patch_187">
    <path d="M 387.148191 302.8525 
L 390.963139 302.8525 
L 390.963139 296.137085 
L 387.148191 296.137085 
z
" clip-path="url(#pc0715d3f3c)" style="fill: #f99752; fill-opacity: 0.5; stroke: #000000; stroke-width: 0.287633; stroke-linejoin: miter"/>
   </g>
   <g id="patch_188">
    <path d="M 390.963139 302.8525 
L 394.778088 302.8525 
L 394.778088 296.590829 
L 390.963139 296.590829 
z
" clip-path="url(#pc0715d3f3c)" style="fill: #f99752; fill-opacity: 0.5; stroke: #000000; stroke-width: 0.287633; stroke-linejoin: miter"/>
   </g>
   <g id="patch_189">
    <path d="M 394.778088 302.8525 
L 398.593036 302.8525 
L 398.593036 296.953824 
L 394.778088 296.953824 
z
" clip-path="url(#pc0715d3f3c)" style="fill: #f99752; fill-opacity: 0.5; stroke: #000000; stroke-width: 0.287633; stroke-linejoin: miter"/>
   </g>
   <g id="patch_190">
    <path d="M 398.593036 302.8525 
L 402.407985 302.8525 
L 402.407985 297.498318 
L 398.593036 297.498318 
z
" clip-path="url(#pc0715d3f3c)" style="fill: #f99752; fill-opacity: 0.5; stroke: #000000; stroke-width: 0.287633; stroke-linejoin: miter"/>
   </g>
   <g id="patch_191">
    <path d="M 402.407985 302.8525 
L 406.222933 302.8525 
L 406.222933 298.85955 
L 402.407985 298.85955 
z
" clip-path="url(#pc0715d3f3c)" style="fill: #f99752; fill-opacity: 0.5; stroke: #000000; stroke-width: 0.287633; stroke-linejoin: miter"/>
   </g>
   <g id="patch_192">
    <path d="M 406.222933 302.8525 
L 410.037881 302.8525 
L 410.037881 299.494792 
L 406.222933 299.494792 
z
" clip-path="url(#pc0715d3f3c)" style="fill: #f99752; fill-opacity: 0.5; stroke: #000000; stroke-width: 0.287633; stroke-linejoin: miter"/>
   </g>
   <g id="patch_193">
    <path d="M 410.037881 302.8525 
L 413.85283 302.8525 
L 413.85283 300.583779 
L 410.037881 300.583779 
z
" clip-path="url(#pc0715d3f3c)" style="fill: #f99752; fill-opacity: 0.5; stroke: #000000; stroke-width: 0.287633; stroke-linejoin: miter"/>
   </g>
   <g id="patch_194">
    <path d="M 413.85283 302.8525 
L 417.667778 302.8525 
L 417.667778 300.856025 
L 413.85283 300.856025 
z
" clip-path="url(#pc0715d3f3c)" style="fill: #f99752; fill-opacity: 0.5; stroke: #000000; stroke-width: 0.287633; stroke-linejoin: miter"/>
   </g>
   <g id="patch_195">
    <path d="M 417.667778 302.8525 
L 421.482727 302.8525 
L 421.482727 301.219021 
L 417.667778 301.219021 
z
" clip-path="url(#pc0715d3f3c)" style="fill: #f99752; fill-opacity: 0.5; stroke: #000000; stroke-width: 0.287633; stroke-linejoin: miter"/>
   </g>
   <g id="patch_196">
    <path d="M 421.482727 302.8525 
L 425.297675 302.8525 
L 425.297675 301.309769 
L 421.482727 301.309769 
z
" clip-path="url(#pc0715d3f3c)" style="fill: #f99752; fill-opacity: 0.5; stroke: #000000; stroke-width: 0.287633; stroke-linejoin: miter"/>
   </g>
   <g id="patch_197">
    <path d="M 425.297675 302.8525 
L 429.112623 302.8525 
L 429.112623 302.03576 
L 425.297675 302.03576 
z
" clip-path="url(#pc0715d3f3c)" style="fill: #f99752; fill-opacity: 0.5; stroke: #000000; stroke-width: 0.287633; stroke-linejoin: miter"/>
   </g>
   <g id="patch_198">
    <path d="M 429.112623 302.8525 
L 432.927572 302.8525 
L 432.927572 301.945011 
L 429.112623 301.945011 
z
" clip-path="url(#pc0715d3f3c)" style="fill: #f99752; fill-opacity: 0.5; stroke: #000000; stroke-width: 0.287633; stroke-linejoin: miter"/>
   </g>
   <g id="patch_199">
    <path d="M 432.927572 302.8525 
L 436.74252 302.8525 
L 436.74252 302.126509 
L 432.927572 302.126509 
z
" clip-path="url(#pc0715d3f3c)" style="fill: #f99752; fill-opacity: 0.5; stroke: #000000; stroke-width: 0.287633; stroke-linejoin: miter"/>
   </g>
   <g id="patch_200">
    <path d="M 436.74252 302.8525 
L 440.557469 302.8525 
L 440.557469 302.398756 
L 436.74252 302.398756 
z
" clip-path="url(#pc0715d3f3c)" style="fill: #f99752; fill-opacity: 0.5; stroke: #000000; stroke-width: 0.287633; stroke-linejoin: miter"/>
   </g>
   <g id="patch_201">
    <path d="M 440.557469 302.8525 
L 444.372417 302.8525 
L 444.372417 302.308007 
L 440.557469 302.308007 
z
" clip-path="url(#pc0715d3f3c)" style="fill: #f99752; fill-opacity: 0.5; stroke: #000000; stroke-width: 0.287633; stroke-linejoin: miter"/>
   </g>
   <g id="patch_202">
    <path d="M 444.372417 302.8525 
L 448.187365 302.8525 
L 448.187365 302.489505 
L 444.372417 302.489505 
z
" clip-path="url(#pc0715d3f3c)" style="fill: #f99752; fill-opacity: 0.5; stroke: #000000; stroke-width: 0.287633; stroke-linejoin: miter"/>
   </g>
   <g id="patch_203">
    <path d="M 448.187365 302.8525 
L 452.002314 302.8525 
L 452.002314 302.580253 
L 448.187365 302.580253 
z
" clip-path="url(#pc0715d3f3c)" style="fill: #f99752; fill-opacity: 0.5; stroke: #000000; stroke-width: 0.287633; stroke-linejoin: miter"/>
   </g>
   <g id="patch_204">
    <path d="M 452.002314 302.8525 
L 455.817262 302.8525 
L 455.817262 302.489505 
L 452.002314 302.489505 
z
" clip-path="url(#pc0715d3f3c)" style="fill: #f99752; fill-opacity: 0.5; stroke: #000000; stroke-width: 0.287633; stroke-linejoin: miter"/>
   </g>
   <g id="patch_205">
    <path d="M 455.817262 302.8525 
L 459.63221 302.8525 
L 459.63221 302.761751 
L 455.817262 302.761751 
z
" clip-path="url(#pc0715d3f3c)" style="fill: #f99752; fill-opacity: 0.5; stroke: #000000; stroke-width: 0.287633; stroke-linejoin: miter"/>
   </g>
   <g id="patch_206">
    <path d="M 459.63221 302.8525 
L 463.447159 302.8525 
L 463.447159 302.671002 
L 459.63221 302.671002 
z
" clip-path="url(#pc0715d3f3c)" style="fill: #f99752; fill-opacity: 0.5; stroke: #000000; stroke-width: 0.287633; stroke-linejoin: miter"/>
   </g>
   <g id="patch_207">
    <path d="M 463.447159 302.8525 
L 467.262107 302.8525 
L 467.262107 302.8525 
L 463.447159 302.8525 
z
" clip-path="url(#pc0715d3f3c)" style="fill: #f99752; fill-opacity: 0.5; stroke: #000000; stroke-width: 0.287633; stroke-linejoin: miter"/>
   </g>
   <g id="patch_208">
    <path d="M 467.262107 302.8525 
L 471.077056 302.8525 
L 471.077056 302.8525 
L 467.262107 302.8525 
z
" clip-path="url(#pc0715d3f3c)" style="fill: #f99752; fill-opacity: 0.5; stroke: #000000; stroke-width: 0.287633; stroke-linejoin: miter"/>
   </g>
   <g id="patch_209">
    <path d="M 471.077056 302.8525 
L 474.892004 302.8525 
L 474.892004 302.8525 
L 471.077056 302.8525 
z
" clip-path="url(#pc0715d3f3c)" style="fill: #f99752; fill-opacity: 0.5; stroke: #000000; stroke-width: 0.287633; stroke-linejoin: miter"/>
   </g>
   <g id="patch_210">
    <path d="M 474.892004 302.8525 
L 478.706952 302.8525 
L 478.706952 302.8525 
L 474.892004 302.8525 
z
" clip-path="url(#pc0715d3f3c)" style="fill: #f99752; fill-opacity: 0.5; stroke: #000000; stroke-width: 0.287633; stroke-linejoin: miter"/>
   </g>
   <g id="patch_211">
    <path d="M 478.706952 302.8525 
L 482.521901 302.8525 
L 482.521901 302.8525 
L 478.706952 302.8525 
z
" clip-path="url(#pc0715d3f3c)" style="fill: #f99752; fill-opacity: 0.5; stroke: #000000; stroke-width: 0.287633; stroke-linejoin: miter"/>
   </g>
   <g id="patch_212">
    <path d="M 482.521901 302.8525 
L 486.336849 302.8525 
L 486.336849 302.761751 
L 482.521901 302.761751 
z
" clip-path="url(#pc0715d3f3c)" style="fill: #f99752; fill-opacity: 0.5; stroke: #000000; stroke-width: 0.287633; stroke-linejoin: miter"/>
   </g>
   <g id="matplotlib.axis_1">
    <g id="xtick_1">
     <g id="line2d_1">
      <defs>
       <path id="mfe888d0188" d="M 0 0 
L 0 3.5 
" style="stroke: #000000; stroke-width: 0.8"/>
      </defs>
      <g>
       <use xlink:href="#mfe888d0188" x="93.618" y="302.8525" style="stroke: #000000; stroke-width: 0.8"/>
      </g>
     </g>
     <g id="text_1">
      <!-- 3 -->
      <g transform="translate(90.43675 317.450938) scale(0.1 -0.1)">
       <defs>
        <path id="DejaVuSans-33" d="M 2597 2516 
Q 3050 2419 3304 2112 
Q 3559 1806 3559 1356 
Q 3559 666 3084 287 
Q 2609 -91 1734 -91 
Q 1441 -91 1130 -33 
Q 819 25 488 141 
L 488 750 
Q 750 597 1062 519 
Q 1375 441 1716 441 
Q 2309 441 2620 675 
Q 2931 909 2931 1356 
Q 2931 1769 2642 2001 
Q 2353 2234 1838 2234 
L 1294 2234 
L 1294 2753 
L 1863 2753 
Q 2328 2753 2575 2939 
Q 2822 3125 2822 3475 
Q 2822 3834 2567 4026 
Q 2313 4219 1838 4219 
Q 1578 4219 1281 4162 
Q 984 4106 628 3988 
L 628 4550 
Q 988 4650 1302 4700 
Q 1616 4750 1894 4750 
Q 2613 4750 3031 4423 
Q 3450 4097 3450 3541 
Q 3450 3153 3228 2886 
Q 3006 2619 2597 2516 
z
" transform="scale(0.015625)"/>
       </defs>
       <use xlink:href="#DejaVuSans-33"/>
      </g>
     </g>
    </g>
    <g id="xtick_2">
     <g id="line2d_2">
      <g>
       <use xlink:href="#mfe888d0188" x="172.814" y="302.8525" style="stroke: #000000; stroke-width: 0.8"/>
      </g>
     </g>
     <g id="text_2">
      <!-- 4 -->
      <g transform="translate(169.63275 317.450938) scale(0.1 -0.1)">
       <defs>
        <path id="DejaVuSans-34" d="M 2419 4116 
L 825 1625 
L 2419 1625 
L 2419 4116 
z
M 2253 4666 
L 3047 4666 
L 3047 1625 
L 3713 1625 
L 3713 1100 
L 3047 1100 
L 3047 0 
L 2419 0 
L 2419 1100 
L 313 1100 
L 313 1709 
L 2253 4666 
z
" transform="scale(0.015625)"/>
       </defs>
       <use xlink:href="#DejaVuSans-34"/>
      </g>
     </g>
    </g>
    <g id="xtick_3">
     <g id="line2d_3">
      <g>
       <use xlink:href="#mfe888d0188" x="252.01" y="302.8525" style="stroke: #000000; stroke-width: 0.8"/>
      </g>
     </g>
     <g id="text_3">
      <!-- 5 -->
      <g transform="translate(248.82875 317.450938) scale(0.1 -0.1)">
       <defs>
        <path id="DejaVuSans-35" d="M 691 4666 
L 3169 4666 
L 3169 4134 
L 1269 4134 
L 1269 2991 
Q 1406 3038 1543 3061 
Q 1681 3084 1819 3084 
Q 2600 3084 3056 2656 
Q 3513 2228 3513 1497 
Q 3513 744 3044 326 
Q 2575 -91 1722 -91 
Q 1428 -91 1123 -41 
Q 819 9 494 109 
L 494 744 
Q 775 591 1075 516 
Q 1375 441 1709 441 
Q 2250 441 2565 725 
Q 2881 1009 2881 1497 
Q 2881 1984 2565 2268 
Q 2250 2553 1709 2553 
Q 1456 2553 1204 2497 
Q 953 2441 691 2322 
L 691 4666 
z
" transform="scale(0.015625)"/>
       </defs>
       <use xlink:href="#DejaVuSans-35"/>
      </g>
     </g>
    </g>
    <g id="xtick_4">
     <g id="line2d_4">
      <g>
       <use xlink:href="#mfe888d0188" x="331.206" y="302.8525" style="stroke: #000000; stroke-width: 0.8"/>
      </g>
     </g>
     <g id="text_4">
      <!-- 6 -->
      <g transform="translate(328.02475 317.450938) scale(0.1 -0.1)">
       <defs>
        <path id="DejaVuSans-36" d="M 2113 2584 
Q 1688 2584 1439 2293 
Q 1191 2003 1191 1497 
Q 1191 994 1439 701 
Q 1688 409 2113 409 
Q 2538 409 2786 701 
Q 3034 994 3034 1497 
Q 3034 2003 2786 2293 
Q 2538 2584 2113 2584 
z
M 3366 4563 
L 3366 3988 
Q 3128 4100 2886 4159 
Q 2644 4219 2406 4219 
Q 1781 4219 1451 3797 
Q 1122 3375 1075 2522 
Q 1259 2794 1537 2939 
Q 1816 3084 2150 3084 
Q 2853 3084 3261 2657 
Q 3669 2231 3669 1497 
Q 3669 778 3244 343 
Q 2819 -91 2113 -91 
Q 1303 -91 875 529 
Q 447 1150 447 2328 
Q 447 3434 972 4092 
Q 1497 4750 2381 4750 
Q 2619 4750 2861 4703 
Q 3103 4656 3366 4563 
z
" transform="scale(0.015625)"/>
       </defs>
       <use xlink:href="#DejaVuSans-36"/>
      </g>
     </g>
    </g>
    <g id="xtick_5">
     <g id="line2d_5">
      <g>
       <use xlink:href="#mfe888d0188" x="410.402" y="302.8525" style="stroke: #000000; stroke-width: 0.8"/>
      </g>
     </g>
     <g id="text_5">
      <!-- 7 -->
      <g transform="translate(407.22075 317.450938) scale(0.1 -0.1)">
       <defs>
        <path id="DejaVuSans-37" d="M 525 4666 
L 3525 4666 
L 3525 4397 
L 1831 0 
L 1172 0 
L 2766 4134 
L 525 4134 
L 525 4666 
z
" transform="scale(0.015625)"/>
       </defs>
       <use xlink:href="#DejaVuSans-37"/>
      </g>
     </g>
    </g>
    <g id="text_6">
     <!-- CRO66 OH - HIS148 ND1 Distance [] -->
     <g transform="translate(157.802188 332.0525) scale(0.1 -0.1)">
      <defs>
       <path id="DejaVuSans-43" d="M 4122 4306 
L 4122 3641 
Q 3803 3938 3442 4084 
Q 3081 4231 2675 4231 
Q 1875 4231 1450 3742 
Q 1025 3253 1025 2328 
Q 1025 1406 1450 917 
Q 1875 428 2675 428 
Q 3081 428 3442 575 
Q 3803 722 4122 1019 
L 4122 359 
Q 3791 134 3420 21 
Q 3050 -91 2638 -91 
Q 1578 -91 968 557 
Q 359 1206 359 2328 
Q 359 3453 968 4101 
Q 1578 4750 2638 4750 
Q 3056 4750 3426 4639 
Q 3797 4528 4122 4306 
z
" transform="scale(0.015625)"/>
       <path id="DejaVuSans-52" d="M 2841 2188 
Q 3044 2119 3236 1894 
Q 3428 1669 3622 1275 
L 4263 0 
L 3584 0 
L 2988 1197 
Q 2756 1666 2539 1819 
Q 2322 1972 1947 1972 
L 1259 1972 
L 1259 0 
L 628 0 
L 628 4666 
L 2053 4666 
Q 2853 4666 3247 4331 
Q 3641 3997 3641 3322 
Q 3641 2881 3436 2590 
Q 3231 2300 2841 2188 
z
M 1259 4147 
L 1259 2491 
L 2053 2491 
Q 2509 2491 2742 2702 
Q 2975 2913 2975 3322 
Q 2975 3731 2742 3939 
Q 2509 4147 2053 4147 
L 1259 4147 
z
" transform="scale(0.015625)"/>
       <path id="DejaVuSans-4f" d="M 2522 4238 
Q 1834 4238 1429 3725 
Q 1025 3213 1025 2328 
Q 1025 1447 1429 934 
Q 1834 422 2522 422 
Q 3209 422 3611 934 
Q 4013 1447 4013 2328 
Q 4013 3213 3611 3725 
Q 3209 4238 2522 4238 
z
M 2522 4750 
Q 3503 4750 4090 4092 
Q 4678 3434 4678 2328 
Q 4678 1225 4090 567 
Q 3503 -91 2522 -91 
Q 1538 -91 948 565 
Q 359 1222 359 2328 
Q 359 3434 948 4092 
Q 1538 4750 2522 4750 
z
" transform="scale(0.015625)"/>
       <path id="DejaVuSans-20" transform="scale(0.015625)"/>
       <path id="DejaVuSans-48" d="M 628 4666 
L 1259 4666 
L 1259 2753 
L 3553 2753 
L 3553 4666 
L 4184 4666 
L 4184 0 
L 3553 0 
L 3553 2222 
L 1259 2222 
L 1259 0 
L 628 0 
L 628 4666 
z
" transform="scale(0.015625)"/>
       <path id="DejaVuSans-2d" d="M 313 2009 
L 1997 2009 
L 1997 1497 
L 313 1497 
L 313 2009 
z
" transform="scale(0.015625)"/>
       <path id="DejaVuSans-49" d="M 628 4666 
L 1259 4666 
L 1259 0 
L 628 0 
L 628 4666 
z
" transform="scale(0.015625)"/>
       <path id="DejaVuSans-53" d="M 3425 4513 
L 3425 3897 
Q 3066 4069 2747 4153 
Q 2428 4238 2131 4238 
Q 1616 4238 1336 4038 
Q 1056 3838 1056 3469 
Q 1056 3159 1242 3001 
Q 1428 2844 1947 2747 
L 2328 2669 
Q 3034 2534 3370 2195 
Q 3706 1856 3706 1288 
Q 3706 609 3251 259 
Q 2797 -91 1919 -91 
Q 1588 -91 1214 -16 
Q 841 59 441 206 
L 441 856 
Q 825 641 1194 531 
Q 1563 422 1919 422 
Q 2459 422 2753 634 
Q 3047 847 3047 1241 
Q 3047 1584 2836 1778 
Q 2625 1972 2144 2069 
L 1759 2144 
Q 1053 2284 737 2584 
Q 422 2884 422 3419 
Q 422 4038 858 4394 
Q 1294 4750 2059 4750 
Q 2388 4750 2728 4690 
Q 3069 4631 3425 4513 
z
" transform="scale(0.015625)"/>
       <path id="DejaVuSans-31" d="M 794 531 
L 1825 531 
L 1825 4091 
L 703 3866 
L 703 4441 
L 1819 4666 
L 2450 4666 
L 2450 531 
L 3481 531 
L 3481 0 
L 794 0 
L 794 531 
z
" transform="scale(0.015625)"/>
       <path id="DejaVuSans-38" d="M 2034 2216 
Q 1584 2216 1326 1975 
Q 1069 1734 1069 1313 
Q 1069 891 1326 650 
Q 1584 409 2034 409 
Q 2484 409 2743 651 
Q 3003 894 3003 1313 
Q 3003 1734 2745 1975 
Q 2488 2216 2034 2216 
z
M 1403 2484 
Q 997 2584 770 2862 
Q 544 3141 544 3541 
Q 544 4100 942 4425 
Q 1341 4750 2034 4750 
Q 2731 4750 3128 4425 
Q 3525 4100 3525 3541 
Q 3525 3141 3298 2862 
Q 3072 2584 2669 2484 
Q 3125 2378 3379 2068 
Q 3634 1759 3634 1313 
Q 3634 634 3220 271 
Q 2806 -91 2034 -91 
Q 1263 -91 848 271 
Q 434 634 434 1313 
Q 434 1759 690 2068 
Q 947 2378 1403 2484 
z
M 1172 3481 
Q 1172 3119 1398 2916 
Q 1625 2713 2034 2713 
Q 2441 2713 2670 2916 
Q 2900 3119 2900 3481 
Q 2900 3844 2670 4047 
Q 2441 4250 2034 4250 
Q 1625 4250 1398 4047 
Q 1172 3844 1172 3481 
z
" transform="scale(0.015625)"/>
       <path id="DejaVuSans-4e" d="M 628 4666 
L 1478 4666 
L 3547 763 
L 3547 4666 
L 4159 4666 
L 4159 0 
L 3309 0 
L 1241 3903 
L 1241 0 
L 628 0 
L 628 4666 
z
" transform="scale(0.015625)"/>
       <path id="DejaVuSans-44" d="M 1259 4147 
L 1259 519 
L 2022 519 
Q 2988 519 3436 956 
Q 3884 1394 3884 2338 
Q 3884 3275 3436 3711 
Q 2988 4147 2022 4147 
L 1259 4147 
z
M 628 4666 
L 1925 4666 
Q 3281 4666 3915 4102 
Q 4550 3538 4550 2338 
Q 4550 1131 3912 565 
Q 3275 0 1925 0 
L 628 0 
L 628 4666 
z
" transform="scale(0.015625)"/>
       <path id="DejaVuSans-69" d="M 603 3500 
L 1178 3500 
L 1178 0 
L 603 0 
L 603 3500 
z
M 603 4863 
L 1178 4863 
L 1178 4134 
L 603 4134 
L 603 4863 
z
" transform="scale(0.015625)"/>
       <path id="DejaVuSans-73" d="M 2834 3397 
L 2834 2853 
Q 2591 2978 2328 3040 
Q 2066 3103 1784 3103 
Q 1356 3103 1142 2972 
Q 928 2841 928 2578 
Q 928 2378 1081 2264 
Q 1234 2150 1697 2047 
L 1894 2003 
Q 2506 1872 2764 1633 
Q 3022 1394 3022 966 
Q 3022 478 2636 193 
Q 2250 -91 1575 -91 
Q 1294 -91 989 -36 
Q 684 19 347 128 
L 347 722 
Q 666 556 975 473 
Q 1284 391 1588 391 
Q 1994 391 2212 530 
Q 2431 669 2431 922 
Q 2431 1156 2273 1281 
Q 2116 1406 1581 1522 
L 1381 1569 
Q 847 1681 609 1914 
Q 372 2147 372 2553 
Q 372 3047 722 3315 
Q 1072 3584 1716 3584 
Q 2034 3584 2315 3537 
Q 2597 3491 2834 3397 
z
" transform="scale(0.015625)"/>
       <path id="DejaVuSans-74" d="M 1172 4494 
L 1172 3500 
L 2356 3500 
L 2356 3053 
L 1172 3053 
L 1172 1153 
Q 1172 725 1289 603 
Q 1406 481 1766 481 
L 2356 481 
L 2356 0 
L 1766 0 
Q 1100 0 847 248 
Q 594 497 594 1153 
L 594 3053 
L 172 3053 
L 172 3500 
L 594 3500 
L 594 4494 
L 1172 4494 
z
" transform="scale(0.015625)"/>
       <path id="DejaVuSans-61" d="M 2194 1759 
Q 1497 1759 1228 1600 
Q 959 1441 959 1056 
Q 959 750 1161 570 
Q 1363 391 1709 391 
Q 2188 391 2477 730 
Q 2766 1069 2766 1631 
L 2766 1759 
L 2194 1759 
z
M 3341 1997 
L 3341 0 
L 2766 0 
L 2766 531 
Q 2569 213 2275 61 
Q 1981 -91 1556 -91 
Q 1019 -91 701 211 
Q 384 513 384 1019 
Q 384 1609 779 1909 
Q 1175 2209 1959 2209 
L 2766 2209 
L 2766 2266 
Q 2766 2663 2505 2880 
Q 2244 3097 1772 3097 
Q 1472 3097 1187 3025 
Q 903 2953 641 2809 
L 641 3341 
Q 956 3463 1253 3523 
Q 1550 3584 1831 3584 
Q 2591 3584 2966 3190 
Q 3341 2797 3341 1997 
z
" transform="scale(0.015625)"/>
       <path id="DejaVuSans-6e" d="M 3513 2113 
L 3513 0 
L 2938 0 
L 2938 2094 
Q 2938 2591 2744 2837 
Q 2550 3084 2163 3084 
Q 1697 3084 1428 2787 
Q 1159 2491 1159 1978 
L 1159 0 
L 581 0 
L 581 3500 
L 1159 3500 
L 1159 2956 
Q 1366 3272 1645 3428 
Q 1925 3584 2291 3584 
Q 2894 3584 3203 3211 
Q 3513 2838 3513 2113 
z
" transform="scale(0.015625)"/>
       <path id="DejaVuSans-63" d="M 3122 3366 
L 3122 2828 
Q 2878 2963 2633 3030 
Q 2388 3097 2138 3097 
Q 1578 3097 1268 2742 
Q 959 2388 959 1747 
Q 959 1106 1268 751 
Q 1578 397 2138 397 
Q 2388 397 2633 464 
Q 2878 531 3122 666 
L 3122 134 
Q 2881 22 2623 -34 
Q 2366 -91 2075 -91 
Q 1284 -91 818 406 
Q 353 903 353 1747 
Q 353 2603 823 3093 
Q 1294 3584 2113 3584 
Q 2378 3584 2631 3529 
Q 2884 3475 3122 3366 
z
" transform="scale(0.015625)"/>
       <path id="DejaVuSans-65" d="M 3597 1894 
L 3597 1613 
L 953 1613 
Q 991 1019 1311 708 
Q 1631 397 2203 397 
Q 2534 397 2845 478 
Q 3156 559 3463 722 
L 3463 178 
Q 3153 47 2828 -22 
Q 2503 -91 2169 -91 
Q 1331 -91 842 396 
Q 353 884 353 1716 
Q 353 2575 817 3079 
Q 1281 3584 2069 3584 
Q 2775 3584 3186 3129 
Q 3597 2675 3597 1894 
z
M 3022 2063 
Q 3016 2534 2758 2815 
Q 2500 3097 2075 3097 
Q 1594 3097 1305 2825 
Q 1016 2553 972 2059 
L 3022 2063 
z
" transform="scale(0.015625)"/>
       <path id="DejaVuSans-5b" d="M 550 4863 
L 1875 4863 
L 1875 4416 
L 1125 4416 
L 1125 -397 
L 1875 -397 
L 1875 -844 
L 550 -844 
L 550 4863 
z
" transform="scale(0.015625)"/>
       <path id="DejaVuSans-c5" d="M 2663 5081 
Q 2663 5278 2523 5417 
Q 2384 5556 2188 5556 
Q 1988 5556 1852 5420 
Q 1716 5284 1716 5081 
Q 1716 4884 1853 4746 
Q 1991 4609 2188 4609 
Q 2384 4609 2523 4746 
Q 2663 4884 2663 5081 
z
M 2188 4044 
L 1338 1722 
L 3041 1722 
L 2188 4044 
z
M 1716 4366 
Q 1525 4494 1428 4673 
Q 1331 4853 1331 5081 
Q 1331 5441 1579 5691 
Q 1828 5941 2188 5941 
Q 2544 5941 2795 5689 
Q 3047 5438 3047 5081 
Q 3047 4863 2948 4678 
Q 2850 4494 2663 4366 
L 4325 0 
L 3669 0 
L 3244 1197 
L 1141 1197 
L 716 0 
L 50 0 
L 1716 4366 
z
" transform="scale(0.015625)"/>
       <path id="DejaVuSans-5d" d="M 1947 4863 
L 1947 -844 
L 622 -844 
L 622 -397 
L 1369 -397 
L 1369 4416 
L 622 4416 
L 622 4863 
L 1947 4863 
z
" transform="scale(0.015625)"/>
      </defs>
      <use xlink:href="#DejaVuSans-43"/>
      <use xlink:href="#DejaVuSans-52" x="69.824219"/>
      <use xlink:href="#DejaVuSans-4f" x="139.306641"/>
      <use xlink:href="#DejaVuSans-36" x="218.017578"/>
      <use xlink:href="#DejaVuSans-36" x="281.640625"/>
      <use xlink:href="#DejaVuSans-20" x="345.263672"/>
      <use xlink:href="#DejaVuSans-4f" x="377.050781"/>
      <use xlink:href="#DejaVuSans-48" x="455.761719"/>
      <use xlink:href="#DejaVuSans-20" x="530.957031"/>
      <use xlink:href="#DejaVuSans-2d" x="562.744141"/>
      <use xlink:href="#DejaVuSans-20" x="598.828125"/>
      <use xlink:href="#DejaVuSans-48" x="630.615234"/>
      <use xlink:href="#DejaVuSans-49" x="705.810547"/>
      <use xlink:href="#DejaVuSans-53" x="735.302734"/>
      <use xlink:href="#DejaVuSans-31" x="798.779297"/>
      <use xlink:href="#DejaVuSans-34" x="862.402344"/>
      <use xlink:href="#DejaVuSans-38" x="926.025391"/>
      <use xlink:href="#DejaVuSans-20" x="989.648438"/>
      <use xlink:href="#DejaVuSans-4e" x="1021.435547"/>
      <use xlink:href="#DejaVuSans-44" x="1096.240234"/>
      <use xlink:href="#DejaVuSans-31" x="1173.242188"/>
      <use xlink:href="#DejaVuSans-20" x="1236.865234"/>
      <use xlink:href="#DejaVuSans-44" x="1268.652344"/>
      <use xlink:href="#DejaVuSans-69" x="1345.654297"/>
      <use xlink:href="#DejaVuSans-73" x="1373.4375"/>
      <use xlink:href="#DejaVuSans-74" x="1425.537109"/>
      <use xlink:href="#DejaVuSans-61" x="1464.746094"/>
      <use xlink:href="#DejaVuSans-6e" x="1526.025391"/>
      <use xlink:href="#DejaVuSans-63" x="1589.404297"/>
      <use xlink:href="#DejaVuSans-65" x="1644.384766"/>
      <use xlink:href="#DejaVuSans-20" x="1705.908203"/>
      <use xlink:href="#DejaVuSans-5b" x="1737.695312"/>
      <use xlink:href="#DejaVuSans-c5" x="1776.708984"/>
      <use xlink:href="#DejaVuSans-5d" x="1845.117188"/>
     </g>
    </g>
   </g>
   <g id="matplotlib.axis_2">
    <g id="ytick_1">
     <g id="line2d_6">
      <defs>
       <path id="m213872350a" d="M 0 0 
L -3.5 0 
" style="stroke: #000000; stroke-width: 0.8"/>
      </defs>
      <g>
       <use xlink:href="#m213872350a" x="54.02" y="302.8525" style="stroke: #000000; stroke-width: 0.8"/>
      </g>
     </g>
     <g id="text_7">
      <!-- 0.00 -->
      <g transform="translate(24.754375 306.651719) scale(0.1 -0.1)">
       <defs>
        <path id="DejaVuSans-30" d="M 2034 4250 
Q 1547 4250 1301 3770 
Q 1056 3291 1056 2328 
Q 1056 1369 1301 889 
Q 1547 409 2034 409 
Q 2525 409 2770 889 
Q 3016 1369 3016 2328 
Q 3016 3291 2770 3770 
Q 2525 4250 2034 4250 
z
M 2034 4750 
Q 2819 4750 3233 4129 
Q 3647 3509 3647 2328 
Q 3647 1150 3233 529 
Q 2819 -91 2034 -91 
Q 1250 -91 836 529 
Q 422 1150 422 2328 
Q 422 3509 836 4129 
Q 1250 4750 2034 4750 
z
" transform="scale(0.015625)"/>
        <path id="DejaVuSans-2e" d="M 684 794 
L 1344 794 
L 1344 0 
L 684 0 
L 684 794 
z
" transform="scale(0.015625)"/>
       </defs>
       <use xlink:href="#DejaVuSans-30"/>
       <use xlink:href="#DejaVuSans-2e" x="63.623047"/>
       <use xlink:href="#DejaVuSans-30" x="95.410156"/>
       <use xlink:href="#DejaVuSans-30" x="159.033203"/>
      </g>
     </g>
    </g>
    <g id="ytick_2">
     <g id="line2d_7">
      <g>
       <use xlink:href="#m213872350a" x="54.02" y="270.066545" style="stroke: #000000; stroke-width: 0.8"/>
      </g>
     </g>
     <g id="text_8">
      <!-- 0.05 -->
      <g transform="translate(24.754375 273.865764) scale(0.1 -0.1)">
       <use xlink:href="#DejaVuSans-30"/>
       <use xlink:href="#DejaVuSans-2e" x="63.623047"/>
       <use xlink:href="#DejaVuSans-30" x="95.410156"/>
       <use xlink:href="#DejaVuSans-35" x="159.033203"/>
      </g>
     </g>
    </g>
    <g id="ytick_3">
     <g id="line2d_8">
      <g>
       <use xlink:href="#m213872350a" x="54.02" y="237.280591" style="stroke: #000000; stroke-width: 0.8"/>
      </g>
     </g>
     <g id="text_9">
      <!-- 0.10 -->
      <g transform="translate(24.754375 241.079809) scale(0.1 -0.1)">
       <use xlink:href="#DejaVuSans-30"/>
       <use xlink:href="#DejaVuSans-2e" x="63.623047"/>
       <use xlink:href="#DejaVuSans-31" x="95.410156"/>
       <use xlink:href="#DejaVuSans-30" x="159.033203"/>
      </g>
     </g>
    </g>
    <g id="ytick_4">
     <g id="line2d_9">
      <g>
       <use xlink:href="#m213872350a" x="54.02" y="204.494636" style="stroke: #000000; stroke-width: 0.8"/>
      </g>
     </g>
     <g id="text_10">
      <!-- 0.15 -->
      <g transform="translate(24.754375 208.293855) scale(0.1 -0.1)">
       <use xlink:href="#DejaVuSans-30"/>
       <use xlink:href="#DejaVuSans-2e" x="63.623047"/>
       <use xlink:href="#DejaVuSans-31" x="95.410156"/>
       <use xlink:href="#DejaVuSans-35" x="159.033203"/>
      </g>
     </g>
    </g>
    <g id="ytick_5">
     <g id="line2d_10">
      <g>
       <use xlink:href="#m213872350a" x="54.02" y="171.708681" style="stroke: #000000; stroke-width: 0.8"/>
      </g>
     </g>
     <g id="text_11">
      <!-- 0.20 -->
      <g transform="translate(24.754375 175.5079) scale(0.1 -0.1)">
       <defs>
        <path id="DejaVuSans-32" d="M 1228 531 
L 3431 531 
L 3431 0 
L 469 0 
L 469 531 
Q 828 903 1448 1529 
Q 2069 2156 2228 2338 
Q 2531 2678 2651 2914 
Q 2772 3150 2772 3378 
Q 2772 3750 2511 3984 
Q 2250 4219 1831 4219 
Q 1534 4219 1204 4116 
Q 875 4013 500 3803 
L 500 4441 
Q 881 4594 1212 4672 
Q 1544 4750 1819 4750 
Q 2544 4750 2975 4387 
Q 3406 4025 3406 3419 
Q 3406 3131 3298 2873 
Q 3191 2616 2906 2266 
Q 2828 2175 2409 1742 
Q 1991 1309 1228 531 
z
" transform="scale(0.015625)"/>
       </defs>
       <use xlink:href="#DejaVuSans-30"/>
       <use xlink:href="#DejaVuSans-2e" x="63.623047"/>
       <use xlink:href="#DejaVuSans-32" x="95.410156"/>
       <use xlink:href="#DejaVuSans-30" x="159.033203"/>
      </g>
     </g>
    </g>
    <g id="ytick_6">
     <g id="line2d_11">
      <g>
       <use xlink:href="#m213872350a" x="54.02" y="138.922727" style="stroke: #000000; stroke-width: 0.8"/>
      </g>
     </g>
     <g id="text_12">
      <!-- 0.25 -->
      <g transform="translate(24.754375 142.721946) scale(0.1 -0.1)">
       <use xlink:href="#DejaVuSans-30"/>
       <use xlink:href="#DejaVuSans-2e" x="63.623047"/>
       <use xlink:href="#DejaVuSans-32" x="95.410156"/>
       <use xlink:href="#DejaVuSans-35" x="159.033203"/>
      </g>
     </g>
    </g>
    <g id="ytick_7">
     <g id="line2d_12">
      <g>
       <use xlink:href="#m213872350a" x="54.02" y="106.136772" style="stroke: #000000; stroke-width: 0.8"/>
      </g>
     </g>
     <g id="text_13">
      <!-- 0.30 -->
      <g transform="translate(24.754375 109.935991) scale(0.1 -0.1)">
       <use xlink:href="#DejaVuSans-30"/>
       <use xlink:href="#DejaVuSans-2e" x="63.623047"/>
       <use xlink:href="#DejaVuSans-33" x="95.410156"/>
       <use xlink:href="#DejaVuSans-30" x="159.033203"/>
      </g>
     </g>
    </g>
    <g id="ytick_8">
     <g id="line2d_13">
      <g>
       <use xlink:href="#m213872350a" x="54.02" y="73.350818" style="stroke: #000000; stroke-width: 0.8"/>
      </g>
     </g>
     <g id="text_14">
      <!-- 0.35 -->
      <g transform="translate(24.754375 77.150036) scale(0.1 -0.1)">
       <use xlink:href="#DejaVuSans-30"/>
       <use xlink:href="#DejaVuSans-2e" x="63.623047"/>
       <use xlink:href="#DejaVuSans-33" x="95.410156"/>
       <use xlink:href="#DejaVuSans-35" x="159.033203"/>
      </g>
     </g>
    </g>
    <g id="ytick_9">
     <g id="line2d_14">
      <g>
       <use xlink:href="#m213872350a" x="54.02" y="40.564863" style="stroke: #000000; stroke-width: 0.8"/>
      </g>
     </g>
     <g id="text_15">
      <!-- 0.40 -->
      <g transform="translate(24.754375 44.364082) scale(0.1 -0.1)">
       <use xlink:href="#DejaVuSans-30"/>
       <use xlink:href="#DejaVuSans-2e" x="63.623047"/>
       <use xlink:href="#DejaVuSans-34" x="95.410156"/>
       <use xlink:href="#DejaVuSans-30" x="159.033203"/>
      </g>
     </g>
    </g>
    <g id="text_16">
     <!-- Density -->
     <g transform="translate(18.674688 175.834844) rotate(-90) scale(0.1 -0.1)">
      <defs>
       <path id="DejaVuSans-79" d="M 2059 -325 
Q 1816 -950 1584 -1140 
Q 1353 -1331 966 -1331 
L 506 -1331 
L 506 -850 
L 844 -850 
Q 1081 -850 1212 -737 
Q 1344 -625 1503 -206 
L 1606 56 
L 191 3500 
L 800 3500 
L 1894 763 
L 2988 3500 
L 3597 3500 
L 2059 -325 
z
" transform="scale(0.015625)"/>
      </defs>
      <use xlink:href="#DejaVuSans-44"/>
      <use xlink:href="#DejaVuSans-65" x="77.001953"/>
      <use xlink:href="#DejaVuSans-6e" x="138.525391"/>
      <use xlink:href="#DejaVuSans-73" x="201.904297"/>
      <use xlink:href="#DejaVuSans-69" x="254.003906"/>
      <use xlink:href="#DejaVuSans-74" x="281.787109"/>
      <use xlink:href="#DejaVuSans-79" x="320.996094"/>
     </g>
    </g>
   </g>
   <g id="line2d_15">
    <path d="M 56.263214 293.947877 
L 58.427021 287.369807 
L 60.590828 277.449222 
L 62.754635 263.451718 
L 64.918442 244.974866 
L 67.082249 222.164764 
L 69.246055 195.848929 
L 73.573669 139.138349 
L 75.737476 112.827582 
L 77.901283 90.501836 
L 80.06509 73.579622 
L 82.228897 62.819579 
L 84.392704 58.29945 
L 86.55651 59.50203 
L 88.720317 65.459795 
L 90.884124 74.923581 
L 93.047931 86.539409 
L 97.375545 111.305351 
L 99.539352 122.638018 
L 101.703158 132.608092 
L 103.866965 141.093678 
L 106.030772 148.168139 
L 108.194579 153.99559 
L 110.358386 158.747604 
L 112.522193 162.555629 
L 114.686 165.497293 
L 116.849807 167.605912 
L 119.013613 168.891735 
L 121.17742 169.366565 
L 123.341227 169.065521 
L 125.505034 168.060077 
L 127.668841 166.457744 
L 129.832648 164.387856 
L 131.996455 161.978823 
L 136.324068 156.531657 
L 140.651682 150.568286 
L 144.979296 144.204062 
L 149.30691 137.430392 
L 153.634523 130.111566 
L 157.962137 122.172933 
L 164.453558 109.858293 
L 168.781171 102.17337 
L 173.108785 95.176186 
L 177.436399 88.701616 
L 181.764013 82.567996 
L 186.091626 76.834589 
L 188.255433 74.192204 
L 190.41924 71.756915 
L 192.583047 69.588249 
L 194.746854 67.754837 
L 196.910661 66.316928 
L 199.074468 65.304482 
L 201.238274 64.70457 
L 203.402081 64.465222 
L 205.565888 64.511132 
L 207.729695 64.760533 
L 214.221116 65.998765 
L 218.548729 66.708162 
L 222.876343 67.178047 
L 229.367764 67.68261 
L 231.531571 67.707496 
L 233.695378 67.509452 
L 235.859184 66.974165 
L 238.022991 66.029324 
L 240.186798 64.676595 
L 242.350605 62.986248 
L 244.514412 61.054459 
L 248.842026 56.702039 
L 253.169639 51.805559 
L 255.333446 49.311369 
L 257.497253 47.014636 
L 259.66106 45.13348 
L 261.824867 43.858438 
L 263.988674 43.323076 
L 266.152481 43.612616 
L 268.316287 44.794189 
L 270.480094 46.942695 
L 272.643901 50.146085 
L 274.807708 54.489168 
L 276.971515 60.024301 
L 279.135322 66.74006 
L 281.299129 74.539645 
L 283.462936 83.239985 
L 287.790549 102.352075 
L 300.773391 161.478549 
L 305.101004 180.255846 
L 309.428618 197.552325 
L 311.592425 205.493498 
L 313.756232 212.9703 
L 315.920039 220.022876 
L 318.083845 226.690013 
L 320.247652 232.989027 
L 322.411459 238.908414 
L 324.575266 244.415063 
L 326.739073 249.471287 
L 328.90288 254.052847 
L 331.066687 258.160019 
L 333.230494 261.818683 
L 335.3943 265.073743 
L 337.558107 267.979618 
L 339.721914 270.591575 
L 341.885721 272.959267 
L 344.049528 275.122324 
L 346.213335 277.107985 
L 348.377142 278.931499 
L 350.540949 280.599714 
L 352.704755 282.116862 
L 357.032369 284.733068 
L 361.359983 286.906617 
L 365.687597 288.802135 
L 372.179017 291.359386 
L 378.670438 293.623733 
L 385.161858 295.569291 
L 391.653279 297.279763 
L 395.980893 298.238945 
L 402.472313 299.370268 
L 408.963734 300.273874 
L 415.455155 300.953577 
L 426.274189 301.768789 
L 434.929416 302.266923 
L 443.584644 302.555496 
L 458.731292 302.783369 
L 461.8 302.792031 
L 461.8 302.792031 
" clip-path="url(#pc0715d3f3c)" style="fill: none; stroke: #1e2e79; stroke-width: 1.5; stroke-linecap: square"/>
   </g>
   <g id="line2d_16">
    <path d="M 59.06263 296.218141 
L 61.209736 291.598268 
L 63.356843 284.938913 
L 65.503949 276.010652 
L 67.651056 264.863533 
L 69.798163 251.898279 
L 74.092376 223.766559 
L 76.239483 210.704274 
L 78.386589 199.658901 
L 80.533696 191.310316 
L 82.680803 185.92933 
L 84.827909 183.384155 
L 86.975016 183.246919 
L 89.122122 184.945828 
L 91.269229 187.898768 
L 93.416336 191.589801 
L 97.710549 199.552882 
L 99.857656 203.205029 
L 102.004762 206.350033 
L 104.151869 208.867416 
L 106.298975 210.704073 
L 108.446082 211.856202 
L 110.593189 212.348364 
L 112.740295 212.215907 
L 114.887402 211.493947 
L 117.034509 210.213348 
L 119.181615 208.400861 
L 121.328722 206.07765 
L 123.475828 203.252116 
L 125.622935 199.910915 
L 127.770042 196.019364 
L 129.917148 191.539238 
L 132.064255 186.457914 
L 134.211362 180.810936 
L 136.358468 174.6829 
L 140.652682 161.435577 
L 147.094001 140.350398 
L 157.829535 104.12854 
L 159.976641 97.512266 
L 162.123748 91.422813 
L 164.270854 85.872387 
L 168.565068 75.928861 
L 179.300601 52.495249 
L 181.447708 48.378182 
L 183.594814 44.725651 
L 185.741921 41.565425 
L 187.889027 38.862226 
L 190.036134 36.556459 
L 192.183241 34.61441 
L 194.330347 33.063535 
L 196.477454 31.993525 
L 198.624561 31.521106 
L 200.771667 31.731526 
L 202.918774 32.618399 
L 205.06588 34.050078 
L 211.5072 39.214043 
L 215.801414 41.989012 
L 220.095627 44.706781 
L 232.978267 53.532141 
L 237.27248 56.950106 
L 241.566693 60.333875 
L 243.7138 61.718763 
L 245.860906 62.747784 
L 248.008013 63.325223 
L 250.15512 63.352656 
L 252.302226 62.727405 
L 254.449333 61.375692 
L 256.59644 59.307136 
L 258.743546 56.650068 
L 265.184866 47.589209 
L 267.331973 44.979025 
L 269.479079 42.816818 
L 271.626186 41.172006 
L 273.773293 40.08784 
L 275.920399 39.593383 
L 278.067506 39.71971 
L 280.214613 40.525055 
L 282.361719 42.116038 
L 284.508826 44.643656 
L 286.655932 48.266803 
L 288.803039 53.101987 
L 290.950146 59.19007 
L 293.097252 66.496341 
L 295.244359 74.932756 
L 297.391466 84.376764 
L 299.538572 94.670943 
L 303.832786 116.936217 
L 308.126999 139.601952 
L 312.421212 160.777702 
L 314.568319 170.556713 
L 316.715425 179.804448 
L 318.862532 188.547318 
L 321.009639 196.797547 
L 323.156745 204.564866 
L 327.450958 218.825777 
L 331.745172 231.874536 
L 333.892278 238.002049 
L 336.039385 243.757041 
L 338.186492 249.015437 
L 340.333598 253.694157 
L 342.480705 257.79779 
L 344.627812 261.42016 
L 346.774918 264.702179 
L 351.069131 270.692375 
L 353.216238 273.459842 
L 355.363345 276.018748 
L 357.510451 278.309329 
L 359.657558 280.302652 
L 361.804665 282.014287 
L 363.951771 283.495216 
L 368.245984 286.019543 
L 374.687304 289.343519 
L 381.128624 292.404757 
L 385.422838 294.171258 
L 389.717051 295.569957 
L 394.011264 296.631177 
L 402.599691 298.338488 
L 411.188117 299.976068 
L 415.48233 300.629103 
L 421.92365 301.313294 
L 430.512077 301.932942 
L 439.100503 302.283524 
L 451.983143 302.561708 
L 461.8 302.732307 
L 461.8 302.732307 
" clip-path="url(#pc0715d3f3c)" style="fill: none; stroke: #f99752; stroke-width: 1.5; stroke-linecap: square"/>
   </g>
   <g id="patch_213">
    <path d="M 54.02 302.8525 
L 54.02 10.8 
" style="fill: none; stroke: #000000; stroke-width: 0.8; stroke-linejoin: miter; stroke-linecap: square"/>
   </g>
   <g id="patch_214">
    <path d="M 450 302.8525 
L 450 10.8 
" style="fill: none; stroke: #000000; stroke-width: 0.8; stroke-linejoin: miter; stroke-linecap: square"/>
   </g>
   <g id="patch_215">
    <path d="M 54.02 302.8525 
L 450 302.8525 
" style="fill: none; stroke: #000000; stroke-width: 0.8; stroke-linejoin: miter; stroke-linecap: square"/>
   </g>
   <g id="patch_216">
    <path d="M 54.02 10.8 
L 450 10.8 
" style="fill: none; stroke: #000000; stroke-width: 0.8; stroke-linejoin: miter; stroke-linecap: square"/>
   </g>
   <g id="legend_1">
    <g id="patch_217">
     <path d="M 365.853125 48.15625 
L 443 48.15625 
Q 445 48.15625 445 46.15625 
L 445 17.8 
Q 445 15.8 443 15.8 
L 365.853125 15.8 
Q 363.853125 15.8 363.853125 17.8 
L 363.853125 46.15625 
Q 363.853125 48.15625 365.853125 48.15625 
z
" style="fill: #ffffff; opacity: 0.8; stroke: #cccccc; stroke-linejoin: miter"/>
    </g>
    <g id="patch_218">
     <path d="M 367.853125 27.398438 
L 387.853125 27.398438 
L 387.853125 20.398438 
L 367.853125 20.398438 
z
" style="fill: #1e2e79; fill-opacity: 0.5; stroke: #000000; stroke-width: 0.33128; stroke-linejoin: miter"/>
    </g>
    <g id="text_17">
     <!-- Unbound -->
     <g transform="translate(395.853125 27.398438) scale(0.1 -0.1)">
      <defs>
       <path id="DejaVuSans-55" d="M 556 4666 
L 1191 4666 
L 1191 1831 
Q 1191 1081 1462 751 
Q 1734 422 2344 422 
Q 2950 422 3222 751 
Q 3494 1081 3494 1831 
L 3494 4666 
L 4128 4666 
L 4128 1753 
Q 4128 841 3676 375 
Q 3225 -91 2344 -91 
Q 1459 -91 1007 375 
Q 556 841 556 1753 
L 556 4666 
z
" transform="scale(0.015625)"/>
       <path id="DejaVuSans-62" d="M 3116 1747 
Q 3116 2381 2855 2742 
Q 2594 3103 2138 3103 
Q 1681 3103 1420 2742 
Q 1159 2381 1159 1747 
Q 1159 1113 1420 752 
Q 1681 391 2138 391 
Q 2594 391 2855 752 
Q 3116 1113 3116 1747 
z
M 1159 2969 
Q 1341 3281 1617 3432 
Q 1894 3584 2278 3584 
Q 2916 3584 3314 3078 
Q 3713 2572 3713 1747 
Q 3713 922 3314 415 
Q 2916 -91 2278 -91 
Q 1894 -91 1617 61 
Q 1341 213 1159 525 
L 1159 0 
L 581 0 
L 581 4863 
L 1159 4863 
L 1159 2969 
z
" transform="scale(0.015625)"/>
       <path id="DejaVuSans-6f" d="M 1959 3097 
Q 1497 3097 1228 2736 
Q 959 2375 959 1747 
Q 959 1119 1226 758 
Q 1494 397 1959 397 
Q 2419 397 2687 759 
Q 2956 1122 2956 1747 
Q 2956 2369 2687 2733 
Q 2419 3097 1959 3097 
z
M 1959 3584 
Q 2709 3584 3137 3096 
Q 3566 2609 3566 1747 
Q 3566 888 3137 398 
Q 2709 -91 1959 -91 
Q 1206 -91 779 398 
Q 353 888 353 1747 
Q 353 2609 779 3096 
Q 1206 3584 1959 3584 
z
" transform="scale(0.015625)"/>
       <path id="DejaVuSans-75" d="M 544 1381 
L 544 3500 
L 1119 3500 
L 1119 1403 
Q 1119 906 1312 657 
Q 1506 409 1894 409 
Q 2359 409 2629 706 
Q 2900 1003 2900 1516 
L 2900 3500 
L 3475 3500 
L 3475 0 
L 2900 0 
L 2900 538 
Q 2691 219 2414 64 
Q 2138 -91 1772 -91 
Q 1169 -91 856 284 
Q 544 659 544 1381 
z
M 1991 3584 
L 1991 3584 
z
" transform="scale(0.015625)"/>
       <path id="DejaVuSans-64" d="M 2906 2969 
L 2906 4863 
L 3481 4863 
L 3481 0 
L 2906 0 
L 2906 525 
Q 2725 213 2448 61 
Q 2172 -91 1784 -91 
Q 1150 -91 751 415 
Q 353 922 353 1747 
Q 353 2572 751 3078 
Q 1150 3584 1784 3584 
Q 2172 3584 2448 3432 
Q 2725 3281 2906 2969 
z
M 947 1747 
Q 947 1113 1208 752 
Q 1469 391 1925 391 
Q 2381 391 2643 752 
Q 2906 1113 2906 1747 
Q 2906 2381 2643 2742 
Q 2381 3103 1925 3103 
Q 1469 3103 1208 2742 
Q 947 2381 947 1747 
z
" transform="scale(0.015625)"/>
      </defs>
      <use xlink:href="#DejaVuSans-55"/>
      <use xlink:href="#DejaVuSans-6e" x="73.193359"/>
      <use xlink:href="#DejaVuSans-62" x="136.572266"/>
      <use xlink:href="#DejaVuSans-6f" x="200.048828"/>
      <use xlink:href="#DejaVuSans-75" x="261.230469"/>
      <use xlink:href="#DejaVuSans-6e" x="324.609375"/>
      <use xlink:href="#DejaVuSans-64" x="387.988281"/>
     </g>
    </g>
    <g id="patch_219">
     <path d="M 367.853125 42.076563 
L 387.853125 42.076563 
L 387.853125 35.076563 
L 367.853125 35.076563 
z
" style="fill: #f99752; fill-opacity: 0.5; stroke: #000000; stroke-width: 0.287633; stroke-linejoin: miter"/>
    </g>
    <g id="text_18">
     <!-- Bound -->
     <g transform="translate(395.853125 42.076563) scale(0.1 -0.1)">
      <defs>
       <path id="DejaVuSans-42" d="M 1259 2228 
L 1259 519 
L 2272 519 
Q 2781 519 3026 730 
Q 3272 941 3272 1375 
Q 3272 1813 3026 2020 
Q 2781 2228 2272 2228 
L 1259 2228 
z
M 1259 4147 
L 1259 2741 
L 2194 2741 
Q 2656 2741 2882 2914 
Q 3109 3088 3109 3444 
Q 3109 3797 2882 3972 
Q 2656 4147 2194 4147 
L 1259 4147 
z
M 628 4666 
L 2241 4666 
Q 2963 4666 3353 4366 
Q 3744 4066 3744 3513 
Q 3744 3084 3544 2831 
Q 3344 2578 2956 2516 
Q 3422 2416 3680 2098 
Q 3938 1781 3938 1306 
Q 3938 681 3513 340 
Q 3088 0 2303 0 
L 628 0 
L 628 4666 
z
" transform="scale(0.015625)"/>
      </defs>
      <use xlink:href="#DejaVuSans-42"/>
      <use xlink:href="#DejaVuSans-6f" x="68.603516"/>
      <use xlink:href="#DejaVuSans-75" x="129.785156"/>
      <use xlink:href="#DejaVuSans-6e" x="193.164062"/>
      <use xlink:href="#DejaVuSans-64" x="256.542969"/>
     </g>
    </g>
   </g>
  </g>
 </g>
 <defs>
  <clipPath id="pc0715d3f3c">
   <rect x="54.02" y="10.8" width="395.98" height="292.0525"/>
  </clipPath>
 </defs>
</svg>
