<?xml version="1.0" encoding="utf-8" standalone="no"?>
<!DOCTYPE svg PUBLIC "-//W3C//DTD SVG 1.1//EN"
  "http://www.w3.org/Graphics/SVG/1.1/DTD/svg11.dtd">
<svg xmlns:xlink="http://www.w3.org/1999/xlink" width="460.8pt" height="345.6pt" viewBox="0 0 460.8 345.6" xmlns="http://www.w3.org/2000/svg" version="1.1">
 <metadata>
  <rdf:RDF xmlns:dc="http://purl.org/dc/elements/1.1/" xmlns:cc="http://creativecommons.org/ns#" xmlns:rdf="http://www.w3.org/1999/02/22-rdf-syntax-ns#">
   <cc:Work>
    <dc:type rdf:resource="http://purl.org/dc/dcmitype/StillImage"/>
    <dc:date>2024-07-22T17:39:36.706348</dc:date>
    <dc:format>image/svg+xml</dc:format>
    <dc:creator>
     <cc:Agent>
      <dc:title>Matplotlib v3.9.1, https://matplotlib.org/</dc:title>
     </cc:Agent>
    </dc:creator>
   </cc:Work>
  </rdf:RDF>
 </metadata>
 <defs>
  <style type="text/css">*{stroke-linejoin: round; stroke-linecap: butt}</style>
 </defs>
 <g id="figure_1">
  <g id="patch_1">
   <path d="M 0 345.6 
L 460.8 345.6 
L 460.8 0 
L 0 0 
z
" style="fill: #ffffff"/>
  </g>
  <g id="axes_1">
   <g id="patch_2">
    <path d="M 47.252 300.112 
L 447.84 300.112 
L 447.84 16.74 
L 47.252 16.74 
z
" style="fill: #ffffff"/>
   </g>
   <g id="line2d_1">
    <path d="M 47.252 186.7632 
L 447.84 186.7632 
" clip-path="url(#p9ec819a4d1)" style="fill: none; stroke-dasharray: 1.75,2.8875; stroke-dashoffset: 0; stroke: #c0c0c0; stroke-width: 1.75"/>
   </g>
   <g id="line2d_2">
    <path d="M 47.252 40.959203 
L 47.809146 46.229261 
L 48.923438 58.597684 
L 49.480584 63.182201 
L 50.03773 66.677082 
L 50.594876 69.066264 
L 51.152022 70.463921 
L 51.709168 71.135992 
L 52.266314 71.199789 
L 52.82346 70.448813 
L 53.380606 68.640105 
L 55.052045 60.003421 
L 56.166337 53.773507 
L 56.723483 53.755831 
L 57.280629 57.730252 
L 58.394921 66.919154 
L 59.509213 72.816385 
L 60.066359 74.399297 
L 60.623505 73.963263 
L 61.180651 70.533414 
L 61.737797 63.711574 
L 62.294943 54.944375 
L 62.852089 49.837292 
L 63.409235 51.962216 
L 63.966381 55.83468 
L 64.523527 57.403382 
L 65.080673 55.603138 
L 65.637819 50.247836 
L 66.194965 42.720942 
L 66.752111 40.318397 
L 68.423549 63.807964 
L 68.980695 64.729973 
L 69.537841 61.310301 
L 70.094987 55.904455 
L 70.652134 53.912914 
L 71.766426 59.993711 
L 72.323572 60.534835 
L 72.880718 59.152264 
L 73.437864 58.129285 
L 73.99501 58.917126 
L 74.552156 60.45884 
L 75.109302 61.416844 
L 76.78074 62.330733 
L 77.337886 61.88561 
L 77.895032 59.870248 
L 79.009324 52.178293 
L 79.56647 50.061398 
L 80.680762 49.382665 
L 81.237908 47.281035 
L 81.795054 42.311605 
L 82.3522 33.55138 
L 83.466492 9.63892 
L 84.023638 17.153002 
L 84.580784 33.148496 
L 85.13793 45.823285 
L 85.695076 54.104213 
L 86.252223 58.64759 
L 86.809369 60.563466 
L 87.366515 61.029012 
L 87.923661 61.069903 
L 88.480807 61.743332 
L 89.595099 65.26613 
L 90.152245 65.612246 
L 90.709391 63.507028 
L 91.266537 58.233524 
L 91.823683 49.172943 
L 92.380829 35.82082 
L 92.937975 17.826898 
L 93.40148 -1 
M 94.983117 -1 
L 95.166559 5.974151 
L 95.723705 22.701399 
L 96.280851 34.186875 
L 96.837997 40.407599 
L 97.395143 41.362914 
L 97.952289 37.0528 
L 98.509435 27.477259 
L 99.066581 12.636385 
L 99.44454 -1 
M 102.073582 -1 
L 102.409458 11.456971 
L 102.966604 27.064118 
L 103.52375 37.891223 
L 104.080896 44.570375 
L 104.638042 48.303516 
L 105.752334 52.762954 
L 106.866626 56.924408 
L 107.980918 63.809413 
L 108.538064 65.74992 
L 109.09521 65.019043 
L 109.652356 62.501858 
L 110.209502 61.036101 
L 110.766648 62.513789 
L 111.323794 65.125429 
L 111.88094 66.765813 
L 112.438086 67.411334 
L 112.995232 68.314112 
L 113.552378 69.871253 
L 114.109524 70.789483 
L 114.66667 69.868879 
L 117.452401 57.35616 
L 118.009547 58.594194 
L 119.123839 70.774566 
L 119.680985 73.538363 
L 120.238131 72.422078 
L 120.795277 67.891249 
L 122.466715 48.581462 
L 123.023861 47.670432 
L 123.581007 50.632562 
L 124.138153 54.296642 
L 125.252445 59.393693 
L 126.366737 63.530986 
L 126.923883 64.170446 
L 127.481029 63.982007 
L 128.038175 65.630122 
L 129.709613 80.08284 
L 130.266759 81.144596 
L 130.823905 80.00057 
L 133.05249 70.094774 
L 133.609636 68.597929 
L 134.166782 68.777545 
L 135.281074 71.268028 
L 135.83822 71.544831 
L 136.952512 70.564653 
L 137.509658 71.603191 
L 138.066804 74.529172 
L 139.181096 81.953161 
L 139.738242 84.955295 
L 140.295388 87.148909 
L 140.852534 88.855324 
L 141.40968 90.929241 
L 143.081118 99.750678 
L 143.638264 101.571041 
L 144.752556 104.500946 
L 146.98114 111.381781 
L 147.538287 113.906567 
L 149.766871 125.973792 
L 150.881163 130.296949 
L 153.109747 137.80472 
L 155.338331 147.315581 
L 157.566915 155.061167 
L 159.795499 164.273843 
L 162.024083 171.735364 
L 164.809814 180.736372 
L 166.481252 185.096082 
L 168.709836 190.3223 
L 169.824128 192.374341 
L 172.052712 195.48596 
L 173.167004 196.825545 
L 174.838442 198.349355 
L 175.952734 199.087895 
L 177.067026 199.505317 
L 178.181318 199.585151 
L 179.295611 199.342384 
L 179.852757 199.055482 
L 180.967049 198.130014 
L 183.752779 195.099357 
L 184.867071 193.540983 
L 185.981363 191.520434 
L 188.767093 185.304336 
L 189.881385 182.625521 
L 191.552823 177.656793 
L 193.781408 170.534055 
L 195.452846 164.363428 
L 197.68143 154.839356 
L 201.024306 140.570808 
L 203.25289 129.708354 
L 204.367182 124.638836 
L 206.595766 113.332594 
L 207.710058 106.145629 
L 208.82435 98.572557 
L 209.381497 96.043906 
L 209.938643 94.986954 
L 210.495789 94.859803 
L 211.052935 94.25474 
L 211.610081 92.197793 
L 213.281519 82.818515 
L 213.838665 81.410684 
L 214.952957 79.406749 
L 215.510103 78.272338 
L 216.067249 77.718684 
L 216.624395 77.459164 
L 217.181541 76.171692 
L 218.295833 70.142535 
L 218.852979 69.289703 
L 219.410125 70.435693 
L 219.967271 71.161799 
L 220.524417 70.488803 
L 221.081563 69.453713 
L 221.638709 69.695522 
L 222.753001 72.585783 
L 223.310147 72.136941 
L 223.867293 69.564166 
L 224.424439 66.017574 
L 224.981586 63.745065 
L 225.538732 63.669483 
L 226.095878 64.886538 
L 226.653024 67.180232 
L 228.324462 77.35343 
L 228.881608 79.056288 
L 229.438754 79.803712 
L 229.9959 79.511426 
L 230.553046 77.812651 
L 231.667338 72.239666 
L 232.224484 72.421449 
L 233.338776 77.773068 
L 233.895922 79.151481 
L 234.453068 80.009617 
L 235.56736 82.17341 
L 236.124506 82.292862 
L 236.681652 81.779759 
L 237.238798 81.087402 
L 237.795944 79.735162 
L 238.35309 76.863999 
L 238.910236 72.35276 
L 240.581675 56.59976 
L 241.138821 54.693314 
L 241.695967 56.880584 
L 242.810259 64.462886 
L 243.367405 66.235125 
L 243.924551 66.551647 
L 244.481697 66.733743 
L 245.038843 68.825606 
L 245.595989 75.433995 
L 246.153135 88.371352 
L 247.267427 118.335001 
L 247.824573 128.401106 
L 248.381719 133.796084 
L 248.938865 134.33081 
L 249.496011 129.958508 
L 250.053157 120.70782 
L 250.610303 106.789382 
L 251.724595 72.832927 
L 252.281741 64.306247 
L 252.838887 59.832995 
L 253.396033 52.77448 
L 253.953179 41.05195 
L 254.510325 24.236545 
L 255.136692 -1 
M 256.957926 -1 
L 257.853202 31.767474 
L 258.410348 46.113231 
L 258.967494 56.363649 
L 259.52464 62.824812 
L 260.081786 65.898635 
L 260.638932 66.145145 
L 261.196078 64.221936 
L 261.753224 60.698632 
L 262.31037 56.336981 
L 262.867516 53.24012 
L 263.424662 54.410977 
L 263.981808 59.826855 
L 265.0961 72.791728 
L 265.653246 77.312318 
L 268.438976 93.634133 
L 270.110414 99.211223 
L 271.781853 108.222377 
L 272.896145 113.883267 
L 274.010437 117.433266 
L 274.567583 119.265055 
L 275.681875 124.145778 
L 279.024751 140.055537 
L 282.367627 153.24013 
L 285.710503 164.111343 
L 287.939088 170.031455 
L 289.05338 172.551258 
L 292.396256 179.049137 
L 294.067694 181.828979 
L 295.181986 183.108393 
L 297.967716 185.438384 
L 299.082008 185.983348 
L 300.753446 186.65377 
L 301.310592 186.763491 
L 301.867739 186.713062 
L 302.424885 186.466991 
L 303.539177 185.538277 
L 307.439199 181.614406 
L 309.110637 179.492332 
L 310.224929 177.770715 
L 311.339221 175.514184 
L 315.796389 165.255597 
L 318.024974 158.822546 
L 319.139266 155.380562 
L 320.810704 149.758825 
L 323.596434 141.530539 
L 324.710726 136.831956 
L 326.382164 129.18837 
L 326.93931 127.167088 
L 328.053602 124.389528 
L 329.72504 121.24158 
L 330.282186 120.173838 
L 330.839332 118.556334 
L 331.396478 116.079682 
L 333.067917 106.608826 
L 333.625063 104.33231 
L 334.182209 102.997138 
L 334.739355 102.880575 
L 335.853647 104.364158 
L 336.410793 104.441322 
L 336.967939 103.839404 
L 337.525085 102.662692 
L 338.082231 100.79687 
L 338.639377 98.091891 
L 339.753669 91.45999 
L 340.310815 89.377495 
L 340.867961 89.311468 
L 341.425107 90.925461 
L 342.539399 94.873779 
L 343.096545 95.437198 
L 343.653691 94.296391 
L 344.210837 91.375702 
L 345.325129 83.415744 
L 345.882275 81.134294 
L 346.439421 80.576705 
L 346.996567 81.07688 
L 347.553713 82.321868 
L 348.668006 85.480471 
L 349.782298 87.55021 
L 350.89659 90.307672 
L 352.010882 92.019643 
L 352.568028 93.377982 
L 353.68232 97.898198 
L 354.796612 102.032281 
L 355.910904 105.216126 
L 357.582342 110.654351 
L 358.139488 111.704784 
L 358.696634 112.302632 
L 359.25378 112.56989 
L 359.810926 112.53975 
L 360.368072 112.14512 
L 362.03951 109.954457 
L 362.596656 109.875033 
L 363.153803 110.012677 
L 363.710949 110.021989 
L 364.268095 109.79256 
L 364.825241 109.352546 
L 366.496679 107.467645 
L 367.610971 107.223892 
L 368.168117 106.480805 
L 368.725263 104.716322 
L 369.282409 102.560517 
L 369.839555 101.293832 
L 370.396701 101.453688 
L 370.953847 102.172507 
L 371.510993 102.302261 
L 372.068139 101.410528 
L 373.182431 98.247921 
L 373.739577 97.070481 
L 374.296723 96.263335 
L 376.525307 93.823212 
L 377.082453 93.915431 
L 377.639599 95.683933 
L 378.196745 98.477738 
L 378.753892 100.684088 
L 379.311038 101.397755 
L 379.868184 100.771931 
L 380.42533 99.701306 
L 380.982476 99.308438 
L 381.539622 100.088588 
L 383.21106 104.093379 
L 383.768206 105.220176 
L 384.325352 106.072353 
L 384.882498 106.105862 
L 385.439644 105.1076 
L 385.99679 103.628185 
L 386.553936 102.661578 
L 387.111082 102.607823 
L 387.668228 102.872332 
L 388.78252 102.835002 
L 389.339666 103.474192 
L 391.011104 107.71786 
L 391.56825 108.595057 
L 392.125396 109.123834 
L 392.682542 109.339675 
L 394.353981 109.532275 
L 396.025419 110.098406 
L 396.582565 109.743278 
L 397.696857 108.488306 
L 398.254003 108.317726 
L 399.368295 108.683894 
L 401.039733 109.858841 
L 401.596879 109.55341 
L 402.154025 108.359431 
L 402.711171 106.67245 
L 403.268317 105.504074 
L 403.825463 105.509064 
L 404.382609 106.139902 
L 404.939755 106.38902 
L 405.496901 105.767019 
L 406.611193 103.324736 
L 407.168339 103.177248 
L 408.282631 105.144487 
L 408.839777 105.430666 
L 409.396924 105.175777 
L 409.95407 105.289508 
L 411.068362 106.622142 
L 411.625508 106.134659 
L 412.182654 104.329668 
L 413.296946 99.132327 
L 413.854092 97.659457 
L 414.411238 97.407468 
L 415.52553 98.517889 
L 416.082676 98.001463 
L 416.639822 95.715347 
L 417.754114 89.068616 
L 418.31126 87.711209 
L 418.868406 87.807558 
L 419.425552 88.626662 
L 420.539844 90.739435 
L 421.09699 90.956113 
L 421.654136 90.16878 
L 422.211282 88.795812 
L 422.768428 87.756741 
L 423.325574 87.426847 
L 423.88272 86.935745 
L 424.439866 85.280619 
L 425.554159 79.382155 
L 426.111305 76.273451 
L 426.668451 72.513057 
L 427.225597 67.402949 
L 428.339889 55.62675 
L 428.897035 54.139792 
L 429.454181 56.885618 
L 430.568473 64.157909 
L 431.125619 65.870833 
L 431.682765 65.858716 
L 432.797057 63.143042 
L 433.354203 62.971437 
L 434.468495 64.767476 
L 435.025641 64.763953 
L 435.582787 64.276678 
L 436.139933 64.106131 
L 436.697079 64.78044 
L 437.254225 65.845404 
L 437.811371 65.899491 
L 438.368517 63.598503 
L 438.925663 58.293836 
L 440.039955 42.153034 
L 440.597102 41.002145 
L 441.711394 52.279216 
L 442.26854 54.692593 
L 442.825686 54.267501 
L 443.382832 51.896055 
L 443.939978 48.130204 
L 444.497124 43.453554 
L 445.05427 40.129207 
L 445.611416 40.66686 
L 446.168562 42.550371 
L 446.725708 42.330421 
L 447.282854 40.385229 
L 447.84 40.959203 
L 447.84 40.959203 
" clip-path="url(#p9ec819a4d1)" style="fill: none; stroke: #1e2e79; stroke-width: 2.5; stroke-linecap: square"/>
   </g>
   <g id="line2d_3">
    <path d="M 47.252 127.451379 
L 47.809146 129.842984 
L 48.366292 130.932289 
L 48.923438 130.997324 
L 49.480584 130.675957 
L 50.03773 130.68377 
L 50.594876 131.016467 
L 51.152022 130.583844 
L 51.709168 128.108677 
L 52.82346 117.78862 
L 53.380606 115.671432 
L 53.937752 118.580863 
L 54.494898 123.21009 
L 55.052045 126.45822 
L 55.609191 127.032262 
L 56.166337 124.946842 
L 56.723483 121.518806 
L 57.280629 119.181992 
L 57.837775 119.86681 
L 59.509213 129.799634 
L 60.066359 131.016231 
L 60.623505 130.721854 
L 61.180651 129.18674 
L 61.737797 126.973052 
L 62.294943 125.366983 
L 62.852089 125.641924 
L 64.523527 131.186335 
L 65.080673 131.825373 
L 65.637819 131.583763 
L 66.194965 130.173616 
L 66.752111 126.93357 
L 67.309257 121.284594 
L 67.866403 113.004815 
L 68.423549 102.085262 
L 69.537841 76.842356 
L 70.094987 79.664606 
L 71.20928 103.658995 
L 71.766426 110.860798 
L 72.323572 114.521517 
L 72.880718 115.740661 
L 73.437864 116.201763 
L 73.99501 117.131235 
L 75.109302 119.706324 
L 75.666448 120.734211 
L 76.223594 120.896939 
L 76.78074 119.277524 
L 77.337886 115.47235 
L 79.009324 99.857809 
L 79.56647 96.514826 
L 80.123616 94.131688 
L 80.680762 93.374015 
L 81.237908 93.210745 
L 81.795054 91.291696 
L 82.3522 87.591117 
L 82.909346 86.053847 
L 84.023638 91.174993 
L 84.580784 89.700741 
L 85.695076 78.008344 
L 86.252223 82.112085 
L 86.809369 92.744587 
L 87.366515 101.18361 
L 87.923661 105.54247 
L 88.480807 106.026413 
L 89.037953 103.090197 
L 89.595099 96.915516 
L 90.152245 87.234036 
L 90.709391 73.514628 
L 91.823683 37.178685 
L 92.380829 42.556839 
L 92.937975 61.457647 
L 93.495121 76.558013 
L 94.052267 86.303861 
L 94.609413 90.629042 
L 95.166559 89.530879 
L 95.723705 83.009264 
L 96.280851 71.064192 
L 96.837997 53.695664 
L 97.395143 30.903678 
L 98.013376 -1 
M 115.069626 -1 
L 115.780962 37.363226 
L 116.338108 60.949693 
L 116.895255 79.236048 
L 117.452401 92.229311 
L 118.009547 99.934794 
L 118.566693 102.355788 
L 119.123839 99.493346 
L 119.680985 91.346224 
L 120.238131 77.910951 
L 120.795277 59.18206 
L 121.352423 35.152406 
L 122.019107 -1 
M 124.864799 -1 
L 125.809591 47.242037 
L 126.366737 68.394529 
L 126.923883 84.491901 
L 127.481029 95.748307 
L 128.038175 102.693393 
L 128.595321 106.574249 
L 129.709613 112.863436 
L 130.266759 115.954448 
L 130.823905 117.669773 
L 131.381051 118.586231 
L 131.938197 120.471105 
L 133.05249 127.040349 
L 133.609636 128.699237 
L 134.166782 128.690779 
L 135.83822 126.341618 
L 136.395366 125.190368 
L 136.952512 124.366976 
L 137.509658 124.261743 
L 138.066804 124.745702 
L 138.62395 126.448951 
L 139.181096 130.489627 
L 140.295388 141.176607 
L 140.852534 144.864282 
L 143.638264 157.930245 
L 144.752556 162.177199 
L 146.423994 169.108377 
L 147.538287 172.819741 
L 148.095433 175.348121 
L 149.766871 184.990873 
L 151.995455 194.637306 
L 153.109747 199.394526 
L 157.009769 214.002279 
L 159.238353 222.246957 
L 160.909791 227.517535 
L 163.138376 233.952635 
L 165.36696 239.496732 
L 167.595544 244.678077 
L 168.709836 246.726122 
L 170.381274 249.165125 
L 173.167004 252.77709 
L 173.72415 253.252556 
L 174.838442 253.784491 
L 176.50988 254.297645 
L 177.624172 254.485979 
L 178.181318 254.471967 
L 178.738465 254.33472 
L 179.852757 253.739184 
L 180.967049 252.886979 
L 182.081341 251.857614 
L 183.195633 250.577153 
L 184.867071 248.157283 
L 185.981363 246.161801 
L 187.652801 242.527952 
L 189.881385 237.006593 
L 192.667115 228.494396 
L 194.338554 223.06104 
L 199.352868 203.098777 
L 201.024306 195.660785 
L 204.924328 180.031407 
L 206.03862 174.281734 
L 208.82435 158.389305 
L 209.381497 157.233707 
L 209.938643 156.458354 
L 210.495789 154.768038 
L 211.052935 151.460886 
L 212.167227 142.267761 
L 212.724373 139.567421 
L 213.281519 138.948776 
L 214.395811 139.303808 
L 214.952957 139.033954 
L 216.624395 137.464933 
L 217.181541 136.114301 
L 218.295833 131.818335 
L 218.852979 130.76801 
L 219.967271 130.536719 
L 220.524417 130.084349 
L 221.081563 130.095347 
L 222.195855 132.221573 
L 222.753001 132.476589 
L 223.867293 131.020626 
L 224.424439 131.521157 
L 226.653024 137.543645 
L 227.21017 138.313481 
L 227.767316 138.849285 
L 228.324462 139.084863 
L 228.881608 138.706299 
L 229.9959 136.511172 
L 230.553046 136.011065 
L 231.110192 136.242409 
L 231.667338 136.646554 
L 232.78163 137.038826 
L 233.338776 138.22609 
L 233.895922 141.16134 
L 234.453068 145.094008 
L 235.010214 148.213885 
L 235.56736 149.290232 
L 236.124506 148.148236 
L 236.681652 145.385911 
L 237.795944 138.902109 
L 238.35309 137.103132 
L 238.910236 137.164928 
L 240.581675 141.682408 
L 241.138821 142.107415 
L 241.695967 142.369439 
L 242.253113 142.890509 
L 243.367405 144.320504 
L 243.924551 144.569022 
L 244.481697 144.170163 
L 245.038843 143.149211 
L 246.153135 140.334267 
L 246.710281 139.93967 
L 247.824573 141.124731 
L 248.381719 140.453346 
L 249.496011 137.135242 
L 250.053157 136.405398 
L 250.610303 136.290634 
L 251.167449 136.482966 
L 251.724595 137.126556 
L 252.281741 137.951715 
L 252.838887 138.061925 
L 253.396033 136.735427 
L 255.067471 128.739762 
L 255.624618 129.627452 
L 256.181764 131.879721 
L 256.73891 133.43075 
L 257.296056 133.675588 
L 258.967494 132.025324 
L 260.081786 131.91731 
L 261.196078 131.200627 
L 262.31037 131.522557 
L 262.867516 130.865187 
L 263.424662 128.83952 
L 263.981808 125.536075 
L 265.0961 117.735116 
L 265.653246 116.254352 
L 266.210392 117.15078 
L 267.324684 120.28387 
L 267.88183 121.621266 
L 269.553268 126.379551 
L 270.110414 126.603415 
L 270.667561 125.794607 
L 271.224707 124.484991 
L 271.781853 123.786987 
L 272.338999 124.547714 
L 273.453291 127.475592 
L 274.010437 128.15516 
L 274.567583 129.048583 
L 275.124729 131.067585 
L 275.681875 133.800597 
L 276.239021 135.92693 
L 276.796167 136.822952 
L 277.353313 137.190138 
L 277.910459 138.328597 
L 278.467605 140.632979 
L 280.139043 148.77481 
L 280.696189 150.807763 
L 281.810481 153.696751 
L 282.924773 156.00265 
L 283.481919 156.666353 
L 284.039065 157.139758 
L 284.596211 158.015399 
L 285.153357 159.891617 
L 286.26765 165.331877 
L 286.824796 167.200836 
L 287.381942 168.160028 
L 287.939088 168.790428 
L 288.496234 169.778234 
L 289.610526 173.126913 
L 290.724818 176.11202 
L 294.067694 181.988728 
L 297.41057 186.517802 
L 297.967716 186.838239 
L 299.082008 186.896578 
L 302.982031 186.689663 
L 303.539177 186.479734 
L 304.096323 185.980168 
L 305.767761 183.808336 
L 306.324907 183.619346 
L 306.882053 183.568144 
L 307.439199 183.2825 
L 308.553491 182.233919 
L 309.110637 182.087379 
L 309.667783 182.103129 
L 310.224929 181.956182 
L 310.782075 181.504711 
L 311.896367 180.046727 
L 313.010659 178.352519 
L 314.682097 175.265369 
L 316.910682 172.017615 
L 318.024974 170.783908 
L 318.58212 169.741271 
L 319.139266 168.300535 
L 320.810704 163.072943 
L 321.36785 162.566791 
L 321.924996 162.960811 
L 322.482142 163.508253 
L 323.039288 163.615299 
L 323.596434 163.085741 
L 325.267872 160.276477 
L 325.825018 159.371806 
L 326.382164 157.563391 
L 326.93931 154.519122 
L 327.496456 150.762327 
L 328.053602 147.833076 
L 328.610748 147.427465 
L 329.72504 151.153197 
L 330.282186 151.564336 
L 330.839332 149.925252 
L 332.510771 139.651115 
L 333.067917 137.815251 
L 333.625063 136.99297 
L 334.182209 136.435999 
L 334.739355 135.562855 
L 335.296501 134.212987 
L 336.967939 128.658031 
L 338.082231 126.203974 
L 338.639377 124.506728 
L 339.196523 123.247155 
L 339.753669 122.96326 
L 340.310815 122.544458 
L 340.867961 120.586592 
L 341.425107 116.698753 
L 341.982253 111.968244 
L 342.539399 109.219864 
L 343.096545 110.003261 
L 343.653691 111.820196 
L 344.210837 112.598213 
L 344.767983 112.901032 
L 345.325129 113.698517 
L 345.882275 113.998988 
L 346.439421 111.817555 
L 346.996567 105.787039 
L 347.553713 95.246441 
L 348.668006 62.93125 
L 349.225152 60.550153 
L 350.339444 84.350233 
L 350.89659 90.042563 
L 351.453736 90.325895 
L 352.010882 85.186669 
L 352.568028 74.624041 
L 353.125174 58.637961 
L 353.68232 37.228423 
L 354.436292 -1 
M 382.011639 -1 
L 382.653914 34.236283 
L 383.21106 58.914852 
L 383.768206 78.472195 
L 384.325352 93.001899 
L 384.882498 102.619762 
L 385.439644 107.455068 
L 385.99679 107.629983 
L 386.553936 103.229653 
L 387.111082 94.274996 
L 387.668228 80.71381 
L 388.225374 62.436176 
L 388.78252 39.304516 
L 389.543919 -1 
M 423.040343 -1 
L 423.88272 41.030461 
L 424.439866 61.569433 
L 424.997013 76.684949 
L 425.554159 86.377007 
L 426.111305 90.645609 
L 426.668451 89.490754 
L 427.225597 82.912446 
L 427.782743 70.910822 
L 428.339889 53.491705 
L 429.454181 10.895376 
L 430.011327 25.357102 
L 430.568473 48.838976 
L 431.125619 67.469203 
L 431.682765 80.693128 
L 432.239911 88.514568 
L 432.797057 91.041168 
L 433.354203 88.933571 
L 433.911349 85.554429 
L 434.468495 88.656346 
L 435.582787 105.836797 
L 436.139933 110.505867 
L 436.697079 112.250065 
L 437.254225 112.285736 
L 438.368517 111.338788 
L 438.925663 111.295828 
L 439.482809 110.909471 
L 440.039955 108.650129 
L 440.597102 103.208655 
L 441.711394 83.35446 
L 442.26854 82.000265 
L 443.382832 104.597542 
L 443.939978 112.201817 
L 444.497124 115.9833 
L 445.05427 116.635876 
L 445.611416 115.8339 
L 446.168562 116.356707 
L 446.725708 119.553371 
L 447.84 127.451379 
L 447.84 127.451379 
" clip-path="url(#p9ec819a4d1)" style="fill: none; stroke: #ec4067; stroke-width: 2.5; stroke-linecap: square"/>
   </g>
   <g id="matplotlib.axis_1">
    <g id="xtick_1">
     <g id="line2d_4">
      <defs>
       <path id="m7d3cd3d9af" d="M 0 0 
L 0 3.5 
" style="stroke: #c2c1c1; stroke-width: 0.8"/>
      </defs>
      <g>
       <use xlink:href="#m7d3cd3d9af" x="47.252" y="300.112" style="fill: #c2c1c1; stroke: #c2c1c1; stroke-width: 0.8"/>
      </g>
     </g>
     <g id="text_1">
      <!-- −180 -->
      <g style="fill: #191919" transform="translate(35.962937 314.612) scale(0.1 -0.1)">
       <defs>
        <path id="Roboto-Regular-2212" d="M 3134 2509 
L 3134 2034 
L 525 2034 
L 525 2509 
L 3134 2509 
z
" transform="scale(0.015625)"/>
        <path id="Roboto-Regular-31" d="M 2278 4575 
L 2278 0 
L 1700 0 
L 1700 3853 
L 534 3428 
L 534 3950 
L 2188 4575 
L 2278 4575 
z
" transform="scale(0.015625)"/>
        <path id="Roboto-Regular-38" d="M 3244 1231 
Q 3244 606 2826 271 
Q 2409 -63 1796 -63 
Q 1184 -63 767 271 
Q 350 606 350 1231 
Q 350 1613 554 1905 
Q 759 2197 1109 2347 
Q 806 2494 629 2762 
Q 453 3031 453 3366 
Q 453 3963 833 4288 
Q 1213 4613 1794 4613 
Q 2378 4613 2758 4288 
Q 3138 3963 3138 3366 
Q 3138 3028 2956 2761 
Q 2775 2494 2472 2347 
Q 2825 2197 3034 1903 
Q 3244 1609 3244 1231 
z
M 2559 3356 
Q 2559 3697 2346 3917 
Q 2134 4138 1793 4138 
Q 1453 4138 1243 3927 
Q 1034 3716 1034 3356 
Q 1034 3003 1243 2790 
Q 1453 2578 1797 2578 
Q 2138 2578 2348 2790 
Q 2559 3003 2559 3356 
z
M 2663 1244 
Q 2663 1625 2420 1865 
Q 2178 2106 1791 2106 
Q 1394 2106 1161 1865 
Q 928 1625 928 1244 
Q 928 850 1161 631 
Q 1394 413 1797 413 
Q 2200 413 2431 631 
Q 2663 850 2663 1244 
z
" transform="scale(0.015625)"/>
        <path id="Roboto-Regular-30" d="M 3234 1944 
Q 3234 825 2848 381 
Q 2463 -63 1800 -63 
Q 1156 -63 764 368 
Q 372 800 359 1872 
L 359 2638 
Q 359 3753 750 4183 
Q 1141 4613 1794 4613 
Q 2447 4613 2834 4195 
Q 3222 3778 3234 2709 
L 3234 1944 
z
M 2653 2734 
Q 2653 3503 2434 3822 
Q 2216 4141 1794 4141 
Q 1388 4141 1167 3831 
Q 947 3522 941 2778 
L 941 1850 
Q 941 1088 1164 750 
Q 1388 413 1800 413 
Q 2222 413 2436 745 
Q 2650 1078 2653 1825 
L 2653 2734 
z
" transform="scale(0.015625)"/>
       </defs>
       <use xlink:href="#Roboto-Regular-2212"/>
       <use xlink:href="#Roboto-Regular-31" x="57.177734"/>
       <use xlink:href="#Roboto-Regular-38" x="113.378906"/>
       <use xlink:href="#Roboto-Regular-30" x="169.580078"/>
      </g>
     </g>
    </g>
    <g id="xtick_2">
     <g id="line2d_5">
      <g>
       <use xlink:href="#m7d3cd3d9af" x="114.016667" y="300.112" style="fill: #c2c1c1; stroke: #c2c1c1; stroke-width: 0.8"/>
      </g>
     </g>
     <g id="text_2">
      <!-- −120 -->
      <g style="fill: #191919" transform="translate(102.727604 314.612) scale(0.1 -0.1)">
       <defs>
        <path id="Roboto-Regular-32" d="M 3359 475 
L 3359 0 
L 381 0 
L 381 416 
L 1925 2134 
Q 2306 2566 2439 2819 
Q 2572 3072 2572 3328 
Q 2572 3663 2364 3900 
Q 2156 4138 1778 4138 
Q 1322 4138 1097 3878 
Q 872 3619 872 3213 
L 294 3213 
Q 294 3788 672 4200 
Q 1050 4613 1778 4613 
Q 2422 4613 2786 4278 
Q 3150 3944 3150 3397 
Q 3150 2997 2903 2592 
Q 2656 2188 2297 1797 
L 1078 475 
L 3359 475 
z
" transform="scale(0.015625)"/>
       </defs>
       <use xlink:href="#Roboto-Regular-2212"/>
       <use xlink:href="#Roboto-Regular-31" x="57.177734"/>
       <use xlink:href="#Roboto-Regular-32" x="113.378906"/>
       <use xlink:href="#Roboto-Regular-30" x="169.580078"/>
      </g>
     </g>
    </g>
    <g id="xtick_3">
     <g id="line2d_6">
      <g>
       <use xlink:href="#m7d3cd3d9af" x="180.781333" y="300.112" style="fill: #c2c1c1; stroke: #c2c1c1; stroke-width: 0.8"/>
      </g>
     </g>
     <g id="text_3">
      <!-- −60 -->
      <g style="fill: #191919" transform="translate(172.302427 314.612) scale(0.1 -0.1)">
       <defs>
        <path id="Roboto-Regular-36" d="M 3291 1484 
Q 3291 838 2930 387 
Q 2569 -63 1878 -63 
Q 1388 -63 1063 198 
Q 738 459 577 861 
Q 416 1263 416 1684 
L 416 1956 
Q 416 2597 595 3194 
Q 775 3791 1247 4173 
Q 1719 4556 2597 4556 
L 2647 4556 
L 2647 4066 
Q 2041 4066 1705 3853 
Q 1369 3641 1205 3302 
Q 1041 2963 1006 2575 
Q 1369 2984 1984 2984 
Q 2438 2984 2727 2765 
Q 3016 2547 3153 2201 
Q 3291 1856 3291 1484 
z
M 997 1666 
Q 997 1059 1267 737 
Q 1538 416 1878 416 
Q 2278 416 2498 708 
Q 2719 1000 2719 1456 
Q 2719 1863 2516 2184 
Q 2313 2506 1891 2506 
Q 1588 2506 1341 2325 
Q 1094 2144 997 1884 
L 997 1666 
z
" transform="scale(0.015625)"/>
       </defs>
       <use xlink:href="#Roboto-Regular-2212"/>
       <use xlink:href="#Roboto-Regular-36" x="57.177734"/>
       <use xlink:href="#Roboto-Regular-30" x="113.378906"/>
      </g>
     </g>
    </g>
    <g id="xtick_4">
     <g id="line2d_7">
      <g>
       <use xlink:href="#m7d3cd3d9af" x="247.546" y="300.112" style="fill: #c2c1c1; stroke: #c2c1c1; stroke-width: 0.8"/>
      </g>
     </g>
     <g id="text_4">
      <!-- 0 -->
      <g style="fill: #191919" transform="translate(244.735844 314.612) scale(0.1 -0.1)">
       <use xlink:href="#Roboto-Regular-30"/>
      </g>
     </g>
    </g>
    <g id="xtick_5">
     <g id="line2d_8">
      <g>
       <use xlink:href="#m7d3cd3d9af" x="314.310667" y="300.112" style="fill: #c2c1c1; stroke: #c2c1c1; stroke-width: 0.8"/>
      </g>
     </g>
     <g id="text_5">
      <!-- 60 -->
      <g style="fill: #191919" transform="translate(308.690354 314.612) scale(0.1 -0.1)">
       <use xlink:href="#Roboto-Regular-36"/>
       <use xlink:href="#Roboto-Regular-30" x="56.201172"/>
      </g>
     </g>
    </g>
    <g id="xtick_6">
     <g id="line2d_9">
      <g>
       <use xlink:href="#m7d3cd3d9af" x="381.075333" y="300.112" style="fill: #c2c1c1; stroke: #c2c1c1; stroke-width: 0.8"/>
      </g>
     </g>
     <g id="text_6">
      <!-- 120 -->
      <g style="fill: #191919" transform="translate(372.644865 314.612) scale(0.1 -0.1)">
       <use xlink:href="#Roboto-Regular-31"/>
       <use xlink:href="#Roboto-Regular-32" x="56.201172"/>
       <use xlink:href="#Roboto-Regular-30" x="112.402344"/>
      </g>
     </g>
    </g>
    <g id="xtick_7">
     <g id="line2d_10">
      <g>
       <use xlink:href="#m7d3cd3d9af" x="447.84" y="300.112" style="fill: #c2c1c1; stroke: #c2c1c1; stroke-width: 0.8"/>
      </g>
     </g>
     <g id="text_7">
      <!-- 180 -->
      <g style="fill: #191919" transform="translate(439.409531 314.612) scale(0.1 -0.1)">
       <use xlink:href="#Roboto-Regular-31"/>
       <use xlink:href="#Roboto-Regular-38" x="56.201172"/>
       <use xlink:href="#Roboto-Regular-30" x="112.402344"/>
      </g>
     </g>
    </g>
    <g id="text_8">
     <!-- Cro66 OG1-CB1-CA1-C1 Dihedral [°] -->
     <g style="fill: #191919" transform="translate(149.871625 330.12325) scale(0.12 -0.12)">
      <defs>
       <path id="Roboto-Bold-43" d="M 3044 1516 
L 3981 1516 
Q 3934 822 3461 379 
Q 2988 -63 2150 -63 
Q 1275 -63 772 526 
Q 269 1116 269 2125 
L 269 2422 
Q 269 3431 784 4023 
Q 1300 4616 2159 4616 
Q 3013 4616 3466 4161 
Q 3919 3706 3984 3006 
L 3047 3006 
Q 3016 3413 2820 3630 
Q 2625 3847 2159 3847 
Q 1247 3847 1222 2500 
L 1222 2125 
Q 1222 1419 1436 1062 
Q 1650 706 2150 706 
Q 2594 706 2801 907 
Q 3009 1109 3044 1516 
z
" transform="scale(0.015625)"/>
       <path id="Roboto-Bold-72" d="M 1922 2563 
Q 1413 2563 1253 2216 
L 1253 0 
L 347 0 
L 347 3381 
L 1200 3381 
L 1228 2978 
Q 1494 3444 1981 3444 
Q 2153 3444 2259 3403 
L 2250 2538 
L 1922 2563 
z
" transform="scale(0.015625)"/>
       <path id="Roboto-Bold-6f" d="M 206 1722 
Q 206 2459 625 2951 
Q 1044 3444 1806 3444 
Q 2578 3444 2993 2951 
Q 3409 2459 3409 1722 
L 3409 1656 
Q 3409 919 2993 428 
Q 2578 -63 1813 -63 
Q 1053 -63 636 415 
Q 219 894 206 1616 
L 206 1722 
z
M 1113 1656 
Q 1113 1244 1270 955 
Q 1428 666 1813 666 
Q 2191 666 2348 953 
Q 2506 1241 2506 1722 
Q 2506 2125 2348 2420 
Q 2191 2716 1806 2716 
Q 1425 2716 1269 2422 
Q 1113 2128 1113 1656 
z
" transform="scale(0.015625)"/>
       <path id="Roboto-Bold-36" d="M 3450 1500 
Q 3450 838 3033 387 
Q 2616 -63 1916 -63 
Q 1188 -63 752 443 
Q 316 950 316 1750 
L 316 2097 
Q 316 3200 925 3898 
Q 1534 4597 2634 4597 
L 2763 4597 
L 2763 3853 
L 2672 3853 
Q 2050 3844 1688 3538 
Q 1313 3219 1238 2675 
Q 1603 3047 2156 3047 
Q 2800 3047 3125 2589 
Q 3450 2131 3450 1500 
z
M 1219 1631 
Q 1219 1150 1408 909 
Q 1597 669 1900 669 
Q 2194 669 2370 901 
Q 2547 1134 2547 1491 
Q 2547 1853 2370 2087 
Q 2194 2322 1881 2322 
Q 1641 2322 1469 2198 
Q 1297 2075 1219 1903 
L 1219 1631 
z
" transform="scale(0.015625)"/>
       <path id="Roboto-Bold-20" transform="scale(0.015625)"/>
       <path id="Roboto-Bold-4f" d="M 4147 2172 
Q 4147 1131 3608 534 
Q 3069 -63 2212 -63 
Q 1356 -63 812 534 
Q 269 1131 269 2172 
L 269 2375 
Q 269 3416 809 4014 
Q 1350 4613 2206 4613 
Q 3063 4613 3605 4014 
Q 4147 3416 4147 2375 
L 4147 2172 
z
M 3197 2381 
Q 3197 3094 2937 3466 
Q 2678 3838 2206 3838 
Q 1734 3838 1478 3470 
Q 1222 3103 1219 2397 
L 1219 2172 
Q 1219 1463 1478 1086 
Q 1738 709 2213 709 
Q 2684 709 2939 1081 
Q 3194 1453 3197 2156 
L 3197 2381 
z
" transform="scale(0.015625)"/>
       <path id="Roboto-Bold-47" d="M 4009 2391 
L 4009 575 
Q 3847 381 3433 159 
Q 3019 -63 2269 -63 
Q 1384 -63 839 510 
Q 294 1084 294 2138 
L 294 2409 
Q 294 3463 816 4039 
Q 1338 4616 2203 4616 
Q 3088 4616 3509 4191 
Q 3931 3766 4006 3103 
L 3094 3103 
Q 3041 3447 2847 3653 
Q 2653 3859 2228 3859 
Q 1306 3859 1250 2584 
L 1247 2138 
Q 1247 1419 1514 1056 
Q 1781 694 2319 694 
Q 2656 694 2825 770 
Q 2994 847 3069 919 
L 3069 1703 
L 2219 1703 
L 2219 2391 
L 4009 2391 
z
" transform="scale(0.015625)"/>
       <path id="Roboto-Bold-31" d="M 2503 4556 
L 2503 0 
L 1600 0 
L 1600 3484 
L 525 3150 
L 525 3881 
L 2406 4556 
L 2503 4556 
z
" transform="scale(0.015625)"/>
       <path id="Roboto-Bold-2d" d="M 2103 2316 
L 2103 1584 
L 347 1584 
L 347 2316 
L 2103 2316 
z
" transform="scale(0.015625)"/>
       <path id="Roboto-Bold-42" d="M 3788 1341 
Q 3788 684 3369 345 
Q 2950 6 2175 0 
L 406 0 
L 406 4550 
L 2003 4550 
Q 2794 4550 3241 4247 
Q 3688 3944 3688 3306 
Q 3688 2997 3531 2737 
Q 3375 2478 3038 2344 
Q 3438 2244 3613 1956 
Q 3788 1669 3788 1341 
z
M 1347 3791 
L 1347 2647 
L 2003 2647 
Q 2747 2647 2747 3209 
Q 2747 3778 2034 3791 
L 1347 3791 
z
M 2850 1350 
Q 2850 1963 2231 1984 
L 1347 1984 
L 1347 756 
L 2147 756 
Q 2506 756 2678 925 
Q 2850 1094 2850 1350 
z
" transform="scale(0.015625)"/>
       <path id="Roboto-Bold-41" d="M 25 0 
L 1719 4550 
L 2588 4550 
L 4291 0 
L 3291 0 
L 2978 938 
L 1331 938 
L 1019 0 
L 25 0 
z
M 1584 1697 
L 2725 1697 
L 2156 3406 
L 1584 1697 
z
" transform="scale(0.015625)"/>
       <path id="Roboto-Bold-44" d="M 406 0 
L 406 4550 
L 1809 4550 
Q 2728 4550 3308 3950 
Q 3888 3350 3888 2375 
L 3888 2172 
Q 3888 1197 3308 598 
Q 2728 0 1797 0 
L 406 0 
z
M 1347 3791 
L 1347 756 
L 1797 756 
Q 2350 756 2639 1115 
Q 2928 1475 2934 2144 
L 2934 2381 
Q 2934 3075 2661 3428 
Q 2388 3781 1838 3791 
L 1347 3791 
z
" transform="scale(0.015625)"/>
       <path id="Roboto-Bold-69" d="M 341 4256 
Q 341 4459 478 4592 
Q 616 4725 847 4725 
Q 1078 4725 1215 4592 
Q 1353 4459 1353 4256 
Q 1353 4056 1215 3923 
Q 1078 3791 847 3791 
Q 616 3791 478 3923 
Q 341 4056 341 4256 
z
M 1303 3381 
L 1303 0 
L 397 0 
L 397 3381 
L 1303 3381 
z
" transform="scale(0.015625)"/>
       <path id="Roboto-Bold-68" d="M 1803 2713 
Q 1409 2713 1231 2409 
L 1231 0 
L 328 0 
L 328 4800 
L 1231 4800 
L 1231 3016 
Q 1584 3444 2134 3444 
Q 2631 3444 2939 3150 
Q 3247 2856 3250 2147 
L 3250 0 
L 2344 0 
L 2344 2138 
Q 2344 2466 2203 2589 
Q 2063 2713 1803 2713 
z
" transform="scale(0.015625)"/>
       <path id="Roboto-Bold-65" d="M 3225 550 
Q 3063 319 2731 128 
Q 2400 -63 1906 -63 
Q 1119 -63 675 414 
Q 231 891 228 1566 
L 228 1697 
Q 228 2463 654 2953 
Q 1081 3444 1806 3444 
Q 2534 3444 2915 2987 
Q 3297 2531 3297 1781 
L 3297 1397 
L 1144 1397 
Q 1191 1069 1403 867 
Q 1616 666 1963 666 
Q 2478 666 2778 1044 
L 3225 550 
z
M 1800 2716 
Q 1513 2716 1356 2522 
Q 1200 2328 1153 2016 
L 2409 2016 
L 2409 2084 
Q 2403 2356 2258 2536 
Q 2113 2716 1800 2716 
z
" transform="scale(0.015625)"/>
       <path id="Roboto-Bold-64" d="M 2438 0 
L 2394 359 
Q 2059 -63 1528 -63 
Q 900 -63 553 425 
Q 206 913 206 1650 
L 206 1716 
Q 206 2488 553 2966 
Q 900 3444 1534 3444 
Q 2028 3444 2347 3078 
L 2347 4800 
L 3253 4800 
L 3253 0 
L 2438 0 
z
M 1113 1650 
Q 1113 1244 1256 958 
Q 1400 672 1756 672 
Q 2169 672 2347 1022 
L 2347 2363 
Q 2175 2713 1763 2713 
Q 1409 2713 1261 2425 
Q 1113 2138 1113 1650 
z
" transform="scale(0.015625)"/>
       <path id="Roboto-Bold-61" d="M 2306 0 
Q 2250 119 2216 303 
Q 1888 -63 1363 -63 
Q 878 -63 547 223 
Q 216 509 216 950 
Q 216 1481 609 1773 
Q 1003 2066 1775 2066 
L 2178 2066 
L 2178 2263 
Q 2178 2497 2058 2636 
Q 1938 2775 1678 2775 
Q 1194 2775 1194 2369 
L 291 2369 
Q 291 2809 681 3126 
Q 1072 3444 1728 3444 
Q 2313 3444 2698 3147 
Q 3084 2850 3084 2256 
L 3084 750 
Q 3091 300 3219 53 
L 3219 0 
L 2306 0 
z
M 1559 628 
Q 1788 628 1948 729 
Q 2109 831 2178 953 
L 2178 1541 
L 1809 1541 
Q 1450 1541 1284 1389 
Q 1119 1238 1119 1016 
Q 1119 847 1236 737 
Q 1353 628 1559 628 
z
" transform="scale(0.015625)"/>
       <path id="Roboto-Bold-6c" d="M 1303 4800 
L 1303 0 
L 397 0 
L 397 4800 
L 1303 4800 
z
" transform="scale(0.015625)"/>
       <path id="Roboto-Bold-5b" d="M 1728 5297 
L 1728 4600 
L 1281 4600 
L 1281 -366 
L 1728 -366 
L 1728 -1059 
L 375 -1059 
L 375 5297 
L 1728 5297 
z
" transform="scale(0.015625)"/>
       <path id="Roboto-Bold-b0" d="M 397 3750 
Q 397 4103 647 4358 
Q 897 4613 1247 4613 
Q 1591 4613 1836 4358 
Q 2081 4103 2081 3750 
Q 2081 3397 1836 3150 
Q 1591 2903 1247 2903 
Q 897 2903 647 3150 
Q 397 3397 397 3750 
z
M 853 3750 
Q 853 3584 970 3473 
Q 1088 3363 1247 3363 
Q 1406 3363 1515 3473 
Q 1625 3584 1625 3750 
Q 1625 3922 1515 4036 
Q 1406 4150 1247 4150 
Q 1088 4150 970 4036 
Q 853 3922 853 3750 
z
" transform="scale(0.015625)"/>
       <path id="Roboto-Bold-5d" d="M 41 4600 
L 41 5297 
L 1394 5297 
L 1394 -1059 
L 41 -1059 
L 41 -366 
L 491 -366 
L 491 4600 
L 41 4600 
z
" transform="scale(0.015625)"/>
      </defs>
      <use xlink:href="#Roboto-Bold-43"/>
      <use xlink:href="#Roboto-Bold-72" x="65.478516"/>
      <use xlink:href="#Roboto-Bold-6f" x="102.001953"/>
      <use xlink:href="#Roboto-Bold-36" x="158.544922"/>
      <use xlink:href="#Roboto-Bold-36" x="215.917969"/>
      <use xlink:href="#Roboto-Bold-20" x="273.291016"/>
      <use xlink:href="#Roboto-Bold-4f" x="298.193359"/>
      <use xlink:href="#Roboto-Bold-47" x="367.236328"/>
      <use xlink:href="#Roboto-Bold-31" x="435.351562"/>
      <use xlink:href="#Roboto-Bold-2d" x="492.724609"/>
      <use xlink:href="#Roboto-Bold-43" x="531.542969"/>
      <use xlink:href="#Roboto-Bold-42" x="597.021484"/>
      <use xlink:href="#Roboto-Bold-31" x="660.839844"/>
      <use xlink:href="#Roboto-Bold-2d" x="718.212891"/>
      <use xlink:href="#Roboto-Bold-43" x="757.03125"/>
      <use xlink:href="#Roboto-Bold-41" x="822.509766"/>
      <use xlink:href="#Roboto-Bold-31" x="889.84375"/>
      <use xlink:href="#Roboto-Bold-2d" x="947.216797"/>
      <use xlink:href="#Roboto-Bold-43" x="986.035156"/>
      <use xlink:href="#Roboto-Bold-31" x="1051.513672"/>
      <use xlink:href="#Roboto-Bold-20" x="1108.886719"/>
      <use xlink:href="#Roboto-Bold-44" x="1133.789062"/>
      <use xlink:href="#Roboto-Bold-69" x="1198.828125"/>
      <use xlink:href="#Roboto-Bold-68" x="1225.341797"/>
      <use xlink:href="#Roboto-Bold-65" x="1281.347656"/>
      <use xlink:href="#Roboto-Bold-64" x="1335.400391"/>
      <use xlink:href="#Roboto-Bold-72" x="1391.796875"/>
      <use xlink:href="#Roboto-Bold-61" x="1428.320312"/>
      <use xlink:href="#Roboto-Bold-6c" x="1481.933594"/>
      <use xlink:href="#Roboto-Bold-20" x="1508.447266"/>
      <use xlink:href="#Roboto-Bold-5b" x="1533.349609"/>
      <use xlink:href="#Roboto-Bold-b0" x="1561.181641"/>
      <use xlink:href="#Roboto-Bold-5d" x="1600.048828"/>
     </g>
    </g>
   </g>
   <g id="matplotlib.axis_2">
    <g id="ytick_1">
     <g id="line2d_11">
      <defs>
       <path id="m2a55061dca" d="M 0 0 
L -3.5 0 
" style="stroke: #c2c1c1; stroke-width: 0.8"/>
      </defs>
      <g>
       <use xlink:href="#m2a55061dca" x="47.252" y="300.112" style="fill: #c2c1c1; stroke: #c2c1c1; stroke-width: 0.8"/>
      </g>
     </g>
     <g id="text_9">
      <!-- −4 -->
      <g style="fill: #191919" transform="translate(28.9145 303.862) scale(0.1 -0.1)">
       <defs>
        <path id="Roboto-Regular-34" d="M 166 1397 
L 2203 4550 
L 2819 4550 
L 2819 1531 
L 3453 1531 
L 3453 1056 
L 2819 1056 
L 2819 0 
L 2241 0 
L 2241 1056 
L 166 1056 
L 166 1397 
z
M 822 1531 
L 2241 1531 
L 2241 3766 
L 2169 3638 
L 822 1531 
z
" transform="scale(0.015625)"/>
       </defs>
       <use xlink:href="#Roboto-Regular-2212"/>
       <use xlink:href="#Roboto-Regular-34" x="57.177734"/>
      </g>
     </g>
    </g>
    <g id="ytick_2">
     <g id="line2d_12">
      <g>
       <use xlink:href="#m2a55061dca" x="47.252" y="243.4376" style="fill: #c2c1c1; stroke: #c2c1c1; stroke-width: 0.8"/>
      </g>
     </g>
     <g id="text_10">
      <!-- −2 -->
      <g style="fill: #191919" transform="translate(28.9145 247.1876) scale(0.1 -0.1)">
       <use xlink:href="#Roboto-Regular-2212"/>
       <use xlink:href="#Roboto-Regular-32" x="57.177734"/>
      </g>
     </g>
    </g>
    <g id="ytick_3">
     <g id="line2d_13">
      <g>
       <use xlink:href="#m2a55061dca" x="47.252" y="186.7632" style="fill: #c2c1c1; stroke: #c2c1c1; stroke-width: 0.8"/>
      </g>
     </g>
     <g id="text_11">
      <!-- 0 -->
      <g style="fill: #191919" transform="translate(34.631687 190.5132) scale(0.1 -0.1)">
       <use xlink:href="#Roboto-Regular-30"/>
      </g>
     </g>
    </g>
    <g id="ytick_4">
     <g id="line2d_14">
      <g>
       <use xlink:href="#m2a55061dca" x="47.252" y="130.0888" style="fill: #c2c1c1; stroke: #c2c1c1; stroke-width: 0.8"/>
      </g>
     </g>
     <g id="text_12">
      <!-- 2 -->
      <g style="fill: #191919" transform="translate(34.631687 133.8388) scale(0.1 -0.1)">
       <use xlink:href="#Roboto-Regular-32"/>
      </g>
     </g>
    </g>
    <g id="ytick_5">
     <g id="line2d_15">
      <g>
       <use xlink:href="#m2a55061dca" x="47.252" y="73.4144" style="fill: #c2c1c1; stroke: #c2c1c1; stroke-width: 0.8"/>
      </g>
     </g>
     <g id="text_13">
      <!-- 4 -->
      <g style="fill: #191919" transform="translate(34.631687 77.1644) scale(0.1 -0.1)">
       <use xlink:href="#Roboto-Regular-34"/>
      </g>
     </g>
    </g>
    <g id="ytick_6">
     <g id="line2d_16">
      <g>
       <use xlink:href="#m2a55061dca" x="47.252" y="16.74" style="fill: #c2c1c1; stroke: #c2c1c1; stroke-width: 0.8"/>
      </g>
     </g>
     <g id="text_14">
      <!-- 6 -->
      <g style="fill: #191919" transform="translate(34.631687 20.49) scale(0.1 -0.1)">
       <use xlink:href="#Roboto-Regular-36"/>
      </g>
     </g>
    </g>
    <g id="text_15">
     <!-- PMF [kcal/mol] -->
     <g style="fill: #191919" transform="translate(22.477 199.245687) rotate(-90) scale(0.12 -0.12)">
      <defs>
       <path id="Roboto-Bold-50" d="M 1347 1606 
L 1347 0 
L 406 0 
L 406 4550 
L 2184 4550 
Q 2991 4550 3442 4125 
Q 3894 3700 3894 3047 
Q 3894 2388 3442 1997 
Q 2991 1606 2184 1606 
L 1347 1606 
z
M 1347 3791 
L 1347 2363 
L 2184 2363 
Q 2588 2363 2766 2553 
Q 2944 2744 2944 3041 
Q 2944 3338 2766 3564 
Q 2588 3791 2184 3791 
L 1347 3791 
z
" transform="scale(0.015625)"/>
       <path id="Roboto-Bold-4d" d="M 2800 1250 
L 3966 4550 
L 5194 4550 
L 5194 0 
L 4253 0 
L 4253 1244 
L 4347 3381 
L 3122 0 
L 2478 0 
L 1253 3381 
L 1347 1244 
L 1347 0 
L 406 0 
L 406 4550 
L 1634 4550 
L 2800 1250 
z
" transform="scale(0.015625)"/>
       <path id="Roboto-Bold-46" d="M 406 0 
L 406 4550 
L 3372 4550 
L 3372 3791 
L 1347 3791 
L 1347 2616 
L 3147 2616 
L 3147 1859 
L 1347 1859 
L 1347 0 
L 406 0 
z
" transform="scale(0.015625)"/>
       <path id="Roboto-Bold-6b" d="M 2444 0 
L 1575 1356 
L 1253 1034 
L 1253 0 
L 350 0 
L 350 4803 
L 1253 4803 
L 1253 2144 
L 1428 2369 
L 2291 3381 
L 3375 3381 
L 2156 1975 
L 3484 0 
L 2444 0 
z
" transform="scale(0.015625)"/>
       <path id="Roboto-Bold-63" d="M 1753 666 
Q 2000 666 2159 802 
Q 2319 938 2322 1169 
L 3172 1169 
Q 3166 631 2761 284 
Q 2356 -63 1769 -63 
Q 984 -63 595 432 
Q 206 928 206 1647 
L 206 1734 
Q 206 2450 593 2947 
Q 981 3444 1766 3444 
Q 2388 3444 2777 3087 
Q 3166 2731 3172 2122 
L 2322 2122 
Q 2319 2369 2172 2542 
Q 2025 2716 1750 2716 
Q 1356 2716 1234 2420 
Q 1113 2125 1113 1647 
Q 1113 1256 1233 961 
Q 1353 666 1753 666 
z
" transform="scale(0.015625)"/>
       <path id="Roboto-Bold-2f" d="M 2306 4550 
L 631 -391 
L -41 -391 
L 1634 4550 
L 2306 4550 
z
" transform="scale(0.015625)"/>
       <path id="Roboto-Bold-6d" d="M 1806 2713 
Q 1431 2713 1253 2394 
L 1253 0 
L 347 0 
L 347 3381 
L 1197 3381 
L 1228 3009 
Q 1581 3444 2197 3444 
Q 2850 3444 3094 2928 
Q 3441 3444 4109 3444 
Q 4597 3444 4894 3156 
Q 5191 2869 5194 2169 
L 5194 0 
L 4288 0 
L 4288 2156 
Q 4288 2494 4152 2603 
Q 4016 2713 3781 2713 
Q 3381 2713 3222 2334 
L 3222 0 
L 2319 0 
L 2319 2150 
Q 2319 2484 2181 2598 
Q 2044 2713 1806 2713 
z
" transform="scale(0.015625)"/>
      </defs>
      <use xlink:href="#Roboto-Bold-50"/>
      <use xlink:href="#Roboto-Bold-4d" x="64.550781"/>
      <use xlink:href="#Roboto-Bold-46" x="152.148438"/>
      <use xlink:href="#Roboto-Bold-20" x="206.982422"/>
      <use xlink:href="#Roboto-Bold-5b" x="231.884766"/>
      <use xlink:href="#Roboto-Bold-6b" x="259.716797"/>
      <use xlink:href="#Roboto-Bold-63" x="313.134766"/>
      <use xlink:href="#Roboto-Bold-61" x="365.332031"/>
      <use xlink:href="#Roboto-Bold-6c" x="418.945312"/>
      <use xlink:href="#Roboto-Bold-2f" x="445.458984"/>
      <use xlink:href="#Roboto-Bold-6d" x="482.861328"/>
      <use xlink:href="#Roboto-Bold-6f" x="569.433594"/>
      <use xlink:href="#Roboto-Bold-6c" x="625.976562"/>
      <use xlink:href="#Roboto-Bold-5d" x="652.490234"/>
     </g>
    </g>
   </g>
   <g id="line2d_17">
    <path d="M 47.252 151.975212 
L 48.366292 153.086565 
L 48.923438 153.922132 
L 50.594876 157.073076 
L 51.152022 157.555219 
L 51.709168 157.582448 
L 53.380606 156.521943 
L 54.494898 156.56478 
L 55.052045 156.329761 
L 56.166337 155.623785 
L 56.723483 155.500183 
L 57.280629 155.583391 
L 58.952067 156.218976 
L 60.066359 156.402636 
L 60.623505 156.814331 
L 61.180651 157.394806 
L 61.737797 157.687682 
L 62.294943 157.324544 
L 63.966381 154.891936 
L 65.080673 153.518518 
L 66.752111 150.570916 
L 68.423549 147.219259 
L 69.537841 144.61343 
L 70.094987 143.83933 
L 70.652134 143.750998 
L 71.766426 144.196873 
L 73.437864 144.222285 
L 73.99501 143.866647 
L 74.552156 142.990369 
L 75.109302 141.658985 
L 75.666448 139.844728 
L 76.223594 137.235152 
L 77.337886 130.431636 
L 77.895032 128.46363 
L 78.452178 127.962922 
L 79.009324 127.939661 
L 81.237908 127.412994 
L 81.795054 127.485498 
L 82.3522 127.120835 
L 82.909346 125.77326 
L 83.466492 123.252525 
L 85.695076 110.12496 
L 86.252223 108.298881 
L 86.809369 107.553057 
L 87.366515 107.310724 
L 87.923661 106.768018 
L 90.152245 102.563041 
L 90.709391 100.879436 
L 91.266537 98.246676 
L 92.380829 90.122438 
L 92.937975 87.964489 
L 93.495121 90.111547 
L 94.052267 94.527301 
L 94.609413 97.919336 
L 95.166559 98.900066 
L 96.280851 96.855439 
L 96.837997 97.302536 
L 97.395143 99.137987 
L 97.952289 100.37891 
L 98.509435 99.222069 
L 99.066581 95.386221 
L 99.623727 90.665936 
L 100.180873 87.648978 
L 101.295166 84.525275 
L 101.852312 84.34408 
L 102.966604 89.445102 
L 103.52375 89.349232 
L 104.080896 85.693933 
L 105.195188 74.511308 
L 105.752334 73.465899 
L 106.30948 73.17216 
L 106.866626 70.073466 
L 107.423772 64.742816 
L 107.980918 62.943042 
L 109.09521 72.155917 
L 109.652356 73.68289 
L 110.209502 73.05747 
L 110.766648 73.222307 
L 111.323794 75.187468 
L 112.438086 80.442622 
L 112.995232 83.972792 
L 113.552378 86.693742 
L 114.109524 87.306904 
L 115.223816 85.121677 
L 115.780962 84.726443 
L 116.338108 84.838483 
L 116.895255 85.307609 
L 117.452401 86.634587 
L 118.009547 89.275786 
L 118.566693 92.55324 
L 119.123839 94.785414 
L 119.680985 94.495913 
L 120.238131 91.188771 
L 121.352423 81.185604 
L 121.909569 79.657956 
L 122.466715 81.756954 
L 124.138153 97.684191 
L 124.695299 100.034819 
L 125.252445 100.492926 
L 125.809591 99.74309 
L 126.366737 98.226371 
L 126.923883 96.218637 
L 127.481029 94.791588 
L 128.038175 95.9771 
L 130.266759 111.279474 
L 130.823905 112.649634 
L 131.381051 112.532172 
L 131.938197 111.170315 
L 132.495344 109.487294 
L 133.05249 109.086452 
L 133.609636 111.075272 
L 134.723928 118.138828 
L 135.281074 120.757146 
L 135.83822 122.328165 
L 136.395366 123.02938 
L 137.509658 123.375773 
L 138.066804 123.911173 
L 138.62395 125.136969 
L 139.181096 127.085973 
L 140.295388 132.523749 
L 141.40968 137.723202 
L 143.081118 142.651122 
L 144.752556 149.558049 
L 146.98114 155.580535 
L 148.652579 161.385909 
L 149.766871 165.626376 
L 151.995455 174.983971 
L 153.666893 182.577269 
L 157.009769 194.823145 
L 159.795499 203.690166 
L 161.466937 208.816871 
L 163.138376 213.732715 
L 165.924106 220.790589 
L 167.038398 223.378745 
L 168.709836 226.542561 
L 170.381274 229.114546 
L 172.609858 232.250044 
L 173.72415 233.37263 
L 174.838442 234.181045 
L 175.952734 234.649436 
L 177.067026 234.778134 
L 178.181318 234.675213 
L 179.295611 234.278437 
L 180.409903 233.637742 
L 181.524195 232.709083 
L 182.638487 231.509735 
L 183.752779 230.077498 
L 185.424217 227.463669 
L 186.538509 225.412081 
L 187.652801 223.032996 
L 189.881385 217.500636 
L 191.552823 212.750791 
L 193.781408 205.579863 
L 195.452846 199.216325 
L 203.25289 166.938784 
L 206.595766 151.759817 
L 208.267204 142.631426 
L 208.82435 140.209017 
L 209.938643 136.770879 
L 210.495789 135.13349 
L 211.052935 132.850791 
L 211.610081 129.642726 
L 213.838665 114.280023 
L 214.952957 106.53973 
L 215.510103 104.344868 
L 216.067249 105.605941 
L 216.624395 108.400576 
L 217.181541 109.909644 
L 217.738687 108.705136 
L 218.852979 100.519667 
L 219.410125 98.797282 
L 219.967271 99.508208 
L 220.524417 99.418277 
L 221.081563 97.100344 
L 221.638709 93.971087 
L 222.195855 92.765137 
L 223.310147 94.455683 
L 223.867293 94.08958 
L 224.424439 92.520086 
L 224.981586 89.901219 
L 225.538732 86.279196 
L 226.653024 77.846923 
L 227.21017 76.036361 
L 227.767316 76.300425 
L 228.324462 77.688564 
L 228.881608 81.318796 
L 229.438754 86.809078 
L 229.9959 91.015631 
L 230.553046 92.046699 
L 231.110192 90.31523 
L 231.667338 87.814889 
L 232.78163 84.036985 
L 233.895922 78.399178 
L 234.453068 78.598735 
L 235.010214 81.650178 
L 236.681652 94.885152 
L 237.238798 96.185387 
L 238.35309 94.987379 
L 238.910236 95.766641 
L 239.467382 97.320961 
L 240.024529 98.036819 
L 240.581675 96.779568 
L 241.138821 93.175985 
L 243.367405 71.015895 
L 243.924551 63.828624 
L 244.481697 61.189278 
L 245.038843 66.965423 
L 246.153135 83.544162 
L 247.824573 118.075876 
L 248.381719 124.652147 
L 248.938865 126.565702 
L 249.496011 123.709786 
L 250.053157 116.416162 
L 251.724595 85.489237 
L 252.281741 79.658811 
L 252.838887 79.409302 
L 253.953179 90.213245 
L 254.510325 93.479616 
L 255.067471 93.994776 
L 256.181764 91.796409 
L 256.73891 92.272616 
L 257.296056 93.26454 
L 257.853202 93.883768 
L 258.410348 94.778923 
L 258.967494 96.87951 
L 260.638932 106.369429 
L 261.196078 107.331606 
L 261.753224 106.022774 
L 263.424662 96.476312 
L 263.981808 95.480674 
L 264.538954 96.57768 
L 265.653246 100.250128 
L 266.210392 101.658918 
L 266.767538 103.946685 
L 267.88183 109.612582 
L 268.438976 111.120879 
L 268.996122 112.132108 
L 269.553268 114.224421 
L 270.110414 118.330398 
L 271.224707 127.644493 
L 271.781853 130.433042 
L 272.338999 131.997378 
L 272.896145 133.130795 
L 273.453291 134.567441 
L 275.681875 142.161892 
L 276.239021 142.975987 
L 276.796167 143.582919 
L 277.353313 144.420273 
L 277.910459 145.670748 
L 279.024751 149.053768 
L 281.253335 156.570124 
L 282.367627 159.874548 
L 284.039065 165.141677 
L 285.153357 168.149117 
L 287.381942 173.139324 
L 288.496234 176.199157 
L 289.610526 178.421806 
L 290.167672 179.196548 
L 291.281964 180.101665 
L 291.83911 180.560271 
L 292.396256 181.277845 
L 294.62484 184.986472 
L 295.181986 185.439751 
L 297.967716 186.910977 
L 298.524862 187.012153 
L 299.639154 186.920288 
L 300.753446 186.754775 
L 301.867739 186.851357 
L 302.424885 186.94008 
L 302.982031 186.901407 
L 303.539177 186.660291 
L 304.653469 185.974863 
L 305.767761 185.56248 
L 306.882053 184.782875 
L 307.439199 184.243256 
L 307.996345 183.537266 
L 309.667783 180.873345 
L 310.224929 180.344413 
L 311.339221 179.837585 
L 311.896367 179.556839 
L 312.453513 179.052572 
L 313.567805 177.420826 
L 314.682097 175.159621 
L 315.796389 172.103046 
L 316.910682 167.602797 
L 317.467828 165.328862 
L 318.58212 162.036268 
L 319.696412 159.15023 
L 320.253558 158.361503 
L 320.810704 158.033732 
L 321.36785 157.378196 
L 321.924996 155.769723 
L 323.039288 150.900134 
L 323.596434 149.036384 
L 324.710726 145.988288 
L 325.825018 142.680065 
L 326.382164 142.120781 
L 326.93931 142.242071 
L 327.496456 142.233037 
L 328.053602 141.536607 
L 329.72504 137.566578 
L 330.282186 137.0195 
L 331.396478 136.400354 
L 331.953624 135.756416 
L 333.067917 133.925662 
L 333.625063 133.442956 
L 334.182209 133.20929 
L 334.739355 132.738526 
L 335.296501 131.994583 
L 335.853647 131.661106 
L 336.410793 132.447778 
L 337.525085 136.160858 
L 338.082231 137.397165 
L 338.639377 137.597319 
L 339.196523 136.971501 
L 339.753669 136.061345 
L 340.310815 135.432285 
L 340.867961 135.447717 
L 341.425107 136.116972 
L 341.982253 137.030878 
L 342.539399 137.675673 
L 344.210837 138.33181 
L 344.767983 138.463906 
L 345.882275 138.214737 
L 346.439421 138.451734 
L 346.996567 139.025523 
L 347.553713 139.402285 
L 348.11086 139.080903 
L 348.668006 137.991265 
L 349.225152 136.549177 
L 349.782298 135.447454 
L 350.339444 135.108886 
L 351.453736 135.475318 
L 352.568028 135.454797 
L 353.125174 135.94888 
L 355.910904 140.667979 
L 356.46805 141.023744 
L 358.139488 141.262216 
L 358.696634 141.416783 
L 359.25378 141.186478 
L 359.810926 140.43151 
L 362.596656 135.417155 
L 363.710949 133.793876 
L 364.268095 133.28572 
L 364.825241 133.120575 
L 365.382387 133.123912 
L 365.939533 132.792974 
L 366.496679 131.603891 
L 367.053825 129.297042 
L 368.168117 123.376909 
L 368.725263 122.237049 
L 369.282409 122.926337 
L 369.839555 124.356334 
L 370.396701 125.361341 
L 370.953847 125.102679 
L 371.510993 123.159649 
L 372.625285 116.482582 
L 373.182431 114.283106 
L 373.739577 113.850736 
L 374.296723 115.177852 
L 374.853869 117.423586 
L 375.411015 119.116232 
L 375.968161 119.514786 
L 376.525307 119.153095 
L 377.639599 118.814265 
L 378.196745 117.97379 
L 378.753892 115.805737 
L 379.311038 112.609537 
L 379.868184 110.181073 
L 380.42533 110.789416 
L 381.539622 116.711738 
L 382.096768 118.030714 
L 382.653914 117.790065 
L 383.21106 116.65851 
L 384.882498 112.119566 
L 385.439644 111.212192 
L 385.99679 111.315413 
L 386.553936 112.577151 
L 387.668228 116.3582 
L 388.225374 117.669199 
L 388.78252 118.437283 
L 389.339666 118.838185 
L 389.896812 118.921484 
L 390.453958 118.320451 
L 391.011104 116.401616 
L 391.56825 112.787865 
L 392.682542 102.872743 
L 393.239688 100.556787 
L 393.796834 101.667525 
L 394.353981 103.481794 
L 394.911127 103.618495 
L 395.468273 102.282054 
L 396.025419 101.948943 
L 396.582565 104.567001 
L 397.139711 108.614472 
L 397.696857 111.794294 
L 398.254003 113.3766 
L 398.811149 113.803441 
L 399.368295 113.874566 
L 399.925441 114.163679 
L 401.596879 116.139618 
L 402.154025 115.825719 
L 402.711171 114.317023 
L 403.825463 108.539139 
L 404.382609 107.862788 
L 404.939755 110.929085 
L 405.496901 115.218546 
L 406.054047 118.0032 
L 406.611193 118.655857 
L 407.168339 117.948928 
L 408.839777 114.642749 
L 409.396924 114.580932 
L 410.511216 117.543535 
L 411.068362 118.028062 
L 411.625508 117.28143 
L 412.182654 116.262436 
L 412.7398 115.893594 
L 413.854092 116.222279 
L 414.968384 115.638001 
L 415.52553 115.822481 
L 416.639822 117.103598 
L 417.196968 118.013953 
L 417.754114 120.098032 
L 418.868406 125.796519 
L 419.425552 127.079896 
L 419.982698 127.02862 
L 420.539844 126.368564 
L 421.09699 125.932065 
L 422.211282 126.093946 
L 422.768428 125.901748 
L 423.325574 125.259232 
L 424.439866 123.496648 
L 424.997013 122.79787 
L 425.554159 122.299619 
L 426.111305 122.249933 
L 426.668451 122.943747 
L 427.225597 124.279715 
L 429.454181 130.544596 
L 430.568473 131.727078 
L 431.125619 132.759956 
L 432.797057 137.699565 
L 433.354203 138.06208 
L 433.911349 137.067539 
L 434.468495 135.224212 
L 435.025641 133.774388 
L 435.582787 133.823008 
L 436.139933 135.2692 
L 437.254225 138.837014 
L 438.925663 143.621125 
L 440.039955 146.996668 
L 440.597102 148.105372 
L 441.154248 148.602237 
L 441.711394 148.49323 
L 442.825686 147.565559 
L 443.382832 147.788149 
L 443.939978 148.767824 
L 444.497124 150.040169 
L 445.05427 151.020183 
L 445.611416 151.461986 
L 447.282854 151.650341 
L 447.84 151.975212 
L 447.84 151.975212 
" clip-path="url(#p9ec819a4d1)" style="fill: none; stroke: #f99752; stroke-width: 2.5; stroke-linecap: square"/>
   </g>
   <g id="patch_3">
    <path d="M 47.252 300.112 
L 47.252 16.74 
" style="fill: none; stroke: #c2c1c1; stroke-width: 0.8; stroke-linejoin: miter; stroke-linecap: square"/>
   </g>
   <g id="patch_4">
    <path d="M 447.84 300.112 
L 447.84 16.74 
" style="fill: none; stroke: #c2c1c1; stroke-width: 0.8; stroke-linejoin: miter; stroke-linecap: square"/>
   </g>
   <g id="patch_5">
    <path d="M 47.252 300.112 
L 447.84 300.112 
" style="fill: none; stroke: #c2c1c1; stroke-width: 0.8; stroke-linejoin: miter; stroke-linecap: square"/>
   </g>
   <g id="patch_6">
    <path d="M 47.252 16.74 
L 447.84 16.74 
" style="fill: none; stroke: #c2c1c1; stroke-width: 0.8; stroke-linejoin: miter; stroke-linecap: square"/>
   </g>
   <g id="legend_1">
    <g id="line2d_18">
     <path d="M 58.052 246.856375 
L 70.052 246.856375 
L 82.052 246.856375 
" style="fill: none; stroke: #1e2e79; stroke-width: 2.5; stroke-linecap: square"/>
    </g>
    <g id="text_16">
     <!-- Reduced -->
     <g transform="translate(91.652 251.056375) scale(0.12 -0.12)">
      <defs>
       <path id="Roboto-Regular-52" d="M 3188 0 
L 2200 1844 
L 1131 1844 
L 1131 0 
L 528 0 
L 528 4550 
L 2034 4550 
Q 2800 4550 3214 4200 
Q 3628 3850 3628 3184 
Q 3628 2759 3398 2442 
Q 3169 2125 2763 1969 
L 3831 38 
L 3831 0 
L 3188 0 
z
M 1131 4056 
L 1131 2334 
L 2053 2334 
Q 2538 2334 2783 2582 
Q 3028 2831 3028 3184 
Q 3028 3578 2792 3817 
Q 2556 4056 2034 4056 
L 1131 4056 
z
" transform="scale(0.015625)"/>
       <path id="Roboto-Regular-65" d="M 3116 591 
Q 2950 341 2647 139 
Q 2344 -63 1844 -63 
Q 1138 -63 714 396 
Q 291 856 291 1572 
L 291 1703 
Q 291 2256 502 2645 
Q 713 3034 1050 3239 
Q 1388 3444 1769 3444 
Q 2494 3444 2826 2970 
Q 3159 2497 3159 1788 
L 3159 1528 
L 872 1528 
Q 884 1063 1148 736 
Q 1413 409 1875 409 
Q 2181 409 2393 534 
Q 2606 659 2766 869 
L 3116 591 
z
M 1769 2969 
Q 1425 2969 1187 2719 
Q 950 2469 891 2000 
L 2581 2000 
L 2581 2044 
Q 2559 2381 2386 2675 
Q 2213 2969 1769 2969 
z
" transform="scale(0.015625)"/>
       <path id="Roboto-Regular-64" d="M 2622 0 
L 2594 363 
Q 2247 -63 1628 -63 
Q 1034 -63 668 418 
Q 303 900 297 1628 
L 297 1719 
Q 297 2494 664 2969 
Q 1031 3444 1634 3444 
Q 2231 3444 2572 3044 
L 2572 4800 
L 3153 4800 
L 3153 0 
L 2622 0 
z
M 878 1653 
Q 878 1150 1090 789 
Q 1303 428 1772 428 
Q 2309 428 2572 919 
L 2572 2475 
Q 2313 2956 1778 2956 
Q 1306 2956 1092 2589 
Q 878 2222 878 1719 
L 878 1653 
z
" transform="scale(0.015625)"/>
       <path id="Roboto-Regular-75" d="M 2538 0 
L 2525 334 
Q 2194 -63 1538 -63 
Q 1041 -63 734 231 
Q 428 525 428 1200 
L 428 3381 
L 1006 3381 
L 1006 1194 
Q 1006 738 1198 583 
Q 1391 428 1628 428 
Q 2281 428 2509 919 
L 2509 3381 
L 3091 3381 
L 3091 0 
L 2538 0 
z
" transform="scale(0.015625)"/>
       <path id="Roboto-Regular-63" d="M 1794 413 
Q 2103 413 2336 597 
Q 2569 781 2591 1069 
L 3141 1069 
Q 3119 616 2725 276 
Q 2331 -63 1794 -63 
Q 1031 -63 661 440 
Q 291 944 291 1625 
L 291 1756 
Q 291 2438 661 2941 
Q 1031 3444 1794 3444 
Q 2388 3444 2753 3092 
Q 3119 2741 3141 2219 
L 2591 2219 
Q 2569 2531 2355 2750 
Q 2141 2969 1794 2969 
Q 1438 2969 1236 2787 
Q 1034 2606 951 2328 
Q 869 2050 869 1756 
L 869 1625 
Q 869 1328 950 1050 
Q 1031 772 1232 592 
Q 1434 413 1794 413 
z
" transform="scale(0.015625)"/>
      </defs>
      <use xlink:href="#Roboto-Regular-52"/>
      <use xlink:href="#Roboto-Regular-65" x="61.621094"/>
      <use xlink:href="#Roboto-Regular-64" x="114.648438"/>
      <use xlink:href="#Roboto-Regular-75" x="171.044922"/>
      <use xlink:href="#Roboto-Regular-63" x="226.171875"/>
      <use xlink:href="#Roboto-Regular-65" x="278.515625"/>
      <use xlink:href="#Roboto-Regular-64" x="331.542969"/>
     </g>
    </g>
    <g id="line2d_19">
     <path d="M 58.052 264.293875 
L 70.052 264.293875 
L 82.052 264.293875 
" style="fill: none; stroke: #ec4067; stroke-width: 2.5; stroke-linecap: square"/>
    </g>
    <g id="text_17">
     <!-- Oxidized -->
     <g transform="translate(91.652 268.493875) scale(0.12 -0.12)">
      <defs>
       <path id="Roboto-Regular-4f" d="M 4031 2131 
Q 4031 1106 3534 521 
Q 3038 -63 2206 -63 
Q 1397 -63 884 521 
Q 372 1106 372 2131 
L 372 2419 
Q 372 3441 881 4027 
Q 1391 4613 2200 4613 
Q 3025 4613 3523 4036 
Q 4022 3459 4031 2456 
L 4031 2131 
z
M 3434 2425 
Q 3434 3238 3109 3669 
Q 2784 4100 2200 4100 
Q 1641 4100 1305 3669 
Q 969 3238 969 2425 
L 969 2131 
Q 969 1313 1308 880 
Q 1647 447 2206 447 
Q 2794 447 3114 880 
Q 3434 1313 3434 2131 
L 3434 2425 
z
" transform="scale(0.015625)"/>
       <path id="Roboto-Regular-78" d="M 831 3381 
L 1572 2150 
L 2322 3381 
L 3000 3381 
L 1894 1713 
L 3034 0 
L 2366 0 
L 1584 1269 
L 803 0 
L 131 0 
L 1269 1713 
L 166 3381 
L 831 3381 
z
" transform="scale(0.015625)"/>
       <path id="Roboto-Regular-69" d="M 444 4278 
Q 444 4419 530 4516 
Q 616 4613 784 4613 
Q 950 4613 1039 4516 
Q 1128 4419 1128 4278 
Q 1128 4144 1039 4048 
Q 950 3953 784 3953 
Q 616 3953 530 4048 
Q 444 4144 444 4278 
z
M 1069 3381 
L 1069 0 
L 488 0 
L 488 3381 
L 1069 3381 
z
" transform="scale(0.015625)"/>
       <path id="Roboto-Regular-7a" d="M 303 2903 
L 303 3381 
L 2869 3381 
L 2869 2972 
L 988 475 
L 2959 475 
L 2959 0 
L 278 0 
L 278 425 
L 2141 2903 
L 303 2903 
z
" transform="scale(0.015625)"/>
      </defs>
      <use xlink:href="#Roboto-Regular-4f"/>
      <use xlink:href="#Roboto-Regular-78" x="68.798828"/>
      <use xlink:href="#Roboto-Regular-69" x="118.408203"/>
      <use xlink:href="#Roboto-Regular-64" x="142.724609"/>
      <use xlink:href="#Roboto-Regular-69" x="199.121094"/>
      <use xlink:href="#Roboto-Regular-7a" x="223.4375"/>
      <use xlink:href="#Roboto-Regular-65" x="273.046875"/>
      <use xlink:href="#Roboto-Regular-64" x="326.074219"/>
     </g>
    </g>
    <g id="line2d_20">
     <path d="M 58.052 282.357625 
L 70.052 282.357625 
L 82.052 282.357625 
" style="fill: none; stroke: #f99752; stroke-width: 2.5; stroke-linecap: square"/>
    </g>
    <g id="text_18">
     <!-- Cu(I) -->
     <g transform="translate(91.652 286.557625) scale(0.12 -0.12)">
      <defs>
       <path id="Roboto-Regular-43" d="M 3275 1447 
L 3875 1447 
Q 3806 800 3387 368 
Q 2969 -63 2150 -63 
Q 1356 -63 870 504 
Q 384 1072 375 2013 
L 375 2500 
Q 375 3456 867 4034 
Q 1359 4613 2203 4613 
Q 2975 4613 3390 4188 
Q 3806 3763 3875 3091 
L 3275 3091 
Q 3206 3566 2968 3842 
Q 2731 4119 2203 4119 
Q 1600 4119 1287 3675 
Q 975 3231 975 2506 
L 975 2047 
Q 975 1375 1259 901 
Q 1544 428 2150 428 
Q 2725 428 2961 697 
Q 3197 966 3275 1447 
z
" transform="scale(0.015625)"/>
       <path id="Roboto-Regular-28" d="M 419 1850 
Q 419 2756 678 3434 
Q 938 4113 1294 4541 
Q 1650 4969 1947 5134 
L 2069 4753 
Q 1700 4475 1348 3761 
Q 997 3047 997 1813 
Q 997 625 1348 -97 
Q 1700 -819 2069 -1119 
L 1947 -1469 
Q 1650 -1306 1294 -878 
Q 938 -450 678 226 
Q 419 903 419 1850 
z
" transform="scale(0.015625)"/>
       <path id="Roboto-Regular-49" d="M 1175 4550 
L 1175 0 
L 572 0 
L 572 4550 
L 1175 4550 
z
" transform="scale(0.015625)"/>
       <path id="Roboto-Regular-29" d="M 1772 1819 
Q 1772 906 1512 228 
Q 1253 -450 895 -878 
Q 538 -1306 244 -1469 
L 122 -1119 
Q 488 -841 841 -109 
Q 1194 622 1194 1856 
Q 1194 2647 1019 3236 
Q 844 3825 594 4212 
Q 344 4600 122 4781 
L 244 5134 
Q 538 4969 895 4541 
Q 1253 4113 1512 3436 
Q 1772 2759 1772 1819 
z
" transform="scale(0.015625)"/>
      </defs>
      <use xlink:href="#Roboto-Regular-43"/>
      <use xlink:href="#Roboto-Regular-75" x="65.087891"/>
      <use xlink:href="#Roboto-Regular-28" x="120.214844"/>
      <use xlink:href="#Roboto-Regular-49" x="154.443359"/>
      <use xlink:href="#Roboto-Regular-29" x="181.640625"/>
     </g>
    </g>
   </g>
  </g>
 </g>
 <defs>
  <clipPath id="p9ec819a4d1">
   <rect x="47.252" y="16.74" width="400.588" height="283.372"/>
  </clipPath>
 </defs>
</svg>
