<?xml version="1.0" encoding="UTF-8" standalone="no"?>
<!-- Created with Inkscape (http://www.inkscape.org/) -->

<svg
   width="64mm"
   height="64mm"
   viewBox="0 0 64 64"
   version="1.1"
   id="svg1"
   inkscape:version="1.3 (1:1.3+202307231459+0e150ed6c4)"
   sodipodi:docname="harbor-logo-square.svg"
   xml:space="preserve"
   inkscape:export-filename="harbor-logo-square.png"
   inkscape:export-xdpi="600"
   inkscape:export-ydpi="600"
   xmlns:inkscape="http://www.inkscape.org/namespaces/inkscape"
   xmlns:sodipodi="http://sodipodi.sourceforge.net/DTD/sodipodi-0.dtd"
   xmlns="http://www.w3.org/2000/svg"
   xmlns:svg="http://www.w3.org/2000/svg"><sodipodi:namedview
     id="namedview1"
     pagecolor="#ffffff"
     bordercolor="#000000"
     borderopacity="0.25"
     inkscape:showpageshadow="2"
     inkscape:pageopacity="0.0"
     inkscape:pagecheckerboard="0"
     inkscape:deskcolor="#d1d1d1"
     inkscape:document-units="mm"
     inkscape:zoom="0.63501022"
     inkscape:cx="65.353279"
     inkscape:cy="391.33228"
     inkscape:window-width="1864"
     inkscape:window-height="1129"
     inkscape:window-x="56"
     inkscape:window-y="34"
     inkscape:window-maximized="1"
     inkscape:current-layer="layer2"
     showguides="true" /><defs
     id="defs1" /><g
     inkscape:groupmode="layer"
     id="layer2"
     inkscape:label="whale"
     style="display:inline"><g
       id="g1"
       transform="translate(-0.1417386,-0.95752856)"><path
         style="opacity:1;fill:none;stroke:#017ab9;stroke-width:3.77953;stroke-linecap:round;stroke-linejoin:round;stroke-dasharray:none;stroke-opacity:1"
         d="m 100.14934,142.86156 c 4.85819,14.80084 9.41698,29.76634 16.67159,43.24926 4.95004,6.74304 6.08088,11.56107 15.56921,20.59155 3.5483,3.5483 6.61687,3.72972 7.86766,3.00758 4.02462,-2.63633 4.12272,-6.25629 4.12272,-9.13572 0,-6.46084 -1.17463,-11.09496 -2.78783,-16.74079 -0.81696,-3.04893 -7.77889,-16.78426 -11.75786,-24.66304"
         id="path2"
         transform="matrix(0.22999807,0,0,0.22999807,-7.7676639,2.3482788)"
         sodipodi:nodetypes="ccccccc" /><path
         style="opacity:1;fill:none;stroke:#017ab9;stroke-width:3.77953;stroke-linecap:round;stroke-linejoin:round;stroke-dasharray:none;stroke-opacity:1"
         d="m 142.77974,183.4236 22.78739,-6.4457 c 7.18461,-1.92511 14.06546,-6.41224 23.71909,-12.0829 6.48745,-3.74553 12.74781,-9.16333 20.5064,-15.24722 7.72385,-7.63249 14.60407,-15.57518 22.12361,-23.64231 4.29365,-5.57025 11.66151,-16.1035 12.66243,-17.10442 2.03362,-2.03362 6.49791,-5.25083 8.54524,-5.79941 3.66328,-0.98157 19.08313,-2.08233 20.90592,-2.65251 7.70842,-2.106697 15.05303,-4.35822 20.32744,-8.405841 3.95383,-2.923826 6.81909,-5.367539 11.41521,-9.963661 2.30158,-2.3696 1.0189,-5.153218 -0.49803,-4.746758 -7.75105,2.076889 -21.95351,3.341807 -22.88908,3.341807 -4.64382,-0.01318 -12.52003,-0.470494 -18.51867,-1.596726 -6.14813,-1.647388 -10.58413,-4.219071 -15.83195,-7.43817 -3.65044,-2.107585 -7.19421,-7.041664 -10.82058,-11.703086 -5.14626,-5.555573 -7.53234,-5.036316 -7.53234,0.780929 -0.3188,14.992631 12.45431,24.707641 9.90808,34.210296 -0.49723,1.855687 -11.86462,16.22232 -23.83522,20.80228 -3.43291,0.91985 -10.76548,3.01231 -17.70486,1.15291 -21.30325,-5.70819 -28.92377,-9.82698 -72.5735,-12.95112 -25.712629,-2.61318 -55.236551,-3.48093 -60.605467,-3.37895 -5.627669,0 -11.340816,-0.662916 -16.940357,-0.662916 -8.269959,0 -7.908751,5.277376 -7.908751,6.836356 0,15.70668 6.353878,31.62294 9.471569,38.45692 5.548409,11.91535 15.028963,22.68663 16.741576,24.39924 1.993541,1.99354 16.677004,12.17267 26.054321,14.68531 9.069959,2.43029 13.980819,2.14768 22.396339,2.06754"
         id="path3"
         transform="matrix(0.22999807,0,0,0.22999807,-7.7676639,2.3482788)"
         sodipodi:nodetypes="ccccccccccccccccccccccccccc" /><path
         style="opacity:1;fill:none;stroke:#017ab9;stroke-width:3.77953;stroke-linecap:round;stroke-linejoin:round;stroke-dasharray:none;stroke-opacity:1"
         d="m 49.23112,143.63793 c 20.629586,8.46335 44.75898,17.56677 56.29859,16.54306"
         id="path4"
         transform="matrix(0.22999807,0,0,0.22999807,-7.7676639,2.3482788)"
         sodipodi:nodetypes="cc" /><path
         style="opacity:1;fill:none;stroke:#017ab9;stroke-width:3.77953;stroke-linecap:round;stroke-linejoin:round;stroke-dasharray:none;stroke-opacity:1"
         d="m 41.251487,119.55173 c 14.650552,6.94281 27.194581,10.52251 39.15255,13.16655"
         id="path5"
         transform="matrix(0.22999807,0,0,0.22999807,-7.7676639,2.3482788)"
         sodipodi:nodetypes="cc" /><path
         style="opacity:1;fill:none;stroke:#017ab9;stroke-width:3.77953;stroke-linecap:round;stroke-linejoin:round;stroke-dasharray:none;stroke-opacity:1"
         d="m 130.61692,160.92925 c 12.85287,-0.70229 25.70574,-1.0721 38.55861,-2.10948 13.64632,-1.41453 27.01412,-2.91698 36.09991,-5.77115"
         id="path6"
         transform="matrix(0.22999807,0,0,0.22999807,-7.7676639,2.3482788)"
         sodipodi:nodetypes="ccc" /><ellipse
         style="fill:#017ab9;fill-opacity:1;stroke:none;stroke-width:7.67622;stroke-linecap:round;stroke-linejoin:round;stroke-opacity:1"
         id="path1"
         cx="72.306213"
         cy="108.36432"
         transform="matrix(0.15240139,0,0,0.22685982,1.103677,4.2233341)"
         rx="4.1788964"
         ry="2.5827" /></g></g><g
     inkscape:groupmode="layer"
     id="layer3"
     inkscape:label="name"
     style="stroke:#000000;stroke-width:0.9;stroke-dasharray:none;stroke-opacity:1" /></svg>
