<?xml version="1.0" encoding="utf-8" standalone="no"?>
<!DOCTYPE svg PUBLIC "-//W3C//DTD SVG 1.1//EN"
  "http://www.w3.org/Graphics/SVG/1.1/DTD/svg11.dtd">
<svg xmlns:xlink="http://www.w3.org/1999/xlink" width="324pt" height="216pt" viewBox="0 0 324 216" xmlns="http://www.w3.org/2000/svg" version="1.1">
 <metadata>
  <rdf:RDF xmlns:dc="http://purl.org/dc/elements/1.1/" xmlns:cc="http://creativecommons.org/ns#" xmlns:rdf="http://www.w3.org/1999/02/22-rdf-syntax-ns#">
   <cc:Work>
    <dc:type rdf:resource="http://purl.org/dc/dcmitype/StillImage"/>
    <dc:date>2025-05-29T18:22:50.878450</dc:date>
    <dc:format>image/svg+xml</dc:format>
    <dc:creator>
     <cc:Agent>
      <dc:title>Matplotlib v3.10.1, https://matplotlib.org/</dc:title>
     </cc:Agent>
    </dc:creator>
   </cc:Work>
  </rdf:RDF>
 </metadata>
 <defs>
  <style type="text/css">*{stroke-linejoin: round; stroke-linecap: butt}</style>
 </defs>
 <g id="figure_1">
  <g id="patch_1">
   <path d="M 0 216 
L 324 216 
L 324 0 
L 0 0 
z
" style="fill: #ffffff"/>
  </g>
  <g id="axes_1">
   <g id="patch_2">
    <path d="M 20.056 180.304 
L 163.388 180.304 
L 163.388 8.64 
L 20.056 8.64 
z
" style="fill: #ffffff"/>
   </g>
   <g id="matplotlib.axis_1">
    <g id="xtick_1">
     <g id="line2d_1">
      <defs>
       <path id="m491925600c" d="M 0 0 
L 0 3.5 
" style="stroke: #c2c1c1; stroke-width: 0.8"/>
      </defs>
      <g>
       <use xlink:href="#m491925600c" x="40.532" y="180.304" style="fill: #c2c1c1; stroke: #c2c1c1; stroke-width: 0.8"/>
      </g>
     </g>
     <g id="text_1">
      <!-- 2 -->
      <g style="fill: #191919" transform="translate(38.307625 193.03025) scale(0.08 -0.08)">
       <defs>
        <path id="ArialMT-32" d="M 3222 541 
L 3222 0 
L 194 0 
Q 188 203 259 391 
Q 375 700 629 1000 
Q 884 1300 1366 1694 
Q 2113 2306 2375 2664 
Q 2638 3022 2638 3341 
Q 2638 3675 2398 3904 
Q 2159 4134 1775 4134 
Q 1369 4134 1125 3890 
Q 881 3647 878 3216 
L 300 3275 
Q 359 3922 746 4261 
Q 1134 4600 1788 4600 
Q 2447 4600 2831 4234 
Q 3216 3869 3216 3328 
Q 3216 3053 3103 2787 
Q 2991 2522 2730 2228 
Q 2469 1934 1863 1422 
Q 1356 997 1212 845 
Q 1069 694 975 541 
L 3222 541 
z
" transform="scale(0.015625)"/>
       </defs>
       <use xlink:href="#ArialMT-32"/>
      </g>
     </g>
    </g>
    <g id="xtick_2">
     <g id="line2d_2">
      <g>
       <use xlink:href="#m491925600c" x="81.484" y="180.304" style="fill: #c2c1c1; stroke: #c2c1c1; stroke-width: 0.8"/>
      </g>
     </g>
     <g id="text_2">
      <!-- 4 -->
      <g style="fill: #191919" transform="translate(79.259625 193.03025) scale(0.08 -0.08)">
       <defs>
        <path id="ArialMT-34" d="M 2069 0 
L 2069 1097 
L 81 1097 
L 81 1613 
L 2172 4581 
L 2631 4581 
L 2631 1613 
L 3250 1613 
L 3250 1097 
L 2631 1097 
L 2631 0 
L 2069 0 
z
M 2069 1613 
L 2069 3678 
L 634 1613 
L 2069 1613 
z
" transform="scale(0.015625)"/>
       </defs>
       <use xlink:href="#ArialMT-34"/>
      </g>
     </g>
    </g>
    <g id="xtick_3">
     <g id="line2d_3">
      <g>
       <use xlink:href="#m491925600c" x="122.436" y="180.304" style="fill: #c2c1c1; stroke: #c2c1c1; stroke-width: 0.8"/>
      </g>
     </g>
     <g id="text_3">
      <!-- 6 -->
      <g style="fill: #191919" transform="translate(120.211625 193.03025) scale(0.08 -0.08)">
       <defs>
        <path id="ArialMT-36" d="M 3184 3459 
L 2625 3416 
Q 2550 3747 2413 3897 
Q 2184 4138 1850 4138 
Q 1581 4138 1378 3988 
Q 1113 3794 959 3422 
Q 806 3050 800 2363 
Q 1003 2672 1297 2822 
Q 1591 2972 1913 2972 
Q 2475 2972 2870 2558 
Q 3266 2144 3266 1488 
Q 3266 1056 3080 686 
Q 2894 316 2569 119 
Q 2244 -78 1831 -78 
Q 1128 -78 684 439 
Q 241 956 241 2144 
Q 241 3472 731 4075 
Q 1159 4600 1884 4600 
Q 2425 4600 2770 4297 
Q 3116 3994 3184 3459 
z
M 888 1484 
Q 888 1194 1011 928 
Q 1134 663 1356 523 
Q 1578 384 1822 384 
Q 2178 384 2434 671 
Q 2691 959 2691 1453 
Q 2691 1928 2437 2201 
Q 2184 2475 1800 2475 
Q 1419 2475 1153 2201 
Q 888 1928 888 1484 
z
" transform="scale(0.015625)"/>
       </defs>
       <use xlink:href="#ArialMT-36"/>
      </g>
     </g>
    </g>
    <g id="text_4">
     <!-- Thr64 O – Cro66 N1 [Å] -->
     <g style="fill: #191919" transform="translate(41.766375 205.7615) scale(0.08 -0.08)">
      <defs>
       <path id="Arial-Black-54" d="M 147 4581 
L 4450 4581 
L 4450 3450 
L 3006 3450 
L 3006 0 
L 1591 0 
L 1591 3450 
L 147 3450 
L 147 4581 
z
" transform="scale(0.015625)"/>
       <path id="Arial-Black-68" d="M 384 4581 
L 1656 4581 
L 1656 2894 
Q 1916 3163 2172 3278 
Q 2428 3394 2778 3394 
Q 3297 3394 3595 3078 
Q 3894 2763 3894 2109 
L 3894 0 
L 2616 0 
L 2616 1825 
Q 2616 2138 2500 2267 
Q 2384 2397 2175 2397 
Q 1944 2397 1800 2222 
Q 1656 2047 1656 1594 
L 1656 0 
L 384 0 
L 384 4581 
z
" transform="scale(0.015625)"/>
       <path id="Arial-Black-72" d="M 397 3319 
L 1588 3319 
L 1588 2775 
Q 1759 3128 1942 3261 
Q 2125 3394 2394 3394 
Q 2675 3394 3009 3219 
L 2616 2313 
Q 2391 2406 2259 2406 
Q 2009 2406 1872 2200 
Q 1675 1909 1675 1113 
L 1675 0 
L 397 0 
L 397 3319 
z
" transform="scale(0.015625)"/>
       <path id="Arial-Black-36" d="M 3947 3550 
L 2681 3394 
Q 2631 3659 2514 3768 
Q 2397 3878 2225 3878 
Q 1916 3878 1744 3566 
Q 1619 3341 1559 2603 
Q 1788 2834 2028 2945 
Q 2269 3056 2584 3056 
Q 3197 3056 3620 2618 
Q 4044 2181 4044 1509 
Q 4044 1056 3830 681 
Q 3616 306 3236 114 
Q 2856 -78 2284 -78 
Q 1597 -78 1181 156 
Q 766 391 517 905 
Q 269 1419 269 2266 
Q 269 3506 791 4082 
Q 1313 4659 2238 4659 
Q 2784 4659 3101 4532 
Q 3419 4406 3628 4162 
Q 3838 3919 3947 3550 
z
M 1603 1509 
Q 1603 1138 1790 927 
Q 1978 716 2250 716 
Q 2500 716 2669 906 
Q 2838 1097 2838 1475 
Q 2838 1863 2663 2066 
Q 2488 2269 2228 2269 
Q 1963 2269 1783 2072 
Q 1603 1875 1603 1509 
z
" transform="scale(0.015625)"/>
       <path id="Arial-Black-34" d="M 2450 856 
L 131 856 
L 131 1903 
L 2450 4659 
L 3559 4659 
L 3559 1844 
L 4134 1844 
L 4134 856 
L 3559 856 
L 3559 0 
L 2450 0 
L 2450 856 
z
M 2450 1844 
L 2450 3284 
L 1225 1844 
L 2450 1844 
z
" transform="scale(0.015625)"/>
       <path id="Arial-Black-20" transform="scale(0.015625)"/>
       <path id="Arial-Black-4f" d="M 291 2288 
Q 291 3409 916 4034 
Q 1541 4659 2656 4659 
Q 3800 4659 4419 4045 
Q 5038 3431 5038 2325 
Q 5038 1522 4767 1008 
Q 4497 494 3986 208 
Q 3475 -78 2713 -78 
Q 1938 -78 1430 169 
Q 922 416 606 950 
Q 291 1484 291 2288 
z
M 1706 2281 
Q 1706 1588 1964 1284 
Q 2222 981 2666 981 
Q 3122 981 3372 1278 
Q 3622 1575 3622 2344 
Q 3622 2991 3361 3289 
Q 3100 3588 2653 3588 
Q 2225 3588 1965 3284 
Q 1706 2981 1706 2281 
z
" transform="scale(0.015625)"/>
       <path id="Arial-Black-2013" d="M -38 2019 
L 3238 2019 
L 3238 1325 
L -38 1325 
L -38 2019 
z
" transform="scale(0.015625)"/>
       <path id="Arial-Black-43" d="M 3519 1872 
L 4759 1497 
Q 4634 975 4365 625 
Q 4097 275 3698 97 
Q 3300 -81 2684 -81 
Q 1938 -81 1464 136 
Q 991 353 647 900 
Q 303 1447 303 2300 
Q 303 3438 908 4048 
Q 1513 4659 2619 4659 
Q 3484 4659 3979 4309 
Q 4475 3959 4716 3234 
L 3466 2956 
Q 3400 3166 3328 3263 
Q 3209 3425 3037 3512 
Q 2866 3600 2653 3600 
Q 2172 3600 1916 3213 
Q 1722 2925 1722 2309 
Q 1722 1547 1953 1264 
Q 2184 981 2603 981 
Q 3009 981 3217 1209 
Q 3425 1438 3519 1872 
z
" transform="scale(0.015625)"/>
       <path id="Arial-Black-6f" d="M 228 1650 
Q 228 2409 740 2901 
Q 1253 3394 2125 3394 
Q 3122 3394 3631 2816 
Q 4041 2350 4041 1669 
Q 4041 903 3533 414 
Q 3025 -75 2128 -75 
Q 1328 -75 834 331 
Q 228 834 228 1650 
z
M 1503 1653 
Q 1503 1209 1683 996 
Q 1863 784 2134 784 
Q 2409 784 2586 993 
Q 2763 1203 2763 1666 
Q 2763 2097 2584 2308 
Q 2406 2519 2144 2519 
Q 1866 2519 1684 2305 
Q 1503 2091 1503 1653 
z
" transform="scale(0.015625)"/>
       <path id="Arial-Black-4e" d="M 478 4581 
L 1800 4581 
L 3525 2047 
L 3525 4581 
L 4859 4581 
L 4859 0 
L 3525 0 
L 1809 2516 
L 1809 0 
L 478 0 
L 478 4581 
z
" transform="scale(0.015625)"/>
       <path id="Arial-Black-31" d="M 3147 4659 
L 3147 0 
L 1859 0 
L 1859 3053 
Q 1547 2816 1255 2669 
Q 963 2522 522 2388 
L 522 3431 
Q 1172 3641 1531 3934 
Q 1891 4228 2094 4659 
L 3147 4659 
z
" transform="scale(0.015625)"/>
       <path id="Arial-Black-5b" d="M 422 4581 
L 2344 4581 
L 2344 3594 
L 1584 3594 
L 1584 -284 
L 2344 -284 
L 2344 -1272 
L 422 -1272 
L 422 4581 
z
" transform="scale(0.015625)"/>
       <path id="Arial-Black-c5" d="M 1834 4581 
Q 1734 4756 1734 4959 
Q 1734 5269 1954 5491 
Q 2175 5713 2484 5713 
Q 2797 5713 3017 5492 
Q 3238 5272 3238 4959 
Q 3238 4756 3134 4581 
L 3272 4581 
L 4994 0 
L 3513 0 
L 3272 756 
L 1691 756 
L 1453 0 
L 6 0 
L 1728 4581 
L 1834 4581 
z
M 2163 4963 
Q 2163 4825 2256 4731 
Q 2350 4638 2484 4638 
Q 2616 4638 2709 4731 
Q 2803 4825 2803 4959 
Q 2803 5094 2709 5187 
Q 2616 5281 2484 5281 
Q 2350 5281 2256 5187 
Q 2163 5094 2163 4963 
z
M 2953 1803 
L 2484 3319 
L 2019 1803 
L 2953 1803 
z
" transform="scale(0.015625)"/>
       <path id="Arial-Black-5d" d="M 2069 4581 
L 147 4581 
L 147 3594 
L 906 3594 
L 906 -284 
L 147 -284 
L 147 -1272 
L 2069 -1272 
L 2069 4581 
z
" transform="scale(0.015625)"/>
      </defs>
      <use xlink:href="#Arial-Black-54"/>
      <use xlink:href="#Arial-Black-68" transform="translate(74.841797 0)"/>
      <use xlink:href="#Arial-Black-72" transform="translate(141.541016 0)"/>
      <use xlink:href="#Arial-Black-36" transform="translate(185.925781 0)"/>
      <use xlink:href="#Arial-Black-34" transform="translate(252.625 0)"/>
      <use xlink:href="#Arial-Black-20" transform="translate(319.324219 0)"/>
      <use xlink:href="#Arial-Black-4f" transform="translate(352.673828 0)"/>
      <use xlink:href="#Arial-Black-20" transform="translate(435.974609 0)"/>
      <use xlink:href="#Arial-Black-2013" transform="translate(469.324219 0)"/>
      <use xlink:href="#Arial-Black-20" transform="translate(519.324219 0)"/>
      <use xlink:href="#Arial-Black-43" transform="translate(552.673828 0)"/>
      <use xlink:href="#Arial-Black-72" transform="translate(630.457031 0)"/>
      <use xlink:href="#Arial-Black-6f" transform="translate(676.466797 0)"/>
      <use xlink:href="#Arial-Black-36" transform="translate(743.166016 0)"/>
      <use xlink:href="#Arial-Black-36" transform="translate(809.865234 0)"/>
      <use xlink:href="#Arial-Black-20" transform="translate(876.564453 0)"/>
      <use xlink:href="#Arial-Black-4e" transform="translate(909.914062 0)"/>
      <use xlink:href="#Arial-Black-31" transform="translate(993.214844 0)"/>
      <use xlink:href="#Arial-Black-20" transform="translate(1059.914062 0)"/>
      <use xlink:href="#Arial-Black-5b" transform="translate(1093.263672 0)"/>
      <use xlink:href="#Arial-Black-c5" transform="translate(1132.179688 0)"/>
      <use xlink:href="#Arial-Black-5d" transform="translate(1209.962891 0)"/>
     </g>
    </g>
   </g>
   <g id="matplotlib.axis_2">
    <g id="text_5">
     <!-- Probability Density -->
     <g style="fill: #191919" transform="translate(14.37225 135.90325) rotate(-90) scale(0.08 -0.08)">
      <defs>
       <path id="Arial-Black-50" d="M 463 4581 
L 2816 4581 
Q 3584 4581 3967 4215 
Q 4350 3850 4350 3175 
Q 4350 2481 3933 2090 
Q 3516 1700 2659 1700 
L 1884 1700 
L 1884 0 
L 463 0 
L 463 4581 
z
M 1884 2628 
L 2231 2628 
Q 2641 2628 2806 2770 
Q 2972 2913 2972 3134 
Q 2972 3350 2828 3500 
Q 2684 3650 2288 3650 
L 1884 3650 
L 1884 2628 
z
" transform="scale(0.015625)"/>
       <path id="Arial-Black-62" d="M 391 4581 
L 1675 4581 
L 1675 2994 
Q 1866 3194 2108 3294 
Q 2350 3394 2644 3394 
Q 3250 3394 3647 2958 
Q 4044 2522 4044 1706 
Q 4044 1163 3862 748 
Q 3681 334 3361 129 
Q 3041 -75 2650 -75 
Q 2316 -75 2038 69 
Q 1828 181 1581 491 
L 1581 0 
L 391 0 
L 391 4581 
z
M 1666 1669 
Q 1666 1241 1827 1048 
Q 1988 856 2234 856 
Q 2463 856 2617 1045 
Q 2772 1234 2772 1681 
Q 2772 2075 2620 2259 
Q 2469 2444 2253 2444 
Q 1994 2444 1830 2251 
Q 1666 2059 1666 1669 
z
" transform="scale(0.015625)"/>
       <path id="Arial-Black-61" d="M 1544 2244 
L 328 2372 
Q 397 2691 526 2873 
Q 656 3056 900 3191 
Q 1075 3288 1381 3341 
Q 1688 3394 2044 3394 
Q 2616 3394 2962 3330 
Q 3309 3266 3541 3063 
Q 3703 2922 3797 2664 
Q 3891 2406 3891 2172 
L 3891 706 
Q 3891 472 3920 339 
Q 3950 206 4050 0 
L 2856 0 
Q 2784 128 2762 195 
Q 2741 263 2719 406 
Q 2469 166 2222 63 
Q 1884 -75 1438 -75 
Q 844 -75 536 200 
Q 228 475 228 878 
Q 228 1256 450 1500 
Q 672 1744 1269 1863 
Q 1984 2006 2196 2064 
Q 2409 2122 2647 2216 
Q 2647 2450 2550 2544 
Q 2453 2638 2209 2638 
Q 1897 2638 1741 2538 
Q 1619 2459 1544 2244 
z
M 2647 1575 
Q 2384 1481 2100 1409 
Q 1713 1306 1609 1206 
Q 1503 1103 1503 972 
Q 1503 822 1608 726 
Q 1713 631 1916 631 
Q 2128 631 2311 734 
Q 2494 838 2570 986 
Q 2647 1134 2647 1372 
L 2647 1575 
z
" transform="scale(0.015625)"/>
       <path id="Arial-Black-69" d="M 431 4581 
L 1703 4581 
L 1703 3716 
L 431 3716 
L 431 4581 
z
M 431 3319 
L 1703 3319 
L 1703 0 
L 431 0 
L 431 3319 
z
" transform="scale(0.015625)"/>
       <path id="Arial-Black-6c" d="M 428 4581 
L 1703 4581 
L 1703 0 
L 428 0 
L 428 4581 
z
" transform="scale(0.015625)"/>
       <path id="Arial-Black-74" d="M 1919 4581 
L 1919 3319 
L 2619 3319 
L 2619 2391 
L 1919 2391 
L 1919 1213 
Q 1919 1000 1959 931 
Q 2022 825 2178 825 
Q 2319 825 2572 906 
L 2666 28 
Q 2194 -75 1784 -75 
Q 1309 -75 1084 47 
Q 859 169 751 417 
Q 644 666 644 1222 
L 644 2391 
L 175 2391 
L 175 3319 
L 644 3319 
L 644 3928 
L 1919 4581 
z
" transform="scale(0.015625)"/>
       <path id="Arial-Black-79" d="M 16 3319 
L 1359 3319 
L 2044 1109 
L 2678 3319 
L 3931 3319 
L 2616 -228 
Q 2391 -834 2156 -1047 
Q 1825 -1347 1147 -1347 
Q 872 -1347 297 -1272 
L 197 -384 
Q 472 -472 809 -472 
Q 1034 -472 1173 -369 
Q 1313 -266 1409 0 
L 16 3319 
z
" transform="scale(0.015625)"/>
       <path id="Arial-Black-44" d="M 488 4581 
L 2591 4581 
Q 3213 4581 3595 4412 
Q 3978 4244 4228 3928 
Q 4478 3613 4590 3194 
Q 4703 2775 4703 2306 
Q 4703 1572 4536 1167 
Q 4369 763 4072 489 
Q 3775 216 3434 125 
Q 2969 0 2591 0 
L 488 0 
L 488 4581 
z
M 1903 3544 
L 1903 1041 
L 2250 1041 
Q 2694 1041 2881 1139 
Q 3069 1238 3175 1483 
Q 3281 1728 3281 2278 
Q 3281 3006 3043 3275 
Q 2806 3544 2256 3544 
L 1903 3544 
z
" transform="scale(0.015625)"/>
       <path id="Arial-Black-65" d="M 4069 1344 
L 1519 1344 
Q 1553 1038 1684 888 
Q 1869 672 2166 672 
Q 2353 672 2522 766 
Q 2625 825 2744 975 
L 3997 859 
Q 3709 359 3303 142 
Q 2897 -75 2138 -75 
Q 1478 -75 1100 111 
Q 722 297 473 701 
Q 225 1106 225 1653 
Q 225 2431 723 2912 
Q 1222 3394 2100 3394 
Q 2813 3394 3225 3178 
Q 3638 2963 3853 2553 
Q 4069 2144 4069 1488 
L 4069 1344 
z
M 2775 1953 
Q 2738 2322 2577 2481 
Q 2416 2641 2153 2641 
Q 1850 2641 1669 2400 
Q 1553 2250 1522 1953 
L 2775 1953 
z
" transform="scale(0.015625)"/>
       <path id="Arial-Black-6e" d="M 384 3319 
L 1569 3319 
L 1569 2778 
Q 1834 3109 2106 3251 
Q 2378 3394 2769 3394 
Q 3297 3394 3595 3080 
Q 3894 2766 3894 2109 
L 3894 0 
L 2616 0 
L 2616 1825 
Q 2616 2138 2500 2267 
Q 2384 2397 2175 2397 
Q 1944 2397 1800 2222 
Q 1656 2047 1656 1594 
L 1656 0 
L 384 0 
L 384 3319 
z
" transform="scale(0.015625)"/>
       <path id="Arial-Black-73" d="M 159 919 
L 1422 1038 
Q 1500 813 1640 716 
Q 1781 619 2016 619 
Q 2272 619 2413 728 
Q 2522 809 2522 931 
Q 2522 1069 2378 1144 
Q 2275 1197 1831 1275 
Q 1169 1391 911 1489 
Q 653 1588 476 1822 
Q 300 2056 300 2356 
Q 300 2684 490 2921 
Q 681 3159 1015 3276 
Q 1350 3394 1913 3394 
Q 2506 3394 2789 3303 
Q 3072 3213 3261 3022 
Q 3450 2831 3575 2506 
L 2369 2388 
Q 2322 2547 2213 2622 
Q 2063 2722 1850 2722 
Q 1634 2722 1536 2645 
Q 1438 2569 1438 2459 
Q 1438 2338 1563 2275 
Q 1688 2213 2106 2163 
Q 2741 2091 3050 1962 
Q 3359 1834 3523 1596 
Q 3688 1359 3688 1075 
Q 3688 788 3514 516 
Q 3341 244 2967 83 
Q 2594 -78 1950 -78 
Q 1041 -78 655 181 
Q 269 441 159 919 
z
" transform="scale(0.015625)"/>
      </defs>
      <use xlink:href="#Arial-Black-50"/>
      <use xlink:href="#Arial-Black-72" transform="translate(72.216797 0)"/>
      <use xlink:href="#Arial-Black-6f" transform="translate(118.226562 0)"/>
      <use xlink:href="#Arial-Black-62" transform="translate(184.925781 0)"/>
      <use xlink:href="#Arial-Black-61" transform="translate(251.625 0)"/>
      <use xlink:href="#Arial-Black-62" transform="translate(319.324219 0)"/>
      <use xlink:href="#Arial-Black-69" transform="translate(386.023438 0)"/>
      <use xlink:href="#Arial-Black-6c" transform="translate(419.324219 0)"/>
      <use xlink:href="#Arial-Black-69" transform="translate(452.625 0)"/>
      <use xlink:href="#Arial-Black-74" transform="translate(485.925781 0)"/>
      <use xlink:href="#Arial-Black-79" transform="translate(530.310547 0)"/>
      <use xlink:href="#Arial-Black-20" transform="translate(591.394531 0)"/>
      <use xlink:href="#Arial-Black-44" transform="translate(624.744141 0)"/>
      <use xlink:href="#Arial-Black-65" transform="translate(702.527344 0)"/>
      <use xlink:href="#Arial-Black-6e" transform="translate(769.226562 0)"/>
      <use xlink:href="#Arial-Black-73" transform="translate(835.925781 0)"/>
      <use xlink:href="#Arial-Black-69" transform="translate(897.009766 0)"/>
      <use xlink:href="#Arial-Black-74" transform="translate(930.310547 0)"/>
      <use xlink:href="#Arial-Black-79" transform="translate(974.695312 0)"/>
     </g>
    </g>
   </g>
   <g id="line2d_4">
    <path d="M 20.056 180.304 
L 60.271453 180.228157 
L 61.302619 179.907911 
L 62.333784 179.761734 
L 63.36495 179.460116 
L 64.396115 178.668422 
L 65.427281 177.640781 
L 66.458446 175.752766 
L 67.489612 172.769623 
L 68.520777 168.718512 
L 69.551942 163.394878 
L 70.583108 156.484355 
L 71.614273 147.618623 
L 72.645439 137.468194 
L 73.676604 124.747778 
L 75.738935 96.773045 
L 77.801266 71.749083 
L 78.832432 62.853097 
L 79.863597 57.427477 
L 80.894763 52.688178 
L 81.925928 53.939789 
L 82.957094 54.613428 
L 83.988259 61.673729 
L 86.05059 83.951048 
L 90.175252 131.017727 
L 91.206417 141.213023 
L 92.237583 148.011918 
L 93.268748 155.959237 
L 94.299914 161.429937 
L 96.362245 169.511131 
L 97.39341 171.322794 
L 98.424576 173.711506 
L 99.455741 175.358382 
L 100.486906 176.659704 
L 102.549237 177.801482 
L 104.611568 178.771828 
L 105.642734 178.810602 
L 106.673899 178.996031 
L 107.705065 179.474947 
L 108.73623 179.329724 
L 109.767396 179.526456 
L 110.798561 179.433207 
L 111.829727 179.68517 
L 112.860892 179.584603 
L 115.954388 179.728652 
L 116.985554 179.868672 
L 118.016719 179.734808 
L 119.047885 179.869966 
L 120.07905 179.851404 
L 121.110216 180.057387 
L 123.172547 179.980194 
L 130.390705 180.282994 
L 142.764691 180.304 
L 163.388 180.304 
L 163.388 180.304 
" clip-path="url(#p7067f023c5)" style="fill: none; stroke: #1e2e79; stroke-width: 1.5; stroke-linecap: square"/>
   </g>
   <g id="line2d_5">
    <path d="M 20.056 180.304 
L 62.333784 180.194485 
L 64.396115 179.942754 
L 65.427281 179.469857 
L 66.458446 179.314578 
L 68.520777 176.769455 
L 70.583108 170.162831 
L 71.614273 164.733499 
L 72.645439 158.288939 
L 73.676604 147.254692 
L 74.70777 133.926768 
L 75.738935 117.64636 
L 77.801266 82.17969 
L 78.832432 59.886415 
L 79.863597 40.912324 
L 80.894763 31.733788 
L 81.925928 25.819876 
L 82.957094 24.245818 
L 83.988259 31.957821 
L 85.019424 43.267713 
L 86.05059 58.172865 
L 88.112921 94.206547 
L 90.175252 126.91771 
L 91.206417 140.635165 
L 93.268748 159.641599 
L 94.299914 166.068781 
L 95.331079 170.100724 
L 96.362245 173.56757 
L 97.39341 175.273087 
L 98.424576 177.244888 
L 99.455741 178.338927 
L 101.518072 179.550242 
L 102.549237 179.626991 
L 103.580403 179.914516 
L 106.673899 180.212784 
L 108.73623 180.215711 
L 110.798561 180.179323 
L 116.985554 180.247763 
L 118.016719 180.066436 
L 120.07905 180.217045 
L 127.297209 180.278333 
L 143.795856 180.304 
L 163.388 180.304 
L 163.388 180.304 
" clip-path="url(#p7067f023c5)" style="fill: none; stroke: #ec4067; stroke-width: 1.5; stroke-linecap: square"/>
   </g>
   <g id="line2d_6">
    <path d="M 20.056 180.304 
L 60.271453 180.212927 
L 61.302619 180.106988 
L 62.333784 179.872043 
L 63.36495 179.464409 
L 64.396115 178.771844 
L 65.427281 177.840123 
L 66.458446 176.488268 
L 67.489612 174.298364 
L 68.520777 171.356222 
L 70.583108 162.577434 
L 72.645439 150.19194 
L 73.676604 142.419765 
L 74.70777 133.568286 
L 76.770101 112.776379 
L 78.832432 97.343883 
L 79.863597 89.472782 
L 80.894763 83.270874 
L 81.925928 79.400009 
L 82.957094 78.305471 
L 83.988259 79.768863 
L 85.019424 83.339983 
L 87.081755 95.72601 
L 88.112921 104.042096 
L 90.175252 121.616203 
L 91.206417 130.305314 
L 92.237583 137.713309 
L 94.299914 150.923258 
L 95.331079 155.928416 
L 97.39341 163.855582 
L 98.424576 165.736538 
L 99.455741 168.604391 
L 100.486906 170.177879 
L 101.518072 171.458559 
L 102.549237 171.9824 
L 103.580403 172.65205 
L 104.611568 172.934205 
L 105.642734 173.451776 
L 106.673899 173.121601 
L 107.705065 172.530823 
L 108.73623 172.164611 
L 109.767396 171.457009 
L 111.829727 169.696853 
L 112.860892 169.078128 
L 114.923223 167.120999 
L 115.954388 166.452464 
L 116.985554 165.629382 
L 118.016719 165.121649 
L 119.047885 165.143221 
L 120.07905 166.458503 
L 121.110216 167.17794 
L 122.141381 168.254754 
L 125.234878 174.396424 
L 126.266043 176.008795 
L 127.297209 177.109826 
L 128.328374 178.374282 
L 129.35954 179.202031 
L 131.421871 179.882021 
L 133.484201 180.209288 
L 140.70236 180.304 
L 163.388 180.304 
L 163.388 180.304 
" clip-path="url(#p7067f023c5)" style="fill: none; stroke: #f99752; stroke-width: 1.5; stroke-linecap: square"/>
   </g>
   <g id="patch_3">
    <path d="M 20.056 180.304 
L 20.056 8.64 
" style="fill: none; stroke: #c2c1c1; stroke-width: 0.8; stroke-linejoin: miter; stroke-linecap: square"/>
   </g>
   <g id="patch_4">
    <path d="M 163.388 180.304 
L 163.388 8.64 
" style="fill: none; stroke: #c2c1c1; stroke-width: 0.8; stroke-linejoin: miter; stroke-linecap: square"/>
   </g>
   <g id="patch_5">
    <path d="M 20.056 180.304 
L 163.388 180.304 
" style="fill: none; stroke: #c2c1c1; stroke-width: 0.8; stroke-linejoin: miter; stroke-linecap: square"/>
   </g>
   <g id="patch_6">
    <path d="M 20.056 8.64 
L 163.388 8.64 
" style="fill: none; stroke: #c2c1c1; stroke-width: 0.8; stroke-linejoin: miter; stroke-linecap: square"/>
   </g>
   <g id="text_6">
    <!-- A -->
    <g transform="translate(26.472775 20.333825) scale(0.12 -0.12)">
     <defs>
      <path id="Arial-BoldMT-41" d="M 4597 0 
L 3591 0 
L 3191 1041 
L 1359 1041 
L 981 0 
L 0 0 
L 1784 4581 
L 2763 4581 
L 4597 0 
z
M 2894 1813 
L 2263 3513 
L 1644 1813 
L 2894 1813 
z
" transform="scale(0.015625)"/>
     </defs>
     <use xlink:href="#Arial-BoldMT-41"/>
    </g>
   </g>
  </g>
  <g id="axes_2">
   <g id="patch_7">
    <path d="M 172.028 180.304 
L 315.36 180.304 
L 315.36 8.64 
L 172.028 8.64 
z
" style="fill: #ffffff"/>
   </g>
   <g id="matplotlib.axis_3">
    <g id="xtick_4">
     <g id="line2d_7">
      <g>
       <use xlink:href="#m491925600c" x="192.504" y="180.304" style="fill: #c2c1c1; stroke: #c2c1c1; stroke-width: 0.8"/>
      </g>
     </g>
     <g id="text_7">
      <!-- 2 -->
      <g style="fill: #191919" transform="translate(190.279625 193.03025) scale(0.08 -0.08)">
       <use xlink:href="#ArialMT-32"/>
      </g>
     </g>
    </g>
    <g id="xtick_5">
     <g id="line2d_8">
      <g>
       <use xlink:href="#m491925600c" x="233.456" y="180.304" style="fill: #c2c1c1; stroke: #c2c1c1; stroke-width: 0.8"/>
      </g>
     </g>
     <g id="text_8">
      <!-- 4 -->
      <g style="fill: #191919" transform="translate(231.231625 193.03025) scale(0.08 -0.08)">
       <use xlink:href="#ArialMT-34"/>
      </g>
     </g>
    </g>
    <g id="xtick_6">
     <g id="line2d_9">
      <g>
       <use xlink:href="#m491925600c" x="274.408" y="180.304" style="fill: #c2c1c1; stroke: #c2c1c1; stroke-width: 0.8"/>
      </g>
     </g>
     <g id="text_9">
      <!-- 6 -->
      <g style="fill: #191919" transform="translate(272.183625 193.03025) scale(0.08 -0.08)">
       <use xlink:href="#ArialMT-36"/>
      </g>
     </g>
    </g>
    <g id="text_10">
     <!-- Glu222 HE2 – Cro66 OG1 [Å] -->
     <g style="fill: #191919" transform="translate(182.287125 205.7615) scale(0.08 -0.08)">
      <defs>
       <path id="Arial-Black-47" d="M 2772 1659 
L 2772 2613 
L 4959 2613 
L 4959 659 
Q 4331 231 3848 76 
Q 3366 -78 2703 -78 
Q 1888 -78 1373 200 
Q 859 478 576 1028 
Q 294 1578 294 2291 
Q 294 3041 603 3595 
Q 913 4150 1509 4438 
Q 1975 4659 2763 4659 
Q 3522 4659 3898 4521 
Q 4275 4384 4523 4095 
Q 4772 3806 4897 3363 
L 3531 3119 
Q 3447 3378 3245 3515 
Q 3044 3653 2731 3653 
Q 2266 3653 1989 3329 
Q 1713 3006 1713 2306 
Q 1713 1563 1992 1244 
Q 2272 925 2772 925 
Q 3009 925 3225 994 
Q 3441 1063 3719 1228 
L 3719 1659 
L 2772 1659 
z
" transform="scale(0.015625)"/>
       <path id="Arial-Black-75" d="M 3881 0 
L 2694 0 
L 2694 538 
Q 2428 206 2158 65 
Q 1888 -75 1494 -75 
Q 969 -75 670 239 
Q 372 553 372 1206 
L 372 3319 
L 1650 3319 
L 1650 1494 
Q 1650 1181 1765 1050 
Q 1881 919 2091 919 
Q 2319 919 2464 1094 
Q 2609 1269 2609 1722 
L 2609 3319 
L 3881 3319 
L 3881 0 
z
" transform="scale(0.015625)"/>
       <path id="Arial-Black-32" d="M 3988 0 
L 169 0 
Q 234 566 567 1064 
Q 900 1563 1816 2241 
Q 2375 2656 2531 2872 
Q 2688 3088 2688 3281 
Q 2688 3491 2533 3639 
Q 2378 3788 2144 3788 
Q 1900 3788 1745 3634 
Q 1591 3481 1538 3094 
L 263 3197 
Q 338 3734 538 4036 
Q 738 4338 1102 4498 
Q 1466 4659 2109 4659 
Q 2781 4659 3154 4506 
Q 3528 4353 3742 4036 
Q 3956 3719 3956 3325 
Q 3956 2906 3711 2525 
Q 3466 2144 2819 1688 
Q 2434 1422 2304 1315 
Q 2175 1209 2000 1038 
L 3988 1038 
L 3988 0 
z
" transform="scale(0.015625)"/>
       <path id="Arial-Black-48" d="M 475 4581 
L 1891 4581 
L 1891 2978 
L 3438 2978 
L 3438 4581 
L 4859 4581 
L 4859 0 
L 3438 0 
L 3438 1853 
L 1891 1853 
L 1891 0 
L 475 0 
L 475 4581 
z
" transform="scale(0.015625)"/>
       <path id="Arial-Black-45" d="M 466 4581 
L 4259 4581 
L 4259 3603 
L 1884 3603 
L 1884 2875 
L 4088 2875 
L 4088 1941 
L 1884 1941 
L 1884 1038 
L 4328 1038 
L 4328 0 
L 466 0 
L 466 4581 
z
" transform="scale(0.015625)"/>
      </defs>
      <use xlink:href="#Arial-Black-47"/>
      <use xlink:href="#Arial-Black-6c" transform="translate(83.300781 0)"/>
      <use xlink:href="#Arial-Black-75" transform="translate(116.601562 0)"/>
      <use xlink:href="#Arial-Black-32" transform="translate(183.300781 0)"/>
      <use xlink:href="#Arial-Black-32" transform="translate(250 0)"/>
      <use xlink:href="#Arial-Black-32" transform="translate(316.699219 0)"/>
      <use xlink:href="#Arial-Black-20" transform="translate(383.398438 0)"/>
      <use xlink:href="#Arial-Black-48" transform="translate(416.748047 0)"/>
      <use xlink:href="#Arial-Black-45" transform="translate(500.048828 0)"/>
      <use xlink:href="#Arial-Black-32" transform="translate(572.265625 0)"/>
      <use xlink:href="#Arial-Black-20" transform="translate(638.964844 0)"/>
      <use xlink:href="#Arial-Black-2013" transform="translate(672.314453 0)"/>
      <use xlink:href="#Arial-Black-20" transform="translate(722.314453 0)"/>
      <use xlink:href="#Arial-Black-43" transform="translate(755.664062 0)"/>
      <use xlink:href="#Arial-Black-72" transform="translate(833.447266 0)"/>
      <use xlink:href="#Arial-Black-6f" transform="translate(879.457031 0)"/>
      <use xlink:href="#Arial-Black-36" transform="translate(946.15625 0)"/>
      <use xlink:href="#Arial-Black-36" transform="translate(1012.855469 0)"/>
      <use xlink:href="#Arial-Black-20" transform="translate(1079.554688 0)"/>
      <use xlink:href="#Arial-Black-4f" transform="translate(1112.904297 0)"/>
      <use xlink:href="#Arial-Black-47" transform="translate(1196.205078 0)"/>
      <use xlink:href="#Arial-Black-31" transform="translate(1279.505859 0)"/>
      <use xlink:href="#Arial-Black-20" transform="translate(1346.205078 0)"/>
      <use xlink:href="#Arial-Black-5b" transform="translate(1379.554688 0)"/>
      <use xlink:href="#Arial-Black-c5" transform="translate(1418.470703 0)"/>
      <use xlink:href="#Arial-Black-5d" transform="translate(1496.253906 0)"/>
     </g>
    </g>
   </g>
   <g id="matplotlib.axis_4"/>
   <g id="line2d_10">
    <path d="M 172.028 180.304 
L 179.246158 180.283455 
L 180.277324 180.144067 
L 181.308489 179.406684 
L 182.339655 176.607148 
L 183.37082 168.894915 
L 184.401986 153.294494 
L 187.495482 84.77217 
L 188.526647 78.170788 
L 189.557813 84.770273 
L 190.588978 99.916783 
L 192.651309 134.739036 
L 193.682475 148.40135 
L 194.71364 158.619068 
L 195.744806 165.868865 
L 196.775971 170.782379 
L 197.807137 174.019813 
L 198.838302 176.138687 
L 199.869468 177.516127 
L 200.900633 178.417482 
L 201.931799 179.018651 
L 202.962964 179.414576 
L 205.025295 179.837334 
L 208.118791 180.096066 
L 214.305784 180.20485 
L 232.866763 179.883678 
L 235.960259 179.667583 
L 239.053755 179.2719 
L 242.147252 178.486681 
L 244.209583 177.768736 
L 245.240748 177.280561 
L 247.303079 175.975031 
L 248.334245 175.219799 
L 249.36541 174.312644 
L 251.427741 171.895804 
L 253.490072 169.094913 
L 255.552403 166.157989 
L 256.583568 165.036956 
L 257.614734 164.179275 
L 258.645899 163.5355 
L 259.677065 163.202699 
L 260.70823 163.32495 
L 261.739396 163.974622 
L 262.770561 165.044094 
L 264.832892 167.651058 
L 267.926388 171.777679 
L 269.988719 174.097058 
L 271.019885 175.000386 
L 273.082216 176.325903 
L 275.144547 177.168011 
L 277.206878 177.753196 
L 285.456201 179.115449 
L 290.612029 179.745213 
L 293.705525 180.015536 
L 298.861353 180.213891 
L 311.235338 180.303753 
L 315.36 180.304 
L 315.36 180.304 
" clip-path="url(#p713a9681de)" style="fill: none; stroke: #1e2e79; stroke-width: 1.5; stroke-linecap: square"/>
   </g>
   <g id="line2d_11">
    <path d="M 172.028 180.304 
L 181.308489 180.285324 
L 182.339655 179.809624 
L 183.37082 175.950619 
L 184.401986 161.270632 
L 185.433151 124.920863 
L 186.464317 77.639016 
L 187.495482 39.502802 
L 188.526647 24.245818 
L 189.557813 33.209695 
L 190.588978 56.320686 
L 191.620144 86.569396 
L 192.651309 111.431968 
L 193.682475 131.416945 
L 194.71364 146.92841 
L 195.744806 158.384376 
L 196.775971 166.425694 
L 198.838302 173.81447 
L 200.900633 177.145406 
L 201.931799 178.212361 
L 203.994129 179.2446 
L 207.087626 179.857727 
L 208.118791 180.025943 
L 211.212288 180.08236 
L 212.243453 180.176597 
L 215.33695 180.154565 
L 223.586273 180.068468 
L 224.617439 179.816521 
L 225.648604 179.903295 
L 226.67977 179.784574 
L 229.773266 179.677716 
L 231.835597 179.417077 
L 232.866763 179.541047 
L 233.897928 179.506706 
L 234.929094 179.61921 
L 235.960259 179.372498 
L 238.02259 179.624123 
L 244.209583 179.747325 
L 245.240748 179.877742 
L 247.303079 179.974251 
L 250.396576 180.037281 
L 264.832892 180.263874 
L 266.895223 180.274053 
L 293.705525 180.299463 
L 315.36 180.304 
L 315.36 180.304 
" clip-path="url(#p713a9681de)" style="fill: none; stroke: #ec4067; stroke-width: 1.5; stroke-linecap: square"/>
   </g>
   <g id="line2d_12">
    <path d="M 172.028 180.304 
L 180.277324 180.26262 
L 181.308489 179.944585 
L 182.339655 178.22253 
L 183.37082 172.0317 
L 184.401986 156.815286 
L 185.433151 130.45521 
L 186.464317 97.853191 
L 187.495482 69.682957 
L 188.526647 54.915241 
L 189.557813 56.428771 
L 190.588978 70.302722 
L 193.682475 129.194751 
L 194.71364 143.412843 
L 195.744806 153.956634 
L 196.775971 161.488202 
L 197.807137 166.888657 
L 198.838302 170.835502 
L 199.869468 173.584694 
L 200.900633 175.335371 
L 201.931799 176.510194 
L 202.962964 177.427813 
L 203.994129 178.176503 
L 205.025295 178.715619 
L 207.087626 179.35239 
L 209.149957 179.674314 
L 211.212288 179.80208 
L 217.399281 179.86576 
L 227.710935 179.382844 
L 233.897928 179.432124 
L 242.147252 179.444503 
L 249.36541 179.467404 
L 264.832892 179.67876 
L 268.957554 179.546004 
L 272.05105 179.482738 
L 282.362705 179.004829 
L 284.425036 178.970161 
L 288.549698 178.664814 
L 292.67436 178.679298 
L 295.767856 178.725971 
L 299.892518 178.774754 
L 302.986014 178.941386 
L 308.141842 179.113296 
L 315.36 179.631836 
L 315.36 179.631836 
" clip-path="url(#p713a9681de)" style="fill: none; stroke: #f99752; stroke-width: 1.5; stroke-linecap: square"/>
   </g>
   <g id="patch_8">
    <path d="M 172.028 180.304 
L 172.028 8.64 
" style="fill: none; stroke: #c2c1c1; stroke-width: 0.8; stroke-linejoin: miter; stroke-linecap: square"/>
   </g>
   <g id="patch_9">
    <path d="M 315.36 180.304 
L 315.36 8.64 
" style="fill: none; stroke: #c2c1c1; stroke-width: 0.8; stroke-linejoin: miter; stroke-linecap: square"/>
   </g>
   <g id="patch_10">
    <path d="M 172.028 180.304 
L 315.36 180.304 
" style="fill: none; stroke: #c2c1c1; stroke-width: 0.8; stroke-linejoin: miter; stroke-linecap: square"/>
   </g>
   <g id="patch_11">
    <path d="M 172.028 8.64 
L 315.36 8.64 
" style="fill: none; stroke: #c2c1c1; stroke-width: 0.8; stroke-linejoin: miter; stroke-linecap: square"/>
   </g>
   <g id="text_11">
    <!-- B -->
    <g transform="translate(178.444775 20.333825) scale(0.12 -0.12)">
     <defs>
      <path id="Arial-BoldMT-42" d="M 469 4581 
L 2300 4581 
Q 2844 4581 3111 4536 
Q 3378 4491 3589 4347 
Q 3800 4203 3940 3964 
Q 4081 3725 4081 3428 
Q 4081 3106 3907 2837 
Q 3734 2569 3438 2434 
Q 3856 2313 4081 2019 
Q 4306 1725 4306 1328 
Q 4306 1016 4161 720 
Q 4016 425 3764 248 
Q 3513 72 3144 31 
Q 2913 6 2028 0 
L 469 0 
L 469 4581 
z
M 1394 3819 
L 1394 2759 
L 2000 2759 
Q 2541 2759 2672 2775 
Q 2909 2803 3045 2939 
Q 3181 3075 3181 3297 
Q 3181 3509 3064 3642 
Q 2947 3775 2716 3803 
Q 2578 3819 1925 3819 
L 1394 3819 
z
M 1394 1997 
L 1394 772 
L 2250 772 
Q 2750 772 2884 800 
Q 3091 838 3220 983 
Q 3350 1128 3350 1372 
Q 3350 1578 3250 1722 
Q 3150 1866 2961 1931 
Q 2772 1997 2141 1997 
L 1394 1997 
z
" transform="scale(0.015625)"/>
     </defs>
     <use xlink:href="#Arial-BoldMT-42"/>
    </g>
   </g>
   <g id="legend_1">
    <g id="line2d_13">
     <path d="M 253.73875 18.76625 
L 261.73875 18.76625 
L 269.73875 18.76625 
" style="fill: none; stroke: #1e2e79; stroke-width: 1.5; stroke-linecap: square"/>
    </g>
    <g id="text_12">
     <!-- Reduced -->
     <g transform="translate(276.13875 21.56625) scale(0.08 -0.08)">
      <defs>
       <path id="ArialMT-52" d="M 503 0 
L 503 4581 
L 2534 4581 
Q 3147 4581 3465 4457 
Q 3784 4334 3975 4021 
Q 4166 3709 4166 3331 
Q 4166 2844 3850 2509 
Q 3534 2175 2875 2084 
Q 3116 1969 3241 1856 
Q 3506 1613 3744 1247 
L 4541 0 
L 3778 0 
L 3172 953 
Q 2906 1366 2734 1584 
Q 2563 1803 2427 1890 
Q 2291 1978 2150 2013 
Q 2047 2034 1813 2034 
L 1109 2034 
L 1109 0 
L 503 0 
z
M 1109 2559 
L 2413 2559 
Q 2828 2559 3062 2645 
Q 3297 2731 3419 2920 
Q 3541 3109 3541 3331 
Q 3541 3656 3305 3865 
Q 3069 4075 2559 4075 
L 1109 4075 
L 1109 2559 
z
" transform="scale(0.015625)"/>
       <path id="ArialMT-65" d="M 2694 1069 
L 3275 997 
Q 3138 488 2766 206 
Q 2394 -75 1816 -75 
Q 1088 -75 661 373 
Q 234 822 234 1631 
Q 234 2469 665 2931 
Q 1097 3394 1784 3394 
Q 2450 3394 2872 2941 
Q 3294 2488 3294 1666 
Q 3294 1616 3291 1516 
L 816 1516 
Q 847 969 1125 678 
Q 1403 388 1819 388 
Q 2128 388 2347 550 
Q 2566 713 2694 1069 
z
M 847 1978 
L 2700 1978 
Q 2663 2397 2488 2606 
Q 2219 2931 1791 2931 
Q 1403 2931 1139 2672 
Q 875 2413 847 1978 
z
" transform="scale(0.015625)"/>
       <path id="ArialMT-64" d="M 2575 0 
L 2575 419 
Q 2259 -75 1647 -75 
Q 1250 -75 917 144 
Q 584 363 401 755 
Q 219 1147 219 1656 
Q 219 2153 384 2558 
Q 550 2963 881 3178 
Q 1213 3394 1622 3394 
Q 1922 3394 2156 3267 
Q 2391 3141 2538 2938 
L 2538 4581 
L 3097 4581 
L 3097 0 
L 2575 0 
z
M 797 1656 
Q 797 1019 1065 703 
Q 1334 388 1700 388 
Q 2069 388 2326 689 
Q 2584 991 2584 1609 
Q 2584 2291 2321 2609 
Q 2059 2928 1675 2928 
Q 1300 2928 1048 2622 
Q 797 2316 797 1656 
z
" transform="scale(0.015625)"/>
       <path id="ArialMT-75" d="M 2597 0 
L 2597 488 
Q 2209 -75 1544 -75 
Q 1250 -75 995 37 
Q 741 150 617 320 
Q 494 491 444 738 
Q 409 903 409 1263 
L 409 3319 
L 972 3319 
L 972 1478 
Q 972 1038 1006 884 
Q 1059 663 1231 536 
Q 1403 409 1656 409 
Q 1909 409 2131 539 
Q 2353 669 2445 892 
Q 2538 1116 2538 1541 
L 2538 3319 
L 3100 3319 
L 3100 0 
L 2597 0 
z
" transform="scale(0.015625)"/>
       <path id="ArialMT-63" d="M 2588 1216 
L 3141 1144 
Q 3050 572 2676 248 
Q 2303 -75 1759 -75 
Q 1078 -75 664 370 
Q 250 816 250 1647 
Q 250 2184 428 2587 
Q 606 2991 970 3192 
Q 1334 3394 1763 3394 
Q 2303 3394 2647 3120 
Q 2991 2847 3088 2344 
L 2541 2259 
Q 2463 2594 2264 2762 
Q 2066 2931 1784 2931 
Q 1359 2931 1093 2626 
Q 828 2322 828 1663 
Q 828 994 1084 691 
Q 1341 388 1753 388 
Q 2084 388 2306 591 
Q 2528 794 2588 1216 
z
" transform="scale(0.015625)"/>
      </defs>
      <use xlink:href="#ArialMT-52"/>
      <use xlink:href="#ArialMT-65" transform="translate(72.216797 0)"/>
      <use xlink:href="#ArialMT-64" transform="translate(127.832031 0)"/>
      <use xlink:href="#ArialMT-75" transform="translate(183.447266 0)"/>
      <use xlink:href="#ArialMT-63" transform="translate(239.0625 0)"/>
      <use xlink:href="#ArialMT-65" transform="translate(289.0625 0)"/>
      <use xlink:href="#ArialMT-64" transform="translate(344.677734 0)"/>
     </g>
    </g>
    <g id="line2d_14">
     <path d="M 253.73875 30.0825 
L 261.73875 30.0825 
L 269.73875 30.0825 
" style="fill: none; stroke: #ec4067; stroke-width: 1.5; stroke-linecap: square"/>
    </g>
    <g id="text_13">
     <!-- Oxidized -->
     <g transform="translate(276.13875 32.8825) scale(0.08 -0.08)">
      <defs>
       <path id="ArialMT-4f" d="M 309 2231 
Q 309 3372 921 4017 
Q 1534 4663 2503 4663 
Q 3138 4663 3647 4359 
Q 4156 4056 4423 3514 
Q 4691 2972 4691 2284 
Q 4691 1588 4409 1038 
Q 4128 488 3612 205 
Q 3097 -78 2500 -78 
Q 1853 -78 1343 234 
Q 834 547 571 1087 
Q 309 1628 309 2231 
z
M 934 2222 
Q 934 1394 1379 917 
Q 1825 441 2497 441 
Q 3181 441 3623 922 
Q 4066 1403 4066 2288 
Q 4066 2847 3877 3264 
Q 3688 3681 3323 3911 
Q 2959 4141 2506 4141 
Q 1863 4141 1398 3698 
Q 934 3256 934 2222 
z
" transform="scale(0.015625)"/>
       <path id="ArialMT-78" d="M 47 0 
L 1259 1725 
L 138 3319 
L 841 3319 
L 1350 2541 
Q 1494 2319 1581 2169 
Q 1719 2375 1834 2534 
L 2394 3319 
L 3066 3319 
L 1919 1756 
L 3153 0 
L 2463 0 
L 1781 1031 
L 1600 1309 
L 728 0 
L 47 0 
z
" transform="scale(0.015625)"/>
       <path id="ArialMT-69" d="M 425 3934 
L 425 4581 
L 988 4581 
L 988 3934 
L 425 3934 
z
M 425 0 
L 425 3319 
L 988 3319 
L 988 0 
L 425 0 
z
" transform="scale(0.015625)"/>
       <path id="ArialMT-7a" d="M 125 0 
L 125 456 
L 2238 2881 
Q 1878 2863 1603 2863 
L 250 2863 
L 250 3319 
L 2963 3319 
L 2963 2947 
L 1166 841 
L 819 456 
Q 1197 484 1528 484 
L 3063 484 
L 3063 0 
L 125 0 
z
" transform="scale(0.015625)"/>
      </defs>
      <use xlink:href="#ArialMT-4f"/>
      <use xlink:href="#ArialMT-78" transform="translate(77.783203 0)"/>
      <use xlink:href="#ArialMT-69" transform="translate(127.783203 0)"/>
      <use xlink:href="#ArialMT-64" transform="translate(150 0)"/>
      <use xlink:href="#ArialMT-69" transform="translate(205.615234 0)"/>
      <use xlink:href="#ArialMT-7a" transform="translate(227.832031 0)"/>
      <use xlink:href="#ArialMT-65" transform="translate(277.832031 0)"/>
      <use xlink:href="#ArialMT-64" transform="translate(333.447266 0)"/>
     </g>
    </g>
    <g id="line2d_15">
     <path d="M 253.73875 41.49625 
L 261.73875 41.49625 
L 269.73875 41.49625 
" style="fill: none; stroke: #f99752; stroke-width: 1.5; stroke-linecap: square"/>
    </g>
    <g id="text_14">
     <!-- Cu(I) -->
     <g transform="translate(276.13875 44.29625) scale(0.08 -0.08)">
      <defs>
       <path id="ArialMT-43" d="M 3763 1606 
L 4369 1453 
Q 4178 706 3683 314 
Q 3188 -78 2472 -78 
Q 1731 -78 1267 223 
Q 803 525 561 1097 
Q 319 1669 319 2325 
Q 319 3041 592 3573 
Q 866 4106 1370 4382 
Q 1875 4659 2481 4659 
Q 3169 4659 3637 4309 
Q 4106 3959 4291 3325 
L 3694 3184 
Q 3534 3684 3231 3912 
Q 2928 4141 2469 4141 
Q 1941 4141 1586 3887 
Q 1231 3634 1087 3207 
Q 944 2781 944 2328 
Q 944 1744 1114 1308 
Q 1284 872 1643 656 
Q 2003 441 2422 441 
Q 2931 441 3284 734 
Q 3638 1028 3763 1606 
z
" transform="scale(0.015625)"/>
       <path id="ArialMT-28" d="M 1497 -1347 
Q 1031 -759 709 28 
Q 388 816 388 1659 
Q 388 2403 628 3084 
Q 909 3875 1497 4659 
L 1900 4659 
Q 1522 4009 1400 3731 
Q 1209 3300 1100 2831 
Q 966 2247 966 1656 
Q 966 153 1900 -1347 
L 1497 -1347 
z
" transform="scale(0.015625)"/>
       <path id="ArialMT-49" d="M 597 0 
L 597 4581 
L 1203 4581 
L 1203 0 
L 597 0 
z
" transform="scale(0.015625)"/>
       <path id="ArialMT-29" d="M 791 -1347 
L 388 -1347 
Q 1322 153 1322 1656 
Q 1322 2244 1188 2822 
Q 1081 3291 891 3722 
Q 769 4003 388 4659 
L 791 4659 
Q 1378 3875 1659 3084 
Q 1900 2403 1900 1659 
Q 1900 816 1576 28 
Q 1253 -759 791 -1347 
z
" transform="scale(0.015625)"/>
      </defs>
      <use xlink:href="#ArialMT-43"/>
      <use xlink:href="#ArialMT-75" transform="translate(72.216797 0)"/>
      <use xlink:href="#ArialMT-28" transform="translate(127.832031 0)"/>
      <use xlink:href="#ArialMT-49" transform="translate(161.132812 0)"/>
      <use xlink:href="#ArialMT-29" transform="translate(188.916016 0)"/>
     </g>
    </g>
   </g>
  </g>
 </g>
 <defs>
  <clipPath id="p7067f023c5">
   <rect x="20.056" y="8.64" width="143.332" height="171.664"/>
  </clipPath>
  <clipPath id="p713a9681de">
   <rect x="172.028" y="8.64" width="143.332" height="171.664"/>
  </clipPath>
 </defs>
</svg>
