<?xml version="1.0" encoding="utf-8" standalone="no"?>
<!DOCTYPE svg PUBLIC "-//W3C//DTD SVG 1.1//EN"
  "http://www.w3.org/Graphics/SVG/1.1/DTD/svg11.dtd">
<svg xmlns:xlink="http://www.w3.org/1999/xlink" width="252pt" height="216pt" viewBox="0 0 252 216" xmlns="http://www.w3.org/2000/svg" version="1.1">
 <metadata>
  <rdf:RDF xmlns:dc="http://purl.org/dc/elements/1.1/" xmlns:cc="http://creativecommons.org/ns#" xmlns:rdf="http://www.w3.org/1999/02/22-rdf-syntax-ns#">
   <cc:Work>
    <dc:type rdf:resource="http://purl.org/dc/dcmitype/StillImage"/>
    <dc:date>2024-08-13T17:20:57.474238</dc:date>
    <dc:format>image/svg+xml</dc:format>
    <dc:creator>
     <cc:Agent>
      <dc:title>Matplotlib v3.9.1, https://matplotlib.org/</dc:title>
     </cc:Agent>
    </dc:creator>
   </cc:Work>
  </rdf:RDF>
 </metadata>
 <defs>
  <style type="text/css">*{stroke-linejoin: round; stroke-linecap: butt}</style>
 </defs>
 <g id="figure_1">
  <g id="patch_1">
   <path d="M 0 216 
L 252 216 
L 252 0 
L 0 0 
z
" style="fill: #ffffff"/>
  </g>
  <g id="axes_1">
   <g id="patch_2">
    <path d="M 43.31 179.44 
L 241.11 179.44 
L 241.11 11.664 
L 43.31 11.664 
z
" style="fill: #ffffff"/>
   </g>
   <g id="line2d_1">
    <path d="M 43.31 123.514667 
L 241.11 123.514667 
" clip-path="url(#p378b31d582)" style="fill: none; stroke-dasharray: 1.5,2.475; stroke-dashoffset: 0; stroke: #c0c0c0; stroke-width: 1.5"/>
   </g>
   <g id="line2d_2">
    <path d="M 70.676473 -1 
L 71.824883 43.996886 
L 73.013003 81.745852 
L 74.201123 113.525463 
L 75.389244 140.488489 
L 76.577364 163.181901 
L 77.765484 181.490808 
L 78.953604 195.652939 
L 80.141724 206.693188 
L 80.933804 212.534646 
L 81.693484 217 
M 95.2282 217 
L 97.963526 211.791552 
L 99.151646 209.413657 
L 101.131846 204.673522 
L 104.696207 195.941439 
L 108.260567 186.957102 
L 114.201168 169.367003 
L 116.577408 162.924195 
L 118.161568 158.853755 
L 120.141769 153.757071 
L 121.329889 150.272281 
L 123.310089 143.56251 
L 125.686329 137.576777 
L 128.06257 129.78221 
L 128.85465 128.005033 
L 130.83485 124.246827 
L 132.81505 119.581095 
L 133.21109 119.115516 
L 133.60713 118.895975 
L 134.00317 118.884575 
L 134.79525 119.296251 
L 135.58733 119.877826 
L 135.98337 120.011856 
L 136.37941 119.944042 
L 137.171491 119.274189 
L 137.963571 118.478583 
L 139.151691 117.769433 
L 140.339811 117.099786 
L 140.735851 117.076634 
L 141.131891 117.2251 
L 142.716051 118.173016 
L 144.300211 118.559968 
L 145.488331 119.366049 
L 146.280412 120.093855 
L 147.072492 121.203579 
L 147.864572 122.422509 
L 148.260612 122.770804 
L 148.656652 122.837305 
L 149.448732 122.38798 
L 149.844772 122.161491 
L 150.240812 122.105114 
L 150.636852 122.264999 
L 151.428932 123.11857 
L 153.013092 125.22555 
L 154.597253 126.522653 
L 157.765573 129.207309 
L 158.557653 129.471441 
L 159.349733 129.57969 
L 160.141813 129.4951 
L 160.933893 129.081098 
L 162.122013 127.935965 
L 162.914093 127.205507 
L 164.102214 126.478702 
L 164.894294 125.929086 
L 165.686374 124.937126 
L 168.854694 119.679634 
L 169.646774 118.527431 
L 170.438854 117.010518 
L 171.230934 114.851352 
L 173.607175 107.248138 
L 174.795295 103.999975 
L 177.567575 94.973066 
L 179.547775 90.225286 
L 181.131935 85.208949 
L 181.527976 84.641677 
L 181.924016 84.619076 
L 183.112136 85.746888 
L 183.508176 85.499373 
L 183.904216 84.537506 
L 184.300256 82.783397 
L 185.092336 77.429199 
L 185.884416 72.407019 
L 186.280456 71.235386 
L 186.676496 71.045238 
L 187.468576 71.741091 
L 187.864616 71.6803 
L 188.260656 71.100506 
L 189.448776 68.349269 
L 189.844816 67.953996 
L 190.636897 67.79255 
L 191.032937 67.475986 
L 191.428977 66.715973 
L 192.221057 63.996726 
L 193.013137 61.388276 
L 193.409177 60.779246 
L 193.805217 60.613788 
L 194.201257 60.604411 
L 194.597297 60.429642 
L 194.993337 59.917938 
L 196.181457 57.756679 
L 196.577497 57.562335 
L 198.161657 57.898744 
L 198.953737 57.485314 
L 199.745818 56.878733 
L 200.141858 56.374728 
L 200.537898 55.635301 
L 201.329978 53.380632 
L 202.122058 50.252997 
L 204.102258 41.067063 
L 204.498298 39.983809 
L 204.894338 39.396054 
L 205.290378 39.19538 
L 206.478498 39.161873 
L 206.874538 38.94539 
L 207.270578 38.539802 
L 208.062659 37.106683 
L 209.250779 33.929346 
L 210.042859 31.897433 
L 210.438899 31.257915 
L 210.834939 31.047329 
L 211.230979 31.274492 
L 212.419099 32.845376 
L 212.815139 32.796231 
L 213.211179 32.024994 
L 213.607219 30.370636 
L 214.399299 24.698201 
L 215.191379 18.88469 
L 215.587419 17.492231 
L 215.983459 17.413334 
L 216.379499 18.25848 
L 217.17158 20.292736 
L 217.56762 20.595283 
L 217.96366 20.221129 
L 218.3597 19.280458 
L 219.54782 15.768003 
L 219.94386 15.169919 
L 220.73594 14.536723 
L 221.13198 13.93671 
L 221.52802 12.926755 
L 222.71614 9.014432 
L 223.90426 6.155646 
L 224.3003 4.680927 
L 225.09238 0.178813 
L 225.246297 -1 
L 225.246297 -1 
" clip-path="url(#p378b31d582)" style="fill: none; stroke: #1e2e79; stroke-width: 1.5; stroke-linecap: square"/>
   </g>
   <g id="line2d_3">
    <path d="M 70.976498 -1 
L 72.220923 40.224131 
L 73.805083 87.407848 
L 74.993204 117.13379 
L 76.181324 141.729389 
L 77.369444 161.652583 
L 78.557564 177.896645 
L 79.745684 191.106622 
L 80.933804 201.371033 
L 81.725884 206.696245 
L 82.517964 211.004589 
L 83.310044 214.470232 
L 84.026624 217 
M 94.75633 217 
L 95.983326 215.045957 
L 97.171446 212.784632 
L 98.359566 210.082532 
L 100.735806 204.382156 
L 102.319967 200.930827 
L 103.508087 197.71167 
L 105.488287 192.044334 
L 108.656607 183.463284 
L 114.993248 165.765554 
L 116.181368 162.051057 
L 119.745729 151.715224 
L 121.725929 145.480562 
L 122.914049 141.870757 
L 124.102169 139.0183 
L 125.686329 135.568857 
L 127.270489 131.91207 
L 128.45861 129.993881 
L 129.25069 128.626376 
L 130.04277 126.749604 
L 132.41901 120.100227 
L 133.21109 118.943454 
L 134.00317 118.501401 
L 134.79525 118.262341 
L 135.19129 118.028144 
L 135.98337 117.132988 
L 137.963571 114.039582 
L 138.755651 113.371338 
L 140.339811 112.55005 
L 141.131891 112.281221 
L 141.923971 112.389029 
L 143.508131 113.046191 
L 144.300211 113.23196 
L 144.696251 113.494782 
L 145.092291 113.99391 
L 145.884372 115.720855 
L 147.072492 118.665236 
L 147.864572 119.839143 
L 148.656652 120.403777 
L 150.240812 121.18961 
L 151.428932 121.992293 
L 152.221012 122.213634 
L 153.013092 122.353194 
L 153.409132 122.626101 
L 153.805172 123.141963 
L 154.597253 124.886243 
L 156.181413 129.177938 
L 156.973493 130.603196 
L 157.369533 130.99081 
L 157.765573 131.17226 
L 158.557653 131.160985 
L 159.349733 131.207807 
L 159.745773 131.407226 
L 160.537853 132.177268 
L 161.725973 133.589137 
L 162.518053 134.164406 
L 163.706174 134.529577 
L 164.894294 134.657215 
L 165.686374 134.447167 
L 168.458654 133.201988 
L 169.250734 133.243857 
L 170.834894 133.44654 
L 171.626974 133.219043 
L 172.023014 132.915194 
L 172.815095 131.882942 
L 174.795295 128.775191 
L 177.171535 125.48829 
L 177.963615 124.194473 
L 180.735895 118.975459 
L 181.924016 117.166592 
L 182.716096 115.417382 
L 184.300256 111.540654 
L 185.488376 109.420313 
L 186.280456 108.002043 
L 187.072536 106.161814 
L 189.052736 100.85169 
L 190.636897 97.171147 
L 193.805217 88.857728 
L 196.577497 82.16552 
L 197.369577 80.259476 
L 198.161657 77.685373 
L 198.953737 74.326524 
L 199.745818 70.189171 
L 201.329978 60.903641 
L 201.726018 59.232521 
L 202.122058 58.061586 
L 202.914138 56.768109 
L 203.706218 55.485092 
L 204.498298 53.215977 
L 207.666618 41.698518 
L 208.062659 40.800889 
L 208.458699 40.244617 
L 209.250779 39.857563 
L 209.646819 39.620777 
L 210.042859 39.035945 
L 210.438899 37.945463 
L 211.230979 34.21978 
L 212.419099 26.569417 
L 214.003259 15.059897 
L 215.191379 4.740411 
L 215.771685 -1 
L 215.771685 -1 
" clip-path="url(#p378b31d582)" style="fill: none; stroke: #ec4067; stroke-width: 1.5; stroke-linecap: square"/>
   </g>
   <g id="matplotlib.axis_1">
    <g id="xtick_1">
     <g id="line2d_4">
      <defs>
       <path id="m8ee3060007" d="M 0 0 
L 0 3.5 
" style="stroke: #c2c1c1; stroke-width: 0.8"/>
      </defs>
      <g>
       <use xlink:href="#m8ee3060007" x="43.31" y="179.44" style="fill: #c2c1c1; stroke: #c2c1c1; stroke-width: 0.8"/>
      </g>
     </g>
     <g id="text_1">
      <!-- 1 -->
      <g style="fill: #191919" transform="translate(41.061875 192.44) scale(0.08 -0.08)">
       <defs>
        <path id="Roboto-Regular-31" d="M 2278 4575 
L 2278 0 
L 1700 0 
L 1700 3853 
L 534 3428 
L 534 3950 
L 2188 4575 
L 2278 4575 
z
" transform="scale(0.015625)"/>
       </defs>
       <use xlink:href="#Roboto-Regular-31"/>
      </g>
     </g>
    </g>
    <g id="xtick_2">
     <g id="line2d_5">
      <g>
       <use xlink:href="#m8ee3060007" x="82.87" y="179.44" style="fill: #c2c1c1; stroke: #c2c1c1; stroke-width: 0.8"/>
      </g>
     </g>
     <g id="text_2">
      <!-- 2 -->
      <g style="fill: #191919" transform="translate(80.621875 192.44) scale(0.08 -0.08)">
       <defs>
        <path id="Roboto-Regular-32" d="M 3359 475 
L 3359 0 
L 381 0 
L 381 416 
L 1925 2134 
Q 2306 2566 2439 2819 
Q 2572 3072 2572 3328 
Q 2572 3663 2364 3900 
Q 2156 4138 1778 4138 
Q 1322 4138 1097 3878 
Q 872 3619 872 3213 
L 294 3213 
Q 294 3788 672 4200 
Q 1050 4613 1778 4613 
Q 2422 4613 2786 4278 
Q 3150 3944 3150 3397 
Q 3150 2997 2903 2592 
Q 2656 2188 2297 1797 
L 1078 475 
L 3359 475 
z
" transform="scale(0.015625)"/>
       </defs>
       <use xlink:href="#Roboto-Regular-32"/>
      </g>
     </g>
    </g>
    <g id="xtick_3">
     <g id="line2d_6">
      <g>
       <use xlink:href="#m8ee3060007" x="122.43" y="179.44" style="fill: #c2c1c1; stroke: #c2c1c1; stroke-width: 0.8"/>
      </g>
     </g>
     <g id="text_3">
      <!-- 3 -->
      <g style="fill: #191919" transform="translate(120.181875 192.44) scale(0.08 -0.08)">
       <defs>
        <path id="Roboto-Regular-33" d="M 1222 2084 
L 1222 2559 
L 1647 2559 
Q 2094 2563 2312 2784 
Q 2531 3006 2531 3338 
Q 2531 4138 1738 4138 
Q 1369 4138 1141 3927 
Q 913 3716 913 3359 
L 334 3359 
Q 334 3881 720 4247 
Q 1106 4613 1738 4613 
Q 2353 4613 2733 4286 
Q 3113 3959 3113 3325 
Q 3113 3072 2942 2784 
Q 2772 2497 2397 2338 
Q 2850 2191 3015 1884 
Q 3181 1578 3181 1269 
Q 3181 631 2768 284 
Q 2356 -63 1741 -63 
Q 1147 -63 722 267 
Q 297 597 297 1203 
L 875 1203 
Q 875 844 1108 628 
Q 1341 413 1741 413 
Q 2138 413 2369 622 
Q 2600 831 2600 1256 
Q 2600 1681 2337 1882 
Q 2075 2084 1634 2084 
L 1222 2084 
z
" transform="scale(0.015625)"/>
       </defs>
       <use xlink:href="#Roboto-Regular-33"/>
      </g>
     </g>
    </g>
    <g id="xtick_4">
     <g id="line2d_7">
      <g>
       <use xlink:href="#m8ee3060007" x="161.99" y="179.44" style="fill: #c2c1c1; stroke: #c2c1c1; stroke-width: 0.8"/>
      </g>
     </g>
     <g id="text_4">
      <!-- 4 -->
      <g style="fill: #191919" transform="translate(159.741875 192.44) scale(0.08 -0.08)">
       <defs>
        <path id="Roboto-Regular-34" d="M 166 1397 
L 2203 4550 
L 2819 4550 
L 2819 1531 
L 3453 1531 
L 3453 1056 
L 2819 1056 
L 2819 0 
L 2241 0 
L 2241 1056 
L 166 1056 
L 166 1397 
z
M 822 1531 
L 2241 1531 
L 2241 3766 
L 2169 3638 
L 822 1531 
z
" transform="scale(0.015625)"/>
       </defs>
       <use xlink:href="#Roboto-Regular-34"/>
      </g>
     </g>
    </g>
    <g id="xtick_5">
     <g id="line2d_8">
      <g>
       <use xlink:href="#m8ee3060007" x="201.55" y="179.44" style="fill: #c2c1c1; stroke: #c2c1c1; stroke-width: 0.8"/>
      </g>
     </g>
     <g id="text_5">
      <!-- 5 -->
      <g style="fill: #191919" transform="translate(199.301875 192.44) scale(0.08 -0.08)">
       <defs>
        <path id="Roboto-Regular-35" d="M 1109 2166 
L 647 2284 
L 875 4550 
L 3209 4550 
L 3209 4016 
L 1366 4016 
L 1228 2778 
Q 1572 2975 1988 2975 
Q 2616 2975 2980 2561 
Q 3344 2147 3344 1450 
Q 3344 797 2987 367 
Q 2631 -63 1903 -63 
Q 1350 -63 947 248 
Q 544 559 481 1197 
L 1031 1197 
Q 1141 413 1903 413 
Q 2313 413 2538 691 
Q 2763 969 2763 1444 
Q 2763 1872 2527 2164 
Q 2291 2456 1853 2456 
Q 1563 2456 1413 2378 
Q 1263 2300 1109 2166 
z
" transform="scale(0.015625)"/>
       </defs>
       <use xlink:href="#Roboto-Regular-35"/>
      </g>
     </g>
    </g>
    <g id="xtick_6">
     <g id="line2d_9">
      <g>
       <use xlink:href="#m8ee3060007" x="241.11" y="179.44" style="fill: #c2c1c1; stroke: #c2c1c1; stroke-width: 0.8"/>
      </g>
     </g>
     <g id="text_6">
      <!-- 6 -->
      <g style="fill: #191919" transform="translate(238.861875 192.44) scale(0.08 -0.08)">
       <defs>
        <path id="Roboto-Regular-36" d="M 3291 1484 
Q 3291 838 2930 387 
Q 2569 -63 1878 -63 
Q 1388 -63 1063 198 
Q 738 459 577 861 
Q 416 1263 416 1684 
L 416 1956 
Q 416 2597 595 3194 
Q 775 3791 1247 4173 
Q 1719 4556 2597 4556 
L 2647 4556 
L 2647 4066 
Q 2041 4066 1705 3853 
Q 1369 3641 1205 3302 
Q 1041 2963 1006 2575 
Q 1369 2984 1984 2984 
Q 2438 2984 2727 2765 
Q 3016 2547 3153 2201 
Q 3291 1856 3291 1484 
z
M 997 1666 
Q 997 1059 1267 737 
Q 1538 416 1878 416 
Q 2278 416 2498 708 
Q 2719 1000 2719 1456 
Q 2719 1863 2516 2184 
Q 2313 2506 1891 2506 
Q 1588 2506 1341 2325 
Q 1094 2144 997 1884 
L 997 1666 
z
" transform="scale(0.015625)"/>
       </defs>
       <use xlink:href="#Roboto-Regular-36"/>
      </g>
     </g>
    </g>
    <g id="text_7">
     <!-- His148 NE2 - Arg168 H Distance [Å] -->
     <g style="fill: #191919" transform="translate(77.696875 205.645) scale(0.08 -0.08)">
      <defs>
       <path id="Roboto-Bold-48" d="M 3175 0 
L 3175 1950 
L 1347 1950 
L 1347 0 
L 406 0 
L 406 4550 
L 1347 4550 
L 1347 2706 
L 3175 2706 
L 3175 4550 
L 4113 4550 
L 4113 0 
L 3175 0 
z
" transform="scale(0.015625)"/>
       <path id="Roboto-Bold-69" d="M 341 4256 
Q 341 4459 478 4592 
Q 616 4725 847 4725 
Q 1078 4725 1215 4592 
Q 1353 4459 1353 4256 
Q 1353 4056 1215 3923 
Q 1078 3791 847 3791 
Q 616 3791 478 3923 
Q 341 4056 341 4256 
z
M 1303 3381 
L 1303 0 
L 397 0 
L 397 3381 
L 1303 3381 
z
" transform="scale(0.015625)"/>
       <path id="Roboto-Bold-73" d="M 2178 938 
Q 2178 1081 2045 1179 
Q 1913 1278 1475 1372 
Q 953 1484 618 1721 
Q 284 1959 284 2394 
Q 284 2816 642 3130 
Q 1000 3444 1631 3444 
Q 2291 3444 2669 3134 
Q 3047 2825 3047 2353 
L 2144 2353 
Q 2144 2547 2019 2675 
Q 1894 2803 1628 2803 
Q 1403 2803 1276 2698 
Q 1150 2594 1150 2438 
Q 1150 2294 1284 2200 
Q 1419 2106 1781 2034 
Q 2331 1925 2693 1700 
Q 3056 1475 3056 972 
Q 3056 525 2672 231 
Q 2288 -63 1634 -63 
Q 925 -63 550 301 
Q 175 666 175 1078 
L 1034 1078 
Q 1047 813 1230 697 
Q 1413 581 1653 581 
Q 2178 581 2178 938 
z
" transform="scale(0.015625)"/>
       <path id="Roboto-Bold-31" d="M 2503 4556 
L 2503 0 
L 1600 0 
L 1600 3484 
L 525 3150 
L 525 3881 
L 2406 4556 
L 2503 4556 
z
" transform="scale(0.015625)"/>
       <path id="Roboto-Bold-34" d="M 175 1553 
L 2072 4550 
L 2984 4550 
L 2984 1713 
L 3500 1713 
L 3500 984 
L 2984 984 
L 2984 0 
L 2081 0 
L 2081 984 
L 216 984 
L 175 1553 
z
M 1072 1713 
L 2081 1713 
L 2081 3328 
L 2019 3219 
L 1072 1713 
z
" transform="scale(0.015625)"/>
       <path id="Roboto-Bold-38" d="M 3369 1247 
Q 3369 603 2933 270 
Q 2497 -63 1837 -63 
Q 1178 -63 736 270 
Q 294 603 294 1247 
Q 294 1625 489 1908 
Q 684 2191 1013 2347 
Q 725 2497 559 2755 
Q 394 3013 394 3341 
Q 394 3959 800 4287 
Q 1206 4616 1831 4616 
Q 2466 4616 2870 4287 
Q 3275 3959 3275 3341 
Q 3275 3009 3108 2753 
Q 2941 2497 2653 2344 
Q 2981 2188 3175 1906 
Q 3369 1625 3369 1247 
z
M 2372 3297 
Q 2372 3563 2230 3725 
Q 2088 3888 1831 3888 
Q 1581 3888 1439 3730 
Q 1297 3572 1297 3297 
Q 1297 3028 1439 2862 
Q 1581 2697 1837 2697 
Q 2094 2697 2233 2862 
Q 2372 3028 2372 3297 
z
M 2466 1313 
Q 2466 1619 2291 1794 
Q 2116 1969 1831 1969 
Q 1547 1969 1373 1794 
Q 1200 1619 1200 1313 
Q 1200 1009 1373 837 
Q 1547 666 1838 666 
Q 2125 666 2295 837 
Q 2466 1009 2466 1313 
z
" transform="scale(0.015625)"/>
       <path id="Roboto-Bold-20" transform="scale(0.015625)"/>
       <path id="Roboto-Bold-4e" d="M 4109 4550 
L 4109 0 
L 3172 0 
L 1347 2997 
L 1347 0 
L 406 0 
L 406 4550 
L 1347 4550 
L 3172 1550 
L 3172 4550 
L 4109 4550 
z
" transform="scale(0.015625)"/>
       <path id="Roboto-Bold-45" d="M 406 0 
L 406 4550 
L 3450 4550 
L 3450 3791 
L 1347 3791 
L 1347 2706 
L 3144 2706 
L 3144 1972 
L 1347 1972 
L 1347 756 
L 3459 756 
L 3459 0 
L 406 0 
z
" transform="scale(0.015625)"/>
       <path id="Roboto-Bold-32" d="M 3428 728 
L 3428 0 
L 313 0 
L 313 619 
L 1784 2188 
Q 2116 2553 2245 2792 
Q 2375 3031 2375 3234 
Q 2375 3538 2223 3713 
Q 2072 3888 1788 3888 
Q 1466 3888 1295 3669 
Q 1125 3450 1125 3119 
L 222 3119 
Q 222 3734 645 4175 
Q 1069 4616 1803 4616 
Q 2519 4616 2900 4270 
Q 3281 3925 3281 3325 
Q 3281 2875 3014 2470 
Q 2747 2066 2284 1581 
L 1472 728 
L 3428 728 
z
" transform="scale(0.015625)"/>
       <path id="Roboto-Bold-2d" d="M 2103 2316 
L 2103 1584 
L 347 1584 
L 347 2316 
L 2103 2316 
z
" transform="scale(0.015625)"/>
       <path id="Roboto-Bold-41" d="M 25 0 
L 1719 4550 
L 2588 4550 
L 4291 0 
L 3291 0 
L 2978 938 
L 1331 938 
L 1019 0 
L 25 0 
z
M 1584 1697 
L 2725 1697 
L 2156 3406 
L 1584 1697 
z
" transform="scale(0.015625)"/>
       <path id="Roboto-Bold-72" d="M 1922 2563 
Q 1413 2563 1253 2216 
L 1253 0 
L 347 0 
L 347 3381 
L 1200 3381 
L 1228 2978 
Q 1494 3444 1981 3444 
Q 2153 3444 2259 3403 
L 2250 2538 
L 1922 2563 
z
" transform="scale(0.015625)"/>
       <path id="Roboto-Bold-67" d="M 1681 -1331 
Q 1375 -1331 1008 -1203 
Q 641 -1075 422 -803 
L 822 -253 
Q 1156 -628 1644 -628 
Q 2003 -628 2203 -436 
Q 2403 -244 2403 113 
L 2403 294 
Q 2084 -63 1581 -63 
Q 953 -63 587 418 
Q 222 900 216 1625 
L 216 1716 
Q 216 2488 583 2966 
Q 950 3444 1588 3444 
Q 2147 3444 2456 3063 
L 2491 3381 
L 3309 3381 
L 3309 116 
Q 3309 -581 2857 -956 
Q 2406 -1331 1681 -1331 
z
M 1119 1650 
Q 1119 1244 1286 958 
Q 1453 672 1809 672 
Q 2222 672 2403 984 
L 2403 2403 
Q 2225 2713 1816 2713 
Q 1463 2713 1291 2423 
Q 1119 2134 1119 1716 
L 1119 1650 
z
" transform="scale(0.015625)"/>
       <path id="Roboto-Bold-36" d="M 3450 1500 
Q 3450 838 3033 387 
Q 2616 -63 1916 -63 
Q 1188 -63 752 443 
Q 316 950 316 1750 
L 316 2097 
Q 316 3200 925 3898 
Q 1534 4597 2634 4597 
L 2763 4597 
L 2763 3853 
L 2672 3853 
Q 2050 3844 1688 3538 
Q 1313 3219 1238 2675 
Q 1603 3047 2156 3047 
Q 2800 3047 3125 2589 
Q 3450 2131 3450 1500 
z
M 1219 1631 
Q 1219 1150 1408 909 
Q 1597 669 1900 669 
Q 2194 669 2370 901 
Q 2547 1134 2547 1491 
Q 2547 1853 2370 2087 
Q 2194 2322 1881 2322 
Q 1641 2322 1469 2198 
Q 1297 2075 1219 1903 
L 1219 1631 
z
" transform="scale(0.015625)"/>
       <path id="Roboto-Bold-44" d="M 406 0 
L 406 4550 
L 1809 4550 
Q 2728 4550 3308 3950 
Q 3888 3350 3888 2375 
L 3888 2172 
Q 3888 1197 3308 598 
Q 2728 0 1797 0 
L 406 0 
z
M 1347 3791 
L 1347 756 
L 1797 756 
Q 2350 756 2639 1115 
Q 2928 1475 2934 2144 
L 2934 2381 
Q 2934 3075 2661 3428 
Q 2388 3781 1838 3791 
L 1347 3791 
z
" transform="scale(0.015625)"/>
       <path id="Roboto-Bold-74" d="M 2041 22 
Q 1788 -63 1497 -63 
Q 1053 -63 790 168 
Q 528 400 528 938 
L 528 2722 
L 31 2722 
L 31 3381 
L 528 3381 
L 528 4216 
L 1431 4216 
L 1431 3381 
L 2006 3381 
L 2006 2722 
L 1431 2722 
L 1431 1031 
Q 1431 819 1518 750 
Q 1606 681 1778 681 
Q 1916 681 2041 706 
L 2041 22 
z
" transform="scale(0.015625)"/>
       <path id="Roboto-Bold-61" d="M 2306 0 
Q 2250 119 2216 303 
Q 1888 -63 1363 -63 
Q 878 -63 547 223 
Q 216 509 216 950 
Q 216 1481 609 1773 
Q 1003 2066 1775 2066 
L 2178 2066 
L 2178 2263 
Q 2178 2497 2058 2636 
Q 1938 2775 1678 2775 
Q 1194 2775 1194 2369 
L 291 2369 
Q 291 2809 681 3126 
Q 1072 3444 1728 3444 
Q 2313 3444 2698 3147 
Q 3084 2850 3084 2256 
L 3084 750 
Q 3091 300 3219 53 
L 3219 0 
L 2306 0 
z
M 1559 628 
Q 1788 628 1948 729 
Q 2109 831 2178 953 
L 2178 1541 
L 1809 1541 
Q 1450 1541 1284 1389 
Q 1119 1238 1119 1016 
Q 1119 847 1236 737 
Q 1353 628 1559 628 
z
" transform="scale(0.015625)"/>
       <path id="Roboto-Bold-6e" d="M 1806 2713 
Q 1422 2713 1234 2388 
L 1234 0 
L 331 0 
L 331 3381 
L 1178 3381 
L 1209 2994 
Q 1572 3444 2181 3444 
Q 2659 3444 2953 3159 
Q 3247 2875 3250 2169 
L 3250 0 
L 2344 0 
L 2344 2156 
Q 2344 2481 2205 2597 
Q 2066 2713 1806 2713 
z
" transform="scale(0.015625)"/>
       <path id="Roboto-Bold-63" d="M 1753 666 
Q 2000 666 2159 802 
Q 2319 938 2322 1169 
L 3172 1169 
Q 3166 631 2761 284 
Q 2356 -63 1769 -63 
Q 984 -63 595 432 
Q 206 928 206 1647 
L 206 1734 
Q 206 2450 593 2947 
Q 981 3444 1766 3444 
Q 2388 3444 2777 3087 
Q 3166 2731 3172 2122 
L 2322 2122 
Q 2319 2369 2172 2542 
Q 2025 2716 1750 2716 
Q 1356 2716 1234 2420 
Q 1113 2125 1113 1647 
Q 1113 1256 1233 961 
Q 1353 666 1753 666 
z
" transform="scale(0.015625)"/>
       <path id="Roboto-Bold-65" d="M 3225 550 
Q 3063 319 2731 128 
Q 2400 -63 1906 -63 
Q 1119 -63 675 414 
Q 231 891 228 1566 
L 228 1697 
Q 228 2463 654 2953 
Q 1081 3444 1806 3444 
Q 2534 3444 2915 2987 
Q 3297 2531 3297 1781 
L 3297 1397 
L 1144 1397 
Q 1191 1069 1403 867 
Q 1616 666 1963 666 
Q 2478 666 2778 1044 
L 3225 550 
z
M 1800 2716 
Q 1513 2716 1356 2522 
Q 1200 2328 1153 2016 
L 2409 2016 
L 2409 2084 
Q 2403 2356 2258 2536 
Q 2113 2716 1800 2716 
z
" transform="scale(0.015625)"/>
       <path id="Roboto-Bold-5b" d="M 1728 5297 
L 1728 4600 
L 1281 4600 
L 1281 -366 
L 1728 -366 
L 1728 -1059 
L 375 -1059 
L 375 5297 
L 1728 5297 
z
" transform="scale(0.015625)"/>
       <path id="Roboto-Bold-c5" d="M 25 0 
L 1719 4550 
L 2588 4550 
L 4291 0 
L 3291 0 
L 2978 938 
L 1331 938 
L 1019 0 
L 25 0 
z
M 1584 1697 
L 2725 1697 
L 2156 3406 
L 1584 1697 
z
M 1471 5424 
Q 1471 5683 1668 5873 
Q 1865 6064 2168 6064 
Q 2468 6064 2666 5873 
Q 2865 5683 2865 5424 
Q 2865 5158 2666 4975 
Q 2468 4793 2168 4793 
Q 1865 4793 1668 4975 
Q 1471 5158 1471 5424 
z
M 1830 5423 
Q 1830 5286 1922 5187 
Q 2015 5089 2168 5089 
Q 2321 5089 2413 5187 
Q 2505 5286 2505 5423 
Q 2505 5561 2413 5662 
Q 2321 5764 2168 5764 
Q 2015 5764 1922 5662 
Q 1830 5561 1830 5423 
z
" transform="scale(0.015625)"/>
       <path id="Roboto-Bold-5d" d="M 41 4600 
L 41 5297 
L 1394 5297 
L 1394 -1059 
L 41 -1059 
L 41 -366 
L 491 -366 
L 491 4600 
L 41 4600 
z
" transform="scale(0.015625)"/>
      </defs>
      <use xlink:href="#Roboto-Bold-48"/>
      <use xlink:href="#Roboto-Bold-69" x="70.703125"/>
      <use xlink:href="#Roboto-Bold-73" x="97.216797"/>
      <use xlink:href="#Roboto-Bold-31" x="148.681641"/>
      <use xlink:href="#Roboto-Bold-34" x="206.054688"/>
      <use xlink:href="#Roboto-Bold-38" x="263.427734"/>
      <use xlink:href="#Roboto-Bold-20" x="320.800781"/>
      <use xlink:href="#Roboto-Bold-4e" x="345.703125"/>
      <use xlink:href="#Roboto-Bold-45" x="416.357422"/>
      <use xlink:href="#Roboto-Bold-32" x="472.607422"/>
      <use xlink:href="#Roboto-Bold-20" x="529.980469"/>
      <use xlink:href="#Roboto-Bold-2d" x="554.882812"/>
      <use xlink:href="#Roboto-Bold-20" x="593.701172"/>
      <use xlink:href="#Roboto-Bold-41" x="618.603516"/>
      <use xlink:href="#Roboto-Bold-72" x="685.9375"/>
      <use xlink:href="#Roboto-Bold-67" x="722.460938"/>
      <use xlink:href="#Roboto-Bold-31" x="779.589844"/>
      <use xlink:href="#Roboto-Bold-36" x="836.962891"/>
      <use xlink:href="#Roboto-Bold-38" x="894.335938"/>
      <use xlink:href="#Roboto-Bold-20" x="951.708984"/>
      <use xlink:href="#Roboto-Bold-48" x="976.611328"/>
      <use xlink:href="#Roboto-Bold-20" x="1047.314453"/>
      <use xlink:href="#Roboto-Bold-44" x="1072.216797"/>
      <use xlink:href="#Roboto-Bold-69" x="1137.255859"/>
      <use xlink:href="#Roboto-Bold-73" x="1163.769531"/>
      <use xlink:href="#Roboto-Bold-74" x="1215.234375"/>
      <use xlink:href="#Roboto-Bold-61" x="1249.023438"/>
      <use xlink:href="#Roboto-Bold-6e" x="1302.636719"/>
      <use xlink:href="#Roboto-Bold-63" x="1358.642578"/>
      <use xlink:href="#Roboto-Bold-65" x="1410.839844"/>
      <use xlink:href="#Roboto-Bold-20" x="1464.892578"/>
      <use xlink:href="#Roboto-Bold-5b" x="1489.794922"/>
      <use xlink:href="#Roboto-Bold-c5" x="1517.626953"/>
      <use xlink:href="#Roboto-Bold-5d" x="1584.960938"/>
     </g>
    </g>
   </g>
   <g id="matplotlib.axis_2">
    <g id="ytick_1">
     <g id="line2d_10">
      <defs>
       <path id="m2c1d31e977" d="M 0 0 
L -3.5 0 
" style="stroke: #c2c1c1; stroke-width: 0.8"/>
      </defs>
      <g>
       <use xlink:href="#m2c1d31e977" x="43.31" y="179.44" style="fill: #c2c1c1; stroke: #c2c1c1; stroke-width: 0.8"/>
      </g>
     </g>
     <g id="text_8">
      <!-- −1.0 -->
      <g style="fill: #191919" transform="translate(20.63375 182.44) scale(0.08 -0.08)">
       <defs>
        <path id="Roboto-Regular-2212" d="M 3134 2509 
L 3134 2034 
L 525 2034 
L 525 2509 
L 3134 2509 
z
" transform="scale(0.015625)"/>
        <path id="Roboto-Regular-2e" d="M 450 306 
Q 450 453 542 554 
Q 634 656 809 656 
Q 984 656 1076 554 
Q 1169 453 1169 306 
Q 1169 163 1076 62 
Q 984 -38 809 -38 
Q 634 -38 542 62 
Q 450 163 450 306 
z
" transform="scale(0.015625)"/>
        <path id="Roboto-Regular-30" d="M 3234 1944 
Q 3234 825 2848 381 
Q 2463 -63 1800 -63 
Q 1156 -63 764 368 
Q 372 800 359 1872 
L 359 2638 
Q 359 3753 750 4183 
Q 1141 4613 1794 4613 
Q 2447 4613 2834 4195 
Q 3222 3778 3234 2709 
L 3234 1944 
z
M 2653 2734 
Q 2653 3503 2434 3822 
Q 2216 4141 1794 4141 
Q 1388 4141 1167 3831 
Q 947 3522 941 2778 
L 941 1850 
Q 941 1088 1164 750 
Q 1388 413 1800 413 
Q 2222 413 2436 745 
Q 2650 1078 2653 1825 
L 2653 2734 
z
" transform="scale(0.015625)"/>
       </defs>
       <use xlink:href="#Roboto-Regular-2212"/>
       <use xlink:href="#Roboto-Regular-31" x="57.177734"/>
       <use xlink:href="#Roboto-Regular-2e" x="113.378906"/>
       <use xlink:href="#Roboto-Regular-30" x="139.746094"/>
      </g>
     </g>
    </g>
    <g id="ytick_2">
     <g id="line2d_11">
      <g>
       <use xlink:href="#m2c1d31e977" x="43.31" y="151.477333" style="fill: #c2c1c1; stroke: #c2c1c1; stroke-width: 0.8"/>
      </g>
     </g>
     <g id="text_9">
      <!-- −0.5 -->
      <g style="fill: #191919" transform="translate(20.63375 154.477333) scale(0.08 -0.08)">
       <use xlink:href="#Roboto-Regular-2212"/>
       <use xlink:href="#Roboto-Regular-30" x="57.177734"/>
       <use xlink:href="#Roboto-Regular-2e" x="113.378906"/>
       <use xlink:href="#Roboto-Regular-35" x="139.746094"/>
      </g>
     </g>
    </g>
    <g id="ytick_3">
     <g id="line2d_12">
      <g>
       <use xlink:href="#m2c1d31e977" x="43.31" y="123.514667" style="fill: #c2c1c1; stroke: #c2c1c1; stroke-width: 0.8"/>
      </g>
     </g>
     <g id="text_10">
      <!-- 0.0 -->
      <g style="fill: #191919" transform="translate(25.2075 126.514667) scale(0.08 -0.08)">
       <use xlink:href="#Roboto-Regular-30"/>
       <use xlink:href="#Roboto-Regular-2e" x="56.201172"/>
       <use xlink:href="#Roboto-Regular-30" x="82.568359"/>
      </g>
     </g>
    </g>
    <g id="ytick_4">
     <g id="line2d_13">
      <g>
       <use xlink:href="#m2c1d31e977" x="43.31" y="95.552" style="fill: #c2c1c1; stroke: #c2c1c1; stroke-width: 0.8"/>
      </g>
     </g>
     <g id="text_11">
      <!-- 0.5 -->
      <g style="fill: #191919" transform="translate(25.2075 98.552) scale(0.08 -0.08)">
       <use xlink:href="#Roboto-Regular-30"/>
       <use xlink:href="#Roboto-Regular-2e" x="56.201172"/>
       <use xlink:href="#Roboto-Regular-35" x="82.568359"/>
      </g>
     </g>
    </g>
    <g id="ytick_5">
     <g id="line2d_14">
      <g>
       <use xlink:href="#m2c1d31e977" x="43.31" y="67.589333" style="fill: #c2c1c1; stroke: #c2c1c1; stroke-width: 0.8"/>
      </g>
     </g>
     <g id="text_12">
      <!-- 1.0 -->
      <g style="fill: #191919" transform="translate(25.2075 70.589333) scale(0.08 -0.08)">
       <use xlink:href="#Roboto-Regular-31"/>
       <use xlink:href="#Roboto-Regular-2e" x="56.201172"/>
       <use xlink:href="#Roboto-Regular-30" x="82.568359"/>
      </g>
     </g>
    </g>
    <g id="ytick_6">
     <g id="line2d_15">
      <g>
       <use xlink:href="#m2c1d31e977" x="43.31" y="39.626667" style="fill: #c2c1c1; stroke: #c2c1c1; stroke-width: 0.8"/>
      </g>
     </g>
     <g id="text_13">
      <!-- 1.5 -->
      <g style="fill: #191919" transform="translate(25.2075 42.626667) scale(0.08 -0.08)">
       <use xlink:href="#Roboto-Regular-31"/>
       <use xlink:href="#Roboto-Regular-2e" x="56.201172"/>
       <use xlink:href="#Roboto-Regular-35" x="82.568359"/>
      </g>
     </g>
    </g>
    <g id="ytick_7">
     <g id="line2d_16">
      <g>
       <use xlink:href="#m2c1d31e977" x="43.31" y="11.664" style="fill: #c2c1c1; stroke: #c2c1c1; stroke-width: 0.8"/>
      </g>
     </g>
     <g id="text_14">
      <!-- 2.0 -->
      <g style="fill: #191919" transform="translate(25.2075 14.664) scale(0.08 -0.08)">
       <use xlink:href="#Roboto-Regular-32"/>
       <use xlink:href="#Roboto-Regular-2e" x="56.201172"/>
       <use xlink:href="#Roboto-Regular-30" x="82.568359"/>
      </g>
     </g>
    </g>
    <g id="text_15">
     <!-- PMF [kcal/mol] -->
     <g style="fill: #191919" transform="translate(15.00875 122.765125) rotate(-90) scale(0.08 -0.08)">
      <defs>
       <path id="Roboto-Bold-50" d="M 1347 1606 
L 1347 0 
L 406 0 
L 406 4550 
L 2184 4550 
Q 2991 4550 3442 4125 
Q 3894 3700 3894 3047 
Q 3894 2388 3442 1997 
Q 2991 1606 2184 1606 
L 1347 1606 
z
M 1347 3791 
L 1347 2363 
L 2184 2363 
Q 2588 2363 2766 2553 
Q 2944 2744 2944 3041 
Q 2944 3338 2766 3564 
Q 2588 3791 2184 3791 
L 1347 3791 
z
" transform="scale(0.015625)"/>
       <path id="Roboto-Bold-4d" d="M 2800 1250 
L 3966 4550 
L 5194 4550 
L 5194 0 
L 4253 0 
L 4253 1244 
L 4347 3381 
L 3122 0 
L 2478 0 
L 1253 3381 
L 1347 1244 
L 1347 0 
L 406 0 
L 406 4550 
L 1634 4550 
L 2800 1250 
z
" transform="scale(0.015625)"/>
       <path id="Roboto-Bold-46" d="M 406 0 
L 406 4550 
L 3372 4550 
L 3372 3791 
L 1347 3791 
L 1347 2616 
L 3147 2616 
L 3147 1859 
L 1347 1859 
L 1347 0 
L 406 0 
z
" transform="scale(0.015625)"/>
       <path id="Roboto-Bold-6b" d="M 2444 0 
L 1575 1356 
L 1253 1034 
L 1253 0 
L 350 0 
L 350 4803 
L 1253 4803 
L 1253 2144 
L 1428 2369 
L 2291 3381 
L 3375 3381 
L 2156 1975 
L 3484 0 
L 2444 0 
z
" transform="scale(0.015625)"/>
       <path id="Roboto-Bold-6c" d="M 1303 4800 
L 1303 0 
L 397 0 
L 397 4800 
L 1303 4800 
z
" transform="scale(0.015625)"/>
       <path id="Roboto-Bold-2f" d="M 2306 4550 
L 631 -391 
L -41 -391 
L 1634 4550 
L 2306 4550 
z
" transform="scale(0.015625)"/>
       <path id="Roboto-Bold-6d" d="M 1806 2713 
Q 1431 2713 1253 2394 
L 1253 0 
L 347 0 
L 347 3381 
L 1197 3381 
L 1228 3009 
Q 1581 3444 2197 3444 
Q 2850 3444 3094 2928 
Q 3441 3444 4109 3444 
Q 4597 3444 4894 3156 
Q 5191 2869 5194 2169 
L 5194 0 
L 4288 0 
L 4288 2156 
Q 4288 2494 4152 2603 
Q 4016 2713 3781 2713 
Q 3381 2713 3222 2334 
L 3222 0 
L 2319 0 
L 2319 2150 
Q 2319 2484 2181 2598 
Q 2044 2713 1806 2713 
z
" transform="scale(0.015625)"/>
       <path id="Roboto-Bold-6f" d="M 206 1722 
Q 206 2459 625 2951 
Q 1044 3444 1806 3444 
Q 2578 3444 2993 2951 
Q 3409 2459 3409 1722 
L 3409 1656 
Q 3409 919 2993 428 
Q 2578 -63 1813 -63 
Q 1053 -63 636 415 
Q 219 894 206 1616 
L 206 1722 
z
M 1113 1656 
Q 1113 1244 1270 955 
Q 1428 666 1813 666 
Q 2191 666 2348 953 
Q 2506 1241 2506 1722 
Q 2506 2125 2348 2420 
Q 2191 2716 1806 2716 
Q 1425 2716 1269 2422 
Q 1113 2128 1113 1656 
z
" transform="scale(0.015625)"/>
      </defs>
      <use xlink:href="#Roboto-Bold-50"/>
      <use xlink:href="#Roboto-Bold-4d" x="64.550781"/>
      <use xlink:href="#Roboto-Bold-46" x="152.148438"/>
      <use xlink:href="#Roboto-Bold-20" x="206.982422"/>
      <use xlink:href="#Roboto-Bold-5b" x="231.884766"/>
      <use xlink:href="#Roboto-Bold-6b" x="259.716797"/>
      <use xlink:href="#Roboto-Bold-63" x="313.134766"/>
      <use xlink:href="#Roboto-Bold-61" x="365.332031"/>
      <use xlink:href="#Roboto-Bold-6c" x="418.945312"/>
      <use xlink:href="#Roboto-Bold-2f" x="445.458984"/>
      <use xlink:href="#Roboto-Bold-6d" x="482.861328"/>
      <use xlink:href="#Roboto-Bold-6f" x="569.433594"/>
      <use xlink:href="#Roboto-Bold-6c" x="625.976562"/>
      <use xlink:href="#Roboto-Bold-5d" x="652.490234"/>
     </g>
    </g>
   </g>
   <g id="line2d_17">
    <path d="M 70.7184 -1 
L 71.428843 22.586549 
L 72.220923 56.544014 
L 75.389244 147.687091 
L 76.577364 173.023208 
L 77.765484 193.796436 
L 78.953604 210.006102 
L 79.509219 217 
M 104.755519 217 
L 107.468487 208.072505 
L 108.260567 205.397752 
L 109.052647 201.229981 
L 109.844727 197.132991 
L 111.032848 192.700871 
L 112.220968 189.23468 
L 113.805128 183.098148 
L 114.993248 177.377696 
L 115.785328 175.629658 
L 116.577408 173.473518 
L 117.765528 170.540382 
L 118.161568 168.682403 
L 118.953648 163.47483 
L 119.349689 161.841939 
L 119.745729 161.407166 
L 120.141769 161.267117 
L 120.537809 160.283711 
L 122.914049 149.158658 
L 124.102169 146.086826 
L 124.894249 142.825793 
L 126.082369 139.742597 
L 126.874449 135.072039 
L 127.270489 132.711605 
L 127.666529 131.469512 
L 128.06257 131.147755 
L 128.45861 130.441384 
L 129.64673 125.119676 
L 130.04277 125.282908 
L 130.43881 125.625021 
L 130.83485 124.825169 
L 131.62693 121.505217 
L 132.02297 120.964912 
L 132.41901 121.150033 
L 132.81505 121.009274 
L 133.60713 119.768135 
L 134.39921 119.274373 
L 134.79525 118.654901 
L 135.19129 116.804634 
L 135.98337 110.366099 
L 136.37941 108.747688 
L 137.171491 108.126338 
L 137.963571 105.922408 
L 138.359611 105.846455 
L 138.755651 106.492561 
L 139.151691 106.375322 
L 139.943771 104.517785 
L 140.339811 104.5656 
L 140.735851 105.034272 
L 141.131891 105.707096 
L 141.527931 106.002803 
L 141.923971 105.286357 
L 143.112091 101.387354 
L 143.508131 100.277136 
L 143.904171 99.528201 
L 144.300211 99.81279 
L 144.696251 100.697465 
L 145.092291 100.542052 
L 145.884372 96.839277 
L 146.280412 96.429107 
L 147.072492 97.691345 
L 147.468532 97.615199 
L 149.052692 94.073759 
L 149.448732 93.061321 
L 149.844772 93.452834 
L 150.240812 94.697768 
L 150.636852 95.218744 
L 151.032892 94.806446 
L 151.428932 94.004924 
L 151.824972 92.260185 
L 153.013092 83.151534 
L 153.409132 82.50412 
L 153.805172 82.350266 
L 154.201212 83.153551 
L 154.993293 86.324477 
L 155.389333 87.059526 
L 155.785373 87.114897 
L 156.181413 85.528647 
L 156.973493 77.607991 
L 157.369533 75.901623 
L 158.161613 76.803832 
L 158.557653 75.917399 
L 158.953693 73.785747 
L 159.745773 68.10423 
L 160.141813 66.343866 
L 160.537853 65.676095 
L 160.933893 66.269331 
L 161.329933 67.209308 
L 161.725973 66.370497 
L 162.122013 63.073753 
L 162.914093 55.15634 
L 163.310133 52.714235 
L 163.706174 51.136772 
L 164.102214 50.988549 
L 164.498254 52.471335 
L 164.894294 52.960834 
L 165.290334 49.976696 
L 166.082414 40.16401 
L 166.478454 38.147054 
L 166.874494 37.043288 
L 167.270534 34.347231 
L 167.666574 29.799863 
L 168.062614 26.876771 
L 168.458654 28.341497 
L 169.250734 35.175912 
L 169.646774 37.559666 
L 170.042814 38.85635 
L 170.438854 38.104007 
L 170.834894 34.694437 
L 171.230934 27.923764 
L 172.023014 3.465359 
L 172.419055 1.114939 
L 172.815095 7.895629 
L 173.211135 11.00179 
L 173.607175 6.877776 
L 173.991296 -1 
M 179.263248 -1 
L 179.547775 2.823072 
L 179.943815 3.372962 
L 180.339855 1.72189 
L 180.585713 -1 
L 180.585713 -1 
" clip-path="url(#p378b31d582)" style="fill: none; stroke: #f99752; stroke-width: 1.5; stroke-linecap: square"/>
   </g>
   <g id="patch_3">
    <path d="M 43.31 179.44 
L 43.31 11.664 
" style="fill: none; stroke: #c2c1c1; stroke-width: 0.8; stroke-linejoin: miter; stroke-linecap: square"/>
   </g>
   <g id="patch_4">
    <path d="M 241.11 179.44 
L 241.11 11.664 
" style="fill: none; stroke: #c2c1c1; stroke-width: 0.8; stroke-linejoin: miter; stroke-linecap: square"/>
   </g>
   <g id="patch_5">
    <path d="M 43.31 179.44 
L 241.11 179.44 
" style="fill: none; stroke: #c2c1c1; stroke-width: 0.8; stroke-linejoin: miter; stroke-linecap: square"/>
   </g>
   <g id="patch_6">
    <path d="M 43.31 11.664 
L 241.11 11.664 
" style="fill: none; stroke: #c2c1c1; stroke-width: 0.8; stroke-linejoin: miter; stroke-linecap: square"/>
   </g>
   <g id="legend_1">
    <g id="line2d_18">
     <path d="M 180.475 143.93625 
L 188.475 143.93625 
L 196.475 143.93625 
" style="fill: none; stroke: #1e2e79; stroke-width: 1.5; stroke-linecap: square"/>
    </g>
    <g id="text_16">
     <!-- Reduced -->
     <g transform="translate(202.875 146.73625) scale(0.08 -0.08)">
      <defs>
       <path id="Roboto-Regular-52" d="M 3188 0 
L 2200 1844 
L 1131 1844 
L 1131 0 
L 528 0 
L 528 4550 
L 2034 4550 
Q 2800 4550 3214 4200 
Q 3628 3850 3628 3184 
Q 3628 2759 3398 2442 
Q 3169 2125 2763 1969 
L 3831 38 
L 3831 0 
L 3188 0 
z
M 1131 4056 
L 1131 2334 
L 2053 2334 
Q 2538 2334 2783 2582 
Q 3028 2831 3028 3184 
Q 3028 3578 2792 3817 
Q 2556 4056 2034 4056 
L 1131 4056 
z
" transform="scale(0.015625)"/>
       <path id="Roboto-Regular-65" d="M 3116 591 
Q 2950 341 2647 139 
Q 2344 -63 1844 -63 
Q 1138 -63 714 396 
Q 291 856 291 1572 
L 291 1703 
Q 291 2256 502 2645 
Q 713 3034 1050 3239 
Q 1388 3444 1769 3444 
Q 2494 3444 2826 2970 
Q 3159 2497 3159 1788 
L 3159 1528 
L 872 1528 
Q 884 1063 1148 736 
Q 1413 409 1875 409 
Q 2181 409 2393 534 
Q 2606 659 2766 869 
L 3116 591 
z
M 1769 2969 
Q 1425 2969 1187 2719 
Q 950 2469 891 2000 
L 2581 2000 
L 2581 2044 
Q 2559 2381 2386 2675 
Q 2213 2969 1769 2969 
z
" transform="scale(0.015625)"/>
       <path id="Roboto-Regular-64" d="M 2622 0 
L 2594 363 
Q 2247 -63 1628 -63 
Q 1034 -63 668 418 
Q 303 900 297 1628 
L 297 1719 
Q 297 2494 664 2969 
Q 1031 3444 1634 3444 
Q 2231 3444 2572 3044 
L 2572 4800 
L 3153 4800 
L 3153 0 
L 2622 0 
z
M 878 1653 
Q 878 1150 1090 789 
Q 1303 428 1772 428 
Q 2309 428 2572 919 
L 2572 2475 
Q 2313 2956 1778 2956 
Q 1306 2956 1092 2589 
Q 878 2222 878 1719 
L 878 1653 
z
" transform="scale(0.015625)"/>
       <path id="Roboto-Regular-75" d="M 2538 0 
L 2525 334 
Q 2194 -63 1538 -63 
Q 1041 -63 734 231 
Q 428 525 428 1200 
L 428 3381 
L 1006 3381 
L 1006 1194 
Q 1006 738 1198 583 
Q 1391 428 1628 428 
Q 2281 428 2509 919 
L 2509 3381 
L 3091 3381 
L 3091 0 
L 2538 0 
z
" transform="scale(0.015625)"/>
       <path id="Roboto-Regular-63" d="M 1794 413 
Q 2103 413 2336 597 
Q 2569 781 2591 1069 
L 3141 1069 
Q 3119 616 2725 276 
Q 2331 -63 1794 -63 
Q 1031 -63 661 440 
Q 291 944 291 1625 
L 291 1756 
Q 291 2438 661 2941 
Q 1031 3444 1794 3444 
Q 2388 3444 2753 3092 
Q 3119 2741 3141 2219 
L 2591 2219 
Q 2569 2531 2355 2750 
Q 2141 2969 1794 2969 
Q 1438 2969 1236 2787 
Q 1034 2606 951 2328 
Q 869 2050 869 1756 
L 869 1625 
Q 869 1328 950 1050 
Q 1031 772 1232 592 
Q 1434 413 1794 413 
z
" transform="scale(0.015625)"/>
      </defs>
      <use xlink:href="#Roboto-Regular-52"/>
      <use xlink:href="#Roboto-Regular-65" x="61.621094"/>
      <use xlink:href="#Roboto-Regular-64" x="114.648438"/>
      <use xlink:href="#Roboto-Regular-75" x="171.044922"/>
      <use xlink:href="#Roboto-Regular-63" x="226.171875"/>
      <use xlink:href="#Roboto-Regular-65" x="278.515625"/>
      <use xlink:href="#Roboto-Regular-64" x="331.542969"/>
     </g>
    </g>
    <g id="line2d_19">
     <path d="M 180.475 155.56125 
L 188.475 155.56125 
L 196.475 155.56125 
" style="fill: none; stroke: #ec4067; stroke-width: 1.5; stroke-linecap: square"/>
    </g>
    <g id="text_17">
     <!-- Oxidized -->
     <g transform="translate(202.875 158.36125) scale(0.08 -0.08)">
      <defs>
       <path id="Roboto-Regular-4f" d="M 4031 2131 
Q 4031 1106 3534 521 
Q 3038 -63 2206 -63 
Q 1397 -63 884 521 
Q 372 1106 372 2131 
L 372 2419 
Q 372 3441 881 4027 
Q 1391 4613 2200 4613 
Q 3025 4613 3523 4036 
Q 4022 3459 4031 2456 
L 4031 2131 
z
M 3434 2425 
Q 3434 3238 3109 3669 
Q 2784 4100 2200 4100 
Q 1641 4100 1305 3669 
Q 969 3238 969 2425 
L 969 2131 
Q 969 1313 1308 880 
Q 1647 447 2206 447 
Q 2794 447 3114 880 
Q 3434 1313 3434 2131 
L 3434 2425 
z
" transform="scale(0.015625)"/>
       <path id="Roboto-Regular-78" d="M 831 3381 
L 1572 2150 
L 2322 3381 
L 3000 3381 
L 1894 1713 
L 3034 0 
L 2366 0 
L 1584 1269 
L 803 0 
L 131 0 
L 1269 1713 
L 166 3381 
L 831 3381 
z
" transform="scale(0.015625)"/>
       <path id="Roboto-Regular-69" d="M 444 4278 
Q 444 4419 530 4516 
Q 616 4613 784 4613 
Q 950 4613 1039 4516 
Q 1128 4419 1128 4278 
Q 1128 4144 1039 4048 
Q 950 3953 784 3953 
Q 616 3953 530 4048 
Q 444 4144 444 4278 
z
M 1069 3381 
L 1069 0 
L 488 0 
L 488 3381 
L 1069 3381 
z
" transform="scale(0.015625)"/>
       <path id="Roboto-Regular-7a" d="M 303 2903 
L 303 3381 
L 2869 3381 
L 2869 2972 
L 988 475 
L 2959 475 
L 2959 0 
L 278 0 
L 278 425 
L 2141 2903 
L 303 2903 
z
" transform="scale(0.015625)"/>
      </defs>
      <use xlink:href="#Roboto-Regular-4f"/>
      <use xlink:href="#Roboto-Regular-78" x="68.798828"/>
      <use xlink:href="#Roboto-Regular-69" x="118.408203"/>
      <use xlink:href="#Roboto-Regular-64" x="142.724609"/>
      <use xlink:href="#Roboto-Regular-69" x="199.121094"/>
      <use xlink:href="#Roboto-Regular-7a" x="223.4375"/>
      <use xlink:href="#Roboto-Regular-65" x="273.046875"/>
      <use xlink:href="#Roboto-Regular-64" x="326.074219"/>
     </g>
    </g>
    <g id="line2d_20">
     <path d="M 180.475 167.60375 
L 188.475 167.60375 
L 196.475 167.60375 
" style="fill: none; stroke: #f99752; stroke-width: 1.5; stroke-linecap: square"/>
    </g>
    <g id="text_18">
     <!-- Cu(I) -->
     <g transform="translate(202.875 170.40375) scale(0.08 -0.08)">
      <defs>
       <path id="Roboto-Regular-43" d="M 3275 1447 
L 3875 1447 
Q 3806 800 3387 368 
Q 2969 -63 2150 -63 
Q 1356 -63 870 504 
Q 384 1072 375 2013 
L 375 2500 
Q 375 3456 867 4034 
Q 1359 4613 2203 4613 
Q 2975 4613 3390 4188 
Q 3806 3763 3875 3091 
L 3275 3091 
Q 3206 3566 2968 3842 
Q 2731 4119 2203 4119 
Q 1600 4119 1287 3675 
Q 975 3231 975 2506 
L 975 2047 
Q 975 1375 1259 901 
Q 1544 428 2150 428 
Q 2725 428 2961 697 
Q 3197 966 3275 1447 
z
" transform="scale(0.015625)"/>
       <path id="Roboto-Regular-28" d="M 419 1850 
Q 419 2756 678 3434 
Q 938 4113 1294 4541 
Q 1650 4969 1947 5134 
L 2069 4753 
Q 1700 4475 1348 3761 
Q 997 3047 997 1813 
Q 997 625 1348 -97 
Q 1700 -819 2069 -1119 
L 1947 -1469 
Q 1650 -1306 1294 -878 
Q 938 -450 678 226 
Q 419 903 419 1850 
z
" transform="scale(0.015625)"/>
       <path id="Roboto-Regular-49" d="M 1175 4550 
L 1175 0 
L 572 0 
L 572 4550 
L 1175 4550 
z
" transform="scale(0.015625)"/>
       <path id="Roboto-Regular-29" d="M 1772 1819 
Q 1772 906 1512 228 
Q 1253 -450 895 -878 
Q 538 -1306 244 -1469 
L 122 -1119 
Q 488 -841 841 -109 
Q 1194 622 1194 1856 
Q 1194 2647 1019 3236 
Q 844 3825 594 4212 
Q 344 4600 122 4781 
L 244 5134 
Q 538 4969 895 4541 
Q 1253 4113 1512 3436 
Q 1772 2759 1772 1819 
z
" transform="scale(0.015625)"/>
      </defs>
      <use xlink:href="#Roboto-Regular-43"/>
      <use xlink:href="#Roboto-Regular-75" x="65.087891"/>
      <use xlink:href="#Roboto-Regular-28" x="120.214844"/>
      <use xlink:href="#Roboto-Regular-49" x="154.443359"/>
      <use xlink:href="#Roboto-Regular-29" x="181.640625"/>
     </g>
    </g>
   </g>
  </g>
 </g>
 <defs>
  <clipPath id="p378b31d582">
   <rect x="43.31" y="11.664" width="197.8" height="167.776"/>
  </clipPath>
 </defs>
</svg>
