<?xml version="1.0" encoding="utf-8" standalone="no"?>
<!DOCTYPE svg PUBLIC "-//W3C//DTD SVG 1.1//EN"
  "http://www.w3.org/Graphics/SVG/1.1/DTD/svg11.dtd">
<svg xmlns:xlink="http://www.w3.org/1999/xlink" width="460.8pt" height="345.6pt" viewBox="0 0 460.8 345.6" xmlns="http://www.w3.org/2000/svg" version="1.1">
 <metadata>
  <rdf:RDF xmlns:dc="http://purl.org/dc/elements/1.1/" xmlns:cc="http://creativecommons.org/ns#" xmlns:rdf="http://www.w3.org/1999/02/22-rdf-syntax-ns#">
   <cc:Work>
    <dc:type rdf:resource="http://purl.org/dc/dcmitype/StillImage"/>
    <dc:date>2024-08-13T09:58:51.411037</dc:date>
    <dc:format>image/svg+xml</dc:format>
    <dc:creator>
     <cc:Agent>
      <dc:title>Matplotlib v3.9.1, https://matplotlib.org/</dc:title>
     </cc:Agent>
    </dc:creator>
   </cc:Work>
  </rdf:RDF>
 </metadata>
 <defs>
  <style type="text/css">*{stroke-linejoin: round; stroke-linecap: butt}</style>
 </defs>
 <g id="figure_1">
  <g id="patch_1">
   <path d="M 0 345.6 
L 460.8 345.6 
L 460.8 0 
L 0 0 
z
" style="fill: #ffffff"/>
  </g>
  <g id="axes_1">
   <g id="patch_2">
    <path d="M 36.704 309.4 
L 452.16 309.4 
L 452.16 11.664 
L 36.704 11.664 
z
" style="fill: #ffffff"/>
   </g>
   <g id="line2d_1">
    <path d="M 36.704 210.154667 
L 452.16 210.154667 
" clip-path="url(#p5b1946a6b7)" style="fill: none; stroke-dasharray: 1.75,2.8875; stroke-dashoffset: 0; stroke: #c0c0c0; stroke-width: 1.75"/>
   </g>
   <g id="line2d_2">
    <path d="M 62.016557 -1 
L 62.413353 8.022112 
L 65.627022 67.412337 
L 68.840691 114.710438 
L 72.05436 151.004131 
L 75.268029 177.038905 
L 78.481698 194.271108 
L 81.695367 204.351733 
L 84.909037 208.795938 
L 88.122706 208.900646 
L 91.336375 205.707346 
L 94.550044 199.798802 
L 97.763713 191.754124 
L 100.977382 182.200768 
L 107.40472 161.97138 
L 113.832058 141.015531 
L 120.259397 120.089066 
L 126.686735 101.302108 
L 129.900404 93.11249 
L 133.114073 86.650212 
L 136.327742 79.640548 
L 139.541411 77.743105 
L 142.75508 77.382422 
L 145.968749 74.173334 
L 149.182419 74.382951 
L 152.396088 79.697001 
L 155.609757 82.297842 
L 158.823426 81.604655 
L 162.037095 83.336001 
L 165.250764 85.682858 
L 168.464433 86.466628 
L 171.678102 89.051564 
L 174.891771 92.379691 
L 178.10544 97.774095 
L 181.31911 104.377672 
L 187.746448 116.331076 
L 190.960117 123.411604 
L 194.173786 131.819 
L 197.387455 139.132143 
L 207.028462 158.123983 
L 210.242131 163.183641 
L 213.455801 167.229624 
L 216.66947 170.724313 
L 219.883139 173.179486 
L 223.096808 174.950261 
L 226.310477 176.478785 
L 229.524146 176.88844 
L 232.737815 176.400393 
L 235.951484 175.676011 
L 239.165153 175.068396 
L 242.378823 173.642972 
L 245.592492 171.037282 
L 248.806161 167.734891 
L 252.01983 164.612649 
L 255.233499 162.530818 
L 258.447168 161.829597 
L 261.660837 161.720331 
L 264.874506 162.553798 
L 268.088175 164.412549 
L 271.301844 167.049795 
L 274.515514 170.341008 
L 277.729183 175.294518 
L 280.942852 180.734634 
L 287.37019 190.882041 
L 290.583859 195.274222 
L 293.797528 198.876085 
L 297.011197 201.851961 
L 300.224866 204.596947 
L 303.438535 206.711674 
L 309.865874 209.517631 
L 313.079543 210.210061 
L 316.293212 210.180996 
L 329.147888 208.453407 
L 335.575226 206.815936 
L 338.788896 206.084742 
L 342.002565 205.063478 
L 345.216234 203.737276 
L 351.643572 200.56623 
L 354.857241 198.454884 
L 358.07091 195.881135 
L 364.498248 190.982319 
L 367.711917 187.717496 
L 370.925587 184.063202 
L 374.139256 179.948626 
L 377.352925 175.408835 
L 380.566594 170.63034 
L 383.780263 166.157406 
L 386.993932 161.385451 
L 390.207601 155.296687 
L 393.42127 148.395682 
L 403.062278 129.852858 
L 406.275947 122.611843 
L 409.489616 114.633905 
L 422.344292 77.642419 
L 425.557961 68.442207 
L 428.77163 58.025804 
L 431.9853 46.124714 
L 435.198969 38.851684 
L 438.412638 30.491985 
L 441.626307 15.448739 
L 444.595963 -1 
L 444.595963 -1 
" clip-path="url(#p5b1946a6b7)" style="fill: none; stroke: #1e2e79; stroke-width: 2.5; stroke-linecap: square"/>
   </g>
   <g id="line2d_3">
    <path d="M 68.553519 -1 
L 68.840691 15.688159 
L 72.05436 48.373673 
L 75.268029 68.940809 
L 78.481698 99.074327 
L 81.695367 110.232024 
L 84.909037 116.960392 
L 88.122706 117.394652 
L 91.336375 118.100763 
L 94.550044 115.478826 
L 97.763713 110.258398 
L 100.977382 102.389646 
L 104.191051 93.590253 
L 110.618389 68.713057 
L 113.832058 70.30154 
L 117.045728 66.509957 
L 120.259397 64.732915 
L 123.473066 31.531995 
L 126.686735 47.47274 
L 129.900404 38.619815 
L 133.114073 43.748847 
L 136.327742 38.058705 
L 139.541411 43.662336 
L 142.75508 42.835733 
L 145.968749 40.349461 
L 149.182419 40.209035 
L 152.396088 58.66123 
L 155.609757 53.158777 
L 158.823426 62.734248 
L 162.037095 61.18324 
L 165.250764 55.834833 
L 168.464433 58.06934 
L 171.678102 66.990616 
L 174.891771 66.667143 
L 178.10544 60.760953 
L 181.31911 53.770779 
L 184.532779 40.017106 
L 187.746448 51.255037 
L 190.960117 61.03262 
L 194.173786 52.447068 
L 197.387455 51.04477 
L 200.601124 48.224472 
L 203.814793 60.393281 
L 207.028462 55.991505 
L 210.242131 69.134054 
L 213.455801 67.721275 
L 216.66947 68.827007 
L 219.883139 69.638787 
L 223.096808 75.723717 
L 226.310477 77.202163 
L 229.524146 85.388096 
L 232.737815 84.023122 
L 235.951484 90.131262 
L 239.165153 93.502224 
L 242.378823 98.839791 
L 245.592492 102.21644 
L 248.806161 104.844414 
L 252.01983 110.896335 
L 255.233499 111.882682 
L 258.447168 119.231437 
L 261.660837 125.125234 
L 264.874506 130.562932 
L 268.088175 134.45614 
L 271.301844 141.115973 
L 274.515514 146.828681 
L 277.729183 153.870669 
L 280.942852 157.823907 
L 284.156521 165.884252 
L 287.37019 171.145958 
L 290.583859 174.936454 
L 293.797528 180.746582 
L 297.011197 187.521362 
L 300.224866 190.69364 
L 303.438535 196.159717 
L 306.652205 201.115281 
L 309.865874 205.272786 
L 313.079543 210.579178 
L 316.293212 212.885886 
L 319.506881 217.001687 
L 325.934219 223.362525 
L 329.147888 226.249071 
L 332.361557 227.677993 
L 335.575226 229.448454 
L 338.788896 230.761227 
L 342.002565 231.815232 
L 345.216234 232.403502 
L 348.429903 232.439576 
L 354.857241 230.629327 
L 361.284579 227.141942 
L 364.498248 224.122637 
L 367.711917 221.315683 
L 374.139256 214.660704 
L 377.352925 210.208743 
L 380.566594 205.077538 
L 383.780263 200.236715 
L 386.993932 192.92247 
L 390.207601 186.496266 
L 393.42127 178.518526 
L 396.634939 171.256981 
L 399.848609 163.250427 
L 403.062278 153.447462 
L 406.275947 141.228514 
L 409.489616 135.750633 
L 412.703285 124.913144 
L 415.916954 116.525211 
L 419.130623 100.768307 
L 422.344292 88.619057 
L 425.557961 79.205341 
L 431.9853 53.334873 
L 435.198969 47.82577 
L 438.412638 19.685486 
L 441.626307 11.477121 
L 442.261352 -1 
L 442.261352 -1 
" clip-path="url(#p5b1946a6b7)" style="fill: none; stroke: #ec4067; stroke-width: 2.5; stroke-linecap: square"/>
   </g>
   <g id="matplotlib.axis_1">
    <g id="xtick_1">
     <g id="line2d_4">
      <defs>
       <path id="mb134931ec2" d="M 0 0 
L 0 3.5 
" style="stroke: #c2c1c1; stroke-width: 0.8"/>
      </defs>
      <g>
       <use xlink:href="#mb134931ec2" x="36.704" y="309.4" style="fill: #c2c1c1; stroke: #c2c1c1; stroke-width: 0.8"/>
      </g>
     </g>
     <g id="text_1">
      <!-- 1 -->
      <g style="fill: #191919" transform="translate(34.455875 322.4) scale(0.08 -0.08)">
       <defs>
        <path id="Roboto-Regular-31" d="M 2278 4575 
L 2278 0 
L 1700 0 
L 1700 3853 
L 534 3428 
L 534 3950 
L 2188 4575 
L 2278 4575 
z
" transform="scale(0.015625)"/>
       </defs>
       <use xlink:href="#Roboto-Regular-31"/>
      </g>
     </g>
    </g>
    <g id="xtick_2">
     <g id="line2d_5">
      <g>
       <use xlink:href="#mb134931ec2" x="100.620308" y="309.4" style="fill: #c2c1c1; stroke: #c2c1c1; stroke-width: 0.8"/>
      </g>
     </g>
     <g id="text_2">
      <!-- 2 -->
      <g style="fill: #191919" transform="translate(98.372183 322.4) scale(0.08 -0.08)">
       <defs>
        <path id="Roboto-Regular-32" d="M 3359 475 
L 3359 0 
L 381 0 
L 381 416 
L 1925 2134 
Q 2306 2566 2439 2819 
Q 2572 3072 2572 3328 
Q 2572 3663 2364 3900 
Q 2156 4138 1778 4138 
Q 1322 4138 1097 3878 
Q 872 3619 872 3213 
L 294 3213 
Q 294 3788 672 4200 
Q 1050 4613 1778 4613 
Q 2422 4613 2786 4278 
Q 3150 3944 3150 3397 
Q 3150 2997 2903 2592 
Q 2656 2188 2297 1797 
L 1078 475 
L 3359 475 
z
" transform="scale(0.015625)"/>
       </defs>
       <use xlink:href="#Roboto-Regular-32"/>
      </g>
     </g>
    </g>
    <g id="xtick_3">
     <g id="line2d_6">
      <g>
       <use xlink:href="#mb134931ec2" x="164.536615" y="309.4" style="fill: #c2c1c1; stroke: #c2c1c1; stroke-width: 0.8"/>
      </g>
     </g>
     <g id="text_3">
      <!-- 3 -->
      <g style="fill: #191919" transform="translate(162.28849 322.4) scale(0.08 -0.08)">
       <defs>
        <path id="Roboto-Regular-33" d="M 1222 2084 
L 1222 2559 
L 1647 2559 
Q 2094 2563 2312 2784 
Q 2531 3006 2531 3338 
Q 2531 4138 1738 4138 
Q 1369 4138 1141 3927 
Q 913 3716 913 3359 
L 334 3359 
Q 334 3881 720 4247 
Q 1106 4613 1738 4613 
Q 2353 4613 2733 4286 
Q 3113 3959 3113 3325 
Q 3113 3072 2942 2784 
Q 2772 2497 2397 2338 
Q 2850 2191 3015 1884 
Q 3181 1578 3181 1269 
Q 3181 631 2768 284 
Q 2356 -63 1741 -63 
Q 1147 -63 722 267 
Q 297 597 297 1203 
L 875 1203 
Q 875 844 1108 628 
Q 1341 413 1741 413 
Q 2138 413 2369 622 
Q 2600 831 2600 1256 
Q 2600 1681 2337 1882 
Q 2075 2084 1634 2084 
L 1222 2084 
z
" transform="scale(0.015625)"/>
       </defs>
       <use xlink:href="#Roboto-Regular-33"/>
      </g>
     </g>
    </g>
    <g id="xtick_4">
     <g id="line2d_7">
      <g>
       <use xlink:href="#mb134931ec2" x="228.452923" y="309.4" style="fill: #c2c1c1; stroke: #c2c1c1; stroke-width: 0.8"/>
      </g>
     </g>
     <g id="text_4">
      <!-- 4 -->
      <g style="fill: #191919" transform="translate(226.204798 322.4) scale(0.08 -0.08)">
       <defs>
        <path id="Roboto-Regular-34" d="M 166 1397 
L 2203 4550 
L 2819 4550 
L 2819 1531 
L 3453 1531 
L 3453 1056 
L 2819 1056 
L 2819 0 
L 2241 0 
L 2241 1056 
L 166 1056 
L 166 1397 
z
M 822 1531 
L 2241 1531 
L 2241 3766 
L 2169 3638 
L 822 1531 
z
" transform="scale(0.015625)"/>
       </defs>
       <use xlink:href="#Roboto-Regular-34"/>
      </g>
     </g>
    </g>
    <g id="xtick_5">
     <g id="line2d_8">
      <g>
       <use xlink:href="#mb134931ec2" x="292.369231" y="309.4" style="fill: #c2c1c1; stroke: #c2c1c1; stroke-width: 0.8"/>
      </g>
     </g>
     <g id="text_5">
      <!-- 5 -->
      <g style="fill: #191919" transform="translate(290.121106 322.4) scale(0.08 -0.08)">
       <defs>
        <path id="Roboto-Regular-35" d="M 1109 2166 
L 647 2284 
L 875 4550 
L 3209 4550 
L 3209 4016 
L 1366 4016 
L 1228 2778 
Q 1572 2975 1988 2975 
Q 2616 2975 2980 2561 
Q 3344 2147 3344 1450 
Q 3344 797 2987 367 
Q 2631 -63 1903 -63 
Q 1350 -63 947 248 
Q 544 559 481 1197 
L 1031 1197 
Q 1141 413 1903 413 
Q 2313 413 2538 691 
Q 2763 969 2763 1444 
Q 2763 1872 2527 2164 
Q 2291 2456 1853 2456 
Q 1563 2456 1413 2378 
Q 1263 2300 1109 2166 
z
" transform="scale(0.015625)"/>
       </defs>
       <use xlink:href="#Roboto-Regular-35"/>
      </g>
     </g>
    </g>
    <g id="xtick_6">
     <g id="line2d_9">
      <g>
       <use xlink:href="#mb134931ec2" x="356.285538" y="309.4" style="fill: #c2c1c1; stroke: #c2c1c1; stroke-width: 0.8"/>
      </g>
     </g>
     <g id="text_6">
      <!-- 6 -->
      <g style="fill: #191919" transform="translate(354.037413 322.4) scale(0.08 -0.08)">
       <defs>
        <path id="Roboto-Regular-36" d="M 3291 1484 
Q 3291 838 2930 387 
Q 2569 -63 1878 -63 
Q 1388 -63 1063 198 
Q 738 459 577 861 
Q 416 1263 416 1684 
L 416 1956 
Q 416 2597 595 3194 
Q 775 3791 1247 4173 
Q 1719 4556 2597 4556 
L 2647 4556 
L 2647 4066 
Q 2041 4066 1705 3853 
Q 1369 3641 1205 3302 
Q 1041 2963 1006 2575 
Q 1369 2984 1984 2984 
Q 2438 2984 2727 2765 
Q 3016 2547 3153 2201 
Q 3291 1856 3291 1484 
z
M 997 1666 
Q 997 1059 1267 737 
Q 1538 416 1878 416 
Q 2278 416 2498 708 
Q 2719 1000 2719 1456 
Q 2719 1863 2516 2184 
Q 2313 2506 1891 2506 
Q 1588 2506 1341 2325 
Q 1094 2144 997 1884 
L 997 1666 
z
" transform="scale(0.015625)"/>
       </defs>
       <use xlink:href="#Roboto-Regular-36"/>
      </g>
     </g>
    </g>
    <g id="xtick_7">
     <g id="line2d_10">
      <g>
       <use xlink:href="#mb134931ec2" x="420.201846" y="309.4" style="fill: #c2c1c1; stroke: #c2c1c1; stroke-width: 0.8"/>
      </g>
     </g>
     <g id="text_7">
      <!-- 7 -->
      <g style="fill: #191919" transform="translate(417.953721 322.4) scale(0.08 -0.08)">
       <defs>
        <path id="Roboto-Regular-37" d="M 3319 4550 
L 3319 4225 
L 1434 0 
L 825 0 
L 2706 4075 
L 244 4075 
L 244 4550 
L 3319 4550 
z
" transform="scale(0.015625)"/>
       </defs>
       <use xlink:href="#Roboto-Regular-37"/>
      </g>
     </g>
    </g>
    <g id="text_8">
     <!-- Cro66 OH - Thr203 HG1 Distance [Å] -->
     <g style="fill: #191919" transform="translate(178.8445 335.30375) scale(0.08 -0.08)">
      <defs>
       <path id="Roboto-Bold-43" d="M 3044 1516 
L 3981 1516 
Q 3934 822 3461 379 
Q 2988 -63 2150 -63 
Q 1275 -63 772 526 
Q 269 1116 269 2125 
L 269 2422 
Q 269 3431 784 4023 
Q 1300 4616 2159 4616 
Q 3013 4616 3466 4161 
Q 3919 3706 3984 3006 
L 3047 3006 
Q 3016 3413 2820 3630 
Q 2625 3847 2159 3847 
Q 1247 3847 1222 2500 
L 1222 2125 
Q 1222 1419 1436 1062 
Q 1650 706 2150 706 
Q 2594 706 2801 907 
Q 3009 1109 3044 1516 
z
" transform="scale(0.015625)"/>
       <path id="Roboto-Bold-72" d="M 1922 2563 
Q 1413 2563 1253 2216 
L 1253 0 
L 347 0 
L 347 3381 
L 1200 3381 
L 1228 2978 
Q 1494 3444 1981 3444 
Q 2153 3444 2259 3403 
L 2250 2538 
L 1922 2563 
z
" transform="scale(0.015625)"/>
       <path id="Roboto-Bold-6f" d="M 206 1722 
Q 206 2459 625 2951 
Q 1044 3444 1806 3444 
Q 2578 3444 2993 2951 
Q 3409 2459 3409 1722 
L 3409 1656 
Q 3409 919 2993 428 
Q 2578 -63 1813 -63 
Q 1053 -63 636 415 
Q 219 894 206 1616 
L 206 1722 
z
M 1113 1656 
Q 1113 1244 1270 955 
Q 1428 666 1813 666 
Q 2191 666 2348 953 
Q 2506 1241 2506 1722 
Q 2506 2125 2348 2420 
Q 2191 2716 1806 2716 
Q 1425 2716 1269 2422 
Q 1113 2128 1113 1656 
z
" transform="scale(0.015625)"/>
       <path id="Roboto-Bold-36" d="M 3450 1500 
Q 3450 838 3033 387 
Q 2616 -63 1916 -63 
Q 1188 -63 752 443 
Q 316 950 316 1750 
L 316 2097 
Q 316 3200 925 3898 
Q 1534 4597 2634 4597 
L 2763 4597 
L 2763 3853 
L 2672 3853 
Q 2050 3844 1688 3538 
Q 1313 3219 1238 2675 
Q 1603 3047 2156 3047 
Q 2800 3047 3125 2589 
Q 3450 2131 3450 1500 
z
M 1219 1631 
Q 1219 1150 1408 909 
Q 1597 669 1900 669 
Q 2194 669 2370 901 
Q 2547 1134 2547 1491 
Q 2547 1853 2370 2087 
Q 2194 2322 1881 2322 
Q 1641 2322 1469 2198 
Q 1297 2075 1219 1903 
L 1219 1631 
z
" transform="scale(0.015625)"/>
       <path id="Roboto-Bold-20" transform="scale(0.015625)"/>
       <path id="Roboto-Bold-4f" d="M 4147 2172 
Q 4147 1131 3608 534 
Q 3069 -63 2212 -63 
Q 1356 -63 812 534 
Q 269 1131 269 2172 
L 269 2375 
Q 269 3416 809 4014 
Q 1350 4613 2206 4613 
Q 3063 4613 3605 4014 
Q 4147 3416 4147 2375 
L 4147 2172 
z
M 3197 2381 
Q 3197 3094 2937 3466 
Q 2678 3838 2206 3838 
Q 1734 3838 1478 3470 
Q 1222 3103 1219 2397 
L 1219 2172 
Q 1219 1463 1478 1086 
Q 1738 709 2213 709 
Q 2684 709 2939 1081 
Q 3194 1453 3197 2156 
L 3197 2381 
z
" transform="scale(0.015625)"/>
       <path id="Roboto-Bold-48" d="M 3175 0 
L 3175 1950 
L 1347 1950 
L 1347 0 
L 406 0 
L 406 4550 
L 1347 4550 
L 1347 2706 
L 3175 2706 
L 3175 4550 
L 4113 4550 
L 4113 0 
L 3175 0 
z
" transform="scale(0.015625)"/>
       <path id="Roboto-Bold-2d" d="M 2103 2316 
L 2103 1584 
L 347 1584 
L 347 2316 
L 2103 2316 
z
" transform="scale(0.015625)"/>
       <path id="Roboto-Bold-54" d="M 128 3791 
L 128 4550 
L 3831 4550 
L 3831 3791 
L 2441 3791 
L 2441 0 
L 1503 0 
L 1503 3791 
L 128 3791 
z
" transform="scale(0.015625)"/>
       <path id="Roboto-Bold-68" d="M 1803 2713 
Q 1409 2713 1231 2409 
L 1231 0 
L 328 0 
L 328 4800 
L 1231 4800 
L 1231 3016 
Q 1584 3444 2134 3444 
Q 2631 3444 2939 3150 
Q 3247 2856 3250 2147 
L 3250 0 
L 2344 0 
L 2344 2138 
Q 2344 2466 2203 2589 
Q 2063 2713 1803 2713 
z
" transform="scale(0.015625)"/>
       <path id="Roboto-Bold-32" d="M 3428 728 
L 3428 0 
L 313 0 
L 313 619 
L 1784 2188 
Q 2116 2553 2245 2792 
Q 2375 3031 2375 3234 
Q 2375 3538 2223 3713 
Q 2072 3888 1788 3888 
Q 1466 3888 1295 3669 
Q 1125 3450 1125 3119 
L 222 3119 
Q 222 3734 645 4175 
Q 1069 4616 1803 4616 
Q 2519 4616 2900 4270 
Q 3281 3925 3281 3325 
Q 3281 2875 3014 2470 
Q 2747 2066 2284 1581 
L 1472 728 
L 3428 728 
z
" transform="scale(0.015625)"/>
       <path id="Roboto-Bold-30" d="M 3372 1884 
Q 3372 856 2950 396 
Q 2528 -63 1840 -63 
Q 1153 -63 726 396 
Q 300 856 300 1884 
L 300 2675 
Q 300 3700 723 4156 
Q 1147 4613 1834 4613 
Q 2519 4613 2944 4159 
Q 3369 3706 3372 2691 
L 3372 1884 
z
M 2469 2800 
Q 2469 3406 2303 3645 
Q 2138 3884 1834 3884 
Q 1538 3884 1372 3650 
Q 1206 3416 1203 2825 
L 1203 1763 
Q 1203 1153 1370 909 
Q 1538 666 1841 666 
Q 2138 666 2302 905 
Q 2466 1144 2469 1738 
L 2469 2800 
z
" transform="scale(0.015625)"/>
       <path id="Roboto-Bold-33" d="M 1231 1969 
L 1231 2678 
L 1713 2678 
Q 2053 2678 2220 2848 
Q 2388 3019 2388 3306 
Q 2388 3559 2236 3723 
Q 2084 3888 1772 3888 
Q 1525 3888 1342 3750 
Q 1159 3613 1159 3372 
L 256 3372 
Q 256 3934 690 4275 
Q 1125 4616 1747 4616 
Q 2438 4616 2864 4286 
Q 3291 3956 3291 3319 
Q 3291 3025 3109 2758 
Q 2928 2491 2597 2338 
Q 2978 2203 3168 1926 
Q 3359 1650 3359 1278 
Q 3359 638 2898 287 
Q 2438 -63 1747 -63 
Q 1363 -63 1008 78 
Q 653 219 426 508 
Q 200 797 200 1247 
L 1106 1247 
Q 1106 994 1295 830 
Q 1484 666 1772 666 
Q 2094 666 2275 837 
Q 2456 1009 2456 1291 
Q 2456 1969 1706 1969 
L 1231 1969 
z
" transform="scale(0.015625)"/>
       <path id="Roboto-Bold-47" d="M 4009 2391 
L 4009 575 
Q 3847 381 3433 159 
Q 3019 -63 2269 -63 
Q 1384 -63 839 510 
Q 294 1084 294 2138 
L 294 2409 
Q 294 3463 816 4039 
Q 1338 4616 2203 4616 
Q 3088 4616 3509 4191 
Q 3931 3766 4006 3103 
L 3094 3103 
Q 3041 3447 2847 3653 
Q 2653 3859 2228 3859 
Q 1306 3859 1250 2584 
L 1247 2138 
Q 1247 1419 1514 1056 
Q 1781 694 2319 694 
Q 2656 694 2825 770 
Q 2994 847 3069 919 
L 3069 1703 
L 2219 1703 
L 2219 2391 
L 4009 2391 
z
" transform="scale(0.015625)"/>
       <path id="Roboto-Bold-31" d="M 2503 4556 
L 2503 0 
L 1600 0 
L 1600 3484 
L 525 3150 
L 525 3881 
L 2406 4556 
L 2503 4556 
z
" transform="scale(0.015625)"/>
       <path id="Roboto-Bold-44" d="M 406 0 
L 406 4550 
L 1809 4550 
Q 2728 4550 3308 3950 
Q 3888 3350 3888 2375 
L 3888 2172 
Q 3888 1197 3308 598 
Q 2728 0 1797 0 
L 406 0 
z
M 1347 3791 
L 1347 756 
L 1797 756 
Q 2350 756 2639 1115 
Q 2928 1475 2934 2144 
L 2934 2381 
Q 2934 3075 2661 3428 
Q 2388 3781 1838 3791 
L 1347 3791 
z
" transform="scale(0.015625)"/>
       <path id="Roboto-Bold-69" d="M 341 4256 
Q 341 4459 478 4592 
Q 616 4725 847 4725 
Q 1078 4725 1215 4592 
Q 1353 4459 1353 4256 
Q 1353 4056 1215 3923 
Q 1078 3791 847 3791 
Q 616 3791 478 3923 
Q 341 4056 341 4256 
z
M 1303 3381 
L 1303 0 
L 397 0 
L 397 3381 
L 1303 3381 
z
" transform="scale(0.015625)"/>
       <path id="Roboto-Bold-73" d="M 2178 938 
Q 2178 1081 2045 1179 
Q 1913 1278 1475 1372 
Q 953 1484 618 1721 
Q 284 1959 284 2394 
Q 284 2816 642 3130 
Q 1000 3444 1631 3444 
Q 2291 3444 2669 3134 
Q 3047 2825 3047 2353 
L 2144 2353 
Q 2144 2547 2019 2675 
Q 1894 2803 1628 2803 
Q 1403 2803 1276 2698 
Q 1150 2594 1150 2438 
Q 1150 2294 1284 2200 
Q 1419 2106 1781 2034 
Q 2331 1925 2693 1700 
Q 3056 1475 3056 972 
Q 3056 525 2672 231 
Q 2288 -63 1634 -63 
Q 925 -63 550 301 
Q 175 666 175 1078 
L 1034 1078 
Q 1047 813 1230 697 
Q 1413 581 1653 581 
Q 2178 581 2178 938 
z
" transform="scale(0.015625)"/>
       <path id="Roboto-Bold-74" d="M 2041 22 
Q 1788 -63 1497 -63 
Q 1053 -63 790 168 
Q 528 400 528 938 
L 528 2722 
L 31 2722 
L 31 3381 
L 528 3381 
L 528 4216 
L 1431 4216 
L 1431 3381 
L 2006 3381 
L 2006 2722 
L 1431 2722 
L 1431 1031 
Q 1431 819 1518 750 
Q 1606 681 1778 681 
Q 1916 681 2041 706 
L 2041 22 
z
" transform="scale(0.015625)"/>
       <path id="Roboto-Bold-61" d="M 2306 0 
Q 2250 119 2216 303 
Q 1888 -63 1363 -63 
Q 878 -63 547 223 
Q 216 509 216 950 
Q 216 1481 609 1773 
Q 1003 2066 1775 2066 
L 2178 2066 
L 2178 2263 
Q 2178 2497 2058 2636 
Q 1938 2775 1678 2775 
Q 1194 2775 1194 2369 
L 291 2369 
Q 291 2809 681 3126 
Q 1072 3444 1728 3444 
Q 2313 3444 2698 3147 
Q 3084 2850 3084 2256 
L 3084 750 
Q 3091 300 3219 53 
L 3219 0 
L 2306 0 
z
M 1559 628 
Q 1788 628 1948 729 
Q 2109 831 2178 953 
L 2178 1541 
L 1809 1541 
Q 1450 1541 1284 1389 
Q 1119 1238 1119 1016 
Q 1119 847 1236 737 
Q 1353 628 1559 628 
z
" transform="scale(0.015625)"/>
       <path id="Roboto-Bold-6e" d="M 1806 2713 
Q 1422 2713 1234 2388 
L 1234 0 
L 331 0 
L 331 3381 
L 1178 3381 
L 1209 2994 
Q 1572 3444 2181 3444 
Q 2659 3444 2953 3159 
Q 3247 2875 3250 2169 
L 3250 0 
L 2344 0 
L 2344 2156 
Q 2344 2481 2205 2597 
Q 2066 2713 1806 2713 
z
" transform="scale(0.015625)"/>
       <path id="Roboto-Bold-63" d="M 1753 666 
Q 2000 666 2159 802 
Q 2319 938 2322 1169 
L 3172 1169 
Q 3166 631 2761 284 
Q 2356 -63 1769 -63 
Q 984 -63 595 432 
Q 206 928 206 1647 
L 206 1734 
Q 206 2450 593 2947 
Q 981 3444 1766 3444 
Q 2388 3444 2777 3087 
Q 3166 2731 3172 2122 
L 2322 2122 
Q 2319 2369 2172 2542 
Q 2025 2716 1750 2716 
Q 1356 2716 1234 2420 
Q 1113 2125 1113 1647 
Q 1113 1256 1233 961 
Q 1353 666 1753 666 
z
" transform="scale(0.015625)"/>
       <path id="Roboto-Bold-65" d="M 3225 550 
Q 3063 319 2731 128 
Q 2400 -63 1906 -63 
Q 1119 -63 675 414 
Q 231 891 228 1566 
L 228 1697 
Q 228 2463 654 2953 
Q 1081 3444 1806 3444 
Q 2534 3444 2915 2987 
Q 3297 2531 3297 1781 
L 3297 1397 
L 1144 1397 
Q 1191 1069 1403 867 
Q 1616 666 1963 666 
Q 2478 666 2778 1044 
L 3225 550 
z
M 1800 2716 
Q 1513 2716 1356 2522 
Q 1200 2328 1153 2016 
L 2409 2016 
L 2409 2084 
Q 2403 2356 2258 2536 
Q 2113 2716 1800 2716 
z
" transform="scale(0.015625)"/>
       <path id="Roboto-Bold-5b" d="M 1728 5297 
L 1728 4600 
L 1281 4600 
L 1281 -366 
L 1728 -366 
L 1728 -1059 
L 375 -1059 
L 375 5297 
L 1728 5297 
z
" transform="scale(0.015625)"/>
       <path id="Roboto-Bold-c5" d="M 25 0 
L 1719 4550 
L 2588 4550 
L 4291 0 
L 3291 0 
L 2978 938 
L 1331 938 
L 1019 0 
L 25 0 
z
M 1584 1697 
L 2725 1697 
L 2156 3406 
L 1584 1697 
z
M 1471 5424 
Q 1471 5683 1668 5873 
Q 1865 6064 2168 6064 
Q 2468 6064 2666 5873 
Q 2865 5683 2865 5424 
Q 2865 5158 2666 4975 
Q 2468 4793 2168 4793 
Q 1865 4793 1668 4975 
Q 1471 5158 1471 5424 
z
M 1830 5423 
Q 1830 5286 1922 5187 
Q 2015 5089 2168 5089 
Q 2321 5089 2413 5187 
Q 2505 5286 2505 5423 
Q 2505 5561 2413 5662 
Q 2321 5764 2168 5764 
Q 2015 5764 1922 5662 
Q 1830 5561 1830 5423 
z
" transform="scale(0.015625)"/>
       <path id="Roboto-Bold-5d" d="M 41 4600 
L 41 5297 
L 1394 5297 
L 1394 -1059 
L 41 -1059 
L 41 -366 
L 491 -366 
L 491 4600 
L 41 4600 
z
" transform="scale(0.015625)"/>
      </defs>
      <use xlink:href="#Roboto-Bold-43"/>
      <use xlink:href="#Roboto-Bold-72" x="65.478516"/>
      <use xlink:href="#Roboto-Bold-6f" x="102.001953"/>
      <use xlink:href="#Roboto-Bold-36" x="158.544922"/>
      <use xlink:href="#Roboto-Bold-36" x="215.917969"/>
      <use xlink:href="#Roboto-Bold-20" x="273.291016"/>
      <use xlink:href="#Roboto-Bold-4f" x="298.193359"/>
      <use xlink:href="#Roboto-Bold-48" x="367.236328"/>
      <use xlink:href="#Roboto-Bold-20" x="437.939453"/>
      <use xlink:href="#Roboto-Bold-2d" x="462.841797"/>
      <use xlink:href="#Roboto-Bold-20" x="501.660156"/>
      <use xlink:href="#Roboto-Bold-54" x="526.5625"/>
      <use xlink:href="#Roboto-Bold-68" x="588.427734"/>
      <use xlink:href="#Roboto-Bold-72" x="644.433594"/>
      <use xlink:href="#Roboto-Bold-32" x="680.957031"/>
      <use xlink:href="#Roboto-Bold-30" x="738.330078"/>
      <use xlink:href="#Roboto-Bold-33" x="795.703125"/>
      <use xlink:href="#Roboto-Bold-20" x="853.076172"/>
      <use xlink:href="#Roboto-Bold-48" x="877.978516"/>
      <use xlink:href="#Roboto-Bold-47" x="948.681641"/>
      <use xlink:href="#Roboto-Bold-31" x="1016.796875"/>
      <use xlink:href="#Roboto-Bold-20" x="1074.169922"/>
      <use xlink:href="#Roboto-Bold-44" x="1099.072266"/>
      <use xlink:href="#Roboto-Bold-69" x="1164.111328"/>
      <use xlink:href="#Roboto-Bold-73" x="1190.625"/>
      <use xlink:href="#Roboto-Bold-74" x="1242.089844"/>
      <use xlink:href="#Roboto-Bold-61" x="1275.878906"/>
      <use xlink:href="#Roboto-Bold-6e" x="1329.492188"/>
      <use xlink:href="#Roboto-Bold-63" x="1385.498047"/>
      <use xlink:href="#Roboto-Bold-65" x="1437.695312"/>
      <use xlink:href="#Roboto-Bold-20" x="1491.748047"/>
      <use xlink:href="#Roboto-Bold-5b" x="1516.650391"/>
      <use xlink:href="#Roboto-Bold-c5" x="1544.482422"/>
      <use xlink:href="#Roboto-Bold-5d" x="1611.816406"/>
     </g>
    </g>
   </g>
   <g id="matplotlib.axis_2">
    <g id="ytick_1">
     <g id="line2d_11">
      <defs>
       <path id="md18ce52a9e" d="M 0 0 
L -3.5 0 
" style="stroke: #c2c1c1; stroke-width: 0.8"/>
      </defs>
      <g>
       <use xlink:href="#md18ce52a9e" x="36.704" y="309.4" style="fill: #c2c1c1; stroke: #c2c1c1; stroke-width: 0.8"/>
      </g>
     </g>
     <g id="text_9">
      <!-- −2 -->
      <g style="fill: #191919" transform="translate(20.634 312.4) scale(0.08 -0.08)">
       <defs>
        <path id="Roboto-Regular-2212" d="M 3134 2509 
L 3134 2034 
L 525 2034 
L 525 2509 
L 3134 2509 
z
" transform="scale(0.015625)"/>
       </defs>
       <use xlink:href="#Roboto-Regular-2212"/>
       <use xlink:href="#Roboto-Regular-32" x="57.177734"/>
      </g>
     </g>
    </g>
    <g id="ytick_2">
     <g id="line2d_12">
      <g>
       <use xlink:href="#md18ce52a9e" x="36.704" y="259.777333" style="fill: #c2c1c1; stroke: #c2c1c1; stroke-width: 0.8"/>
      </g>
     </g>
     <g id="text_10">
      <!-- −1 -->
      <g style="fill: #191919" transform="translate(20.634 262.777333) scale(0.08 -0.08)">
       <use xlink:href="#Roboto-Regular-2212"/>
       <use xlink:href="#Roboto-Regular-31" x="57.177734"/>
      </g>
     </g>
    </g>
    <g id="ytick_3">
     <g id="line2d_13">
      <g>
       <use xlink:href="#md18ce52a9e" x="36.704" y="210.154667" style="fill: #c2c1c1; stroke: #c2c1c1; stroke-width: 0.8"/>
      </g>
     </g>
     <g id="text_11">
      <!-- 0 -->
      <g style="fill: #191919" transform="translate(25.20775 213.154667) scale(0.08 -0.08)">
       <defs>
        <path id="Roboto-Regular-30" d="M 3234 1944 
Q 3234 825 2848 381 
Q 2463 -63 1800 -63 
Q 1156 -63 764 368 
Q 372 800 359 1872 
L 359 2638 
Q 359 3753 750 4183 
Q 1141 4613 1794 4613 
Q 2447 4613 2834 4195 
Q 3222 3778 3234 2709 
L 3234 1944 
z
M 2653 2734 
Q 2653 3503 2434 3822 
Q 2216 4141 1794 4141 
Q 1388 4141 1167 3831 
Q 947 3522 941 2778 
L 941 1850 
Q 941 1088 1164 750 
Q 1388 413 1800 413 
Q 2222 413 2436 745 
Q 2650 1078 2653 1825 
L 2653 2734 
z
" transform="scale(0.015625)"/>
       </defs>
       <use xlink:href="#Roboto-Regular-30"/>
      </g>
     </g>
    </g>
    <g id="ytick_4">
     <g id="line2d_14">
      <g>
       <use xlink:href="#md18ce52a9e" x="36.704" y="160.532" style="fill: #c2c1c1; stroke: #c2c1c1; stroke-width: 0.8"/>
      </g>
     </g>
     <g id="text_12">
      <!-- 1 -->
      <g style="fill: #191919" transform="translate(25.20775 163.532) scale(0.08 -0.08)">
       <use xlink:href="#Roboto-Regular-31"/>
      </g>
     </g>
    </g>
    <g id="ytick_5">
     <g id="line2d_15">
      <g>
       <use xlink:href="#md18ce52a9e" x="36.704" y="110.909333" style="fill: #c2c1c1; stroke: #c2c1c1; stroke-width: 0.8"/>
      </g>
     </g>
     <g id="text_13">
      <!-- 2 -->
      <g style="fill: #191919" transform="translate(25.20775 113.909333) scale(0.08 -0.08)">
       <use xlink:href="#Roboto-Regular-32"/>
      </g>
     </g>
    </g>
    <g id="ytick_6">
     <g id="line2d_16">
      <g>
       <use xlink:href="#md18ce52a9e" x="36.704" y="61.286667" style="fill: #c2c1c1; stroke: #c2c1c1; stroke-width: 0.8"/>
      </g>
     </g>
     <g id="text_14">
      <!-- 3 -->
      <g style="fill: #191919" transform="translate(25.20775 64.286667) scale(0.08 -0.08)">
       <use xlink:href="#Roboto-Regular-33"/>
      </g>
     </g>
    </g>
    <g id="ytick_7">
     <g id="line2d_17">
      <g>
       <use xlink:href="#md18ce52a9e" x="36.704" y="11.664" style="fill: #c2c1c1; stroke: #c2c1c1; stroke-width: 0.8"/>
      </g>
     </g>
     <g id="text_15">
      <!-- 4 -->
      <g style="fill: #191919" transform="translate(25.20775 14.664) scale(0.08 -0.08)">
       <use xlink:href="#Roboto-Regular-34"/>
      </g>
     </g>
    </g>
    <g id="text_16">
     <!-- PMF [kcal/mol] -->
     <g style="fill: #191919" transform="translate(15.009 187.745125) rotate(-90) scale(0.08 -0.08)">
      <defs>
       <path id="Roboto-Bold-50" d="M 1347 1606 
L 1347 0 
L 406 0 
L 406 4550 
L 2184 4550 
Q 2991 4550 3442 4125 
Q 3894 3700 3894 3047 
Q 3894 2388 3442 1997 
Q 2991 1606 2184 1606 
L 1347 1606 
z
M 1347 3791 
L 1347 2363 
L 2184 2363 
Q 2588 2363 2766 2553 
Q 2944 2744 2944 3041 
Q 2944 3338 2766 3564 
Q 2588 3791 2184 3791 
L 1347 3791 
z
" transform="scale(0.015625)"/>
       <path id="Roboto-Bold-4d" d="M 2800 1250 
L 3966 4550 
L 5194 4550 
L 5194 0 
L 4253 0 
L 4253 1244 
L 4347 3381 
L 3122 0 
L 2478 0 
L 1253 3381 
L 1347 1244 
L 1347 0 
L 406 0 
L 406 4550 
L 1634 4550 
L 2800 1250 
z
" transform="scale(0.015625)"/>
       <path id="Roboto-Bold-46" d="M 406 0 
L 406 4550 
L 3372 4550 
L 3372 3791 
L 1347 3791 
L 1347 2616 
L 3147 2616 
L 3147 1859 
L 1347 1859 
L 1347 0 
L 406 0 
z
" transform="scale(0.015625)"/>
       <path id="Roboto-Bold-6b" d="M 2444 0 
L 1575 1356 
L 1253 1034 
L 1253 0 
L 350 0 
L 350 4803 
L 1253 4803 
L 1253 2144 
L 1428 2369 
L 2291 3381 
L 3375 3381 
L 2156 1975 
L 3484 0 
L 2444 0 
z
" transform="scale(0.015625)"/>
       <path id="Roboto-Bold-6c" d="M 1303 4800 
L 1303 0 
L 397 0 
L 397 4800 
L 1303 4800 
z
" transform="scale(0.015625)"/>
       <path id="Roboto-Bold-2f" d="M 2306 4550 
L 631 -391 
L -41 -391 
L 1634 4550 
L 2306 4550 
z
" transform="scale(0.015625)"/>
       <path id="Roboto-Bold-6d" d="M 1806 2713 
Q 1431 2713 1253 2394 
L 1253 0 
L 347 0 
L 347 3381 
L 1197 3381 
L 1228 3009 
Q 1581 3444 2197 3444 
Q 2850 3444 3094 2928 
Q 3441 3444 4109 3444 
Q 4597 3444 4894 3156 
Q 5191 2869 5194 2169 
L 5194 0 
L 4288 0 
L 4288 2156 
Q 4288 2494 4152 2603 
Q 4016 2713 3781 2713 
Q 3381 2713 3222 2334 
L 3222 0 
L 2319 0 
L 2319 2150 
Q 2319 2484 2181 2598 
Q 2044 2713 1806 2713 
z
" transform="scale(0.015625)"/>
      </defs>
      <use xlink:href="#Roboto-Bold-50"/>
      <use xlink:href="#Roboto-Bold-4d" x="64.550781"/>
      <use xlink:href="#Roboto-Bold-46" x="152.148438"/>
      <use xlink:href="#Roboto-Bold-20" x="206.982422"/>
      <use xlink:href="#Roboto-Bold-5b" x="231.884766"/>
      <use xlink:href="#Roboto-Bold-6b" x="259.716797"/>
      <use xlink:href="#Roboto-Bold-63" x="313.134766"/>
      <use xlink:href="#Roboto-Bold-61" x="365.332031"/>
      <use xlink:href="#Roboto-Bold-6c" x="418.945312"/>
      <use xlink:href="#Roboto-Bold-2f" x="445.458984"/>
      <use xlink:href="#Roboto-Bold-6d" x="482.861328"/>
      <use xlink:href="#Roboto-Bold-6f" x="569.433594"/>
      <use xlink:href="#Roboto-Bold-6c" x="625.976562"/>
      <use xlink:href="#Roboto-Bold-5d" x="652.490234"/>
     </g>
    </g>
   </g>
   <g id="line2d_18">
    <path d="M 60.132585 -1 
L 62.413353 59.596381 
L 65.627022 132.660337 
L 68.840691 188.03917 
L 72.05436 228.054094 
L 75.268029 256.416078 
L 78.481698 275.556693 
L 81.695367 287.097524 
L 84.909037 292.749933 
L 88.122706 293.900807 
L 91.336375 291.640918 
L 94.550044 286.607698 
L 97.763713 279.365499 
L 100.977382 270.820746 
L 104.191051 261.525844 
L 110.618389 241.595656 
L 117.045728 220.79714 
L 120.259397 211.257974 
L 123.473066 202.929165 
L 126.686735 195.382631 
L 129.900404 189.741479 
L 133.114073 185.942616 
L 136.327742 184.618458 
L 139.541411 184.958494 
L 142.75508 187.492213 
L 149.182419 195.26651 
L 152.396088 199.450138 
L 155.609757 203.148796 
L 158.823426 206.380483 
L 162.037095 209.269911 
L 165.250764 211.696427 
L 168.464433 213.267507 
L 171.678102 214.40586 
L 174.891771 215.785598 
L 178.10544 216.336947 
L 181.31911 215.532255 
L 184.532779 214.183838 
L 187.746448 213.098475 
L 190.960117 211.872242 
L 197.387455 210.998643 
L 200.601124 210.307455 
L 203.814793 209.491112 
L 207.028462 209.563823 
L 213.455801 212.808165 
L 216.66947 213.167797 
L 219.883139 214.231982 
L 223.096808 216.385604 
L 226.310477 217.473781 
L 229.524146 219.087984 
L 232.737815 221.392304 
L 235.951484 222.453328 
L 239.165153 223.131906 
L 242.378823 224.426157 
L 245.592492 225.284815 
L 248.806161 225.901339 
L 255.233499 226.697548 
L 258.447168 227.330861 
L 261.660837 227.712076 
L 264.874506 227.34629 
L 268.088175 227.160832 
L 271.301844 226.846743 
L 274.515514 226.191102 
L 277.729183 225.116833 
L 280.942852 223.779541 
L 287.37019 221.637253 
L 290.583859 220.400008 
L 293.797528 218.924155 
L 297.011197 217.668475 
L 303.438535 214.760811 
L 306.652205 213.161855 
L 309.865874 211.332324 
L 313.079543 210.052262 
L 316.293212 207.777937 
L 319.506881 206.032052 
L 322.72055 204.146791 
L 325.934219 201.26202 
L 329.147888 198.817706 
L 332.361557 196.996939 
L 335.575226 195.702496 
L 338.788896 193.490379 
L 342.002565 190.808105 
L 348.429903 187.544416 
L 351.643572 185.025705 
L 354.857241 182.238447 
L 358.07091 178.741972 
L 361.284579 175.41235 
L 364.498248 173.068257 
L 370.925587 162.933359 
L 374.139256 159.423343 
L 380.566594 151.143172 
L 383.780263 147.194266 
L 386.993932 140.337775 
L 390.207601 135.293204 
L 393.42127 128.191425 
L 396.634939 118.478759 
L 399.848609 110.614678 
L 403.062278 101.679032 
L 412.703285 68.483959 
L 415.916954 66.311835 
L 419.130623 68.34446 
L 422.344292 59.654933 
L 425.557961 26.170193 
L 428.97501 -1 
L 428.97501 -1 
" clip-path="url(#p5b1946a6b7)" style="fill: none; stroke: #f99752; stroke-width: 2.5; stroke-linecap: square"/>
   </g>
   <g id="patch_3">
    <path d="M 36.704 309.4 
L 36.704 11.664 
" style="fill: none; stroke: #c2c1c1; stroke-width: 0.8; stroke-linejoin: miter; stroke-linecap: square"/>
   </g>
   <g id="patch_4">
    <path d="M 452.16 309.4 
L 452.16 11.664 
" style="fill: none; stroke: #c2c1c1; stroke-width: 0.8; stroke-linejoin: miter; stroke-linecap: square"/>
   </g>
   <g id="patch_5">
    <path d="M 36.704 309.4 
L 452.16 309.4 
" style="fill: none; stroke: #c2c1c1; stroke-width: 0.8; stroke-linejoin: miter; stroke-linecap: square"/>
   </g>
   <g id="patch_6">
    <path d="M 36.704 11.664 
L 452.16 11.664 
" style="fill: none; stroke: #c2c1c1; stroke-width: 0.8; stroke-linejoin: miter; stroke-linecap: square"/>
   </g>
   <g id="legend_1">
    <g id="line2d_19">
     <path d="M 391.525 273.89625 
L 399.525 273.89625 
L 407.525 273.89625 
" style="fill: none; stroke: #1e2e79; stroke-width: 2.5; stroke-linecap: square"/>
    </g>
    <g id="text_17">
     <!-- Reduced -->
     <g transform="translate(413.925 276.69625) scale(0.08 -0.08)">
      <defs>
       <path id="Roboto-Regular-52" d="M 3188 0 
L 2200 1844 
L 1131 1844 
L 1131 0 
L 528 0 
L 528 4550 
L 2034 4550 
Q 2800 4550 3214 4200 
Q 3628 3850 3628 3184 
Q 3628 2759 3398 2442 
Q 3169 2125 2763 1969 
L 3831 38 
L 3831 0 
L 3188 0 
z
M 1131 4056 
L 1131 2334 
L 2053 2334 
Q 2538 2334 2783 2582 
Q 3028 2831 3028 3184 
Q 3028 3578 2792 3817 
Q 2556 4056 2034 4056 
L 1131 4056 
z
" transform="scale(0.015625)"/>
       <path id="Roboto-Regular-65" d="M 3116 591 
Q 2950 341 2647 139 
Q 2344 -63 1844 -63 
Q 1138 -63 714 396 
Q 291 856 291 1572 
L 291 1703 
Q 291 2256 502 2645 
Q 713 3034 1050 3239 
Q 1388 3444 1769 3444 
Q 2494 3444 2826 2970 
Q 3159 2497 3159 1788 
L 3159 1528 
L 872 1528 
Q 884 1063 1148 736 
Q 1413 409 1875 409 
Q 2181 409 2393 534 
Q 2606 659 2766 869 
L 3116 591 
z
M 1769 2969 
Q 1425 2969 1187 2719 
Q 950 2469 891 2000 
L 2581 2000 
L 2581 2044 
Q 2559 2381 2386 2675 
Q 2213 2969 1769 2969 
z
" transform="scale(0.015625)"/>
       <path id="Roboto-Regular-64" d="M 2622 0 
L 2594 363 
Q 2247 -63 1628 -63 
Q 1034 -63 668 418 
Q 303 900 297 1628 
L 297 1719 
Q 297 2494 664 2969 
Q 1031 3444 1634 3444 
Q 2231 3444 2572 3044 
L 2572 4800 
L 3153 4800 
L 3153 0 
L 2622 0 
z
M 878 1653 
Q 878 1150 1090 789 
Q 1303 428 1772 428 
Q 2309 428 2572 919 
L 2572 2475 
Q 2313 2956 1778 2956 
Q 1306 2956 1092 2589 
Q 878 2222 878 1719 
L 878 1653 
z
" transform="scale(0.015625)"/>
       <path id="Roboto-Regular-75" d="M 2538 0 
L 2525 334 
Q 2194 -63 1538 -63 
Q 1041 -63 734 231 
Q 428 525 428 1200 
L 428 3381 
L 1006 3381 
L 1006 1194 
Q 1006 738 1198 583 
Q 1391 428 1628 428 
Q 2281 428 2509 919 
L 2509 3381 
L 3091 3381 
L 3091 0 
L 2538 0 
z
" transform="scale(0.015625)"/>
       <path id="Roboto-Regular-63" d="M 1794 413 
Q 2103 413 2336 597 
Q 2569 781 2591 1069 
L 3141 1069 
Q 3119 616 2725 276 
Q 2331 -63 1794 -63 
Q 1031 -63 661 440 
Q 291 944 291 1625 
L 291 1756 
Q 291 2438 661 2941 
Q 1031 3444 1794 3444 
Q 2388 3444 2753 3092 
Q 3119 2741 3141 2219 
L 2591 2219 
Q 2569 2531 2355 2750 
Q 2141 2969 1794 2969 
Q 1438 2969 1236 2787 
Q 1034 2606 951 2328 
Q 869 2050 869 1756 
L 869 1625 
Q 869 1328 950 1050 
Q 1031 772 1232 592 
Q 1434 413 1794 413 
z
" transform="scale(0.015625)"/>
      </defs>
      <use xlink:href="#Roboto-Regular-52"/>
      <use xlink:href="#Roboto-Regular-65" x="61.621094"/>
      <use xlink:href="#Roboto-Regular-64" x="114.648438"/>
      <use xlink:href="#Roboto-Regular-75" x="171.044922"/>
      <use xlink:href="#Roboto-Regular-63" x="226.171875"/>
      <use xlink:href="#Roboto-Regular-65" x="278.515625"/>
      <use xlink:href="#Roboto-Regular-64" x="331.542969"/>
     </g>
    </g>
    <g id="line2d_20">
     <path d="M 391.525 285.52125 
L 399.525 285.52125 
L 407.525 285.52125 
" style="fill: none; stroke: #ec4067; stroke-width: 2.5; stroke-linecap: square"/>
    </g>
    <g id="text_18">
     <!-- Oxidized -->
     <g transform="translate(413.925 288.32125) scale(0.08 -0.08)">
      <defs>
       <path id="Roboto-Regular-4f" d="M 4031 2131 
Q 4031 1106 3534 521 
Q 3038 -63 2206 -63 
Q 1397 -63 884 521 
Q 372 1106 372 2131 
L 372 2419 
Q 372 3441 881 4027 
Q 1391 4613 2200 4613 
Q 3025 4613 3523 4036 
Q 4022 3459 4031 2456 
L 4031 2131 
z
M 3434 2425 
Q 3434 3238 3109 3669 
Q 2784 4100 2200 4100 
Q 1641 4100 1305 3669 
Q 969 3238 969 2425 
L 969 2131 
Q 969 1313 1308 880 
Q 1647 447 2206 447 
Q 2794 447 3114 880 
Q 3434 1313 3434 2131 
L 3434 2425 
z
" transform="scale(0.015625)"/>
       <path id="Roboto-Regular-78" d="M 831 3381 
L 1572 2150 
L 2322 3381 
L 3000 3381 
L 1894 1713 
L 3034 0 
L 2366 0 
L 1584 1269 
L 803 0 
L 131 0 
L 1269 1713 
L 166 3381 
L 831 3381 
z
" transform="scale(0.015625)"/>
       <path id="Roboto-Regular-69" d="M 444 4278 
Q 444 4419 530 4516 
Q 616 4613 784 4613 
Q 950 4613 1039 4516 
Q 1128 4419 1128 4278 
Q 1128 4144 1039 4048 
Q 950 3953 784 3953 
Q 616 3953 530 4048 
Q 444 4144 444 4278 
z
M 1069 3381 
L 1069 0 
L 488 0 
L 488 3381 
L 1069 3381 
z
" transform="scale(0.015625)"/>
       <path id="Roboto-Regular-7a" d="M 303 2903 
L 303 3381 
L 2869 3381 
L 2869 2972 
L 988 475 
L 2959 475 
L 2959 0 
L 278 0 
L 278 425 
L 2141 2903 
L 303 2903 
z
" transform="scale(0.015625)"/>
      </defs>
      <use xlink:href="#Roboto-Regular-4f"/>
      <use xlink:href="#Roboto-Regular-78" x="68.798828"/>
      <use xlink:href="#Roboto-Regular-69" x="118.408203"/>
      <use xlink:href="#Roboto-Regular-64" x="142.724609"/>
      <use xlink:href="#Roboto-Regular-69" x="199.121094"/>
      <use xlink:href="#Roboto-Regular-7a" x="223.4375"/>
      <use xlink:href="#Roboto-Regular-65" x="273.046875"/>
      <use xlink:href="#Roboto-Regular-64" x="326.074219"/>
     </g>
    </g>
    <g id="line2d_21">
     <path d="M 391.525 297.56375 
L 399.525 297.56375 
L 407.525 297.56375 
" style="fill: none; stroke: #f99752; stroke-width: 2.5; stroke-linecap: square"/>
    </g>
    <g id="text_19">
     <!-- Cu(I) -->
     <g transform="translate(413.925 300.36375) scale(0.08 -0.08)">
      <defs>
       <path id="Roboto-Regular-43" d="M 3275 1447 
L 3875 1447 
Q 3806 800 3387 368 
Q 2969 -63 2150 -63 
Q 1356 -63 870 504 
Q 384 1072 375 2013 
L 375 2500 
Q 375 3456 867 4034 
Q 1359 4613 2203 4613 
Q 2975 4613 3390 4188 
Q 3806 3763 3875 3091 
L 3275 3091 
Q 3206 3566 2968 3842 
Q 2731 4119 2203 4119 
Q 1600 4119 1287 3675 
Q 975 3231 975 2506 
L 975 2047 
Q 975 1375 1259 901 
Q 1544 428 2150 428 
Q 2725 428 2961 697 
Q 3197 966 3275 1447 
z
" transform="scale(0.015625)"/>
       <path id="Roboto-Regular-28" d="M 419 1850 
Q 419 2756 678 3434 
Q 938 4113 1294 4541 
Q 1650 4969 1947 5134 
L 2069 4753 
Q 1700 4475 1348 3761 
Q 997 3047 997 1813 
Q 997 625 1348 -97 
Q 1700 -819 2069 -1119 
L 1947 -1469 
Q 1650 -1306 1294 -878 
Q 938 -450 678 226 
Q 419 903 419 1850 
z
" transform="scale(0.015625)"/>
       <path id="Roboto-Regular-49" d="M 1175 4550 
L 1175 0 
L 572 0 
L 572 4550 
L 1175 4550 
z
" transform="scale(0.015625)"/>
       <path id="Roboto-Regular-29" d="M 1772 1819 
Q 1772 906 1512 228 
Q 1253 -450 895 -878 
Q 538 -1306 244 -1469 
L 122 -1119 
Q 488 -841 841 -109 
Q 1194 622 1194 1856 
Q 1194 2647 1019 3236 
Q 844 3825 594 4212 
Q 344 4600 122 4781 
L 244 5134 
Q 538 4969 895 4541 
Q 1253 4113 1512 3436 
Q 1772 2759 1772 1819 
z
" transform="scale(0.015625)"/>
      </defs>
      <use xlink:href="#Roboto-Regular-43"/>
      <use xlink:href="#Roboto-Regular-75" x="65.087891"/>
      <use xlink:href="#Roboto-Regular-28" x="120.214844"/>
      <use xlink:href="#Roboto-Regular-49" x="154.443359"/>
      <use xlink:href="#Roboto-Regular-29" x="181.640625"/>
     </g>
    </g>
   </g>
  </g>
 </g>
 <defs>
  <clipPath id="p5b1946a6b7">
   <rect x="36.704" y="11.664" width="415.456" height="297.736"/>
  </clipPath>
 </defs>
</svg>
