<?xml version="1.0" encoding="utf-8" standalone="no"?>
<!DOCTYPE svg PUBLIC "-//W3C//DTD SVG 1.1//EN"
  "http://www.w3.org/Graphics/SVG/1.1/DTD/svg11.dtd">
<svg xmlns:xlink="http://www.w3.org/1999/xlink" width="460.8pt" height="345.6pt" viewBox="0 0 460.8 345.6" xmlns="http://www.w3.org/2000/svg" version="1.1">
 <metadata>
  <rdf:RDF xmlns:dc="http://purl.org/dc/elements/1.1/" xmlns:cc="http://creativecommons.org/ns#" xmlns:rdf="http://www.w3.org/1999/02/22-rdf-syntax-ns#">
   <cc:Work>
    <dc:type rdf:resource="http://purl.org/dc/dcmitype/StillImage"/>
    <dc:date>2024-07-06T12:21:40.146168</dc:date>
    <dc:format>image/svg+xml</dc:format>
    <dc:creator>
     <cc:Agent>
      <dc:title>Matplotlib v3.8.4, https://matplotlib.org/</dc:title>
     </cc:Agent>
    </dc:creator>
   </cc:Work>
  </rdf:RDF>
 </metadata>
 <defs>
  <style type="text/css">*{stroke-linejoin: round; stroke-linecap: butt}</style>
 </defs>
 <g id="figure_1">
  <g id="patch_1">
   <path d="M 0 345.6 
L 460.8 345.6 
L 460.8 0 
L 0 0 
z
" style="fill: #ffffff"/>
  </g>
  <g id="axes_1">
   <g id="patch_2">
    <path d="M 46.64 302.8525 
L 446.805 302.8525 
L 446.805 14.76 
L 46.64 14.76 
z
" style="fill: #ffffff"/>
   </g>
   <g id="line2d_1">
    <path d="M 46.64 245.234 
L 446.805 245.234 
" clip-path="url(#pe6c16a60e8)" style="fill: none; stroke-dasharray: 1.75,2.8875; stroke-dashoffset: 0; stroke: #c0c0c0; stroke-width: 1.75"/>
   </g>
   <g id="line2d_2">
    <path d="M 72.243433 -1 
L 73.420669 40.235349 
L 74.965708 87.415175 
L 76.510746 128.598729 
L 78.055785 162.966114 
L 79.600824 190.529521 
L 81.145862 212.651718 
L 82.690901 230.640467 
L 83.720927 240.578782 
L 84.750952 248.911486 
L 85.780978 255.742095 
L 86.811004 261.284444 
L 87.84103 265.784554 
L 88.871055 269.394194 
L 89.901081 272.122 
L 90.931107 273.922579 
L 91.44612 274.479909 
L 91.961133 274.825745 
L 92.476145 274.978708 
L 92.991158 274.957196 
L 93.506171 274.775955 
L 94.021184 274.444706 
L 95.05121 273.352136 
L 96.081236 271.708524 
L 97.111261 269.546648 
L 98.141287 266.904188 
L 99.686326 262.14391 
L 101.746377 254.692066 
L 104.321441 244.311417 
L 106.896506 232.766154 
L 109.47157 220.204965 
L 111.531622 208.768923 
L 113.591673 197.510614 
L 118.741802 171.85548 
L 120.28684 165.658198 
L 121.316866 161.695266 
L 122.346892 156.891684 
L 123.376918 151.013854 
L 128.012033 122.806964 
L 129.042059 117.623616 
L 130.072085 113.387491 
L 131.617124 108.084442 
L 133.162162 103.557874 
L 135.737227 96.806813 
L 136.767252 94.683403 
L 138.312291 91.949949 
L 138.827304 90.73676 
L 139.857329 87.369535 
L 142.432394 77.2304 
L 142.947407 76.03573 
L 143.46242 75.223863 
L 144.492445 74.265805 
L 145.522471 73.283381 
L 146.037484 72.549658 
L 146.552497 71.595977 
L 147.06751 70.392986 
L 148.097535 67.099441 
L 149.127561 62.522908 
L 150.157587 57.434509 
L 150.6726 55.408201 
L 151.187613 54.260591 
L 151.702625 54.298072 
L 152.217638 55.578325 
L 152.732651 57.875646 
L 155.307716 72.025058 
L 156.337741 75.82673 
L 157.367767 78.750632 
L 159.427819 83.624056 
L 160.972857 86.77699 
L 162.517896 89.240625 
L 164.577947 92.054701 
L 166.122986 94.010826 
L 166.637999 94.87928 
L 167.153012 96.037731 
L 168.183037 99.404089 
L 170.243089 107.66679 
L 171.273115 110.515988 
L 172.30314 112.325274 
L 172.818153 113.182669 
L 173.333166 114.281526 
L 173.848179 115.807602 
L 174.363192 117.869134 
L 175.393218 123.509903 
L 177.968282 139.915174 
L 178.998308 145.165319 
L 180.543346 151.681468 
L 182.603398 159.386858 
L 186.723501 174.106551 
L 188.783552 181.582062 
L 189.813578 184.543994 
L 190.843604 186.86686 
L 192.388642 189.617835 
L 193.933681 192.494901 
L 197.538771 199.811519 
L 199.08381 202.245731 
L 202.173887 206.822682 
L 210.414093 220.538756 
L 211.444118 221.779074 
L 212.474144 222.73554 
L 214.019183 223.767601 
L 215.049208 224.482751 
L 216.079234 225.509142 
L 217.624273 227.588084 
L 219.169311 229.61355 
L 220.71435 231.21579 
L 222.774402 232.95086 
L 225.349466 235.050523 
L 231.014607 240.093901 
L 232.044633 240.714639 
L 233.589672 241.305303 
L 237.194762 242.339829 
L 242.344891 244.473766 
L 243.374916 244.678308 
L 244.919955 244.698468 
L 246.464994 244.640627 
L 247.495019 244.775433 
L 250.585097 245.513155 
L 251.615122 245.49901 
L 256.250238 245.051912 
L 259.340315 244.879775 
L 262.945405 244.990542 
L 264.490444 244.712041 
L 265.52047 244.321103 
L 267.580521 243.164443 
L 269.640573 242.11487 
L 275.820727 239.176127 
L 278.395792 237.577927 
L 279.94083 237.03563 
L 281.485869 236.450556 
L 282.515894 235.794483 
L 286.635997 232.704794 
L 288.181036 231.57129 
L 289.726075 230.001732 
L 291.786126 227.810717 
L 293.331165 226.485453 
L 294.876203 225.388547 
L 296.421242 224.543847 
L 298.481293 223.545859 
L 300.026332 222.409729 
L 301.571371 221.338182 
L 305.176461 219.427373 
L 306.721499 218.154 
L 310.841602 214.353959 
L 312.386641 213.53897 
L 315.991731 211.764495 
L 317.53677 210.340173 
L 318.566795 209.449433 
L 319.596821 208.955963 
L 320.626847 208.847157 
L 322.171885 208.76334 
L 323.201911 208.378555 
L 326.291988 206.693616 
L 327.322014 206.538798 
L 329.382066 206.409892 
L 330.412091 206.006894 
L 331.442117 205.191861 
L 332.987156 203.738099 
L 334.017181 203.136439 
L 335.047207 202.88794 
L 337.107259 202.617367 
L 338.137284 202.2639 
L 341.227362 200.777253 
L 342.257387 200.743613 
L 344.832452 200.892014 
L 346.892503 200.919551 
L 348.952555 201.019306 
L 350.497593 200.807853 
L 352.042632 200.559311 
L 355.132709 200.414346 
L 356.162735 199.915417 
L 359.767825 197.377677 
L 361.312864 196.068053 
L 362.857902 194.76742 
L 363.887928 194.247978 
L 366.462992 193.271528 
L 374.188185 189.092125 
L 375.218211 188.138968 
L 378.823301 184.37827 
L 379.853327 183.594758 
L 380.883353 183.043536 
L 382.943404 182.143991 
L 383.97343 181.312803 
L 385.003456 179.929931 
L 387.063507 176.372408 
L 387.57852 175.750242 
L 388.093533 175.349516 
L 388.608546 175.16545 
L 389.123559 175.159077 
L 391.698623 175.645109 
L 392.213636 175.488958 
L 392.728649 175.18467 
L 393.243662 174.727056 
L 394.273687 173.366984 
L 395.303713 171.508423 
L 399.423816 163.325468 
L 400.453842 161.871306 
L 401.483867 160.737031 
L 405.088958 157.259102 
L 406.633996 155.03067 
L 411.269112 148.066885 
L 413.329163 145.589055 
L 414.359189 143.78199 
L 415.904228 140.800532 
L 416.934254 139.409402 
L 418.479292 138.010708 
L 419.509318 137.148456 
L 420.024331 136.824471 
L 420.539344 136.632279 
L 422.599395 136.246071 
L 423.114408 135.771029 
L 423.629421 135.044758 
L 425.174459 132.061299 
L 426.204485 130.248319 
L 427.749524 127.702546 
L 428.264537 126.567355 
L 429.294562 123.459762 
L 430.324588 119.258948 
L 432.38464 110.381515 
L 432.899653 108.809029 
L 433.414665 107.709456 
L 433.929678 107.123265 
L 434.444691 107.031353 
L 434.959704 107.354179 
L 435.98973 108.715361 
L 437.019755 110.031555 
L 437.534768 110.328325 
L 438.049781 110.229002 
L 438.564794 109.638313 
L 439.079807 108.485551 
L 439.59482 106.736341 
L 440.624846 101.58028 
L 442.684897 89.217058 
L 443.19991 87.008282 
L 443.714923 85.404871 
L 444.229936 84.360691 
L 444.744949 83.772084 
L 445.259961 83.517076 
L 447.320013 83.242445 
L 447.835026 82.703977 
L 448.350039 81.792109 
L 448.865051 80.502556 
L 449.895077 77.027612 
L 451.955129 69.270685 
L 452.470142 67.908464 
L 452.985154 67.109703 
L 453.500167 66.972162 
L 454.01518 67.45106 
L 456.075232 70.868234 
L 456.590245 70.915326 
L 457.105257 70.367527 
L 457.62027 69.180476 
L 458.135283 67.336755 
L 458.650296 64.837083 
L 459.680322 57.935054 
L 460.710347 48.638348 
L 461.8 36.360124 
L 461.8 36.360124 
" clip-path="url(#pe6c16a60e8)" style="fill: none; stroke: #1e2e79; stroke-width: 2.5; stroke-linecap: square"/>
   </g>
   <g id="line2d_3">
    <path d="M 152.600298 -1 
L 152.732651 4.873994 
L 153.247664 18.671791 
L 153.762677 17.92101 
L 154.27769 11.008248 
L 154.792703 8.214519 
L 155.307716 2.622132 
L 155.450862 -1 
M 156.827263 -1 
L 157.367767 13.056243 
L 157.88278 21.625985 
L 158.912806 30.512258 
L 159.942831 37.671612 
L 160.457844 39.779167 
L 160.972857 46.487285 
L 161.48787 58.125173 
L 162.002883 65.049877 
L 162.517896 62.599835 
L 163.032909 54.162567 
L 163.547921 51.556905 
L 164.062934 60.898556 
L 164.577947 73.441184 
L 165.09296 83.126922 
L 165.607973 87.634885 
L 166.122986 88.326805 
L 166.637999 89.925313 
L 167.153012 93.502919 
L 167.668024 97.973343 
L 170.758102 132.850936 
L 173.333166 149.054076 
L 174.363192 156.351343 
L 175.393218 164.394612 
L 177.453269 177.730539 
L 178.483295 184.809072 
L 180.028333 194.168689 
L 181.058359 200.653281 
L 182.088385 205.795495 
L 183.633423 212.345415 
L 185.178462 218.048167 
L 188.268539 227.863813 
L 188.783552 229.675099 
L 190.328591 233.260898 
L 191.358616 236.773155 
L 191.873629 238.088457 
L 193.418668 241.223041 
L 194.448694 243.172417 
L 195.478719 244.287613 
L 196.508745 245.334826 
L 197.023758 245.954493 
L 197.538771 246.803858 
L 198.568797 248.959209 
L 199.08381 249.662337 
L 200.628848 250.797798 
L 201.658874 252.248911 
L 202.173887 253.001909 
L 202.6889 253.387948 
L 203.203912 253.32903 
L 204.233938 252.883507 
L 204.748951 253.04314 
L 205.778977 254.081383 
L 207.324015 255.807558 
L 207.839028 255.654329 
L 208.354041 255.626229 
L 208.869054 255.983013 
L 209.384067 256.188588 
L 209.89908 256.163341 
L 210.414093 256.348751 
L 210.929106 256.733645 
L 211.444118 256.937292 
L 211.959131 256.986247 
L 212.474144 257.208139 
L 213.50417 258.054106 
L 214.019183 257.908635 
L 214.534196 257.371997 
L 215.049208 257.076478 
L 216.079234 257.543689 
L 217.10926 257.367454 
L 217.624273 257.583503 
L 218.654299 258.438575 
L 219.169311 258.895923 
L 219.684324 258.911574 
L 220.199337 258.230299 
L 220.71435 257.316474 
L 221.229363 256.837296 
L 221.744376 256.851837 
L 222.259389 257.014665 
L 222.774402 257.051394 
L 223.289414 256.803917 
L 224.31944 256.140924 
L 224.834453 255.924353 
L 225.349466 255.577302 
L 225.864479 255.41091 
L 226.379492 255.731469 
L 226.894505 256.233815 
L 227.409517 256.447997 
L 227.92453 256.275491 
L 229.984582 254.755916 
L 230.499595 254.813769 
L 231.014607 255.022755 
L 231.52962 255.061259 
L 232.044633 254.876253 
L 232.559646 254.527937 
L 234.104685 253.127928 
L 234.619698 253.076788 
L 236.164736 253.283366 
L 237.194762 253.121866 
L 238.224788 252.759943 
L 239.254813 252.060719 
L 240.284839 251.113983 
L 240.799852 250.934721 
L 241.829878 251.271041 
L 242.344891 250.874362 
L 243.374916 249.281588 
L 243.889929 248.786674 
L 244.404942 248.886063 
L 244.919955 249.303946 
L 245.434968 249.315385 
L 245.949981 248.656383 
L 246.464994 247.777798 
L 246.980006 247.176121 
L 247.495019 246.860037 
L 248.010032 246.720418 
L 248.525045 246.827821 
L 249.555071 247.22813 
L 250.585097 247.431158 
L 251.615122 247.111396 
L 252.130135 246.88731 
L 252.645148 246.440753 
L 253.675174 245.122274 
L 254.705199 244.567853 
L 255.735225 243.503629 
L 256.765251 243.01564 
L 257.280264 242.515722 
L 258.31029 241.200745 
L 258.825302 241.000271 
L 260.370341 240.905981 
L 261.400367 240.768519 
L 261.91538 240.485996 
L 262.430393 239.956798 
L 263.460418 238.535548 
L 263.975431 238.261095 
L 264.490444 238.382309 
L 265.005457 238.38357 
L 265.52047 237.938646 
L 266.550495 236.262189 
L 268.095534 233.285122 
L 268.610547 233.006601 
L 270.155586 232.736651 
L 270.670598 232.992878 
L 271.185611 233.02189 
L 271.700624 232.23814 
L 272.215637 231.067336 
L 272.73065 230.285485 
L 273.245663 230.014883 
L 274.275689 229.827615 
L 274.790701 229.185157 
L 275.820727 226.927942 
L 276.850753 225.90138 
L 277.365766 225.429552 
L 278.395792 224.895583 
L 278.910804 224.246494 
L 280.455843 221.749826 
L 281.485869 220.377197 
L 283.030907 216.75353 
L 283.54592 216.98346 
L 284.060933 217.873443 
L 284.575946 218.461158 
L 285.090959 218.116979 
L 286.635997 214.844709 
L 287.15101 214.162082 
L 287.666023 213.169189 
L 288.696049 210.576142 
L 289.211062 210.07717 
L 289.726075 210.015506 
L 290.241088 209.782871 
L 290.7561 208.940279 
L 291.271113 207.844802 
L 291.786126 207.29498 
L 292.301139 207.121258 
L 292.816152 206.694562 
L 295.391216 203.524553 
L 296.421242 201.177816 
L 296.936255 200.545998 
L 297.451268 200.104617 
L 297.966281 199.214173 
L 299.511319 195.128692 
L 300.026332 194.412903 
L 300.541345 194.624966 
L 301.056358 195.143305 
L 301.571371 194.822992 
L 302.086384 193.709207 
L 302.601396 192.964249 
L 303.631422 193.038243 
L 304.146435 192.411177 
L 306.721499 186.632148 
L 307.236512 185.325854 
L 308.266538 181.487918 
L 308.781551 181.42555 
L 310.326589 185.390665 
L 310.841602 185.389981 
L 311.356615 183.884149 
L 312.386641 178.637863 
L 313.416667 175.828694 
L 313.93168 174.397499 
L 314.446692 174.244414 
L 314.961705 175.240966 
L 315.476718 175.120388 
L 315.991731 172.965276 
L 316.506744 169.815759 
L 317.021757 167.461111 
L 317.53677 166.849725 
L 318.051782 166.990858 
L 318.566795 166.197566 
L 319.596821 161.578667 
L 320.111834 161.364574 
L 320.626847 162.610335 
L 321.14186 163.095403 
L 322.171885 161.361173 
L 322.686898 161.172505 
L 323.201911 161.419378 
L 324.231937 162.837674 
L 324.74695 162.668821 
L 325.261963 161.322705 
L 326.807001 155.541792 
L 327.837027 154.216181 
L 328.35204 152.715551 
L 328.867053 150.54895 
L 329.382066 149.064619 
L 329.897079 149.067519 
L 330.412091 149.691906 
L 330.927104 149.610069 
L 331.95713 147.145221 
L 332.472143 146.749173 
L 332.987156 147.219903 
L 333.502169 147.152637 
L 334.017181 145.676984 
L 334.532194 143.840685 
L 335.047207 142.752583 
L 335.56222 142.554615 
L 336.077233 142.965297 
L 336.592246 142.737462 
L 337.622272 139.962531 
L 338.137284 139.221639 
L 338.652297 139.071339 
L 339.16731 139.173361 
L 339.682323 138.265567 
L 340.712349 133.691267 
L 341.742375 131.100203 
L 342.257387 130.365571 
L 342.7724 131.337953 
L 343.287413 131.824043 
L 344.317439 128.949511 
L 344.832452 128.975187 
L 345.347465 129.707461 
L 345.862477 131.05171 
L 346.37749 133.003076 
L 346.892503 133.995949 
L 347.407516 132.885912 
L 347.922529 131.169329 
L 348.437542 131.467469 
L 348.952555 133.075309 
L 349.467568 133.844573 
L 349.98258 133.011051 
L 350.497593 130.139392 
L 351.012606 126.116265 
L 351.527619 124.307048 
L 352.557645 128.305257 
L 353.072658 127.598979 
L 353.587671 125.444166 
L 354.102683 124.831277 
L 354.617696 125.484078 
L 355.132709 124.246805 
L 355.647722 120.319046 
L 356.162735 117.833977 
L 356.677748 120.306919 
L 357.192761 124.193589 
L 357.707773 124.902001 
L 358.222786 121.93415 
L 358.737799 117.854893 
L 359.252812 115.44989 
L 359.767825 115.325898 
L 360.282838 116.242427 
L 361.827876 120.132921 
L 362.342889 120.904063 
L 362.857902 122.935567 
L 363.887928 129.134001 
L 364.402941 128.66286 
L 364.917954 123.872979 
L 365.947979 110.696321 
L 366.462992 107.380179 
L 366.978005 105.62322 
L 367.493018 105.879854 
L 368.523044 112.141358 
L 369.038057 113.343352 
L 369.553069 112.941097 
L 370.068082 112.741173 
L 370.583095 111.946648 
L 371.098108 109.442732 
L 371.613121 107.547392 
L 372.128134 108.594609 
L 372.643147 110.49614 
L 373.15816 110.074256 
L 374.188185 102.389558 
L 374.703198 101.699419 
L 375.218211 103.363184 
L 375.733224 103.137137 
L 376.76325 98.564904 
L 377.278263 96.783881 
L 377.793275 93.622391 
L 378.308288 91.720007 
L 379.338314 96.554129 
L 379.853327 95.673263 
L 380.36834 93.451521 
L 380.883353 92.661711 
L 381.398366 92.890775 
L 381.913378 92.744169 
L 382.428391 91.152386 
L 382.943404 88.785239 
L 383.458417 87.94024 
L 383.97343 88.092854 
L 384.488443 86.691678 
L 387.063507 73.585016 
L 388.093533 72.702005 
L 388.608546 72.478423 
L 389.638571 79.203656 
L 390.153584 75.780815 
L 391.18361 52.940846 
L 391.698623 53.517555 
L 392.213636 60.360915 
L 392.728649 64.068099 
L 393.243662 62.906035 
L 394.7887 49.722472 
L 395.303713 44.874943 
L 396.333739 27.208122 
L 396.848752 22.293232 
L 397.363764 21.730964 
L 397.878777 23.055676 
L 398.39379 28.769832 
L 398.908803 36.925737 
L 399.423816 38.866446 
L 399.938829 29.485181 
L 400.630778 -1 
M 401.835965 -1 
L 401.99888 5.159686 
L 402.513893 16.966553 
L 403.028906 20.595146 
L 403.543919 20.984988 
L 404.058932 20.045873 
L 405.088958 12.672517 
L 405.60397 14.207185 
L 406.118983 18.463993 
L 406.633996 24.223676 
L 407.149009 27.722222 
L 407.664022 21.492907 
L 408.228974 -1 
M 410.519849 -1 
L 410.754099 3.016467 
L 411.269112 9.232087 
L 411.784125 10.80076 
L 412.299138 15.752192 
L 412.814151 22.28353 
L 413.329163 20.873876 
L 413.844176 8.2237 
L 414.038251 -1 
M 443.693879 -1 
L 443.714923 -0.257592 
L 444.229936 0.836577 
L 444.289116 -1 
L 444.289116 -1 
" clip-path="url(#pe6c16a60e8)" style="fill: none; stroke: #ec4067; stroke-width: 2.5; stroke-linecap: square"/>
   </g>
   <g id="matplotlib.axis_1">
    <g id="xtick_1">
     <g id="line2d_4">
      <defs>
       <path id="m9cce0a2e4b" d="M 0 0 
L 0 3.5 
" style="stroke: #000000; stroke-width: 0.8"/>
      </defs>
      <g>
       <use xlink:href="#m9cce0a2e4b" x="46.64" y="302.8525" style="stroke: #000000; stroke-width: 0.8"/>
      </g>
     </g>
     <g id="text_1">
      <!-- 1 -->
      <g transform="translate(43.45875 317.450937) scale(0.1 -0.1)">
       <defs>
        <path id="DejaVuSans-31" d="M 794 531 
L 1825 531 
L 1825 4091 
L 703 3866 
L 703 4441 
L 1819 4666 
L 2450 4666 
L 2450 531 
L 3481 531 
L 3481 0 
L 794 0 
L 794 531 
z
" transform="scale(0.015625)"/>
       </defs>
       <use xlink:href="#DejaVuSans-31"/>
      </g>
     </g>
    </g>
    <g id="xtick_2">
     <g id="line2d_5">
      <g>
       <use xlink:href="#m9cce0a2e4b" x="103.806429" y="302.8525" style="stroke: #000000; stroke-width: 0.8"/>
      </g>
     </g>
     <g id="text_2">
      <!-- 2 -->
      <g transform="translate(100.625179 317.450937) scale(0.1 -0.1)">
       <defs>
        <path id="DejaVuSans-32" d="M 1228 531 
L 3431 531 
L 3431 0 
L 469 0 
L 469 531 
Q 828 903 1448 1529 
Q 2069 2156 2228 2338 
Q 2531 2678 2651 2914 
Q 2772 3150 2772 3378 
Q 2772 3750 2511 3984 
Q 2250 4219 1831 4219 
Q 1534 4219 1204 4116 
Q 875 4013 500 3803 
L 500 4441 
Q 881 4594 1212 4672 
Q 1544 4750 1819 4750 
Q 2544 4750 2975 4387 
Q 3406 4025 3406 3419 
Q 3406 3131 3298 2873 
Q 3191 2616 2906 2266 
Q 2828 2175 2409 1742 
Q 1991 1309 1228 531 
z
" transform="scale(0.015625)"/>
       </defs>
       <use xlink:href="#DejaVuSans-32"/>
      </g>
     </g>
    </g>
    <g id="xtick_3">
     <g id="line2d_6">
      <g>
       <use xlink:href="#m9cce0a2e4b" x="160.972857" y="302.8525" style="stroke: #000000; stroke-width: 0.8"/>
      </g>
     </g>
     <g id="text_3">
      <!-- 3 -->
      <g transform="translate(157.791607 317.450937) scale(0.1 -0.1)">
       <defs>
        <path id="DejaVuSans-33" d="M 2597 2516 
Q 3050 2419 3304 2112 
Q 3559 1806 3559 1356 
Q 3559 666 3084 287 
Q 2609 -91 1734 -91 
Q 1441 -91 1130 -33 
Q 819 25 488 141 
L 488 750 
Q 750 597 1062 519 
Q 1375 441 1716 441 
Q 2309 441 2620 675 
Q 2931 909 2931 1356 
Q 2931 1769 2642 2001 
Q 2353 2234 1838 2234 
L 1294 2234 
L 1294 2753 
L 1863 2753 
Q 2328 2753 2575 2939 
Q 2822 3125 2822 3475 
Q 2822 3834 2567 4026 
Q 2313 4219 1838 4219 
Q 1578 4219 1281 4162 
Q 984 4106 628 3988 
L 628 4550 
Q 988 4650 1302 4700 
Q 1616 4750 1894 4750 
Q 2613 4750 3031 4423 
Q 3450 4097 3450 3541 
Q 3450 3153 3228 2886 
Q 3006 2619 2597 2516 
z
" transform="scale(0.015625)"/>
       </defs>
       <use xlink:href="#DejaVuSans-33"/>
      </g>
     </g>
    </g>
    <g id="xtick_4">
     <g id="line2d_7">
      <g>
       <use xlink:href="#m9cce0a2e4b" x="218.139286" y="302.8525" style="stroke: #000000; stroke-width: 0.8"/>
      </g>
     </g>
     <g id="text_4">
      <!-- 4 -->
      <g transform="translate(214.958036 317.450937) scale(0.1 -0.1)">
       <defs>
        <path id="DejaVuSans-34" d="M 2419 4116 
L 825 1625 
L 2419 1625 
L 2419 4116 
z
M 2253 4666 
L 3047 4666 
L 3047 1625 
L 3713 1625 
L 3713 1100 
L 3047 1100 
L 3047 0 
L 2419 0 
L 2419 1100 
L 313 1100 
L 313 1709 
L 2253 4666 
z
" transform="scale(0.015625)"/>
       </defs>
       <use xlink:href="#DejaVuSans-34"/>
      </g>
     </g>
    </g>
    <g id="xtick_5">
     <g id="line2d_8">
      <g>
       <use xlink:href="#m9cce0a2e4b" x="275.305714" y="302.8525" style="stroke: #000000; stroke-width: 0.8"/>
      </g>
     </g>
     <g id="text_5">
      <!-- 5 -->
      <g transform="translate(272.124464 317.450937) scale(0.1 -0.1)">
       <defs>
        <path id="DejaVuSans-35" d="M 691 4666 
L 3169 4666 
L 3169 4134 
L 1269 4134 
L 1269 2991 
Q 1406 3038 1543 3061 
Q 1681 3084 1819 3084 
Q 2600 3084 3056 2656 
Q 3513 2228 3513 1497 
Q 3513 744 3044 326 
Q 2575 -91 1722 -91 
Q 1428 -91 1123 -41 
Q 819 9 494 109 
L 494 744 
Q 775 591 1075 516 
Q 1375 441 1709 441 
Q 2250 441 2565 725 
Q 2881 1009 2881 1497 
Q 2881 1984 2565 2268 
Q 2250 2553 1709 2553 
Q 1456 2553 1204 2497 
Q 953 2441 691 2322 
L 691 4666 
z
" transform="scale(0.015625)"/>
       </defs>
       <use xlink:href="#DejaVuSans-35"/>
      </g>
     </g>
    </g>
    <g id="xtick_6">
     <g id="line2d_9">
      <g>
       <use xlink:href="#m9cce0a2e4b" x="332.472143" y="302.8525" style="stroke: #000000; stroke-width: 0.8"/>
      </g>
     </g>
     <g id="text_6">
      <!-- 6 -->
      <g transform="translate(329.290893 317.450937) scale(0.1 -0.1)">
       <defs>
        <path id="DejaVuSans-36" d="M 2113 2584 
Q 1688 2584 1439 2293 
Q 1191 2003 1191 1497 
Q 1191 994 1439 701 
Q 1688 409 2113 409 
Q 2538 409 2786 701 
Q 3034 994 3034 1497 
Q 3034 2003 2786 2293 
Q 2538 2584 2113 2584 
z
M 3366 4563 
L 3366 3988 
Q 3128 4100 2886 4159 
Q 2644 4219 2406 4219 
Q 1781 4219 1451 3797 
Q 1122 3375 1075 2522 
Q 1259 2794 1537 2939 
Q 1816 3084 2150 3084 
Q 2853 3084 3261 2657 
Q 3669 2231 3669 1497 
Q 3669 778 3244 343 
Q 2819 -91 2113 -91 
Q 1303 -91 875 529 
Q 447 1150 447 2328 
Q 447 3434 972 4092 
Q 1497 4750 2381 4750 
Q 2619 4750 2861 4703 
Q 3103 4656 3366 4563 
z
" transform="scale(0.015625)"/>
       </defs>
       <use xlink:href="#DejaVuSans-36"/>
      </g>
     </g>
    </g>
    <g id="xtick_7">
     <g id="line2d_10">
      <g>
       <use xlink:href="#m9cce0a2e4b" x="389.638571" y="302.8525" style="stroke: #000000; stroke-width: 0.8"/>
      </g>
     </g>
     <g id="text_7">
      <!-- 7 -->
      <g transform="translate(386.457321 317.450937) scale(0.1 -0.1)">
       <defs>
        <path id="DejaVuSans-37" d="M 525 4666 
L 3525 4666 
L 3525 4397 
L 1831 0 
L 1172 0 
L 2766 4134 
L 525 4134 
L 525 4666 
z
" transform="scale(0.015625)"/>
       </defs>
       <use xlink:href="#DejaVuSans-37"/>
      </g>
     </g>
    </g>
    <g id="xtick_8">
     <g id="line2d_11">
      <g>
       <use xlink:href="#m9cce0a2e4b" x="446.805" y="302.8525" style="stroke: #000000; stroke-width: 0.8"/>
      </g>
     </g>
     <g id="text_8">
      <!-- 8 -->
      <g transform="translate(443.62375 317.450937) scale(0.1 -0.1)">
       <defs>
        <path id="DejaVuSans-38" d="M 2034 2216 
Q 1584 2216 1326 1975 
Q 1069 1734 1069 1313 
Q 1069 891 1326 650 
Q 1584 409 2034 409 
Q 2484 409 2743 651 
Q 3003 894 3003 1313 
Q 3003 1734 2745 1975 
Q 2488 2216 2034 2216 
z
M 1403 2484 
Q 997 2584 770 2862 
Q 544 3141 544 3541 
Q 544 4100 942 4425 
Q 1341 4750 2034 4750 
Q 2731 4750 3128 4425 
Q 3525 4100 3525 3541 
Q 3525 3141 3298 2862 
Q 3072 2584 2669 2484 
Q 3125 2378 3379 2068 
Q 3634 1759 3634 1313 
Q 3634 634 3220 271 
Q 2806 -91 2034 -91 
Q 1263 -91 848 271 
Q 434 634 434 1313 
Q 434 1759 690 2068 
Q 947 2378 1403 2484 
z
M 1172 3481 
Q 1172 3119 1398 2916 
Q 1625 2713 2034 2713 
Q 2441 2713 2670 2916 
Q 2900 3119 2900 3481 
Q 2900 3844 2670 4047 
Q 2441 4250 2034 4250 
Q 1625 4250 1398 4047 
Q 1172 3844 1172 3481 
z
" transform="scale(0.015625)"/>
       </defs>
       <use xlink:href="#DejaVuSans-38"/>
      </g>
     </g>
    </g>
    <g id="text_9">
     <!-- SER205 OG - GLH222 HE2 Distance [Å] -->
     <g transform="translate(148.973281 332.0525) scale(0.1 -0.1)">
      <defs>
       <path id="DejaVuSans-53" d="M 3425 4513 
L 3425 3897 
Q 3066 4069 2747 4153 
Q 2428 4238 2131 4238 
Q 1616 4238 1336 4038 
Q 1056 3838 1056 3469 
Q 1056 3159 1242 3001 
Q 1428 2844 1947 2747 
L 2328 2669 
Q 3034 2534 3370 2195 
Q 3706 1856 3706 1288 
Q 3706 609 3251 259 
Q 2797 -91 1919 -91 
Q 1588 -91 1214 -16 
Q 841 59 441 206 
L 441 856 
Q 825 641 1194 531 
Q 1563 422 1919 422 
Q 2459 422 2753 634 
Q 3047 847 3047 1241 
Q 3047 1584 2836 1778 
Q 2625 1972 2144 2069 
L 1759 2144 
Q 1053 2284 737 2584 
Q 422 2884 422 3419 
Q 422 4038 858 4394 
Q 1294 4750 2059 4750 
Q 2388 4750 2728 4690 
Q 3069 4631 3425 4513 
z
" transform="scale(0.015625)"/>
       <path id="DejaVuSans-45" d="M 628 4666 
L 3578 4666 
L 3578 4134 
L 1259 4134 
L 1259 2753 
L 3481 2753 
L 3481 2222 
L 1259 2222 
L 1259 531 
L 3634 531 
L 3634 0 
L 628 0 
L 628 4666 
z
" transform="scale(0.015625)"/>
       <path id="DejaVuSans-52" d="M 2841 2188 
Q 3044 2119 3236 1894 
Q 3428 1669 3622 1275 
L 4263 0 
L 3584 0 
L 2988 1197 
Q 2756 1666 2539 1819 
Q 2322 1972 1947 1972 
L 1259 1972 
L 1259 0 
L 628 0 
L 628 4666 
L 2053 4666 
Q 2853 4666 3247 4331 
Q 3641 3997 3641 3322 
Q 3641 2881 3436 2590 
Q 3231 2300 2841 2188 
z
M 1259 4147 
L 1259 2491 
L 2053 2491 
Q 2509 2491 2742 2702 
Q 2975 2913 2975 3322 
Q 2975 3731 2742 3939 
Q 2509 4147 2053 4147 
L 1259 4147 
z
" transform="scale(0.015625)"/>
       <path id="DejaVuSans-30" d="M 2034 4250 
Q 1547 4250 1301 3770 
Q 1056 3291 1056 2328 
Q 1056 1369 1301 889 
Q 1547 409 2034 409 
Q 2525 409 2770 889 
Q 3016 1369 3016 2328 
Q 3016 3291 2770 3770 
Q 2525 4250 2034 4250 
z
M 2034 4750 
Q 2819 4750 3233 4129 
Q 3647 3509 3647 2328 
Q 3647 1150 3233 529 
Q 2819 -91 2034 -91 
Q 1250 -91 836 529 
Q 422 1150 422 2328 
Q 422 3509 836 4129 
Q 1250 4750 2034 4750 
z
" transform="scale(0.015625)"/>
       <path id="DejaVuSans-20" transform="scale(0.015625)"/>
       <path id="DejaVuSans-4f" d="M 2522 4238 
Q 1834 4238 1429 3725 
Q 1025 3213 1025 2328 
Q 1025 1447 1429 934 
Q 1834 422 2522 422 
Q 3209 422 3611 934 
Q 4013 1447 4013 2328 
Q 4013 3213 3611 3725 
Q 3209 4238 2522 4238 
z
M 2522 4750 
Q 3503 4750 4090 4092 
Q 4678 3434 4678 2328 
Q 4678 1225 4090 567 
Q 3503 -91 2522 -91 
Q 1538 -91 948 565 
Q 359 1222 359 2328 
Q 359 3434 948 4092 
Q 1538 4750 2522 4750 
z
" transform="scale(0.015625)"/>
       <path id="DejaVuSans-47" d="M 3809 666 
L 3809 1919 
L 2778 1919 
L 2778 2438 
L 4434 2438 
L 4434 434 
Q 4069 175 3628 42 
Q 3188 -91 2688 -91 
Q 1594 -91 976 548 
Q 359 1188 359 2328 
Q 359 3472 976 4111 
Q 1594 4750 2688 4750 
Q 3144 4750 3555 4637 
Q 3966 4525 4313 4306 
L 4313 3634 
Q 3963 3931 3569 4081 
Q 3175 4231 2741 4231 
Q 1884 4231 1454 3753 
Q 1025 3275 1025 2328 
Q 1025 1384 1454 906 
Q 1884 428 2741 428 
Q 3075 428 3337 486 
Q 3600 544 3809 666 
z
" transform="scale(0.015625)"/>
       <path id="DejaVuSans-2d" d="M 313 2009 
L 1997 2009 
L 1997 1497 
L 313 1497 
L 313 2009 
z
" transform="scale(0.015625)"/>
       <path id="DejaVuSans-4c" d="M 628 4666 
L 1259 4666 
L 1259 531 
L 3531 531 
L 3531 0 
L 628 0 
L 628 4666 
z
" transform="scale(0.015625)"/>
       <path id="DejaVuSans-48" d="M 628 4666 
L 1259 4666 
L 1259 2753 
L 3553 2753 
L 3553 4666 
L 4184 4666 
L 4184 0 
L 3553 0 
L 3553 2222 
L 1259 2222 
L 1259 0 
L 628 0 
L 628 4666 
z
" transform="scale(0.015625)"/>
       <path id="DejaVuSans-44" d="M 1259 4147 
L 1259 519 
L 2022 519 
Q 2988 519 3436 956 
Q 3884 1394 3884 2338 
Q 3884 3275 3436 3711 
Q 2988 4147 2022 4147 
L 1259 4147 
z
M 628 4666 
L 1925 4666 
Q 3281 4666 3915 4102 
Q 4550 3538 4550 2338 
Q 4550 1131 3912 565 
Q 3275 0 1925 0 
L 628 0 
L 628 4666 
z
" transform="scale(0.015625)"/>
       <path id="DejaVuSans-69" d="M 603 3500 
L 1178 3500 
L 1178 0 
L 603 0 
L 603 3500 
z
M 603 4863 
L 1178 4863 
L 1178 4134 
L 603 4134 
L 603 4863 
z
" transform="scale(0.015625)"/>
       <path id="DejaVuSans-73" d="M 2834 3397 
L 2834 2853 
Q 2591 2978 2328 3040 
Q 2066 3103 1784 3103 
Q 1356 3103 1142 2972 
Q 928 2841 928 2578 
Q 928 2378 1081 2264 
Q 1234 2150 1697 2047 
L 1894 2003 
Q 2506 1872 2764 1633 
Q 3022 1394 3022 966 
Q 3022 478 2636 193 
Q 2250 -91 1575 -91 
Q 1294 -91 989 -36 
Q 684 19 347 128 
L 347 722 
Q 666 556 975 473 
Q 1284 391 1588 391 
Q 1994 391 2212 530 
Q 2431 669 2431 922 
Q 2431 1156 2273 1281 
Q 2116 1406 1581 1522 
L 1381 1569 
Q 847 1681 609 1914 
Q 372 2147 372 2553 
Q 372 3047 722 3315 
Q 1072 3584 1716 3584 
Q 2034 3584 2315 3537 
Q 2597 3491 2834 3397 
z
" transform="scale(0.015625)"/>
       <path id="DejaVuSans-74" d="M 1172 4494 
L 1172 3500 
L 2356 3500 
L 2356 3053 
L 1172 3053 
L 1172 1153 
Q 1172 725 1289 603 
Q 1406 481 1766 481 
L 2356 481 
L 2356 0 
L 1766 0 
Q 1100 0 847 248 
Q 594 497 594 1153 
L 594 3053 
L 172 3053 
L 172 3500 
L 594 3500 
L 594 4494 
L 1172 4494 
z
" transform="scale(0.015625)"/>
       <path id="DejaVuSans-61" d="M 2194 1759 
Q 1497 1759 1228 1600 
Q 959 1441 959 1056 
Q 959 750 1161 570 
Q 1363 391 1709 391 
Q 2188 391 2477 730 
Q 2766 1069 2766 1631 
L 2766 1759 
L 2194 1759 
z
M 3341 1997 
L 3341 0 
L 2766 0 
L 2766 531 
Q 2569 213 2275 61 
Q 1981 -91 1556 -91 
Q 1019 -91 701 211 
Q 384 513 384 1019 
Q 384 1609 779 1909 
Q 1175 2209 1959 2209 
L 2766 2209 
L 2766 2266 
Q 2766 2663 2505 2880 
Q 2244 3097 1772 3097 
Q 1472 3097 1187 3025 
Q 903 2953 641 2809 
L 641 3341 
Q 956 3463 1253 3523 
Q 1550 3584 1831 3584 
Q 2591 3584 2966 3190 
Q 3341 2797 3341 1997 
z
" transform="scale(0.015625)"/>
       <path id="DejaVuSans-6e" d="M 3513 2113 
L 3513 0 
L 2938 0 
L 2938 2094 
Q 2938 2591 2744 2837 
Q 2550 3084 2163 3084 
Q 1697 3084 1428 2787 
Q 1159 2491 1159 1978 
L 1159 0 
L 581 0 
L 581 3500 
L 1159 3500 
L 1159 2956 
Q 1366 3272 1645 3428 
Q 1925 3584 2291 3584 
Q 2894 3584 3203 3211 
Q 3513 2838 3513 2113 
z
" transform="scale(0.015625)"/>
       <path id="DejaVuSans-63" d="M 3122 3366 
L 3122 2828 
Q 2878 2963 2633 3030 
Q 2388 3097 2138 3097 
Q 1578 3097 1268 2742 
Q 959 2388 959 1747 
Q 959 1106 1268 751 
Q 1578 397 2138 397 
Q 2388 397 2633 464 
Q 2878 531 3122 666 
L 3122 134 
Q 2881 22 2623 -34 
Q 2366 -91 2075 -91 
Q 1284 -91 818 406 
Q 353 903 353 1747 
Q 353 2603 823 3093 
Q 1294 3584 2113 3584 
Q 2378 3584 2631 3529 
Q 2884 3475 3122 3366 
z
" transform="scale(0.015625)"/>
       <path id="DejaVuSans-65" d="M 3597 1894 
L 3597 1613 
L 953 1613 
Q 991 1019 1311 708 
Q 1631 397 2203 397 
Q 2534 397 2845 478 
Q 3156 559 3463 722 
L 3463 178 
Q 3153 47 2828 -22 
Q 2503 -91 2169 -91 
Q 1331 -91 842 396 
Q 353 884 353 1716 
Q 353 2575 817 3079 
Q 1281 3584 2069 3584 
Q 2775 3584 3186 3129 
Q 3597 2675 3597 1894 
z
M 3022 2063 
Q 3016 2534 2758 2815 
Q 2500 3097 2075 3097 
Q 1594 3097 1305 2825 
Q 1016 2553 972 2059 
L 3022 2063 
z
" transform="scale(0.015625)"/>
       <path id="DejaVuSans-5b" d="M 550 4863 
L 1875 4863 
L 1875 4416 
L 1125 4416 
L 1125 -397 
L 1875 -397 
L 1875 -844 
L 550 -844 
L 550 4863 
z
" transform="scale(0.015625)"/>
       <path id="DejaVuSans-c5" d="M 2663 5081 
Q 2663 5278 2523 5417 
Q 2384 5556 2188 5556 
Q 1988 5556 1852 5420 
Q 1716 5284 1716 5081 
Q 1716 4884 1853 4746 
Q 1991 4609 2188 4609 
Q 2384 4609 2523 4746 
Q 2663 4884 2663 5081 
z
M 2188 4044 
L 1338 1722 
L 3041 1722 
L 2188 4044 
z
M 1716 4366 
Q 1525 4494 1428 4673 
Q 1331 4853 1331 5081 
Q 1331 5441 1579 5691 
Q 1828 5941 2188 5941 
Q 2544 5941 2795 5689 
Q 3047 5438 3047 5081 
Q 3047 4863 2948 4678 
Q 2850 4494 2663 4366 
L 4325 0 
L 3669 0 
L 3244 1197 
L 1141 1197 
L 716 0 
L 50 0 
L 1716 4366 
z
" transform="scale(0.015625)"/>
       <path id="DejaVuSans-5d" d="M 1947 4863 
L 1947 -844 
L 622 -844 
L 622 -397 
L 1369 -397 
L 1369 4416 
L 622 4416 
L 622 4863 
L 1947 4863 
z
" transform="scale(0.015625)"/>
      </defs>
      <use xlink:href="#DejaVuSans-53"/>
      <use xlink:href="#DejaVuSans-45" x="63.476562"/>
      <use xlink:href="#DejaVuSans-52" x="126.660156"/>
      <use xlink:href="#DejaVuSans-32" x="196.142578"/>
      <use xlink:href="#DejaVuSans-30" x="259.765625"/>
      <use xlink:href="#DejaVuSans-35" x="323.388672"/>
      <use xlink:href="#DejaVuSans-20" x="387.011719"/>
      <use xlink:href="#DejaVuSans-4f" x="418.798828"/>
      <use xlink:href="#DejaVuSans-47" x="497.509766"/>
      <use xlink:href="#DejaVuSans-20" x="575"/>
      <use xlink:href="#DejaVuSans-2d" x="606.787109"/>
      <use xlink:href="#DejaVuSans-20" x="642.871094"/>
      <use xlink:href="#DejaVuSans-47" x="674.658203"/>
      <use xlink:href="#DejaVuSans-4c" x="752.148438"/>
      <use xlink:href="#DejaVuSans-48" x="807.861328"/>
      <use xlink:href="#DejaVuSans-32" x="883.056641"/>
      <use xlink:href="#DejaVuSans-32" x="946.679688"/>
      <use xlink:href="#DejaVuSans-32" x="1010.302734"/>
      <use xlink:href="#DejaVuSans-20" x="1073.925781"/>
      <use xlink:href="#DejaVuSans-48" x="1105.712891"/>
      <use xlink:href="#DejaVuSans-45" x="1180.908203"/>
      <use xlink:href="#DejaVuSans-32" x="1244.091797"/>
      <use xlink:href="#DejaVuSans-20" x="1307.714844"/>
      <use xlink:href="#DejaVuSans-44" x="1339.501953"/>
      <use xlink:href="#DejaVuSans-69" x="1416.503906"/>
      <use xlink:href="#DejaVuSans-73" x="1444.287109"/>
      <use xlink:href="#DejaVuSans-74" x="1496.386719"/>
      <use xlink:href="#DejaVuSans-61" x="1535.595703"/>
      <use xlink:href="#DejaVuSans-6e" x="1596.875"/>
      <use xlink:href="#DejaVuSans-63" x="1660.253906"/>
      <use xlink:href="#DejaVuSans-65" x="1715.234375"/>
      <use xlink:href="#DejaVuSans-20" x="1776.757812"/>
      <use xlink:href="#DejaVuSans-5b" x="1808.544922"/>
      <use xlink:href="#DejaVuSans-c5" x="1847.558594"/>
      <use xlink:href="#DejaVuSans-5d" x="1915.966797"/>
     </g>
    </g>
   </g>
   <g id="matplotlib.axis_2">
    <g id="ytick_1">
     <g id="line2d_12">
      <defs>
       <path id="mcaa3965a21" d="M 0 0 
L -3.5 0 
" style="stroke: #000000; stroke-width: 0.8"/>
      </defs>
      <g>
       <use xlink:href="#mcaa3965a21" x="46.64" y="302.8525" style="stroke: #000000; stroke-width: 0.8"/>
      </g>
     </g>
     <g id="text_10">
      <!-- −1 -->
      <g transform="translate(24.897813 306.651719) scale(0.1 -0.1)">
       <defs>
        <path id="DejaVuSans-2212" d="M 678 2272 
L 4684 2272 
L 4684 1741 
L 678 1741 
L 678 2272 
z
" transform="scale(0.015625)"/>
       </defs>
       <use xlink:href="#DejaVuSans-2212"/>
       <use xlink:href="#DejaVuSans-31" x="83.789062"/>
      </g>
     </g>
    </g>
    <g id="ytick_2">
     <g id="line2d_13">
      <g>
       <use xlink:href="#mcaa3965a21" x="46.64" y="245.234" style="stroke: #000000; stroke-width: 0.8"/>
      </g>
     </g>
     <g id="text_11">
      <!-- 0 -->
      <g transform="translate(33.2775 249.033219) scale(0.1 -0.1)">
       <use xlink:href="#DejaVuSans-30"/>
      </g>
     </g>
    </g>
    <g id="ytick_3">
     <g id="line2d_14">
      <g>
       <use xlink:href="#mcaa3965a21" x="46.64" y="187.6155" style="stroke: #000000; stroke-width: 0.8"/>
      </g>
     </g>
     <g id="text_12">
      <!-- 1 -->
      <g transform="translate(33.2775 191.414719) scale(0.1 -0.1)">
       <use xlink:href="#DejaVuSans-31"/>
      </g>
     </g>
    </g>
    <g id="ytick_4">
     <g id="line2d_15">
      <g>
       <use xlink:href="#mcaa3965a21" x="46.64" y="129.997" style="stroke: #000000; stroke-width: 0.8"/>
      </g>
     </g>
     <g id="text_13">
      <!-- 2 -->
      <g transform="translate(33.2775 133.796219) scale(0.1 -0.1)">
       <use xlink:href="#DejaVuSans-32"/>
      </g>
     </g>
    </g>
    <g id="ytick_5">
     <g id="line2d_16">
      <g>
       <use xlink:href="#mcaa3965a21" x="46.64" y="72.3785" style="stroke: #000000; stroke-width: 0.8"/>
      </g>
     </g>
     <g id="text_14">
      <!-- 3 -->
      <g transform="translate(33.2775 76.177719) scale(0.1 -0.1)">
       <use xlink:href="#DejaVuSans-33"/>
      </g>
     </g>
    </g>
    <g id="ytick_6">
     <g id="line2d_17">
      <g>
       <use xlink:href="#mcaa3965a21" x="46.64" y="14.76" style="stroke: #000000; stroke-width: 0.8"/>
      </g>
     </g>
     <g id="text_15">
      <!-- 4 -->
      <g transform="translate(33.2775 18.559219) scale(0.1 -0.1)">
       <use xlink:href="#DejaVuSans-34"/>
      </g>
     </g>
    </g>
    <g id="text_16">
     <!-- PMF [kcal/mol] -->
     <g transform="translate(18.818125 195.602344) rotate(-90) scale(0.1 -0.1)">
      <defs>
       <path id="DejaVuSans-50" d="M 1259 4147 
L 1259 2394 
L 2053 2394 
Q 2494 2394 2734 2622 
Q 2975 2850 2975 3272 
Q 2975 3691 2734 3919 
Q 2494 4147 2053 4147 
L 1259 4147 
z
M 628 4666 
L 2053 4666 
Q 2838 4666 3239 4311 
Q 3641 3956 3641 3272 
Q 3641 2581 3239 2228 
Q 2838 1875 2053 1875 
L 1259 1875 
L 1259 0 
L 628 0 
L 628 4666 
z
" transform="scale(0.015625)"/>
       <path id="DejaVuSans-4d" d="M 628 4666 
L 1569 4666 
L 2759 1491 
L 3956 4666 
L 4897 4666 
L 4897 0 
L 4281 0 
L 4281 4097 
L 3078 897 
L 2444 897 
L 1241 4097 
L 1241 0 
L 628 0 
L 628 4666 
z
" transform="scale(0.015625)"/>
       <path id="DejaVuSans-46" d="M 628 4666 
L 3309 4666 
L 3309 4134 
L 1259 4134 
L 1259 2759 
L 3109 2759 
L 3109 2228 
L 1259 2228 
L 1259 0 
L 628 0 
L 628 4666 
z
" transform="scale(0.015625)"/>
       <path id="DejaVuSans-6b" d="M 581 4863 
L 1159 4863 
L 1159 1991 
L 2875 3500 
L 3609 3500 
L 1753 1863 
L 3688 0 
L 2938 0 
L 1159 1709 
L 1159 0 
L 581 0 
L 581 4863 
z
" transform="scale(0.015625)"/>
       <path id="DejaVuSans-6c" d="M 603 4863 
L 1178 4863 
L 1178 0 
L 603 0 
L 603 4863 
z
" transform="scale(0.015625)"/>
       <path id="DejaVuSans-2f" d="M 1625 4666 
L 2156 4666 
L 531 -594 
L 0 -594 
L 1625 4666 
z
" transform="scale(0.015625)"/>
       <path id="DejaVuSans-6d" d="M 3328 2828 
Q 3544 3216 3844 3400 
Q 4144 3584 4550 3584 
Q 5097 3584 5394 3201 
Q 5691 2819 5691 2113 
L 5691 0 
L 5113 0 
L 5113 2094 
Q 5113 2597 4934 2840 
Q 4756 3084 4391 3084 
Q 3944 3084 3684 2787 
Q 3425 2491 3425 1978 
L 3425 0 
L 2847 0 
L 2847 2094 
Q 2847 2600 2669 2842 
Q 2491 3084 2119 3084 
Q 1678 3084 1418 2786 
Q 1159 2488 1159 1978 
L 1159 0 
L 581 0 
L 581 3500 
L 1159 3500 
L 1159 2956 
Q 1356 3278 1631 3431 
Q 1906 3584 2284 3584 
Q 2666 3584 2933 3390 
Q 3200 3197 3328 2828 
z
" transform="scale(0.015625)"/>
       <path id="DejaVuSans-6f" d="M 1959 3097 
Q 1497 3097 1228 2736 
Q 959 2375 959 1747 
Q 959 1119 1226 758 
Q 1494 397 1959 397 
Q 2419 397 2687 759 
Q 2956 1122 2956 1747 
Q 2956 2369 2687 2733 
Q 2419 3097 1959 3097 
z
M 1959 3584 
Q 2709 3584 3137 3096 
Q 3566 2609 3566 1747 
Q 3566 888 3137 398 
Q 2709 -91 1959 -91 
Q 1206 -91 779 398 
Q 353 888 353 1747 
Q 353 2609 779 3096 
Q 1206 3584 1959 3584 
z
" transform="scale(0.015625)"/>
      </defs>
      <use xlink:href="#DejaVuSans-50"/>
      <use xlink:href="#DejaVuSans-4d" x="60.302734"/>
      <use xlink:href="#DejaVuSans-46" x="146.582031"/>
      <use xlink:href="#DejaVuSans-20" x="204.101562"/>
      <use xlink:href="#DejaVuSans-5b" x="235.888672"/>
      <use xlink:href="#DejaVuSans-6b" x="274.902344"/>
      <use xlink:href="#DejaVuSans-63" x="332.8125"/>
      <use xlink:href="#DejaVuSans-61" x="387.792969"/>
      <use xlink:href="#DejaVuSans-6c" x="449.072266"/>
      <use xlink:href="#DejaVuSans-2f" x="476.855469"/>
      <use xlink:href="#DejaVuSans-6d" x="510.546875"/>
      <use xlink:href="#DejaVuSans-6f" x="607.958984"/>
      <use xlink:href="#DejaVuSans-6c" x="669.140625"/>
      <use xlink:href="#DejaVuSans-5d" x="696.923828"/>
     </g>
    </g>
   </g>
   <g id="line2d_18">
    <path d="M 86.946997 -1 
L 87.326017 6.278038 
L 87.84103 11.959665 
L 88.356042 12.592275 
L 88.871055 7.646753 
L 89.329459 -1 
M 92.987509 -1 
L 93.506171 3.801666 
L 94.021184 4.68474 
L 94.557939 -1 
M 98.607777 -1 
L 98.6563 -0.119127 
L 99.171313 5.999191 
L 99.686326 9.532416 
L 100.201338 10.178065 
L 100.716351 7.794193 
L 101.868093 -1 
M 152.177813 -1 
L 152.732651 4.312993 
L 153.247664 8.518343 
L 153.762677 11.677412 
L 154.27769 13.62215 
L 154.792703 14.684841 
L 155.307716 15.436497 
L 155.822728 15.92914 
L 156.337741 15.328591 
L 156.852754 13.198808 
L 157.367767 11.856256 
L 157.88278 15.884162 
L 158.912806 35.309346 
L 159.427819 41.811276 
L 159.942831 43.943871 
L 160.457844 42.585368 
L 160.972857 40.21488 
L 161.48787 40.214925 
L 162.002883 44.297861 
L 164.062934 71.788196 
L 164.577947 76.35638 
L 165.09296 79.300235 
L 165.607973 80.672626 
L 166.122986 80.76437 
L 166.637999 79.925949 
L 167.668024 77.416194 
L 168.183037 77.99058 
L 168.69805 81.26288 
L 169.728076 90.331757 
L 170.243089 92.49445 
L 170.758102 93.093212 
L 171.273115 93.970396 
L 171.788127 96.907136 
L 173.848179 117.058272 
L 174.878205 122.982827 
L 175.90823 127.280389 
L 176.938256 130.905255 
L 177.453269 133.368592 
L 178.483295 140.175405 
L 180.028333 152.138842 
L 180.543346 155.092706 
L 181.058359 157.182207 
L 182.603398 161.503065 
L 183.633423 165.647731 
L 186.208488 176.896631 
L 187.238514 179.558161 
L 188.268539 181.769317 
L 189.298565 183.427241 
L 189.813578 184.066995 
L 190.328591 184.911556 
L 191.358616 187.718618 
L 191.873629 189.124535 
L 192.388642 190.160823 
L 193.418668 191.688097 
L 194.448694 193.885432 
L 195.993732 197.605288 
L 197.023758 199.263897 
L 200.113835 203.364096 
L 202.173887 205.418389 
L 203.203912 206.18224 
L 203.718925 206.812371 
L 205.263964 209.342977 
L 205.778977 209.796877 
L 206.29399 209.972273 
L 207.324015 209.958435 
L 208.354041 209.778466 
L 208.869054 209.650079 
L 209.384067 209.693212 
L 209.89908 210.09859 
L 210.414093 210.911384 
L 212.989157 216.081632 
L 213.50417 216.46665 
L 214.534196 216.700735 
L 215.049208 217.08538 
L 215.564221 217.786193 
L 217.624273 221.238628 
L 219.169311 222.489887 
L 220.199337 223.579647 
L 222.259389 224.952561 
L 223.289414 225.87351 
L 223.804427 226.013884 
L 224.834453 225.955476 
L 225.349466 226.255731 
L 226.379492 227.761705 
L 226.894505 228.507427 
L 227.409517 229.049321 
L 230.499595 231.315974 
L 232.044633 232.034472 
L 233.074659 233.097394 
L 235.13471 235.695585 
L 235.649723 236.128848 
L 236.164736 236.381028 
L 237.194762 236.66965 
L 237.709775 237.000936 
L 239.254813 238.354145 
L 241.314865 239.406067 
L 242.859903 240.915648 
L 243.374916 241.07393 
L 244.404942 240.847281 
L 245.434968 240.621855 
L 246.464994 240.764971 
L 246.980006 240.998014 
L 248.010032 241.803772 
L 249.555071 243.07728 
L 250.585097 243.735555 
L 253.160161 244.956425 
L 254.190187 245.584052 
L 255.735225 246.254581 
L 257.795277 246.921099 
L 260.370341 247.055657 
L 261.400367 247.239661 
L 261.91538 247.175935 
L 262.945405 246.73345 
L 263.975431 246.250038 
L 264.490444 246.151378 
L 265.52047 246.288758 
L 266.550495 246.480373 
L 268.095534 246.296266 
L 269.12556 246.06102 
L 271.700624 245.139897 
L 272.73065 243.986711 
L 273.760676 242.875781 
L 274.790701 242.24317 
L 276.33574 241.487124 
L 277.365766 240.517431 
L 278.910804 238.900765 
L 280.970856 236.931534 
L 282.000882 235.959216 
L 284.060933 234.329353 
L 285.090959 233.527837 
L 286.120985 233.193336 
L 287.15101 232.951954 
L 288.181036 232.449053 
L 289.211062 231.702908 
L 291.786126 229.268146 
L 292.816152 227.833037 
L 293.846178 226.513474 
L 295.906229 224.919995 
L 296.936255 223.854773 
L 298.996306 222.258738 
L 300.026332 221.823972 
L 300.541345 221.650172 
L 301.056358 221.355364 
L 302.086384 220.310017 
L 303.631422 218.532984 
L 304.146435 218.236588 
L 305.176461 218.156447 
L 305.691474 218.12203 
L 306.206486 217.942348 
L 307.751525 217.130327 
L 308.266538 217.214449 
L 309.296564 217.675276 
L 309.811577 217.642289 
L 311.356615 216.995893 
L 312.386641 216.904955 
L 312.901654 216.699623 
L 313.93168 216.042609 
L 314.446692 215.90699 
L 314.961705 216.022179 
L 315.991731 216.521205 
L 316.506744 216.593009 
L 317.021757 216.505549 
L 317.53677 216.291904 
L 318.051782 215.928464 
L 319.081808 214.944347 
L 319.596821 214.693822 
L 321.14186 214.555376 
L 322.171885 214.273182 
L 322.686898 214.279847 
L 323.201911 214.519562 
L 324.231937 215.722162 
L 324.74695 216.284582 
L 325.261963 216.503053 
L 325.776976 216.354997 
L 326.291988 216.05199 
L 326.807001 215.911917 
L 327.322014 216.114844 
L 328.35204 216.970723 
L 328.867053 217.120514 
L 329.382066 216.928072 
L 330.927104 215.641399 
L 331.442117 215.611544 
L 332.472143 216.159306 
L 332.987156 216.435752 
L 333.502169 216.550676 
L 334.017181 216.437546 
L 334.532194 216.071128 
L 336.077233 214.184236 
L 336.592246 213.927391 
L 337.107259 214.118799 
L 338.652297 215.960317 
L 339.16731 216.191415 
L 339.682323 216.126997 
L 340.712349 215.516508 
L 342.257387 214.187935 
L 342.7724 214.061675 
L 344.317439 214.521055 
L 344.832452 214.41417 
L 345.862477 213.616178 
L 346.892503 212.786175 
L 347.922529 212.199129 
L 348.437542 212.038958 
L 349.467568 212.074608 
L 351.527619 212.524112 
L 352.042632 212.268344 
L 354.102683 210.689716 
L 355.132709 209.851581 
L 356.677748 207.995951 
L 357.192761 207.721944 
L 358.737799 207.897195 
L 359.252812 207.438425 
L 360.282838 205.924981 
L 360.797851 205.428257 
L 361.312864 205.260597 
L 362.342889 205.191302 
L 362.857902 204.90834 
L 363.887928 203.80784 
L 364.917954 202.728271 
L 366.462992 201.210387 
L 367.493018 200.188297 
L 368.008031 199.877745 
L 369.038057 199.563313 
L 369.553069 199.208954 
L 370.068082 198.474727 
L 371.613121 195.387573 
L 372.128134 194.980513 
L 373.15816 194.731552 
L 373.673172 194.375204 
L 374.188185 193.760011 
L 375.733224 191.221761 
L 380.883353 182.608619 
L 381.398366 182.043373 
L 383.458417 180.535637 
L 384.488443 178.802571 
L 385.518468 177.07626 
L 386.548494 175.422471 
L 388.093533 171.957398 
L 388.608546 171.39024 
L 389.123559 171.022385 
L 389.638571 170.387202 
L 391.18361 167.164598 
L 391.698623 166.643443 
L 392.728649 165.997786 
L 393.243662 165.420247 
L 393.758674 164.529678 
L 395.303713 161.123507 
L 395.818726 160.436227 
L 396.333739 160.148112 
L 396.848752 160.047652 
L 397.363764 159.791569 
L 397.878777 159.115453 
L 398.39379 157.949665 
L 399.423816 154.965284 
L 399.938829 153.857149 
L 400.453842 153.243897 
L 401.99888 152.490476 
L 402.513893 151.839418 
L 403.028906 150.808068 
L 404.058932 148.004188 
L 405.088958 144.225655 
L 405.60397 142.23654 
L 406.118983 140.719476 
L 406.633996 139.895425 
L 407.149009 139.612757 
L 407.664022 139.489002 
L 408.179035 139.06397 
L 408.694048 137.96753 
L 409.724073 134.005491 
L 410.754099 130.198461 
L 411.784125 127.577053 
L 412.299138 126.817906 
L 412.814151 126.61502 
L 413.329163 127.073643 
L 414.359189 129.152375 
L 414.874202 129.608367 
L 415.389215 128.918957 
L 415.904228 126.919465 
L 417.964279 115.306983 
L 418.994305 112.607852 
L 419.509318 111.49338 
L 420.024331 110.951004 
L 420.539344 111.185046 
L 421.054356 111.806218 
L 421.569369 112.213762 
L 423.114408 112.096044 
L 423.629421 111.846319 
L 424.144434 110.770051 
L 425.174459 107.215137 
L 425.689472 106.525923 
L 426.204485 106.886748 
L 426.719498 107.635995 
L 427.234511 108.186741 
L 427.749524 108.304193 
L 428.264537 107.949616 
L 428.77955 107.058154 
L 429.294562 105.459278 
L 430.324588 100.147561 
L 431.354614 95.030354 
L 431.869627 93.650939 
L 432.38464 93.217072 
L 432.899653 93.678408 
L 433.414665 94.831681 
L 434.444691 98.257653 
L 435.474717 102.558317 
L 435.98973 103.926279 
L 436.504743 103.603452 
L 437.019755 101.23553 
L 438.564794 89.694851 
L 439.079807 87.064652 
L 439.59482 85.270813 
L 440.109833 84.665494 
L 440.624846 85.37019 
L 441.139858 86.577697 
L 441.654871 87.193178 
L 442.169884 86.824102 
L 443.19991 84.618494 
L 443.714923 82.979567 
L 444.229936 80.521789 
L 444.744949 77.510289 
L 445.259961 75.328048 
L 445.774974 75.588351 
L 446.289987 78.25683 
L 446.805 81.564932 
L 447.320013 83.862111 
L 447.835026 84.549976 
L 448.350039 83.704084 
L 448.865051 81.481219 
L 449.380064 77.986084 
L 450.41009 69.442026 
L 450.925103 66.710067 
L 451.440116 65.762771 
L 451.955129 65.640638 
L 452.985154 64.929365 
L 453.500167 65.162643 
L 454.530193 66.935533 
L 455.045206 66.685657 
L 455.560219 65.356849 
L 456.075232 63.350011 
L 456.590245 60.75716 
L 457.62027 53.317008 
L 458.650296 45.685938 
L 459.165309 43.069131 
L 459.680322 41.425405 
L 461.22536 38.593989 
L 461.740373 38.493422 
L 461.8 38.646979 
L 461.8 38.646979 
" clip-path="url(#pe6c16a60e8)" style="fill: none; stroke: #f99752; stroke-width: 2.5; stroke-linecap: square"/>
   </g>
   <g id="patch_3">
    <path d="M 46.64 302.8525 
L 46.64 14.76 
" style="fill: none; stroke: #000000; stroke-width: 0.8; stroke-linejoin: miter; stroke-linecap: square"/>
   </g>
   <g id="patch_4">
    <path d="M 446.805 302.8525 
L 446.805 14.76 
" style="fill: none; stroke: #000000; stroke-width: 0.8; stroke-linejoin: miter; stroke-linecap: square"/>
   </g>
   <g id="patch_5">
    <path d="M 46.64 302.8525 
L 446.805 302.8525 
" style="fill: none; stroke: #000000; stroke-width: 0.8; stroke-linejoin: miter; stroke-linecap: square"/>
   </g>
   <g id="patch_6">
    <path d="M 46.64 14.76 
L 446.805 14.76 
" style="fill: none; stroke: #000000; stroke-width: 0.8; stroke-linejoin: miter; stroke-linecap: square"/>
   </g>
   <g id="legend_1">
    <g id="patch_7">
     <path d="M 364.359688 297.8525 
L 439.805 297.8525 
Q 441.805 297.8525 441.805 295.8525 
L 441.805 252.818125 
Q 441.805 250.818125 439.805 250.818125 
L 364.359688 250.818125 
Q 362.359688 250.818125 362.359688 252.818125 
L 362.359688 295.8525 
Q 362.359688 297.8525 364.359688 297.8525 
z
" style="fill: #ffffff; opacity: 0.8; stroke: #cccccc; stroke-linejoin: miter"/>
    </g>
    <g id="line2d_19">
     <path d="M 366.359688 258.916562 
L 376.359688 258.916562 
L 386.359688 258.916562 
" style="fill: none; stroke: #1e2e79; stroke-width: 2.5; stroke-linecap: square"/>
    </g>
    <g id="text_17">
     <!-- Reduced -->
     <g transform="translate(394.359688 262.416562) scale(0.1 -0.1)">
      <defs>
       <path id="DejaVuSans-64" d="M 2906 2969 
L 2906 4863 
L 3481 4863 
L 3481 0 
L 2906 0 
L 2906 525 
Q 2725 213 2448 61 
Q 2172 -91 1784 -91 
Q 1150 -91 751 415 
Q 353 922 353 1747 
Q 353 2572 751 3078 
Q 1150 3584 1784 3584 
Q 2172 3584 2448 3432 
Q 2725 3281 2906 2969 
z
M 947 1747 
Q 947 1113 1208 752 
Q 1469 391 1925 391 
Q 2381 391 2643 752 
Q 2906 1113 2906 1747 
Q 2906 2381 2643 2742 
Q 2381 3103 1925 3103 
Q 1469 3103 1208 2742 
Q 947 2381 947 1747 
z
" transform="scale(0.015625)"/>
       <path id="DejaVuSans-75" d="M 544 1381 
L 544 3500 
L 1119 3500 
L 1119 1403 
Q 1119 906 1312 657 
Q 1506 409 1894 409 
Q 2359 409 2629 706 
Q 2900 1003 2900 1516 
L 2900 3500 
L 3475 3500 
L 3475 0 
L 2900 0 
L 2900 538 
Q 2691 219 2414 64 
Q 2138 -91 1772 -91 
Q 1169 -91 856 284 
Q 544 659 544 1381 
z
M 1991 3584 
L 1991 3584 
z
" transform="scale(0.015625)"/>
      </defs>
      <use xlink:href="#DejaVuSans-52"/>
      <use xlink:href="#DejaVuSans-65" x="64.982422"/>
      <use xlink:href="#DejaVuSans-64" x="126.505859"/>
      <use xlink:href="#DejaVuSans-75" x="189.982422"/>
      <use xlink:href="#DejaVuSans-63" x="253.361328"/>
      <use xlink:href="#DejaVuSans-65" x="308.341797"/>
      <use xlink:href="#DejaVuSans-64" x="369.865234"/>
     </g>
    </g>
    <g id="line2d_20">
     <path d="M 366.359688 273.594687 
L 376.359688 273.594687 
L 386.359688 273.594687 
" style="fill: none; stroke: #ec4067; stroke-width: 2.5; stroke-linecap: square"/>
    </g>
    <g id="text_18">
     <!-- Oxidized -->
     <g transform="translate(394.359688 277.094687) scale(0.1 -0.1)">
      <defs>
       <path id="DejaVuSans-78" d="M 3513 3500 
L 2247 1797 
L 3578 0 
L 2900 0 
L 1881 1375 
L 863 0 
L 184 0 
L 1544 1831 
L 300 3500 
L 978 3500 
L 1906 2253 
L 2834 3500 
L 3513 3500 
z
" transform="scale(0.015625)"/>
       <path id="DejaVuSans-7a" d="M 353 3500 
L 3084 3500 
L 3084 2975 
L 922 459 
L 3084 459 
L 3084 0 
L 275 0 
L 275 525 
L 2438 3041 
L 353 3041 
L 353 3500 
z
" transform="scale(0.015625)"/>
      </defs>
      <use xlink:href="#DejaVuSans-4f"/>
      <use xlink:href="#DejaVuSans-78" x="78.710938"/>
      <use xlink:href="#DejaVuSans-69" x="137.890625"/>
      <use xlink:href="#DejaVuSans-64" x="165.673828"/>
      <use xlink:href="#DejaVuSans-69" x="229.150391"/>
      <use xlink:href="#DejaVuSans-7a" x="256.933594"/>
      <use xlink:href="#DejaVuSans-65" x="309.423828"/>
      <use xlink:href="#DejaVuSans-64" x="370.947266"/>
     </g>
    </g>
    <g id="line2d_21">
     <path d="M 366.359688 288.272812 
L 376.359688 288.272812 
L 386.359688 288.272812 
" style="fill: none; stroke: #f99752; stroke-width: 2.5; stroke-linecap: square"/>
    </g>
    <g id="text_19">
     <!-- Cu$^{+}$ -->
     <g transform="translate(394.359688 291.772812) scale(0.1 -0.1)">
      <defs>
       <path id="DejaVuSans-43" d="M 4122 4306 
L 4122 3641 
Q 3803 3938 3442 4084 
Q 3081 4231 2675 4231 
Q 1875 4231 1450 3742 
Q 1025 3253 1025 2328 
Q 1025 1406 1450 917 
Q 1875 428 2675 428 
Q 3081 428 3442 575 
Q 3803 722 4122 1019 
L 4122 359 
Q 3791 134 3420 21 
Q 3050 -91 2638 -91 
Q 1578 -91 968 557 
Q 359 1206 359 2328 
Q 359 3453 968 4101 
Q 1578 4750 2638 4750 
Q 3056 4750 3426 4639 
Q 3797 4528 4122 4306 
z
" transform="scale(0.015625)"/>
       <path id="DejaVuSans-2b" d="M 2944 4013 
L 2944 2272 
L 4684 2272 
L 4684 1741 
L 2944 1741 
L 2944 0 
L 2419 0 
L 2419 1741 
L 678 1741 
L 678 2272 
L 2419 2272 
L 2419 4013 
L 2944 4013 
z
" transform="scale(0.015625)"/>
      </defs>
      <use xlink:href="#DejaVuSans-43" transform="translate(0 0.826562)"/>
      <use xlink:href="#DejaVuSans-75" transform="translate(69.824219 0.826562)"/>
      <use xlink:href="#DejaVuSans-2b" transform="translate(134.160156 39.107812) scale(0.7)"/>
     </g>
    </g>
   </g>
  </g>
 </g>
 <defs>
  <clipPath id="pe6c16a60e8">
   <rect x="46.64" y="14.76" width="400.165" height="288.0925"/>
  </clipPath>
 </defs>
</svg>
