<?xml version="1.0" encoding="utf-8" standalone="no"?>
<!DOCTYPE svg PUBLIC "-//W3C//DTD SVG 1.1//EN"
  "http://www.w3.org/Graphics/SVG/1.1/DTD/svg11.dtd">
<svg xmlns:xlink="http://www.w3.org/1999/xlink" width="460.8pt" height="345.6pt" viewBox="0 0 460.8 345.6" xmlns="http://www.w3.org/2000/svg" version="1.1">
 <metadata>
  <rdf:RDF xmlns:dc="http://purl.org/dc/elements/1.1/" xmlns:cc="http://creativecommons.org/ns#" xmlns:rdf="http://www.w3.org/1999/02/22-rdf-syntax-ns#">
   <cc:Work>
    <dc:type rdf:resource="http://purl.org/dc/dcmitype/StillImage"/>
    <dc:date>2024-06-20T23:44:54.561875</dc:date>
    <dc:format>image/svg+xml</dc:format>
    <dc:creator>
     <cc:Agent>
      <dc:title>Matplotlib v3.8.4, https://matplotlib.org/</dc:title>
     </cc:Agent>
    </dc:creator>
   </cc:Work>
  </rdf:RDF>
 </metadata>
 <defs>
  <style type="text/css">*{stroke-linejoin: round; stroke-linecap: butt}</style>
 </defs>
 <g id="figure_1">
  <g id="patch_1">
   <path d="M 0 345.6 
L 460.8 345.6 
L 460.8 0 
L 0 0 
z
" style="fill: #ffffff"/>
  </g>
  <g id="axes_1">
   <g id="patch_2">
    <path d="M 46.64 302.8525 
L 446.805 302.8525 
L 446.805 14.76 
L 46.64 14.76 
z
" style="fill: #ffffff"/>
   </g>
   <g id="line2d_1">
    <path d="M 46.64 245.234 
L 446.805 245.234 
" clip-path="url(#pd2cbef1127)" style="fill: none; stroke-dasharray: 1.75,2.8875; stroke-dashoffset: 0; stroke: #c0c0c0; stroke-width: 1.75"/>
   </g>
   <g id="line2d_2">
    <path d="M 65.510252 -1 
L 67.240515 36.436327 
L 69.300566 76.733465 
L 71.360618 112.571572 
L 73.420669 144.120625 
L 75.480721 171.570385 
L 77.025759 189.590963 
L 78.570798 205.512533 
L 80.115837 219.428806 
L 81.660875 231.435108 
L 83.205914 241.62751 
L 84.750952 250.101796 
L 86.295991 256.952333 
L 87.326017 260.662842 
L 88.356042 263.719276 
L 89.386068 266.147784 
L 90.416094 267.97416 
L 91.44612 269.224005 
L 92.476145 269.9229 
L 92.991158 270.073769 
L 93.506171 270.096564 
L 94.021184 269.994543 
L 95.05121 269.429193 
L 96.081236 268.404251 
L 97.111261 266.946635 
L 98.141287 265.083606 
L 99.171313 262.842626 
L 100.716351 258.832386 
L 102.26139 254.123665 
L 104.321441 246.903357 
L 106.381493 238.762908 
L 108.956557 227.506136 
L 112.046634 212.761232 
L 123.891931 153.53391 
L 130.587098 120.114444 
L 132.647149 111.290874 
L 134.192188 105.500213 
L 136.252239 98.748216 
L 138.827304 91.308178 
L 142.432394 81.715875 
L 145.007458 75.406839 
L 146.552497 72.076664 
L 147.582523 70.196416 
L 148.612548 68.71627 
L 149.642574 67.760835 
L 150.157587 67.515343 
L 150.6726 67.438466 
L 151.187613 67.535499 
L 151.702625 67.806797 
L 152.217638 68.247497 
L 153.247664 69.593204 
L 154.27769 71.447155 
L 155.822728 74.830255 
L 160.972857 86.66871 
L 164.577947 94.591922 
L 166.637999 99.762127 
L 168.183037 104.200584 
L 169.728076 109.213236 
L 171.788127 116.834569 
L 173.848179 125.380199 
L 180.543346 154.066076 
L 183.118411 163.735205 
L 185.178462 170.747384 
L 187.238514 177.090216 
L 189.298565 182.743284 
L 191.358616 187.744029 
L 193.418668 192.197021 
L 195.993732 197.192728 
L 199.08381 202.646137 
L 203.203912 209.448071 
L 206.809003 215.038421 
L 209.384067 218.642056 
L 211.959131 221.83795 
L 215.049208 225.276399 
L 219.684324 230.068449 
L 223.289414 233.500712 
L 226.379492 236.17379 
L 228.954556 238.158829 
L 231.52962 239.844055 
L 234.104685 241.206501 
L 236.679749 242.308694 
L 239.769826 243.385258 
L 242.859903 244.205061 
L 245.949981 244.760357 
L 249.040058 245.094404 
L 252.130135 245.232114 
L 256.250238 245.160972 
L 260.370341 244.875304 
L 262.945405 244.490241 
L 265.005457 243.990051 
L 267.580521 243.109392 
L 270.670598 241.774768 
L 275.305714 239.504401 
L 279.94083 237.035207 
L 283.030907 235.17058 
L 286.120985 233.013498 
L 289.726075 230.164225 
L 294.36119 226.48218 
L 297.451268 224.305102 
L 307.751525 217.339657 
L 312.901654 213.721551 
L 316.506744 211.509065 
L 319.596821 209.881881 
L 322.686898 208.51951 
L 338.137284 202.395388 
L 340.712349 201.714891 
L 343.287413 201.284902 
L 346.892503 200.980972 
L 350.497593 200.670168 
L 352.557645 200.322481 
L 354.617696 199.76406 
L 356.677748 198.958055 
L 358.737799 197.922151 
L 362.342889 195.800317 
L 367.493018 192.808549 
L 371.613121 190.383053 
L 374.703198 188.269436 
L 378.308288 185.46968 
L 383.458417 181.164874 
L 388.608546 176.866667 
L 392.213636 173.86232 
L 394.273687 171.77626 
L 396.333739 169.278005 
L 398.908803 165.734407 
L 404.058932 158.595025 
L 410.754099 149.49914 
L 415.389215 143.161829 
L 417.964279 140.005123 
L 423.629421 133.364783 
L 425.174459 131.087346 
L 426.719498 128.423232 
L 428.77955 124.288628 
L 434.444691 112.215327 
L 440.109833 101.366962 
L 442.169884 96.437783 
L 447.320013 83.46098 
L 449.380064 78.987666 
L 451.955129 74.01308 
L 455.560219 67.164769 
L 457.105257 63.609208 
L 458.650296 59.34542 
L 460.710347 52.693809 
L 461.8 49.10116 
L 461.8 49.10116 
" clip-path="url(#pd2cbef1127)" style="fill: none; stroke: #1e2e79; stroke-width: 2.5; stroke-linecap: square"/>
   </g>
   <g id="line2d_3">
    <path d="M 152.31587 -1 
L 153.247664 3.834575 
L 153.762677 5.333898 
L 154.27769 5.985965 
L 155.307716 6.310397 
L 155.822728 7.219179 
L 156.337741 9.325054 
L 156.852754 12.701841 
L 157.88278 21.912944 
L 159.942831 41.369225 
L 160.972857 49.657973 
L 164.062934 71.68394 
L 167.668024 104.146415 
L 170.243089 128.249749 
L 171.788127 140.027588 
L 176.423243 172.168586 
L 178.998308 188.779378 
L 181.058359 200.569078 
L 182.603398 207.975686 
L 184.148436 214.18694 
L 186.208488 221.226119 
L 188.783552 229.176206 
L 190.843604 234.93414 
L 192.388642 238.682955 
L 193.933681 241.699948 
L 195.478719 244.063771 
L 199.598822 249.650187 
L 201.143861 251.291848 
L 202.173887 252.131474 
L 203.203912 252.734063 
L 205.263964 253.773601 
L 207.839028 255.318201 
L 209.89908 256.130305 
L 212.989157 257.149728 
L 214.534196 257.304727 
L 216.594247 257.44845 
L 219.169311 257.823501 
L 220.199337 257.623919 
L 225.349466 255.863545 
L 228.954556 255.310317 
L 232.559646 254.084957 
L 234.619698 253.279922 
L 238.224788 252.329402 
L 240.799852 251.051255 
L 243.374916 249.59873 
L 247.495019 247.322416 
L 248.525045 247.041836 
L 251.100109 246.704145 
L 252.130135 246.250561 
L 253.675174 245.162132 
L 257.795277 241.8998 
L 259.340315 241.03133 
L 261.91538 239.854162 
L 263.460418 238.808402 
L 265.005457 237.552861 
L 266.035483 236.478572 
L 268.095534 234.063944 
L 269.12556 233.188454 
L 272.215637 231.087009 
L 273.760676 229.587953 
L 275.820727 227.240802 
L 279.94083 222.309408 
L 282.515894 218.751621 
L 283.54592 217.800785 
L 285.090959 216.594227 
L 286.120985 215.405382 
L 287.666023 212.999652 
L 289.211062 210.61782 
L 290.7561 208.662988 
L 294.36119 204.431191 
L 295.906229 202.176408 
L 300.026332 195.573265 
L 301.056358 194.506791 
L 303.116409 192.623405 
L 304.146435 191.340417 
L 305.176461 189.642953 
L 307.751525 184.770488 
L 308.266538 184.13677 
L 309.296564 183.403071 
L 310.326589 182.80821 
L 310.841602 182.2892 
L 311.356615 181.538549 
L 312.386641 179.436542 
L 314.446692 174.867922 
L 315.991731 171.609093 
L 318.566795 165.596672 
L 319.596821 163.807884 
L 320.626847 162.655879 
L 321.656873 162.038176 
L 323.716924 161.271437 
L 324.231937 160.891901 
L 324.74695 160.334095 
L 325.776976 158.627695 
L 327.322014 155.105222 
L 328.867053 151.722942 
L 329.897079 150.014279 
L 330.927104 148.719423 
L 333.502169 145.775066 
L 337.622272 140.257006 
L 338.652297 138.641878 
L 340.197336 135.667524 
L 341.742375 132.68363 
L 342.7724 131.335831 
L 343.287413 130.91518 
L 343.802426 130.663385 
L 344.317439 130.579006 
L 344.832452 130.653198 
L 345.862477 131.14461 
L 346.892503 131.702463 
L 347.407516 131.861189 
L 347.922529 131.888307 
L 348.437542 131.758212 
L 348.952555 131.451179 
L 349.467568 130.959309 
L 350.497593 129.520694 
L 352.042632 127.193228 
L 356.677748 121.590125 
L 357.707773 120.564766 
L 359.252812 118.854635 
L 359.767825 118.582101 
L 360.282838 118.643216 
L 360.797851 119.067214 
L 361.827876 120.708239 
L 362.857902 122.317211 
L 363.372915 122.615075 
L 363.887928 122.353011 
L 364.402941 121.451199 
L 364.917954 119.936845 
L 366.978005 112.134378 
L 367.493018 111.112357 
L 368.008031 110.657941 
L 368.523044 110.59737 
L 369.553069 110.769464 
L 370.068082 110.687401 
L 370.583095 110.417218 
L 371.613121 109.394584 
L 372.643147 107.892456 
L 373.673172 105.94727 
L 375.218211 102.432537 
L 377.793275 96.448987 
L 378.823301 94.907356 
L 381.398366 92.066436 
L 382.428391 90.283653 
L 383.458417 87.961325 
L 384.488443 85.037047 
L 387.063507 76.714244 
L 388.093533 74.467055 
L 389.123559 72.351277 
L 389.638571 70.9355 
L 390.668597 67.148355 
L 392.213636 61.021881 
L 393.243662 57.224449 
L 394.273687 52.134335 
L 395.303713 44.995988 
L 396.848752 33.848465 
L 397.363764 31.292458 
L 398.39379 27.948242 
L 398.908803 26.371141 
L 399.423816 24.344894 
L 401.483867 14.138419 
L 401.99888 13.306399 
L 402.513893 13.527784 
L 404.573945 16.92451 
L 405.088958 17.279044 
L 405.60397 17.303769 
L 406.118983 16.866368 
L 406.633996 15.777913 
L 407.149009 13.884345 
L 408.179035 7.937146 
L 408.694048 4.714548 
L 409.20906 2.299056 
L 409.724073 1.352802 
L 410.239086 2.012415 
L 411.784125 7.520109 
L 412.299138 8.125058 
L 412.814151 7.337865 
L 413.329163 4.980052 
L 414.045871 -1 
L 414.045871 -1 
" clip-path="url(#pd2cbef1127)" style="fill: none; stroke: #ec4067; stroke-width: 2.5; stroke-linecap: square"/>
   </g>
   <g id="matplotlib.axis_1">
    <g id="xtick_1">
     <g id="line2d_4">
      <defs>
       <path id="mfdea0cbfe2" d="M 0 0 
L 0 3.5 
" style="stroke: #000000; stroke-width: 0.8"/>
      </defs>
      <g>
       <use xlink:href="#mfdea0cbfe2" x="46.64" y="302.8525" style="stroke: #000000; stroke-width: 0.8"/>
      </g>
     </g>
     <g id="text_1">
      <!-- 1 -->
      <g transform="translate(43.45875 317.450937) scale(0.1 -0.1)">
       <defs>
        <path id="DejaVuSans-31" d="M 794 531 
L 1825 531 
L 1825 4091 
L 703 3866 
L 703 4441 
L 1819 4666 
L 2450 4666 
L 2450 531 
L 3481 531 
L 3481 0 
L 794 0 
L 794 531 
z
" transform="scale(0.015625)"/>
       </defs>
       <use xlink:href="#DejaVuSans-31"/>
      </g>
     </g>
    </g>
    <g id="xtick_2">
     <g id="line2d_5">
      <g>
       <use xlink:href="#mfdea0cbfe2" x="103.806429" y="302.8525" style="stroke: #000000; stroke-width: 0.8"/>
      </g>
     </g>
     <g id="text_2">
      <!-- 2 -->
      <g transform="translate(100.625179 317.450937) scale(0.1 -0.1)">
       <defs>
        <path id="DejaVuSans-32" d="M 1228 531 
L 3431 531 
L 3431 0 
L 469 0 
L 469 531 
Q 828 903 1448 1529 
Q 2069 2156 2228 2338 
Q 2531 2678 2651 2914 
Q 2772 3150 2772 3378 
Q 2772 3750 2511 3984 
Q 2250 4219 1831 4219 
Q 1534 4219 1204 4116 
Q 875 4013 500 3803 
L 500 4441 
Q 881 4594 1212 4672 
Q 1544 4750 1819 4750 
Q 2544 4750 2975 4387 
Q 3406 4025 3406 3419 
Q 3406 3131 3298 2873 
Q 3191 2616 2906 2266 
Q 2828 2175 2409 1742 
Q 1991 1309 1228 531 
z
" transform="scale(0.015625)"/>
       </defs>
       <use xlink:href="#DejaVuSans-32"/>
      </g>
     </g>
    </g>
    <g id="xtick_3">
     <g id="line2d_6">
      <g>
       <use xlink:href="#mfdea0cbfe2" x="160.972857" y="302.8525" style="stroke: #000000; stroke-width: 0.8"/>
      </g>
     </g>
     <g id="text_3">
      <!-- 3 -->
      <g transform="translate(157.791607 317.450937) scale(0.1 -0.1)">
       <defs>
        <path id="DejaVuSans-33" d="M 2597 2516 
Q 3050 2419 3304 2112 
Q 3559 1806 3559 1356 
Q 3559 666 3084 287 
Q 2609 -91 1734 -91 
Q 1441 -91 1130 -33 
Q 819 25 488 141 
L 488 750 
Q 750 597 1062 519 
Q 1375 441 1716 441 
Q 2309 441 2620 675 
Q 2931 909 2931 1356 
Q 2931 1769 2642 2001 
Q 2353 2234 1838 2234 
L 1294 2234 
L 1294 2753 
L 1863 2753 
Q 2328 2753 2575 2939 
Q 2822 3125 2822 3475 
Q 2822 3834 2567 4026 
Q 2313 4219 1838 4219 
Q 1578 4219 1281 4162 
Q 984 4106 628 3988 
L 628 4550 
Q 988 4650 1302 4700 
Q 1616 4750 1894 4750 
Q 2613 4750 3031 4423 
Q 3450 4097 3450 3541 
Q 3450 3153 3228 2886 
Q 3006 2619 2597 2516 
z
" transform="scale(0.015625)"/>
       </defs>
       <use xlink:href="#DejaVuSans-33"/>
      </g>
     </g>
    </g>
    <g id="xtick_4">
     <g id="line2d_7">
      <g>
       <use xlink:href="#mfdea0cbfe2" x="218.139286" y="302.8525" style="stroke: #000000; stroke-width: 0.8"/>
      </g>
     </g>
     <g id="text_4">
      <!-- 4 -->
      <g transform="translate(214.958036 317.450937) scale(0.1 -0.1)">
       <defs>
        <path id="DejaVuSans-34" d="M 2419 4116 
L 825 1625 
L 2419 1625 
L 2419 4116 
z
M 2253 4666 
L 3047 4666 
L 3047 1625 
L 3713 1625 
L 3713 1100 
L 3047 1100 
L 3047 0 
L 2419 0 
L 2419 1100 
L 313 1100 
L 313 1709 
L 2253 4666 
z
" transform="scale(0.015625)"/>
       </defs>
       <use xlink:href="#DejaVuSans-34"/>
      </g>
     </g>
    </g>
    <g id="xtick_5">
     <g id="line2d_8">
      <g>
       <use xlink:href="#mfdea0cbfe2" x="275.305714" y="302.8525" style="stroke: #000000; stroke-width: 0.8"/>
      </g>
     </g>
     <g id="text_5">
      <!-- 5 -->
      <g transform="translate(272.124464 317.450937) scale(0.1 -0.1)">
       <defs>
        <path id="DejaVuSans-35" d="M 691 4666 
L 3169 4666 
L 3169 4134 
L 1269 4134 
L 1269 2991 
Q 1406 3038 1543 3061 
Q 1681 3084 1819 3084 
Q 2600 3084 3056 2656 
Q 3513 2228 3513 1497 
Q 3513 744 3044 326 
Q 2575 -91 1722 -91 
Q 1428 -91 1123 -41 
Q 819 9 494 109 
L 494 744 
Q 775 591 1075 516 
Q 1375 441 1709 441 
Q 2250 441 2565 725 
Q 2881 1009 2881 1497 
Q 2881 1984 2565 2268 
Q 2250 2553 1709 2553 
Q 1456 2553 1204 2497 
Q 953 2441 691 2322 
L 691 4666 
z
" transform="scale(0.015625)"/>
       </defs>
       <use xlink:href="#DejaVuSans-35"/>
      </g>
     </g>
    </g>
    <g id="xtick_6">
     <g id="line2d_9">
      <g>
       <use xlink:href="#mfdea0cbfe2" x="332.472143" y="302.8525" style="stroke: #000000; stroke-width: 0.8"/>
      </g>
     </g>
     <g id="text_6">
      <!-- 6 -->
      <g transform="translate(329.290893 317.450937) scale(0.1 -0.1)">
       <defs>
        <path id="DejaVuSans-36" d="M 2113 2584 
Q 1688 2584 1439 2293 
Q 1191 2003 1191 1497 
Q 1191 994 1439 701 
Q 1688 409 2113 409 
Q 2538 409 2786 701 
Q 3034 994 3034 1497 
Q 3034 2003 2786 2293 
Q 2538 2584 2113 2584 
z
M 3366 4563 
L 3366 3988 
Q 3128 4100 2886 4159 
Q 2644 4219 2406 4219 
Q 1781 4219 1451 3797 
Q 1122 3375 1075 2522 
Q 1259 2794 1537 2939 
Q 1816 3084 2150 3084 
Q 2853 3084 3261 2657 
Q 3669 2231 3669 1497 
Q 3669 778 3244 343 
Q 2819 -91 2113 -91 
Q 1303 -91 875 529 
Q 447 1150 447 2328 
Q 447 3434 972 4092 
Q 1497 4750 2381 4750 
Q 2619 4750 2861 4703 
Q 3103 4656 3366 4563 
z
" transform="scale(0.015625)"/>
       </defs>
       <use xlink:href="#DejaVuSans-36"/>
      </g>
     </g>
    </g>
    <g id="xtick_7">
     <g id="line2d_10">
      <g>
       <use xlink:href="#mfdea0cbfe2" x="389.638571" y="302.8525" style="stroke: #000000; stroke-width: 0.8"/>
      </g>
     </g>
     <g id="text_7">
      <!-- 7 -->
      <g transform="translate(386.457321 317.450937) scale(0.1 -0.1)">
       <defs>
        <path id="DejaVuSans-37" d="M 525 4666 
L 3525 4666 
L 3525 4397 
L 1831 0 
L 1172 0 
L 2766 4134 
L 525 4134 
L 525 4666 
z
" transform="scale(0.015625)"/>
       </defs>
       <use xlink:href="#DejaVuSans-37"/>
      </g>
     </g>
    </g>
    <g id="xtick_8">
     <g id="line2d_11">
      <g>
       <use xlink:href="#mfdea0cbfe2" x="446.805" y="302.8525" style="stroke: #000000; stroke-width: 0.8"/>
      </g>
     </g>
     <g id="text_8">
      <!-- 8 -->
      <g transform="translate(443.62375 317.450937) scale(0.1 -0.1)">
       <defs>
        <path id="DejaVuSans-38" d="M 2034 2216 
Q 1584 2216 1326 1975 
Q 1069 1734 1069 1313 
Q 1069 891 1326 650 
Q 1584 409 2034 409 
Q 2484 409 2743 651 
Q 3003 894 3003 1313 
Q 3003 1734 2745 1975 
Q 2488 2216 2034 2216 
z
M 1403 2484 
Q 997 2584 770 2862 
Q 544 3141 544 3541 
Q 544 4100 942 4425 
Q 1341 4750 2034 4750 
Q 2731 4750 3128 4425 
Q 3525 4100 3525 3541 
Q 3525 3141 3298 2862 
Q 3072 2584 2669 2484 
Q 3125 2378 3379 2068 
Q 3634 1759 3634 1313 
Q 3634 634 3220 271 
Q 2806 -91 2034 -91 
Q 1263 -91 848 271 
Q 434 634 434 1313 
Q 434 1759 690 2068 
Q 947 2378 1403 2484 
z
M 1172 3481 
Q 1172 3119 1398 2916 
Q 1625 2713 2034 2713 
Q 2441 2713 2670 2916 
Q 2900 3119 2900 3481 
Q 2900 3844 2670 4047 
Q 2441 4250 2034 4250 
Q 1625 4250 1398 4047 
Q 1172 3844 1172 3481 
z
" transform="scale(0.015625)"/>
       </defs>
       <use xlink:href="#DejaVuSans-38"/>
      </g>
     </g>
    </g>
    <g id="text_9">
     <!-- SER205 OG - GLH222 HE2 Distance [Å] -->
     <g transform="translate(148.973281 332.0525) scale(0.1 -0.1)">
      <defs>
       <path id="DejaVuSans-53" d="M 3425 4513 
L 3425 3897 
Q 3066 4069 2747 4153 
Q 2428 4238 2131 4238 
Q 1616 4238 1336 4038 
Q 1056 3838 1056 3469 
Q 1056 3159 1242 3001 
Q 1428 2844 1947 2747 
L 2328 2669 
Q 3034 2534 3370 2195 
Q 3706 1856 3706 1288 
Q 3706 609 3251 259 
Q 2797 -91 1919 -91 
Q 1588 -91 1214 -16 
Q 841 59 441 206 
L 441 856 
Q 825 641 1194 531 
Q 1563 422 1919 422 
Q 2459 422 2753 634 
Q 3047 847 3047 1241 
Q 3047 1584 2836 1778 
Q 2625 1972 2144 2069 
L 1759 2144 
Q 1053 2284 737 2584 
Q 422 2884 422 3419 
Q 422 4038 858 4394 
Q 1294 4750 2059 4750 
Q 2388 4750 2728 4690 
Q 3069 4631 3425 4513 
z
" transform="scale(0.015625)"/>
       <path id="DejaVuSans-45" d="M 628 4666 
L 3578 4666 
L 3578 4134 
L 1259 4134 
L 1259 2753 
L 3481 2753 
L 3481 2222 
L 1259 2222 
L 1259 531 
L 3634 531 
L 3634 0 
L 628 0 
L 628 4666 
z
" transform="scale(0.015625)"/>
       <path id="DejaVuSans-52" d="M 2841 2188 
Q 3044 2119 3236 1894 
Q 3428 1669 3622 1275 
L 4263 0 
L 3584 0 
L 2988 1197 
Q 2756 1666 2539 1819 
Q 2322 1972 1947 1972 
L 1259 1972 
L 1259 0 
L 628 0 
L 628 4666 
L 2053 4666 
Q 2853 4666 3247 4331 
Q 3641 3997 3641 3322 
Q 3641 2881 3436 2590 
Q 3231 2300 2841 2188 
z
M 1259 4147 
L 1259 2491 
L 2053 2491 
Q 2509 2491 2742 2702 
Q 2975 2913 2975 3322 
Q 2975 3731 2742 3939 
Q 2509 4147 2053 4147 
L 1259 4147 
z
" transform="scale(0.015625)"/>
       <path id="DejaVuSans-30" d="M 2034 4250 
Q 1547 4250 1301 3770 
Q 1056 3291 1056 2328 
Q 1056 1369 1301 889 
Q 1547 409 2034 409 
Q 2525 409 2770 889 
Q 3016 1369 3016 2328 
Q 3016 3291 2770 3770 
Q 2525 4250 2034 4250 
z
M 2034 4750 
Q 2819 4750 3233 4129 
Q 3647 3509 3647 2328 
Q 3647 1150 3233 529 
Q 2819 -91 2034 -91 
Q 1250 -91 836 529 
Q 422 1150 422 2328 
Q 422 3509 836 4129 
Q 1250 4750 2034 4750 
z
" transform="scale(0.015625)"/>
       <path id="DejaVuSans-20" transform="scale(0.015625)"/>
       <path id="DejaVuSans-4f" d="M 2522 4238 
Q 1834 4238 1429 3725 
Q 1025 3213 1025 2328 
Q 1025 1447 1429 934 
Q 1834 422 2522 422 
Q 3209 422 3611 934 
Q 4013 1447 4013 2328 
Q 4013 3213 3611 3725 
Q 3209 4238 2522 4238 
z
M 2522 4750 
Q 3503 4750 4090 4092 
Q 4678 3434 4678 2328 
Q 4678 1225 4090 567 
Q 3503 -91 2522 -91 
Q 1538 -91 948 565 
Q 359 1222 359 2328 
Q 359 3434 948 4092 
Q 1538 4750 2522 4750 
z
" transform="scale(0.015625)"/>
       <path id="DejaVuSans-47" d="M 3809 666 
L 3809 1919 
L 2778 1919 
L 2778 2438 
L 4434 2438 
L 4434 434 
Q 4069 175 3628 42 
Q 3188 -91 2688 -91 
Q 1594 -91 976 548 
Q 359 1188 359 2328 
Q 359 3472 976 4111 
Q 1594 4750 2688 4750 
Q 3144 4750 3555 4637 
Q 3966 4525 4313 4306 
L 4313 3634 
Q 3963 3931 3569 4081 
Q 3175 4231 2741 4231 
Q 1884 4231 1454 3753 
Q 1025 3275 1025 2328 
Q 1025 1384 1454 906 
Q 1884 428 2741 428 
Q 3075 428 3337 486 
Q 3600 544 3809 666 
z
" transform="scale(0.015625)"/>
       <path id="DejaVuSans-2d" d="M 313 2009 
L 1997 2009 
L 1997 1497 
L 313 1497 
L 313 2009 
z
" transform="scale(0.015625)"/>
       <path id="DejaVuSans-4c" d="M 628 4666 
L 1259 4666 
L 1259 531 
L 3531 531 
L 3531 0 
L 628 0 
L 628 4666 
z
" transform="scale(0.015625)"/>
       <path id="DejaVuSans-48" d="M 628 4666 
L 1259 4666 
L 1259 2753 
L 3553 2753 
L 3553 4666 
L 4184 4666 
L 4184 0 
L 3553 0 
L 3553 2222 
L 1259 2222 
L 1259 0 
L 628 0 
L 628 4666 
z
" transform="scale(0.015625)"/>
       <path id="DejaVuSans-44" d="M 1259 4147 
L 1259 519 
L 2022 519 
Q 2988 519 3436 956 
Q 3884 1394 3884 2338 
Q 3884 3275 3436 3711 
Q 2988 4147 2022 4147 
L 1259 4147 
z
M 628 4666 
L 1925 4666 
Q 3281 4666 3915 4102 
Q 4550 3538 4550 2338 
Q 4550 1131 3912 565 
Q 3275 0 1925 0 
L 628 0 
L 628 4666 
z
" transform="scale(0.015625)"/>
       <path id="DejaVuSans-69" d="M 603 3500 
L 1178 3500 
L 1178 0 
L 603 0 
L 603 3500 
z
M 603 4863 
L 1178 4863 
L 1178 4134 
L 603 4134 
L 603 4863 
z
" transform="scale(0.015625)"/>
       <path id="DejaVuSans-73" d="M 2834 3397 
L 2834 2853 
Q 2591 2978 2328 3040 
Q 2066 3103 1784 3103 
Q 1356 3103 1142 2972 
Q 928 2841 928 2578 
Q 928 2378 1081 2264 
Q 1234 2150 1697 2047 
L 1894 2003 
Q 2506 1872 2764 1633 
Q 3022 1394 3022 966 
Q 3022 478 2636 193 
Q 2250 -91 1575 -91 
Q 1294 -91 989 -36 
Q 684 19 347 128 
L 347 722 
Q 666 556 975 473 
Q 1284 391 1588 391 
Q 1994 391 2212 530 
Q 2431 669 2431 922 
Q 2431 1156 2273 1281 
Q 2116 1406 1581 1522 
L 1381 1569 
Q 847 1681 609 1914 
Q 372 2147 372 2553 
Q 372 3047 722 3315 
Q 1072 3584 1716 3584 
Q 2034 3584 2315 3537 
Q 2597 3491 2834 3397 
z
" transform="scale(0.015625)"/>
       <path id="DejaVuSans-74" d="M 1172 4494 
L 1172 3500 
L 2356 3500 
L 2356 3053 
L 1172 3053 
L 1172 1153 
Q 1172 725 1289 603 
Q 1406 481 1766 481 
L 2356 481 
L 2356 0 
L 1766 0 
Q 1100 0 847 248 
Q 594 497 594 1153 
L 594 3053 
L 172 3053 
L 172 3500 
L 594 3500 
L 594 4494 
L 1172 4494 
z
" transform="scale(0.015625)"/>
       <path id="DejaVuSans-61" d="M 2194 1759 
Q 1497 1759 1228 1600 
Q 959 1441 959 1056 
Q 959 750 1161 570 
Q 1363 391 1709 391 
Q 2188 391 2477 730 
Q 2766 1069 2766 1631 
L 2766 1759 
L 2194 1759 
z
M 3341 1997 
L 3341 0 
L 2766 0 
L 2766 531 
Q 2569 213 2275 61 
Q 1981 -91 1556 -91 
Q 1019 -91 701 211 
Q 384 513 384 1019 
Q 384 1609 779 1909 
Q 1175 2209 1959 2209 
L 2766 2209 
L 2766 2266 
Q 2766 2663 2505 2880 
Q 2244 3097 1772 3097 
Q 1472 3097 1187 3025 
Q 903 2953 641 2809 
L 641 3341 
Q 956 3463 1253 3523 
Q 1550 3584 1831 3584 
Q 2591 3584 2966 3190 
Q 3341 2797 3341 1997 
z
" transform="scale(0.015625)"/>
       <path id="DejaVuSans-6e" d="M 3513 2113 
L 3513 0 
L 2938 0 
L 2938 2094 
Q 2938 2591 2744 2837 
Q 2550 3084 2163 3084 
Q 1697 3084 1428 2787 
Q 1159 2491 1159 1978 
L 1159 0 
L 581 0 
L 581 3500 
L 1159 3500 
L 1159 2956 
Q 1366 3272 1645 3428 
Q 1925 3584 2291 3584 
Q 2894 3584 3203 3211 
Q 3513 2838 3513 2113 
z
" transform="scale(0.015625)"/>
       <path id="DejaVuSans-63" d="M 3122 3366 
L 3122 2828 
Q 2878 2963 2633 3030 
Q 2388 3097 2138 3097 
Q 1578 3097 1268 2742 
Q 959 2388 959 1747 
Q 959 1106 1268 751 
Q 1578 397 2138 397 
Q 2388 397 2633 464 
Q 2878 531 3122 666 
L 3122 134 
Q 2881 22 2623 -34 
Q 2366 -91 2075 -91 
Q 1284 -91 818 406 
Q 353 903 353 1747 
Q 353 2603 823 3093 
Q 1294 3584 2113 3584 
Q 2378 3584 2631 3529 
Q 2884 3475 3122 3366 
z
" transform="scale(0.015625)"/>
       <path id="DejaVuSans-65" d="M 3597 1894 
L 3597 1613 
L 953 1613 
Q 991 1019 1311 708 
Q 1631 397 2203 397 
Q 2534 397 2845 478 
Q 3156 559 3463 722 
L 3463 178 
Q 3153 47 2828 -22 
Q 2503 -91 2169 -91 
Q 1331 -91 842 396 
Q 353 884 353 1716 
Q 353 2575 817 3079 
Q 1281 3584 2069 3584 
Q 2775 3584 3186 3129 
Q 3597 2675 3597 1894 
z
M 3022 2063 
Q 3016 2534 2758 2815 
Q 2500 3097 2075 3097 
Q 1594 3097 1305 2825 
Q 1016 2553 972 2059 
L 3022 2063 
z
" transform="scale(0.015625)"/>
       <path id="DejaVuSans-5b" d="M 550 4863 
L 1875 4863 
L 1875 4416 
L 1125 4416 
L 1125 -397 
L 1875 -397 
L 1875 -844 
L 550 -844 
L 550 4863 
z
" transform="scale(0.015625)"/>
       <path id="DejaVuSans-c5" d="M 2663 5081 
Q 2663 5278 2523 5417 
Q 2384 5556 2188 5556 
Q 1988 5556 1852 5420 
Q 1716 5284 1716 5081 
Q 1716 4884 1853 4746 
Q 1991 4609 2188 4609 
Q 2384 4609 2523 4746 
Q 2663 4884 2663 5081 
z
M 2188 4044 
L 1338 1722 
L 3041 1722 
L 2188 4044 
z
M 1716 4366 
Q 1525 4494 1428 4673 
Q 1331 4853 1331 5081 
Q 1331 5441 1579 5691 
Q 1828 5941 2188 5941 
Q 2544 5941 2795 5689 
Q 3047 5438 3047 5081 
Q 3047 4863 2948 4678 
Q 2850 4494 2663 4366 
L 4325 0 
L 3669 0 
L 3244 1197 
L 1141 1197 
L 716 0 
L 50 0 
L 1716 4366 
z
" transform="scale(0.015625)"/>
       <path id="DejaVuSans-5d" d="M 1947 4863 
L 1947 -844 
L 622 -844 
L 622 -397 
L 1369 -397 
L 1369 4416 
L 622 4416 
L 622 4863 
L 1947 4863 
z
" transform="scale(0.015625)"/>
      </defs>
      <use xlink:href="#DejaVuSans-53"/>
      <use xlink:href="#DejaVuSans-45" x="63.476562"/>
      <use xlink:href="#DejaVuSans-52" x="126.660156"/>
      <use xlink:href="#DejaVuSans-32" x="196.142578"/>
      <use xlink:href="#DejaVuSans-30" x="259.765625"/>
      <use xlink:href="#DejaVuSans-35" x="323.388672"/>
      <use xlink:href="#DejaVuSans-20" x="387.011719"/>
      <use xlink:href="#DejaVuSans-4f" x="418.798828"/>
      <use xlink:href="#DejaVuSans-47" x="497.509766"/>
      <use xlink:href="#DejaVuSans-20" x="575"/>
      <use xlink:href="#DejaVuSans-2d" x="606.787109"/>
      <use xlink:href="#DejaVuSans-20" x="642.871094"/>
      <use xlink:href="#DejaVuSans-47" x="674.658203"/>
      <use xlink:href="#DejaVuSans-4c" x="752.148438"/>
      <use xlink:href="#DejaVuSans-48" x="807.861328"/>
      <use xlink:href="#DejaVuSans-32" x="883.056641"/>
      <use xlink:href="#DejaVuSans-32" x="946.679688"/>
      <use xlink:href="#DejaVuSans-32" x="1010.302734"/>
      <use xlink:href="#DejaVuSans-20" x="1073.925781"/>
      <use xlink:href="#DejaVuSans-48" x="1105.712891"/>
      <use xlink:href="#DejaVuSans-45" x="1180.908203"/>
      <use xlink:href="#DejaVuSans-32" x="1244.091797"/>
      <use xlink:href="#DejaVuSans-20" x="1307.714844"/>
      <use xlink:href="#DejaVuSans-44" x="1339.501953"/>
      <use xlink:href="#DejaVuSans-69" x="1416.503906"/>
      <use xlink:href="#DejaVuSans-73" x="1444.287109"/>
      <use xlink:href="#DejaVuSans-74" x="1496.386719"/>
      <use xlink:href="#DejaVuSans-61" x="1535.595703"/>
      <use xlink:href="#DejaVuSans-6e" x="1596.875"/>
      <use xlink:href="#DejaVuSans-63" x="1660.253906"/>
      <use xlink:href="#DejaVuSans-65" x="1715.234375"/>
      <use xlink:href="#DejaVuSans-20" x="1776.757812"/>
      <use xlink:href="#DejaVuSans-5b" x="1808.544922"/>
      <use xlink:href="#DejaVuSans-c5" x="1847.558594"/>
      <use xlink:href="#DejaVuSans-5d" x="1915.966797"/>
     </g>
    </g>
   </g>
   <g id="matplotlib.axis_2">
    <g id="ytick_1">
     <g id="line2d_12">
      <defs>
       <path id="m6441af8951" d="M 0 0 
L -3.5 0 
" style="stroke: #000000; stroke-width: 0.8"/>
      </defs>
      <g>
       <use xlink:href="#m6441af8951" x="46.64" y="302.8525" style="stroke: #000000; stroke-width: 0.8"/>
      </g>
     </g>
     <g id="text_10">
      <!-- −1 -->
      <g transform="translate(24.897813 306.651719) scale(0.1 -0.1)">
       <defs>
        <path id="DejaVuSans-2212" d="M 678 2272 
L 4684 2272 
L 4684 1741 
L 678 1741 
L 678 2272 
z
" transform="scale(0.015625)"/>
       </defs>
       <use xlink:href="#DejaVuSans-2212"/>
       <use xlink:href="#DejaVuSans-31" x="83.789062"/>
      </g>
     </g>
    </g>
    <g id="ytick_2">
     <g id="line2d_13">
      <g>
       <use xlink:href="#m6441af8951" x="46.64" y="245.234" style="stroke: #000000; stroke-width: 0.8"/>
      </g>
     </g>
     <g id="text_11">
      <!-- 0 -->
      <g transform="translate(33.2775 249.033219) scale(0.1 -0.1)">
       <use xlink:href="#DejaVuSans-30"/>
      </g>
     </g>
    </g>
    <g id="ytick_3">
     <g id="line2d_14">
      <g>
       <use xlink:href="#m6441af8951" x="46.64" y="187.6155" style="stroke: #000000; stroke-width: 0.8"/>
      </g>
     </g>
     <g id="text_12">
      <!-- 1 -->
      <g transform="translate(33.2775 191.414719) scale(0.1 -0.1)">
       <use xlink:href="#DejaVuSans-31"/>
      </g>
     </g>
    </g>
    <g id="ytick_4">
     <g id="line2d_15">
      <g>
       <use xlink:href="#m6441af8951" x="46.64" y="129.997" style="stroke: #000000; stroke-width: 0.8"/>
      </g>
     </g>
     <g id="text_13">
      <!-- 2 -->
      <g transform="translate(33.2775 133.796219) scale(0.1 -0.1)">
       <use xlink:href="#DejaVuSans-32"/>
      </g>
     </g>
    </g>
    <g id="ytick_5">
     <g id="line2d_16">
      <g>
       <use xlink:href="#m6441af8951" x="46.64" y="72.3785" style="stroke: #000000; stroke-width: 0.8"/>
      </g>
     </g>
     <g id="text_14">
      <!-- 3 -->
      <g transform="translate(33.2775 76.177719) scale(0.1 -0.1)">
       <use xlink:href="#DejaVuSans-33"/>
      </g>
     </g>
    </g>
    <g id="ytick_6">
     <g id="line2d_17">
      <g>
       <use xlink:href="#m6441af8951" x="46.64" y="14.76" style="stroke: #000000; stroke-width: 0.8"/>
      </g>
     </g>
     <g id="text_15">
      <!-- 4 -->
      <g transform="translate(33.2775 18.559219) scale(0.1 -0.1)">
       <use xlink:href="#DejaVuSans-34"/>
      </g>
     </g>
    </g>
    <g id="text_16">
     <!-- PMF [kcal/mol] -->
     <g transform="translate(18.818125 195.602344) rotate(-90) scale(0.1 -0.1)">
      <defs>
       <path id="DejaVuSans-50" d="M 1259 4147 
L 1259 2394 
L 2053 2394 
Q 2494 2394 2734 2622 
Q 2975 2850 2975 3272 
Q 2975 3691 2734 3919 
Q 2494 4147 2053 4147 
L 1259 4147 
z
M 628 4666 
L 2053 4666 
Q 2838 4666 3239 4311 
Q 3641 3956 3641 3272 
Q 3641 2581 3239 2228 
Q 2838 1875 2053 1875 
L 1259 1875 
L 1259 0 
L 628 0 
L 628 4666 
z
" transform="scale(0.015625)"/>
       <path id="DejaVuSans-4d" d="M 628 4666 
L 1569 4666 
L 2759 1491 
L 3956 4666 
L 4897 4666 
L 4897 0 
L 4281 0 
L 4281 4097 
L 3078 897 
L 2444 897 
L 1241 4097 
L 1241 0 
L 628 0 
L 628 4666 
z
" transform="scale(0.015625)"/>
       <path id="DejaVuSans-46" d="M 628 4666 
L 3309 4666 
L 3309 4134 
L 1259 4134 
L 1259 2759 
L 3109 2759 
L 3109 2228 
L 1259 2228 
L 1259 0 
L 628 0 
L 628 4666 
z
" transform="scale(0.015625)"/>
       <path id="DejaVuSans-6b" d="M 581 4863 
L 1159 4863 
L 1159 1991 
L 2875 3500 
L 3609 3500 
L 1753 1863 
L 3688 0 
L 2938 0 
L 1159 1709 
L 1159 0 
L 581 0 
L 581 4863 
z
" transform="scale(0.015625)"/>
       <path id="DejaVuSans-6c" d="M 603 4863 
L 1178 4863 
L 1178 0 
L 603 0 
L 603 4863 
z
" transform="scale(0.015625)"/>
       <path id="DejaVuSans-2f" d="M 1625 4666 
L 2156 4666 
L 531 -594 
L 0 -594 
L 1625 4666 
z
" transform="scale(0.015625)"/>
       <path id="DejaVuSans-6d" d="M 3328 2828 
Q 3544 3216 3844 3400 
Q 4144 3584 4550 3584 
Q 5097 3584 5394 3201 
Q 5691 2819 5691 2113 
L 5691 0 
L 5113 0 
L 5113 2094 
Q 5113 2597 4934 2840 
Q 4756 3084 4391 3084 
Q 3944 3084 3684 2787 
Q 3425 2491 3425 1978 
L 3425 0 
L 2847 0 
L 2847 2094 
Q 2847 2600 2669 2842 
Q 2491 3084 2119 3084 
Q 1678 3084 1418 2786 
Q 1159 2488 1159 1978 
L 1159 0 
L 581 0 
L 581 3500 
L 1159 3500 
L 1159 2956 
Q 1356 3278 1631 3431 
Q 1906 3584 2284 3584 
Q 2666 3584 2933 3390 
Q 3200 3197 3328 2828 
z
" transform="scale(0.015625)"/>
       <path id="DejaVuSans-6f" d="M 1959 3097 
Q 1497 3097 1228 2736 
Q 959 2375 959 1747 
Q 959 1119 1226 758 
Q 1494 397 1959 397 
Q 2419 397 2687 759 
Q 2956 1122 2956 1747 
Q 2956 2369 2687 2733 
Q 2419 3097 1959 3097 
z
M 1959 3584 
Q 2709 3584 3137 3096 
Q 3566 2609 3566 1747 
Q 3566 888 3137 398 
Q 2709 -91 1959 -91 
Q 1206 -91 779 398 
Q 353 888 353 1747 
Q 353 2609 779 3096 
Q 1206 3584 1959 3584 
z
" transform="scale(0.015625)"/>
      </defs>
      <use xlink:href="#DejaVuSans-50"/>
      <use xlink:href="#DejaVuSans-4d" x="60.302734"/>
      <use xlink:href="#DejaVuSans-46" x="146.582031"/>
      <use xlink:href="#DejaVuSans-20" x="204.101562"/>
      <use xlink:href="#DejaVuSans-5b" x="235.888672"/>
      <use xlink:href="#DejaVuSans-6b" x="274.902344"/>
      <use xlink:href="#DejaVuSans-63" x="332.8125"/>
      <use xlink:href="#DejaVuSans-61" x="387.792969"/>
      <use xlink:href="#DejaVuSans-6c" x="449.072266"/>
      <use xlink:href="#DejaVuSans-2f" x="476.855469"/>
      <use xlink:href="#DejaVuSans-6d" x="510.546875"/>
      <use xlink:href="#DejaVuSans-6f" x="607.958984"/>
      <use xlink:href="#DejaVuSans-6c" x="669.140625"/>
      <use xlink:href="#DejaVuSans-5d" x="696.923828"/>
     </g>
    </g>
   </g>
   <g id="line2d_18">
    <path d="M 152.209405 -1 
L 152.732651 2.344735 
L 153.762677 7.995931 
L 157.367767 25.463463 
L 158.912806 34.837405 
L 160.972857 48.71157 
L 163.032909 62.812147 
L 164.062934 68.855317 
L 165.09296 73.794971 
L 166.122986 77.792617 
L 168.183037 85.198199 
L 169.213063 89.747268 
L 170.243089 95.171931 
L 172.30314 107.772377 
L 174.878205 123.40477 
L 178.998308 146.394673 
L 180.543346 154.155997 
L 182.088385 161.021442 
L 184.148436 169.120314 
L 185.693475 174.421129 
L 187.238514 178.882381 
L 188.783552 182.601267 
L 191.873629 189.135492 
L 194.963707 195.35008 
L 197.023758 198.98314 
L 198.568797 201.281155 
L 200.628848 203.861041 
L 203.203912 206.651429 
L 204.748951 208.093728 
L 206.29399 209.231203 
L 208.869054 210.876881 
L 209.89908 211.774714 
L 211.444118 213.492611 
L 217.10926 220.295727 
L 219.169311 222.43827 
L 221.229363 224.186014 
L 227.92453 229.297927 
L 237.709775 237.274343 
L 240.799852 239.253642 
L 242.344891 240.053465 
L 243.889929 240.64012 
L 246.980006 241.682394 
L 249.040058 242.745958 
L 253.160161 245.02883 
L 255.220212 245.950297 
L 257.280264 246.596494 
L 258.825302 246.868074 
L 260.370341 246.962122 
L 262.430393 246.842159 
L 268.095534 246.136597 
L 269.640573 245.703087 
L 271.185611 244.991955 
L 272.73065 244.020405 
L 275.820727 241.702165 
L 278.395792 239.536641 
L 283.030907 235.488042 
L 285.090959 234.052804 
L 289.211062 231.448824 
L 290.7561 230.147689 
L 293.331165 227.602537 
L 295.906229 225.120014 
L 297.966281 223.396707 
L 302.086384 220.360352 
L 304.146435 219.021062 
L 305.691474 218.293664 
L 307.236512 217.82678 
L 309.811577 217.360287 
L 316.506744 216.121985 
L 321.14186 215.075748 
L 322.171885 215.113223 
L 323.716924 215.436285 
L 326.807001 216.251366 
L 328.35204 216.413029 
L 330.412091 216.337461 
L 332.987156 215.988988 
L 336.592246 215.33462 
L 341.227362 215.041029 
L 343.287413 214.464548 
L 346.37749 213.363525 
L 348.437542 212.680169 
L 352.042632 211.67361 
L 353.587671 210.882407 
L 355.647722 209.491518 
L 359.767825 206.71433 
L 362.857902 204.535189 
L 365.432967 202.407145 
L 368.523044 199.579346 
L 371.098108 196.887031 
L 374.188185 193.266781 
L 376.248237 190.426476 
L 381.398366 182.77717 
L 385.003456 177.870088 
L 387.57852 173.74191 
L 390.668597 168.832729 
L 395.303713 162.105586 
L 398.908803 156.745074 
L 401.483867 152.576669 
L 403.028906 149.723508 
L 404.573945 146.411784 
L 410.754099 132.385112 
L 411.784125 130.47776 
L 413.329163 128.189842 
L 414.874202 125.888004 
L 415.904228 123.852917 
L 417.449266 119.98447 
L 418.994305 116.093929 
L 420.024331 114.099653 
L 421.054356 112.70179 
L 422.084382 111.711867 
L 425.174459 109.057338 
L 426.719498 107.461057 
L 427.749524 106.130633 
L 428.77955 104.450702 
L 431.354614 99.626015 
L 431.869627 98.944566 
L 432.38464 98.465267 
L 432.899653 98.190737 
L 433.414665 98.090452 
L 434.959704 98.157802 
L 435.474717 98.034513 
L 435.98973 97.725257 
L 436.504743 97.193686 
L 437.019755 96.430606 
L 438.049781 94.304598 
L 441.139858 87.010499 
L 442.684897 84.359334 
L 444.229936 82.227557 
L 445.259961 81.160061 
L 447.320013 79.429103 
L 448.350039 78.044535 
L 449.380064 75.962736 
L 451.440116 70.594742 
L 452.470142 68.151764 
L 455.560219 61.648392 
L 456.590245 58.539098 
L 458.135283 52.801961 
L 459.165309 49.038423 
L 460.195335 46.214682 
L 460.710347 45.342998 
L 461.22536 44.859775 
L 461.8 44.743501 
L 461.8 44.743501 
" clip-path="url(#pd2cbef1127)" style="fill: none; stroke: #f99752; stroke-width: 2.5; stroke-linecap: square"/>
   </g>
   <g id="patch_3">
    <path d="M 46.64 302.8525 
L 46.64 14.76 
" style="fill: none; stroke: #000000; stroke-width: 0.8; stroke-linejoin: miter; stroke-linecap: square"/>
   </g>
   <g id="patch_4">
    <path d="M 446.805 302.8525 
L 446.805 14.76 
" style="fill: none; stroke: #000000; stroke-width: 0.8; stroke-linejoin: miter; stroke-linecap: square"/>
   </g>
   <g id="patch_5">
    <path d="M 46.64 302.8525 
L 446.805 302.8525 
" style="fill: none; stroke: #000000; stroke-width: 0.8; stroke-linejoin: miter; stroke-linecap: square"/>
   </g>
   <g id="patch_6">
    <path d="M 46.64 14.76 
L 446.805 14.76 
" style="fill: none; stroke: #000000; stroke-width: 0.8; stroke-linejoin: miter; stroke-linecap: square"/>
   </g>
   <g id="legend_1">
    <g id="patch_7">
     <path d="M 364.359688 297.8525 
L 439.805 297.8525 
Q 441.805 297.8525 441.805 295.8525 
L 441.805 252.818125 
Q 441.805 250.818125 439.805 250.818125 
L 364.359688 250.818125 
Q 362.359688 250.818125 362.359688 252.818125 
L 362.359688 295.8525 
Q 362.359688 297.8525 364.359688 297.8525 
z
" style="fill: #ffffff; opacity: 0.8; stroke: #cccccc; stroke-linejoin: miter"/>
    </g>
    <g id="line2d_19">
     <path d="M 366.359688 258.916562 
L 376.359688 258.916562 
L 386.359688 258.916562 
" style="fill: none; stroke: #1e2e79; stroke-width: 2.5; stroke-linecap: square"/>
    </g>
    <g id="text_17">
     <!-- Reduced -->
     <g transform="translate(394.359688 262.416562) scale(0.1 -0.1)">
      <defs>
       <path id="DejaVuSans-64" d="M 2906 2969 
L 2906 4863 
L 3481 4863 
L 3481 0 
L 2906 0 
L 2906 525 
Q 2725 213 2448 61 
Q 2172 -91 1784 -91 
Q 1150 -91 751 415 
Q 353 922 353 1747 
Q 353 2572 751 3078 
Q 1150 3584 1784 3584 
Q 2172 3584 2448 3432 
Q 2725 3281 2906 2969 
z
M 947 1747 
Q 947 1113 1208 752 
Q 1469 391 1925 391 
Q 2381 391 2643 752 
Q 2906 1113 2906 1747 
Q 2906 2381 2643 2742 
Q 2381 3103 1925 3103 
Q 1469 3103 1208 2742 
Q 947 2381 947 1747 
z
" transform="scale(0.015625)"/>
       <path id="DejaVuSans-75" d="M 544 1381 
L 544 3500 
L 1119 3500 
L 1119 1403 
Q 1119 906 1312 657 
Q 1506 409 1894 409 
Q 2359 409 2629 706 
Q 2900 1003 2900 1516 
L 2900 3500 
L 3475 3500 
L 3475 0 
L 2900 0 
L 2900 538 
Q 2691 219 2414 64 
Q 2138 -91 1772 -91 
Q 1169 -91 856 284 
Q 544 659 544 1381 
z
M 1991 3584 
L 1991 3584 
z
" transform="scale(0.015625)"/>
      </defs>
      <use xlink:href="#DejaVuSans-52"/>
      <use xlink:href="#DejaVuSans-65" x="64.982422"/>
      <use xlink:href="#DejaVuSans-64" x="126.505859"/>
      <use xlink:href="#DejaVuSans-75" x="189.982422"/>
      <use xlink:href="#DejaVuSans-63" x="253.361328"/>
      <use xlink:href="#DejaVuSans-65" x="308.341797"/>
      <use xlink:href="#DejaVuSans-64" x="369.865234"/>
     </g>
    </g>
    <g id="line2d_20">
     <path d="M 366.359688 273.594687 
L 376.359688 273.594687 
L 386.359688 273.594687 
" style="fill: none; stroke: #ec4067; stroke-width: 2.5; stroke-linecap: square"/>
    </g>
    <g id="text_18">
     <!-- Oxidized -->
     <g transform="translate(394.359688 277.094687) scale(0.1 -0.1)">
      <defs>
       <path id="DejaVuSans-78" d="M 3513 3500 
L 2247 1797 
L 3578 0 
L 2900 0 
L 1881 1375 
L 863 0 
L 184 0 
L 1544 1831 
L 300 3500 
L 978 3500 
L 1906 2253 
L 2834 3500 
L 3513 3500 
z
" transform="scale(0.015625)"/>
       <path id="DejaVuSans-7a" d="M 353 3500 
L 3084 3500 
L 3084 2975 
L 922 459 
L 3084 459 
L 3084 0 
L 275 0 
L 275 525 
L 2438 3041 
L 353 3041 
L 353 3500 
z
" transform="scale(0.015625)"/>
      </defs>
      <use xlink:href="#DejaVuSans-4f"/>
      <use xlink:href="#DejaVuSans-78" x="78.710938"/>
      <use xlink:href="#DejaVuSans-69" x="137.890625"/>
      <use xlink:href="#DejaVuSans-64" x="165.673828"/>
      <use xlink:href="#DejaVuSans-69" x="229.150391"/>
      <use xlink:href="#DejaVuSans-7a" x="256.933594"/>
      <use xlink:href="#DejaVuSans-65" x="309.423828"/>
      <use xlink:href="#DejaVuSans-64" x="370.947266"/>
     </g>
    </g>
    <g id="line2d_21">
     <path d="M 366.359688 288.272812 
L 376.359688 288.272812 
L 386.359688 288.272812 
" style="fill: none; stroke: #f99752; stroke-width: 2.5; stroke-linecap: square"/>
    </g>
    <g id="text_19">
     <!-- Cu$^{+}$ -->
     <g transform="translate(394.359688 291.772812) scale(0.1 -0.1)">
      <defs>
       <path id="DejaVuSans-43" d="M 4122 4306 
L 4122 3641 
Q 3803 3938 3442 4084 
Q 3081 4231 2675 4231 
Q 1875 4231 1450 3742 
Q 1025 3253 1025 2328 
Q 1025 1406 1450 917 
Q 1875 428 2675 428 
Q 3081 428 3442 575 
Q 3803 722 4122 1019 
L 4122 359 
Q 3791 134 3420 21 
Q 3050 -91 2638 -91 
Q 1578 -91 968 557 
Q 359 1206 359 2328 
Q 359 3453 968 4101 
Q 1578 4750 2638 4750 
Q 3056 4750 3426 4639 
Q 3797 4528 4122 4306 
z
" transform="scale(0.015625)"/>
       <path id="DejaVuSans-2b" d="M 2944 4013 
L 2944 2272 
L 4684 2272 
L 4684 1741 
L 2944 1741 
L 2944 0 
L 2419 0 
L 2419 1741 
L 678 1741 
L 678 2272 
L 2419 2272 
L 2419 4013 
L 2944 4013 
z
" transform="scale(0.015625)"/>
      </defs>
      <use xlink:href="#DejaVuSans-43" transform="translate(0 0.826562)"/>
      <use xlink:href="#DejaVuSans-75" transform="translate(69.824219 0.826562)"/>
      <use xlink:href="#DejaVuSans-2b" transform="translate(134.160156 39.107812) scale(0.7)"/>
     </g>
    </g>
   </g>
  </g>
 </g>
 <defs>
  <clipPath id="pd2cbef1127">
   <rect x="46.64" y="14.76" width="400.165" height="288.0925"/>
  </clipPath>
 </defs>
</svg>
