<?xml version="1.0" encoding="utf-8" standalone="no"?>
<!DOCTYPE svg PUBLIC "-//W3C//DTD SVG 1.1//EN"
  "http://www.w3.org/Graphics/SVG/1.1/DTD/svg11.dtd">
<svg xmlns:xlink="http://www.w3.org/1999/xlink" width="252pt" height="216pt" viewBox="0 0 252 216" xmlns="http://www.w3.org/2000/svg" version="1.1">
 <metadata>
  <rdf:RDF xmlns:dc="http://purl.org/dc/elements/1.1/" xmlns:cc="http://creativecommons.org/ns#" xmlns:rdf="http://www.w3.org/1999/02/22-rdf-syntax-ns#">
   <cc:Work>
    <dc:type rdf:resource="http://purl.org/dc/dcmitype/StillImage"/>
    <dc:date>2024-08-13T17:15:28.813749</dc:date>
    <dc:format>image/svg+xml</dc:format>
    <dc:creator>
     <cc:Agent>
      <dc:title>Matplotlib v3.9.1, https://matplotlib.org/</dc:title>
     </cc:Agent>
    </dc:creator>
   </cc:Work>
  </rdf:RDF>
 </metadata>
 <defs>
  <style type="text/css">*{stroke-linejoin: round; stroke-linecap: butt}</style>
 </defs>
 <g id="figure_1">
  <g id="patch_1">
   <path d="M 0 216 
L 252 216 
L 252 0 
L 0 0 
z
" style="fill: #ffffff"/>
  </g>
  <g id="axes_1">
   <g id="patch_2">
    <path d="M 36.704 179.8 
L 241.11 179.8 
L 241.11 11.664 
L 36.704 11.664 
z
" style="fill: #ffffff"/>
   </g>
   <g id="line2d_1">
    <path d="M 36.704 112.5456 
L 241.11 112.5456 
" clip-path="url(#p793b6e9251)" style="fill: none; stroke-dasharray: 1.5,2.475; stroke-dashoffset: 0; stroke: #c0c0c0; stroke-width: 1.5"/>
   </g>
   <g id="line2d_2">
    <path d="M 52.60838 -1 
L 53.775771 30.426536 
L 55.141512 61.902373 
L 56.507254 87.250892 
L 57.872996 106.50204 
L 59.238737 120.822917 
L 60.604479 131.24678 
L 61.28735 135.166937 
L 61.97022 138.287368 
L 62.653091 140.657815 
L 63.335962 142.338994 
L 64.018833 143.416365 
L 64.701704 143.98759 
L 65.384575 144.128226 
L 66.067445 143.88142 
L 66.750316 143.279911 
L 67.433187 142.365102 
L 68.798929 139.793905 
L 70.16467 136.485851 
L 71.530412 132.572309 
L 72.896154 128.05874 
L 74.944766 120.197809 
L 84.504958 82.612986 
L 85.870699 78.919483 
L 87.236441 75.077934 
L 91.333666 62.236452 
L 92.016537 60.401524 
L 94.065149 56.084067 
L 96.113762 50.837229 
L 97.479503 48.535075 
L 98.162374 47.082935 
L 100.210987 41.640639 
L 101.576728 38.12089 
L 102.259599 37.126157 
L 102.94247 37.047882 
L 103.625341 37.379535 
L 104.308212 37.433963 
L 104.991082 36.999158 
L 106.356824 35.700425 
L 107.039695 35.416065 
L 108.405437 35.436548 
L 109.088307 35.216408 
L 109.771178 34.874367 
L 110.454049 34.846348 
L 111.13692 35.550464 
L 113.185532 39.6234 
L 113.868403 39.744193 
L 114.551274 39.020765 
L 115.234145 38.085123 
L 115.917016 37.749489 
L 116.599886 38.415436 
L 118.648499 42.611796 
L 121.379982 45.480568 
L 122.062853 45.894662 
L 123.428595 46.074855 
L 124.111465 46.640466 
L 124.794336 47.798096 
L 126.160078 51.323781 
L 126.842949 53.167375 
L 127.52582 54.690409 
L 128.20869 55.745605 
L 128.891561 56.411343 
L 131.623045 58.284402 
L 132.305915 58.74279 
L 132.988786 59.512939 
L 135.037399 62.935452 
L 136.40314 65.394759 
L 137.086011 66.230588 
L 137.768882 66.511263 
L 138.451753 66.667339 
L 139.134624 67.199809 
L 140.500365 68.754391 
L 141.183236 69.152088 
L 141.866107 69.392286 
L 142.548978 69.750898 
L 143.231849 70.386792 
L 145.963332 73.951608 
L 148.011944 75.673856 
L 154.157782 82.831582 
L 155.523523 84.765273 
L 156.889265 86.780171 
L 158.255007 88.568974 
L 158.937878 89.730253 
L 160.98649 94.055425 
L 162.352232 96.171484 
L 164.400844 99.304374 
L 167.132327 103.806408 
L 169.863811 107.502678 
L 171.229552 109.016348 
L 172.595294 109.926013 
L 173.961036 110.787578 
L 175.326777 111.931491 
L 176.009648 112.340146 
L 176.692519 112.545699 
L 177.37539 112.543421 
L 178.741131 112.097141 
L 182.155486 110.544486 
L 182.838356 110.139138 
L 183.521227 109.586994 
L 184.886969 108.078347 
L 188.984194 102.857635 
L 191.032806 99.485397 
L 193.76429 94.814329 
L 195.130031 92.600424 
L 197.861514 87.29958 
L 200.592998 82.548467 
L 205.373094 74.259036 
L 208.787448 67.087173 
L 209.470318 66.371698 
L 211.518931 65.191188 
L 212.201802 64.249888 
L 213.567543 61.902165 
L 214.250414 61.211712 
L 215.616156 60.184835 
L 216.981898 58.772021 
L 217.664768 58.294921 
L 219.03051 57.817651 
L 219.713381 57.764004 
L 220.396252 57.88179 
L 221.761993 58.425552 
L 222.444864 58.51777 
L 223.127735 58.301617 
L 224.493477 57.329229 
L 227.22496 55.022836 
L 227.907831 54.815945 
L 228.590702 54.732661 
L 229.273572 54.900144 
L 229.956443 55.449235 
L 231.322185 56.831666 
L 232.005056 57.197091 
L 232.687927 57.321114 
L 234.053668 57.35531 
L 234.736539 57.721138 
L 236.102281 58.789925 
L 238.150893 59.249387 
L 238.833764 59.92783 
L 241.565247 63.535781 
L 242.248118 64.148479 
L 242.930989 64.432756 
L 243.61386 64.1961 
L 244.979601 62.729162 
L 245.662472 62.328405 
L 246.345343 62.498712 
L 247.711085 63.504404 
L 248.393955 63.542312 
L 249.076826 63.298931 
L 249.759697 63.190525 
L 250.442568 63.39628 
L 253 64.519261 
L 253 64.519261 
" clip-path="url(#p793b6e9251)" style="fill: none; stroke: #1e2e79; stroke-width: 1.5; stroke-linecap: square"/>
   </g>
   <g id="line2d_3">
    <path d="M 53.19193 -1 
L 54.458641 39.55891 
L 55.824383 71.297101 
L 57.190125 94.796022 
L 58.555866 114.20348 
L 59.921608 128.881149 
L 60.604479 134.486995 
L 61.28735 138.926985 
L 62.653091 145.585691 
L 63.335962 148.007479 
L 64.018833 149.67032 
L 64.701704 150.644674 
L 65.384575 151.155645 
L 66.067445 151.388712 
L 66.750316 151.329915 
L 67.433187 150.928954 
L 68.116058 150.225926 
L 68.798929 149.250902 
L 70.16467 146.632274 
L 71.530412 143.425075 
L 72.896154 139.301951 
L 74.944766 133.052492 
L 76.310508 128.807366 
L 77.676249 124.403372 
L 80.407733 116.593738 
L 82.456345 110.074153 
L 83.822087 106.006267 
L 85.187829 102.468411 
L 86.55357 99.661098 
L 87.236441 97.671998 
L 89.285053 89.641462 
L 89.967924 87.956782 
L 90.650795 86.699071 
L 91.333666 86.021199 
L 92.016537 85.18403 
L 92.699408 83.385684 
L 93.382278 81.014694 
L 94.065149 79.242174 
L 94.74802 78.290495 
L 95.430891 77.62464 
L 96.113762 77.302955 
L 96.796633 76.823157 
L 97.479503 74.931132 
L 98.162374 72.150233 
L 98.845245 70.29348 
L 100.210987 68.555732 
L 101.576728 66.028444 
L 102.259599 65.44626 
L 102.94247 65.091774 
L 103.625341 64.041653 
L 104.991082 60.142873 
L 105.673953 58.733267 
L 109.088307 53.837857 
L 109.771178 53.133277 
L 110.454049 53.463568 
L 111.13692 53.416174 
L 111.819791 51.842674 
L 113.185532 46.387802 
L 113.868403 44.697388 
L 114.551274 43.451532 
L 115.234145 41.859703 
L 115.917016 40.737803 
L 116.599886 41.134411 
L 117.282757 42.341101 
L 117.965628 43.270996 
L 120.014241 44.930029 
L 120.697111 46.179173 
L 121.379982 46.693689 
L 122.062853 45.288705 
L 122.745724 43.207164 
L 123.428595 42.322111 
L 124.111465 43.243807 
L 124.794336 44.838999 
L 126.160078 46.465935 
L 126.842949 48.244567 
L 127.52582 49.671165 
L 128.20869 49.540177 
L 128.891561 48.391462 
L 129.574432 48.061611 
L 130.257303 48.480572 
L 131.623045 48.836872 
L 132.305915 50.614733 
L 132.988786 53.868826 
L 133.671657 56.200964 
L 134.354528 56.133571 
L 135.037399 54.170131 
L 137.086011 46.040503 
L 137.768882 46.009145 
L 141.183236 52.904016 
L 141.866107 53.375809 
L 142.548978 53.382639 
L 143.231849 54.376076 
L 143.914719 56.399809 
L 144.59759 57.891445 
L 145.280461 58.708673 
L 145.963332 60.032719 
L 146.646203 61.800523 
L 147.329073 62.387983 
L 148.011944 61.073032 
L 148.694815 59.450728 
L 149.377686 59.990642 
L 150.743428 64.253325 
L 151.426298 65.562783 
L 152.109169 67.139937 
L 153.474911 71.053321 
L 155.523523 76.065175 
L 156.206394 77.913296 
L 156.889265 79.409111 
L 158.255007 81.063693 
L 158.937878 82.684099 
L 160.98649 88.555809 
L 163.035102 92.704252 
L 164.400844 95.969549 
L 169.18094 104.521709 
L 169.863811 105.351773 
L 171.229552 106.757844 
L 172.595294 108.783266 
L 173.278165 109.343411 
L 173.961036 109.663531 
L 174.643906 110.149882 
L 176.692519 112.527607 
L 177.37539 112.942835 
L 178.741131 113.192739 
L 180.106873 113.826206 
L 180.789744 114.121041 
L 182.155486 114.356458 
L 182.838356 114.39337 
L 183.521227 114.168868 
L 184.886969 113.33475 
L 185.56984 113.05205 
L 186.935581 112.888119 
L 188.301323 112.02435 
L 189.667065 112.021458 
L 190.349935 111.56888 
L 193.081419 108.38626 
L 194.44716 107.124502 
L 195.812902 105.425603 
L 197.178644 103.667588 
L 198.544385 101.980983 
L 199.910127 100.185028 
L 201.958739 96.390479 
L 202.64161 95.68858 
L 204.007352 94.700665 
L 205.373094 92.652666 
L 206.738835 90.458575 
L 208.104577 88.112075 
L 209.470318 86.921939 
L 210.153189 85.815344 
L 210.83606 84.127041 
L 211.518931 82.866026 
L 212.201802 82.629906 
L 212.884673 82.850586 
L 213.567543 82.673819 
L 216.299027 79.983221 
L 216.981898 79.445621 
L 219.713381 75.915996 
L 220.396252 75.404881 
L 221.761993 74.893136 
L 222.444864 74.407717 
L 223.810606 72.913771 
L 225.176347 70.735059 
L 225.859218 70.436655 
L 227.22496 71.805622 
L 227.907831 71.045889 
L 229.956443 64.790837 
L 230.639314 63.489824 
L 231.322185 63.16408 
L 232.005056 63.143465 
L 233.370797 61.82626 
L 234.053668 61.896394 
L 234.736539 63.026709 
L 235.41941 64.661313 
L 236.102281 65.847658 
L 236.785151 66.029967 
L 237.468022 65.087466 
L 238.150893 63.061146 
L 238.833764 60.492243 
L 239.516635 59.303673 
L 240.882376 61.304883 
L 241.565247 60.839023 
L 242.248118 59.457849 
L 242.930989 57.752175 
L 243.61386 56.455337 
L 244.296731 56.490313 
L 244.979601 57.337959 
L 245.662472 57.389943 
L 246.345343 55.869025 
L 247.028214 52.940974 
L 247.711085 49.463444 
L 248.393955 48.094115 
L 249.759697 51.133819 
L 250.442568 52.012127 
L 251.125439 51.510576 
L 251.80831 49.708523 
L 252.49118 48.265482 
L 253 48.16928 
L 253 48.16928 
" clip-path="url(#p793b6e9251)" style="fill: none; stroke: #ec4067; stroke-width: 1.5; stroke-linecap: square"/>
   </g>
   <g id="matplotlib.axis_1">
    <g id="xtick_1">
     <g id="line2d_4">
      <defs>
       <path id="m1905fc2e2a" d="M 0 0 
L 0 3.5 
" style="stroke: #c2c1c1; stroke-width: 0.8"/>
      </defs>
      <g>
       <use xlink:href="#m1905fc2e2a" x="36.704" y="179.8" style="fill: #c2c1c1; stroke: #c2c1c1; stroke-width: 0.8"/>
      </g>
     </g>
     <g id="text_1">
      <!-- 1 -->
      <g style="fill: #191919" transform="translate(34.455875 192.8) scale(0.08 -0.08)">
       <defs>
        <path id="Roboto-Regular-31" d="M 2278 4575 
L 2278 0 
L 1700 0 
L 1700 3853 
L 534 3428 
L 534 3950 
L 2188 4575 
L 2278 4575 
z
" transform="scale(0.015625)"/>
       </defs>
       <use xlink:href="#Roboto-Regular-31"/>
      </g>
     </g>
    </g>
    <g id="xtick_2">
     <g id="line2d_5">
      <g>
       <use xlink:href="#m1905fc2e2a" x="70.771667" y="179.8" style="fill: #c2c1c1; stroke: #c2c1c1; stroke-width: 0.8"/>
      </g>
     </g>
     <g id="text_2">
      <!-- 2 -->
      <g style="fill: #191919" transform="translate(68.523542 192.8) scale(0.08 -0.08)">
       <defs>
        <path id="Roboto-Regular-32" d="M 3359 475 
L 3359 0 
L 381 0 
L 381 416 
L 1925 2134 
Q 2306 2566 2439 2819 
Q 2572 3072 2572 3328 
Q 2572 3663 2364 3900 
Q 2156 4138 1778 4138 
Q 1322 4138 1097 3878 
Q 872 3619 872 3213 
L 294 3213 
Q 294 3788 672 4200 
Q 1050 4613 1778 4613 
Q 2422 4613 2786 4278 
Q 3150 3944 3150 3397 
Q 3150 2997 2903 2592 
Q 2656 2188 2297 1797 
L 1078 475 
L 3359 475 
z
" transform="scale(0.015625)"/>
       </defs>
       <use xlink:href="#Roboto-Regular-32"/>
      </g>
     </g>
    </g>
    <g id="xtick_3">
     <g id="line2d_6">
      <g>
       <use xlink:href="#m1905fc2e2a" x="104.839333" y="179.8" style="fill: #c2c1c1; stroke: #c2c1c1; stroke-width: 0.8"/>
      </g>
     </g>
     <g id="text_3">
      <!-- 3 -->
      <g style="fill: #191919" transform="translate(102.591208 192.8) scale(0.08 -0.08)">
       <defs>
        <path id="Roboto-Regular-33" d="M 1222 2084 
L 1222 2559 
L 1647 2559 
Q 2094 2563 2312 2784 
Q 2531 3006 2531 3338 
Q 2531 4138 1738 4138 
Q 1369 4138 1141 3927 
Q 913 3716 913 3359 
L 334 3359 
Q 334 3881 720 4247 
Q 1106 4613 1738 4613 
Q 2353 4613 2733 4286 
Q 3113 3959 3113 3325 
Q 3113 3072 2942 2784 
Q 2772 2497 2397 2338 
Q 2850 2191 3015 1884 
Q 3181 1578 3181 1269 
Q 3181 631 2768 284 
Q 2356 -63 1741 -63 
Q 1147 -63 722 267 
Q 297 597 297 1203 
L 875 1203 
Q 875 844 1108 628 
Q 1341 413 1741 413 
Q 2138 413 2369 622 
Q 2600 831 2600 1256 
Q 2600 1681 2337 1882 
Q 2075 2084 1634 2084 
L 1222 2084 
z
" transform="scale(0.015625)"/>
       </defs>
       <use xlink:href="#Roboto-Regular-33"/>
      </g>
     </g>
    </g>
    <g id="xtick_4">
     <g id="line2d_7">
      <g>
       <use xlink:href="#m1905fc2e2a" x="138.907" y="179.8" style="fill: #c2c1c1; stroke: #c2c1c1; stroke-width: 0.8"/>
      </g>
     </g>
     <g id="text_4">
      <!-- 4 -->
      <g style="fill: #191919" transform="translate(136.658875 192.8) scale(0.08 -0.08)">
       <defs>
        <path id="Roboto-Regular-34" d="M 166 1397 
L 2203 4550 
L 2819 4550 
L 2819 1531 
L 3453 1531 
L 3453 1056 
L 2819 1056 
L 2819 0 
L 2241 0 
L 2241 1056 
L 166 1056 
L 166 1397 
z
M 822 1531 
L 2241 1531 
L 2241 3766 
L 2169 3638 
L 822 1531 
z
" transform="scale(0.015625)"/>
       </defs>
       <use xlink:href="#Roboto-Regular-34"/>
      </g>
     </g>
    </g>
    <g id="xtick_5">
     <g id="line2d_8">
      <g>
       <use xlink:href="#m1905fc2e2a" x="172.974667" y="179.8" style="fill: #c2c1c1; stroke: #c2c1c1; stroke-width: 0.8"/>
      </g>
     </g>
     <g id="text_5">
      <!-- 5 -->
      <g style="fill: #191919" transform="translate(170.726542 192.8) scale(0.08 -0.08)">
       <defs>
        <path id="Roboto-Regular-35" d="M 1109 2166 
L 647 2284 
L 875 4550 
L 3209 4550 
L 3209 4016 
L 1366 4016 
L 1228 2778 
Q 1572 2975 1988 2975 
Q 2616 2975 2980 2561 
Q 3344 2147 3344 1450 
Q 3344 797 2987 367 
Q 2631 -63 1903 -63 
Q 1350 -63 947 248 
Q 544 559 481 1197 
L 1031 1197 
Q 1141 413 1903 413 
Q 2313 413 2538 691 
Q 2763 969 2763 1444 
Q 2763 1872 2527 2164 
Q 2291 2456 1853 2456 
Q 1563 2456 1413 2378 
Q 1263 2300 1109 2166 
z
" transform="scale(0.015625)"/>
       </defs>
       <use xlink:href="#Roboto-Regular-35"/>
      </g>
     </g>
    </g>
    <g id="xtick_6">
     <g id="line2d_9">
      <g>
       <use xlink:href="#m1905fc2e2a" x="207.042333" y="179.8" style="fill: #c2c1c1; stroke: #c2c1c1; stroke-width: 0.8"/>
      </g>
     </g>
     <g id="text_6">
      <!-- 6 -->
      <g style="fill: #191919" transform="translate(204.794208 192.8) scale(0.08 -0.08)">
       <defs>
        <path id="Roboto-Regular-36" d="M 3291 1484 
Q 3291 838 2930 387 
Q 2569 -63 1878 -63 
Q 1388 -63 1063 198 
Q 738 459 577 861 
Q 416 1263 416 1684 
L 416 1956 
Q 416 2597 595 3194 
Q 775 3791 1247 4173 
Q 1719 4556 2597 4556 
L 2647 4556 
L 2647 4066 
Q 2041 4066 1705 3853 
Q 1369 3641 1205 3302 
Q 1041 2963 1006 2575 
Q 1369 2984 1984 2984 
Q 2438 2984 2727 2765 
Q 3016 2547 3153 2201 
Q 3291 1856 3291 1484 
z
M 997 1666 
Q 997 1059 1267 737 
Q 1538 416 1878 416 
Q 2278 416 2498 708 
Q 2719 1000 2719 1456 
Q 2719 1863 2516 2184 
Q 2313 2506 1891 2506 
Q 1588 2506 1341 2325 
Q 1094 2144 997 1884 
L 997 1666 
z
" transform="scale(0.015625)"/>
       </defs>
       <use xlink:href="#Roboto-Regular-36"/>
      </g>
     </g>
    </g>
    <g id="xtick_7">
     <g id="line2d_10">
      <g>
       <use xlink:href="#m1905fc2e2a" x="241.11" y="179.8" style="fill: #c2c1c1; stroke: #c2c1c1; stroke-width: 0.8"/>
      </g>
     </g>
     <g id="text_7">
      <!-- 7 -->
      <g style="fill: #191919" transform="translate(238.861875 192.8) scale(0.08 -0.08)">
       <defs>
        <path id="Roboto-Regular-37" d="M 3319 4550 
L 3319 4225 
L 1434 0 
L 825 0 
L 2706 4075 
L 244 4075 
L 244 4550 
L 3319 4550 
z
" transform="scale(0.015625)"/>
       </defs>
       <use xlink:href="#Roboto-Regular-37"/>
      </g>
     </g>
    </g>
    <g id="text_8">
     <!-- Ser205 HG - H2O O Distance [Å] -->
     <g style="fill: #191919" transform="translate(81.583875 205.70375) scale(0.08 -0.08)">
      <defs>
       <path id="Roboto-Bold-53" d="M 2769 1194 
Q 2769 1422 2612 1573 
Q 2456 1725 1854 1920 
Q 1253 2116 816 2425 
Q 356 2747 356 3341 
Q 356 3913 828 4263 
Q 1300 4613 2038 4613 
Q 2794 4613 3250 4217 
Q 3706 3822 3706 3209 
L 2769 3209 
Q 2769 3497 2584 3681 
Q 2400 3866 2022 3866 
Q 1653 3866 1473 3711 
Q 1294 3556 1294 3338 
Q 1294 3113 1525 2963 
Q 1756 2813 2197 2678 
Q 2944 2450 3326 2106 
Q 3709 1763 3709 1200 
Q 3709 603 3259 270 
Q 2809 -63 2059 -63 
Q 1606 -63 1184 96 
Q 763 256 491 587 
Q 219 919 219 1434 
L 1159 1434 
Q 1159 1019 1407 850 
Q 1656 681 2059 681 
Q 2422 681 2595 828 
Q 2769 975 2769 1194 
z
" transform="scale(0.015625)"/>
       <path id="Roboto-Bold-65" d="M 3225 550 
Q 3063 319 2731 128 
Q 2400 -63 1906 -63 
Q 1119 -63 675 414 
Q 231 891 228 1566 
L 228 1697 
Q 228 2463 654 2953 
Q 1081 3444 1806 3444 
Q 2534 3444 2915 2987 
Q 3297 2531 3297 1781 
L 3297 1397 
L 1144 1397 
Q 1191 1069 1403 867 
Q 1616 666 1963 666 
Q 2478 666 2778 1044 
L 3225 550 
z
M 1800 2716 
Q 1513 2716 1356 2522 
Q 1200 2328 1153 2016 
L 2409 2016 
L 2409 2084 
Q 2403 2356 2258 2536 
Q 2113 2716 1800 2716 
z
" transform="scale(0.015625)"/>
       <path id="Roboto-Bold-72" d="M 1922 2563 
Q 1413 2563 1253 2216 
L 1253 0 
L 347 0 
L 347 3381 
L 1200 3381 
L 1228 2978 
Q 1494 3444 1981 3444 
Q 2153 3444 2259 3403 
L 2250 2538 
L 1922 2563 
z
" transform="scale(0.015625)"/>
       <path id="Roboto-Bold-32" d="M 3428 728 
L 3428 0 
L 313 0 
L 313 619 
L 1784 2188 
Q 2116 2553 2245 2792 
Q 2375 3031 2375 3234 
Q 2375 3538 2223 3713 
Q 2072 3888 1788 3888 
Q 1466 3888 1295 3669 
Q 1125 3450 1125 3119 
L 222 3119 
Q 222 3734 645 4175 
Q 1069 4616 1803 4616 
Q 2519 4616 2900 4270 
Q 3281 3925 3281 3325 
Q 3281 2875 3014 2470 
Q 2747 2066 2284 1581 
L 1472 728 
L 3428 728 
z
" transform="scale(0.015625)"/>
       <path id="Roboto-Bold-30" d="M 3372 1884 
Q 3372 856 2950 396 
Q 2528 -63 1840 -63 
Q 1153 -63 726 396 
Q 300 856 300 1884 
L 300 2675 
Q 300 3700 723 4156 
Q 1147 4613 1834 4613 
Q 2519 4613 2944 4159 
Q 3369 3706 3372 2691 
L 3372 1884 
z
M 2469 2800 
Q 2469 3406 2303 3645 
Q 2138 3884 1834 3884 
Q 1538 3884 1372 3650 
Q 1206 3416 1203 2825 
L 1203 1763 
Q 1203 1153 1370 909 
Q 1538 666 1841 666 
Q 2138 666 2302 905 
Q 2466 1144 2469 1738 
L 2469 2800 
z
" transform="scale(0.015625)"/>
       <path id="Roboto-Bold-35" d="M 1166 2063 
L 447 2238 
L 706 4550 
L 3256 4550 
L 3256 3800 
L 1450 3800 
L 1338 2819 
Q 1650 2991 2019 2991 
Q 2681 2991 3043 2587 
Q 3406 2184 3406 1463 
Q 3406 856 3031 396 
Q 2656 -63 1872 -63 
Q 1281 -63 814 287 
Q 347 638 331 1269 
L 1225 1269 
Q 1284 666 1866 666 
Q 2206 666 2354 911 
Q 2503 1156 2503 1513 
Q 2503 1872 2325 2092 
Q 2147 2313 1772 2313 
Q 1525 2313 1390 2233 
Q 1256 2153 1166 2063 
z
" transform="scale(0.015625)"/>
       <path id="Roboto-Bold-20" transform="scale(0.015625)"/>
       <path id="Roboto-Bold-48" d="M 3175 0 
L 3175 1950 
L 1347 1950 
L 1347 0 
L 406 0 
L 406 4550 
L 1347 4550 
L 1347 2706 
L 3175 2706 
L 3175 4550 
L 4113 4550 
L 4113 0 
L 3175 0 
z
" transform="scale(0.015625)"/>
       <path id="Roboto-Bold-47" d="M 4009 2391 
L 4009 575 
Q 3847 381 3433 159 
Q 3019 -63 2269 -63 
Q 1384 -63 839 510 
Q 294 1084 294 2138 
L 294 2409 
Q 294 3463 816 4039 
Q 1338 4616 2203 4616 
Q 3088 4616 3509 4191 
Q 3931 3766 4006 3103 
L 3094 3103 
Q 3041 3447 2847 3653 
Q 2653 3859 2228 3859 
Q 1306 3859 1250 2584 
L 1247 2138 
Q 1247 1419 1514 1056 
Q 1781 694 2319 694 
Q 2656 694 2825 770 
Q 2994 847 3069 919 
L 3069 1703 
L 2219 1703 
L 2219 2391 
L 4009 2391 
z
" transform="scale(0.015625)"/>
       <path id="Roboto-Bold-2d" d="M 2103 2316 
L 2103 1584 
L 347 1584 
L 347 2316 
L 2103 2316 
z
" transform="scale(0.015625)"/>
       <path id="Roboto-Bold-4f" d="M 4147 2172 
Q 4147 1131 3608 534 
Q 3069 -63 2212 -63 
Q 1356 -63 812 534 
Q 269 1131 269 2172 
L 269 2375 
Q 269 3416 809 4014 
Q 1350 4613 2206 4613 
Q 3063 4613 3605 4014 
Q 4147 3416 4147 2375 
L 4147 2172 
z
M 3197 2381 
Q 3197 3094 2937 3466 
Q 2678 3838 2206 3838 
Q 1734 3838 1478 3470 
Q 1222 3103 1219 2397 
L 1219 2172 
Q 1219 1463 1478 1086 
Q 1738 709 2213 709 
Q 2684 709 2939 1081 
Q 3194 1453 3197 2156 
L 3197 2381 
z
" transform="scale(0.015625)"/>
       <path id="Roboto-Bold-44" d="M 406 0 
L 406 4550 
L 1809 4550 
Q 2728 4550 3308 3950 
Q 3888 3350 3888 2375 
L 3888 2172 
Q 3888 1197 3308 598 
Q 2728 0 1797 0 
L 406 0 
z
M 1347 3791 
L 1347 756 
L 1797 756 
Q 2350 756 2639 1115 
Q 2928 1475 2934 2144 
L 2934 2381 
Q 2934 3075 2661 3428 
Q 2388 3781 1838 3791 
L 1347 3791 
z
" transform="scale(0.015625)"/>
       <path id="Roboto-Bold-69" d="M 341 4256 
Q 341 4459 478 4592 
Q 616 4725 847 4725 
Q 1078 4725 1215 4592 
Q 1353 4459 1353 4256 
Q 1353 4056 1215 3923 
Q 1078 3791 847 3791 
Q 616 3791 478 3923 
Q 341 4056 341 4256 
z
M 1303 3381 
L 1303 0 
L 397 0 
L 397 3381 
L 1303 3381 
z
" transform="scale(0.015625)"/>
       <path id="Roboto-Bold-73" d="M 2178 938 
Q 2178 1081 2045 1179 
Q 1913 1278 1475 1372 
Q 953 1484 618 1721 
Q 284 1959 284 2394 
Q 284 2816 642 3130 
Q 1000 3444 1631 3444 
Q 2291 3444 2669 3134 
Q 3047 2825 3047 2353 
L 2144 2353 
Q 2144 2547 2019 2675 
Q 1894 2803 1628 2803 
Q 1403 2803 1276 2698 
Q 1150 2594 1150 2438 
Q 1150 2294 1284 2200 
Q 1419 2106 1781 2034 
Q 2331 1925 2693 1700 
Q 3056 1475 3056 972 
Q 3056 525 2672 231 
Q 2288 -63 1634 -63 
Q 925 -63 550 301 
Q 175 666 175 1078 
L 1034 1078 
Q 1047 813 1230 697 
Q 1413 581 1653 581 
Q 2178 581 2178 938 
z
" transform="scale(0.015625)"/>
       <path id="Roboto-Bold-74" d="M 2041 22 
Q 1788 -63 1497 -63 
Q 1053 -63 790 168 
Q 528 400 528 938 
L 528 2722 
L 31 2722 
L 31 3381 
L 528 3381 
L 528 4216 
L 1431 4216 
L 1431 3381 
L 2006 3381 
L 2006 2722 
L 1431 2722 
L 1431 1031 
Q 1431 819 1518 750 
Q 1606 681 1778 681 
Q 1916 681 2041 706 
L 2041 22 
z
" transform="scale(0.015625)"/>
       <path id="Roboto-Bold-61" d="M 2306 0 
Q 2250 119 2216 303 
Q 1888 -63 1363 -63 
Q 878 -63 547 223 
Q 216 509 216 950 
Q 216 1481 609 1773 
Q 1003 2066 1775 2066 
L 2178 2066 
L 2178 2263 
Q 2178 2497 2058 2636 
Q 1938 2775 1678 2775 
Q 1194 2775 1194 2369 
L 291 2369 
Q 291 2809 681 3126 
Q 1072 3444 1728 3444 
Q 2313 3444 2698 3147 
Q 3084 2850 3084 2256 
L 3084 750 
Q 3091 300 3219 53 
L 3219 0 
L 2306 0 
z
M 1559 628 
Q 1788 628 1948 729 
Q 2109 831 2178 953 
L 2178 1541 
L 1809 1541 
Q 1450 1541 1284 1389 
Q 1119 1238 1119 1016 
Q 1119 847 1236 737 
Q 1353 628 1559 628 
z
" transform="scale(0.015625)"/>
       <path id="Roboto-Bold-6e" d="M 1806 2713 
Q 1422 2713 1234 2388 
L 1234 0 
L 331 0 
L 331 3381 
L 1178 3381 
L 1209 2994 
Q 1572 3444 2181 3444 
Q 2659 3444 2953 3159 
Q 3247 2875 3250 2169 
L 3250 0 
L 2344 0 
L 2344 2156 
Q 2344 2481 2205 2597 
Q 2066 2713 1806 2713 
z
" transform="scale(0.015625)"/>
       <path id="Roboto-Bold-63" d="M 1753 666 
Q 2000 666 2159 802 
Q 2319 938 2322 1169 
L 3172 1169 
Q 3166 631 2761 284 
Q 2356 -63 1769 -63 
Q 984 -63 595 432 
Q 206 928 206 1647 
L 206 1734 
Q 206 2450 593 2947 
Q 981 3444 1766 3444 
Q 2388 3444 2777 3087 
Q 3166 2731 3172 2122 
L 2322 2122 
Q 2319 2369 2172 2542 
Q 2025 2716 1750 2716 
Q 1356 2716 1234 2420 
Q 1113 2125 1113 1647 
Q 1113 1256 1233 961 
Q 1353 666 1753 666 
z
" transform="scale(0.015625)"/>
       <path id="Roboto-Bold-5b" d="M 1728 5297 
L 1728 4600 
L 1281 4600 
L 1281 -366 
L 1728 -366 
L 1728 -1059 
L 375 -1059 
L 375 5297 
L 1728 5297 
z
" transform="scale(0.015625)"/>
       <path id="Roboto-Bold-c5" d="M 25 0 
L 1719 4550 
L 2588 4550 
L 4291 0 
L 3291 0 
L 2978 938 
L 1331 938 
L 1019 0 
L 25 0 
z
M 1584 1697 
L 2725 1697 
L 2156 3406 
L 1584 1697 
z
M 1471 5424 
Q 1471 5683 1668 5873 
Q 1865 6064 2168 6064 
Q 2468 6064 2666 5873 
Q 2865 5683 2865 5424 
Q 2865 5158 2666 4975 
Q 2468 4793 2168 4793 
Q 1865 4793 1668 4975 
Q 1471 5158 1471 5424 
z
M 1830 5423 
Q 1830 5286 1922 5187 
Q 2015 5089 2168 5089 
Q 2321 5089 2413 5187 
Q 2505 5286 2505 5423 
Q 2505 5561 2413 5662 
Q 2321 5764 2168 5764 
Q 2015 5764 1922 5662 
Q 1830 5561 1830 5423 
z
" transform="scale(0.015625)"/>
       <path id="Roboto-Bold-5d" d="M 41 4600 
L 41 5297 
L 1394 5297 
L 1394 -1059 
L 41 -1059 
L 41 -366 
L 491 -366 
L 491 4600 
L 41 4600 
z
" transform="scale(0.015625)"/>
      </defs>
      <use xlink:href="#Roboto-Bold-53"/>
      <use xlink:href="#Roboto-Bold-65" x="61.474609"/>
      <use xlink:href="#Roboto-Bold-72" x="115.527344"/>
      <use xlink:href="#Roboto-Bold-32" x="152.050781"/>
      <use xlink:href="#Roboto-Bold-30" x="209.423828"/>
      <use xlink:href="#Roboto-Bold-35" x="266.796875"/>
      <use xlink:href="#Roboto-Bold-20" x="324.169922"/>
      <use xlink:href="#Roboto-Bold-48" x="349.072266"/>
      <use xlink:href="#Roboto-Bold-47" x="419.775391"/>
      <use xlink:href="#Roboto-Bold-20" x="487.890625"/>
      <use xlink:href="#Roboto-Bold-2d" x="512.792969"/>
      <use xlink:href="#Roboto-Bold-20" x="551.611328"/>
      <use xlink:href="#Roboto-Bold-48" x="576.513672"/>
      <use xlink:href="#Roboto-Bold-32" x="647.216797"/>
      <use xlink:href="#Roboto-Bold-4f" x="704.589844"/>
      <use xlink:href="#Roboto-Bold-20" x="773.632812"/>
      <use xlink:href="#Roboto-Bold-4f" x="798.535156"/>
      <use xlink:href="#Roboto-Bold-20" x="867.578125"/>
      <use xlink:href="#Roboto-Bold-44" x="892.480469"/>
      <use xlink:href="#Roboto-Bold-69" x="957.519531"/>
      <use xlink:href="#Roboto-Bold-73" x="984.033203"/>
      <use xlink:href="#Roboto-Bold-74" x="1035.498047"/>
      <use xlink:href="#Roboto-Bold-61" x="1069.287109"/>
      <use xlink:href="#Roboto-Bold-6e" x="1122.900391"/>
      <use xlink:href="#Roboto-Bold-63" x="1178.90625"/>
      <use xlink:href="#Roboto-Bold-65" x="1231.103516"/>
      <use xlink:href="#Roboto-Bold-20" x="1285.15625"/>
      <use xlink:href="#Roboto-Bold-5b" x="1310.058594"/>
      <use xlink:href="#Roboto-Bold-c5" x="1337.890625"/>
      <use xlink:href="#Roboto-Bold-5d" x="1405.224609"/>
     </g>
    </g>
   </g>
   <g id="matplotlib.axis_2">
    <g id="ytick_1">
     <g id="line2d_11">
      <defs>
       <path id="m79915d8b45" d="M 0 0 
L -3.5 0 
" style="stroke: #c2c1c1; stroke-width: 0.8"/>
      </defs>
      <g>
       <use xlink:href="#m79915d8b45" x="36.704" y="179.8" style="fill: #c2c1c1; stroke: #c2c1c1; stroke-width: 0.8"/>
      </g>
     </g>
     <g id="text_9">
      <!-- −2 -->
      <g style="fill: #191919" transform="translate(20.634 182.8) scale(0.08 -0.08)">
       <defs>
        <path id="Roboto-Regular-2212" d="M 3134 2509 
L 3134 2034 
L 525 2034 
L 525 2509 
L 3134 2509 
z
" transform="scale(0.015625)"/>
       </defs>
       <use xlink:href="#Roboto-Regular-2212"/>
       <use xlink:href="#Roboto-Regular-32" x="57.177734"/>
      </g>
     </g>
    </g>
    <g id="ytick_2">
     <g id="line2d_12">
      <g>
       <use xlink:href="#m79915d8b45" x="36.704" y="146.1728" style="fill: #c2c1c1; stroke: #c2c1c1; stroke-width: 0.8"/>
      </g>
     </g>
     <g id="text_10">
      <!-- −1 -->
      <g style="fill: #191919" transform="translate(20.634 149.1728) scale(0.08 -0.08)">
       <use xlink:href="#Roboto-Regular-2212"/>
       <use xlink:href="#Roboto-Regular-31" x="57.177734"/>
      </g>
     </g>
    </g>
    <g id="ytick_3">
     <g id="line2d_13">
      <g>
       <use xlink:href="#m79915d8b45" x="36.704" y="112.5456" style="fill: #c2c1c1; stroke: #c2c1c1; stroke-width: 0.8"/>
      </g>
     </g>
     <g id="text_11">
      <!-- 0 -->
      <g style="fill: #191919" transform="translate(25.20775 115.5456) scale(0.08 -0.08)">
       <defs>
        <path id="Roboto-Regular-30" d="M 3234 1944 
Q 3234 825 2848 381 
Q 2463 -63 1800 -63 
Q 1156 -63 764 368 
Q 372 800 359 1872 
L 359 2638 
Q 359 3753 750 4183 
Q 1141 4613 1794 4613 
Q 2447 4613 2834 4195 
Q 3222 3778 3234 2709 
L 3234 1944 
z
M 2653 2734 
Q 2653 3503 2434 3822 
Q 2216 4141 1794 4141 
Q 1388 4141 1167 3831 
Q 947 3522 941 2778 
L 941 1850 
Q 941 1088 1164 750 
Q 1388 413 1800 413 
Q 2222 413 2436 745 
Q 2650 1078 2653 1825 
L 2653 2734 
z
" transform="scale(0.015625)"/>
       </defs>
       <use xlink:href="#Roboto-Regular-30"/>
      </g>
     </g>
    </g>
    <g id="ytick_4">
     <g id="line2d_14">
      <g>
       <use xlink:href="#m79915d8b45" x="36.704" y="78.9184" style="fill: #c2c1c1; stroke: #c2c1c1; stroke-width: 0.8"/>
      </g>
     </g>
     <g id="text_12">
      <!-- 1 -->
      <g style="fill: #191919" transform="translate(25.20775 81.9184) scale(0.08 -0.08)">
       <use xlink:href="#Roboto-Regular-31"/>
      </g>
     </g>
    </g>
    <g id="ytick_5">
     <g id="line2d_15">
      <g>
       <use xlink:href="#m79915d8b45" x="36.704" y="45.2912" style="fill: #c2c1c1; stroke: #c2c1c1; stroke-width: 0.8"/>
      </g>
     </g>
     <g id="text_13">
      <!-- 2 -->
      <g style="fill: #191919" transform="translate(25.20775 48.2912) scale(0.08 -0.08)">
       <use xlink:href="#Roboto-Regular-32"/>
      </g>
     </g>
    </g>
    <g id="ytick_6">
     <g id="line2d_16">
      <g>
       <use xlink:href="#m79915d8b45" x="36.704" y="11.664" style="fill: #c2c1c1; stroke: #c2c1c1; stroke-width: 0.8"/>
      </g>
     </g>
     <g id="text_14">
      <!-- 3 -->
      <g style="fill: #191919" transform="translate(25.20775 14.664) scale(0.08 -0.08)">
       <use xlink:href="#Roboto-Regular-33"/>
      </g>
     </g>
    </g>
    <g id="text_15">
     <!-- PMF [kcal/mol] -->
     <g style="fill: #191919" transform="translate(15.009 122.945125) rotate(-90) scale(0.08 -0.08)">
      <defs>
       <path id="Roboto-Bold-50" d="M 1347 1606 
L 1347 0 
L 406 0 
L 406 4550 
L 2184 4550 
Q 2991 4550 3442 4125 
Q 3894 3700 3894 3047 
Q 3894 2388 3442 1997 
Q 2991 1606 2184 1606 
L 1347 1606 
z
M 1347 3791 
L 1347 2363 
L 2184 2363 
Q 2588 2363 2766 2553 
Q 2944 2744 2944 3041 
Q 2944 3338 2766 3564 
Q 2588 3791 2184 3791 
L 1347 3791 
z
" transform="scale(0.015625)"/>
       <path id="Roboto-Bold-4d" d="M 2800 1250 
L 3966 4550 
L 5194 4550 
L 5194 0 
L 4253 0 
L 4253 1244 
L 4347 3381 
L 3122 0 
L 2478 0 
L 1253 3381 
L 1347 1244 
L 1347 0 
L 406 0 
L 406 4550 
L 1634 4550 
L 2800 1250 
z
" transform="scale(0.015625)"/>
       <path id="Roboto-Bold-46" d="M 406 0 
L 406 4550 
L 3372 4550 
L 3372 3791 
L 1347 3791 
L 1347 2616 
L 3147 2616 
L 3147 1859 
L 1347 1859 
L 1347 0 
L 406 0 
z
" transform="scale(0.015625)"/>
       <path id="Roboto-Bold-6b" d="M 2444 0 
L 1575 1356 
L 1253 1034 
L 1253 0 
L 350 0 
L 350 4803 
L 1253 4803 
L 1253 2144 
L 1428 2369 
L 2291 3381 
L 3375 3381 
L 2156 1975 
L 3484 0 
L 2444 0 
z
" transform="scale(0.015625)"/>
       <path id="Roboto-Bold-6c" d="M 1303 4800 
L 1303 0 
L 397 0 
L 397 4800 
L 1303 4800 
z
" transform="scale(0.015625)"/>
       <path id="Roboto-Bold-2f" d="M 2306 4550 
L 631 -391 
L -41 -391 
L 1634 4550 
L 2306 4550 
z
" transform="scale(0.015625)"/>
       <path id="Roboto-Bold-6d" d="M 1806 2713 
Q 1431 2713 1253 2394 
L 1253 0 
L 347 0 
L 347 3381 
L 1197 3381 
L 1228 3009 
Q 1581 3444 2197 3444 
Q 2850 3444 3094 2928 
Q 3441 3444 4109 3444 
Q 4597 3444 4894 3156 
Q 5191 2869 5194 2169 
L 5194 0 
L 4288 0 
L 4288 2156 
Q 4288 2494 4152 2603 
Q 4016 2713 3781 2713 
Q 3381 2713 3222 2334 
L 3222 0 
L 2319 0 
L 2319 2150 
Q 2319 2484 2181 2598 
Q 2044 2713 1806 2713 
z
" transform="scale(0.015625)"/>
       <path id="Roboto-Bold-6f" d="M 206 1722 
Q 206 2459 625 2951 
Q 1044 3444 1806 3444 
Q 2578 3444 2993 2951 
Q 3409 2459 3409 1722 
L 3409 1656 
Q 3409 919 2993 428 
Q 2578 -63 1813 -63 
Q 1053 -63 636 415 
Q 219 894 206 1616 
L 206 1722 
z
M 1113 1656 
Q 1113 1244 1270 955 
Q 1428 666 1813 666 
Q 2191 666 2348 953 
Q 2506 1241 2506 1722 
Q 2506 2125 2348 2420 
Q 2191 2716 1806 2716 
Q 1425 2716 1269 2422 
Q 1113 2128 1113 1656 
z
" transform="scale(0.015625)"/>
      </defs>
      <use xlink:href="#Roboto-Bold-50"/>
      <use xlink:href="#Roboto-Bold-4d" x="64.550781"/>
      <use xlink:href="#Roboto-Bold-46" x="152.148438"/>
      <use xlink:href="#Roboto-Bold-20" x="206.982422"/>
      <use xlink:href="#Roboto-Bold-5b" x="231.884766"/>
      <use xlink:href="#Roboto-Bold-6b" x="259.716797"/>
      <use xlink:href="#Roboto-Bold-63" x="313.134766"/>
      <use xlink:href="#Roboto-Bold-61" x="365.332031"/>
      <use xlink:href="#Roboto-Bold-6c" x="418.945312"/>
      <use xlink:href="#Roboto-Bold-2f" x="445.458984"/>
      <use xlink:href="#Roboto-Bold-6d" x="482.861328"/>
      <use xlink:href="#Roboto-Bold-6f" x="569.433594"/>
      <use xlink:href="#Roboto-Bold-6c" x="625.976562"/>
      <use xlink:href="#Roboto-Bold-5d" x="652.490234"/>
     </g>
    </g>
   </g>
   <g id="line2d_17">
    <path d="M 51.301052 -1 
L 52.410029 31.017247 
L 53.775771 64.202672 
L 55.141512 91.567479 
L 56.507254 113.592727 
L 57.872996 130.688103 
L 59.238737 143.401627 
L 59.921608 148.333483 
L 60.604479 152.426774 
L 61.28735 155.744577 
L 61.97022 158.336773 
L 62.653091 160.251295 
L 63.335962 161.540418 
L 64.018833 162.258087 
L 64.701704 162.455989 
L 65.384575 162.187894 
L 66.067445 161.519296 
L 66.750316 160.526597 
L 68.116058 157.811286 
L 69.4818 154.265226 
L 70.847541 149.999279 
L 72.896154 142.549948 
L 80.407733 112.992608 
L 82.456345 105.096062 
L 84.504958 98.359309 
L 85.870699 93.936032 
L 88.602183 84.567301 
L 89.967924 81.389598 
L 94.065149 72.899607 
L 96.113762 67.996538 
L 96.796633 67.054986 
L 97.479503 66.638297 
L 100.210987 66.24349 
L 100.893857 65.874115 
L 101.576728 65.346885 
L 102.94247 63.838156 
L 103.625341 63.077721 
L 104.308212 62.497848 
L 104.991082 62.128171 
L 106.356824 61.8439 
L 107.722566 61.609956 
L 108.405437 61.410754 
L 109.088307 61.370667 
L 109.771178 61.681932 
L 113.868403 65.379837 
L 114.551274 66.376545 
L 115.234145 67.783613 
L 117.282757 72.928745 
L 117.965628 74.261097 
L 118.648499 75.283913 
L 120.014241 76.756218 
L 120.697111 77.47205 
L 121.379982 78.364733 
L 122.062853 79.522963 
L 124.794336 85.104222 
L 126.160078 87.252212 
L 127.52582 89.158173 
L 128.891561 90.719941 
L 130.940174 92.80088 
L 132.305915 94.395068 
L 133.671657 95.597635 
L 135.037399 96.755495 
L 136.40314 98.506139 
L 137.768882 100.270283 
L 139.134624 101.586189 
L 140.500365 102.837972 
L 143.231849 105.574517 
L 144.59759 106.233418 
L 145.280461 106.541228 
L 146.646203 107.530807 
L 148.011944 108.70439 
L 149.377686 109.451756 
L 150.743428 110.025247 
L 151.426298 110.519064 
L 152.79204 112.029364 
L 154.840653 114.396441 
L 156.206394 115.638614 
L 157.572136 116.548861 
L 159.620748 117.34817 
L 161.669361 118.098898 
L 162.352232 118.16768 
L 163.035102 118.05665 
L 165.083715 117.251568 
L 166.449457 117.146036 
L 167.132327 117.095232 
L 167.815198 116.890681 
L 169.18094 116.045226 
L 170.546682 115.189038 
L 171.912423 114.623428 
L 173.961036 114.073115 
L 175.326777 113.308085 
L 176.692519 112.555895 
L 178.058261 112.038913 
L 178.741131 111.597576 
L 180.106873 110.262076 
L 186.25271 103.728209 
L 187.618452 102.803506 
L 188.984194 101.967716 
L 191.032806 100.229789 
L 193.081419 98.281064 
L 195.130031 96.11006 
L 196.495773 95.291036 
L 199.910127 93.741082 
L 201.275869 93.220392 
L 202.64161 92.873043 
L 203.324481 92.584464 
L 204.690223 91.585215 
L 206.055964 90.211088 
L 207.421706 88.432233 
L 208.787448 86.743527 
L 209.470318 86.323596 
L 210.153189 86.228973 
L 212.201802 86.462644 
L 212.884673 86.41715 
L 213.567543 86.248308 
L 214.250414 85.920462 
L 215.616156 85.034564 
L 216.299027 84.810831 
L 216.981898 84.908148 
L 219.03051 86.033897 
L 219.713381 86.13683 
L 220.396252 86.021277 
L 223.127735 85.054621 
L 224.493477 84.880922 
L 225.176347 84.946491 
L 227.22496 85.622041 
L 227.907831 85.586074 
L 228.590702 85.280207 
L 232.005056 82.822901 
L 233.370797 82.071549 
L 234.736539 81.016758 
L 236.102281 79.721932 
L 240.199506 75.432932 
L 240.882376 75.004098 
L 241.565247 74.835442 
L 242.930989 74.816575 
L 243.61386 74.615119 
L 244.979601 74.027443 
L 245.662472 73.998915 
L 248.393955 74.701644 
L 249.759697 74.406591 
L 251.80831 73.724613 
L 252.49118 73.884481 
L 253 74.35191 
L 253 74.35191 
" clip-path="url(#p793b6e9251)" style="fill: none; stroke: #f99752; stroke-width: 1.5; stroke-linecap: square"/>
   </g>
   <g id="patch_3">
    <path d="M 36.704 179.8 
L 36.704 11.664 
" style="fill: none; stroke: #c2c1c1; stroke-width: 0.8; stroke-linejoin: miter; stroke-linecap: square"/>
   </g>
   <g id="patch_4">
    <path d="M 241.11 179.8 
L 241.11 11.664 
" style="fill: none; stroke: #c2c1c1; stroke-width: 0.8; stroke-linejoin: miter; stroke-linecap: square"/>
   </g>
   <g id="patch_5">
    <path d="M 36.704 179.8 
L 241.11 179.8 
" style="fill: none; stroke: #c2c1c1; stroke-width: 0.8; stroke-linejoin: miter; stroke-linecap: square"/>
   </g>
   <g id="patch_6">
    <path d="M 36.704 11.664 
L 241.11 11.664 
" style="fill: none; stroke: #c2c1c1; stroke-width: 0.8; stroke-linejoin: miter; stroke-linecap: square"/>
   </g>
   <g id="legend_1">
    <g id="line2d_18">
     <path d="M 180.475 22.064 
L 188.475 22.064 
L 196.475 22.064 
" style="fill: none; stroke: #1e2e79; stroke-width: 1.5; stroke-linecap: square"/>
    </g>
    <g id="text_16">
     <!-- Reduced -->
     <g transform="translate(202.875 24.864) scale(0.08 -0.08)">
      <defs>
       <path id="Roboto-Regular-52" d="M 3188 0 
L 2200 1844 
L 1131 1844 
L 1131 0 
L 528 0 
L 528 4550 
L 2034 4550 
Q 2800 4550 3214 4200 
Q 3628 3850 3628 3184 
Q 3628 2759 3398 2442 
Q 3169 2125 2763 1969 
L 3831 38 
L 3831 0 
L 3188 0 
z
M 1131 4056 
L 1131 2334 
L 2053 2334 
Q 2538 2334 2783 2582 
Q 3028 2831 3028 3184 
Q 3028 3578 2792 3817 
Q 2556 4056 2034 4056 
L 1131 4056 
z
" transform="scale(0.015625)"/>
       <path id="Roboto-Regular-65" d="M 3116 591 
Q 2950 341 2647 139 
Q 2344 -63 1844 -63 
Q 1138 -63 714 396 
Q 291 856 291 1572 
L 291 1703 
Q 291 2256 502 2645 
Q 713 3034 1050 3239 
Q 1388 3444 1769 3444 
Q 2494 3444 2826 2970 
Q 3159 2497 3159 1788 
L 3159 1528 
L 872 1528 
Q 884 1063 1148 736 
Q 1413 409 1875 409 
Q 2181 409 2393 534 
Q 2606 659 2766 869 
L 3116 591 
z
M 1769 2969 
Q 1425 2969 1187 2719 
Q 950 2469 891 2000 
L 2581 2000 
L 2581 2044 
Q 2559 2381 2386 2675 
Q 2213 2969 1769 2969 
z
" transform="scale(0.015625)"/>
       <path id="Roboto-Regular-64" d="M 2622 0 
L 2594 363 
Q 2247 -63 1628 -63 
Q 1034 -63 668 418 
Q 303 900 297 1628 
L 297 1719 
Q 297 2494 664 2969 
Q 1031 3444 1634 3444 
Q 2231 3444 2572 3044 
L 2572 4800 
L 3153 4800 
L 3153 0 
L 2622 0 
z
M 878 1653 
Q 878 1150 1090 789 
Q 1303 428 1772 428 
Q 2309 428 2572 919 
L 2572 2475 
Q 2313 2956 1778 2956 
Q 1306 2956 1092 2589 
Q 878 2222 878 1719 
L 878 1653 
z
" transform="scale(0.015625)"/>
       <path id="Roboto-Regular-75" d="M 2538 0 
L 2525 334 
Q 2194 -63 1538 -63 
Q 1041 -63 734 231 
Q 428 525 428 1200 
L 428 3381 
L 1006 3381 
L 1006 1194 
Q 1006 738 1198 583 
Q 1391 428 1628 428 
Q 2281 428 2509 919 
L 2509 3381 
L 3091 3381 
L 3091 0 
L 2538 0 
z
" transform="scale(0.015625)"/>
       <path id="Roboto-Regular-63" d="M 1794 413 
Q 2103 413 2336 597 
Q 2569 781 2591 1069 
L 3141 1069 
Q 3119 616 2725 276 
Q 2331 -63 1794 -63 
Q 1031 -63 661 440 
Q 291 944 291 1625 
L 291 1756 
Q 291 2438 661 2941 
Q 1031 3444 1794 3444 
Q 2388 3444 2753 3092 
Q 3119 2741 3141 2219 
L 2591 2219 
Q 2569 2531 2355 2750 
Q 2141 2969 1794 2969 
Q 1438 2969 1236 2787 
Q 1034 2606 951 2328 
Q 869 2050 869 1756 
L 869 1625 
Q 869 1328 950 1050 
Q 1031 772 1232 592 
Q 1434 413 1794 413 
z
" transform="scale(0.015625)"/>
      </defs>
      <use xlink:href="#Roboto-Regular-52"/>
      <use xlink:href="#Roboto-Regular-65" x="61.621094"/>
      <use xlink:href="#Roboto-Regular-64" x="114.648438"/>
      <use xlink:href="#Roboto-Regular-75" x="171.044922"/>
      <use xlink:href="#Roboto-Regular-63" x="226.171875"/>
      <use xlink:href="#Roboto-Regular-65" x="278.515625"/>
      <use xlink:href="#Roboto-Regular-64" x="331.542969"/>
     </g>
    </g>
    <g id="line2d_19">
     <path d="M 180.475 33.689 
L 188.475 33.689 
L 196.475 33.689 
" style="fill: none; stroke: #ec4067; stroke-width: 1.5; stroke-linecap: square"/>
    </g>
    <g id="text_17">
     <!-- Oxidized -->
     <g transform="translate(202.875 36.489) scale(0.08 -0.08)">
      <defs>
       <path id="Roboto-Regular-4f" d="M 4031 2131 
Q 4031 1106 3534 521 
Q 3038 -63 2206 -63 
Q 1397 -63 884 521 
Q 372 1106 372 2131 
L 372 2419 
Q 372 3441 881 4027 
Q 1391 4613 2200 4613 
Q 3025 4613 3523 4036 
Q 4022 3459 4031 2456 
L 4031 2131 
z
M 3434 2425 
Q 3434 3238 3109 3669 
Q 2784 4100 2200 4100 
Q 1641 4100 1305 3669 
Q 969 3238 969 2425 
L 969 2131 
Q 969 1313 1308 880 
Q 1647 447 2206 447 
Q 2794 447 3114 880 
Q 3434 1313 3434 2131 
L 3434 2425 
z
" transform="scale(0.015625)"/>
       <path id="Roboto-Regular-78" d="M 831 3381 
L 1572 2150 
L 2322 3381 
L 3000 3381 
L 1894 1713 
L 3034 0 
L 2366 0 
L 1584 1269 
L 803 0 
L 131 0 
L 1269 1713 
L 166 3381 
L 831 3381 
z
" transform="scale(0.015625)"/>
       <path id="Roboto-Regular-69" d="M 444 4278 
Q 444 4419 530 4516 
Q 616 4613 784 4613 
Q 950 4613 1039 4516 
Q 1128 4419 1128 4278 
Q 1128 4144 1039 4048 
Q 950 3953 784 3953 
Q 616 3953 530 4048 
Q 444 4144 444 4278 
z
M 1069 3381 
L 1069 0 
L 488 0 
L 488 3381 
L 1069 3381 
z
" transform="scale(0.015625)"/>
       <path id="Roboto-Regular-7a" d="M 303 2903 
L 303 3381 
L 2869 3381 
L 2869 2972 
L 988 475 
L 2959 475 
L 2959 0 
L 278 0 
L 278 425 
L 2141 2903 
L 303 2903 
z
" transform="scale(0.015625)"/>
      </defs>
      <use xlink:href="#Roboto-Regular-4f"/>
      <use xlink:href="#Roboto-Regular-78" x="68.798828"/>
      <use xlink:href="#Roboto-Regular-69" x="118.408203"/>
      <use xlink:href="#Roboto-Regular-64" x="142.724609"/>
      <use xlink:href="#Roboto-Regular-69" x="199.121094"/>
      <use xlink:href="#Roboto-Regular-7a" x="223.4375"/>
      <use xlink:href="#Roboto-Regular-65" x="273.046875"/>
      <use xlink:href="#Roboto-Regular-64" x="326.074219"/>
     </g>
    </g>
    <g id="line2d_20">
     <path d="M 180.475 45.7315 
L 188.475 45.7315 
L 196.475 45.7315 
" style="fill: none; stroke: #f99752; stroke-width: 1.5; stroke-linecap: square"/>
    </g>
    <g id="text_18">
     <!-- Cu(I) -->
     <g transform="translate(202.875 48.5315) scale(0.08 -0.08)">
      <defs>
       <path id="Roboto-Regular-43" d="M 3275 1447 
L 3875 1447 
Q 3806 800 3387 368 
Q 2969 -63 2150 -63 
Q 1356 -63 870 504 
Q 384 1072 375 2013 
L 375 2500 
Q 375 3456 867 4034 
Q 1359 4613 2203 4613 
Q 2975 4613 3390 4188 
Q 3806 3763 3875 3091 
L 3275 3091 
Q 3206 3566 2968 3842 
Q 2731 4119 2203 4119 
Q 1600 4119 1287 3675 
Q 975 3231 975 2506 
L 975 2047 
Q 975 1375 1259 901 
Q 1544 428 2150 428 
Q 2725 428 2961 697 
Q 3197 966 3275 1447 
z
" transform="scale(0.015625)"/>
       <path id="Roboto-Regular-28" d="M 419 1850 
Q 419 2756 678 3434 
Q 938 4113 1294 4541 
Q 1650 4969 1947 5134 
L 2069 4753 
Q 1700 4475 1348 3761 
Q 997 3047 997 1813 
Q 997 625 1348 -97 
Q 1700 -819 2069 -1119 
L 1947 -1469 
Q 1650 -1306 1294 -878 
Q 938 -450 678 226 
Q 419 903 419 1850 
z
" transform="scale(0.015625)"/>
       <path id="Roboto-Regular-49" d="M 1175 4550 
L 1175 0 
L 572 0 
L 572 4550 
L 1175 4550 
z
" transform="scale(0.015625)"/>
       <path id="Roboto-Regular-29" d="M 1772 1819 
Q 1772 906 1512 228 
Q 1253 -450 895 -878 
Q 538 -1306 244 -1469 
L 122 -1119 
Q 488 -841 841 -109 
Q 1194 622 1194 1856 
Q 1194 2647 1019 3236 
Q 844 3825 594 4212 
Q 344 4600 122 4781 
L 244 5134 
Q 538 4969 895 4541 
Q 1253 4113 1512 3436 
Q 1772 2759 1772 1819 
z
" transform="scale(0.015625)"/>
      </defs>
      <use xlink:href="#Roboto-Regular-43"/>
      <use xlink:href="#Roboto-Regular-75" x="65.087891"/>
      <use xlink:href="#Roboto-Regular-28" x="120.214844"/>
      <use xlink:href="#Roboto-Regular-49" x="154.443359"/>
      <use xlink:href="#Roboto-Regular-29" x="181.640625"/>
     </g>
    </g>
   </g>
  </g>
 </g>
 <defs>
  <clipPath id="p793b6e9251">
   <rect x="36.704" y="11.664" width="204.406" height="168.136"/>
  </clipPath>
 </defs>
</svg>
