<?xml version="1.0" encoding="utf-8" standalone="no"?>
<!DOCTYPE svg PUBLIC "-//W3C//DTD SVG 1.1//EN"
  "http://www.w3.org/Graphics/SVG/1.1/DTD/svg11.dtd">
<svg xmlns:xlink="http://www.w3.org/1999/xlink" width="460.8pt" height="345.6pt" viewBox="0 0 460.8 345.6" xmlns="http://www.w3.org/2000/svg" version="1.1">
 <metadata>
  <rdf:RDF xmlns:dc="http://purl.org/dc/elements/1.1/" xmlns:cc="http://creativecommons.org/ns#" xmlns:rdf="http://www.w3.org/1999/02/22-rdf-syntax-ns#">
   <cc:Work>
    <dc:type rdf:resource="http://purl.org/dc/dcmitype/StillImage"/>
    <dc:date>2024-07-22T23:50:30.121614</dc:date>
    <dc:format>image/svg+xml</dc:format>
    <dc:creator>
     <cc:Agent>
      <dc:title>Matplotlib v3.9.1, https://matplotlib.org/</dc:title>
     </cc:Agent>
    </dc:creator>
   </cc:Work>
  </rdf:RDF>
 </metadata>
 <defs>
  <style type="text/css">*{stroke-linejoin: round; stroke-linecap: butt}</style>
 </defs>
 <g id="figure_1">
  <g id="patch_1">
   <path d="M 0 345.6 
L 460.8 345.6 
L 460.8 0 
L 0 0 
z
" style="fill: #ffffff"/>
  </g>
  <g id="axes_1">
   <g id="patch_2">
    <path d="M 47.243 298.6 
L 445.032 298.6 
L 445.032 16.74 
L 47.243 16.74 
z
" style="fill: #ffffff"/>
   </g>
   <g id="line2d_1">
    <path d="M 47.243 185.856 
L 445.032 185.856 
" clip-path="url(#pae893cb2f6)" style="fill: none; stroke-dasharray: 1.75,2.8875; stroke-dashoffset: 0; stroke: #c0c0c0; stroke-width: 1.75"/>
   </g>
   <g id="line2d_2">
    <path d="M 78.336994 -1 
L 79.136996 18.535335 
L 81.794829 75.723022 
L 83.123745 100.958655 
L 84.452661 123.566771 
L 85.781578 143.452431 
L 87.110494 160.755577 
L 88.439411 175.724691 
L 89.768327 188.632441 
L 91.097244 199.731937 
L 92.42616 209.216982 
L 93.755077 217.206304 
L 95.083993 223.777981 
L 96.41291 229.009011 
L 97.741826 232.982784 
L 99.070743 235.80108 
L 100.399659 237.607165 
L 101.728576 238.564756 
L 103.057492 238.800514 
L 104.386409 238.386774 
L 105.715325 237.378416 
L 107.044242 235.844848 
L 108.373158 233.869707 
L 109.702075 231.534541 
L 111.030991 228.897854 
L 113.688824 222.827386 
L 116.346657 215.782727 
L 119.00449 207.661335 
L 125.649072 185.168272 
L 133.622571 157.826032 
L 137.609321 143.721205 
L 138.938237 139.46757 
L 140.267154 135.677533 
L 141.59607 132.410217 
L 144.253903 126.469442 
L 146.911736 119.361006 
L 153.556318 101.518699 
L 154.885235 98.442661 
L 158.871984 91.204957 
L 161.529817 84.951568 
L 162.858734 82.409258 
L 165.516567 78.54997 
L 166.845483 76.11563 
L 169.503316 70.096025 
L 172.161149 63.893792 
L 173.490066 61.091829 
L 174.818982 59.424277 
L 176.147899 59.293058 
L 177.476815 59.849035 
L 178.805732 59.940278 
L 180.134648 59.211378 
L 182.792481 57.034207 
L 184.121398 56.557512 
L 186.779231 56.591849 
L 188.108147 56.22281 
L 189.437063 55.649419 
L 190.76598 55.602448 
L 192.094896 56.782815 
L 193.423813 59.160181 
L 194.752729 61.825617 
L 196.081646 63.610607 
L 197.410562 63.813102 
L 198.739479 62.600361 
L 200.068395 61.031869 
L 201.397312 60.469218 
L 202.726228 61.585599 
L 204.055145 63.973134 
L 205.384061 66.613905 
L 206.712978 68.620298 
L 208.041894 69.839117 
L 209.370811 70.851917 
L 212.028644 73.429453 
L 213.35756 74.123632 
L 216.015393 74.425704 
L 217.34431 75.373885 
L 218.673226 77.314513 
L 220.002143 80.063085 
L 222.659976 86.31547 
L 223.988892 88.868656 
L 225.317808 90.637565 
L 226.646725 91.753598 
L 230.633474 94.223607 
L 233.291307 95.66199 
L 234.620224 96.953054 
L 238.606973 102.690489 
L 241.264806 106.813225 
L 242.593723 108.214392 
L 243.922639 108.684911 
L 245.251556 108.946554 
L 246.580472 109.839176 
L 247.909389 111.244162 
L 249.238305 112.445249 
L 250.567222 113.111939 
L 251.896138 113.514603 
L 253.225055 114.115773 
L 254.553971 115.181774 
L 255.882888 116.681963 
L 258.54072 119.920935 
L 259.869637 121.157764 
L 263.856386 124.044908 
L 269.172052 129.19585 
L 270.500969 130.461928 
L 274.487718 134.755588 
L 275.816635 136.043985 
L 277.145551 137.54867 
L 281.132301 142.663324 
L 283.790134 145.662039 
L 285.11905 147.608785 
L 289.1058 154.859422 
L 290.434716 156.730426 
L 294.421465 161.812384 
L 297.079298 165.630602 
L 299.737131 169.494729 
L 302.394964 172.832879 
L 305.052797 175.94256 
L 307.71063 178.76928 
L 309.039547 179.939628 
L 310.368463 180.818701 
L 313.026296 182.094701 
L 314.355213 182.908885 
L 317.013046 184.82652 
L 318.341962 185.511581 
L 319.670879 185.856165 
L 320.999795 185.852347 
L 322.328712 185.560244 
L 324.986545 184.592057 
L 330.30221 182.501371 
L 331.631127 181.821852 
L 332.960043 180.896248 
L 334.28896 179.717424 
L 338.275709 175.534704 
L 342.262459 171.216025 
L 344.920292 167.84382 
L 348.907041 161.954873 
L 351.564874 157.94353 
L 355.551624 152.420286 
L 360.86729 143.534051 
L 363.525122 139.629423 
L 371.498621 127.349049 
L 374.156454 123.780507 
L 375.485371 121.67313 
L 378.143204 116.506477 
L 379.47212 113.826109 
L 380.801037 111.463827 
L 382.129953 109.650355 
L 383.45887 108.450948 
L 384.787786 107.774467 
L 386.116703 107.300102 
L 387.445619 106.471962 
L 388.774536 104.893985 
L 390.103452 102.80724 
L 391.432369 100.958306 
L 392.761285 99.800845 
L 394.090202 99.025373 
L 395.419118 98.079407 
L 398.076951 95.710992 
L 399.405867 94.911191 
L 400.734784 94.416205 
L 402.0637 94.111105 
L 403.392617 94.021173 
L 404.721533 94.218625 
L 407.379366 95.130178 
L 408.708283 95.284771 
L 410.037199 94.922416 
L 411.366116 94.176665 
L 414.023949 92.291938 
L 416.681782 90.099452 
L 418.010698 89.425929 
L 419.339615 89.079101 
L 420.668531 88.939486 
L 421.997448 89.220251 
L 423.326364 90.140736 
L 424.655281 91.400598 
L 425.984197 92.458218 
L 427.313114 93.07081 
L 428.64203 93.278719 
L 429.970947 93.244869 
L 431.299863 93.336045 
L 432.62878 93.949312 
L 433.957696 94.961899 
L 435.286612 95.741007 
L 436.615529 95.949559 
L 437.944445 95.998671 
L 439.273362 96.51124 
L 440.602278 97.648569 
L 445.917944 103.696869 
L 447.246861 104.723986 
L 448.575777 105.200542 
L 449.904694 104.803815 
L 452.562527 102.344669 
L 453.891443 101.672847 
L 455.22036 101.958347 
L 456.549276 102.877909 
L 457.878193 103.64427 
L 459.207109 103.707818 
L 460.536026 103.299818 
L 461.8 103.12697 
L 461.8 103.12697 
" clip-path="url(#pae893cb2f6)" style="fill: none; stroke: #1e2e79; stroke-width: 2.5; stroke-linecap: square"/>
   </g>
   <g id="line2d_3">
    <path d="M 79.44532 -1 
L 80.465912 29.808167 
L 81.794829 63.502497 
L 83.123745 92.431919 
L 84.452661 116.707799 
L 85.781578 137.33685 
L 88.439411 173.365132 
L 89.768327 188.635239 
L 91.097244 201.868336 
L 92.42616 213.240605 
L 93.755077 222.638138 
L 95.083993 230.081253 
L 96.41291 236.12854 
L 97.741826 241.243781 
L 99.070743 245.303621 
L 100.399659 248.091177 
L 101.728576 249.724564 
L 103.057492 250.581146 
L 104.386409 250.971856 
L 105.715325 250.87329 
L 107.044242 250.201127 
L 108.373158 249.022584 
L 109.702075 247.388073 
L 111.030991 245.327351 
L 113.688824 240.485186 
L 115.017741 237.621767 
L 117.675573 230.709839 
L 120.333406 223.575547 
L 122.991239 216.8352 
L 126.977989 205.734144 
L 129.635822 199.376728 
L 133.622571 189.184338 
L 137.609321 178.17763 
L 140.267154 171.795054 
L 141.59607 168.962792 
L 144.253903 164.256665 
L 145.58282 160.922176 
L 148.240653 151.279484 
L 149.569569 147.459937 
L 150.898486 144.635771 
L 152.227402 142.527369 
L 153.556318 141.390998 
L 154.885235 139.987584 
L 156.214151 136.97287 
L 157.543068 132.998188 
L 158.871984 130.026768 
L 160.200901 128.431392 
L 161.529817 127.315165 
L 162.858734 126.775898 
L 164.18765 125.971574 
L 165.516567 122.79982 
L 166.845483 118.137973 
L 168.1744 115.025348 
L 170.832233 112.112221 
L 173.490066 107.875522 
L 174.818982 106.899561 
L 176.147899 106.305306 
L 177.476815 104.544903 
L 180.134648 98.009063 
L 181.463565 95.646027 
L 185.450314 90.547128 
L 186.779231 89.262394 
L 188.108147 87.439453 
L 189.437063 86.258309 
L 190.76598 86.812003 
L 192.094896 86.732552 
L 193.423813 84.094766 
L 196.081646 74.950323 
L 197.410562 72.116545 
L 198.739479 70.028015 
L 200.068395 67.359504 
L 201.397312 65.478772 
L 202.726228 66.143638 
L 204.055145 68.16651 
L 205.384061 69.725369 
L 206.712978 70.656732 
L 208.041894 71.351483 
L 209.370811 72.50654 
L 210.699727 74.600581 
L 212.028644 75.463105 
L 213.35756 73.107818 
L 214.686477 69.618362 
L 216.015393 68.134676 
L 217.34431 69.679789 
L 218.673226 72.353939 
L 220.002143 73.633827 
L 221.331059 75.081304 
L 222.659976 78.062969 
L 223.988892 80.454491 
L 225.317808 80.234905 
L 226.646725 78.309221 
L 227.975641 77.756264 
L 229.304558 78.458603 
L 230.633474 78.664879 
L 231.962391 79.055897 
L 233.291307 82.03627 
L 234.620224 87.49137 
L 235.94914 91.400922 
L 237.278057 91.287945 
L 238.606973 87.996472 
L 239.93589 83.430406 
L 241.264806 78.359848 
L 242.593723 74.368117 
L 243.922639 74.315549 
L 249.238305 84.033661 
L 250.567222 85.873981 
L 251.896138 86.664886 
L 253.225055 86.676335 
L 254.553971 88.341714 
L 255.882888 91.734261 
L 257.211804 94.234812 
L 258.54072 95.604798 
L 259.869637 97.824402 
L 261.198553 100.787916 
L 262.52747 101.772723 
L 263.856386 99.568363 
L 265.185303 96.848765 
L 266.514219 97.753865 
L 267.843136 101.618803 
L 269.172052 104.899747 
L 270.500969 107.094897 
L 271.829885 109.738808 
L 274.487718 116.299131 
L 277.145551 121.729859 
L 279.803384 127.799063 
L 281.132301 130.306619 
L 283.790134 133.080329 
L 285.11905 135.796747 
L 287.776883 142.702447 
L 289.1058 145.639969 
L 293.092549 152.594342 
L 294.421465 155.478424 
L 295.750382 158.068222 
L 305.052797 172.404901 
L 306.381714 173.796405 
L 307.71063 174.89219 
L 309.039547 176.153515 
L 311.69738 179.548895 
L 313.026296 180.487912 
L 314.355213 181.024554 
L 315.684129 181.839864 
L 317.013046 183.089416 
L 318.341962 184.543559 
L 319.670879 185.825837 
L 320.999795 186.521917 
L 323.657628 186.940852 
L 324.986545 187.383203 
L 326.315461 188.002783 
L 327.644378 188.49704 
L 330.30221 188.891688 
L 331.631127 188.953566 
L 332.960043 188.577216 
L 335.617876 187.178917 
L 336.946793 186.705004 
L 339.604626 186.430192 
L 342.262459 184.982186 
L 344.920292 184.977339 
L 346.249208 184.218646 
L 351.564874 178.883362 
L 354.222707 176.768174 
L 356.88054 173.920172 
L 358.209457 172.360306 
L 362.196206 168.145677 
L 364.854039 165.134972 
L 366.182955 163.063796 
L 367.511872 160.66173 
L 368.840788 158.773862 
L 370.169705 157.597212 
L 371.498621 156.869481 
L 372.827538 155.94109 
L 374.156454 154.335721 
L 378.143204 148.82973 
L 379.47212 146.734979 
L 380.801037 144.896103 
L 382.129953 143.78677 
L 383.45887 142.900981 
L 384.787786 141.045906 
L 386.116703 138.215668 
L 387.445619 136.101726 
L 388.774536 135.705898 
L 390.103452 136.075842 
L 391.432369 135.779513 
L 392.761285 134.608718 
L 394.090202 133.278721 
L 395.419118 132.124501 
L 398.076951 130.367823 
L 402.0637 126.011611 
L 403.392617 124.450827 
L 404.721533 123.594004 
L 406.05045 123.243267 
L 407.379366 122.736123 
L 408.708283 121.922376 
L 410.037199 120.798275 
L 411.366116 119.417955 
L 414.023949 115.765603 
L 415.352865 115.265364 
L 418.010698 117.560274 
L 419.339615 116.286673 
L 423.326364 105.800822 
L 424.655281 103.619828 
L 425.984197 103.073756 
L 427.313114 103.039198 
L 429.970947 100.83106 
L 431.299863 100.948633 
L 432.62878 102.843471 
L 433.957696 105.583689 
L 435.286612 107.572456 
L 436.615529 107.878075 
L 437.944445 106.298084 
L 439.273362 102.9012 
L 440.602278 98.59474 
L 441.931195 96.602244 
L 444.589028 99.957034 
L 445.917944 99.176076 
L 447.246861 96.860702 
L 448.575777 94.001341 
L 449.904694 91.827347 
L 451.23361 91.88598 
L 452.562527 93.306958 
L 453.891443 93.394103 
L 455.22036 90.844465 
L 456.549276 85.935936 
L 457.878193 80.106271 
L 459.207109 77.810754 
L 460.536026 80.150234 
L 461.8 82.771763 
L 461.8 82.771763 
" clip-path="url(#pae893cb2f6)" style="fill: none; stroke: #ec4067; stroke-width: 2.5; stroke-linecap: square"/>
   </g>
   <g id="matplotlib.axis_1">
    <g id="xtick_1">
     <g id="line2d_4">
      <defs>
       <path id="me45380ddfc" d="M 0 0 
L 0 3.5 
" style="stroke: #c2c1c1; stroke-width: 0.8"/>
      </defs>
      <g>
       <use xlink:href="#me45380ddfc" x="47.243" y="298.6" style="fill: #c2c1c1; stroke: #c2c1c1; stroke-width: 0.8"/>
      </g>
     </g>
     <g id="text_1">
      <!-- 1 -->
      <g style="fill: #191919" transform="translate(44.432844 313.1) scale(0.1 -0.1)">
       <defs>
        <path id="Roboto-Regular-31" d="M 2278 4575 
L 2278 0 
L 1700 0 
L 1700 3853 
L 534 3428 
L 534 3950 
L 2188 4575 
L 2278 4575 
z
" transform="scale(0.015625)"/>
       </defs>
       <use xlink:href="#Roboto-Regular-31"/>
      </g>
     </g>
    </g>
    <g id="xtick_2">
     <g id="line2d_5">
      <g>
       <use xlink:href="#me45380ddfc" x="113.541167" y="298.6" style="fill: #c2c1c1; stroke: #c2c1c1; stroke-width: 0.8"/>
      </g>
     </g>
     <g id="text_2">
      <!-- 2 -->
      <g style="fill: #191919" transform="translate(110.73101 313.1) scale(0.1 -0.1)">
       <defs>
        <path id="Roboto-Regular-32" d="M 3359 475 
L 3359 0 
L 381 0 
L 381 416 
L 1925 2134 
Q 2306 2566 2439 2819 
Q 2572 3072 2572 3328 
Q 2572 3663 2364 3900 
Q 2156 4138 1778 4138 
Q 1322 4138 1097 3878 
Q 872 3619 872 3213 
L 294 3213 
Q 294 3788 672 4200 
Q 1050 4613 1778 4613 
Q 2422 4613 2786 4278 
Q 3150 3944 3150 3397 
Q 3150 2997 2903 2592 
Q 2656 2188 2297 1797 
L 1078 475 
L 3359 475 
z
" transform="scale(0.015625)"/>
       </defs>
       <use xlink:href="#Roboto-Regular-32"/>
      </g>
     </g>
    </g>
    <g id="xtick_3">
     <g id="line2d_6">
      <g>
       <use xlink:href="#me45380ddfc" x="179.839333" y="298.6" style="fill: #c2c1c1; stroke: #c2c1c1; stroke-width: 0.8"/>
      </g>
     </g>
     <g id="text_3">
      <!-- 3 -->
      <g style="fill: #191919" transform="translate(177.029177 313.1) scale(0.1 -0.1)">
       <defs>
        <path id="Roboto-Regular-33" d="M 1222 2084 
L 1222 2559 
L 1647 2559 
Q 2094 2563 2312 2784 
Q 2531 3006 2531 3338 
Q 2531 4138 1738 4138 
Q 1369 4138 1141 3927 
Q 913 3716 913 3359 
L 334 3359 
Q 334 3881 720 4247 
Q 1106 4613 1738 4613 
Q 2353 4613 2733 4286 
Q 3113 3959 3113 3325 
Q 3113 3072 2942 2784 
Q 2772 2497 2397 2338 
Q 2850 2191 3015 1884 
Q 3181 1578 3181 1269 
Q 3181 631 2768 284 
Q 2356 -63 1741 -63 
Q 1147 -63 722 267 
Q 297 597 297 1203 
L 875 1203 
Q 875 844 1108 628 
Q 1341 413 1741 413 
Q 2138 413 2369 622 
Q 2600 831 2600 1256 
Q 2600 1681 2337 1882 
Q 2075 2084 1634 2084 
L 1222 2084 
z
" transform="scale(0.015625)"/>
       </defs>
       <use xlink:href="#Roboto-Regular-33"/>
      </g>
     </g>
    </g>
    <g id="xtick_4">
     <g id="line2d_7">
      <g>
       <use xlink:href="#me45380ddfc" x="246.1375" y="298.6" style="fill: #c2c1c1; stroke: #c2c1c1; stroke-width: 0.8"/>
      </g>
     </g>
     <g id="text_4">
      <!-- 4 -->
      <g style="fill: #191919" transform="translate(243.327344 313.1) scale(0.1 -0.1)">
       <defs>
        <path id="Roboto-Regular-34" d="M 166 1397 
L 2203 4550 
L 2819 4550 
L 2819 1531 
L 3453 1531 
L 3453 1056 
L 2819 1056 
L 2819 0 
L 2241 0 
L 2241 1056 
L 166 1056 
L 166 1397 
z
M 822 1531 
L 2241 1531 
L 2241 3766 
L 2169 3638 
L 822 1531 
z
" transform="scale(0.015625)"/>
       </defs>
       <use xlink:href="#Roboto-Regular-34"/>
      </g>
     </g>
    </g>
    <g id="xtick_5">
     <g id="line2d_8">
      <g>
       <use xlink:href="#me45380ddfc" x="312.435667" y="298.6" style="fill: #c2c1c1; stroke: #c2c1c1; stroke-width: 0.8"/>
      </g>
     </g>
     <g id="text_5">
      <!-- 5 -->
      <g style="fill: #191919" transform="translate(309.62551 313.1) scale(0.1 -0.1)">
       <defs>
        <path id="Roboto-Regular-35" d="M 1109 2166 
L 647 2284 
L 875 4550 
L 3209 4550 
L 3209 4016 
L 1366 4016 
L 1228 2778 
Q 1572 2975 1988 2975 
Q 2616 2975 2980 2561 
Q 3344 2147 3344 1450 
Q 3344 797 2987 367 
Q 2631 -63 1903 -63 
Q 1350 -63 947 248 
Q 544 559 481 1197 
L 1031 1197 
Q 1141 413 1903 413 
Q 2313 413 2538 691 
Q 2763 969 2763 1444 
Q 2763 1872 2527 2164 
Q 2291 2456 1853 2456 
Q 1563 2456 1413 2378 
Q 1263 2300 1109 2166 
z
" transform="scale(0.015625)"/>
       </defs>
       <use xlink:href="#Roboto-Regular-35"/>
      </g>
     </g>
    </g>
    <g id="xtick_6">
     <g id="line2d_9">
      <g>
       <use xlink:href="#me45380ddfc" x="378.733833" y="298.6" style="fill: #c2c1c1; stroke: #c2c1c1; stroke-width: 0.8"/>
      </g>
     </g>
     <g id="text_6">
      <!-- 6 -->
      <g style="fill: #191919" transform="translate(375.923677 313.1) scale(0.1 -0.1)">
       <defs>
        <path id="Roboto-Regular-36" d="M 3291 1484 
Q 3291 838 2930 387 
Q 2569 -63 1878 -63 
Q 1388 -63 1063 198 
Q 738 459 577 861 
Q 416 1263 416 1684 
L 416 1956 
Q 416 2597 595 3194 
Q 775 3791 1247 4173 
Q 1719 4556 2597 4556 
L 2647 4556 
L 2647 4066 
Q 2041 4066 1705 3853 
Q 1369 3641 1205 3302 
Q 1041 2963 1006 2575 
Q 1369 2984 1984 2984 
Q 2438 2984 2727 2765 
Q 3016 2547 3153 2201 
Q 3291 1856 3291 1484 
z
M 997 1666 
Q 997 1059 1267 737 
Q 1538 416 1878 416 
Q 2278 416 2498 708 
Q 2719 1000 2719 1456 
Q 2719 1863 2516 2184 
Q 2313 2506 1891 2506 
Q 1588 2506 1341 2325 
Q 1094 2144 997 1884 
L 997 1666 
z
" transform="scale(0.015625)"/>
       </defs>
       <use xlink:href="#Roboto-Regular-36"/>
      </g>
     </g>
    </g>
    <g id="xtick_7">
     <g id="line2d_10">
      <g>
       <use xlink:href="#me45380ddfc" x="445.032" y="298.6" style="fill: #c2c1c1; stroke: #c2c1c1; stroke-width: 0.8"/>
      </g>
     </g>
     <g id="text_7">
      <!-- 7 -->
      <g style="fill: #191919" transform="translate(442.221844 313.1) scale(0.1 -0.1)">
       <defs>
        <path id="Roboto-Regular-37" d="M 3319 4550 
L 3319 4225 
L 1434 0 
L 825 0 
L 2706 4075 
L 244 4075 
L 244 4550 
L 3319 4550 
z
" transform="scale(0.015625)"/>
       </defs>
       <use xlink:href="#Roboto-Regular-37"/>
      </g>
     </g>
    </g>
    <g id="text_8">
     <!-- Ser205 HG - H2O O Distance [Å] -->
     <g style="fill: #191919" transform="translate(160.152813 330.049375) scale(0.12 -0.12)">
      <defs>
       <path id="Roboto-Bold-53" d="M 2769 1194 
Q 2769 1422 2612 1573 
Q 2456 1725 1854 1920 
Q 1253 2116 816 2425 
Q 356 2747 356 3341 
Q 356 3913 828 4263 
Q 1300 4613 2038 4613 
Q 2794 4613 3250 4217 
Q 3706 3822 3706 3209 
L 2769 3209 
Q 2769 3497 2584 3681 
Q 2400 3866 2022 3866 
Q 1653 3866 1473 3711 
Q 1294 3556 1294 3338 
Q 1294 3113 1525 2963 
Q 1756 2813 2197 2678 
Q 2944 2450 3326 2106 
Q 3709 1763 3709 1200 
Q 3709 603 3259 270 
Q 2809 -63 2059 -63 
Q 1606 -63 1184 96 
Q 763 256 491 587 
Q 219 919 219 1434 
L 1159 1434 
Q 1159 1019 1407 850 
Q 1656 681 2059 681 
Q 2422 681 2595 828 
Q 2769 975 2769 1194 
z
" transform="scale(0.015625)"/>
       <path id="Roboto-Bold-65" d="M 3225 550 
Q 3063 319 2731 128 
Q 2400 -63 1906 -63 
Q 1119 -63 675 414 
Q 231 891 228 1566 
L 228 1697 
Q 228 2463 654 2953 
Q 1081 3444 1806 3444 
Q 2534 3444 2915 2987 
Q 3297 2531 3297 1781 
L 3297 1397 
L 1144 1397 
Q 1191 1069 1403 867 
Q 1616 666 1963 666 
Q 2478 666 2778 1044 
L 3225 550 
z
M 1800 2716 
Q 1513 2716 1356 2522 
Q 1200 2328 1153 2016 
L 2409 2016 
L 2409 2084 
Q 2403 2356 2258 2536 
Q 2113 2716 1800 2716 
z
" transform="scale(0.015625)"/>
       <path id="Roboto-Bold-72" d="M 1922 2563 
Q 1413 2563 1253 2216 
L 1253 0 
L 347 0 
L 347 3381 
L 1200 3381 
L 1228 2978 
Q 1494 3444 1981 3444 
Q 2153 3444 2259 3403 
L 2250 2538 
L 1922 2563 
z
" transform="scale(0.015625)"/>
       <path id="Roboto-Bold-32" d="M 3428 728 
L 3428 0 
L 313 0 
L 313 619 
L 1784 2188 
Q 2116 2553 2245 2792 
Q 2375 3031 2375 3234 
Q 2375 3538 2223 3713 
Q 2072 3888 1788 3888 
Q 1466 3888 1295 3669 
Q 1125 3450 1125 3119 
L 222 3119 
Q 222 3734 645 4175 
Q 1069 4616 1803 4616 
Q 2519 4616 2900 4270 
Q 3281 3925 3281 3325 
Q 3281 2875 3014 2470 
Q 2747 2066 2284 1581 
L 1472 728 
L 3428 728 
z
" transform="scale(0.015625)"/>
       <path id="Roboto-Bold-30" d="M 3372 1884 
Q 3372 856 2950 396 
Q 2528 -63 1840 -63 
Q 1153 -63 726 396 
Q 300 856 300 1884 
L 300 2675 
Q 300 3700 723 4156 
Q 1147 4613 1834 4613 
Q 2519 4613 2944 4159 
Q 3369 3706 3372 2691 
L 3372 1884 
z
M 2469 2800 
Q 2469 3406 2303 3645 
Q 2138 3884 1834 3884 
Q 1538 3884 1372 3650 
Q 1206 3416 1203 2825 
L 1203 1763 
Q 1203 1153 1370 909 
Q 1538 666 1841 666 
Q 2138 666 2302 905 
Q 2466 1144 2469 1738 
L 2469 2800 
z
" transform="scale(0.015625)"/>
       <path id="Roboto-Bold-35" d="M 1166 2063 
L 447 2238 
L 706 4550 
L 3256 4550 
L 3256 3800 
L 1450 3800 
L 1338 2819 
Q 1650 2991 2019 2991 
Q 2681 2991 3043 2587 
Q 3406 2184 3406 1463 
Q 3406 856 3031 396 
Q 2656 -63 1872 -63 
Q 1281 -63 814 287 
Q 347 638 331 1269 
L 1225 1269 
Q 1284 666 1866 666 
Q 2206 666 2354 911 
Q 2503 1156 2503 1513 
Q 2503 1872 2325 2092 
Q 2147 2313 1772 2313 
Q 1525 2313 1390 2233 
Q 1256 2153 1166 2063 
z
" transform="scale(0.015625)"/>
       <path id="Roboto-Bold-20" transform="scale(0.015625)"/>
       <path id="Roboto-Bold-48" d="M 3175 0 
L 3175 1950 
L 1347 1950 
L 1347 0 
L 406 0 
L 406 4550 
L 1347 4550 
L 1347 2706 
L 3175 2706 
L 3175 4550 
L 4113 4550 
L 4113 0 
L 3175 0 
z
" transform="scale(0.015625)"/>
       <path id="Roboto-Bold-47" d="M 4009 2391 
L 4009 575 
Q 3847 381 3433 159 
Q 3019 -63 2269 -63 
Q 1384 -63 839 510 
Q 294 1084 294 2138 
L 294 2409 
Q 294 3463 816 4039 
Q 1338 4616 2203 4616 
Q 3088 4616 3509 4191 
Q 3931 3766 4006 3103 
L 3094 3103 
Q 3041 3447 2847 3653 
Q 2653 3859 2228 3859 
Q 1306 3859 1250 2584 
L 1247 2138 
Q 1247 1419 1514 1056 
Q 1781 694 2319 694 
Q 2656 694 2825 770 
Q 2994 847 3069 919 
L 3069 1703 
L 2219 1703 
L 2219 2391 
L 4009 2391 
z
" transform="scale(0.015625)"/>
       <path id="Roboto-Bold-2d" d="M 2103 2316 
L 2103 1584 
L 347 1584 
L 347 2316 
L 2103 2316 
z
" transform="scale(0.015625)"/>
       <path id="Roboto-Bold-4f" d="M 4147 2172 
Q 4147 1131 3608 534 
Q 3069 -63 2212 -63 
Q 1356 -63 812 534 
Q 269 1131 269 2172 
L 269 2375 
Q 269 3416 809 4014 
Q 1350 4613 2206 4613 
Q 3063 4613 3605 4014 
Q 4147 3416 4147 2375 
L 4147 2172 
z
M 3197 2381 
Q 3197 3094 2937 3466 
Q 2678 3838 2206 3838 
Q 1734 3838 1478 3470 
Q 1222 3103 1219 2397 
L 1219 2172 
Q 1219 1463 1478 1086 
Q 1738 709 2213 709 
Q 2684 709 2939 1081 
Q 3194 1453 3197 2156 
L 3197 2381 
z
" transform="scale(0.015625)"/>
       <path id="Roboto-Bold-44" d="M 406 0 
L 406 4550 
L 1809 4550 
Q 2728 4550 3308 3950 
Q 3888 3350 3888 2375 
L 3888 2172 
Q 3888 1197 3308 598 
Q 2728 0 1797 0 
L 406 0 
z
M 1347 3791 
L 1347 756 
L 1797 756 
Q 2350 756 2639 1115 
Q 2928 1475 2934 2144 
L 2934 2381 
Q 2934 3075 2661 3428 
Q 2388 3781 1838 3791 
L 1347 3791 
z
" transform="scale(0.015625)"/>
       <path id="Roboto-Bold-69" d="M 341 4256 
Q 341 4459 478 4592 
Q 616 4725 847 4725 
Q 1078 4725 1215 4592 
Q 1353 4459 1353 4256 
Q 1353 4056 1215 3923 
Q 1078 3791 847 3791 
Q 616 3791 478 3923 
Q 341 4056 341 4256 
z
M 1303 3381 
L 1303 0 
L 397 0 
L 397 3381 
L 1303 3381 
z
" transform="scale(0.015625)"/>
       <path id="Roboto-Bold-73" d="M 2178 938 
Q 2178 1081 2045 1179 
Q 1913 1278 1475 1372 
Q 953 1484 618 1721 
Q 284 1959 284 2394 
Q 284 2816 642 3130 
Q 1000 3444 1631 3444 
Q 2291 3444 2669 3134 
Q 3047 2825 3047 2353 
L 2144 2353 
Q 2144 2547 2019 2675 
Q 1894 2803 1628 2803 
Q 1403 2803 1276 2698 
Q 1150 2594 1150 2438 
Q 1150 2294 1284 2200 
Q 1419 2106 1781 2034 
Q 2331 1925 2693 1700 
Q 3056 1475 3056 972 
Q 3056 525 2672 231 
Q 2288 -63 1634 -63 
Q 925 -63 550 301 
Q 175 666 175 1078 
L 1034 1078 
Q 1047 813 1230 697 
Q 1413 581 1653 581 
Q 2178 581 2178 938 
z
" transform="scale(0.015625)"/>
       <path id="Roboto-Bold-74" d="M 2041 22 
Q 1788 -63 1497 -63 
Q 1053 -63 790 168 
Q 528 400 528 938 
L 528 2722 
L 31 2722 
L 31 3381 
L 528 3381 
L 528 4216 
L 1431 4216 
L 1431 3381 
L 2006 3381 
L 2006 2722 
L 1431 2722 
L 1431 1031 
Q 1431 819 1518 750 
Q 1606 681 1778 681 
Q 1916 681 2041 706 
L 2041 22 
z
" transform="scale(0.015625)"/>
       <path id="Roboto-Bold-61" d="M 2306 0 
Q 2250 119 2216 303 
Q 1888 -63 1363 -63 
Q 878 -63 547 223 
Q 216 509 216 950 
Q 216 1481 609 1773 
Q 1003 2066 1775 2066 
L 2178 2066 
L 2178 2263 
Q 2178 2497 2058 2636 
Q 1938 2775 1678 2775 
Q 1194 2775 1194 2369 
L 291 2369 
Q 291 2809 681 3126 
Q 1072 3444 1728 3444 
Q 2313 3444 2698 3147 
Q 3084 2850 3084 2256 
L 3084 750 
Q 3091 300 3219 53 
L 3219 0 
L 2306 0 
z
M 1559 628 
Q 1788 628 1948 729 
Q 2109 831 2178 953 
L 2178 1541 
L 1809 1541 
Q 1450 1541 1284 1389 
Q 1119 1238 1119 1016 
Q 1119 847 1236 737 
Q 1353 628 1559 628 
z
" transform="scale(0.015625)"/>
       <path id="Roboto-Bold-6e" d="M 1806 2713 
Q 1422 2713 1234 2388 
L 1234 0 
L 331 0 
L 331 3381 
L 1178 3381 
L 1209 2994 
Q 1572 3444 2181 3444 
Q 2659 3444 2953 3159 
Q 3247 2875 3250 2169 
L 3250 0 
L 2344 0 
L 2344 2156 
Q 2344 2481 2205 2597 
Q 2066 2713 1806 2713 
z
" transform="scale(0.015625)"/>
       <path id="Roboto-Bold-63" d="M 1753 666 
Q 2000 666 2159 802 
Q 2319 938 2322 1169 
L 3172 1169 
Q 3166 631 2761 284 
Q 2356 -63 1769 -63 
Q 984 -63 595 432 
Q 206 928 206 1647 
L 206 1734 
Q 206 2450 593 2947 
Q 981 3444 1766 3444 
Q 2388 3444 2777 3087 
Q 3166 2731 3172 2122 
L 2322 2122 
Q 2319 2369 2172 2542 
Q 2025 2716 1750 2716 
Q 1356 2716 1234 2420 
Q 1113 2125 1113 1647 
Q 1113 1256 1233 961 
Q 1353 666 1753 666 
z
" transform="scale(0.015625)"/>
       <path id="Roboto-Bold-5b" d="M 1728 5297 
L 1728 4600 
L 1281 4600 
L 1281 -366 
L 1728 -366 
L 1728 -1059 
L 375 -1059 
L 375 5297 
L 1728 5297 
z
" transform="scale(0.015625)"/>
       <path id="Roboto-Bold-c5" d="M 25 0 
L 1719 4550 
L 2588 4550 
L 4291 0 
L 3291 0 
L 2978 938 
L 1331 938 
L 1019 0 
L 25 0 
z
M 1584 1697 
L 2725 1697 
L 2156 3406 
L 1584 1697 
z
M 1471 5424 
Q 1471 5683 1668 5873 
Q 1865 6064 2168 6064 
Q 2468 6064 2666 5873 
Q 2865 5683 2865 5424 
Q 2865 5158 2666 4975 
Q 2468 4793 2168 4793 
Q 1865 4793 1668 4975 
Q 1471 5158 1471 5424 
z
M 1830 5423 
Q 1830 5286 1922 5187 
Q 2015 5089 2168 5089 
Q 2321 5089 2413 5187 
Q 2505 5286 2505 5423 
Q 2505 5561 2413 5662 
Q 2321 5764 2168 5764 
Q 2015 5764 1922 5662 
Q 1830 5561 1830 5423 
z
" transform="scale(0.015625)"/>
       <path id="Roboto-Bold-5d" d="M 41 4600 
L 41 5297 
L 1394 5297 
L 1394 -1059 
L 41 -1059 
L 41 -366 
L 491 -366 
L 491 4600 
L 41 4600 
z
" transform="scale(0.015625)"/>
      </defs>
      <use xlink:href="#Roboto-Bold-53"/>
      <use xlink:href="#Roboto-Bold-65" x="61.474609"/>
      <use xlink:href="#Roboto-Bold-72" x="115.527344"/>
      <use xlink:href="#Roboto-Bold-32" x="152.050781"/>
      <use xlink:href="#Roboto-Bold-30" x="209.423828"/>
      <use xlink:href="#Roboto-Bold-35" x="266.796875"/>
      <use xlink:href="#Roboto-Bold-20" x="324.169922"/>
      <use xlink:href="#Roboto-Bold-48" x="349.072266"/>
      <use xlink:href="#Roboto-Bold-47" x="419.775391"/>
      <use xlink:href="#Roboto-Bold-20" x="487.890625"/>
      <use xlink:href="#Roboto-Bold-2d" x="512.792969"/>
      <use xlink:href="#Roboto-Bold-20" x="551.611328"/>
      <use xlink:href="#Roboto-Bold-48" x="576.513672"/>
      <use xlink:href="#Roboto-Bold-32" x="647.216797"/>
      <use xlink:href="#Roboto-Bold-4f" x="704.589844"/>
      <use xlink:href="#Roboto-Bold-20" x="773.632812"/>
      <use xlink:href="#Roboto-Bold-4f" x="798.535156"/>
      <use xlink:href="#Roboto-Bold-20" x="867.578125"/>
      <use xlink:href="#Roboto-Bold-44" x="892.480469"/>
      <use xlink:href="#Roboto-Bold-69" x="957.519531"/>
      <use xlink:href="#Roboto-Bold-73" x="984.033203"/>
      <use xlink:href="#Roboto-Bold-74" x="1035.498047"/>
      <use xlink:href="#Roboto-Bold-61" x="1069.287109"/>
      <use xlink:href="#Roboto-Bold-6e" x="1122.900391"/>
      <use xlink:href="#Roboto-Bold-63" x="1178.90625"/>
      <use xlink:href="#Roboto-Bold-65" x="1231.103516"/>
      <use xlink:href="#Roboto-Bold-20" x="1285.15625"/>
      <use xlink:href="#Roboto-Bold-5b" x="1310.058594"/>
      <use xlink:href="#Roboto-Bold-c5" x="1337.890625"/>
      <use xlink:href="#Roboto-Bold-5d" x="1405.224609"/>
     </g>
    </g>
   </g>
   <g id="matplotlib.axis_2">
    <g id="ytick_1">
     <g id="line2d_11">
      <defs>
       <path id="m1d3297de4e" d="M 0 0 
L -3.5 0 
" style="stroke: #c2c1c1; stroke-width: 0.8"/>
      </defs>
      <g>
       <use xlink:href="#m1d3297de4e" x="47.243" y="298.6" style="fill: #c2c1c1; stroke: #c2c1c1; stroke-width: 0.8"/>
      </g>
     </g>
     <g id="text_9">
      <!-- −2 -->
      <g style="fill: #191919" transform="translate(28.9055 302.35) scale(0.1 -0.1)">
       <defs>
        <path id="Roboto-Regular-2212" d="M 3134 2509 
L 3134 2034 
L 525 2034 
L 525 2509 
L 3134 2509 
z
" transform="scale(0.015625)"/>
       </defs>
       <use xlink:href="#Roboto-Regular-2212"/>
       <use xlink:href="#Roboto-Regular-32" x="57.177734"/>
      </g>
     </g>
    </g>
    <g id="ytick_2">
     <g id="line2d_12">
      <g>
       <use xlink:href="#m1d3297de4e" x="47.243" y="242.228" style="fill: #c2c1c1; stroke: #c2c1c1; stroke-width: 0.8"/>
      </g>
     </g>
     <g id="text_10">
      <!-- −1 -->
      <g style="fill: #191919" transform="translate(28.9055 245.978) scale(0.1 -0.1)">
       <use xlink:href="#Roboto-Regular-2212"/>
       <use xlink:href="#Roboto-Regular-31" x="57.177734"/>
      </g>
     </g>
    </g>
    <g id="ytick_3">
     <g id="line2d_13">
      <g>
       <use xlink:href="#m1d3297de4e" x="47.243" y="185.856" style="fill: #c2c1c1; stroke: #c2c1c1; stroke-width: 0.8"/>
      </g>
     </g>
     <g id="text_11">
      <!-- 0 -->
      <g style="fill: #191919" transform="translate(34.622687 189.606) scale(0.1 -0.1)">
       <defs>
        <path id="Roboto-Regular-30" d="M 3234 1944 
Q 3234 825 2848 381 
Q 2463 -63 1800 -63 
Q 1156 -63 764 368 
Q 372 800 359 1872 
L 359 2638 
Q 359 3753 750 4183 
Q 1141 4613 1794 4613 
Q 2447 4613 2834 4195 
Q 3222 3778 3234 2709 
L 3234 1944 
z
M 2653 2734 
Q 2653 3503 2434 3822 
Q 2216 4141 1794 4141 
Q 1388 4141 1167 3831 
Q 947 3522 941 2778 
L 941 1850 
Q 941 1088 1164 750 
Q 1388 413 1800 413 
Q 2222 413 2436 745 
Q 2650 1078 2653 1825 
L 2653 2734 
z
" transform="scale(0.015625)"/>
       </defs>
       <use xlink:href="#Roboto-Regular-30"/>
      </g>
     </g>
    </g>
    <g id="ytick_4">
     <g id="line2d_14">
      <g>
       <use xlink:href="#m1d3297de4e" x="47.243" y="129.484" style="fill: #c2c1c1; stroke: #c2c1c1; stroke-width: 0.8"/>
      </g>
     </g>
     <g id="text_12">
      <!-- 1 -->
      <g style="fill: #191919" transform="translate(34.622687 133.234) scale(0.1 -0.1)">
       <use xlink:href="#Roboto-Regular-31"/>
      </g>
     </g>
    </g>
    <g id="ytick_5">
     <g id="line2d_15">
      <g>
       <use xlink:href="#m1d3297de4e" x="47.243" y="73.112" style="fill: #c2c1c1; stroke: #c2c1c1; stroke-width: 0.8"/>
      </g>
     </g>
     <g id="text_13">
      <!-- 2 -->
      <g style="fill: #191919" transform="translate(34.622687 76.862) scale(0.1 -0.1)">
       <use xlink:href="#Roboto-Regular-32"/>
      </g>
     </g>
    </g>
    <g id="ytick_6">
     <g id="line2d_16">
      <g>
       <use xlink:href="#m1d3297de4e" x="47.243" y="16.74" style="fill: #c2c1c1; stroke: #c2c1c1; stroke-width: 0.8"/>
      </g>
     </g>
     <g id="text_14">
      <!-- 3 -->
      <g style="fill: #191919" transform="translate(34.622687 20.49) scale(0.1 -0.1)">
       <use xlink:href="#Roboto-Regular-33"/>
      </g>
     </g>
    </g>
    <g id="text_15">
     <!-- PMF [kcal/mol] -->
     <g style="fill: #191919" transform="translate(22.468 198.489688) rotate(-90) scale(0.12 -0.12)">
      <defs>
       <path id="Roboto-Bold-50" d="M 1347 1606 
L 1347 0 
L 406 0 
L 406 4550 
L 2184 4550 
Q 2991 4550 3442 4125 
Q 3894 3700 3894 3047 
Q 3894 2388 3442 1997 
Q 2991 1606 2184 1606 
L 1347 1606 
z
M 1347 3791 
L 1347 2363 
L 2184 2363 
Q 2588 2363 2766 2553 
Q 2944 2744 2944 3041 
Q 2944 3338 2766 3564 
Q 2588 3791 2184 3791 
L 1347 3791 
z
" transform="scale(0.015625)"/>
       <path id="Roboto-Bold-4d" d="M 2800 1250 
L 3966 4550 
L 5194 4550 
L 5194 0 
L 4253 0 
L 4253 1244 
L 4347 3381 
L 3122 0 
L 2478 0 
L 1253 3381 
L 1347 1244 
L 1347 0 
L 406 0 
L 406 4550 
L 1634 4550 
L 2800 1250 
z
" transform="scale(0.015625)"/>
       <path id="Roboto-Bold-46" d="M 406 0 
L 406 4550 
L 3372 4550 
L 3372 3791 
L 1347 3791 
L 1347 2616 
L 3147 2616 
L 3147 1859 
L 1347 1859 
L 1347 0 
L 406 0 
z
" transform="scale(0.015625)"/>
       <path id="Roboto-Bold-6b" d="M 2444 0 
L 1575 1356 
L 1253 1034 
L 1253 0 
L 350 0 
L 350 4803 
L 1253 4803 
L 1253 2144 
L 1428 2369 
L 2291 3381 
L 3375 3381 
L 2156 1975 
L 3484 0 
L 2444 0 
z
" transform="scale(0.015625)"/>
       <path id="Roboto-Bold-6c" d="M 1303 4800 
L 1303 0 
L 397 0 
L 397 4800 
L 1303 4800 
z
" transform="scale(0.015625)"/>
       <path id="Roboto-Bold-2f" d="M 2306 4550 
L 631 -391 
L -41 -391 
L 1634 4550 
L 2306 4550 
z
" transform="scale(0.015625)"/>
       <path id="Roboto-Bold-6d" d="M 1806 2713 
Q 1431 2713 1253 2394 
L 1253 0 
L 347 0 
L 347 3381 
L 1197 3381 
L 1228 3009 
Q 1581 3444 2197 3444 
Q 2850 3444 3094 2928 
Q 3441 3444 4109 3444 
Q 4597 3444 4894 3156 
Q 5191 2869 5194 2169 
L 5194 0 
L 4288 0 
L 4288 2156 
Q 4288 2494 4152 2603 
Q 4016 2713 3781 2713 
Q 3381 2713 3222 2334 
L 3222 0 
L 2319 0 
L 2319 2150 
Q 2319 2484 2181 2598 
Q 2044 2713 1806 2713 
z
" transform="scale(0.015625)"/>
       <path id="Roboto-Bold-6f" d="M 206 1722 
Q 206 2459 625 2951 
Q 1044 3444 1806 3444 
Q 2578 3444 2993 2951 
Q 3409 2459 3409 1722 
L 3409 1656 
Q 3409 919 2993 428 
Q 2578 -63 1813 -63 
Q 1053 -63 636 415 
Q 219 894 206 1616 
L 206 1722 
z
M 1113 1656 
Q 1113 1244 1270 955 
Q 1428 666 1813 666 
Q 2191 666 2348 953 
Q 2506 1241 2506 1722 
Q 2506 2125 2348 2420 
Q 2191 2716 1806 2716 
Q 1425 2716 1269 2422 
Q 1113 2128 1113 1656 
z
" transform="scale(0.015625)"/>
      </defs>
      <use xlink:href="#Roboto-Bold-50"/>
      <use xlink:href="#Roboto-Bold-4d" x="64.550781"/>
      <use xlink:href="#Roboto-Bold-46" x="152.148438"/>
      <use xlink:href="#Roboto-Bold-20" x="206.982422"/>
      <use xlink:href="#Roboto-Bold-5b" x="231.884766"/>
      <use xlink:href="#Roboto-Bold-6b" x="259.716797"/>
      <use xlink:href="#Roboto-Bold-63" x="313.134766"/>
      <use xlink:href="#Roboto-Bold-61" x="365.332031"/>
      <use xlink:href="#Roboto-Bold-6c" x="418.945312"/>
      <use xlink:href="#Roboto-Bold-2f" x="445.458984"/>
      <use xlink:href="#Roboto-Bold-6d" x="482.861328"/>
      <use xlink:href="#Roboto-Bold-6f" x="569.433594"/>
      <use xlink:href="#Roboto-Bold-6c" x="625.976562"/>
      <use xlink:href="#Roboto-Bold-5d" x="652.490234"/>
     </g>
    </g>
   </g>
   <g id="line2d_17">
    <path d="M 75.782619 -1 
L 76.479163 17.318874 
L 77.808079 49.183416 
L 79.136996 78.283447 
L 80.465912 104.814832 
L 81.794829 128.913881 
L 83.123745 150.688676 
L 84.452661 170.227905 
L 85.781578 187.611383 
L 87.110494 202.92448 
L 88.439411 216.269748 
L 89.768327 227.773305 
L 91.097244 237.582459 
L 92.42616 245.850128 
L 93.755077 252.712043 
L 95.083993 258.273945 
L 96.41291 262.619454 
L 97.741826 265.828922 
L 99.070743 267.989983 
L 100.399659 269.19307 
L 101.728576 269.524829 
L 103.057492 269.0754 
L 104.386409 267.954575 
L 105.715325 266.290434 
L 107.044242 264.196928 
L 108.373158 261.738537 
L 109.702075 258.933703 
L 111.030991 255.79399 
L 113.688824 248.642636 
L 116.346657 240.511442 
L 124.320156 214.003527 
L 129.635822 196.01963 
L 134.951488 177.577735 
L 137.609321 169.398742 
L 144.253903 150.578846 
L 146.911736 142.400281 
L 148.240653 138.953711 
L 149.569569 136.093669 
L 152.227402 131.321002 
L 157.543068 122.037908 
L 160.200901 116.505588 
L 161.529817 113.609606 
L 162.858734 111.174798 
L 164.18765 109.596398 
L 165.516567 108.897868 
L 166.845483 108.755583 
L 168.1744 108.756494 
L 169.503316 108.61571 
L 170.832233 108.236021 
L 172.161149 107.616808 
L 173.490066 106.732971 
L 174.818982 105.558326 
L 177.476815 102.928986 
L 178.805732 101.956898 
L 180.134648 101.337178 
L 181.463565 101.006974 
L 185.450314 100.468453 
L 186.779231 100.134515 
L 188.108147 100.067314 
L 189.437063 100.589111 
L 190.76598 101.651276 
L 192.094896 102.882308 
L 193.423813 103.958207 
L 196.081646 105.674757 
L 197.410562 106.788209 
L 198.739479 108.459071 
L 200.068395 110.817855 
L 204.055145 119.443057 
L 205.384061 121.676586 
L 206.712978 123.391215 
L 208.041894 124.716924 
L 210.699727 127.059367 
L 212.028644 128.555842 
L 213.35756 130.497478 
L 218.673226 139.853794 
L 221.331059 143.454644 
L 223.988892 146.649761 
L 225.317808 148.051215 
L 227.975641 150.365691 
L 230.633474 152.756326 
L 233.291307 155.428793 
L 234.620224 156.536761 
L 238.606973 159.385768 
L 239.93589 160.750069 
L 242.593723 163.886966 
L 243.922639 165.277892 
L 246.580472 167.483851 
L 249.238305 169.582317 
L 253.225055 173.24187 
L 254.553971 174.169809 
L 255.882888 174.805527 
L 258.54072 175.790384 
L 259.869637 176.512368 
L 265.185303 180.151424 
L 269.172052 181.630929 
L 270.500969 182.458754 
L 271.829885 183.615622 
L 277.145551 188.958715 
L 279.803384 191.041071 
L 281.132301 191.892611 
L 282.461217 192.566991 
L 285.11905 193.492418 
L 290.434716 195.165444 
L 291.763633 195.280748 
L 293.092549 195.094619 
L 297.079298 193.744995 
L 298.408215 193.582934 
L 301.066048 193.482918 
L 302.394964 193.140011 
L 303.723881 192.510535 
L 306.381714 190.948326 
L 307.71063 190.28741 
L 310.368463 189.339231 
L 314.355213 188.416696 
L 315.684129 187.861179 
L 318.341962 186.416284 
L 319.670879 185.873259 
L 322.328712 185.0066 
L 323.657628 184.26675 
L 324.986545 183.230205 
L 334.28896 174.808449 
L 336.946793 172.177832 
L 338.275709 171.074694 
L 339.604626 170.207995 
L 343.591375 168.123436 
L 346.249208 166.220887 
L 350.235958 163.136598 
L 352.893791 160.641771 
L 354.222707 159.372084 
L 355.551624 158.303773 
L 356.88054 157.509351 
L 359.538373 156.450836 
L 362.196206 155.454559 
L 366.182955 153.835908 
L 368.840788 153.181504 
L 370.169705 152.877299 
L 371.498621 152.39353 
L 372.827538 151.660275 
L 374.156454 150.718409 
L 376.814287 148.414847 
L 378.143204 147.009438 
L 380.801037 143.861511 
L 382.129953 142.601895 
L 383.45887 141.897929 
L 384.787786 141.739306 
L 388.774536 142.131027 
L 390.103452 142.054762 
L 391.432369 141.771719 
L 392.761285 141.222124 
L 395.419118 139.737022 
L 396.748035 139.361959 
L 398.076951 139.5251 
L 399.405867 140.131293 
L 400.734784 140.868554 
L 402.0637 141.412284 
L 403.392617 141.584839 
L 404.721533 141.391129 
L 410.037199 139.770644 
L 411.366116 139.565588 
L 412.695032 139.479459 
L 414.023949 139.589378 
L 415.352865 139.934828 
L 416.681782 140.398957 
L 418.010698 140.721856 
L 419.339615 140.661562 
L 420.668531 140.148812 
L 423.326364 138.337405 
L 424.655281 137.424864 
L 425.984197 136.658547 
L 429.970947 134.76988 
L 431.299863 133.951108 
L 433.957696 131.960672 
L 436.615529 129.602872 
L 440.602278 125.825478 
L 443.260111 123.641027 
L 444.589028 122.922139 
L 445.917944 122.639406 
L 448.575777 122.607778 
L 449.904694 122.270061 
L 452.562527 121.284893 
L 453.891443 121.237069 
L 455.22036 121.56319 
L 456.549276 122.017434 
L 457.878193 122.342365 
L 459.207109 122.41511 
L 460.536026 122.250043 
L 461.8 121.936594 
L 461.8 121.936594 
" clip-path="url(#pae893cb2f6)" style="fill: none; stroke: #f99752; stroke-width: 2.5; stroke-linecap: square"/>
   </g>
   <g id="patch_3">
    <path d="M 47.243 298.6 
L 47.243 16.74 
" style="fill: none; stroke: #c2c1c1; stroke-width: 0.8; stroke-linejoin: miter; stroke-linecap: square"/>
   </g>
   <g id="patch_4">
    <path d="M 445.032 298.6 
L 445.032 16.74 
" style="fill: none; stroke: #c2c1c1; stroke-width: 0.8; stroke-linejoin: miter; stroke-linecap: square"/>
   </g>
   <g id="patch_5">
    <path d="M 47.243 298.6 
L 445.032 298.6 
" style="fill: none; stroke: #c2c1c1; stroke-width: 0.8; stroke-linejoin: miter; stroke-linecap: square"/>
   </g>
   <g id="patch_6">
    <path d="M 47.243 16.74 
L 445.032 16.74 
" style="fill: none; stroke: #c2c1c1; stroke-width: 0.8; stroke-linejoin: miter; stroke-linecap: square"/>
   </g>
   <g id="legend_1">
    <g id="line2d_18">
     <path d="M 354.0795 32.34 
L 366.0795 32.34 
L 378.0795 32.34 
" style="fill: none; stroke: #1e2e79; stroke-width: 2.5; stroke-linecap: square"/>
    </g>
    <g id="text_16">
     <!-- Reduced -->
     <g transform="translate(387.6795 36.54) scale(0.12 -0.12)">
      <defs>
       <path id="Roboto-Regular-52" d="M 3188 0 
L 2200 1844 
L 1131 1844 
L 1131 0 
L 528 0 
L 528 4550 
L 2034 4550 
Q 2800 4550 3214 4200 
Q 3628 3850 3628 3184 
Q 3628 2759 3398 2442 
Q 3169 2125 2763 1969 
L 3831 38 
L 3831 0 
L 3188 0 
z
M 1131 4056 
L 1131 2334 
L 2053 2334 
Q 2538 2334 2783 2582 
Q 3028 2831 3028 3184 
Q 3028 3578 2792 3817 
Q 2556 4056 2034 4056 
L 1131 4056 
z
" transform="scale(0.015625)"/>
       <path id="Roboto-Regular-65" d="M 3116 591 
Q 2950 341 2647 139 
Q 2344 -63 1844 -63 
Q 1138 -63 714 396 
Q 291 856 291 1572 
L 291 1703 
Q 291 2256 502 2645 
Q 713 3034 1050 3239 
Q 1388 3444 1769 3444 
Q 2494 3444 2826 2970 
Q 3159 2497 3159 1788 
L 3159 1528 
L 872 1528 
Q 884 1063 1148 736 
Q 1413 409 1875 409 
Q 2181 409 2393 534 
Q 2606 659 2766 869 
L 3116 591 
z
M 1769 2969 
Q 1425 2969 1187 2719 
Q 950 2469 891 2000 
L 2581 2000 
L 2581 2044 
Q 2559 2381 2386 2675 
Q 2213 2969 1769 2969 
z
" transform="scale(0.015625)"/>
       <path id="Roboto-Regular-64" d="M 2622 0 
L 2594 363 
Q 2247 -63 1628 -63 
Q 1034 -63 668 418 
Q 303 900 297 1628 
L 297 1719 
Q 297 2494 664 2969 
Q 1031 3444 1634 3444 
Q 2231 3444 2572 3044 
L 2572 4800 
L 3153 4800 
L 3153 0 
L 2622 0 
z
M 878 1653 
Q 878 1150 1090 789 
Q 1303 428 1772 428 
Q 2309 428 2572 919 
L 2572 2475 
Q 2313 2956 1778 2956 
Q 1306 2956 1092 2589 
Q 878 2222 878 1719 
L 878 1653 
z
" transform="scale(0.015625)"/>
       <path id="Roboto-Regular-75" d="M 2538 0 
L 2525 334 
Q 2194 -63 1538 -63 
Q 1041 -63 734 231 
Q 428 525 428 1200 
L 428 3381 
L 1006 3381 
L 1006 1194 
Q 1006 738 1198 583 
Q 1391 428 1628 428 
Q 2281 428 2509 919 
L 2509 3381 
L 3091 3381 
L 3091 0 
L 2538 0 
z
" transform="scale(0.015625)"/>
       <path id="Roboto-Regular-63" d="M 1794 413 
Q 2103 413 2336 597 
Q 2569 781 2591 1069 
L 3141 1069 
Q 3119 616 2725 276 
Q 2331 -63 1794 -63 
Q 1031 -63 661 440 
Q 291 944 291 1625 
L 291 1756 
Q 291 2438 661 2941 
Q 1031 3444 1794 3444 
Q 2388 3444 2753 3092 
Q 3119 2741 3141 2219 
L 2591 2219 
Q 2569 2531 2355 2750 
Q 2141 2969 1794 2969 
Q 1438 2969 1236 2787 
Q 1034 2606 951 2328 
Q 869 2050 869 1756 
L 869 1625 
Q 869 1328 950 1050 
Q 1031 772 1232 592 
Q 1434 413 1794 413 
z
" transform="scale(0.015625)"/>
      </defs>
      <use xlink:href="#Roboto-Regular-52"/>
      <use xlink:href="#Roboto-Regular-65" x="61.621094"/>
      <use xlink:href="#Roboto-Regular-64" x="114.648438"/>
      <use xlink:href="#Roboto-Regular-75" x="171.044922"/>
      <use xlink:href="#Roboto-Regular-63" x="226.171875"/>
      <use xlink:href="#Roboto-Regular-65" x="278.515625"/>
      <use xlink:href="#Roboto-Regular-64" x="331.542969"/>
     </g>
    </g>
    <g id="line2d_19">
     <path d="M 354.0795 49.7775 
L 366.0795 49.7775 
L 378.0795 49.7775 
" style="fill: none; stroke: #ec4067; stroke-width: 2.5; stroke-linecap: square"/>
    </g>
    <g id="text_17">
     <!-- Oxidized -->
     <g transform="translate(387.6795 53.9775) scale(0.12 -0.12)">
      <defs>
       <path id="Roboto-Regular-4f" d="M 4031 2131 
Q 4031 1106 3534 521 
Q 3038 -63 2206 -63 
Q 1397 -63 884 521 
Q 372 1106 372 2131 
L 372 2419 
Q 372 3441 881 4027 
Q 1391 4613 2200 4613 
Q 3025 4613 3523 4036 
Q 4022 3459 4031 2456 
L 4031 2131 
z
M 3434 2425 
Q 3434 3238 3109 3669 
Q 2784 4100 2200 4100 
Q 1641 4100 1305 3669 
Q 969 3238 969 2425 
L 969 2131 
Q 969 1313 1308 880 
Q 1647 447 2206 447 
Q 2794 447 3114 880 
Q 3434 1313 3434 2131 
L 3434 2425 
z
" transform="scale(0.015625)"/>
       <path id="Roboto-Regular-78" d="M 831 3381 
L 1572 2150 
L 2322 3381 
L 3000 3381 
L 1894 1713 
L 3034 0 
L 2366 0 
L 1584 1269 
L 803 0 
L 131 0 
L 1269 1713 
L 166 3381 
L 831 3381 
z
" transform="scale(0.015625)"/>
       <path id="Roboto-Regular-69" d="M 444 4278 
Q 444 4419 530 4516 
Q 616 4613 784 4613 
Q 950 4613 1039 4516 
Q 1128 4419 1128 4278 
Q 1128 4144 1039 4048 
Q 950 3953 784 3953 
Q 616 3953 530 4048 
Q 444 4144 444 4278 
z
M 1069 3381 
L 1069 0 
L 488 0 
L 488 3381 
L 1069 3381 
z
" transform="scale(0.015625)"/>
       <path id="Roboto-Regular-7a" d="M 303 2903 
L 303 3381 
L 2869 3381 
L 2869 2972 
L 988 475 
L 2959 475 
L 2959 0 
L 278 0 
L 278 425 
L 2141 2903 
L 303 2903 
z
" transform="scale(0.015625)"/>
      </defs>
      <use xlink:href="#Roboto-Regular-4f"/>
      <use xlink:href="#Roboto-Regular-78" x="68.798828"/>
      <use xlink:href="#Roboto-Regular-69" x="118.408203"/>
      <use xlink:href="#Roboto-Regular-64" x="142.724609"/>
      <use xlink:href="#Roboto-Regular-69" x="199.121094"/>
      <use xlink:href="#Roboto-Regular-7a" x="223.4375"/>
      <use xlink:href="#Roboto-Regular-65" x="273.046875"/>
      <use xlink:href="#Roboto-Regular-64" x="326.074219"/>
     </g>
    </g>
    <g id="line2d_20">
     <path d="M 354.0795 67.84125 
L 366.0795 67.84125 
L 378.0795 67.84125 
" style="fill: none; stroke: #f99752; stroke-width: 2.5; stroke-linecap: square"/>
    </g>
    <g id="text_18">
     <!-- Cu(I) -->
     <g transform="translate(387.6795 72.04125) scale(0.12 -0.12)">
      <defs>
       <path id="Roboto-Regular-43" d="M 3275 1447 
L 3875 1447 
Q 3806 800 3387 368 
Q 2969 -63 2150 -63 
Q 1356 -63 870 504 
Q 384 1072 375 2013 
L 375 2500 
Q 375 3456 867 4034 
Q 1359 4613 2203 4613 
Q 2975 4613 3390 4188 
Q 3806 3763 3875 3091 
L 3275 3091 
Q 3206 3566 2968 3842 
Q 2731 4119 2203 4119 
Q 1600 4119 1287 3675 
Q 975 3231 975 2506 
L 975 2047 
Q 975 1375 1259 901 
Q 1544 428 2150 428 
Q 2725 428 2961 697 
Q 3197 966 3275 1447 
z
" transform="scale(0.015625)"/>
       <path id="Roboto-Regular-28" d="M 419 1850 
Q 419 2756 678 3434 
Q 938 4113 1294 4541 
Q 1650 4969 1947 5134 
L 2069 4753 
Q 1700 4475 1348 3761 
Q 997 3047 997 1813 
Q 997 625 1348 -97 
Q 1700 -819 2069 -1119 
L 1947 -1469 
Q 1650 -1306 1294 -878 
Q 938 -450 678 226 
Q 419 903 419 1850 
z
" transform="scale(0.015625)"/>
       <path id="Roboto-Regular-49" d="M 1175 4550 
L 1175 0 
L 572 0 
L 572 4550 
L 1175 4550 
z
" transform="scale(0.015625)"/>
       <path id="Roboto-Regular-29" d="M 1772 1819 
Q 1772 906 1512 228 
Q 1253 -450 895 -878 
Q 538 -1306 244 -1469 
L 122 -1119 
Q 488 -841 841 -109 
Q 1194 622 1194 1856 
Q 1194 2647 1019 3236 
Q 844 3825 594 4212 
Q 344 4600 122 4781 
L 244 5134 
Q 538 4969 895 4541 
Q 1253 4113 1512 3436 
Q 1772 2759 1772 1819 
z
" transform="scale(0.015625)"/>
      </defs>
      <use xlink:href="#Roboto-Regular-43"/>
      <use xlink:href="#Roboto-Regular-75" x="65.087891"/>
      <use xlink:href="#Roboto-Regular-28" x="120.214844"/>
      <use xlink:href="#Roboto-Regular-49" x="154.443359"/>
      <use xlink:href="#Roboto-Regular-29" x="181.640625"/>
     </g>
    </g>
   </g>
  </g>
 </g>
 <defs>
  <clipPath id="pae893cb2f6">
   <rect x="47.243" y="16.74" width="397.789" height="281.86"/>
  </clipPath>
 </defs>
</svg>
