<?xml version="1.0" encoding="utf-8" standalone="no"?>
<!DOCTYPE svg PUBLIC "-//W3C//DTD SVG 1.1//EN"
  "http://www.w3.org/Graphics/SVG/1.1/DTD/svg11.dtd">
<svg xmlns:xlink="http://www.w3.org/1999/xlink" width="460.8pt" height="345.6pt" viewBox="0 0 460.8 345.6" xmlns="http://www.w3.org/2000/svg" version="1.1">
 <metadata>
  <rdf:RDF xmlns:dc="http://purl.org/dc/elements/1.1/" xmlns:cc="http://creativecommons.org/ns#" xmlns:rdf="http://www.w3.org/1999/02/22-rdf-syntax-ns#">
   <cc:Work>
    <dc:type rdf:resource="http://purl.org/dc/dcmitype/StillImage"/>
    <dc:date>2024-02-11T13:54:58.059479</dc:date>
    <dc:format>image/svg+xml</dc:format>
    <dc:creator>
     <cc:Agent>
      <dc:title>Matplotlib v3.8.2, https://matplotlib.org/</dc:title>
     </cc:Agent>
    </dc:creator>
   </cc:Work>
  </rdf:RDF>
 </metadata>
 <defs>
  <style type="text/css">*{stroke-linejoin: round; stroke-linecap: butt}</style>
 </defs>
 <g id="figure_1">
  <g id="patch_1">
   <path d="M 0 345.6 
L 460.8 345.6 
L 460.8 0 
L 0 0 
z
" style="fill: #ffffff"/>
  </g>
  <g id="axes_1">
   <g id="patch_2">
    <path d="M 47.81 302.8525 
L 438.84 302.8525 
L 438.84 14.76 
L 47.81 14.76 
z
" style="fill: #ffffff"/>
   </g>
   <g id="matplotlib.axis_1">
    <g id="xtick_1">
     <g id="line2d_1">
      <defs>
       <path id="m1bc9222b9a" d="M 0 0 
L 0 3.5 
" style="stroke: #000000; stroke-width: 0.8"/>
      </defs>
      <g>
       <use xlink:href="#m1bc9222b9a" x="47.81" y="302.8525" style="stroke: #000000; stroke-width: 0.8"/>
      </g>
     </g>
     <g id="text_1">
      <!-- 2.00 -->
      <g transform="translate(36.677188 317.450937) scale(0.1 -0.1)">
       <defs>
        <path id="DejaVuSans-32" d="M 1228 531 
L 3431 531 
L 3431 0 
L 469 0 
L 469 531 
Q 828 903 1448 1529 
Q 2069 2156 2228 2338 
Q 2531 2678 2651 2914 
Q 2772 3150 2772 3378 
Q 2772 3750 2511 3984 
Q 2250 4219 1831 4219 
Q 1534 4219 1204 4116 
Q 875 4013 500 3803 
L 500 4441 
Q 881 4594 1212 4672 
Q 1544 4750 1819 4750 
Q 2544 4750 2975 4387 
Q 3406 4025 3406 3419 
Q 3406 3131 3298 2873 
Q 3191 2616 2906 2266 
Q 2828 2175 2409 1742 
Q 1991 1309 1228 531 
z
" transform="scale(0.015625)"/>
        <path id="DejaVuSans-2e" d="M 684 794 
L 1344 794 
L 1344 0 
L 684 0 
L 684 794 
z
" transform="scale(0.015625)"/>
        <path id="DejaVuSans-30" d="M 2034 4250 
Q 1547 4250 1301 3770 
Q 1056 3291 1056 2328 
Q 1056 1369 1301 889 
Q 1547 409 2034 409 
Q 2525 409 2770 889 
Q 3016 1369 3016 2328 
Q 3016 3291 2770 3770 
Q 2525 4250 2034 4250 
z
M 2034 4750 
Q 2819 4750 3233 4129 
Q 3647 3509 3647 2328 
Q 3647 1150 3233 529 
Q 2819 -91 2034 -91 
Q 1250 -91 836 529 
Q 422 1150 422 2328 
Q 422 3509 836 4129 
Q 1250 4750 2034 4750 
z
" transform="scale(0.015625)"/>
       </defs>
       <use xlink:href="#DejaVuSans-32"/>
       <use xlink:href="#DejaVuSans-2e" x="63.623047"/>
       <use xlink:href="#DejaVuSans-30" x="95.410156"/>
       <use xlink:href="#DejaVuSans-30" x="159.033203"/>
      </g>
     </g>
    </g>
    <g id="xtick_2">
     <g id="line2d_2">
      <g>
       <use xlink:href="#m1bc9222b9a" x="96.68875" y="302.8525" style="stroke: #000000; stroke-width: 0.8"/>
      </g>
     </g>
     <g id="text_2">
      <!-- 2.25 -->
      <g transform="translate(85.555938 317.450937) scale(0.1 -0.1)">
       <defs>
        <path id="DejaVuSans-35" d="M 691 4666 
L 3169 4666 
L 3169 4134 
L 1269 4134 
L 1269 2991 
Q 1406 3038 1543 3061 
Q 1681 3084 1819 3084 
Q 2600 3084 3056 2656 
Q 3513 2228 3513 1497 
Q 3513 744 3044 326 
Q 2575 -91 1722 -91 
Q 1428 -91 1123 -41 
Q 819 9 494 109 
L 494 744 
Q 775 591 1075 516 
Q 1375 441 1709 441 
Q 2250 441 2565 725 
Q 2881 1009 2881 1497 
Q 2881 1984 2565 2268 
Q 2250 2553 1709 2553 
Q 1456 2553 1204 2497 
Q 953 2441 691 2322 
L 691 4666 
z
" transform="scale(0.015625)"/>
       </defs>
       <use xlink:href="#DejaVuSans-32"/>
       <use xlink:href="#DejaVuSans-2e" x="63.623047"/>
       <use xlink:href="#DejaVuSans-32" x="95.410156"/>
       <use xlink:href="#DejaVuSans-35" x="159.033203"/>
      </g>
     </g>
    </g>
    <g id="xtick_3">
     <g id="line2d_3">
      <g>
       <use xlink:href="#m1bc9222b9a" x="145.5675" y="302.8525" style="stroke: #000000; stroke-width: 0.8"/>
      </g>
     </g>
     <g id="text_3">
      <!-- 2.50 -->
      <g transform="translate(134.434687 317.450937) scale(0.1 -0.1)">
       <use xlink:href="#DejaVuSans-32"/>
       <use xlink:href="#DejaVuSans-2e" x="63.623047"/>
       <use xlink:href="#DejaVuSans-35" x="95.410156"/>
       <use xlink:href="#DejaVuSans-30" x="159.033203"/>
      </g>
     </g>
    </g>
    <g id="xtick_4">
     <g id="line2d_4">
      <g>
       <use xlink:href="#m1bc9222b9a" x="194.44625" y="302.8525" style="stroke: #000000; stroke-width: 0.8"/>
      </g>
     </g>
     <g id="text_4">
      <!-- 2.75 -->
      <g transform="translate(183.313437 317.450937) scale(0.1 -0.1)">
       <defs>
        <path id="DejaVuSans-37" d="M 525 4666 
L 3525 4666 
L 3525 4397 
L 1831 0 
L 1172 0 
L 2766 4134 
L 525 4134 
L 525 4666 
z
" transform="scale(0.015625)"/>
       </defs>
       <use xlink:href="#DejaVuSans-32"/>
       <use xlink:href="#DejaVuSans-2e" x="63.623047"/>
       <use xlink:href="#DejaVuSans-37" x="95.410156"/>
       <use xlink:href="#DejaVuSans-35" x="159.033203"/>
      </g>
     </g>
    </g>
    <g id="xtick_5">
     <g id="line2d_5">
      <g>
       <use xlink:href="#m1bc9222b9a" x="243.325" y="302.8525" style="stroke: #000000; stroke-width: 0.8"/>
      </g>
     </g>
     <g id="text_5">
      <!-- 3.00 -->
      <g transform="translate(232.192188 317.450937) scale(0.1 -0.1)">
       <defs>
        <path id="DejaVuSans-33" d="M 2597 2516 
Q 3050 2419 3304 2112 
Q 3559 1806 3559 1356 
Q 3559 666 3084 287 
Q 2609 -91 1734 -91 
Q 1441 -91 1130 -33 
Q 819 25 488 141 
L 488 750 
Q 750 597 1062 519 
Q 1375 441 1716 441 
Q 2309 441 2620 675 
Q 2931 909 2931 1356 
Q 2931 1769 2642 2001 
Q 2353 2234 1838 2234 
L 1294 2234 
L 1294 2753 
L 1863 2753 
Q 2328 2753 2575 2939 
Q 2822 3125 2822 3475 
Q 2822 3834 2567 4026 
Q 2313 4219 1838 4219 
Q 1578 4219 1281 4162 
Q 984 4106 628 3988 
L 628 4550 
Q 988 4650 1302 4700 
Q 1616 4750 1894 4750 
Q 2613 4750 3031 4423 
Q 3450 4097 3450 3541 
Q 3450 3153 3228 2886 
Q 3006 2619 2597 2516 
z
" transform="scale(0.015625)"/>
       </defs>
       <use xlink:href="#DejaVuSans-33"/>
       <use xlink:href="#DejaVuSans-2e" x="63.623047"/>
       <use xlink:href="#DejaVuSans-30" x="95.410156"/>
       <use xlink:href="#DejaVuSans-30" x="159.033203"/>
      </g>
     </g>
    </g>
    <g id="xtick_6">
     <g id="line2d_6">
      <g>
       <use xlink:href="#m1bc9222b9a" x="292.20375" y="302.8525" style="stroke: #000000; stroke-width: 0.8"/>
      </g>
     </g>
     <g id="text_6">
      <!-- 3.25 -->
      <g transform="translate(281.070938 317.450937) scale(0.1 -0.1)">
       <use xlink:href="#DejaVuSans-33"/>
       <use xlink:href="#DejaVuSans-2e" x="63.623047"/>
       <use xlink:href="#DejaVuSans-32" x="95.410156"/>
       <use xlink:href="#DejaVuSans-35" x="159.033203"/>
      </g>
     </g>
    </g>
    <g id="xtick_7">
     <g id="line2d_7">
      <g>
       <use xlink:href="#m1bc9222b9a" x="341.0825" y="302.8525" style="stroke: #000000; stroke-width: 0.8"/>
      </g>
     </g>
     <g id="text_7">
      <!-- 3.50 -->
      <g transform="translate(329.949687 317.450937) scale(0.1 -0.1)">
       <use xlink:href="#DejaVuSans-33"/>
       <use xlink:href="#DejaVuSans-2e" x="63.623047"/>
       <use xlink:href="#DejaVuSans-35" x="95.410156"/>
       <use xlink:href="#DejaVuSans-30" x="159.033203"/>
      </g>
     </g>
    </g>
    <g id="xtick_8">
     <g id="line2d_8">
      <g>
       <use xlink:href="#m1bc9222b9a" x="389.96125" y="302.8525" style="stroke: #000000; stroke-width: 0.8"/>
      </g>
     </g>
     <g id="text_8">
      <!-- 3.75 -->
      <g transform="translate(378.828438 317.450937) scale(0.1 -0.1)">
       <use xlink:href="#DejaVuSans-33"/>
       <use xlink:href="#DejaVuSans-2e" x="63.623047"/>
       <use xlink:href="#DejaVuSans-37" x="95.410156"/>
       <use xlink:href="#DejaVuSans-35" x="159.033203"/>
      </g>
     </g>
    </g>
    <g id="xtick_9">
     <g id="line2d_9">
      <g>
       <use xlink:href="#m1bc9222b9a" x="438.84" y="302.8525" style="stroke: #000000; stroke-width: 0.8"/>
      </g>
     </g>
     <g id="text_9">
      <!-- 4.00 -->
      <g transform="translate(427.707188 317.450937) scale(0.1 -0.1)">
       <defs>
        <path id="DejaVuSans-34" d="M 2419 4116 
L 825 1625 
L 2419 1625 
L 2419 4116 
z
M 2253 4666 
L 3047 4666 
L 3047 1625 
L 3713 1625 
L 3713 1100 
L 3047 1100 
L 3047 0 
L 2419 0 
L 2419 1100 
L 313 1100 
L 313 1709 
L 2253 4666 
z
" transform="scale(0.015625)"/>
       </defs>
       <use xlink:href="#DejaVuSans-34"/>
       <use xlink:href="#DejaVuSans-2e" x="63.623047"/>
       <use xlink:href="#DejaVuSans-30" x="95.410156"/>
       <use xlink:href="#DejaVuSans-30" x="159.033203"/>
      </g>
     </g>
    </g>
    <g id="text_10">
     <!-- CRO66 OH - TYR145 OH Distance [Å] -->
     <g transform="translate(151.020313 332.0525) scale(0.1 -0.1)">
      <defs>
       <path id="DejaVuSans-43" d="M 4122 4306 
L 4122 3641 
Q 3803 3938 3442 4084 
Q 3081 4231 2675 4231 
Q 1875 4231 1450 3742 
Q 1025 3253 1025 2328 
Q 1025 1406 1450 917 
Q 1875 428 2675 428 
Q 3081 428 3442 575 
Q 3803 722 4122 1019 
L 4122 359 
Q 3791 134 3420 21 
Q 3050 -91 2638 -91 
Q 1578 -91 968 557 
Q 359 1206 359 2328 
Q 359 3453 968 4101 
Q 1578 4750 2638 4750 
Q 3056 4750 3426 4639 
Q 3797 4528 4122 4306 
z
" transform="scale(0.015625)"/>
       <path id="DejaVuSans-52" d="M 2841 2188 
Q 3044 2119 3236 1894 
Q 3428 1669 3622 1275 
L 4263 0 
L 3584 0 
L 2988 1197 
Q 2756 1666 2539 1819 
Q 2322 1972 1947 1972 
L 1259 1972 
L 1259 0 
L 628 0 
L 628 4666 
L 2053 4666 
Q 2853 4666 3247 4331 
Q 3641 3997 3641 3322 
Q 3641 2881 3436 2590 
Q 3231 2300 2841 2188 
z
M 1259 4147 
L 1259 2491 
L 2053 2491 
Q 2509 2491 2742 2702 
Q 2975 2913 2975 3322 
Q 2975 3731 2742 3939 
Q 2509 4147 2053 4147 
L 1259 4147 
z
" transform="scale(0.015625)"/>
       <path id="DejaVuSans-4f" d="M 2522 4238 
Q 1834 4238 1429 3725 
Q 1025 3213 1025 2328 
Q 1025 1447 1429 934 
Q 1834 422 2522 422 
Q 3209 422 3611 934 
Q 4013 1447 4013 2328 
Q 4013 3213 3611 3725 
Q 3209 4238 2522 4238 
z
M 2522 4750 
Q 3503 4750 4090 4092 
Q 4678 3434 4678 2328 
Q 4678 1225 4090 567 
Q 3503 -91 2522 -91 
Q 1538 -91 948 565 
Q 359 1222 359 2328 
Q 359 3434 948 4092 
Q 1538 4750 2522 4750 
z
" transform="scale(0.015625)"/>
       <path id="DejaVuSans-36" d="M 2113 2584 
Q 1688 2584 1439 2293 
Q 1191 2003 1191 1497 
Q 1191 994 1439 701 
Q 1688 409 2113 409 
Q 2538 409 2786 701 
Q 3034 994 3034 1497 
Q 3034 2003 2786 2293 
Q 2538 2584 2113 2584 
z
M 3366 4563 
L 3366 3988 
Q 3128 4100 2886 4159 
Q 2644 4219 2406 4219 
Q 1781 4219 1451 3797 
Q 1122 3375 1075 2522 
Q 1259 2794 1537 2939 
Q 1816 3084 2150 3084 
Q 2853 3084 3261 2657 
Q 3669 2231 3669 1497 
Q 3669 778 3244 343 
Q 2819 -91 2113 -91 
Q 1303 -91 875 529 
Q 447 1150 447 2328 
Q 447 3434 972 4092 
Q 1497 4750 2381 4750 
Q 2619 4750 2861 4703 
Q 3103 4656 3366 4563 
z
" transform="scale(0.015625)"/>
       <path id="DejaVuSans-20" transform="scale(0.015625)"/>
       <path id="DejaVuSans-48" d="M 628 4666 
L 1259 4666 
L 1259 2753 
L 3553 2753 
L 3553 4666 
L 4184 4666 
L 4184 0 
L 3553 0 
L 3553 2222 
L 1259 2222 
L 1259 0 
L 628 0 
L 628 4666 
z
" transform="scale(0.015625)"/>
       <path id="DejaVuSans-2d" d="M 313 2009 
L 1997 2009 
L 1997 1497 
L 313 1497 
L 313 2009 
z
" transform="scale(0.015625)"/>
       <path id="DejaVuSans-54" d="M -19 4666 
L 3928 4666 
L 3928 4134 
L 2272 4134 
L 2272 0 
L 1638 0 
L 1638 4134 
L -19 4134 
L -19 4666 
z
" transform="scale(0.015625)"/>
       <path id="DejaVuSans-59" d="M -13 4666 
L 666 4666 
L 1959 2747 
L 3244 4666 
L 3922 4666 
L 2272 2222 
L 2272 0 
L 1638 0 
L 1638 2222 
L -13 4666 
z
" transform="scale(0.015625)"/>
       <path id="DejaVuSans-31" d="M 794 531 
L 1825 531 
L 1825 4091 
L 703 3866 
L 703 4441 
L 1819 4666 
L 2450 4666 
L 2450 531 
L 3481 531 
L 3481 0 
L 794 0 
L 794 531 
z
" transform="scale(0.015625)"/>
       <path id="DejaVuSans-44" d="M 1259 4147 
L 1259 519 
L 2022 519 
Q 2988 519 3436 956 
Q 3884 1394 3884 2338 
Q 3884 3275 3436 3711 
Q 2988 4147 2022 4147 
L 1259 4147 
z
M 628 4666 
L 1925 4666 
Q 3281 4666 3915 4102 
Q 4550 3538 4550 2338 
Q 4550 1131 3912 565 
Q 3275 0 1925 0 
L 628 0 
L 628 4666 
z
" transform="scale(0.015625)"/>
       <path id="DejaVuSans-69" d="M 603 3500 
L 1178 3500 
L 1178 0 
L 603 0 
L 603 3500 
z
M 603 4863 
L 1178 4863 
L 1178 4134 
L 603 4134 
L 603 4863 
z
" transform="scale(0.015625)"/>
       <path id="DejaVuSans-73" d="M 2834 3397 
L 2834 2853 
Q 2591 2978 2328 3040 
Q 2066 3103 1784 3103 
Q 1356 3103 1142 2972 
Q 928 2841 928 2578 
Q 928 2378 1081 2264 
Q 1234 2150 1697 2047 
L 1894 2003 
Q 2506 1872 2764 1633 
Q 3022 1394 3022 966 
Q 3022 478 2636 193 
Q 2250 -91 1575 -91 
Q 1294 -91 989 -36 
Q 684 19 347 128 
L 347 722 
Q 666 556 975 473 
Q 1284 391 1588 391 
Q 1994 391 2212 530 
Q 2431 669 2431 922 
Q 2431 1156 2273 1281 
Q 2116 1406 1581 1522 
L 1381 1569 
Q 847 1681 609 1914 
Q 372 2147 372 2553 
Q 372 3047 722 3315 
Q 1072 3584 1716 3584 
Q 2034 3584 2315 3537 
Q 2597 3491 2834 3397 
z
" transform="scale(0.015625)"/>
       <path id="DejaVuSans-74" d="M 1172 4494 
L 1172 3500 
L 2356 3500 
L 2356 3053 
L 1172 3053 
L 1172 1153 
Q 1172 725 1289 603 
Q 1406 481 1766 481 
L 2356 481 
L 2356 0 
L 1766 0 
Q 1100 0 847 248 
Q 594 497 594 1153 
L 594 3053 
L 172 3053 
L 172 3500 
L 594 3500 
L 594 4494 
L 1172 4494 
z
" transform="scale(0.015625)"/>
       <path id="DejaVuSans-61" d="M 2194 1759 
Q 1497 1759 1228 1600 
Q 959 1441 959 1056 
Q 959 750 1161 570 
Q 1363 391 1709 391 
Q 2188 391 2477 730 
Q 2766 1069 2766 1631 
L 2766 1759 
L 2194 1759 
z
M 3341 1997 
L 3341 0 
L 2766 0 
L 2766 531 
Q 2569 213 2275 61 
Q 1981 -91 1556 -91 
Q 1019 -91 701 211 
Q 384 513 384 1019 
Q 384 1609 779 1909 
Q 1175 2209 1959 2209 
L 2766 2209 
L 2766 2266 
Q 2766 2663 2505 2880 
Q 2244 3097 1772 3097 
Q 1472 3097 1187 3025 
Q 903 2953 641 2809 
L 641 3341 
Q 956 3463 1253 3523 
Q 1550 3584 1831 3584 
Q 2591 3584 2966 3190 
Q 3341 2797 3341 1997 
z
" transform="scale(0.015625)"/>
       <path id="DejaVuSans-6e" d="M 3513 2113 
L 3513 0 
L 2938 0 
L 2938 2094 
Q 2938 2591 2744 2837 
Q 2550 3084 2163 3084 
Q 1697 3084 1428 2787 
Q 1159 2491 1159 1978 
L 1159 0 
L 581 0 
L 581 3500 
L 1159 3500 
L 1159 2956 
Q 1366 3272 1645 3428 
Q 1925 3584 2291 3584 
Q 2894 3584 3203 3211 
Q 3513 2838 3513 2113 
z
" transform="scale(0.015625)"/>
       <path id="DejaVuSans-63" d="M 3122 3366 
L 3122 2828 
Q 2878 2963 2633 3030 
Q 2388 3097 2138 3097 
Q 1578 3097 1268 2742 
Q 959 2388 959 1747 
Q 959 1106 1268 751 
Q 1578 397 2138 397 
Q 2388 397 2633 464 
Q 2878 531 3122 666 
L 3122 134 
Q 2881 22 2623 -34 
Q 2366 -91 2075 -91 
Q 1284 -91 818 406 
Q 353 903 353 1747 
Q 353 2603 823 3093 
Q 1294 3584 2113 3584 
Q 2378 3584 2631 3529 
Q 2884 3475 3122 3366 
z
" transform="scale(0.015625)"/>
       <path id="DejaVuSans-65" d="M 3597 1894 
L 3597 1613 
L 953 1613 
Q 991 1019 1311 708 
Q 1631 397 2203 397 
Q 2534 397 2845 478 
Q 3156 559 3463 722 
L 3463 178 
Q 3153 47 2828 -22 
Q 2503 -91 2169 -91 
Q 1331 -91 842 396 
Q 353 884 353 1716 
Q 353 2575 817 3079 
Q 1281 3584 2069 3584 
Q 2775 3584 3186 3129 
Q 3597 2675 3597 1894 
z
M 3022 2063 
Q 3016 2534 2758 2815 
Q 2500 3097 2075 3097 
Q 1594 3097 1305 2825 
Q 1016 2553 972 2059 
L 3022 2063 
z
" transform="scale(0.015625)"/>
       <path id="DejaVuSans-5b" d="M 550 4863 
L 1875 4863 
L 1875 4416 
L 1125 4416 
L 1125 -397 
L 1875 -397 
L 1875 -844 
L 550 -844 
L 550 4863 
z
" transform="scale(0.015625)"/>
       <path id="DejaVuSans-c5" d="M 2663 5081 
Q 2663 5278 2523 5417 
Q 2384 5556 2188 5556 
Q 1988 5556 1852 5420 
Q 1716 5284 1716 5081 
Q 1716 4884 1853 4746 
Q 1991 4609 2188 4609 
Q 2384 4609 2523 4746 
Q 2663 4884 2663 5081 
z
M 2188 4044 
L 1338 1722 
L 3041 1722 
L 2188 4044 
z
M 1716 4366 
Q 1525 4494 1428 4673 
Q 1331 4853 1331 5081 
Q 1331 5441 1579 5691 
Q 1828 5941 2188 5941 
Q 2544 5941 2795 5689 
Q 3047 5438 3047 5081 
Q 3047 4863 2948 4678 
Q 2850 4494 2663 4366 
L 4325 0 
L 3669 0 
L 3244 1197 
L 1141 1197 
L 716 0 
L 50 0 
L 1716 4366 
z
" transform="scale(0.015625)"/>
       <path id="DejaVuSans-5d" d="M 1947 4863 
L 1947 -844 
L 622 -844 
L 622 -397 
L 1369 -397 
L 1369 4416 
L 622 4416 
L 622 4863 
L 1947 4863 
z
" transform="scale(0.015625)"/>
      </defs>
      <use xlink:href="#DejaVuSans-43"/>
      <use xlink:href="#DejaVuSans-52" x="69.824219"/>
      <use xlink:href="#DejaVuSans-4f" x="139.306641"/>
      <use xlink:href="#DejaVuSans-36" x="218.017578"/>
      <use xlink:href="#DejaVuSans-36" x="281.640625"/>
      <use xlink:href="#DejaVuSans-20" x="345.263672"/>
      <use xlink:href="#DejaVuSans-4f" x="377.050781"/>
      <use xlink:href="#DejaVuSans-48" x="455.761719"/>
      <use xlink:href="#DejaVuSans-20" x="530.957031"/>
      <use xlink:href="#DejaVuSans-2d" x="562.744141"/>
      <use xlink:href="#DejaVuSans-20" x="598.828125"/>
      <use xlink:href="#DejaVuSans-54" x="630.615234"/>
      <use xlink:href="#DejaVuSans-59" x="691.699219"/>
      <use xlink:href="#DejaVuSans-52" x="752.783203"/>
      <use xlink:href="#DejaVuSans-31" x="822.265625"/>
      <use xlink:href="#DejaVuSans-34" x="885.888672"/>
      <use xlink:href="#DejaVuSans-35" x="949.511719"/>
      <use xlink:href="#DejaVuSans-20" x="1013.134766"/>
      <use xlink:href="#DejaVuSans-4f" x="1044.921875"/>
      <use xlink:href="#DejaVuSans-48" x="1123.632812"/>
      <use xlink:href="#DejaVuSans-20" x="1198.828125"/>
      <use xlink:href="#DejaVuSans-44" x="1230.615234"/>
      <use xlink:href="#DejaVuSans-69" x="1307.617188"/>
      <use xlink:href="#DejaVuSans-73" x="1335.400391"/>
      <use xlink:href="#DejaVuSans-74" x="1387.5"/>
      <use xlink:href="#DejaVuSans-61" x="1426.708984"/>
      <use xlink:href="#DejaVuSans-6e" x="1487.988281"/>
      <use xlink:href="#DejaVuSans-63" x="1551.367188"/>
      <use xlink:href="#DejaVuSans-65" x="1606.347656"/>
      <use xlink:href="#DejaVuSans-20" x="1667.871094"/>
      <use xlink:href="#DejaVuSans-5b" x="1699.658203"/>
      <use xlink:href="#DejaVuSans-c5" x="1738.671875"/>
      <use xlink:href="#DejaVuSans-5d" x="1807.080078"/>
     </g>
    </g>
   </g>
   <g id="matplotlib.axis_2">
    <g id="ytick_1">
     <g id="line2d_10">
      <defs>
       <path id="me17a53d3f7" d="M 0 0 
L -3.5 0 
" style="stroke: #000000; stroke-width: 0.8"/>
      </defs>
      <g>
       <use xlink:href="#me17a53d3f7" x="47.81" y="302.8525" style="stroke: #000000; stroke-width: 0.8"/>
      </g>
     </g>
     <g id="text_11">
      <!-- 0.0 -->
      <g transform="translate(24.906875 306.651719) scale(0.1 -0.1)">
       <use xlink:href="#DejaVuSans-30"/>
       <use xlink:href="#DejaVuSans-2e" x="63.623047"/>
       <use xlink:href="#DejaVuSans-30" x="95.410156"/>
      </g>
     </g>
    </g>
    <g id="ytick_2">
     <g id="line2d_11">
      <g>
       <use xlink:href="#me17a53d3f7" x="47.81" y="266.840937" style="stroke: #000000; stroke-width: 0.8"/>
      </g>
     </g>
     <g id="text_12">
      <!-- 0.5 -->
      <g transform="translate(24.906875 270.640156) scale(0.1 -0.1)">
       <use xlink:href="#DejaVuSans-30"/>
       <use xlink:href="#DejaVuSans-2e" x="63.623047"/>
       <use xlink:href="#DejaVuSans-35" x="95.410156"/>
      </g>
     </g>
    </g>
    <g id="ytick_3">
     <g id="line2d_12">
      <g>
       <use xlink:href="#me17a53d3f7" x="47.81" y="230.829375" style="stroke: #000000; stroke-width: 0.8"/>
      </g>
     </g>
     <g id="text_13">
      <!-- 1.0 -->
      <g transform="translate(24.906875 234.628594) scale(0.1 -0.1)">
       <use xlink:href="#DejaVuSans-31"/>
       <use xlink:href="#DejaVuSans-2e" x="63.623047"/>
       <use xlink:href="#DejaVuSans-30" x="95.410156"/>
      </g>
     </g>
    </g>
    <g id="ytick_4">
     <g id="line2d_13">
      <g>
       <use xlink:href="#me17a53d3f7" x="47.81" y="194.817812" style="stroke: #000000; stroke-width: 0.8"/>
      </g>
     </g>
     <g id="text_14">
      <!-- 1.5 -->
      <g transform="translate(24.906875 198.617031) scale(0.1 -0.1)">
       <use xlink:href="#DejaVuSans-31"/>
       <use xlink:href="#DejaVuSans-2e" x="63.623047"/>
       <use xlink:href="#DejaVuSans-35" x="95.410156"/>
      </g>
     </g>
    </g>
    <g id="ytick_5">
     <g id="line2d_14">
      <g>
       <use xlink:href="#me17a53d3f7" x="47.81" y="158.80625" style="stroke: #000000; stroke-width: 0.8"/>
      </g>
     </g>
     <g id="text_15">
      <!-- 2.0 -->
      <g transform="translate(24.906875 162.605469) scale(0.1 -0.1)">
       <use xlink:href="#DejaVuSans-32"/>
       <use xlink:href="#DejaVuSans-2e" x="63.623047"/>
       <use xlink:href="#DejaVuSans-30" x="95.410156"/>
      </g>
     </g>
    </g>
    <g id="ytick_6">
     <g id="line2d_15">
      <g>
       <use xlink:href="#me17a53d3f7" x="47.81" y="122.794687" style="stroke: #000000; stroke-width: 0.8"/>
      </g>
     </g>
     <g id="text_16">
      <!-- 2.5 -->
      <g transform="translate(24.906875 126.593906) scale(0.1 -0.1)">
       <use xlink:href="#DejaVuSans-32"/>
       <use xlink:href="#DejaVuSans-2e" x="63.623047"/>
       <use xlink:href="#DejaVuSans-35" x="95.410156"/>
      </g>
     </g>
    </g>
    <g id="ytick_7">
     <g id="line2d_16">
      <g>
       <use xlink:href="#me17a53d3f7" x="47.81" y="86.783125" style="stroke: #000000; stroke-width: 0.8"/>
      </g>
     </g>
     <g id="text_17">
      <!-- 3.0 -->
      <g transform="translate(24.906875 90.582344) scale(0.1 -0.1)">
       <use xlink:href="#DejaVuSans-33"/>
       <use xlink:href="#DejaVuSans-2e" x="63.623047"/>
       <use xlink:href="#DejaVuSans-30" x="95.410156"/>
      </g>
     </g>
    </g>
    <g id="ytick_8">
     <g id="line2d_17">
      <g>
       <use xlink:href="#me17a53d3f7" x="47.81" y="50.771562" style="stroke: #000000; stroke-width: 0.8"/>
      </g>
     </g>
     <g id="text_18">
      <!-- 3.5 -->
      <g transform="translate(24.906875 54.570781) scale(0.1 -0.1)">
       <use xlink:href="#DejaVuSans-33"/>
       <use xlink:href="#DejaVuSans-2e" x="63.623047"/>
       <use xlink:href="#DejaVuSans-35" x="95.410156"/>
      </g>
     </g>
    </g>
    <g id="ytick_9">
     <g id="line2d_18">
      <g>
       <use xlink:href="#me17a53d3f7" x="47.81" y="14.76" style="stroke: #000000; stroke-width: 0.8"/>
      </g>
     </g>
     <g id="text_19">
      <!-- 4.0 -->
      <g transform="translate(24.906875 18.559219) scale(0.1 -0.1)">
       <use xlink:href="#DejaVuSans-34"/>
       <use xlink:href="#DejaVuSans-2e" x="63.623047"/>
       <use xlink:href="#DejaVuSans-30" x="95.410156"/>
      </g>
     </g>
    </g>
    <g id="text_20">
     <!-- PMF [kcal/mol] -->
     <g transform="translate(18.827188 195.602344) rotate(-90) scale(0.1 -0.1)">
      <defs>
       <path id="DejaVuSans-50" d="M 1259 4147 
L 1259 2394 
L 2053 2394 
Q 2494 2394 2734 2622 
Q 2975 2850 2975 3272 
Q 2975 3691 2734 3919 
Q 2494 4147 2053 4147 
L 1259 4147 
z
M 628 4666 
L 2053 4666 
Q 2838 4666 3239 4311 
Q 3641 3956 3641 3272 
Q 3641 2581 3239 2228 
Q 2838 1875 2053 1875 
L 1259 1875 
L 1259 0 
L 628 0 
L 628 4666 
z
" transform="scale(0.015625)"/>
       <path id="DejaVuSans-4d" d="M 628 4666 
L 1569 4666 
L 2759 1491 
L 3956 4666 
L 4897 4666 
L 4897 0 
L 4281 0 
L 4281 4097 
L 3078 897 
L 2444 897 
L 1241 4097 
L 1241 0 
L 628 0 
L 628 4666 
z
" transform="scale(0.015625)"/>
       <path id="DejaVuSans-46" d="M 628 4666 
L 3309 4666 
L 3309 4134 
L 1259 4134 
L 1259 2759 
L 3109 2759 
L 3109 2228 
L 1259 2228 
L 1259 0 
L 628 0 
L 628 4666 
z
" transform="scale(0.015625)"/>
       <path id="DejaVuSans-6b" d="M 581 4863 
L 1159 4863 
L 1159 1991 
L 2875 3500 
L 3609 3500 
L 1753 1863 
L 3688 0 
L 2938 0 
L 1159 1709 
L 1159 0 
L 581 0 
L 581 4863 
z
" transform="scale(0.015625)"/>
       <path id="DejaVuSans-6c" d="M 603 4863 
L 1178 4863 
L 1178 0 
L 603 0 
L 603 4863 
z
" transform="scale(0.015625)"/>
       <path id="DejaVuSans-2f" d="M 1625 4666 
L 2156 4666 
L 531 -594 
L 0 -594 
L 1625 4666 
z
" transform="scale(0.015625)"/>
       <path id="DejaVuSans-6d" d="M 3328 2828 
Q 3544 3216 3844 3400 
Q 4144 3584 4550 3584 
Q 5097 3584 5394 3201 
Q 5691 2819 5691 2113 
L 5691 0 
L 5113 0 
L 5113 2094 
Q 5113 2597 4934 2840 
Q 4756 3084 4391 3084 
Q 3944 3084 3684 2787 
Q 3425 2491 3425 1978 
L 3425 0 
L 2847 0 
L 2847 2094 
Q 2847 2600 2669 2842 
Q 2491 3084 2119 3084 
Q 1678 3084 1418 2786 
Q 1159 2488 1159 1978 
L 1159 0 
L 581 0 
L 581 3500 
L 1159 3500 
L 1159 2956 
Q 1356 3278 1631 3431 
Q 1906 3584 2284 3584 
Q 2666 3584 2933 3390 
Q 3200 3197 3328 2828 
z
" transform="scale(0.015625)"/>
       <path id="DejaVuSans-6f" d="M 1959 3097 
Q 1497 3097 1228 2736 
Q 959 2375 959 1747 
Q 959 1119 1226 758 
Q 1494 397 1959 397 
Q 2419 397 2687 759 
Q 2956 1122 2956 1747 
Q 2956 2369 2687 2733 
Q 2419 3097 1959 3097 
z
M 1959 3584 
Q 2709 3584 3137 3096 
Q 3566 2609 3566 1747 
Q 3566 888 3137 398 
Q 2709 -91 1959 -91 
Q 1206 -91 779 398 
Q 353 888 353 1747 
Q 353 2609 779 3096 
Q 1206 3584 1959 3584 
z
" transform="scale(0.015625)"/>
      </defs>
      <use xlink:href="#DejaVuSans-50"/>
      <use xlink:href="#DejaVuSans-4d" x="60.302734"/>
      <use xlink:href="#DejaVuSans-46" x="146.582031"/>
      <use xlink:href="#DejaVuSans-20" x="204.101562"/>
      <use xlink:href="#DejaVuSans-5b" x="235.888672"/>
      <use xlink:href="#DejaVuSans-6b" x="274.902344"/>
      <use xlink:href="#DejaVuSans-63" x="332.8125"/>
      <use xlink:href="#DejaVuSans-61" x="387.792969"/>
      <use xlink:href="#DejaVuSans-6c" x="449.072266"/>
      <use xlink:href="#DejaVuSans-2f" x="476.855469"/>
      <use xlink:href="#DejaVuSans-6d" x="510.546875"/>
      <use xlink:href="#DejaVuSans-6f" x="607.958984"/>
      <use xlink:href="#DejaVuSans-6c" x="669.140625"/>
      <use xlink:href="#DejaVuSans-5d" x="696.923828"/>
     </g>
    </g>
   </g>
   <g id="line2d_19">
    <path d="M 120.696807 -1 
L 123.354334 30.534273 
L 126.289995 62.835032 
L 129.225656 92.355453 
L 132.161316 119.038347 
L 135.096977 143.25324 
L 138.032638 165.374792 
L 140.968298 185.48566 
L 143.903959 203.503564 
L 145.861066 214.332606 
L 147.818173 224.23622 
L 149.77528 233.25264 
L 151.732387 241.429251 
L 153.689494 248.821863 
L 155.646602 255.501154 
L 157.603709 261.556105 
L 159.560816 267.082945 
L 162.496476 274.543843 
L 164.453584 279.003429 
L 166.410691 283.03205 
L 168.367798 286.599161 
L 170.324905 289.689798 
L 172.282012 292.315228 
L 174.239119 294.507728 
L 176.196226 296.306591 
L 178.153333 297.744421 
L 180.11044 298.840838 
L 182.067548 299.606913 
L 184.024655 300.058064 
L 185.981762 300.226628 
L 187.938869 300.162791 
L 189.895976 299.919508 
L 192.831637 299.283994 
L 194.788744 298.675182 
L 196.745851 297.89026 
L 198.702958 296.90692 
L 200.660065 295.718734 
L 203.595726 293.587262 
L 206.531386 291.136047 
L 210.445601 287.519331 
L 213.381261 284.533646 
L 216.316922 281.284851 
L 220.231136 276.633798 
L 225.123904 270.471717 
L 230.995225 262.623448 
L 242.737868 246.887375 
L 250.566296 236.622135 
L 258.394725 226.591942 
L 262.308939 221.095886 
L 267.201707 214.140366 
L 270.137367 210.325944 
L 274.051582 205.741254 
L 280.901456 197.864637 
L 285.794224 191.824008 
L 289.708438 186.97665 
L 291.665546 184.792418 
L 294.601206 181.921037 
L 299.493974 177.407103 
L 302.429635 174.358011 
L 311.236617 164.861288 
L 317.107938 158.635796 
L 320.043599 155.239997 
L 326.893473 147.113908 
L 328.850581 145.317576 
L 330.807688 143.956893 
L 332.764795 142.979518 
L 335.700455 141.903113 
L 338.636116 140.81984 
L 340.593223 139.918979 
L 342.55033 138.831378 
L 345.485991 136.888948 
L 348.421652 134.648765 
L 351.357312 132.101873 
L 356.25008 127.650898 
L 359.185741 125.422851 
L 363.099955 122.633397 
L 366.035616 120.216454 
L 369.94983 116.927932 
L 371.906937 115.597084 
L 373.864044 114.618947 
L 375.821151 113.979662 
L 378.756812 113.404279 
L 384.628133 112.387131 
L 387.563794 111.687855 
L 390.499454 110.737065 
L 393.435115 109.556948 
L 395.392222 108.590047 
L 397.349329 107.331188 
L 399.306436 105.65798 
L 401.263544 103.596105 
L 404.199204 100.336564 
L 406.156311 98.594804 
L 407.134865 97.964437 
L 408.113418 97.514504 
L 409.091972 97.242815 
L 410.070526 97.135804 
L 411.049079 97.170957 
L 413.006186 97.542178 
L 415.941847 98.219434 
L 416.9204 98.2793 
L 417.898954 98.175763 
L 418.877508 97.873531 
L 419.856061 97.353806 
L 420.834615 96.618667 
L 422.791722 94.625245 
L 425.727382 91.258692 
L 426.705936 90.319397 
L 427.684489 89.555263 
L 428.663043 88.979648 
L 429.641597 88.579986 
L 431.598704 88.167008 
L 435.512918 87.678944 
L 437.470025 87.121428 
L 439.427132 86.254968 
L 442.362793 84.540987 
L 448.234114 80.95605 
L 452.148328 78.52632 
L 456.062543 75.78831 
L 461.8 71.507227 
L 461.8 71.507227 
" clip-path="url(#p51740ee585)" style="fill: none; stroke: #1e2e79; stroke-width: 2.5; stroke-linecap: square"/>
   </g>
   <g id="line2d_20">
    <path d="M 121.992539 -1 
L 123.354334 17.185171 
L 125.311441 40.585972 
L 128.247102 72.793591 
L 132.161316 113.412289 
L 134.118423 132.064741 
L 136.075531 149.068765 
L 138.032638 164.404049 
L 139.989745 178.303254 
L 142.925405 197.103332 
L 145.861066 214.009855 
L 148.796727 229.198005 
L 150.753834 238.358211 
L 152.710941 246.759887 
L 154.668048 254.444028 
L 156.625155 261.448165 
L 158.582262 267.781985 
L 160.539369 273.440478 
L 162.496476 278.44314 
L 164.453584 282.85428 
L 166.410691 286.757205 
L 168.367798 290.20399 
L 170.324905 293.191959 
L 172.282012 295.693705 
L 174.239119 297.711784 
L 176.196226 299.304464 
L 178.153333 300.560137 
L 180.11044 301.546376 
L 182.067548 302.27763 
L 184.024655 302.724369 
L 185.981762 302.8525 
L 187.938869 302.661677 
L 189.895976 302.195193 
L 191.853083 301.518597 
L 194.788744 300.229035 
L 197.724404 298.68404 
L 200.660065 296.877621 
L 203.595726 294.746271 
L 205.552833 293.097224 
L 207.50994 291.226622 
L 209.467047 289.112853 
L 212.402708 285.536527 
L 226.102457 267.788188 
L 234.909439 255.262393 
L 253.501957 227.986201 
L 259.373278 219.352957 
L 263.287492 214.06067 
L 269.158814 206.462356 
L 273.073028 200.791923 
L 278.944349 192.296261 
L 282.858564 186.924642 
L 285.794224 183.32162 
L 289.708438 178.65326 
L 292.644099 174.713262 
L 298.51542 166.384972 
L 300.472528 164.034597 
L 302.429635 162.098679 
L 304.386742 160.536883 
L 307.322402 158.37 
L 309.27951 156.617153 
L 311.236617 154.47912 
L 319.065045 145.232771 
L 322.979259 141.132392 
L 325.91492 138.504429 
L 329.829134 135.212696 
L 331.786241 133.295431 
L 334.721902 129.995698 
L 337.657563 126.324113 
L 343.528884 118.720121 
L 346.464545 115.328323 
L 348.421652 113.288984 
L 350.378759 111.586971 
L 352.335866 110.336944 
L 356.25008 108.246384 
L 358.207187 106.751783 
L 361.142848 104.338422 
L 363.099955 103.219056 
L 367.014169 101.595655 
L 367.992723 100.968894 
L 369.94983 99.3151 
L 372.88549 96.655735 
L 373.864044 95.991209 
L 374.842598 95.497439 
L 376.799705 94.942193 
L 379.735365 94.390258 
L 380.713919 94.057668 
L 381.692472 93.587789 
L 382.671026 92.964372 
L 383.64958 92.184626 
L 385.606687 90.2031 
L 388.542347 86.605865 
L 390.499454 84.295792 
L 392.456562 82.458076 
L 394.413669 81.148476 
L 396.370776 80.014693 
L 398.327883 78.552332 
L 400.28499 76.56257 
L 403.220651 73.360574 
L 404.199204 72.501948 
L 406.156311 71.219039 
L 408.113418 70.157856 
L 409.091972 69.51781 
L 410.070526 68.731234 
L 412.027633 66.744435 
L 413.98474 64.668543 
L 414.963293 63.838126 
L 415.941847 63.236727 
L 416.9204 62.871589 
L 417.898954 62.699479 
L 421.813168 62.393469 
L 423.770275 61.735868 
L 425.727382 60.684808 
L 427.684489 59.352863 
L 429.641597 57.766104 
L 432.577257 55.166158 
L 433.555811 54.4854 
L 434.534364 54.063478 
L 435.512918 53.985886 
L 436.491471 54.286953 
L 437.470025 54.931709 
L 441.384239 58.492431 
L 442.362793 58.957843 
L 443.341346 59.08531 
L 444.3199 58.861706 
L 445.298453 58.307547 
L 446.277007 57.467416 
L 448.234114 55.173393 
L 452.148328 50.059385 
L 453.126882 49.065584 
L 454.105435 48.282493 
L 455.083989 47.71242 
L 456.062543 47.322268 
L 458.01965 46.838623 
L 461.8 46.052204 
L 461.8 46.052204 
" clip-path="url(#p51740ee585)" style="fill: none; stroke: #f99752; stroke-width: 2.5; stroke-linecap: square"/>
   </g>
   <g id="patch_3">
    <path d="M 47.81 302.8525 
L 47.81 14.76 
" style="fill: none; stroke: #000000; stroke-width: 0.8; stroke-linejoin: miter; stroke-linecap: square"/>
   </g>
   <g id="patch_4">
    <path d="M 438.84 302.8525 
L 438.84 14.76 
" style="fill: none; stroke: #000000; stroke-width: 0.8; stroke-linejoin: miter; stroke-linecap: square"/>
   </g>
   <g id="patch_5">
    <path d="M 47.81 302.8525 
L 438.84 302.8525 
" style="fill: none; stroke: #000000; stroke-width: 0.8; stroke-linejoin: miter; stroke-linecap: square"/>
   </g>
   <g id="patch_6">
    <path d="M 47.81 14.76 
L 438.84 14.76 
" style="fill: none; stroke: #000000; stroke-width: 0.8; stroke-linejoin: miter; stroke-linecap: square"/>
   </g>
   <g id="legend_1">
    <g id="patch_7">
     <path d="M 354.693125 52.11625 
L 431.84 52.11625 
Q 433.84 52.11625 433.84 50.11625 
L 433.84 21.76 
Q 433.84 19.76 431.84 19.76 
L 354.693125 19.76 
Q 352.693125 19.76 352.693125 21.76 
L 352.693125 50.11625 
Q 352.693125 52.11625 354.693125 52.11625 
z
" style="fill: #ffffff; opacity: 0.8; stroke: #cccccc; stroke-linejoin: miter"/>
    </g>
    <g id="line2d_21">
     <path d="M 356.693125 27.858437 
L 366.693125 27.858437 
L 376.693125 27.858437 
" style="fill: none; stroke: #1e2e79; stroke-width: 2.5; stroke-linecap: square"/>
    </g>
    <g id="text_21">
     <!-- Unbound -->
     <g transform="translate(384.693125 31.358437) scale(0.1 -0.1)">
      <defs>
       <path id="DejaVuSans-55" d="M 556 4666 
L 1191 4666 
L 1191 1831 
Q 1191 1081 1462 751 
Q 1734 422 2344 422 
Q 2950 422 3222 751 
Q 3494 1081 3494 1831 
L 3494 4666 
L 4128 4666 
L 4128 1753 
Q 4128 841 3676 375 
Q 3225 -91 2344 -91 
Q 1459 -91 1007 375 
Q 556 841 556 1753 
L 556 4666 
z
" transform="scale(0.015625)"/>
       <path id="DejaVuSans-62" d="M 3116 1747 
Q 3116 2381 2855 2742 
Q 2594 3103 2138 3103 
Q 1681 3103 1420 2742 
Q 1159 2381 1159 1747 
Q 1159 1113 1420 752 
Q 1681 391 2138 391 
Q 2594 391 2855 752 
Q 3116 1113 3116 1747 
z
M 1159 2969 
Q 1341 3281 1617 3432 
Q 1894 3584 2278 3584 
Q 2916 3584 3314 3078 
Q 3713 2572 3713 1747 
Q 3713 922 3314 415 
Q 2916 -91 2278 -91 
Q 1894 -91 1617 61 
Q 1341 213 1159 525 
L 1159 0 
L 581 0 
L 581 4863 
L 1159 4863 
L 1159 2969 
z
" transform="scale(0.015625)"/>
       <path id="DejaVuSans-75" d="M 544 1381 
L 544 3500 
L 1119 3500 
L 1119 1403 
Q 1119 906 1312 657 
Q 1506 409 1894 409 
Q 2359 409 2629 706 
Q 2900 1003 2900 1516 
L 2900 3500 
L 3475 3500 
L 3475 0 
L 2900 0 
L 2900 538 
Q 2691 219 2414 64 
Q 2138 -91 1772 -91 
Q 1169 -91 856 284 
Q 544 659 544 1381 
z
M 1991 3584 
L 1991 3584 
z
" transform="scale(0.015625)"/>
       <path id="DejaVuSans-64" d="M 2906 2969 
L 2906 4863 
L 3481 4863 
L 3481 0 
L 2906 0 
L 2906 525 
Q 2725 213 2448 61 
Q 2172 -91 1784 -91 
Q 1150 -91 751 415 
Q 353 922 353 1747 
Q 353 2572 751 3078 
Q 1150 3584 1784 3584 
Q 2172 3584 2448 3432 
Q 2725 3281 2906 2969 
z
M 947 1747 
Q 947 1113 1208 752 
Q 1469 391 1925 391 
Q 2381 391 2643 752 
Q 2906 1113 2906 1747 
Q 2906 2381 2643 2742 
Q 2381 3103 1925 3103 
Q 1469 3103 1208 2742 
Q 947 2381 947 1747 
z
" transform="scale(0.015625)"/>
      </defs>
      <use xlink:href="#DejaVuSans-55"/>
      <use xlink:href="#DejaVuSans-6e" x="73.193359"/>
      <use xlink:href="#DejaVuSans-62" x="136.572266"/>
      <use xlink:href="#DejaVuSans-6f" x="200.048828"/>
      <use xlink:href="#DejaVuSans-75" x="261.230469"/>
      <use xlink:href="#DejaVuSans-6e" x="324.609375"/>
      <use xlink:href="#DejaVuSans-64" x="387.988281"/>
     </g>
    </g>
    <g id="line2d_22">
     <path d="M 356.693125 42.536563 
L 366.693125 42.536563 
L 376.693125 42.536563 
" style="fill: none; stroke: #f99752; stroke-width: 2.5; stroke-linecap: square"/>
    </g>
    <g id="text_22">
     <!-- Bound -->
     <g transform="translate(384.693125 46.036563) scale(0.1 -0.1)">
      <defs>
       <path id="DejaVuSans-42" d="M 1259 2228 
L 1259 519 
L 2272 519 
Q 2781 519 3026 730 
Q 3272 941 3272 1375 
Q 3272 1813 3026 2020 
Q 2781 2228 2272 2228 
L 1259 2228 
z
M 1259 4147 
L 1259 2741 
L 2194 2741 
Q 2656 2741 2882 2914 
Q 3109 3088 3109 3444 
Q 3109 3797 2882 3972 
Q 2656 4147 2194 4147 
L 1259 4147 
z
M 628 4666 
L 2241 4666 
Q 2963 4666 3353 4366 
Q 3744 4066 3744 3513 
Q 3744 3084 3544 2831 
Q 3344 2578 2956 2516 
Q 3422 2416 3680 2098 
Q 3938 1781 3938 1306 
Q 3938 681 3513 340 
Q 3088 0 2303 0 
L 628 0 
L 628 4666 
z
" transform="scale(0.015625)"/>
      </defs>
      <use xlink:href="#DejaVuSans-42"/>
      <use xlink:href="#DejaVuSans-6f" x="68.603516"/>
      <use xlink:href="#DejaVuSans-75" x="129.785156"/>
      <use xlink:href="#DejaVuSans-6e" x="193.164062"/>
      <use xlink:href="#DejaVuSans-64" x="256.542969"/>
     </g>
    </g>
   </g>
  </g>
 </g>
 <defs>
  <clipPath id="p51740ee585">
   <rect x="47.81" y="14.76" width="391.03" height="288.0925"/>
  </clipPath>
 </defs>
</svg>
