<?xml version="1.0" encoding="utf-8" standalone="no"?>
<!DOCTYPE svg PUBLIC "-//W3C//DTD SVG 1.1//EN"
  "http://www.w3.org/Graphics/SVG/1.1/DTD/svg11.dtd">
<svg xmlns:xlink="http://www.w3.org/1999/xlink" width="460.8pt" height="345.6pt" viewBox="0 0 460.8 345.6" xmlns="http://www.w3.org/2000/svg" version="1.1">
 <metadata>
  <rdf:RDF xmlns:dc="http://purl.org/dc/elements/1.1/" xmlns:cc="http://creativecommons.org/ns#" xmlns:rdf="http://www.w3.org/1999/02/22-rdf-syntax-ns#">
   <cc:Work>
    <dc:type rdf:resource="http://purl.org/dc/dcmitype/StillImage"/>
    <dc:date>2024-07-17T15:01:37.340090</dc:date>
    <dc:format>image/svg+xml</dc:format>
    <dc:creator>
     <cc:Agent>
      <dc:title>Matplotlib v3.9.1, https://matplotlib.org/</dc:title>
     </cc:Agent>
    </dc:creator>
   </cc:Work>
  </rdf:RDF>
 </metadata>
 <defs>
  <style type="text/css">*{stroke-linejoin: round; stroke-linecap: butt}</style>
 </defs>
 <g id="figure_1">
  <g id="patch_1">
   <path d="M 0 345.6 
L 460.8 345.6 
L 460.8 0 
L 0 0 
z
" style="fill: #ffffff"/>
  </g>
  <g id="axes_1">
   <g id="patch_2">
    <path d="M 66.125 299.536 
L 447.84 299.536 
L 447.84 12.96 
L 66.125 12.96 
z
" style="fill: #ffffff"/>
   </g>
   <g id="line2d_1">
    <path d="M 66.125 296.54194 
L 67.186794 296.088293 
L 69.310382 294.545907 
L 70.372177 294.194758 
L 70.903074 293.909644 
L 71.964868 292.933521 
L 73.026662 291.940842 
L 74.619353 291.074326 
L 75.681147 289.694954 
L 76.212045 289.022581 
L 76.742942 288.623868 
L 78.335633 288.02532 
L 78.86653 287.471636 
L 79.928324 285.628302 
L 80.990118 283.593513 
L 82.051912 282.151603 
L 83.113707 280.960748 
L 83.644604 279.987098 
L 84.706398 277.617305 
L 85.768192 275.743398 
L 86.299089 274.283873 
L 86.829986 272.132105 
L 88.953574 261.590983 
L 90.015369 258.468748 
L 90.546266 256.929177 
L 91.077163 254.990774 
L 92.138957 249.861098 
L 93.731648 239.664442 
L 94.793442 233.591893 
L 95.855236 228.197533 
L 96.917031 221.013864 
L 97.978825 213.762188 
L 100.102413 202.113538 
L 102.756898 185.814198 
L 104.880487 169.736 
L 105.411384 167.19657 
L 106.473178 163.292129 
L 108.596766 151.641027 
L 109.127663 149.748919 
L 110.189458 144.672654 
L 111.251252 138.886335 
L 112.313046 131.276239 
L 113.37484 122.915057 
L 113.905737 120.268289 
L 114.967531 117.572803 
L 115.498428 116.150326 
L 116.560223 112.304978 
L 118.152914 105.231228 
L 118.683811 103.990348 
L 119.214708 103.297665 
L 119.745605 102.411392 
L 120.276502 100.749829 
L 121.338296 96.199629 
L 121.869193 94.878739 
L 122.40009 94.636174 
L 122.930987 94.943576 
L 123.461885 95.069089 
L 123.992782 94.52166 
L 124.523679 93.226526 
L 126.11637 88.441212 
L 126.647267 87.074178 
L 127.178164 85.375344 
L 128.239958 81.036684 
L 128.770855 79.506765 
L 129.301752 78.871013 
L 129.83265 78.66449 
L 130.363547 78.137921 
L 130.894444 76.858242 
L 132.487135 71.497016 
L 133.018032 70.829826 
L 133.548929 70.732299 
L 134.079826 71.06939 
L 134.610723 72.181933 
L 135.672517 76.286064 
L 136.203414 77.618813 
L 137.265209 78.553754 
L 137.796106 79.732233 
L 139.388797 85.483693 
L 139.919694 86.919646 
L 140.450591 88.696742 
L 142.043282 96.198845 
L 143.635974 100.753177 
L 144.166871 103.25578 
L 146.290459 115.132062 
L 147.352253 118.91696 
L 149.475841 128.714686 
L 150.006739 130.434329 
L 150.537636 132.578028 
L 151.59943 138.750459 
L 153.192121 149.703932 
L 154.784812 161.597651 
L 155.315709 164.501133 
L 156.908401 171.174612 
L 159.031989 182.696334 
L 160.093783 186.64765 
L 160.62468 189.558552 
L 161.686474 196.734018 
L 162.217371 199.433148 
L 162.748268 200.906593 
L 163.810063 202.228392 
L 164.34096 203.260916 
L 165.402754 205.883295 
L 165.933651 206.859234 
L 166.464548 207.467176 
L 166.995445 207.654002 
L 168.057239 207.108434 
L 168.588136 207.156242 
L 169.119033 207.572328 
L 169.64993 207.812856 
L 170.180828 207.478412 
L 171.773519 205.168341 
L 172.304416 204.128492 
L 173.897107 200.035584 
L 174.958901 198.651356 
L 175.489798 197.079106 
L 176.551592 191.971086 
L 177.613387 187.069112 
L 178.144284 185.355921 
L 179.206078 182.859137 
L 179.736975 181.891931 
L 180.267872 181.550283 
L 180.798769 182.128327 
L 181.329666 183.490894 
L 182.39146 187.473614 
L 183.453255 192.593368 
L 185.045946 200.291303 
L 187.169534 209.417999 
L 188.231328 215.802209 
L 193.009402 247.807015 
L 194.071196 254.362744 
L 195.663887 265.106005 
L 196.194784 267.628124 
L 196.725682 269.428241 
L 198.318373 273.747482 
L 200.441961 281.432038 
L 202.565549 288.059942 
L 203.627344 290.044951 
L 205.750932 293.092948 
L 207.343623 294.72899 
L 208.405417 295.584445 
L 209.998108 296.70021 
L 211.059903 297.421376 
L 212.121697 297.873735 
L 214.245285 298.629949 
L 215.837976 299.153949 
L 217.430668 299.317629 
L 240.790139 299.536 
L 432.974882 299.439329 
L 438.283853 299.187775 
L 439.876544 299.011283 
L 440.938338 298.97185 
L 442.000132 298.674572 
L 443.061926 298.344003 
L 445.185515 298.148565 
L 446.247309 297.44697 
L 447.309103 296.739321 
L 447.84 296.54194 
L 447.84 296.54194 
" clip-path="url(#p0c315493b6)" style="fill: none; stroke: #1e2e79; stroke-width: 2.5; stroke-linecap: square"/>
   </g>
   <g id="line2d_2">
    <path d="M 66.125 297.249538 
L 67.186794 297.050118 
L 68.248588 296.625655 
L 68.779485 296.293616 
L 69.84128 295.250605 
L 71.433971 293.358613 
L 71.964868 292.999478 
L 74.088456 292.275581 
L 75.15025 291.353835 
L 76.212045 289.988853 
L 77.804736 287.816748 
L 79.397427 286.183951 
L 80.459221 284.393437 
L 83.644604 278.556323 
L 84.706398 275.551303 
L 85.768192 271.435257 
L 87.360883 263.315963 
L 88.953574 254.461294 
L 90.546266 243.761052 
L 92.138957 231.319538 
L 93.731648 217.467082 
L 94.793442 205.925075 
L 95.855236 193.088744 
L 96.917031 183.193218 
L 97.978825 172.521937 
L 100.102413 147.162109 
L 101.164207 136.921084 
L 102.226001 128.992993 
L 102.756898 123.877336 
L 104.34959 104.615518 
L 105.411384 96.812251 
L 106.473178 88.720384 
L 109.127663 63.947553 
L 111.782149 45.319673 
L 112.843943 40.957428 
L 113.905737 37.750721 
L 114.436634 36.637581 
L 114.967531 36.000608 
L 116.029325 35.351296 
L 116.560223 35.236859 
L 117.09112 35.425705 
L 118.152914 36.14164 
L 118.683811 36.32803 
L 119.214708 36.140249 
L 120.276502 34.913201 
L 120.807399 34.259856 
L 121.869193 32.329789 
L 122.40009 31.913776 
L 123.461885 32.616858 
L 123.992782 32.533067 
L 124.523679 32.291831 
L 125.054576 32.346979 
L 125.585473 32.667108 
L 126.11637 32.711783 
L 126.647267 32.017198 
L 128.770855 26.880807 
L 129.301752 26.606476 
L 129.83265 27.537435 
L 130.363547 29.679769 
L 133.018032 43.530845 
L 133.548929 47.204631 
L 134.610723 57.340645 
L 136.203414 74.575485 
L 137.265209 82.610896 
L 138.327003 88.162896 
L 139.388797 93.446307 
L 139.919694 97.723173 
L 142.043282 121.479751 
L 143.635974 135.627345 
L 146.821356 163.27795 
L 148.414047 174.283922 
L 150.006739 187.711066 
L 151.068533 194.500305 
L 153.192121 206.378112 
L 154.784812 214.345039 
L 157.439298 227.277568 
L 157.970195 229.735792 
L 159.031989 233.103354 
L 159.562886 234.709832 
L 161.686474 242.444764 
L 162.217371 243.098274 
L 162.748268 243.497351 
L 163.279166 244.332157 
L 163.810063 245.895239 
L 164.871857 249.446786 
L 165.402754 250.299131 
L 165.933651 250.536619 
L 166.995445 250.540786 
L 167.526342 250.237465 
L 168.057239 249.757308 
L 168.588136 249.547506 
L 169.64993 250.050045 
L 170.180828 249.944166 
L 171.242622 248.885482 
L 171.773519 248.192103 
L 172.304416 247.282683 
L 172.835313 246.042935 
L 174.428004 241.466789 
L 174.958901 240.898848 
L 175.489798 240.772593 
L 176.020695 240.462123 
L 176.551592 239.592188 
L 177.613387 237.492753 
L 178.144284 237.08796 
L 178.675181 236.915744 
L 179.206078 236.590327 
L 179.736975 236.087645 
L 180.267872 235.84411 
L 180.798769 236.32196 
L 181.860563 238.776507 
L 183.453255 242.698045 
L 185.576843 249.433893 
L 190.354917 265.179392 
L 192.478505 271.082006 
L 194.602093 278.767853 
L 195.663887 282.857662 
L 196.194784 284.44447 
L 196.725682 285.633654 
L 197.787476 287.172778 
L 198.318373 287.955437 
L 199.380167 290.366516 
L 199.911064 291.604258 
L 200.441961 292.47631 
L 200.972858 292.937332 
L 202.034652 293.471105 
L 203.096446 294.493848 
L 204.689138 296.105849 
L 205.220035 296.427652 
L 206.281829 296.632932 
L 207.343623 296.789878 
L 208.405417 297.326177 
L 209.998108 298.284036 
L 211.059903 298.602302 
L 214.776182 299.123828 
L 215.837976 299.277853 
L 227.517712 299.535984 
L 435.09847 299.455802 
L 436.691161 299.425194 
L 438.283853 299.466111 
L 439.345647 299.235777 
L 440.938338 298.721735 
L 442.531029 298.684678 
L 443.592823 298.261749 
L 444.654618 297.866454 
L 446.247309 297.486233 
L 447.309103 297.269739 
L 447.84 297.249538 
L 447.84 297.249538 
" clip-path="url(#p0c315493b6)" style="fill: none; stroke: #ec4067; stroke-width: 2.5; stroke-linecap: square"/>
   </g>
   <g id="matplotlib.axis_1">
    <g id="xtick_1">
     <g id="line2d_3">
      <defs>
       <path id="m5ecb1283f2" d="M 0 0 
L 0 3.5 
" style="stroke: #c2c1c1; stroke-width: 0.8"/>
      </defs>
      <g>
       <use xlink:href="#m5ecb1283f2" x="66.125" y="299.536" style="fill: #c2c1c1; stroke: #c2c1c1; stroke-width: 0.8"/>
      </g>
     </g>
     <g id="text_1">
      <!-- −180 -->
      <g style="fill: #191919" transform="translate(54.835938 314.036) scale(0.1 -0.1)">
       <defs>
        <path id="Roboto-Regular-2212" d="M 3134 2509 
L 3134 2034 
L 525 2034 
L 525 2509 
L 3134 2509 
z
" transform="scale(0.015625)"/>
        <path id="Roboto-Regular-31" d="M 2278 4575 
L 2278 0 
L 1700 0 
L 1700 3853 
L 534 3428 
L 534 3950 
L 2188 4575 
L 2278 4575 
z
" transform="scale(0.015625)"/>
        <path id="Roboto-Regular-38" d="M 3244 1231 
Q 3244 606 2826 271 
Q 2409 -63 1796 -63 
Q 1184 -63 767 271 
Q 350 606 350 1231 
Q 350 1613 554 1905 
Q 759 2197 1109 2347 
Q 806 2494 629 2762 
Q 453 3031 453 3366 
Q 453 3963 833 4288 
Q 1213 4613 1794 4613 
Q 2378 4613 2758 4288 
Q 3138 3963 3138 3366 
Q 3138 3028 2956 2761 
Q 2775 2494 2472 2347 
Q 2825 2197 3034 1903 
Q 3244 1609 3244 1231 
z
M 2559 3356 
Q 2559 3697 2346 3917 
Q 2134 4138 1793 4138 
Q 1453 4138 1243 3927 
Q 1034 3716 1034 3356 
Q 1034 3003 1243 2790 
Q 1453 2578 1797 2578 
Q 2138 2578 2348 2790 
Q 2559 3003 2559 3356 
z
M 2663 1244 
Q 2663 1625 2420 1865 
Q 2178 2106 1791 2106 
Q 1394 2106 1161 1865 
Q 928 1625 928 1244 
Q 928 850 1161 631 
Q 1394 413 1797 413 
Q 2200 413 2431 631 
Q 2663 850 2663 1244 
z
" transform="scale(0.015625)"/>
        <path id="Roboto-Regular-30" d="M 3234 1944 
Q 3234 825 2848 381 
Q 2463 -63 1800 -63 
Q 1156 -63 764 368 
Q 372 800 359 1872 
L 359 2638 
Q 359 3753 750 4183 
Q 1141 4613 1794 4613 
Q 2447 4613 2834 4195 
Q 3222 3778 3234 2709 
L 3234 1944 
z
M 2653 2734 
Q 2653 3503 2434 3822 
Q 2216 4141 1794 4141 
Q 1388 4141 1167 3831 
Q 947 3522 941 2778 
L 941 1850 
Q 941 1088 1164 750 
Q 1388 413 1800 413 
Q 2222 413 2436 745 
Q 2650 1078 2653 1825 
L 2653 2734 
z
" transform="scale(0.015625)"/>
       </defs>
       <use xlink:href="#Roboto-Regular-2212"/>
       <use xlink:href="#Roboto-Regular-31" x="57.177734"/>
       <use xlink:href="#Roboto-Regular-38" x="113.378906"/>
       <use xlink:href="#Roboto-Regular-30" x="169.580078"/>
      </g>
     </g>
    </g>
    <g id="xtick_2">
     <g id="line2d_4">
      <g>
       <use xlink:href="#m5ecb1283f2" x="129.744167" y="299.536" style="fill: #c2c1c1; stroke: #c2c1c1; stroke-width: 0.8"/>
      </g>
     </g>
     <g id="text_2">
      <!-- −120 -->
      <g style="fill: #191919" transform="translate(118.455104 314.036) scale(0.1 -0.1)">
       <defs>
        <path id="Roboto-Regular-32" d="M 3359 475 
L 3359 0 
L 381 0 
L 381 416 
L 1925 2134 
Q 2306 2566 2439 2819 
Q 2572 3072 2572 3328 
Q 2572 3663 2364 3900 
Q 2156 4138 1778 4138 
Q 1322 4138 1097 3878 
Q 872 3619 872 3213 
L 294 3213 
Q 294 3788 672 4200 
Q 1050 4613 1778 4613 
Q 2422 4613 2786 4278 
Q 3150 3944 3150 3397 
Q 3150 2997 2903 2592 
Q 2656 2188 2297 1797 
L 1078 475 
L 3359 475 
z
" transform="scale(0.015625)"/>
       </defs>
       <use xlink:href="#Roboto-Regular-2212"/>
       <use xlink:href="#Roboto-Regular-31" x="57.177734"/>
       <use xlink:href="#Roboto-Regular-32" x="113.378906"/>
       <use xlink:href="#Roboto-Regular-30" x="169.580078"/>
      </g>
     </g>
    </g>
    <g id="xtick_3">
     <g id="line2d_5">
      <g>
       <use xlink:href="#m5ecb1283f2" x="193.363333" y="299.536" style="fill: #c2c1c1; stroke: #c2c1c1; stroke-width: 0.8"/>
      </g>
     </g>
     <g id="text_3">
      <!-- −60 -->
      <g style="fill: #191919" transform="translate(184.884427 314.036) scale(0.1 -0.1)">
       <defs>
        <path id="Roboto-Regular-36" d="M 3291 1484 
Q 3291 838 2930 387 
Q 2569 -63 1878 -63 
Q 1388 -63 1063 198 
Q 738 459 577 861 
Q 416 1263 416 1684 
L 416 1956 
Q 416 2597 595 3194 
Q 775 3791 1247 4173 
Q 1719 4556 2597 4556 
L 2647 4556 
L 2647 4066 
Q 2041 4066 1705 3853 
Q 1369 3641 1205 3302 
Q 1041 2963 1006 2575 
Q 1369 2984 1984 2984 
Q 2438 2984 2727 2765 
Q 3016 2547 3153 2201 
Q 3291 1856 3291 1484 
z
M 997 1666 
Q 997 1059 1267 737 
Q 1538 416 1878 416 
Q 2278 416 2498 708 
Q 2719 1000 2719 1456 
Q 2719 1863 2516 2184 
Q 2313 2506 1891 2506 
Q 1588 2506 1341 2325 
Q 1094 2144 997 1884 
L 997 1666 
z
" transform="scale(0.015625)"/>
       </defs>
       <use xlink:href="#Roboto-Regular-2212"/>
       <use xlink:href="#Roboto-Regular-36" x="57.177734"/>
       <use xlink:href="#Roboto-Regular-30" x="113.378906"/>
      </g>
     </g>
    </g>
    <g id="xtick_4">
     <g id="line2d_6">
      <g>
       <use xlink:href="#m5ecb1283f2" x="256.9825" y="299.536" style="fill: #c2c1c1; stroke: #c2c1c1; stroke-width: 0.8"/>
      </g>
     </g>
     <g id="text_4">
      <!-- 0 -->
      <g style="fill: #191919" transform="translate(254.172344 314.036) scale(0.1 -0.1)">
       <use xlink:href="#Roboto-Regular-30"/>
      </g>
     </g>
    </g>
    <g id="xtick_5">
     <g id="line2d_7">
      <g>
       <use xlink:href="#m5ecb1283f2" x="320.601667" y="299.536" style="fill: #c2c1c1; stroke: #c2c1c1; stroke-width: 0.8"/>
      </g>
     </g>
     <g id="text_5">
      <!-- 60 -->
      <g style="fill: #191919" transform="translate(314.981354 314.036) scale(0.1 -0.1)">
       <use xlink:href="#Roboto-Regular-36"/>
       <use xlink:href="#Roboto-Regular-30" x="56.201172"/>
      </g>
     </g>
    </g>
    <g id="xtick_6">
     <g id="line2d_8">
      <g>
       <use xlink:href="#m5ecb1283f2" x="384.220833" y="299.536" style="fill: #c2c1c1; stroke: #c2c1c1; stroke-width: 0.8"/>
      </g>
     </g>
     <g id="text_6">
      <!-- 120 -->
      <g style="fill: #191919" transform="translate(375.790365 314.036) scale(0.1 -0.1)">
       <use xlink:href="#Roboto-Regular-31"/>
       <use xlink:href="#Roboto-Regular-32" x="56.201172"/>
       <use xlink:href="#Roboto-Regular-30" x="112.402344"/>
      </g>
     </g>
    </g>
    <g id="xtick_7">
     <g id="line2d_9">
      <g>
       <use xlink:href="#m5ecb1283f2" x="447.84" y="299.536" style="fill: #c2c1c1; stroke: #c2c1c1; stroke-width: 0.8"/>
      </g>
     </g>
     <g id="text_7">
      <!-- 180 -->
      <g style="fill: #191919" transform="translate(439.409531 314.036) scale(0.1 -0.1)">
       <use xlink:href="#Roboto-Regular-31"/>
       <use xlink:href="#Roboto-Regular-38" x="56.201172"/>
       <use xlink:href="#Roboto-Regular-30" x="112.402344"/>
      </g>
     </g>
    </g>
    <g id="text_8">
     <!-- Tyr145 C Asn146 N-CA-C Dihedral [°] -->
     <g style="fill: #191919" transform="translate(156.574375 329.999125) scale(0.12 -0.12)">
      <defs>
       <path id="Roboto-Bold-54" d="M 128 3791 
L 128 4550 
L 3831 4550 
L 3831 3791 
L 2441 3791 
L 2441 0 
L 1503 0 
L 1503 3791 
L 128 3791 
z
" transform="scale(0.015625)"/>
       <path id="Roboto-Bold-79" d="M 769 -1366 
Q 594 -1366 369 -1306 
L 369 -622 
L 509 -625 
Q 775 -625 903 -539 
Q 1031 -453 1097 -266 
L 1197 -6 
L 13 3381 
L 984 3381 
L 1613 1275 
L 2238 3381 
L 3203 3381 
L 1850 -506 
Q 1791 -675 1675 -876 
Q 1559 -1078 1342 -1222 
Q 1125 -1366 769 -1366 
z
" transform="scale(0.015625)"/>
       <path id="Roboto-Bold-72" d="M 1922 2563 
Q 1413 2563 1253 2216 
L 1253 0 
L 347 0 
L 347 3381 
L 1200 3381 
L 1228 2978 
Q 1494 3444 1981 3444 
Q 2153 3444 2259 3403 
L 2250 2538 
L 1922 2563 
z
" transform="scale(0.015625)"/>
       <path id="Roboto-Bold-31" d="M 2503 4556 
L 2503 0 
L 1600 0 
L 1600 3484 
L 525 3150 
L 525 3881 
L 2406 4556 
L 2503 4556 
z
" transform="scale(0.015625)"/>
       <path id="Roboto-Bold-34" d="M 175 1553 
L 2072 4550 
L 2984 4550 
L 2984 1713 
L 3500 1713 
L 3500 984 
L 2984 984 
L 2984 0 
L 2081 0 
L 2081 984 
L 216 984 
L 175 1553 
z
M 1072 1713 
L 2081 1713 
L 2081 3328 
L 2019 3219 
L 1072 1713 
z
" transform="scale(0.015625)"/>
       <path id="Roboto-Bold-35" d="M 1166 2063 
L 447 2238 
L 706 4550 
L 3256 4550 
L 3256 3800 
L 1450 3800 
L 1338 2819 
Q 1650 2991 2019 2991 
Q 2681 2991 3043 2587 
Q 3406 2184 3406 1463 
Q 3406 856 3031 396 
Q 2656 -63 1872 -63 
Q 1281 -63 814 287 
Q 347 638 331 1269 
L 1225 1269 
Q 1284 666 1866 666 
Q 2206 666 2354 911 
Q 2503 1156 2503 1513 
Q 2503 1872 2325 2092 
Q 2147 2313 1772 2313 
Q 1525 2313 1390 2233 
Q 1256 2153 1166 2063 
z
" transform="scale(0.015625)"/>
       <path id="Roboto-Bold-20" transform="scale(0.015625)"/>
       <path id="Roboto-Bold-43" d="M 3044 1516 
L 3981 1516 
Q 3934 822 3461 379 
Q 2988 -63 2150 -63 
Q 1275 -63 772 526 
Q 269 1116 269 2125 
L 269 2422 
Q 269 3431 784 4023 
Q 1300 4616 2159 4616 
Q 3013 4616 3466 4161 
Q 3919 3706 3984 3006 
L 3047 3006 
Q 3016 3413 2820 3630 
Q 2625 3847 2159 3847 
Q 1247 3847 1222 2500 
L 1222 2125 
Q 1222 1419 1436 1062 
Q 1650 706 2150 706 
Q 2594 706 2801 907 
Q 3009 1109 3044 1516 
z
" transform="scale(0.015625)"/>
       <path id="Roboto-Bold-41" d="M 25 0 
L 1719 4550 
L 2588 4550 
L 4291 0 
L 3291 0 
L 2978 938 
L 1331 938 
L 1019 0 
L 25 0 
z
M 1584 1697 
L 2725 1697 
L 2156 3406 
L 1584 1697 
z
" transform="scale(0.015625)"/>
       <path id="Roboto-Bold-73" d="M 2178 938 
Q 2178 1081 2045 1179 
Q 1913 1278 1475 1372 
Q 953 1484 618 1721 
Q 284 1959 284 2394 
Q 284 2816 642 3130 
Q 1000 3444 1631 3444 
Q 2291 3444 2669 3134 
Q 3047 2825 3047 2353 
L 2144 2353 
Q 2144 2547 2019 2675 
Q 1894 2803 1628 2803 
Q 1403 2803 1276 2698 
Q 1150 2594 1150 2438 
Q 1150 2294 1284 2200 
Q 1419 2106 1781 2034 
Q 2331 1925 2693 1700 
Q 3056 1475 3056 972 
Q 3056 525 2672 231 
Q 2288 -63 1634 -63 
Q 925 -63 550 301 
Q 175 666 175 1078 
L 1034 1078 
Q 1047 813 1230 697 
Q 1413 581 1653 581 
Q 2178 581 2178 938 
z
" transform="scale(0.015625)"/>
       <path id="Roboto-Bold-6e" d="M 1806 2713 
Q 1422 2713 1234 2388 
L 1234 0 
L 331 0 
L 331 3381 
L 1178 3381 
L 1209 2994 
Q 1572 3444 2181 3444 
Q 2659 3444 2953 3159 
Q 3247 2875 3250 2169 
L 3250 0 
L 2344 0 
L 2344 2156 
Q 2344 2481 2205 2597 
Q 2066 2713 1806 2713 
z
" transform="scale(0.015625)"/>
       <path id="Roboto-Bold-36" d="M 3450 1500 
Q 3450 838 3033 387 
Q 2616 -63 1916 -63 
Q 1188 -63 752 443 
Q 316 950 316 1750 
L 316 2097 
Q 316 3200 925 3898 
Q 1534 4597 2634 4597 
L 2763 4597 
L 2763 3853 
L 2672 3853 
Q 2050 3844 1688 3538 
Q 1313 3219 1238 2675 
Q 1603 3047 2156 3047 
Q 2800 3047 3125 2589 
Q 3450 2131 3450 1500 
z
M 1219 1631 
Q 1219 1150 1408 909 
Q 1597 669 1900 669 
Q 2194 669 2370 901 
Q 2547 1134 2547 1491 
Q 2547 1853 2370 2087 
Q 2194 2322 1881 2322 
Q 1641 2322 1469 2198 
Q 1297 2075 1219 1903 
L 1219 1631 
z
" transform="scale(0.015625)"/>
       <path id="Roboto-Bold-4e" d="M 4109 4550 
L 4109 0 
L 3172 0 
L 1347 2997 
L 1347 0 
L 406 0 
L 406 4550 
L 1347 4550 
L 3172 1550 
L 3172 4550 
L 4109 4550 
z
" transform="scale(0.015625)"/>
       <path id="Roboto-Bold-2d" d="M 2103 2316 
L 2103 1584 
L 347 1584 
L 347 2316 
L 2103 2316 
z
" transform="scale(0.015625)"/>
       <path id="Roboto-Bold-44" d="M 406 0 
L 406 4550 
L 1809 4550 
Q 2728 4550 3308 3950 
Q 3888 3350 3888 2375 
L 3888 2172 
Q 3888 1197 3308 598 
Q 2728 0 1797 0 
L 406 0 
z
M 1347 3791 
L 1347 756 
L 1797 756 
Q 2350 756 2639 1115 
Q 2928 1475 2934 2144 
L 2934 2381 
Q 2934 3075 2661 3428 
Q 2388 3781 1838 3791 
L 1347 3791 
z
" transform="scale(0.015625)"/>
       <path id="Roboto-Bold-69" d="M 341 4256 
Q 341 4459 478 4592 
Q 616 4725 847 4725 
Q 1078 4725 1215 4592 
Q 1353 4459 1353 4256 
Q 1353 4056 1215 3923 
Q 1078 3791 847 3791 
Q 616 3791 478 3923 
Q 341 4056 341 4256 
z
M 1303 3381 
L 1303 0 
L 397 0 
L 397 3381 
L 1303 3381 
z
" transform="scale(0.015625)"/>
       <path id="Roboto-Bold-68" d="M 1803 2713 
Q 1409 2713 1231 2409 
L 1231 0 
L 328 0 
L 328 4800 
L 1231 4800 
L 1231 3016 
Q 1584 3444 2134 3444 
Q 2631 3444 2939 3150 
Q 3247 2856 3250 2147 
L 3250 0 
L 2344 0 
L 2344 2138 
Q 2344 2466 2203 2589 
Q 2063 2713 1803 2713 
z
" transform="scale(0.015625)"/>
       <path id="Roboto-Bold-65" d="M 3225 550 
Q 3063 319 2731 128 
Q 2400 -63 1906 -63 
Q 1119 -63 675 414 
Q 231 891 228 1566 
L 228 1697 
Q 228 2463 654 2953 
Q 1081 3444 1806 3444 
Q 2534 3444 2915 2987 
Q 3297 2531 3297 1781 
L 3297 1397 
L 1144 1397 
Q 1191 1069 1403 867 
Q 1616 666 1963 666 
Q 2478 666 2778 1044 
L 3225 550 
z
M 1800 2716 
Q 1513 2716 1356 2522 
Q 1200 2328 1153 2016 
L 2409 2016 
L 2409 2084 
Q 2403 2356 2258 2536 
Q 2113 2716 1800 2716 
z
" transform="scale(0.015625)"/>
       <path id="Roboto-Bold-64" d="M 2438 0 
L 2394 359 
Q 2059 -63 1528 -63 
Q 900 -63 553 425 
Q 206 913 206 1650 
L 206 1716 
Q 206 2488 553 2966 
Q 900 3444 1534 3444 
Q 2028 3444 2347 3078 
L 2347 4800 
L 3253 4800 
L 3253 0 
L 2438 0 
z
M 1113 1650 
Q 1113 1244 1256 958 
Q 1400 672 1756 672 
Q 2169 672 2347 1022 
L 2347 2363 
Q 2175 2713 1763 2713 
Q 1409 2713 1261 2425 
Q 1113 2138 1113 1650 
z
" transform="scale(0.015625)"/>
       <path id="Roboto-Bold-61" d="M 2306 0 
Q 2250 119 2216 303 
Q 1888 -63 1363 -63 
Q 878 -63 547 223 
Q 216 509 216 950 
Q 216 1481 609 1773 
Q 1003 2066 1775 2066 
L 2178 2066 
L 2178 2263 
Q 2178 2497 2058 2636 
Q 1938 2775 1678 2775 
Q 1194 2775 1194 2369 
L 291 2369 
Q 291 2809 681 3126 
Q 1072 3444 1728 3444 
Q 2313 3444 2698 3147 
Q 3084 2850 3084 2256 
L 3084 750 
Q 3091 300 3219 53 
L 3219 0 
L 2306 0 
z
M 1559 628 
Q 1788 628 1948 729 
Q 2109 831 2178 953 
L 2178 1541 
L 1809 1541 
Q 1450 1541 1284 1389 
Q 1119 1238 1119 1016 
Q 1119 847 1236 737 
Q 1353 628 1559 628 
z
" transform="scale(0.015625)"/>
       <path id="Roboto-Bold-6c" d="M 1303 4800 
L 1303 0 
L 397 0 
L 397 4800 
L 1303 4800 
z
" transform="scale(0.015625)"/>
       <path id="Roboto-Bold-5b" d="M 1728 5297 
L 1728 4600 
L 1281 4600 
L 1281 -366 
L 1728 -366 
L 1728 -1059 
L 375 -1059 
L 375 5297 
L 1728 5297 
z
" transform="scale(0.015625)"/>
       <path id="Roboto-Bold-b0" d="M 397 3750 
Q 397 4103 647 4358 
Q 897 4613 1247 4613 
Q 1591 4613 1836 4358 
Q 2081 4103 2081 3750 
Q 2081 3397 1836 3150 
Q 1591 2903 1247 2903 
Q 897 2903 647 3150 
Q 397 3397 397 3750 
z
M 853 3750 
Q 853 3584 970 3473 
Q 1088 3363 1247 3363 
Q 1406 3363 1515 3473 
Q 1625 3584 1625 3750 
Q 1625 3922 1515 4036 
Q 1406 4150 1247 4150 
Q 1088 4150 970 4036 
Q 853 3922 853 3750 
z
" transform="scale(0.015625)"/>
       <path id="Roboto-Bold-5d" d="M 41 4600 
L 41 5297 
L 1394 5297 
L 1394 -1059 
L 41 -1059 
L 41 -366 
L 491 -366 
L 491 4600 
L 41 4600 
z
" transform="scale(0.015625)"/>
      </defs>
      <use xlink:href="#Roboto-Bold-54"/>
      <use xlink:href="#Roboto-Bold-79" x="61.865234"/>
      <use xlink:href="#Roboto-Bold-72" x="112.109375"/>
      <use xlink:href="#Roboto-Bold-31" x="148.632812"/>
      <use xlink:href="#Roboto-Bold-34" x="206.005859"/>
      <use xlink:href="#Roboto-Bold-35" x="263.378906"/>
      <use xlink:href="#Roboto-Bold-20" x="320.751953"/>
      <use xlink:href="#Roboto-Bold-43" x="345.654297"/>
      <use xlink:href="#Roboto-Bold-20" x="411.132812"/>
      <use xlink:href="#Roboto-Bold-41" x="436.035156"/>
      <use xlink:href="#Roboto-Bold-73" x="503.369141"/>
      <use xlink:href="#Roboto-Bold-6e" x="554.833984"/>
      <use xlink:href="#Roboto-Bold-31" x="610.839844"/>
      <use xlink:href="#Roboto-Bold-34" x="668.212891"/>
      <use xlink:href="#Roboto-Bold-36" x="725.585938"/>
      <use xlink:href="#Roboto-Bold-20" x="782.958984"/>
      <use xlink:href="#Roboto-Bold-4e" x="807.861328"/>
      <use xlink:href="#Roboto-Bold-2d" x="878.515625"/>
      <use xlink:href="#Roboto-Bold-43" x="917.333984"/>
      <use xlink:href="#Roboto-Bold-41" x="982.8125"/>
      <use xlink:href="#Roboto-Bold-2d" x="1050.146484"/>
      <use xlink:href="#Roboto-Bold-43" x="1088.964844"/>
      <use xlink:href="#Roboto-Bold-20" x="1154.443359"/>
      <use xlink:href="#Roboto-Bold-44" x="1179.345703"/>
      <use xlink:href="#Roboto-Bold-69" x="1244.384766"/>
      <use xlink:href="#Roboto-Bold-68" x="1270.898438"/>
      <use xlink:href="#Roboto-Bold-65" x="1326.904297"/>
      <use xlink:href="#Roboto-Bold-64" x="1380.957031"/>
      <use xlink:href="#Roboto-Bold-72" x="1437.353516"/>
      <use xlink:href="#Roboto-Bold-61" x="1473.876953"/>
      <use xlink:href="#Roboto-Bold-6c" x="1527.490234"/>
      <use xlink:href="#Roboto-Bold-20" x="1554.003906"/>
      <use xlink:href="#Roboto-Bold-5b" x="1578.90625"/>
      <use xlink:href="#Roboto-Bold-b0" x="1606.738281"/>
      <use xlink:href="#Roboto-Bold-5d" x="1645.605469"/>
     </g>
    </g>
   </g>
   <g id="matplotlib.axis_2">
    <g id="ytick_1">
     <g id="line2d_10">
      <defs>
       <path id="m45b5a6757b" d="M 0 0 
L -3.5 0 
" style="stroke: #c2c1c1; stroke-width: 0.8"/>
      </defs>
      <g>
       <use xlink:href="#m45b5a6757b" x="66.125" y="299.536" style="fill: #c2c1c1; stroke: #c2c1c1; stroke-width: 0.8"/>
      </g>
     </g>
     <g id="text_9">
      <!-- 0.0000 -->
      <g style="fill: #191919" transform="translate(28.385938 303.286) scale(0.1 -0.1)">
       <defs>
        <path id="Roboto-Regular-2e" d="M 450 306 
Q 450 453 542 554 
Q 634 656 809 656 
Q 984 656 1076 554 
Q 1169 453 1169 306 
Q 1169 163 1076 62 
Q 984 -38 809 -38 
Q 634 -38 542 62 
Q 450 163 450 306 
z
" transform="scale(0.015625)"/>
       </defs>
       <use xlink:href="#Roboto-Regular-30"/>
       <use xlink:href="#Roboto-Regular-2e" x="56.201172"/>
       <use xlink:href="#Roboto-Regular-30" x="82.568359"/>
       <use xlink:href="#Roboto-Regular-30" x="138.769531"/>
       <use xlink:href="#Roboto-Regular-30" x="194.970703"/>
       <use xlink:href="#Roboto-Regular-30" x="251.171875"/>
      </g>
     </g>
    </g>
    <g id="ytick_2">
     <g id="line2d_11">
      <g>
       <use xlink:href="#m45b5a6757b" x="66.125" y="263.581923" style="fill: #c2c1c1; stroke: #c2c1c1; stroke-width: 0.8"/>
      </g>
     </g>
     <g id="text_10">
      <!-- 0.0025 -->
      <g style="fill: #191919" transform="translate(28.385938 267.331923) scale(0.1 -0.1)">
       <defs>
        <path id="Roboto-Regular-35" d="M 1109 2166 
L 647 2284 
L 875 4550 
L 3209 4550 
L 3209 4016 
L 1366 4016 
L 1228 2778 
Q 1572 2975 1988 2975 
Q 2616 2975 2980 2561 
Q 3344 2147 3344 1450 
Q 3344 797 2987 367 
Q 2631 -63 1903 -63 
Q 1350 -63 947 248 
Q 544 559 481 1197 
L 1031 1197 
Q 1141 413 1903 413 
Q 2313 413 2538 691 
Q 2763 969 2763 1444 
Q 2763 1872 2527 2164 
Q 2291 2456 1853 2456 
Q 1563 2456 1413 2378 
Q 1263 2300 1109 2166 
z
" transform="scale(0.015625)"/>
       </defs>
       <use xlink:href="#Roboto-Regular-30"/>
       <use xlink:href="#Roboto-Regular-2e" x="56.201172"/>
       <use xlink:href="#Roboto-Regular-30" x="82.568359"/>
       <use xlink:href="#Roboto-Regular-30" x="138.769531"/>
       <use xlink:href="#Roboto-Regular-32" x="194.970703"/>
       <use xlink:href="#Roboto-Regular-35" x="251.171875"/>
      </g>
     </g>
    </g>
    <g id="ytick_3">
     <g id="line2d_12">
      <g>
       <use xlink:href="#m45b5a6757b" x="66.125" y="227.627846" style="fill: #c2c1c1; stroke: #c2c1c1; stroke-width: 0.8"/>
      </g>
     </g>
     <g id="text_11">
      <!-- 0.0050 -->
      <g style="fill: #191919" transform="translate(28.385938 231.377846) scale(0.1 -0.1)">
       <use xlink:href="#Roboto-Regular-30"/>
       <use xlink:href="#Roboto-Regular-2e" x="56.201172"/>
       <use xlink:href="#Roboto-Regular-30" x="82.568359"/>
       <use xlink:href="#Roboto-Regular-30" x="138.769531"/>
       <use xlink:href="#Roboto-Regular-35" x="194.970703"/>
       <use xlink:href="#Roboto-Regular-30" x="251.171875"/>
      </g>
     </g>
    </g>
    <g id="ytick_4">
     <g id="line2d_13">
      <g>
       <use xlink:href="#m45b5a6757b" x="66.125" y="191.673769" style="fill: #c2c1c1; stroke: #c2c1c1; stroke-width: 0.8"/>
      </g>
     </g>
     <g id="text_12">
      <!-- 0.0075 -->
      <g style="fill: #191919" transform="translate(28.385938 195.423769) scale(0.1 -0.1)">
       <defs>
        <path id="Roboto-Regular-37" d="M 3319 4550 
L 3319 4225 
L 1434 0 
L 825 0 
L 2706 4075 
L 244 4075 
L 244 4550 
L 3319 4550 
z
" transform="scale(0.015625)"/>
       </defs>
       <use xlink:href="#Roboto-Regular-30"/>
       <use xlink:href="#Roboto-Regular-2e" x="56.201172"/>
       <use xlink:href="#Roboto-Regular-30" x="82.568359"/>
       <use xlink:href="#Roboto-Regular-30" x="138.769531"/>
       <use xlink:href="#Roboto-Regular-37" x="194.970703"/>
       <use xlink:href="#Roboto-Regular-35" x="251.171875"/>
      </g>
     </g>
    </g>
    <g id="ytick_5">
     <g id="line2d_14">
      <g>
       <use xlink:href="#m45b5a6757b" x="66.125" y="155.719692" style="fill: #c2c1c1; stroke: #c2c1c1; stroke-width: 0.8"/>
      </g>
     </g>
     <g id="text_13">
      <!-- 0.0100 -->
      <g style="fill: #191919" transform="translate(28.385938 159.469692) scale(0.1 -0.1)">
       <use xlink:href="#Roboto-Regular-30"/>
       <use xlink:href="#Roboto-Regular-2e" x="56.201172"/>
       <use xlink:href="#Roboto-Regular-30" x="82.568359"/>
       <use xlink:href="#Roboto-Regular-31" x="138.769531"/>
       <use xlink:href="#Roboto-Regular-30" x="194.970703"/>
       <use xlink:href="#Roboto-Regular-30" x="251.171875"/>
      </g>
     </g>
    </g>
    <g id="ytick_6">
     <g id="line2d_15">
      <g>
       <use xlink:href="#m45b5a6757b" x="66.125" y="119.765615" style="fill: #c2c1c1; stroke: #c2c1c1; stroke-width: 0.8"/>
      </g>
     </g>
     <g id="text_14">
      <!-- 0.0125 -->
      <g style="fill: #191919" transform="translate(28.385938 123.515615) scale(0.1 -0.1)">
       <use xlink:href="#Roboto-Regular-30"/>
       <use xlink:href="#Roboto-Regular-2e" x="56.201172"/>
       <use xlink:href="#Roboto-Regular-30" x="82.568359"/>
       <use xlink:href="#Roboto-Regular-31" x="138.769531"/>
       <use xlink:href="#Roboto-Regular-32" x="194.970703"/>
       <use xlink:href="#Roboto-Regular-35" x="251.171875"/>
      </g>
     </g>
    </g>
    <g id="ytick_7">
     <g id="line2d_16">
      <g>
       <use xlink:href="#m45b5a6757b" x="66.125" y="83.811538" style="fill: #c2c1c1; stroke: #c2c1c1; stroke-width: 0.8"/>
      </g>
     </g>
     <g id="text_15">
      <!-- 0.0150 -->
      <g style="fill: #191919" transform="translate(28.385938 87.561538) scale(0.1 -0.1)">
       <use xlink:href="#Roboto-Regular-30"/>
       <use xlink:href="#Roboto-Regular-2e" x="56.201172"/>
       <use xlink:href="#Roboto-Regular-30" x="82.568359"/>
       <use xlink:href="#Roboto-Regular-31" x="138.769531"/>
       <use xlink:href="#Roboto-Regular-35" x="194.970703"/>
       <use xlink:href="#Roboto-Regular-30" x="251.171875"/>
      </g>
     </g>
    </g>
    <g id="ytick_8">
     <g id="line2d_17">
      <g>
       <use xlink:href="#m45b5a6757b" x="66.125" y="47.857461" style="fill: #c2c1c1; stroke: #c2c1c1; stroke-width: 0.8"/>
      </g>
     </g>
     <g id="text_16">
      <!-- 0.0175 -->
      <g style="fill: #191919" transform="translate(28.385938 51.607461) scale(0.1 -0.1)">
       <use xlink:href="#Roboto-Regular-30"/>
       <use xlink:href="#Roboto-Regular-2e" x="56.201172"/>
       <use xlink:href="#Roboto-Regular-30" x="82.568359"/>
       <use xlink:href="#Roboto-Regular-31" x="138.769531"/>
       <use xlink:href="#Roboto-Regular-37" x="194.970703"/>
       <use xlink:href="#Roboto-Regular-35" x="251.171875"/>
      </g>
     </g>
    </g>
    <g id="text_17">
     <!-- Density -->
     <g style="fill: #191919" transform="translate(21.824688 176.4755) rotate(-90) scale(0.12 -0.12)">
      <defs>
       <path id="Roboto-Bold-74" d="M 2041 22 
Q 1788 -63 1497 -63 
Q 1053 -63 790 168 
Q 528 400 528 938 
L 528 2722 
L 31 2722 
L 31 3381 
L 528 3381 
L 528 4216 
L 1431 4216 
L 1431 3381 
L 2006 3381 
L 2006 2722 
L 1431 2722 
L 1431 1031 
Q 1431 819 1518 750 
Q 1606 681 1778 681 
Q 1916 681 2041 706 
L 2041 22 
z
" transform="scale(0.015625)"/>
      </defs>
      <use xlink:href="#Roboto-Bold-44"/>
      <use xlink:href="#Roboto-Bold-65" x="65.039062"/>
      <use xlink:href="#Roboto-Bold-6e" x="119.091797"/>
      <use xlink:href="#Roboto-Bold-73" x="175.097656"/>
      <use xlink:href="#Roboto-Bold-69" x="226.5625"/>
      <use xlink:href="#Roboto-Bold-74" x="253.076172"/>
      <use xlink:href="#Roboto-Bold-79" x="286.865234"/>
     </g>
    </g>
   </g>
   <g id="line2d_18">
    <path d="M 66.125 293.132988 
L 68.779485 291.198374 
L 69.84128 289.982891 
L 70.903074 288.132325 
L 71.964868 286.379814 
L 75.681147 281.784088 
L 76.742942 280.410545 
L 78.335633 279.241821 
L 78.86653 278.333721 
L 79.928324 275.499723 
L 80.990118 272.901128 
L 82.582809 270.192247 
L 83.113707 268.960676 
L 84.175501 265.518565 
L 86.829986 255.937129 
L 88.422677 248.066195 
L 92.138957 228.667707 
L 93.731648 217.92576 
L 95.324339 206.946764 
L 96.917031 192.324748 
L 99.571516 169.054969 
L 101.695104 153.09756 
L 102.756898 144.728416 
L 104.880487 130.254999 
L 105.942281 124.205447 
L 108.065869 107.888696 
L 108.596766 105.606491 
L 110.720355 99.108746 
L 111.251252 97.811139 
L 111.782149 96.949407 
L 112.843943 95.914014 
L 113.37484 94.990967 
L 113.905737 93.111798 
L 114.967531 87.278382 
L 115.498428 85.280417 
L 116.029325 84.576253 
L 116.560223 84.721728 
L 117.09112 85.435816 
L 117.622017 86.832655 
L 118.683811 90.674018 
L 119.214708 91.922611 
L 119.745605 92.358593 
L 120.276502 92.32876 
L 120.807399 92.412881 
L 121.338296 92.89139 
L 121.869193 93.520371 
L 122.40009 93.931085 
L 123.461885 94.416895 
L 123.992782 95.023113 
L 125.585473 97.617394 
L 126.647267 99.741733 
L 127.178164 101.342006 
L 129.83265 111.400753 
L 131.425341 117.703525 
L 132.487135 124.31268 
L 134.079826 135.769896 
L 135.672517 143.691557 
L 137.265209 155.297815 
L 138.327003 161.63013 
L 139.388797 169.515547 
L 140.450591 177.352668 
L 141.512385 183.183165 
L 142.574179 188.787564 
L 143.105076 192.287889 
L 144.166871 201.600459 
L 145.228665 211.032297 
L 146.290459 217.528215 
L 149.475841 235.12528 
L 150.537636 239.322909 
L 153.192121 246.992167 
L 155.315709 252.135168 
L 158.501092 255.973256 
L 159.562886 257.266853 
L 160.62468 258.686973 
L 161.155577 258.91291 
L 161.686474 258.765518 
L 162.748268 258.087015 
L 163.279166 257.549036 
L 163.810063 256.68077 
L 165.402754 253.468993 
L 165.933651 252.044681 
L 168.057239 244.341849 
L 168.588136 242.124818 
L 169.119033 239.082991 
L 170.180828 230.187028 
L 171.242622 221.192132 
L 172.304416 212.77902 
L 173.36621 202.109246 
L 176.551592 164.896114 
L 178.144284 148.64753 
L 179.736975 130.525745 
L 180.798769 122.061755 
L 181.329666 118.28511 
L 181.860563 115.388483 
L 182.39146 113.793387 
L 182.922357 112.79913 
L 184.515049 108.805305 
L 185.045946 108.85786 
L 185.576843 110.136543 
L 186.638637 115.122858 
L 187.700431 120.855367 
L 188.231328 124.779097 
L 189.293122 135.657223 
L 190.885814 152.290047 
L 191.947608 161.246559 
L 193.009402 169.572561 
L 194.071196 181.093419 
L 195.663887 200.177798 
L 197.787476 221.038365 
L 198.84927 229.050211 
L 200.441961 240.098481 
L 202.034652 251.96962 
L 204.689138 268.826891 
L 206.281829 276.433201 
L 207.343623 280.255622 
L 208.405417 283.19633 
L 210.529006 288.268639 
L 211.059903 289.537963 
L 211.5908 290.464624 
L 212.652594 291.520772 
L 213.183491 292.023164 
L 213.714388 292.742044 
L 215.837976 296.487315 
L 216.368873 296.866421 
L 217.961565 297.514499 
L 219.023359 298.082548 
L 223.270535 299.106867 
L 226.455918 299.477431 
L 236.542962 299.521219 
L 240.259242 299.534033 
L 278.483832 299.536 
L 433.505779 299.440327 
L 436.160264 299.231776 
L 437.752955 299.181616 
L 439.345647 298.702594 
L 443.061926 297.226611 
L 444.12372 296.549317 
L 447.84 293.132988 
L 447.84 293.132988 
" clip-path="url(#p0c315493b6)" style="fill: none; stroke: #f99752; stroke-width: 2.5; stroke-linecap: square"/>
   </g>
   <g id="patch_3">
    <path d="M 66.125 299.536 
L 66.125 12.96 
" style="fill: none; stroke: #c2c1c1; stroke-width: 0.8; stroke-linejoin: miter; stroke-linecap: square"/>
   </g>
   <g id="patch_4">
    <path d="M 447.84 299.536 
L 447.84 12.96 
" style="fill: none; stroke: #c2c1c1; stroke-width: 0.8; stroke-linejoin: miter; stroke-linecap: square"/>
   </g>
   <g id="patch_5">
    <path d="M 66.125 299.536 
L 447.84 299.536 
" style="fill: none; stroke: #c2c1c1; stroke-width: 0.8; stroke-linejoin: miter; stroke-linecap: square"/>
   </g>
   <g id="patch_6">
    <path d="M 66.125 12.96 
L 447.84 12.96 
" style="fill: none; stroke: #c2c1c1; stroke-width: 0.8; stroke-linejoin: miter; stroke-linecap: square"/>
   </g>
   <g id="legend_1">
    <g id="line2d_19">
     <path d="M 356.8875 28.56 
L 368.8875 28.56 
L 380.8875 28.56 
" style="fill: none; stroke: #1e2e79; stroke-width: 2.5; stroke-linecap: square"/>
    </g>
    <g id="text_18">
     <!-- Reduced -->
     <g transform="translate(390.4875 32.76) scale(0.12 -0.12)">
      <defs>
       <path id="Roboto-Regular-52" d="M 3188 0 
L 2200 1844 
L 1131 1844 
L 1131 0 
L 528 0 
L 528 4550 
L 2034 4550 
Q 2800 4550 3214 4200 
Q 3628 3850 3628 3184 
Q 3628 2759 3398 2442 
Q 3169 2125 2763 1969 
L 3831 38 
L 3831 0 
L 3188 0 
z
M 1131 4056 
L 1131 2334 
L 2053 2334 
Q 2538 2334 2783 2582 
Q 3028 2831 3028 3184 
Q 3028 3578 2792 3817 
Q 2556 4056 2034 4056 
L 1131 4056 
z
" transform="scale(0.015625)"/>
       <path id="Roboto-Regular-65" d="M 3116 591 
Q 2950 341 2647 139 
Q 2344 -63 1844 -63 
Q 1138 -63 714 396 
Q 291 856 291 1572 
L 291 1703 
Q 291 2256 502 2645 
Q 713 3034 1050 3239 
Q 1388 3444 1769 3444 
Q 2494 3444 2826 2970 
Q 3159 2497 3159 1788 
L 3159 1528 
L 872 1528 
Q 884 1063 1148 736 
Q 1413 409 1875 409 
Q 2181 409 2393 534 
Q 2606 659 2766 869 
L 3116 591 
z
M 1769 2969 
Q 1425 2969 1187 2719 
Q 950 2469 891 2000 
L 2581 2000 
L 2581 2044 
Q 2559 2381 2386 2675 
Q 2213 2969 1769 2969 
z
" transform="scale(0.015625)"/>
       <path id="Roboto-Regular-64" d="M 2622 0 
L 2594 363 
Q 2247 -63 1628 -63 
Q 1034 -63 668 418 
Q 303 900 297 1628 
L 297 1719 
Q 297 2494 664 2969 
Q 1031 3444 1634 3444 
Q 2231 3444 2572 3044 
L 2572 4800 
L 3153 4800 
L 3153 0 
L 2622 0 
z
M 878 1653 
Q 878 1150 1090 789 
Q 1303 428 1772 428 
Q 2309 428 2572 919 
L 2572 2475 
Q 2313 2956 1778 2956 
Q 1306 2956 1092 2589 
Q 878 2222 878 1719 
L 878 1653 
z
" transform="scale(0.015625)"/>
       <path id="Roboto-Regular-75" d="M 2538 0 
L 2525 334 
Q 2194 -63 1538 -63 
Q 1041 -63 734 231 
Q 428 525 428 1200 
L 428 3381 
L 1006 3381 
L 1006 1194 
Q 1006 738 1198 583 
Q 1391 428 1628 428 
Q 2281 428 2509 919 
L 2509 3381 
L 3091 3381 
L 3091 0 
L 2538 0 
z
" transform="scale(0.015625)"/>
       <path id="Roboto-Regular-63" d="M 1794 413 
Q 2103 413 2336 597 
Q 2569 781 2591 1069 
L 3141 1069 
Q 3119 616 2725 276 
Q 2331 -63 1794 -63 
Q 1031 -63 661 440 
Q 291 944 291 1625 
L 291 1756 
Q 291 2438 661 2941 
Q 1031 3444 1794 3444 
Q 2388 3444 2753 3092 
Q 3119 2741 3141 2219 
L 2591 2219 
Q 2569 2531 2355 2750 
Q 2141 2969 1794 2969 
Q 1438 2969 1236 2787 
Q 1034 2606 951 2328 
Q 869 2050 869 1756 
L 869 1625 
Q 869 1328 950 1050 
Q 1031 772 1232 592 
Q 1434 413 1794 413 
z
" transform="scale(0.015625)"/>
      </defs>
      <use xlink:href="#Roboto-Regular-52"/>
      <use xlink:href="#Roboto-Regular-65" x="61.621094"/>
      <use xlink:href="#Roboto-Regular-64" x="114.648438"/>
      <use xlink:href="#Roboto-Regular-75" x="171.044922"/>
      <use xlink:href="#Roboto-Regular-63" x="226.171875"/>
      <use xlink:href="#Roboto-Regular-65" x="278.515625"/>
      <use xlink:href="#Roboto-Regular-64" x="331.542969"/>
     </g>
    </g>
    <g id="line2d_20">
     <path d="M 356.8875 45.9975 
L 368.8875 45.9975 
L 380.8875 45.9975 
" style="fill: none; stroke: #ec4067; stroke-width: 2.5; stroke-linecap: square"/>
    </g>
    <g id="text_19">
     <!-- Oxidized -->
     <g transform="translate(390.4875 50.1975) scale(0.12 -0.12)">
      <defs>
       <path id="Roboto-Regular-4f" d="M 4031 2131 
Q 4031 1106 3534 521 
Q 3038 -63 2206 -63 
Q 1397 -63 884 521 
Q 372 1106 372 2131 
L 372 2419 
Q 372 3441 881 4027 
Q 1391 4613 2200 4613 
Q 3025 4613 3523 4036 
Q 4022 3459 4031 2456 
L 4031 2131 
z
M 3434 2425 
Q 3434 3238 3109 3669 
Q 2784 4100 2200 4100 
Q 1641 4100 1305 3669 
Q 969 3238 969 2425 
L 969 2131 
Q 969 1313 1308 880 
Q 1647 447 2206 447 
Q 2794 447 3114 880 
Q 3434 1313 3434 2131 
L 3434 2425 
z
" transform="scale(0.015625)"/>
       <path id="Roboto-Regular-78" d="M 831 3381 
L 1572 2150 
L 2322 3381 
L 3000 3381 
L 1894 1713 
L 3034 0 
L 2366 0 
L 1584 1269 
L 803 0 
L 131 0 
L 1269 1713 
L 166 3381 
L 831 3381 
z
" transform="scale(0.015625)"/>
       <path id="Roboto-Regular-69" d="M 444 4278 
Q 444 4419 530 4516 
Q 616 4613 784 4613 
Q 950 4613 1039 4516 
Q 1128 4419 1128 4278 
Q 1128 4144 1039 4048 
Q 950 3953 784 3953 
Q 616 3953 530 4048 
Q 444 4144 444 4278 
z
M 1069 3381 
L 1069 0 
L 488 0 
L 488 3381 
L 1069 3381 
z
" transform="scale(0.015625)"/>
       <path id="Roboto-Regular-7a" d="M 303 2903 
L 303 3381 
L 2869 3381 
L 2869 2972 
L 988 475 
L 2959 475 
L 2959 0 
L 278 0 
L 278 425 
L 2141 2903 
L 303 2903 
z
" transform="scale(0.015625)"/>
      </defs>
      <use xlink:href="#Roboto-Regular-4f"/>
      <use xlink:href="#Roboto-Regular-78" x="68.798828"/>
      <use xlink:href="#Roboto-Regular-69" x="118.408203"/>
      <use xlink:href="#Roboto-Regular-64" x="142.724609"/>
      <use xlink:href="#Roboto-Regular-69" x="199.121094"/>
      <use xlink:href="#Roboto-Regular-7a" x="223.4375"/>
      <use xlink:href="#Roboto-Regular-65" x="273.046875"/>
      <use xlink:href="#Roboto-Regular-64" x="326.074219"/>
     </g>
    </g>
    <g id="line2d_21">
     <path d="M 356.8875 64.06125 
L 368.8875 64.06125 
L 380.8875 64.06125 
" style="fill: none; stroke: #f99752; stroke-width: 2.5; stroke-linecap: square"/>
    </g>
    <g id="text_20">
     <!-- Cu(I) -->
     <g transform="translate(390.4875 68.26125) scale(0.12 -0.12)">
      <defs>
       <path id="Roboto-Regular-43" d="M 3275 1447 
L 3875 1447 
Q 3806 800 3387 368 
Q 2969 -63 2150 -63 
Q 1356 -63 870 504 
Q 384 1072 375 2013 
L 375 2500 
Q 375 3456 867 4034 
Q 1359 4613 2203 4613 
Q 2975 4613 3390 4188 
Q 3806 3763 3875 3091 
L 3275 3091 
Q 3206 3566 2968 3842 
Q 2731 4119 2203 4119 
Q 1600 4119 1287 3675 
Q 975 3231 975 2506 
L 975 2047 
Q 975 1375 1259 901 
Q 1544 428 2150 428 
Q 2725 428 2961 697 
Q 3197 966 3275 1447 
z
" transform="scale(0.015625)"/>
       <path id="Roboto-Regular-28" d="M 419 1850 
Q 419 2756 678 3434 
Q 938 4113 1294 4541 
Q 1650 4969 1947 5134 
L 2069 4753 
Q 1700 4475 1348 3761 
Q 997 3047 997 1813 
Q 997 625 1348 -97 
Q 1700 -819 2069 -1119 
L 1947 -1469 
Q 1650 -1306 1294 -878 
Q 938 -450 678 226 
Q 419 903 419 1850 
z
" transform="scale(0.015625)"/>
       <path id="Roboto-Regular-49" d="M 1175 4550 
L 1175 0 
L 572 0 
L 572 4550 
L 1175 4550 
z
" transform="scale(0.015625)"/>
       <path id="Roboto-Regular-29" d="M 1772 1819 
Q 1772 906 1512 228 
Q 1253 -450 895 -878 
Q 538 -1306 244 -1469 
L 122 -1119 
Q 488 -841 841 -109 
Q 1194 622 1194 1856 
Q 1194 2647 1019 3236 
Q 844 3825 594 4212 
Q 344 4600 122 4781 
L 244 5134 
Q 538 4969 895 4541 
Q 1253 4113 1512 3436 
Q 1772 2759 1772 1819 
z
" transform="scale(0.015625)"/>
      </defs>
      <use xlink:href="#Roboto-Regular-43"/>
      <use xlink:href="#Roboto-Regular-75" x="65.087891"/>
      <use xlink:href="#Roboto-Regular-28" x="120.214844"/>
      <use xlink:href="#Roboto-Regular-49" x="154.443359"/>
      <use xlink:href="#Roboto-Regular-29" x="181.640625"/>
     </g>
    </g>
   </g>
  </g>
 </g>
 <defs>
  <clipPath id="p0c315493b6">
   <rect x="66.125" y="12.96" width="381.715" height="286.576"/>
  </clipPath>
 </defs>
</svg>
