<?xml version="1.0" encoding="utf-8" standalone="no"?>
<!DOCTYPE svg PUBLIC "-//W3C//DTD SVG 1.1//EN"
  "http://www.w3.org/Graphics/SVG/1.1/DTD/svg11.dtd">
<svg xmlns:xlink="http://www.w3.org/1999/xlink" width="460.8pt" height="345.6pt" viewBox="0 0 460.8 345.6" xmlns="http://www.w3.org/2000/svg" version="1.1">
 <metadata>
  <rdf:RDF xmlns:dc="http://purl.org/dc/elements/1.1/" xmlns:cc="http://creativecommons.org/ns#" xmlns:rdf="http://www.w3.org/1999/02/22-rdf-syntax-ns#">
   <cc:Work>
    <dc:type rdf:resource="http://purl.org/dc/dcmitype/StillImage"/>
    <dc:date>2024-07-17T23:08:17.035015</dc:date>
    <dc:format>image/svg+xml</dc:format>
    <dc:creator>
     <cc:Agent>
      <dc:title>Matplotlib v3.8.4, https://matplotlib.org/</dc:title>
     </cc:Agent>
    </dc:creator>
   </cc:Work>
  </rdf:RDF>
 </metadata>
 <defs>
  <style type="text/css">*{stroke-linejoin: round; stroke-linecap: butt}</style>
 </defs>
 <g id="figure_1">
  <g id="patch_1">
   <path d="M 0 345.6 
L 460.8 345.6 
L 460.8 0 
L 0 0 
z
" style="fill: #ffffff"/>
  </g>
  <g id="axes_1">
   <g id="patch_2">
    <path d="M 47.387 299.176 
L 447.84 299.176 
L 447.84 16.74 
L 47.387 16.74 
z
" style="fill: #ffffff"/>
   </g>
   <g id="line2d_1">
    <path d="M 47.387 242.6888 
L 447.84 242.6888 
" clip-path="url(#p4f7f52ed52)" style="fill: none; stroke-dasharray: 1.75,2.8875; stroke-dashoffset: 0; stroke: #c0c0c0; stroke-width: 1.75"/>
   </g>
   <g id="line2d_2">
    <path d="M 90.344842 -1 
L 92.407794 13.541172 
L 93.52171 20.574906 
L 94.635627 26.575126 
L 95.749544 31.602943 
L 102.433043 57.486817 
L 103.546959 61.228251 
L 108.002626 74.386708 
L 113.572208 95.142728 
L 115.800041 101.532785 
L 118.027875 107.288174 
L 120.255708 112.228198 
L 123.597457 118.393541 
L 129.16704 128.529376 
L 134.736623 137.373278 
L 136.964456 140.239828 
L 139.192289 142.863332 
L 140.306206 144.374856 
L 142.534039 147.982107 
L 145.875788 153.596047 
L 148.103621 156.792662 
L 151.445371 161.501402 
L 153.673204 165.00729 
L 155.901037 169.096865 
L 161.47062 180.753985 
L 163.698453 184.393933 
L 167.040203 189.372384 
L 174.837619 201.730085 
L 178.179368 206.219851 
L 180.407201 208.990924 
L 182.635035 211.460734 
L 185.976784 214.770543 
L 193.7742 222.117566 
L 196.002033 223.863722 
L 198.229866 225.318056 
L 202.685532 227.872078 
L 208.255115 230.88199 
L 212.710781 233.566316 
L 214.938615 234.606889 
L 218.280364 235.734108 
L 223.849947 237.393095 
L 229.41953 238.646708 
L 231.647363 239.005808 
L 237.216946 239.682317 
L 241.672612 240.629038 
L 246.128278 241.539963 
L 253.925694 242.664159 
L 256.153527 242.692852 
L 258.38136 242.469139 
L 263.950943 241.546803 
L 267.292692 240.824775 
L 271.748359 239.581849 
L 277.317941 237.821569 
L 281.773608 236.021757 
L 291.798857 231.831177 
L 294.02669 230.554253 
L 296.254523 229.033979 
L 301.824105 225.073184 
L 309.621521 220.03573 
L 312.963271 217.654481 
L 315.191104 216.065766 
L 317.418937 214.814237 
L 319.64677 213.919847 
L 322.98852 212.910117 
L 325.216353 212.508595 
L 327.444186 212.355192 
L 330.785936 212.38518 
L 333.013769 212.625178 
L 335.241602 213.122563 
L 338.583352 214.210894 
L 341.925101 215.487209 
L 344.152934 216.573962 
L 348.608601 219.001768 
L 350.836434 219.810369 
L 351.95035 220.034986 
L 353.064267 220.119979 
L 354.178183 220.053627 
L 355.2921 219.83165 
L 356.406016 219.460167 
L 358.63385 218.339921 
L 360.861683 216.885273 
L 365.317349 213.624643 
L 367.545182 211.761397 
L 369.773015 209.495725 
L 372.000848 206.740973 
L 374.228681 203.554215 
L 376.456514 200.00086 
L 378.684347 196.093212 
L 380.912181 191.771957 
L 383.140014 186.927955 
L 387.59568 176.794454 
L 392.051346 167.721975 
L 394.279179 162.36686 
L 396.507012 156.146575 
L 399.848762 145.66574 
L 403.190512 135.228512 
L 413.215761 105.205344 
L 415.443594 97.716886 
L 417.671427 89.443821 
L 421.013176 76.304686 
L 423.24101 66.534508 
L 424.354926 60.820617 
L 425.468843 54.363778 
L 427.696676 39.465295 
L 429.924509 24.299488 
L 431.038425 18.044931 
L 432.152342 13.231363 
L 433.266258 9.778582 
L 434.380175 7.272042 
L 436.608008 3.438114 
L 439.334865 -1 
L 439.334865 -1 
" clip-path="url(#p4f7f52ed52)" style="fill: none; stroke: #1e2e79; stroke-width: 2.5; stroke-linecap: square"/>
   </g>
   <g id="line2d_3">
    <path d="M 93.921708 -1 
L 95.749544 17.464308 
L 96.86346 27.402361 
L 97.977377 35.450801 
L 99.091293 41.668649 
L 100.20521 46.486741 
L 106.888709 70.323853 
L 108.002626 73.55211 
L 109.116542 76.300945 
L 110.230459 78.630111 
L 111.344375 80.617497 
L 115.800041 87.715317 
L 116.913958 90.157155 
L 118.027875 93.113911 
L 120.255708 100.326143 
L 122.483541 108.002772 
L 123.597457 111.436046 
L 124.711374 114.376832 
L 125.82529 116.778771 
L 126.939207 118.704063 
L 129.16704 121.774723 
L 131.394873 125.015926 
L 133.622706 129.086939 
L 136.964456 135.70954 
L 139.192289 139.632074 
L 144.761872 148.959537 
L 150.331455 158.550882 
L 152.559288 162.977967 
L 154.787121 168.015242 
L 160.356704 181.118964 
L 163.698453 188.404806 
L 168.154119 197.516536 
L 173.723702 208.185236 
L 175.951535 212.116532 
L 178.179368 215.612313 
L 181.521118 220.320827 
L 183.748951 223.223166 
L 185.976784 225.778521 
L 188.204617 227.969803 
L 193.7742 232.938073 
L 196.002033 234.631041 
L 201.571616 238.329644 
L 204.913366 240.296247 
L 207.141199 241.390732 
L 209.369032 242.292059 
L 211.596865 242.973788 
L 213.824698 243.443041 
L 216.052531 243.731856 
L 219.394281 243.904511 
L 228.305613 244.081079 
L 232.761279 244.302864 
L 241.672612 244.545124 
L 245.014361 244.788103 
L 247.242194 244.722698 
L 249.470028 244.360774 
L 251.697861 243.751361 
L 253.925694 242.938862 
L 256.153527 241.878668 
L 258.38136 240.560956 
L 262.837026 237.833724 
L 268.406609 234.860147 
L 270.634442 233.214507 
L 275.090108 229.385095 
L 280.659691 224.409507 
L 287.34319 218.129803 
L 294.02669 211.484212 
L 304.051939 202.165185 
L 308.507605 197.985965 
L 312.963271 194.17018 
L 315.191104 192.559063 
L 321.874603 188.387697 
L 322.98852 187.932604 
L 324.102436 187.64914 
L 325.216353 187.520773 
L 327.444186 187.552948 
L 331.899852 187.929251 
L 334.127685 188.467621 
L 336.355519 189.460162 
L 341.925101 192.67699 
L 344.152934 193.570767 
L 347.494684 194.701359 
L 349.722517 195.276027 
L 351.95035 195.544469 
L 353.064267 195.514747 
L 354.178183 195.345665 
L 355.2921 195.025168 
L 356.406016 194.557553 
L 358.63385 193.253153 
L 360.861683 191.568009 
L 363.089516 189.564814 
L 365.317349 187.280977 
L 368.659099 183.467524 
L 372.000848 179.318857 
L 375.342598 174.766343 
L 377.570431 171.42321 
L 379.798264 167.498075 
L 382.026097 162.670878 
L 384.25393 156.926171 
L 388.709596 144.900416 
L 392.051346 136.326345 
L 397.620929 120.34539 
L 400.962678 111.890233 
L 403.190512 105.3611 
L 405.418345 98.827168 
L 406.532261 96.051179 
L 408.760094 91.535583 
L 409.874011 89.327967 
L 410.987927 86.740805 
L 412.101844 83.542554 
L 413.215761 79.640037 
L 415.443594 70.130847 
L 417.671427 60.233602 
L 418.785343 55.873741 
L 421.013176 48.404224 
L 423.24101 40.811357 
L 424.354926 36.307149 
L 426.582759 25.720675 
L 428.810592 14.604145 
L 432.238204 -1 
L 432.238204 -1 
" clip-path="url(#p4f7f52ed52)" style="fill: none; stroke: #ec4067; stroke-width: 2.5; stroke-linecap: square"/>
   </g>
   <g id="matplotlib.axis_1">
    <g id="xtick_1">
     <g id="line2d_4">
      <defs>
       <path id="m2467e6388d" d="M 0 0 
L 0 3.5 
" style="stroke: #c2c1c1; stroke-width: 0.8"/>
      </defs>
      <g>
       <use xlink:href="#m2467e6388d" x="47.387" y="299.176" style="fill: #c2c1c1; stroke: #c2c1c1; stroke-width: 0.8"/>
      </g>
     </g>
     <g id="text_1">
      <!-- −210 -->
      <g style="fill: #191919" transform="translate(36.097938 313.676) scale(0.1 -0.1)">
       <defs>
        <path id="Roboto-Regular-2212" d="M 3134 2509 
L 3134 2034 
L 525 2034 
L 525 2509 
L 3134 2509 
z
" transform="scale(0.015625)"/>
        <path id="Roboto-Regular-32" d="M 3359 475 
L 3359 0 
L 381 0 
L 381 416 
L 1925 2134 
Q 2306 2566 2439 2819 
Q 2572 3072 2572 3328 
Q 2572 3663 2364 3900 
Q 2156 4138 1778 4138 
Q 1322 4138 1097 3878 
Q 872 3619 872 3213 
L 294 3213 
Q 294 3788 672 4200 
Q 1050 4613 1778 4613 
Q 2422 4613 2786 4278 
Q 3150 3944 3150 3397 
Q 3150 2997 2903 2592 
Q 2656 2188 2297 1797 
L 1078 475 
L 3359 475 
z
" transform="scale(0.015625)"/>
        <path id="Roboto-Regular-31" d="M 2278 4575 
L 2278 0 
L 1700 0 
L 1700 3853 
L 534 3428 
L 534 3950 
L 2188 4575 
L 2278 4575 
z
" transform="scale(0.015625)"/>
        <path id="Roboto-Regular-30" d="M 3234 1944 
Q 3234 825 2848 381 
Q 2463 -63 1800 -63 
Q 1156 -63 764 368 
Q 372 800 359 1872 
L 359 2638 
Q 359 3753 750 4183 
Q 1141 4613 1794 4613 
Q 2447 4613 2834 4195 
Q 3222 3778 3234 2709 
L 3234 1944 
z
M 2653 2734 
Q 2653 3503 2434 3822 
Q 2216 4141 1794 4141 
Q 1388 4141 1167 3831 
Q 947 3522 941 2778 
L 941 1850 
Q 941 1088 1164 750 
Q 1388 413 1800 413 
Q 2222 413 2436 745 
Q 2650 1078 2653 1825 
L 2653 2734 
z
" transform="scale(0.015625)"/>
       </defs>
       <use xlink:href="#Roboto-Regular-2212"/>
       <use xlink:href="#Roboto-Regular-32" x="57.177734"/>
       <use xlink:href="#Roboto-Regular-31" x="113.378906"/>
       <use xlink:href="#Roboto-Regular-30" x="169.580078"/>
      </g>
     </g>
    </g>
    <g id="xtick_2">
     <g id="line2d_5">
      <g>
       <use xlink:href="#m2467e6388d" x="114.129167" y="299.176" style="fill: #c2c1c1; stroke: #c2c1c1; stroke-width: 0.8"/>
      </g>
     </g>
     <g id="text_2">
      <!-- −180 -->
      <g style="fill: #191919" transform="translate(102.840104 313.676) scale(0.1 -0.1)">
       <defs>
        <path id="Roboto-Regular-38" d="M 3244 1231 
Q 3244 606 2826 271 
Q 2409 -63 1796 -63 
Q 1184 -63 767 271 
Q 350 606 350 1231 
Q 350 1613 554 1905 
Q 759 2197 1109 2347 
Q 806 2494 629 2762 
Q 453 3031 453 3366 
Q 453 3963 833 4288 
Q 1213 4613 1794 4613 
Q 2378 4613 2758 4288 
Q 3138 3963 3138 3366 
Q 3138 3028 2956 2761 
Q 2775 2494 2472 2347 
Q 2825 2197 3034 1903 
Q 3244 1609 3244 1231 
z
M 2559 3356 
Q 2559 3697 2346 3917 
Q 2134 4138 1793 4138 
Q 1453 4138 1243 3927 
Q 1034 3716 1034 3356 
Q 1034 3003 1243 2790 
Q 1453 2578 1797 2578 
Q 2138 2578 2348 2790 
Q 2559 3003 2559 3356 
z
M 2663 1244 
Q 2663 1625 2420 1865 
Q 2178 2106 1791 2106 
Q 1394 2106 1161 1865 
Q 928 1625 928 1244 
Q 928 850 1161 631 
Q 1394 413 1797 413 
Q 2200 413 2431 631 
Q 2663 850 2663 1244 
z
" transform="scale(0.015625)"/>
       </defs>
       <use xlink:href="#Roboto-Regular-2212"/>
       <use xlink:href="#Roboto-Regular-31" x="57.177734"/>
       <use xlink:href="#Roboto-Regular-38" x="113.378906"/>
       <use xlink:href="#Roboto-Regular-30" x="169.580078"/>
      </g>
     </g>
    </g>
    <g id="xtick_3">
     <g id="line2d_6">
      <g>
       <use xlink:href="#m2467e6388d" x="180.871333" y="299.176" style="fill: #c2c1c1; stroke: #c2c1c1; stroke-width: 0.8"/>
      </g>
     </g>
     <g id="text_3">
      <!-- −150 -->
      <g style="fill: #191919" transform="translate(169.582271 313.676) scale(0.1 -0.1)">
       <defs>
        <path id="Roboto-Regular-35" d="M 1109 2166 
L 647 2284 
L 875 4550 
L 3209 4550 
L 3209 4016 
L 1366 4016 
L 1228 2778 
Q 1572 2975 1988 2975 
Q 2616 2975 2980 2561 
Q 3344 2147 3344 1450 
Q 3344 797 2987 367 
Q 2631 -63 1903 -63 
Q 1350 -63 947 248 
Q 544 559 481 1197 
L 1031 1197 
Q 1141 413 1903 413 
Q 2313 413 2538 691 
Q 2763 969 2763 1444 
Q 2763 1872 2527 2164 
Q 2291 2456 1853 2456 
Q 1563 2456 1413 2378 
Q 1263 2300 1109 2166 
z
" transform="scale(0.015625)"/>
       </defs>
       <use xlink:href="#Roboto-Regular-2212"/>
       <use xlink:href="#Roboto-Regular-31" x="57.177734"/>
       <use xlink:href="#Roboto-Regular-35" x="113.378906"/>
       <use xlink:href="#Roboto-Regular-30" x="169.580078"/>
      </g>
     </g>
    </g>
    <g id="xtick_4">
     <g id="line2d_7">
      <g>
       <use xlink:href="#m2467e6388d" x="247.6135" y="299.176" style="fill: #c2c1c1; stroke: #c2c1c1; stroke-width: 0.8"/>
      </g>
     </g>
     <g id="text_4">
      <!-- −120 -->
      <g style="fill: #191919" transform="translate(236.324437 313.676) scale(0.1 -0.1)">
       <use xlink:href="#Roboto-Regular-2212"/>
       <use xlink:href="#Roboto-Regular-31" x="57.177734"/>
       <use xlink:href="#Roboto-Regular-32" x="113.378906"/>
       <use xlink:href="#Roboto-Regular-30" x="169.580078"/>
      </g>
     </g>
    </g>
    <g id="xtick_5">
     <g id="line2d_8">
      <g>
       <use xlink:href="#m2467e6388d" x="314.355667" y="299.176" style="fill: #c2c1c1; stroke: #c2c1c1; stroke-width: 0.8"/>
      </g>
     </g>
     <g id="text_5">
      <!-- −90 -->
      <g style="fill: #191919" transform="translate(305.87676 313.676) scale(0.1 -0.1)">
       <defs>
        <path id="Roboto-Regular-39" d="M 3175 2563 
Q 3175 2119 3098 1667 
Q 3022 1216 2801 836 
Q 2581 456 2151 225 
Q 1722 -6 953 -6 
L 953 484 
Q 1644 484 1980 700 
Q 2316 916 2448 1264 
Q 2581 1613 2597 2006 
Q 2416 1791 2162 1656 
Q 1909 1522 1613 1522 
Q 1163 1522 875 1747 
Q 588 1972 450 2320 
Q 313 2669 313 3041 
Q 313 3691 670 4152 
Q 1028 4613 1725 4613 
Q 2244 4613 2564 4344 
Q 2884 4075 3029 3653 
Q 3175 3231 3175 2772 
L 3175 2563 
z
M 881 3072 
Q 881 2666 1086 2334 
Q 1291 2003 1706 2003 
Q 2003 2003 2245 2181 
Q 2488 2359 2600 2622 
L 2600 2850 
Q 2600 3472 2336 3803 
Q 2072 4134 1725 4134 
Q 1322 4134 1101 3829 
Q 881 3525 881 3072 
z
" transform="scale(0.015625)"/>
       </defs>
       <use xlink:href="#Roboto-Regular-2212"/>
       <use xlink:href="#Roboto-Regular-39" x="57.177734"/>
       <use xlink:href="#Roboto-Regular-30" x="113.378906"/>
      </g>
     </g>
    </g>
    <g id="xtick_6">
     <g id="line2d_9">
      <g>
       <use xlink:href="#m2467e6388d" x="381.097833" y="299.176" style="fill: #c2c1c1; stroke: #c2c1c1; stroke-width: 0.8"/>
      </g>
     </g>
     <g id="text_6">
      <!-- −60 -->
      <g style="fill: #191919" transform="translate(372.618927 313.676) scale(0.1 -0.1)">
       <defs>
        <path id="Roboto-Regular-36" d="M 3291 1484 
Q 3291 838 2930 387 
Q 2569 -63 1878 -63 
Q 1388 -63 1063 198 
Q 738 459 577 861 
Q 416 1263 416 1684 
L 416 1956 
Q 416 2597 595 3194 
Q 775 3791 1247 4173 
Q 1719 4556 2597 4556 
L 2647 4556 
L 2647 4066 
Q 2041 4066 1705 3853 
Q 1369 3641 1205 3302 
Q 1041 2963 1006 2575 
Q 1369 2984 1984 2984 
Q 2438 2984 2727 2765 
Q 3016 2547 3153 2201 
Q 3291 1856 3291 1484 
z
M 997 1666 
Q 997 1059 1267 737 
Q 1538 416 1878 416 
Q 2278 416 2498 708 
Q 2719 1000 2719 1456 
Q 2719 1863 2516 2184 
Q 2313 2506 1891 2506 
Q 1588 2506 1341 2325 
Q 1094 2144 997 1884 
L 997 1666 
z
" transform="scale(0.015625)"/>
       </defs>
       <use xlink:href="#Roboto-Regular-2212"/>
       <use xlink:href="#Roboto-Regular-36" x="57.177734"/>
       <use xlink:href="#Roboto-Regular-30" x="113.378906"/>
      </g>
     </g>
    </g>
    <g id="xtick_7">
     <g id="line2d_10">
      <g>
       <use xlink:href="#m2467e6388d" x="447.84" y="299.176" style="fill: #c2c1c1; stroke: #c2c1c1; stroke-width: 0.8"/>
      </g>
     </g>
     <g id="text_7">
      <!-- −30 -->
      <g style="fill: #191919" transform="translate(439.361094 313.676) scale(0.1 -0.1)">
       <defs>
        <path id="Roboto-Regular-33" d="M 1222 2084 
L 1222 2559 
L 1647 2559 
Q 2094 2563 2312 2784 
Q 2531 3006 2531 3338 
Q 2531 4138 1738 4138 
Q 1369 4138 1141 3927 
Q 913 3716 913 3359 
L 334 3359 
Q 334 3881 720 4247 
Q 1106 4613 1738 4613 
Q 2353 4613 2733 4286 
Q 3113 3959 3113 3325 
Q 3113 3072 2942 2784 
Q 2772 2497 2397 2338 
Q 2850 2191 3015 1884 
Q 3181 1578 3181 1269 
Q 3181 631 2768 284 
Q 2356 -63 1741 -63 
Q 1147 -63 722 267 
Q 297 597 297 1203 
L 875 1203 
Q 875 844 1108 628 
Q 1341 413 1741 413 
Q 2138 413 2369 622 
Q 2600 831 2600 1256 
Q 2600 1681 2337 1882 
Q 2075 2084 1634 2084 
L 1222 2084 
z
" transform="scale(0.015625)"/>
       </defs>
       <use xlink:href="#Roboto-Regular-2212"/>
       <use xlink:href="#Roboto-Regular-33" x="57.177734"/>
       <use xlink:href="#Roboto-Regular-30" x="113.378906"/>
      </g>
     </g>
    </g>
    <g id="text_8">
     <!-- Asn146 $\phi$ [deg.] -->
     <g style="fill: #191919" transform="translate(204.3535 329.78725) scale(0.12 -0.12)">
      <defs>
       <path id="Roboto-Black-41" d="M -13 0 
L 1659 4550 
L 2694 4550 
L 4375 0 
L 3194 0 
L 2931 850 
L 1428 850 
L 1166 0 
L -13 0 
z
M 1691 1697 
L 2669 1697 
L 2178 3281 
L 1691 1697 
z
" transform="scale(0.015625)"/>
       <path id="Roboto-Black-73" d="M 2069 950 
Q 2069 1084 1920 1167 
Q 1772 1250 1391 1334 
Q 897 1444 556 1689 
Q 216 1934 216 2375 
Q 216 2803 580 3123 
Q 944 3444 1609 3444 
Q 2291 3444 2689 3137 
Q 3088 2831 3088 2344 
L 2034 2344 
Q 2034 2750 1606 2750 
Q 1444 2750 1328 2662 
Q 1213 2575 1213 2428 
Q 1213 2166 1773 2059 
Q 2334 1953 2709 1728 
Q 3084 1503 3084 981 
Q 3084 534 2686 235 
Q 2288 -63 1606 -63 
Q 878 -63 495 306 
Q 113 675 113 1084 
L 1094 1084 
Q 1103 850 1251 742 
Q 1400 634 1634 634 
Q 2069 634 2069 950 
z
" transform="scale(0.015625)"/>
       <path id="Roboto-Black-6e" d="M 1788 2631 
Q 1478 2631 1331 2391 
L 1331 0 
L 278 0 
L 278 3381 
L 1266 3381 
L 1300 2988 
Q 1653 3444 2263 3444 
Q 2731 3444 3026 3156 
Q 3322 2869 3325 2144 
L 3325 0 
L 2266 0 
L 2266 2131 
Q 2266 2438 2141 2534 
Q 2016 2631 1788 2631 
z
" transform="scale(0.015625)"/>
       <path id="Roboto-Black-31" d="M 2613 4550 
L 2613 0 
L 1559 0 
L 1559 3363 
L 522 3059 
L 522 3859 
L 2516 4550 
L 2613 4550 
z
" transform="scale(0.015625)"/>
       <path id="Roboto-Black-34" d="M 184 1609 
L 2009 4544 
L 2009 4550 
L 3063 4550 
L 3063 1778 
L 3522 1778 
L 3522 966 
L 3063 966 
L 3063 0 
L 2009 0 
L 2009 966 
L 247 966 
L 184 1609 
z
M 1191 1778 
L 2009 1778 
L 2009 3184 
L 1941 3072 
L 1191 1778 
z
" transform="scale(0.015625)"/>
       <path id="Roboto-Black-36" d="M 3528 1506 
Q 3528 838 3083 387 
Q 2638 -63 1938 -63 
Q 1225 -63 748 412 
Q 272 888 263 1734 
L 263 2153 
Q 263 2931 594 3481 
Q 925 4031 1470 4323 
Q 2016 4616 2653 4616 
L 2822 4616 
L 2822 3788 
L 2766 3788 
Q 2228 3788 1833 3523 
Q 1438 3259 1341 2722 
Q 1694 3069 2241 3069 
Q 2863 3069 3195 2619 
Q 3528 2169 3528 1506 
z
M 1316 1613 
Q 1316 750 1909 750 
Q 2156 750 2314 965 
Q 2472 1181 2472 1506 
Q 2472 1856 2305 2059 
Q 2138 2263 1872 2263 
Q 1666 2263 1525 2167 
Q 1384 2072 1316 1934 
L 1316 1613 
z
" transform="scale(0.015625)"/>
       <path id="Roboto-Black-20" transform="scale(0.015625)"/>
       <path id="DejaVuSans-Oblique-3d5" d="M 2991 4863 
L 2738 3572 
Q 3363 3572 3684 3094 
Q 4016 2606 3850 1747 
Q 3681 888 3159 400 
Q 2653 -78 2028 -78 
L 1784 -1331 
L 1213 -1331 
L 1456 -78 
Q 834 -78 509 400 
Q 178 888 347 1747 
Q 513 2606 1034 3094 
Q 1544 3572 2166 3572 
L 2419 4863 
L 2991 4863 
z
M 2128 434 
Q 2481 434 2784 756 
Q 3116 1116 3244 1747 
Q 3369 2372 3169 2738 
Q 2991 3059 2638 3059 
L 2128 434 
z
M 1556 434 
L 2066 3059 
Q 1716 3059 1413 2738 
Q 1072 2372 953 1747 
Q 834 1116 1028 756 
Q 1203 434 1556 434 
z
" transform="scale(0.015625)"/>
       <path id="Roboto-Black-5b" d="M 1766 5331 
L 1766 4563 
L 1397 4563 
L 1397 -325 
L 1766 -325 
L 1766 -1091 
L 338 -1091 
L 338 5331 
L 1766 5331 
z
" transform="scale(0.015625)"/>
       <path id="Roboto-Black-64" d="M 2350 0 
L 2300 363 
Q 1969 -63 1475 -63 
Q 834 -63 501 420 
Q 169 903 166 1638 
L 166 1716 
Q 166 2488 500 2966 
Q 834 3444 1481 3444 
Q 1934 3444 2241 3091 
L 2241 4800 
L 3300 4800 
L 3300 0 
L 2350 0 
z
M 1219 1650 
Q 1219 1269 1330 1009 
Q 1441 750 1744 750 
Q 2094 750 2241 1041 
L 2241 2338 
Q 2100 2631 1750 2631 
Q 1456 2631 1337 2372 
Q 1219 2113 1219 1650 
z
" transform="scale(0.015625)"/>
       <path id="Roboto-Black-65" d="M 3266 531 
Q 3109 309 2765 123 
Q 2422 -63 1934 -63 
Q 1109 -63 651 421 
Q 194 906 191 1569 
L 191 1697 
Q 191 2438 600 2941 
Q 1009 3444 1822 3444 
Q 2541 3444 2948 2997 
Q 3356 2550 3356 1788 
L 3356 1359 
L 1266 1359 
Q 1322 1078 1512 914 
Q 1703 750 2003 750 
Q 2506 750 2788 1100 
L 3266 531 
z
M 1813 2631 
Q 1544 2631 1422 2457 
Q 1300 2284 1266 2019 
L 2328 2019 
L 2328 2100 
Q 2334 2631 1813 2631 
z
" transform="scale(0.015625)"/>
       <path id="Roboto-Black-67" d="M 1659 -1331 
Q 1319 -1331 966 -1203 
Q 613 -1075 403 -825 
L 844 -206 
Q 1147 -553 1622 -553 
Q 2313 -553 2322 119 
L 2322 275 
Q 2025 -63 1553 -63 
Q 913 -63 544 425 
Q 175 913 175 1650 
L 175 1716 
Q 175 2488 545 2966 
Q 916 3444 1559 3444 
Q 2091 3444 2384 3091 
L 2422 3381 
L 3378 3381 
L 3378 131 
Q 3378 -572 2904 -951 
Q 2431 -1331 1659 -1331 
z
M 1228 1650 
Q 1228 1269 1375 1009 
Q 1522 750 1822 750 
Q 2166 750 2322 981 
L 2322 2400 
Q 2172 2631 1828 2631 
Q 1531 2631 1379 2372 
Q 1228 2113 1228 1650 
z
" transform="scale(0.015625)"/>
       <path id="Roboto-Black-2e" d="M 366 494 
Q 366 719 527 870 
Q 688 1022 947 1022 
Q 1206 1022 1367 870 
Q 1528 719 1528 494 
Q 1528 269 1367 117 
Q 1206 -34 947 -34 
Q 688 -34 527 117 
Q 366 269 366 494 
z
" transform="scale(0.015625)"/>
       <path id="Roboto-Black-5d" d="M 44 4563 
L 44 5331 
L 1472 5331 
L 1472 -1091 
L 44 -1091 
L 44 -325 
L 419 -325 
L 419 4563 
L 44 4563 
z
" transform="scale(0.015625)"/>
      </defs>
      <use xlink:href="#Roboto-Black-41" transform="translate(0 0.703125)"/>
      <use xlink:href="#Roboto-Black-73" transform="translate(68.115234 0.703125)"/>
      <use xlink:href="#Roboto-Black-6e" transform="translate(119.384766 0.703125)"/>
      <use xlink:href="#Roboto-Black-31" transform="translate(175.830078 0.703125)"/>
      <use xlink:href="#Roboto-Black-34" transform="translate(233.789062 0.703125)"/>
      <use xlink:href="#Roboto-Black-36" transform="translate(291.748047 0.703125)"/>
      <use xlink:href="#Roboto-Black-20" transform="translate(349.707031 0.703125)"/>
      <use xlink:href="#DejaVuSans-Oblique-3d5" transform="translate(374.609375 0.703125)"/>
      <use xlink:href="#Roboto-Black-20" transform="translate(440.576172 0.703125)"/>
      <use xlink:href="#Roboto-Black-5b" transform="translate(465.478516 0.703125)"/>
      <use xlink:href="#Roboto-Black-64" transform="translate(493.701172 0.703125)"/>
      <use xlink:href="#Roboto-Black-65" transform="translate(549.951172 0.703125)"/>
      <use xlink:href="#Roboto-Black-67" transform="translate(604.443359 0.703125)"/>
      <use xlink:href="#Roboto-Black-2e" transform="translate(662.011719 0.703125)"/>
      <use xlink:href="#Roboto-Black-5d" transform="translate(692.285156 0.703125)"/>
     </g>
    </g>
   </g>
   <g id="matplotlib.axis_2">
    <g id="ytick_1">
     <g id="line2d_11">
      <defs>
       <path id="m0f5c2306e3" d="M 0 0 
L -3.5 0 
" style="stroke: #c2c1c1; stroke-width: 0.8"/>
      </defs>
      <g>
       <use xlink:href="#m0f5c2306e3" x="47.387" y="299.176" style="fill: #c2c1c1; stroke: #c2c1c1; stroke-width: 0.8"/>
      </g>
     </g>
     <g id="text_9">
      <!-- −1 -->
      <g style="fill: #191919" transform="translate(29.0495 302.926) scale(0.1 -0.1)">
       <use xlink:href="#Roboto-Regular-2212"/>
       <use xlink:href="#Roboto-Regular-31" x="57.177734"/>
      </g>
     </g>
    </g>
    <g id="ytick_2">
     <g id="line2d_12">
      <g>
       <use xlink:href="#m0f5c2306e3" x="47.387" y="242.6888" style="fill: #c2c1c1; stroke: #c2c1c1; stroke-width: 0.8"/>
      </g>
     </g>
     <g id="text_10">
      <!-- 0 -->
      <g style="fill: #191919" transform="translate(34.766687 246.4388) scale(0.1 -0.1)">
       <use xlink:href="#Roboto-Regular-30"/>
      </g>
     </g>
    </g>
    <g id="ytick_3">
     <g id="line2d_13">
      <g>
       <use xlink:href="#m0f5c2306e3" x="47.387" y="186.2016" style="fill: #c2c1c1; stroke: #c2c1c1; stroke-width: 0.8"/>
      </g>
     </g>
     <g id="text_11">
      <!-- 1 -->
      <g style="fill: #191919" transform="translate(34.766687 189.9516) scale(0.1 -0.1)">
       <use xlink:href="#Roboto-Regular-31"/>
      </g>
     </g>
    </g>
    <g id="ytick_4">
     <g id="line2d_14">
      <g>
       <use xlink:href="#m0f5c2306e3" x="47.387" y="129.7144" style="fill: #c2c1c1; stroke: #c2c1c1; stroke-width: 0.8"/>
      </g>
     </g>
     <g id="text_12">
      <!-- 2 -->
      <g style="fill: #191919" transform="translate(34.766687 133.4644) scale(0.1 -0.1)">
       <use xlink:href="#Roboto-Regular-32"/>
      </g>
     </g>
    </g>
    <g id="ytick_5">
     <g id="line2d_15">
      <g>
       <use xlink:href="#m0f5c2306e3" x="47.387" y="73.2272" style="fill: #c2c1c1; stroke: #c2c1c1; stroke-width: 0.8"/>
      </g>
     </g>
     <g id="text_13">
      <!-- 3 -->
      <g style="fill: #191919" transform="translate(34.766687 76.9772) scale(0.1 -0.1)">
       <use xlink:href="#Roboto-Regular-33"/>
      </g>
     </g>
    </g>
    <g id="ytick_6">
     <g id="line2d_16">
      <g>
       <use xlink:href="#m0f5c2306e3" x="47.387" y="16.74" style="fill: #c2c1c1; stroke: #c2c1c1; stroke-width: 0.8"/>
      </g>
     </g>
     <g id="text_14">
      <!-- 4 -->
      <g style="fill: #191919" transform="translate(34.766687 20.49) scale(0.1 -0.1)">
       <defs>
        <path id="Roboto-Regular-34" d="M 166 1397 
L 2203 4550 
L 2819 4550 
L 2819 1531 
L 3453 1531 
L 3453 1056 
L 2819 1056 
L 2819 0 
L 2241 0 
L 2241 1056 
L 166 1056 
L 166 1397 
z
M 822 1531 
L 2241 1531 
L 2241 3766 
L 2169 3638 
L 822 1531 
z
" transform="scale(0.015625)"/>
       </defs>
       <use xlink:href="#Roboto-Regular-34"/>
      </g>
     </g>
    </g>
    <g id="text_15">
     <!-- PMF [kcal/mol] -->
     <g style="fill: #191919" transform="translate(22.612 198.820812) rotate(-90) scale(0.12 -0.12)">
      <defs>
       <path id="Roboto-Black-50" d="M 1444 1544 
L 1444 0 
L 347 0 
L 347 4550 
L 2163 4550 
Q 2981 4550 3453 4112 
Q 3925 3675 3925 3006 
Q 3925 2344 3453 1944 
Q 2981 1544 2163 1544 
L 1444 1544 
z
M 1444 3703 
L 1444 2391 
L 2163 2391 
Q 2506 2391 2661 2562 
Q 2816 2734 2816 3000 
Q 2816 3278 2661 3490 
Q 2506 3703 2163 3703 
L 1444 3703 
z
" transform="scale(0.015625)"/>
       <path id="Roboto-Black-4d" d="M 2800 1384 
L 3816 4550 
L 5256 4550 
L 5256 0 
L 4156 0 
L 4156 1063 
L 4263 3238 
L 3163 0 
L 2438 0 
L 1338 3238 
L 1444 1063 
L 1444 0 
L 347 0 
L 347 4550 
L 1784 4550 
L 2800 1384 
z
" transform="scale(0.015625)"/>
       <path id="Roboto-Black-46" d="M 347 0 
L 347 4550 
L 3391 4550 
L 3391 3703 
L 1444 3703 
L 1444 2656 
L 3213 2656 
L 3213 1813 
L 1444 1813 
L 1444 0 
L 347 0 
z
" transform="scale(0.015625)"/>
       <path id="Roboto-Black-6b" d="M 2394 0 
L 1653 1259 
L 1359 966 
L 1359 0 
L 306 0 
L 306 4803 
L 1359 4803 
L 1359 2256 
L 2259 3381 
L 3522 3381 
L 2334 1991 
L 3600 0 
L 2394 0 
z
" transform="scale(0.015625)"/>
       <path id="Roboto-Black-63" d="M 1725 750 
Q 2197 750 2188 1206 
L 3178 1206 
Q 3181 634 2770 285 
Q 2359 -63 1750 -63 
Q 956 -63 561 428 
Q 166 919 166 1653 
L 166 1725 
Q 166 2459 561 2951 
Q 956 3444 1744 3444 
Q 2375 3444 2778 3087 
Q 3181 2731 3178 2088 
L 2188 2088 
Q 2194 2316 2076 2473 
Q 1959 2631 1719 2631 
Q 1400 2631 1309 2372 
Q 1219 2113 1219 1653 
Q 1219 1278 1306 1014 
Q 1394 750 1725 750 
z
" transform="scale(0.015625)"/>
       <path id="Roboto-Black-61" d="M 2200 0 
Q 2141 122 2103 303 
Q 1813 -63 1291 -63 
Q 822 -63 483 220 
Q 144 503 144 953 
Q 144 1469 520 1764 
Q 897 2059 1694 2066 
L 2053 2066 
L 2053 2244 
Q 2053 2709 1650 2709 
Q 1275 2709 1275 2341 
L 222 2341 
Q 222 2813 625 3128 
Q 1028 3444 1706 3444 
Q 2309 3444 2711 3142 
Q 3113 2841 3113 2238 
L 3113 766 
Q 3119 306 3256 53 
L 3256 0 
L 2200 0 
z
M 1541 688 
Q 1734 688 1865 770 
Q 1997 853 2053 956 
L 2053 1503 
L 1722 1503 
Q 1425 1503 1311 1351 
Q 1197 1200 1197 1009 
Q 1197 866 1295 777 
Q 1394 688 1541 688 
z
" transform="scale(0.015625)"/>
       <path id="Roboto-Black-6c" d="M 1409 4800 
L 1409 0 
L 353 0 
L 353 4800 
L 1409 4800 
z
" transform="scale(0.015625)"/>
       <path id="Roboto-Black-2f" d="M 2216 4550 
L 659 -391 
L -91 -391 
L 1466 4550 
L 2216 4550 
z
" transform="scale(0.015625)"/>
       <path id="Roboto-Black-6d" d="M 1819 2631 
Q 1522 2631 1359 2353 
L 1359 0 
L 306 0 
L 306 3381 
L 1294 3381 
L 1331 2984 
Q 1681 3444 2294 3444 
Q 2925 3444 3159 2934 
Q 3500 3444 4150 3444 
Q 4609 3444 4906 3156 
Q 5203 2869 5206 2144 
L 5206 0 
L 4150 0 
L 4150 2128 
Q 4150 2444 4042 2537 
Q 3934 2631 3747 2631 
Q 3431 2631 3278 2353 
L 3281 0 
L 2228 0 
L 2228 2122 
Q 2228 2444 2120 2537 
Q 2013 2631 1819 2631 
z
" transform="scale(0.015625)"/>
       <path id="Roboto-Black-6f" d="M 166 1722 
Q 166 2463 583 2953 
Q 1000 3444 1794 3444 
Q 2591 3444 3009 2953 
Q 3428 2463 3428 1722 
L 3428 1656 
Q 3428 916 3011 426 
Q 2594 -63 1800 -63 
Q 1013 -63 595 414 
Q 178 891 166 1616 
L 166 1722 
z
M 1219 1656 
Q 1219 1275 1339 1012 
Q 1459 750 1800 750 
Q 2131 750 2253 1011 
Q 2375 1272 2375 1722 
Q 2375 2094 2254 2362 
Q 2134 2631 1794 2631 
Q 1463 2631 1341 2364 
Q 1219 2097 1219 1656 
z
" transform="scale(0.015625)"/>
      </defs>
      <use xlink:href="#Roboto-Black-50"/>
      <use xlink:href="#Roboto-Black-4d" x="65.136719"/>
      <use xlink:href="#Roboto-Black-46" x="152.783203"/>
      <use xlink:href="#Roboto-Black-20" x="207.470703"/>
      <use xlink:href="#Roboto-Black-5b" x="232.373047"/>
      <use xlink:href="#Roboto-Black-6b" x="260.595703"/>
      <use xlink:href="#Roboto-Black-63" x="315.283203"/>
      <use xlink:href="#Roboto-Black-61" x="367.285156"/>
      <use xlink:href="#Roboto-Black-6c" x="420.410156"/>
      <use xlink:href="#Roboto-Black-2f" x="447.900391"/>
      <use xlink:href="#Roboto-Black-6d" x="483.007812"/>
      <use xlink:href="#Roboto-Black-6f" x="569.140625"/>
      <use xlink:href="#Roboto-Black-6c" x="625.341797"/>
      <use xlink:href="#Roboto-Black-5d" x="652.832031"/>
     </g>
    </g>
   </g>
   <g id="line2d_17">
    <path d="M 83.924093 -1 
L 85.724295 11.121264 
L 86.838211 17.293844 
L 87.952128 22.299045 
L 91.293877 35.262556 
L 92.407794 40.969626 
L 94.635627 54.658164 
L 96.86346 68.133416 
L 99.091293 79.398486 
L 101.319126 88.80537 
L 106.888709 110.14466 
L 109.116542 117.973643 
L 111.344375 124.681079 
L 113.572208 130.169659 
L 115.800041 134.628843 
L 119.141791 140.745823 
L 121.369624 145.324569 
L 124.711374 152.531001 
L 126.939207 156.617492 
L 129.16704 159.93115 
L 132.50879 164.199783 
L 134.736623 166.765667 
L 140.306206 172.652333 
L 142.534039 175.731622 
L 144.761872 178.883854 
L 151.445371 187.700881 
L 155.901037 194.413768 
L 162.584537 204.697544 
L 167.040203 210.914148 
L 179.293285 227.636112 
L 181.521118 230.388347 
L 183.748951 232.821149 
L 185.976784 234.9715 
L 189.318534 237.873096 
L 192.660283 240.426145 
L 196.002033 242.613508 
L 200.457699 245.311526 
L 202.685532 246.405456 
L 204.913366 247.199895 
L 207.141199 247.766973 
L 218.280364 249.960094 
L 220.508197 250.017656 
L 222.73603 249.774573 
L 227.191697 249.185863 
L 238.330862 248.26055 
L 241.672612 247.623498 
L 245.014361 246.711398 
L 248.356111 245.623083 
L 250.583944 244.74272 
L 252.811777 243.644621 
L 257.267443 241.03442 
L 260.609193 238.94868 
L 263.950943 236.5672 
L 267.292692 233.907069 
L 273.976192 228.202992 
L 276.204025 225.887258 
L 278.431858 223.135289 
L 284.001441 216.013442 
L 288.457107 210.71389 
L 290.68494 208.367542 
L 292.912773 206.284123 
L 296.254523 203.454245 
L 299.596272 200.894162 
L 301.824105 199.47861 
L 304.051939 198.321517 
L 308.507605 196.334144 
L 310.735438 195.448801 
L 311.849354 195.106214 
L 312.963271 194.882645 
L 314.077188 194.808614 
L 315.191104 194.898074 
L 316.305021 195.149821 
L 317.418937 195.553773 
L 318.532854 196.096714 
L 320.760687 197.551048 
L 322.98852 199.446756 
L 325.216353 201.744326 
L 327.444186 204.447947 
L 329.672019 207.695784 
L 331.899852 211.476937 
L 338.583352 223.147929 
L 341.925101 228.843974 
L 344.152934 232.237249 
L 346.380768 235.205262 
L 349.722517 239.133144 
L 351.95035 241.399364 
L 354.178183 243.213799 
L 356.406016 244.510428 
L 358.63385 245.344884 
L 360.861683 245.81518 
L 363.089516 245.915396 
L 364.203432 245.796213 
L 365.317349 245.55413 
L 366.431265 245.190569 
L 368.659099 244.110534 
L 370.886932 242.555225 
L 373.114765 240.574191 
L 377.570431 236.098593 
L 379.798264 233.680173 
L 382.026097 230.830549 
L 384.25393 227.441785 
L 387.59568 221.763093 
L 395.393096 208.034528 
L 397.620929 203.551425 
L 399.848762 198.569356 
L 402.076595 193.091941 
L 405.418345 184.053176 
L 410.987927 168.663073 
L 415.443594 156.767734 
L 423.24101 134.368092 
L 424.354926 130.352974 
L 425.468843 125.736107 
L 431.038425 100.045126 
L 435.494092 82.918644 
L 437.721925 74.141994 
L 439.949758 64.147291 
L 442.177591 52.353852 
L 444.405424 38.835423 
L 445.519341 31.158835 
L 446.633257 22.612622 
L 449.303698 -1 
L 449.303698 -1 
" clip-path="url(#p4f7f52ed52)" style="fill: none; stroke: #f99752; stroke-width: 2.5; stroke-linecap: square"/>
   </g>
   <g id="patch_3">
    <path d="M 47.387 299.176 
L 47.387 16.74 
" style="fill: none; stroke: #c2c1c1; stroke-width: 0.8; stroke-linejoin: miter; stroke-linecap: square"/>
   </g>
   <g id="patch_4">
    <path d="M 447.84 299.176 
L 447.84 16.74 
" style="fill: none; stroke: #c2c1c1; stroke-width: 0.8; stroke-linejoin: miter; stroke-linecap: square"/>
   </g>
   <g id="patch_5">
    <path d="M 47.387 299.176 
L 447.84 299.176 
" style="fill: none; stroke: #c2c1c1; stroke-width: 0.8; stroke-linejoin: miter; stroke-linecap: square"/>
   </g>
   <g id="patch_6">
    <path d="M 47.387 16.74 
L 447.84 16.74 
" style="fill: none; stroke: #c2c1c1; stroke-width: 0.8; stroke-linejoin: miter; stroke-linecap: square"/>
   </g>
   <g id="legend_1">
    <g id="line2d_18">
     <path d="M 207.53725 32.34 
L 219.53725 32.34 
L 231.53725 32.34 
" style="fill: none; stroke: #1e2e79; stroke-width: 2.5; stroke-linecap: square"/>
    </g>
    <g id="text_16">
     <!-- Reduced -->
     <g transform="translate(241.13725 36.54) scale(0.12 -0.12)">
      <defs>
       <path id="Roboto-Regular-52" d="M 3188 0 
L 2200 1844 
L 1131 1844 
L 1131 0 
L 528 0 
L 528 4550 
L 2034 4550 
Q 2800 4550 3214 4200 
Q 3628 3850 3628 3184 
Q 3628 2759 3398 2442 
Q 3169 2125 2763 1969 
L 3831 38 
L 3831 0 
L 3188 0 
z
M 1131 4056 
L 1131 2334 
L 2053 2334 
Q 2538 2334 2783 2582 
Q 3028 2831 3028 3184 
Q 3028 3578 2792 3817 
Q 2556 4056 2034 4056 
L 1131 4056 
z
" transform="scale(0.015625)"/>
       <path id="Roboto-Regular-65" d="M 3116 591 
Q 2950 341 2647 139 
Q 2344 -63 1844 -63 
Q 1138 -63 714 396 
Q 291 856 291 1572 
L 291 1703 
Q 291 2256 502 2645 
Q 713 3034 1050 3239 
Q 1388 3444 1769 3444 
Q 2494 3444 2826 2970 
Q 3159 2497 3159 1788 
L 3159 1528 
L 872 1528 
Q 884 1063 1148 736 
Q 1413 409 1875 409 
Q 2181 409 2393 534 
Q 2606 659 2766 869 
L 3116 591 
z
M 1769 2969 
Q 1425 2969 1187 2719 
Q 950 2469 891 2000 
L 2581 2000 
L 2581 2044 
Q 2559 2381 2386 2675 
Q 2213 2969 1769 2969 
z
" transform="scale(0.015625)"/>
       <path id="Roboto-Regular-64" d="M 2622 0 
L 2594 363 
Q 2247 -63 1628 -63 
Q 1034 -63 668 418 
Q 303 900 297 1628 
L 297 1719 
Q 297 2494 664 2969 
Q 1031 3444 1634 3444 
Q 2231 3444 2572 3044 
L 2572 4800 
L 3153 4800 
L 3153 0 
L 2622 0 
z
M 878 1653 
Q 878 1150 1090 789 
Q 1303 428 1772 428 
Q 2309 428 2572 919 
L 2572 2475 
Q 2313 2956 1778 2956 
Q 1306 2956 1092 2589 
Q 878 2222 878 1719 
L 878 1653 
z
" transform="scale(0.015625)"/>
       <path id="Roboto-Regular-75" d="M 2538 0 
L 2525 334 
Q 2194 -63 1538 -63 
Q 1041 -63 734 231 
Q 428 525 428 1200 
L 428 3381 
L 1006 3381 
L 1006 1194 
Q 1006 738 1198 583 
Q 1391 428 1628 428 
Q 2281 428 2509 919 
L 2509 3381 
L 3091 3381 
L 3091 0 
L 2538 0 
z
" transform="scale(0.015625)"/>
       <path id="Roboto-Regular-63" d="M 1794 413 
Q 2103 413 2336 597 
Q 2569 781 2591 1069 
L 3141 1069 
Q 3119 616 2725 276 
Q 2331 -63 1794 -63 
Q 1031 -63 661 440 
Q 291 944 291 1625 
L 291 1756 
Q 291 2438 661 2941 
Q 1031 3444 1794 3444 
Q 2388 3444 2753 3092 
Q 3119 2741 3141 2219 
L 2591 2219 
Q 2569 2531 2355 2750 
Q 2141 2969 1794 2969 
Q 1438 2969 1236 2787 
Q 1034 2606 951 2328 
Q 869 2050 869 1756 
L 869 1625 
Q 869 1328 950 1050 
Q 1031 772 1232 592 
Q 1434 413 1794 413 
z
" transform="scale(0.015625)"/>
      </defs>
      <use xlink:href="#Roboto-Regular-52"/>
      <use xlink:href="#Roboto-Regular-65" x="61.621094"/>
      <use xlink:href="#Roboto-Regular-64" x="114.648438"/>
      <use xlink:href="#Roboto-Regular-75" x="171.044922"/>
      <use xlink:href="#Roboto-Regular-63" x="226.171875"/>
      <use xlink:href="#Roboto-Regular-65" x="278.515625"/>
      <use xlink:href="#Roboto-Regular-64" x="331.542969"/>
     </g>
    </g>
    <g id="line2d_19">
     <path d="M 207.53725 49.7775 
L 219.53725 49.7775 
L 231.53725 49.7775 
" style="fill: none; stroke: #ec4067; stroke-width: 2.5; stroke-linecap: square"/>
    </g>
    <g id="text_17">
     <!-- Oxidized -->
     <g transform="translate(241.13725 53.9775) scale(0.12 -0.12)">
      <defs>
       <path id="Roboto-Regular-4f" d="M 4031 2131 
Q 4031 1106 3534 521 
Q 3038 -63 2206 -63 
Q 1397 -63 884 521 
Q 372 1106 372 2131 
L 372 2419 
Q 372 3441 881 4027 
Q 1391 4613 2200 4613 
Q 3025 4613 3523 4036 
Q 4022 3459 4031 2456 
L 4031 2131 
z
M 3434 2425 
Q 3434 3238 3109 3669 
Q 2784 4100 2200 4100 
Q 1641 4100 1305 3669 
Q 969 3238 969 2425 
L 969 2131 
Q 969 1313 1308 880 
Q 1647 447 2206 447 
Q 2794 447 3114 880 
Q 3434 1313 3434 2131 
L 3434 2425 
z
" transform="scale(0.015625)"/>
       <path id="Roboto-Regular-78" d="M 831 3381 
L 1572 2150 
L 2322 3381 
L 3000 3381 
L 1894 1713 
L 3034 0 
L 2366 0 
L 1584 1269 
L 803 0 
L 131 0 
L 1269 1713 
L 166 3381 
L 831 3381 
z
" transform="scale(0.015625)"/>
       <path id="Roboto-Regular-69" d="M 444 4278 
Q 444 4419 530 4516 
Q 616 4613 784 4613 
Q 950 4613 1039 4516 
Q 1128 4419 1128 4278 
Q 1128 4144 1039 4048 
Q 950 3953 784 3953 
Q 616 3953 530 4048 
Q 444 4144 444 4278 
z
M 1069 3381 
L 1069 0 
L 488 0 
L 488 3381 
L 1069 3381 
z
" transform="scale(0.015625)"/>
       <path id="Roboto-Regular-7a" d="M 303 2903 
L 303 3381 
L 2869 3381 
L 2869 2972 
L 988 475 
L 2959 475 
L 2959 0 
L 278 0 
L 278 425 
L 2141 2903 
L 303 2903 
z
" transform="scale(0.015625)"/>
      </defs>
      <use xlink:href="#Roboto-Regular-4f"/>
      <use xlink:href="#Roboto-Regular-78" x="68.798828"/>
      <use xlink:href="#Roboto-Regular-69" x="118.408203"/>
      <use xlink:href="#Roboto-Regular-64" x="142.724609"/>
      <use xlink:href="#Roboto-Regular-69" x="199.121094"/>
      <use xlink:href="#Roboto-Regular-7a" x="223.4375"/>
      <use xlink:href="#Roboto-Regular-65" x="273.046875"/>
      <use xlink:href="#Roboto-Regular-64" x="326.074219"/>
     </g>
    </g>
    <g id="line2d_20">
     <path d="M 207.53725 67.84125 
L 219.53725 67.84125 
L 231.53725 67.84125 
" style="fill: none; stroke: #f99752; stroke-width: 2.5; stroke-linecap: square"/>
    </g>
    <g id="text_18">
     <!-- Cu(I) -->
     <g transform="translate(241.13725 72.04125) scale(0.12 -0.12)">
      <defs>
       <path id="Roboto-Regular-43" d="M 3275 1447 
L 3875 1447 
Q 3806 800 3387 368 
Q 2969 -63 2150 -63 
Q 1356 -63 870 504 
Q 384 1072 375 2013 
L 375 2500 
Q 375 3456 867 4034 
Q 1359 4613 2203 4613 
Q 2975 4613 3390 4188 
Q 3806 3763 3875 3091 
L 3275 3091 
Q 3206 3566 2968 3842 
Q 2731 4119 2203 4119 
Q 1600 4119 1287 3675 
Q 975 3231 975 2506 
L 975 2047 
Q 975 1375 1259 901 
Q 1544 428 2150 428 
Q 2725 428 2961 697 
Q 3197 966 3275 1447 
z
" transform="scale(0.015625)"/>
       <path id="Roboto-Regular-28" d="M 419 1850 
Q 419 2756 678 3434 
Q 938 4113 1294 4541 
Q 1650 4969 1947 5134 
L 2069 4753 
Q 1700 4475 1348 3761 
Q 997 3047 997 1813 
Q 997 625 1348 -97 
Q 1700 -819 2069 -1119 
L 1947 -1469 
Q 1650 -1306 1294 -878 
Q 938 -450 678 226 
Q 419 903 419 1850 
z
" transform="scale(0.015625)"/>
       <path id="Roboto-Regular-49" d="M 1175 4550 
L 1175 0 
L 572 0 
L 572 4550 
L 1175 4550 
z
" transform="scale(0.015625)"/>
       <path id="Roboto-Regular-29" d="M 1772 1819 
Q 1772 906 1512 228 
Q 1253 -450 895 -878 
Q 538 -1306 244 -1469 
L 122 -1119 
Q 488 -841 841 -109 
Q 1194 622 1194 1856 
Q 1194 2647 1019 3236 
Q 844 3825 594 4212 
Q 344 4600 122 4781 
L 244 5134 
Q 538 4969 895 4541 
Q 1253 4113 1512 3436 
Q 1772 2759 1772 1819 
z
" transform="scale(0.015625)"/>
      </defs>
      <use xlink:href="#Roboto-Regular-43"/>
      <use xlink:href="#Roboto-Regular-75" x="65.087891"/>
      <use xlink:href="#Roboto-Regular-28" x="120.214844"/>
      <use xlink:href="#Roboto-Regular-49" x="154.443359"/>
      <use xlink:href="#Roboto-Regular-29" x="181.640625"/>
     </g>
    </g>
   </g>
  </g>
 </g>
 <defs>
  <clipPath id="p4f7f52ed52">
   <rect x="47.387" y="16.74" width="400.453" height="282.436"/>
  </clipPath>
 </defs>
</svg>
