<?xml version="1.0" encoding="utf-8" standalone="no"?>
<!DOCTYPE svg PUBLIC "-//W3C//DTD SVG 1.1//EN"
  "http://www.w3.org/Graphics/SVG/1.1/DTD/svg11.dtd">
<svg xmlns:xlink="http://www.w3.org/1999/xlink" width="460.8pt" height="345.6pt" viewBox="0 0 460.8 345.6" xmlns="http://www.w3.org/2000/svg" version="1.1">
 <metadata>
  <rdf:RDF xmlns:dc="http://purl.org/dc/elements/1.1/" xmlns:cc="http://creativecommons.org/ns#" xmlns:rdf="http://www.w3.org/1999/02/22-rdf-syntax-ns#">
   <cc:Work>
    <dc:type rdf:resource="http://purl.org/dc/dcmitype/StillImage"/>
    <dc:date>2024-07-07T17:50:50.217113</dc:date>
    <dc:format>image/svg+xml</dc:format>
    <dc:creator>
     <cc:Agent>
      <dc:title>Matplotlib v3.8.4, https://matplotlib.org/</dc:title>
     </cc:Agent>
    </dc:creator>
   </cc:Work>
  </rdf:RDF>
 </metadata>
 <defs>
  <style type="text/css">*{stroke-linejoin: round; stroke-linecap: butt}</style>
 </defs>
 <g id="figure_1">
  <g id="patch_1">
   <path d="M 0 345.6 
L 460.8 345.6 
L 460.8 0 
L 0 0 
z
" style="fill: #ffffff"/>
  </g>
  <g id="axes_1">
   <g id="patch_2">
    <path d="M 49.421 297.808 
L 440.9055 297.808 
L 440.9055 12.96 
L 49.421 12.96 
z
" style="fill: #ffffff"/>
   </g>
   <g id="line2d_1">
    <path d="M -1 297.808 
L 119.204527 297.722266 
L 124.103527 297.478518 
L 136.840926 296.632492 
L 139.780326 295.978809 
L 143.699525 295.183231 
L 146.638925 294.450549 
L 149.578325 293.632583 
L 151.537925 292.848441 
L 161.335924 287.763074 
L 166.234923 284.678572 
L 168.194523 283.331334 
L 170.154123 281.702306 
L 180.931922 271.876257 
L 187.790522 264.796084 
L 190.729921 261.259865 
L 196.608721 255.211547 
L 198.568321 253.382859 
L 201.50772 251.091788 
L 202.48752 250.057886 
L 204.44712 247.49613 
L 206.40672 244.930231 
L 208.36632 242.748287 
L 210.32592 240.946706 
L 216.204719 236.193874 
L 221.103719 231.867551 
L 223.063319 230.149525 
L 229.921918 223.663934 
L 233.841118 220.840398 
L 235.800717 219.081192 
L 237.760317 217.086471 
L 243.639117 210.636184 
L 244.618917 209.924168 
L 246.578517 208.905867 
L 251.477516 207.145653 
L 252.457316 206.973586 
L 254.416916 207.070285 
L 256.376516 207.188801 
L 258.336116 207.319064 
L 259.315915 207.606405 
L 260.295715 208.152087 
L 261.275515 208.994147 
L 263.235115 211.340155 
L 264.214915 212.510147 
L 265.194715 213.434352 
L 268.134115 215.24783 
L 269.113915 216.213216 
L 270.093715 217.514796 
L 274.012914 223.36457 
L 280.871514 233.341205 
L 283.810913 238.072352 
L 285.770513 240.653698 
L 290.669513 246.315218 
L 292.629113 249.156838 
L 296.548312 255.241006 
L 297.528112 256.462883 
L 298.507912 257.485389 
L 300.467512 259.103645 
L 302.427112 260.58375 
L 304.386712 262.465637 
L 307.326111 265.710182 
L 309.285711 267.225638 
L 311.245311 268.693687 
L 315.164511 272.230137 
L 317.124111 273.605197 
L 321.04331 276.159922 
L 324.96251 278.923375 
L 326.92211 279.966656 
L 328.88171 280.967413 
L 330.841309 282.323034 
L 332.800909 283.65669 
L 334.760509 284.634557 
L 340.639309 287.216767 
L 345.538308 288.740239 
L 349.457508 290.228077 
L 354.356507 291.295024 
L 358.275707 292.743791 
L 361.215107 293.453563 
L 375.912106 295.936505 
L 378.851505 296.214513 
L 384.730305 296.507793 
L 387.669705 296.673364 
L 391.588904 296.740987 
L 397.467704 297.072498 
L 411.184903 297.430097 
L 420.003102 297.542815 
L 424.902101 297.618322 
L 436.6597 297.647269 
L 461.8 297.744473 
L 461.8 297.744473 
" clip-path="url(#pcc49fc96e4)" style="fill: none; stroke: #1e2e79; stroke-width: 2.5; stroke-linecap: square"/>
   </g>
   <g id="line2d_2">
    <path d="M -1 297.808 
L 108.426728 297.738518 
L 112.345928 297.42869 
L 113.325728 297.046715 
L 114.305528 296.983317 
L 115.285328 297.034032 
L 118.224727 296.337514 
L 119.204527 295.860763 
L 121.164127 293.208256 
L 122.143927 292.164443 
L 123.123727 290.847636 
L 125.083327 286.934503 
L 126.063127 284.554918 
L 127.042927 281.3771 
L 129.002527 273.555937 
L 129.982326 268.016904 
L 130.962126 261.521659 
L 131.941926 256.109377 
L 132.921726 249.322063 
L 133.901526 241.464234 
L 134.881326 231.961642 
L 135.861126 221.107717 
L 141.739925 146.330918 
L 143.699525 117.916446 
L 145.659125 94.56041 
L 148.598525 59.752366 
L 150.558125 49.017065 
L 152.517725 35.161597 
L 153.497524 31.522732 
L 154.477324 26.52419 
L 155.457124 26.538587 
L 156.436924 27.233828 
L 157.416724 28.411535 
L 158.396524 36.724884 
L 159.376324 41.602453 
L 161.335924 55.555278 
L 162.315724 57.749837 
L 163.295524 64.042996 
L 164.275324 76.15128 
L 165.255123 85.748081 
L 167.214723 102.4251 
L 169.174323 126.765415 
L 170.154123 135.390148 
L 171.133923 146.587095 
L 172.113723 159.601364 
L 173.093523 169.250127 
L 174.073323 176.987802 
L 175.053123 186.006022 
L 176.032923 192.276117 
L 180.931922 231.289671 
L 181.911722 237.835059 
L 182.891522 245.637085 
L 183.871322 250.759153 
L 184.851122 253.883134 
L 185.830922 259.659046 
L 186.810722 263.91781 
L 187.790522 267.099619 
L 189.750121 271.968645 
L 191.709721 278.160085 
L 196.608721 287.058891 
L 197.588521 288.275613 
L 198.568321 289.251763 
L 199.548121 290.506794 
L 200.52792 291.42611 
L 201.50772 292.137146 
L 202.48752 293.180381 
L 203.46732 293.958945 
L 204.44712 294.191278 
L 205.42692 294.600526 
L 206.40672 295.31764 
L 207.38652 295.739831 
L 210.32592 296.59683 
L 211.30572 297.116616 
L 212.285519 297.224106 
L 213.265319 297.007595 
L 214.245119 296.986285 
L 216.204719 297.492313 
L 218.164319 297.556171 
L 225.022918 297.631188 
L 226.982518 297.802623 
L 305.366512 297.808 
L 461.8 297.808 
L 461.8 297.808 
" clip-path="url(#pcc49fc96e4)" style="fill: none; stroke: #ec4067; stroke-width: 2.5; stroke-linecap: square"/>
   </g>
   <g id="matplotlib.axis_1">
    <g id="xtick_1">
     <g id="line2d_3">
      <defs>
       <path id="m72d2181fbe" d="M 0 0 
L 0 3.5 
" style="stroke: #c2c1c1; stroke-width: 0.8"/>
      </defs>
      <g>
       <use xlink:href="#m72d2181fbe" x="49.421" y="297.808" style="fill: #c2c1c1; stroke: #c2c1c1; stroke-width: 0.8"/>
      </g>
     </g>
     <g id="text_1">
      <!-- 3.0 -->
      <g style="fill: #191919" transform="translate(42.481937 312.308) scale(0.1 -0.1)">
       <defs>
        <path id="Roboto-Regular-33" d="M 1222 2084 
L 1222 2559 
L 1647 2559 
Q 2094 2563 2312 2784 
Q 2531 3006 2531 3338 
Q 2531 4138 1738 4138 
Q 1369 4138 1141 3927 
Q 913 3716 913 3359 
L 334 3359 
Q 334 3881 720 4247 
Q 1106 4613 1738 4613 
Q 2353 4613 2733 4286 
Q 3113 3959 3113 3325 
Q 3113 3072 2942 2784 
Q 2772 2497 2397 2338 
Q 2850 2191 3015 1884 
Q 3181 1578 3181 1269 
Q 3181 631 2768 284 
Q 2356 -63 1741 -63 
Q 1147 -63 722 267 
Q 297 597 297 1203 
L 875 1203 
Q 875 844 1108 628 
Q 1341 413 1741 413 
Q 2138 413 2369 622 
Q 2600 831 2600 1256 
Q 2600 1681 2337 1882 
Q 2075 2084 1634 2084 
L 1222 2084 
z
" transform="scale(0.015625)"/>
        <path id="Roboto-Regular-2e" d="M 450 306 
Q 450 453 542 554 
Q 634 656 809 656 
Q 984 656 1076 554 
Q 1169 453 1169 306 
Q 1169 163 1076 62 
Q 984 -38 809 -38 
Q 634 -38 542 62 
Q 450 163 450 306 
z
" transform="scale(0.015625)"/>
        <path id="Roboto-Regular-30" d="M 3234 1944 
Q 3234 825 2848 381 
Q 2463 -63 1800 -63 
Q 1156 -63 764 368 
Q 372 800 359 1872 
L 359 2638 
Q 359 3753 750 4183 
Q 1141 4613 1794 4613 
Q 2447 4613 2834 4195 
Q 3222 3778 3234 2709 
L 3234 1944 
z
M 2653 2734 
Q 2653 3503 2434 3822 
Q 2216 4141 1794 4141 
Q 1388 4141 1167 3831 
Q 947 3522 941 2778 
L 941 1850 
Q 941 1088 1164 750 
Q 1388 413 1800 413 
Q 2222 413 2436 745 
Q 2650 1078 2653 1825 
L 2653 2734 
z
" transform="scale(0.015625)"/>
       </defs>
       <use xlink:href="#Roboto-Regular-33"/>
       <use xlink:href="#Roboto-Regular-2e" x="56.201172"/>
       <use xlink:href="#Roboto-Regular-30" x="82.568359"/>
      </g>
     </g>
    </g>
    <g id="xtick_2">
     <g id="line2d_4">
      <g>
       <use xlink:href="#m72d2181fbe" x="98.356562" y="297.808" style="fill: #c2c1c1; stroke: #c2c1c1; stroke-width: 0.8"/>
      </g>
     </g>
     <g id="text_2">
      <!-- 3.5 -->
      <g style="fill: #191919" transform="translate(91.4175 312.308) scale(0.1 -0.1)">
       <defs>
        <path id="Roboto-Regular-35" d="M 1109 2166 
L 647 2284 
L 875 4550 
L 3209 4550 
L 3209 4016 
L 1366 4016 
L 1228 2778 
Q 1572 2975 1988 2975 
Q 2616 2975 2980 2561 
Q 3344 2147 3344 1450 
Q 3344 797 2987 367 
Q 2631 -63 1903 -63 
Q 1350 -63 947 248 
Q 544 559 481 1197 
L 1031 1197 
Q 1141 413 1903 413 
Q 2313 413 2538 691 
Q 2763 969 2763 1444 
Q 2763 1872 2527 2164 
Q 2291 2456 1853 2456 
Q 1563 2456 1413 2378 
Q 1263 2300 1109 2166 
z
" transform="scale(0.015625)"/>
       </defs>
       <use xlink:href="#Roboto-Regular-33"/>
       <use xlink:href="#Roboto-Regular-2e" x="56.201172"/>
       <use xlink:href="#Roboto-Regular-35" x="82.568359"/>
      </g>
     </g>
    </g>
    <g id="xtick_3">
     <g id="line2d_5">
      <g>
       <use xlink:href="#m72d2181fbe" x="147.292125" y="297.808" style="fill: #c2c1c1; stroke: #c2c1c1; stroke-width: 0.8"/>
      </g>
     </g>
     <g id="text_3">
      <!-- 4.0 -->
      <g style="fill: #191919" transform="translate(140.353062 312.308) scale(0.1 -0.1)">
       <defs>
        <path id="Roboto-Regular-34" d="M 166 1397 
L 2203 4550 
L 2819 4550 
L 2819 1531 
L 3453 1531 
L 3453 1056 
L 2819 1056 
L 2819 0 
L 2241 0 
L 2241 1056 
L 166 1056 
L 166 1397 
z
M 822 1531 
L 2241 1531 
L 2241 3766 
L 2169 3638 
L 822 1531 
z
" transform="scale(0.015625)"/>
       </defs>
       <use xlink:href="#Roboto-Regular-34"/>
       <use xlink:href="#Roboto-Regular-2e" x="56.201172"/>
       <use xlink:href="#Roboto-Regular-30" x="82.568359"/>
      </g>
     </g>
    </g>
    <g id="xtick_4">
     <g id="line2d_6">
      <g>
       <use xlink:href="#m72d2181fbe" x="196.227688" y="297.808" style="fill: #c2c1c1; stroke: #c2c1c1; stroke-width: 0.8"/>
      </g>
     </g>
     <g id="text_4">
      <!-- 4.5 -->
      <g style="fill: #191919" transform="translate(189.288625 312.308) scale(0.1 -0.1)">
       <use xlink:href="#Roboto-Regular-34"/>
       <use xlink:href="#Roboto-Regular-2e" x="56.201172"/>
       <use xlink:href="#Roboto-Regular-35" x="82.568359"/>
      </g>
     </g>
    </g>
    <g id="xtick_5">
     <g id="line2d_7">
      <g>
       <use xlink:href="#m72d2181fbe" x="245.16325" y="297.808" style="fill: #c2c1c1; stroke: #c2c1c1; stroke-width: 0.8"/>
      </g>
     </g>
     <g id="text_5">
      <!-- 5.0 -->
      <g style="fill: #191919" transform="translate(238.224187 312.308) scale(0.1 -0.1)">
       <use xlink:href="#Roboto-Regular-35"/>
       <use xlink:href="#Roboto-Regular-2e" x="56.201172"/>
       <use xlink:href="#Roboto-Regular-30" x="82.568359"/>
      </g>
     </g>
    </g>
    <g id="xtick_6">
     <g id="line2d_8">
      <g>
       <use xlink:href="#m72d2181fbe" x="294.098812" y="297.808" style="fill: #c2c1c1; stroke: #c2c1c1; stroke-width: 0.8"/>
      </g>
     </g>
     <g id="text_6">
      <!-- 5.5 -->
      <g style="fill: #191919" transform="translate(287.15975 312.308) scale(0.1 -0.1)">
       <use xlink:href="#Roboto-Regular-35"/>
       <use xlink:href="#Roboto-Regular-2e" x="56.201172"/>
       <use xlink:href="#Roboto-Regular-35" x="82.568359"/>
      </g>
     </g>
    </g>
    <g id="xtick_7">
     <g id="line2d_9">
      <g>
       <use xlink:href="#m72d2181fbe" x="343.034375" y="297.808" style="fill: #c2c1c1; stroke: #c2c1c1; stroke-width: 0.8"/>
      </g>
     </g>
     <g id="text_7">
      <!-- 6.0 -->
      <g style="fill: #191919" transform="translate(336.095313 312.308) scale(0.1 -0.1)">
       <defs>
        <path id="Roboto-Regular-36" d="M 3291 1484 
Q 3291 838 2930 387 
Q 2569 -63 1878 -63 
Q 1388 -63 1063 198 
Q 738 459 577 861 
Q 416 1263 416 1684 
L 416 1956 
Q 416 2597 595 3194 
Q 775 3791 1247 4173 
Q 1719 4556 2597 4556 
L 2647 4556 
L 2647 4066 
Q 2041 4066 1705 3853 
Q 1369 3641 1205 3302 
Q 1041 2963 1006 2575 
Q 1369 2984 1984 2984 
Q 2438 2984 2727 2765 
Q 3016 2547 3153 2201 
Q 3291 1856 3291 1484 
z
M 997 1666 
Q 997 1059 1267 737 
Q 1538 416 1878 416 
Q 2278 416 2498 708 
Q 2719 1000 2719 1456 
Q 2719 1863 2516 2184 
Q 2313 2506 1891 2506 
Q 1588 2506 1341 2325 
Q 1094 2144 997 1884 
L 997 1666 
z
" transform="scale(0.015625)"/>
       </defs>
       <use xlink:href="#Roboto-Regular-36"/>
       <use xlink:href="#Roboto-Regular-2e" x="56.201172"/>
       <use xlink:href="#Roboto-Regular-30" x="82.568359"/>
      </g>
     </g>
    </g>
    <g id="xtick_8">
     <g id="line2d_10">
      <g>
       <use xlink:href="#m72d2181fbe" x="391.969938" y="297.808" style="fill: #c2c1c1; stroke: #c2c1c1; stroke-width: 0.8"/>
      </g>
     </g>
     <g id="text_8">
      <!-- 6.5 -->
      <g style="fill: #191919" transform="translate(385.030875 312.308) scale(0.1 -0.1)">
       <use xlink:href="#Roboto-Regular-36"/>
       <use xlink:href="#Roboto-Regular-2e" x="56.201172"/>
       <use xlink:href="#Roboto-Regular-35" x="82.568359"/>
      </g>
     </g>
    </g>
    <g id="xtick_9">
     <g id="line2d_11">
      <g>
       <use xlink:href="#m72d2181fbe" x="440.9055" y="297.808" style="fill: #c2c1c1; stroke: #c2c1c1; stroke-width: 0.8"/>
      </g>
     </g>
     <g id="text_9">
      <!-- 7.0 -->
      <g style="fill: #191919" transform="translate(433.966438 312.308) scale(0.1 -0.1)">
       <defs>
        <path id="Roboto-Regular-37" d="M 3319 4550 
L 3319 4225 
L 1434 0 
L 825 0 
L 2706 4075 
L 244 4075 
L 244 4550 
L 3319 4550 
z
" transform="scale(0.015625)"/>
       </defs>
       <use xlink:href="#Roboto-Regular-37"/>
       <use xlink:href="#Roboto-Regular-2e" x="56.201172"/>
       <use xlink:href="#Roboto-Regular-30" x="82.568359"/>
      </g>
     </g>
    </g>
    <g id="text_10">
     <!-- Cys147 C$_\alpha$ - Cys204 C$_\alpha$ Distance [Å] -->
     <g style="fill: #191919" transform="translate(147.42325 329.73925) scale(0.12 -0.12)">
      <defs>
       <path id="Roboto-Black-43" d="M 2934 1541 
L 4028 1541 
Q 3994 825 3491 381 
Q 2988 -63 2147 -63 
Q 1244 -63 737 518 
Q 231 1100 219 2100 
L 219 2397 
Q 219 3425 742 4020 
Q 1266 4616 2131 4616 
Q 3022 4616 3497 4152 
Q 3972 3688 4034 2978 
L 2941 2978 
Q 2928 3363 2748 3559 
Q 2569 3756 2131 3756 
Q 1728 3756 1531 3448 
Q 1334 3141 1331 2428 
L 1331 2150 
Q 1331 1425 1515 1111 
Q 1700 797 2147 797 
Q 2913 797 2934 1541 
z
" transform="scale(0.015625)"/>
       <path id="Roboto-Black-79" d="M 1981 -503 
Q 1925 -675 1811 -875 
Q 1697 -1075 1473 -1220 
Q 1250 -1366 866 -1366 
L 666 -1356 
L 428 -1303 
L 428 -550 
L 566 -550 
Q 819 -550 925 -475 
Q 1031 -400 1078 -256 
L 1166 -34 
L -16 3381 
L 1113 3381 
L 1650 1472 
L 2209 3381 
L 3341 3381 
L 1981 -503 
z
" transform="scale(0.015625)"/>
       <path id="Roboto-Black-73" d="M 2069 950 
Q 2069 1084 1920 1167 
Q 1772 1250 1391 1334 
Q 897 1444 556 1689 
Q 216 1934 216 2375 
Q 216 2803 580 3123 
Q 944 3444 1609 3444 
Q 2291 3444 2689 3137 
Q 3088 2831 3088 2344 
L 2034 2344 
Q 2034 2750 1606 2750 
Q 1444 2750 1328 2662 
Q 1213 2575 1213 2428 
Q 1213 2166 1773 2059 
Q 2334 1953 2709 1728 
Q 3084 1503 3084 981 
Q 3084 534 2686 235 
Q 2288 -63 1606 -63 
Q 878 -63 495 306 
Q 113 675 113 1084 
L 1094 1084 
Q 1103 850 1251 742 
Q 1400 634 1634 634 
Q 2069 634 2069 950 
z
" transform="scale(0.015625)"/>
       <path id="Roboto-Black-31" d="M 2613 4550 
L 2613 0 
L 1559 0 
L 1559 3363 
L 522 3059 
L 522 3859 
L 2516 4550 
L 2613 4550 
z
" transform="scale(0.015625)"/>
       <path id="Roboto-Black-34" d="M 184 1609 
L 2009 4544 
L 2009 4550 
L 3063 4550 
L 3063 1778 
L 3522 1778 
L 3522 966 
L 3063 966 
L 3063 0 
L 2009 0 
L 2009 966 
L 247 966 
L 184 1609 
z
M 1191 1778 
L 2009 1778 
L 2009 3184 
L 1941 3072 
L 1191 1778 
z
" transform="scale(0.015625)"/>
       <path id="Roboto-Black-37" d="M 3444 4550 
L 3444 3988 
L 1744 0 
L 631 0 
L 2334 3738 
L 163 3738 
L 163 4550 
L 3444 4550 
z
" transform="scale(0.015625)"/>
       <path id="Roboto-Black-20" transform="scale(0.015625)"/>
       <path id="DejaVuSans-Oblique-3b1" d="M 2619 1628 
L 2622 2350 
Q 2625 3088 2069 3091 
Q 1653 3094 1394 2747 
Q 1069 2319 959 1747 
Q 825 1059 994 731 
Q 1169 397 1547 397 
Q 1966 397 2319 1063 
L 2619 1628 
z
M 2166 3578 
Q 3141 3594 3128 2584 
Q 3128 2584 3616 3500 
L 4128 3500 
L 3119 1603 
L 3109 919 
Q 3109 766 3194 638 
Q 3291 488 3391 488 
L 3669 488 
L 3575 0 
L 3228 0 
Q 2934 0 2722 263 
Q 2622 394 2619 669 
Q 2416 334 2066 50 
Q 1900 -81 1453 -78 
Q 722 -72 456 397 
Q 184 884 353 1747 
Q 534 2675 1009 3097 
Q 1544 3569 2166 3578 
z
" transform="scale(0.015625)"/>
       <path id="Roboto-Black-2d" d="M 2353 2369 
L 2353 1553 
L 475 1553 
L 475 2369 
L 2353 2369 
z
" transform="scale(0.015625)"/>
       <path id="Roboto-Black-32" d="M 3456 813 
L 3456 0 
L 281 0 
L 281 688 
L 1744 2225 
Q 2284 2847 2284 3203 
Q 2284 3803 1784 3803 
Q 1538 3803 1391 3598 
Q 1244 3394 1244 3088 
L 188 3088 
Q 188 3716 636 4166 
Q 1084 4616 1809 4616 
Q 2563 4616 2952 4267 
Q 3341 3919 3341 3297 
Q 3341 2822 3052 2409 
Q 2763 1997 2250 1491 
L 1663 813 
L 3456 813 
z
" transform="scale(0.015625)"/>
       <path id="Roboto-Black-30" d="M 3441 1859 
Q 3441 875 3000 406 
Q 2559 -63 1859 -63 
Q 1156 -63 712 406 
Q 269 875 269 1859 
L 269 2691 
Q 269 3675 709 4144 
Q 1150 4613 1853 4613 
Q 2553 4613 2997 4144 
Q 3441 3675 3441 2691 
L 3441 1859 
z
M 2388 2825 
Q 2388 3369 2244 3584 
Q 2100 3800 1853 3800 
Q 1609 3800 1467 3589 
Q 1325 3378 1322 2850 
L 1322 1731 
Q 1322 1178 1465 964 
Q 1609 750 1859 750 
Q 2100 750 2242 959 
Q 2384 1169 2388 1706 
L 2388 2825 
z
" transform="scale(0.015625)"/>
       <path id="Roboto-Black-44" d="M 347 0 
L 347 4550 
L 1809 4550 
Q 2425 4550 2901 4273 
Q 3378 3997 3648 3505 
Q 3919 3013 3919 2369 
L 3919 2178 
Q 3919 1219 3333 611 
Q 2747 3 1831 0 
L 347 0 
z
M 1444 3703 
L 1444 844 
L 1825 844 
Q 2744 844 2797 2028 
L 2800 2375 
Q 2800 3675 1850 3703 
L 1444 3703 
z
" transform="scale(0.015625)"/>
       <path id="Roboto-Black-69" d="M 291 4253 
Q 291 4478 453 4622 
Q 616 4766 875 4766 
Q 1134 4766 1296 4622 
Q 1459 4478 1459 4253 
Q 1459 4028 1296 3884 
Q 1134 3741 875 3741 
Q 616 3741 453 3884 
Q 291 4028 291 4253 
z
M 1409 3381 
L 1409 0 
L 353 0 
L 353 3381 
L 1409 3381 
z
" transform="scale(0.015625)"/>
       <path id="Roboto-Black-74" d="M 2128 28 
Q 1850 -63 1534 -63 
Q 1025 -63 747 179 
Q 469 422 469 972 
L 469 2650 
L 41 2650 
L 41 3381 
L 469 3381 
L 469 4222 
L 1522 4222 
L 1522 3381 
L 2078 3381 
L 2078 2650 
L 1522 2650 
L 1522 1103 
Q 1522 900 1597 831 
Q 1672 763 1866 763 
Q 2019 763 2128 781 
L 2128 28 
z
" transform="scale(0.015625)"/>
       <path id="Roboto-Black-61" d="M 2200 0 
Q 2141 122 2103 303 
Q 1813 -63 1291 -63 
Q 822 -63 483 220 
Q 144 503 144 953 
Q 144 1469 520 1764 
Q 897 2059 1694 2066 
L 2053 2066 
L 2053 2244 
Q 2053 2709 1650 2709 
Q 1275 2709 1275 2341 
L 222 2341 
Q 222 2813 625 3128 
Q 1028 3444 1706 3444 
Q 2309 3444 2711 3142 
Q 3113 2841 3113 2238 
L 3113 766 
Q 3119 306 3256 53 
L 3256 0 
L 2200 0 
z
M 1541 688 
Q 1734 688 1865 770 
Q 1997 853 2053 956 
L 2053 1503 
L 1722 1503 
Q 1425 1503 1311 1351 
Q 1197 1200 1197 1009 
Q 1197 866 1295 777 
Q 1394 688 1541 688 
z
" transform="scale(0.015625)"/>
       <path id="Roboto-Black-6e" d="M 1788 2631 
Q 1478 2631 1331 2391 
L 1331 0 
L 278 0 
L 278 3381 
L 1266 3381 
L 1300 2988 
Q 1653 3444 2263 3444 
Q 2731 3444 3026 3156 
Q 3322 2869 3325 2144 
L 3325 0 
L 2266 0 
L 2266 2131 
Q 2266 2438 2141 2534 
Q 2016 2631 1788 2631 
z
" transform="scale(0.015625)"/>
       <path id="Roboto-Black-63" d="M 1725 750 
Q 2197 750 2188 1206 
L 3178 1206 
Q 3181 634 2770 285 
Q 2359 -63 1750 -63 
Q 956 -63 561 428 
Q 166 919 166 1653 
L 166 1725 
Q 166 2459 561 2951 
Q 956 3444 1744 3444 
Q 2375 3444 2778 3087 
Q 3181 2731 3178 2088 
L 2188 2088 
Q 2194 2316 2076 2473 
Q 1959 2631 1719 2631 
Q 1400 2631 1309 2372 
Q 1219 2113 1219 1653 
Q 1219 1278 1306 1014 
Q 1394 750 1725 750 
z
" transform="scale(0.015625)"/>
       <path id="Roboto-Black-65" d="M 3266 531 
Q 3109 309 2765 123 
Q 2422 -63 1934 -63 
Q 1109 -63 651 421 
Q 194 906 191 1569 
L 191 1697 
Q 191 2438 600 2941 
Q 1009 3444 1822 3444 
Q 2541 3444 2948 2997 
Q 3356 2550 3356 1788 
L 3356 1359 
L 1266 1359 
Q 1322 1078 1512 914 
Q 1703 750 2003 750 
Q 2506 750 2788 1100 
L 3266 531 
z
M 1813 2631 
Q 1544 2631 1422 2457 
Q 1300 2284 1266 2019 
L 2328 2019 
L 2328 2100 
Q 2334 2631 1813 2631 
z
" transform="scale(0.015625)"/>
       <path id="Roboto-Black-5b" d="M 1766 5331 
L 1766 4563 
L 1397 4563 
L 1397 -325 
L 1766 -325 
L 1766 -1091 
L 338 -1091 
L 338 5331 
L 1766 5331 
z
" transform="scale(0.015625)"/>
       <path id="Roboto-Black-c5" d="M -13 0 
L 1659 4550 
L 2694 4550 
L 4375 0 
L 3194 0 
L 2931 850 
L 1428 850 
L 1166 0 
L -13 0 
z
M 1691 1697 
L 2669 1697 
L 2178 3281 
L 1691 1697 
z
M 1492 5388 
Q 1492 5644 1690 5833 
Q 1889 6022 2192 6022 
Q 2498 6022 2696 5833 
Q 2895 5644 2895 5388 
Q 2895 5132 2696 4949 
Q 2498 4766 2192 4766 
Q 1889 4766 1690 4949 
Q 1492 5132 1492 5388 
z
M 1870 5387 
Q 1870 5250 1956 5156 
Q 2042 5063 2192 5063 
Q 2345 5063 2431 5156 
Q 2517 5250 2517 5387 
Q 2517 5525 2431 5622 
Q 2345 5719 2192 5719 
Q 2042 5719 1956 5622 
Q 1870 5525 1870 5387 
z
" transform="scale(0.015625)"/>
       <path id="Roboto-Black-5d" d="M 44 4563 
L 44 5331 
L 1472 5331 
L 1472 -1091 
L 44 -1091 
L 44 -325 
L 419 -325 
L 419 4563 
L 44 4563 
z
" transform="scale(0.015625)"/>
      </defs>
      <use xlink:href="#Roboto-Black-43" transform="translate(0 0.90625)"/>
      <use xlink:href="#Roboto-Black-79" transform="translate(65.625 0.90625)"/>
      <use xlink:href="#Roboto-Black-73" transform="translate(117.431641 0.90625)"/>
      <use xlink:href="#Roboto-Black-31" transform="translate(168.701172 0.90625)"/>
      <use xlink:href="#Roboto-Black-34" transform="translate(226.660156 0.90625)"/>
      <use xlink:href="#Roboto-Black-37" transform="translate(284.619141 0.90625)"/>
      <use xlink:href="#Roboto-Black-20" transform="translate(342.578125 0.90625)"/>
      <use xlink:href="#Roboto-Black-43" transform="translate(367.480469 0.90625)"/>
      <use xlink:href="#DejaVuSans-Oblique-3b1" transform="translate(434.0625 -15.5) scale(0.7)"/>
      <use xlink:href="#Roboto-Black-20" transform="translate(482.939453 0.90625)"/>
      <use xlink:href="#Roboto-Black-2d" transform="translate(507.841797 0.90625)"/>
      <use xlink:href="#Roboto-Black-20" transform="translate(552.8125 0.90625)"/>
      <use xlink:href="#Roboto-Black-43" transform="translate(577.714844 0.90625)"/>
      <use xlink:href="#Roboto-Black-79" transform="translate(643.339844 0.90625)"/>
      <use xlink:href="#Roboto-Black-73" transform="translate(695.146484 0.90625)"/>
      <use xlink:href="#Roboto-Black-32" transform="translate(746.416016 0.90625)"/>
      <use xlink:href="#Roboto-Black-30" transform="translate(804.375 0.90625)"/>
      <use xlink:href="#Roboto-Black-34" transform="translate(862.333984 0.90625)"/>
      <use xlink:href="#Roboto-Black-20" transform="translate(920.292969 0.90625)"/>
      <use xlink:href="#Roboto-Black-43" transform="translate(945.195312 0.90625)"/>
      <use xlink:href="#DejaVuSans-Oblique-3b1" transform="translate(1011.777344 -15.5) scale(0.7)"/>
      <use xlink:href="#Roboto-Black-20" transform="translate(1060.654297 0.90625)"/>
      <use xlink:href="#Roboto-Black-44" transform="translate(1085.556641 0.90625)"/>
      <use xlink:href="#Roboto-Black-69" transform="translate(1150.253906 0.90625)"/>
      <use xlink:href="#Roboto-Black-73" transform="translate(1177.744141 0.90625)"/>
      <use xlink:href="#Roboto-Black-74" transform="translate(1229.013672 0.90625)"/>
      <use xlink:href="#Roboto-Black-61" transform="translate(1263.388672 0.90625)"/>
      <use xlink:href="#Roboto-Black-6e" transform="translate(1316.513672 0.90625)"/>
      <use xlink:href="#Roboto-Black-63" transform="translate(1372.958984 0.90625)"/>
      <use xlink:href="#Roboto-Black-65" transform="translate(1424.960938 0.90625)"/>
      <use xlink:href="#Roboto-Black-20" transform="translate(1479.453125 0.90625)"/>
      <use xlink:href="#Roboto-Black-5b" transform="translate(1504.355469 0.90625)"/>
      <use xlink:href="#Roboto-Black-c5" transform="translate(1532.578125 0.90625)"/>
      <use xlink:href="#Roboto-Black-5d" transform="translate(1600.693359 0.90625)"/>
     </g>
    </g>
   </g>
   <g id="matplotlib.axis_2">
    <g id="ytick_1">
     <g id="line2d_12">
      <defs>
       <path id="m4044311fa7" d="M 0 0 
L -3.5 0 
" style="stroke: #c2c1c1; stroke-width: 0.8"/>
      </defs>
      <g>
       <use xlink:href="#m4044311fa7" x="49.421" y="297.808" style="fill: #c2c1c1; stroke: #c2c1c1; stroke-width: 0.8"/>
      </g>
     </g>
     <g id="text_11">
      <!-- 0.0 -->
      <g style="fill: #191919" transform="translate(28.542875 301.558) scale(0.1 -0.1)">
       <use xlink:href="#Roboto-Regular-30"/>
       <use xlink:href="#Roboto-Regular-2e" x="56.201172"/>
       <use xlink:href="#Roboto-Regular-30" x="82.568359"/>
      </g>
     </g>
    </g>
    <g id="ytick_2">
     <g id="line2d_13">
      <g>
       <use xlink:href="#m4044311fa7" x="49.421" y="250.18083" style="fill: #c2c1c1; stroke: #c2c1c1; stroke-width: 0.8"/>
      </g>
     </g>
     <g id="text_12">
      <!-- 0.5 -->
      <g style="fill: #191919" transform="translate(28.542875 253.93083) scale(0.1 -0.1)">
       <use xlink:href="#Roboto-Regular-30"/>
       <use xlink:href="#Roboto-Regular-2e" x="56.201172"/>
       <use xlink:href="#Roboto-Regular-35" x="82.568359"/>
      </g>
     </g>
    </g>
    <g id="ytick_3">
     <g id="line2d_14">
      <g>
       <use xlink:href="#m4044311fa7" x="49.421" y="202.553659" style="fill: #c2c1c1; stroke: #c2c1c1; stroke-width: 0.8"/>
      </g>
     </g>
     <g id="text_13">
      <!-- 1.0 -->
      <g style="fill: #191919" transform="translate(28.542875 206.303659) scale(0.1 -0.1)">
       <defs>
        <path id="Roboto-Regular-31" d="M 2278 4575 
L 2278 0 
L 1700 0 
L 1700 3853 
L 534 3428 
L 534 3950 
L 2188 4575 
L 2278 4575 
z
" transform="scale(0.015625)"/>
       </defs>
       <use xlink:href="#Roboto-Regular-31"/>
       <use xlink:href="#Roboto-Regular-2e" x="56.201172"/>
       <use xlink:href="#Roboto-Regular-30" x="82.568359"/>
      </g>
     </g>
    </g>
    <g id="ytick_4">
     <g id="line2d_15">
      <g>
       <use xlink:href="#m4044311fa7" x="49.421" y="154.926489" style="fill: #c2c1c1; stroke: #c2c1c1; stroke-width: 0.8"/>
      </g>
     </g>
     <g id="text_14">
      <!-- 1.5 -->
      <g style="fill: #191919" transform="translate(28.542875 158.676489) scale(0.1 -0.1)">
       <use xlink:href="#Roboto-Regular-31"/>
       <use xlink:href="#Roboto-Regular-2e" x="56.201172"/>
       <use xlink:href="#Roboto-Regular-35" x="82.568359"/>
      </g>
     </g>
    </g>
    <g id="ytick_5">
     <g id="line2d_16">
      <g>
       <use xlink:href="#m4044311fa7" x="49.421" y="107.299319" style="fill: #c2c1c1; stroke: #c2c1c1; stroke-width: 0.8"/>
      </g>
     </g>
     <g id="text_15">
      <!-- 2.0 -->
      <g style="fill: #191919" transform="translate(28.542875 111.049319) scale(0.1 -0.1)">
       <defs>
        <path id="Roboto-Regular-32" d="M 3359 475 
L 3359 0 
L 381 0 
L 381 416 
L 1925 2134 
Q 2306 2566 2439 2819 
Q 2572 3072 2572 3328 
Q 2572 3663 2364 3900 
Q 2156 4138 1778 4138 
Q 1322 4138 1097 3878 
Q 872 3619 872 3213 
L 294 3213 
Q 294 3788 672 4200 
Q 1050 4613 1778 4613 
Q 2422 4613 2786 4278 
Q 3150 3944 3150 3397 
Q 3150 2997 2903 2592 
Q 2656 2188 2297 1797 
L 1078 475 
L 3359 475 
z
" transform="scale(0.015625)"/>
       </defs>
       <use xlink:href="#Roboto-Regular-32"/>
       <use xlink:href="#Roboto-Regular-2e" x="56.201172"/>
       <use xlink:href="#Roboto-Regular-30" x="82.568359"/>
      </g>
     </g>
    </g>
    <g id="ytick_6">
     <g id="line2d_17">
      <g>
       <use xlink:href="#m4044311fa7" x="49.421" y="59.672148" style="fill: #c2c1c1; stroke: #c2c1c1; stroke-width: 0.8"/>
      </g>
     </g>
     <g id="text_16">
      <!-- 2.5 -->
      <g style="fill: #191919" transform="translate(28.542875 63.422148) scale(0.1 -0.1)">
       <use xlink:href="#Roboto-Regular-32"/>
       <use xlink:href="#Roboto-Regular-2e" x="56.201172"/>
       <use xlink:href="#Roboto-Regular-35" x="82.568359"/>
      </g>
     </g>
    </g>
    <g id="text_17">
     <!-- Density -->
     <g style="fill: #191919" transform="translate(21.981625 175.819625) rotate(-90) scale(0.12 -0.12)">
      <use xlink:href="#Roboto-Black-44"/>
      <use xlink:href="#Roboto-Black-65" x="64.697266"/>
      <use xlink:href="#Roboto-Black-6e" x="119.189453"/>
      <use xlink:href="#Roboto-Black-73" x="175.634766"/>
      <use xlink:href="#Roboto-Black-69" x="226.904297"/>
      <use xlink:href="#Roboto-Black-74" x="254.394531"/>
      <use xlink:href="#Roboto-Black-79" x="288.769531"/>
     </g>
    </g>
   </g>
   <g id="line2d_18">
    <path d="M -1 297.808 
L 116.265128 297.711232 
L 122.143927 297.511504 
L 126.063127 297.077834 
L 129.982326 296.45646 
L 131.941926 295.987886 
L 134.881326 294.994955 
L 136.840926 294.057374 
L 138.800526 292.813467 
L 141.739925 290.644622 
L 143.699525 288.947988 
L 145.659125 287.063405 
L 147.618725 284.843592 
L 149.578325 282.048958 
L 155.457124 272.682984 
L 164.275324 257.15621 
L 166.234923 252.946987 
L 169.174323 246.310065 
L 170.154123 244.505903 
L 172.113723 241.559036 
L 174.073323 238.513586 
L 177.012722 233.321709 
L 178.972322 230.681677 
L 180.931922 228.223999 
L 181.911722 227.167595 
L 182.891522 226.406646 
L 185.830922 224.984843 
L 186.810722 224.231262 
L 188.770321 222.45526 
L 189.750121 221.771222 
L 190.729921 221.325126 
L 194.649121 220.285692 
L 195.628921 220.340263 
L 196.608721 220.72018 
L 203.46732 224.972943 
L 204.44712 225.138542 
L 205.42692 224.867133 
L 208.36632 223.041991 
L 209.34612 222.822153 
L 210.32592 222.877942 
L 212.285519 223.410235 
L 213.265319 223.717679 
L 214.245119 223.870861 
L 215.224919 223.688992 
L 216.204719 223.138386 
L 218.164319 221.726743 
L 221.103719 220.004787 
L 222.083519 219.085921 
L 225.022918 215.686216 
L 226.002718 214.916297 
L 226.982518 214.460666 
L 227.962318 214.296698 
L 230.901718 214.564199 
L 231.881518 214.281006 
L 234.820918 212.752894 
L 235.800717 212.449996 
L 238.740117 211.940409 
L 241.679517 211.052806 
L 242.659317 211.092702 
L 243.639117 211.340701 
L 244.618917 211.756932 
L 245.598717 212.40962 
L 246.578517 213.427166 
L 247.558316 214.829628 
L 249.517916 218.025921 
L 250.497716 219.379371 
L 253.437116 222.569748 
L 254.416916 224.010412 
L 255.396716 225.907466 
L 257.356316 230.629196 
L 259.315915 235.235374 
L 261.275515 238.937417 
L 267.154315 248.613394 
L 271.073514 255.253617 
L 273.033114 258.59868 
L 274.992714 261.448233 
L 278.911914 266.526876 
L 280.871514 268.789544 
L 283.810913 271.827956 
L 285.770513 273.522827 
L 286.750313 274.10339 
L 288.709913 274.868893 
L 290.669513 275.6014 
L 292.629113 276.638485 
L 297.528112 279.745826 
L 298.507912 280.164188 
L 300.467512 280.516816 
L 301.447312 280.705178 
L 302.427112 281.088354 
L 304.386712 282.375863 
L 306.346311 283.634849 
L 309.285711 284.968088 
L 313.204911 286.867552 
L 319.08371 289.806265 
L 323.00291 291.182389 
L 325.94231 292.439888 
L 331.821109 294.463398 
L 333.780709 294.904117 
L 336.720109 295.476511 
L 340.639309 296.313227 
L 343.578708 296.56878 
L 348.477708 297.030268 
L 351.417108 297.269591 
L 357.295907 297.557827 
L 361.215107 297.72033 
L 461.8 297.808 
L 461.8 297.808 
" clip-path="url(#pcc49fc96e4)" style="fill: none; stroke: #f99752; stroke-width: 2.5; stroke-linecap: square"/>
   </g>
   <g id="patch_3">
    <path d="M 49.421 297.808 
L 49.421 12.96 
" style="fill: none; stroke: #c2c1c1; stroke-width: 0.8; stroke-linejoin: miter; stroke-linecap: square"/>
   </g>
   <g id="patch_4">
    <path d="M 440.9055 297.808 
L 440.9055 12.96 
" style="fill: none; stroke: #c2c1c1; stroke-width: 0.8; stroke-linejoin: miter; stroke-linecap: square"/>
   </g>
   <g id="patch_5">
    <path d="M 49.421 297.808 
L 440.9055 297.808 
" style="fill: none; stroke: #c2c1c1; stroke-width: 0.8; stroke-linejoin: miter; stroke-linecap: square"/>
   </g>
   <g id="patch_6">
    <path d="M 49.421 12.96 
L 440.9055 12.96 
" style="fill: none; stroke: #c2c1c1; stroke-width: 0.8; stroke-linejoin: miter; stroke-linecap: square"/>
   </g>
   <g id="legend_1">
    <g id="line2d_19">
     <path d="M 349.953 28.56 
L 361.953 28.56 
L 373.953 28.56 
" style="fill: none; stroke: #1e2e79; stroke-width: 2.5; stroke-linecap: square"/>
    </g>
    <g id="text_18">
     <!-- Reduced -->
     <g transform="translate(383.553 32.76) scale(0.12 -0.12)">
      <defs>
       <path id="Roboto-Regular-52" d="M 3188 0 
L 2200 1844 
L 1131 1844 
L 1131 0 
L 528 0 
L 528 4550 
L 2034 4550 
Q 2800 4550 3214 4200 
Q 3628 3850 3628 3184 
Q 3628 2759 3398 2442 
Q 3169 2125 2763 1969 
L 3831 38 
L 3831 0 
L 3188 0 
z
M 1131 4056 
L 1131 2334 
L 2053 2334 
Q 2538 2334 2783 2582 
Q 3028 2831 3028 3184 
Q 3028 3578 2792 3817 
Q 2556 4056 2034 4056 
L 1131 4056 
z
" transform="scale(0.015625)"/>
       <path id="Roboto-Regular-65" d="M 3116 591 
Q 2950 341 2647 139 
Q 2344 -63 1844 -63 
Q 1138 -63 714 396 
Q 291 856 291 1572 
L 291 1703 
Q 291 2256 502 2645 
Q 713 3034 1050 3239 
Q 1388 3444 1769 3444 
Q 2494 3444 2826 2970 
Q 3159 2497 3159 1788 
L 3159 1528 
L 872 1528 
Q 884 1063 1148 736 
Q 1413 409 1875 409 
Q 2181 409 2393 534 
Q 2606 659 2766 869 
L 3116 591 
z
M 1769 2969 
Q 1425 2969 1187 2719 
Q 950 2469 891 2000 
L 2581 2000 
L 2581 2044 
Q 2559 2381 2386 2675 
Q 2213 2969 1769 2969 
z
" transform="scale(0.015625)"/>
       <path id="Roboto-Regular-64" d="M 2622 0 
L 2594 363 
Q 2247 -63 1628 -63 
Q 1034 -63 668 418 
Q 303 900 297 1628 
L 297 1719 
Q 297 2494 664 2969 
Q 1031 3444 1634 3444 
Q 2231 3444 2572 3044 
L 2572 4800 
L 3153 4800 
L 3153 0 
L 2622 0 
z
M 878 1653 
Q 878 1150 1090 789 
Q 1303 428 1772 428 
Q 2309 428 2572 919 
L 2572 2475 
Q 2313 2956 1778 2956 
Q 1306 2956 1092 2589 
Q 878 2222 878 1719 
L 878 1653 
z
" transform="scale(0.015625)"/>
       <path id="Roboto-Regular-75" d="M 2538 0 
L 2525 334 
Q 2194 -63 1538 -63 
Q 1041 -63 734 231 
Q 428 525 428 1200 
L 428 3381 
L 1006 3381 
L 1006 1194 
Q 1006 738 1198 583 
Q 1391 428 1628 428 
Q 2281 428 2509 919 
L 2509 3381 
L 3091 3381 
L 3091 0 
L 2538 0 
z
" transform="scale(0.015625)"/>
       <path id="Roboto-Regular-63" d="M 1794 413 
Q 2103 413 2336 597 
Q 2569 781 2591 1069 
L 3141 1069 
Q 3119 616 2725 276 
Q 2331 -63 1794 -63 
Q 1031 -63 661 440 
Q 291 944 291 1625 
L 291 1756 
Q 291 2438 661 2941 
Q 1031 3444 1794 3444 
Q 2388 3444 2753 3092 
Q 3119 2741 3141 2219 
L 2591 2219 
Q 2569 2531 2355 2750 
Q 2141 2969 1794 2969 
Q 1438 2969 1236 2787 
Q 1034 2606 951 2328 
Q 869 2050 869 1756 
L 869 1625 
Q 869 1328 950 1050 
Q 1031 772 1232 592 
Q 1434 413 1794 413 
z
" transform="scale(0.015625)"/>
      </defs>
      <use xlink:href="#Roboto-Regular-52"/>
      <use xlink:href="#Roboto-Regular-65" x="61.621094"/>
      <use xlink:href="#Roboto-Regular-64" x="114.648438"/>
      <use xlink:href="#Roboto-Regular-75" x="171.044922"/>
      <use xlink:href="#Roboto-Regular-63" x="226.171875"/>
      <use xlink:href="#Roboto-Regular-65" x="278.515625"/>
      <use xlink:href="#Roboto-Regular-64" x="331.542969"/>
     </g>
    </g>
    <g id="line2d_20">
     <path d="M 349.953 45.9975 
L 361.953 45.9975 
L 373.953 45.9975 
" style="fill: none; stroke: #ec4067; stroke-width: 2.5; stroke-linecap: square"/>
    </g>
    <g id="text_19">
     <!-- Oxidized -->
     <g transform="translate(383.553 50.1975) scale(0.12 -0.12)">
      <defs>
       <path id="Roboto-Regular-4f" d="M 4031 2131 
Q 4031 1106 3534 521 
Q 3038 -63 2206 -63 
Q 1397 -63 884 521 
Q 372 1106 372 2131 
L 372 2419 
Q 372 3441 881 4027 
Q 1391 4613 2200 4613 
Q 3025 4613 3523 4036 
Q 4022 3459 4031 2456 
L 4031 2131 
z
M 3434 2425 
Q 3434 3238 3109 3669 
Q 2784 4100 2200 4100 
Q 1641 4100 1305 3669 
Q 969 3238 969 2425 
L 969 2131 
Q 969 1313 1308 880 
Q 1647 447 2206 447 
Q 2794 447 3114 880 
Q 3434 1313 3434 2131 
L 3434 2425 
z
" transform="scale(0.015625)"/>
       <path id="Roboto-Regular-78" d="M 831 3381 
L 1572 2150 
L 2322 3381 
L 3000 3381 
L 1894 1713 
L 3034 0 
L 2366 0 
L 1584 1269 
L 803 0 
L 131 0 
L 1269 1713 
L 166 3381 
L 831 3381 
z
" transform="scale(0.015625)"/>
       <path id="Roboto-Regular-69" d="M 444 4278 
Q 444 4419 530 4516 
Q 616 4613 784 4613 
Q 950 4613 1039 4516 
Q 1128 4419 1128 4278 
Q 1128 4144 1039 4048 
Q 950 3953 784 3953 
Q 616 3953 530 4048 
Q 444 4144 444 4278 
z
M 1069 3381 
L 1069 0 
L 488 0 
L 488 3381 
L 1069 3381 
z
" transform="scale(0.015625)"/>
       <path id="Roboto-Regular-7a" d="M 303 2903 
L 303 3381 
L 2869 3381 
L 2869 2972 
L 988 475 
L 2959 475 
L 2959 0 
L 278 0 
L 278 425 
L 2141 2903 
L 303 2903 
z
" transform="scale(0.015625)"/>
      </defs>
      <use xlink:href="#Roboto-Regular-4f"/>
      <use xlink:href="#Roboto-Regular-78" x="68.798828"/>
      <use xlink:href="#Roboto-Regular-69" x="118.408203"/>
      <use xlink:href="#Roboto-Regular-64" x="142.724609"/>
      <use xlink:href="#Roboto-Regular-69" x="199.121094"/>
      <use xlink:href="#Roboto-Regular-7a" x="223.4375"/>
      <use xlink:href="#Roboto-Regular-65" x="273.046875"/>
      <use xlink:href="#Roboto-Regular-64" x="326.074219"/>
     </g>
    </g>
    <g id="line2d_21">
     <path d="M 349.953 64.06125 
L 361.953 64.06125 
L 373.953 64.06125 
" style="fill: none; stroke: #f99752; stroke-width: 2.5; stroke-linecap: square"/>
    </g>
    <g id="text_20">
     <!-- Cu(I) -->
     <g transform="translate(383.553 68.26125) scale(0.12 -0.12)">
      <defs>
       <path id="Roboto-Regular-43" d="M 3275 1447 
L 3875 1447 
Q 3806 800 3387 368 
Q 2969 -63 2150 -63 
Q 1356 -63 870 504 
Q 384 1072 375 2013 
L 375 2500 
Q 375 3456 867 4034 
Q 1359 4613 2203 4613 
Q 2975 4613 3390 4188 
Q 3806 3763 3875 3091 
L 3275 3091 
Q 3206 3566 2968 3842 
Q 2731 4119 2203 4119 
Q 1600 4119 1287 3675 
Q 975 3231 975 2506 
L 975 2047 
Q 975 1375 1259 901 
Q 1544 428 2150 428 
Q 2725 428 2961 697 
Q 3197 966 3275 1447 
z
" transform="scale(0.015625)"/>
       <path id="Roboto-Regular-28" d="M 419 1850 
Q 419 2756 678 3434 
Q 938 4113 1294 4541 
Q 1650 4969 1947 5134 
L 2069 4753 
Q 1700 4475 1348 3761 
Q 997 3047 997 1813 
Q 997 625 1348 -97 
Q 1700 -819 2069 -1119 
L 1947 -1469 
Q 1650 -1306 1294 -878 
Q 938 -450 678 226 
Q 419 903 419 1850 
z
" transform="scale(0.015625)"/>
       <path id="Roboto-Regular-49" d="M 1175 4550 
L 1175 0 
L 572 0 
L 572 4550 
L 1175 4550 
z
" transform="scale(0.015625)"/>
       <path id="Roboto-Regular-29" d="M 1772 1819 
Q 1772 906 1512 228 
Q 1253 -450 895 -878 
Q 538 -1306 244 -1469 
L 122 -1119 
Q 488 -841 841 -109 
Q 1194 622 1194 1856 
Q 1194 2647 1019 3236 
Q 844 3825 594 4212 
Q 344 4600 122 4781 
L 244 5134 
Q 538 4969 895 4541 
Q 1253 4113 1512 3436 
Q 1772 2759 1772 1819 
z
" transform="scale(0.015625)"/>
      </defs>
      <use xlink:href="#Roboto-Regular-43"/>
      <use xlink:href="#Roboto-Regular-75" x="65.087891"/>
      <use xlink:href="#Roboto-Regular-28" x="120.214844"/>
      <use xlink:href="#Roboto-Regular-49" x="154.443359"/>
      <use xlink:href="#Roboto-Regular-29" x="181.640625"/>
     </g>
    </g>
   </g>
  </g>
 </g>
 <defs>
  <clipPath id="pcc49fc96e4">
   <rect x="49.421" y="12.96" width="391.4845" height="284.848"/>
  </clipPath>
 </defs>
</svg>
