<?xml version="1.0" encoding="utf-8" standalone="no"?>
<!DOCTYPE svg PUBLIC "-//W3C//DTD SVG 1.1//EN"
  "http://www.w3.org/Graphics/SVG/1.1/DTD/svg11.dtd">
<svg xmlns:xlink="http://www.w3.org/1999/xlink" width="460.8pt" height="345.6pt" viewBox="0 0 460.8 345.6" xmlns="http://www.w3.org/2000/svg" version="1.1">
 <metadata>
  <rdf:RDF xmlns:dc="http://purl.org/dc/elements/1.1/" xmlns:cc="http://creativecommons.org/ns#" xmlns:rdf="http://www.w3.org/1999/02/22-rdf-syntax-ns#">
   <cc:Work>
    <dc:type rdf:resource="http://purl.org/dc/dcmitype/StillImage"/>
    <dc:date>2024-06-10T22:01:56.985462</dc:date>
    <dc:format>image/svg+xml</dc:format>
    <dc:creator>
     <cc:Agent>
      <dc:title>Matplotlib v3.8.4, https://matplotlib.org/</dc:title>
     </cc:Agent>
    </dc:creator>
   </cc:Work>
  </rdf:RDF>
 </metadata>
 <defs>
  <style type="text/css">*{stroke-linejoin: round; stroke-linecap: butt}</style>
 </defs>
 <g id="figure_1">
  <g id="patch_1">
   <path d="M 0 345.6 
L 460.8 345.6 
L 460.8 0 
L 0 0 
z
" style="fill: #ffffff"/>
  </g>
  <g id="axes_1">
   <g id="patch_2">
    <path d="M 54.02 302.8525 
L 446.805 302.8525 
L 446.805 10.8 
L 54.02 10.8 
z
" style="fill: #ffffff"/>
   </g>
   <g id="line2d_1">
    <path d="M 54.02 302.8525 
L 85.867432 302.761267 
L 89.406036 302.512599 
L 92.439125 302.053313 
L 95.977728 301.232432 
L 99.010817 300.59652 
L 101.032876 300.384899 
L 104.065965 300.344092 
L 108.615598 300.28535 
L 112.659717 300.223523 
L 116.19832 300.41358 
L 121.253468 300.954133 
L 124.792072 301.249732 
L 127.825161 301.238824 
L 130.85825 301.020434 
L 133.385824 300.621231 
L 135.407883 300.032943 
L 136.924427 299.361343 
L 138.440972 298.44323 
L 139.957516 297.240505 
L 141.47406 295.719605 
L 142.990605 293.849264 
L 144.507149 291.600028 
L 146.023694 288.945764 
L 147.540238 285.864882 
L 149.056782 282.338612 
L 150.573327 278.343332 
L 152.089871 273.838283 
L 153.606416 268.762878 
L 155.12296 263.063346 
L 157.145019 254.52412 
L 163.211197 227.44788 
L 164.727741 221.881508 
L 166.244286 217.025031 
L 168.266345 211.362047 
L 170.793919 205.058782 
L 172.310463 201.748042 
L 173.321493 199.87378 
L 174.332523 198.355082 
L 175.343552 197.245883 
L 176.354582 196.570141 
L 177.365611 196.326244 
L 178.376641 196.499717 
L 179.387671 197.075883 
L 180.3987 198.044393 
L 181.40973 199.392577 
L 182.420759 201.091566 
L 183.937304 204.163688 
L 188.992452 215.126661 
L 196.575174 229.721076 
L 198.597233 233.677683 
L 200.113777 236.092232 
L 201.124807 237.305263 
L 202.135837 238.154268 
L 203.146866 238.627788 
L 204.157896 238.735196 
L 205.168925 238.499141 
L 206.179955 237.946654 
L 207.190985 237.100362 
L 208.202014 235.971345 
L 209.213044 234.555296 
L 210.224073 232.833442 
L 211.235103 230.778624 
L 212.751647 227.019256 
L 214.268192 222.430181 
L 215.784736 217.089343 
L 217.806795 209.078646 
L 220.839884 195.93768 
L 225.895032 172.880376 
L 228.422606 160.558662 
L 230.444665 149.60802 
L 232.972239 134.440321 
L 243.58805 68.64715 
L 245.610109 57.620912 
L 247.126654 50.432378 
L 248.643198 44.230751 
L 250.159743 38.906576 
L 251.676287 34.3131 
L 253.192831 30.396825 
L 254.203861 28.217452 
L 255.214891 26.476375 
L 256.22592 25.277941 
L 256.731435 24.914242 
L 257.23695 24.721592 
L 257.742465 24.707262 
L 258.247979 24.875268 
L 258.753494 25.226134 
L 259.259009 25.756941 
L 260.270039 27.331873 
L 261.281068 29.527348 
L 262.292098 32.259674 
L 263.808642 37.231278 
L 265.325187 43.211809 
L 266.841731 50.290611 
L 268.358275 58.514489 
L 270.380335 70.899737 
L 277.457542 115.628272 
L 280.996145 136.625617 
L 283.523719 150.139935 
L 285.545779 159.814452 
L 288.073353 170.846266 
L 291.611956 185.272206 
L 293.634015 192.780177 
L 295.15056 197.658784 
L 296.667104 201.664128 
L 297.678134 203.821075 
L 298.689163 205.6014 
L 300.205708 207.706798 
L 301.722252 209.364961 
L 304.249826 211.682759 
L 306.271885 213.310515 
L 307.78843 214.317925 
L 309.304974 215.030484 
L 310.316004 215.301612 
L 311.327033 215.399211 
L 312.843578 215.247515 
L 314.865637 214.675624 
L 317.393211 213.922184 
L 318.909755 213.6785 
L 320.4263 213.629427 
L 322.448359 213.802613 
L 324.470418 214.208465 
L 325.986963 214.726462 
L 327.503507 215.511183 
L 329.020051 216.592237 
L 331.547625 218.820191 
L 333.569685 220.543962 
L 335.591744 221.964901 
L 338.624833 223.986919 
L 340.646892 225.657051 
L 344.69101 229.215015 
L 346.207555 230.258594 
L 347.724099 231.04707 
L 349.240644 231.568447 
L 350.757188 231.82179 
L 352.273732 231.836897 
L 355.306821 231.682993 
L 356.317851 231.824757 
L 357.32888 232.172909 
L 358.33991 232.756002 
L 359.35094 233.564773 
L 360.867484 235.106325 
L 363.395058 238.124547 
L 365.922632 241.488432 
L 367.944691 244.618038 
L 369.96675 248.172174 
L 374.010869 255.852753 
L 379.571532 266.429096 
L 382.099106 270.624176 
L 386.648739 277.919483 
L 390.692857 284.652735 
L 392.209402 286.753414 
L 393.725946 288.460933 
L 395.24249 289.790243 
L 396.759035 290.817658 
L 398.781094 291.863341 
L 400.803153 292.636167 
L 402.825212 293.142798 
L 404.847272 293.384615 
L 407.88036 293.441099 
L 410.913449 293.548142 
L 413.441023 293.890045 
L 419.507201 294.917928 
L 424.562349 295.347967 
L 430.123012 295.689699 
L 435.17816 295.70598 
L 441.244337 295.597036 
L 445.79397 295.505009 
L 450.343604 295.700263 
L 456.409781 295.926273 
L 459.948385 296.124782 
L 461.8 296.33714 
L 461.8 296.33714 
" clip-path="url(#p70ba4974bf)" style="fill: none; stroke: #1e2e79; stroke-width: 2.5; stroke-linecap: square"/>
   </g>
   <g id="line2d_2">
    <path d="M 54.02 302.85238 
L 79.801255 302.746783 
L 88.395006 302.472537 
L 108.615598 301.659203 
L 123.275528 301.526928 
L 125.803102 301.232885 
L 128.330676 300.704192 
L 130.352735 300.039062 
L 131.869279 299.352517 
L 133.385824 298.465253 
L 134.902368 297.336249 
L 136.418912 295.920122 
L 137.935457 294.16793 
L 139.452001 292.028424 
L 140.968546 289.449799 
L 142.48509 286.381998 
L 144.001634 282.779521 
L 145.518179 278.604711 
L 147.034723 273.831361 
L 148.551268 268.448438 
L 150.573327 260.339388 
L 152.595386 251.242413 
L 155.12296 238.727435 
L 159.167079 217.256071 
L 162.705682 198.890964 
L 164.727741 189.398148 
L 166.749801 181.071991 
L 168.266345 175.763829 
L 169.782889 171.356416 
L 170.793919 168.946662 
L 171.804949 166.969767 
L 172.815978 165.426826 
L 173.827008 164.312403 
L 174.838037 163.614846 
L 175.849067 163.316749 
L 176.860097 163.395542 
L 177.871126 163.824193 
L 178.882156 164.571978 
L 179.893185 165.605314 
L 181.40973 167.612503 
L 182.926274 170.057509 
L 184.948333 173.784157 
L 192.531055 188.352883 
L 194.553115 191.519842 
L 196.069659 193.543714 
L 197.586203 195.233101 
L 199.102748 196.56827 
L 200.619292 197.538169 
L 202.135837 198.139941 
L 203.146866 198.338765 
L 204.157896 198.379414 
L 205.168925 198.266708 
L 206.68547 197.824051 
L 208.202014 197.076976 
L 209.718559 196.057538 
L 211.235103 194.802318 
L 213.257162 192.830731 
L 215.784736 190.024378 
L 220.839884 183.94225 
L 224.884003 179.212485 
L 228.422606 175.405638 
L 232.466725 171.407493 
L 240.049447 164.038759 
L 243.082535 160.755734 
L 246.115624 157.145301 
L 249.148713 153.201298 
L 252.687317 148.248281 
L 257.742465 140.763301 
L 268.358275 124.917698 
L 271.391364 120.778049 
L 273.918938 117.662802 
L 275.940997 115.477235 
L 277.963057 113.638534 
L 279.479601 112.529677 
L 280.996145 111.685086 
L 282.51269 111.132752 
L 284.029234 110.89847 
L 285.040264 110.930437 
L 286.051293 111.120017 
L 287.062323 111.472523 
L 288.073353 111.992589 
L 289.589897 113.095414 
L 291.106441 114.595063 
L 292.622986 116.500012 
L 294.13953 118.816742 
L 295.656075 121.550109 
L 297.172619 124.703412 
L 298.689163 128.278053 
L 300.711223 133.697003 
L 302.733282 139.84855 
L 304.755341 146.701811 
L 307.282915 156.172748 
L 309.810489 166.500113 
L 313.349093 181.98561 
L 322.953874 224.74372 
L 325.986963 236.949534 
L 328.514537 246.278116 
L 331.042111 254.746719 
L 333.06417 260.870502 
L 335.086229 266.406649 
L 337.108288 271.360184 
L 339.130347 275.746936 
L 341.152407 279.592074 
L 343.174466 282.928634 
L 345.196525 285.795975 
L 347.218584 288.238162 
L 349.240644 290.302284 
L 351.262703 292.036766 
L 353.284762 293.489724 
L 355.306821 294.707408 
L 357.834395 295.963724 
L 360.867484 297.177276 
L 364.406088 298.312622 
L 368.450206 299.366981 
L 372.999839 300.330121 
L 377.549472 301.079737 
L 382.099106 301.618903 
L 387.659768 302.033246 
L 394.736976 302.315304 
L 408.385875 302.587511 
L 424.562349 302.726016 
L 440.738822 302.604069 
L 461.8 302.453209 
L 461.8 302.453209 
" clip-path="url(#p70ba4974bf)" style="fill: none; stroke: #ec4067; stroke-width: 2.5; stroke-linecap: square"/>
   </g>
   <g id="matplotlib.axis_1">
    <g id="xtick_1">
     <g id="line2d_3">
      <defs>
       <path id="m807431c64d" d="M 0 0 
L 0 3.5 
" style="stroke: #000000; stroke-width: 0.8"/>
      </defs>
      <g>
       <use xlink:href="#m807431c64d" x="54.02" y="302.8525" style="stroke: #000000; stroke-width: 0.8"/>
      </g>
     </g>
     <g id="text_1">
      <!-- 1 -->
      <g transform="translate(50.83875 317.450938) scale(0.1 -0.1)">
       <defs>
        <path id="DejaVuSans-31" d="M 794 531 
L 1825 531 
L 1825 4091 
L 703 3866 
L 703 4441 
L 1819 4666 
L 2450 4666 
L 2450 531 
L 3481 531 
L 3481 0 
L 794 0 
L 794 531 
z
" transform="scale(0.015625)"/>
       </defs>
       <use xlink:href="#DejaVuSans-31"/>
      </g>
     </g>
    </g>
    <g id="xtick_2">
     <g id="line2d_4">
      <g>
       <use xlink:href="#m807431c64d" x="110.132143" y="302.8525" style="stroke: #000000; stroke-width: 0.8"/>
      </g>
     </g>
     <g id="text_2">
      <!-- 2 -->
      <g transform="translate(106.950893 317.450938) scale(0.1 -0.1)">
       <defs>
        <path id="DejaVuSans-32" d="M 1228 531 
L 3431 531 
L 3431 0 
L 469 0 
L 469 531 
Q 828 903 1448 1529 
Q 2069 2156 2228 2338 
Q 2531 2678 2651 2914 
Q 2772 3150 2772 3378 
Q 2772 3750 2511 3984 
Q 2250 4219 1831 4219 
Q 1534 4219 1204 4116 
Q 875 4013 500 3803 
L 500 4441 
Q 881 4594 1212 4672 
Q 1544 4750 1819 4750 
Q 2544 4750 2975 4387 
Q 3406 4025 3406 3419 
Q 3406 3131 3298 2873 
Q 3191 2616 2906 2266 
Q 2828 2175 2409 1742 
Q 1991 1309 1228 531 
z
" transform="scale(0.015625)"/>
       </defs>
       <use xlink:href="#DejaVuSans-32"/>
      </g>
     </g>
    </g>
    <g id="xtick_3">
     <g id="line2d_5">
      <g>
       <use xlink:href="#m807431c64d" x="166.244286" y="302.8525" style="stroke: #000000; stroke-width: 0.8"/>
      </g>
     </g>
     <g id="text_3">
      <!-- 3 -->
      <g transform="translate(163.063036 317.450938) scale(0.1 -0.1)">
       <defs>
        <path id="DejaVuSans-33" d="M 2597 2516 
Q 3050 2419 3304 2112 
Q 3559 1806 3559 1356 
Q 3559 666 3084 287 
Q 2609 -91 1734 -91 
Q 1441 -91 1130 -33 
Q 819 25 488 141 
L 488 750 
Q 750 597 1062 519 
Q 1375 441 1716 441 
Q 2309 441 2620 675 
Q 2931 909 2931 1356 
Q 2931 1769 2642 2001 
Q 2353 2234 1838 2234 
L 1294 2234 
L 1294 2753 
L 1863 2753 
Q 2328 2753 2575 2939 
Q 2822 3125 2822 3475 
Q 2822 3834 2567 4026 
Q 2313 4219 1838 4219 
Q 1578 4219 1281 4162 
Q 984 4106 628 3988 
L 628 4550 
Q 988 4650 1302 4700 
Q 1616 4750 1894 4750 
Q 2613 4750 3031 4423 
Q 3450 4097 3450 3541 
Q 3450 3153 3228 2886 
Q 3006 2619 2597 2516 
z
" transform="scale(0.015625)"/>
       </defs>
       <use xlink:href="#DejaVuSans-33"/>
      </g>
     </g>
    </g>
    <g id="xtick_4">
     <g id="line2d_6">
      <g>
       <use xlink:href="#m807431c64d" x="222.356429" y="302.8525" style="stroke: #000000; stroke-width: 0.8"/>
      </g>
     </g>
     <g id="text_4">
      <!-- 4 -->
      <g transform="translate(219.175179 317.450938) scale(0.1 -0.1)">
       <defs>
        <path id="DejaVuSans-34" d="M 2419 4116 
L 825 1625 
L 2419 1625 
L 2419 4116 
z
M 2253 4666 
L 3047 4666 
L 3047 1625 
L 3713 1625 
L 3713 1100 
L 3047 1100 
L 3047 0 
L 2419 0 
L 2419 1100 
L 313 1100 
L 313 1709 
L 2253 4666 
z
" transform="scale(0.015625)"/>
       </defs>
       <use xlink:href="#DejaVuSans-34"/>
      </g>
     </g>
    </g>
    <g id="xtick_5">
     <g id="line2d_7">
      <g>
       <use xlink:href="#m807431c64d" x="278.468571" y="302.8525" style="stroke: #000000; stroke-width: 0.8"/>
      </g>
     </g>
     <g id="text_5">
      <!-- 5 -->
      <g transform="translate(275.287321 317.450938) scale(0.1 -0.1)">
       <defs>
        <path id="DejaVuSans-35" d="M 691 4666 
L 3169 4666 
L 3169 4134 
L 1269 4134 
L 1269 2991 
Q 1406 3038 1543 3061 
Q 1681 3084 1819 3084 
Q 2600 3084 3056 2656 
Q 3513 2228 3513 1497 
Q 3513 744 3044 326 
Q 2575 -91 1722 -91 
Q 1428 -91 1123 -41 
Q 819 9 494 109 
L 494 744 
Q 775 591 1075 516 
Q 1375 441 1709 441 
Q 2250 441 2565 725 
Q 2881 1009 2881 1497 
Q 2881 1984 2565 2268 
Q 2250 2553 1709 2553 
Q 1456 2553 1204 2497 
Q 953 2441 691 2322 
L 691 4666 
z
" transform="scale(0.015625)"/>
       </defs>
       <use xlink:href="#DejaVuSans-35"/>
      </g>
     </g>
    </g>
    <g id="xtick_6">
     <g id="line2d_8">
      <g>
       <use xlink:href="#m807431c64d" x="334.580714" y="302.8525" style="stroke: #000000; stroke-width: 0.8"/>
      </g>
     </g>
     <g id="text_6">
      <!-- 6 -->
      <g transform="translate(331.399464 317.450938) scale(0.1 -0.1)">
       <defs>
        <path id="DejaVuSans-36" d="M 2113 2584 
Q 1688 2584 1439 2293 
Q 1191 2003 1191 1497 
Q 1191 994 1439 701 
Q 1688 409 2113 409 
Q 2538 409 2786 701 
Q 3034 994 3034 1497 
Q 3034 2003 2786 2293 
Q 2538 2584 2113 2584 
z
M 3366 4563 
L 3366 3988 
Q 3128 4100 2886 4159 
Q 2644 4219 2406 4219 
Q 1781 4219 1451 3797 
Q 1122 3375 1075 2522 
Q 1259 2794 1537 2939 
Q 1816 3084 2150 3084 
Q 2853 3084 3261 2657 
Q 3669 2231 3669 1497 
Q 3669 778 3244 343 
Q 2819 -91 2113 -91 
Q 1303 -91 875 529 
Q 447 1150 447 2328 
Q 447 3434 972 4092 
Q 1497 4750 2381 4750 
Q 2619 4750 2861 4703 
Q 3103 4656 3366 4563 
z
" transform="scale(0.015625)"/>
       </defs>
       <use xlink:href="#DejaVuSans-36"/>
      </g>
     </g>
    </g>
    <g id="xtick_7">
     <g id="line2d_9">
      <g>
       <use xlink:href="#m807431c64d" x="390.692857" y="302.8525" style="stroke: #000000; stroke-width: 0.8"/>
      </g>
     </g>
     <g id="text_7">
      <!-- 7 -->
      <g transform="translate(387.511607 317.450938) scale(0.1 -0.1)">
       <defs>
        <path id="DejaVuSans-37" d="M 525 4666 
L 3525 4666 
L 3525 4397 
L 1831 0 
L 1172 0 
L 2766 4134 
L 525 4134 
L 525 4666 
z
" transform="scale(0.015625)"/>
       </defs>
       <use xlink:href="#DejaVuSans-37"/>
      </g>
     </g>
    </g>
    <g id="xtick_8">
     <g id="line2d_10">
      <g>
       <use xlink:href="#m807431c64d" x="446.805" y="302.8525" style="stroke: #000000; stroke-width: 0.8"/>
      </g>
     </g>
     <g id="text_8">
      <!-- 8 -->
      <g transform="translate(443.62375 317.450938) scale(0.1 -0.1)">
       <defs>
        <path id="DejaVuSans-38" d="M 2034 2216 
Q 1584 2216 1326 1975 
Q 1069 1734 1069 1313 
Q 1069 891 1326 650 
Q 1584 409 2034 409 
Q 2484 409 2743 651 
Q 3003 894 3003 1313 
Q 3003 1734 2745 1975 
Q 2488 2216 2034 2216 
z
M 1403 2484 
Q 997 2584 770 2862 
Q 544 3141 544 3541 
Q 544 4100 942 4425 
Q 1341 4750 2034 4750 
Q 2731 4750 3128 4425 
Q 3525 4100 3525 3541 
Q 3525 3141 3298 2862 
Q 3072 2584 2669 2484 
Q 3125 2378 3379 2068 
Q 3634 1759 3634 1313 
Q 3634 634 3220 271 
Q 2806 -91 2034 -91 
Q 1263 -91 848 271 
Q 434 634 434 1313 
Q 434 1759 690 2068 
Q 947 2378 1403 2484 
z
M 1172 3481 
Q 1172 3119 1398 2916 
Q 1625 2713 2034 2713 
Q 2441 2713 2670 2916 
Q 2900 3119 2900 3481 
Q 2900 3844 2670 4047 
Q 2441 4250 2034 4250 
Q 1625 4250 1398 4047 
Q 1172 3844 1172 3481 
z
" transform="scale(0.015625)"/>
       </defs>
       <use xlink:href="#DejaVuSans-38"/>
      </g>
     </g>
    </g>
    <g id="text_9">
     <!-- SER205 OG - H2O H Distance [Å] -->
     <g transform="translate(168.090625 332.0525) scale(0.1 -0.1)">
      <defs>
       <path id="DejaVuSans-53" d="M 3425 4513 
L 3425 3897 
Q 3066 4069 2747 4153 
Q 2428 4238 2131 4238 
Q 1616 4238 1336 4038 
Q 1056 3838 1056 3469 
Q 1056 3159 1242 3001 
Q 1428 2844 1947 2747 
L 2328 2669 
Q 3034 2534 3370 2195 
Q 3706 1856 3706 1288 
Q 3706 609 3251 259 
Q 2797 -91 1919 -91 
Q 1588 -91 1214 -16 
Q 841 59 441 206 
L 441 856 
Q 825 641 1194 531 
Q 1563 422 1919 422 
Q 2459 422 2753 634 
Q 3047 847 3047 1241 
Q 3047 1584 2836 1778 
Q 2625 1972 2144 2069 
L 1759 2144 
Q 1053 2284 737 2584 
Q 422 2884 422 3419 
Q 422 4038 858 4394 
Q 1294 4750 2059 4750 
Q 2388 4750 2728 4690 
Q 3069 4631 3425 4513 
z
" transform="scale(0.015625)"/>
       <path id="DejaVuSans-45" d="M 628 4666 
L 3578 4666 
L 3578 4134 
L 1259 4134 
L 1259 2753 
L 3481 2753 
L 3481 2222 
L 1259 2222 
L 1259 531 
L 3634 531 
L 3634 0 
L 628 0 
L 628 4666 
z
" transform="scale(0.015625)"/>
       <path id="DejaVuSans-52" d="M 2841 2188 
Q 3044 2119 3236 1894 
Q 3428 1669 3622 1275 
L 4263 0 
L 3584 0 
L 2988 1197 
Q 2756 1666 2539 1819 
Q 2322 1972 1947 1972 
L 1259 1972 
L 1259 0 
L 628 0 
L 628 4666 
L 2053 4666 
Q 2853 4666 3247 4331 
Q 3641 3997 3641 3322 
Q 3641 2881 3436 2590 
Q 3231 2300 2841 2188 
z
M 1259 4147 
L 1259 2491 
L 2053 2491 
Q 2509 2491 2742 2702 
Q 2975 2913 2975 3322 
Q 2975 3731 2742 3939 
Q 2509 4147 2053 4147 
L 1259 4147 
z
" transform="scale(0.015625)"/>
       <path id="DejaVuSans-30" d="M 2034 4250 
Q 1547 4250 1301 3770 
Q 1056 3291 1056 2328 
Q 1056 1369 1301 889 
Q 1547 409 2034 409 
Q 2525 409 2770 889 
Q 3016 1369 3016 2328 
Q 3016 3291 2770 3770 
Q 2525 4250 2034 4250 
z
M 2034 4750 
Q 2819 4750 3233 4129 
Q 3647 3509 3647 2328 
Q 3647 1150 3233 529 
Q 2819 -91 2034 -91 
Q 1250 -91 836 529 
Q 422 1150 422 2328 
Q 422 3509 836 4129 
Q 1250 4750 2034 4750 
z
" transform="scale(0.015625)"/>
       <path id="DejaVuSans-20" transform="scale(0.015625)"/>
       <path id="DejaVuSans-4f" d="M 2522 4238 
Q 1834 4238 1429 3725 
Q 1025 3213 1025 2328 
Q 1025 1447 1429 934 
Q 1834 422 2522 422 
Q 3209 422 3611 934 
Q 4013 1447 4013 2328 
Q 4013 3213 3611 3725 
Q 3209 4238 2522 4238 
z
M 2522 4750 
Q 3503 4750 4090 4092 
Q 4678 3434 4678 2328 
Q 4678 1225 4090 567 
Q 3503 -91 2522 -91 
Q 1538 -91 948 565 
Q 359 1222 359 2328 
Q 359 3434 948 4092 
Q 1538 4750 2522 4750 
z
" transform="scale(0.015625)"/>
       <path id="DejaVuSans-47" d="M 3809 666 
L 3809 1919 
L 2778 1919 
L 2778 2438 
L 4434 2438 
L 4434 434 
Q 4069 175 3628 42 
Q 3188 -91 2688 -91 
Q 1594 -91 976 548 
Q 359 1188 359 2328 
Q 359 3472 976 4111 
Q 1594 4750 2688 4750 
Q 3144 4750 3555 4637 
Q 3966 4525 4313 4306 
L 4313 3634 
Q 3963 3931 3569 4081 
Q 3175 4231 2741 4231 
Q 1884 4231 1454 3753 
Q 1025 3275 1025 2328 
Q 1025 1384 1454 906 
Q 1884 428 2741 428 
Q 3075 428 3337 486 
Q 3600 544 3809 666 
z
" transform="scale(0.015625)"/>
       <path id="DejaVuSans-2d" d="M 313 2009 
L 1997 2009 
L 1997 1497 
L 313 1497 
L 313 2009 
z
" transform="scale(0.015625)"/>
       <path id="DejaVuSans-48" d="M 628 4666 
L 1259 4666 
L 1259 2753 
L 3553 2753 
L 3553 4666 
L 4184 4666 
L 4184 0 
L 3553 0 
L 3553 2222 
L 1259 2222 
L 1259 0 
L 628 0 
L 628 4666 
z
" transform="scale(0.015625)"/>
       <path id="DejaVuSans-44" d="M 1259 4147 
L 1259 519 
L 2022 519 
Q 2988 519 3436 956 
Q 3884 1394 3884 2338 
Q 3884 3275 3436 3711 
Q 2988 4147 2022 4147 
L 1259 4147 
z
M 628 4666 
L 1925 4666 
Q 3281 4666 3915 4102 
Q 4550 3538 4550 2338 
Q 4550 1131 3912 565 
Q 3275 0 1925 0 
L 628 0 
L 628 4666 
z
" transform="scale(0.015625)"/>
       <path id="DejaVuSans-69" d="M 603 3500 
L 1178 3500 
L 1178 0 
L 603 0 
L 603 3500 
z
M 603 4863 
L 1178 4863 
L 1178 4134 
L 603 4134 
L 603 4863 
z
" transform="scale(0.015625)"/>
       <path id="DejaVuSans-73" d="M 2834 3397 
L 2834 2853 
Q 2591 2978 2328 3040 
Q 2066 3103 1784 3103 
Q 1356 3103 1142 2972 
Q 928 2841 928 2578 
Q 928 2378 1081 2264 
Q 1234 2150 1697 2047 
L 1894 2003 
Q 2506 1872 2764 1633 
Q 3022 1394 3022 966 
Q 3022 478 2636 193 
Q 2250 -91 1575 -91 
Q 1294 -91 989 -36 
Q 684 19 347 128 
L 347 722 
Q 666 556 975 473 
Q 1284 391 1588 391 
Q 1994 391 2212 530 
Q 2431 669 2431 922 
Q 2431 1156 2273 1281 
Q 2116 1406 1581 1522 
L 1381 1569 
Q 847 1681 609 1914 
Q 372 2147 372 2553 
Q 372 3047 722 3315 
Q 1072 3584 1716 3584 
Q 2034 3584 2315 3537 
Q 2597 3491 2834 3397 
z
" transform="scale(0.015625)"/>
       <path id="DejaVuSans-74" d="M 1172 4494 
L 1172 3500 
L 2356 3500 
L 2356 3053 
L 1172 3053 
L 1172 1153 
Q 1172 725 1289 603 
Q 1406 481 1766 481 
L 2356 481 
L 2356 0 
L 1766 0 
Q 1100 0 847 248 
Q 594 497 594 1153 
L 594 3053 
L 172 3053 
L 172 3500 
L 594 3500 
L 594 4494 
L 1172 4494 
z
" transform="scale(0.015625)"/>
       <path id="DejaVuSans-61" d="M 2194 1759 
Q 1497 1759 1228 1600 
Q 959 1441 959 1056 
Q 959 750 1161 570 
Q 1363 391 1709 391 
Q 2188 391 2477 730 
Q 2766 1069 2766 1631 
L 2766 1759 
L 2194 1759 
z
M 3341 1997 
L 3341 0 
L 2766 0 
L 2766 531 
Q 2569 213 2275 61 
Q 1981 -91 1556 -91 
Q 1019 -91 701 211 
Q 384 513 384 1019 
Q 384 1609 779 1909 
Q 1175 2209 1959 2209 
L 2766 2209 
L 2766 2266 
Q 2766 2663 2505 2880 
Q 2244 3097 1772 3097 
Q 1472 3097 1187 3025 
Q 903 2953 641 2809 
L 641 3341 
Q 956 3463 1253 3523 
Q 1550 3584 1831 3584 
Q 2591 3584 2966 3190 
Q 3341 2797 3341 1997 
z
" transform="scale(0.015625)"/>
       <path id="DejaVuSans-6e" d="M 3513 2113 
L 3513 0 
L 2938 0 
L 2938 2094 
Q 2938 2591 2744 2837 
Q 2550 3084 2163 3084 
Q 1697 3084 1428 2787 
Q 1159 2491 1159 1978 
L 1159 0 
L 581 0 
L 581 3500 
L 1159 3500 
L 1159 2956 
Q 1366 3272 1645 3428 
Q 1925 3584 2291 3584 
Q 2894 3584 3203 3211 
Q 3513 2838 3513 2113 
z
" transform="scale(0.015625)"/>
       <path id="DejaVuSans-63" d="M 3122 3366 
L 3122 2828 
Q 2878 2963 2633 3030 
Q 2388 3097 2138 3097 
Q 1578 3097 1268 2742 
Q 959 2388 959 1747 
Q 959 1106 1268 751 
Q 1578 397 2138 397 
Q 2388 397 2633 464 
Q 2878 531 3122 666 
L 3122 134 
Q 2881 22 2623 -34 
Q 2366 -91 2075 -91 
Q 1284 -91 818 406 
Q 353 903 353 1747 
Q 353 2603 823 3093 
Q 1294 3584 2113 3584 
Q 2378 3584 2631 3529 
Q 2884 3475 3122 3366 
z
" transform="scale(0.015625)"/>
       <path id="DejaVuSans-65" d="M 3597 1894 
L 3597 1613 
L 953 1613 
Q 991 1019 1311 708 
Q 1631 397 2203 397 
Q 2534 397 2845 478 
Q 3156 559 3463 722 
L 3463 178 
Q 3153 47 2828 -22 
Q 2503 -91 2169 -91 
Q 1331 -91 842 396 
Q 353 884 353 1716 
Q 353 2575 817 3079 
Q 1281 3584 2069 3584 
Q 2775 3584 3186 3129 
Q 3597 2675 3597 1894 
z
M 3022 2063 
Q 3016 2534 2758 2815 
Q 2500 3097 2075 3097 
Q 1594 3097 1305 2825 
Q 1016 2553 972 2059 
L 3022 2063 
z
" transform="scale(0.015625)"/>
       <path id="DejaVuSans-5b" d="M 550 4863 
L 1875 4863 
L 1875 4416 
L 1125 4416 
L 1125 -397 
L 1875 -397 
L 1875 -844 
L 550 -844 
L 550 4863 
z
" transform="scale(0.015625)"/>
       <path id="DejaVuSans-c5" d="M 2663 5081 
Q 2663 5278 2523 5417 
Q 2384 5556 2188 5556 
Q 1988 5556 1852 5420 
Q 1716 5284 1716 5081 
Q 1716 4884 1853 4746 
Q 1991 4609 2188 4609 
Q 2384 4609 2523 4746 
Q 2663 4884 2663 5081 
z
M 2188 4044 
L 1338 1722 
L 3041 1722 
L 2188 4044 
z
M 1716 4366 
Q 1525 4494 1428 4673 
Q 1331 4853 1331 5081 
Q 1331 5441 1579 5691 
Q 1828 5941 2188 5941 
Q 2544 5941 2795 5689 
Q 3047 5438 3047 5081 
Q 3047 4863 2948 4678 
Q 2850 4494 2663 4366 
L 4325 0 
L 3669 0 
L 3244 1197 
L 1141 1197 
L 716 0 
L 50 0 
L 1716 4366 
z
" transform="scale(0.015625)"/>
       <path id="DejaVuSans-5d" d="M 1947 4863 
L 1947 -844 
L 622 -844 
L 622 -397 
L 1369 -397 
L 1369 4416 
L 622 4416 
L 622 4863 
L 1947 4863 
z
" transform="scale(0.015625)"/>
      </defs>
      <use xlink:href="#DejaVuSans-53"/>
      <use xlink:href="#DejaVuSans-45" x="63.476562"/>
      <use xlink:href="#DejaVuSans-52" x="126.660156"/>
      <use xlink:href="#DejaVuSans-32" x="196.142578"/>
      <use xlink:href="#DejaVuSans-30" x="259.765625"/>
      <use xlink:href="#DejaVuSans-35" x="323.388672"/>
      <use xlink:href="#DejaVuSans-20" x="387.011719"/>
      <use xlink:href="#DejaVuSans-4f" x="418.798828"/>
      <use xlink:href="#DejaVuSans-47" x="497.509766"/>
      <use xlink:href="#DejaVuSans-20" x="575"/>
      <use xlink:href="#DejaVuSans-2d" x="606.787109"/>
      <use xlink:href="#DejaVuSans-20" x="642.871094"/>
      <use xlink:href="#DejaVuSans-48" x="674.658203"/>
      <use xlink:href="#DejaVuSans-32" x="749.853516"/>
      <use xlink:href="#DejaVuSans-4f" x="813.476562"/>
      <use xlink:href="#DejaVuSans-20" x="892.1875"/>
      <use xlink:href="#DejaVuSans-48" x="923.974609"/>
      <use xlink:href="#DejaVuSans-20" x="999.169922"/>
      <use xlink:href="#DejaVuSans-44" x="1030.957031"/>
      <use xlink:href="#DejaVuSans-69" x="1107.958984"/>
      <use xlink:href="#DejaVuSans-73" x="1135.742188"/>
      <use xlink:href="#DejaVuSans-74" x="1187.841797"/>
      <use xlink:href="#DejaVuSans-61" x="1227.050781"/>
      <use xlink:href="#DejaVuSans-6e" x="1288.330078"/>
      <use xlink:href="#DejaVuSans-63" x="1351.708984"/>
      <use xlink:href="#DejaVuSans-65" x="1406.689453"/>
      <use xlink:href="#DejaVuSans-20" x="1468.212891"/>
      <use xlink:href="#DejaVuSans-5b" x="1500"/>
      <use xlink:href="#DejaVuSans-c5" x="1539.013672"/>
      <use xlink:href="#DejaVuSans-5d" x="1607.421875"/>
     </g>
    </g>
   </g>
   <g id="matplotlib.axis_2">
    <g id="ytick_1">
     <g id="line2d_11">
      <defs>
       <path id="mdcd327f84d" d="M 0 0 
L -3.5 0 
" style="stroke: #000000; stroke-width: 0.8"/>
      </defs>
      <g>
       <use xlink:href="#mdcd327f84d" x="54.02" y="302.8525" style="stroke: #000000; stroke-width: 0.8"/>
      </g>
     </g>
     <g id="text_10">
      <!-- 0.00 -->
      <g transform="translate(24.754375 306.651719) scale(0.1 -0.1)">
       <defs>
        <path id="DejaVuSans-2e" d="M 684 794 
L 1344 794 
L 1344 0 
L 684 0 
L 684 794 
z
" transform="scale(0.015625)"/>
       </defs>
       <use xlink:href="#DejaVuSans-30"/>
       <use xlink:href="#DejaVuSans-2e" x="63.623047"/>
       <use xlink:href="#DejaVuSans-30" x="95.410156"/>
       <use xlink:href="#DejaVuSans-30" x="159.033203"/>
      </g>
     </g>
    </g>
    <g id="ytick_2">
     <g id="line2d_12">
      <g>
       <use xlink:href="#mdcd327f84d" x="54.02" y="239.661677" style="stroke: #000000; stroke-width: 0.8"/>
      </g>
     </g>
     <g id="text_11">
      <!-- 0.05 -->
      <g transform="translate(24.754375 243.460895) scale(0.1 -0.1)">
       <use xlink:href="#DejaVuSans-30"/>
       <use xlink:href="#DejaVuSans-2e" x="63.623047"/>
       <use xlink:href="#DejaVuSans-30" x="95.410156"/>
       <use xlink:href="#DejaVuSans-35" x="159.033203"/>
      </g>
     </g>
    </g>
    <g id="ytick_3">
     <g id="line2d_13">
      <g>
       <use xlink:href="#mdcd327f84d" x="54.02" y="176.470853" style="stroke: #000000; stroke-width: 0.8"/>
      </g>
     </g>
     <g id="text_12">
      <!-- 0.10 -->
      <g transform="translate(24.754375 180.270072) scale(0.1 -0.1)">
       <use xlink:href="#DejaVuSans-30"/>
       <use xlink:href="#DejaVuSans-2e" x="63.623047"/>
       <use xlink:href="#DejaVuSans-31" x="95.410156"/>
       <use xlink:href="#DejaVuSans-30" x="159.033203"/>
      </g>
     </g>
    </g>
    <g id="ytick_4">
     <g id="line2d_14">
      <g>
       <use xlink:href="#mdcd327f84d" x="54.02" y="113.28003" style="stroke: #000000; stroke-width: 0.8"/>
      </g>
     </g>
     <g id="text_13">
      <!-- 0.15 -->
      <g transform="translate(24.754375 117.079249) scale(0.1 -0.1)">
       <use xlink:href="#DejaVuSans-30"/>
       <use xlink:href="#DejaVuSans-2e" x="63.623047"/>
       <use xlink:href="#DejaVuSans-31" x="95.410156"/>
       <use xlink:href="#DejaVuSans-35" x="159.033203"/>
      </g>
     </g>
    </g>
    <g id="ytick_5">
     <g id="line2d_15">
      <g>
       <use xlink:href="#mdcd327f84d" x="54.02" y="50.089207" style="stroke: #000000; stroke-width: 0.8"/>
      </g>
     </g>
     <g id="text_14">
      <!-- 0.20 -->
      <g transform="translate(24.754375 53.888425) scale(0.1 -0.1)">
       <use xlink:href="#DejaVuSans-30"/>
       <use xlink:href="#DejaVuSans-2e" x="63.623047"/>
       <use xlink:href="#DejaVuSans-32" x="95.410156"/>
       <use xlink:href="#DejaVuSans-30" x="159.033203"/>
      </g>
     </g>
    </g>
    <g id="text_15">
     <!-- Density -->
     <g transform="translate(18.674688 175.834844) rotate(-90) scale(0.1 -0.1)">
      <defs>
       <path id="DejaVuSans-79" d="M 2059 -325 
Q 1816 -950 1584 -1140 
Q 1353 -1331 966 -1331 
L 506 -1331 
L 506 -850 
L 844 -850 
Q 1081 -850 1212 -737 
Q 1344 -625 1503 -206 
L 1606 56 
L 191 3500 
L 800 3500 
L 1894 763 
L 2988 3500 
L 3597 3500 
L 2059 -325 
z
" transform="scale(0.015625)"/>
      </defs>
      <use xlink:href="#DejaVuSans-44"/>
      <use xlink:href="#DejaVuSans-65" x="77.001953"/>
      <use xlink:href="#DejaVuSans-6e" x="138.525391"/>
      <use xlink:href="#DejaVuSans-73" x="201.904297"/>
      <use xlink:href="#DejaVuSans-69" x="254.003906"/>
      <use xlink:href="#DejaVuSans-74" x="281.787109"/>
      <use xlink:href="#DejaVuSans-79" x="320.996094"/>
     </g>
    </g>
   </g>
   <g id="line2d_16">
    <path d="M 54.02 302.8525 
L 84.350888 302.782643 
L 85.867432 302.577706 
L 87.889492 302.047939 
L 89.911551 301.236439 
L 91.93361 300.155922 
L 92.94464 299.477353 
L 93.955669 298.559855 
L 96.483243 295.720081 
L 96.988758 295.473069 
L 97.999788 295.354615 
L 99.010817 295.251145 
L 101.538391 294.383368 
L 103.56045 294.355735 
L 105.076995 294.144352 
L 106.088024 294.347643 
L 107.604569 294.93973 
L 108.110084 295.011419 
L 108.615598 294.950599 
L 109.626628 294.449642 
L 110.637658 293.873063 
L 111.143172 293.797332 
L 111.648687 293.939969 
L 112.659717 294.711942 
L 113.670746 295.515243 
L 114.681776 296.009295 
L 119.736924 297.907429 
L 120.747954 297.92986 
L 122.264498 297.803769 
L 123.275528 298.059165 
L 124.286557 298.676874 
L 125.803102 299.640363 
L 126.814131 300.002993 
L 128.83619 300.358314 
L 129.84722 300.353883 
L 130.85825 299.984774 
L 131.869279 299.447926 
L 132.374794 299.286559 
L 132.880309 299.263895 
L 133.891338 299.593359 
L 134.902368 300.030395 
L 135.407883 300.12099 
L 135.913398 300.078536 
L 136.924427 299.65077 
L 138.946486 298.546607 
L 139.957516 298.013678 
L 140.968546 297.186607 
L 142.48509 295.474447 
L 143.49612 294.151597 
L 144.507149 292.334465 
L 146.529208 287.997628 
L 148.551268 284.511035 
L 149.562297 281.790847 
L 151.078842 277.031683 
L 151.584356 275.810443 
L 152.089871 274.933339 
L 152.595386 274.374198 
L 154.111931 273.183007 
L 154.617445 272.357535 
L 155.12296 271.125848 
L 156.13399 267.591008 
L 157.650534 261.581375 
L 158.661564 258.5156 
L 159.672593 256.462857 
L 162.200167 252.316754 
L 162.705682 251.77178 
L 163.211197 251.425653 
L 164.222227 251.130535 
L 166.244286 250.786527 
L 167.255315 250.523012 
L 167.76083 250.509245 
L 168.77186 250.83751 
L 169.277375 251.01811 
L 169.782889 251.052189 
L 170.288404 250.890164 
L 171.804949 249.98577 
L 172.310463 249.875063 
L 172.815978 249.913956 
L 173.827008 250.320654 
L 175.343552 251.331294 
L 176.354582 252.225736 
L 177.365611 253.553983 
L 178.882156 255.826531 
L 179.893185 256.736021 
L 180.904215 257.371958 
L 181.40973 257.880472 
L 181.915245 258.638973 
L 182.926274 260.789693 
L 183.937304 262.895244 
L 184.442819 263.579147 
L 184.948333 263.962289 
L 186.970393 264.73152 
L 188.992452 266.570978 
L 189.497967 266.59331 
L 190.003481 266.317666 
L 191.014511 265.159469 
L 191.520026 264.561941 
L 192.025541 264.15303 
L 192.531055 264.020336 
L 193.03657 264.16765 
L 194.553115 265.193273 
L 195.058629 265.221776 
L 195.564144 264.955118 
L 196.575174 263.810056 
L 197.586203 262.369063 
L 198.597233 260.545561 
L 201.630322 253.637793 
L 204.157896 247.140425 
L 205.168925 245.647057 
L 206.179955 244.152551 
L 206.68547 242.962777 
L 207.190985 241.328426 
L 208.202014 237.006307 
L 209.213044 232.567071 
L 211.235103 224.973952 
L 212.246133 219.586719 
L 213.762677 209.001274 
L 214.773707 202.10717 
L 215.784736 196.776947 
L 216.795766 193.056983 
L 218.31231 188.727482 
L 219.828855 184.665852 
L 220.839884 181.108748 
L 221.850914 175.996674 
L 224.378488 161.355697 
L 226.906062 149.880003 
L 230.444665 130.791297 
L 231.96121 124.605664 
L 233.477754 118.103282 
L 233.983269 116.63859 
L 235.499813 113.245154 
L 236.005328 111.13492 
L 236.510843 108.129976 
L 239.543932 86.196282 
L 240.554961 81.111072 
L 241.565991 76.939789 
L 242.577021 73.960248 
L 243.082535 72.950137 
L 243.58805 72.225498 
L 244.59908 71.390375 
L 245.610109 70.747559 
L 248.643198 68.064957 
L 249.148713 66.968532 
L 250.159743 63.552776 
L 251.676287 57.161623 
L 252.687317 52.042263 
L 254.203861 43.22509 
L 254.709376 41.038536 
L 255.214891 39.807786 
L 255.720405 39.634996 
L 256.22592 40.311056 
L 257.23695 42.25665 
L 257.742465 42.584882 
L 258.247979 42.245305 
L 258.753494 41.40039 
L 260.270039 38.348369 
L 261.281068 36.799838 
L 262.292098 35.567944 
L 262.797613 35.206138 
L 263.303127 35.126714 
L 263.808642 35.355498 
L 264.819672 36.425988 
L 266.841731 38.653943 
L 267.347246 39.571815 
L 267.852761 40.842586 
L 269.87482 47.204372 
L 270.380335 48.087711 
L 270.885849 48.295442 
L 271.391364 47.798101 
L 272.907909 45.018 
L 273.413423 45.189908 
L 273.918938 46.321141 
L 274.929968 50.383879 
L 275.435483 52.433661 
L 275.940997 54.012798 
L 276.446512 54.965372 
L 276.952027 55.310021 
L 277.457542 55.222284 
L 277.963057 55.000155 
L 278.468571 54.991021 
L 278.974086 55.489719 
L 279.479601 56.661469 
L 279.985116 58.540701 
L 280.490631 61.096578 
L 281.50166 68.058571 
L 283.018205 80.109288 
L 283.523719 82.983784 
L 284.029234 84.881198 
L 284.534749 85.982531 
L 286.051293 88.205015 
L 287.062323 90.890368 
L 289.589897 99.285115 
L 290.095412 101.346713 
L 290.600927 104.052347 
L 291.611956 111.8208 
L 293.128501 124.616414 
L 294.13953 130.330086 
L 295.15056 134.010826 
L 295.656075 135.146046 
L 296.161589 135.816857 
L 297.172619 136.499884 
L 297.678134 137.102192 
L 298.183649 138.160201 
L 299.700193 142.672602 
L 300.205708 143.616181 
L 300.711223 143.955496 
L 301.216737 143.759955 
L 302.227767 142.734308 
L 302.733282 142.497627 
L 303.238797 142.759728 
L 303.744311 143.635549 
L 304.249826 145.14486 
L 305.260856 149.692495 
L 306.271885 154.634376 
L 306.7774 156.43482 
L 307.282915 157.537458 
L 307.78843 158.041126 
L 308.799459 158.557138 
L 309.304974 159.267387 
L 309.810489 160.515196 
L 310.821519 164.176816 
L 311.832548 167.864631 
L 313.854607 174.462505 
L 314.865637 177.858662 
L 315.371152 179.075994 
L 315.876667 179.917548 
L 316.887696 180.918984 
L 317.898726 181.454006 
L 318.404241 181.508944 
L 318.909755 181.403651 
L 319.920785 180.83334 
L 320.931815 180.182856 
L 321.437329 180.110551 
L 321.942844 180.431817 
L 322.448359 181.291431 
L 322.953874 182.742709 
L 323.964903 186.979288 
L 324.975933 191.100328 
L 325.481448 192.302895 
L 325.986963 192.735252 
L 326.492477 192.52189 
L 328.009022 190.834855 
L 328.514537 190.581459 
L 329.020051 190.539849 
L 329.525566 190.67152 
L 330.031081 190.960956 
L 330.536596 191.427188 
L 331.042111 192.10466 
L 332.05314 194.092989 
L 335.086229 200.96224 
L 336.602773 203.776114 
L 337.613803 205.713557 
L 339.130347 209.239502 
L 340.141377 211.935313 
L 342.668951 219.70422 
L 343.174466 220.706448 
L 343.679981 221.349344 
L 344.185495 221.649414 
L 344.69101 221.659566 
L 346.207555 221.161595 
L 346.713069 221.438057 
L 347.218584 222.193339 
L 347.724099 223.412364 
L 350.251673 230.729557 
L 351.262703 232.859914 
L 352.273732 234.52162 
L 352.779247 235.033891 
L 353.284762 235.303519 
L 354.295792 235.345819 
L 355.306821 235.315288 
L 356.317851 235.583474 
L 357.834395 236.225243 
L 358.33991 236.64395 
L 358.845425 237.352841 
L 359.35094 238.416938 
L 360.361969 241.412518 
L 361.878514 246.352475 
L 362.384028 247.68645 
L 362.889543 248.665217 
L 363.395058 249.182997 
L 363.900573 249.216521 
L 364.406088 248.861661 
L 365.417117 247.770227 
L 365.922632 247.38208 
L 366.933662 247.060123 
L 367.944691 246.779863 
L 368.955721 246.383754 
L 369.461236 246.351557 
L 369.96675 246.542367 
L 370.472265 246.96874 
L 371.483295 248.297019 
L 376.032928 255.128231 
L 377.549472 257.97619 
L 380.077046 263.436821 
L 381.593591 266.80301 
L 382.60462 269.561143 
L 385.132194 277.437025 
L 385.637709 278.427163 
L 386.143224 279.110629 
L 387.659768 280.558139 
L 388.165283 281.276703 
L 389.176313 283.286886 
L 391.198372 287.772552 
L 392.714916 290.476965 
L 393.725946 292.076322 
L 394.231461 292.705731 
L 394.736976 293.142356 
L 395.24249 293.3676 
L 396.25352 293.350593 
L 397.26455 293.195156 
L 398.275579 293.295992 
L 399.286609 293.728567 
L 401.308668 294.958519 
L 402.319698 295.242809 
L 403.836242 295.187962 
L 404.847272 295.216857 
L 406.363816 295.438646 
L 407.374846 295.286222 
L 408.89139 294.929169 
L 410.407934 294.724599 
L 411.418964 294.195274 
L 412.429994 293.583239 
L 412.935508 293.441013 
L 413.441023 293.462493 
L 414.452053 293.861738 
L 415.463082 294.25773 
L 415.968597 294.298616 
L 416.474112 294.199266 
L 417.485142 293.630754 
L 419.001686 292.561538 
L 420.012716 292.257703 
L 422.034775 292.003869 
L 423.045804 291.886661 
L 424.056834 292.150537 
L 425.573378 292.699378 
L 428.100952 293.214055 
L 429.111982 293.077519 
L 431.639556 292.35022 
L 433.1561 292.140501 
L 434.16713 292.219607 
L 436.189189 292.48436 
L 437.705734 292.623824 
L 439.222278 292.815075 
L 440.233308 292.588304 
L 441.749852 291.938167 
L 442.760882 291.792005 
L 444.277426 291.770738 
L 445.288456 291.365877 
L 446.299485 290.569033 
L 447.310515 289.697037 
L 447.81603 289.384522 
L 448.321544 289.207807 
L 449.332574 289.233377 
L 450.343604 289.648736 
L 451.354633 290.432622 
L 452.365663 291.182402 
L 452.871178 291.292583 
L 453.376692 291.15956 
L 455.398752 289.871374 
L 456.409781 289.781127 
L 457.420811 289.667935 
L 460.959414 288.548168 
L 461.8 288.526883 
L 461.8 288.526883 
" clip-path="url(#p70ba4974bf)" style="fill: none; stroke: #f99752; stroke-width: 2.5; stroke-linecap: square"/>
   </g>
   <g id="patch_3">
    <path d="M 54.02 302.8525 
L 54.02 10.8 
" style="fill: none; stroke: #000000; stroke-width: 0.8; stroke-linejoin: miter; stroke-linecap: square"/>
   </g>
   <g id="patch_4">
    <path d="M 446.805 302.8525 
L 446.805 10.8 
" style="fill: none; stroke: #000000; stroke-width: 0.8; stroke-linejoin: miter; stroke-linecap: square"/>
   </g>
   <g id="patch_5">
    <path d="M 54.02 302.8525 
L 446.805 302.8525 
" style="fill: none; stroke: #000000; stroke-width: 0.8; stroke-linejoin: miter; stroke-linecap: square"/>
   </g>
   <g id="patch_6">
    <path d="M 54.02 10.8 
L 446.805 10.8 
" style="fill: none; stroke: #000000; stroke-width: 0.8; stroke-linejoin: miter; stroke-linecap: square"/>
   </g>
   <g id="legend_1">
    <g id="patch_7">
     <path d="M 364.359688 62.834375 
L 439.805 62.834375 
Q 441.805 62.834375 441.805 60.834375 
L 441.805 17.8 
Q 441.805 15.8 439.805 15.8 
L 364.359688 15.8 
Q 362.359688 15.8 362.359688 17.8 
L 362.359688 60.834375 
Q 362.359688 62.834375 364.359688 62.834375 
z
" style="fill: #ffffff; opacity: 0.8; stroke: #cccccc; stroke-linejoin: miter"/>
    </g>
    <g id="line2d_17">
     <path d="M 366.359688 23.898438 
L 376.359688 23.898438 
L 386.359688 23.898438 
" style="fill: none; stroke: #1e2e79; stroke-width: 2.5; stroke-linecap: square"/>
    </g>
    <g id="text_16">
     <!-- Reduced -->
     <g transform="translate(394.359688 27.398438) scale(0.1 -0.1)">
      <defs>
       <path id="DejaVuSans-64" d="M 2906 2969 
L 2906 4863 
L 3481 4863 
L 3481 0 
L 2906 0 
L 2906 525 
Q 2725 213 2448 61 
Q 2172 -91 1784 -91 
Q 1150 -91 751 415 
Q 353 922 353 1747 
Q 353 2572 751 3078 
Q 1150 3584 1784 3584 
Q 2172 3584 2448 3432 
Q 2725 3281 2906 2969 
z
M 947 1747 
Q 947 1113 1208 752 
Q 1469 391 1925 391 
Q 2381 391 2643 752 
Q 2906 1113 2906 1747 
Q 2906 2381 2643 2742 
Q 2381 3103 1925 3103 
Q 1469 3103 1208 2742 
Q 947 2381 947 1747 
z
" transform="scale(0.015625)"/>
       <path id="DejaVuSans-75" d="M 544 1381 
L 544 3500 
L 1119 3500 
L 1119 1403 
Q 1119 906 1312 657 
Q 1506 409 1894 409 
Q 2359 409 2629 706 
Q 2900 1003 2900 1516 
L 2900 3500 
L 3475 3500 
L 3475 0 
L 2900 0 
L 2900 538 
Q 2691 219 2414 64 
Q 2138 -91 1772 -91 
Q 1169 -91 856 284 
Q 544 659 544 1381 
z
M 1991 3584 
L 1991 3584 
z
" transform="scale(0.015625)"/>
      </defs>
      <use xlink:href="#DejaVuSans-52"/>
      <use xlink:href="#DejaVuSans-65" x="64.982422"/>
      <use xlink:href="#DejaVuSans-64" x="126.505859"/>
      <use xlink:href="#DejaVuSans-75" x="189.982422"/>
      <use xlink:href="#DejaVuSans-63" x="253.361328"/>
      <use xlink:href="#DejaVuSans-65" x="308.341797"/>
      <use xlink:href="#DejaVuSans-64" x="369.865234"/>
     </g>
    </g>
    <g id="line2d_18">
     <path d="M 366.359688 38.576563 
L 376.359688 38.576563 
L 386.359688 38.576563 
" style="fill: none; stroke: #ec4067; stroke-width: 2.5; stroke-linecap: square"/>
    </g>
    <g id="text_17">
     <!-- Oxidized -->
     <g transform="translate(394.359688 42.076563) scale(0.1 -0.1)">
      <defs>
       <path id="DejaVuSans-78" d="M 3513 3500 
L 2247 1797 
L 3578 0 
L 2900 0 
L 1881 1375 
L 863 0 
L 184 0 
L 1544 1831 
L 300 3500 
L 978 3500 
L 1906 2253 
L 2834 3500 
L 3513 3500 
z
" transform="scale(0.015625)"/>
       <path id="DejaVuSans-7a" d="M 353 3500 
L 3084 3500 
L 3084 2975 
L 922 459 
L 3084 459 
L 3084 0 
L 275 0 
L 275 525 
L 2438 3041 
L 353 3041 
L 353 3500 
z
" transform="scale(0.015625)"/>
      </defs>
      <use xlink:href="#DejaVuSans-4f"/>
      <use xlink:href="#DejaVuSans-78" x="78.710938"/>
      <use xlink:href="#DejaVuSans-69" x="137.890625"/>
      <use xlink:href="#DejaVuSans-64" x="165.673828"/>
      <use xlink:href="#DejaVuSans-69" x="229.150391"/>
      <use xlink:href="#DejaVuSans-7a" x="256.933594"/>
      <use xlink:href="#DejaVuSans-65" x="309.423828"/>
      <use xlink:href="#DejaVuSans-64" x="370.947266"/>
     </g>
    </g>
    <g id="line2d_19">
     <path d="M 366.359688 53.254687 
L 376.359688 53.254687 
L 386.359688 53.254687 
" style="fill: none; stroke: #f99752; stroke-width: 2.5; stroke-linecap: square"/>
    </g>
    <g id="text_18">
     <!-- Cu$^{+}$ -->
     <g transform="translate(394.359688 56.754687) scale(0.1 -0.1)">
      <defs>
       <path id="DejaVuSans-43" d="M 4122 4306 
L 4122 3641 
Q 3803 3938 3442 4084 
Q 3081 4231 2675 4231 
Q 1875 4231 1450 3742 
Q 1025 3253 1025 2328 
Q 1025 1406 1450 917 
Q 1875 428 2675 428 
Q 3081 428 3442 575 
Q 3803 722 4122 1019 
L 4122 359 
Q 3791 134 3420 21 
Q 3050 -91 2638 -91 
Q 1578 -91 968 557 
Q 359 1206 359 2328 
Q 359 3453 968 4101 
Q 1578 4750 2638 4750 
Q 3056 4750 3426 4639 
Q 3797 4528 4122 4306 
z
" transform="scale(0.015625)"/>
       <path id="DejaVuSans-2b" d="M 2944 4013 
L 2944 2272 
L 4684 2272 
L 4684 1741 
L 2944 1741 
L 2944 0 
L 2419 0 
L 2419 1741 
L 678 1741 
L 678 2272 
L 2419 2272 
L 2419 4013 
L 2944 4013 
z
" transform="scale(0.015625)"/>
      </defs>
      <use xlink:href="#DejaVuSans-43" transform="translate(0 0.826562)"/>
      <use xlink:href="#DejaVuSans-75" transform="translate(69.824219 0.826562)"/>
      <use xlink:href="#DejaVuSans-2b" transform="translate(134.160156 39.107812) scale(0.7)"/>
     </g>
    </g>
   </g>
  </g>
 </g>
 <defs>
  <clipPath id="p70ba4974bf">
   <rect x="54.02" y="10.8" width="392.785" height="292.0525"/>
  </clipPath>
 </defs>
</svg>
