<?xml version="1.0" encoding="utf-8" standalone="no"?>
<!DOCTYPE svg PUBLIC "-//W3C//DTD SVG 1.1//EN"
  "http://www.w3.org/Graphics/SVG/1.1/DTD/svg11.dtd">
<svg xmlns:xlink="http://www.w3.org/1999/xlink" width="460.8pt" height="345.6pt" viewBox="0 0 460.8 345.6" xmlns="http://www.w3.org/2000/svg" version="1.1">
 <metadata>
  <rdf:RDF xmlns:dc="http://purl.org/dc/elements/1.1/" xmlns:cc="http://creativecommons.org/ns#" xmlns:rdf="http://www.w3.org/1999/02/22-rdf-syntax-ns#">
   <cc:Work>
    <dc:type rdf:resource="http://purl.org/dc/dcmitype/StillImage"/>
    <dc:date>2024-05-06T12:30:19.610638</dc:date>
    <dc:format>image/svg+xml</dc:format>
    <dc:creator>
     <cc:Agent>
      <dc:title>Matplotlib v3.8.4, https://matplotlib.org/</dc:title>
     </cc:Agent>
    </dc:creator>
   </cc:Work>
  </rdf:RDF>
 </metadata>
 <defs>
  <style type="text/css">*{stroke-linejoin: round; stroke-linecap: butt}</style>
 </defs>
 <g id="figure_1">
  <g id="patch_1">
   <path d="M 0 345.6 
L 460.8 345.6 
L 460.8 0 
L 0 0 
z
" style="fill: #ffffff"/>
  </g>
  <g id="axes_1">
   <g id="patch_2">
    <path d="M 38.27 302.8525 
L 446.805 302.8525 
L 446.805 14.76 
L 38.27 14.76 
z
" style="fill: #ffffff"/>
   </g>
   <g id="line2d_1">
    <path d="M 38.27 276.662273 
L 446.805 276.662273 
" clip-path="url(#p220e00ab3e)" style="fill: none; stroke-dasharray: 1.75,2.8875; stroke-dashoffset: 0; stroke: #c0c0c0; stroke-width: 1.75"/>
   </g>
   <g id="line2d_2">
    <path d="M 69.457632 -1 
L 70.868674 19.235416 
L 72.44603 39.188675 
L 74.023385 56.727149 
L 75.60074 72.190644 
L 77.178095 85.822691 
L 78.75545 97.717519 
L 80.332806 107.823286 
L 81.384376 113.503532 
L 82.435946 118.295976 
L 83.487516 122.183572 
L 84.539086 125.177454 
L 85.590656 127.323801 
L 86.642227 128.708005 
L 87.693797 129.455829 
L 88.745367 129.729792 
L 89.796937 129.717541 
L 91.900077 129.56514 
L 92.951647 129.682482 
L 94.529003 130.173271 
L 97.157928 131.125678 
L 98.209498 131.250023 
L 99.261068 131.130272 
L 100.312638 130.753824 
L 101.364208 130.133368 
L 102.415779 129.2889 
L 103.467349 128.232559 
L 105.044704 126.246905 
L 106.622059 123.778578 
L 110.302555 117.406309 
L 111.354125 116.124269 
L 112.405695 115.372799 
L 112.93148 115.21351 
L 113.457265 115.195297 
L 113.98305 115.309543 
L 115.03462 115.888898 
L 116.08619 116.862292 
L 117.137761 118.179797 
L 118.189331 119.852546 
L 119.240901 121.940468 
L 120.292471 124.518095 
L 121.344041 127.636423 
L 122.921396 133.315703 
L 124.498752 139.987503 
L 127.127677 152.292751 
L 131.333958 171.928934 
L 133.962883 183.147869 
L 136.591808 193.36219 
L 139.220734 202.629178 
L 142.375444 212.778837 
L 145.004369 220.574632 
L 147.10751 226.224041 
L 148.684865 229.97321 
L 150.26222 233.219413 
L 151.839575 235.937299 
L 153.416931 238.161376 
L 154.994286 239.980302 
L 157.097426 241.97558 
L 159.200566 243.67122 
L 161.303707 245.095789 
L 162.881062 245.913387 
L 164.458417 246.456259 
L 166.035772 246.706855 
L 167.613127 246.676119 
L 169.190483 246.377563 
L 170.767838 245.814955 
L 172.345193 245.000544 
L 174.448333 243.616964 
L 179.706184 239.981646 
L 183.38668 237.516647 
L 186.015605 235.426029 
L 189.170315 232.847324 
L 190.747671 231.829375 
L 191.799241 231.337114 
L 192.850811 231.018188 
L 193.902381 230.87813 
L 194.953951 230.911052 
L 196.531306 231.255379 
L 198.108662 231.910269 
L 199.686017 232.845815 
L 201.263372 234.05913 
L 202.840727 235.555057 
L 204.943867 237.949055 
L 208.098578 242.045633 
L 212.304858 247.49515 
L 215.459569 251.206495 
L 225.97527 262.748288 
L 229.129981 265.920308 
L 232.284691 268.774233 
L 234.913616 270.930837 
L 237.016757 272.429933 
L 239.119897 273.666822 
L 241.223037 274.649074 
L 243.851963 275.599873 
L 246.480888 276.300782 
L 248.584028 276.633241 
L 250.161384 276.697377 
L 251.738739 276.579307 
L 253.841879 276.151485 
L 255.945019 275.465845 
L 258.04816 274.54755 
L 260.1513 273.359045 
L 262.25444 271.869312 
L 264.883366 269.67965 
L 269.089646 265.854662 
L 272.770142 262.23161 
L 279.079562 255.930267 
L 290.121049 245.499494 
L 291.698404 244.448855 
L 293.275759 243.634884 
L 295.3789 242.822548 
L 299.059395 241.719082 
L 302.214106 240.950033 
L 304.317246 240.641747 
L 306.420386 240.571234 
L 309.049311 240.765308 
L 313.255592 241.154147 
L 316.410302 241.171791 
L 320.090798 240.936589 
L 322.719723 240.526295 
L 325.348649 239.826194 
L 330.606499 238.25673 
L 335.338565 237.021238 
L 343.225341 234.511392 
L 345.328481 234.182459 
L 347.431622 234.058862 
L 353.215257 234.005885 
L 354.792613 233.657847 
L 356.369968 233.079734 
L 358.473108 232.051041 
L 361.102033 230.539732 
L 363.205174 229.124759 
L 365.308314 227.407201 
L 367.411454 225.363576 
L 370.04038 222.444043 
L 372.669305 219.155587 
L 375.824015 214.741138 
L 381.607651 206.170159 
L 383.185006 203.431106 
L 384.762362 200.279115 
L 386.865502 195.444295 
L 391.071782 185.336256 
L 392.649138 182.145268 
L 394.226493 179.43929 
L 395.803848 177.142936 
L 397.381203 175.171466 
L 398.958559 173.51785 
L 400.535914 172.251943 
L 401.587484 171.659055 
L 402.639054 171.268516 
L 404.216409 170.999922 
L 409.47426 170.597956 
L 411.051615 169.997317 
L 412.62897 169.104819 
L 417.361036 166.107907 
L 419.464176 165.217838 
L 423.144672 164.048004 
L 427.876737 162.688573 
L 429.979878 162.378743 
L 432.083018 162.320209 
L 438.918224 162.514662 
L 442.072934 163.007143 
L 444.176075 163.237017 
L 445.75343 163.224466 
L 447.85657 162.956484 
L 456.269131 161.443428 
L 458.372272 161.121734 
L 459.949627 160.675736 
L 461.526982 159.977485 
L 461.8 159.825503 
L 461.8 159.825503 
" clip-path="url(#p220e00ab3e)" style="fill: none; stroke: #1e2e79; stroke-width: 2.5; stroke-linecap: square"/>
   </g>
   <g id="line2d_3">
    <path d="M 57.398229 -1 
L 59.827188 16.035079 
L 62.456113 32.817224 
L 65.085039 47.943553 
L 67.188179 58.895491 
L 69.291319 68.864496 
L 71.394459 77.887613 
L 73.4976 86.001968 
L 75.60074 93.24332 
L 77.70388 99.644634 
L 79.807021 105.234985 
L 81.384376 108.910581 
L 82.961731 112.15294 
L 84.539086 114.970099 
L 86.116441 117.36977 
L 87.693797 119.360161 
L 89.271152 120.951052 
L 90.848507 122.155152 
L 92.425862 122.989791 
L 94.003218 123.47901 
L 95.580573 123.656183 
L 97.157928 123.567293 
L 99.261068 123.146151 
L 102.941564 122.226001 
L 104.518919 122.119854 
L 105.570489 122.277271 
L 106.622059 122.687154 
L 107.673629 123.409158 
L 108.725199 124.497887 
L 109.77677 125.997847 
L 110.82834 127.938654 
L 111.87991 130.331562 
L 112.93148 133.168178 
L 114.508835 138.192257 
L 116.08619 144.002601 
L 118.189331 152.648863 
L 121.869826 169.050634 
L 127.127677 192.486879 
L 130.282387 205.595997 
L 133.437098 217.673254 
L 136.066023 226.860562 
L 138.694949 235.206923 
L 141.323874 242.688367 
L 143.427014 248.042013 
L 145.530154 252.832073 
L 147.633295 257.060686 
L 149.736435 260.733993 
L 151.839575 263.862217 
L 153.416931 265.859168 
L 154.994286 267.56515 
L 156.571641 268.989184 
L 158.148996 270.141711 
L 159.726351 271.034648 
L 161.303707 271.681435 
L 162.881062 272.097089 
L 164.458417 272.298228 
L 166.035772 272.30307 
L 168.138912 272.038525 
L 170.242053 271.510942 
L 172.870978 270.56436 
L 176.025689 269.153263 
L 183.912465 265.477707 
L 186.54139 264.524476 
L 189.170315 263.820542 
L 191.273456 263.462607 
L 193.376596 263.295975 
L 195.479736 263.317497 
L 198.108662 263.587661 
L 200.737587 264.08527 
L 204.418082 265.051541 
L 220.71742 269.741967 
L 228.604196 271.470065 
L 236.490972 273.273563 
L 243.326178 275.083234 
L 260.1513 279.65682 
L 265.934936 280.956668 
L 270.141216 281.687015 
L 273.821712 282.110997 
L 276.976422 282.273442 
L 280.131133 282.218745 
L 283.285843 281.920696 
L 285.914768 281.46915 
L 288.543694 280.817628 
L 291.172619 279.949511 
L 293.801544 278.844943 
L 296.43047 277.481101 
L 299.059395 275.833788 
L 301.68832 273.879907 
L 304.317246 271.60004 
L 306.946171 268.980382 
L 309.575097 266.013582 
L 312.204022 262.69842 
L 314.832947 259.038613 
L 317.461873 255.041292 
L 320.616583 249.812181 
L 323.771293 244.129901 
L 326.926004 238.019496 
L 330.606499 230.398405 
L 334.81278 221.152388 
L 342.173771 204.268855 
L 347.431622 192.462803 
L 351.112117 184.680359 
L 355.318398 176.337711 
L 366.359884 154.942636 
L 369.514595 148.173973 
L 373.19509 139.738211 
L 383.185006 116.304479 
L 385.813932 110.828119 
L 388.442857 105.830347 
L 391.071782 101.271428 
L 394.226493 96.236704 
L 400.535914 86.751866 
L 404.216409 81.022686 
L 407.37112 75.727583 
L 411.051615 69.069656 
L 415.257896 61.432067 
L 417.361036 58.108552 
L 418.938391 56.078855 
L 419.989961 55.017404 
L 421.041532 54.225859 
L 422.093102 53.726009 
L 423.144672 53.528914 
L 424.196242 53.634057 
L 425.247812 54.029769 
L 426.299382 54.694789 
L 427.350952 55.60059 
L 428.928308 57.337627 
L 430.505663 59.422974 
L 433.134588 63.367625 
L 439.444009 73.132393 
L 442.072934 76.742581 
L 444.70186 79.925652 
L 446.805 82.144183 
L 448.90814 84.068618 
L 451.011281 85.701078 
L 453.114421 87.043086 
L 455.217561 88.093497 
L 457.320701 88.848911 
L 459.423842 89.306 
L 461.526982 89.464767 
L 461.8 89.461468 
L 461.8 89.461468 
" clip-path="url(#p220e00ab3e)" style="fill: none; stroke: #ec4067; stroke-width: 2.5; stroke-linecap: square"/>
   </g>
   <g id="matplotlib.axis_1">
    <g id="xtick_1">
     <g id="line2d_4">
      <defs>
       <path id="mf4d8f3280c" d="M 0 0 
L 0 3.5 
" style="stroke: #000000; stroke-width: 0.8"/>
      </defs>
      <g>
       <use xlink:href="#mf4d8f3280c" x="38.27" y="302.8525" style="stroke: #000000; stroke-width: 0.8"/>
      </g>
     </g>
     <g id="text_1">
      <!-- 1 -->
      <g transform="translate(35.08875 317.450938) scale(0.1 -0.1)">
       <defs>
        <path id="DejaVuSans-31" d="M 794 531 
L 1825 531 
L 1825 4091 
L 703 3866 
L 703 4441 
L 1819 4666 
L 2450 4666 
L 2450 531 
L 3481 531 
L 3481 0 
L 794 0 
L 794 531 
z
" transform="scale(0.015625)"/>
       </defs>
       <use xlink:href="#DejaVuSans-31"/>
      </g>
     </g>
    </g>
    <g id="xtick_2">
     <g id="line2d_5">
      <g>
       <use xlink:href="#mf4d8f3280c" x="96.632143" y="302.8525" style="stroke: #000000; stroke-width: 0.8"/>
      </g>
     </g>
     <g id="text_2">
      <!-- 2 -->
      <g transform="translate(93.450893 317.450938) scale(0.1 -0.1)">
       <defs>
        <path id="DejaVuSans-32" d="M 1228 531 
L 3431 531 
L 3431 0 
L 469 0 
L 469 531 
Q 828 903 1448 1529 
Q 2069 2156 2228 2338 
Q 2531 2678 2651 2914 
Q 2772 3150 2772 3378 
Q 2772 3750 2511 3984 
Q 2250 4219 1831 4219 
Q 1534 4219 1204 4116 
Q 875 4013 500 3803 
L 500 4441 
Q 881 4594 1212 4672 
Q 1544 4750 1819 4750 
Q 2544 4750 2975 4387 
Q 3406 4025 3406 3419 
Q 3406 3131 3298 2873 
Q 3191 2616 2906 2266 
Q 2828 2175 2409 1742 
Q 1991 1309 1228 531 
z
" transform="scale(0.015625)"/>
       </defs>
       <use xlink:href="#DejaVuSans-32"/>
      </g>
     </g>
    </g>
    <g id="xtick_3">
     <g id="line2d_6">
      <g>
       <use xlink:href="#mf4d8f3280c" x="154.994286" y="302.8525" style="stroke: #000000; stroke-width: 0.8"/>
      </g>
     </g>
     <g id="text_3">
      <!-- 3 -->
      <g transform="translate(151.813036 317.450938) scale(0.1 -0.1)">
       <defs>
        <path id="DejaVuSans-33" d="M 2597 2516 
Q 3050 2419 3304 2112 
Q 3559 1806 3559 1356 
Q 3559 666 3084 287 
Q 2609 -91 1734 -91 
Q 1441 -91 1130 -33 
Q 819 25 488 141 
L 488 750 
Q 750 597 1062 519 
Q 1375 441 1716 441 
Q 2309 441 2620 675 
Q 2931 909 2931 1356 
Q 2931 1769 2642 2001 
Q 2353 2234 1838 2234 
L 1294 2234 
L 1294 2753 
L 1863 2753 
Q 2328 2753 2575 2939 
Q 2822 3125 2822 3475 
Q 2822 3834 2567 4026 
Q 2313 4219 1838 4219 
Q 1578 4219 1281 4162 
Q 984 4106 628 3988 
L 628 4550 
Q 988 4650 1302 4700 
Q 1616 4750 1894 4750 
Q 2613 4750 3031 4423 
Q 3450 4097 3450 3541 
Q 3450 3153 3228 2886 
Q 3006 2619 2597 2516 
z
" transform="scale(0.015625)"/>
       </defs>
       <use xlink:href="#DejaVuSans-33"/>
      </g>
     </g>
    </g>
    <g id="xtick_4">
     <g id="line2d_7">
      <g>
       <use xlink:href="#mf4d8f3280c" x="213.356429" y="302.8525" style="stroke: #000000; stroke-width: 0.8"/>
      </g>
     </g>
     <g id="text_4">
      <!-- 4 -->
      <g transform="translate(210.175179 317.450938) scale(0.1 -0.1)">
       <defs>
        <path id="DejaVuSans-34" d="M 2419 4116 
L 825 1625 
L 2419 1625 
L 2419 4116 
z
M 2253 4666 
L 3047 4666 
L 3047 1625 
L 3713 1625 
L 3713 1100 
L 3047 1100 
L 3047 0 
L 2419 0 
L 2419 1100 
L 313 1100 
L 313 1709 
L 2253 4666 
z
" transform="scale(0.015625)"/>
       </defs>
       <use xlink:href="#DejaVuSans-34"/>
      </g>
     </g>
    </g>
    <g id="xtick_5">
     <g id="line2d_8">
      <g>
       <use xlink:href="#mf4d8f3280c" x="271.718571" y="302.8525" style="stroke: #000000; stroke-width: 0.8"/>
      </g>
     </g>
     <g id="text_5">
      <!-- 5 -->
      <g transform="translate(268.537321 317.450938) scale(0.1 -0.1)">
       <defs>
        <path id="DejaVuSans-35" d="M 691 4666 
L 3169 4666 
L 3169 4134 
L 1269 4134 
L 1269 2991 
Q 1406 3038 1543 3061 
Q 1681 3084 1819 3084 
Q 2600 3084 3056 2656 
Q 3513 2228 3513 1497 
Q 3513 744 3044 326 
Q 2575 -91 1722 -91 
Q 1428 -91 1123 -41 
Q 819 9 494 109 
L 494 744 
Q 775 591 1075 516 
Q 1375 441 1709 441 
Q 2250 441 2565 725 
Q 2881 1009 2881 1497 
Q 2881 1984 2565 2268 
Q 2250 2553 1709 2553 
Q 1456 2553 1204 2497 
Q 953 2441 691 2322 
L 691 4666 
z
" transform="scale(0.015625)"/>
       </defs>
       <use xlink:href="#DejaVuSans-35"/>
      </g>
     </g>
    </g>
    <g id="xtick_6">
     <g id="line2d_9">
      <g>
       <use xlink:href="#mf4d8f3280c" x="330.080714" y="302.8525" style="stroke: #000000; stroke-width: 0.8"/>
      </g>
     </g>
     <g id="text_6">
      <!-- 6 -->
      <g transform="translate(326.899464 317.450938) scale(0.1 -0.1)">
       <defs>
        <path id="DejaVuSans-36" d="M 2113 2584 
Q 1688 2584 1439 2293 
Q 1191 2003 1191 1497 
Q 1191 994 1439 701 
Q 1688 409 2113 409 
Q 2538 409 2786 701 
Q 3034 994 3034 1497 
Q 3034 2003 2786 2293 
Q 2538 2584 2113 2584 
z
M 3366 4563 
L 3366 3988 
Q 3128 4100 2886 4159 
Q 2644 4219 2406 4219 
Q 1781 4219 1451 3797 
Q 1122 3375 1075 2522 
Q 1259 2794 1537 2939 
Q 1816 3084 2150 3084 
Q 2853 3084 3261 2657 
Q 3669 2231 3669 1497 
Q 3669 778 3244 343 
Q 2819 -91 2113 -91 
Q 1303 -91 875 529 
Q 447 1150 447 2328 
Q 447 3434 972 4092 
Q 1497 4750 2381 4750 
Q 2619 4750 2861 4703 
Q 3103 4656 3366 4563 
z
" transform="scale(0.015625)"/>
       </defs>
       <use xlink:href="#DejaVuSans-36"/>
      </g>
     </g>
    </g>
    <g id="xtick_7">
     <g id="line2d_10">
      <g>
       <use xlink:href="#mf4d8f3280c" x="388.442857" y="302.8525" style="stroke: #000000; stroke-width: 0.8"/>
      </g>
     </g>
     <g id="text_7">
      <!-- 7 -->
      <g transform="translate(385.261607 317.450938) scale(0.1 -0.1)">
       <defs>
        <path id="DejaVuSans-37" d="M 525 4666 
L 3525 4666 
L 3525 4397 
L 1831 0 
L 1172 0 
L 2766 4134 
L 525 4134 
L 525 4666 
z
" transform="scale(0.015625)"/>
       </defs>
       <use xlink:href="#DejaVuSans-37"/>
      </g>
     </g>
    </g>
    <g id="xtick_8">
     <g id="line2d_11">
      <g>
       <use xlink:href="#mf4d8f3280c" x="446.805" y="302.8525" style="stroke: #000000; stroke-width: 0.8"/>
      </g>
     </g>
     <g id="text_8">
      <!-- 8 -->
      <g transform="translate(443.62375 317.450938) scale(0.1 -0.1)">
       <defs>
        <path id="DejaVuSans-38" d="M 2034 2216 
Q 1584 2216 1326 1975 
Q 1069 1734 1069 1313 
Q 1069 891 1326 650 
Q 1584 409 2034 409 
Q 2484 409 2743 651 
Q 3003 894 3003 1313 
Q 3003 1734 2745 1975 
Q 2488 2216 2034 2216 
z
M 1403 2484 
Q 997 2584 770 2862 
Q 544 3141 544 3541 
Q 544 4100 942 4425 
Q 1341 4750 2034 4750 
Q 2731 4750 3128 4425 
Q 3525 4100 3525 3541 
Q 3525 3141 3298 2862 
Q 3072 2584 2669 2484 
Q 3125 2378 3379 2068 
Q 3634 1759 3634 1313 
Q 3634 634 3220 271 
Q 2806 -91 2034 -91 
Q 1263 -91 848 271 
Q 434 634 434 1313 
Q 434 1759 690 2068 
Q 947 2378 1403 2484 
z
M 1172 3481 
Q 1172 3119 1398 2916 
Q 1625 2713 2034 2713 
Q 2441 2713 2670 2916 
Q 2900 3119 2900 3481 
Q 2900 3844 2670 4047 
Q 2441 4250 2034 4250 
Q 1625 4250 1398 4047 
Q 1172 3844 1172 3481 
z
" transform="scale(0.015625)"/>
       </defs>
       <use xlink:href="#DejaVuSans-38"/>
      </g>
     </g>
    </g>
    <g id="text_9">
     <!-- SER205 OG - H2O H Distance [Å] -->
     <g transform="translate(160.215625 332.0525) scale(0.1 -0.1)">
      <defs>
       <path id="DejaVuSans-53" d="M 3425 4513 
L 3425 3897 
Q 3066 4069 2747 4153 
Q 2428 4238 2131 4238 
Q 1616 4238 1336 4038 
Q 1056 3838 1056 3469 
Q 1056 3159 1242 3001 
Q 1428 2844 1947 2747 
L 2328 2669 
Q 3034 2534 3370 2195 
Q 3706 1856 3706 1288 
Q 3706 609 3251 259 
Q 2797 -91 1919 -91 
Q 1588 -91 1214 -16 
Q 841 59 441 206 
L 441 856 
Q 825 641 1194 531 
Q 1563 422 1919 422 
Q 2459 422 2753 634 
Q 3047 847 3047 1241 
Q 3047 1584 2836 1778 
Q 2625 1972 2144 2069 
L 1759 2144 
Q 1053 2284 737 2584 
Q 422 2884 422 3419 
Q 422 4038 858 4394 
Q 1294 4750 2059 4750 
Q 2388 4750 2728 4690 
Q 3069 4631 3425 4513 
z
" transform="scale(0.015625)"/>
       <path id="DejaVuSans-45" d="M 628 4666 
L 3578 4666 
L 3578 4134 
L 1259 4134 
L 1259 2753 
L 3481 2753 
L 3481 2222 
L 1259 2222 
L 1259 531 
L 3634 531 
L 3634 0 
L 628 0 
L 628 4666 
z
" transform="scale(0.015625)"/>
       <path id="DejaVuSans-52" d="M 2841 2188 
Q 3044 2119 3236 1894 
Q 3428 1669 3622 1275 
L 4263 0 
L 3584 0 
L 2988 1197 
Q 2756 1666 2539 1819 
Q 2322 1972 1947 1972 
L 1259 1972 
L 1259 0 
L 628 0 
L 628 4666 
L 2053 4666 
Q 2853 4666 3247 4331 
Q 3641 3997 3641 3322 
Q 3641 2881 3436 2590 
Q 3231 2300 2841 2188 
z
M 1259 4147 
L 1259 2491 
L 2053 2491 
Q 2509 2491 2742 2702 
Q 2975 2913 2975 3322 
Q 2975 3731 2742 3939 
Q 2509 4147 2053 4147 
L 1259 4147 
z
" transform="scale(0.015625)"/>
       <path id="DejaVuSans-30" d="M 2034 4250 
Q 1547 4250 1301 3770 
Q 1056 3291 1056 2328 
Q 1056 1369 1301 889 
Q 1547 409 2034 409 
Q 2525 409 2770 889 
Q 3016 1369 3016 2328 
Q 3016 3291 2770 3770 
Q 2525 4250 2034 4250 
z
M 2034 4750 
Q 2819 4750 3233 4129 
Q 3647 3509 3647 2328 
Q 3647 1150 3233 529 
Q 2819 -91 2034 -91 
Q 1250 -91 836 529 
Q 422 1150 422 2328 
Q 422 3509 836 4129 
Q 1250 4750 2034 4750 
z
" transform="scale(0.015625)"/>
       <path id="DejaVuSans-20" transform="scale(0.015625)"/>
       <path id="DejaVuSans-4f" d="M 2522 4238 
Q 1834 4238 1429 3725 
Q 1025 3213 1025 2328 
Q 1025 1447 1429 934 
Q 1834 422 2522 422 
Q 3209 422 3611 934 
Q 4013 1447 4013 2328 
Q 4013 3213 3611 3725 
Q 3209 4238 2522 4238 
z
M 2522 4750 
Q 3503 4750 4090 4092 
Q 4678 3434 4678 2328 
Q 4678 1225 4090 567 
Q 3503 -91 2522 -91 
Q 1538 -91 948 565 
Q 359 1222 359 2328 
Q 359 3434 948 4092 
Q 1538 4750 2522 4750 
z
" transform="scale(0.015625)"/>
       <path id="DejaVuSans-47" d="M 3809 666 
L 3809 1919 
L 2778 1919 
L 2778 2438 
L 4434 2438 
L 4434 434 
Q 4069 175 3628 42 
Q 3188 -91 2688 -91 
Q 1594 -91 976 548 
Q 359 1188 359 2328 
Q 359 3472 976 4111 
Q 1594 4750 2688 4750 
Q 3144 4750 3555 4637 
Q 3966 4525 4313 4306 
L 4313 3634 
Q 3963 3931 3569 4081 
Q 3175 4231 2741 4231 
Q 1884 4231 1454 3753 
Q 1025 3275 1025 2328 
Q 1025 1384 1454 906 
Q 1884 428 2741 428 
Q 3075 428 3337 486 
Q 3600 544 3809 666 
z
" transform="scale(0.015625)"/>
       <path id="DejaVuSans-2d" d="M 313 2009 
L 1997 2009 
L 1997 1497 
L 313 1497 
L 313 2009 
z
" transform="scale(0.015625)"/>
       <path id="DejaVuSans-48" d="M 628 4666 
L 1259 4666 
L 1259 2753 
L 3553 2753 
L 3553 4666 
L 4184 4666 
L 4184 0 
L 3553 0 
L 3553 2222 
L 1259 2222 
L 1259 0 
L 628 0 
L 628 4666 
z
" transform="scale(0.015625)"/>
       <path id="DejaVuSans-44" d="M 1259 4147 
L 1259 519 
L 2022 519 
Q 2988 519 3436 956 
Q 3884 1394 3884 2338 
Q 3884 3275 3436 3711 
Q 2988 4147 2022 4147 
L 1259 4147 
z
M 628 4666 
L 1925 4666 
Q 3281 4666 3915 4102 
Q 4550 3538 4550 2338 
Q 4550 1131 3912 565 
Q 3275 0 1925 0 
L 628 0 
L 628 4666 
z
" transform="scale(0.015625)"/>
       <path id="DejaVuSans-69" d="M 603 3500 
L 1178 3500 
L 1178 0 
L 603 0 
L 603 3500 
z
M 603 4863 
L 1178 4863 
L 1178 4134 
L 603 4134 
L 603 4863 
z
" transform="scale(0.015625)"/>
       <path id="DejaVuSans-73" d="M 2834 3397 
L 2834 2853 
Q 2591 2978 2328 3040 
Q 2066 3103 1784 3103 
Q 1356 3103 1142 2972 
Q 928 2841 928 2578 
Q 928 2378 1081 2264 
Q 1234 2150 1697 2047 
L 1894 2003 
Q 2506 1872 2764 1633 
Q 3022 1394 3022 966 
Q 3022 478 2636 193 
Q 2250 -91 1575 -91 
Q 1294 -91 989 -36 
Q 684 19 347 128 
L 347 722 
Q 666 556 975 473 
Q 1284 391 1588 391 
Q 1994 391 2212 530 
Q 2431 669 2431 922 
Q 2431 1156 2273 1281 
Q 2116 1406 1581 1522 
L 1381 1569 
Q 847 1681 609 1914 
Q 372 2147 372 2553 
Q 372 3047 722 3315 
Q 1072 3584 1716 3584 
Q 2034 3584 2315 3537 
Q 2597 3491 2834 3397 
z
" transform="scale(0.015625)"/>
       <path id="DejaVuSans-74" d="M 1172 4494 
L 1172 3500 
L 2356 3500 
L 2356 3053 
L 1172 3053 
L 1172 1153 
Q 1172 725 1289 603 
Q 1406 481 1766 481 
L 2356 481 
L 2356 0 
L 1766 0 
Q 1100 0 847 248 
Q 594 497 594 1153 
L 594 3053 
L 172 3053 
L 172 3500 
L 594 3500 
L 594 4494 
L 1172 4494 
z
" transform="scale(0.015625)"/>
       <path id="DejaVuSans-61" d="M 2194 1759 
Q 1497 1759 1228 1600 
Q 959 1441 959 1056 
Q 959 750 1161 570 
Q 1363 391 1709 391 
Q 2188 391 2477 730 
Q 2766 1069 2766 1631 
L 2766 1759 
L 2194 1759 
z
M 3341 1997 
L 3341 0 
L 2766 0 
L 2766 531 
Q 2569 213 2275 61 
Q 1981 -91 1556 -91 
Q 1019 -91 701 211 
Q 384 513 384 1019 
Q 384 1609 779 1909 
Q 1175 2209 1959 2209 
L 2766 2209 
L 2766 2266 
Q 2766 2663 2505 2880 
Q 2244 3097 1772 3097 
Q 1472 3097 1187 3025 
Q 903 2953 641 2809 
L 641 3341 
Q 956 3463 1253 3523 
Q 1550 3584 1831 3584 
Q 2591 3584 2966 3190 
Q 3341 2797 3341 1997 
z
" transform="scale(0.015625)"/>
       <path id="DejaVuSans-6e" d="M 3513 2113 
L 3513 0 
L 2938 0 
L 2938 2094 
Q 2938 2591 2744 2837 
Q 2550 3084 2163 3084 
Q 1697 3084 1428 2787 
Q 1159 2491 1159 1978 
L 1159 0 
L 581 0 
L 581 3500 
L 1159 3500 
L 1159 2956 
Q 1366 3272 1645 3428 
Q 1925 3584 2291 3584 
Q 2894 3584 3203 3211 
Q 3513 2838 3513 2113 
z
" transform="scale(0.015625)"/>
       <path id="DejaVuSans-63" d="M 3122 3366 
L 3122 2828 
Q 2878 2963 2633 3030 
Q 2388 3097 2138 3097 
Q 1578 3097 1268 2742 
Q 959 2388 959 1747 
Q 959 1106 1268 751 
Q 1578 397 2138 397 
Q 2388 397 2633 464 
Q 2878 531 3122 666 
L 3122 134 
Q 2881 22 2623 -34 
Q 2366 -91 2075 -91 
Q 1284 -91 818 406 
Q 353 903 353 1747 
Q 353 2603 823 3093 
Q 1294 3584 2113 3584 
Q 2378 3584 2631 3529 
Q 2884 3475 3122 3366 
z
" transform="scale(0.015625)"/>
       <path id="DejaVuSans-65" d="M 3597 1894 
L 3597 1613 
L 953 1613 
Q 991 1019 1311 708 
Q 1631 397 2203 397 
Q 2534 397 2845 478 
Q 3156 559 3463 722 
L 3463 178 
Q 3153 47 2828 -22 
Q 2503 -91 2169 -91 
Q 1331 -91 842 396 
Q 353 884 353 1716 
Q 353 2575 817 3079 
Q 1281 3584 2069 3584 
Q 2775 3584 3186 3129 
Q 3597 2675 3597 1894 
z
M 3022 2063 
Q 3016 2534 2758 2815 
Q 2500 3097 2075 3097 
Q 1594 3097 1305 2825 
Q 1016 2553 972 2059 
L 3022 2063 
z
" transform="scale(0.015625)"/>
       <path id="DejaVuSans-5b" d="M 550 4863 
L 1875 4863 
L 1875 4416 
L 1125 4416 
L 1125 -397 
L 1875 -397 
L 1875 -844 
L 550 -844 
L 550 4863 
z
" transform="scale(0.015625)"/>
       <path id="DejaVuSans-c5" d="M 2663 5081 
Q 2663 5278 2523 5417 
Q 2384 5556 2188 5556 
Q 1988 5556 1852 5420 
Q 1716 5284 1716 5081 
Q 1716 4884 1853 4746 
Q 1991 4609 2188 4609 
Q 2384 4609 2523 4746 
Q 2663 4884 2663 5081 
z
M 2188 4044 
L 1338 1722 
L 3041 1722 
L 2188 4044 
z
M 1716 4366 
Q 1525 4494 1428 4673 
Q 1331 4853 1331 5081 
Q 1331 5441 1579 5691 
Q 1828 5941 2188 5941 
Q 2544 5941 2795 5689 
Q 3047 5438 3047 5081 
Q 3047 4863 2948 4678 
Q 2850 4494 2663 4366 
L 4325 0 
L 3669 0 
L 3244 1197 
L 1141 1197 
L 716 0 
L 50 0 
L 1716 4366 
z
" transform="scale(0.015625)"/>
       <path id="DejaVuSans-5d" d="M 1947 4863 
L 1947 -844 
L 622 -844 
L 622 -397 
L 1369 -397 
L 1369 4416 
L 622 4416 
L 622 4863 
L 1947 4863 
z
" transform="scale(0.015625)"/>
      </defs>
      <use xlink:href="#DejaVuSans-53"/>
      <use xlink:href="#DejaVuSans-45" x="63.476562"/>
      <use xlink:href="#DejaVuSans-52" x="126.660156"/>
      <use xlink:href="#DejaVuSans-32" x="196.142578"/>
      <use xlink:href="#DejaVuSans-30" x="259.765625"/>
      <use xlink:href="#DejaVuSans-35" x="323.388672"/>
      <use xlink:href="#DejaVuSans-20" x="387.011719"/>
      <use xlink:href="#DejaVuSans-4f" x="418.798828"/>
      <use xlink:href="#DejaVuSans-47" x="497.509766"/>
      <use xlink:href="#DejaVuSans-20" x="575"/>
      <use xlink:href="#DejaVuSans-2d" x="606.787109"/>
      <use xlink:href="#DejaVuSans-20" x="642.871094"/>
      <use xlink:href="#DejaVuSans-48" x="674.658203"/>
      <use xlink:href="#DejaVuSans-32" x="749.853516"/>
      <use xlink:href="#DejaVuSans-4f" x="813.476562"/>
      <use xlink:href="#DejaVuSans-20" x="892.1875"/>
      <use xlink:href="#DejaVuSans-48" x="923.974609"/>
      <use xlink:href="#DejaVuSans-20" x="999.169922"/>
      <use xlink:href="#DejaVuSans-44" x="1030.957031"/>
      <use xlink:href="#DejaVuSans-69" x="1107.958984"/>
      <use xlink:href="#DejaVuSans-73" x="1135.742188"/>
      <use xlink:href="#DejaVuSans-74" x="1187.841797"/>
      <use xlink:href="#DejaVuSans-61" x="1227.050781"/>
      <use xlink:href="#DejaVuSans-6e" x="1288.330078"/>
      <use xlink:href="#DejaVuSans-63" x="1351.708984"/>
      <use xlink:href="#DejaVuSans-65" x="1406.689453"/>
      <use xlink:href="#DejaVuSans-20" x="1468.212891"/>
      <use xlink:href="#DejaVuSans-5b" x="1500"/>
      <use xlink:href="#DejaVuSans-c5" x="1539.013672"/>
      <use xlink:href="#DejaVuSans-5d" x="1607.421875"/>
     </g>
    </g>
   </g>
   <g id="matplotlib.axis_2">
    <g id="ytick_1">
     <g id="line2d_12">
      <defs>
       <path id="m2caaea2a49" d="M 0 0 
L -3.5 0 
" style="stroke: #000000; stroke-width: 0.8"/>
      </defs>
      <g>
       <use xlink:href="#m2caaea2a49" x="38.27" y="276.662273" style="stroke: #000000; stroke-width: 0.8"/>
      </g>
     </g>
     <g id="text_10">
      <!-- 0 -->
      <g transform="translate(24.9075 280.461491) scale(0.1 -0.1)">
       <use xlink:href="#DejaVuSans-30"/>
      </g>
     </g>
    </g>
    <g id="ytick_2">
     <g id="line2d_13">
      <g>
       <use xlink:href="#m2caaea2a49" x="38.27" y="224.281818" style="stroke: #000000; stroke-width: 0.8"/>
      </g>
     </g>
     <g id="text_11">
      <!-- 1 -->
      <g transform="translate(24.9075 228.081037) scale(0.1 -0.1)">
       <use xlink:href="#DejaVuSans-31"/>
      </g>
     </g>
    </g>
    <g id="ytick_3">
     <g id="line2d_14">
      <g>
       <use xlink:href="#m2caaea2a49" x="38.27" y="171.901364" style="stroke: #000000; stroke-width: 0.8"/>
      </g>
     </g>
     <g id="text_12">
      <!-- 2 -->
      <g transform="translate(24.9075 175.700582) scale(0.1 -0.1)">
       <use xlink:href="#DejaVuSans-32"/>
      </g>
     </g>
    </g>
    <g id="ytick_4">
     <g id="line2d_15">
      <g>
       <use xlink:href="#m2caaea2a49" x="38.27" y="119.520909" style="stroke: #000000; stroke-width: 0.8"/>
      </g>
     </g>
     <g id="text_13">
      <!-- 3 -->
      <g transform="translate(24.9075 123.320128) scale(0.1 -0.1)">
       <use xlink:href="#DejaVuSans-33"/>
      </g>
     </g>
    </g>
    <g id="ytick_5">
     <g id="line2d_16">
      <g>
       <use xlink:href="#m2caaea2a49" x="38.27" y="67.140455" style="stroke: #000000; stroke-width: 0.8"/>
      </g>
     </g>
     <g id="text_14">
      <!-- 4 -->
      <g transform="translate(24.9075 70.939673) scale(0.1 -0.1)">
       <use xlink:href="#DejaVuSans-34"/>
      </g>
     </g>
    </g>
    <g id="ytick_6">
     <g id="line2d_17">
      <g>
       <use xlink:href="#m2caaea2a49" x="38.27" y="14.76" style="stroke: #000000; stroke-width: 0.8"/>
      </g>
     </g>
     <g id="text_15">
      <!-- 5 -->
      <g transform="translate(24.9075 18.559219) scale(0.1 -0.1)">
       <use xlink:href="#DejaVuSans-35"/>
      </g>
     </g>
    </g>
    <g id="text_16">
     <!-- PMF [kcal/mol] -->
     <g transform="translate(18.827813 195.602344) rotate(-90) scale(0.1 -0.1)">
      <defs>
       <path id="DejaVuSans-50" d="M 1259 4147 
L 1259 2394 
L 2053 2394 
Q 2494 2394 2734 2622 
Q 2975 2850 2975 3272 
Q 2975 3691 2734 3919 
Q 2494 4147 2053 4147 
L 1259 4147 
z
M 628 4666 
L 2053 4666 
Q 2838 4666 3239 4311 
Q 3641 3956 3641 3272 
Q 3641 2581 3239 2228 
Q 2838 1875 2053 1875 
L 1259 1875 
L 1259 0 
L 628 0 
L 628 4666 
z
" transform="scale(0.015625)"/>
       <path id="DejaVuSans-4d" d="M 628 4666 
L 1569 4666 
L 2759 1491 
L 3956 4666 
L 4897 4666 
L 4897 0 
L 4281 0 
L 4281 4097 
L 3078 897 
L 2444 897 
L 1241 4097 
L 1241 0 
L 628 0 
L 628 4666 
z
" transform="scale(0.015625)"/>
       <path id="DejaVuSans-46" d="M 628 4666 
L 3309 4666 
L 3309 4134 
L 1259 4134 
L 1259 2759 
L 3109 2759 
L 3109 2228 
L 1259 2228 
L 1259 0 
L 628 0 
L 628 4666 
z
" transform="scale(0.015625)"/>
       <path id="DejaVuSans-6b" d="M 581 4863 
L 1159 4863 
L 1159 1991 
L 2875 3500 
L 3609 3500 
L 1753 1863 
L 3688 0 
L 2938 0 
L 1159 1709 
L 1159 0 
L 581 0 
L 581 4863 
z
" transform="scale(0.015625)"/>
       <path id="DejaVuSans-6c" d="M 603 4863 
L 1178 4863 
L 1178 0 
L 603 0 
L 603 4863 
z
" transform="scale(0.015625)"/>
       <path id="DejaVuSans-2f" d="M 1625 4666 
L 2156 4666 
L 531 -594 
L 0 -594 
L 1625 4666 
z
" transform="scale(0.015625)"/>
       <path id="DejaVuSans-6d" d="M 3328 2828 
Q 3544 3216 3844 3400 
Q 4144 3584 4550 3584 
Q 5097 3584 5394 3201 
Q 5691 2819 5691 2113 
L 5691 0 
L 5113 0 
L 5113 2094 
Q 5113 2597 4934 2840 
Q 4756 3084 4391 3084 
Q 3944 3084 3684 2787 
Q 3425 2491 3425 1978 
L 3425 0 
L 2847 0 
L 2847 2094 
Q 2847 2600 2669 2842 
Q 2491 3084 2119 3084 
Q 1678 3084 1418 2786 
Q 1159 2488 1159 1978 
L 1159 0 
L 581 0 
L 581 3500 
L 1159 3500 
L 1159 2956 
Q 1356 3278 1631 3431 
Q 1906 3584 2284 3584 
Q 2666 3584 2933 3390 
Q 3200 3197 3328 2828 
z
" transform="scale(0.015625)"/>
       <path id="DejaVuSans-6f" d="M 1959 3097 
Q 1497 3097 1228 2736 
Q 959 2375 959 1747 
Q 959 1119 1226 758 
Q 1494 397 1959 397 
Q 2419 397 2687 759 
Q 2956 1122 2956 1747 
Q 2956 2369 2687 2733 
Q 2419 3097 1959 3097 
z
M 1959 3584 
Q 2709 3584 3137 3096 
Q 3566 2609 3566 1747 
Q 3566 888 3137 398 
Q 2709 -91 1959 -91 
Q 1206 -91 779 398 
Q 353 888 353 1747 
Q 353 2609 779 3096 
Q 1206 3584 1959 3584 
z
" transform="scale(0.015625)"/>
      </defs>
      <use xlink:href="#DejaVuSans-50"/>
      <use xlink:href="#DejaVuSans-4d" x="60.302734"/>
      <use xlink:href="#DejaVuSans-46" x="146.582031"/>
      <use xlink:href="#DejaVuSans-20" x="204.101562"/>
      <use xlink:href="#DejaVuSans-5b" x="235.888672"/>
      <use xlink:href="#DejaVuSans-6b" x="274.902344"/>
      <use xlink:href="#DejaVuSans-63" x="332.8125"/>
      <use xlink:href="#DejaVuSans-61" x="387.792969"/>
      <use xlink:href="#DejaVuSans-6c" x="449.072266"/>
      <use xlink:href="#DejaVuSans-2f" x="476.855469"/>
      <use xlink:href="#DejaVuSans-6d" x="510.546875"/>
      <use xlink:href="#DejaVuSans-6f" x="607.958984"/>
      <use xlink:href="#DejaVuSans-6c" x="669.140625"/>
      <use xlink:href="#DejaVuSans-5d" x="696.923828"/>
     </g>
    </g>
   </g>
   <g id="line2d_18">
    <path d="M 69.259674 -1 
L 69.817104 19.698326 
L 70.868674 50.468437 
L 71.920245 72.668846 
L 72.971815 89.13932 
L 74.023385 102.236585 
L 75.074955 113.06426 
L 76.65231 126.266516 
L 78.229665 137.289567 
L 79.807021 148.298338 
L 81.384376 159.55537 
L 81.910161 162.272678 
L 82.435946 164.15387 
L 82.961731 165.217032 
L 83.487516 165.637225 
L 84.539086 165.793396 
L 85.064871 166.142294 
L 85.590656 166.839349 
L 86.642227 168.629568 
L 87.168012 169.248334 
L 87.693797 169.518001 
L 89.271152 169.419883 
L 89.796937 169.619723 
L 90.848507 170.274149 
L 91.374292 170.387089 
L 91.900077 170.182413 
L 92.425862 169.649447 
L 94.003218 167.39611 
L 94.529003 167.111904 
L 95.054788 167.353187 
L 95.580573 168.129501 
L 97.157928 171.345079 
L 97.683713 171.607339 
L 98.209498 171.111531 
L 98.735283 169.919191 
L 100.312638 165.038054 
L 101.364208 162.86124 
L 102.941564 159.892088 
L 106.622059 152.716624 
L 107.147844 152.436235 
L 107.673629 152.574652 
L 108.725199 153.308445 
L 109.250985 153.364451 
L 109.77677 152.892006 
L 110.302555 151.743431 
L 110.82834 149.887525 
L 111.87991 144.633115 
L 112.93148 139.243493 
L 113.457265 137.13387 
L 113.98305 135.50278 
L 115.03462 133.193338 
L 116.08619 131.343824 
L 116.611976 130.915586 
L 117.137761 131.399248 
L 117.663546 133.072873 
L 119.240901 141.0604 
L 119.766686 142.506473 
L 120.292471 142.704313 
L 120.818256 141.676665 
L 121.869826 137.292189 
L 122.395611 135.201025 
L 122.921396 134.182136 
L 123.447181 134.663741 
L 123.972967 136.506257 
L 126.076107 146.595112 
L 127.653462 152.03837 
L 128.705032 156.965806 
L 130.808172 167.751108 
L 131.859743 173.201361 
L 133.962883 184.967742 
L 135.014453 188.77766 
L 136.591808 193.648392 
L 137.643378 197.96679 
L 138.694949 202.462677 
L 139.220734 204.328614 
L 139.746519 205.771694 
L 140.272304 206.768464 
L 140.798089 207.387676 
L 142.375444 208.667269 
L 142.901229 209.524214 
L 143.427014 210.76067 
L 144.478584 214.059336 
L 145.530154 217.495975 
L 146.581725 220.214902 
L 147.633295 221.992698 
L 149.21065 223.741145 
L 150.788005 225.297675 
L 151.839575 225.843509 
L 152.891145 226.022197 
L 155.520071 226.31778 
L 156.571641 226.395067 
L 158.674781 226.069462 
L 159.726351 226.351823 
L 160.777921 226.705812 
L 161.829492 226.748203 
L 162.881062 226.507375 
L 164.458417 225.900753 
L 165.509987 225.353867 
L 166.561557 224.523649 
L 168.138912 223.049912 
L 169.190483 222.440056 
L 170.242053 222.006443 
L 170.767838 221.655328 
L 171.293623 221.124155 
L 172.345193 219.566953 
L 173.396763 217.963323 
L 173.922548 217.424216 
L 174.448333 217.118074 
L 176.551474 216.494224 
L 178.654614 214.949845 
L 179.180399 214.930618 
L 179.706184 215.167111 
L 181.809324 216.96454 
L 182.335109 217.07143 
L 182.860894 216.952741 
L 184.43825 216.113665 
L 184.964035 216.090021 
L 185.48982 216.310522 
L 186.54139 217.240072 
L 188.118745 219.01506 
L 189.6961 221.384206 
L 193.902381 227.74406 
L 194.953951 228.802316 
L 196.531306 229.974196 
L 197.057091 230.600803 
L 198.108662 232.460296 
L 199.686017 235.599015 
L 202.314942 239.777569 
L 203.892297 243.377841 
L 204.943867 245.799365 
L 205.995438 247.726806 
L 207.047008 249.039176 
L 208.624363 250.357206 
L 211.779073 252.7538 
L 212.830644 254.038261 
L 214.933784 256.889242 
L 215.985354 257.942775 
L 218.088494 259.884209 
L 221.243205 263.160272 
L 224.397915 265.448296 
L 225.449485 266.024661 
L 227.02684 266.588601 
L 227.552625 266.934224 
L 228.604196 268.014046 
L 230.181551 269.837104 
L 231.233121 270.752951 
L 232.810476 271.787807 
L 233.862046 272.286971 
L 234.913616 272.606063 
L 236.490972 272.817207 
L 240.171467 273.173882 
L 241.223037 273.408143 
L 242.800393 274.122353 
L 244.903533 275.324138 
L 247.006673 276.664958 
L 247.532458 276.811408 
L 248.584028 276.751606 
L 250.161384 276.479974 
L 251.212954 276.621769 
L 253.841879 277.166469 
L 255.419234 277.352967 
L 256.996589 277.279917 
L 260.677085 276.68832 
L 263.30601 275.812659 
L 264.35758 275.848137 
L 265.934936 276.186673 
L 266.460721 276.165846 
L 267.512291 275.799448 
L 269.089646 275.077827 
L 270.141216 274.914611 
L 272.244356 274.891934 
L 273.295927 274.504382 
L 274.347497 273.760569 
L 275.924852 272.135642 
L 276.976422 271.212577 
L 278.027992 270.783745 
L 280.131133 270.286405 
L 282.234273 269.318187 
L 283.811628 268.489175 
L 284.863198 267.508186 
L 287.492124 264.099003 
L 288.543694 263.263596 
L 289.595264 262.755769 
L 290.646834 262.563824 
L 291.698404 262.389391 
L 292.749974 261.90998 
L 293.801544 261.321891 
L 294.327329 261.137395 
L 295.3789 261.109188 
L 296.956255 261.355984 
L 297.48204 261.304901 
L 298.007825 261.133597 
L 299.059395 260.422546 
L 301.162535 258.516621 
L 301.68832 258.280566 
L 304.317246 257.634023 
L 305.894601 256.381741 
L 310.100882 253.270895 
L 311.152452 252.911449 
L 312.729807 252.665116 
L 313.781377 252.678066 
L 316.410302 253.008793 
L 316.936088 252.926951 
L 317.461873 252.706907 
L 317.987658 252.331852 
L 319.039228 251.210494 
L 320.090798 250.079666 
L 320.616583 249.741808 
L 321.142368 249.61944 
L 322.193938 249.842259 
L 323.245508 250.15376 
L 324.297079 250.235891 
L 325.348649 250.118587 
L 326.400219 249.797754 
L 327.451789 249.232018 
L 331.658069 246.598364 
L 333.235425 245.703445 
L 334.81278 244.548878 
L 336.390135 243.103331 
L 338.493275 240.84709 
L 339.544846 240.223053 
L 340.596416 240.103967 
L 342.173771 240.294904 
L 342.699556 240.189045 
L 343.225341 239.897997 
L 344.276911 238.813775 
L 345.854266 236.927501 
L 347.431622 235.468636 
L 348.483192 234.718324 
L 349.534762 234.358936 
L 351.112117 234.360156 
L 352.689472 234.229247 
L 354.266828 233.929898 
L 354.792613 233.733038 
L 355.318398 233.396887 
L 355.844183 232.885408 
L 356.895753 231.398841 
L 358.998893 228.035264 
L 359.524678 227.476251 
L 360.050463 227.176429 
L 360.576248 227.156916 
L 361.627819 227.680366 
L 362.679389 228.207082 
L 363.730959 228.387804 
L 365.308314 228.665133 
L 366.359884 228.781894 
L 366.885669 228.676258 
L 367.937239 228.094875 
L 371.617735 225.107266 
L 373.19509 223.510203 
L 374.772445 221.588793 
L 376.349801 219.244159 
L 378.452941 215.752467 
L 379.504511 213.601037 
L 380.556081 210.722916 
L 382.659221 203.834513 
L 383.185006 202.59363 
L 383.710792 201.707377 
L 385.288147 199.742986 
L 385.813932 198.719933 
L 386.339717 197.353087 
L 387.391287 193.739442 
L 392.123353 175.161608 
L 392.649138 173.788104 
L 393.174923 173.0552 
L 393.700708 172.902728 
L 395.278063 173.61784 
L 395.803848 173.591862 
L 396.329633 173.290071 
L 396.855418 172.701788 
L 397.381203 171.843582 
L 400.010129 166.573375 
L 400.535914 166.176521 
L 401.061699 166.100731 
L 402.639054 166.449471 
L 403.164839 166.282835 
L 404.216409 165.548788 
L 404.742194 165.362362 
L 405.267979 165.520666 
L 406.31955 166.607035 
L 406.845335 167.126578 
L 407.37112 167.43776 
L 408.42269 167.781167 
L 408.948475 168.233774 
L 409.47426 169.06787 
L 411.051615 172.337057 
L 411.5774 172.812561 
L 412.103185 172.741212 
L 412.62897 172.199164 
L 413.680541 170.558668 
L 414.206326 169.977847 
L 414.732111 169.828942 
L 415.257896 170.189544 
L 415.783681 171.018863 
L 417.886821 175.602245 
L 418.412606 176.209149 
L 418.938391 176.510863 
L 420.515746 176.949196 
L 421.567317 177.519103 
L 422.093102 177.585762 
L 422.618887 177.344164 
L 423.670457 176.185064 
L 424.722027 175.181153 
L 427.350952 173.556669 
L 427.876737 173.636493 
L 428.402523 173.995923 
L 429.979878 175.520447 
L 431.031448 176.236982 
L 432.083018 176.751546 
L 432.608803 176.854409 
L 433.134588 176.806225 
L 434.186158 176.366608 
L 435.237728 175.938862 
L 437.340869 175.412669 
L 438.392439 174.888073 
L 438.918224 174.82327 
L 439.444009 175.032753 
L 439.969794 175.520921 
L 441.547149 177.438744 
L 442.072934 177.762894 
L 442.598719 177.854157 
L 443.65029 177.776009 
L 444.176075 177.914141 
L 444.70186 178.324247 
L 445.227645 179.03465 
L 446.279215 181.129091 
L 447.330785 183.270744 
L 447.85657 184.003888 
L 448.382355 184.410958 
L 448.90814 184.50838 
L 449.433925 184.352383 
L 449.95971 183.981497 
L 450.485495 183.385184 
L 451.011281 182.536355 
L 452.588636 179.529498 
L 453.114421 179.233272 
L 453.640206 179.59056 
L 455.743346 182.854152 
L 456.269131 183.050881 
L 457.320701 183.11799 
L 457.846486 183.339746 
L 458.898057 184.268243 
L 459.949627 185.137415 
L 461.526982 185.885251 
L 461.8 185.949593 
L 461.8 185.949593 
" clip-path="url(#p220e00ab3e)" style="fill: none; stroke: #f99752; stroke-width: 2.5; stroke-linecap: square"/>
   </g>
   <g id="patch_3">
    <path d="M 38.27 302.8525 
L 38.27 14.76 
" style="fill: none; stroke: #000000; stroke-width: 0.8; stroke-linejoin: miter; stroke-linecap: square"/>
   </g>
   <g id="patch_4">
    <path d="M 446.805 302.8525 
L 446.805 14.76 
" style="fill: none; stroke: #000000; stroke-width: 0.8; stroke-linejoin: miter; stroke-linecap: square"/>
   </g>
   <g id="patch_5">
    <path d="M 38.27 302.8525 
L 446.805 302.8525 
" style="fill: none; stroke: #000000; stroke-width: 0.8; stroke-linejoin: miter; stroke-linecap: square"/>
   </g>
   <g id="patch_6">
    <path d="M 38.27 14.76 
L 446.805 14.76 
" style="fill: none; stroke: #000000; stroke-width: 0.8; stroke-linejoin: miter; stroke-linecap: square"/>
   </g>
   <g id="legend_1">
    <g id="patch_7">
     <path d="M 204.814844 66.794375 
L 280.260156 66.794375 
Q 282.260156 66.794375 282.260156 64.794375 
L 282.260156 21.76 
Q 282.260156 19.76 280.260156 19.76 
L 204.814844 19.76 
Q 202.814844 19.76 202.814844 21.76 
L 202.814844 64.794375 
Q 202.814844 66.794375 204.814844 66.794375 
z
" style="fill: #ffffff; opacity: 0.8; stroke: #cccccc; stroke-linejoin: miter"/>
    </g>
    <g id="line2d_19">
     <path d="M 206.814844 27.858437 
L 216.814844 27.858437 
L 226.814844 27.858437 
" style="fill: none; stroke: #1e2e79; stroke-width: 2.5; stroke-linecap: square"/>
    </g>
    <g id="text_17">
     <!-- Reduced -->
     <g transform="translate(234.814844 31.358437) scale(0.1 -0.1)">
      <defs>
       <path id="DejaVuSans-64" d="M 2906 2969 
L 2906 4863 
L 3481 4863 
L 3481 0 
L 2906 0 
L 2906 525 
Q 2725 213 2448 61 
Q 2172 -91 1784 -91 
Q 1150 -91 751 415 
Q 353 922 353 1747 
Q 353 2572 751 3078 
Q 1150 3584 1784 3584 
Q 2172 3584 2448 3432 
Q 2725 3281 2906 2969 
z
M 947 1747 
Q 947 1113 1208 752 
Q 1469 391 1925 391 
Q 2381 391 2643 752 
Q 2906 1113 2906 1747 
Q 2906 2381 2643 2742 
Q 2381 3103 1925 3103 
Q 1469 3103 1208 2742 
Q 947 2381 947 1747 
z
" transform="scale(0.015625)"/>
       <path id="DejaVuSans-75" d="M 544 1381 
L 544 3500 
L 1119 3500 
L 1119 1403 
Q 1119 906 1312 657 
Q 1506 409 1894 409 
Q 2359 409 2629 706 
Q 2900 1003 2900 1516 
L 2900 3500 
L 3475 3500 
L 3475 0 
L 2900 0 
L 2900 538 
Q 2691 219 2414 64 
Q 2138 -91 1772 -91 
Q 1169 -91 856 284 
Q 544 659 544 1381 
z
M 1991 3584 
L 1991 3584 
z
" transform="scale(0.015625)"/>
      </defs>
      <use xlink:href="#DejaVuSans-52"/>
      <use xlink:href="#DejaVuSans-65" x="64.982422"/>
      <use xlink:href="#DejaVuSans-64" x="126.505859"/>
      <use xlink:href="#DejaVuSans-75" x="189.982422"/>
      <use xlink:href="#DejaVuSans-63" x="253.361328"/>
      <use xlink:href="#DejaVuSans-65" x="308.341797"/>
      <use xlink:href="#DejaVuSans-64" x="369.865234"/>
     </g>
    </g>
    <g id="line2d_20">
     <path d="M 206.814844 42.536562 
L 216.814844 42.536562 
L 226.814844 42.536562 
" style="fill: none; stroke: #ec4067; stroke-width: 2.5; stroke-linecap: square"/>
    </g>
    <g id="text_18">
     <!-- Oxidized -->
     <g transform="translate(234.814844 46.036562) scale(0.1 -0.1)">
      <defs>
       <path id="DejaVuSans-78" d="M 3513 3500 
L 2247 1797 
L 3578 0 
L 2900 0 
L 1881 1375 
L 863 0 
L 184 0 
L 1544 1831 
L 300 3500 
L 978 3500 
L 1906 2253 
L 2834 3500 
L 3513 3500 
z
" transform="scale(0.015625)"/>
       <path id="DejaVuSans-7a" d="M 353 3500 
L 3084 3500 
L 3084 2975 
L 922 459 
L 3084 459 
L 3084 0 
L 275 0 
L 275 525 
L 2438 3041 
L 353 3041 
L 353 3500 
z
" transform="scale(0.015625)"/>
      </defs>
      <use xlink:href="#DejaVuSans-4f"/>
      <use xlink:href="#DejaVuSans-78" x="78.710938"/>
      <use xlink:href="#DejaVuSans-69" x="137.890625"/>
      <use xlink:href="#DejaVuSans-64" x="165.673828"/>
      <use xlink:href="#DejaVuSans-69" x="229.150391"/>
      <use xlink:href="#DejaVuSans-7a" x="256.933594"/>
      <use xlink:href="#DejaVuSans-65" x="309.423828"/>
      <use xlink:href="#DejaVuSans-64" x="370.947266"/>
     </g>
    </g>
    <g id="line2d_21">
     <path d="M 206.814844 57.214687 
L 216.814844 57.214687 
L 226.814844 57.214687 
" style="fill: none; stroke: #f99752; stroke-width: 2.5; stroke-linecap: square"/>
    </g>
    <g id="text_19">
     <!-- Cu$^{+}$ -->
     <g transform="translate(234.814844 60.714687) scale(0.1 -0.1)">
      <defs>
       <path id="DejaVuSans-43" d="M 4122 4306 
L 4122 3641 
Q 3803 3938 3442 4084 
Q 3081 4231 2675 4231 
Q 1875 4231 1450 3742 
Q 1025 3253 1025 2328 
Q 1025 1406 1450 917 
Q 1875 428 2675 428 
Q 3081 428 3442 575 
Q 3803 722 4122 1019 
L 4122 359 
Q 3791 134 3420 21 
Q 3050 -91 2638 -91 
Q 1578 -91 968 557 
Q 359 1206 359 2328 
Q 359 3453 968 4101 
Q 1578 4750 2638 4750 
Q 3056 4750 3426 4639 
Q 3797 4528 4122 4306 
z
" transform="scale(0.015625)"/>
       <path id="DejaVuSans-2b" d="M 2944 4013 
L 2944 2272 
L 4684 2272 
L 4684 1741 
L 2944 1741 
L 2944 0 
L 2419 0 
L 2419 1741 
L 678 1741 
L 678 2272 
L 2419 2272 
L 2419 4013 
L 2944 4013 
z
" transform="scale(0.015625)"/>
      </defs>
      <use xlink:href="#DejaVuSans-43" transform="translate(0 0.826562)"/>
      <use xlink:href="#DejaVuSans-75" transform="translate(69.824219 0.826562)"/>
      <use xlink:href="#DejaVuSans-2b" transform="translate(134.160156 39.107812) scale(0.7)"/>
     </g>
    </g>
   </g>
  </g>
 </g>
 <defs>
  <clipPath id="p220e00ab3e">
   <rect x="38.27" y="14.76" width="408.535" height="288.0925"/>
  </clipPath>
 </defs>
</svg>
