<?xml version="1.0" encoding="utf-8" standalone="no"?>
<!DOCTYPE svg PUBLIC "-//W3C//DTD SVG 1.1//EN"
  "http://www.w3.org/Graphics/SVG/1.1/DTD/svg11.dtd">
<svg xmlns:xlink="http://www.w3.org/1999/xlink" width="460.8pt" height="345.6pt" viewBox="0 0 460.8 345.6" xmlns="http://www.w3.org/2000/svg" version="1.1">
 <metadata>
  <rdf:RDF xmlns:dc="http://purl.org/dc/elements/1.1/" xmlns:cc="http://creativecommons.org/ns#" xmlns:rdf="http://www.w3.org/1999/02/22-rdf-syntax-ns#">
   <cc:Work>
    <dc:type rdf:resource="http://purl.org/dc/dcmitype/StillImage"/>
    <dc:date>2024-07-13T23:11:39.436032</dc:date>
    <dc:format>image/svg+xml</dc:format>
    <dc:creator>
     <cc:Agent>
      <dc:title>Matplotlib v3.9.1, https://matplotlib.org/</dc:title>
     </cc:Agent>
    </dc:creator>
   </cc:Work>
  </rdf:RDF>
 </metadata>
 <defs>
  <style type="text/css">*{stroke-linejoin: round; stroke-linecap: butt}</style>
 </defs>
 <g id="figure_1">
  <g id="patch_1">
   <path d="M 0 345.6 
L 460.8 345.6 
L 460.8 0 
L 0 0 
z
" style="fill: #ffffff"/>
  </g>
  <g id="axes_1">
   <g id="patch_2">
    <path d="M 47.252 298.6 
L 445.032 298.6 
L 445.032 16.74 
L 47.252 16.74 
z
" style="fill: #ffffff"/>
   </g>
   <g id="line2d_1">
    <path d="M 47.252 110.693333 
L 445.032 110.693333 
" clip-path="url(#pd5244184e1)" style="fill: none; stroke-dasharray: 1.75,2.8875; stroke-dashoffset: 0; stroke: #c0c0c0; stroke-width: 1.75"/>
   </g>
   <g id="line2d_2">
    <path d="M 75.568262 -1 
L 76.518096 19.397541 
L 77.845357 44.357968 
L 79.172617 65.909059 
L 80.499878 84.220018 
L 81.827138 100.131993 
L 83.154399 114.112666 
L 84.48166 126.029439 
L 85.80892 135.859686 
L 87.136181 143.793255 
L 88.463441 150.06709 
L 89.790702 154.89189 
L 91.117963 158.43652 
L 92.445223 160.923024 
L 93.772484 162.581048 
L 94.436114 163.127634 
L 95.099744 163.479993 
L 95.763375 163.638065 
L 96.427005 163.61548 
L 97.090635 163.435082 
L 97.754266 163.117522 
L 99.081526 162.107364 
L 100.408787 160.608874 
L 101.736047 158.636833 
L 103.063308 156.237888 
L 105.054199 152.139312 
L 106.381459 149.083741 
L 108.37235 143.694254 
L 111.690502 134.532859 
L 115.008653 125.176746 
L 119.654065 111.68909 
L 122.308587 104.216732 
L 125.626738 94.529522 
L 128.281259 87.386944 
L 129.60852 84.627495 
L 130.27215 83.692888 
L 130.93578 83.077651 
L 131.599411 82.758097 
L 132.263041 82.693089 
L 132.926671 82.824568 
L 134.253932 83.413119 
L 134.917562 83.823514 
L 135.581193 84.394021 
L 136.244823 85.240492 
L 136.908453 86.440142 
L 138.235714 89.736466 
L 140.226605 94.976058 
L 141.553865 97.779706 
L 142.881126 100.090606 
L 144.208386 101.933196 
L 145.535647 103.273539 
L 146.862908 104.09048 
L 148.190168 104.421533 
L 148.853798 104.424456 
L 149.517429 104.285771 
L 150.181059 103.964665 
L 150.844689 103.450453 
L 152.17195 102.004615 
L 155.490101 97.924317 
L 157.480992 95.877779 
L 158.144623 95.028884 
L 159.471883 92.742211 
L 162.126404 87.26653 
L 163.453665 85.245489 
L 168.762707 78.601722 
L 169.426338 78.196247 
L 170.753598 77.773354 
L 171.417229 77.682302 
L 172.080859 77.735469 
L 172.744489 77.997578 
L 174.07175 79.027698 
L 175.39901 80.006838 
L 176.726271 80.75791 
L 177.389901 81.310076 
L 178.717162 82.984428 
L 181.371683 86.811659 
L 182.035313 87.526284 
L 182.698944 88.054838 
L 185.353465 89.639968 
L 186.680725 90.503465 
L 187.344356 90.701817 
L 188.007986 90.68911 
L 190.662507 90.055325 
L 192.653398 90.32511 
L 193.317028 90.232857 
L 195.97155 89.305574 
L 196.63518 89.320032 
L 197.96244 89.666431 
L 199.289701 90.342386 
L 199.953331 90.882058 
L 201.280592 92.368412 
L 203.271483 95.114782 
L 204.598743 97.414123 
L 207.916895 103.617662 
L 210.571416 107.854928 
L 211.235046 108.697267 
L 211.898677 109.355631 
L 212.562307 109.819531 
L 213.889568 110.325826 
L 215.880458 110.729759 
L 217.207719 110.691368 
L 218.53498 110.288213 
L 219.86224 109.615328 
L 221.189501 108.679779 
L 223.180392 106.914684 
L 225.171283 104.978508 
L 226.498543 103.184148 
L 229.816695 97.905549 
L 231.143955 95.696315 
L 235.789367 86.946824 
L 240.434779 79.773972 
L 243.089301 76.745841 
L 245.743822 73.23725 
L 246.407452 72.591362 
L 247.071082 72.192036 
L 247.734713 72.081701 
L 248.398343 72.216467 
L 250.389234 72.932149 
L 251.716494 73.043779 
L 255.034646 73.072458 
L 255.698276 73.213423 
L 256.361907 73.489442 
L 257.689167 74.408839 
L 259.016428 75.420686 
L 260.343688 76.020461 
L 261.670949 76.445765 
L 262.334579 76.865455 
L 263.66184 78.228925 
L 264.9891 79.63742 
L 265.652731 80.125259 
L 266.316361 80.423578 
L 266.979991 80.53865 
L 268.307252 80.382334 
L 268.970882 80.279103 
L 269.634513 80.289213 
L 271.625403 80.687953 
L 272.289034 80.476237 
L 272.952664 79.951758 
L 274.943555 77.720697 
L 275.607185 77.220925 
L 278.261706 75.765163 
L 278.925337 75.037975 
L 280.252597 72.971286 
L 281.579858 70.675387 
L 282.243488 69.777124 
L 282.907118 69.151648 
L 284.898009 67.769028 
L 285.56164 66.843544 
L 286.8889 64.06043 
L 288.216161 61.364202 
L 289.543421 59.566282 
L 291.534312 57.101256 
L 292.861573 55.110746 
L 294.188834 52.954362 
L 294.852464 52.043306 
L 295.516094 51.35017 
L 296.179724 50.891835 
L 296.843355 50.639295 
L 298.170615 50.365057 
L 298.834246 50.036197 
L 299.497876 49.418532 
L 300.825136 47.466113 
L 303.479658 43.209868 
L 304.143288 42.367471 
L 304.806918 41.829957 
L 305.470549 41.703961 
L 306.134179 41.976639 
L 307.461439 42.991624 
L 308.12507 43.271959 
L 308.7887 43.261324 
L 310.115961 42.873678 
L 312.106852 42.660728 
L 312.770482 42.286266 
L 314.761373 40.481154 
L 315.425003 40.26361 
L 316.088633 40.366268 
L 316.752264 40.707428 
L 318.743154 42.171782 
L 319.406785 42.450698 
L 320.070415 42.43604 
L 320.734045 42.115076 
L 322.061306 40.961432 
L 324.715827 38.327997 
L 325.379457 38.004993 
L 326.043088 38.007619 
L 327.370348 38.281382 
L 328.033979 38.0744 
L 328.697609 37.504172 
L 331.35213 34.265246 
L 333.343021 32.86327 
L 334.006651 32.047384 
L 336.661173 27.817833 
L 337.988433 26.603027 
L 339.315694 25.326272 
L 339.979324 24.465441 
L 340.642954 23.403636 
L 341.306585 22.092289 
L 342.633845 18.753504 
L 343.961106 15.336853 
L 347.942888 6.422892 
L 348.606518 5.413671 
L 349.933778 4.133226 
L 350.597409 3.234648 
L 351.261039 1.864246 
L 352.363079 -1 
L 352.363079 -1 
" clip-path="url(#pd5244184e1)" style="fill: none; stroke: #1e2e79; stroke-width: 2.5; stroke-linecap: square"/>
   </g>
   <g id="line2d_3">
    <path d="M 72.167059 -1 
L 73.199945 25.1866 
L 75.190836 69.392539 
L 77.181726 109.384065 
L 79.172617 144.436075 
L 80.499878 164.920776 
L 81.827138 182.688412 
L 83.154399 197.676011 
L 84.48166 210.2382 
L 85.80892 220.686012 
L 87.136181 229.190857 
L 88.463441 236.059154 
L 89.790702 241.663834 
L 91.117963 246.121643 
L 92.445223 249.353847 
L 93.108854 250.520382 
L 93.772484 251.429112 
L 94.436114 252.127298 
L 95.763375 253.055391 
L 96.427005 253.317863 
L 97.090635 253.430178 
L 97.754266 253.367641 
L 98.417896 253.115208 
L 99.081526 252.679091 
L 100.408787 251.372799 
L 101.736047 249.672362 
L 103.063308 247.581342 
L 104.390569 245.031773 
L 106.381459 240.627995 
L 109.035981 234.229308 
L 111.690502 227.360283 
L 116.999544 212.272769 
L 119.654065 204.930651 
L 122.972217 196.136148 
L 124.963108 190.26506 
L 126.953999 184.361566 
L 129.60852 177.640999 
L 132.926671 168.71798 
L 134.917562 163.777696 
L 137.572083 157.890724 
L 138.899344 155.34765 
L 142.217495 149.491225 
L 143.544756 146.242823 
L 147.526538 135.536862 
L 148.190168 134.126359 
L 148.853798 133.017018 
L 149.517429 132.248749 
L 150.181059 131.787051 
L 151.50832 131.233586 
L 152.17195 130.718081 
L 152.83558 129.783929 
L 154.162841 126.786378 
L 154.826471 125.34172 
L 155.490101 124.482743 
L 156.153732 124.360558 
L 156.817362 124.78422 
L 158.144623 125.928464 
L 158.808253 126.243733 
L 159.471883 126.350125 
L 160.135514 126.297058 
L 160.799144 126.119932 
L 161.462774 125.816001 
L 162.126404 125.353784 
L 162.790035 124.702534 
L 164.117295 122.851489 
L 167.435447 117.355515 
L 168.099077 117.122511 
L 168.762707 117.565351 
L 169.426338 118.61003 
L 170.753598 121.643507 
L 172.080859 124.759692 
L 172.744489 126.075039 
L 173.408119 127.074893 
L 174.07175 127.66144 
L 174.73538 127.838673 
L 176.062641 127.72008 
L 176.726271 127.977081 
L 177.389901 128.645365 
L 180.044422 132.458993 
L 184.689835 137.270084 
L 185.353465 137.694293 
L 186.017095 137.933451 
L 186.680725 137.952531 
L 187.344356 137.76175 
L 190.662507 135.969489 
L 193.317028 134.389937 
L 194.644289 133.304155 
L 195.307919 132.515156 
L 196.63518 130.37569 
L 198.626071 126.762376 
L 199.289701 125.939611 
L 199.953331 125.452842 
L 200.616962 125.264608 
L 201.944222 125.223423 
L 202.607853 124.99971 
L 203.271483 124.44125 
L 203.935113 123.515543 
L 206.589634 118.781129 
L 207.916895 117.254855 
L 211.235046 113.818036 
L 213.225937 112.713279 
L 215.216828 110.894311 
L 215.880458 110.5832 
L 216.544089 110.53558 
L 217.207719 110.708516 
L 218.53498 111.434767 
L 219.19861 111.812533 
L 219.86224 112.048984 
L 220.525871 112.045274 
L 221.189501 111.773097 
L 222.516761 110.707932 
L 224.507652 108.739599 
L 226.498543 106.111637 
L 227.162174 105.525748 
L 227.825804 105.260476 
L 229.816695 105.074153 
L 230.480325 104.685142 
L 231.143955 104.059074 
L 233.134846 101.515235 
L 235.125737 99.058785 
L 235.789367 98.378591 
L 236.452998 97.866519 
L 237.116628 97.632596 
L 237.780258 97.771821 
L 238.443889 98.270538 
L 239.107519 98.934457 
L 239.771149 99.425951 
L 240.434779 99.409111 
L 241.09841 98.711016 
L 243.089301 94.614995 
L 243.752931 94.075277 
L 244.416561 94.481899 
L 245.080192 95.721556 
L 246.407452 99.148249 
L 247.071082 100.498548 
L 247.734713 101.293673 
L 248.398343 101.59423 
L 249.725604 101.786547 
L 251.716494 102.87213 
L 252.380125 102.922179 
L 254.371016 102.426672 
L 255.034646 102.783243 
L 255.698276 103.603107 
L 257.025537 106.223252 
L 258.352797 109.010615 
L 259.016428 110.122217 
L 259.680058 110.954134 
L 260.343688 111.484393 
L 261.007319 111.721305 
L 261.670949 111.718352 
L 262.99821 111.538043 
L 263.66184 111.724379 
L 264.32547 112.236886 
L 266.316361 114.535948 
L 266.979991 115.031704 
L 267.643622 115.333316 
L 268.970882 115.619867 
L 270.298143 115.631452 
L 271.625403 115.558483 
L 272.289034 115.699122 
L 274.279925 116.540901 
L 276.270815 116.775099 
L 276.934446 117.11471 
L 278.925337 118.910382 
L 279.588967 119.144988 
L 280.252597 118.951286 
L 280.916228 118.370733 
L 282.243488 116.830111 
L 282.907118 116.256291 
L 284.898009 114.959229 
L 287.552531 112.322473 
L 288.216161 112.030644 
L 291.534312 111.240948 
L 292.197943 111.365822 
L 293.525203 112.206396 
L 294.188834 112.586778 
L 294.852464 112.668324 
L 295.516094 112.322116 
L 296.179724 111.525652 
L 298.170615 108.038616 
L 298.834246 107.36647 
L 299.497876 107.11975 
L 300.825136 106.963333 
L 301.488767 106.531789 
L 302.152397 105.761437 
L 303.479658 103.952112 
L 304.143288 103.38162 
L 306.134179 102.657704 
L 306.797809 101.988296 
L 307.461439 100.928398 
L 308.7887 98.358562 
L 309.45233 97.34203 
L 310.115961 96.685064 
L 310.779591 96.370958 
L 311.443221 96.362708 
L 312.106852 96.666826 
L 312.770482 97.281484 
L 314.097742 98.813612 
L 314.761373 99.145425 
L 315.425003 98.879226 
L 316.088633 98.035062 
L 317.415894 95.687907 
L 318.079524 94.754261 
L 319.406785 93.254227 
L 320.070415 92.21638 
L 321.397676 89.294862 
L 322.724936 86.38841 
L 324.715827 82.438734 
L 325.379457 80.643363 
L 326.706718 75.997339 
L 327.370348 73.616785 
L 328.033979 71.797831 
L 328.697609 70.940864 
L 329.361239 71.155983 
L 330.02487 72.273026 
L 331.35213 76.013254 
L 332.679391 79.644291 
L 333.343021 80.780075 
L 334.006651 81.393831 
L 334.670282 81.641695 
L 335.997542 81.732807 
L 336.661173 81.539452 
L 337.324803 80.897174 
L 337.988433 79.609301 
L 339.315694 75.450108 
L 339.979324 73.391483 
L 340.642954 72.027098 
L 341.306585 71.593184 
L 341.970215 71.940694 
L 343.297475 73.251882 
L 343.961106 73.353264 
L 344.624736 72.779659 
L 346.615627 69.233034 
L 347.279257 68.841995 
L 348.606518 69.28697 
L 349.270148 69.118432 
L 349.933778 68.213366 
L 350.597409 66.632444 
L 351.924669 63.069277 
L 352.5883 61.979466 
L 353.25193 61.591118 
L 353.91556 61.798358 
L 354.579191 62.451549 
L 355.242821 63.443452 
L 356.570081 65.82799 
L 357.233712 66.659648 
L 357.897342 66.87099 
L 358.560972 66.398083 
L 359.888233 64.525053 
L 360.551863 64.084348 
L 361.215493 64.372989 
L 362.542754 65.987424 
L 363.206384 66.277723 
L 363.870015 65.76721 
L 364.533645 64.465527 
L 366.524536 58.934771 
L 367.188166 57.909437 
L 367.851796 57.792054 
L 368.515427 58.511524 
L 369.179057 59.622405 
L 369.842687 60.435978 
L 370.506318 60.272509 
L 371.169948 58.659333 
L 371.833578 55.419831 
L 372.497209 50.699376 
L 374.488099 33.49691 
L 375.15173 29.301336 
L 375.81536 26.570844 
L 377.806251 21.574452 
L 378.469881 18.467628 
L 379.133512 14.045433 
L 380.460772 2.497042 
L 380.828878 -1 
L 380.828878 -1 
" clip-path="url(#pd5244184e1)" style="fill: none; stroke: #ec4067; stroke-width: 2.5; stroke-linecap: square"/>
   </g>
   <g id="matplotlib.axis_1">
    <g id="xtick_1">
     <g id="line2d_4">
      <defs>
       <path id="mdddf5f612c" d="M 0 0 
L 0 3.5 
" style="stroke: #c2c1c1; stroke-width: 0.8"/>
      </defs>
      <g>
       <use xlink:href="#mdddf5f612c" x="47.252" y="298.6" style="fill: #c2c1c1; stroke: #c2c1c1; stroke-width: 0.8"/>
      </g>
     </g>
     <g id="text_1">
      <!-- 1 -->
      <g style="fill: #191919" transform="translate(44.441844 313.1) scale(0.1 -0.1)">
       <defs>
        <path id="Roboto-Regular-31" d="M 2278 4575 
L 2278 0 
L 1700 0 
L 1700 3853 
L 534 3428 
L 534 3950 
L 2188 4575 
L 2278 4575 
z
" transform="scale(0.015625)"/>
       </defs>
       <use xlink:href="#Roboto-Regular-31"/>
      </g>
     </g>
    </g>
    <g id="xtick_2">
     <g id="line2d_5">
      <g>
       <use xlink:href="#mdddf5f612c" x="113.548667" y="298.6" style="fill: #c2c1c1; stroke: #c2c1c1; stroke-width: 0.8"/>
      </g>
     </g>
     <g id="text_2">
      <!-- 2 -->
      <g style="fill: #191919" transform="translate(110.73851 313.1) scale(0.1 -0.1)">
       <defs>
        <path id="Roboto-Regular-32" d="M 3359 475 
L 3359 0 
L 381 0 
L 381 416 
L 1925 2134 
Q 2306 2566 2439 2819 
Q 2572 3072 2572 3328 
Q 2572 3663 2364 3900 
Q 2156 4138 1778 4138 
Q 1322 4138 1097 3878 
Q 872 3619 872 3213 
L 294 3213 
Q 294 3788 672 4200 
Q 1050 4613 1778 4613 
Q 2422 4613 2786 4278 
Q 3150 3944 3150 3397 
Q 3150 2997 2903 2592 
Q 2656 2188 2297 1797 
L 1078 475 
L 3359 475 
z
" transform="scale(0.015625)"/>
       </defs>
       <use xlink:href="#Roboto-Regular-32"/>
      </g>
     </g>
    </g>
    <g id="xtick_3">
     <g id="line2d_6">
      <g>
       <use xlink:href="#mdddf5f612c" x="179.845333" y="298.6" style="fill: #c2c1c1; stroke: #c2c1c1; stroke-width: 0.8"/>
      </g>
     </g>
     <g id="text_3">
      <!-- 3 -->
      <g style="fill: #191919" transform="translate(177.035177 313.1) scale(0.1 -0.1)">
       <defs>
        <path id="Roboto-Regular-33" d="M 1222 2084 
L 1222 2559 
L 1647 2559 
Q 2094 2563 2312 2784 
Q 2531 3006 2531 3338 
Q 2531 4138 1738 4138 
Q 1369 4138 1141 3927 
Q 913 3716 913 3359 
L 334 3359 
Q 334 3881 720 4247 
Q 1106 4613 1738 4613 
Q 2353 4613 2733 4286 
Q 3113 3959 3113 3325 
Q 3113 3072 2942 2784 
Q 2772 2497 2397 2338 
Q 2850 2191 3015 1884 
Q 3181 1578 3181 1269 
Q 3181 631 2768 284 
Q 2356 -63 1741 -63 
Q 1147 -63 722 267 
Q 297 597 297 1203 
L 875 1203 
Q 875 844 1108 628 
Q 1341 413 1741 413 
Q 2138 413 2369 622 
Q 2600 831 2600 1256 
Q 2600 1681 2337 1882 
Q 2075 2084 1634 2084 
L 1222 2084 
z
" transform="scale(0.015625)"/>
       </defs>
       <use xlink:href="#Roboto-Regular-33"/>
      </g>
     </g>
    </g>
    <g id="xtick_4">
     <g id="line2d_7">
      <g>
       <use xlink:href="#mdddf5f612c" x="246.142" y="298.6" style="fill: #c2c1c1; stroke: #c2c1c1; stroke-width: 0.8"/>
      </g>
     </g>
     <g id="text_4">
      <!-- 4 -->
      <g style="fill: #191919" transform="translate(243.331844 313.1) scale(0.1 -0.1)">
       <defs>
        <path id="Roboto-Regular-34" d="M 166 1397 
L 2203 4550 
L 2819 4550 
L 2819 1531 
L 3453 1531 
L 3453 1056 
L 2819 1056 
L 2819 0 
L 2241 0 
L 2241 1056 
L 166 1056 
L 166 1397 
z
M 822 1531 
L 2241 1531 
L 2241 3766 
L 2169 3638 
L 822 1531 
z
" transform="scale(0.015625)"/>
       </defs>
       <use xlink:href="#Roboto-Regular-34"/>
      </g>
     </g>
    </g>
    <g id="xtick_5">
     <g id="line2d_8">
      <g>
       <use xlink:href="#mdddf5f612c" x="312.438667" y="298.6" style="fill: #c2c1c1; stroke: #c2c1c1; stroke-width: 0.8"/>
      </g>
     </g>
     <g id="text_5">
      <!-- 5 -->
      <g style="fill: #191919" transform="translate(309.62851 313.1) scale(0.1 -0.1)">
       <defs>
        <path id="Roboto-Regular-35" d="M 1109 2166 
L 647 2284 
L 875 4550 
L 3209 4550 
L 3209 4016 
L 1366 4016 
L 1228 2778 
Q 1572 2975 1988 2975 
Q 2616 2975 2980 2561 
Q 3344 2147 3344 1450 
Q 3344 797 2987 367 
Q 2631 -63 1903 -63 
Q 1350 -63 947 248 
Q 544 559 481 1197 
L 1031 1197 
Q 1141 413 1903 413 
Q 2313 413 2538 691 
Q 2763 969 2763 1444 
Q 2763 1872 2527 2164 
Q 2291 2456 1853 2456 
Q 1563 2456 1413 2378 
Q 1263 2300 1109 2166 
z
" transform="scale(0.015625)"/>
       </defs>
       <use xlink:href="#Roboto-Regular-35"/>
      </g>
     </g>
    </g>
    <g id="xtick_6">
     <g id="line2d_9">
      <g>
       <use xlink:href="#mdddf5f612c" x="378.735333" y="298.6" style="fill: #c2c1c1; stroke: #c2c1c1; stroke-width: 0.8"/>
      </g>
     </g>
     <g id="text_6">
      <!-- 6 -->
      <g style="fill: #191919" transform="translate(375.925177 313.1) scale(0.1 -0.1)">
       <defs>
        <path id="Roboto-Regular-36" d="M 3291 1484 
Q 3291 838 2930 387 
Q 2569 -63 1878 -63 
Q 1388 -63 1063 198 
Q 738 459 577 861 
Q 416 1263 416 1684 
L 416 1956 
Q 416 2597 595 3194 
Q 775 3791 1247 4173 
Q 1719 4556 2597 4556 
L 2647 4556 
L 2647 4066 
Q 2041 4066 1705 3853 
Q 1369 3641 1205 3302 
Q 1041 2963 1006 2575 
Q 1369 2984 1984 2984 
Q 2438 2984 2727 2765 
Q 3016 2547 3153 2201 
Q 3291 1856 3291 1484 
z
M 997 1666 
Q 997 1059 1267 737 
Q 1538 416 1878 416 
Q 2278 416 2498 708 
Q 2719 1000 2719 1456 
Q 2719 1863 2516 2184 
Q 2313 2506 1891 2506 
Q 1588 2506 1341 2325 
Q 1094 2144 997 1884 
L 997 1666 
z
" transform="scale(0.015625)"/>
       </defs>
       <use xlink:href="#Roboto-Regular-36"/>
      </g>
     </g>
    </g>
    <g id="xtick_7">
     <g id="line2d_10">
      <g>
       <use xlink:href="#mdddf5f612c" x="445.032" y="298.6" style="fill: #c2c1c1; stroke: #c2c1c1; stroke-width: 0.8"/>
      </g>
     </g>
     <g id="text_7">
      <!-- 7 -->
      <g style="fill: #191919" transform="translate(442.221844 313.1) scale(0.1 -0.1)">
       <defs>
        <path id="Roboto-Regular-37" d="M 3319 4550 
L 3319 4225 
L 1434 0 
L 825 0 
L 2706 4075 
L 244 4075 
L 244 4550 
L 3319 4550 
z
" transform="scale(0.015625)"/>
       </defs>
       <use xlink:href="#Roboto-Regular-37"/>
      </g>
     </g>
    </g>
    <g id="text_8">
     <!-- CRO66 OH - H2O H Distance [Å] -->
     <g style="fill: #191919" transform="translate(160.666375 330.049375) scale(0.12 -0.12)">
      <defs>
       <path id="Roboto-Bold-43" d="M 3044 1516 
L 3981 1516 
Q 3934 822 3461 379 
Q 2988 -63 2150 -63 
Q 1275 -63 772 526 
Q 269 1116 269 2125 
L 269 2422 
Q 269 3431 784 4023 
Q 1300 4616 2159 4616 
Q 3013 4616 3466 4161 
Q 3919 3706 3984 3006 
L 3047 3006 
Q 3016 3413 2820 3630 
Q 2625 3847 2159 3847 
Q 1247 3847 1222 2500 
L 1222 2125 
Q 1222 1419 1436 1062 
Q 1650 706 2150 706 
Q 2594 706 2801 907 
Q 3009 1109 3044 1516 
z
" transform="scale(0.015625)"/>
       <path id="Roboto-Bold-52" d="M 2944 0 
L 2094 1669 
L 1347 1669 
L 1347 0 
L 406 0 
L 406 4550 
L 2100 4550 
Q 2884 4550 3332 4198 
Q 3781 3847 3781 3175 
Q 3781 2681 3562 2378 
Q 3344 2075 2969 1906 
L 3953 44 
L 3953 0 
L 2944 0 
z
M 1347 3791 
L 1347 2425 
L 2100 2425 
Q 2469 2425 2655 2611 
Q 2841 2797 2841 3103 
Q 2841 3419 2659 3605 
Q 2478 3791 2100 3791 
L 1347 3791 
z
" transform="scale(0.015625)"/>
       <path id="Roboto-Bold-4f" d="M 4147 2172 
Q 4147 1131 3608 534 
Q 3069 -63 2212 -63 
Q 1356 -63 812 534 
Q 269 1131 269 2172 
L 269 2375 
Q 269 3416 809 4014 
Q 1350 4613 2206 4613 
Q 3063 4613 3605 4014 
Q 4147 3416 4147 2375 
L 4147 2172 
z
M 3197 2381 
Q 3197 3094 2937 3466 
Q 2678 3838 2206 3838 
Q 1734 3838 1478 3470 
Q 1222 3103 1219 2397 
L 1219 2172 
Q 1219 1463 1478 1086 
Q 1738 709 2213 709 
Q 2684 709 2939 1081 
Q 3194 1453 3197 2156 
L 3197 2381 
z
" transform="scale(0.015625)"/>
       <path id="Roboto-Bold-36" d="M 3450 1500 
Q 3450 838 3033 387 
Q 2616 -63 1916 -63 
Q 1188 -63 752 443 
Q 316 950 316 1750 
L 316 2097 
Q 316 3200 925 3898 
Q 1534 4597 2634 4597 
L 2763 4597 
L 2763 3853 
L 2672 3853 
Q 2050 3844 1688 3538 
Q 1313 3219 1238 2675 
Q 1603 3047 2156 3047 
Q 2800 3047 3125 2589 
Q 3450 2131 3450 1500 
z
M 1219 1631 
Q 1219 1150 1408 909 
Q 1597 669 1900 669 
Q 2194 669 2370 901 
Q 2547 1134 2547 1491 
Q 2547 1853 2370 2087 
Q 2194 2322 1881 2322 
Q 1641 2322 1469 2198 
Q 1297 2075 1219 1903 
L 1219 1631 
z
" transform="scale(0.015625)"/>
       <path id="Roboto-Bold-20" transform="scale(0.015625)"/>
       <path id="Roboto-Bold-48" d="M 3175 0 
L 3175 1950 
L 1347 1950 
L 1347 0 
L 406 0 
L 406 4550 
L 1347 4550 
L 1347 2706 
L 3175 2706 
L 3175 4550 
L 4113 4550 
L 4113 0 
L 3175 0 
z
" transform="scale(0.015625)"/>
       <path id="Roboto-Bold-2d" d="M 2103 2316 
L 2103 1584 
L 347 1584 
L 347 2316 
L 2103 2316 
z
" transform="scale(0.015625)"/>
       <path id="Roboto-Bold-32" d="M 3428 728 
L 3428 0 
L 313 0 
L 313 619 
L 1784 2188 
Q 2116 2553 2245 2792 
Q 2375 3031 2375 3234 
Q 2375 3538 2223 3713 
Q 2072 3888 1788 3888 
Q 1466 3888 1295 3669 
Q 1125 3450 1125 3119 
L 222 3119 
Q 222 3734 645 4175 
Q 1069 4616 1803 4616 
Q 2519 4616 2900 4270 
Q 3281 3925 3281 3325 
Q 3281 2875 3014 2470 
Q 2747 2066 2284 1581 
L 1472 728 
L 3428 728 
z
" transform="scale(0.015625)"/>
       <path id="Roboto-Bold-44" d="M 406 0 
L 406 4550 
L 1809 4550 
Q 2728 4550 3308 3950 
Q 3888 3350 3888 2375 
L 3888 2172 
Q 3888 1197 3308 598 
Q 2728 0 1797 0 
L 406 0 
z
M 1347 3791 
L 1347 756 
L 1797 756 
Q 2350 756 2639 1115 
Q 2928 1475 2934 2144 
L 2934 2381 
Q 2934 3075 2661 3428 
Q 2388 3781 1838 3791 
L 1347 3791 
z
" transform="scale(0.015625)"/>
       <path id="Roboto-Bold-69" d="M 341 4256 
Q 341 4459 478 4592 
Q 616 4725 847 4725 
Q 1078 4725 1215 4592 
Q 1353 4459 1353 4256 
Q 1353 4056 1215 3923 
Q 1078 3791 847 3791 
Q 616 3791 478 3923 
Q 341 4056 341 4256 
z
M 1303 3381 
L 1303 0 
L 397 0 
L 397 3381 
L 1303 3381 
z
" transform="scale(0.015625)"/>
       <path id="Roboto-Bold-73" d="M 2178 938 
Q 2178 1081 2045 1179 
Q 1913 1278 1475 1372 
Q 953 1484 618 1721 
Q 284 1959 284 2394 
Q 284 2816 642 3130 
Q 1000 3444 1631 3444 
Q 2291 3444 2669 3134 
Q 3047 2825 3047 2353 
L 2144 2353 
Q 2144 2547 2019 2675 
Q 1894 2803 1628 2803 
Q 1403 2803 1276 2698 
Q 1150 2594 1150 2438 
Q 1150 2294 1284 2200 
Q 1419 2106 1781 2034 
Q 2331 1925 2693 1700 
Q 3056 1475 3056 972 
Q 3056 525 2672 231 
Q 2288 -63 1634 -63 
Q 925 -63 550 301 
Q 175 666 175 1078 
L 1034 1078 
Q 1047 813 1230 697 
Q 1413 581 1653 581 
Q 2178 581 2178 938 
z
" transform="scale(0.015625)"/>
       <path id="Roboto-Bold-74" d="M 2041 22 
Q 1788 -63 1497 -63 
Q 1053 -63 790 168 
Q 528 400 528 938 
L 528 2722 
L 31 2722 
L 31 3381 
L 528 3381 
L 528 4216 
L 1431 4216 
L 1431 3381 
L 2006 3381 
L 2006 2722 
L 1431 2722 
L 1431 1031 
Q 1431 819 1518 750 
Q 1606 681 1778 681 
Q 1916 681 2041 706 
L 2041 22 
z
" transform="scale(0.015625)"/>
       <path id="Roboto-Bold-61" d="M 2306 0 
Q 2250 119 2216 303 
Q 1888 -63 1363 -63 
Q 878 -63 547 223 
Q 216 509 216 950 
Q 216 1481 609 1773 
Q 1003 2066 1775 2066 
L 2178 2066 
L 2178 2263 
Q 2178 2497 2058 2636 
Q 1938 2775 1678 2775 
Q 1194 2775 1194 2369 
L 291 2369 
Q 291 2809 681 3126 
Q 1072 3444 1728 3444 
Q 2313 3444 2698 3147 
Q 3084 2850 3084 2256 
L 3084 750 
Q 3091 300 3219 53 
L 3219 0 
L 2306 0 
z
M 1559 628 
Q 1788 628 1948 729 
Q 2109 831 2178 953 
L 2178 1541 
L 1809 1541 
Q 1450 1541 1284 1389 
Q 1119 1238 1119 1016 
Q 1119 847 1236 737 
Q 1353 628 1559 628 
z
" transform="scale(0.015625)"/>
       <path id="Roboto-Bold-6e" d="M 1806 2713 
Q 1422 2713 1234 2388 
L 1234 0 
L 331 0 
L 331 3381 
L 1178 3381 
L 1209 2994 
Q 1572 3444 2181 3444 
Q 2659 3444 2953 3159 
Q 3247 2875 3250 2169 
L 3250 0 
L 2344 0 
L 2344 2156 
Q 2344 2481 2205 2597 
Q 2066 2713 1806 2713 
z
" transform="scale(0.015625)"/>
       <path id="Roboto-Bold-63" d="M 1753 666 
Q 2000 666 2159 802 
Q 2319 938 2322 1169 
L 3172 1169 
Q 3166 631 2761 284 
Q 2356 -63 1769 -63 
Q 984 -63 595 432 
Q 206 928 206 1647 
L 206 1734 
Q 206 2450 593 2947 
Q 981 3444 1766 3444 
Q 2388 3444 2777 3087 
Q 3166 2731 3172 2122 
L 2322 2122 
Q 2319 2369 2172 2542 
Q 2025 2716 1750 2716 
Q 1356 2716 1234 2420 
Q 1113 2125 1113 1647 
Q 1113 1256 1233 961 
Q 1353 666 1753 666 
z
" transform="scale(0.015625)"/>
       <path id="Roboto-Bold-65" d="M 3225 550 
Q 3063 319 2731 128 
Q 2400 -63 1906 -63 
Q 1119 -63 675 414 
Q 231 891 228 1566 
L 228 1697 
Q 228 2463 654 2953 
Q 1081 3444 1806 3444 
Q 2534 3444 2915 2987 
Q 3297 2531 3297 1781 
L 3297 1397 
L 1144 1397 
Q 1191 1069 1403 867 
Q 1616 666 1963 666 
Q 2478 666 2778 1044 
L 3225 550 
z
M 1800 2716 
Q 1513 2716 1356 2522 
Q 1200 2328 1153 2016 
L 2409 2016 
L 2409 2084 
Q 2403 2356 2258 2536 
Q 2113 2716 1800 2716 
z
" transform="scale(0.015625)"/>
       <path id="Roboto-Bold-5b" d="M 1728 5297 
L 1728 4600 
L 1281 4600 
L 1281 -366 
L 1728 -366 
L 1728 -1059 
L 375 -1059 
L 375 5297 
L 1728 5297 
z
" transform="scale(0.015625)"/>
       <path id="Roboto-Bold-c5" d="M 25 0 
L 1719 4550 
L 2588 4550 
L 4291 0 
L 3291 0 
L 2978 938 
L 1331 938 
L 1019 0 
L 25 0 
z
M 1584 1697 
L 2725 1697 
L 2156 3406 
L 1584 1697 
z
M 1471 5424 
Q 1471 5683 1668 5873 
Q 1865 6064 2168 6064 
Q 2468 6064 2666 5873 
Q 2865 5683 2865 5424 
Q 2865 5158 2666 4975 
Q 2468 4793 2168 4793 
Q 1865 4793 1668 4975 
Q 1471 5158 1471 5424 
z
M 1830 5423 
Q 1830 5286 1922 5187 
Q 2015 5089 2168 5089 
Q 2321 5089 2413 5187 
Q 2505 5286 2505 5423 
Q 2505 5561 2413 5662 
Q 2321 5764 2168 5764 
Q 2015 5764 1922 5662 
Q 1830 5561 1830 5423 
z
" transform="scale(0.015625)"/>
       <path id="Roboto-Bold-5d" d="M 41 4600 
L 41 5297 
L 1394 5297 
L 1394 -1059 
L 41 -1059 
L 41 -366 
L 491 -366 
L 491 4600 
L 41 4600 
z
" transform="scale(0.015625)"/>
      </defs>
      <use xlink:href="#Roboto-Bold-43"/>
      <use xlink:href="#Roboto-Bold-52" x="65.478516"/>
      <use xlink:href="#Roboto-Bold-4f" x="129.296875"/>
      <use xlink:href="#Roboto-Bold-36" x="198.339844"/>
      <use xlink:href="#Roboto-Bold-36" x="255.712891"/>
      <use xlink:href="#Roboto-Bold-20" x="313.085938"/>
      <use xlink:href="#Roboto-Bold-4f" x="337.988281"/>
      <use xlink:href="#Roboto-Bold-48" x="407.03125"/>
      <use xlink:href="#Roboto-Bold-20" x="477.734375"/>
      <use xlink:href="#Roboto-Bold-2d" x="502.636719"/>
      <use xlink:href="#Roboto-Bold-20" x="541.455078"/>
      <use xlink:href="#Roboto-Bold-48" x="566.357422"/>
      <use xlink:href="#Roboto-Bold-32" x="637.060547"/>
      <use xlink:href="#Roboto-Bold-4f" x="694.433594"/>
      <use xlink:href="#Roboto-Bold-20" x="763.476562"/>
      <use xlink:href="#Roboto-Bold-48" x="788.378906"/>
      <use xlink:href="#Roboto-Bold-20" x="859.082031"/>
      <use xlink:href="#Roboto-Bold-44" x="883.984375"/>
      <use xlink:href="#Roboto-Bold-69" x="949.023438"/>
      <use xlink:href="#Roboto-Bold-73" x="975.537109"/>
      <use xlink:href="#Roboto-Bold-74" x="1027.001953"/>
      <use xlink:href="#Roboto-Bold-61" x="1060.791016"/>
      <use xlink:href="#Roboto-Bold-6e" x="1114.404297"/>
      <use xlink:href="#Roboto-Bold-63" x="1170.410156"/>
      <use xlink:href="#Roboto-Bold-65" x="1222.607422"/>
      <use xlink:href="#Roboto-Bold-20" x="1276.660156"/>
      <use xlink:href="#Roboto-Bold-5b" x="1301.5625"/>
      <use xlink:href="#Roboto-Bold-c5" x="1329.394531"/>
      <use xlink:href="#Roboto-Bold-5d" x="1396.728516"/>
     </g>
    </g>
   </g>
   <g id="matplotlib.axis_2">
    <g id="ytick_1">
     <g id="line2d_11">
      <defs>
       <path id="m8a5c4bc2c4" d="M 0 0 
L -3.5 0 
" style="stroke: #c2c1c1; stroke-width: 0.8"/>
      </defs>
      <g>
       <use xlink:href="#m8a5c4bc2c4" x="47.252" y="298.6" style="fill: #c2c1c1; stroke: #c2c1c1; stroke-width: 0.8"/>
      </g>
     </g>
     <g id="text_9">
      <!-- −4 -->
      <g style="fill: #191919" transform="translate(28.9145 302.35) scale(0.1 -0.1)">
       <defs>
        <path id="Roboto-Regular-2212" d="M 3134 2509 
L 3134 2034 
L 525 2034 
L 525 2509 
L 3134 2509 
z
" transform="scale(0.015625)"/>
       </defs>
       <use xlink:href="#Roboto-Regular-2212"/>
       <use xlink:href="#Roboto-Regular-34" x="57.177734"/>
      </g>
     </g>
    </g>
    <g id="ytick_2">
     <g id="line2d_12">
      <g>
       <use xlink:href="#m8a5c4bc2c4" x="47.252" y="251.623333" style="fill: #c2c1c1; stroke: #c2c1c1; stroke-width: 0.8"/>
      </g>
     </g>
     <g id="text_10">
      <!-- −3 -->
      <g style="fill: #191919" transform="translate(28.9145 255.373333) scale(0.1 -0.1)">
       <use xlink:href="#Roboto-Regular-2212"/>
       <use xlink:href="#Roboto-Regular-33" x="57.177734"/>
      </g>
     </g>
    </g>
    <g id="ytick_3">
     <g id="line2d_13">
      <g>
       <use xlink:href="#m8a5c4bc2c4" x="47.252" y="204.646667" style="fill: #c2c1c1; stroke: #c2c1c1; stroke-width: 0.8"/>
      </g>
     </g>
     <g id="text_11">
      <!-- −2 -->
      <g style="fill: #191919" transform="translate(28.9145 208.396667) scale(0.1 -0.1)">
       <use xlink:href="#Roboto-Regular-2212"/>
       <use xlink:href="#Roboto-Regular-32" x="57.177734"/>
      </g>
     </g>
    </g>
    <g id="ytick_4">
     <g id="line2d_14">
      <g>
       <use xlink:href="#m8a5c4bc2c4" x="47.252" y="157.67" style="fill: #c2c1c1; stroke: #c2c1c1; stroke-width: 0.8"/>
      </g>
     </g>
     <g id="text_12">
      <!-- −1 -->
      <g style="fill: #191919" transform="translate(28.9145 161.42) scale(0.1 -0.1)">
       <use xlink:href="#Roboto-Regular-2212"/>
       <use xlink:href="#Roboto-Regular-31" x="57.177734"/>
      </g>
     </g>
    </g>
    <g id="ytick_5">
     <g id="line2d_15">
      <g>
       <use xlink:href="#m8a5c4bc2c4" x="47.252" y="110.693333" style="fill: #c2c1c1; stroke: #c2c1c1; stroke-width: 0.8"/>
      </g>
     </g>
     <g id="text_13">
      <!-- 0 -->
      <g style="fill: #191919" transform="translate(34.631687 114.443333) scale(0.1 -0.1)">
       <defs>
        <path id="Roboto-Regular-30" d="M 3234 1944 
Q 3234 825 2848 381 
Q 2463 -63 1800 -63 
Q 1156 -63 764 368 
Q 372 800 359 1872 
L 359 2638 
Q 359 3753 750 4183 
Q 1141 4613 1794 4613 
Q 2447 4613 2834 4195 
Q 3222 3778 3234 2709 
L 3234 1944 
z
M 2653 2734 
Q 2653 3503 2434 3822 
Q 2216 4141 1794 4141 
Q 1388 4141 1167 3831 
Q 947 3522 941 2778 
L 941 1850 
Q 941 1088 1164 750 
Q 1388 413 1800 413 
Q 2222 413 2436 745 
Q 2650 1078 2653 1825 
L 2653 2734 
z
" transform="scale(0.015625)"/>
       </defs>
       <use xlink:href="#Roboto-Regular-30"/>
      </g>
     </g>
    </g>
    <g id="ytick_6">
     <g id="line2d_16">
      <g>
       <use xlink:href="#m8a5c4bc2c4" x="47.252" y="63.716667" style="fill: #c2c1c1; stroke: #c2c1c1; stroke-width: 0.8"/>
      </g>
     </g>
     <g id="text_14">
      <!-- 1 -->
      <g style="fill: #191919" transform="translate(34.631687 67.466667) scale(0.1 -0.1)">
       <use xlink:href="#Roboto-Regular-31"/>
      </g>
     </g>
    </g>
    <g id="ytick_7">
     <g id="line2d_17">
      <g>
       <use xlink:href="#m8a5c4bc2c4" x="47.252" y="16.74" style="fill: #c2c1c1; stroke: #c2c1c1; stroke-width: 0.8"/>
      </g>
     </g>
     <g id="text_15">
      <!-- 2 -->
      <g style="fill: #191919" transform="translate(34.631687 20.49) scale(0.1 -0.1)">
       <use xlink:href="#Roboto-Regular-32"/>
      </g>
     </g>
    </g>
    <g id="text_16">
     <!-- PMF [kcal/mol] -->
     <g style="fill: #191919" transform="translate(22.477 198.489688) rotate(-90) scale(0.12 -0.12)">
      <defs>
       <path id="Roboto-Bold-50" d="M 1347 1606 
L 1347 0 
L 406 0 
L 406 4550 
L 2184 4550 
Q 2991 4550 3442 4125 
Q 3894 3700 3894 3047 
Q 3894 2388 3442 1997 
Q 2991 1606 2184 1606 
L 1347 1606 
z
M 1347 3791 
L 1347 2363 
L 2184 2363 
Q 2588 2363 2766 2553 
Q 2944 2744 2944 3041 
Q 2944 3338 2766 3564 
Q 2588 3791 2184 3791 
L 1347 3791 
z
" transform="scale(0.015625)"/>
       <path id="Roboto-Bold-4d" d="M 2800 1250 
L 3966 4550 
L 5194 4550 
L 5194 0 
L 4253 0 
L 4253 1244 
L 4347 3381 
L 3122 0 
L 2478 0 
L 1253 3381 
L 1347 1244 
L 1347 0 
L 406 0 
L 406 4550 
L 1634 4550 
L 2800 1250 
z
" transform="scale(0.015625)"/>
       <path id="Roboto-Bold-46" d="M 406 0 
L 406 4550 
L 3372 4550 
L 3372 3791 
L 1347 3791 
L 1347 2616 
L 3147 2616 
L 3147 1859 
L 1347 1859 
L 1347 0 
L 406 0 
z
" transform="scale(0.015625)"/>
       <path id="Roboto-Bold-6b" d="M 2444 0 
L 1575 1356 
L 1253 1034 
L 1253 0 
L 350 0 
L 350 4803 
L 1253 4803 
L 1253 2144 
L 1428 2369 
L 2291 3381 
L 3375 3381 
L 2156 1975 
L 3484 0 
L 2444 0 
z
" transform="scale(0.015625)"/>
       <path id="Roboto-Bold-6c" d="M 1303 4800 
L 1303 0 
L 397 0 
L 397 4800 
L 1303 4800 
z
" transform="scale(0.015625)"/>
       <path id="Roboto-Bold-2f" d="M 2306 4550 
L 631 -391 
L -41 -391 
L 1634 4550 
L 2306 4550 
z
" transform="scale(0.015625)"/>
       <path id="Roboto-Bold-6d" d="M 1806 2713 
Q 1431 2713 1253 2394 
L 1253 0 
L 347 0 
L 347 3381 
L 1197 3381 
L 1228 3009 
Q 1581 3444 2197 3444 
Q 2850 3444 3094 2928 
Q 3441 3444 4109 3444 
Q 4597 3444 4894 3156 
Q 5191 2869 5194 2169 
L 5194 0 
L 4288 0 
L 4288 2156 
Q 4288 2494 4152 2603 
Q 4016 2713 3781 2713 
Q 3381 2713 3222 2334 
L 3222 0 
L 2319 0 
L 2319 2150 
Q 2319 2484 2181 2598 
Q 2044 2713 1806 2713 
z
" transform="scale(0.015625)"/>
       <path id="Roboto-Bold-6f" d="M 206 1722 
Q 206 2459 625 2951 
Q 1044 3444 1806 3444 
Q 2578 3444 2993 2951 
Q 3409 2459 3409 1722 
L 3409 1656 
Q 3409 919 2993 428 
Q 2578 -63 1813 -63 
Q 1053 -63 636 415 
Q 219 894 206 1616 
L 206 1722 
z
M 1113 1656 
Q 1113 1244 1270 955 
Q 1428 666 1813 666 
Q 2191 666 2348 953 
Q 2506 1241 2506 1722 
Q 2506 2125 2348 2420 
Q 2191 2716 1806 2716 
Q 1425 2716 1269 2422 
Q 1113 2128 1113 1656 
z
" transform="scale(0.015625)"/>
      </defs>
      <use xlink:href="#Roboto-Bold-50"/>
      <use xlink:href="#Roboto-Bold-4d" x="64.550781"/>
      <use xlink:href="#Roboto-Bold-46" x="152.148438"/>
      <use xlink:href="#Roboto-Bold-20" x="206.982422"/>
      <use xlink:href="#Roboto-Bold-5b" x="231.884766"/>
      <use xlink:href="#Roboto-Bold-6b" x="259.716797"/>
      <use xlink:href="#Roboto-Bold-63" x="313.134766"/>
      <use xlink:href="#Roboto-Bold-61" x="365.332031"/>
      <use xlink:href="#Roboto-Bold-6c" x="418.945312"/>
      <use xlink:href="#Roboto-Bold-2f" x="445.458984"/>
      <use xlink:href="#Roboto-Bold-6d" x="482.861328"/>
      <use xlink:href="#Roboto-Bold-6f" x="569.433594"/>
      <use xlink:href="#Roboto-Bold-6c" x="625.976562"/>
      <use xlink:href="#Roboto-Bold-5d" x="652.490234"/>
     </g>
    </g>
   </g>
   <g id="line2d_18">
    <path d="M 74.099479 -1 
L 75.854466 37.534982 
L 77.181726 62.580601 
L 79.172617 94.632753 
L 80.499878 112.998285 
L 81.827138 128.952474 
L 83.154399 142.686269 
L 84.48166 154.423425 
L 85.80892 164.195397 
L 87.136181 171.977693 
L 88.463441 177.95529 
L 89.790702 182.568958 
L 91.117963 186.232486 
L 92.445223 189.056922 
L 93.108854 190.124831 
L 93.772484 190.944338 
L 94.436114 191.511697 
L 95.099744 191.836923 
L 95.763375 191.943324 
L 96.427005 191.860621 
L 97.090635 191.614995 
L 97.754266 191.223008 
L 99.081526 190.03364 
L 100.408787 188.366735 
L 101.736047 186.307542 
L 103.063308 183.906539 
L 105.054199 179.747472 
L 107.70872 173.436151 
L 109.699611 168.139727 
L 114.345023 155.295198 
L 118.326805 145.309572 
L 122.972217 131.821106 
L 124.963108 126.577191 
L 129.60852 115.221875 
L 132.926671 109.290255 
L 134.253932 106.595678 
L 135.581193 104.356445 
L 137.572083 101.171035 
L 140.226605 96.565574 
L 140.890235 95.898578 
L 141.553865 95.553434 
L 143.544756 95.107677 
L 144.208386 94.736752 
L 145.535647 93.649739 
L 147.526538 91.951301 
L 148.190168 91.552294 
L 148.853798 91.330577 
L 149.517429 91.318523 
L 150.181059 91.500044 
L 152.83558 92.794499 
L 153.499211 93.175877 
L 154.162841 93.713262 
L 155.490101 95.249038 
L 156.817362 96.74995 
L 157.480992 97.280319 
L 158.808253 97.939401 
L 160.799144 98.756768 
L 162.126404 99.650528 
L 163.453665 100.925609 
L 165.444556 103.05289 
L 167.435447 104.922214 
L 168.099077 105.779824 
L 169.426338 108.029243 
L 171.417229 112.164686 
L 175.39901 121.049646 
L 178.053532 126.068539 
L 179.380792 128.228709 
L 182.698944 132.740757 
L 184.026204 134.338374 
L 184.689835 134.909015 
L 186.017095 135.610626 
L 188.007986 136.307213 
L 188.671616 136.411169 
L 189.335247 136.334968 
L 189.998877 136.048138 
L 191.326137 135.030519 
L 196.63518 130.383937 
L 199.289701 127.771439 
L 200.616962 126.227219 
L 203.271483 122.809321 
L 209.244155 116.758952 
L 210.571416 115.595463 
L 215.216828 111.027452 
L 216.544089 110.119068 
L 217.207719 109.872782 
L 218.53498 109.695524 
L 221.189501 109.680962 
L 221.853131 109.451853 
L 222.516761 109.013154 
L 225.171283 106.507327 
L 225.834913 106.208982 
L 226.498543 106.137402 
L 227.825804 106.45321 
L 229.816695 107.076792 
L 231.143955 107.260207 
L 233.134846 107.206085 
L 234.462107 106.940583 
L 235.125737 106.659665 
L 236.452998 105.703972 
L 239.107519 103.277183 
L 239.771149 102.92474 
L 241.09841 102.628986 
L 244.416561 102.448488 
L 245.743822 101.846035 
L 247.071082 101.13204 
L 247.734713 100.974359 
L 248.398343 101.034056 
L 251.052864 101.975541 
L 251.716494 101.907284 
L 254.371016 101.206001 
L 255.034646 101.328473 
L 255.698276 101.625267 
L 257.025537 102.592857 
L 259.016428 104.156818 
L 259.680058 104.453307 
L 260.343688 104.560361 
L 261.007319 104.488242 
L 262.99821 103.915606 
L 263.66184 103.884613 
L 264.9891 104.140948 
L 267.643622 104.952039 
L 268.970882 105.389421 
L 269.634513 105.487927 
L 270.961773 105.369926 
L 272.289034 105.125641 
L 273.616294 105.085672 
L 275.607185 105.059633 
L 276.934446 105.015378 
L 277.598076 105.130825 
L 278.925337 105.705367 
L 280.916228 106.776592 
L 282.243488 107.147979 
L 284.234379 107.503218 
L 287.552531 108.66101 
L 288.879791 108.590134 
L 290.207052 108.485323 
L 292.861573 108.604351 
L 294.852464 108.188873 
L 296.179724 107.721963 
L 297.506985 106.834756 
L 298.834246 105.886131 
L 299.497876 105.666152 
L 300.161506 105.670558 
L 302.152397 106.006196 
L 302.816027 105.890397 
L 304.806918 105.231661 
L 306.134179 105.155107 
L 307.461439 105.043563 
L 308.12507 104.822401 
L 309.45233 104.054293 
L 311.443221 102.768321 
L 312.770482 102.292758 
L 314.097742 101.939827 
L 315.425003 101.327498 
L 317.415894 99.906673 
L 319.406785 98.433831 
L 320.070415 98.12021 
L 320.734045 97.991176 
L 322.724936 97.945329 
L 323.388567 97.638897 
L 325.379457 96.340432 
L 328.033979 95.588204 
L 330.02487 94.051209 
L 330.6885 93.924797 
L 331.35213 94.101008 
L 332.679391 94.785379 
L 333.343021 94.927764 
L 334.006651 94.81094 
L 338.652063 92.552896 
L 340.642954 90.85474 
L 343.297475 89.150382 
L 344.624736 87.951685 
L 345.288366 87.547707 
L 345.951997 87.431004 
L 346.615627 87.58626 
L 347.942888 88.151484 
L 348.606518 88.241412 
L 349.270148 88.095819 
L 351.924669 86.737219 
L 352.5883 86.782458 
L 353.25193 87.066493 
L 354.579191 87.832225 
L 355.242821 87.960959 
L 355.906451 87.785401 
L 357.233712 86.82871 
L 357.897342 86.354244 
L 358.560972 86.018779 
L 359.888233 85.675643 
L 361.215493 85.524953 
L 362.542754 85.697203 
L 363.870015 85.889849 
L 364.533645 85.705858 
L 365.197275 85.254805 
L 367.188166 83.274486 
L 367.851796 82.942016 
L 368.515427 82.937516 
L 369.842687 83.5774 
L 370.506318 83.879175 
L 371.169948 83.963435 
L 371.833578 83.785791 
L 373.160839 82.922667 
L 375.15173 81.322554 
L 377.142621 79.640701 
L 378.469881 79.051472 
L 383.778924 77.60212 
L 384.442554 77.206707 
L 385.769814 75.87381 
L 386.433445 75.163963 
L 387.097075 74.622222 
L 387.760705 74.325163 
L 388.424336 74.254368 
L 389.751596 74.327949 
L 390.415227 74.145441 
L 391.078857 73.642766 
L 391.742487 72.813705 
L 393.069748 70.793059 
L 393.733378 70.06204 
L 394.397008 69.713854 
L 395.060639 69.702951 
L 396.387899 70.021455 
L 397.05153 70.022346 
L 397.71516 69.78998 
L 398.37879 69.319618 
L 401.696942 66.26394 
L 403.024202 65.286261 
L 404.351463 64.659307 
L 405.678723 64.133844 
L 407.005984 63.250542 
L 408.333245 62.268445 
L 410.324135 61.056365 
L 410.987766 60.500705 
L 411.651396 59.78152 
L 412.315026 58.877411 
L 412.978657 57.756631 
L 414.305917 54.747992 
L 415.633178 51.467693 
L 416.296808 50.557042 
L 416.960438 50.522366 
L 417.624069 51.210798 
L 418.287699 52.132757 
L 418.951329 52.776786 
L 419.61496 52.867323 
L 420.27859 52.42327 
L 422.269481 50.273494 
L 422.933111 49.886667 
L 424.260372 49.567668 
L 426.251263 49.255437 
L 426.914893 48.910452 
L 427.578523 48.330801 
L 428.905784 46.558735 
L 430.233044 44.114758 
L 431.560305 40.769387 
L 432.887566 37.554158 
L 433.551196 36.420677 
L 434.878456 34.754536 
L 435.542087 34.126145 
L 436.205717 33.769313 
L 436.869347 33.758266 
L 437.532978 34.015992 
L 438.860238 34.825488 
L 440.187499 35.987693 
L 440.851129 36.574212 
L 441.514759 36.791995 
L 442.17839 36.350412 
L 442.84202 35.171632 
L 444.832911 30.052992 
L 445.496541 29.020323 
L 446.160172 28.483333 
L 446.823802 28.260815 
L 448.151062 28.219811 
L 450.141953 28.701019 
L 450.805584 28.548754 
L 451.469214 27.875465 
L 452.132844 26.535145 
L 452.796474 24.519671 
L 455.450996 14.807556 
L 456.114626 13.484177 
L 457.441887 11.540467 
L 458.105517 10.186677 
L 460.096408 4.541374 
L 460.760038 3.583517 
L 461.423668 3.771719 
L 461.8 4.458531 
L 461.8 4.458531 
" clip-path="url(#pd5244184e1)" style="fill: none; stroke: #f99752; stroke-width: 2.5; stroke-linecap: square"/>
   </g>
   <g id="patch_3">
    <path d="M 47.252 298.6 
L 47.252 16.74 
" style="fill: none; stroke: #c2c1c1; stroke-width: 0.8; stroke-linejoin: miter; stroke-linecap: square"/>
   </g>
   <g id="patch_4">
    <path d="M 445.032 298.6 
L 445.032 16.74 
" style="fill: none; stroke: #c2c1c1; stroke-width: 0.8; stroke-linejoin: miter; stroke-linecap: square"/>
   </g>
   <g id="patch_5">
    <path d="M 47.252 298.6 
L 445.032 298.6 
" style="fill: none; stroke: #c2c1c1; stroke-width: 0.8; stroke-linejoin: miter; stroke-linecap: square"/>
   </g>
   <g id="patch_6">
    <path d="M 47.252 16.74 
L 445.032 16.74 
" style="fill: none; stroke: #c2c1c1; stroke-width: 0.8; stroke-linejoin: miter; stroke-linecap: square"/>
   </g>
   <g id="legend_1">
    <g id="line2d_19">
     <path d="M 354.0795 245.344375 
L 366.0795 245.344375 
L 378.0795 245.344375 
" style="fill: none; stroke: #1e2e79; stroke-width: 2.5; stroke-linecap: square"/>
    </g>
    <g id="text_17">
     <!-- Reduced -->
     <g transform="translate(387.6795 249.544375) scale(0.12 -0.12)">
      <defs>
       <path id="Roboto-Regular-52" d="M 3188 0 
L 2200 1844 
L 1131 1844 
L 1131 0 
L 528 0 
L 528 4550 
L 2034 4550 
Q 2800 4550 3214 4200 
Q 3628 3850 3628 3184 
Q 3628 2759 3398 2442 
Q 3169 2125 2763 1969 
L 3831 38 
L 3831 0 
L 3188 0 
z
M 1131 4056 
L 1131 2334 
L 2053 2334 
Q 2538 2334 2783 2582 
Q 3028 2831 3028 3184 
Q 3028 3578 2792 3817 
Q 2556 4056 2034 4056 
L 1131 4056 
z
" transform="scale(0.015625)"/>
       <path id="Roboto-Regular-65" d="M 3116 591 
Q 2950 341 2647 139 
Q 2344 -63 1844 -63 
Q 1138 -63 714 396 
Q 291 856 291 1572 
L 291 1703 
Q 291 2256 502 2645 
Q 713 3034 1050 3239 
Q 1388 3444 1769 3444 
Q 2494 3444 2826 2970 
Q 3159 2497 3159 1788 
L 3159 1528 
L 872 1528 
Q 884 1063 1148 736 
Q 1413 409 1875 409 
Q 2181 409 2393 534 
Q 2606 659 2766 869 
L 3116 591 
z
M 1769 2969 
Q 1425 2969 1187 2719 
Q 950 2469 891 2000 
L 2581 2000 
L 2581 2044 
Q 2559 2381 2386 2675 
Q 2213 2969 1769 2969 
z
" transform="scale(0.015625)"/>
       <path id="Roboto-Regular-64" d="M 2622 0 
L 2594 363 
Q 2247 -63 1628 -63 
Q 1034 -63 668 418 
Q 303 900 297 1628 
L 297 1719 
Q 297 2494 664 2969 
Q 1031 3444 1634 3444 
Q 2231 3444 2572 3044 
L 2572 4800 
L 3153 4800 
L 3153 0 
L 2622 0 
z
M 878 1653 
Q 878 1150 1090 789 
Q 1303 428 1772 428 
Q 2309 428 2572 919 
L 2572 2475 
Q 2313 2956 1778 2956 
Q 1306 2956 1092 2589 
Q 878 2222 878 1719 
L 878 1653 
z
" transform="scale(0.015625)"/>
       <path id="Roboto-Regular-75" d="M 2538 0 
L 2525 334 
Q 2194 -63 1538 -63 
Q 1041 -63 734 231 
Q 428 525 428 1200 
L 428 3381 
L 1006 3381 
L 1006 1194 
Q 1006 738 1198 583 
Q 1391 428 1628 428 
Q 2281 428 2509 919 
L 2509 3381 
L 3091 3381 
L 3091 0 
L 2538 0 
z
" transform="scale(0.015625)"/>
       <path id="Roboto-Regular-63" d="M 1794 413 
Q 2103 413 2336 597 
Q 2569 781 2591 1069 
L 3141 1069 
Q 3119 616 2725 276 
Q 2331 -63 1794 -63 
Q 1031 -63 661 440 
Q 291 944 291 1625 
L 291 1756 
Q 291 2438 661 2941 
Q 1031 3444 1794 3444 
Q 2388 3444 2753 3092 
Q 3119 2741 3141 2219 
L 2591 2219 
Q 2569 2531 2355 2750 
Q 2141 2969 1794 2969 
Q 1438 2969 1236 2787 
Q 1034 2606 951 2328 
Q 869 2050 869 1756 
L 869 1625 
Q 869 1328 950 1050 
Q 1031 772 1232 592 
Q 1434 413 1794 413 
z
" transform="scale(0.015625)"/>
      </defs>
      <use xlink:href="#Roboto-Regular-52"/>
      <use xlink:href="#Roboto-Regular-65" x="61.621094"/>
      <use xlink:href="#Roboto-Regular-64" x="114.648438"/>
      <use xlink:href="#Roboto-Regular-75" x="171.044922"/>
      <use xlink:href="#Roboto-Regular-63" x="226.171875"/>
      <use xlink:href="#Roboto-Regular-65" x="278.515625"/>
      <use xlink:href="#Roboto-Regular-64" x="331.542969"/>
     </g>
    </g>
    <g id="line2d_20">
     <path d="M 354.0795 262.781875 
L 366.0795 262.781875 
L 378.0795 262.781875 
" style="fill: none; stroke: #ec4067; stroke-width: 2.5; stroke-linecap: square"/>
    </g>
    <g id="text_18">
     <!-- Oxidized -->
     <g transform="translate(387.6795 266.981875) scale(0.12 -0.12)">
      <defs>
       <path id="Roboto-Regular-4f" d="M 4031 2131 
Q 4031 1106 3534 521 
Q 3038 -63 2206 -63 
Q 1397 -63 884 521 
Q 372 1106 372 2131 
L 372 2419 
Q 372 3441 881 4027 
Q 1391 4613 2200 4613 
Q 3025 4613 3523 4036 
Q 4022 3459 4031 2456 
L 4031 2131 
z
M 3434 2425 
Q 3434 3238 3109 3669 
Q 2784 4100 2200 4100 
Q 1641 4100 1305 3669 
Q 969 3238 969 2425 
L 969 2131 
Q 969 1313 1308 880 
Q 1647 447 2206 447 
Q 2794 447 3114 880 
Q 3434 1313 3434 2131 
L 3434 2425 
z
" transform="scale(0.015625)"/>
       <path id="Roboto-Regular-78" d="M 831 3381 
L 1572 2150 
L 2322 3381 
L 3000 3381 
L 1894 1713 
L 3034 0 
L 2366 0 
L 1584 1269 
L 803 0 
L 131 0 
L 1269 1713 
L 166 3381 
L 831 3381 
z
" transform="scale(0.015625)"/>
       <path id="Roboto-Regular-69" d="M 444 4278 
Q 444 4419 530 4516 
Q 616 4613 784 4613 
Q 950 4613 1039 4516 
Q 1128 4419 1128 4278 
Q 1128 4144 1039 4048 
Q 950 3953 784 3953 
Q 616 3953 530 4048 
Q 444 4144 444 4278 
z
M 1069 3381 
L 1069 0 
L 488 0 
L 488 3381 
L 1069 3381 
z
" transform="scale(0.015625)"/>
       <path id="Roboto-Regular-7a" d="M 303 2903 
L 303 3381 
L 2869 3381 
L 2869 2972 
L 988 475 
L 2959 475 
L 2959 0 
L 278 0 
L 278 425 
L 2141 2903 
L 303 2903 
z
" transform="scale(0.015625)"/>
      </defs>
      <use xlink:href="#Roboto-Regular-4f"/>
      <use xlink:href="#Roboto-Regular-78" x="68.798828"/>
      <use xlink:href="#Roboto-Regular-69" x="118.408203"/>
      <use xlink:href="#Roboto-Regular-64" x="142.724609"/>
      <use xlink:href="#Roboto-Regular-69" x="199.121094"/>
      <use xlink:href="#Roboto-Regular-7a" x="223.4375"/>
      <use xlink:href="#Roboto-Regular-65" x="273.046875"/>
      <use xlink:href="#Roboto-Regular-64" x="326.074219"/>
     </g>
    </g>
    <g id="line2d_21">
     <path d="M 354.0795 280.845625 
L 366.0795 280.845625 
L 378.0795 280.845625 
" style="fill: none; stroke: #f99752; stroke-width: 2.5; stroke-linecap: square"/>
    </g>
    <g id="text_19">
     <!-- Cu(I) -->
     <g transform="translate(387.6795 285.045625) scale(0.12 -0.12)">
      <defs>
       <path id="Roboto-Regular-43" d="M 3275 1447 
L 3875 1447 
Q 3806 800 3387 368 
Q 2969 -63 2150 -63 
Q 1356 -63 870 504 
Q 384 1072 375 2013 
L 375 2500 
Q 375 3456 867 4034 
Q 1359 4613 2203 4613 
Q 2975 4613 3390 4188 
Q 3806 3763 3875 3091 
L 3275 3091 
Q 3206 3566 2968 3842 
Q 2731 4119 2203 4119 
Q 1600 4119 1287 3675 
Q 975 3231 975 2506 
L 975 2047 
Q 975 1375 1259 901 
Q 1544 428 2150 428 
Q 2725 428 2961 697 
Q 3197 966 3275 1447 
z
" transform="scale(0.015625)"/>
       <path id="Roboto-Regular-28" d="M 419 1850 
Q 419 2756 678 3434 
Q 938 4113 1294 4541 
Q 1650 4969 1947 5134 
L 2069 4753 
Q 1700 4475 1348 3761 
Q 997 3047 997 1813 
Q 997 625 1348 -97 
Q 1700 -819 2069 -1119 
L 1947 -1469 
Q 1650 -1306 1294 -878 
Q 938 -450 678 226 
Q 419 903 419 1850 
z
" transform="scale(0.015625)"/>
       <path id="Roboto-Regular-49" d="M 1175 4550 
L 1175 0 
L 572 0 
L 572 4550 
L 1175 4550 
z
" transform="scale(0.015625)"/>
       <path id="Roboto-Regular-29" d="M 1772 1819 
Q 1772 906 1512 228 
Q 1253 -450 895 -878 
Q 538 -1306 244 -1469 
L 122 -1119 
Q 488 -841 841 -109 
Q 1194 622 1194 1856 
Q 1194 2647 1019 3236 
Q 844 3825 594 4212 
Q 344 4600 122 4781 
L 244 5134 
Q 538 4969 895 4541 
Q 1253 4113 1512 3436 
Q 1772 2759 1772 1819 
z
" transform="scale(0.015625)"/>
      </defs>
      <use xlink:href="#Roboto-Regular-43"/>
      <use xlink:href="#Roboto-Regular-75" x="65.087891"/>
      <use xlink:href="#Roboto-Regular-28" x="120.214844"/>
      <use xlink:href="#Roboto-Regular-49" x="154.443359"/>
      <use xlink:href="#Roboto-Regular-29" x="181.640625"/>
     </g>
    </g>
   </g>
  </g>
 </g>
 <defs>
  <clipPath id="pd5244184e1">
   <rect x="47.252" y="16.74" width="397.78" height="281.86"/>
  </clipPath>
 </defs>
</svg>
