<?xml version="1.0" encoding="utf-8" standalone="no"?>
<!DOCTYPE svg PUBLIC "-//W3C//DTD SVG 1.1//EN"
  "http://www.w3.org/Graphics/SVG/1.1/DTD/svg11.dtd">
<svg xmlns:xlink="http://www.w3.org/1999/xlink" width="460.8pt" height="345.6pt" viewBox="0 0 460.8 345.6" xmlns="http://www.w3.org/2000/svg" version="1.1">
 <metadata>
  <rdf:RDF xmlns:dc="http://purl.org/dc/elements/1.1/" xmlns:cc="http://creativecommons.org/ns#" xmlns:rdf="http://www.w3.org/1999/02/22-rdf-syntax-ns#">
   <cc:Work>
    <dc:type rdf:resource="http://purl.org/dc/dcmitype/StillImage"/>
    <dc:date>2024-07-22T23:10:13.070542</dc:date>
    <dc:format>image/svg+xml</dc:format>
    <dc:creator>
     <cc:Agent>
      <dc:title>Matplotlib v3.9.1, https://matplotlib.org/</dc:title>
     </cc:Agent>
    </dc:creator>
   </cc:Work>
  </rdf:RDF>
 </metadata>
 <defs>
  <style type="text/css">*{stroke-linejoin: round; stroke-linecap: butt}</style>
 </defs>
 <g id="figure_1">
  <g id="patch_1">
   <path d="M 0 345.6 
L 460.8 345.6 
L 460.8 0 
L 0 0 
z
" style="fill: #ffffff"/>
  </g>
  <g id="axes_1">
   <g id="patch_2">
    <path d="M 47.252 298.6 
L 445.032 298.6 
L 445.032 16.74 
L 47.252 16.74 
z
" style="fill: #ffffff"/>
   </g>
   <g id="line2d_1">
    <path d="M 47.252 110.693333 
L 445.032 110.693333 
" clip-path="url(#p025e5f1847)" style="fill: none; stroke-dasharray: 1.75,2.8875; stroke-dashoffset: 0; stroke: #c0c0c0; stroke-width: 1.75"/>
   </g>
   <g id="line2d_2">
    <path d="M 75.939268 -1 
L 77.181726 25.131191 
L 78.508987 49.995811 
L 79.836248 71.194155 
L 81.163508 88.7436 
L 82.490769 103.985023 
L 83.818029 117.23267 
L 85.14529 128.379862 
L 86.472551 137.501727 
L 87.799811 144.657461 
L 89.127072 150.1962 
L 90.454332 154.375239 
L 91.781593 157.341637 
L 93.108854 159.3941 
L 93.772484 160.160504 
L 94.436114 160.749085 
L 95.099744 161.126414 
L 95.763375 161.277381 
L 96.427005 161.230225 
L 97.754266 160.728255 
L 99.081526 159.766468 
L 100.408787 158.288475 
L 101.736047 156.256716 
L 103.063308 153.742092 
L 105.717829 148.16431 
L 107.04509 144.911156 
L 115.672284 121.040416 
L 118.990435 111.265182 
L 121.644956 104.19175 
L 124.963108 94.320642 
L 128.281259 85.792926 
L 129.60852 83.027678 
L 130.27215 82.069838 
L 130.93578 81.411794 
L 131.599411 81.051176 
L 132.263041 81.013189 
L 132.926671 81.296383 
L 135.581193 83.294753 
L 136.244823 84.051739 
L 136.908453 85.244635 
L 137.572083 86.901319 
L 140.226605 94.688795 
L 141.553865 97.564184 
L 142.881126 100.0158 
L 144.208386 101.969101 
L 145.535647 103.33295 
L 146.199277 103.828572 
L 146.862908 104.181134 
L 148.190168 104.543132 
L 148.853798 104.626626 
L 149.517429 104.577003 
L 150.181059 104.280401 
L 150.844689 103.71214 
L 152.83558 101.399595 
L 155.490101 98.102776 
L 158.144623 95.496313 
L 158.808253 94.427969 
L 160.135514 91.583246 
L 161.462774 88.587683 
L 162.790035 86.326649 
L 164.780926 83.905154 
L 166.108186 82.234301 
L 168.099077 79.168167 
L 168.762707 78.534055 
L 169.426338 78.284529 
L 170.753598 78.068631 
L 171.417229 77.880227 
L 172.080859 77.821589 
L 172.744489 78.067474 
L 173.408119 78.642967 
L 174.73538 80.108697 
L 175.39901 80.567099 
L 176.726271 81.0093 
L 177.389901 81.482302 
L 178.053532 82.293861 
L 181.371683 87.420706 
L 182.035313 88.215577 
L 182.698944 88.700834 
L 184.689835 89.398628 
L 186.680725 91.032684 
L 187.344356 91.297047 
L 188.007986 91.267764 
L 189.998877 90.39574 
L 190.662507 90.357471 
L 192.653398 90.919702 
L 193.317028 90.78199 
L 195.97155 89.480228 
L 196.63518 89.514676 
L 198.626071 90.048197 
L 199.289701 90.34915 
L 199.953331 90.863762 
L 201.280592 92.442091 
L 203.271483 95.064572 
L 204.598743 97.326661 
L 207.253265 102.574787 
L 209.907786 106.996053 
L 211.235046 108.943473 
L 211.898677 109.628833 
L 212.562307 110.067263 
L 213.889568 110.422373 
L 216.544089 110.722486 
L 217.871349 110.385534 
L 219.19861 109.841533 
L 220.525871 109.028096 
L 221.853131 107.886148 
L 224.507652 105.218753 
L 225.171283 104.510417 
L 225.834913 103.620783 
L 227.162174 101.154054 
L 228.489434 98.735928 
L 230.480325 95.760495 
L 231.807586 93.180817 
L 235.125737 85.917308 
L 237.780258 80.773372 
L 239.771149 76.592113 
L 240.434779 75.483992 
L 241.76204 73.903632 
L 243.089301 72.298594 
L 246.407452 67.676022 
L 247.071082 67.054577 
L 247.734713 66.779445 
L 248.398343 66.803439 
L 249.725604 67.064 
L 250.389234 67.003483 
L 252.380125 66.443916 
L 255.034646 66.202362 
L 255.698276 66.222489 
L 256.361907 66.504732 
L 257.025537 67.112021 
L 258.352797 68.988612 
L 259.016428 69.95091 
L 259.680058 70.669618 
L 260.343688 71.040892 
L 261.670949 71.333733 
L 262.334579 71.821831 
L 262.99821 72.738991 
L 264.9891 76.282596 
L 265.652731 77.018728 
L 266.316361 77.431646 
L 266.979991 77.592558 
L 268.307252 77.502264 
L 268.970882 77.451001 
L 269.634513 77.568759 
L 270.298143 77.925436 
L 270.961773 78.411352 
L 271.625403 78.758041 
L 272.289034 78.716424 
L 272.952664 78.225778 
L 274.943555 75.90791 
L 275.607185 75.435499 
L 277.598076 74.41682 
L 278.261706 73.760078 
L 279.588967 71.925274 
L 281.579858 68.962316 
L 282.243488 68.222127 
L 282.907118 67.742379 
L 284.234379 67.221612 
L 284.898009 66.749319 
L 285.56164 65.820121 
L 286.22527 64.385559 
L 287.552531 61.137181 
L 288.216161 60.044746 
L 290.870682 57.021976 
L 292.197943 55.267229 
L 293.525203 52.820601 
L 294.188834 51.57021 
L 294.852464 50.599624 
L 295.516094 49.949837 
L 296.179724 49.553821 
L 296.843355 49.383747 
L 298.170615 49.469009 
L 298.834246 49.246455 
L 299.497876 48.54891 
L 301.488767 45.06606 
L 304.143288 40.301353 
L 304.806918 39.691851 
L 305.470549 39.663665 
L 306.134179 40.190784 
L 307.461439 41.98392 
L 308.12507 42.515636 
L 308.7887 42.527841 
L 309.45233 42.238578 
L 310.115961 42.07839 
L 310.779591 42.299911 
L 311.443221 42.728501 
L 312.106852 42.931687 
L 312.770482 42.591354 
L 313.434112 41.725099 
L 314.761373 39.777095 
L 315.425003 39.380683 
L 316.088633 39.484906 
L 316.752264 39.922219 
L 318.079524 41.221265 
L 318.743154 41.93896 
L 319.406785 42.44954 
L 320.070415 42.505307 
L 320.734045 42.098063 
L 322.061306 41.014664 
L 322.724936 40.609888 
L 323.388567 40.01561 
L 324.715827 38.054527 
L 325.379457 37.45015 
L 326.043088 37.528027 
L 327.370348 38.386186 
L 328.033979 38.28712 
L 328.697609 37.687159 
L 330.02487 35.653547 
L 330.6885 34.643801 
L 331.35213 33.912061 
L 332.01576 33.49978 
L 332.679391 33.22743 
L 333.343021 32.820881 
L 334.006651 32.077004 
L 335.333912 29.633629 
L 335.997542 28.447418 
L 336.661173 27.655992 
L 338.652063 26.193782 
L 339.979324 24.520951 
L 340.642954 23.553086 
L 341.306585 22.344824 
L 341.970215 20.740893 
L 343.297475 16.908556 
L 343.961106 15.3143 
L 345.288366 12.691305 
L 345.951997 11.079045 
L 347.942888 5.440593 
L 348.606518 4.406952 
L 349.270148 3.996856 
L 349.933778 3.746223 
L 350.597409 3.034442 
L 351.261039 1.54381 
L 352.128688 -1 
L 352.128688 -1 
" clip-path="url(#p025e5f1847)" style="fill: none; stroke: #1e2e79; stroke-width: 2.5; stroke-linecap: square"/>
   </g>
   <g id="line2d_3">
    <path d="M 73.185759 -1 
L 73.199945 0.116441 
L 73.863575 20.014741 
L 74.527205 31.443604 
L 75.190836 51.648173 
L 75.854466 64.320367 
L 76.518096 71.899077 
L 78.508987 121.461484 
L 79.836248 141.614599 
L 80.499878 155.537263 
L 81.827138 176.982408 
L 82.490769 187.30721 
L 83.154399 195.896413 
L 85.80892 220.863129 
L 87.136181 230.702283 
L 87.799811 234.418499 
L 91.117963 248.30071 
L 91.781593 250.172318 
L 93.108854 252.901195 
L 93.772484 253.673759 
L 94.436114 253.770019 
L 95.099744 254.170831 
L 95.763375 254.727598 
L 96.427005 254.984692 
L 97.090635 255.547514 
L 97.754266 255.776679 
L 98.417896 255.353715 
L 99.081526 254.638718 
L 101.072417 251.862741 
L 101.736047 251.394623 
L 102.399678 250.663558 
L 104.390569 246.50656 
L 105.717829 242.984899 
L 107.04509 240.673449 
L 107.70872 238.869112 
L 108.37235 236.722417 
L 109.699611 233.58246 
L 111.690502 228.90974 
L 115.008653 218.520086 
L 115.672284 217.457459 
L 116.335914 216.125368 
L 116.999544 213.649887 
L 117.663175 210.577791 
L 118.326805 208.312044 
L 119.654065 206.202495 
L 120.981326 202.91922 
L 122.308587 198.435252 
L 122.972217 197.288718 
L 123.635847 195.627681 
L 125.626738 189.132808 
L 126.290368 185.822308 
L 126.953999 184.069417 
L 127.617629 183.749798 
L 128.94489 180.248251 
L 129.60852 179.512216 
L 130.27215 177.378279 
L 130.93578 173.643502 
L 131.599411 172.717784 
L 132.263041 172.769975 
L 132.926671 170.088541 
L 133.590302 166.416277 
L 134.253932 164.628852 
L 134.917562 164.61279 
L 135.581193 165.031503 
L 136.244823 163.543512 
L 136.908453 159.156013 
L 137.572083 155.901691 
L 138.235714 157.393386 
L 138.899344 158.006008 
L 139.562974 155.880088 
L 140.226605 152.110346 
L 140.890235 151.409512 
L 141.553865 154.167737 
L 142.217495 152.473062 
L 144.208386 143.846831 
L 144.872017 143.269412 
L 145.535647 142.476142 
L 148.190168 133.96756 
L 149.517429 132.458255 
L 150.181059 132.831756 
L 150.844689 132.092396 
L 151.50832 131.699364 
L 152.17195 133.381185 
L 152.83558 136.230887 
L 153.499211 134.660749 
L 154.826471 116.022821 
L 155.490101 118.212369 
L 156.817362 128.55619 
L 157.480992 128.741605 
L 158.144623 126.569696 
L 158.808253 126.970034 
L 159.471883 128.745868 
L 160.135514 128.799031 
L 160.799144 126.730425 
L 161.462774 127.406992 
L 162.126404 128.60118 
L 162.790035 126.950799 
L 163.453665 126.455648 
L 164.117295 122.87845 
L 164.780926 121.322613 
L 165.444556 123.276157 
L 166.108186 122.010829 
L 166.771816 118.413358 
L 167.435447 115.805439 
L 168.099077 114.865447 
L 168.762707 114.57961 
L 170.089968 122.208604 
L 170.753598 124.396881 
L 171.417229 123.964412 
L 172.080859 124.880227 
L 172.744489 127.841993 
L 173.408119 129.717774 
L 174.07175 132.923699 
L 174.73538 133.118636 
L 176.062641 124.179683 
L 176.726271 124.852886 
L 178.717162 133.595816 
L 179.380792 135.424817 
L 180.044422 135.654443 
L 180.708053 133.131262 
L 181.371683 132.928023 
L 182.035313 135.980377 
L 182.698944 138.069664 
L 183.362574 138.521839 
L 184.026204 137.825478 
L 184.689835 138.451479 
L 185.353465 140.142999 
L 186.017095 141.322399 
L 186.680725 140.824806 
L 187.344356 141.26687 
L 188.671616 136.864339 
L 189.335247 136.759225 
L 189.998877 138.121911 
L 190.662507 139.799651 
L 191.326137 138.019225 
L 191.989768 134.475958 
L 192.653398 134.59004 
L 193.317028 138.042781 
L 193.980659 137.546849 
L 194.644289 134.888814 
L 195.307919 134.230928 
L 195.97155 134.383534 
L 196.63518 133.18682 
L 198.626071 126.641539 
L 199.289701 124.849146 
L 199.953331 126.679637 
L 200.616962 127.408798 
L 201.280592 125.377644 
L 201.944222 126.676778 
L 202.607853 129.807478 
L 203.271483 129.885037 
L 203.935113 126.211911 
L 205.926004 118.328856 
L 206.589634 120.362363 
L 207.253265 119.393996 
L 207.916895 117.143115 
L 208.580525 120.137215 
L 209.244155 121.211538 
L 209.907786 115.458676 
L 210.571416 111.745703 
L 211.235046 111.336957 
L 211.898677 116.093544 
L 212.562307 119.484549 
L 213.225937 116.464553 
L 213.889568 112.716218 
L 214.553198 109.836334 
L 215.216828 111.00974 
L 215.880458 110.519946 
L 216.544089 111.815444 
L 217.207719 113.714851 
L 217.871349 112.961462 
L 218.53498 110.207426 
L 219.19861 113.032501 
L 219.86224 117.050414 
L 220.525871 115.92024 
L 221.189501 112.18564 
L 221.853131 111.833325 
L 223.180392 108.386175 
L 223.844022 108.707475 
L 224.507652 111.001857 
L 225.171283 108.942127 
L 225.834913 105.124802 
L 226.498543 104.143932 
L 227.162174 102.941682 
L 227.825804 102.736629 
L 228.489434 107.420342 
L 229.153064 108.086525 
L 229.816695 107.348807 
L 230.480325 107.463168 
L 231.143955 103.516599 
L 231.807586 102.417229 
L 232.471216 103.369987 
L 233.134846 101.690365 
L 233.798476 97.746459 
L 234.462107 95.380345 
L 235.125737 94.698468 
L 235.789367 95.376205 
L 236.452998 97.707203 
L 237.116628 96.212422 
L 237.780258 92.761552 
L 238.443889 84.284835 
L 239.107519 81.066878 
L 239.771149 94.094487 
L 240.434779 99.437806 
L 241.09841 97.537282 
L 242.42567 80.65071 
L 243.089301 83.070529 
L 243.752931 84.557365 
L 244.416561 86.413803 
L 245.080192 85.521969 
L 245.743822 81.488311 
L 246.407452 84.512793 
L 247.071082 93.017044 
L 247.734713 92.25722 
L 248.398343 87.561793 
L 249.061973 85.076966 
L 249.725604 83.713288 
L 250.389234 90.137409 
L 251.716494 88.621438 
L 252.380125 85.200435 
L 253.043755 77.843795 
L 253.707385 80.68817 
L 254.371016 85.808626 
L 255.034646 82.340318 
L 255.698276 81.064386 
L 256.361907 75.316977 
L 257.025537 79.387731 
L 257.689167 89.34909 
L 258.352797 94.972104 
L 259.016428 96.25637 
L 259.680058 93.605588 
L 260.343688 93.760223 
L 261.007319 95.547952 
L 261.670949 91.012846 
L 262.334579 87.811122 
L 262.99821 86.510643 
L 264.32547 75.947289 
L 264.9891 73.958528 
L 266.316361 88.176349 
L 266.979991 86.996811 
L 267.643622 87.022576 
L 268.307252 84.695117 
L 268.970882 82.984766 
L 270.298143 95.975067 
L 270.961773 95.166338 
L 271.625403 87.891534 
L 272.289034 86.518426 
L 272.952664 93.288169 
L 273.616294 97.093621 
L 274.279925 97.625115 
L 274.943555 94.77971 
L 275.607185 87.767858 
L 276.270815 84.324271 
L 277.598076 96.417427 
L 278.261706 96.782569 
L 278.925337 94.67454 
L 279.588967 101.305118 
L 280.252597 102.290485 
L 281.579858 92.534645 
L 282.243488 82.345406 
L 282.907118 82.97479 
L 283.570749 89.769213 
L 284.234379 90.875937 
L 284.898009 94.300633 
L 285.56164 99.417795 
L 286.22527 95.786747 
L 286.8889 81.809832 
L 287.552531 75.928339 
L 288.216161 79.275116 
L 288.879791 89.158435 
L 289.543421 95.56865 
L 290.207052 93.520123 
L 290.870682 92.663539 
L 291.534312 93.447392 
L 292.197943 91.542783 
L 293.525203 98.00154 
L 294.852464 90.174543 
L 296.179724 100.349447 
L 296.843355 96.972527 
L 297.506985 88.041823 
L 298.170615 83.400766 
L 298.834246 86.090352 
L 300.161506 93.004097 
L 300.825136 93.666119 
L 301.488767 91.468327 
L 302.816027 82.417118 
L 303.479658 82.476839 
L 304.143288 86.820486 
L 304.806918 89.673455 
L 306.134179 80.223671 
L 306.797809 80.905175 
L 307.461439 82.7918 
L 308.12507 84.299956 
L 309.45233 68.972755 
L 310.115961 71.490466 
L 310.779591 75.349415 
L 311.443221 72.534618 
L 312.106852 71.606775 
L 312.770482 76.128652 
L 313.434112 75.322653 
L 314.097742 71.970312 
L 314.761373 75.637331 
L 315.425003 77.879643 
L 316.088633 81.219689 
L 316.752264 78.866472 
L 317.415894 74.351279 
L 318.079524 71.766507 
L 319.406785 81.917537 
L 320.070415 75.436685 
L 320.734045 62.460171 
L 321.397676 56.691811 
L 322.061306 66.997407 
L 322.724936 73.678508 
L 323.388567 67.561427 
L 324.052197 60.137608 
L 324.715827 59.801859 
L 325.379457 61.103222 
L 326.043088 67.162066 
L 326.706718 62.238343 
L 328.033979 51.347499 
L 328.697609 48.380262 
L 329.361239 32.444387 
L 330.02487 20.973294 
L 330.6885 36.661355 
L 332.01576 49.558592 
L 333.343021 32.906861 
L 334.670282 49.459204 
L 335.333912 46.774673 
L 335.997542 53.717853 
L 336.661173 58.71674 
L 337.324803 53.58089 
L 337.988433 54.193212 
L 338.652063 56.325924 
L 339.315694 49.907344 
L 340.642954 14.241296 
L 341.306585 21.566704 
L 341.970215 25.469514 
L 342.633845 32.064446 
L 343.297475 45.032036 
L 343.961106 34.790582 
L 344.624736 10.180803 
L 345.288366 20.270149 
L 345.951997 23.727148 
L 346.615627 10.983597 
L 346.814483 -1 
M 348.440972 -1 
L 348.606518 10.089561 
L 349.270148 32.054666 
L 349.933778 42.313474 
L 350.597409 42.406329 
L 351.261039 30.772887 
L 351.924669 4.768318 
L 353.25193 18.705337 
L 353.91556 18.264977 
L 354.579191 3.188122 
L 354.636898 -1 
M 357.065372 -1 
L 357.233712 12.538286 
L 357.897342 35.264726 
L 358.560972 37.743408 
L 359.224603 32.492241 
L 359.888233 12.283462 
L 360.073199 -1 
M 361.641053 -1 
L 361.879124 21.855985 
L 362.542754 53.847243 
L 363.206384 53.340291 
L 363.870015 30.664571 
L 364.533645 15.375969 
L 364.890916 -1 
M 368.614638 -1 
L 369.179057 16.11241 
L 369.842687 22.669085 
L 370.506318 41.033399 
L 371.169948 37.036222 
L 371.850443 -1 
M 380.967856 -1 
L 381.124402 8.242052 
L 381.788033 9.983851 
L 381.99224 -1 
M 394.237506 -1 
L 394.397008 9.909593 
L 395.060639 26.009478 
L 395.724269 20.518908 
L 396.190983 -1 
M 453.168448 -1 
L 453.460105 12.154136 
L 454.123735 4.647708 
L 454.207128 -1 
L 454.207128 -1 
" clip-path="url(#p025e5f1847)" style="fill: none; stroke: #ec4067; stroke-width: 2.5; stroke-linecap: square"/>
   </g>
   <g id="matplotlib.axis_1">
    <g id="xtick_1">
     <g id="line2d_4">
      <defs>
       <path id="md55db5c198" d="M 0 0 
L 0 3.5 
" style="stroke: #c2c1c1; stroke-width: 0.8"/>
      </defs>
      <g>
       <use xlink:href="#md55db5c198" x="47.252" y="298.6" style="fill: #c2c1c1; stroke: #c2c1c1; stroke-width: 0.8"/>
      </g>
     </g>
     <g id="text_1">
      <!-- 1 -->
      <g style="fill: #191919" transform="translate(44.441844 313.1) scale(0.1 -0.1)">
       <defs>
        <path id="Roboto-Regular-31" d="M 2278 4575 
L 2278 0 
L 1700 0 
L 1700 3853 
L 534 3428 
L 534 3950 
L 2188 4575 
L 2278 4575 
z
" transform="scale(0.015625)"/>
       </defs>
       <use xlink:href="#Roboto-Regular-31"/>
      </g>
     </g>
    </g>
    <g id="xtick_2">
     <g id="line2d_5">
      <g>
       <use xlink:href="#md55db5c198" x="113.548667" y="298.6" style="fill: #c2c1c1; stroke: #c2c1c1; stroke-width: 0.8"/>
      </g>
     </g>
     <g id="text_2">
      <!-- 2 -->
      <g style="fill: #191919" transform="translate(110.73851 313.1) scale(0.1 -0.1)">
       <defs>
        <path id="Roboto-Regular-32" d="M 3359 475 
L 3359 0 
L 381 0 
L 381 416 
L 1925 2134 
Q 2306 2566 2439 2819 
Q 2572 3072 2572 3328 
Q 2572 3663 2364 3900 
Q 2156 4138 1778 4138 
Q 1322 4138 1097 3878 
Q 872 3619 872 3213 
L 294 3213 
Q 294 3788 672 4200 
Q 1050 4613 1778 4613 
Q 2422 4613 2786 4278 
Q 3150 3944 3150 3397 
Q 3150 2997 2903 2592 
Q 2656 2188 2297 1797 
L 1078 475 
L 3359 475 
z
" transform="scale(0.015625)"/>
       </defs>
       <use xlink:href="#Roboto-Regular-32"/>
      </g>
     </g>
    </g>
    <g id="xtick_3">
     <g id="line2d_6">
      <g>
       <use xlink:href="#md55db5c198" x="179.845333" y="298.6" style="fill: #c2c1c1; stroke: #c2c1c1; stroke-width: 0.8"/>
      </g>
     </g>
     <g id="text_3">
      <!-- 3 -->
      <g style="fill: #191919" transform="translate(177.035177 313.1) scale(0.1 -0.1)">
       <defs>
        <path id="Roboto-Regular-33" d="M 1222 2084 
L 1222 2559 
L 1647 2559 
Q 2094 2563 2312 2784 
Q 2531 3006 2531 3338 
Q 2531 4138 1738 4138 
Q 1369 4138 1141 3927 
Q 913 3716 913 3359 
L 334 3359 
Q 334 3881 720 4247 
Q 1106 4613 1738 4613 
Q 2353 4613 2733 4286 
Q 3113 3959 3113 3325 
Q 3113 3072 2942 2784 
Q 2772 2497 2397 2338 
Q 2850 2191 3015 1884 
Q 3181 1578 3181 1269 
Q 3181 631 2768 284 
Q 2356 -63 1741 -63 
Q 1147 -63 722 267 
Q 297 597 297 1203 
L 875 1203 
Q 875 844 1108 628 
Q 1341 413 1741 413 
Q 2138 413 2369 622 
Q 2600 831 2600 1256 
Q 2600 1681 2337 1882 
Q 2075 2084 1634 2084 
L 1222 2084 
z
" transform="scale(0.015625)"/>
       </defs>
       <use xlink:href="#Roboto-Regular-33"/>
      </g>
     </g>
    </g>
    <g id="xtick_4">
     <g id="line2d_7">
      <g>
       <use xlink:href="#md55db5c198" x="246.142" y="298.6" style="fill: #c2c1c1; stroke: #c2c1c1; stroke-width: 0.8"/>
      </g>
     </g>
     <g id="text_4">
      <!-- 4 -->
      <g style="fill: #191919" transform="translate(243.331844 313.1) scale(0.1 -0.1)">
       <defs>
        <path id="Roboto-Regular-34" d="M 166 1397 
L 2203 4550 
L 2819 4550 
L 2819 1531 
L 3453 1531 
L 3453 1056 
L 2819 1056 
L 2819 0 
L 2241 0 
L 2241 1056 
L 166 1056 
L 166 1397 
z
M 822 1531 
L 2241 1531 
L 2241 3766 
L 2169 3638 
L 822 1531 
z
" transform="scale(0.015625)"/>
       </defs>
       <use xlink:href="#Roboto-Regular-34"/>
      </g>
     </g>
    </g>
    <g id="xtick_5">
     <g id="line2d_8">
      <g>
       <use xlink:href="#md55db5c198" x="312.438667" y="298.6" style="fill: #c2c1c1; stroke: #c2c1c1; stroke-width: 0.8"/>
      </g>
     </g>
     <g id="text_5">
      <!-- 5 -->
      <g style="fill: #191919" transform="translate(309.62851 313.1) scale(0.1 -0.1)">
       <defs>
        <path id="Roboto-Regular-35" d="M 1109 2166 
L 647 2284 
L 875 4550 
L 3209 4550 
L 3209 4016 
L 1366 4016 
L 1228 2778 
Q 1572 2975 1988 2975 
Q 2616 2975 2980 2561 
Q 3344 2147 3344 1450 
Q 3344 797 2987 367 
Q 2631 -63 1903 -63 
Q 1350 -63 947 248 
Q 544 559 481 1197 
L 1031 1197 
Q 1141 413 1903 413 
Q 2313 413 2538 691 
Q 2763 969 2763 1444 
Q 2763 1872 2527 2164 
Q 2291 2456 1853 2456 
Q 1563 2456 1413 2378 
Q 1263 2300 1109 2166 
z
" transform="scale(0.015625)"/>
       </defs>
       <use xlink:href="#Roboto-Regular-35"/>
      </g>
     </g>
    </g>
    <g id="xtick_6">
     <g id="line2d_9">
      <g>
       <use xlink:href="#md55db5c198" x="378.735333" y="298.6" style="fill: #c2c1c1; stroke: #c2c1c1; stroke-width: 0.8"/>
      </g>
     </g>
     <g id="text_6">
      <!-- 6 -->
      <g style="fill: #191919" transform="translate(375.925177 313.1) scale(0.1 -0.1)">
       <defs>
        <path id="Roboto-Regular-36" d="M 3291 1484 
Q 3291 838 2930 387 
Q 2569 -63 1878 -63 
Q 1388 -63 1063 198 
Q 738 459 577 861 
Q 416 1263 416 1684 
L 416 1956 
Q 416 2597 595 3194 
Q 775 3791 1247 4173 
Q 1719 4556 2597 4556 
L 2647 4556 
L 2647 4066 
Q 2041 4066 1705 3853 
Q 1369 3641 1205 3302 
Q 1041 2963 1006 2575 
Q 1369 2984 1984 2984 
Q 2438 2984 2727 2765 
Q 3016 2547 3153 2201 
Q 3291 1856 3291 1484 
z
M 997 1666 
Q 997 1059 1267 737 
Q 1538 416 1878 416 
Q 2278 416 2498 708 
Q 2719 1000 2719 1456 
Q 2719 1863 2516 2184 
Q 2313 2506 1891 2506 
Q 1588 2506 1341 2325 
Q 1094 2144 997 1884 
L 997 1666 
z
" transform="scale(0.015625)"/>
       </defs>
       <use xlink:href="#Roboto-Regular-36"/>
      </g>
     </g>
    </g>
    <g id="xtick_7">
     <g id="line2d_10">
      <g>
       <use xlink:href="#md55db5c198" x="445.032" y="298.6" style="fill: #c2c1c1; stroke: #c2c1c1; stroke-width: 0.8"/>
      </g>
     </g>
     <g id="text_7">
      <!-- 7 -->
      <g style="fill: #191919" transform="translate(442.221844 313.1) scale(0.1 -0.1)">
       <defs>
        <path id="Roboto-Regular-37" d="M 3319 4550 
L 3319 4225 
L 1434 0 
L 825 0 
L 2706 4075 
L 244 4075 
L 244 4550 
L 3319 4550 
z
" transform="scale(0.015625)"/>
       </defs>
       <use xlink:href="#Roboto-Regular-37"/>
      </g>
     </g>
    </g>
    <g id="text_8">
     <!-- CRO66 OH - H2O H Distance [Å] -->
     <g style="fill: #191919" transform="translate(160.666375 330.049375) scale(0.12 -0.12)">
      <defs>
       <path id="Roboto-Bold-43" d="M 3044 1516 
L 3981 1516 
Q 3934 822 3461 379 
Q 2988 -63 2150 -63 
Q 1275 -63 772 526 
Q 269 1116 269 2125 
L 269 2422 
Q 269 3431 784 4023 
Q 1300 4616 2159 4616 
Q 3013 4616 3466 4161 
Q 3919 3706 3984 3006 
L 3047 3006 
Q 3016 3413 2820 3630 
Q 2625 3847 2159 3847 
Q 1247 3847 1222 2500 
L 1222 2125 
Q 1222 1419 1436 1062 
Q 1650 706 2150 706 
Q 2594 706 2801 907 
Q 3009 1109 3044 1516 
z
" transform="scale(0.015625)"/>
       <path id="Roboto-Bold-52" d="M 2944 0 
L 2094 1669 
L 1347 1669 
L 1347 0 
L 406 0 
L 406 4550 
L 2100 4550 
Q 2884 4550 3332 4198 
Q 3781 3847 3781 3175 
Q 3781 2681 3562 2378 
Q 3344 2075 2969 1906 
L 3953 44 
L 3953 0 
L 2944 0 
z
M 1347 3791 
L 1347 2425 
L 2100 2425 
Q 2469 2425 2655 2611 
Q 2841 2797 2841 3103 
Q 2841 3419 2659 3605 
Q 2478 3791 2100 3791 
L 1347 3791 
z
" transform="scale(0.015625)"/>
       <path id="Roboto-Bold-4f" d="M 4147 2172 
Q 4147 1131 3608 534 
Q 3069 -63 2212 -63 
Q 1356 -63 812 534 
Q 269 1131 269 2172 
L 269 2375 
Q 269 3416 809 4014 
Q 1350 4613 2206 4613 
Q 3063 4613 3605 4014 
Q 4147 3416 4147 2375 
L 4147 2172 
z
M 3197 2381 
Q 3197 3094 2937 3466 
Q 2678 3838 2206 3838 
Q 1734 3838 1478 3470 
Q 1222 3103 1219 2397 
L 1219 2172 
Q 1219 1463 1478 1086 
Q 1738 709 2213 709 
Q 2684 709 2939 1081 
Q 3194 1453 3197 2156 
L 3197 2381 
z
" transform="scale(0.015625)"/>
       <path id="Roboto-Bold-36" d="M 3450 1500 
Q 3450 838 3033 387 
Q 2616 -63 1916 -63 
Q 1188 -63 752 443 
Q 316 950 316 1750 
L 316 2097 
Q 316 3200 925 3898 
Q 1534 4597 2634 4597 
L 2763 4597 
L 2763 3853 
L 2672 3853 
Q 2050 3844 1688 3538 
Q 1313 3219 1238 2675 
Q 1603 3047 2156 3047 
Q 2800 3047 3125 2589 
Q 3450 2131 3450 1500 
z
M 1219 1631 
Q 1219 1150 1408 909 
Q 1597 669 1900 669 
Q 2194 669 2370 901 
Q 2547 1134 2547 1491 
Q 2547 1853 2370 2087 
Q 2194 2322 1881 2322 
Q 1641 2322 1469 2198 
Q 1297 2075 1219 1903 
L 1219 1631 
z
" transform="scale(0.015625)"/>
       <path id="Roboto-Bold-20" transform="scale(0.015625)"/>
       <path id="Roboto-Bold-48" d="M 3175 0 
L 3175 1950 
L 1347 1950 
L 1347 0 
L 406 0 
L 406 4550 
L 1347 4550 
L 1347 2706 
L 3175 2706 
L 3175 4550 
L 4113 4550 
L 4113 0 
L 3175 0 
z
" transform="scale(0.015625)"/>
       <path id="Roboto-Bold-2d" d="M 2103 2316 
L 2103 1584 
L 347 1584 
L 347 2316 
L 2103 2316 
z
" transform="scale(0.015625)"/>
       <path id="Roboto-Bold-32" d="M 3428 728 
L 3428 0 
L 313 0 
L 313 619 
L 1784 2188 
Q 2116 2553 2245 2792 
Q 2375 3031 2375 3234 
Q 2375 3538 2223 3713 
Q 2072 3888 1788 3888 
Q 1466 3888 1295 3669 
Q 1125 3450 1125 3119 
L 222 3119 
Q 222 3734 645 4175 
Q 1069 4616 1803 4616 
Q 2519 4616 2900 4270 
Q 3281 3925 3281 3325 
Q 3281 2875 3014 2470 
Q 2747 2066 2284 1581 
L 1472 728 
L 3428 728 
z
" transform="scale(0.015625)"/>
       <path id="Roboto-Bold-44" d="M 406 0 
L 406 4550 
L 1809 4550 
Q 2728 4550 3308 3950 
Q 3888 3350 3888 2375 
L 3888 2172 
Q 3888 1197 3308 598 
Q 2728 0 1797 0 
L 406 0 
z
M 1347 3791 
L 1347 756 
L 1797 756 
Q 2350 756 2639 1115 
Q 2928 1475 2934 2144 
L 2934 2381 
Q 2934 3075 2661 3428 
Q 2388 3781 1838 3791 
L 1347 3791 
z
" transform="scale(0.015625)"/>
       <path id="Roboto-Bold-69" d="M 341 4256 
Q 341 4459 478 4592 
Q 616 4725 847 4725 
Q 1078 4725 1215 4592 
Q 1353 4459 1353 4256 
Q 1353 4056 1215 3923 
Q 1078 3791 847 3791 
Q 616 3791 478 3923 
Q 341 4056 341 4256 
z
M 1303 3381 
L 1303 0 
L 397 0 
L 397 3381 
L 1303 3381 
z
" transform="scale(0.015625)"/>
       <path id="Roboto-Bold-73" d="M 2178 938 
Q 2178 1081 2045 1179 
Q 1913 1278 1475 1372 
Q 953 1484 618 1721 
Q 284 1959 284 2394 
Q 284 2816 642 3130 
Q 1000 3444 1631 3444 
Q 2291 3444 2669 3134 
Q 3047 2825 3047 2353 
L 2144 2353 
Q 2144 2547 2019 2675 
Q 1894 2803 1628 2803 
Q 1403 2803 1276 2698 
Q 1150 2594 1150 2438 
Q 1150 2294 1284 2200 
Q 1419 2106 1781 2034 
Q 2331 1925 2693 1700 
Q 3056 1475 3056 972 
Q 3056 525 2672 231 
Q 2288 -63 1634 -63 
Q 925 -63 550 301 
Q 175 666 175 1078 
L 1034 1078 
Q 1047 813 1230 697 
Q 1413 581 1653 581 
Q 2178 581 2178 938 
z
" transform="scale(0.015625)"/>
       <path id="Roboto-Bold-74" d="M 2041 22 
Q 1788 -63 1497 -63 
Q 1053 -63 790 168 
Q 528 400 528 938 
L 528 2722 
L 31 2722 
L 31 3381 
L 528 3381 
L 528 4216 
L 1431 4216 
L 1431 3381 
L 2006 3381 
L 2006 2722 
L 1431 2722 
L 1431 1031 
Q 1431 819 1518 750 
Q 1606 681 1778 681 
Q 1916 681 2041 706 
L 2041 22 
z
" transform="scale(0.015625)"/>
       <path id="Roboto-Bold-61" d="M 2306 0 
Q 2250 119 2216 303 
Q 1888 -63 1363 -63 
Q 878 -63 547 223 
Q 216 509 216 950 
Q 216 1481 609 1773 
Q 1003 2066 1775 2066 
L 2178 2066 
L 2178 2263 
Q 2178 2497 2058 2636 
Q 1938 2775 1678 2775 
Q 1194 2775 1194 2369 
L 291 2369 
Q 291 2809 681 3126 
Q 1072 3444 1728 3444 
Q 2313 3444 2698 3147 
Q 3084 2850 3084 2256 
L 3084 750 
Q 3091 300 3219 53 
L 3219 0 
L 2306 0 
z
M 1559 628 
Q 1788 628 1948 729 
Q 2109 831 2178 953 
L 2178 1541 
L 1809 1541 
Q 1450 1541 1284 1389 
Q 1119 1238 1119 1016 
Q 1119 847 1236 737 
Q 1353 628 1559 628 
z
" transform="scale(0.015625)"/>
       <path id="Roboto-Bold-6e" d="M 1806 2713 
Q 1422 2713 1234 2388 
L 1234 0 
L 331 0 
L 331 3381 
L 1178 3381 
L 1209 2994 
Q 1572 3444 2181 3444 
Q 2659 3444 2953 3159 
Q 3247 2875 3250 2169 
L 3250 0 
L 2344 0 
L 2344 2156 
Q 2344 2481 2205 2597 
Q 2066 2713 1806 2713 
z
" transform="scale(0.015625)"/>
       <path id="Roboto-Bold-63" d="M 1753 666 
Q 2000 666 2159 802 
Q 2319 938 2322 1169 
L 3172 1169 
Q 3166 631 2761 284 
Q 2356 -63 1769 -63 
Q 984 -63 595 432 
Q 206 928 206 1647 
L 206 1734 
Q 206 2450 593 2947 
Q 981 3444 1766 3444 
Q 2388 3444 2777 3087 
Q 3166 2731 3172 2122 
L 2322 2122 
Q 2319 2369 2172 2542 
Q 2025 2716 1750 2716 
Q 1356 2716 1234 2420 
Q 1113 2125 1113 1647 
Q 1113 1256 1233 961 
Q 1353 666 1753 666 
z
" transform="scale(0.015625)"/>
       <path id="Roboto-Bold-65" d="M 3225 550 
Q 3063 319 2731 128 
Q 2400 -63 1906 -63 
Q 1119 -63 675 414 
Q 231 891 228 1566 
L 228 1697 
Q 228 2463 654 2953 
Q 1081 3444 1806 3444 
Q 2534 3444 2915 2987 
Q 3297 2531 3297 1781 
L 3297 1397 
L 1144 1397 
Q 1191 1069 1403 867 
Q 1616 666 1963 666 
Q 2478 666 2778 1044 
L 3225 550 
z
M 1800 2716 
Q 1513 2716 1356 2522 
Q 1200 2328 1153 2016 
L 2409 2016 
L 2409 2084 
Q 2403 2356 2258 2536 
Q 2113 2716 1800 2716 
z
" transform="scale(0.015625)"/>
       <path id="Roboto-Bold-5b" d="M 1728 5297 
L 1728 4600 
L 1281 4600 
L 1281 -366 
L 1728 -366 
L 1728 -1059 
L 375 -1059 
L 375 5297 
L 1728 5297 
z
" transform="scale(0.015625)"/>
       <path id="Roboto-Bold-c5" d="M 25 0 
L 1719 4550 
L 2588 4550 
L 4291 0 
L 3291 0 
L 2978 938 
L 1331 938 
L 1019 0 
L 25 0 
z
M 1584 1697 
L 2725 1697 
L 2156 3406 
L 1584 1697 
z
M 1471 5424 
Q 1471 5683 1668 5873 
Q 1865 6064 2168 6064 
Q 2468 6064 2666 5873 
Q 2865 5683 2865 5424 
Q 2865 5158 2666 4975 
Q 2468 4793 2168 4793 
Q 1865 4793 1668 4975 
Q 1471 5158 1471 5424 
z
M 1830 5423 
Q 1830 5286 1922 5187 
Q 2015 5089 2168 5089 
Q 2321 5089 2413 5187 
Q 2505 5286 2505 5423 
Q 2505 5561 2413 5662 
Q 2321 5764 2168 5764 
Q 2015 5764 1922 5662 
Q 1830 5561 1830 5423 
z
" transform="scale(0.015625)"/>
       <path id="Roboto-Bold-5d" d="M 41 4600 
L 41 5297 
L 1394 5297 
L 1394 -1059 
L 41 -1059 
L 41 -366 
L 491 -366 
L 491 4600 
L 41 4600 
z
" transform="scale(0.015625)"/>
      </defs>
      <use xlink:href="#Roboto-Bold-43"/>
      <use xlink:href="#Roboto-Bold-52" x="65.478516"/>
      <use xlink:href="#Roboto-Bold-4f" x="129.296875"/>
      <use xlink:href="#Roboto-Bold-36" x="198.339844"/>
      <use xlink:href="#Roboto-Bold-36" x="255.712891"/>
      <use xlink:href="#Roboto-Bold-20" x="313.085938"/>
      <use xlink:href="#Roboto-Bold-4f" x="337.988281"/>
      <use xlink:href="#Roboto-Bold-48" x="407.03125"/>
      <use xlink:href="#Roboto-Bold-20" x="477.734375"/>
      <use xlink:href="#Roboto-Bold-2d" x="502.636719"/>
      <use xlink:href="#Roboto-Bold-20" x="541.455078"/>
      <use xlink:href="#Roboto-Bold-48" x="566.357422"/>
      <use xlink:href="#Roboto-Bold-32" x="637.060547"/>
      <use xlink:href="#Roboto-Bold-4f" x="694.433594"/>
      <use xlink:href="#Roboto-Bold-20" x="763.476562"/>
      <use xlink:href="#Roboto-Bold-48" x="788.378906"/>
      <use xlink:href="#Roboto-Bold-20" x="859.082031"/>
      <use xlink:href="#Roboto-Bold-44" x="883.984375"/>
      <use xlink:href="#Roboto-Bold-69" x="949.023438"/>
      <use xlink:href="#Roboto-Bold-73" x="975.537109"/>
      <use xlink:href="#Roboto-Bold-74" x="1027.001953"/>
      <use xlink:href="#Roboto-Bold-61" x="1060.791016"/>
      <use xlink:href="#Roboto-Bold-6e" x="1114.404297"/>
      <use xlink:href="#Roboto-Bold-63" x="1170.410156"/>
      <use xlink:href="#Roboto-Bold-65" x="1222.607422"/>
      <use xlink:href="#Roboto-Bold-20" x="1276.660156"/>
      <use xlink:href="#Roboto-Bold-5b" x="1301.5625"/>
      <use xlink:href="#Roboto-Bold-c5" x="1329.394531"/>
      <use xlink:href="#Roboto-Bold-5d" x="1396.728516"/>
     </g>
    </g>
   </g>
   <g id="matplotlib.axis_2">
    <g id="ytick_1">
     <g id="line2d_11">
      <defs>
       <path id="m9e468a34df" d="M 0 0 
L -3.5 0 
" style="stroke: #c2c1c1; stroke-width: 0.8"/>
      </defs>
      <g>
       <use xlink:href="#m9e468a34df" x="47.252" y="298.6" style="fill: #c2c1c1; stroke: #c2c1c1; stroke-width: 0.8"/>
      </g>
     </g>
     <g id="text_9">
      <!-- −4 -->
      <g style="fill: #191919" transform="translate(28.9145 302.35) scale(0.1 -0.1)">
       <defs>
        <path id="Roboto-Regular-2212" d="M 3134 2509 
L 3134 2034 
L 525 2034 
L 525 2509 
L 3134 2509 
z
" transform="scale(0.015625)"/>
       </defs>
       <use xlink:href="#Roboto-Regular-2212"/>
       <use xlink:href="#Roboto-Regular-34" x="57.177734"/>
      </g>
     </g>
    </g>
    <g id="ytick_2">
     <g id="line2d_12">
      <g>
       <use xlink:href="#m9e468a34df" x="47.252" y="251.623333" style="fill: #c2c1c1; stroke: #c2c1c1; stroke-width: 0.8"/>
      </g>
     </g>
     <g id="text_10">
      <!-- −3 -->
      <g style="fill: #191919" transform="translate(28.9145 255.373333) scale(0.1 -0.1)">
       <use xlink:href="#Roboto-Regular-2212"/>
       <use xlink:href="#Roboto-Regular-33" x="57.177734"/>
      </g>
     </g>
    </g>
    <g id="ytick_3">
     <g id="line2d_13">
      <g>
       <use xlink:href="#m9e468a34df" x="47.252" y="204.646667" style="fill: #c2c1c1; stroke: #c2c1c1; stroke-width: 0.8"/>
      </g>
     </g>
     <g id="text_11">
      <!-- −2 -->
      <g style="fill: #191919" transform="translate(28.9145 208.396667) scale(0.1 -0.1)">
       <use xlink:href="#Roboto-Regular-2212"/>
       <use xlink:href="#Roboto-Regular-32" x="57.177734"/>
      </g>
     </g>
    </g>
    <g id="ytick_4">
     <g id="line2d_14">
      <g>
       <use xlink:href="#m9e468a34df" x="47.252" y="157.67" style="fill: #c2c1c1; stroke: #c2c1c1; stroke-width: 0.8"/>
      </g>
     </g>
     <g id="text_12">
      <!-- −1 -->
      <g style="fill: #191919" transform="translate(28.9145 161.42) scale(0.1 -0.1)">
       <use xlink:href="#Roboto-Regular-2212"/>
       <use xlink:href="#Roboto-Regular-31" x="57.177734"/>
      </g>
     </g>
    </g>
    <g id="ytick_5">
     <g id="line2d_15">
      <g>
       <use xlink:href="#m9e468a34df" x="47.252" y="110.693333" style="fill: #c2c1c1; stroke: #c2c1c1; stroke-width: 0.8"/>
      </g>
     </g>
     <g id="text_13">
      <!-- 0 -->
      <g style="fill: #191919" transform="translate(34.631687 114.443333) scale(0.1 -0.1)">
       <defs>
        <path id="Roboto-Regular-30" d="M 3234 1944 
Q 3234 825 2848 381 
Q 2463 -63 1800 -63 
Q 1156 -63 764 368 
Q 372 800 359 1872 
L 359 2638 
Q 359 3753 750 4183 
Q 1141 4613 1794 4613 
Q 2447 4613 2834 4195 
Q 3222 3778 3234 2709 
L 3234 1944 
z
M 2653 2734 
Q 2653 3503 2434 3822 
Q 2216 4141 1794 4141 
Q 1388 4141 1167 3831 
Q 947 3522 941 2778 
L 941 1850 
Q 941 1088 1164 750 
Q 1388 413 1800 413 
Q 2222 413 2436 745 
Q 2650 1078 2653 1825 
L 2653 2734 
z
" transform="scale(0.015625)"/>
       </defs>
       <use xlink:href="#Roboto-Regular-30"/>
      </g>
     </g>
    </g>
    <g id="ytick_6">
     <g id="line2d_16">
      <g>
       <use xlink:href="#m9e468a34df" x="47.252" y="63.716667" style="fill: #c2c1c1; stroke: #c2c1c1; stroke-width: 0.8"/>
      </g>
     </g>
     <g id="text_14">
      <!-- 1 -->
      <g style="fill: #191919" transform="translate(34.631687 67.466667) scale(0.1 -0.1)">
       <use xlink:href="#Roboto-Regular-31"/>
      </g>
     </g>
    </g>
    <g id="ytick_7">
     <g id="line2d_17">
      <g>
       <use xlink:href="#m9e468a34df" x="47.252" y="16.74" style="fill: #c2c1c1; stroke: #c2c1c1; stroke-width: 0.8"/>
      </g>
     </g>
     <g id="text_15">
      <!-- 2 -->
      <g style="fill: #191919" transform="translate(34.631687 20.49) scale(0.1 -0.1)">
       <use xlink:href="#Roboto-Regular-32"/>
      </g>
     </g>
    </g>
    <g id="text_16">
     <!-- PMF [kcal/mol] -->
     <g style="fill: #191919" transform="translate(22.477 198.489688) rotate(-90) scale(0.12 -0.12)">
      <defs>
       <path id="Roboto-Bold-50" d="M 1347 1606 
L 1347 0 
L 406 0 
L 406 4550 
L 2184 4550 
Q 2991 4550 3442 4125 
Q 3894 3700 3894 3047 
Q 3894 2388 3442 1997 
Q 2991 1606 2184 1606 
L 1347 1606 
z
M 1347 3791 
L 1347 2363 
L 2184 2363 
Q 2588 2363 2766 2553 
Q 2944 2744 2944 3041 
Q 2944 3338 2766 3564 
Q 2588 3791 2184 3791 
L 1347 3791 
z
" transform="scale(0.015625)"/>
       <path id="Roboto-Bold-4d" d="M 2800 1250 
L 3966 4550 
L 5194 4550 
L 5194 0 
L 4253 0 
L 4253 1244 
L 4347 3381 
L 3122 0 
L 2478 0 
L 1253 3381 
L 1347 1244 
L 1347 0 
L 406 0 
L 406 4550 
L 1634 4550 
L 2800 1250 
z
" transform="scale(0.015625)"/>
       <path id="Roboto-Bold-46" d="M 406 0 
L 406 4550 
L 3372 4550 
L 3372 3791 
L 1347 3791 
L 1347 2616 
L 3147 2616 
L 3147 1859 
L 1347 1859 
L 1347 0 
L 406 0 
z
" transform="scale(0.015625)"/>
       <path id="Roboto-Bold-6b" d="M 2444 0 
L 1575 1356 
L 1253 1034 
L 1253 0 
L 350 0 
L 350 4803 
L 1253 4803 
L 1253 2144 
L 1428 2369 
L 2291 3381 
L 3375 3381 
L 2156 1975 
L 3484 0 
L 2444 0 
z
" transform="scale(0.015625)"/>
       <path id="Roboto-Bold-6c" d="M 1303 4800 
L 1303 0 
L 397 0 
L 397 4800 
L 1303 4800 
z
" transform="scale(0.015625)"/>
       <path id="Roboto-Bold-2f" d="M 2306 4550 
L 631 -391 
L -41 -391 
L 1634 4550 
L 2306 4550 
z
" transform="scale(0.015625)"/>
       <path id="Roboto-Bold-6d" d="M 1806 2713 
Q 1431 2713 1253 2394 
L 1253 0 
L 347 0 
L 347 3381 
L 1197 3381 
L 1228 3009 
Q 1581 3444 2197 3444 
Q 2850 3444 3094 2928 
Q 3441 3444 4109 3444 
Q 4597 3444 4894 3156 
Q 5191 2869 5194 2169 
L 5194 0 
L 4288 0 
L 4288 2156 
Q 4288 2494 4152 2603 
Q 4016 2713 3781 2713 
Q 3381 2713 3222 2334 
L 3222 0 
L 2319 0 
L 2319 2150 
Q 2319 2484 2181 2598 
Q 2044 2713 1806 2713 
z
" transform="scale(0.015625)"/>
       <path id="Roboto-Bold-6f" d="M 206 1722 
Q 206 2459 625 2951 
Q 1044 3444 1806 3444 
Q 2578 3444 2993 2951 
Q 3409 2459 3409 1722 
L 3409 1656 
Q 3409 919 2993 428 
Q 2578 -63 1813 -63 
Q 1053 -63 636 415 
Q 219 894 206 1616 
L 206 1722 
z
M 1113 1656 
Q 1113 1244 1270 955 
Q 1428 666 1813 666 
Q 2191 666 2348 953 
Q 2506 1241 2506 1722 
Q 2506 2125 2348 2420 
Q 2191 2716 1806 2716 
Q 1425 2716 1269 2422 
Q 1113 2128 1113 1656 
z
" transform="scale(0.015625)"/>
      </defs>
      <use xlink:href="#Roboto-Bold-50"/>
      <use xlink:href="#Roboto-Bold-4d" x="64.550781"/>
      <use xlink:href="#Roboto-Bold-46" x="152.148438"/>
      <use xlink:href="#Roboto-Bold-20" x="206.982422"/>
      <use xlink:href="#Roboto-Bold-5b" x="231.884766"/>
      <use xlink:href="#Roboto-Bold-6b" x="259.716797"/>
      <use xlink:href="#Roboto-Bold-63" x="313.134766"/>
      <use xlink:href="#Roboto-Bold-61" x="365.332031"/>
      <use xlink:href="#Roboto-Bold-6c" x="418.945312"/>
      <use xlink:href="#Roboto-Bold-2f" x="445.458984"/>
      <use xlink:href="#Roboto-Bold-6d" x="482.861328"/>
      <use xlink:href="#Roboto-Bold-6f" x="569.433594"/>
      <use xlink:href="#Roboto-Bold-6c" x="625.976562"/>
      <use xlink:href="#Roboto-Bold-5d" x="652.490234"/>
     </g>
    </g>
   </g>
   <g id="line2d_18">
    <path d="M 74.486966 -1 
L 75.854466 31.076854 
L 77.181726 57.456198 
L 78.508987 79.968636 
L 79.836248 99.626281 
L 81.163508 116.888776 
L 82.490769 131.940689 
L 83.818029 144.898183 
L 85.14529 155.835316 
L 86.472551 164.730279 
L 87.799811 171.630768 
L 89.127072 176.869764 
L 90.454332 180.98275 
L 91.781593 184.277389 
L 93.108854 186.691135 
L 93.772484 187.524831 
L 94.436114 188.103501 
L 95.099744 188.441209 
L 95.763375 188.567621 
L 96.427005 188.51798 
L 97.090635 188.317652 
L 97.754266 187.974136 
L 98.417896 187.48404 
L 99.745156 186.077282 
L 101.072417 184.212763 
L 102.399678 182.00096 
L 104.390569 178.113487 
L 107.04509 172.179814 
L 109.035981 167.192905 
L 113.681393 154.548582 
L 115.672284 149.83275 
L 117.663175 145.135191 
L 119.654065 139.356812 
L 122.972217 129.89529 
L 124.963108 124.559854 
L 128.94489 115.060043 
L 129.60852 113.824656 
L 132.263041 109.68798 
L 134.917562 104.269727 
L 138.899344 97.795368 
L 140.226605 95.491232 
L 140.890235 94.866259 
L 141.553865 94.67717 
L 142.881126 94.815382 
L 143.544756 94.69801 
L 144.208386 94.349103 
L 145.535647 93.1918 
L 148.190168 90.37557 
L 148.853798 90.046573 
L 149.517429 90.04812 
L 150.181059 90.323397 
L 151.50832 91.121121 
L 152.83558 91.577181 
L 153.499211 91.801094 
L 154.162841 92.216387 
L 155.490101 93.685713 
L 156.817362 95.103035 
L 157.480992 95.479256 
L 158.144623 95.622683 
L 160.135514 95.652042 
L 160.799144 95.858238 
L 162.126404 96.63719 
L 164.780926 98.675931 
L 166.108186 99.730636 
L 166.771816 100.370054 
L 167.435447 101.212883 
L 168.099077 102.310936 
L 169.426338 105.107361 
L 171.417229 110.080312 
L 174.07175 117.284739 
L 175.39901 120.269323 
L 179.380792 128.400459 
L 180.708053 130.349819 
L 184.026204 134.78752 
L 184.689835 135.438932 
L 186.017095 136.257041 
L 188.007986 137.092817 
L 188.671616 137.24693 
L 189.335247 137.202627 
L 189.998877 136.92085 
L 191.326137 135.863266 
L 198.626071 129.28421 
L 199.953331 127.869896 
L 201.280592 126.139374 
L 202.607853 124.321712 
L 203.935113 122.875344 
L 205.262374 121.553042 
L 208.580525 117.867115 
L 209.907786 116.73509 
L 211.235046 115.279742 
L 213.225937 112.992446 
L 215.216828 111.042707 
L 215.880458 110.501881 
L 216.544089 110.129611 
L 217.207719 109.943317 
L 218.53498 109.884897 
L 221.189501 109.866451 
L 221.853131 109.617693 
L 222.516761 109.145448 
L 225.171283 106.583832 
L 225.834913 106.316626 
L 226.498543 106.29393 
L 227.825804 106.689061 
L 229.153064 107.053746 
L 230.480325 107.140615 
L 233.134846 106.921523 
L 234.462107 106.677293 
L 235.125737 106.412788 
L 236.452998 105.528457 
L 239.107519 103.177161 
L 239.771149 102.772927 
L 240.434779 102.521474 
L 241.76204 102.406523 
L 244.416561 102.624177 
L 245.080192 102.468993 
L 246.407452 101.749418 
L 247.071082 101.355355 
L 247.734713 101.110451 
L 248.398343 101.102905 
L 249.061973 101.324777 
L 250.389234 101.983862 
L 251.052864 102.140414 
L 251.716494 102.087331 
L 253.043755 101.547043 
L 253.707385 101.274837 
L 254.371016 101.14488 
L 255.034646 101.216375 
L 255.698276 101.496659 
L 257.025537 102.542969 
L 259.016428 104.429222 
L 259.680058 104.82334 
L 260.343688 104.989793 
L 261.007319 104.929351 
L 262.99821 104.199095 
L 263.66184 104.138786 
L 264.9891 104.411252 
L 266.979991 104.959935 
L 269.634513 105.993649 
L 270.298143 105.999861 
L 272.952664 105.64124 
L 274.943555 105.770106 
L 276.934446 105.540453 
L 277.598076 105.621325 
L 278.925337 106.177091 
L 280.252597 106.881573 
L 280.916228 107.131802 
L 281.579858 107.257589 
L 282.907118 107.179869 
L 283.570749 107.125756 
L 284.234379 107.192768 
L 285.56164 107.749557 
L 286.8889 108.354385 
L 287.552531 108.494106 
L 288.879791 108.445674 
L 290.870682 108.224955 
L 292.197943 108.1619 
L 293.525203 107.840301 
L 296.179724 107.069958 
L 296.843355 106.653245 
L 299.497876 104.373914 
L 300.161506 104.313573 
L 302.152397 104.816685 
L 302.816027 104.757324 
L 306.134179 103.756322 
L 307.461439 103.51035 
L 308.7887 102.884466 
L 311.443221 101.244409 
L 312.770482 100.784445 
L 314.097742 100.331986 
L 315.425003 99.528926 
L 318.079524 97.690915 
L 320.070415 96.459478 
L 320.734045 96.26093 
L 322.061306 96.135149 
L 322.724936 95.895152 
L 323.388567 95.384 
L 324.715827 93.954603 
L 325.379457 93.477965 
L 326.043088 93.316207 
L 327.370348 93.234234 
L 328.033979 92.882313 
L 329.361239 91.738226 
L 330.02487 91.43581 
L 330.6885 91.543399 
L 331.35213 92.010421 
L 332.679391 93.137137 
L 333.343021 93.312686 
L 334.006651 93.077441 
L 335.997542 91.405339 
L 337.988433 90.584664 
L 339.315694 89.422492 
L 339.979324 88.797265 
L 340.642954 88.334429 
L 343.297475 87.083127 
L 344.624736 85.942659 
L 345.288366 85.591681 
L 345.951997 85.535779 
L 347.279257 86.025188 
L 347.942888 86.26659 
L 348.606518 86.335878 
L 349.270148 86.193175 
L 350.597409 85.471054 
L 351.261039 85.098052 
L 351.924669 84.889129 
L 352.5883 84.968913 
L 353.25193 85.387026 
L 354.579191 86.696572 
L 355.242821 87.080322 
L 355.906451 87.054917 
L 356.570081 86.675267 
L 357.897342 85.62441 
L 359.224603 84.869906 
L 360.551863 84.237143 
L 361.215493 84.107359 
L 361.879124 84.25115 
L 363.870015 85.344599 
L 364.533645 85.229699 
L 365.197275 84.72011 
L 367.188166 82.421889 
L 367.851796 82.081017 
L 368.515427 82.125695 
L 369.179057 82.481255 
L 370.506318 83.400631 
L 371.169948 83.574786 
L 371.833578 83.419387 
L 372.497209 82.978393 
L 373.824469 81.6861 
L 375.15173 80.140817 
L 376.47899 78.533317 
L 377.142621 77.975389 
L 377.806251 77.688289 
L 378.469881 77.632036 
L 379.797142 77.718014 
L 380.460772 77.626633 
L 381.788033 77.112946 
L 383.778924 76.264213 
L 384.442554 75.796751 
L 385.769814 74.279961 
L 387.097075 72.784977 
L 387.760705 72.413939 
L 388.424336 72.331723 
L 389.751596 72.460814 
L 390.415227 72.213348 
L 391.078857 71.509168 
L 391.742487 70.350132 
L 393.069748 67.651483 
L 393.733378 66.824489 
L 394.397008 66.606085 
L 395.060639 66.854425 
L 396.387899 67.587625 
L 397.05153 67.645351 
L 397.71516 67.383364 
L 398.37879 66.825018 
L 400.369681 64.673784 
L 401.696942 63.449091 
L 405.015093 59.789387 
L 406.342354 58.698065 
L 407.005984 58.385769 
L 407.669614 58.323567 
L 408.996875 58.602214 
L 409.660505 58.54317 
L 410.324135 58.126154 
L 410.987766 57.325985 
L 412.315026 54.965884 
L 413.642287 52.121767 
L 415.633178 47.037332 
L 416.296808 46.068462 
L 416.960438 46.145106 
L 417.624069 47.125165 
L 418.287699 48.368991 
L 418.951329 49.195545 
L 419.61496 49.260758 
L 420.27859 48.630235 
L 421.605851 46.719977 
L 422.269481 46.106406 
L 422.933111 45.82827 
L 425.587632 45.404788 
L 426.251263 45.107613 
L 426.914893 44.642696 
L 428.242153 43.213734 
L 429.569414 41.540336 
L 430.233044 40.524955 
L 431.560305 37.679109 
L 432.887566 34.747603 
L 434.878456 31.347787 
L 435.542087 30.420685 
L 436.205717 29.950082 
L 436.869347 30.047711 
L 437.532978 30.562599 
L 438.860238 31.984401 
L 440.187499 33.842238 
L 440.851129 34.805427 
L 441.514759 35.335294 
L 442.17839 35.089822 
L 442.84202 33.995242 
L 444.832911 29.016296 
L 445.496541 28.158993 
L 446.160172 27.853467 
L 447.487432 27.942002 
L 448.814693 28.215803 
L 450.141953 28.601926 
L 450.805584 28.468997 
L 451.469214 27.805406 
L 452.132844 26.451626 
L 452.796474 24.380501 
L 454.787365 16.409377 
L 455.450996 14.631097 
L 456.114626 13.580574 
L 456.778256 12.842101 
L 457.441887 11.890371 
L 458.105517 10.38887 
L 460.096408 4.132932 
L 460.760038 3.17964 
L 461.423668 3.320993 
L 461.8 3.826294 
L 461.8 3.826294 
" clip-path="url(#p025e5f1847)" style="fill: none; stroke: #f99752; stroke-width: 2.5; stroke-linecap: square"/>
   </g>
   <g id="patch_3">
    <path d="M 47.252 298.6 
L 47.252 16.74 
" style="fill: none; stroke: #c2c1c1; stroke-width: 0.8; stroke-linejoin: miter; stroke-linecap: square"/>
   </g>
   <g id="patch_4">
    <path d="M 445.032 298.6 
L 445.032 16.74 
" style="fill: none; stroke: #c2c1c1; stroke-width: 0.8; stroke-linejoin: miter; stroke-linecap: square"/>
   </g>
   <g id="patch_5">
    <path d="M 47.252 298.6 
L 445.032 298.6 
" style="fill: none; stroke: #c2c1c1; stroke-width: 0.8; stroke-linejoin: miter; stroke-linecap: square"/>
   </g>
   <g id="patch_6">
    <path d="M 47.252 16.74 
L 445.032 16.74 
" style="fill: none; stroke: #c2c1c1; stroke-width: 0.8; stroke-linejoin: miter; stroke-linecap: square"/>
   </g>
   <g id="legend_1">
    <g id="line2d_19">
     <path d="M 354.0795 245.344375 
L 366.0795 245.344375 
L 378.0795 245.344375 
" style="fill: none; stroke: #1e2e79; stroke-width: 2.5; stroke-linecap: square"/>
    </g>
    <g id="text_17">
     <!-- Reduced -->
     <g transform="translate(387.6795 249.544375) scale(0.12 -0.12)">
      <defs>
       <path id="Roboto-Regular-52" d="M 3188 0 
L 2200 1844 
L 1131 1844 
L 1131 0 
L 528 0 
L 528 4550 
L 2034 4550 
Q 2800 4550 3214 4200 
Q 3628 3850 3628 3184 
Q 3628 2759 3398 2442 
Q 3169 2125 2763 1969 
L 3831 38 
L 3831 0 
L 3188 0 
z
M 1131 4056 
L 1131 2334 
L 2053 2334 
Q 2538 2334 2783 2582 
Q 3028 2831 3028 3184 
Q 3028 3578 2792 3817 
Q 2556 4056 2034 4056 
L 1131 4056 
z
" transform="scale(0.015625)"/>
       <path id="Roboto-Regular-65" d="M 3116 591 
Q 2950 341 2647 139 
Q 2344 -63 1844 -63 
Q 1138 -63 714 396 
Q 291 856 291 1572 
L 291 1703 
Q 291 2256 502 2645 
Q 713 3034 1050 3239 
Q 1388 3444 1769 3444 
Q 2494 3444 2826 2970 
Q 3159 2497 3159 1788 
L 3159 1528 
L 872 1528 
Q 884 1063 1148 736 
Q 1413 409 1875 409 
Q 2181 409 2393 534 
Q 2606 659 2766 869 
L 3116 591 
z
M 1769 2969 
Q 1425 2969 1187 2719 
Q 950 2469 891 2000 
L 2581 2000 
L 2581 2044 
Q 2559 2381 2386 2675 
Q 2213 2969 1769 2969 
z
" transform="scale(0.015625)"/>
       <path id="Roboto-Regular-64" d="M 2622 0 
L 2594 363 
Q 2247 -63 1628 -63 
Q 1034 -63 668 418 
Q 303 900 297 1628 
L 297 1719 
Q 297 2494 664 2969 
Q 1031 3444 1634 3444 
Q 2231 3444 2572 3044 
L 2572 4800 
L 3153 4800 
L 3153 0 
L 2622 0 
z
M 878 1653 
Q 878 1150 1090 789 
Q 1303 428 1772 428 
Q 2309 428 2572 919 
L 2572 2475 
Q 2313 2956 1778 2956 
Q 1306 2956 1092 2589 
Q 878 2222 878 1719 
L 878 1653 
z
" transform="scale(0.015625)"/>
       <path id="Roboto-Regular-75" d="M 2538 0 
L 2525 334 
Q 2194 -63 1538 -63 
Q 1041 -63 734 231 
Q 428 525 428 1200 
L 428 3381 
L 1006 3381 
L 1006 1194 
Q 1006 738 1198 583 
Q 1391 428 1628 428 
Q 2281 428 2509 919 
L 2509 3381 
L 3091 3381 
L 3091 0 
L 2538 0 
z
" transform="scale(0.015625)"/>
       <path id="Roboto-Regular-63" d="M 1794 413 
Q 2103 413 2336 597 
Q 2569 781 2591 1069 
L 3141 1069 
Q 3119 616 2725 276 
Q 2331 -63 1794 -63 
Q 1031 -63 661 440 
Q 291 944 291 1625 
L 291 1756 
Q 291 2438 661 2941 
Q 1031 3444 1794 3444 
Q 2388 3444 2753 3092 
Q 3119 2741 3141 2219 
L 2591 2219 
Q 2569 2531 2355 2750 
Q 2141 2969 1794 2969 
Q 1438 2969 1236 2787 
Q 1034 2606 951 2328 
Q 869 2050 869 1756 
L 869 1625 
Q 869 1328 950 1050 
Q 1031 772 1232 592 
Q 1434 413 1794 413 
z
" transform="scale(0.015625)"/>
      </defs>
      <use xlink:href="#Roboto-Regular-52"/>
      <use xlink:href="#Roboto-Regular-65" x="61.621094"/>
      <use xlink:href="#Roboto-Regular-64" x="114.648438"/>
      <use xlink:href="#Roboto-Regular-75" x="171.044922"/>
      <use xlink:href="#Roboto-Regular-63" x="226.171875"/>
      <use xlink:href="#Roboto-Regular-65" x="278.515625"/>
      <use xlink:href="#Roboto-Regular-64" x="331.542969"/>
     </g>
    </g>
    <g id="line2d_20">
     <path d="M 354.0795 262.781875 
L 366.0795 262.781875 
L 378.0795 262.781875 
" style="fill: none; stroke: #ec4067; stroke-width: 2.5; stroke-linecap: square"/>
    </g>
    <g id="text_18">
     <!-- Oxidized -->
     <g transform="translate(387.6795 266.981875) scale(0.12 -0.12)">
      <defs>
       <path id="Roboto-Regular-4f" d="M 4031 2131 
Q 4031 1106 3534 521 
Q 3038 -63 2206 -63 
Q 1397 -63 884 521 
Q 372 1106 372 2131 
L 372 2419 
Q 372 3441 881 4027 
Q 1391 4613 2200 4613 
Q 3025 4613 3523 4036 
Q 4022 3459 4031 2456 
L 4031 2131 
z
M 3434 2425 
Q 3434 3238 3109 3669 
Q 2784 4100 2200 4100 
Q 1641 4100 1305 3669 
Q 969 3238 969 2425 
L 969 2131 
Q 969 1313 1308 880 
Q 1647 447 2206 447 
Q 2794 447 3114 880 
Q 3434 1313 3434 2131 
L 3434 2425 
z
" transform="scale(0.015625)"/>
       <path id="Roboto-Regular-78" d="M 831 3381 
L 1572 2150 
L 2322 3381 
L 3000 3381 
L 1894 1713 
L 3034 0 
L 2366 0 
L 1584 1269 
L 803 0 
L 131 0 
L 1269 1713 
L 166 3381 
L 831 3381 
z
" transform="scale(0.015625)"/>
       <path id="Roboto-Regular-69" d="M 444 4278 
Q 444 4419 530 4516 
Q 616 4613 784 4613 
Q 950 4613 1039 4516 
Q 1128 4419 1128 4278 
Q 1128 4144 1039 4048 
Q 950 3953 784 3953 
Q 616 3953 530 4048 
Q 444 4144 444 4278 
z
M 1069 3381 
L 1069 0 
L 488 0 
L 488 3381 
L 1069 3381 
z
" transform="scale(0.015625)"/>
       <path id="Roboto-Regular-7a" d="M 303 2903 
L 303 3381 
L 2869 3381 
L 2869 2972 
L 988 475 
L 2959 475 
L 2959 0 
L 278 0 
L 278 425 
L 2141 2903 
L 303 2903 
z
" transform="scale(0.015625)"/>
      </defs>
      <use xlink:href="#Roboto-Regular-4f"/>
      <use xlink:href="#Roboto-Regular-78" x="68.798828"/>
      <use xlink:href="#Roboto-Regular-69" x="118.408203"/>
      <use xlink:href="#Roboto-Regular-64" x="142.724609"/>
      <use xlink:href="#Roboto-Regular-69" x="199.121094"/>
      <use xlink:href="#Roboto-Regular-7a" x="223.4375"/>
      <use xlink:href="#Roboto-Regular-65" x="273.046875"/>
      <use xlink:href="#Roboto-Regular-64" x="326.074219"/>
     </g>
    </g>
    <g id="line2d_21">
     <path d="M 354.0795 280.845625 
L 366.0795 280.845625 
L 378.0795 280.845625 
" style="fill: none; stroke: #f99752; stroke-width: 2.5; stroke-linecap: square"/>
    </g>
    <g id="text_19">
     <!-- Cu(I) -->
     <g transform="translate(387.6795 285.045625) scale(0.12 -0.12)">
      <defs>
       <path id="Roboto-Regular-43" d="M 3275 1447 
L 3875 1447 
Q 3806 800 3387 368 
Q 2969 -63 2150 -63 
Q 1356 -63 870 504 
Q 384 1072 375 2013 
L 375 2500 
Q 375 3456 867 4034 
Q 1359 4613 2203 4613 
Q 2975 4613 3390 4188 
Q 3806 3763 3875 3091 
L 3275 3091 
Q 3206 3566 2968 3842 
Q 2731 4119 2203 4119 
Q 1600 4119 1287 3675 
Q 975 3231 975 2506 
L 975 2047 
Q 975 1375 1259 901 
Q 1544 428 2150 428 
Q 2725 428 2961 697 
Q 3197 966 3275 1447 
z
" transform="scale(0.015625)"/>
       <path id="Roboto-Regular-28" d="M 419 1850 
Q 419 2756 678 3434 
Q 938 4113 1294 4541 
Q 1650 4969 1947 5134 
L 2069 4753 
Q 1700 4475 1348 3761 
Q 997 3047 997 1813 
Q 997 625 1348 -97 
Q 1700 -819 2069 -1119 
L 1947 -1469 
Q 1650 -1306 1294 -878 
Q 938 -450 678 226 
Q 419 903 419 1850 
z
" transform="scale(0.015625)"/>
       <path id="Roboto-Regular-49" d="M 1175 4550 
L 1175 0 
L 572 0 
L 572 4550 
L 1175 4550 
z
" transform="scale(0.015625)"/>
       <path id="Roboto-Regular-29" d="M 1772 1819 
Q 1772 906 1512 228 
Q 1253 -450 895 -878 
Q 538 -1306 244 -1469 
L 122 -1119 
Q 488 -841 841 -109 
Q 1194 622 1194 1856 
Q 1194 2647 1019 3236 
Q 844 3825 594 4212 
Q 344 4600 122 4781 
L 244 5134 
Q 538 4969 895 4541 
Q 1253 4113 1512 3436 
Q 1772 2759 1772 1819 
z
" transform="scale(0.015625)"/>
      </defs>
      <use xlink:href="#Roboto-Regular-43"/>
      <use xlink:href="#Roboto-Regular-75" x="65.087891"/>
      <use xlink:href="#Roboto-Regular-28" x="120.214844"/>
      <use xlink:href="#Roboto-Regular-49" x="154.443359"/>
      <use xlink:href="#Roboto-Regular-29" x="181.640625"/>
     </g>
    </g>
   </g>
  </g>
 </g>
 <defs>
  <clipPath id="p025e5f1847">
   <rect x="47.252" y="16.74" width="397.78" height="281.86"/>
  </clipPath>
 </defs>
</svg>
