<?xml version="1.0" encoding="utf-8" standalone="no"?>
<!DOCTYPE svg PUBLIC "-//W3C//DTD SVG 1.1//EN"
  "http://www.w3.org/Graphics/SVG/1.1/DTD/svg11.dtd">
<svg xmlns:xlink="http://www.w3.org/1999/xlink" width="460.8pt" height="345.6pt" viewBox="0 0 460.8 345.6" xmlns="http://www.w3.org/2000/svg" version="1.1">
 <metadata>
  <rdf:RDF xmlns:dc="http://purl.org/dc/elements/1.1/" xmlns:cc="http://creativecommons.org/ns#" xmlns:rdf="http://www.w3.org/1999/02/22-rdf-syntax-ns#">
   <cc:Work>
    <dc:type rdf:resource="http://purl.org/dc/dcmitype/StillImage"/>
    <dc:date>2024-01-24T10:05:35.806688</dc:date>
    <dc:format>image/svg+xml</dc:format>
    <dc:creator>
     <cc:Agent>
      <dc:title>Matplotlib v3.8.2, https://matplotlib.org/</dc:title>
     </cc:Agent>
    </dc:creator>
   </cc:Work>
  </rdf:RDF>
 </metadata>
 <defs>
  <style type="text/css">*{stroke-linejoin: round; stroke-linecap: butt}</style>
 </defs>
 <g id="figure_1">
  <g id="patch_1">
   <path d="M 0 345.6 
L 460.8 345.6 
L 460.8 0 
L 0 0 
z
" style="fill: #ffffff"/>
  </g>
  <g id="axes_1">
   <g id="patch_2">
    <path d="M 47.81 302.8525 
L 450 302.8525 
L 450 10.8 
L 47.81 10.8 
z
" style="fill: #ffffff"/>
   </g>
   <g id="patch_3">
    <path d="M 69.402855 302.8525 
L 73.741365 302.8525 
L 73.741365 302.25062 
L 69.402855 302.25062 
z
" clip-path="url(#p466272a150)" style="fill: #1e2e79; fill-opacity: 0.5; stroke: #000000; stroke-width: 0.327934; stroke-linejoin: miter"/>
   </g>
   <g id="patch_4">
    <path d="M 73.741365 302.8525 
L 78.079874 302.8525 
L 78.079874 297.372228 
L 73.741365 297.372228 
z
" clip-path="url(#p466272a150)" style="fill: #1e2e79; fill-opacity: 0.5; stroke: #000000; stroke-width: 0.327934; stroke-linejoin: miter"/>
   </g>
   <g id="patch_5">
    <path d="M 78.079874 302.8525 
L 82.418384 302.8525 
L 82.418384 280.076109 
L 78.079874 280.076109 
z
" clip-path="url(#p466272a150)" style="fill: #1e2e79; fill-opacity: 0.5; stroke: #000000; stroke-width: 0.327934; stroke-linejoin: miter"/>
   </g>
   <g id="patch_6">
    <path d="M 82.418384 302.8525 
L 86.756893 302.8525 
L 86.756893 254.13193 
L 82.418384 254.13193 
z
" clip-path="url(#p466272a150)" style="fill: #1e2e79; fill-opacity: 0.5; stroke: #000000; stroke-width: 0.327934; stroke-linejoin: miter"/>
   </g>
   <g id="patch_7">
    <path d="M 86.756893 302.8525 
L 91.095403 302.8525 
L 91.095403 224.766541 
L 86.756893 224.766541 
z
" clip-path="url(#p466272a150)" style="fill: #1e2e79; fill-opacity: 0.5; stroke: #000000; stroke-width: 0.327934; stroke-linejoin: miter"/>
   </g>
   <g id="patch_8">
    <path d="M 91.095403 302.8525 
L 95.433912 302.8525 
L 95.433912 212.25378 
L 91.095403 212.25378 
z
" clip-path="url(#p466272a150)" style="fill: #1e2e79; fill-opacity: 0.5; stroke: #000000; stroke-width: 0.327934; stroke-linejoin: miter"/>
   </g>
   <g id="patch_9">
    <path d="M 95.433912 302.8525 
L 99.772422 302.8525 
L 99.772422 218.399288 
L 95.433912 218.399288 
z
" clip-path="url(#p466272a150)" style="fill: #1e2e79; fill-opacity: 0.5; stroke: #000000; stroke-width: 0.327934; stroke-linejoin: miter"/>
   </g>
   <g id="patch_10">
    <path d="M 99.772422 302.8525 
L 104.110931 302.8525 
L 104.110931 229.835 
L 99.772422 229.835 
z
" clip-path="url(#p466272a150)" style="fill: #1e2e79; fill-opacity: 0.5; stroke: #000000; stroke-width: 0.327934; stroke-linejoin: miter"/>
   </g>
   <g id="patch_11">
    <path d="M 104.110931 302.8525 
L 108.449441 302.8525 
L 108.449441 248.651658 
L 104.110931 248.651658 
z
" clip-path="url(#p466272a150)" style="fill: #1e2e79; fill-opacity: 0.5; stroke: #000000; stroke-width: 0.327934; stroke-linejoin: miter"/>
   </g>
   <g id="patch_12">
    <path d="M 108.449441 302.8525 
L 112.78795 302.8525 
L 112.78795 262.114754 
L 108.449441 262.114754 
z
" clip-path="url(#p466272a150)" style="fill: #1e2e79; fill-opacity: 0.5; stroke: #000000; stroke-width: 0.327934; stroke-linejoin: miter"/>
   </g>
   <g id="patch_13">
    <path d="M 112.78795 302.8525 
L 117.12646 302.8525 
L 117.12646 274.564159 
L 112.78795 274.564159 
z
" clip-path="url(#p466272a150)" style="fill: #1e2e79; fill-opacity: 0.5; stroke: #000000; stroke-width: 0.327934; stroke-linejoin: miter"/>
   </g>
   <g id="patch_14">
    <path d="M 117.12646 302.8525 
L 121.464969 302.8525 
L 121.464969 282.990473 
L 117.12646 282.990473 
z
" clip-path="url(#p466272a150)" style="fill: #1e2e79; fill-opacity: 0.5; stroke: #000000; stroke-width: 0.327934; stroke-linejoin: miter"/>
   </g>
   <g id="patch_15">
    <path d="M 121.464969 302.8525 
L 125.803479 302.8525 
L 125.803479 288.439067 
L 121.464969 288.439067 
z
" clip-path="url(#p466272a150)" style="fill: #1e2e79; fill-opacity: 0.5; stroke: #000000; stroke-width: 0.327934; stroke-linejoin: miter"/>
   </g>
   <g id="patch_16">
    <path d="M 125.803479 302.8525 
L 130.141989 302.8525 
L 130.141989 292.842292 
L 125.803479 292.842292 
z
" clip-path="url(#p466272a150)" style="fill: #1e2e79; fill-opacity: 0.5; stroke: #000000; stroke-width: 0.327934; stroke-linejoin: miter"/>
   </g>
   <g id="patch_17">
    <path d="M 130.141989 302.8525 
L 134.480498 302.8525 
L 134.480498 294.426186 
L 130.141989 294.426186 
z
" clip-path="url(#p466272a150)" style="fill: #1e2e79; fill-opacity: 0.5; stroke: #000000; stroke-width: 0.327934; stroke-linejoin: miter"/>
   </g>
   <g id="patch_18">
    <path d="M 134.480498 302.8525 
L 138.819008 302.8525 
L 138.819008 295.028065 
L 134.480498 295.028065 
z
" clip-path="url(#p466272a150)" style="fill: #1e2e79; fill-opacity: 0.5; stroke: #000000; stroke-width: 0.327934; stroke-linejoin: miter"/>
   </g>
   <g id="patch_19">
    <path d="M 138.819008 302.8525 
L 143.157517 302.8525 
L 143.157517 294.80632 
L 138.819008 294.80632 
z
" clip-path="url(#p466272a150)" style="fill: #1e2e79; fill-opacity: 0.5; stroke: #000000; stroke-width: 0.327934; stroke-linejoin: miter"/>
   </g>
   <g id="patch_20">
    <path d="M 143.157517 302.8525 
L 147.496027 302.8525 
L 147.496027 294.267796 
L 143.157517 294.267796 
z
" clip-path="url(#p466272a150)" style="fill: #1e2e79; fill-opacity: 0.5; stroke: #000000; stroke-width: 0.327934; stroke-linejoin: miter"/>
   </g>
   <g id="patch_21">
    <path d="M 147.496027 302.8525 
L 151.834536 302.8525 
L 151.834536 291.353432 
L 147.496027 291.353432 
z
" clip-path="url(#p466272a150)" style="fill: #1e2e79; fill-opacity: 0.5; stroke: #000000; stroke-width: 0.327934; stroke-linejoin: miter"/>
   </g>
   <g id="patch_22">
    <path d="M 151.834536 302.8525 
L 156.173046 302.8525 
L 156.173046 288.470745 
L 151.834536 288.470745 
z
" clip-path="url(#p466272a150)" style="fill: #1e2e79; fill-opacity: 0.5; stroke: #000000; stroke-width: 0.327934; stroke-linejoin: miter"/>
   </g>
   <g id="patch_23">
    <path d="M 156.173046 302.8525 
L 160.511555 302.8525 
L 160.511555 283.465641 
L 156.173046 283.465641 
z
" clip-path="url(#p466272a150)" style="fill: #1e2e79; fill-opacity: 0.5; stroke: #000000; stroke-width: 0.327934; stroke-linejoin: miter"/>
   </g>
   <g id="patch_24">
    <path d="M 160.511555 302.8525 
L 164.850065 302.8525 
L 164.850065 275.894629 
L 160.511555 275.894629 
z
" clip-path="url(#p466272a150)" style="fill: #1e2e79; fill-opacity: 0.5; stroke: #000000; stroke-width: 0.327934; stroke-linejoin: miter"/>
   </g>
   <g id="patch_25">
    <path d="M 164.850065 302.8525 
L 169.188574 302.8525 
L 169.188574 267.468315 
L 164.850065 267.468315 
z
" clip-path="url(#p466272a150)" style="fill: #1e2e79; fill-opacity: 0.5; stroke: #000000; stroke-width: 0.327934; stroke-linejoin: miter"/>
   </g>
   <g id="patch_26">
    <path d="M 169.188574 302.8525 
L 173.527084 302.8525 
L 173.527084 254.765487 
L 169.188574 254.765487 
z
" clip-path="url(#p466272a150)" style="fill: #1e2e79; fill-opacity: 0.5; stroke: #000000; stroke-width: 0.327934; stroke-linejoin: miter"/>
   </g>
   <g id="patch_27">
    <path d="M 173.527084 302.8525 
L 177.865593 302.8525 
L 177.865593 246.655952 
L 173.527084 246.655952 
z
" clip-path="url(#p466272a150)" style="fill: #1e2e79; fill-opacity: 0.5; stroke: #000000; stroke-width: 0.327934; stroke-linejoin: miter"/>
   </g>
   <g id="patch_28">
    <path d="M 177.865593 302.8525 
L 182.204103 302.8525 
L 182.204103 234.808427 
L 177.865593 234.808427 
z
" clip-path="url(#p466272a150)" style="fill: #1e2e79; fill-opacity: 0.5; stroke: #000000; stroke-width: 0.327934; stroke-linejoin: miter"/>
   </g>
   <g id="patch_29">
    <path d="M 182.204103 302.8525 
L 186.542612 302.8525 
L 186.542612 226.318756 
L 182.204103 226.318756 
z
" clip-path="url(#p466272a150)" style="fill: #1e2e79; fill-opacity: 0.5; stroke: #000000; stroke-width: 0.327934; stroke-linejoin: miter"/>
   </g>
   <g id="patch_30">
    <path d="M 186.542612 302.8525 
L 190.881122 302.8525 
L 190.881122 219.698081 
L 186.542612 219.698081 
z
" clip-path="url(#p466272a150)" style="fill: #1e2e79; fill-opacity: 0.5; stroke: #000000; stroke-width: 0.327934; stroke-linejoin: miter"/>
   </g>
   <g id="patch_31">
    <path d="M 190.881122 302.8525 
L 195.219631 302.8525 
L 195.219631 219.508014 
L 190.881122 219.508014 
z
" clip-path="url(#p466272a150)" style="fill: #1e2e79; fill-opacity: 0.5; stroke: #000000; stroke-width: 0.327934; stroke-linejoin: miter"/>
   </g>
   <g id="patch_32">
    <path d="M 195.219631 302.8525 
L 199.558141 302.8525 
L 199.558141 222.929224 
L 195.219631 222.929224 
z
" clip-path="url(#p466272a150)" style="fill: #1e2e79; fill-opacity: 0.5; stroke: #000000; stroke-width: 0.327934; stroke-linejoin: miter"/>
   </g>
   <g id="patch_33">
    <path d="M 199.558141 302.8525 
L 203.89665 302.8525 
L 203.89665 226.255401 
L 199.558141 226.255401 
z
" clip-path="url(#p466272a150)" style="fill: #1e2e79; fill-opacity: 0.5; stroke: #000000; stroke-width: 0.327934; stroke-linejoin: miter"/>
   </g>
   <g id="patch_34">
    <path d="M 203.89665 302.8525 
L 208.23516 302.8525 
L 208.23516 233.129499 
L 203.89665 233.129499 
z
" clip-path="url(#p466272a150)" style="fill: #1e2e79; fill-opacity: 0.5; stroke: #000000; stroke-width: 0.327934; stroke-linejoin: miter"/>
   </g>
   <g id="patch_35">
    <path d="M 208.23516 302.8525 
L 212.573669 302.8525 
L 212.573669 241.650847 
L 208.23516 241.650847 
z
" clip-path="url(#p466272a150)" style="fill: #1e2e79; fill-opacity: 0.5; stroke: #000000; stroke-width: 0.327934; stroke-linejoin: miter"/>
   </g>
   <g id="patch_36">
    <path d="M 212.573669 302.8525 
L 216.912179 302.8525 
L 216.912179 247.828033 
L 212.573669 247.828033 
z
" clip-path="url(#p466272a150)" style="fill: #1e2e79; fill-opacity: 0.5; stroke: #000000; stroke-width: 0.327934; stroke-linejoin: miter"/>
   </g>
   <g id="patch_37">
    <path d="M 216.912179 302.8525 
L 221.250688 302.8525 
L 221.250688 251.439311 
L 216.912179 251.439311 
z
" clip-path="url(#p466272a150)" style="fill: #1e2e79; fill-opacity: 0.5; stroke: #000000; stroke-width: 0.327934; stroke-linejoin: miter"/>
   </g>
   <g id="patch_38">
    <path d="M 221.250688 302.8525 
L 225.589198 302.8525 
L 225.589198 261.227774 
L 221.250688 261.227774 
z
" clip-path="url(#p466272a150)" style="fill: #1e2e79; fill-opacity: 0.5; stroke: #000000; stroke-width: 0.327934; stroke-linejoin: miter"/>
   </g>
   <g id="patch_39">
    <path d="M 225.589198 302.8525 
L 229.927707 302.8525 
L 229.927707 264.775695 
L 225.589198 264.775695 
z
" clip-path="url(#p466272a150)" style="fill: #1e2e79; fill-opacity: 0.5; stroke: #000000; stroke-width: 0.327934; stroke-linejoin: miter"/>
   </g>
   <g id="patch_40">
    <path d="M 229.927707 302.8525 
L 234.266217 302.8525 
L 234.266217 263.22348 
L 229.927707 263.22348 
z
" clip-path="url(#p466272a150)" style="fill: #1e2e79; fill-opacity: 0.5; stroke: #000000; stroke-width: 0.327934; stroke-linejoin: miter"/>
   </g>
   <g id="patch_41">
    <path d="M 234.266217 302.8525 
L 238.604726 302.8525 
L 238.604726 263.033412 
L 234.266217 263.033412 
z
" clip-path="url(#p466272a150)" style="fill: #1e2e79; fill-opacity: 0.5; stroke: #000000; stroke-width: 0.327934; stroke-linejoin: miter"/>
   </g>
   <g id="patch_42">
    <path d="M 238.604726 302.8525 
L 242.943236 302.8525 
L 242.943236 259.010322 
L 238.604726 259.010322 
z
" clip-path="url(#p466272a150)" style="fill: #1e2e79; fill-opacity: 0.5; stroke: #000000; stroke-width: 0.327934; stroke-linejoin: miter"/>
   </g>
   <g id="patch_43">
    <path d="M 242.943236 302.8525 
L 247.281745 302.8525 
L 247.281745 250.10884 
L 242.943236 250.10884 
z
" clip-path="url(#p466272a150)" style="fill: #1e2e79; fill-opacity: 0.5; stroke: #000000; stroke-width: 0.327934; stroke-linejoin: miter"/>
   </g>
   <g id="patch_44">
    <path d="M 247.281745 302.8525 
L 251.620255 302.8525 
L 251.620255 242.759573 
L 247.281745 242.759573 
z
" clip-path="url(#p466272a150)" style="fill: #1e2e79; fill-opacity: 0.5; stroke: #000000; stroke-width: 0.327934; stroke-linejoin: miter"/>
   </g>
   <g id="patch_45">
    <path d="M 251.620255 302.8525 
L 255.958764 302.8525 
L 255.958764 239.623464 
L 251.620255 239.623464 
z
" clip-path="url(#p466272a150)" style="fill: #1e2e79; fill-opacity: 0.5; stroke: #000000; stroke-width: 0.327934; stroke-linejoin: miter"/>
   </g>
   <g id="patch_46">
    <path d="M 255.958764 302.8525 
L 260.297274 302.8525 
L 260.297274 230.912048 
L 255.958764 230.912048 
z
" clip-path="url(#p466272a150)" style="fill: #1e2e79; fill-opacity: 0.5; stroke: #000000; stroke-width: 0.327934; stroke-linejoin: miter"/>
   </g>
   <g id="patch_47">
    <path d="M 260.297274 302.8525 
L 264.635783 302.8525 
L 264.635783 218.494322 
L 260.297274 218.494322 
z
" clip-path="url(#p466272a150)" style="fill: #1e2e79; fill-opacity: 0.5; stroke: #000000; stroke-width: 0.327934; stroke-linejoin: miter"/>
   </g>
   <g id="patch_48">
    <path d="M 264.635783 302.8525 
L 268.974293 302.8525 
L 268.974293 212.507203 
L 264.635783 212.507203 
z
" clip-path="url(#p466272a150)" style="fill: #1e2e79; fill-opacity: 0.5; stroke: #000000; stroke-width: 0.327934; stroke-linejoin: miter"/>
   </g>
   <g id="patch_49">
    <path d="M 268.974293 302.8525 
L 273.312802 302.8525 
L 273.312802 202.655385 
L 268.974293 202.655385 
z
" clip-path="url(#p466272a150)" style="fill: #1e2e79; fill-opacity: 0.5; stroke: #000000; stroke-width: 0.327934; stroke-linejoin: miter"/>
   </g>
   <g id="patch_50">
    <path d="M 273.312802 302.8525 
L 277.651312 302.8525 
L 277.651312 192.993633 
L 273.312802 192.993633 
z
" clip-path="url(#p466272a150)" style="fill: #1e2e79; fill-opacity: 0.5; stroke: #000000; stroke-width: 0.327934; stroke-linejoin: miter"/>
   </g>
   <g id="patch_51">
    <path d="M 277.651312 302.8525 
L 281.989821 302.8525 
L 281.989821 186.78477 
L 277.651312 186.78477 
z
" clip-path="url(#p466272a150)" style="fill: #1e2e79; fill-opacity: 0.5; stroke: #000000; stroke-width: 0.327934; stroke-linejoin: miter"/>
   </g>
   <g id="patch_52">
    <path d="M 281.989821 302.8525 
L 286.328331 302.8525 
L 286.328331 177.788254 
L 281.989821 177.788254 
z
" clip-path="url(#p466272a150)" style="fill: #1e2e79; fill-opacity: 0.5; stroke: #000000; stroke-width: 0.327934; stroke-linejoin: miter"/>
   </g>
   <g id="patch_53">
    <path d="M 286.328331 302.8525 
L 290.66684 302.8525 
L 290.66684 170.470665 
L 286.328331 170.470665 
z
" clip-path="url(#p466272a150)" style="fill: #1e2e79; fill-opacity: 0.5; stroke: #000000; stroke-width: 0.327934; stroke-linejoin: miter"/>
   </g>
   <g id="patch_54">
    <path d="M 290.66684 302.8525 
L 295.00535 302.8525 
L 295.00535 159.51012 
L 290.66684 159.51012 
z
" clip-path="url(#p466272a150)" style="fill: #1e2e79; fill-opacity: 0.5; stroke: #000000; stroke-width: 0.327934; stroke-linejoin: miter"/>
   </g>
   <g id="patch_55">
    <path d="M 295.00535 302.8525 
L 299.343859 302.8525 
L 299.343859 155.360319 
L 295.00535 155.360319 
z
" clip-path="url(#p466272a150)" style="fill: #1e2e79; fill-opacity: 0.5; stroke: #000000; stroke-width: 0.327934; stroke-linejoin: miter"/>
   </g>
   <g id="patch_56">
    <path d="M 299.343859 302.8525 
L 303.682369 302.8525 
L 303.682369 148.074408 
L 299.343859 148.074408 
z
" clip-path="url(#p466272a150)" style="fill: #1e2e79; fill-opacity: 0.5; stroke: #000000; stroke-width: 0.327934; stroke-linejoin: miter"/>
   </g>
   <g id="patch_57">
    <path d="M 303.682369 302.8525 
L 308.020878 302.8525 
L 308.020878 153.681391 
L 303.682369 153.681391 
z
" clip-path="url(#p466272a150)" style="fill: #1e2e79; fill-opacity: 0.5; stroke: #000000; stroke-width: 0.327934; stroke-linejoin: miter"/>
   </g>
   <g id="patch_58">
    <path d="M 308.020878 302.8525 
L 312.359388 302.8525 
L 312.359388 151.495618 
L 308.020878 151.495618 
z
" clip-path="url(#p466272a150)" style="fill: #1e2e79; fill-opacity: 0.5; stroke: #000000; stroke-width: 0.327934; stroke-linejoin: miter"/>
   </g>
   <g id="patch_59">
    <path d="M 312.359388 302.8525 
L 316.697897 302.8525 
L 316.697897 153.459646 
L 312.359388 153.459646 
z
" clip-path="url(#p466272a150)" style="fill: #1e2e79; fill-opacity: 0.5; stroke: #000000; stroke-width: 0.327934; stroke-linejoin: miter"/>
   </g>
   <g id="patch_60">
    <path d="M 316.697897 302.8525 
L 321.036407 302.8525 
L 321.036407 163.818311 
L 316.697897 163.818311 
z
" clip-path="url(#p466272a150)" style="fill: #1e2e79; fill-opacity: 0.5; stroke: #000000; stroke-width: 0.327934; stroke-linejoin: miter"/>
   </g>
   <g id="patch_61">
    <path d="M 321.036407 302.8525 
L 325.374917 302.8525 
L 325.374917 172.498049 
L 321.036407 172.498049 
z
" clip-path="url(#p466272a150)" style="fill: #1e2e79; fill-opacity: 0.5; stroke: #000000; stroke-width: 0.327934; stroke-linejoin: miter"/>
   </g>
   <g id="patch_62">
    <path d="M 325.374917 302.8525 
L 329.713426 302.8525 
L 329.713426 179.720604 
L 325.374917 179.720604 
z
" clip-path="url(#p466272a150)" style="fill: #1e2e79; fill-opacity: 0.5; stroke: #000000; stroke-width: 0.327934; stroke-linejoin: miter"/>
   </g>
   <g id="patch_63">
    <path d="M 329.713426 302.8525 
L 334.051936 302.8525 
L 334.051936 189.857524 
L 329.713426 189.857524 
z
" clip-path="url(#p466272a150)" style="fill: #1e2e79; fill-opacity: 0.5; stroke: #000000; stroke-width: 0.327934; stroke-linejoin: miter"/>
   </g>
   <g id="patch_64">
    <path d="M 334.051936 302.8525 
L 338.390445 302.8525 
L 338.390445 207.723844 
L 334.051936 207.723844 
z
" clip-path="url(#p466272a150)" style="fill: #1e2e79; fill-opacity: 0.5; stroke: #000000; stroke-width: 0.327934; stroke-linejoin: miter"/>
   </g>
   <g id="patch_65">
    <path d="M 338.390445 302.8525 
L 342.728955 302.8525 
L 342.728955 214.597943 
L 338.390445 214.597943 
z
" clip-path="url(#p466272a150)" style="fill: #1e2e79; fill-opacity: 0.5; stroke: #000000; stroke-width: 0.327934; stroke-linejoin: miter"/>
   </g>
   <g id="patch_66">
    <path d="M 342.728955 302.8525 
L 347.067464 302.8525 
L 347.067464 227.300771 
L 342.728955 227.300771 
z
" clip-path="url(#p466272a150)" style="fill: #1e2e79; fill-opacity: 0.5; stroke: #000000; stroke-width: 0.327934; stroke-linejoin: miter"/>
   </g>
   <g id="patch_67">
    <path d="M 347.067464 302.8525 
L 351.405974 302.8525 
L 351.405974 242.854607 
L 347.067464 242.854607 
z
" clip-path="url(#p466272a150)" style="fill: #1e2e79; fill-opacity: 0.5; stroke: #000000; stroke-width: 0.327934; stroke-linejoin: miter"/>
   </g>
   <g id="patch_68">
    <path d="M 351.405974 302.8525 
L 355.744483 302.8525 
L 355.744483 250.235551 
L 351.405974 250.235551 
z
" clip-path="url(#p466272a150)" style="fill: #1e2e79; fill-opacity: 0.5; stroke: #000000; stroke-width: 0.327934; stroke-linejoin: miter"/>
   </g>
   <g id="patch_69">
    <path d="M 355.744483 302.8525 
L 360.082993 302.8525 
L 360.082993 260.182404 
L 355.744483 260.182404 
z
" clip-path="url(#p466272a150)" style="fill: #1e2e79; fill-opacity: 0.5; stroke: #000000; stroke-width: 0.327934; stroke-linejoin: miter"/>
   </g>
   <g id="patch_70">
    <path d="M 360.082993 302.8525 
L 364.421502 302.8525 
L 364.421502 268.038516 
L 360.082993 268.038516 
z
" clip-path="url(#p466272a150)" style="fill: #1e2e79; fill-opacity: 0.5; stroke: #000000; stroke-width: 0.327934; stroke-linejoin: miter"/>
   </g>
   <g id="patch_71">
    <path d="M 364.421502 302.8525 
L 368.760012 302.8525 
L 368.760012 272.60013 
L 364.421502 272.60013 
z
" clip-path="url(#p466272a150)" style="fill: #1e2e79; fill-opacity: 0.5; stroke: #000000; stroke-width: 0.327934; stroke-linejoin: miter"/>
   </g>
   <g id="patch_72">
    <path d="M 368.760012 302.8525 
L 373.098521 302.8525 
L 373.098521 280.741344 
L 368.760012 280.741344 
z
" clip-path="url(#p466272a150)" style="fill: #1e2e79; fill-opacity: 0.5; stroke: #000000; stroke-width: 0.327934; stroke-linejoin: miter"/>
   </g>
   <g id="patch_73">
    <path d="M 373.098521 302.8525 
L 377.437031 302.8525 
L 377.437031 283.275574 
L 373.098521 283.275574 
z
" clip-path="url(#p466272a150)" style="fill: #1e2e79; fill-opacity: 0.5; stroke: #000000; stroke-width: 0.327934; stroke-linejoin: miter"/>
   </g>
   <g id="patch_74">
    <path d="M 377.437031 302.8525 
L 381.77554 302.8525 
L 381.77554 288.502423 
L 377.437031 288.502423 
z
" clip-path="url(#p466272a150)" style="fill: #1e2e79; fill-opacity: 0.5; stroke: #000000; stroke-width: 0.327934; stroke-linejoin: miter"/>
   </g>
   <g id="patch_75">
    <path d="M 381.77554 302.8525 
L 386.11405 302.8525 
L 386.11405 290.909942 
L 381.77554 290.909942 
z
" clip-path="url(#p466272a150)" style="fill: #1e2e79; fill-opacity: 0.5; stroke: #000000; stroke-width: 0.327934; stroke-linejoin: miter"/>
   </g>
   <g id="patch_76">
    <path d="M 386.11405 302.8525 
L 390.452559 302.8525 
L 390.452559 294.616253 
L 386.11405 294.616253 
z
" clip-path="url(#p466272a150)" style="fill: #1e2e79; fill-opacity: 0.5; stroke: #000000; stroke-width: 0.327934; stroke-linejoin: miter"/>
   </g>
   <g id="patch_77">
    <path d="M 390.452559 302.8525 
L 394.791069 302.8525 
L 394.791069 295.820012 
L 390.452559 295.820012 
z
" clip-path="url(#p466272a150)" style="fill: #1e2e79; fill-opacity: 0.5; stroke: #000000; stroke-width: 0.327934; stroke-linejoin: miter"/>
   </g>
   <g id="patch_78">
    <path d="M 394.791069 302.8525 
L 399.129578 302.8525 
L 399.129578 297.435584 
L 394.791069 297.435584 
z
" clip-path="url(#p466272a150)" style="fill: #1e2e79; fill-opacity: 0.5; stroke: #000000; stroke-width: 0.327934; stroke-linejoin: miter"/>
   </g>
   <g id="patch_79">
    <path d="M 399.129578 302.8525 
L 403.468088 302.8525 
L 403.468088 298.544309 
L 399.129578 298.544309 
z
" clip-path="url(#p466272a150)" style="fill: #1e2e79; fill-opacity: 0.5; stroke: #000000; stroke-width: 0.327934; stroke-linejoin: miter"/>
   </g>
   <g id="patch_80">
    <path d="M 403.468088 302.8525 
L 407.806597 302.8525 
L 407.806597 299.43129 
L 403.468088 299.43129 
z
" clip-path="url(#p466272a150)" style="fill: #1e2e79; fill-opacity: 0.5; stroke: #000000; stroke-width: 0.327934; stroke-linejoin: miter"/>
   </g>
   <g id="patch_81">
    <path d="M 407.806597 302.8525 
L 412.145107 302.8525 
L 412.145107 300.223236 
L 407.806597 300.223236 
z
" clip-path="url(#p466272a150)" style="fill: #1e2e79; fill-opacity: 0.5; stroke: #000000; stroke-width: 0.327934; stroke-linejoin: miter"/>
   </g>
   <g id="patch_82">
    <path d="M 412.145107 302.8525 
L 416.483616 302.8525 
L 416.483616 301.046861 
L 412.145107 301.046861 
z
" clip-path="url(#p466272a150)" style="fill: #1e2e79; fill-opacity: 0.5; stroke: #000000; stroke-width: 0.327934; stroke-linejoin: miter"/>
   </g>
   <g id="patch_83">
    <path d="M 416.483616 302.8525 
L 420.822126 302.8525 
L 420.822126 301.205251 
L 416.483616 301.205251 
z
" clip-path="url(#p466272a150)" style="fill: #1e2e79; fill-opacity: 0.5; stroke: #000000; stroke-width: 0.327934; stroke-linejoin: miter"/>
   </g>
   <g id="patch_84">
    <path d="M 420.822126 302.8525 
L 425.160635 302.8525 
L 425.160635 301.395318 
L 420.822126 301.395318 
z
" clip-path="url(#p466272a150)" style="fill: #1e2e79; fill-opacity: 0.5; stroke: #000000; stroke-width: 0.327934; stroke-linejoin: miter"/>
   </g>
   <g id="patch_85">
    <path d="M 425.160635 302.8525 
L 429.499145 302.8525 
L 429.499145 301.617063 
L 425.160635 301.617063 
z
" clip-path="url(#p466272a150)" style="fill: #1e2e79; fill-opacity: 0.5; stroke: #000000; stroke-width: 0.327934; stroke-linejoin: miter"/>
   </g>
   <g id="patch_86">
    <path d="M 429.499145 302.8525 
L 433.837654 302.8525 
L 433.837654 302.155587 
L 429.499145 302.155587 
z
" clip-path="url(#p466272a150)" style="fill: #1e2e79; fill-opacity: 0.5; stroke: #000000; stroke-width: 0.327934; stroke-linejoin: miter"/>
   </g>
   <g id="patch_87">
    <path d="M 433.837654 302.8525 
L 438.176164 302.8525 
L 438.176164 302.092231 
L 433.837654 302.092231 
z
" clip-path="url(#p466272a150)" style="fill: #1e2e79; fill-opacity: 0.5; stroke: #000000; stroke-width: 0.327934; stroke-linejoin: miter"/>
   </g>
   <g id="patch_88">
    <path d="M 438.176164 302.8525 
L 442.514673 302.8525 
L 442.514673 302.123909 
L 438.176164 302.123909 
z
" clip-path="url(#p466272a150)" style="fill: #1e2e79; fill-opacity: 0.5; stroke: #000000; stroke-width: 0.327934; stroke-linejoin: miter"/>
   </g>
   <g id="patch_89">
    <path d="M 442.514673 302.8525 
L 446.853183 302.8525 
L 446.853183 302.377332 
L 442.514673 302.377332 
z
" clip-path="url(#p466272a150)" style="fill: #1e2e79; fill-opacity: 0.5; stroke: #000000; stroke-width: 0.327934; stroke-linejoin: miter"/>
   </g>
   <g id="patch_90">
    <path d="M 446.853183 302.8525 
L 451.191692 302.8525 
L 451.191692 302.40901 
L 446.853183 302.40901 
z
" clip-path="url(#p466272a150)" style="fill: #1e2e79; fill-opacity: 0.5; stroke: #000000; stroke-width: 0.327934; stroke-linejoin: miter"/>
   </g>
   <g id="patch_91">
    <path d="M 451.191692 302.8525 
L 455.530202 302.8525 
L 455.530202 302.504043 
L 451.191692 302.504043 
z
" clip-path="url(#p466272a150)" style="fill: #1e2e79; fill-opacity: 0.5; stroke: #000000; stroke-width: 0.327934; stroke-linejoin: miter"/>
   </g>
   <g id="patch_92">
    <path d="M 455.530202 302.8525 
L 459.868711 302.8525 
L 459.868711 302.662433 
L 455.530202 302.662433 
z
" clip-path="url(#p466272a150)" style="fill: #1e2e79; fill-opacity: 0.5; stroke: #000000; stroke-width: 0.327934; stroke-linejoin: miter"/>
   </g>
   <g id="patch_93">
    <path d="M 459.868711 302.8525 
L 464.207221 302.8525 
L 464.207221 302.757466 
L 459.868711 302.757466 
z
" clip-path="url(#p466272a150)" style="fill: #1e2e79; fill-opacity: 0.5; stroke: #000000; stroke-width: 0.327934; stroke-linejoin: miter"/>
   </g>
   <g id="patch_94">
    <path d="M 464.207221 302.8525 
L 468.54573 302.8525 
L 468.54573 302.694111 
L 464.207221 302.694111 
z
" clip-path="url(#p466272a150)" style="fill: #1e2e79; fill-opacity: 0.5; stroke: #000000; stroke-width: 0.327934; stroke-linejoin: miter"/>
   </g>
   <g id="patch_95">
    <path d="M 468.54573 302.8525 
L 472.88424 302.8525 
L 472.88424 302.694111 
L 468.54573 302.694111 
z
" clip-path="url(#p466272a150)" style="fill: #1e2e79; fill-opacity: 0.5; stroke: #000000; stroke-width: 0.327934; stroke-linejoin: miter"/>
   </g>
   <g id="patch_96">
    <path d="M 472.88424 302.8525 
L 477.222749 302.8525 
L 477.222749 302.789144 
L 472.88424 302.789144 
z
" clip-path="url(#p466272a150)" style="fill: #1e2e79; fill-opacity: 0.5; stroke: #000000; stroke-width: 0.327934; stroke-linejoin: miter"/>
   </g>
   <g id="patch_97">
    <path d="M 477.222749 302.8525 
L 481.561259 302.8525 
L 481.561259 302.8525 
L 477.222749 302.8525 
z
" clip-path="url(#p466272a150)" style="fill: #1e2e79; fill-opacity: 0.5; stroke: #000000; stroke-width: 0.327934; stroke-linejoin: miter"/>
   </g>
   <g id="patch_98">
    <path d="M 481.561259 302.8525 
L 485.899768 302.8525 
L 485.899768 302.757466 
L 481.561259 302.757466 
z
" clip-path="url(#p466272a150)" style="fill: #1e2e79; fill-opacity: 0.5; stroke: #000000; stroke-width: 0.327934; stroke-linejoin: miter"/>
   </g>
   <g id="patch_99">
    <path d="M 485.899768 302.8525 
L 490.238278 302.8525 
L 490.238278 302.8525 
L 485.899768 302.8525 
z
" clip-path="url(#p466272a150)" style="fill: #1e2e79; fill-opacity: 0.5; stroke: #000000; stroke-width: 0.327934; stroke-linejoin: miter"/>
   </g>
   <g id="patch_100">
    <path d="M 490.238278 302.8525 
L 494.576787 302.8525 
L 494.576787 302.8525 
L 490.238278 302.8525 
z
" clip-path="url(#p466272a150)" style="fill: #1e2e79; fill-opacity: 0.5; stroke: #000000; stroke-width: 0.327934; stroke-linejoin: miter"/>
   </g>
   <g id="patch_101">
    <path d="M 494.576787 302.8525 
L 498.915297 302.8525 
L 498.915297 302.789144 
L 494.576787 302.789144 
z
" clip-path="url(#p466272a150)" style="fill: #1e2e79; fill-opacity: 0.5; stroke: #000000; stroke-width: 0.327934; stroke-linejoin: miter"/>
   </g>
   <g id="patch_102">
    <path d="M 69.291205 302.8525 
L 75.370258 302.8525 
L 75.370258 300.184765 
L 69.291205 300.184765 
z
" clip-path="url(#p466272a150)" style="fill: #f99752; fill-opacity: 0.5; stroke: #000000; stroke-width: 0.459377; stroke-linejoin: miter"/>
   </g>
   <g id="patch_103">
    <path d="M 75.370258 302.8525 
L 81.449312 302.8525 
L 81.449312 272.603103 
L 75.370258 272.603103 
z
" clip-path="url(#p466272a150)" style="fill: #f99752; fill-opacity: 0.5; stroke: #000000; stroke-width: 0.459377; stroke-linejoin: miter"/>
   </g>
   <g id="patch_104">
    <path d="M 81.449312 302.8525 
L 87.528366 302.8525 
L 87.528366 176.248149 
L 81.449312 176.248149 
z
" clip-path="url(#p466272a150)" style="fill: #f99752; fill-opacity: 0.5; stroke: #000000; stroke-width: 0.459377; stroke-linejoin: miter"/>
   </g>
   <g id="patch_105">
    <path d="M 87.528366 302.8525 
L 93.607419 302.8525 
L 93.607419 72.070854 
L 87.528366 72.070854 
z
" clip-path="url(#p466272a150)" style="fill: #f99752; fill-opacity: 0.5; stroke: #000000; stroke-width: 0.459377; stroke-linejoin: miter"/>
   </g>
   <g id="patch_106">
    <path d="M 93.607419 302.8525 
L 99.686473 302.8525 
L 99.686473 24.707262 
L 93.607419 24.707262 
z
" clip-path="url(#p466272a150)" style="fill: #f99752; fill-opacity: 0.5; stroke: #000000; stroke-width: 0.459377; stroke-linejoin: miter"/>
   </g>
   <g id="patch_107">
    <path d="M 99.686473 302.8525 
L 105.765526 302.8525 
L 105.765526 56.335742 
L 99.686473 56.335742 
z
" clip-path="url(#p466272a150)" style="fill: #f99752; fill-opacity: 0.5; stroke: #000000; stroke-width: 0.459377; stroke-linejoin: miter"/>
   </g>
   <g id="patch_108">
    <path d="M 105.765526 302.8525 
L 111.84458 302.8525 
L 111.84458 116.359769 
L 105.765526 116.359769 
z
" clip-path="url(#p466272a150)" style="fill: #f99752; fill-opacity: 0.5; stroke: #000000; stroke-width: 0.459377; stroke-linejoin: miter"/>
   </g>
   <g id="patch_109">
    <path d="M 111.84458 302.8525 
L 117.923634 302.8525 
L 117.923634 177.333329 
L 111.84458 177.333329 
z
" clip-path="url(#p466272a150)" style="fill: #f99752; fill-opacity: 0.5; stroke: #000000; stroke-width: 0.459377; stroke-linejoin: miter"/>
   </g>
   <g id="patch_110">
    <path d="M 117.923634 302.8525 
L 124.002687 302.8525 
L 124.002687 225.985572 
L 117.923634 225.985572 
z
" clip-path="url(#p466272a150)" style="fill: #f99752; fill-opacity: 0.5; stroke: #000000; stroke-width: 0.459377; stroke-linejoin: miter"/>
   </g>
   <g id="patch_111">
    <path d="M 124.002687 302.8525 
L 130.081741 302.8525 
L 130.081741 254.742847 
L 124.002687 254.742847 
z
" clip-path="url(#p466272a150)" style="fill: #f99752; fill-opacity: 0.5; stroke: #000000; stroke-width: 0.459377; stroke-linejoin: miter"/>
   </g>
   <g id="patch_112">
    <path d="M 130.081741 302.8525 
L 136.160795 302.8525 
L 136.160795 270.274487 
L 130.081741 270.274487 
z
" clip-path="url(#p466272a150)" style="fill: #f99752; fill-opacity: 0.5; stroke: #000000; stroke-width: 0.459377; stroke-linejoin: miter"/>
   </g>
   <g id="patch_113">
    <path d="M 136.160795 302.8525 
L 142.239848 302.8525 
L 142.239848 279.792422 
L 136.160795 279.792422 
z
" clip-path="url(#p466272a150)" style="fill: #f99752; fill-opacity: 0.5; stroke: #000000; stroke-width: 0.459377; stroke-linejoin: miter"/>
   </g>
   <g id="patch_114">
    <path d="M 142.239848 302.8525 
L 148.318902 302.8525 
L 148.318902 284.743556 
L 142.239848 284.743556 
z
" clip-path="url(#p466272a150)" style="fill: #f99752; fill-opacity: 0.5; stroke: #000000; stroke-width: 0.459377; stroke-linejoin: miter"/>
   </g>
   <g id="patch_115">
    <path d="M 148.318902 302.8525 
L 154.397956 302.8525 
L 154.397956 283.115786 
L 148.318902 283.115786 
z
" clip-path="url(#p466272a150)" style="fill: #f99752; fill-opacity: 0.5; stroke: #000000; stroke-width: 0.459377; stroke-linejoin: miter"/>
   </g>
   <g id="patch_116">
    <path d="M 154.397956 302.8525 
L 160.477009 302.8525 
L 160.477009 275.203014 
L 154.397956 275.203014 
z
" clip-path="url(#p466272a150)" style="fill: #f99752; fill-opacity: 0.5; stroke: #000000; stroke-width: 0.459377; stroke-linejoin: miter"/>
   </g>
   <g id="patch_117">
    <path d="M 160.477009 302.8525 
L 166.556063 302.8525 
L 166.556063 265.481608 
L 160.477009 265.481608 
z
" clip-path="url(#p466272a150)" style="fill: #f99752; fill-opacity: 0.5; stroke: #000000; stroke-width: 0.459377; stroke-linejoin: miter"/>
   </g>
   <g id="patch_118">
    <path d="M 166.556063 302.8525 
L 172.635117 302.8525 
L 172.635117 247.689176 
L 166.556063 247.689176 
z
" clip-path="url(#p466272a150)" style="fill: #f99752; fill-opacity: 0.5; stroke: #000000; stroke-width: 0.459377; stroke-linejoin: miter"/>
   </g>
   <g id="patch_119">
    <path d="M 172.635117 302.8525 
L 178.71417 302.8525 
L 178.71417 233.242715 
L 172.635117 233.242715 
z
" clip-path="url(#p466272a150)" style="fill: #f99752; fill-opacity: 0.5; stroke: #000000; stroke-width: 0.459377; stroke-linejoin: miter"/>
   </g>
   <g id="patch_120">
    <path d="M 178.71417 302.8525 
L 184.793224 302.8525 
L 184.793224 220.243161 
L 178.71417 220.243161 
z
" clip-path="url(#p466272a150)" style="fill: #f99752; fill-opacity: 0.5; stroke: #000000; stroke-width: 0.459377; stroke-linejoin: miter"/>
   </g>
   <g id="patch_121">
    <path d="M 184.793224 302.8525 
L 190.872277 302.8525 
L 190.872277 209.662654 
L 184.793224 209.662654 
z
" clip-path="url(#p466272a150)" style="fill: #f99752; fill-opacity: 0.5; stroke: #000000; stroke-width: 0.459377; stroke-linejoin: miter"/>
   </g>
   <g id="patch_122">
    <path d="M 190.872277 302.8525 
L 196.951331 302.8525 
L 196.951331 215.020731 
L 190.872277 215.020731 
z
" clip-path="url(#p466272a150)" style="fill: #f99752; fill-opacity: 0.5; stroke: #000000; stroke-width: 0.459377; stroke-linejoin: miter"/>
   </g>
   <g id="patch_123">
    <path d="M 196.951331 302.8525 
L 203.030385 302.8525 
L 203.030385 220.514456 
L 196.951331 220.514456 
z
" clip-path="url(#p466272a150)" style="fill: #f99752; fill-opacity: 0.5; stroke: #000000; stroke-width: 0.459377; stroke-linejoin: miter"/>
   </g>
   <g id="patch_124">
    <path d="M 203.030385 302.8525 
L 209.109438 302.8525 
L 209.109438 233.94356 
L 203.030385 233.94356 
z
" clip-path="url(#p466272a150)" style="fill: #f99752; fill-opacity: 0.5; stroke: #000000; stroke-width: 0.459377; stroke-linejoin: miter"/>
   </g>
   <g id="patch_125">
    <path d="M 209.109438 302.8525 
L 215.188492 302.8525 
L 215.188492 244.207556 
L 209.109438 244.207556 
z
" clip-path="url(#p466272a150)" style="fill: #f99752; fill-opacity: 0.5; stroke: #000000; stroke-width: 0.459377; stroke-linejoin: miter"/>
   </g>
   <g id="patch_126">
    <path d="M 215.188492 302.8525 
L 221.267546 302.8525 
L 221.267546 259.49051 
L 215.188492 259.49051 
z
" clip-path="url(#p466272a150)" style="fill: #f99752; fill-opacity: 0.5; stroke: #000000; stroke-width: 0.459377; stroke-linejoin: miter"/>
   </g>
   <g id="patch_127">
    <path d="M 221.267546 302.8525 
L 227.346599 302.8525 
L 227.346599 264.419036 
L 221.267546 264.419036 
z
" clip-path="url(#p466272a150)" style="fill: #f99752; fill-opacity: 0.5; stroke: #000000; stroke-width: 0.459377; stroke-linejoin: miter"/>
   </g>
   <g id="patch_128">
    <path d="M 227.346599 302.8525 
L 233.425653 302.8525 
L 233.425653 267.651969 
L 227.346599 267.651969 
z
" clip-path="url(#p466272a150)" style="fill: #f99752; fill-opacity: 0.5; stroke: #000000; stroke-width: 0.459377; stroke-linejoin: miter"/>
   </g>
   <g id="patch_129">
    <path d="M 233.425653 302.8525 
L 239.504707 302.8525 
L 239.504707 264.283389 
L 233.425653 264.283389 
z
" clip-path="url(#p466272a150)" style="fill: #f99752; fill-opacity: 0.5; stroke: #000000; stroke-width: 0.459377; stroke-linejoin: miter"/>
   </g>
   <g id="patch_130">
    <path d="M 239.504707 302.8525 
L 245.58376 302.8525 
L 245.58376 257.772308 
L 239.504707 257.772308 
z
" clip-path="url(#p466272a150)" style="fill: #f99752; fill-opacity: 0.5; stroke: #000000; stroke-width: 0.459377; stroke-linejoin: miter"/>
   </g>
   <g id="patch_131">
    <path d="M 245.58376 302.8525 
L 251.662814 302.8525 
L 251.662814 248.977827 
L 245.58376 248.977827 
z
" clip-path="url(#p466272a150)" style="fill: #f99752; fill-opacity: 0.5; stroke: #000000; stroke-width: 0.459377; stroke-linejoin: miter"/>
   </g>
   <g id="patch_132">
    <path d="M 251.662814 302.8525 
L 257.741867 302.8525 
L 257.741867 239.572932 
L 251.662814 239.572932 
z
" clip-path="url(#p466272a150)" style="fill: #f99752; fill-opacity: 0.5; stroke: #000000; stroke-width: 0.459377; stroke-linejoin: miter"/>
   </g>
   <g id="patch_133">
    <path d="M 257.741867 302.8525 
L 263.820921 302.8525 
L 263.820921 230.755844 
L 257.741867 230.755844 
z
" clip-path="url(#p466272a150)" style="fill: #f99752; fill-opacity: 0.5; stroke: #000000; stroke-width: 0.459377; stroke-linejoin: miter"/>
   </g>
   <g id="patch_134">
    <path d="M 263.820921 302.8525 
L 269.899975 302.8525 
L 269.899975 222.797856 
L 263.820921 222.797856 
z
" clip-path="url(#p466272a150)" style="fill: #f99752; fill-opacity: 0.5; stroke: #000000; stroke-width: 0.459377; stroke-linejoin: miter"/>
   </g>
   <g id="patch_135">
    <path d="M 269.899975 302.8525 
L 275.979028 302.8525 
L 275.979028 219.542315 
L 269.899975 219.542315 
z
" clip-path="url(#p466272a150)" style="fill: #f99752; fill-opacity: 0.5; stroke: #000000; stroke-width: 0.459377; stroke-linejoin: miter"/>
   </g>
   <g id="patch_136">
    <path d="M 275.979028 302.8525 
L 282.058082 302.8525 
L 282.058082 215.495498 
L 275.979028 215.495498 
z
" clip-path="url(#p466272a150)" style="fill: #f99752; fill-opacity: 0.5; stroke: #000000; stroke-width: 0.459377; stroke-linejoin: miter"/>
   </g>
   <g id="patch_137">
    <path d="M 282.058082 302.8525 
L 288.137136 302.8525 
L 288.137136 220.265769 
L 282.058082 220.265769 
z
" clip-path="url(#p466272a150)" style="fill: #f99752; fill-opacity: 0.5; stroke: #000000; stroke-width: 0.459377; stroke-linejoin: miter"/>
   </g>
   <g id="patch_138">
    <path d="M 288.137136 302.8525 
L 294.216189 302.8525 
L 294.216189 222.503953 
L 288.137136 222.503953 
z
" clip-path="url(#p466272a150)" style="fill: #f99752; fill-opacity: 0.5; stroke: #000000; stroke-width: 0.459377; stroke-linejoin: miter"/>
   </g>
   <g id="patch_139">
    <path d="M 294.216189 302.8525 
L 300.295243 302.8525 
L 300.295243 226.686418 
L 294.216189 226.686418 
z
" clip-path="url(#p466272a150)" style="fill: #f99752; fill-opacity: 0.5; stroke: #000000; stroke-width: 0.459377; stroke-linejoin: miter"/>
   </g>
   <g id="patch_140">
    <path d="M 300.295243 302.8525 
L 306.374297 302.8525 
L 306.374297 233.807913 
L 300.295243 233.807913 
z
" clip-path="url(#p466272a150)" style="fill: #f99752; fill-opacity: 0.5; stroke: #000000; stroke-width: 0.459377; stroke-linejoin: miter"/>
   </g>
   <g id="patch_141">
    <path d="M 306.374297 302.8525 
L 312.45335 302.8525 
L 312.45335 238.781655 
L 306.374297 238.781655 
z
" clip-path="url(#p466272a150)" style="fill: #f99752; fill-opacity: 0.5; stroke: #000000; stroke-width: 0.459377; stroke-linejoin: miter"/>
   </g>
   <g id="patch_142">
    <path d="M 312.45335 302.8525 
L 318.532404 302.8525 
L 318.532404 247.847431 
L 312.45335 247.847431 
z
" clip-path="url(#p466272a150)" style="fill: #f99752; fill-opacity: 0.5; stroke: #000000; stroke-width: 0.459377; stroke-linejoin: miter"/>
   </g>
   <g id="patch_143">
    <path d="M 318.532404 302.8525 
L 324.611458 302.8525 
L 324.611458 257.704484 
L 318.532404 257.704484 
z
" clip-path="url(#p466272a150)" style="fill: #f99752; fill-opacity: 0.5; stroke: #000000; stroke-width: 0.459377; stroke-linejoin: miter"/>
   </g>
   <g id="patch_144">
    <path d="M 324.611458 302.8525 
L 330.690511 302.8525 
L 330.690511 263.695583 
L 324.611458 263.695583 
z
" clip-path="url(#p466272a150)" style="fill: #f99752; fill-opacity: 0.5; stroke: #000000; stroke-width: 0.459377; stroke-linejoin: miter"/>
   </g>
   <g id="patch_145">
    <path d="M 330.690511 302.8525 
L 336.769565 302.8525 
L 336.769565 270.884901 
L 330.690511 270.884901 
z
" clip-path="url(#p466272a150)" style="fill: #f99752; fill-opacity: 0.5; stroke: #000000; stroke-width: 0.459377; stroke-linejoin: miter"/>
   </g>
   <g id="patch_146">
    <path d="M 336.769565 302.8525 
L 342.848618 302.8525 
L 342.848618 278.978537 
L 336.769565 278.978537 
z
" clip-path="url(#p466272a150)" style="fill: #f99752; fill-opacity: 0.5; stroke: #000000; stroke-width: 0.459377; stroke-linejoin: miter"/>
   </g>
   <g id="patch_147">
    <path d="M 342.848618 302.8525 
L 348.927672 302.8525 
L 348.927672 284.879204 
L 342.848618 284.879204 
z
" clip-path="url(#p466272a150)" style="fill: #f99752; fill-opacity: 0.5; stroke: #000000; stroke-width: 0.459377; stroke-linejoin: miter"/>
   </g>
   <g id="patch_148">
    <path d="M 348.927672 302.8525 
L 355.006726 302.8525 
L 355.006726 290.440752 
L 348.927672 290.440752 
z
" clip-path="url(#p466272a150)" style="fill: #f99752; fill-opacity: 0.5; stroke: #000000; stroke-width: 0.459377; stroke-linejoin: miter"/>
   </g>
   <g id="patch_149">
    <path d="M 355.006726 302.8525 
L 361.085779 302.8525 
L 361.085779 294.668433 
L 355.006726 294.668433 
z
" clip-path="url(#p466272a150)" style="fill: #f99752; fill-opacity: 0.5; stroke: #000000; stroke-width: 0.459377; stroke-linejoin: miter"/>
   </g>
   <g id="patch_150">
    <path d="M 361.085779 302.8525 
L 367.164833 302.8525 
L 367.164833 297.20052 
L 361.085779 297.20052 
z
" clip-path="url(#p466272a150)" style="fill: #f99752; fill-opacity: 0.5; stroke: #000000; stroke-width: 0.459377; stroke-linejoin: miter"/>
   </g>
   <g id="patch_151">
    <path d="M 367.164833 302.8525 
L 373.243887 302.8525 
L 373.243887 299.59696 
L 367.164833 299.59696 
z
" clip-path="url(#p466272a150)" style="fill: #f99752; fill-opacity: 0.5; stroke: #000000; stroke-width: 0.459377; stroke-linejoin: miter"/>
   </g>
   <g id="patch_152">
    <path d="M 373.243887 302.8525 
L 379.32294 302.8525 
L 379.32294 300.953435 
L 373.243887 300.953435 
z
" clip-path="url(#p466272a150)" style="fill: #f99752; fill-opacity: 0.5; stroke: #000000; stroke-width: 0.459377; stroke-linejoin: miter"/>
   </g>
   <g id="patch_153">
    <path d="M 379.32294 302.8525 
L 385.401994 302.8525 
L 385.401994 301.744712 
L 379.32294 301.744712 
z
" clip-path="url(#p466272a150)" style="fill: #f99752; fill-opacity: 0.5; stroke: #000000; stroke-width: 0.459377; stroke-linejoin: miter"/>
   </g>
   <g id="patch_154">
    <path d="M 385.401994 302.8525 
L 391.481048 302.8525 
L 391.481048 302.19687 
L 385.401994 302.19687 
z
" clip-path="url(#p466272a150)" style="fill: #f99752; fill-opacity: 0.5; stroke: #000000; stroke-width: 0.459377; stroke-linejoin: miter"/>
   </g>
   <g id="patch_155">
    <path d="M 391.481048 302.8525 
L 397.560101 302.8525 
L 397.560101 302.649029 
L 391.481048 302.649029 
z
" clip-path="url(#p466272a150)" style="fill: #f99752; fill-opacity: 0.5; stroke: #000000; stroke-width: 0.459377; stroke-linejoin: miter"/>
   </g>
   <g id="patch_156">
    <path d="M 397.560101 302.8525 
L 403.639155 302.8525 
L 403.639155 302.671637 
L 397.560101 302.671637 
z
" clip-path="url(#p466272a150)" style="fill: #f99752; fill-opacity: 0.5; stroke: #000000; stroke-width: 0.459377; stroke-linejoin: miter"/>
   </g>
   <g id="patch_157">
    <path d="M 403.639155 302.8525 
L 409.718209 302.8525 
L 409.718209 302.671637 
L 403.639155 302.671637 
z
" clip-path="url(#p466272a150)" style="fill: #f99752; fill-opacity: 0.5; stroke: #000000; stroke-width: 0.459377; stroke-linejoin: miter"/>
   </g>
   <g id="patch_158">
    <path d="M 409.718209 302.8525 
L 415.797262 302.8525 
L 415.797262 302.807284 
L 409.718209 302.807284 
z
" clip-path="url(#p466272a150)" style="fill: #f99752; fill-opacity: 0.5; stroke: #000000; stroke-width: 0.459377; stroke-linejoin: miter"/>
   </g>
   <g id="patch_159">
    <path d="M 415.797262 302.8525 
L 421.876316 302.8525 
L 421.876316 302.807284 
L 415.797262 302.807284 
z
" clip-path="url(#p466272a150)" style="fill: #f99752; fill-opacity: 0.5; stroke: #000000; stroke-width: 0.459377; stroke-linejoin: miter"/>
   </g>
   <g id="patch_160">
    <path d="M 421.876316 302.8525 
L 427.955369 302.8525 
L 427.955369 302.829892 
L 421.876316 302.829892 
z
" clip-path="url(#p466272a150)" style="fill: #f99752; fill-opacity: 0.5; stroke: #000000; stroke-width: 0.459377; stroke-linejoin: miter"/>
   </g>
   <g id="patch_161">
    <path d="M 427.955369 302.8525 
L 434.034423 302.8525 
L 434.034423 302.8525 
L 427.955369 302.8525 
z
" clip-path="url(#p466272a150)" style="fill: #f99752; fill-opacity: 0.5; stroke: #000000; stroke-width: 0.459377; stroke-linejoin: miter"/>
   </g>
   <g id="patch_162">
    <path d="M 434.034423 302.8525 
L 440.113477 302.8525 
L 440.113477 302.8525 
L 434.034423 302.8525 
z
" clip-path="url(#p466272a150)" style="fill: #f99752; fill-opacity: 0.5; stroke: #000000; stroke-width: 0.459377; stroke-linejoin: miter"/>
   </g>
   <g id="patch_163">
    <path d="M 440.113477 302.8525 
L 446.19253 302.8525 
L 446.19253 302.807284 
L 440.113477 302.807284 
z
" clip-path="url(#p466272a150)" style="fill: #f99752; fill-opacity: 0.5; stroke: #000000; stroke-width: 0.459377; stroke-linejoin: miter"/>
   </g>
   <g id="matplotlib.axis_1">
    <g id="xtick_1">
     <g id="line2d_1">
      <defs>
       <path id="mda70ea8528" d="M 0 0 
L 0 3.5 
" style="stroke: #000000; stroke-width: 0.8"/>
      </defs>
      <g>
       <use xlink:href="#mda70ea8528" x="110.106971" y="302.8525" style="stroke: #000000; stroke-width: 0.8"/>
      </g>
     </g>
     <g id="text_1">
      <!-- 2 -->
      <g transform="translate(106.925721 317.450938) scale(0.1 -0.1)">
       <defs>
        <path id="DejaVuSans-32" d="M 1228 531 
L 3431 531 
L 3431 0 
L 469 0 
L 469 531 
Q 828 903 1448 1529 
Q 2069 2156 2228 2338 
Q 2531 2678 2651 2914 
Q 2772 3150 2772 3378 
Q 2772 3750 2511 3984 
Q 2250 4219 1831 4219 
Q 1534 4219 1204 4116 
Q 875 4013 500 3803 
L 500 4441 
Q 881 4594 1212 4672 
Q 1544 4750 1819 4750 
Q 2544 4750 2975 4387 
Q 3406 4025 3406 3419 
Q 3406 3131 3298 2873 
Q 3191 2616 2906 2266 
Q 2828 2175 2409 1742 
Q 1991 1309 1228 531 
z
" transform="scale(0.015625)"/>
       </defs>
       <use xlink:href="#DejaVuSans-32"/>
      </g>
     </g>
    </g>
    <g id="xtick_2">
     <g id="line2d_2">
      <g>
       <use xlink:href="#mda70ea8528" x="185.638755" y="302.8525" style="stroke: #000000; stroke-width: 0.8"/>
      </g>
     </g>
     <g id="text_2">
      <!-- 3 -->
      <g transform="translate(182.457505 317.450938) scale(0.1 -0.1)">
       <defs>
        <path id="DejaVuSans-33" d="M 2597 2516 
Q 3050 2419 3304 2112 
Q 3559 1806 3559 1356 
Q 3559 666 3084 287 
Q 2609 -91 1734 -91 
Q 1441 -91 1130 -33 
Q 819 25 488 141 
L 488 750 
Q 750 597 1062 519 
Q 1375 441 1716 441 
Q 2309 441 2620 675 
Q 2931 909 2931 1356 
Q 2931 1769 2642 2001 
Q 2353 2234 1838 2234 
L 1294 2234 
L 1294 2753 
L 1863 2753 
Q 2328 2753 2575 2939 
Q 2822 3125 2822 3475 
Q 2822 3834 2567 4026 
Q 2313 4219 1838 4219 
Q 1578 4219 1281 4162 
Q 984 4106 628 3988 
L 628 4550 
Q 988 4650 1302 4700 
Q 1616 4750 1894 4750 
Q 2613 4750 3031 4423 
Q 3450 4097 3450 3541 
Q 3450 3153 3228 2886 
Q 3006 2619 2597 2516 
z
" transform="scale(0.015625)"/>
       </defs>
       <use xlink:href="#DejaVuSans-33"/>
      </g>
     </g>
    </g>
    <g id="xtick_3">
     <g id="line2d_3">
      <g>
       <use xlink:href="#mda70ea8528" x="261.17054" y="302.8525" style="stroke: #000000; stroke-width: 0.8"/>
      </g>
     </g>
     <g id="text_3">
      <!-- 4 -->
      <g transform="translate(257.98929 317.450938) scale(0.1 -0.1)">
       <defs>
        <path id="DejaVuSans-34" d="M 2419 4116 
L 825 1625 
L 2419 1625 
L 2419 4116 
z
M 2253 4666 
L 3047 4666 
L 3047 1625 
L 3713 1625 
L 3713 1100 
L 3047 1100 
L 3047 0 
L 2419 0 
L 2419 1100 
L 313 1100 
L 313 1709 
L 2253 4666 
z
" transform="scale(0.015625)"/>
       </defs>
       <use xlink:href="#DejaVuSans-34"/>
      </g>
     </g>
    </g>
    <g id="xtick_4">
     <g id="line2d_4">
      <g>
       <use xlink:href="#mda70ea8528" x="336.702324" y="302.8525" style="stroke: #000000; stroke-width: 0.8"/>
      </g>
     </g>
     <g id="text_4">
      <!-- 5 -->
      <g transform="translate(333.521074 317.450938) scale(0.1 -0.1)">
       <defs>
        <path id="DejaVuSans-35" d="M 691 4666 
L 3169 4666 
L 3169 4134 
L 1269 4134 
L 1269 2991 
Q 1406 3038 1543 3061 
Q 1681 3084 1819 3084 
Q 2600 3084 3056 2656 
Q 3513 2228 3513 1497 
Q 3513 744 3044 326 
Q 2575 -91 1722 -91 
Q 1428 -91 1123 -41 
Q 819 9 494 109 
L 494 744 
Q 775 591 1075 516 
Q 1375 441 1709 441 
Q 2250 441 2565 725 
Q 2881 1009 2881 1497 
Q 2881 1984 2565 2268 
Q 2250 2553 1709 2553 
Q 1456 2553 1204 2497 
Q 953 2441 691 2322 
L 691 4666 
z
" transform="scale(0.015625)"/>
       </defs>
       <use xlink:href="#DejaVuSans-35"/>
      </g>
     </g>
    </g>
    <g id="xtick_5">
     <g id="line2d_5">
      <g>
       <use xlink:href="#mda70ea8528" x="412.234108" y="302.8525" style="stroke: #000000; stroke-width: 0.8"/>
      </g>
     </g>
     <g id="text_5">
      <!-- 6 -->
      <g transform="translate(409.052858 317.450938) scale(0.1 -0.1)">
       <defs>
        <path id="DejaVuSans-36" d="M 2113 2584 
Q 1688 2584 1439 2293 
Q 1191 2003 1191 1497 
Q 1191 994 1439 701 
Q 1688 409 2113 409 
Q 2538 409 2786 701 
Q 3034 994 3034 1497 
Q 3034 2003 2786 2293 
Q 2538 2584 2113 2584 
z
M 3366 4563 
L 3366 3988 
Q 3128 4100 2886 4159 
Q 2644 4219 2406 4219 
Q 1781 4219 1451 3797 
Q 1122 3375 1075 2522 
Q 1259 2794 1537 2939 
Q 1816 3084 2150 3084 
Q 2853 3084 3261 2657 
Q 3669 2231 3669 1497 
Q 3669 778 3244 343 
Q 2819 -91 2113 -91 
Q 1303 -91 875 529 
Q 447 1150 447 2328 
Q 447 3434 972 4092 
Q 1497 4750 2381 4750 
Q 2619 4750 2861 4703 
Q 3103 4656 3366 4563 
z
" transform="scale(0.015625)"/>
       </defs>
       <use xlink:href="#DejaVuSans-36"/>
      </g>
     </g>
    </g>
    <g id="text_6">
     <!-- CRO66 OH - THR203 HG1 Distance [] -->
     <g transform="translate(152.774531 332.0525) scale(0.1 -0.1)">
      <defs>
       <path id="DejaVuSans-43" d="M 4122 4306 
L 4122 3641 
Q 3803 3938 3442 4084 
Q 3081 4231 2675 4231 
Q 1875 4231 1450 3742 
Q 1025 3253 1025 2328 
Q 1025 1406 1450 917 
Q 1875 428 2675 428 
Q 3081 428 3442 575 
Q 3803 722 4122 1019 
L 4122 359 
Q 3791 134 3420 21 
Q 3050 -91 2638 -91 
Q 1578 -91 968 557 
Q 359 1206 359 2328 
Q 359 3453 968 4101 
Q 1578 4750 2638 4750 
Q 3056 4750 3426 4639 
Q 3797 4528 4122 4306 
z
" transform="scale(0.015625)"/>
       <path id="DejaVuSans-52" d="M 2841 2188 
Q 3044 2119 3236 1894 
Q 3428 1669 3622 1275 
L 4263 0 
L 3584 0 
L 2988 1197 
Q 2756 1666 2539 1819 
Q 2322 1972 1947 1972 
L 1259 1972 
L 1259 0 
L 628 0 
L 628 4666 
L 2053 4666 
Q 2853 4666 3247 4331 
Q 3641 3997 3641 3322 
Q 3641 2881 3436 2590 
Q 3231 2300 2841 2188 
z
M 1259 4147 
L 1259 2491 
L 2053 2491 
Q 2509 2491 2742 2702 
Q 2975 2913 2975 3322 
Q 2975 3731 2742 3939 
Q 2509 4147 2053 4147 
L 1259 4147 
z
" transform="scale(0.015625)"/>
       <path id="DejaVuSans-4f" d="M 2522 4238 
Q 1834 4238 1429 3725 
Q 1025 3213 1025 2328 
Q 1025 1447 1429 934 
Q 1834 422 2522 422 
Q 3209 422 3611 934 
Q 4013 1447 4013 2328 
Q 4013 3213 3611 3725 
Q 3209 4238 2522 4238 
z
M 2522 4750 
Q 3503 4750 4090 4092 
Q 4678 3434 4678 2328 
Q 4678 1225 4090 567 
Q 3503 -91 2522 -91 
Q 1538 -91 948 565 
Q 359 1222 359 2328 
Q 359 3434 948 4092 
Q 1538 4750 2522 4750 
z
" transform="scale(0.015625)"/>
       <path id="DejaVuSans-20" transform="scale(0.015625)"/>
       <path id="DejaVuSans-48" d="M 628 4666 
L 1259 4666 
L 1259 2753 
L 3553 2753 
L 3553 4666 
L 4184 4666 
L 4184 0 
L 3553 0 
L 3553 2222 
L 1259 2222 
L 1259 0 
L 628 0 
L 628 4666 
z
" transform="scale(0.015625)"/>
       <path id="DejaVuSans-2d" d="M 313 2009 
L 1997 2009 
L 1997 1497 
L 313 1497 
L 313 2009 
z
" transform="scale(0.015625)"/>
       <path id="DejaVuSans-54" d="M -19 4666 
L 3928 4666 
L 3928 4134 
L 2272 4134 
L 2272 0 
L 1638 0 
L 1638 4134 
L -19 4134 
L -19 4666 
z
" transform="scale(0.015625)"/>
       <path id="DejaVuSans-30" d="M 2034 4250 
Q 1547 4250 1301 3770 
Q 1056 3291 1056 2328 
Q 1056 1369 1301 889 
Q 1547 409 2034 409 
Q 2525 409 2770 889 
Q 3016 1369 3016 2328 
Q 3016 3291 2770 3770 
Q 2525 4250 2034 4250 
z
M 2034 4750 
Q 2819 4750 3233 4129 
Q 3647 3509 3647 2328 
Q 3647 1150 3233 529 
Q 2819 -91 2034 -91 
Q 1250 -91 836 529 
Q 422 1150 422 2328 
Q 422 3509 836 4129 
Q 1250 4750 2034 4750 
z
" transform="scale(0.015625)"/>
       <path id="DejaVuSans-47" d="M 3809 666 
L 3809 1919 
L 2778 1919 
L 2778 2438 
L 4434 2438 
L 4434 434 
Q 4069 175 3628 42 
Q 3188 -91 2688 -91 
Q 1594 -91 976 548 
Q 359 1188 359 2328 
Q 359 3472 976 4111 
Q 1594 4750 2688 4750 
Q 3144 4750 3555 4637 
Q 3966 4525 4313 4306 
L 4313 3634 
Q 3963 3931 3569 4081 
Q 3175 4231 2741 4231 
Q 1884 4231 1454 3753 
Q 1025 3275 1025 2328 
Q 1025 1384 1454 906 
Q 1884 428 2741 428 
Q 3075 428 3337 486 
Q 3600 544 3809 666 
z
" transform="scale(0.015625)"/>
       <path id="DejaVuSans-31" d="M 794 531 
L 1825 531 
L 1825 4091 
L 703 3866 
L 703 4441 
L 1819 4666 
L 2450 4666 
L 2450 531 
L 3481 531 
L 3481 0 
L 794 0 
L 794 531 
z
" transform="scale(0.015625)"/>
       <path id="DejaVuSans-44" d="M 1259 4147 
L 1259 519 
L 2022 519 
Q 2988 519 3436 956 
Q 3884 1394 3884 2338 
Q 3884 3275 3436 3711 
Q 2988 4147 2022 4147 
L 1259 4147 
z
M 628 4666 
L 1925 4666 
Q 3281 4666 3915 4102 
Q 4550 3538 4550 2338 
Q 4550 1131 3912 565 
Q 3275 0 1925 0 
L 628 0 
L 628 4666 
z
" transform="scale(0.015625)"/>
       <path id="DejaVuSans-69" d="M 603 3500 
L 1178 3500 
L 1178 0 
L 603 0 
L 603 3500 
z
M 603 4863 
L 1178 4863 
L 1178 4134 
L 603 4134 
L 603 4863 
z
" transform="scale(0.015625)"/>
       <path id="DejaVuSans-73" d="M 2834 3397 
L 2834 2853 
Q 2591 2978 2328 3040 
Q 2066 3103 1784 3103 
Q 1356 3103 1142 2972 
Q 928 2841 928 2578 
Q 928 2378 1081 2264 
Q 1234 2150 1697 2047 
L 1894 2003 
Q 2506 1872 2764 1633 
Q 3022 1394 3022 966 
Q 3022 478 2636 193 
Q 2250 -91 1575 -91 
Q 1294 -91 989 -36 
Q 684 19 347 128 
L 347 722 
Q 666 556 975 473 
Q 1284 391 1588 391 
Q 1994 391 2212 530 
Q 2431 669 2431 922 
Q 2431 1156 2273 1281 
Q 2116 1406 1581 1522 
L 1381 1569 
Q 847 1681 609 1914 
Q 372 2147 372 2553 
Q 372 3047 722 3315 
Q 1072 3584 1716 3584 
Q 2034 3584 2315 3537 
Q 2597 3491 2834 3397 
z
" transform="scale(0.015625)"/>
       <path id="DejaVuSans-74" d="M 1172 4494 
L 1172 3500 
L 2356 3500 
L 2356 3053 
L 1172 3053 
L 1172 1153 
Q 1172 725 1289 603 
Q 1406 481 1766 481 
L 2356 481 
L 2356 0 
L 1766 0 
Q 1100 0 847 248 
Q 594 497 594 1153 
L 594 3053 
L 172 3053 
L 172 3500 
L 594 3500 
L 594 4494 
L 1172 4494 
z
" transform="scale(0.015625)"/>
       <path id="DejaVuSans-61" d="M 2194 1759 
Q 1497 1759 1228 1600 
Q 959 1441 959 1056 
Q 959 750 1161 570 
Q 1363 391 1709 391 
Q 2188 391 2477 730 
Q 2766 1069 2766 1631 
L 2766 1759 
L 2194 1759 
z
M 3341 1997 
L 3341 0 
L 2766 0 
L 2766 531 
Q 2569 213 2275 61 
Q 1981 -91 1556 -91 
Q 1019 -91 701 211 
Q 384 513 384 1019 
Q 384 1609 779 1909 
Q 1175 2209 1959 2209 
L 2766 2209 
L 2766 2266 
Q 2766 2663 2505 2880 
Q 2244 3097 1772 3097 
Q 1472 3097 1187 3025 
Q 903 2953 641 2809 
L 641 3341 
Q 956 3463 1253 3523 
Q 1550 3584 1831 3584 
Q 2591 3584 2966 3190 
Q 3341 2797 3341 1997 
z
" transform="scale(0.015625)"/>
       <path id="DejaVuSans-6e" d="M 3513 2113 
L 3513 0 
L 2938 0 
L 2938 2094 
Q 2938 2591 2744 2837 
Q 2550 3084 2163 3084 
Q 1697 3084 1428 2787 
Q 1159 2491 1159 1978 
L 1159 0 
L 581 0 
L 581 3500 
L 1159 3500 
L 1159 2956 
Q 1366 3272 1645 3428 
Q 1925 3584 2291 3584 
Q 2894 3584 3203 3211 
Q 3513 2838 3513 2113 
z
" transform="scale(0.015625)"/>
       <path id="DejaVuSans-63" d="M 3122 3366 
L 3122 2828 
Q 2878 2963 2633 3030 
Q 2388 3097 2138 3097 
Q 1578 3097 1268 2742 
Q 959 2388 959 1747 
Q 959 1106 1268 751 
Q 1578 397 2138 397 
Q 2388 397 2633 464 
Q 2878 531 3122 666 
L 3122 134 
Q 2881 22 2623 -34 
Q 2366 -91 2075 -91 
Q 1284 -91 818 406 
Q 353 903 353 1747 
Q 353 2603 823 3093 
Q 1294 3584 2113 3584 
Q 2378 3584 2631 3529 
Q 2884 3475 3122 3366 
z
" transform="scale(0.015625)"/>
       <path id="DejaVuSans-65" d="M 3597 1894 
L 3597 1613 
L 953 1613 
Q 991 1019 1311 708 
Q 1631 397 2203 397 
Q 2534 397 2845 478 
Q 3156 559 3463 722 
L 3463 178 
Q 3153 47 2828 -22 
Q 2503 -91 2169 -91 
Q 1331 -91 842 396 
Q 353 884 353 1716 
Q 353 2575 817 3079 
Q 1281 3584 2069 3584 
Q 2775 3584 3186 3129 
Q 3597 2675 3597 1894 
z
M 3022 2063 
Q 3016 2534 2758 2815 
Q 2500 3097 2075 3097 
Q 1594 3097 1305 2825 
Q 1016 2553 972 2059 
L 3022 2063 
z
" transform="scale(0.015625)"/>
       <path id="DejaVuSans-5b" d="M 550 4863 
L 1875 4863 
L 1875 4416 
L 1125 4416 
L 1125 -397 
L 1875 -397 
L 1875 -844 
L 550 -844 
L 550 4863 
z
" transform="scale(0.015625)"/>
       <path id="DejaVuSans-c5" d="M 2663 5081 
Q 2663 5278 2523 5417 
Q 2384 5556 2188 5556 
Q 1988 5556 1852 5420 
Q 1716 5284 1716 5081 
Q 1716 4884 1853 4746 
Q 1991 4609 2188 4609 
Q 2384 4609 2523 4746 
Q 2663 4884 2663 5081 
z
M 2188 4044 
L 1338 1722 
L 3041 1722 
L 2188 4044 
z
M 1716 4366 
Q 1525 4494 1428 4673 
Q 1331 4853 1331 5081 
Q 1331 5441 1579 5691 
Q 1828 5941 2188 5941 
Q 2544 5941 2795 5689 
Q 3047 5438 3047 5081 
Q 3047 4863 2948 4678 
Q 2850 4494 2663 4366 
L 4325 0 
L 3669 0 
L 3244 1197 
L 1141 1197 
L 716 0 
L 50 0 
L 1716 4366 
z
" transform="scale(0.015625)"/>
       <path id="DejaVuSans-5d" d="M 1947 4863 
L 1947 -844 
L 622 -844 
L 622 -397 
L 1369 -397 
L 1369 4416 
L 622 4416 
L 622 4863 
L 1947 4863 
z
" transform="scale(0.015625)"/>
      </defs>
      <use xlink:href="#DejaVuSans-43"/>
      <use xlink:href="#DejaVuSans-52" x="69.824219"/>
      <use xlink:href="#DejaVuSans-4f" x="139.306641"/>
      <use xlink:href="#DejaVuSans-36" x="218.017578"/>
      <use xlink:href="#DejaVuSans-36" x="281.640625"/>
      <use xlink:href="#DejaVuSans-20" x="345.263672"/>
      <use xlink:href="#DejaVuSans-4f" x="377.050781"/>
      <use xlink:href="#DejaVuSans-48" x="455.761719"/>
      <use xlink:href="#DejaVuSans-20" x="530.957031"/>
      <use xlink:href="#DejaVuSans-2d" x="562.744141"/>
      <use xlink:href="#DejaVuSans-20" x="598.828125"/>
      <use xlink:href="#DejaVuSans-54" x="630.615234"/>
      <use xlink:href="#DejaVuSans-48" x="691.699219"/>
      <use xlink:href="#DejaVuSans-52" x="766.894531"/>
      <use xlink:href="#DejaVuSans-32" x="836.376953"/>
      <use xlink:href="#DejaVuSans-30" x="900"/>
      <use xlink:href="#DejaVuSans-33" x="963.623047"/>
      <use xlink:href="#DejaVuSans-20" x="1027.246094"/>
      <use xlink:href="#DejaVuSans-48" x="1059.033203"/>
      <use xlink:href="#DejaVuSans-47" x="1134.228516"/>
      <use xlink:href="#DejaVuSans-31" x="1211.71875"/>
      <use xlink:href="#DejaVuSans-20" x="1275.341797"/>
      <use xlink:href="#DejaVuSans-44" x="1307.128906"/>
      <use xlink:href="#DejaVuSans-69" x="1384.130859"/>
      <use xlink:href="#DejaVuSans-73" x="1411.914062"/>
      <use xlink:href="#DejaVuSans-74" x="1464.013672"/>
      <use xlink:href="#DejaVuSans-61" x="1503.222656"/>
      <use xlink:href="#DejaVuSans-6e" x="1564.501953"/>
      <use xlink:href="#DejaVuSans-63" x="1627.880859"/>
      <use xlink:href="#DejaVuSans-65" x="1682.861328"/>
      <use xlink:href="#DejaVuSans-20" x="1744.384766"/>
      <use xlink:href="#DejaVuSans-5b" x="1776.171875"/>
      <use xlink:href="#DejaVuSans-c5" x="1815.185547"/>
      <use xlink:href="#DejaVuSans-5d" x="1883.59375"/>
     </g>
    </g>
   </g>
   <g id="matplotlib.axis_2">
    <g id="ytick_1">
     <g id="line2d_6">
      <defs>
       <path id="m8a4af188e6" d="M 0 0 
L -3.5 0 
" style="stroke: #000000; stroke-width: 0.8"/>
      </defs>
      <g>
       <use xlink:href="#m8a4af188e6" x="47.81" y="302.8525" style="stroke: #000000; stroke-width: 0.8"/>
      </g>
     </g>
     <g id="text_7">
      <!-- 0.0 -->
      <g transform="translate(24.906875 306.651719) scale(0.1 -0.1)">
       <defs>
        <path id="DejaVuSans-2e" d="M 684 794 
L 1344 794 
L 1344 0 
L 684 0 
L 684 794 
z
" transform="scale(0.015625)"/>
       </defs>
       <use xlink:href="#DejaVuSans-30"/>
       <use xlink:href="#DejaVuSans-2e" x="63.623047"/>
       <use xlink:href="#DejaVuSans-30" x="95.410156"/>
      </g>
     </g>
    </g>
    <g id="ytick_2">
     <g id="line2d_7">
      <g>
       <use xlink:href="#m8a4af188e6" x="47.81" y="248.629191" style="stroke: #000000; stroke-width: 0.8"/>
      </g>
     </g>
     <g id="text_8">
      <!-- 0.2 -->
      <g transform="translate(24.906875 252.42841) scale(0.1 -0.1)">
       <use xlink:href="#DejaVuSans-30"/>
       <use xlink:href="#DejaVuSans-2e" x="63.623047"/>
       <use xlink:href="#DejaVuSans-32" x="95.410156"/>
      </g>
     </g>
    </g>
    <g id="ytick_3">
     <g id="line2d_8">
      <g>
       <use xlink:href="#m8a4af188e6" x="47.81" y="194.405882" style="stroke: #000000; stroke-width: 0.8"/>
      </g>
     </g>
     <g id="text_9">
      <!-- 0.4 -->
      <g transform="translate(24.906875 198.205101) scale(0.1 -0.1)">
       <use xlink:href="#DejaVuSans-30"/>
       <use xlink:href="#DejaVuSans-2e" x="63.623047"/>
       <use xlink:href="#DejaVuSans-34" x="95.410156"/>
      </g>
     </g>
    </g>
    <g id="ytick_4">
     <g id="line2d_9">
      <g>
       <use xlink:href="#m8a4af188e6" x="47.81" y="140.182573" style="stroke: #000000; stroke-width: 0.8"/>
      </g>
     </g>
     <g id="text_10">
      <!-- 0.6 -->
      <g transform="translate(24.906875 143.981792) scale(0.1 -0.1)">
       <use xlink:href="#DejaVuSans-30"/>
       <use xlink:href="#DejaVuSans-2e" x="63.623047"/>
       <use xlink:href="#DejaVuSans-36" x="95.410156"/>
      </g>
     </g>
    </g>
    <g id="ytick_5">
     <g id="line2d_10">
      <g>
       <use xlink:href="#m8a4af188e6" x="47.81" y="85.959265" style="stroke: #000000; stroke-width: 0.8"/>
      </g>
     </g>
     <g id="text_11">
      <!-- 0.8 -->
      <g transform="translate(24.906875 89.758483) scale(0.1 -0.1)">
       <defs>
        <path id="DejaVuSans-38" d="M 2034 2216 
Q 1584 2216 1326 1975 
Q 1069 1734 1069 1313 
Q 1069 891 1326 650 
Q 1584 409 2034 409 
Q 2484 409 2743 651 
Q 3003 894 3003 1313 
Q 3003 1734 2745 1975 
Q 2488 2216 2034 2216 
z
M 1403 2484 
Q 997 2584 770 2862 
Q 544 3141 544 3541 
Q 544 4100 942 4425 
Q 1341 4750 2034 4750 
Q 2731 4750 3128 4425 
Q 3525 4100 3525 3541 
Q 3525 3141 3298 2862 
Q 3072 2584 2669 2484 
Q 3125 2378 3379 2068 
Q 3634 1759 3634 1313 
Q 3634 634 3220 271 
Q 2806 -91 2034 -91 
Q 1263 -91 848 271 
Q 434 634 434 1313 
Q 434 1759 690 2068 
Q 947 2378 1403 2484 
z
M 1172 3481 
Q 1172 3119 1398 2916 
Q 1625 2713 2034 2713 
Q 2441 2713 2670 2916 
Q 2900 3119 2900 3481 
Q 2900 3844 2670 4047 
Q 2441 4250 2034 4250 
Q 1625 4250 1398 4047 
Q 1172 3844 1172 3481 
z
" transform="scale(0.015625)"/>
       </defs>
       <use xlink:href="#DejaVuSans-30"/>
       <use xlink:href="#DejaVuSans-2e" x="63.623047"/>
       <use xlink:href="#DejaVuSans-38" x="95.410156"/>
      </g>
     </g>
    </g>
    <g id="ytick_6">
     <g id="line2d_11">
      <g>
       <use xlink:href="#m8a4af188e6" x="47.81" y="31.735956" style="stroke: #000000; stroke-width: 0.8"/>
      </g>
     </g>
     <g id="text_12">
      <!-- 1.0 -->
      <g transform="translate(24.906875 35.535174) scale(0.1 -0.1)">
       <use xlink:href="#DejaVuSans-31"/>
       <use xlink:href="#DejaVuSans-2e" x="63.623047"/>
       <use xlink:href="#DejaVuSans-30" x="95.410156"/>
      </g>
     </g>
    </g>
    <g id="text_13">
     <!-- Density -->
     <g transform="translate(18.827187 175.834844) rotate(-90) scale(0.1 -0.1)">
      <defs>
       <path id="DejaVuSans-79" d="M 2059 -325 
Q 1816 -950 1584 -1140 
Q 1353 -1331 966 -1331 
L 506 -1331 
L 506 -850 
L 844 -850 
Q 1081 -850 1212 -737 
Q 1344 -625 1503 -206 
L 1606 56 
L 191 3500 
L 800 3500 
L 1894 763 
L 2988 3500 
L 3597 3500 
L 2059 -325 
z
" transform="scale(0.015625)"/>
      </defs>
      <use xlink:href="#DejaVuSans-44"/>
      <use xlink:href="#DejaVuSans-65" x="77.001953"/>
      <use xlink:href="#DejaVuSans-6e" x="138.525391"/>
      <use xlink:href="#DejaVuSans-73" x="201.904297"/>
      <use xlink:href="#DejaVuSans-69" x="254.003906"/>
      <use xlink:href="#DejaVuSans-74" x="281.787109"/>
      <use xlink:href="#DejaVuSans-79" x="320.996094"/>
     </g>
    </g>
   </g>
   <g id="line2d_12">
    <path d="M 69.402855 298.188568 
L 71.561209 295.338816 
L 73.719563 291.350317 
L 75.877917 286.090632 
L 78.036271 279.556666 
L 80.194625 271.91726 
L 86.669687 246.684561 
L 88.828041 239.490496 
L 90.986395 233.882326 
L 93.144749 230.250601 
L 95.303103 228.773049 
L 97.461457 229.407823 
L 99.619811 231.924896 
L 101.778165 235.962935 
L 103.936519 241.095408 
L 108.253227 252.961689 
L 112.569935 264.724733 
L 114.728289 270.013186 
L 116.886643 274.753684 
L 119.044997 278.900467 
L 121.203351 282.446666 
L 123.361705 285.412957 
L 125.520059 287.838361 
L 127.678413 289.772594 
L 129.836767 291.269328 
L 131.995121 292.380028 
L 134.153475 293.148613 
L 136.311829 293.607572 
L 138.470183 293.776198 
L 140.628537 293.661237 
L 142.786891 293.25952 
L 144.945245 292.561478 
L 147.103599 291.554172 
L 149.261953 290.222881 
L 151.420307 288.551271 
L 153.57866 286.521243 
L 155.737014 284.113978 
L 157.895368 281.313295 
L 160.053722 278.111254 
L 162.212076 274.514569 
L 164.37043 270.549606 
L 166.528784 266.26403 
L 170.845492 257.013338 
L 177.320554 242.827996 
L 179.478908 238.461075 
L 181.637262 234.485203 
L 183.795616 231.02536 
L 185.95397 228.189853 
L 188.112324 226.059483 
L 190.270678 224.681085 
L 192.429032 224.065971 
L 194.587386 224.192091 
L 196.74574 225.008481 
L 198.904094 226.441072 
L 201.062448 228.399307 
L 203.220802 230.783071 
L 205.379156 233.489502 
L 209.695864 239.482182 
L 216.170926 248.722606 
L 218.32928 251.592875 
L 220.487634 254.230315 
L 222.645988 256.543891 
L 224.804342 258.442389 
L 226.962696 259.847093 
L 229.12105 260.701648 
L 231.279404 260.975277 
L 233.437758 260.660429 
L 235.596112 259.769226 
L 237.754466 258.332333 
L 239.91282 256.399956 
L 242.071174 254.04082 
L 244.229528 251.334743 
L 246.387882 248.358282 
L 250.704589 241.793924 
L 255.021297 234.488211 
L 259.338005 226.438754 
L 265.813067 213.554815 
L 272.288129 200.723688 
L 280.921545 184.139656 
L 287.396607 172.045806 
L 289.554961 168.280018 
L 291.713315 164.783817 
L 293.871669 161.648423 
L 296.030023 158.957255 
L 298.188377 156.777987 
L 300.346731 155.157301 
L 302.505085 154.119934 
L 304.663439 153.673238 
L 306.821793 153.8159 
L 308.980147 154.546241 
L 311.138501 155.864776 
L 313.296855 157.769131 
L 315.455209 160.244912 
L 317.613563 163.259355 
L 319.771917 166.76282 
L 321.930271 170.697747 
L 324.088625 175.00964 
L 326.246979 179.653632 
L 330.563687 189.796231 
L 334.880395 200.83639 
L 341.355457 218.303668 
L 347.830519 235.568303 
L 352.147226 246.095002 
L 354.30558 250.910171 
L 356.463934 255.404272 
L 358.622288 259.582672 
L 360.780642 263.460239 
L 362.938996 267.055414 
L 365.09735 270.386882 
L 367.255704 273.47232 
L 369.414058 276.328137 
L 371.572412 278.969392 
L 373.730766 281.409566 
L 375.88912 283.660144 
L 378.047474 285.7301 
L 380.205828 287.625583 
L 382.364182 289.350267 
L 384.522536 290.90667 
L 386.68089 292.298237 
L 388.839244 293.531452 
L 390.997598 294.616977 
L 395.314306 296.404882 
L 399.631014 297.789728 
L 403.947722 298.876553 
L 408.26443 299.732438 
L 412.581138 300.396512 
L 419.0562 301.093599 
L 427.689616 301.6809 
L 436.323032 302.075245 
L 451.431509 302.473235 
L 461.8 302.667145 
L 461.8 302.667145 
" clip-path="url(#p466272a150)" style="fill: none; stroke: #1e2e79; stroke-width: 1.5; stroke-linecap: square"/>
   </g>
   <g id="line2d_13">
    <path d="M 69.291205 290.645493 
L 71.185181 284.388951 
L 73.079158 275.910393 
L 74.973134 264.887582 
L 76.867111 251.137519 
L 78.761087 234.680182 
L 80.655064 215.7846 
L 84.443017 173.062011 
L 88.23097 129.82003 
L 90.124946 110.643805 
L 92.018923 94.422051 
L 93.912899 81.927659 
L 95.806876 73.673285 
L 97.700852 69.878445 
L 99.594829 70.471516 
L 101.488805 75.123492 
L 103.382782 83.305592 
L 105.276758 94.359806 
L 107.170735 107.570669 
L 110.958688 137.675608 
L 114.746641 168.744424 
L 116.640617 183.515846 
L 118.534594 197.375573 
L 120.42857 210.133668 
L 122.322547 221.678484 
L 124.216523 231.965605 
L 126.1105 241.00575 
L 128.004476 248.851746 
L 129.898453 255.585057 
L 131.792429 261.302723 
L 133.686406 266.105633 
L 135.580383 270.088973 
L 137.474359 273.335424 
L 139.368336 275.911406 
L 141.262312 277.86639 
L 143.156289 279.234887 
L 145.050265 280.040381 
L 146.944242 280.300043 
L 148.838218 280.028974 
L 150.732195 279.242979 
L 152.626171 277.959532 
L 154.520148 276.197449 
L 156.414124 273.976397 
L 158.308101 271.317484 
L 160.202077 268.245582 
L 162.096054 264.793065 
L 163.99003 261.003766 
L 167.777983 252.66074 
L 175.353889 235.259981 
L 177.247866 231.299851 
L 179.141842 227.675994 
L 181.035819 224.47186 
L 182.929795 221.764337 
L 184.823772 219.619713 
L 186.717748 218.088248 
L 188.611725 217.198902 
L 190.505701 216.956183 
L 192.399678 217.340568 
L 194.293654 218.312614 
L 196.187631 219.819414 
L 198.081607 221.801192 
L 199.975584 224.196004 
L 201.86956 226.941633 
L 203.763537 229.975064 
L 207.55149 236.639115 
L 213.233419 247.018055 
L 215.127396 250.263435 
L 217.021372 253.273214 
L 218.915349 255.980665 
L 220.809326 258.330787 
L 222.703302 260.282255 
L 224.597279 261.807751 
L 226.491255 262.892933 
L 228.385232 263.534693 
L 230.279208 263.739378 
L 232.173185 263.521366 
L 234.067161 262.902004 
L 235.961138 261.908735 
L 237.855114 260.574161 
L 239.749091 258.934996 
L 241.643067 257.030895 
L 243.537044 254.903254 
L 247.324997 250.144531 
L 253.006926 242.342006 
L 258.688856 234.586748 
L 262.476809 229.870669 
L 264.370785 227.740902 
L 266.264762 225.800884 
L 268.158738 224.075805 
L 270.052715 222.588265 
L 271.946691 221.358106 
L 273.840668 220.401613 
L 275.734644 219.72977 
L 277.628621 219.34597 
L 279.522597 219.244181 
L 281.416574 219.408744 
L 283.31055 219.816443 
L 285.204527 220.44047 
L 287.098503 221.254982 
L 288.99248 222.238599 
L 290.886456 223.375627 
L 294.674409 226.066643 
L 298.462362 229.244022 
L 302.250316 232.808789 
L 306.038269 236.700722 
L 309.826222 240.951479 
L 313.614175 245.60117 
L 319.296104 253.078934 
L 324.978034 260.500279 
L 330.659963 267.52934 
L 336.341893 274.250255 
L 340.129846 278.498878 
L 343.917799 282.444491 
L 347.705752 286.011703 
L 351.493705 289.166696 
L 355.281658 291.89803 
L 359.069611 294.212086 
L 362.857564 296.138496 
L 366.645517 297.721764 
L 370.43347 299.004641 
L 374.221423 300.02247 
L 378.009376 300.809474 
L 381.797329 301.403621 
L 387.479259 302.016376 
L 393.161188 302.385533 
L 400.737094 302.624249 
L 415.888906 302.786223 
L 442.404577 302.837988 
L 446.19253 302.839675 
L 446.19253 302.839675 
" clip-path="url(#p466272a150)" style="fill: none; stroke: #f99752; stroke-width: 1.5; stroke-linecap: square"/>
   </g>
   <g id="patch_164">
    <path d="M 47.81 302.8525 
L 47.81 10.8 
" style="fill: none; stroke: #000000; stroke-width: 0.8; stroke-linejoin: miter; stroke-linecap: square"/>
   </g>
   <g id="patch_165">
    <path d="M 450 302.8525 
L 450 10.8 
" style="fill: none; stroke: #000000; stroke-width: 0.8; stroke-linejoin: miter; stroke-linecap: square"/>
   </g>
   <g id="patch_166">
    <path d="M 47.81 302.8525 
L 450 302.8525 
" style="fill: none; stroke: #000000; stroke-width: 0.8; stroke-linejoin: miter; stroke-linecap: square"/>
   </g>
   <g id="patch_167">
    <path d="M 47.81 10.8 
L 450 10.8 
" style="fill: none; stroke: #000000; stroke-width: 0.8; stroke-linejoin: miter; stroke-linecap: square"/>
   </g>
   <g id="legend_1">
    <g id="patch_168">
     <path d="M 365.853125 48.15625 
L 443 48.15625 
Q 445 48.15625 445 46.15625 
L 445 17.8 
Q 445 15.8 443 15.8 
L 365.853125 15.8 
Q 363.853125 15.8 363.853125 17.8 
L 363.853125 46.15625 
Q 363.853125 48.15625 365.853125 48.15625 
z
" style="fill: #ffffff; opacity: 0.8; stroke: #cccccc; stroke-linejoin: miter"/>
    </g>
    <g id="patch_169">
     <path d="M 367.853125 27.398438 
L 387.853125 27.398438 
L 387.853125 20.398438 
L 367.853125 20.398438 
z
" style="fill: #1e2e79; fill-opacity: 0.5; stroke: #000000; stroke-width: 0.327934; stroke-linejoin: miter"/>
    </g>
    <g id="text_14">
     <!-- Unbound -->
     <g transform="translate(395.853125 27.398438) scale(0.1 -0.1)">
      <defs>
       <path id="DejaVuSans-55" d="M 556 4666 
L 1191 4666 
L 1191 1831 
Q 1191 1081 1462 751 
Q 1734 422 2344 422 
Q 2950 422 3222 751 
Q 3494 1081 3494 1831 
L 3494 4666 
L 4128 4666 
L 4128 1753 
Q 4128 841 3676 375 
Q 3225 -91 2344 -91 
Q 1459 -91 1007 375 
Q 556 841 556 1753 
L 556 4666 
z
" transform="scale(0.015625)"/>
       <path id="DejaVuSans-62" d="M 3116 1747 
Q 3116 2381 2855 2742 
Q 2594 3103 2138 3103 
Q 1681 3103 1420 2742 
Q 1159 2381 1159 1747 
Q 1159 1113 1420 752 
Q 1681 391 2138 391 
Q 2594 391 2855 752 
Q 3116 1113 3116 1747 
z
M 1159 2969 
Q 1341 3281 1617 3432 
Q 1894 3584 2278 3584 
Q 2916 3584 3314 3078 
Q 3713 2572 3713 1747 
Q 3713 922 3314 415 
Q 2916 -91 2278 -91 
Q 1894 -91 1617 61 
Q 1341 213 1159 525 
L 1159 0 
L 581 0 
L 581 4863 
L 1159 4863 
L 1159 2969 
z
" transform="scale(0.015625)"/>
       <path id="DejaVuSans-6f" d="M 1959 3097 
Q 1497 3097 1228 2736 
Q 959 2375 959 1747 
Q 959 1119 1226 758 
Q 1494 397 1959 397 
Q 2419 397 2687 759 
Q 2956 1122 2956 1747 
Q 2956 2369 2687 2733 
Q 2419 3097 1959 3097 
z
M 1959 3584 
Q 2709 3584 3137 3096 
Q 3566 2609 3566 1747 
Q 3566 888 3137 398 
Q 2709 -91 1959 -91 
Q 1206 -91 779 398 
Q 353 888 353 1747 
Q 353 2609 779 3096 
Q 1206 3584 1959 3584 
z
" transform="scale(0.015625)"/>
       <path id="DejaVuSans-75" d="M 544 1381 
L 544 3500 
L 1119 3500 
L 1119 1403 
Q 1119 906 1312 657 
Q 1506 409 1894 409 
Q 2359 409 2629 706 
Q 2900 1003 2900 1516 
L 2900 3500 
L 3475 3500 
L 3475 0 
L 2900 0 
L 2900 538 
Q 2691 219 2414 64 
Q 2138 -91 1772 -91 
Q 1169 -91 856 284 
Q 544 659 544 1381 
z
M 1991 3584 
L 1991 3584 
z
" transform="scale(0.015625)"/>
       <path id="DejaVuSans-64" d="M 2906 2969 
L 2906 4863 
L 3481 4863 
L 3481 0 
L 2906 0 
L 2906 525 
Q 2725 213 2448 61 
Q 2172 -91 1784 -91 
Q 1150 -91 751 415 
Q 353 922 353 1747 
Q 353 2572 751 3078 
Q 1150 3584 1784 3584 
Q 2172 3584 2448 3432 
Q 2725 3281 2906 2969 
z
M 947 1747 
Q 947 1113 1208 752 
Q 1469 391 1925 391 
Q 2381 391 2643 752 
Q 2906 1113 2906 1747 
Q 2906 2381 2643 2742 
Q 2381 3103 1925 3103 
Q 1469 3103 1208 2742 
Q 947 2381 947 1747 
z
" transform="scale(0.015625)"/>
      </defs>
      <use xlink:href="#DejaVuSans-55"/>
      <use xlink:href="#DejaVuSans-6e" x="73.193359"/>
      <use xlink:href="#DejaVuSans-62" x="136.572266"/>
      <use xlink:href="#DejaVuSans-6f" x="200.048828"/>
      <use xlink:href="#DejaVuSans-75" x="261.230469"/>
      <use xlink:href="#DejaVuSans-6e" x="324.609375"/>
      <use xlink:href="#DejaVuSans-64" x="387.988281"/>
     </g>
    </g>
    <g id="patch_170">
     <path d="M 367.853125 42.076563 
L 387.853125 42.076563 
L 387.853125 35.076563 
L 367.853125 35.076563 
z
" style="fill: #f99752; fill-opacity: 0.5; stroke: #000000; stroke-width: 0.459377; stroke-linejoin: miter"/>
    </g>
    <g id="text_15">
     <!-- Bound -->
     <g transform="translate(395.853125 42.076563) scale(0.1 -0.1)">
      <defs>
       <path id="DejaVuSans-42" d="M 1259 2228 
L 1259 519 
L 2272 519 
Q 2781 519 3026 730 
Q 3272 941 3272 1375 
Q 3272 1813 3026 2020 
Q 2781 2228 2272 2228 
L 1259 2228 
z
M 1259 4147 
L 1259 2741 
L 2194 2741 
Q 2656 2741 2882 2914 
Q 3109 3088 3109 3444 
Q 3109 3797 2882 3972 
Q 2656 4147 2194 4147 
L 1259 4147 
z
M 628 4666 
L 2241 4666 
Q 2963 4666 3353 4366 
Q 3744 4066 3744 3513 
Q 3744 3084 3544 2831 
Q 3344 2578 2956 2516 
Q 3422 2416 3680 2098 
Q 3938 1781 3938 1306 
Q 3938 681 3513 340 
Q 3088 0 2303 0 
L 628 0 
L 628 4666 
z
" transform="scale(0.015625)"/>
      </defs>
      <use xlink:href="#DejaVuSans-42"/>
      <use xlink:href="#DejaVuSans-6f" x="68.603516"/>
      <use xlink:href="#DejaVuSans-75" x="129.785156"/>
      <use xlink:href="#DejaVuSans-6e" x="193.164062"/>
      <use xlink:href="#DejaVuSans-64" x="256.542969"/>
     </g>
    </g>
   </g>
  </g>
 </g>
 <defs>
  <clipPath id="p466272a150">
   <rect x="47.81" y="10.8" width="402.19" height="292.0525"/>
  </clipPath>
 </defs>
</svg>
