<?xml version="1.0" encoding="utf-8" standalone="no"?>
<!DOCTYPE svg PUBLIC "-//W3C//DTD SVG 1.1//EN"
  "http://www.w3.org/Graphics/SVG/1.1/DTD/svg11.dtd">
<svg xmlns:xlink="http://www.w3.org/1999/xlink" width="460.8pt" height="345.6pt" viewBox="0 0 460.8 345.6" xmlns="http://www.w3.org/2000/svg" version="1.1">
 <metadata>
  <rdf:RDF xmlns:dc="http://purl.org/dc/elements/1.1/" xmlns:cc="http://creativecommons.org/ns#" xmlns:rdf="http://www.w3.org/1999/02/22-rdf-syntax-ns#">
   <cc:Work>
    <dc:type rdf:resource="http://purl.org/dc/dcmitype/StillImage"/>
    <dc:date>2024-02-08T15:18:48.682063</dc:date>
    <dc:format>image/svg+xml</dc:format>
    <dc:creator>
     <cc:Agent>
      <dc:title>Matplotlib v3.8.2, https://matplotlib.org/</dc:title>
     </cc:Agent>
    </dc:creator>
   </cc:Work>
  </rdf:RDF>
 </metadata>
 <defs>
  <style type="text/css">*{stroke-linejoin: round; stroke-linecap: butt}</style>
 </defs>
 <g id="figure_1">
  <g id="patch_1">
   <path d="M 0 345.6 
L 460.8 345.6 
L 460.8 0 
L 0 0 
z
" style="fill: #ffffff"/>
  </g>
  <g id="axes_1">
   <g id="patch_2">
    <path d="M 47.81 302.8525 
L 450 302.8525 
L 450 10.8 
L 47.81 10.8 
z
" style="fill: #ffffff"/>
   </g>
   <g id="patch_3">
    <path d="M 69.287973 302.8525 
L 73.671233 302.8525 
L 73.671233 302.329272 
L 69.287973 302.329272 
z
" clip-path="url(#p53666c1a5f)" style="fill: #1e2e79; fill-opacity: 0.5; stroke: #000000; stroke-width: 0.33128; stroke-linejoin: miter"/>
   </g>
   <g id="patch_4">
    <path d="M 73.671233 302.8525 
L 78.054492 302.8525 
L 78.054492 298.174228 
L 73.671233 298.174228 
z
" clip-path="url(#p53666c1a5f)" style="fill: #1e2e79; fill-opacity: 0.5; stroke: #000000; stroke-width: 0.33128; stroke-linejoin: miter"/>
   </g>
   <g id="patch_5">
    <path d="M 78.054492 302.8525 
L 82.437752 302.8525 
L 82.437752 282.72362 
L 78.054492 282.72362 
z
" clip-path="url(#p53666c1a5f)" style="fill: #1e2e79; fill-opacity: 0.5; stroke: #000000; stroke-width: 0.33128; stroke-linejoin: miter"/>
   </g>
   <g id="patch_6">
    <path d="M 82.437752 302.8525 
L 86.821012 302.8525 
L 86.821012 255.177216 
L 82.437752 255.177216 
z
" clip-path="url(#p53666c1a5f)" style="fill: #1e2e79; fill-opacity: 0.5; stroke: #000000; stroke-width: 0.33128; stroke-linejoin: miter"/>
   </g>
   <g id="patch_7">
    <path d="M 86.821012 302.8525 
L 91.204272 302.8525 
L 91.204272 225.599458 
L 86.821012 225.599458 
z
" clip-path="url(#p53666c1a5f)" style="fill: #1e2e79; fill-opacity: 0.5; stroke: #000000; stroke-width: 0.33128; stroke-linejoin: miter"/>
   </g>
   <g id="patch_8">
    <path d="M 91.204272 302.8525 
L 95.587531 302.8525 
L 95.587531 208.640722 
L 91.204272 208.640722 
z
" clip-path="url(#p53666c1a5f)" style="fill: #1e2e79; fill-opacity: 0.5; stroke: #000000; stroke-width: 0.33128; stroke-linejoin: miter"/>
   </g>
   <g id="patch_9">
    <path d="M 95.587531 302.8525 
L 99.970791 302.8525 
L 99.970791 213.996113 
L 95.587531 213.996113 
z
" clip-path="url(#p53666c1a5f)" style="fill: #1e2e79; fill-opacity: 0.5; stroke: #000000; stroke-width: 0.33128; stroke-linejoin: miter"/>
   </g>
   <g id="patch_10">
    <path d="M 99.970791 302.8525 
L 104.354051 302.8525 
L 104.354051 226.399689 
L 99.970791 226.399689 
z
" clip-path="url(#p53666c1a5f)" style="fill: #1e2e79; fill-opacity: 0.5; stroke: #000000; stroke-width: 0.33128; stroke-linejoin: miter"/>
   </g>
   <g id="patch_11">
    <path d="M 104.354051 302.8525 
L 108.737311 302.8525 
L 108.737311 245.20511 
L 104.354051 245.20511 
z
" clip-path="url(#p53666c1a5f)" style="fill: #1e2e79; fill-opacity: 0.5; stroke: #000000; stroke-width: 0.33128; stroke-linejoin: miter"/>
   </g>
   <g id="patch_12">
    <path d="M 108.737311 302.8525 
L 113.120571 302.8525 
L 113.120571 260.409494 
L 108.737311 260.409494 
z
" clip-path="url(#p53666c1a5f)" style="fill: #1e2e79; fill-opacity: 0.5; stroke: #000000; stroke-width: 0.33128; stroke-linejoin: miter"/>
   </g>
   <g id="patch_13">
    <path d="M 113.120571 302.8525 
L 117.50383 302.8525 
L 117.50383 273.428632 
L 113.120571 273.428632 
z
" clip-path="url(#p53666c1a5f)" style="fill: #1e2e79; fill-opacity: 0.5; stroke: #000000; stroke-width: 0.33128; stroke-linejoin: miter"/>
   </g>
   <g id="patch_14">
    <path d="M 117.50383 302.8525 
L 121.88709 302.8525 
L 121.88709 282.07728 
L 117.50383 282.07728 
z
" clip-path="url(#p53666c1a5f)" style="fill: #1e2e79; fill-opacity: 0.5; stroke: #000000; stroke-width: 0.33128; stroke-linejoin: miter"/>
   </g>
   <g id="patch_15">
    <path d="M 121.88709 302.8525 
L 126.27035 302.8525 
L 126.27035 288.017454 
L 121.88709 288.017454 
z
" clip-path="url(#p53666c1a5f)" style="fill: #1e2e79; fill-opacity: 0.5; stroke: #000000; stroke-width: 0.33128; stroke-linejoin: miter"/>
   </g>
   <g id="patch_16">
    <path d="M 126.27035 302.8525 
L 130.65361 302.8525 
L 130.65361 292.664947 
L 126.27035 292.664947 
z
" clip-path="url(#p53666c1a5f)" style="fill: #1e2e79; fill-opacity: 0.5; stroke: #000000; stroke-width: 0.33128; stroke-linejoin: miter"/>
   </g>
   <g id="patch_17">
    <path d="M 130.65361 302.8525 
L 135.036869 302.8525 
L 135.036869 294.296187 
L 130.65361 294.296187 
z
" clip-path="url(#p53666c1a5f)" style="fill: #1e2e79; fill-opacity: 0.5; stroke: #000000; stroke-width: 0.33128; stroke-linejoin: miter"/>
   </g>
   <g id="patch_18">
    <path d="M 135.036869 302.8525 
L 139.420129 302.8525 
L 139.420129 295.096418 
L 135.036869 295.096418 
z
" clip-path="url(#p53666c1a5f)" style="fill: #1e2e79; fill-opacity: 0.5; stroke: #000000; stroke-width: 0.33128; stroke-linejoin: miter"/>
   </g>
   <g id="patch_19">
    <path d="M 139.420129 302.8525 
L 143.803389 302.8525 
L 143.803389 294.696302 
L 139.420129 294.696302 
z
" clip-path="url(#p53666c1a5f)" style="fill: #1e2e79; fill-opacity: 0.5; stroke: #000000; stroke-width: 0.33128; stroke-linejoin: miter"/>
   </g>
   <g id="patch_20">
    <path d="M 143.803389 302.8525 
L 148.186649 302.8525 
L 148.186649 294.450078 
L 143.803389 294.450078 
z
" clip-path="url(#p53666c1a5f)" style="fill: #1e2e79; fill-opacity: 0.5; stroke: #000000; stroke-width: 0.33128; stroke-linejoin: miter"/>
   </g>
   <g id="patch_21">
    <path d="M 148.186649 302.8525 
L 152.569909 302.8525 
L 152.569909 291.249155 
L 148.186649 291.249155 
z
" clip-path="url(#p53666c1a5f)" style="fill: #1e2e79; fill-opacity: 0.5; stroke: #000000; stroke-width: 0.33128; stroke-linejoin: miter"/>
   </g>
   <g id="patch_22">
    <path d="M 152.569909 302.8525 
L 156.953168 302.8525 
L 156.953168 287.955897 
L 152.569909 287.955897 
z
" clip-path="url(#p53666c1a5f)" style="fill: #1e2e79; fill-opacity: 0.5; stroke: #000000; stroke-width: 0.33128; stroke-linejoin: miter"/>
   </g>
   <g id="patch_23">
    <path d="M 156.953168 302.8525 
L 161.336428 302.8525 
L 161.336428 283.739297 
L 156.953168 283.739297 
z
" clip-path="url(#p53666c1a5f)" style="fill: #1e2e79; fill-opacity: 0.5; stroke: #000000; stroke-width: 0.33128; stroke-linejoin: miter"/>
   </g>
   <g id="patch_24">
    <path d="M 161.336428 302.8525 
L 165.719688 302.8525 
L 165.719688 275.644656 
L 161.336428 275.644656 
z
" clip-path="url(#p53666c1a5f)" style="fill: #1e2e79; fill-opacity: 0.5; stroke: #000000; stroke-width: 0.33128; stroke-linejoin: miter"/>
   </g>
   <g id="patch_25">
    <path d="M 165.719688 302.8525 
L 170.102948 302.8525 
L 170.102948 266.719005 
L 165.719688 266.719005 
z
" clip-path="url(#p53666c1a5f)" style="fill: #1e2e79; fill-opacity: 0.5; stroke: #000000; stroke-width: 0.33128; stroke-linejoin: miter"/>
   </g>
   <g id="patch_26">
    <path d="M 170.102948 302.8525 
L 174.486207 302.8525 
L 174.486207 254.223095 
L 170.102948 254.223095 
z
" clip-path="url(#p53666c1a5f)" style="fill: #1e2e79; fill-opacity: 0.5; stroke: #000000; stroke-width: 0.33128; stroke-linejoin: miter"/>
   </g>
   <g id="patch_27">
    <path d="M 174.486207 302.8525 
L 178.869467 302.8525 
L 178.869467 245.789894 
L 174.486207 245.789894 
z
" clip-path="url(#p53666c1a5f)" style="fill: #1e2e79; fill-opacity: 0.5; stroke: #000000; stroke-width: 0.33128; stroke-linejoin: miter"/>
   </g>
   <g id="patch_28">
    <path d="M 178.869467 302.8525 
L 183.252727 302.8525 
L 183.252727 234.49433 
L 178.869467 234.49433 
z
" clip-path="url(#p53666c1a5f)" style="fill: #1e2e79; fill-opacity: 0.5; stroke: #000000; stroke-width: 0.33128; stroke-linejoin: miter"/>
   </g>
   <g id="patch_29">
    <path d="M 183.252727 302.8525 
L 187.635987 302.8525 
L 187.635987 226.492023 
L 183.252727 226.492023 
z
" clip-path="url(#p53666c1a5f)" style="fill: #1e2e79; fill-opacity: 0.5; stroke: #000000; stroke-width: 0.33128; stroke-linejoin: miter"/>
   </g>
   <g id="patch_30">
    <path d="M 187.635987 302.8525 
L 192.019246 302.8525 
L 192.019246 222.583204 
L 187.635987 222.583204 
z
" clip-path="url(#p53666c1a5f)" style="fill: #1e2e79; fill-opacity: 0.5; stroke: #000000; stroke-width: 0.33128; stroke-linejoin: miter"/>
   </g>
   <g id="patch_31">
    <path d="M 192.019246 302.8525 
L 196.402506 302.8525 
L 196.402506 220.397958 
L 192.019246 220.397958 
z
" clip-path="url(#p53666c1a5f)" style="fill: #1e2e79; fill-opacity: 0.5; stroke: #000000; stroke-width: 0.33128; stroke-linejoin: miter"/>
   </g>
   <g id="patch_32">
    <path d="M 196.402506 302.8525 
L 200.785766 302.8525 
L 200.785766 223.629659 
L 196.402506 223.629659 
z
" clip-path="url(#p53666c1a5f)" style="fill: #1e2e79; fill-opacity: 0.5; stroke: #000000; stroke-width: 0.33128; stroke-linejoin: miter"/>
   </g>
   <g id="patch_33">
    <path d="M 200.785766 302.8525 
L 205.169026 302.8525 
L 205.169026 228.677268 
L 200.785766 228.677268 
z
" clip-path="url(#p53666c1a5f)" style="fill: #1e2e79; fill-opacity: 0.5; stroke: #000000; stroke-width: 0.33128; stroke-linejoin: miter"/>
   </g>
   <g id="patch_34">
    <path d="M 205.169026 302.8525 
L 209.552286 302.8525 
L 209.552286 236.864244 
L 205.169026 236.864244 
z
" clip-path="url(#p53666c1a5f)" style="fill: #1e2e79; fill-opacity: 0.5; stroke: #000000; stroke-width: 0.33128; stroke-linejoin: miter"/>
   </g>
   <g id="patch_35">
    <path d="M 209.552286 302.8525 
L 213.935545 302.8525 
L 213.935545 243.635427 
L 209.552286 243.635427 
z
" clip-path="url(#p53666c1a5f)" style="fill: #1e2e79; fill-opacity: 0.5; stroke: #000000; stroke-width: 0.33128; stroke-linejoin: miter"/>
   </g>
   <g id="patch_36">
    <path d="M 213.935545 302.8525 
L 218.318805 302.8525 
L 218.318805 249.021595 
L 213.935545 249.021595 
z
" clip-path="url(#p53666c1a5f)" style="fill: #1e2e79; fill-opacity: 0.5; stroke: #000000; stroke-width: 0.33128; stroke-linejoin: miter"/>
   </g>
   <g id="patch_37">
    <path d="M 218.318805 302.8525 
L 222.702065 302.8525 
L 222.702065 255.546554 
L 218.318805 255.546554 
z
" clip-path="url(#p53666c1a5f)" style="fill: #1e2e79; fill-opacity: 0.5; stroke: #000000; stroke-width: 0.33128; stroke-linejoin: miter"/>
   </g>
   <g id="patch_38">
    <path d="M 222.702065 302.8525 
L 227.085325 302.8525 
L 227.085325 263.856642 
L 222.702065 263.856642 
z
" clip-path="url(#p53666c1a5f)" style="fill: #1e2e79; fill-opacity: 0.5; stroke: #000000; stroke-width: 0.33128; stroke-linejoin: miter"/>
   </g>
   <g id="patch_39">
    <path d="M 227.085325 302.8525 
L 231.468584 302.8525 
L 231.468584 263.88742 
L 227.085325 263.88742 
z
" clip-path="url(#p53666c1a5f)" style="fill: #1e2e79; fill-opacity: 0.5; stroke: #000000; stroke-width: 0.33128; stroke-linejoin: miter"/>
   </g>
   <g id="patch_40">
    <path d="M 231.468584 302.8525 
L 235.851844 302.8525 
L 235.851844 264.749207 
L 231.468584 264.749207 
z
" clip-path="url(#p53666c1a5f)" style="fill: #1e2e79; fill-opacity: 0.5; stroke: #000000; stroke-width: 0.33128; stroke-linejoin: miter"/>
   </g>
   <g id="patch_41">
    <path d="M 235.851844 302.8525 
L 240.235104 302.8525 
L 240.235104 262.379293 
L 235.851844 262.379293 
z
" clip-path="url(#p53666c1a5f)" style="fill: #1e2e79; fill-opacity: 0.5; stroke: #000000; stroke-width: 0.33128; stroke-linejoin: miter"/>
   </g>
   <g id="patch_42">
    <path d="M 240.235104 302.8525 
L 244.618364 302.8525 
L 244.618364 257.639465 
L 240.235104 257.639465 
z
" clip-path="url(#p53666c1a5f)" style="fill: #1e2e79; fill-opacity: 0.5; stroke: #000000; stroke-width: 0.33128; stroke-linejoin: miter"/>
   </g>
   <g id="patch_43">
    <path d="M 244.618364 302.8525 
L 249.001623 302.8525 
L 249.001623 248.252143 
L 244.618364 248.252143 
z
" clip-path="url(#p53666c1a5f)" style="fill: #1e2e79; fill-opacity: 0.5; stroke: #000000; stroke-width: 0.33128; stroke-linejoin: miter"/>
   </g>
   <g id="patch_44">
    <path d="M 249.001623 302.8525 
L 253.384883 302.8525 
L 253.384883 242.77364 
L 249.001623 242.77364 
z
" clip-path="url(#p53666c1a5f)" style="fill: #1e2e79; fill-opacity: 0.5; stroke: #000000; stroke-width: 0.33128; stroke-linejoin: miter"/>
   </g>
   <g id="patch_45">
    <path d="M 253.384883 302.8525 
L 257.768143 302.8525 
L 257.768143 238.280037 
L 253.384883 238.280037 
z
" clip-path="url(#p53666c1a5f)" style="fill: #1e2e79; fill-opacity: 0.5; stroke: #000000; stroke-width: 0.33128; stroke-linejoin: miter"/>
   </g>
   <g id="patch_46">
    <path d="M 257.768143 302.8525 
L 262.151403 302.8525 
L 262.151403 227.169141 
L 257.768143 227.169141 
z
" clip-path="url(#p53666c1a5f)" style="fill: #1e2e79; fill-opacity: 0.5; stroke: #000000; stroke-width: 0.33128; stroke-linejoin: miter"/>
   </g>
   <g id="patch_47">
    <path d="M 262.151403 302.8525 
L 266.534663 302.8525 
L 266.534663 217.751041 
L 262.151403 217.751041 
z
" clip-path="url(#p53666c1a5f)" style="fill: #1e2e79; fill-opacity: 0.5; stroke: #000000; stroke-width: 0.33128; stroke-linejoin: miter"/>
   </g>
   <g id="patch_48">
    <path d="M 266.534663 302.8525 
L 270.917922 302.8525 
L 270.917922 210.333518 
L 266.534663 210.333518 
z
" clip-path="url(#p53666c1a5f)" style="fill: #1e2e79; fill-opacity: 0.5; stroke: #000000; stroke-width: 0.33128; stroke-linejoin: miter"/>
   </g>
   <g id="patch_49">
    <path d="M 270.917922 302.8525 
L 275.301182 302.8525 
L 275.301182 201.37709 
L 270.917922 201.37709 
z
" clip-path="url(#p53666c1a5f)" style="fill: #1e2e79; fill-opacity: 0.5; stroke: #000000; stroke-width: 0.33128; stroke-linejoin: miter"/>
   </g>
   <g id="patch_50">
    <path d="M 275.301182 302.8525 
L 279.684442 302.8525 
L 279.684442 190.66631 
L 275.301182 190.66631 
z
" clip-path="url(#p53666c1a5f)" style="fill: #1e2e79; fill-opacity: 0.5; stroke: #000000; stroke-width: 0.33128; stroke-linejoin: miter"/>
   </g>
   <g id="patch_51">
    <path d="M 279.684442 302.8525 
L 284.067702 302.8525 
L 284.067702 188.204061 
L 279.684442 188.204061 
z
" clip-path="url(#p53666c1a5f)" style="fill: #1e2e79; fill-opacity: 0.5; stroke: #000000; stroke-width: 0.33128; stroke-linejoin: miter"/>
   </g>
   <g id="patch_52">
    <path d="M 284.067702 302.8525 
L 288.450961 302.8525 
L 288.450961 175.092589 
L 284.067702 175.092589 
z
" clip-path="url(#p53666c1a5f)" style="fill: #1e2e79; fill-opacity: 0.5; stroke: #000000; stroke-width: 0.33128; stroke-linejoin: miter"/>
   </g>
   <g id="patch_53">
    <path d="M 288.450961 302.8525 
L 292.834221 302.8525 
L 292.834221 166.659388 
L 288.450961 166.659388 
z
" clip-path="url(#p53666c1a5f)" style="fill: #1e2e79; fill-opacity: 0.5; stroke: #000000; stroke-width: 0.33128; stroke-linejoin: miter"/>
   </g>
   <g id="patch_54">
    <path d="M 292.834221 302.8525 
L 297.217481 302.8525 
L 297.217481 161.27322 
L 292.834221 161.27322 
z
" clip-path="url(#p53666c1a5f)" style="fill: #1e2e79; fill-opacity: 0.5; stroke: #000000; stroke-width: 0.33128; stroke-linejoin: miter"/>
   </g>
   <g id="patch_55">
    <path d="M 297.217481 302.8525 
L 301.600741 302.8525 
L 301.600741 155.486936 
L 297.217481 155.486936 
z
" clip-path="url(#p53666c1a5f)" style="fill: #1e2e79; fill-opacity: 0.5; stroke: #000000; stroke-width: 0.33128; stroke-linejoin: miter"/>
   </g>
   <g id="patch_56">
    <path d="M 301.600741 302.8525 
L 305.984 302.8525 
L 305.984 150.808664 
L 301.600741 150.808664 
z
" clip-path="url(#p53666c1a5f)" style="fill: #1e2e79; fill-opacity: 0.5; stroke: #000000; stroke-width: 0.33128; stroke-linejoin: miter"/>
   </g>
   <g id="patch_57">
    <path d="M 305.984 302.8525 
L 310.36726 302.8525 
L 310.36726 155.733161 
L 305.984 155.733161 
z
" clip-path="url(#p53666c1a5f)" style="fill: #1e2e79; fill-opacity: 0.5; stroke: #000000; stroke-width: 0.33128; stroke-linejoin: miter"/>
   </g>
   <g id="patch_58">
    <path d="M 310.36726 302.8525 
L 314.75052 302.8525 
L 314.75052 153.117022 
L 310.36726 153.117022 
z
" clip-path="url(#p53666c1a5f)" style="fill: #1e2e79; fill-opacity: 0.5; stroke: #000000; stroke-width: 0.33128; stroke-linejoin: miter"/>
   </g>
   <g id="patch_59">
    <path d="M 314.75052 302.8525 
L 319.13378 302.8525 
L 319.13378 163.673912 
L 314.75052 163.673912 
z
" clip-path="url(#p53666c1a5f)" style="fill: #1e2e79; fill-opacity: 0.5; stroke: #000000; stroke-width: 0.33128; stroke-linejoin: miter"/>
   </g>
   <g id="patch_60">
    <path d="M 319.13378 302.8525 
L 323.51704 302.8525 
L 323.51704 168.690743 
L 319.13378 168.690743 
z
" clip-path="url(#p53666c1a5f)" style="fill: #1e2e79; fill-opacity: 0.5; stroke: #000000; stroke-width: 0.33128; stroke-linejoin: miter"/>
   </g>
   <g id="patch_61">
    <path d="M 323.51704 302.8525 
L 327.900299 302.8525 
L 327.900299 179.555414 
L 323.51704 179.555414 
z
" clip-path="url(#p53666c1a5f)" style="fill: #1e2e79; fill-opacity: 0.5; stroke: #000000; stroke-width: 0.33128; stroke-linejoin: miter"/>
   </g>
   <g id="patch_62">
    <path d="M 327.900299 302.8525 
L 332.283559 302.8525 
L 332.283559 186.480487 
L 327.900299 186.480487 
z
" clip-path="url(#p53666c1a5f)" style="fill: #1e2e79; fill-opacity: 0.5; stroke: #000000; stroke-width: 0.33128; stroke-linejoin: miter"/>
   </g>
   <g id="patch_63">
    <path d="M 332.283559 302.8525 
L 336.666819 302.8525 
L 336.666819 202.300433 
L 332.283559 202.300433 
z
" clip-path="url(#p53666c1a5f)" style="fill: #1e2e79; fill-opacity: 0.5; stroke: #000000; stroke-width: 0.33128; stroke-linejoin: miter"/>
   </g>
   <g id="patch_64">
    <path d="M 336.666819 302.8525 
L 341.050079 302.8525 
L 341.050079 211.810867 
L 336.666819 211.810867 
z
" clip-path="url(#p53666c1a5f)" style="fill: #1e2e79; fill-opacity: 0.5; stroke: #000000; stroke-width: 0.33128; stroke-linejoin: miter"/>
   </g>
   <g id="patch_65">
    <path d="M 341.050079 302.8525 
L 345.433338 302.8525 
L 345.433338 222.706316 
L 341.050079 222.706316 
z
" clip-path="url(#p53666c1a5f)" style="fill: #1e2e79; fill-opacity: 0.5; stroke: #000000; stroke-width: 0.33128; stroke-linejoin: miter"/>
   </g>
   <g id="patch_66">
    <path d="M 345.433338 302.8525 
L 349.816598 302.8525 
L 349.816598 239.141824 
L 345.433338 239.141824 
z
" clip-path="url(#p53666c1a5f)" style="fill: #1e2e79; fill-opacity: 0.5; stroke: #000000; stroke-width: 0.33128; stroke-linejoin: miter"/>
   </g>
   <g id="patch_67">
    <path d="M 349.816598 302.8525 
L 354.199858 302.8525 
L 354.199858 248.652258 
L 349.816598 248.652258 
z
" clip-path="url(#p53666c1a5f)" style="fill: #1e2e79; fill-opacity: 0.5; stroke: #000000; stroke-width: 0.33128; stroke-linejoin: miter"/>
   </g>
   <g id="patch_68">
    <path d="M 354.199858 302.8525 
L 358.583118 302.8525 
L 358.583118 257.978024 
L 354.199858 257.978024 
z
" clip-path="url(#p53666c1a5f)" style="fill: #1e2e79; fill-opacity: 0.5; stroke: #000000; stroke-width: 0.33128; stroke-linejoin: miter"/>
   </g>
   <g id="patch_69">
    <path d="M 358.583118 302.8525 
L 362.966377 302.8525 
L 362.966377 264.933875 
L 358.583118 264.933875 
z
" clip-path="url(#p53666c1a5f)" style="fill: #1e2e79; fill-opacity: 0.5; stroke: #000000; stroke-width: 0.33128; stroke-linejoin: miter"/>
   </g>
   <g id="patch_70">
    <path d="M 362.966377 302.8525 
L 367.349637 302.8525 
L 367.349637 272.289842 
L 362.966377 272.289842 
z
" clip-path="url(#p53666c1a5f)" style="fill: #1e2e79; fill-opacity: 0.5; stroke: #000000; stroke-width: 0.33128; stroke-linejoin: miter"/>
   </g>
   <g id="patch_71">
    <path d="M 367.349637 302.8525 
L 371.732897 302.8525 
L 371.732897 278.199238 
L 367.349637 278.199238 
z
" clip-path="url(#p53666c1a5f)" style="fill: #1e2e79; fill-opacity: 0.5; stroke: #000000; stroke-width: 0.33128; stroke-linejoin: miter"/>
   </g>
   <g id="patch_72">
    <path d="M 371.732897 302.8525 
L 376.116157 302.8525 
L 376.116157 282.692842 
L 371.732897 282.692842 
z
" clip-path="url(#p53666c1a5f)" style="fill: #1e2e79; fill-opacity: 0.5; stroke: #000000; stroke-width: 0.33128; stroke-linejoin: miter"/>
   </g>
   <g id="patch_73">
    <path d="M 376.116157 302.8525 
L 380.499417 302.8525 
L 380.499417 286.878664 
L 376.116157 286.878664 
z
" clip-path="url(#p53666c1a5f)" style="fill: #1e2e79; fill-opacity: 0.5; stroke: #000000; stroke-width: 0.33128; stroke-linejoin: miter"/>
   </g>
   <g id="patch_74">
    <path d="M 380.499417 302.8525 
L 384.882676 302.8525 
L 384.882676 290.725927 
L 380.499417 290.725927 
z
" clip-path="url(#p53666c1a5f)" style="fill: #1e2e79; fill-opacity: 0.5; stroke: #000000; stroke-width: 0.33128; stroke-linejoin: miter"/>
   </g>
   <g id="patch_75">
    <path d="M 384.882676 302.8525 
L 389.265936 302.8525 
L 389.265936 293.526734 
L 384.882676 293.526734 
z
" clip-path="url(#p53666c1a5f)" style="fill: #1e2e79; fill-opacity: 0.5; stroke: #000000; stroke-width: 0.33128; stroke-linejoin: miter"/>
   </g>
   <g id="patch_76">
    <path d="M 389.265936 302.8525 
L 393.649196 302.8525 
L 393.649196 295.650424 
L 389.265936 295.650424 
z
" clip-path="url(#p53666c1a5f)" style="fill: #1e2e79; fill-opacity: 0.5; stroke: #000000; stroke-width: 0.33128; stroke-linejoin: miter"/>
   </g>
   <g id="patch_77">
    <path d="M 393.649196 302.8525 
L 398.032456 302.8525 
L 398.032456 297.066216 
L 393.649196 297.066216 
z
" clip-path="url(#p53666c1a5f)" style="fill: #1e2e79; fill-opacity: 0.5; stroke: #000000; stroke-width: 0.33128; stroke-linejoin: miter"/>
   </g>
   <g id="patch_78">
    <path d="M 398.032456 302.8525 
L 402.415715 302.8525 
L 402.415715 298.697456 
L 398.032456 298.697456 
z
" clip-path="url(#p53666c1a5f)" style="fill: #1e2e79; fill-opacity: 0.5; stroke: #000000; stroke-width: 0.33128; stroke-linejoin: miter"/>
   </g>
   <g id="patch_79">
    <path d="M 402.415715 302.8525 
L 406.798975 302.8525 
L 406.798975 299.097571 
L 402.415715 299.097571 
z
" clip-path="url(#p53666c1a5f)" style="fill: #1e2e79; fill-opacity: 0.5; stroke: #000000; stroke-width: 0.33128; stroke-linejoin: miter"/>
   </g>
   <g id="patch_80">
    <path d="M 406.798975 302.8525 
L 411.182235 302.8525 
L 411.182235 300.267139 
L 406.798975 300.267139 
z
" clip-path="url(#p53666c1a5f)" style="fill: #1e2e79; fill-opacity: 0.5; stroke: #000000; stroke-width: 0.33128; stroke-linejoin: miter"/>
   </g>
   <g id="patch_81">
    <path d="M 411.182235 302.8525 
L 415.565495 302.8525 
L 415.565495 300.851923 
L 411.182235 300.851923 
z
" clip-path="url(#p53666c1a5f)" style="fill: #1e2e79; fill-opacity: 0.5; stroke: #000000; stroke-width: 0.33128; stroke-linejoin: miter"/>
   </g>
   <g id="patch_82">
    <path d="M 415.565495 302.8525 
L 419.948754 302.8525 
L 419.948754 301.313595 
L 415.565495 301.313595 
z
" clip-path="url(#p53666c1a5f)" style="fill: #1e2e79; fill-opacity: 0.5; stroke: #000000; stroke-width: 0.33128; stroke-linejoin: miter"/>
   </g>
   <g id="patch_83">
    <path d="M 419.948754 302.8525 
L 424.332014 302.8525 
L 424.332014 301.313595 
L 419.948754 301.313595 
z
" clip-path="url(#p53666c1a5f)" style="fill: #1e2e79; fill-opacity: 0.5; stroke: #000000; stroke-width: 0.33128; stroke-linejoin: miter"/>
   </g>
   <g id="patch_84">
    <path d="M 424.332014 302.8525 
L 428.715274 302.8525 
L 428.715274 301.529042 
L 424.332014 301.529042 
z
" clip-path="url(#p53666c1a5f)" style="fill: #1e2e79; fill-opacity: 0.5; stroke: #000000; stroke-width: 0.33128; stroke-linejoin: miter"/>
   </g>
   <g id="patch_85">
    <path d="M 428.715274 302.8525 
L 433.098534 302.8525 
L 433.098534 302.113825 
L 428.715274 302.113825 
z
" clip-path="url(#p53666c1a5f)" style="fill: #1e2e79; fill-opacity: 0.5; stroke: #000000; stroke-width: 0.33128; stroke-linejoin: miter"/>
   </g>
   <g id="patch_86">
    <path d="M 433.098534 302.8525 
L 437.481794 302.8525 
L 437.481794 301.959935 
L 433.098534 301.959935 
z
" clip-path="url(#p53666c1a5f)" style="fill: #1e2e79; fill-opacity: 0.5; stroke: #000000; stroke-width: 0.33128; stroke-linejoin: miter"/>
   </g>
   <g id="patch_87">
    <path d="M 437.481794 302.8525 
L 441.865053 302.8525 
L 441.865053 302.298494 
L 437.481794 302.298494 
z
" clip-path="url(#p53666c1a5f)" style="fill: #1e2e79; fill-opacity: 0.5; stroke: #000000; stroke-width: 0.33128; stroke-linejoin: miter"/>
   </g>
   <g id="patch_88">
    <path d="M 441.865053 302.8525 
L 446.248313 302.8525 
L 446.248313 302.267716 
L 441.865053 302.267716 
z
" clip-path="url(#p53666c1a5f)" style="fill: #1e2e79; fill-opacity: 0.5; stroke: #000000; stroke-width: 0.33128; stroke-linejoin: miter"/>
   </g>
   <g id="patch_89">
    <path d="M 446.248313 302.8525 
L 450.631573 302.8525 
L 450.631573 302.421607 
L 446.248313 302.421607 
z
" clip-path="url(#p53666c1a5f)" style="fill: #1e2e79; fill-opacity: 0.5; stroke: #000000; stroke-width: 0.33128; stroke-linejoin: miter"/>
   </g>
   <g id="patch_90">
    <path d="M 450.631573 302.8525 
L 455.014833 302.8525 
L 455.014833 302.483163 
L 450.631573 302.483163 
z
" clip-path="url(#p53666c1a5f)" style="fill: #1e2e79; fill-opacity: 0.5; stroke: #000000; stroke-width: 0.33128; stroke-linejoin: miter"/>
   </g>
   <g id="patch_91">
    <path d="M 455.014833 302.8525 
L 459.398092 302.8525 
L 459.398092 302.698609 
L 455.014833 302.698609 
z
" clip-path="url(#p53666c1a5f)" style="fill: #1e2e79; fill-opacity: 0.5; stroke: #000000; stroke-width: 0.33128; stroke-linejoin: miter"/>
   </g>
   <g id="patch_92">
    <path d="M 459.398092 302.8525 
L 463.781352 302.8525 
L 463.781352 302.729388 
L 459.398092 302.729388 
z
" clip-path="url(#p53666c1a5f)" style="fill: #1e2e79; fill-opacity: 0.5; stroke: #000000; stroke-width: 0.33128; stroke-linejoin: miter"/>
   </g>
   <g id="patch_93">
    <path d="M 463.781352 302.8525 
L 468.164612 302.8525 
L 468.164612 302.729388 
L 463.781352 302.729388 
z
" clip-path="url(#p53666c1a5f)" style="fill: #1e2e79; fill-opacity: 0.5; stroke: #000000; stroke-width: 0.33128; stroke-linejoin: miter"/>
   </g>
   <g id="patch_94">
    <path d="M 468.164612 302.8525 
L 472.547872 302.8525 
L 472.547872 302.667831 
L 468.164612 302.667831 
z
" clip-path="url(#p53666c1a5f)" style="fill: #1e2e79; fill-opacity: 0.5; stroke: #000000; stroke-width: 0.33128; stroke-linejoin: miter"/>
   </g>
   <g id="patch_95">
    <path d="M 472.547872 302.8525 
L 476.931131 302.8525 
L 476.931131 302.821722 
L 472.547872 302.821722 
z
" clip-path="url(#p53666c1a5f)" style="fill: #1e2e79; fill-opacity: 0.5; stroke: #000000; stroke-width: 0.33128; stroke-linejoin: miter"/>
   </g>
   <g id="patch_96">
    <path d="M 476.931131 302.8525 
L 481.314391 302.8525 
L 481.314391 302.821722 
L 476.931131 302.821722 
z
" clip-path="url(#p53666c1a5f)" style="fill: #1e2e79; fill-opacity: 0.5; stroke: #000000; stroke-width: 0.33128; stroke-linejoin: miter"/>
   </g>
   <g id="patch_97">
    <path d="M 481.314391 302.8525 
L 485.697651 302.8525 
L 485.697651 302.760166 
L 481.314391 302.760166 
z
" clip-path="url(#p53666c1a5f)" style="fill: #1e2e79; fill-opacity: 0.5; stroke: #000000; stroke-width: 0.33128; stroke-linejoin: miter"/>
   </g>
   <g id="patch_98">
    <path d="M 485.697651 302.8525 
L 490.080911 302.8525 
L 490.080911 302.8525 
L 485.697651 302.8525 
z
" clip-path="url(#p53666c1a5f)" style="fill: #1e2e79; fill-opacity: 0.5; stroke: #000000; stroke-width: 0.33128; stroke-linejoin: miter"/>
   </g>
   <g id="patch_99">
    <path d="M 490.080911 302.8525 
L 494.464171 302.8525 
L 494.464171 302.8525 
L 490.080911 302.8525 
z
" clip-path="url(#p53666c1a5f)" style="fill: #1e2e79; fill-opacity: 0.5; stroke: #000000; stroke-width: 0.33128; stroke-linejoin: miter"/>
   </g>
   <g id="patch_100">
    <path d="M 494.464171 302.8525 
L 498.84743 302.8525 
L 498.84743 302.790944 
L 494.464171 302.790944 
z
" clip-path="url(#p53666c1a5f)" style="fill: #1e2e79; fill-opacity: 0.5; stroke: #000000; stroke-width: 0.33128; stroke-linejoin: miter"/>
   </g>
   <g id="patch_101">
    <path d="M 69.819412 302.8525 
L 75.890032 302.8525 
L 75.890032 300.185719 
L 69.819412 300.185719 
z
" clip-path="url(#p53666c1a5f)" style="fill: #f99752; fill-opacity: 0.5; stroke: #000000; stroke-width: 0.458808; stroke-linejoin: miter"/>
   </g>
   <g id="patch_102">
    <path d="M 75.890032 302.8525 
L 81.960651 302.8525 
L 81.960651 272.206744 
L 75.890032 272.206744 
z
" clip-path="url(#p53666c1a5f)" style="fill: #f99752; fill-opacity: 0.5; stroke: #000000; stroke-width: 0.458808; stroke-linejoin: miter"/>
   </g>
   <g id="patch_103">
    <path d="M 81.960651 302.8525 
L 88.03127 302.8525 
L 88.03127 174.580343 
L 81.960651 174.580343 
z
" clip-path="url(#p53666c1a5f)" style="fill: #f99752; fill-opacity: 0.5; stroke: #000000; stroke-width: 0.458808; stroke-linejoin: miter"/>
   </g>
   <g id="patch_104">
    <path d="M 88.03127 302.8525 
L 94.10189 302.8525 
L 94.10189 70.464776 
L 88.03127 70.464776 
z
" clip-path="url(#p53666c1a5f)" style="fill: #f99752; fill-opacity: 0.5; stroke: #000000; stroke-width: 0.458808; stroke-linejoin: miter"/>
   </g>
   <g id="patch_105">
    <path d="M 94.10189 302.8525 
L 100.172509 302.8525 
L 100.172509 24.707262 
L 94.10189 24.707262 
z
" clip-path="url(#p53666c1a5f)" style="fill: #f99752; fill-opacity: 0.5; stroke: #000000; stroke-width: 0.458808; stroke-linejoin: miter"/>
   </g>
   <g id="patch_106">
    <path d="M 100.172509 302.8525 
L 106.243128 302.8525 
L 106.243128 57.064202 
L 100.172509 57.064202 
z
" clip-path="url(#p53666c1a5f)" style="fill: #f99752; fill-opacity: 0.5; stroke: #000000; stroke-width: 0.458808; stroke-linejoin: miter"/>
   </g>
   <g id="patch_107">
    <path d="M 106.243128 302.8525 
L 112.313748 302.8525 
L 112.313748 117.666796 
L 106.243128 117.666796 
z
" clip-path="url(#p53666c1a5f)" style="fill: #f99752; fill-opacity: 0.5; stroke: #000000; stroke-width: 0.458808; stroke-linejoin: miter"/>
   </g>
   <g id="patch_108">
    <path d="M 112.313748 302.8525 
L 118.384367 302.8525 
L 118.384367 178.469399 
L 112.313748 178.469399 
z
" clip-path="url(#p53666c1a5f)" style="fill: #f99752; fill-opacity: 0.5; stroke: #000000; stroke-width: 0.458808; stroke-linejoin: miter"/>
   </g>
   <g id="patch_109">
    <path d="M 118.384367 302.8525 
L 124.454987 302.8525 
L 124.454987 226.827024 
L 118.384367 226.827024 
z
" clip-path="url(#p53666c1a5f)" style="fill: #f99752; fill-opacity: 0.5; stroke: #000000; stroke-width: 0.458808; stroke-linejoin: miter"/>
   </g>
   <g id="patch_110">
    <path d="M 124.454987 302.8525 
L 130.525606 302.8525 
L 130.525606 255.339355 
L 124.454987 255.339355 
z
" clip-path="url(#p53666c1a5f)" style="fill: #f99752; fill-opacity: 0.5; stroke: #000000; stroke-width: 0.458808; stroke-linejoin: miter"/>
   </g>
   <g id="patch_111">
    <path d="M 130.525606 302.8525 
L 136.596225 302.8525 
L 136.596225 270.717791 
L 130.525606 270.717791 
z
" clip-path="url(#p53666c1a5f)" style="fill: #f99752; fill-opacity: 0.5; stroke: #000000; stroke-width: 0.458808; stroke-linejoin: miter"/>
   </g>
   <g id="patch_112">
    <path d="M 136.596225 302.8525 
L 142.666845 302.8525 
L 142.666845 280.184863 
L 136.596225 280.184863 
z
" clip-path="url(#p53666c1a5f)" style="fill: #f99752; fill-opacity: 0.5; stroke: #000000; stroke-width: 0.458808; stroke-linejoin: miter"/>
   </g>
   <g id="patch_113">
    <path d="M 142.666845 302.8525 
L 148.737464 302.8525 
L 148.737464 285.051738 
L 142.666845 285.051738 
z
" clip-path="url(#p53666c1a5f)" style="fill: #f99752; fill-opacity: 0.5; stroke: #000000; stroke-width: 0.458808; stroke-linejoin: miter"/>
   </g>
   <g id="patch_114">
    <path d="M 148.737464 302.8525 
L 154.808083 302.8525 
L 154.808083 283.45167 
L 148.737464 283.45167 
z
" clip-path="url(#p53666c1a5f)" style="fill: #f99752; fill-opacity: 0.5; stroke: #000000; stroke-width: 0.458808; stroke-linejoin: miter"/>
   </g>
   <g id="patch_115">
    <path d="M 154.808083 302.8525 
L 160.878703 302.8525 
L 160.878703 275.673559 
L 154.808083 275.673559 
z
" clip-path="url(#p53666c1a5f)" style="fill: #f99752; fill-opacity: 0.5; stroke: #000000; stroke-width: 0.458808; stroke-linejoin: miter"/>
   </g>
   <g id="patch_116">
    <path d="M 160.878703 302.8525 
L 166.949322 302.8525 
L 166.949322 266.117594 
L 160.878703 266.117594 
z
" clip-path="url(#p53666c1a5f)" style="fill: #f99752; fill-opacity: 0.5; stroke: #000000; stroke-width: 0.458808; stroke-linejoin: miter"/>
   </g>
   <g id="patch_117">
    <path d="M 166.949322 302.8525 
L 173.019941 302.8525 
L 173.019941 248.627957 
L 166.949322 248.627957 
z
" clip-path="url(#p53666c1a5f)" style="fill: #f99752; fill-opacity: 0.5; stroke: #000000; stroke-width: 0.458808; stroke-linejoin: miter"/>
   </g>
   <g id="patch_118">
    <path d="M 173.019941 302.8525 
L 179.090561 302.8525 
L 179.090561 234.427349 
L 173.019941 234.427349 
z
" clip-path="url(#p53666c1a5f)" style="fill: #f99752; fill-opacity: 0.5; stroke: #000000; stroke-width: 0.458808; stroke-linejoin: miter"/>
   </g>
   <g id="patch_119">
    <path d="M 179.090561 302.8525 
L 185.16118 302.8525 
L 185.16118 221.649024 
L 179.090561 221.649024 
z
" clip-path="url(#p53666c1a5f)" style="fill: #f99752; fill-opacity: 0.5; stroke: #000000; stroke-width: 0.458808; stroke-linejoin: miter"/>
   </g>
   <g id="patch_120">
    <path d="M 185.16118 302.8525 
L 191.2318 302.8525 
L 191.2318 211.248579 
L 185.16118 211.248579 
z
" clip-path="url(#p53666c1a5f)" style="fill: #f99752; fill-opacity: 0.5; stroke: #000000; stroke-width: 0.458808; stroke-linejoin: miter"/>
   </g>
   <g id="patch_121">
    <path d="M 191.2318 302.8525 
L 197.302419 302.8525 
L 197.302419 216.493248 
L 191.2318 216.493248 
z
" clip-path="url(#p53666c1a5f)" style="fill: #f99752; fill-opacity: 0.5; stroke: #000000; stroke-width: 0.458808; stroke-linejoin: miter"/>
   </g>
   <g id="patch_122">
    <path d="M 197.302419 302.8525 
L 203.373038 302.8525 
L 203.373038 221.915703 
L 197.302419 221.915703 
z
" clip-path="url(#p53666c1a5f)" style="fill: #f99752; fill-opacity: 0.5; stroke: #000000; stroke-width: 0.458808; stroke-linejoin: miter"/>
   </g>
   <g id="patch_123">
    <path d="M 203.373038 302.8525 
L 209.443658 302.8525 
L 209.443658 235.116268 
L 203.373038 235.116268 
z
" clip-path="url(#p53666c1a5f)" style="fill: #f99752; fill-opacity: 0.5; stroke: #000000; stroke-width: 0.458808; stroke-linejoin: miter"/>
   </g>
   <g id="patch_124">
    <path d="M 209.443658 302.8525 
L 215.514277 302.8525 
L 215.514277 245.205588 
L 209.443658 245.205588 
z
" clip-path="url(#p53666c1a5f)" style="fill: #f99752; fill-opacity: 0.5; stroke: #000000; stroke-width: 0.458808; stroke-linejoin: miter"/>
   </g>
   <g id="patch_125">
    <path d="M 215.514277 302.8525 
L 221.584896 302.8525 
L 221.584896 260.228453 
L 215.514277 260.228453 
z
" clip-path="url(#p53666c1a5f)" style="fill: #f99752; fill-opacity: 0.5; stroke: #000000; stroke-width: 0.458808; stroke-linejoin: miter"/>
   </g>
   <g id="patch_126">
    <path d="M 221.584896 302.8525 
L 227.655516 302.8525 
L 227.655516 265.073105 
L 221.584896 265.073105 
z
" clip-path="url(#p53666c1a5f)" style="fill: #f99752; fill-opacity: 0.5; stroke: #000000; stroke-width: 0.458808; stroke-linejoin: miter"/>
   </g>
   <g id="patch_127">
    <path d="M 227.655516 302.8525 
L 233.726135 302.8525 
L 233.726135 268.251019 
L 227.655516 268.251019 
z
" clip-path="url(#p53666c1a5f)" style="fill: #f99752; fill-opacity: 0.5; stroke: #000000; stroke-width: 0.458808; stroke-linejoin: miter"/>
   </g>
   <g id="patch_128">
    <path d="M 233.726135 302.8525 
L 239.796755 302.8525 
L 239.796755 264.939766 
L 233.726135 264.939766 
z
" clip-path="url(#p53666c1a5f)" style="fill: #f99752; fill-opacity: 0.5; stroke: #000000; stroke-width: 0.458808; stroke-linejoin: miter"/>
   </g>
   <g id="patch_129">
    <path d="M 239.796755 302.8525 
L 245.867374 302.8525 
L 245.867374 258.539492 
L 239.796755 258.539492 
z
" clip-path="url(#p53666c1a5f)" style="fill: #f99752; fill-opacity: 0.5; stroke: #000000; stroke-width: 0.458808; stroke-linejoin: miter"/>
   </g>
   <g id="patch_130">
    <path d="M 245.867374 302.8525 
L 251.937993 302.8525 
L 251.937993 249.894678 
L 245.867374 249.894678 
z
" clip-path="url(#p53666c1a5f)" style="fill: #f99752; fill-opacity: 0.5; stroke: #000000; stroke-width: 0.458808; stroke-linejoin: miter"/>
   </g>
   <g id="patch_131">
    <path d="M 251.937993 302.8525 
L 258.008613 302.8525 
L 258.008613 240.649838 
L 251.937993 240.649838 
z
" clip-path="url(#p53666c1a5f)" style="fill: #f99752; fill-opacity: 0.5; stroke: #000000; stroke-width: 0.458808; stroke-linejoin: miter"/>
   </g>
   <g id="patch_132">
    <path d="M 258.008613 302.8525 
L 264.079232 302.8525 
L 264.079232 231.9828 
L 258.008613 231.9828 
z
" clip-path="url(#p53666c1a5f)" style="fill: #f99752; fill-opacity: 0.5; stroke: #000000; stroke-width: 0.458808; stroke-linejoin: miter"/>
   </g>
   <g id="patch_133">
    <path d="M 264.079232 302.8525 
L 270.149851 302.8525 
L 270.149851 224.160243 
L 264.079232 224.160243 
z
" clip-path="url(#p53666c1a5f)" style="fill: #f99752; fill-opacity: 0.5; stroke: #000000; stroke-width: 0.458808; stroke-linejoin: miter"/>
   </g>
   <g id="patch_134">
    <path d="M 270.149851 302.8525 
L 276.220471 302.8525 
L 276.220471 220.960106 
L 270.149851 220.960106 
z
" clip-path="url(#p53666c1a5f)" style="fill: #f99752; fill-opacity: 0.5; stroke: #000000; stroke-width: 0.458808; stroke-linejoin: miter"/>
   </g>
   <g id="patch_135">
    <path d="M 276.220471 302.8525 
L 282.29109 302.8525 
L 282.29109 216.982158 
L 276.220471 216.982158 
z
" clip-path="url(#p53666c1a5f)" style="fill: #f99752; fill-opacity: 0.5; stroke: #000000; stroke-width: 0.458808; stroke-linejoin: miter"/>
   </g>
   <g id="patch_136">
    <path d="M 282.29109 302.8525 
L 288.361709 302.8525 
L 288.361709 221.671248 
L 282.29109 221.671248 
z
" clip-path="url(#p53666c1a5f)" style="fill: #f99752; fill-opacity: 0.5; stroke: #000000; stroke-width: 0.458808; stroke-linejoin: miter"/>
   </g>
   <g id="patch_137">
    <path d="M 288.361709 302.8525 
L 294.432329 302.8525 
L 294.432329 223.871342 
L 288.361709 223.871342 
z
" clip-path="url(#p53666c1a5f)" style="fill: #f99752; fill-opacity: 0.5; stroke: #000000; stroke-width: 0.458808; stroke-linejoin: miter"/>
   </g>
   <g id="patch_138">
    <path d="M 294.432329 302.8525 
L 300.502948 302.8525 
L 300.502948 227.982629 
L 294.432329 227.982629 
z
" clip-path="url(#p53666c1a5f)" style="fill: #f99752; fill-opacity: 0.5; stroke: #000000; stroke-width: 0.458808; stroke-linejoin: miter"/>
   </g>
   <g id="patch_139">
    <path d="M 300.502948 302.8525 
L 306.573568 302.8525 
L 306.573568 234.982928 
L 300.502948 234.982928 
z
" clip-path="url(#p53666c1a5f)" style="fill: #f99752; fill-opacity: 0.5; stroke: #000000; stroke-width: 0.458808; stroke-linejoin: miter"/>
   </g>
   <g id="patch_140">
    <path d="M 306.573568 302.8525 
L 312.644187 302.8525 
L 312.644187 239.872027 
L 306.573568 239.872027 
z
" clip-path="url(#p53666c1a5f)" style="fill: #f99752; fill-opacity: 0.5; stroke: #000000; stroke-width: 0.458808; stroke-linejoin: miter"/>
   </g>
   <g id="patch_141">
    <path d="M 312.644187 302.8525 
L 318.714806 302.8525 
L 318.714806 248.783519 
L 312.644187 248.783519 
z
" clip-path="url(#p53666c1a5f)" style="fill: #f99752; fill-opacity: 0.5; stroke: #000000; stroke-width: 0.458808; stroke-linejoin: miter"/>
   </g>
   <g id="patch_142">
    <path d="M 318.714806 302.8525 
L 324.785426 302.8525 
L 324.785426 258.472823 
L 318.714806 258.472823 
z
" clip-path="url(#p53666c1a5f)" style="fill: #f99752; fill-opacity: 0.5; stroke: #000000; stroke-width: 0.458808; stroke-linejoin: miter"/>
   </g>
   <g id="patch_143">
    <path d="M 324.785426 302.8525 
L 330.856045 302.8525 
L 330.856045 264.361964 
L 324.785426 264.361964 
z
" clip-path="url(#p53666c1a5f)" style="fill: #f99752; fill-opacity: 0.5; stroke: #000000; stroke-width: 0.458808; stroke-linejoin: miter"/>
   </g>
   <g id="patch_144">
    <path d="M 330.856045 302.8525 
L 336.926664 302.8525 
L 336.926664 271.428933 
L 330.856045 271.428933 
z
" clip-path="url(#p53666c1a5f)" style="fill: #f99752; fill-opacity: 0.5; stroke: #000000; stroke-width: 0.458808; stroke-linejoin: miter"/>
   </g>
   <g id="patch_145">
    <path d="M 336.926664 302.8525 
L 342.997284 302.8525 
L 342.997284 279.384829 
L 336.926664 279.384829 
z
" clip-path="url(#p53666c1a5f)" style="fill: #f99752; fill-opacity: 0.5; stroke: #000000; stroke-width: 0.458808; stroke-linejoin: miter"/>
   </g>
   <g id="patch_146">
    <path d="M 342.997284 302.8525 
L 349.067903 302.8525 
L 349.067903 285.185077 
L 342.997284 285.185077 
z
" clip-path="url(#p53666c1a5f)" style="fill: #f99752; fill-opacity: 0.5; stroke: #000000; stroke-width: 0.458808; stroke-linejoin: miter"/>
   </g>
   <g id="patch_147">
    <path d="M 349.067903 302.8525 
L 355.138522 302.8525 
L 355.138522 290.651978 
L 349.067903 290.651978 
z
" clip-path="url(#p53666c1a5f)" style="fill: #f99752; fill-opacity: 0.5; stroke: #000000; stroke-width: 0.458808; stroke-linejoin: miter"/>
   </g>
   <g id="patch_148">
    <path d="M 355.138522 302.8525 
L 361.209142 302.8525 
L 361.209142 294.807711 
L 355.138522 294.807711 
z
" clip-path="url(#p53666c1a5f)" style="fill: #f99752; fill-opacity: 0.5; stroke: #000000; stroke-width: 0.458808; stroke-linejoin: miter"/>
   </g>
   <g id="patch_149">
    <path d="M 361.209142 302.8525 
L 367.279761 302.8525 
L 367.279761 297.296707 
L 361.209142 297.296707 
z
" clip-path="url(#p53666c1a5f)" style="fill: #f99752; fill-opacity: 0.5; stroke: #000000; stroke-width: 0.458808; stroke-linejoin: miter"/>
   </g>
   <g id="patch_150">
    <path d="M 367.279761 302.8525 
L 373.350381 302.8525 
L 373.350381 299.652363 
L 367.279761 299.652363 
z
" clip-path="url(#p53666c1a5f)" style="fill: #f99752; fill-opacity: 0.5; stroke: #000000; stroke-width: 0.458808; stroke-linejoin: miter"/>
   </g>
   <g id="patch_151">
    <path d="M 373.350381 302.8525 
L 379.421 302.8525 
L 379.421 300.985753 
L 373.350381 300.985753 
z
" clip-path="url(#p53666c1a5f)" style="fill: #f99752; fill-opacity: 0.5; stroke: #000000; stroke-width: 0.458808; stroke-linejoin: miter"/>
   </g>
   <g id="patch_152">
    <path d="M 379.421 302.8525 
L 385.491619 302.8525 
L 385.491619 301.763565 
L 379.421 301.763565 
z
" clip-path="url(#p53666c1a5f)" style="fill: #f99752; fill-opacity: 0.5; stroke: #000000; stroke-width: 0.458808; stroke-linejoin: miter"/>
   </g>
   <g id="patch_153">
    <path d="M 385.491619 302.8525 
L 391.562239 302.8525 
L 391.562239 302.208028 
L 385.491619 302.208028 
z
" clip-path="url(#p53666c1a5f)" style="fill: #f99752; fill-opacity: 0.5; stroke: #000000; stroke-width: 0.458808; stroke-linejoin: miter"/>
   </g>
   <g id="patch_154">
    <path d="M 391.562239 302.8525 
L 397.632858 302.8525 
L 397.632858 302.652491 
L 391.562239 302.652491 
z
" clip-path="url(#p53666c1a5f)" style="fill: #f99752; fill-opacity: 0.5; stroke: #000000; stroke-width: 0.458808; stroke-linejoin: miter"/>
   </g>
   <g id="patch_155">
    <path d="M 397.632858 302.8525 
L 403.703477 302.8525 
L 403.703477 302.674715 
L 397.632858 302.674715 
z
" clip-path="url(#p53666c1a5f)" style="fill: #f99752; fill-opacity: 0.5; stroke: #000000; stroke-width: 0.458808; stroke-linejoin: miter"/>
   </g>
   <g id="patch_156">
    <path d="M 403.703477 302.8525 
L 409.774097 302.8525 
L 409.774097 302.674715 
L 403.703477 302.674715 
z
" clip-path="url(#p53666c1a5f)" style="fill: #f99752; fill-opacity: 0.5; stroke: #000000; stroke-width: 0.458808; stroke-linejoin: miter"/>
   </g>
   <g id="patch_157">
    <path d="M 409.774097 302.8525 
L 415.844716 302.8525 
L 415.844716 302.808054 
L 409.774097 302.808054 
z
" clip-path="url(#p53666c1a5f)" style="fill: #f99752; fill-opacity: 0.5; stroke: #000000; stroke-width: 0.458808; stroke-linejoin: miter"/>
   </g>
   <g id="patch_158">
    <path d="M 415.844716 302.8525 
L 421.915336 302.8525 
L 421.915336 302.808054 
L 415.844716 302.808054 
z
" clip-path="url(#p53666c1a5f)" style="fill: #f99752; fill-opacity: 0.5; stroke: #000000; stroke-width: 0.458808; stroke-linejoin: miter"/>
   </g>
   <g id="patch_159">
    <path d="M 421.915336 302.8525 
L 427.985955 302.8525 
L 427.985955 302.830277 
L 421.915336 302.830277 
z
" clip-path="url(#p53666c1a5f)" style="fill: #f99752; fill-opacity: 0.5; stroke: #000000; stroke-width: 0.458808; stroke-linejoin: miter"/>
   </g>
   <g id="patch_160">
    <path d="M 427.985955 302.8525 
L 434.056574 302.8525 
L 434.056574 302.8525 
L 427.985955 302.8525 
z
" clip-path="url(#p53666c1a5f)" style="fill: #f99752; fill-opacity: 0.5; stroke: #000000; stroke-width: 0.458808; stroke-linejoin: miter"/>
   </g>
   <g id="patch_161">
    <path d="M 434.056574 302.8525 
L 440.127194 302.8525 
L 440.127194 302.8525 
L 434.056574 302.8525 
z
" clip-path="url(#p53666c1a5f)" style="fill: #f99752; fill-opacity: 0.5; stroke: #000000; stroke-width: 0.458808; stroke-linejoin: miter"/>
   </g>
   <g id="patch_162">
    <path d="M 440.127194 302.8525 
L 446.197813 302.8525 
L 446.197813 302.808054 
L 440.127194 302.808054 
z
" clip-path="url(#p53666c1a5f)" style="fill: #f99752; fill-opacity: 0.5; stroke: #000000; stroke-width: 0.458808; stroke-linejoin: miter"/>
   </g>
   <g id="matplotlib.axis_1">
    <g id="xtick_1">
     <g id="line2d_1">
      <defs>
       <path id="m1ba582bc8a" d="M 0 0 
L 0 3.5 
" style="stroke: #000000; stroke-width: 0.8"/>
      </defs>
      <g>
       <use xlink:href="#m1ba582bc8a" x="110.57855" y="302.8525" style="stroke: #000000; stroke-width: 0.8"/>
      </g>
     </g>
     <g id="text_1">
      <!-- 2 -->
      <g transform="translate(107.3973 317.450938) scale(0.1 -0.1)">
       <defs>
        <path id="DejaVuSans-32" d="M 1228 531 
L 3431 531 
L 3431 0 
L 469 0 
L 469 531 
Q 828 903 1448 1529 
Q 2069 2156 2228 2338 
Q 2531 2678 2651 2914 
Q 2772 3150 2772 3378 
Q 2772 3750 2511 3984 
Q 2250 4219 1831 4219 
Q 1534 4219 1204 4116 
Q 875 4013 500 3803 
L 500 4441 
Q 881 4594 1212 4672 
Q 1544 4750 1819 4750 
Q 2544 4750 2975 4387 
Q 3406 4025 3406 3419 
Q 3406 3131 3298 2873 
Q 3191 2616 2906 2266 
Q 2828 2175 2409 1742 
Q 1991 1309 1228 531 
z
" transform="scale(0.015625)"/>
       </defs>
       <use xlink:href="#DejaVuSans-32"/>
      </g>
     </g>
    </g>
    <g id="xtick_2">
     <g id="line2d_2">
      <g>
       <use xlink:href="#m1ba582bc8a" x="186.005539" y="302.8525" style="stroke: #000000; stroke-width: 0.8"/>
      </g>
     </g>
     <g id="text_2">
      <!-- 3 -->
      <g transform="translate(182.824289 317.450938) scale(0.1 -0.1)">
       <defs>
        <path id="DejaVuSans-33" d="M 2597 2516 
Q 3050 2419 3304 2112 
Q 3559 1806 3559 1356 
Q 3559 666 3084 287 
Q 2609 -91 1734 -91 
Q 1441 -91 1130 -33 
Q 819 25 488 141 
L 488 750 
Q 750 597 1062 519 
Q 1375 441 1716 441 
Q 2309 441 2620 675 
Q 2931 909 2931 1356 
Q 2931 1769 2642 2001 
Q 2353 2234 1838 2234 
L 1294 2234 
L 1294 2753 
L 1863 2753 
Q 2328 2753 2575 2939 
Q 2822 3125 2822 3475 
Q 2822 3834 2567 4026 
Q 2313 4219 1838 4219 
Q 1578 4219 1281 4162 
Q 984 4106 628 3988 
L 628 4550 
Q 988 4650 1302 4700 
Q 1616 4750 1894 4750 
Q 2613 4750 3031 4423 
Q 3450 4097 3450 3541 
Q 3450 3153 3228 2886 
Q 3006 2619 2597 2516 
z
" transform="scale(0.015625)"/>
       </defs>
       <use xlink:href="#DejaVuSans-33"/>
      </g>
     </g>
    </g>
    <g id="xtick_3">
     <g id="line2d_3">
      <g>
       <use xlink:href="#m1ba582bc8a" x="261.432528" y="302.8525" style="stroke: #000000; stroke-width: 0.8"/>
      </g>
     </g>
     <g id="text_3">
      <!-- 4 -->
      <g transform="translate(258.251278 317.450938) scale(0.1 -0.1)">
       <defs>
        <path id="DejaVuSans-34" d="M 2419 4116 
L 825 1625 
L 2419 1625 
L 2419 4116 
z
M 2253 4666 
L 3047 4666 
L 3047 1625 
L 3713 1625 
L 3713 1100 
L 3047 1100 
L 3047 0 
L 2419 0 
L 2419 1100 
L 313 1100 
L 313 1709 
L 2253 4666 
z
" transform="scale(0.015625)"/>
       </defs>
       <use xlink:href="#DejaVuSans-34"/>
      </g>
     </g>
    </g>
    <g id="xtick_4">
     <g id="line2d_4">
      <g>
       <use xlink:href="#m1ba582bc8a" x="336.859517" y="302.8525" style="stroke: #000000; stroke-width: 0.8"/>
      </g>
     </g>
     <g id="text_4">
      <!-- 5 -->
      <g transform="translate(333.678267 317.450938) scale(0.1 -0.1)">
       <defs>
        <path id="DejaVuSans-35" d="M 691 4666 
L 3169 4666 
L 3169 4134 
L 1269 4134 
L 1269 2991 
Q 1406 3038 1543 3061 
Q 1681 3084 1819 3084 
Q 2600 3084 3056 2656 
Q 3513 2228 3513 1497 
Q 3513 744 3044 326 
Q 2575 -91 1722 -91 
Q 1428 -91 1123 -41 
Q 819 9 494 109 
L 494 744 
Q 775 591 1075 516 
Q 1375 441 1709 441 
Q 2250 441 2565 725 
Q 2881 1009 2881 1497 
Q 2881 1984 2565 2268 
Q 2250 2553 1709 2553 
Q 1456 2553 1204 2497 
Q 953 2441 691 2322 
L 691 4666 
z
" transform="scale(0.015625)"/>
       </defs>
       <use xlink:href="#DejaVuSans-35"/>
      </g>
     </g>
    </g>
    <g id="xtick_5">
     <g id="line2d_5">
      <g>
       <use xlink:href="#m1ba582bc8a" x="412.286506" y="302.8525" style="stroke: #000000; stroke-width: 0.8"/>
      </g>
     </g>
     <g id="text_5">
      <!-- 6 -->
      <g transform="translate(409.105256 317.450938) scale(0.1 -0.1)">
       <defs>
        <path id="DejaVuSans-36" d="M 2113 2584 
Q 1688 2584 1439 2293 
Q 1191 2003 1191 1497 
Q 1191 994 1439 701 
Q 1688 409 2113 409 
Q 2538 409 2786 701 
Q 3034 994 3034 1497 
Q 3034 2003 2786 2293 
Q 2538 2584 2113 2584 
z
M 3366 4563 
L 3366 3988 
Q 3128 4100 2886 4159 
Q 2644 4219 2406 4219 
Q 1781 4219 1451 3797 
Q 1122 3375 1075 2522 
Q 1259 2794 1537 2939 
Q 1816 3084 2150 3084 
Q 2853 3084 3261 2657 
Q 3669 2231 3669 1497 
Q 3669 778 3244 343 
Q 2819 -91 2113 -91 
Q 1303 -91 875 529 
Q 447 1150 447 2328 
Q 447 3434 972 4092 
Q 1497 4750 2381 4750 
Q 2619 4750 2861 4703 
Q 3103 4656 3366 4563 
z
" transform="scale(0.015625)"/>
       </defs>
       <use xlink:href="#DejaVuSans-36"/>
      </g>
     </g>
    </g>
    <g id="text_6">
     <!-- CRO66 OH - THR203 HG1 Distance [] -->
     <g transform="translate(152.774531 332.0525) scale(0.1 -0.1)">
      <defs>
       <path id="DejaVuSans-43" d="M 4122 4306 
L 4122 3641 
Q 3803 3938 3442 4084 
Q 3081 4231 2675 4231 
Q 1875 4231 1450 3742 
Q 1025 3253 1025 2328 
Q 1025 1406 1450 917 
Q 1875 428 2675 428 
Q 3081 428 3442 575 
Q 3803 722 4122 1019 
L 4122 359 
Q 3791 134 3420 21 
Q 3050 -91 2638 -91 
Q 1578 -91 968 557 
Q 359 1206 359 2328 
Q 359 3453 968 4101 
Q 1578 4750 2638 4750 
Q 3056 4750 3426 4639 
Q 3797 4528 4122 4306 
z
" transform="scale(0.015625)"/>
       <path id="DejaVuSans-52" d="M 2841 2188 
Q 3044 2119 3236 1894 
Q 3428 1669 3622 1275 
L 4263 0 
L 3584 0 
L 2988 1197 
Q 2756 1666 2539 1819 
Q 2322 1972 1947 1972 
L 1259 1972 
L 1259 0 
L 628 0 
L 628 4666 
L 2053 4666 
Q 2853 4666 3247 4331 
Q 3641 3997 3641 3322 
Q 3641 2881 3436 2590 
Q 3231 2300 2841 2188 
z
M 1259 4147 
L 1259 2491 
L 2053 2491 
Q 2509 2491 2742 2702 
Q 2975 2913 2975 3322 
Q 2975 3731 2742 3939 
Q 2509 4147 2053 4147 
L 1259 4147 
z
" transform="scale(0.015625)"/>
       <path id="DejaVuSans-4f" d="M 2522 4238 
Q 1834 4238 1429 3725 
Q 1025 3213 1025 2328 
Q 1025 1447 1429 934 
Q 1834 422 2522 422 
Q 3209 422 3611 934 
Q 4013 1447 4013 2328 
Q 4013 3213 3611 3725 
Q 3209 4238 2522 4238 
z
M 2522 4750 
Q 3503 4750 4090 4092 
Q 4678 3434 4678 2328 
Q 4678 1225 4090 567 
Q 3503 -91 2522 -91 
Q 1538 -91 948 565 
Q 359 1222 359 2328 
Q 359 3434 948 4092 
Q 1538 4750 2522 4750 
z
" transform="scale(0.015625)"/>
       <path id="DejaVuSans-20" transform="scale(0.015625)"/>
       <path id="DejaVuSans-48" d="M 628 4666 
L 1259 4666 
L 1259 2753 
L 3553 2753 
L 3553 4666 
L 4184 4666 
L 4184 0 
L 3553 0 
L 3553 2222 
L 1259 2222 
L 1259 0 
L 628 0 
L 628 4666 
z
" transform="scale(0.015625)"/>
       <path id="DejaVuSans-2d" d="M 313 2009 
L 1997 2009 
L 1997 1497 
L 313 1497 
L 313 2009 
z
" transform="scale(0.015625)"/>
       <path id="DejaVuSans-54" d="M -19 4666 
L 3928 4666 
L 3928 4134 
L 2272 4134 
L 2272 0 
L 1638 0 
L 1638 4134 
L -19 4134 
L -19 4666 
z
" transform="scale(0.015625)"/>
       <path id="DejaVuSans-30" d="M 2034 4250 
Q 1547 4250 1301 3770 
Q 1056 3291 1056 2328 
Q 1056 1369 1301 889 
Q 1547 409 2034 409 
Q 2525 409 2770 889 
Q 3016 1369 3016 2328 
Q 3016 3291 2770 3770 
Q 2525 4250 2034 4250 
z
M 2034 4750 
Q 2819 4750 3233 4129 
Q 3647 3509 3647 2328 
Q 3647 1150 3233 529 
Q 2819 -91 2034 -91 
Q 1250 -91 836 529 
Q 422 1150 422 2328 
Q 422 3509 836 4129 
Q 1250 4750 2034 4750 
z
" transform="scale(0.015625)"/>
       <path id="DejaVuSans-47" d="M 3809 666 
L 3809 1919 
L 2778 1919 
L 2778 2438 
L 4434 2438 
L 4434 434 
Q 4069 175 3628 42 
Q 3188 -91 2688 -91 
Q 1594 -91 976 548 
Q 359 1188 359 2328 
Q 359 3472 976 4111 
Q 1594 4750 2688 4750 
Q 3144 4750 3555 4637 
Q 3966 4525 4313 4306 
L 4313 3634 
Q 3963 3931 3569 4081 
Q 3175 4231 2741 4231 
Q 1884 4231 1454 3753 
Q 1025 3275 1025 2328 
Q 1025 1384 1454 906 
Q 1884 428 2741 428 
Q 3075 428 3337 486 
Q 3600 544 3809 666 
z
" transform="scale(0.015625)"/>
       <path id="DejaVuSans-31" d="M 794 531 
L 1825 531 
L 1825 4091 
L 703 3866 
L 703 4441 
L 1819 4666 
L 2450 4666 
L 2450 531 
L 3481 531 
L 3481 0 
L 794 0 
L 794 531 
z
" transform="scale(0.015625)"/>
       <path id="DejaVuSans-44" d="M 1259 4147 
L 1259 519 
L 2022 519 
Q 2988 519 3436 956 
Q 3884 1394 3884 2338 
Q 3884 3275 3436 3711 
Q 2988 4147 2022 4147 
L 1259 4147 
z
M 628 4666 
L 1925 4666 
Q 3281 4666 3915 4102 
Q 4550 3538 4550 2338 
Q 4550 1131 3912 565 
Q 3275 0 1925 0 
L 628 0 
L 628 4666 
z
" transform="scale(0.015625)"/>
       <path id="DejaVuSans-69" d="M 603 3500 
L 1178 3500 
L 1178 0 
L 603 0 
L 603 3500 
z
M 603 4863 
L 1178 4863 
L 1178 4134 
L 603 4134 
L 603 4863 
z
" transform="scale(0.015625)"/>
       <path id="DejaVuSans-73" d="M 2834 3397 
L 2834 2853 
Q 2591 2978 2328 3040 
Q 2066 3103 1784 3103 
Q 1356 3103 1142 2972 
Q 928 2841 928 2578 
Q 928 2378 1081 2264 
Q 1234 2150 1697 2047 
L 1894 2003 
Q 2506 1872 2764 1633 
Q 3022 1394 3022 966 
Q 3022 478 2636 193 
Q 2250 -91 1575 -91 
Q 1294 -91 989 -36 
Q 684 19 347 128 
L 347 722 
Q 666 556 975 473 
Q 1284 391 1588 391 
Q 1994 391 2212 530 
Q 2431 669 2431 922 
Q 2431 1156 2273 1281 
Q 2116 1406 1581 1522 
L 1381 1569 
Q 847 1681 609 1914 
Q 372 2147 372 2553 
Q 372 3047 722 3315 
Q 1072 3584 1716 3584 
Q 2034 3584 2315 3537 
Q 2597 3491 2834 3397 
z
" transform="scale(0.015625)"/>
       <path id="DejaVuSans-74" d="M 1172 4494 
L 1172 3500 
L 2356 3500 
L 2356 3053 
L 1172 3053 
L 1172 1153 
Q 1172 725 1289 603 
Q 1406 481 1766 481 
L 2356 481 
L 2356 0 
L 1766 0 
Q 1100 0 847 248 
Q 594 497 594 1153 
L 594 3053 
L 172 3053 
L 172 3500 
L 594 3500 
L 594 4494 
L 1172 4494 
z
" transform="scale(0.015625)"/>
       <path id="DejaVuSans-61" d="M 2194 1759 
Q 1497 1759 1228 1600 
Q 959 1441 959 1056 
Q 959 750 1161 570 
Q 1363 391 1709 391 
Q 2188 391 2477 730 
Q 2766 1069 2766 1631 
L 2766 1759 
L 2194 1759 
z
M 3341 1997 
L 3341 0 
L 2766 0 
L 2766 531 
Q 2569 213 2275 61 
Q 1981 -91 1556 -91 
Q 1019 -91 701 211 
Q 384 513 384 1019 
Q 384 1609 779 1909 
Q 1175 2209 1959 2209 
L 2766 2209 
L 2766 2266 
Q 2766 2663 2505 2880 
Q 2244 3097 1772 3097 
Q 1472 3097 1187 3025 
Q 903 2953 641 2809 
L 641 3341 
Q 956 3463 1253 3523 
Q 1550 3584 1831 3584 
Q 2591 3584 2966 3190 
Q 3341 2797 3341 1997 
z
" transform="scale(0.015625)"/>
       <path id="DejaVuSans-6e" d="M 3513 2113 
L 3513 0 
L 2938 0 
L 2938 2094 
Q 2938 2591 2744 2837 
Q 2550 3084 2163 3084 
Q 1697 3084 1428 2787 
Q 1159 2491 1159 1978 
L 1159 0 
L 581 0 
L 581 3500 
L 1159 3500 
L 1159 2956 
Q 1366 3272 1645 3428 
Q 1925 3584 2291 3584 
Q 2894 3584 3203 3211 
Q 3513 2838 3513 2113 
z
" transform="scale(0.015625)"/>
       <path id="DejaVuSans-63" d="M 3122 3366 
L 3122 2828 
Q 2878 2963 2633 3030 
Q 2388 3097 2138 3097 
Q 1578 3097 1268 2742 
Q 959 2388 959 1747 
Q 959 1106 1268 751 
Q 1578 397 2138 397 
Q 2388 397 2633 464 
Q 2878 531 3122 666 
L 3122 134 
Q 2881 22 2623 -34 
Q 2366 -91 2075 -91 
Q 1284 -91 818 406 
Q 353 903 353 1747 
Q 353 2603 823 3093 
Q 1294 3584 2113 3584 
Q 2378 3584 2631 3529 
Q 2884 3475 3122 3366 
z
" transform="scale(0.015625)"/>
       <path id="DejaVuSans-65" d="M 3597 1894 
L 3597 1613 
L 953 1613 
Q 991 1019 1311 708 
Q 1631 397 2203 397 
Q 2534 397 2845 478 
Q 3156 559 3463 722 
L 3463 178 
Q 3153 47 2828 -22 
Q 2503 -91 2169 -91 
Q 1331 -91 842 396 
Q 353 884 353 1716 
Q 353 2575 817 3079 
Q 1281 3584 2069 3584 
Q 2775 3584 3186 3129 
Q 3597 2675 3597 1894 
z
M 3022 2063 
Q 3016 2534 2758 2815 
Q 2500 3097 2075 3097 
Q 1594 3097 1305 2825 
Q 1016 2553 972 2059 
L 3022 2063 
z
" transform="scale(0.015625)"/>
       <path id="DejaVuSans-5b" d="M 550 4863 
L 1875 4863 
L 1875 4416 
L 1125 4416 
L 1125 -397 
L 1875 -397 
L 1875 -844 
L 550 -844 
L 550 4863 
z
" transform="scale(0.015625)"/>
       <path id="DejaVuSans-c5" d="M 2663 5081 
Q 2663 5278 2523 5417 
Q 2384 5556 2188 5556 
Q 1988 5556 1852 5420 
Q 1716 5284 1716 5081 
Q 1716 4884 1853 4746 
Q 1991 4609 2188 4609 
Q 2384 4609 2523 4746 
Q 2663 4884 2663 5081 
z
M 2188 4044 
L 1338 1722 
L 3041 1722 
L 2188 4044 
z
M 1716 4366 
Q 1525 4494 1428 4673 
Q 1331 4853 1331 5081 
Q 1331 5441 1579 5691 
Q 1828 5941 2188 5941 
Q 2544 5941 2795 5689 
Q 3047 5438 3047 5081 
Q 3047 4863 2948 4678 
Q 2850 4494 2663 4366 
L 4325 0 
L 3669 0 
L 3244 1197 
L 1141 1197 
L 716 0 
L 50 0 
L 1716 4366 
z
" transform="scale(0.015625)"/>
       <path id="DejaVuSans-5d" d="M 1947 4863 
L 1947 -844 
L 622 -844 
L 622 -397 
L 1369 -397 
L 1369 4416 
L 622 4416 
L 622 4863 
L 1947 4863 
z
" transform="scale(0.015625)"/>
      </defs>
      <use xlink:href="#DejaVuSans-43"/>
      <use xlink:href="#DejaVuSans-52" x="69.824219"/>
      <use xlink:href="#DejaVuSans-4f" x="139.306641"/>
      <use xlink:href="#DejaVuSans-36" x="218.017578"/>
      <use xlink:href="#DejaVuSans-36" x="281.640625"/>
      <use xlink:href="#DejaVuSans-20" x="345.263672"/>
      <use xlink:href="#DejaVuSans-4f" x="377.050781"/>
      <use xlink:href="#DejaVuSans-48" x="455.761719"/>
      <use xlink:href="#DejaVuSans-20" x="530.957031"/>
      <use xlink:href="#DejaVuSans-2d" x="562.744141"/>
      <use xlink:href="#DejaVuSans-20" x="598.828125"/>
      <use xlink:href="#DejaVuSans-54" x="630.615234"/>
      <use xlink:href="#DejaVuSans-48" x="691.699219"/>
      <use xlink:href="#DejaVuSans-52" x="766.894531"/>
      <use xlink:href="#DejaVuSans-32" x="836.376953"/>
      <use xlink:href="#DejaVuSans-30" x="900"/>
      <use xlink:href="#DejaVuSans-33" x="963.623047"/>
      <use xlink:href="#DejaVuSans-20" x="1027.246094"/>
      <use xlink:href="#DejaVuSans-48" x="1059.033203"/>
      <use xlink:href="#DejaVuSans-47" x="1134.228516"/>
      <use xlink:href="#DejaVuSans-31" x="1211.71875"/>
      <use xlink:href="#DejaVuSans-20" x="1275.341797"/>
      <use xlink:href="#DejaVuSans-44" x="1307.128906"/>
      <use xlink:href="#DejaVuSans-69" x="1384.130859"/>
      <use xlink:href="#DejaVuSans-73" x="1411.914062"/>
      <use xlink:href="#DejaVuSans-74" x="1464.013672"/>
      <use xlink:href="#DejaVuSans-61" x="1503.222656"/>
      <use xlink:href="#DejaVuSans-6e" x="1564.501953"/>
      <use xlink:href="#DejaVuSans-63" x="1627.880859"/>
      <use xlink:href="#DejaVuSans-65" x="1682.861328"/>
      <use xlink:href="#DejaVuSans-20" x="1744.384766"/>
      <use xlink:href="#DejaVuSans-5b" x="1776.171875"/>
      <use xlink:href="#DejaVuSans-c5" x="1815.185547"/>
      <use xlink:href="#DejaVuSans-5d" x="1883.59375"/>
     </g>
    </g>
   </g>
   <g id="matplotlib.axis_2">
    <g id="ytick_1">
     <g id="line2d_6">
      <defs>
       <path id="m3aaac0b4c1" d="M 0 0 
L -3.5 0 
" style="stroke: #000000; stroke-width: 0.8"/>
      </defs>
      <g>
       <use xlink:href="#m3aaac0b4c1" x="47.81" y="302.8525" style="stroke: #000000; stroke-width: 0.8"/>
      </g>
     </g>
     <g id="text_7">
      <!-- 0.0 -->
      <g transform="translate(24.906875 306.651719) scale(0.1 -0.1)">
       <defs>
        <path id="DejaVuSans-2e" d="M 684 794 
L 1344 794 
L 1344 0 
L 684 0 
L 684 794 
z
" transform="scale(0.015625)"/>
       </defs>
       <use xlink:href="#DejaVuSans-30"/>
       <use xlink:href="#DejaVuSans-2e" x="63.623047"/>
       <use xlink:href="#DejaVuSans-30" x="95.410156"/>
      </g>
     </g>
    </g>
    <g id="ytick_2">
     <g id="line2d_7">
      <g>
       <use xlink:href="#m3aaac0b4c1" x="47.81" y="249.194614" style="stroke: #000000; stroke-width: 0.8"/>
      </g>
     </g>
     <g id="text_8">
      <!-- 0.2 -->
      <g transform="translate(24.906875 252.993832) scale(0.1 -0.1)">
       <use xlink:href="#DejaVuSans-30"/>
       <use xlink:href="#DejaVuSans-2e" x="63.623047"/>
       <use xlink:href="#DejaVuSans-32" x="95.410156"/>
      </g>
     </g>
    </g>
    <g id="ytick_3">
     <g id="line2d_8">
      <g>
       <use xlink:href="#m3aaac0b4c1" x="47.81" y="195.536727" style="stroke: #000000; stroke-width: 0.8"/>
      </g>
     </g>
     <g id="text_9">
      <!-- 0.4 -->
      <g transform="translate(24.906875 199.335946) scale(0.1 -0.1)">
       <use xlink:href="#DejaVuSans-30"/>
       <use xlink:href="#DejaVuSans-2e" x="63.623047"/>
       <use xlink:href="#DejaVuSans-34" x="95.410156"/>
      </g>
     </g>
    </g>
    <g id="ytick_4">
     <g id="line2d_9">
      <g>
       <use xlink:href="#m3aaac0b4c1" x="47.81" y="141.878841" style="stroke: #000000; stroke-width: 0.8"/>
      </g>
     </g>
     <g id="text_10">
      <!-- 0.6 -->
      <g transform="translate(24.906875 145.67806) scale(0.1 -0.1)">
       <use xlink:href="#DejaVuSans-30"/>
       <use xlink:href="#DejaVuSans-2e" x="63.623047"/>
       <use xlink:href="#DejaVuSans-36" x="95.410156"/>
      </g>
     </g>
    </g>
    <g id="ytick_5">
     <g id="line2d_10">
      <g>
       <use xlink:href="#m3aaac0b4c1" x="47.81" y="88.220955" style="stroke: #000000; stroke-width: 0.8"/>
      </g>
     </g>
     <g id="text_11">
      <!-- 0.8 -->
      <g transform="translate(24.906875 92.020173) scale(0.1 -0.1)">
       <defs>
        <path id="DejaVuSans-38" d="M 2034 2216 
Q 1584 2216 1326 1975 
Q 1069 1734 1069 1313 
Q 1069 891 1326 650 
Q 1584 409 2034 409 
Q 2484 409 2743 651 
Q 3003 894 3003 1313 
Q 3003 1734 2745 1975 
Q 2488 2216 2034 2216 
z
M 1403 2484 
Q 997 2584 770 2862 
Q 544 3141 544 3541 
Q 544 4100 942 4425 
Q 1341 4750 2034 4750 
Q 2731 4750 3128 4425 
Q 3525 4100 3525 3541 
Q 3525 3141 3298 2862 
Q 3072 2584 2669 2484 
Q 3125 2378 3379 2068 
Q 3634 1759 3634 1313 
Q 3634 634 3220 271 
Q 2806 -91 2034 -91 
Q 1263 -91 848 271 
Q 434 634 434 1313 
Q 434 1759 690 2068 
Q 947 2378 1403 2484 
z
M 1172 3481 
Q 1172 3119 1398 2916 
Q 1625 2713 2034 2713 
Q 2441 2713 2670 2916 
Q 2900 3119 2900 3481 
Q 2900 3844 2670 4047 
Q 2441 4250 2034 4250 
Q 1625 4250 1398 4047 
Q 1172 3844 1172 3481 
z
" transform="scale(0.015625)"/>
       </defs>
       <use xlink:href="#DejaVuSans-30"/>
       <use xlink:href="#DejaVuSans-2e" x="63.623047"/>
       <use xlink:href="#DejaVuSans-38" x="95.410156"/>
      </g>
     </g>
    </g>
    <g id="ytick_6">
     <g id="line2d_11">
      <g>
       <use xlink:href="#m3aaac0b4c1" x="47.81" y="34.563068" style="stroke: #000000; stroke-width: 0.8"/>
      </g>
     </g>
     <g id="text_12">
      <!-- 1.0 -->
      <g transform="translate(24.906875 38.362287) scale(0.1 -0.1)">
       <use xlink:href="#DejaVuSans-31"/>
       <use xlink:href="#DejaVuSans-2e" x="63.623047"/>
       <use xlink:href="#DejaVuSans-30" x="95.410156"/>
      </g>
     </g>
    </g>
    <g id="text_13">
     <!-- Density -->
     <g transform="translate(18.827187 175.834844) rotate(-90) scale(0.1 -0.1)">
      <defs>
       <path id="DejaVuSans-79" d="M 2059 -325 
Q 1816 -950 1584 -1140 
Q 1353 -1331 966 -1331 
L 506 -1331 
L 506 -850 
L 844 -850 
Q 1081 -850 1212 -737 
Q 1344 -625 1503 -206 
L 1606 56 
L 191 3500 
L 800 3500 
L 1894 763 
L 2988 3500 
L 3597 3500 
L 2059 -325 
z
" transform="scale(0.015625)"/>
      </defs>
      <use xlink:href="#DejaVuSans-44"/>
      <use xlink:href="#DejaVuSans-65" x="77.001953"/>
      <use xlink:href="#DejaVuSans-6e" x="138.525391"/>
      <use xlink:href="#DejaVuSans-73" x="201.904297"/>
      <use xlink:href="#DejaVuSans-69" x="254.003906"/>
      <use xlink:href="#DejaVuSans-74" x="281.787109"/>
      <use xlink:href="#DejaVuSans-79" x="320.996094"/>
     </g>
    </g>
   </g>
   <g id="line2d_12">
    <path d="M 69.287973 298.643908 
L 71.446563 295.992935 
L 73.605153 292.225828 
L 75.763744 287.179017 
L 77.922334 280.805381 
L 80.080924 273.222987 
L 84.398105 255.844354 
L 86.556695 247.151752 
L 88.715285 239.323867 
L 90.873875 232.969604 
L 93.032465 228.554495 
L 95.191056 226.337884 
L 97.349646 226.35039 
L 99.508236 228.412689 
L 101.666826 232.186187 
L 103.825417 237.240051 
L 105.984007 243.118398 
L 112.459778 261.787068 
L 114.618368 267.43128 
L 116.776958 272.523754 
L 118.935548 277.005083 
L 121.094139 280.860941 
L 123.252729 284.108736 
L 125.411319 286.78655 
L 127.569909 288.944257 
L 129.7285 290.636325 
L 131.88709 291.915907 
L 134.04568 292.829977 
L 136.20427 293.415653 
L 138.362861 293.698026 
L 140.521451 293.689878 
L 142.680041 293.393244 
L 144.838631 292.802218 
L 146.997221 291.905906 
L 149.155812 290.690498 
L 151.314402 289.140111 
L 153.472992 287.237071 
L 155.631582 284.96293 
L 157.790173 282.301384 
L 159.948763 279.243291 
L 162.107353 275.792751 
L 164.265943 271.972235 
L 166.424534 267.824849 
L 170.741714 258.814512 
L 177.217485 244.843687 
L 179.376075 240.493028 
L 181.534665 236.499343 
L 183.693256 232.986451 
L 185.851846 230.064611 
L 188.010436 227.819476 
L 190.169026 226.304683 
L 192.327616 225.53917 
L 194.486207 225.50845 
L 196.644797 226.168493 
L 198.803387 227.451162 
L 200.961977 229.270596 
L 203.120568 231.530009 
L 205.279158 234.128476 
L 209.596338 239.955455 
L 216.072109 249.057768 
L 218.230699 251.911353 
L 220.38929 254.550991 
L 222.54788 256.888823 
L 224.70647 258.835017 
L 226.86506 260.309571 
L 229.023651 261.252604 
L 231.182241 261.628876 
L 233.340831 261.426598 
L 235.499421 260.654167 
L 237.658011 259.338538 
L 239.816602 257.525713 
L 241.975192 255.280023 
L 244.133782 252.677979 
L 246.292372 249.795446 
L 250.609553 243.401234 
L 254.926733 236.271852 
L 259.243914 228.409156 
L 265.719685 215.765055 
L 274.354046 198.988662 
L 285.146997 178.741647 
L 289.464177 171.111157 
L 291.622767 167.632651 
L 293.781358 164.497113 
L 295.939948 161.787897 
L 298.098538 159.573846 
L 300.257128 157.903798 
L 302.415719 156.805148 
L 304.574309 156.28761 
L 306.732899 156.351161 
L 308.891489 156.99416 
L 311.05008 158.2166 
L 313.20867 160.016222 
L 315.36726 162.380235 
L 317.52585 165.2788 
L 319.684441 168.66544 
L 321.843031 172.484731 
L 324.001621 176.68269 
L 326.160211 181.213757 
L 330.477392 191.130806 
L 334.794572 201.949233 
L 341.270343 219.109026 
L 347.746114 236.123018 
L 352.063294 246.533311 
L 354.221884 251.304141 
L 356.380475 255.760255 
L 358.539065 259.904972 
L 360.697655 263.751785 
L 362.856245 267.318424 
L 365.014836 270.623272 
L 367.173426 273.683868 
L 369.332016 276.516528 
L 371.490606 279.136229 
L 373.649196 281.556399 
L 375.807787 283.788524 
L 377.966377 285.841663 
L 380.124967 287.722146 
L 382.283557 289.433882 
L 384.442148 290.979566 
L 386.600738 292.362643 
L 388.759328 293.589333 
L 390.917918 294.669818 
L 395.235099 296.449887 
L 399.552279 297.827624 
L 403.86946 298.907705 
L 408.18664 299.757775 
L 412.503821 300.417489 
L 418.979592 301.111074 
L 427.613952 301.694019 
L 438.406904 302.154337 
L 457.834216 302.611915 
L 461.8 302.670053 
L 461.8 302.670053 
" clip-path="url(#p53666c1a5f)" style="fill: none; stroke: #1e2e79; stroke-width: 1.5; stroke-linecap: square"/>
   </g>
   <g id="line2d_13">
    <path d="M 69.819412 290.521698 
L 71.710761 284.201938 
L 73.60211 275.640106 
L 75.493459 264.513839 
L 77.384807 250.643144 
L 79.276156 234.054804 
L 81.167505 215.028482 
L 84.950202 172.101074 
L 88.7329 128.822648 
L 90.624248 109.714067 
L 92.515597 93.617881 
L 94.406946 81.299375 
L 96.298295 73.258312 
L 98.189643 69.698139 
L 100.080992 70.530487 
L 101.972341 75.411183 
L 103.86369 83.7994 
L 105.755038 95.028836 
L 107.646387 108.37933 
L 111.429085 138.652484 
L 115.211782 169.755255 
L 117.103131 184.504071 
L 118.99448 198.322372 
L 120.885828 211.026162 
L 122.777177 222.509309 
L 124.668526 232.732104 
L 126.559875 241.708957 
L 128.451223 249.495343 
L 130.342572 256.174435 
L 132.233921 261.844181 
L 134.12527 266.605766 
L 136.016618 270.554258 
L 137.907967 273.772021 
L 139.799316 276.325166 
L 141.690665 278.263009 
L 143.582013 279.620145 
L 145.473362 280.420351 
L 147.364711 280.681218 
L 149.25606 280.418283 
L 151.147408 279.647702 
L 153.038757 278.387161 
L 154.930106 276.655533 
L 156.821455 274.472394 
L 158.712803 271.858625 
L 160.604152 268.838719 
L 162.495501 265.444502 
L 164.38685 261.719053 
L 168.169547 253.516229 
L 175.734942 236.406773 
L 177.626291 232.512588 
L 179.51764 228.948817 
L 181.408988 225.797514 
L 183.300337 223.134344 
L 185.191686 221.024613 
L 187.083035 219.517908 
L 188.974383 218.642874 
L 190.865732 218.404062 
L 192.757081 218.782312 
L 194.64843 219.738782 
L 196.539778 221.221329 
L 198.431127 223.17102 
L 200.322476 225.526807 
L 202.213825 228.22741 
L 204.105173 231.210814 
L 207.887871 237.764251 
L 213.561917 247.969909 
L 215.453266 251.160968 
L 217.344615 254.120307 
L 219.235963 256.782313 
L 221.127312 259.092907 
L 223.018661 261.011471 
L 224.91001 262.511164 
L 226.801358 263.577912 
L 228.692707 264.208678 
L 230.584056 264.409719 
L 232.475405 264.195179 
L 234.366753 263.586052 
L 236.258102 262.609323 
L 238.149451 261.297052 
L 240.0408 259.68534 
L 241.932148 257.813183 
L 243.823497 255.721283 
L 247.606195 251.042641 
L 253.280241 243.371718 
L 258.954287 235.747381 
L 262.736984 231.110886 
L 264.628333 229.017055 
L 266.519682 227.109773 
L 268.411031 225.413801 
L 270.302379 223.951355 
L 272.193728 222.741948 
L 274.085077 221.801608 
L 275.976426 221.141159 
L 277.867774 220.763958 
L 279.759123 220.664077 
L 281.650472 220.826101 
L 283.541821 221.227165 
L 285.433169 221.840863 
L 287.324518 222.641753 
L 289.215867 223.608803 
L 291.107216 224.726603 
L 294.889913 227.372042 
L 298.672611 230.49564 
L 302.455308 233.999927 
L 306.238006 237.825515 
L 310.020703 242.003779 
L 313.803401 246.574599 
L 321.368796 256.39522 
L 327.042842 263.564767 
L 332.716888 270.365793 
L 338.390934 276.856776 
L 342.173632 280.896513 
L 345.956329 284.59548 
L 349.739027 287.901821 
L 353.521724 290.795377 
L 357.304422 293.272906 
L 361.087119 295.351995 
L 364.869817 297.071157 
L 368.652514 298.474998 
L 372.435212 299.601602 
L 376.217909 300.484142 
L 380.000607 301.158005 
L 385.674653 301.861049 
L 391.348699 302.294575 
L 398.914094 302.588784 
L 412.153536 302.759422 
L 434.84972 302.837796 
L 446.197813 302.839888 
L 446.197813 302.839888 
" clip-path="url(#p53666c1a5f)" style="fill: none; stroke: #f99752; stroke-width: 1.5; stroke-linecap: square"/>
   </g>
   <g id="patch_163">
    <path d="M 47.81 302.8525 
L 47.81 10.8 
" style="fill: none; stroke: #000000; stroke-width: 0.8; stroke-linejoin: miter; stroke-linecap: square"/>
   </g>
   <g id="patch_164">
    <path d="M 450 302.8525 
L 450 10.8 
" style="fill: none; stroke: #000000; stroke-width: 0.8; stroke-linejoin: miter; stroke-linecap: square"/>
   </g>
   <g id="patch_165">
    <path d="M 47.81 302.8525 
L 450 302.8525 
" style="fill: none; stroke: #000000; stroke-width: 0.8; stroke-linejoin: miter; stroke-linecap: square"/>
   </g>
   <g id="patch_166">
    <path d="M 47.81 10.8 
L 450 10.8 
" style="fill: none; stroke: #000000; stroke-width: 0.8; stroke-linejoin: miter; stroke-linecap: square"/>
   </g>
   <g id="legend_1">
    <g id="patch_167">
     <path d="M 365.853125 48.15625 
L 443 48.15625 
Q 445 48.15625 445 46.15625 
L 445 17.8 
Q 445 15.8 443 15.8 
L 365.853125 15.8 
Q 363.853125 15.8 363.853125 17.8 
L 363.853125 46.15625 
Q 363.853125 48.15625 365.853125 48.15625 
z
" style="fill: #ffffff; opacity: 0.8; stroke: #cccccc; stroke-linejoin: miter"/>
    </g>
    <g id="patch_168">
     <path d="M 367.853125 27.398438 
L 387.853125 27.398438 
L 387.853125 20.398438 
L 367.853125 20.398438 
z
" style="fill: #1e2e79; fill-opacity: 0.5; stroke: #000000; stroke-width: 0.33128; stroke-linejoin: miter"/>
    </g>
    <g id="text_14">
     <!-- Unbound -->
     <g transform="translate(395.853125 27.398438) scale(0.1 -0.1)">
      <defs>
       <path id="DejaVuSans-55" d="M 556 4666 
L 1191 4666 
L 1191 1831 
Q 1191 1081 1462 751 
Q 1734 422 2344 422 
Q 2950 422 3222 751 
Q 3494 1081 3494 1831 
L 3494 4666 
L 4128 4666 
L 4128 1753 
Q 4128 841 3676 375 
Q 3225 -91 2344 -91 
Q 1459 -91 1007 375 
Q 556 841 556 1753 
L 556 4666 
z
" transform="scale(0.015625)"/>
       <path id="DejaVuSans-62" d="M 3116 1747 
Q 3116 2381 2855 2742 
Q 2594 3103 2138 3103 
Q 1681 3103 1420 2742 
Q 1159 2381 1159 1747 
Q 1159 1113 1420 752 
Q 1681 391 2138 391 
Q 2594 391 2855 752 
Q 3116 1113 3116 1747 
z
M 1159 2969 
Q 1341 3281 1617 3432 
Q 1894 3584 2278 3584 
Q 2916 3584 3314 3078 
Q 3713 2572 3713 1747 
Q 3713 922 3314 415 
Q 2916 -91 2278 -91 
Q 1894 -91 1617 61 
Q 1341 213 1159 525 
L 1159 0 
L 581 0 
L 581 4863 
L 1159 4863 
L 1159 2969 
z
" transform="scale(0.015625)"/>
       <path id="DejaVuSans-6f" d="M 1959 3097 
Q 1497 3097 1228 2736 
Q 959 2375 959 1747 
Q 959 1119 1226 758 
Q 1494 397 1959 397 
Q 2419 397 2687 759 
Q 2956 1122 2956 1747 
Q 2956 2369 2687 2733 
Q 2419 3097 1959 3097 
z
M 1959 3584 
Q 2709 3584 3137 3096 
Q 3566 2609 3566 1747 
Q 3566 888 3137 398 
Q 2709 -91 1959 -91 
Q 1206 -91 779 398 
Q 353 888 353 1747 
Q 353 2609 779 3096 
Q 1206 3584 1959 3584 
z
" transform="scale(0.015625)"/>
       <path id="DejaVuSans-75" d="M 544 1381 
L 544 3500 
L 1119 3500 
L 1119 1403 
Q 1119 906 1312 657 
Q 1506 409 1894 409 
Q 2359 409 2629 706 
Q 2900 1003 2900 1516 
L 2900 3500 
L 3475 3500 
L 3475 0 
L 2900 0 
L 2900 538 
Q 2691 219 2414 64 
Q 2138 -91 1772 -91 
Q 1169 -91 856 284 
Q 544 659 544 1381 
z
M 1991 3584 
L 1991 3584 
z
" transform="scale(0.015625)"/>
       <path id="DejaVuSans-64" d="M 2906 2969 
L 2906 4863 
L 3481 4863 
L 3481 0 
L 2906 0 
L 2906 525 
Q 2725 213 2448 61 
Q 2172 -91 1784 -91 
Q 1150 -91 751 415 
Q 353 922 353 1747 
Q 353 2572 751 3078 
Q 1150 3584 1784 3584 
Q 2172 3584 2448 3432 
Q 2725 3281 2906 2969 
z
M 947 1747 
Q 947 1113 1208 752 
Q 1469 391 1925 391 
Q 2381 391 2643 752 
Q 2906 1113 2906 1747 
Q 2906 2381 2643 2742 
Q 2381 3103 1925 3103 
Q 1469 3103 1208 2742 
Q 947 2381 947 1747 
z
" transform="scale(0.015625)"/>
      </defs>
      <use xlink:href="#DejaVuSans-55"/>
      <use xlink:href="#DejaVuSans-6e" x="73.193359"/>
      <use xlink:href="#DejaVuSans-62" x="136.572266"/>
      <use xlink:href="#DejaVuSans-6f" x="200.048828"/>
      <use xlink:href="#DejaVuSans-75" x="261.230469"/>
      <use xlink:href="#DejaVuSans-6e" x="324.609375"/>
      <use xlink:href="#DejaVuSans-64" x="387.988281"/>
     </g>
    </g>
    <g id="patch_169">
     <path d="M 367.853125 42.076563 
L 387.853125 42.076563 
L 387.853125 35.076563 
L 367.853125 35.076563 
z
" style="fill: #f99752; fill-opacity: 0.5; stroke: #000000; stroke-width: 0.458808; stroke-linejoin: miter"/>
    </g>
    <g id="text_15">
     <!-- Bound -->
     <g transform="translate(395.853125 42.076563) scale(0.1 -0.1)">
      <defs>
       <path id="DejaVuSans-42" d="M 1259 2228 
L 1259 519 
L 2272 519 
Q 2781 519 3026 730 
Q 3272 941 3272 1375 
Q 3272 1813 3026 2020 
Q 2781 2228 2272 2228 
L 1259 2228 
z
M 1259 4147 
L 1259 2741 
L 2194 2741 
Q 2656 2741 2882 2914 
Q 3109 3088 3109 3444 
Q 3109 3797 2882 3972 
Q 2656 4147 2194 4147 
L 1259 4147 
z
M 628 4666 
L 2241 4666 
Q 2963 4666 3353 4366 
Q 3744 4066 3744 3513 
Q 3744 3084 3544 2831 
Q 3344 2578 2956 2516 
Q 3422 2416 3680 2098 
Q 3938 1781 3938 1306 
Q 3938 681 3513 340 
Q 3088 0 2303 0 
L 628 0 
L 628 4666 
z
" transform="scale(0.015625)"/>
      </defs>
      <use xlink:href="#DejaVuSans-42"/>
      <use xlink:href="#DejaVuSans-6f" x="68.603516"/>
      <use xlink:href="#DejaVuSans-75" x="129.785156"/>
      <use xlink:href="#DejaVuSans-6e" x="193.164062"/>
      <use xlink:href="#DejaVuSans-64" x="256.542969"/>
     </g>
    </g>
   </g>
  </g>
 </g>
 <defs>
  <clipPath id="p53666c1a5f">
   <rect x="47.81" y="10.8" width="402.19" height="292.0525"/>
  </clipPath>
 </defs>
</svg>
