<?xml version="1.0" encoding="utf-8" standalone="no"?>
<!DOCTYPE svg PUBLIC "-//W3C//DTD SVG 1.1//EN"
  "http://www.w3.org/Graphics/SVG/1.1/DTD/svg11.dtd">
<svg xmlns:xlink="http://www.w3.org/1999/xlink" width="460.8pt" height="345.6pt" viewBox="0 0 460.8 345.6" xmlns="http://www.w3.org/2000/svg" version="1.1">
 <metadata>
  <rdf:RDF xmlns:dc="http://purl.org/dc/elements/1.1/" xmlns:cc="http://creativecommons.org/ns#" xmlns:rdf="http://www.w3.org/1999/02/22-rdf-syntax-ns#">
   <cc:Work>
    <dc:type rdf:resource="http://purl.org/dc/dcmitype/StillImage"/>
    <dc:date>2024-07-13T23:34:26.251669</dc:date>
    <dc:format>image/svg+xml</dc:format>
    <dc:creator>
     <cc:Agent>
      <dc:title>Matplotlib v3.9.1, https://matplotlib.org/</dc:title>
     </cc:Agent>
    </dc:creator>
   </cc:Work>
  </rdf:RDF>
 </metadata>
 <defs>
  <style type="text/css">*{stroke-linejoin: round; stroke-linecap: butt}</style>
 </defs>
 <g id="figure_1">
  <g id="patch_1">
   <path d="M 0 345.6 
L 460.8 345.6 
L 460.8 0 
L 0 0 
z
" style="fill: #ffffff"/>
  </g>
  <g id="axes_1">
   <g id="patch_2">
    <path d="M 47.243 299.536 
L 447.84 299.536 
L 447.84 16.74 
L 47.243 16.74 
z
" style="fill: #ffffff"/>
   </g>
   <g id="line2d_1">
    <path d="M 47.243 259.136571 
L 447.84 259.136571 
" clip-path="url(#p2f73f3d039)" style="fill: none; stroke-dasharray: 1.75,2.8875; stroke-dashoffset: 0; stroke: #c0c0c0; stroke-width: 1.75"/>
   </g>
   <g id="line2d_2">
    <path d="M 99.663761 -1 
L 100.776233 4.76079 
L 101.979227 10.031943 
L 103.783718 16.820252 
L 105.588209 23.704636 
L 106.791203 29.15476 
L 107.994197 35.532174 
L 110.400185 50.103886 
L 112.806173 64.601146 
L 114.610664 74.443923 
L 117.016652 86.283838 
L 123.031622 113.866577 
L 133.257071 161.048921 
L 135.663059 170.747809 
L 138.069047 179.607492 
L 141.076532 189.697252 
L 144.084017 198.934194 
L 147.091502 207.419661 
L 149.497489 213.645112 
L 151.903477 219.350098 
L 154.309465 224.544922 
L 156.715453 229.244137 
L 159.121441 233.437848 
L 161.527429 237.104225 
L 163.933417 240.254015 
L 166.339405 242.951992 
L 168.745393 245.286957 
L 171.151381 247.326293 
L 173.557369 249.106574 
L 176.564854 251.017593 
L 180.173836 252.97871 
L 184.985812 255.287802 
L 188.594794 256.817763 
L 191.602279 257.872625 
L 194.008267 258.517233 
L 196.414255 258.947548 
L 198.820243 259.133763 
L 201.226231 259.054239 
L 203.632219 258.696909 
L 206.038207 258.055422 
L 208.444195 257.126712 
L 210.850183 255.911796 
L 213.256171 254.414862 
L 215.662159 252.641943 
L 218.068147 250.606506 
L 221.075632 247.74207 
L 224.684614 243.961152 
L 229.49659 238.57215 
L 237.917548 228.747942 
L 242.128027 223.582537 
L 245.737009 218.8307 
L 249.947488 212.866623 
L 254.157967 206.491617 
L 269.195392 182.843727 
L 278.217847 168.06567 
L 280.623835 164.783175 
L 283.63132 161.147848 
L 295.059763 147.985886 
L 298.668745 144.529107 
L 302.879224 140.484291 
L 307.089703 136.084763 
L 314.909164 127.681707 
L 316.713655 125.333657 
L 318.518146 122.581741 
L 320.322637 119.395698 
L 323.330122 113.435954 
L 325.73611 108.813219 
L 327.540601 105.934703 
L 328.743595 104.393605 
L 329.946589 103.130891 
L 331.75108 101.57926 
L 334.157068 99.561023 
L 335.360062 98.330452 
L 336.563056 96.838462 
L 337.76605 95.024787 
L 338.969044 92.848668 
L 340.172038 90.289069 
L 341.976529 85.739229 
L 343.78102 80.45083 
L 349.194492 63.845739 
L 350.397486 61.015783 
L 351.60048 58.742547 
L 352.803474 56.980688 
L 354.607965 54.957696 
L 356.412456 53.028015 
L 357.61545 51.440167 
L 358.818444 49.418324 
L 360.021438 46.848947 
L 361.224432 43.657062 
L 362.427426 39.793588 
L 363.63042 35.221764 
L 364.833414 29.905503 
L 366.036408 23.801549 
L 367.239402 16.856224 
L 368.442396 9.006355 
L 369.79367 -1 
L 369.79367 -1 
" clip-path="url(#p2f73f3d039)" style="fill: none; stroke: #1e2e79; stroke-width: 2.5; stroke-linecap: square"/>
   </g>
   <g id="line2d_3">
    <path d="M 107.414022 -1 
L 109.197191 18.165016 
L 111.001682 34.939335 
L 112.806173 49.257208 
L 114.610664 61.370115 
L 116.415155 71.634898 
L 118.219646 80.525411 
L 120.625634 91.188293 
L 130.249586 132.006431 
L 136.866053 158.322269 
L 141.076532 174.419603 
L 144.084017 184.973643 
L 147.091502 194.599747 
L 150.098986 203.455478 
L 153.106471 211.665942 
L 156.113956 219.226064 
L 159.121441 226.100236 
L 161.527429 231.106171 
L 163.933417 235.68355 
L 166.339405 239.835203 
L 168.745393 243.557516 
L 171.151381 246.850804 
L 173.557369 249.727839 
L 175.963357 252.211319 
L 178.369345 254.323633 
L 180.775333 256.081227 
L 183.181321 257.498656 
L 185.587309 258.591924 
L 187.993297 259.372296 
L 189.797788 259.753217 
L 191.602279 259.958608 
L 194.008267 259.967978 
L 196.414255 259.70452 
L 198.820243 259.213016 
L 201.827728 258.331521 
L 204.835213 257.169374 
L 207.842698 255.717346 
L 210.850183 254.01189 
L 222.880123 246.637665 
L 228.293596 243.484811 
L 232.504075 241.331308 
L 237.917548 238.574951 
L 243.331021 235.467561 
L 251.751979 230.485461 
L 255.360961 228.010577 
L 261.977428 223.069478 
L 267.390901 219.197229 
L 272.202877 216.054981 
L 278.217847 212.430421 
L 283.63132 209.391735 
L 292.653775 204.446724 
L 296.864254 201.753724 
L 301.074733 198.813141 
L 304.082218 196.445332 
L 307.6912 193.29889 
L 311.901679 189.32821 
L 314.909164 186.219846 
L 317.916649 182.754955 
L 320.924134 178.86222 
L 324.533116 173.709049 
L 328.142098 168.159544 
L 330.548086 164.122118 
L 332.954074 159.699151 
L 337.164553 151.341256 
L 344.382517 136.803585 
L 346.187008 132.587917 
L 347.991498 127.872592 
L 350.397486 120.835682 
L 358.818444 95.002308 
L 363.028923 82.766365 
L 364.833414 76.916853 
L 366.637905 70.345225 
L 368.442396 62.827962 
L 370.246887 54.256987 
L 375.058863 30.088203 
L 376.261857 25.818113 
L 377.464851 22.784781 
L 378.667845 20.624982 
L 380.472336 17.68271 
L 381.67533 15.104975 
L 382.878324 11.590618 
L 384.081318 6.920225 
L 385.284312 0.967391 
L 385.624279 -1 
L 385.624279 -1 
" clip-path="url(#p2f73f3d039)" style="fill: none; stroke: #ec4067; stroke-width: 2.5; stroke-linecap: square"/>
   </g>
   <g id="matplotlib.axis_1">
    <g id="xtick_1">
     <g id="line2d_4">
      <defs>
       <path id="mf208a34e74" d="M 0 0 
L 0 3.5 
" style="stroke: #c2c1c1; stroke-width: 0.8"/>
      </defs>
      <g>
       <use xlink:href="#mf208a34e74" x="47.243" y="299.536" style="fill: #c2c1c1; stroke: #c2c1c1; stroke-width: 0.8"/>
      </g>
     </g>
     <g id="text_1">
      <!-- 0 -->
      <g style="fill: #191919" transform="translate(44.432844 314.036) scale(0.1 -0.1)">
       <defs>
        <path id="Roboto-Regular-30" d="M 3234 1944 
Q 3234 825 2848 381 
Q 2463 -63 1800 -63 
Q 1156 -63 764 368 
Q 372 800 359 1872 
L 359 2638 
Q 359 3753 750 4183 
Q 1141 4613 1794 4613 
Q 2447 4613 2834 4195 
Q 3222 3778 3234 2709 
L 3234 1944 
z
M 2653 2734 
Q 2653 3503 2434 3822 
Q 2216 4141 1794 4141 
Q 1388 4141 1167 3831 
Q 947 3522 941 2778 
L 941 1850 
Q 941 1088 1164 750 
Q 1388 413 1800 413 
Q 2222 413 2436 745 
Q 2650 1078 2653 1825 
L 2653 2734 
z
" transform="scale(0.015625)"/>
       </defs>
       <use xlink:href="#Roboto-Regular-30"/>
      </g>
     </g>
    </g>
    <g id="xtick_2">
     <g id="line2d_5">
      <g>
       <use xlink:href="#mf208a34e74" x="147.39225" y="299.536" style="fill: #c2c1c1; stroke: #c2c1c1; stroke-width: 0.8"/>
      </g>
     </g>
     <g id="text_2">
      <!-- 60 -->
      <g style="fill: #191919" transform="translate(141.771937 314.036) scale(0.1 -0.1)">
       <defs>
        <path id="Roboto-Regular-36" d="M 3291 1484 
Q 3291 838 2930 387 
Q 2569 -63 1878 -63 
Q 1388 -63 1063 198 
Q 738 459 577 861 
Q 416 1263 416 1684 
L 416 1956 
Q 416 2597 595 3194 
Q 775 3791 1247 4173 
Q 1719 4556 2597 4556 
L 2647 4556 
L 2647 4066 
Q 2041 4066 1705 3853 
Q 1369 3641 1205 3302 
Q 1041 2963 1006 2575 
Q 1369 2984 1984 2984 
Q 2438 2984 2727 2765 
Q 3016 2547 3153 2201 
Q 3291 1856 3291 1484 
z
M 997 1666 
Q 997 1059 1267 737 
Q 1538 416 1878 416 
Q 2278 416 2498 708 
Q 2719 1000 2719 1456 
Q 2719 1863 2516 2184 
Q 2313 2506 1891 2506 
Q 1588 2506 1341 2325 
Q 1094 2144 997 1884 
L 997 1666 
z
" transform="scale(0.015625)"/>
       </defs>
       <use xlink:href="#Roboto-Regular-36"/>
       <use xlink:href="#Roboto-Regular-30" x="56.201172"/>
      </g>
     </g>
    </g>
    <g id="xtick_3">
     <g id="line2d_6">
      <g>
       <use xlink:href="#mf208a34e74" x="247.5415" y="299.536" style="fill: #c2c1c1; stroke: #c2c1c1; stroke-width: 0.8"/>
      </g>
     </g>
     <g id="text_3">
      <!-- 120 -->
      <g style="fill: #191919" transform="translate(239.111031 314.036) scale(0.1 -0.1)">
       <defs>
        <path id="Roboto-Regular-31" d="M 2278 4575 
L 2278 0 
L 1700 0 
L 1700 3853 
L 534 3428 
L 534 3950 
L 2188 4575 
L 2278 4575 
z
" transform="scale(0.015625)"/>
        <path id="Roboto-Regular-32" d="M 3359 475 
L 3359 0 
L 381 0 
L 381 416 
L 1925 2134 
Q 2306 2566 2439 2819 
Q 2572 3072 2572 3328 
Q 2572 3663 2364 3900 
Q 2156 4138 1778 4138 
Q 1322 4138 1097 3878 
Q 872 3619 872 3213 
L 294 3213 
Q 294 3788 672 4200 
Q 1050 4613 1778 4613 
Q 2422 4613 2786 4278 
Q 3150 3944 3150 3397 
Q 3150 2997 2903 2592 
Q 2656 2188 2297 1797 
L 1078 475 
L 3359 475 
z
" transform="scale(0.015625)"/>
       </defs>
       <use xlink:href="#Roboto-Regular-31"/>
       <use xlink:href="#Roboto-Regular-32" x="56.201172"/>
       <use xlink:href="#Roboto-Regular-30" x="112.402344"/>
      </g>
     </g>
    </g>
    <g id="xtick_4">
     <g id="line2d_7">
      <g>
       <use xlink:href="#mf208a34e74" x="347.69075" y="299.536" style="fill: #c2c1c1; stroke: #c2c1c1; stroke-width: 0.8"/>
      </g>
     </g>
     <g id="text_4">
      <!-- 180 -->
      <g style="fill: #191919" transform="translate(339.260281 314.036) scale(0.1 -0.1)">
       <defs>
        <path id="Roboto-Regular-38" d="M 3244 1231 
Q 3244 606 2826 271 
Q 2409 -63 1796 -63 
Q 1184 -63 767 271 
Q 350 606 350 1231 
Q 350 1613 554 1905 
Q 759 2197 1109 2347 
Q 806 2494 629 2762 
Q 453 3031 453 3366 
Q 453 3963 833 4288 
Q 1213 4613 1794 4613 
Q 2378 4613 2758 4288 
Q 3138 3963 3138 3366 
Q 3138 3028 2956 2761 
Q 2775 2494 2472 2347 
Q 2825 2197 3034 1903 
Q 3244 1609 3244 1231 
z
M 2559 3356 
Q 2559 3697 2346 3917 
Q 2134 4138 1793 4138 
Q 1453 4138 1243 3927 
Q 1034 3716 1034 3356 
Q 1034 3003 1243 2790 
Q 1453 2578 1797 2578 
Q 2138 2578 2348 2790 
Q 2559 3003 2559 3356 
z
M 2663 1244 
Q 2663 1625 2420 1865 
Q 2178 2106 1791 2106 
Q 1394 2106 1161 1865 
Q 928 1625 928 1244 
Q 928 850 1161 631 
Q 1394 413 1797 413 
Q 2200 413 2431 631 
Q 2663 850 2663 1244 
z
" transform="scale(0.015625)"/>
       </defs>
       <use xlink:href="#Roboto-Regular-31"/>
       <use xlink:href="#Roboto-Regular-38" x="56.201172"/>
       <use xlink:href="#Roboto-Regular-30" x="112.402344"/>
      </g>
     </g>
    </g>
    <g id="xtick_5">
     <g id="line2d_8">
      <g>
       <use xlink:href="#mf208a34e74" x="447.84" y="299.536" style="fill: #c2c1c1; stroke: #c2c1c1; stroke-width: 0.8"/>
      </g>
     </g>
     <g id="text_5">
      <!-- 240 -->
      <g style="fill: #191919" transform="translate(439.409531 314.036) scale(0.1 -0.1)">
       <defs>
        <path id="Roboto-Regular-34" d="M 166 1397 
L 2203 4550 
L 2819 4550 
L 2819 1531 
L 3453 1531 
L 3453 1056 
L 2819 1056 
L 2819 0 
L 2241 0 
L 2241 1056 
L 166 1056 
L 166 1397 
z
M 822 1531 
L 2241 1531 
L 2241 3766 
L 2169 3638 
L 822 1531 
z
" transform="scale(0.015625)"/>
       </defs>
       <use xlink:href="#Roboto-Regular-32"/>
       <use xlink:href="#Roboto-Regular-34" x="56.201172"/>
       <use xlink:href="#Roboto-Regular-30" x="112.402344"/>
      </g>
     </g>
    </g>
    <g id="text_6">
     <!-- Cys204 C SER205 N-CA-CB Dihedral [°] -->
     <g style="fill: #191919" transform="translate(141.786812 329.999125) scale(0.12 -0.12)">
      <defs>
       <path id="Roboto-Bold-43" d="M 3044 1516 
L 3981 1516 
Q 3934 822 3461 379 
Q 2988 -63 2150 -63 
Q 1275 -63 772 526 
Q 269 1116 269 2125 
L 269 2422 
Q 269 3431 784 4023 
Q 1300 4616 2159 4616 
Q 3013 4616 3466 4161 
Q 3919 3706 3984 3006 
L 3047 3006 
Q 3016 3413 2820 3630 
Q 2625 3847 2159 3847 
Q 1247 3847 1222 2500 
L 1222 2125 
Q 1222 1419 1436 1062 
Q 1650 706 2150 706 
Q 2594 706 2801 907 
Q 3009 1109 3044 1516 
z
" transform="scale(0.015625)"/>
       <path id="Roboto-Bold-79" d="M 769 -1366 
Q 594 -1366 369 -1306 
L 369 -622 
L 509 -625 
Q 775 -625 903 -539 
Q 1031 -453 1097 -266 
L 1197 -6 
L 13 3381 
L 984 3381 
L 1613 1275 
L 2238 3381 
L 3203 3381 
L 1850 -506 
Q 1791 -675 1675 -876 
Q 1559 -1078 1342 -1222 
Q 1125 -1366 769 -1366 
z
" transform="scale(0.015625)"/>
       <path id="Roboto-Bold-73" d="M 2178 938 
Q 2178 1081 2045 1179 
Q 1913 1278 1475 1372 
Q 953 1484 618 1721 
Q 284 1959 284 2394 
Q 284 2816 642 3130 
Q 1000 3444 1631 3444 
Q 2291 3444 2669 3134 
Q 3047 2825 3047 2353 
L 2144 2353 
Q 2144 2547 2019 2675 
Q 1894 2803 1628 2803 
Q 1403 2803 1276 2698 
Q 1150 2594 1150 2438 
Q 1150 2294 1284 2200 
Q 1419 2106 1781 2034 
Q 2331 1925 2693 1700 
Q 3056 1475 3056 972 
Q 3056 525 2672 231 
Q 2288 -63 1634 -63 
Q 925 -63 550 301 
Q 175 666 175 1078 
L 1034 1078 
Q 1047 813 1230 697 
Q 1413 581 1653 581 
Q 2178 581 2178 938 
z
" transform="scale(0.015625)"/>
       <path id="Roboto-Bold-32" d="M 3428 728 
L 3428 0 
L 313 0 
L 313 619 
L 1784 2188 
Q 2116 2553 2245 2792 
Q 2375 3031 2375 3234 
Q 2375 3538 2223 3713 
Q 2072 3888 1788 3888 
Q 1466 3888 1295 3669 
Q 1125 3450 1125 3119 
L 222 3119 
Q 222 3734 645 4175 
Q 1069 4616 1803 4616 
Q 2519 4616 2900 4270 
Q 3281 3925 3281 3325 
Q 3281 2875 3014 2470 
Q 2747 2066 2284 1581 
L 1472 728 
L 3428 728 
z
" transform="scale(0.015625)"/>
       <path id="Roboto-Bold-30" d="M 3372 1884 
Q 3372 856 2950 396 
Q 2528 -63 1840 -63 
Q 1153 -63 726 396 
Q 300 856 300 1884 
L 300 2675 
Q 300 3700 723 4156 
Q 1147 4613 1834 4613 
Q 2519 4613 2944 4159 
Q 3369 3706 3372 2691 
L 3372 1884 
z
M 2469 2800 
Q 2469 3406 2303 3645 
Q 2138 3884 1834 3884 
Q 1538 3884 1372 3650 
Q 1206 3416 1203 2825 
L 1203 1763 
Q 1203 1153 1370 909 
Q 1538 666 1841 666 
Q 2138 666 2302 905 
Q 2466 1144 2469 1738 
L 2469 2800 
z
" transform="scale(0.015625)"/>
       <path id="Roboto-Bold-34" d="M 175 1553 
L 2072 4550 
L 2984 4550 
L 2984 1713 
L 3500 1713 
L 3500 984 
L 2984 984 
L 2984 0 
L 2081 0 
L 2081 984 
L 216 984 
L 175 1553 
z
M 1072 1713 
L 2081 1713 
L 2081 3328 
L 2019 3219 
L 1072 1713 
z
" transform="scale(0.015625)"/>
       <path id="Roboto-Bold-20" transform="scale(0.015625)"/>
       <path id="Roboto-Bold-53" d="M 2769 1194 
Q 2769 1422 2612 1573 
Q 2456 1725 1854 1920 
Q 1253 2116 816 2425 
Q 356 2747 356 3341 
Q 356 3913 828 4263 
Q 1300 4613 2038 4613 
Q 2794 4613 3250 4217 
Q 3706 3822 3706 3209 
L 2769 3209 
Q 2769 3497 2584 3681 
Q 2400 3866 2022 3866 
Q 1653 3866 1473 3711 
Q 1294 3556 1294 3338 
Q 1294 3113 1525 2963 
Q 1756 2813 2197 2678 
Q 2944 2450 3326 2106 
Q 3709 1763 3709 1200 
Q 3709 603 3259 270 
Q 2809 -63 2059 -63 
Q 1606 -63 1184 96 
Q 763 256 491 587 
Q 219 919 219 1434 
L 1159 1434 
Q 1159 1019 1407 850 
Q 1656 681 2059 681 
Q 2422 681 2595 828 
Q 2769 975 2769 1194 
z
" transform="scale(0.015625)"/>
       <path id="Roboto-Bold-45" d="M 406 0 
L 406 4550 
L 3450 4550 
L 3450 3791 
L 1347 3791 
L 1347 2706 
L 3144 2706 
L 3144 1972 
L 1347 1972 
L 1347 756 
L 3459 756 
L 3459 0 
L 406 0 
z
" transform="scale(0.015625)"/>
       <path id="Roboto-Bold-52" d="M 2944 0 
L 2094 1669 
L 1347 1669 
L 1347 0 
L 406 0 
L 406 4550 
L 2100 4550 
Q 2884 4550 3332 4198 
Q 3781 3847 3781 3175 
Q 3781 2681 3562 2378 
Q 3344 2075 2969 1906 
L 3953 44 
L 3953 0 
L 2944 0 
z
M 1347 3791 
L 1347 2425 
L 2100 2425 
Q 2469 2425 2655 2611 
Q 2841 2797 2841 3103 
Q 2841 3419 2659 3605 
Q 2478 3791 2100 3791 
L 1347 3791 
z
" transform="scale(0.015625)"/>
       <path id="Roboto-Bold-35" d="M 1166 2063 
L 447 2238 
L 706 4550 
L 3256 4550 
L 3256 3800 
L 1450 3800 
L 1338 2819 
Q 1650 2991 2019 2991 
Q 2681 2991 3043 2587 
Q 3406 2184 3406 1463 
Q 3406 856 3031 396 
Q 2656 -63 1872 -63 
Q 1281 -63 814 287 
Q 347 638 331 1269 
L 1225 1269 
Q 1284 666 1866 666 
Q 2206 666 2354 911 
Q 2503 1156 2503 1513 
Q 2503 1872 2325 2092 
Q 2147 2313 1772 2313 
Q 1525 2313 1390 2233 
Q 1256 2153 1166 2063 
z
" transform="scale(0.015625)"/>
       <path id="Roboto-Bold-4e" d="M 4109 4550 
L 4109 0 
L 3172 0 
L 1347 2997 
L 1347 0 
L 406 0 
L 406 4550 
L 1347 4550 
L 3172 1550 
L 3172 4550 
L 4109 4550 
z
" transform="scale(0.015625)"/>
       <path id="Roboto-Bold-2d" d="M 2103 2316 
L 2103 1584 
L 347 1584 
L 347 2316 
L 2103 2316 
z
" transform="scale(0.015625)"/>
       <path id="Roboto-Bold-41" d="M 25 0 
L 1719 4550 
L 2588 4550 
L 4291 0 
L 3291 0 
L 2978 938 
L 1331 938 
L 1019 0 
L 25 0 
z
M 1584 1697 
L 2725 1697 
L 2156 3406 
L 1584 1697 
z
" transform="scale(0.015625)"/>
       <path id="Roboto-Bold-42" d="M 3788 1341 
Q 3788 684 3369 345 
Q 2950 6 2175 0 
L 406 0 
L 406 4550 
L 2003 4550 
Q 2794 4550 3241 4247 
Q 3688 3944 3688 3306 
Q 3688 2997 3531 2737 
Q 3375 2478 3038 2344 
Q 3438 2244 3613 1956 
Q 3788 1669 3788 1341 
z
M 1347 3791 
L 1347 2647 
L 2003 2647 
Q 2747 2647 2747 3209 
Q 2747 3778 2034 3791 
L 1347 3791 
z
M 2850 1350 
Q 2850 1963 2231 1984 
L 1347 1984 
L 1347 756 
L 2147 756 
Q 2506 756 2678 925 
Q 2850 1094 2850 1350 
z
" transform="scale(0.015625)"/>
       <path id="Roboto-Bold-44" d="M 406 0 
L 406 4550 
L 1809 4550 
Q 2728 4550 3308 3950 
Q 3888 3350 3888 2375 
L 3888 2172 
Q 3888 1197 3308 598 
Q 2728 0 1797 0 
L 406 0 
z
M 1347 3791 
L 1347 756 
L 1797 756 
Q 2350 756 2639 1115 
Q 2928 1475 2934 2144 
L 2934 2381 
Q 2934 3075 2661 3428 
Q 2388 3781 1838 3791 
L 1347 3791 
z
" transform="scale(0.015625)"/>
       <path id="Roboto-Bold-69" d="M 341 4256 
Q 341 4459 478 4592 
Q 616 4725 847 4725 
Q 1078 4725 1215 4592 
Q 1353 4459 1353 4256 
Q 1353 4056 1215 3923 
Q 1078 3791 847 3791 
Q 616 3791 478 3923 
Q 341 4056 341 4256 
z
M 1303 3381 
L 1303 0 
L 397 0 
L 397 3381 
L 1303 3381 
z
" transform="scale(0.015625)"/>
       <path id="Roboto-Bold-68" d="M 1803 2713 
Q 1409 2713 1231 2409 
L 1231 0 
L 328 0 
L 328 4800 
L 1231 4800 
L 1231 3016 
Q 1584 3444 2134 3444 
Q 2631 3444 2939 3150 
Q 3247 2856 3250 2147 
L 3250 0 
L 2344 0 
L 2344 2138 
Q 2344 2466 2203 2589 
Q 2063 2713 1803 2713 
z
" transform="scale(0.015625)"/>
       <path id="Roboto-Bold-65" d="M 3225 550 
Q 3063 319 2731 128 
Q 2400 -63 1906 -63 
Q 1119 -63 675 414 
Q 231 891 228 1566 
L 228 1697 
Q 228 2463 654 2953 
Q 1081 3444 1806 3444 
Q 2534 3444 2915 2987 
Q 3297 2531 3297 1781 
L 3297 1397 
L 1144 1397 
Q 1191 1069 1403 867 
Q 1616 666 1963 666 
Q 2478 666 2778 1044 
L 3225 550 
z
M 1800 2716 
Q 1513 2716 1356 2522 
Q 1200 2328 1153 2016 
L 2409 2016 
L 2409 2084 
Q 2403 2356 2258 2536 
Q 2113 2716 1800 2716 
z
" transform="scale(0.015625)"/>
       <path id="Roboto-Bold-64" d="M 2438 0 
L 2394 359 
Q 2059 -63 1528 -63 
Q 900 -63 553 425 
Q 206 913 206 1650 
L 206 1716 
Q 206 2488 553 2966 
Q 900 3444 1534 3444 
Q 2028 3444 2347 3078 
L 2347 4800 
L 3253 4800 
L 3253 0 
L 2438 0 
z
M 1113 1650 
Q 1113 1244 1256 958 
Q 1400 672 1756 672 
Q 2169 672 2347 1022 
L 2347 2363 
Q 2175 2713 1763 2713 
Q 1409 2713 1261 2425 
Q 1113 2138 1113 1650 
z
" transform="scale(0.015625)"/>
       <path id="Roboto-Bold-72" d="M 1922 2563 
Q 1413 2563 1253 2216 
L 1253 0 
L 347 0 
L 347 3381 
L 1200 3381 
L 1228 2978 
Q 1494 3444 1981 3444 
Q 2153 3444 2259 3403 
L 2250 2538 
L 1922 2563 
z
" transform="scale(0.015625)"/>
       <path id="Roboto-Bold-61" d="M 2306 0 
Q 2250 119 2216 303 
Q 1888 -63 1363 -63 
Q 878 -63 547 223 
Q 216 509 216 950 
Q 216 1481 609 1773 
Q 1003 2066 1775 2066 
L 2178 2066 
L 2178 2263 
Q 2178 2497 2058 2636 
Q 1938 2775 1678 2775 
Q 1194 2775 1194 2369 
L 291 2369 
Q 291 2809 681 3126 
Q 1072 3444 1728 3444 
Q 2313 3444 2698 3147 
Q 3084 2850 3084 2256 
L 3084 750 
Q 3091 300 3219 53 
L 3219 0 
L 2306 0 
z
M 1559 628 
Q 1788 628 1948 729 
Q 2109 831 2178 953 
L 2178 1541 
L 1809 1541 
Q 1450 1541 1284 1389 
Q 1119 1238 1119 1016 
Q 1119 847 1236 737 
Q 1353 628 1559 628 
z
" transform="scale(0.015625)"/>
       <path id="Roboto-Bold-6c" d="M 1303 4800 
L 1303 0 
L 397 0 
L 397 4800 
L 1303 4800 
z
" transform="scale(0.015625)"/>
       <path id="Roboto-Bold-5b" d="M 1728 5297 
L 1728 4600 
L 1281 4600 
L 1281 -366 
L 1728 -366 
L 1728 -1059 
L 375 -1059 
L 375 5297 
L 1728 5297 
z
" transform="scale(0.015625)"/>
       <path id="Roboto-Bold-b0" d="M 397 3750 
Q 397 4103 647 4358 
Q 897 4613 1247 4613 
Q 1591 4613 1836 4358 
Q 2081 4103 2081 3750 
Q 2081 3397 1836 3150 
Q 1591 2903 1247 2903 
Q 897 2903 647 3150 
Q 397 3397 397 3750 
z
M 853 3750 
Q 853 3584 970 3473 
Q 1088 3363 1247 3363 
Q 1406 3363 1515 3473 
Q 1625 3584 1625 3750 
Q 1625 3922 1515 4036 
Q 1406 4150 1247 4150 
Q 1088 4150 970 4036 
Q 853 3922 853 3750 
z
" transform="scale(0.015625)"/>
       <path id="Roboto-Bold-5d" d="M 41 4600 
L 41 5297 
L 1394 5297 
L 1394 -1059 
L 41 -1059 
L 41 -366 
L 491 -366 
L 491 4600 
L 41 4600 
z
" transform="scale(0.015625)"/>
      </defs>
      <use xlink:href="#Roboto-Bold-43"/>
      <use xlink:href="#Roboto-Bold-79" x="65.478516"/>
      <use xlink:href="#Roboto-Bold-73" x="115.722656"/>
      <use xlink:href="#Roboto-Bold-32" x="167.1875"/>
      <use xlink:href="#Roboto-Bold-30" x="224.560547"/>
      <use xlink:href="#Roboto-Bold-34" x="281.933594"/>
      <use xlink:href="#Roboto-Bold-20" x="339.306641"/>
      <use xlink:href="#Roboto-Bold-43" x="364.208984"/>
      <use xlink:href="#Roboto-Bold-20" x="429.6875"/>
      <use xlink:href="#Roboto-Bold-53" x="454.589844"/>
      <use xlink:href="#Roboto-Bold-45" x="516.064453"/>
      <use xlink:href="#Roboto-Bold-52" x="572.314453"/>
      <use xlink:href="#Roboto-Bold-32" x="636.132812"/>
      <use xlink:href="#Roboto-Bold-30" x="693.505859"/>
      <use xlink:href="#Roboto-Bold-35" x="750.878906"/>
      <use xlink:href="#Roboto-Bold-20" x="808.251953"/>
      <use xlink:href="#Roboto-Bold-4e" x="833.154297"/>
      <use xlink:href="#Roboto-Bold-2d" x="903.808594"/>
      <use xlink:href="#Roboto-Bold-43" x="942.626953"/>
      <use xlink:href="#Roboto-Bold-41" x="1008.105469"/>
      <use xlink:href="#Roboto-Bold-2d" x="1075.439453"/>
      <use xlink:href="#Roboto-Bold-43" x="1114.257812"/>
      <use xlink:href="#Roboto-Bold-42" x="1179.736328"/>
      <use xlink:href="#Roboto-Bold-20" x="1243.554688"/>
      <use xlink:href="#Roboto-Bold-44" x="1268.457031"/>
      <use xlink:href="#Roboto-Bold-69" x="1333.496094"/>
      <use xlink:href="#Roboto-Bold-68" x="1360.009766"/>
      <use xlink:href="#Roboto-Bold-65" x="1416.015625"/>
      <use xlink:href="#Roboto-Bold-64" x="1470.068359"/>
      <use xlink:href="#Roboto-Bold-72" x="1526.464844"/>
      <use xlink:href="#Roboto-Bold-61" x="1562.988281"/>
      <use xlink:href="#Roboto-Bold-6c" x="1616.601562"/>
      <use xlink:href="#Roboto-Bold-20" x="1643.115234"/>
      <use xlink:href="#Roboto-Bold-5b" x="1668.017578"/>
      <use xlink:href="#Roboto-Bold-b0" x="1695.849609"/>
      <use xlink:href="#Roboto-Bold-5d" x="1734.716797"/>
     </g>
    </g>
   </g>
   <g id="matplotlib.axis_2">
    <g id="ytick_1">
     <g id="line2d_9">
      <defs>
       <path id="md5272b723e" d="M 0 0 
L -3.5 0 
" style="stroke: #c2c1c1; stroke-width: 0.8"/>
      </defs>
      <g>
       <use xlink:href="#md5272b723e" x="47.243" y="299.536" style="fill: #c2c1c1; stroke: #c2c1c1; stroke-width: 0.8"/>
      </g>
     </g>
     <g id="text_7">
      <!-- −1 -->
      <g style="fill: #191919" transform="translate(28.9055 303.286) scale(0.1 -0.1)">
       <defs>
        <path id="Roboto-Regular-2212" d="M 3134 2509 
L 3134 2034 
L 525 2034 
L 525 2509 
L 3134 2509 
z
" transform="scale(0.015625)"/>
       </defs>
       <use xlink:href="#Roboto-Regular-2212"/>
       <use xlink:href="#Roboto-Regular-31" x="57.177734"/>
      </g>
     </g>
    </g>
    <g id="ytick_2">
     <g id="line2d_10">
      <g>
       <use xlink:href="#md5272b723e" x="47.243" y="259.136571" style="fill: #c2c1c1; stroke: #c2c1c1; stroke-width: 0.8"/>
      </g>
     </g>
     <g id="text_8">
      <!-- 0 -->
      <g style="fill: #191919" transform="translate(34.622687 262.886571) scale(0.1 -0.1)">
       <use xlink:href="#Roboto-Regular-30"/>
      </g>
     </g>
    </g>
    <g id="ytick_3">
     <g id="line2d_11">
      <g>
       <use xlink:href="#md5272b723e" x="47.243" y="218.737143" style="fill: #c2c1c1; stroke: #c2c1c1; stroke-width: 0.8"/>
      </g>
     </g>
     <g id="text_9">
      <!-- 1 -->
      <g style="fill: #191919" transform="translate(34.622687 222.487143) scale(0.1 -0.1)">
       <use xlink:href="#Roboto-Regular-31"/>
      </g>
     </g>
    </g>
    <g id="ytick_4">
     <g id="line2d_12">
      <g>
       <use xlink:href="#md5272b723e" x="47.243" y="178.337714" style="fill: #c2c1c1; stroke: #c2c1c1; stroke-width: 0.8"/>
      </g>
     </g>
     <g id="text_10">
      <!-- 2 -->
      <g style="fill: #191919" transform="translate(34.622687 182.087714) scale(0.1 -0.1)">
       <use xlink:href="#Roboto-Regular-32"/>
      </g>
     </g>
    </g>
    <g id="ytick_5">
     <g id="line2d_13">
      <g>
       <use xlink:href="#md5272b723e" x="47.243" y="137.938286" style="fill: #c2c1c1; stroke: #c2c1c1; stroke-width: 0.8"/>
      </g>
     </g>
     <g id="text_11">
      <!-- 3 -->
      <g style="fill: #191919" transform="translate(34.622687 141.688286) scale(0.1 -0.1)">
       <defs>
        <path id="Roboto-Regular-33" d="M 1222 2084 
L 1222 2559 
L 1647 2559 
Q 2094 2563 2312 2784 
Q 2531 3006 2531 3338 
Q 2531 4138 1738 4138 
Q 1369 4138 1141 3927 
Q 913 3716 913 3359 
L 334 3359 
Q 334 3881 720 4247 
Q 1106 4613 1738 4613 
Q 2353 4613 2733 4286 
Q 3113 3959 3113 3325 
Q 3113 3072 2942 2784 
Q 2772 2497 2397 2338 
Q 2850 2191 3015 1884 
Q 3181 1578 3181 1269 
Q 3181 631 2768 284 
Q 2356 -63 1741 -63 
Q 1147 -63 722 267 
Q 297 597 297 1203 
L 875 1203 
Q 875 844 1108 628 
Q 1341 413 1741 413 
Q 2138 413 2369 622 
Q 2600 831 2600 1256 
Q 2600 1681 2337 1882 
Q 2075 2084 1634 2084 
L 1222 2084 
z
" transform="scale(0.015625)"/>
       </defs>
       <use xlink:href="#Roboto-Regular-33"/>
      </g>
     </g>
    </g>
    <g id="ytick_6">
     <g id="line2d_14">
      <g>
       <use xlink:href="#md5272b723e" x="47.243" y="97.538857" style="fill: #c2c1c1; stroke: #c2c1c1; stroke-width: 0.8"/>
      </g>
     </g>
     <g id="text_12">
      <!-- 4 -->
      <g style="fill: #191919" transform="translate(34.622687 101.288857) scale(0.1 -0.1)">
       <use xlink:href="#Roboto-Regular-34"/>
      </g>
     </g>
    </g>
    <g id="ytick_7">
     <g id="line2d_15">
      <g>
       <use xlink:href="#md5272b723e" x="47.243" y="57.139429" style="fill: #c2c1c1; stroke: #c2c1c1; stroke-width: 0.8"/>
      </g>
     </g>
     <g id="text_13">
      <!-- 5 -->
      <g style="fill: #191919" transform="translate(34.622687 60.889429) scale(0.1 -0.1)">
       <defs>
        <path id="Roboto-Regular-35" d="M 1109 2166 
L 647 2284 
L 875 4550 
L 3209 4550 
L 3209 4016 
L 1366 4016 
L 1228 2778 
Q 1572 2975 1988 2975 
Q 2616 2975 2980 2561 
Q 3344 2147 3344 1450 
Q 3344 797 2987 367 
Q 2631 -63 1903 -63 
Q 1350 -63 947 248 
Q 544 559 481 1197 
L 1031 1197 
Q 1141 413 1903 413 
Q 2313 413 2538 691 
Q 2763 969 2763 1444 
Q 2763 1872 2527 2164 
Q 2291 2456 1853 2456 
Q 1563 2456 1413 2378 
Q 1263 2300 1109 2166 
z
" transform="scale(0.015625)"/>
       </defs>
       <use xlink:href="#Roboto-Regular-35"/>
      </g>
     </g>
    </g>
    <g id="ytick_8">
     <g id="line2d_16">
      <g>
       <use xlink:href="#md5272b723e" x="47.243" y="16.74" style="fill: #c2c1c1; stroke: #c2c1c1; stroke-width: 0.8"/>
      </g>
     </g>
     <g id="text_14">
      <!-- 6 -->
      <g style="fill: #191919" transform="translate(34.622687 20.49) scale(0.1 -0.1)">
       <use xlink:href="#Roboto-Regular-36"/>
      </g>
     </g>
    </g>
    <g id="text_15">
     <!-- PMF [kcal/mol] -->
     <g style="fill: #191919" transform="translate(22.468 198.957688) rotate(-90) scale(0.12 -0.12)">
      <defs>
       <path id="Roboto-Bold-50" d="M 1347 1606 
L 1347 0 
L 406 0 
L 406 4550 
L 2184 4550 
Q 2991 4550 3442 4125 
Q 3894 3700 3894 3047 
Q 3894 2388 3442 1997 
Q 2991 1606 2184 1606 
L 1347 1606 
z
M 1347 3791 
L 1347 2363 
L 2184 2363 
Q 2588 2363 2766 2553 
Q 2944 2744 2944 3041 
Q 2944 3338 2766 3564 
Q 2588 3791 2184 3791 
L 1347 3791 
z
" transform="scale(0.015625)"/>
       <path id="Roboto-Bold-4d" d="M 2800 1250 
L 3966 4550 
L 5194 4550 
L 5194 0 
L 4253 0 
L 4253 1244 
L 4347 3381 
L 3122 0 
L 2478 0 
L 1253 3381 
L 1347 1244 
L 1347 0 
L 406 0 
L 406 4550 
L 1634 4550 
L 2800 1250 
z
" transform="scale(0.015625)"/>
       <path id="Roboto-Bold-46" d="M 406 0 
L 406 4550 
L 3372 4550 
L 3372 3791 
L 1347 3791 
L 1347 2616 
L 3147 2616 
L 3147 1859 
L 1347 1859 
L 1347 0 
L 406 0 
z
" transform="scale(0.015625)"/>
       <path id="Roboto-Bold-6b" d="M 2444 0 
L 1575 1356 
L 1253 1034 
L 1253 0 
L 350 0 
L 350 4803 
L 1253 4803 
L 1253 2144 
L 1428 2369 
L 2291 3381 
L 3375 3381 
L 2156 1975 
L 3484 0 
L 2444 0 
z
" transform="scale(0.015625)"/>
       <path id="Roboto-Bold-63" d="M 1753 666 
Q 2000 666 2159 802 
Q 2319 938 2322 1169 
L 3172 1169 
Q 3166 631 2761 284 
Q 2356 -63 1769 -63 
Q 984 -63 595 432 
Q 206 928 206 1647 
L 206 1734 
Q 206 2450 593 2947 
Q 981 3444 1766 3444 
Q 2388 3444 2777 3087 
Q 3166 2731 3172 2122 
L 2322 2122 
Q 2319 2369 2172 2542 
Q 2025 2716 1750 2716 
Q 1356 2716 1234 2420 
Q 1113 2125 1113 1647 
Q 1113 1256 1233 961 
Q 1353 666 1753 666 
z
" transform="scale(0.015625)"/>
       <path id="Roboto-Bold-2f" d="M 2306 4550 
L 631 -391 
L -41 -391 
L 1634 4550 
L 2306 4550 
z
" transform="scale(0.015625)"/>
       <path id="Roboto-Bold-6d" d="M 1806 2713 
Q 1431 2713 1253 2394 
L 1253 0 
L 347 0 
L 347 3381 
L 1197 3381 
L 1228 3009 
Q 1581 3444 2197 3444 
Q 2850 3444 3094 2928 
Q 3441 3444 4109 3444 
Q 4597 3444 4894 3156 
Q 5191 2869 5194 2169 
L 5194 0 
L 4288 0 
L 4288 2156 
Q 4288 2494 4152 2603 
Q 4016 2713 3781 2713 
Q 3381 2713 3222 2334 
L 3222 0 
L 2319 0 
L 2319 2150 
Q 2319 2484 2181 2598 
Q 2044 2713 1806 2713 
z
" transform="scale(0.015625)"/>
       <path id="Roboto-Bold-6f" d="M 206 1722 
Q 206 2459 625 2951 
Q 1044 3444 1806 3444 
Q 2578 3444 2993 2951 
Q 3409 2459 3409 1722 
L 3409 1656 
Q 3409 919 2993 428 
Q 2578 -63 1813 -63 
Q 1053 -63 636 415 
Q 219 894 206 1616 
L 206 1722 
z
M 1113 1656 
Q 1113 1244 1270 955 
Q 1428 666 1813 666 
Q 2191 666 2348 953 
Q 2506 1241 2506 1722 
Q 2506 2125 2348 2420 
Q 2191 2716 1806 2716 
Q 1425 2716 1269 2422 
Q 1113 2128 1113 1656 
z
" transform="scale(0.015625)"/>
      </defs>
      <use xlink:href="#Roboto-Bold-50"/>
      <use xlink:href="#Roboto-Bold-4d" x="64.550781"/>
      <use xlink:href="#Roboto-Bold-46" x="152.148438"/>
      <use xlink:href="#Roboto-Bold-20" x="206.982422"/>
      <use xlink:href="#Roboto-Bold-5b" x="231.884766"/>
      <use xlink:href="#Roboto-Bold-6b" x="259.716797"/>
      <use xlink:href="#Roboto-Bold-63" x="313.134766"/>
      <use xlink:href="#Roboto-Bold-61" x="365.332031"/>
      <use xlink:href="#Roboto-Bold-6c" x="418.945312"/>
      <use xlink:href="#Roboto-Bold-2f" x="445.458984"/>
      <use xlink:href="#Roboto-Bold-6d" x="482.861328"/>
      <use xlink:href="#Roboto-Bold-6f" x="569.433594"/>
      <use xlink:href="#Roboto-Bold-6c" x="625.976562"/>
      <use xlink:href="#Roboto-Bold-5d" x="652.490234"/>
     </g>
    </g>
   </g>
   <g id="line2d_17">
    <path d="M 104.623544 -1 
L 106.189706 10.167623 
L 107.994197 21.591014 
L 115.813658 67.659159 
L 118.821143 84.725342 
L 121.828628 100.525763 
L 129.046592 136.581477 
L 132.655574 153.687152 
L 135.061562 164.143174 
L 138.069047 176.104008 
L 141.076532 187.059203 
L 144.084017 197.150717 
L 147.091502 206.382663 
L 149.497489 213.149455 
L 151.903477 219.371878 
L 154.309465 225.041885 
L 156.715453 230.152868 
L 159.121441 234.727922 
L 161.527429 238.821921 
L 163.933417 242.493192 
L 166.339405 245.77683 
L 168.745393 248.680599 
L 171.151381 251.196572 
L 173.557369 253.319469 
L 175.963357 255.066821 
L 178.369345 256.486624 
L 180.775333 257.639821 
L 183.181321 258.569541 
L 185.587309 259.286288 
L 187.993297 259.781424 
L 190.399285 260.049151 
L 192.805273 260.092521 
L 195.211261 259.914555 
L 197.617249 259.510677 
L 200.023237 258.867933 
L 202.429225 257.968279 
L 204.835213 256.798301 
L 207.241201 255.363795 
L 210.248686 253.248735 
L 213.857668 250.365835 
L 219.872638 245.160343 
L 224.083117 241.627181 
L 227.692099 238.879872 
L 231.301081 236.391731 
L 234.910063 234.170083 
L 238.519045 232.228737 
L 242.729524 230.243188 
L 247.5415 228.256345 
L 252.954973 226.040793 
L 257.165452 224.023927 
L 267.390901 218.950629 
L 273.405871 216.000056 
L 280.022338 212.680228 
L 283.63132 211.166603 
L 295.66126 206.393206 
L 300.473236 204.479543 
L 307.089703 201.970914 
L 309.495691 200.773476 
L 311.901679 199.313763 
L 314.909164 197.181148 
L 319.72114 193.449436 
L 322.728625 190.929933 
L 325.134613 188.669626 
L 327.540601 186.124502 
L 330.548086 182.574035 
L 334.157068 177.918193 
L 337.164553 173.718918 
L 339.570541 169.998571 
L 341.976529 165.793448 
L 344.382517 161.077039 
L 347.991498 153.391281 
L 352.201977 143.984715 
L 355.209462 136.76404 
L 358.818444 127.401759 
L 368.442396 101.330893 
L 371.449881 92.338499 
L 376.261857 77.760346 
L 381.67533 62.401838 
L 382.878324 58.180145 
L 384.081318 53.315334 
L 385.284312 47.684964 
L 386.487306 41.192346 
L 387.6903 33.761828 
L 388.893294 25.333523 
L 390.697785 10.715801 
L 391.960662 -1 
L 391.960662 -1 
" clip-path="url(#p2f73f3d039)" style="fill: none; stroke: #f99752; stroke-width: 2.5; stroke-linecap: square"/>
   </g>
   <g id="patch_3">
    <path d="M 47.243 299.536 
L 47.243 16.74 
" style="fill: none; stroke: #c2c1c1; stroke-width: 0.8; stroke-linejoin: miter; stroke-linecap: square"/>
   </g>
   <g id="patch_4">
    <path d="M 447.84 299.536 
L 447.84 16.74 
" style="fill: none; stroke: #c2c1c1; stroke-width: 0.8; stroke-linejoin: miter; stroke-linecap: square"/>
   </g>
   <g id="patch_5">
    <path d="M 47.243 299.536 
L 447.84 299.536 
" style="fill: none; stroke: #c2c1c1; stroke-width: 0.8; stroke-linejoin: miter; stroke-linecap: square"/>
   </g>
   <g id="patch_6">
    <path d="M 47.243 16.74 
L 447.84 16.74 
" style="fill: none; stroke: #c2c1c1; stroke-width: 0.8; stroke-linejoin: miter; stroke-linecap: square"/>
   </g>
   <g id="legend_1">
    <g id="line2d_18">
     <path d="M 207.46525 32.34 
L 219.46525 32.34 
L 231.46525 32.34 
" style="fill: none; stroke: #1e2e79; stroke-width: 2.5; stroke-linecap: square"/>
    </g>
    <g id="text_16">
     <!-- Reduced -->
     <g transform="translate(241.06525 36.54) scale(0.12 -0.12)">
      <defs>
       <path id="Roboto-Regular-52" d="M 3188 0 
L 2200 1844 
L 1131 1844 
L 1131 0 
L 528 0 
L 528 4550 
L 2034 4550 
Q 2800 4550 3214 4200 
Q 3628 3850 3628 3184 
Q 3628 2759 3398 2442 
Q 3169 2125 2763 1969 
L 3831 38 
L 3831 0 
L 3188 0 
z
M 1131 4056 
L 1131 2334 
L 2053 2334 
Q 2538 2334 2783 2582 
Q 3028 2831 3028 3184 
Q 3028 3578 2792 3817 
Q 2556 4056 2034 4056 
L 1131 4056 
z
" transform="scale(0.015625)"/>
       <path id="Roboto-Regular-65" d="M 3116 591 
Q 2950 341 2647 139 
Q 2344 -63 1844 -63 
Q 1138 -63 714 396 
Q 291 856 291 1572 
L 291 1703 
Q 291 2256 502 2645 
Q 713 3034 1050 3239 
Q 1388 3444 1769 3444 
Q 2494 3444 2826 2970 
Q 3159 2497 3159 1788 
L 3159 1528 
L 872 1528 
Q 884 1063 1148 736 
Q 1413 409 1875 409 
Q 2181 409 2393 534 
Q 2606 659 2766 869 
L 3116 591 
z
M 1769 2969 
Q 1425 2969 1187 2719 
Q 950 2469 891 2000 
L 2581 2000 
L 2581 2044 
Q 2559 2381 2386 2675 
Q 2213 2969 1769 2969 
z
" transform="scale(0.015625)"/>
       <path id="Roboto-Regular-64" d="M 2622 0 
L 2594 363 
Q 2247 -63 1628 -63 
Q 1034 -63 668 418 
Q 303 900 297 1628 
L 297 1719 
Q 297 2494 664 2969 
Q 1031 3444 1634 3444 
Q 2231 3444 2572 3044 
L 2572 4800 
L 3153 4800 
L 3153 0 
L 2622 0 
z
M 878 1653 
Q 878 1150 1090 789 
Q 1303 428 1772 428 
Q 2309 428 2572 919 
L 2572 2475 
Q 2313 2956 1778 2956 
Q 1306 2956 1092 2589 
Q 878 2222 878 1719 
L 878 1653 
z
" transform="scale(0.015625)"/>
       <path id="Roboto-Regular-75" d="M 2538 0 
L 2525 334 
Q 2194 -63 1538 -63 
Q 1041 -63 734 231 
Q 428 525 428 1200 
L 428 3381 
L 1006 3381 
L 1006 1194 
Q 1006 738 1198 583 
Q 1391 428 1628 428 
Q 2281 428 2509 919 
L 2509 3381 
L 3091 3381 
L 3091 0 
L 2538 0 
z
" transform="scale(0.015625)"/>
       <path id="Roboto-Regular-63" d="M 1794 413 
Q 2103 413 2336 597 
Q 2569 781 2591 1069 
L 3141 1069 
Q 3119 616 2725 276 
Q 2331 -63 1794 -63 
Q 1031 -63 661 440 
Q 291 944 291 1625 
L 291 1756 
Q 291 2438 661 2941 
Q 1031 3444 1794 3444 
Q 2388 3444 2753 3092 
Q 3119 2741 3141 2219 
L 2591 2219 
Q 2569 2531 2355 2750 
Q 2141 2969 1794 2969 
Q 1438 2969 1236 2787 
Q 1034 2606 951 2328 
Q 869 2050 869 1756 
L 869 1625 
Q 869 1328 950 1050 
Q 1031 772 1232 592 
Q 1434 413 1794 413 
z
" transform="scale(0.015625)"/>
      </defs>
      <use xlink:href="#Roboto-Regular-52"/>
      <use xlink:href="#Roboto-Regular-65" x="61.621094"/>
      <use xlink:href="#Roboto-Regular-64" x="114.648438"/>
      <use xlink:href="#Roboto-Regular-75" x="171.044922"/>
      <use xlink:href="#Roboto-Regular-63" x="226.171875"/>
      <use xlink:href="#Roboto-Regular-65" x="278.515625"/>
      <use xlink:href="#Roboto-Regular-64" x="331.542969"/>
     </g>
    </g>
    <g id="line2d_19">
     <path d="M 207.46525 49.7775 
L 219.46525 49.7775 
L 231.46525 49.7775 
" style="fill: none; stroke: #ec4067; stroke-width: 2.5; stroke-linecap: square"/>
    </g>
    <g id="text_17">
     <!-- Oxidized -->
     <g transform="translate(241.06525 53.9775) scale(0.12 -0.12)">
      <defs>
       <path id="Roboto-Regular-4f" d="M 4031 2131 
Q 4031 1106 3534 521 
Q 3038 -63 2206 -63 
Q 1397 -63 884 521 
Q 372 1106 372 2131 
L 372 2419 
Q 372 3441 881 4027 
Q 1391 4613 2200 4613 
Q 3025 4613 3523 4036 
Q 4022 3459 4031 2456 
L 4031 2131 
z
M 3434 2425 
Q 3434 3238 3109 3669 
Q 2784 4100 2200 4100 
Q 1641 4100 1305 3669 
Q 969 3238 969 2425 
L 969 2131 
Q 969 1313 1308 880 
Q 1647 447 2206 447 
Q 2794 447 3114 880 
Q 3434 1313 3434 2131 
L 3434 2425 
z
" transform="scale(0.015625)"/>
       <path id="Roboto-Regular-78" d="M 831 3381 
L 1572 2150 
L 2322 3381 
L 3000 3381 
L 1894 1713 
L 3034 0 
L 2366 0 
L 1584 1269 
L 803 0 
L 131 0 
L 1269 1713 
L 166 3381 
L 831 3381 
z
" transform="scale(0.015625)"/>
       <path id="Roboto-Regular-69" d="M 444 4278 
Q 444 4419 530 4516 
Q 616 4613 784 4613 
Q 950 4613 1039 4516 
Q 1128 4419 1128 4278 
Q 1128 4144 1039 4048 
Q 950 3953 784 3953 
Q 616 3953 530 4048 
Q 444 4144 444 4278 
z
M 1069 3381 
L 1069 0 
L 488 0 
L 488 3381 
L 1069 3381 
z
" transform="scale(0.015625)"/>
       <path id="Roboto-Regular-7a" d="M 303 2903 
L 303 3381 
L 2869 3381 
L 2869 2972 
L 988 475 
L 2959 475 
L 2959 0 
L 278 0 
L 278 425 
L 2141 2903 
L 303 2903 
z
" transform="scale(0.015625)"/>
      </defs>
      <use xlink:href="#Roboto-Regular-4f"/>
      <use xlink:href="#Roboto-Regular-78" x="68.798828"/>
      <use xlink:href="#Roboto-Regular-69" x="118.408203"/>
      <use xlink:href="#Roboto-Regular-64" x="142.724609"/>
      <use xlink:href="#Roboto-Regular-69" x="199.121094"/>
      <use xlink:href="#Roboto-Regular-7a" x="223.4375"/>
      <use xlink:href="#Roboto-Regular-65" x="273.046875"/>
      <use xlink:href="#Roboto-Regular-64" x="326.074219"/>
     </g>
    </g>
    <g id="line2d_20">
     <path d="M 207.46525 67.84125 
L 219.46525 67.84125 
L 231.46525 67.84125 
" style="fill: none; stroke: #f99752; stroke-width: 2.5; stroke-linecap: square"/>
    </g>
    <g id="text_18">
     <!-- Cu(I) -->
     <g transform="translate(241.06525 72.04125) scale(0.12 -0.12)">
      <defs>
       <path id="Roboto-Regular-43" d="M 3275 1447 
L 3875 1447 
Q 3806 800 3387 368 
Q 2969 -63 2150 -63 
Q 1356 -63 870 504 
Q 384 1072 375 2013 
L 375 2500 
Q 375 3456 867 4034 
Q 1359 4613 2203 4613 
Q 2975 4613 3390 4188 
Q 3806 3763 3875 3091 
L 3275 3091 
Q 3206 3566 2968 3842 
Q 2731 4119 2203 4119 
Q 1600 4119 1287 3675 
Q 975 3231 975 2506 
L 975 2047 
Q 975 1375 1259 901 
Q 1544 428 2150 428 
Q 2725 428 2961 697 
Q 3197 966 3275 1447 
z
" transform="scale(0.015625)"/>
       <path id="Roboto-Regular-28" d="M 419 1850 
Q 419 2756 678 3434 
Q 938 4113 1294 4541 
Q 1650 4969 1947 5134 
L 2069 4753 
Q 1700 4475 1348 3761 
Q 997 3047 997 1813 
Q 997 625 1348 -97 
Q 1700 -819 2069 -1119 
L 1947 -1469 
Q 1650 -1306 1294 -878 
Q 938 -450 678 226 
Q 419 903 419 1850 
z
" transform="scale(0.015625)"/>
       <path id="Roboto-Regular-49" d="M 1175 4550 
L 1175 0 
L 572 0 
L 572 4550 
L 1175 4550 
z
" transform="scale(0.015625)"/>
       <path id="Roboto-Regular-29" d="M 1772 1819 
Q 1772 906 1512 228 
Q 1253 -450 895 -878 
Q 538 -1306 244 -1469 
L 122 -1119 
Q 488 -841 841 -109 
Q 1194 622 1194 1856 
Q 1194 2647 1019 3236 
Q 844 3825 594 4212 
Q 344 4600 122 4781 
L 244 5134 
Q 538 4969 895 4541 
Q 1253 4113 1512 3436 
Q 1772 2759 1772 1819 
z
" transform="scale(0.015625)"/>
      </defs>
      <use xlink:href="#Roboto-Regular-43"/>
      <use xlink:href="#Roboto-Regular-75" x="65.087891"/>
      <use xlink:href="#Roboto-Regular-28" x="120.214844"/>
      <use xlink:href="#Roboto-Regular-49" x="154.443359"/>
      <use xlink:href="#Roboto-Regular-29" x="181.640625"/>
     </g>
    </g>
   </g>
  </g>
 </g>
 <defs>
  <clipPath id="p2f73f3d039">
   <rect x="47.243" y="16.74" width="400.597" height="282.796"/>
  </clipPath>
 </defs>
</svg>
