<?xml version="1.0" encoding="utf-8" standalone="no"?>
<!DOCTYPE svg PUBLIC "-//W3C//DTD SVG 1.1//EN"
  "http://www.w3.org/Graphics/SVG/1.1/DTD/svg11.dtd">
<svg xmlns:xlink="http://www.w3.org/1999/xlink" width="460.8pt" height="345.6pt" viewBox="0 0 460.8 345.6" xmlns="http://www.w3.org/2000/svg" version="1.1">
 <metadata>
  <rdf:RDF xmlns:dc="http://purl.org/dc/elements/1.1/" xmlns:cc="http://creativecommons.org/ns#" xmlns:rdf="http://www.w3.org/1999/02/22-rdf-syntax-ns#">
   <cc:Work>
    <dc:type rdf:resource="http://purl.org/dc/dcmitype/StillImage"/>
    <dc:date>2024-03-10T22:07:27.474321</dc:date>
    <dc:format>image/svg+xml</dc:format>
    <dc:creator>
     <cc:Agent>
      <dc:title>Matplotlib v3.8.2, https://matplotlib.org/</dc:title>
     </cc:Agent>
    </dc:creator>
   </cc:Work>
  </rdf:RDF>
 </metadata>
 <defs>
  <style type="text/css">*{stroke-linejoin: round; stroke-linecap: butt}</style>
 </defs>
 <g id="figure_1">
  <g id="patch_1">
   <path d="M 0 345.6 
L 460.8 345.6 
L 460.8 0 
L 0 0 
z
" style="fill: #ffffff"/>
  </g>
  <g id="axes_1">
   <g id="patch_2">
    <path d="M 46.64 303.64 
L 450 303.64 
L 450 10.8 
L 46.64 10.8 
z
" style="fill: #ffffff"/>
   </g>
   <g id="line2d_1">
    <path d="M 46.64 190.036288 
L 450 190.036288 
" clip-path="url(#pff13b2d67c)" style="fill: none; stroke-dasharray: 1.75,2.8875; stroke-dashoffset: 0; stroke: #c0c0c0; stroke-width: 1.75"/>
   </g>
   <g id="line2d_2">
    <path d="M 46.64 262.057349 
L 49.062583 265.452986 
L 51.081401 267.931211 
L 53.10022 270.083292 
L 55.119039 271.904242 
L 57.137858 273.390098 
L 58.752913 274.335438 
L 60.367968 275.06317 
L 61.983023 275.572425 
L 63.598078 275.862621 
L 65.213133 275.933446 
L 66.828188 275.784843 
L 68.443243 275.416989 
L 70.058298 274.830283 
L 71.673353 274.025334 
L 73.288408 273.002944 
L 75.307227 271.420699 
L 77.326046 269.502561 
L 79.344865 267.251248 
L 81.363684 264.669898 
L 83.382503 261.762121 
L 85.805085 257.847874 
L 88.227668 253.47855 
L 90.65025 248.665895 
L 93.476597 242.513845 
L 96.302943 235.826723 
L 99.936817 226.590325 
L 105.993273 211.028983 
L 107.608328 207.474103 
L 108.81962 205.210595 
L 110.030911 203.406119 
L 110.838438 202.503653 
L 111.645966 201.865559 
L 112.453493 201.503283 
L 113.261021 201.418682 
L 114.068549 201.60387 
L 114.876076 202.042241 
L 115.683604 202.710422 
L 116.894895 204.082417 
L 118.106186 205.809503 
L 119.721241 208.50316 
L 122.143824 213.022384 
L 131.43039 230.811519 
L 135.468028 237.874922 
L 139.505666 244.451358 
L 143.13954 249.957144 
L 146.36965 254.494999 
L 149.59976 258.640213 
L 152.426106 261.883018 
L 154.848689 264.328757 
L 157.271271 266.425524 
L 159.29009 267.880164 
L 161.308909 269.04895 
L 163.327728 269.916184 
L 164.942783 270.384243 
L 166.557838 270.64614 
L 168.172893 270.698198 
L 169.787948 270.538073 
L 171.403003 270.164756 
L 173.018058 269.578566 
L 174.633113 268.781148 
L 176.248168 267.775478 
L 178.266987 266.232232 
L 180.285806 264.381809 
L 182.304625 262.238899 
L 184.727207 259.30685 
L 187.14979 256.016696 
L 189.976136 251.783063 
L 193.206246 246.516667 
L 197.243884 239.464175 
L 202.896577 229.084395 
L 215.009489 206.242984 
L 224.296056 188.885596 
L 228.333694 181.755027 
L 231.563804 176.455038 
L 234.39015 172.221494 
L 236.812733 168.944222 
L 239.235315 166.013364 
L 241.657898 163.429645 
L 244.08048 161.177533 
L 246.503063 159.230376 
L 248.925646 157.55551 
L 251.751992 155.89948 
L 254.578338 154.514666 
L 257.404685 153.358361 
L 260.634795 152.286264 
L 263.461141 151.572024 
L 265.883724 151.158325 
L 268.306306 150.979533 
L 270.325125 151.058392 
L 272.343944 151.391393 
L 273.958999 151.869374 
L 275.574054 152.55454 
L 277.189109 153.457567 
L 278.804164 154.580454 
L 280.822983 156.280771 
L 282.841802 158.27738 
L 285.264384 160.990431 
L 288.494494 164.967667 
L 297.377297 176.144907 
L 300.607407 179.741654 
L 303.433754 182.524352 
L 305.856336 184.596911 
L 308.278919 186.356212 
L 310.297738 187.570982 
L 312.316557 188.549685 
L 314.335375 189.286592 
L 316.354194 189.776411 
L 318.373013 190.013589 
L 320.391832 189.99184 
L 322.410651 189.703979 
L 324.429469 189.142068 
L 326.448288 188.297832 
L 328.467107 187.163258 
L 330.485926 185.731277 
L 332.504745 183.996406 
L 334.523564 181.955274 
L 336.542382 179.60694 
L 338.561201 176.952987 
L 340.983784 173.370537 
L 343.406366 169.364314 
L 345.828949 164.947612 
L 348.655295 159.29555 
L 351.481642 153.128817 
L 354.711752 145.486057 
L 357.941862 137.270073 
L 362.383263 125.309996 
L 366.824665 113.456795 
L 368.843483 108.580845 
L 370.458539 105.117841 
L 372.073594 102.151181 
L 373.284885 100.291783 
L 374.496176 98.758843 
L 375.707467 97.549723 
L 376.918759 96.652382 
L 378.13005 96.050976 
L 379.341341 95.731694 
L 380.552633 95.687465 
L 381.763924 95.920551 
L 382.975215 96.442604 
L 384.186507 97.272136 
L 385.397798 98.429847 
L 386.609089 99.932686 
L 387.82038 101.788049 
L 389.031672 103.989626 
L 390.646727 107.424762 
L 392.665546 112.39596 
L 395.088128 119.069826 
L 399.125766 131.021105 
L 407.201041 154.992896 
L 414.872553 176.924418 
L 426.581702 209.784 
L 431.426867 222.788752 
L 435.464505 232.994995 
L 438.694615 240.59851 
L 441.520961 246.764352 
L 444.347307 252.422388 
L 446.76989 256.836331 
L 449.192472 260.825273 
L 450 262.057349 
L 450 262.057349 
" clip-path="url(#pff13b2d67c)" style="fill: none; stroke: #1e2e79; stroke-width: 2.5; stroke-linecap: square"/>
   </g>
   <g id="line2d_3">
    <path d="M 46.64 227.587452 
L 48.658819 230.190517 
L 50.677638 232.453841 
L 52.696456 234.37458 
L 54.715275 235.950801 
L 56.33033 236.962904 
L 57.945385 237.7534 
L 59.56044 238.322129 
L 61.175495 238.669065 
L 62.790551 238.794293 
L 64.405606 238.697987 
L 66.020661 238.38041 
L 67.635716 237.841927 
L 69.250771 237.083027 
L 70.865826 236.104364 
L 72.480881 234.906801 
L 74.4997 233.103765 
L 76.518519 230.963399 
L 78.537337 228.489597 
L 80.556156 225.687423 
L 82.978739 221.900552 
L 85.401321 217.664443 
L 87.823904 212.997304 
L 90.65025 207.038351 
L 93.476597 200.569921 
L 96.706707 192.628668 
L 100.744344 182.047736 
L 110.030911 157.318563 
L 111.645966 153.734712 
L 112.857257 151.469757 
L 114.068549 149.706489 
L 114.876076 148.875772 
L 115.683604 148.364097 
L 116.491131 148.201256 
L 117.298659 148.406632 
L 118.106186 148.986612 
L 118.913714 149.933704 
L 119.721241 151.227618 
L 120.932533 153.750454 
L 122.143824 156.857817 
L 123.758879 161.682487 
L 126.181461 169.837627 
L 130.622863 185.871902 
L 135.871792 204.545786 
L 139.505666 216.66227 
L 142.735776 226.69949 
L 145.965886 235.979007 
L 148.792232 243.448615 
L 151.618579 250.297344 
L 154.444925 256.517698 
L 156.867508 261.346089 
L 159.29009 265.708103 
L 161.712673 269.602342 
L 164.135255 273.027165 
L 166.154074 275.521014 
L 168.172893 277.685632 
L 170.191712 279.518879 
L 172.210531 281.018215 
L 173.825586 281.975335 
L 175.440641 282.715315 
L 177.055696 283.236503 
L 178.670751 283.537248 
L 180.285806 283.615953 
L 181.900861 283.471135 
L 183.515916 283.101495 
L 185.130971 282.505984 
L 186.746026 281.683872 
L 188.361081 280.634823 
L 189.976136 279.358974 
L 191.994955 277.44634 
L 194.013774 275.183273 
L 196.032593 272.574499 
L 198.051411 269.627049 
L 200.473994 265.657059 
L 202.896577 261.236892 
L 205.722923 255.553637 
L 208.549269 249.367929 
L 212.183143 240.819577 
L 217.028308 228.767476 
L 225.507347 207.60559 
L 230.352513 196.163211 
L 236.408969 182.466053 
L 249.733173 153.00298 
L 256.597157 138.340423 
L 262.24985 126.730074 
L 265.47996 120.5482 
L 267.498779 117.104576 
L 269.113834 114.765129 
L 270.325125 113.361994 
L 271.536416 112.353396 
L 272.343944 111.943529 
L 273.151471 111.771975 
L 273.958999 111.858685 
L 274.766527 112.217502 
L 275.574054 112.854478 
L 276.381582 113.766936 
L 277.189109 114.943505 
L 278.4004 117.160193 
L 279.611692 119.839765 
L 281.226747 123.957977 
L 283.649329 130.841093 
L 290.513313 150.817986 
L 293.33966 158.261055 
L 295.762242 164.088779 
L 298.184825 169.364571 
L 300.607407 174.065012 
L 302.626226 177.53144 
L 304.645045 180.581503 
L 306.663864 183.210608 
L 308.682683 185.415537 
L 310.297738 186.872779 
L 311.912793 188.057055 
L 313.527848 188.968744 
L 315.142903 189.608942 
L 316.757958 189.979521 
L 318.373013 190.083183 
L 319.988068 189.923502 
L 321.603123 189.504951 
L 323.218178 188.832907 
L 324.833233 187.913631 
L 326.448288 186.754229 
L 328.467107 184.979356 
L 330.485926 182.858437 
L 332.504745 180.409479 
L 334.927327 177.064075 
L 337.34991 173.305605 
L 339.772492 169.16481 
L 342.598839 163.886326 
L 345.425185 158.155504 
L 348.655295 151.068918 
L 351.885405 143.392332 
L 354.711752 136.144671 
L 357.538098 128.333438 
L 360.364444 119.876 
L 363.190791 110.682089 
L 366.017137 100.662456 
L 368.843483 89.735696 
L 371.66983 77.834987 
L 374.496176 64.928008 
L 378.13005 47.076121 
L 380.956396 33.484892 
L 382.167688 28.712132 
L 382.975215 26.297671 
L 383.782743 24.719841 
L 384.186507 24.289728 
L 384.59027 24.110909 
L 384.994034 24.183076 
L 385.397798 24.49831 
L 385.801562 25.041953 
L 386.609089 26.731505 
L 387.416617 29.062591 
L 388.627908 33.351159 
L 391.05049 43.149549 
L 395.895656 62.891421 
L 401.548348 84.742301 
L 415.276316 136.774308 
L 419.717718 152.497661 
L 423.351592 164.603916 
L 426.985465 175.963177 
L 430.215576 185.400417 
L 433.445686 194.185401 
L 436.675796 202.282844 
L 439.502142 208.77334 
L 442.328488 214.680705 
L 444.751071 219.260884 
L 447.173654 223.380056 
L 449.596236 227.026394 
L 450 227.587452 
L 450 227.587452 
" clip-path="url(#pff13b2d67c)" style="fill: none; stroke: #ec4067; stroke-width: 2.5; stroke-linecap: square"/>
   </g>
   <g id="matplotlib.axis_1">
    <g id="xtick_1">
     <g id="line2d_4">
      <defs>
       <path id="m82f2ee2b50" d="M 0 0 
L 0 3.5 
" style="stroke: #000000; stroke-width: 0.8"/>
      </defs>
      <g>
       <use xlink:href="#m82f2ee2b50" x="46.64" y="303.64" style="stroke: #000000; stroke-width: 0.8"/>
      </g>
     </g>
     <g id="text_1">
      <!-- −180 -->
      <g transform="translate(32.906406 318.238437) scale(0.1 -0.1)">
       <defs>
        <path id="DejaVuSans-2212" d="M 678 2272 
L 4684 2272 
L 4684 1741 
L 678 1741 
L 678 2272 
z
" transform="scale(0.015625)"/>
        <path id="DejaVuSans-31" d="M 794 531 
L 1825 531 
L 1825 4091 
L 703 3866 
L 703 4441 
L 1819 4666 
L 2450 4666 
L 2450 531 
L 3481 531 
L 3481 0 
L 794 0 
L 794 531 
z
" transform="scale(0.015625)"/>
        <path id="DejaVuSans-38" d="M 2034 2216 
Q 1584 2216 1326 1975 
Q 1069 1734 1069 1313 
Q 1069 891 1326 650 
Q 1584 409 2034 409 
Q 2484 409 2743 651 
Q 3003 894 3003 1313 
Q 3003 1734 2745 1975 
Q 2488 2216 2034 2216 
z
M 1403 2484 
Q 997 2584 770 2862 
Q 544 3141 544 3541 
Q 544 4100 942 4425 
Q 1341 4750 2034 4750 
Q 2731 4750 3128 4425 
Q 3525 4100 3525 3541 
Q 3525 3141 3298 2862 
Q 3072 2584 2669 2484 
Q 3125 2378 3379 2068 
Q 3634 1759 3634 1313 
Q 3634 634 3220 271 
Q 2806 -91 2034 -91 
Q 1263 -91 848 271 
Q 434 634 434 1313 
Q 434 1759 690 2068 
Q 947 2378 1403 2484 
z
M 1172 3481 
Q 1172 3119 1398 2916 
Q 1625 2713 2034 2713 
Q 2441 2713 2670 2916 
Q 2900 3119 2900 3481 
Q 2900 3844 2670 4047 
Q 2441 4250 2034 4250 
Q 1625 4250 1398 4047 
Q 1172 3844 1172 3481 
z
" transform="scale(0.015625)"/>
        <path id="DejaVuSans-30" d="M 2034 4250 
Q 1547 4250 1301 3770 
Q 1056 3291 1056 2328 
Q 1056 1369 1301 889 
Q 1547 409 2034 409 
Q 2525 409 2770 889 
Q 3016 1369 3016 2328 
Q 3016 3291 2770 3770 
Q 2525 4250 2034 4250 
z
M 2034 4750 
Q 2819 4750 3233 4129 
Q 3647 3509 3647 2328 
Q 3647 1150 3233 529 
Q 2819 -91 2034 -91 
Q 1250 -91 836 529 
Q 422 1150 422 2328 
Q 422 3509 836 4129 
Q 1250 4750 2034 4750 
z
" transform="scale(0.015625)"/>
       </defs>
       <use xlink:href="#DejaVuSans-2212"/>
       <use xlink:href="#DejaVuSans-31" x="83.789062"/>
       <use xlink:href="#DejaVuSans-38" x="147.412109"/>
       <use xlink:href="#DejaVuSans-30" x="211.035156"/>
      </g>
     </g>
    </g>
    <g id="xtick_2">
     <g id="line2d_5">
      <g>
       <use xlink:href="#m82f2ee2b50" x="113.866667" y="303.64" style="stroke: #000000; stroke-width: 0.8"/>
      </g>
     </g>
     <g id="text_2">
      <!-- −120 -->
      <g transform="translate(100.133073 318.238437) scale(0.1 -0.1)">
       <defs>
        <path id="DejaVuSans-32" d="M 1228 531 
L 3431 531 
L 3431 0 
L 469 0 
L 469 531 
Q 828 903 1448 1529 
Q 2069 2156 2228 2338 
Q 2531 2678 2651 2914 
Q 2772 3150 2772 3378 
Q 2772 3750 2511 3984 
Q 2250 4219 1831 4219 
Q 1534 4219 1204 4116 
Q 875 4013 500 3803 
L 500 4441 
Q 881 4594 1212 4672 
Q 1544 4750 1819 4750 
Q 2544 4750 2975 4387 
Q 3406 4025 3406 3419 
Q 3406 3131 3298 2873 
Q 3191 2616 2906 2266 
Q 2828 2175 2409 1742 
Q 1991 1309 1228 531 
z
" transform="scale(0.015625)"/>
       </defs>
       <use xlink:href="#DejaVuSans-2212"/>
       <use xlink:href="#DejaVuSans-31" x="83.789062"/>
       <use xlink:href="#DejaVuSans-32" x="147.412109"/>
       <use xlink:href="#DejaVuSans-30" x="211.035156"/>
      </g>
     </g>
    </g>
    <g id="xtick_3">
     <g id="line2d_6">
      <g>
       <use xlink:href="#m82f2ee2b50" x="181.093333" y="303.64" style="stroke: #000000; stroke-width: 0.8"/>
      </g>
     </g>
     <g id="text_3">
      <!-- −60 -->
      <g transform="translate(170.54099 318.238437) scale(0.1 -0.1)">
       <defs>
        <path id="DejaVuSans-36" d="M 2113 2584 
Q 1688 2584 1439 2293 
Q 1191 2003 1191 1497 
Q 1191 994 1439 701 
Q 1688 409 2113 409 
Q 2538 409 2786 701 
Q 3034 994 3034 1497 
Q 3034 2003 2786 2293 
Q 2538 2584 2113 2584 
z
M 3366 4563 
L 3366 3988 
Q 3128 4100 2886 4159 
Q 2644 4219 2406 4219 
Q 1781 4219 1451 3797 
Q 1122 3375 1075 2522 
Q 1259 2794 1537 2939 
Q 1816 3084 2150 3084 
Q 2853 3084 3261 2657 
Q 3669 2231 3669 1497 
Q 3669 778 3244 343 
Q 2819 -91 2113 -91 
Q 1303 -91 875 529 
Q 447 1150 447 2328 
Q 447 3434 972 4092 
Q 1497 4750 2381 4750 
Q 2619 4750 2861 4703 
Q 3103 4656 3366 4563 
z
" transform="scale(0.015625)"/>
       </defs>
       <use xlink:href="#DejaVuSans-2212"/>
       <use xlink:href="#DejaVuSans-36" x="83.789062"/>
       <use xlink:href="#DejaVuSans-30" x="147.412109"/>
      </g>
     </g>
    </g>
    <g id="xtick_4">
     <g id="line2d_7">
      <g>
       <use xlink:href="#m82f2ee2b50" x="248.32" y="303.64" style="stroke: #000000; stroke-width: 0.8"/>
      </g>
     </g>
     <g id="text_4">
      <!-- 0 -->
      <g transform="translate(245.13875 318.238437) scale(0.1 -0.1)">
       <use xlink:href="#DejaVuSans-30"/>
      </g>
     </g>
    </g>
    <g id="xtick_5">
     <g id="line2d_8">
      <g>
       <use xlink:href="#m82f2ee2b50" x="315.546667" y="303.64" style="stroke: #000000; stroke-width: 0.8"/>
      </g>
     </g>
     <g id="text_5">
      <!-- 60 -->
      <g transform="translate(309.184167 318.238437) scale(0.1 -0.1)">
       <use xlink:href="#DejaVuSans-36"/>
       <use xlink:href="#DejaVuSans-30" x="63.623047"/>
      </g>
     </g>
    </g>
    <g id="xtick_6">
     <g id="line2d_9">
      <g>
       <use xlink:href="#m82f2ee2b50" x="382.773333" y="303.64" style="stroke: #000000; stroke-width: 0.8"/>
      </g>
     </g>
     <g id="text_6">
      <!-- 120 -->
      <g transform="translate(373.229583 318.238437) scale(0.1 -0.1)">
       <use xlink:href="#DejaVuSans-31"/>
       <use xlink:href="#DejaVuSans-32" x="63.623047"/>
       <use xlink:href="#DejaVuSans-30" x="127.246094"/>
      </g>
     </g>
    </g>
    <g id="xtick_7">
     <g id="line2d_10">
      <g>
       <use xlink:href="#m82f2ee2b50" x="450" y="303.64" style="stroke: #000000; stroke-width: 0.8"/>
      </g>
     </g>
     <g id="text_7">
      <!-- 180 -->
      <g transform="translate(440.45625 318.238437) scale(0.1 -0.1)">
       <use xlink:href="#DejaVuSans-31"/>
       <use xlink:href="#DejaVuSans-38" x="63.623047"/>
       <use xlink:href="#DejaVuSans-30" x="127.246094"/>
      </g>
     </g>
    </g>
    <g id="text_8">
     <!-- SER205 OG-CB-CA-N Dihedral [°] -->
     <g transform="translate(165.948906 331.916562) scale(0.1 -0.1)">
      <defs>
       <path id="DejaVuSans-53" d="M 3425 4513 
L 3425 3897 
Q 3066 4069 2747 4153 
Q 2428 4238 2131 4238 
Q 1616 4238 1336 4038 
Q 1056 3838 1056 3469 
Q 1056 3159 1242 3001 
Q 1428 2844 1947 2747 
L 2328 2669 
Q 3034 2534 3370 2195 
Q 3706 1856 3706 1288 
Q 3706 609 3251 259 
Q 2797 -91 1919 -91 
Q 1588 -91 1214 -16 
Q 841 59 441 206 
L 441 856 
Q 825 641 1194 531 
Q 1563 422 1919 422 
Q 2459 422 2753 634 
Q 3047 847 3047 1241 
Q 3047 1584 2836 1778 
Q 2625 1972 2144 2069 
L 1759 2144 
Q 1053 2284 737 2584 
Q 422 2884 422 3419 
Q 422 4038 858 4394 
Q 1294 4750 2059 4750 
Q 2388 4750 2728 4690 
Q 3069 4631 3425 4513 
z
" transform="scale(0.015625)"/>
       <path id="DejaVuSans-45" d="M 628 4666 
L 3578 4666 
L 3578 4134 
L 1259 4134 
L 1259 2753 
L 3481 2753 
L 3481 2222 
L 1259 2222 
L 1259 531 
L 3634 531 
L 3634 0 
L 628 0 
L 628 4666 
z
" transform="scale(0.015625)"/>
       <path id="DejaVuSans-52" d="M 2841 2188 
Q 3044 2119 3236 1894 
Q 3428 1669 3622 1275 
L 4263 0 
L 3584 0 
L 2988 1197 
Q 2756 1666 2539 1819 
Q 2322 1972 1947 1972 
L 1259 1972 
L 1259 0 
L 628 0 
L 628 4666 
L 2053 4666 
Q 2853 4666 3247 4331 
Q 3641 3997 3641 3322 
Q 3641 2881 3436 2590 
Q 3231 2300 2841 2188 
z
M 1259 4147 
L 1259 2491 
L 2053 2491 
Q 2509 2491 2742 2702 
Q 2975 2913 2975 3322 
Q 2975 3731 2742 3939 
Q 2509 4147 2053 4147 
L 1259 4147 
z
" transform="scale(0.015625)"/>
       <path id="DejaVuSans-35" d="M 691 4666 
L 3169 4666 
L 3169 4134 
L 1269 4134 
L 1269 2991 
Q 1406 3038 1543 3061 
Q 1681 3084 1819 3084 
Q 2600 3084 3056 2656 
Q 3513 2228 3513 1497 
Q 3513 744 3044 326 
Q 2575 -91 1722 -91 
Q 1428 -91 1123 -41 
Q 819 9 494 109 
L 494 744 
Q 775 591 1075 516 
Q 1375 441 1709 441 
Q 2250 441 2565 725 
Q 2881 1009 2881 1497 
Q 2881 1984 2565 2268 
Q 2250 2553 1709 2553 
Q 1456 2553 1204 2497 
Q 953 2441 691 2322 
L 691 4666 
z
" transform="scale(0.015625)"/>
       <path id="DejaVuSans-20" transform="scale(0.015625)"/>
       <path id="DejaVuSans-4f" d="M 2522 4238 
Q 1834 4238 1429 3725 
Q 1025 3213 1025 2328 
Q 1025 1447 1429 934 
Q 1834 422 2522 422 
Q 3209 422 3611 934 
Q 4013 1447 4013 2328 
Q 4013 3213 3611 3725 
Q 3209 4238 2522 4238 
z
M 2522 4750 
Q 3503 4750 4090 4092 
Q 4678 3434 4678 2328 
Q 4678 1225 4090 567 
Q 3503 -91 2522 -91 
Q 1538 -91 948 565 
Q 359 1222 359 2328 
Q 359 3434 948 4092 
Q 1538 4750 2522 4750 
z
" transform="scale(0.015625)"/>
       <path id="DejaVuSans-47" d="M 3809 666 
L 3809 1919 
L 2778 1919 
L 2778 2438 
L 4434 2438 
L 4434 434 
Q 4069 175 3628 42 
Q 3188 -91 2688 -91 
Q 1594 -91 976 548 
Q 359 1188 359 2328 
Q 359 3472 976 4111 
Q 1594 4750 2688 4750 
Q 3144 4750 3555 4637 
Q 3966 4525 4313 4306 
L 4313 3634 
Q 3963 3931 3569 4081 
Q 3175 4231 2741 4231 
Q 1884 4231 1454 3753 
Q 1025 3275 1025 2328 
Q 1025 1384 1454 906 
Q 1884 428 2741 428 
Q 3075 428 3337 486 
Q 3600 544 3809 666 
z
" transform="scale(0.015625)"/>
       <path id="DejaVuSans-2d" d="M 313 2009 
L 1997 2009 
L 1997 1497 
L 313 1497 
L 313 2009 
z
" transform="scale(0.015625)"/>
       <path id="DejaVuSans-43" d="M 4122 4306 
L 4122 3641 
Q 3803 3938 3442 4084 
Q 3081 4231 2675 4231 
Q 1875 4231 1450 3742 
Q 1025 3253 1025 2328 
Q 1025 1406 1450 917 
Q 1875 428 2675 428 
Q 3081 428 3442 575 
Q 3803 722 4122 1019 
L 4122 359 
Q 3791 134 3420 21 
Q 3050 -91 2638 -91 
Q 1578 -91 968 557 
Q 359 1206 359 2328 
Q 359 3453 968 4101 
Q 1578 4750 2638 4750 
Q 3056 4750 3426 4639 
Q 3797 4528 4122 4306 
z
" transform="scale(0.015625)"/>
       <path id="DejaVuSans-42" d="M 1259 2228 
L 1259 519 
L 2272 519 
Q 2781 519 3026 730 
Q 3272 941 3272 1375 
Q 3272 1813 3026 2020 
Q 2781 2228 2272 2228 
L 1259 2228 
z
M 1259 4147 
L 1259 2741 
L 2194 2741 
Q 2656 2741 2882 2914 
Q 3109 3088 3109 3444 
Q 3109 3797 2882 3972 
Q 2656 4147 2194 4147 
L 1259 4147 
z
M 628 4666 
L 2241 4666 
Q 2963 4666 3353 4366 
Q 3744 4066 3744 3513 
Q 3744 3084 3544 2831 
Q 3344 2578 2956 2516 
Q 3422 2416 3680 2098 
Q 3938 1781 3938 1306 
Q 3938 681 3513 340 
Q 3088 0 2303 0 
L 628 0 
L 628 4666 
z
" transform="scale(0.015625)"/>
       <path id="DejaVuSans-41" d="M 2188 4044 
L 1331 1722 
L 3047 1722 
L 2188 4044 
z
M 1831 4666 
L 2547 4666 
L 4325 0 
L 3669 0 
L 3244 1197 
L 1141 1197 
L 716 0 
L 50 0 
L 1831 4666 
z
" transform="scale(0.015625)"/>
       <path id="DejaVuSans-4e" d="M 628 4666 
L 1478 4666 
L 3547 763 
L 3547 4666 
L 4159 4666 
L 4159 0 
L 3309 0 
L 1241 3903 
L 1241 0 
L 628 0 
L 628 4666 
z
" transform="scale(0.015625)"/>
       <path id="DejaVuSans-44" d="M 1259 4147 
L 1259 519 
L 2022 519 
Q 2988 519 3436 956 
Q 3884 1394 3884 2338 
Q 3884 3275 3436 3711 
Q 2988 4147 2022 4147 
L 1259 4147 
z
M 628 4666 
L 1925 4666 
Q 3281 4666 3915 4102 
Q 4550 3538 4550 2338 
Q 4550 1131 3912 565 
Q 3275 0 1925 0 
L 628 0 
L 628 4666 
z
" transform="scale(0.015625)"/>
       <path id="DejaVuSans-69" d="M 603 3500 
L 1178 3500 
L 1178 0 
L 603 0 
L 603 3500 
z
M 603 4863 
L 1178 4863 
L 1178 4134 
L 603 4134 
L 603 4863 
z
" transform="scale(0.015625)"/>
       <path id="DejaVuSans-68" d="M 3513 2113 
L 3513 0 
L 2938 0 
L 2938 2094 
Q 2938 2591 2744 2837 
Q 2550 3084 2163 3084 
Q 1697 3084 1428 2787 
Q 1159 2491 1159 1978 
L 1159 0 
L 581 0 
L 581 4863 
L 1159 4863 
L 1159 2956 
Q 1366 3272 1645 3428 
Q 1925 3584 2291 3584 
Q 2894 3584 3203 3211 
Q 3513 2838 3513 2113 
z
" transform="scale(0.015625)"/>
       <path id="DejaVuSans-65" d="M 3597 1894 
L 3597 1613 
L 953 1613 
Q 991 1019 1311 708 
Q 1631 397 2203 397 
Q 2534 397 2845 478 
Q 3156 559 3463 722 
L 3463 178 
Q 3153 47 2828 -22 
Q 2503 -91 2169 -91 
Q 1331 -91 842 396 
Q 353 884 353 1716 
Q 353 2575 817 3079 
Q 1281 3584 2069 3584 
Q 2775 3584 3186 3129 
Q 3597 2675 3597 1894 
z
M 3022 2063 
Q 3016 2534 2758 2815 
Q 2500 3097 2075 3097 
Q 1594 3097 1305 2825 
Q 1016 2553 972 2059 
L 3022 2063 
z
" transform="scale(0.015625)"/>
       <path id="DejaVuSans-64" d="M 2906 2969 
L 2906 4863 
L 3481 4863 
L 3481 0 
L 2906 0 
L 2906 525 
Q 2725 213 2448 61 
Q 2172 -91 1784 -91 
Q 1150 -91 751 415 
Q 353 922 353 1747 
Q 353 2572 751 3078 
Q 1150 3584 1784 3584 
Q 2172 3584 2448 3432 
Q 2725 3281 2906 2969 
z
M 947 1747 
Q 947 1113 1208 752 
Q 1469 391 1925 391 
Q 2381 391 2643 752 
Q 2906 1113 2906 1747 
Q 2906 2381 2643 2742 
Q 2381 3103 1925 3103 
Q 1469 3103 1208 2742 
Q 947 2381 947 1747 
z
" transform="scale(0.015625)"/>
       <path id="DejaVuSans-72" d="M 2631 2963 
Q 2534 3019 2420 3045 
Q 2306 3072 2169 3072 
Q 1681 3072 1420 2755 
Q 1159 2438 1159 1844 
L 1159 0 
L 581 0 
L 581 3500 
L 1159 3500 
L 1159 2956 
Q 1341 3275 1631 3429 
Q 1922 3584 2338 3584 
Q 2397 3584 2469 3576 
Q 2541 3569 2628 3553 
L 2631 2963 
z
" transform="scale(0.015625)"/>
       <path id="DejaVuSans-61" d="M 2194 1759 
Q 1497 1759 1228 1600 
Q 959 1441 959 1056 
Q 959 750 1161 570 
Q 1363 391 1709 391 
Q 2188 391 2477 730 
Q 2766 1069 2766 1631 
L 2766 1759 
L 2194 1759 
z
M 3341 1997 
L 3341 0 
L 2766 0 
L 2766 531 
Q 2569 213 2275 61 
Q 1981 -91 1556 -91 
Q 1019 -91 701 211 
Q 384 513 384 1019 
Q 384 1609 779 1909 
Q 1175 2209 1959 2209 
L 2766 2209 
L 2766 2266 
Q 2766 2663 2505 2880 
Q 2244 3097 1772 3097 
Q 1472 3097 1187 3025 
Q 903 2953 641 2809 
L 641 3341 
Q 956 3463 1253 3523 
Q 1550 3584 1831 3584 
Q 2591 3584 2966 3190 
Q 3341 2797 3341 1997 
z
" transform="scale(0.015625)"/>
       <path id="DejaVuSans-6c" d="M 603 4863 
L 1178 4863 
L 1178 0 
L 603 0 
L 603 4863 
z
" transform="scale(0.015625)"/>
       <path id="DejaVuSans-5b" d="M 550 4863 
L 1875 4863 
L 1875 4416 
L 1125 4416 
L 1125 -397 
L 1875 -397 
L 1875 -844 
L 550 -844 
L 550 4863 
z
" transform="scale(0.015625)"/>
       <path id="DejaVuSans-b0" d="M 1600 4347 
Q 1350 4347 1178 4173 
Q 1006 4000 1006 3750 
Q 1006 3503 1178 3333 
Q 1350 3163 1600 3163 
Q 1850 3163 2022 3333 
Q 2194 3503 2194 3750 
Q 2194 3997 2020 4172 
Q 1847 4347 1600 4347 
z
M 1600 4750 
Q 1800 4750 1984 4673 
Q 2169 4597 2303 4453 
Q 2447 4313 2519 4134 
Q 2591 3956 2591 3750 
Q 2591 3338 2302 3052 
Q 2013 2766 1594 2766 
Q 1172 2766 890 3047 
Q 609 3328 609 3750 
Q 609 4169 896 4459 
Q 1184 4750 1600 4750 
z
" transform="scale(0.015625)"/>
       <path id="DejaVuSans-5d" d="M 1947 4863 
L 1947 -844 
L 622 -844 
L 622 -397 
L 1369 -397 
L 1369 4416 
L 622 4416 
L 622 4863 
L 1947 4863 
z
" transform="scale(0.015625)"/>
      </defs>
      <use xlink:href="#DejaVuSans-53"/>
      <use xlink:href="#DejaVuSans-45" x="63.476562"/>
      <use xlink:href="#DejaVuSans-52" x="126.660156"/>
      <use xlink:href="#DejaVuSans-32" x="196.142578"/>
      <use xlink:href="#DejaVuSans-30" x="259.765625"/>
      <use xlink:href="#DejaVuSans-35" x="323.388672"/>
      <use xlink:href="#DejaVuSans-20" x="387.011719"/>
      <use xlink:href="#DejaVuSans-4f" x="418.798828"/>
      <use xlink:href="#DejaVuSans-47" x="497.509766"/>
      <use xlink:href="#DejaVuSans-2d" x="575"/>
      <use xlink:href="#DejaVuSans-43" x="611.083984"/>
      <use xlink:href="#DejaVuSans-42" x="680.908203"/>
      <use xlink:href="#DejaVuSans-2d" x="749.511719"/>
      <use xlink:href="#DejaVuSans-43" x="785.595703"/>
      <use xlink:href="#DejaVuSans-41" x="855.419922"/>
      <use xlink:href="#DejaVuSans-2d" x="921.578125"/>
      <use xlink:href="#DejaVuSans-4e" x="957.662109"/>
      <use xlink:href="#DejaVuSans-20" x="1032.466797"/>
      <use xlink:href="#DejaVuSans-44" x="1064.253906"/>
      <use xlink:href="#DejaVuSans-69" x="1141.255859"/>
      <use xlink:href="#DejaVuSans-68" x="1169.039062"/>
      <use xlink:href="#DejaVuSans-65" x="1232.417969"/>
      <use xlink:href="#DejaVuSans-64" x="1293.941406"/>
      <use xlink:href="#DejaVuSans-72" x="1357.417969"/>
      <use xlink:href="#DejaVuSans-61" x="1398.53125"/>
      <use xlink:href="#DejaVuSans-6c" x="1459.810547"/>
      <use xlink:href="#DejaVuSans-20" x="1487.59375"/>
      <use xlink:href="#DejaVuSans-5b" x="1519.380859"/>
      <use xlink:href="#DejaVuSans-b0" x="1558.394531"/>
      <use xlink:href="#DejaVuSans-5d" x="1608.394531"/>
     </g>
    </g>
   </g>
   <g id="matplotlib.axis_2">
    <g id="ytick_1">
     <g id="line2d_11">
      <defs>
       <path id="m1f45253f3c" d="M 0 0 
L -3.5 0 
" style="stroke: #000000; stroke-width: 0.8"/>
      </defs>
      <g>
       <use xlink:href="#m1f45253f3c" x="46.64" y="254.894006" style="stroke: #000000; stroke-width: 0.8"/>
      </g>
     </g>
     <g id="text_9">
      <!-- −2 -->
      <g transform="translate(24.897813 258.693225) scale(0.1 -0.1)">
       <use xlink:href="#DejaVuSans-2212"/>
       <use xlink:href="#DejaVuSans-32" x="83.789062"/>
      </g>
     </g>
    </g>
    <g id="ytick_2">
     <g id="line2d_12">
      <g>
       <use xlink:href="#m1f45253f3c" x="46.64" y="190.036288" style="stroke: #000000; stroke-width: 0.8"/>
      </g>
     </g>
     <g id="text_10">
      <!-- 0 -->
      <g transform="translate(33.2775 193.835507) scale(0.1 -0.1)">
       <use xlink:href="#DejaVuSans-30"/>
      </g>
     </g>
    </g>
    <g id="ytick_3">
     <g id="line2d_13">
      <g>
       <use xlink:href="#m1f45253f3c" x="46.64" y="125.178569" style="stroke: #000000; stroke-width: 0.8"/>
      </g>
     </g>
     <g id="text_11">
      <!-- 2 -->
      <g transform="translate(33.2775 128.977788) scale(0.1 -0.1)">
       <use xlink:href="#DejaVuSans-32"/>
      </g>
     </g>
    </g>
    <g id="ytick_4">
     <g id="line2d_14">
      <g>
       <use xlink:href="#m1f45253f3c" x="46.64" y="60.320851" style="stroke: #000000; stroke-width: 0.8"/>
      </g>
     </g>
     <g id="text_12">
      <!-- 4 -->
      <g transform="translate(33.2775 64.12007) scale(0.1 -0.1)">
       <defs>
        <path id="DejaVuSans-34" d="M 2419 4116 
L 825 1625 
L 2419 1625 
L 2419 4116 
z
M 2253 4666 
L 3047 4666 
L 3047 1625 
L 3713 1625 
L 3713 1100 
L 3047 1100 
L 3047 0 
L 2419 0 
L 2419 1100 
L 313 1100 
L 313 1709 
L 2253 4666 
z
" transform="scale(0.015625)"/>
       </defs>
       <use xlink:href="#DejaVuSans-34"/>
      </g>
     </g>
    </g>
    <g id="text_13">
     <!-- PMF [kcal/mol] -->
     <g transform="translate(18.818125 194.016094) rotate(-90) scale(0.1 -0.1)">
      <defs>
       <path id="DejaVuSans-50" d="M 1259 4147 
L 1259 2394 
L 2053 2394 
Q 2494 2394 2734 2622 
Q 2975 2850 2975 3272 
Q 2975 3691 2734 3919 
Q 2494 4147 2053 4147 
L 1259 4147 
z
M 628 4666 
L 2053 4666 
Q 2838 4666 3239 4311 
Q 3641 3956 3641 3272 
Q 3641 2581 3239 2228 
Q 2838 1875 2053 1875 
L 1259 1875 
L 1259 0 
L 628 0 
L 628 4666 
z
" transform="scale(0.015625)"/>
       <path id="DejaVuSans-4d" d="M 628 4666 
L 1569 4666 
L 2759 1491 
L 3956 4666 
L 4897 4666 
L 4897 0 
L 4281 0 
L 4281 4097 
L 3078 897 
L 2444 897 
L 1241 4097 
L 1241 0 
L 628 0 
L 628 4666 
z
" transform="scale(0.015625)"/>
       <path id="DejaVuSans-46" d="M 628 4666 
L 3309 4666 
L 3309 4134 
L 1259 4134 
L 1259 2759 
L 3109 2759 
L 3109 2228 
L 1259 2228 
L 1259 0 
L 628 0 
L 628 4666 
z
" transform="scale(0.015625)"/>
       <path id="DejaVuSans-6b" d="M 581 4863 
L 1159 4863 
L 1159 1991 
L 2875 3500 
L 3609 3500 
L 1753 1863 
L 3688 0 
L 2938 0 
L 1159 1709 
L 1159 0 
L 581 0 
L 581 4863 
z
" transform="scale(0.015625)"/>
       <path id="DejaVuSans-63" d="M 3122 3366 
L 3122 2828 
Q 2878 2963 2633 3030 
Q 2388 3097 2138 3097 
Q 1578 3097 1268 2742 
Q 959 2388 959 1747 
Q 959 1106 1268 751 
Q 1578 397 2138 397 
Q 2388 397 2633 464 
Q 2878 531 3122 666 
L 3122 134 
Q 2881 22 2623 -34 
Q 2366 -91 2075 -91 
Q 1284 -91 818 406 
Q 353 903 353 1747 
Q 353 2603 823 3093 
Q 1294 3584 2113 3584 
Q 2378 3584 2631 3529 
Q 2884 3475 3122 3366 
z
" transform="scale(0.015625)"/>
       <path id="DejaVuSans-2f" d="M 1625 4666 
L 2156 4666 
L 531 -594 
L 0 -594 
L 1625 4666 
z
" transform="scale(0.015625)"/>
       <path id="DejaVuSans-6d" d="M 3328 2828 
Q 3544 3216 3844 3400 
Q 4144 3584 4550 3584 
Q 5097 3584 5394 3201 
Q 5691 2819 5691 2113 
L 5691 0 
L 5113 0 
L 5113 2094 
Q 5113 2597 4934 2840 
Q 4756 3084 4391 3084 
Q 3944 3084 3684 2787 
Q 3425 2491 3425 1978 
L 3425 0 
L 2847 0 
L 2847 2094 
Q 2847 2600 2669 2842 
Q 2491 3084 2119 3084 
Q 1678 3084 1418 2786 
Q 1159 2488 1159 1978 
L 1159 0 
L 581 0 
L 581 3500 
L 1159 3500 
L 1159 2956 
Q 1356 3278 1631 3431 
Q 1906 3584 2284 3584 
Q 2666 3584 2933 3390 
Q 3200 3197 3328 2828 
z
" transform="scale(0.015625)"/>
       <path id="DejaVuSans-6f" d="M 1959 3097 
Q 1497 3097 1228 2736 
Q 959 2375 959 1747 
Q 959 1119 1226 758 
Q 1494 397 1959 397 
Q 2419 397 2687 759 
Q 2956 1122 2956 1747 
Q 2956 2369 2687 2733 
Q 2419 3097 1959 3097 
z
M 1959 3584 
Q 2709 3584 3137 3096 
Q 3566 2609 3566 1747 
Q 3566 888 3137 398 
Q 2709 -91 1959 -91 
Q 1206 -91 779 398 
Q 353 888 353 1747 
Q 353 2609 779 3096 
Q 1206 3584 1959 3584 
z
" transform="scale(0.015625)"/>
      </defs>
      <use xlink:href="#DejaVuSans-50"/>
      <use xlink:href="#DejaVuSans-4d" x="60.302734"/>
      <use xlink:href="#DejaVuSans-46" x="146.582031"/>
      <use xlink:href="#DejaVuSans-20" x="204.101562"/>
      <use xlink:href="#DejaVuSans-5b" x="235.888672"/>
      <use xlink:href="#DejaVuSans-6b" x="274.902344"/>
      <use xlink:href="#DejaVuSans-63" x="332.8125"/>
      <use xlink:href="#DejaVuSans-61" x="387.792969"/>
      <use xlink:href="#DejaVuSans-6c" x="449.072266"/>
      <use xlink:href="#DejaVuSans-2f" x="476.855469"/>
      <use xlink:href="#DejaVuSans-6d" x="510.546875"/>
      <use xlink:href="#DejaVuSans-6f" x="607.958984"/>
      <use xlink:href="#DejaVuSans-6c" x="669.140625"/>
      <use xlink:href="#DejaVuSans-5d" x="696.923828"/>
     </g>
    </g>
   </g>
   <g id="line2d_15">
    <path d="M 46.64 237.797458 
L 49.062583 239.328146 
L 51.081401 240.356935 
L 53.10022 241.153753 
L 55.119039 241.711533 
L 57.137858 242.023259 
L 59.156677 242.081959 
L 61.175495 241.880705 
L 63.194314 241.412661 
L 65.213133 240.67115 
L 67.231952 239.649763 
L 69.250771 238.342513 
L 71.26959 236.744036 
L 73.288408 234.849853 
L 75.307227 232.656716 
L 77.326046 230.163084 
L 79.748629 226.77552 
L 82.171211 222.965168 
L 84.593794 218.752936 
L 87.42014 213.390417 
L 92.265305 203.566698 
L 94.687888 198.889178 
L 96.302943 196.190471 
L 97.514234 194.541996 
L 98.725526 193.3292 
L 99.533053 192.809649 
L 100.340581 192.547217 
L 101.148108 192.555656 
L 101.955636 192.839398 
L 102.763163 193.393077 
L 103.570691 194.202237 
L 104.781982 195.845856 
L 105.993273 197.921938 
L 107.608328 201.191504 
L 110.030911 206.749779 
L 120.528769 231.727338 
L 124.162643 239.496011 
L 127.392753 245.909607 
L 130.622863 251.877629 
L 134.256737 258.104409 
L 137.890611 263.876338 
L 141.524484 269.244595 
L 145.158358 274.219347 
L 148.388468 278.272005 
L 151.214815 281.473715 
L 153.637397 283.910577 
L 156.05998 286.016219 
L 158.078799 287.485912 
L 160.097618 288.671158 
L 161.712673 289.400361 
L 163.327728 289.924763 
L 164.942783 290.236488 
L 166.557838 290.329091 
L 168.172893 290.197552 
L 169.787948 289.838248 
L 171.403003 289.248916 
L 173.018058 288.428615 
L 174.633113 287.37769 
L 176.248168 286.097752 
L 178.266987 284.180268 
L 180.285806 281.917906 
L 182.304625 279.32221 
L 184.727207 275.788529 
L 187.14979 271.828812 
L 189.976136 266.725138 
L 193.206246 260.35411 
L 197.243884 251.815814 
L 204.511632 236.262098 
L 206.934214 231.599819 
L 208.953033 228.159949 
L 210.568088 225.783687 
L 212.183143 223.791657 
L 213.798198 222.209137 
L 215.009489 221.292161 
L 216.220781 220.597014 
L 217.432072 220.107495 
L 219.047127 219.737028 
L 220.662182 219.634476 
L 222.681001 219.789629 
L 225.103584 220.246841 
L 229.544985 221.392022 
L 233.986386 222.458427 
L 237.216496 223.009194 
L 240.042843 223.278934 
L 242.869189 223.318862 
L 245.291772 223.149207 
L 247.714354 222.773072 
L 250.136937 222.173477 
L 252.55952 221.33485 
L 254.982102 220.244374 
L 257.404685 218.893192 
L 259.827267 217.277215 
L 262.24985 215.397478 
L 264.672432 213.26014 
L 267.498779 210.45619 
L 270.325125 207.343607 
L 273.555235 203.456844 
L 277.592873 198.221466 
L 287.283203 185.443644 
L 289.705786 182.672975 
L 291.724605 180.660735 
L 293.33966 179.299945 
L 294.954715 178.202826 
L 296.56977 177.405267 
L 297.781061 177.021372 
L 298.992352 176.830373 
L 300.203644 176.835465 
L 301.414935 177.034257 
L 302.626226 177.418418 
L 304.241281 178.193883 
L 305.856336 179.226406 
L 307.875155 180.789975 
L 311.105265 183.633489 
L 315.142903 187.16272 
L 317.565485 188.998296 
L 319.584304 190.272296 
L 321.603123 191.270066 
L 323.218178 191.849831 
L 324.833233 192.223979 
L 326.448288 192.385217 
L 328.063343 192.328707 
L 329.678398 192.051597 
L 331.293453 191.552638 
L 332.908509 190.831866 
L 334.523564 189.890341 
L 336.138619 188.729903 
L 338.157437 186.975217 
L 340.176256 184.887709 
L 342.195075 182.473095 
L 344.213894 179.736815 
L 346.636476 176.035199 
L 349.059059 171.883025 
L 351.481642 167.283569 
L 353.904224 162.23756 
L 356.730571 155.784456 
L 359.556917 148.718109 
L 362.383263 141.034519 
L 365.20961 132.731345 
L 368.43972 122.491361 
L 372.073594 110.120167 
L 376.111231 96.311223 
L 377.322523 92.751088 
L 378.533814 89.91859 
L 379.341341 88.614896 
L 380.148869 87.897382 
L 380.552633 87.781451 
L 380.956396 87.833862 
L 381.36016 88.055097 
L 381.763924 88.442037 
L 382.571451 89.68413 
L 383.378979 91.477063 
L 384.59027 94.961179 
L 386.205325 100.530645 
L 394.684364 131.376457 
L 397.914474 141.72699 
L 401.144585 151.287747 
L 404.374695 160.191049 
L 408.008569 169.554977 
L 411.642442 178.321251 
L 415.276316 186.536342 
L 418.91019 194.215941 
L 422.544064 201.364491 
L 426.177938 207.985288 
L 429.408048 213.42994 
L 432.638158 218.459476 
L 435.868268 223.067614 
L 438.694615 226.743466 
L 441.520961 230.072487 
L 444.347307 233.037485 
L 446.76989 235.274599 
L 449.192472 237.217442 
L 450 237.797458 
L 450 237.797458 
" clip-path="url(#pff13b2d67c)" style="fill: none; stroke: #f99752; stroke-width: 2.5; stroke-linecap: square"/>
   </g>
   <g id="patch_3">
    <path d="M 46.64 303.64 
L 46.64 10.8 
" style="fill: none; stroke: #000000; stroke-width: 0.8; stroke-linejoin: miter; stroke-linecap: square"/>
   </g>
   <g id="patch_4">
    <path d="M 450 303.64 
L 450 10.8 
" style="fill: none; stroke: #000000; stroke-width: 0.8; stroke-linejoin: miter; stroke-linecap: square"/>
   </g>
   <g id="patch_5">
    <path d="M 46.64 303.64 
L 450 303.64 
" style="fill: none; stroke: #000000; stroke-width: 0.8; stroke-linejoin: miter; stroke-linecap: square"/>
   </g>
   <g id="patch_6">
    <path d="M 46.64 10.8 
L 450 10.8 
" style="fill: none; stroke: #000000; stroke-width: 0.8; stroke-linejoin: miter; stroke-linecap: square"/>
   </g>
   <g id="legend_1">
    <g id="patch_7">
     <path d="M 53.64 62.834375 
L 129.085313 62.834375 
Q 131.085313 62.834375 131.085313 60.834375 
L 131.085313 17.8 
Q 131.085313 15.8 129.085313 15.8 
L 53.64 15.8 
Q 51.64 15.8 51.64 17.8 
L 51.64 60.834375 
Q 51.64 62.834375 53.64 62.834375 
z
" style="fill: #ffffff; opacity: 0.8; stroke: #cccccc; stroke-linejoin: miter"/>
    </g>
    <g id="line2d_16">
     <path d="M 55.64 23.898438 
L 65.64 23.898438 
L 75.64 23.898438 
" style="fill: none; stroke: #1e2e79; stroke-width: 2.5; stroke-linecap: square"/>
    </g>
    <g id="text_14">
     <!-- Reduced -->
     <g transform="translate(83.64 27.398438) scale(0.1 -0.1)">
      <defs>
       <path id="DejaVuSans-75" d="M 544 1381 
L 544 3500 
L 1119 3500 
L 1119 1403 
Q 1119 906 1312 657 
Q 1506 409 1894 409 
Q 2359 409 2629 706 
Q 2900 1003 2900 1516 
L 2900 3500 
L 3475 3500 
L 3475 0 
L 2900 0 
L 2900 538 
Q 2691 219 2414 64 
Q 2138 -91 1772 -91 
Q 1169 -91 856 284 
Q 544 659 544 1381 
z
M 1991 3584 
L 1991 3584 
z
" transform="scale(0.015625)"/>
      </defs>
      <use xlink:href="#DejaVuSans-52"/>
      <use xlink:href="#DejaVuSans-65" x="64.982422"/>
      <use xlink:href="#DejaVuSans-64" x="126.505859"/>
      <use xlink:href="#DejaVuSans-75" x="189.982422"/>
      <use xlink:href="#DejaVuSans-63" x="253.361328"/>
      <use xlink:href="#DejaVuSans-65" x="308.341797"/>
      <use xlink:href="#DejaVuSans-64" x="369.865234"/>
     </g>
    </g>
    <g id="line2d_17">
     <path d="M 55.64 38.576563 
L 65.64 38.576563 
L 75.64 38.576563 
" style="fill: none; stroke: #ec4067; stroke-width: 2.5; stroke-linecap: square"/>
    </g>
    <g id="text_15">
     <!-- Oxidized -->
     <g transform="translate(83.64 42.076563) scale(0.1 -0.1)">
      <defs>
       <path id="DejaVuSans-78" d="M 3513 3500 
L 2247 1797 
L 3578 0 
L 2900 0 
L 1881 1375 
L 863 0 
L 184 0 
L 1544 1831 
L 300 3500 
L 978 3500 
L 1906 2253 
L 2834 3500 
L 3513 3500 
z
" transform="scale(0.015625)"/>
       <path id="DejaVuSans-7a" d="M 353 3500 
L 3084 3500 
L 3084 2975 
L 922 459 
L 3084 459 
L 3084 0 
L 275 0 
L 275 525 
L 2438 3041 
L 353 3041 
L 353 3500 
z
" transform="scale(0.015625)"/>
      </defs>
      <use xlink:href="#DejaVuSans-4f"/>
      <use xlink:href="#DejaVuSans-78" x="78.710938"/>
      <use xlink:href="#DejaVuSans-69" x="137.890625"/>
      <use xlink:href="#DejaVuSans-64" x="165.673828"/>
      <use xlink:href="#DejaVuSans-69" x="229.150391"/>
      <use xlink:href="#DejaVuSans-7a" x="256.933594"/>
      <use xlink:href="#DejaVuSans-65" x="309.423828"/>
      <use xlink:href="#DejaVuSans-64" x="370.947266"/>
     </g>
    </g>
    <g id="line2d_18">
     <path d="M 55.64 53.254688 
L 65.64 53.254688 
L 75.64 53.254688 
" style="fill: none; stroke: #f99752; stroke-width: 2.5; stroke-linecap: square"/>
    </g>
    <g id="text_16">
     <!-- Cu$^{+}$ -->
     <g transform="translate(83.64 56.754688) scale(0.1 -0.1)">
      <defs>
       <path id="DejaVuSans-2b" d="M 2944 4013 
L 2944 2272 
L 4684 2272 
L 4684 1741 
L 2944 1741 
L 2944 0 
L 2419 0 
L 2419 1741 
L 678 1741 
L 678 2272 
L 2419 2272 
L 2419 4013 
L 2944 4013 
z
" transform="scale(0.015625)"/>
      </defs>
      <use xlink:href="#DejaVuSans-43" transform="translate(0 0.826562)"/>
      <use xlink:href="#DejaVuSans-75" transform="translate(69.824219 0.826562)"/>
      <use xlink:href="#DejaVuSans-2b" transform="translate(134.160156 39.107812) scale(0.7)"/>
     </g>
    </g>
   </g>
  </g>
 </g>
 <defs>
  <clipPath id="pff13b2d67c">
   <rect x="46.64" y="10.8" width="403.36" height="292.84"/>
  </clipPath>
 </defs>
</svg>
