<?xml version="1.0" encoding="utf-8" standalone="no"?>
<!DOCTYPE svg PUBLIC "-//W3C//DTD SVG 1.1//EN"
  "http://www.w3.org/Graphics/SVG/1.1/DTD/svg11.dtd">
<svg xmlns:xlink="http://www.w3.org/1999/xlink" width="460.8pt" height="345.6pt" viewBox="0 0 460.8 345.6" xmlns="http://www.w3.org/2000/svg" version="1.1">
 <metadata>
  <rdf:RDF xmlns:dc="http://purl.org/dc/elements/1.1/" xmlns:cc="http://creativecommons.org/ns#" xmlns:rdf="http://www.w3.org/1999/02/22-rdf-syntax-ns#">
   <cc:Work>
    <dc:type rdf:resource="http://purl.org/dc/dcmitype/StillImage"/>
    <dc:date>2024-07-07T20:05:47.189453</dc:date>
    <dc:format>image/svg+xml</dc:format>
    <dc:creator>
     <cc:Agent>
      <dc:title>Matplotlib v3.8.4, https://matplotlib.org/</dc:title>
     </cc:Agent>
    </dc:creator>
   </cc:Work>
  </rdf:RDF>
 </metadata>
 <defs>
  <style type="text/css">*{stroke-linejoin: round; stroke-linecap: butt}</style>
 </defs>
 <g id="figure_1">
  <g id="patch_1">
   <path d="M 0 345.6 
L 460.8 345.6 
L 460.8 0 
L 0 0 
z
" style="fill: #ffffff"/>
  </g>
  <g id="axes_1">
   <g id="patch_2">
    <path d="M 47.252 300.112 
L 447.84 300.112 
L 447.84 12.96 
L 47.252 12.96 
z
" style="fill: #ffffff"/>
   </g>
   <g id="line2d_1">
    <path d="M 47.252 131.339229 
L 447.84 131.339229 
" clip-path="url(#pf46b09cd57)" style="fill: none; stroke-dasharray: 1.75,2.8875; stroke-dashoffset: 0; stroke: #c0c0c0; stroke-width: 1.75"/>
   </g>
   <g id="line2d_2">
    <path d="M 47.252 120.618287 
L 48.923438 122.424958 
L 50.03773 124.182274 
L 51.152022 126.540515 
L 53.380606 131.537866 
L 57.280629 139.063859 
L 58.952067 141.915409 
L 60.623505 144.720455 
L 68.423549 158.890364 
L 70.094987 161.136079 
L 71.766426 163.48519 
L 73.437864 165.948609 
L 75.109302 167.877701 
L 77.337886 170.019571 
L 79.009324 171.570408 
L 80.680762 173.478989 
L 82.909346 176.164937 
L 87.366515 181.106426 
L 90.709391 185.239364 
L 92.937975 187.64798 
L 94.609413 189.167453 
L 96.280851 190.428717 
L 97.952289 191.430964 
L 99.066581 191.899786 
L 100.180873 192.170526 
L 101.295166 192.223063 
L 102.409458 192.066693 
L 103.52375 191.724583 
L 105.195188 190.895424 
L 106.866626 189.752536 
L 108.538064 188.264361 
L 110.209502 186.394919 
L 112.995232 182.818415 
L 115.780962 178.927851 
L 125.252445 164.535982 
L 129.709613 159.025626 
L 131.938197 156.283672 
L 133.609636 153.751973 
L 135.83822 150.337132 
L 141.40968 142.42153 
L 143.081118 140.166758 
L 145.866848 136.972607 
L 146.98114 135.159612 
L 149.209725 131.335316 
L 151.995455 127.158736 
L 153.666893 125.062543 
L 154.781185 123.683298 
L 155.895477 121.999716 
L 158.681207 117.380229 
L 159.238353 116.754498 
L 160.352645 116.009315 
L 161.466937 115.490312 
L 162.581229 114.707776 
L 163.695522 113.586707 
L 164.809814 112.133194 
L 166.481252 109.604094 
L 167.038398 108.975808 
L 167.595544 108.635134 
L 168.15269 108.638733 
L 168.709836 108.964391 
L 170.381274 110.611904 
L 170.93842 110.861246 
L 171.495566 110.779226 
L 172.052712 110.343826 
L 172.609858 109.582854 
L 173.72415 107.34921 
L 174.838442 104.870887 
L 175.395588 103.888099 
L 175.952734 103.201223 
L 177.067026 102.453737 
L 178.181318 101.869201 
L 178.738465 101.744943 
L 179.295611 101.958022 
L 179.852757 102.575402 
L 181.524195 105.189101 
L 182.081341 105.631805 
L 182.638487 105.693794 
L 183.195633 105.374589 
L 183.752779 104.707768 
L 184.867071 102.619398 
L 185.981363 100.361523 
L 186.538509 99.547786 
L 187.095655 99.096877 
L 187.652801 99.053447 
L 188.209947 99.404672 
L 188.767093 100.082997 
L 190.438531 102.724738 
L 190.995677 103.286356 
L 191.552823 103.494688 
L 192.109969 103.315575 
L 192.667115 102.780519 
L 193.781408 101.049474 
L 194.8957 99.273762 
L 195.452846 98.578239 
L 196.009992 98.071985 
L 196.567138 97.8146 
L 197.124284 97.861335 
L 197.68143 98.204381 
L 199.352868 99.742144 
L 199.910014 99.968366 
L 200.46716 99.962417 
L 201.024306 99.747627 
L 201.581452 99.358128 
L 202.695744 98.200467 
L 203.810036 97.110492 
L 204.367182 96.993128 
L 204.924328 97.34526 
L 205.481474 98.133445 
L 206.595766 100.201069 
L 207.152912 101.006626 
L 207.710058 101.438142 
L 208.267204 101.420679 
L 208.82435 100.938428 
L 209.381497 100.025319 
L 210.495789 97.283523 
L 211.610081 94.431541 
L 212.167227 93.531561 
L 212.724373 93.293308 
L 213.281519 93.827407 
L 213.838665 95.043864 
L 216.067249 101.23185 
L 216.624395 102.154002 
L 218.295833 104.144503 
L 219.410125 106.328586 
L 220.524417 108.500568 
L 221.081563 109.016197 
L 221.638709 109.004301 
L 222.195855 108.514239 
L 223.867293 106.22542 
L 224.424439 106.116154 
L 224.981586 106.708356 
L 225.538732 108.006241 
L 227.767316 115.212461 
L 228.324462 116.368221 
L 228.881608 117.155006 
L 229.438754 117.660551 
L 230.553046 118.229092 
L 233.338776 119.156009 
L 233.895922 119.591209 
L 234.453068 120.22905 
L 235.56736 121.97287 
L 236.681652 123.785389 
L 237.795944 125.163497 
L 239.467382 126.83727 
L 242.253113 130.153866 
L 242.810259 130.440188 
L 243.924551 130.613742 
L 245.038843 130.536088 
L 246.153135 130.280068 
L 247.824573 129.842308 
L 248.381719 129.867856 
L 248.938865 130.033234 
L 250.053157 130.688158 
L 251.167449 131.347727 
L 251.724595 131.511837 
L 252.281741 131.528059 
L 253.396033 131.24377 
L 254.510325 130.96188 
L 255.624618 131.021235 
L 257.853202 131.505513 
L 258.410348 131.43723 
L 258.967494 131.214095 
L 259.52464 130.818952 
L 260.638932 129.572444 
L 261.753224 128.152183 
L 262.867516 127.205062 
L 263.981808 126.580278 
L 264.538954 126.101376 
L 265.0961 125.378803 
L 266.210392 123.174318 
L 268.996122 116.66273 
L 270.110414 114.525441 
L 270.667561 113.723689 
L 271.224707 113.200528 
L 271.781853 112.951934 
L 272.896145 112.791921 
L 273.453291 112.518594 
L 274.010437 111.901575 
L 274.567583 110.852751 
L 275.124729 109.364086 
L 277.910459 100.319799 
L 279.024751 98.272075 
L 280.139043 96.734808 
L 281.253335 95.643338 
L 281.810481 95.122114 
L 282.367627 94.381884 
L 282.924773 93.23653 
L 283.481919 91.586828 
L 284.596211 87.067084 
L 285.710503 82.609698 
L 286.26765 81.055805 
L 286.824796 80.023407 
L 287.939088 78.884969 
L 288.496234 78.341494 
L 289.05338 77.528754 
L 289.610526 76.259265 
L 290.167672 74.3692 
L 290.724818 71.712768 
L 291.281964 68.156956 
L 291.83911 63.58002 
L 292.396256 57.873105 
L 293.510548 42.711075 
L 294.62484 22.117379 
L 295.625666 -1 
M 297.408043 -1 
L 299.082008 34.11795 
L 300.1963 49.963782 
L 300.753446 55.566565 
L 301.310592 59.622901 
L 301.867739 62.134039 
L 302.424885 63.104337 
L 302.982031 62.54905 
L 303.539177 60.521462 
L 304.096323 57.204986 
L 304.653469 53.193826 
L 305.210615 50.059189 
L 305.767761 50.159975 
L 306.324907 53.92379 
L 307.439199 64.165551 
L 307.996345 68.067355 
L 308.553491 70.681164 
L 309.110637 71.94738 
L 309.667783 71.851492 
L 310.224929 70.388167 
L 310.782075 67.551378 
L 311.339221 63.332153 
L 311.896367 57.718632 
L 312.453513 50.696898 
L 313.567805 32.373995 
L 315.194514 -1 
M 315.833811 -1 
L 318.58212 48.813106 
L 319.139266 55.34838 
L 319.696412 60.551964 
L 320.253558 64.507808 
L 320.810704 67.315213 
L 321.36785 69.077231 
L 321.924996 69.880597 
L 322.482142 69.772747 
L 323.039288 68.746972 
L 323.596434 66.744619 
L 324.15358 63.672928 
L 324.710726 59.428203 
L 325.267872 53.914121 
L 325.825018 47.051442 
L 326.93931 29.08662 
L 328.053602 7.329269 
L 328.610748 3.199292 
L 329.167894 10.762059 
L 330.282186 33.23304 
L 331.396478 51.089015 
L 332.510771 63.447505 
L 333.067917 67.688389 
L 333.625063 70.766792 
L 334.182209 72.864351 
L 336.410793 78.702688 
L 338.082231 85.581961 
L 339.196523 88.800112 
L 340.867961 92.482081 
L 343.653691 99.723699 
L 345.882275 104.390438 
L 348.11086 109.327059 
L 349.782298 112.498778 
L 352.568028 116.850824 
L 354.239466 120.778213 
L 356.46805 126.062422 
L 357.582342 128.222717 
L 359.810926 132.103816 
L 362.596656 137.461662 
L 364.268095 140.618889 
L 365.939533 144.645222 
L 367.610971 148.591829 
L 371.510993 156.906237 
L 375.968161 166.918913 
L 379.311038 173.738982 
L 382.653914 180.265702 
L 384.325352 183.148285 
L 386.553936 186.457783 
L 388.78252 189.423802 
L 390.453958 191.226822 
L 392.125396 192.679149 
L 394.353981 194.287587 
L 395.468273 194.899416 
L 396.582565 195.325394 
L 398.254003 195.668015 
L 399.368295 195.731416 
L 400.482587 195.622727 
L 401.596879 195.326216 
L 403.825463 194.407505 
L 404.939755 193.796223 
L 406.054047 192.989442 
L 407.725485 191.435193 
L 409.95407 188.998733 
L 412.182654 186.200077 
L 413.854092 183.755772 
L 415.52553 180.937471 
L 417.754114 176.758297 
L 420.539844 171.161381 
L 422.768428 166.11072 
L 425.554159 159.252631 
L 428.897035 150.342277 
L 435.025641 133.293177 
L 436.139933 130.640567 
L 437.254225 128.4397 
L 438.925663 125.368001 
L 440.039955 122.467567 
L 441.711394 117.304129 
L 442.26854 116.119371 
L 442.825686 115.487039 
L 443.382832 115.396804 
L 443.939978 115.729167 
L 445.05427 117.081785 
L 446.725708 119.385206 
L 447.84 120.618287 
L 447.84 120.618287 
" clip-path="url(#pf46b09cd57)" style="fill: none; stroke: #1e2e79; stroke-width: 2.5; stroke-linecap: square"/>
   </g>
   <g id="line2d_3">
    <path d="M 47.252 74.764795 
L 47.809146 75.599681 
L 48.366292 76.968467 
L 48.923438 78.021353 
L 49.480584 78.332786 
L 50.03773 77.829207 
L 50.594876 76.677846 
L 51.709168 74.031634 
L 52.266314 73.606411 
L 52.82346 74.26664 
L 53.380606 75.849844 
L 54.494898 79.766603 
L 55.052045 81.267182 
L 55.609191 82.270425 
L 57.280629 84.214973 
L 57.837775 85.512412 
L 58.952067 89.499465 
L 60.066359 93.47741 
L 60.623505 94.818665 
L 61.180651 95.595867 
L 61.737797 95.847974 
L 62.294943 95.703604 
L 63.409235 95.034874 
L 63.966381 94.964681 
L 64.523527 95.336974 
L 65.080673 96.269609 
L 65.637819 97.767837 
L 66.752111 101.889373 
L 67.866403 106.129757 
L 68.980695 109.447271 
L 70.094987 111.833145 
L 71.766426 115.175496 
L 72.880718 118.271731 
L 74.552156 124.280683 
L 76.223594 130.348817 
L 82.909346 152.094602 
L 85.13793 158.388105 
L 89.595099 169.724622 
L 91.266537 173.717557 
L 92.937975 177.174092 
L 96.280851 183.525207 
L 97.952289 186.136986 
L 100.180873 189.137252 
L 102.409458 191.77986 
L 104.080896 193.532917 
L 105.752334 195.015902 
L 107.423772 196.247634 
L 109.09521 197.148943 
L 110.766648 197.769323 
L 112.438086 198.124561 
L 114.109524 198.215889 
L 115.223816 198.120309 
L 116.338108 197.859787 
L 117.452401 197.419698 
L 118.566693 196.801131 
L 119.680985 195.991411 
L 121.352423 194.410451 
L 123.581007 191.828152 
L 125.252445 189.629889 
L 126.923883 187.062949 
L 128.595321 184.075056 
L 131.381051 178.53379 
L 134.166782 172.509034 
L 140.295388 158.402918 
L 142.523972 154.259684 
L 148.652579 143.779562 
L 150.324017 141.249114 
L 156.452623 130.813919 
L 157.566915 129.248456 
L 158.124061 128.750326 
L 160.352645 127.384605 
L 160.909791 126.720589 
L 162.024083 124.859094 
L 164.252668 120.337607 
L 170.381274 106.931655 
L 171.495566 104.213246 
L 172.052712 103.188155 
L 172.609858 102.474192 
L 173.72415 101.628628 
L 175.952734 100.162137 
L 177.624172 99.77931 
L 178.181318 99.324225 
L 178.738465 98.439736 
L 179.295611 97.071762 
L 180.409903 93.082626 
L 182.081341 85.942096 
L 182.638487 84.165511 
L 183.195633 83.283161 
L 183.752779 83.488058 
L 184.309925 84.593646 
L 185.424217 87.658558 
L 185.981363 88.822654 
L 186.538509 89.456386 
L 187.095655 89.489967 
L 187.652801 88.913877 
L 188.209947 87.7403 
L 188.767093 85.971023 
L 189.324239 83.577923 
L 189.881385 80.510907 
L 190.995677 72.469806 
L 191.552823 68.250284 
L 192.109969 65.295046 
L 192.667115 64.696968 
L 193.224261 66.10759 
L 193.781408 68.144071 
L 194.338554 69.74478 
L 194.8957 70.480619 
L 195.452846 70.310384 
L 196.009992 69.365766 
L 196.567138 67.811086 
L 197.124284 65.743464 
L 198.238576 60.089671 
L 198.795722 56.820173 
L 199.352868 54.344225 
L 199.910014 54.16611 
L 200.46716 56.699245 
L 201.581452 64.200564 
L 202.138598 66.807262 
L 202.695744 68.063836 
L 203.25289 67.86958 
L 203.810036 66.217996 
L 204.367182 63.193671 
L 205.481474 54.734677 
L 206.03862 51.790819 
L 206.595766 51.824099 
L 207.152912 54.305555 
L 208.267204 60.083202 
L 208.82435 61.884474 
L 209.381497 62.904938 
L 209.938643 63.330923 
L 210.495789 63.301449 
L 211.052935 62.805354 
L 211.610081 61.689283 
L 212.167227 59.769292 
L 213.838665 50.926911 
L 214.395811 50.136255 
L 214.952957 51.798269 
L 216.067249 57.201736 
L 216.624395 58.663458 
L 217.181541 58.741409 
L 217.738687 57.436315 
L 218.852979 52.652592 
L 219.410125 52.109469 
L 219.967271 54.89076 
L 221.638709 69.81706 
L 222.195855 73.222831 
L 222.753001 75.516903 
L 223.310147 76.921168 
L 224.424439 78.691811 
L 224.981586 79.980046 
L 225.538732 81.882425 
L 226.653024 87.115763 
L 228.324462 95.552549 
L 229.438754 99.719441 
L 229.9959 101.136634 
L 230.553046 102.165508 
L 232.224484 104.406335 
L 232.78163 105.458186 
L 233.895922 108.509778 
L 235.56736 113.816255 
L 236.681652 116.628666 
L 237.795944 118.854277 
L 239.467382 121.579858 
L 244.481697 128.89246 
L 245.595989 129.970414 
L 246.710281 130.703292 
L 247.824573 131.173087 
L 248.938865 131.444185 
L 250.053157 131.509789 
L 251.167449 131.335686 
L 252.281741 130.800527 
L 255.067471 128.690897 
L 256.181764 127.993432 
L 256.73891 127.392458 
L 257.296056 126.52893 
L 258.410348 124.159386 
L 259.52464 121.739436 
L 260.638932 120.061599 
L 261.753224 118.942484 
L 262.867516 118.042565 
L 265.653246 116.153909 
L 266.210392 115.372695 
L 267.324684 113.103165 
L 272.338999 100.643284 
L 272.896145 99.707534 
L 273.453291 99.128666 
L 274.567583 98.319251 
L 275.124729 97.631262 
L 276.239021 95.435352 
L 276.796167 94.313451 
L 277.353313 93.546029 
L 277.910459 93.250722 
L 279.024751 93.346178 
L 279.581897 93.142117 
L 280.139043 92.509201 
L 280.696189 91.42351 
L 281.810481 88.225831 
L 282.924773 84.169118 
L 284.039065 79.094254 
L 285.153357 72.503792 
L 286.26765 64.992773 
L 286.824796 61.980323 
L 287.381942 60.297808 
L 287.939088 59.888856 
L 288.496234 59.95566 
L 289.05338 59.593766 
L 289.610526 58.199413 
L 290.167672 55.458005 
L 290.724818 51.22269 
L 291.281964 45.427815 
L 291.83911 38.044423 
L 292.953402 18.468239 
L 293.80371 -1 
M 335.855881 -1 
L 336.967939 23.499792 
L 338.082231 41.638124 
L 338.639377 48.326301 
L 339.196523 53.461853 
L 339.753669 57.104106 
L 340.310815 59.367913 
L 340.867961 60.463444 
L 341.425107 60.735409 
L 342.539399 60.598527 
L 343.096545 60.704113 
L 343.653691 60.677387 
L 344.210837 60.052713 
L 344.767983 58.416995 
L 345.325129 55.494959 
L 345.882275 51.129292 
L 346.439421 45.239272 
L 347.553713 28.948554 
L 348.11086 19.717053 
L 348.668006 15.156333 
L 349.225152 21.512307 
L 350.89659 54.582069 
L 352.010882 70.293015 
L 352.568028 75.982456 
L 353.125174 80.320736 
L 353.68232 83.431366 
L 354.239466 85.505713 
L 354.796612 86.823567 
L 355.910904 88.675885 
L 356.46805 89.8918 
L 357.582342 93.343026 
L 359.25378 98.852074 
L 360.368072 101.765271 
L 363.153803 108.332116 
L 364.268095 111.619822 
L 366.496679 118.694746 
L 368.168117 122.95151 
L 370.953847 129.318775 
L 373.182431 134.27069 
L 376.525307 142.055148 
L 378.196745 145.389777 
L 380.42533 149.264657 
L 382.096768 152.229334 
L 384.882498 157.424837 
L 385.99679 158.983938 
L 387.111082 160.202168 
L 388.78252 161.64883 
L 391.011104 163.166125 
L 393.239688 164.468151 
L 394.911127 165.204644 
L 396.025419 165.476042 
L 397.139711 165.510991 
L 398.254003 165.336882 
L 399.925441 164.813984 
L 403.825463 163.340139 
L 404.939755 162.505319 
L 406.054047 161.292318 
L 409.95407 156.415094 
L 411.625508 153.794536 
L 415.52553 147.107373 
L 418.31126 141.621267 
L 420.539844 136.827118 
L 422.768428 131.398526 
L 424.439866 127.418512 
L 428.339889 118.873225 
L 431.125619 111.068374 
L 431.682765 110.000765 
L 432.239911 109.225175 
L 432.797057 108.716216 
L 434.468495 107.807899 
L 435.025641 107.26054 
L 435.582787 106.435474 
L 436.139933 105.326686 
L 437.254225 102.369003 
L 438.368517 98.408972 
L 439.482809 93.173603 
L 440.597102 87.539078 
L 441.154248 85.661312 
L 441.711394 85.054563 
L 442.26854 85.598218 
L 443.382832 87.578092 
L 443.939978 87.885643 
L 444.497124 87.355321 
L 445.05427 85.90698 
L 445.611416 83.588188 
L 446.725708 77.594248 
L 447.282854 75.380557 
L 447.84 74.764795 
L 447.84 74.764795 
" clip-path="url(#pf46b09cd57)" style="fill: none; stroke: #ec4067; stroke-width: 2.5; stroke-linecap: square"/>
   </g>
   <g id="matplotlib.axis_1">
    <g id="xtick_1">
     <g id="line2d_4">
      <defs>
       <path id="m8f993c51b1" d="M 0 0 
L 0 3.5 
" style="stroke: #c2c1c1; stroke-width: 0.8"/>
      </defs>
      <g>
       <use xlink:href="#m8f993c51b1" x="47.252" y="300.112" style="fill: #c2c1c1; stroke: #c2c1c1; stroke-width: 0.8"/>
      </g>
     </g>
     <g id="text_1">
      <!-- −120 -->
      <g style="fill: #191919" transform="translate(35.962938 314.612) scale(0.1 -0.1)">
       <defs>
        <path id="Roboto-Regular-2212" d="M 3134 2509 
L 3134 2034 
L 525 2034 
L 525 2509 
L 3134 2509 
z
" transform="scale(0.015625)"/>
        <path id="Roboto-Regular-31" d="M 2278 4575 
L 2278 0 
L 1700 0 
L 1700 3853 
L 534 3428 
L 534 3950 
L 2188 4575 
L 2278 4575 
z
" transform="scale(0.015625)"/>
        <path id="Roboto-Regular-32" d="M 3359 475 
L 3359 0 
L 381 0 
L 381 416 
L 1925 2134 
Q 2306 2566 2439 2819 
Q 2572 3072 2572 3328 
Q 2572 3663 2364 3900 
Q 2156 4138 1778 4138 
Q 1322 4138 1097 3878 
Q 872 3619 872 3213 
L 294 3213 
Q 294 3788 672 4200 
Q 1050 4613 1778 4613 
Q 2422 4613 2786 4278 
Q 3150 3944 3150 3397 
Q 3150 2997 2903 2592 
Q 2656 2188 2297 1797 
L 1078 475 
L 3359 475 
z
" transform="scale(0.015625)"/>
        <path id="Roboto-Regular-30" d="M 3234 1944 
Q 3234 825 2848 381 
Q 2463 -63 1800 -63 
Q 1156 -63 764 368 
Q 372 800 359 1872 
L 359 2638 
Q 359 3753 750 4183 
Q 1141 4613 1794 4613 
Q 2447 4613 2834 4195 
Q 3222 3778 3234 2709 
L 3234 1944 
z
M 2653 2734 
Q 2653 3503 2434 3822 
Q 2216 4141 1794 4141 
Q 1388 4141 1167 3831 
Q 947 3522 941 2778 
L 941 1850 
Q 941 1088 1164 750 
Q 1388 413 1800 413 
Q 2222 413 2436 745 
Q 2650 1078 2653 1825 
L 2653 2734 
z
" transform="scale(0.015625)"/>
       </defs>
       <use xlink:href="#Roboto-Regular-2212"/>
       <use xlink:href="#Roboto-Regular-31" x="57.177734"/>
       <use xlink:href="#Roboto-Regular-32" x="113.378906"/>
       <use xlink:href="#Roboto-Regular-30" x="169.580078"/>
      </g>
     </g>
    </g>
    <g id="xtick_2">
     <g id="line2d_5">
      <g>
       <use xlink:href="#m8f993c51b1" x="114.016667" y="300.112" style="fill: #c2c1c1; stroke: #c2c1c1; stroke-width: 0.8"/>
      </g>
     </g>
     <g id="text_2">
      <!-- −60 -->
      <g style="fill: #191919" transform="translate(105.53776 314.612) scale(0.1 -0.1)">
       <defs>
        <path id="Roboto-Regular-36" d="M 3291 1484 
Q 3291 838 2930 387 
Q 2569 -63 1878 -63 
Q 1388 -63 1063 198 
Q 738 459 577 861 
Q 416 1263 416 1684 
L 416 1956 
Q 416 2597 595 3194 
Q 775 3791 1247 4173 
Q 1719 4556 2597 4556 
L 2647 4556 
L 2647 4066 
Q 2041 4066 1705 3853 
Q 1369 3641 1205 3302 
Q 1041 2963 1006 2575 
Q 1369 2984 1984 2984 
Q 2438 2984 2727 2765 
Q 3016 2547 3153 2201 
Q 3291 1856 3291 1484 
z
M 997 1666 
Q 997 1059 1267 737 
Q 1538 416 1878 416 
Q 2278 416 2498 708 
Q 2719 1000 2719 1456 
Q 2719 1863 2516 2184 
Q 2313 2506 1891 2506 
Q 1588 2506 1341 2325 
Q 1094 2144 997 1884 
L 997 1666 
z
" transform="scale(0.015625)"/>
       </defs>
       <use xlink:href="#Roboto-Regular-2212"/>
       <use xlink:href="#Roboto-Regular-36" x="57.177734"/>
       <use xlink:href="#Roboto-Regular-30" x="113.378906"/>
      </g>
     </g>
    </g>
    <g id="xtick_3">
     <g id="line2d_6">
      <g>
       <use xlink:href="#m8f993c51b1" x="180.781333" y="300.112" style="fill: #c2c1c1; stroke: #c2c1c1; stroke-width: 0.8"/>
      </g>
     </g>
     <g id="text_3">
      <!-- 0 -->
      <g style="fill: #191919" transform="translate(177.971177 314.612) scale(0.1 -0.1)">
       <use xlink:href="#Roboto-Regular-30"/>
      </g>
     </g>
    </g>
    <g id="xtick_4">
     <g id="line2d_7">
      <g>
       <use xlink:href="#m8f993c51b1" x="247.546" y="300.112" style="fill: #c2c1c1; stroke: #c2c1c1; stroke-width: 0.8"/>
      </g>
     </g>
     <g id="text_4">
      <!-- 60 -->
      <g style="fill: #191919" transform="translate(241.925688 314.612) scale(0.1 -0.1)">
       <use xlink:href="#Roboto-Regular-36"/>
       <use xlink:href="#Roboto-Regular-30" x="56.201172"/>
      </g>
     </g>
    </g>
    <g id="xtick_5">
     <g id="line2d_8">
      <g>
       <use xlink:href="#m8f993c51b1" x="314.310667" y="300.112" style="fill: #c2c1c1; stroke: #c2c1c1; stroke-width: 0.8"/>
      </g>
     </g>
     <g id="text_5">
      <!-- 120 -->
      <g style="fill: #191919" transform="translate(305.880198 314.612) scale(0.1 -0.1)">
       <use xlink:href="#Roboto-Regular-31"/>
       <use xlink:href="#Roboto-Regular-32" x="56.201172"/>
       <use xlink:href="#Roboto-Regular-30" x="112.402344"/>
      </g>
     </g>
    </g>
    <g id="xtick_6">
     <g id="line2d_9">
      <g>
       <use xlink:href="#m8f993c51b1" x="381.075333" y="300.112" style="fill: #c2c1c1; stroke: #c2c1c1; stroke-width: 0.8"/>
      </g>
     </g>
     <g id="text_6">
      <!-- 180 -->
      <g style="fill: #191919" transform="translate(372.644865 314.612) scale(0.1 -0.1)">
       <defs>
        <path id="Roboto-Regular-38" d="M 3244 1231 
Q 3244 606 2826 271 
Q 2409 -63 1796 -63 
Q 1184 -63 767 271 
Q 350 606 350 1231 
Q 350 1613 554 1905 
Q 759 2197 1109 2347 
Q 806 2494 629 2762 
Q 453 3031 453 3366 
Q 453 3963 833 4288 
Q 1213 4613 1794 4613 
Q 2378 4613 2758 4288 
Q 3138 3963 3138 3366 
Q 3138 3028 2956 2761 
Q 2775 2494 2472 2347 
Q 2825 2197 3034 1903 
Q 3244 1609 3244 1231 
z
M 2559 3356 
Q 2559 3697 2346 3917 
Q 2134 4138 1793 4138 
Q 1453 4138 1243 3927 
Q 1034 3716 1034 3356 
Q 1034 3003 1243 2790 
Q 1453 2578 1797 2578 
Q 2138 2578 2348 2790 
Q 2559 3003 2559 3356 
z
M 2663 1244 
Q 2663 1625 2420 1865 
Q 2178 2106 1791 2106 
Q 1394 2106 1161 1865 
Q 928 1625 928 1244 
Q 928 850 1161 631 
Q 1394 413 1797 413 
Q 2200 413 2431 631 
Q 2663 850 2663 1244 
z
" transform="scale(0.015625)"/>
       </defs>
       <use xlink:href="#Roboto-Regular-31"/>
       <use xlink:href="#Roboto-Regular-38" x="56.201172"/>
       <use xlink:href="#Roboto-Regular-30" x="112.402344"/>
      </g>
     </g>
    </g>
    <g id="xtick_7">
     <g id="line2d_10">
      <g>
       <use xlink:href="#m8f993c51b1" x="447.84" y="300.112" style="fill: #c2c1c1; stroke: #c2c1c1; stroke-width: 0.8"/>
      </g>
     </g>
     <g id="text_7">
      <!-- 240 -->
      <g style="fill: #191919" transform="translate(439.409531 314.612) scale(0.1 -0.1)">
       <defs>
        <path id="Roboto-Regular-34" d="M 166 1397 
L 2203 4550 
L 2819 4550 
L 2819 1531 
L 3453 1531 
L 3453 1056 
L 2819 1056 
L 2819 0 
L 2241 0 
L 2241 1056 
L 166 1056 
L 166 1397 
z
M 822 1531 
L 2241 1531 
L 2241 3766 
L 2169 3638 
L 822 1531 
z
" transform="scale(0.015625)"/>
       </defs>
       <use xlink:href="#Roboto-Regular-32"/>
       <use xlink:href="#Roboto-Regular-34" x="56.201172"/>
       <use xlink:href="#Roboto-Regular-30" x="112.402344"/>
      </g>
     </g>
    </g>
    <g id="text_8">
     <!-- Ser205 OG-CB-CA-N Dihedral [°] -->
     <g style="fill: #191919" transform="translate(160.27975 330.12325) scale(0.12 -0.12)">
      <defs>
       <path id="Roboto-Bold-53" d="M 2769 1194 
Q 2769 1422 2612 1573 
Q 2456 1725 1854 1920 
Q 1253 2116 816 2425 
Q 356 2747 356 3341 
Q 356 3913 828 4263 
Q 1300 4613 2038 4613 
Q 2794 4613 3250 4217 
Q 3706 3822 3706 3209 
L 2769 3209 
Q 2769 3497 2584 3681 
Q 2400 3866 2022 3866 
Q 1653 3866 1473 3711 
Q 1294 3556 1294 3338 
Q 1294 3113 1525 2963 
Q 1756 2813 2197 2678 
Q 2944 2450 3326 2106 
Q 3709 1763 3709 1200 
Q 3709 603 3259 270 
Q 2809 -63 2059 -63 
Q 1606 -63 1184 96 
Q 763 256 491 587 
Q 219 919 219 1434 
L 1159 1434 
Q 1159 1019 1407 850 
Q 1656 681 2059 681 
Q 2422 681 2595 828 
Q 2769 975 2769 1194 
z
" transform="scale(0.015625)"/>
       <path id="Roboto-Bold-65" d="M 3225 550 
Q 3063 319 2731 128 
Q 2400 -63 1906 -63 
Q 1119 -63 675 414 
Q 231 891 228 1566 
L 228 1697 
Q 228 2463 654 2953 
Q 1081 3444 1806 3444 
Q 2534 3444 2915 2987 
Q 3297 2531 3297 1781 
L 3297 1397 
L 1144 1397 
Q 1191 1069 1403 867 
Q 1616 666 1963 666 
Q 2478 666 2778 1044 
L 3225 550 
z
M 1800 2716 
Q 1513 2716 1356 2522 
Q 1200 2328 1153 2016 
L 2409 2016 
L 2409 2084 
Q 2403 2356 2258 2536 
Q 2113 2716 1800 2716 
z
" transform="scale(0.015625)"/>
       <path id="Roboto-Bold-72" d="M 1922 2563 
Q 1413 2563 1253 2216 
L 1253 0 
L 347 0 
L 347 3381 
L 1200 3381 
L 1228 2978 
Q 1494 3444 1981 3444 
Q 2153 3444 2259 3403 
L 2250 2538 
L 1922 2563 
z
" transform="scale(0.015625)"/>
       <path id="Roboto-Bold-32" d="M 3428 728 
L 3428 0 
L 313 0 
L 313 619 
L 1784 2188 
Q 2116 2553 2245 2792 
Q 2375 3031 2375 3234 
Q 2375 3538 2223 3713 
Q 2072 3888 1788 3888 
Q 1466 3888 1295 3669 
Q 1125 3450 1125 3119 
L 222 3119 
Q 222 3734 645 4175 
Q 1069 4616 1803 4616 
Q 2519 4616 2900 4270 
Q 3281 3925 3281 3325 
Q 3281 2875 3014 2470 
Q 2747 2066 2284 1581 
L 1472 728 
L 3428 728 
z
" transform="scale(0.015625)"/>
       <path id="Roboto-Bold-30" d="M 3372 1884 
Q 3372 856 2950 396 
Q 2528 -63 1840 -63 
Q 1153 -63 726 396 
Q 300 856 300 1884 
L 300 2675 
Q 300 3700 723 4156 
Q 1147 4613 1834 4613 
Q 2519 4613 2944 4159 
Q 3369 3706 3372 2691 
L 3372 1884 
z
M 2469 2800 
Q 2469 3406 2303 3645 
Q 2138 3884 1834 3884 
Q 1538 3884 1372 3650 
Q 1206 3416 1203 2825 
L 1203 1763 
Q 1203 1153 1370 909 
Q 1538 666 1841 666 
Q 2138 666 2302 905 
Q 2466 1144 2469 1738 
L 2469 2800 
z
" transform="scale(0.015625)"/>
       <path id="Roboto-Bold-35" d="M 1166 2063 
L 447 2238 
L 706 4550 
L 3256 4550 
L 3256 3800 
L 1450 3800 
L 1338 2819 
Q 1650 2991 2019 2991 
Q 2681 2991 3043 2587 
Q 3406 2184 3406 1463 
Q 3406 856 3031 396 
Q 2656 -63 1872 -63 
Q 1281 -63 814 287 
Q 347 638 331 1269 
L 1225 1269 
Q 1284 666 1866 666 
Q 2206 666 2354 911 
Q 2503 1156 2503 1513 
Q 2503 1872 2325 2092 
Q 2147 2313 1772 2313 
Q 1525 2313 1390 2233 
Q 1256 2153 1166 2063 
z
" transform="scale(0.015625)"/>
       <path id="Roboto-Bold-20" transform="scale(0.015625)"/>
       <path id="Roboto-Bold-4f" d="M 4147 2172 
Q 4147 1131 3608 534 
Q 3069 -63 2212 -63 
Q 1356 -63 812 534 
Q 269 1131 269 2172 
L 269 2375 
Q 269 3416 809 4014 
Q 1350 4613 2206 4613 
Q 3063 4613 3605 4014 
Q 4147 3416 4147 2375 
L 4147 2172 
z
M 3197 2381 
Q 3197 3094 2937 3466 
Q 2678 3838 2206 3838 
Q 1734 3838 1478 3470 
Q 1222 3103 1219 2397 
L 1219 2172 
Q 1219 1463 1478 1086 
Q 1738 709 2213 709 
Q 2684 709 2939 1081 
Q 3194 1453 3197 2156 
L 3197 2381 
z
" transform="scale(0.015625)"/>
       <path id="Roboto-Bold-47" d="M 4009 2391 
L 4009 575 
Q 3847 381 3433 159 
Q 3019 -63 2269 -63 
Q 1384 -63 839 510 
Q 294 1084 294 2138 
L 294 2409 
Q 294 3463 816 4039 
Q 1338 4616 2203 4616 
Q 3088 4616 3509 4191 
Q 3931 3766 4006 3103 
L 3094 3103 
Q 3041 3447 2847 3653 
Q 2653 3859 2228 3859 
Q 1306 3859 1250 2584 
L 1247 2138 
Q 1247 1419 1514 1056 
Q 1781 694 2319 694 
Q 2656 694 2825 770 
Q 2994 847 3069 919 
L 3069 1703 
L 2219 1703 
L 2219 2391 
L 4009 2391 
z
" transform="scale(0.015625)"/>
       <path id="Roboto-Bold-2d" d="M 2103 2316 
L 2103 1584 
L 347 1584 
L 347 2316 
L 2103 2316 
z
" transform="scale(0.015625)"/>
       <path id="Roboto-Bold-43" d="M 3044 1516 
L 3981 1516 
Q 3934 822 3461 379 
Q 2988 -63 2150 -63 
Q 1275 -63 772 526 
Q 269 1116 269 2125 
L 269 2422 
Q 269 3431 784 4023 
Q 1300 4616 2159 4616 
Q 3013 4616 3466 4161 
Q 3919 3706 3984 3006 
L 3047 3006 
Q 3016 3413 2820 3630 
Q 2625 3847 2159 3847 
Q 1247 3847 1222 2500 
L 1222 2125 
Q 1222 1419 1436 1062 
Q 1650 706 2150 706 
Q 2594 706 2801 907 
Q 3009 1109 3044 1516 
z
" transform="scale(0.015625)"/>
       <path id="Roboto-Bold-42" d="M 3788 1341 
Q 3788 684 3369 345 
Q 2950 6 2175 0 
L 406 0 
L 406 4550 
L 2003 4550 
Q 2794 4550 3241 4247 
Q 3688 3944 3688 3306 
Q 3688 2997 3531 2737 
Q 3375 2478 3038 2344 
Q 3438 2244 3613 1956 
Q 3788 1669 3788 1341 
z
M 1347 3791 
L 1347 2647 
L 2003 2647 
Q 2747 2647 2747 3209 
Q 2747 3778 2034 3791 
L 1347 3791 
z
M 2850 1350 
Q 2850 1963 2231 1984 
L 1347 1984 
L 1347 756 
L 2147 756 
Q 2506 756 2678 925 
Q 2850 1094 2850 1350 
z
" transform="scale(0.015625)"/>
       <path id="Roboto-Bold-41" d="M 25 0 
L 1719 4550 
L 2588 4550 
L 4291 0 
L 3291 0 
L 2978 938 
L 1331 938 
L 1019 0 
L 25 0 
z
M 1584 1697 
L 2725 1697 
L 2156 3406 
L 1584 1697 
z
" transform="scale(0.015625)"/>
       <path id="Roboto-Bold-4e" d="M 4109 4550 
L 4109 0 
L 3172 0 
L 1347 2997 
L 1347 0 
L 406 0 
L 406 4550 
L 1347 4550 
L 3172 1550 
L 3172 4550 
L 4109 4550 
z
" transform="scale(0.015625)"/>
       <path id="Roboto-Bold-44" d="M 406 0 
L 406 4550 
L 1809 4550 
Q 2728 4550 3308 3950 
Q 3888 3350 3888 2375 
L 3888 2172 
Q 3888 1197 3308 598 
Q 2728 0 1797 0 
L 406 0 
z
M 1347 3791 
L 1347 756 
L 1797 756 
Q 2350 756 2639 1115 
Q 2928 1475 2934 2144 
L 2934 2381 
Q 2934 3075 2661 3428 
Q 2388 3781 1838 3791 
L 1347 3791 
z
" transform="scale(0.015625)"/>
       <path id="Roboto-Bold-69" d="M 341 4256 
Q 341 4459 478 4592 
Q 616 4725 847 4725 
Q 1078 4725 1215 4592 
Q 1353 4459 1353 4256 
Q 1353 4056 1215 3923 
Q 1078 3791 847 3791 
Q 616 3791 478 3923 
Q 341 4056 341 4256 
z
M 1303 3381 
L 1303 0 
L 397 0 
L 397 3381 
L 1303 3381 
z
" transform="scale(0.015625)"/>
       <path id="Roboto-Bold-68" d="M 1803 2713 
Q 1409 2713 1231 2409 
L 1231 0 
L 328 0 
L 328 4800 
L 1231 4800 
L 1231 3016 
Q 1584 3444 2134 3444 
Q 2631 3444 2939 3150 
Q 3247 2856 3250 2147 
L 3250 0 
L 2344 0 
L 2344 2138 
Q 2344 2466 2203 2589 
Q 2063 2713 1803 2713 
z
" transform="scale(0.015625)"/>
       <path id="Roboto-Bold-64" d="M 2438 0 
L 2394 359 
Q 2059 -63 1528 -63 
Q 900 -63 553 425 
Q 206 913 206 1650 
L 206 1716 
Q 206 2488 553 2966 
Q 900 3444 1534 3444 
Q 2028 3444 2347 3078 
L 2347 4800 
L 3253 4800 
L 3253 0 
L 2438 0 
z
M 1113 1650 
Q 1113 1244 1256 958 
Q 1400 672 1756 672 
Q 2169 672 2347 1022 
L 2347 2363 
Q 2175 2713 1763 2713 
Q 1409 2713 1261 2425 
Q 1113 2138 1113 1650 
z
" transform="scale(0.015625)"/>
       <path id="Roboto-Bold-61" d="M 2306 0 
Q 2250 119 2216 303 
Q 1888 -63 1363 -63 
Q 878 -63 547 223 
Q 216 509 216 950 
Q 216 1481 609 1773 
Q 1003 2066 1775 2066 
L 2178 2066 
L 2178 2263 
Q 2178 2497 2058 2636 
Q 1938 2775 1678 2775 
Q 1194 2775 1194 2369 
L 291 2369 
Q 291 2809 681 3126 
Q 1072 3444 1728 3444 
Q 2313 3444 2698 3147 
Q 3084 2850 3084 2256 
L 3084 750 
Q 3091 300 3219 53 
L 3219 0 
L 2306 0 
z
M 1559 628 
Q 1788 628 1948 729 
Q 2109 831 2178 953 
L 2178 1541 
L 1809 1541 
Q 1450 1541 1284 1389 
Q 1119 1238 1119 1016 
Q 1119 847 1236 737 
Q 1353 628 1559 628 
z
" transform="scale(0.015625)"/>
       <path id="Roboto-Bold-6c" d="M 1303 4800 
L 1303 0 
L 397 0 
L 397 4800 
L 1303 4800 
z
" transform="scale(0.015625)"/>
       <path id="Roboto-Bold-5b" d="M 1728 5297 
L 1728 4600 
L 1281 4600 
L 1281 -366 
L 1728 -366 
L 1728 -1059 
L 375 -1059 
L 375 5297 
L 1728 5297 
z
" transform="scale(0.015625)"/>
       <path id="Roboto-Bold-b0" d="M 397 3750 
Q 397 4103 647 4358 
Q 897 4613 1247 4613 
Q 1591 4613 1836 4358 
Q 2081 4103 2081 3750 
Q 2081 3397 1836 3150 
Q 1591 2903 1247 2903 
Q 897 2903 647 3150 
Q 397 3397 397 3750 
z
M 853 3750 
Q 853 3584 970 3473 
Q 1088 3363 1247 3363 
Q 1406 3363 1515 3473 
Q 1625 3584 1625 3750 
Q 1625 3922 1515 4036 
Q 1406 4150 1247 4150 
Q 1088 4150 970 4036 
Q 853 3922 853 3750 
z
" transform="scale(0.015625)"/>
       <path id="Roboto-Bold-5d" d="M 41 4600 
L 41 5297 
L 1394 5297 
L 1394 -1059 
L 41 -1059 
L 41 -366 
L 491 -366 
L 491 4600 
L 41 4600 
z
" transform="scale(0.015625)"/>
      </defs>
      <use xlink:href="#Roboto-Bold-53"/>
      <use xlink:href="#Roboto-Bold-65" x="61.474609"/>
      <use xlink:href="#Roboto-Bold-72" x="115.527344"/>
      <use xlink:href="#Roboto-Bold-32" x="152.050781"/>
      <use xlink:href="#Roboto-Bold-30" x="209.423828"/>
      <use xlink:href="#Roboto-Bold-35" x="266.796875"/>
      <use xlink:href="#Roboto-Bold-20" x="324.169922"/>
      <use xlink:href="#Roboto-Bold-4f" x="349.072266"/>
      <use xlink:href="#Roboto-Bold-47" x="418.115234"/>
      <use xlink:href="#Roboto-Bold-2d" x="486.230469"/>
      <use xlink:href="#Roboto-Bold-43" x="525.048828"/>
      <use xlink:href="#Roboto-Bold-42" x="590.527344"/>
      <use xlink:href="#Roboto-Bold-2d" x="654.345703"/>
      <use xlink:href="#Roboto-Bold-43" x="693.164062"/>
      <use xlink:href="#Roboto-Bold-41" x="758.642578"/>
      <use xlink:href="#Roboto-Bold-2d" x="825.976562"/>
      <use xlink:href="#Roboto-Bold-4e" x="864.794922"/>
      <use xlink:href="#Roboto-Bold-20" x="935.449219"/>
      <use xlink:href="#Roboto-Bold-44" x="960.351562"/>
      <use xlink:href="#Roboto-Bold-69" x="1025.390625"/>
      <use xlink:href="#Roboto-Bold-68" x="1051.904297"/>
      <use xlink:href="#Roboto-Bold-65" x="1107.910156"/>
      <use xlink:href="#Roboto-Bold-64" x="1161.962891"/>
      <use xlink:href="#Roboto-Bold-72" x="1218.359375"/>
      <use xlink:href="#Roboto-Bold-61" x="1254.882812"/>
      <use xlink:href="#Roboto-Bold-6c" x="1308.496094"/>
      <use xlink:href="#Roboto-Bold-20" x="1335.009766"/>
      <use xlink:href="#Roboto-Bold-5b" x="1359.912109"/>
      <use xlink:href="#Roboto-Bold-b0" x="1387.744141"/>
      <use xlink:href="#Roboto-Bold-5d" x="1426.611328"/>
     </g>
    </g>
   </g>
   <g id="matplotlib.axis_2">
    <g id="ytick_1">
     <g id="line2d_11">
      <defs>
       <path id="m6af90f3907" d="M 0 0 
L -3.5 0 
" style="stroke: #c2c1c1; stroke-width: 0.8"/>
      </defs>
      <g>
       <use xlink:href="#m6af90f3907" x="47.252" y="273.394305" style="fill: #c2c1c1; stroke: #c2c1c1; stroke-width: 0.8"/>
      </g>
     </g>
     <g id="text_9">
      <!-- −6 -->
      <g style="fill: #191919" transform="translate(28.9145 277.144305) scale(0.1 -0.1)">
       <use xlink:href="#Roboto-Regular-2212"/>
       <use xlink:href="#Roboto-Regular-36" x="57.177734"/>
      </g>
     </g>
    </g>
    <g id="ytick_2">
     <g id="line2d_12">
      <g>
       <use xlink:href="#m6af90f3907" x="47.252" y="226.042613" style="fill: #c2c1c1; stroke: #c2c1c1; stroke-width: 0.8"/>
      </g>
     </g>
     <g id="text_10">
      <!-- −4 -->
      <g style="fill: #191919" transform="translate(28.9145 229.792613) scale(0.1 -0.1)">
       <use xlink:href="#Roboto-Regular-2212"/>
       <use xlink:href="#Roboto-Regular-34" x="57.177734"/>
      </g>
     </g>
    </g>
    <g id="ytick_3">
     <g id="line2d_13">
      <g>
       <use xlink:href="#m6af90f3907" x="47.252" y="178.690921" style="fill: #c2c1c1; stroke: #c2c1c1; stroke-width: 0.8"/>
      </g>
     </g>
     <g id="text_11">
      <!-- −2 -->
      <g style="fill: #191919" transform="translate(28.9145 182.440921) scale(0.1 -0.1)">
       <use xlink:href="#Roboto-Regular-2212"/>
       <use xlink:href="#Roboto-Regular-32" x="57.177734"/>
      </g>
     </g>
    </g>
    <g id="ytick_4">
     <g id="line2d_14">
      <g>
       <use xlink:href="#m6af90f3907" x="47.252" y="131.339229" style="fill: #c2c1c1; stroke: #c2c1c1; stroke-width: 0.8"/>
      </g>
     </g>
     <g id="text_12">
      <!-- 0 -->
      <g style="fill: #191919" transform="translate(34.631687 135.089229) scale(0.1 -0.1)">
       <use xlink:href="#Roboto-Regular-30"/>
      </g>
     </g>
    </g>
    <g id="ytick_5">
     <g id="line2d_15">
      <g>
       <use xlink:href="#m6af90f3907" x="47.252" y="83.987538" style="fill: #c2c1c1; stroke: #c2c1c1; stroke-width: 0.8"/>
      </g>
     </g>
     <g id="text_13">
      <!-- 2 -->
      <g style="fill: #191919" transform="translate(34.631687 87.737538) scale(0.1 -0.1)">
       <use xlink:href="#Roboto-Regular-32"/>
      </g>
     </g>
    </g>
    <g id="ytick_6">
     <g id="line2d_16">
      <g>
       <use xlink:href="#m6af90f3907" x="47.252" y="36.635846" style="fill: #c2c1c1; stroke: #c2c1c1; stroke-width: 0.8"/>
      </g>
     </g>
     <g id="text_14">
      <!-- 4 -->
      <g style="fill: #191919" transform="translate(34.631687 40.385846) scale(0.1 -0.1)">
       <use xlink:href="#Roboto-Regular-34"/>
      </g>
     </g>
    </g>
    <g id="text_15">
     <!-- PMF [kcal/mol] -->
     <g style="fill: #191919" transform="translate(22.477 197.355687) rotate(-90) scale(0.12 -0.12)">
      <defs>
       <path id="Roboto-Bold-50" d="M 1347 1606 
L 1347 0 
L 406 0 
L 406 4550 
L 2184 4550 
Q 2991 4550 3442 4125 
Q 3894 3700 3894 3047 
Q 3894 2388 3442 1997 
Q 2991 1606 2184 1606 
L 1347 1606 
z
M 1347 3791 
L 1347 2363 
L 2184 2363 
Q 2588 2363 2766 2553 
Q 2944 2744 2944 3041 
Q 2944 3338 2766 3564 
Q 2588 3791 2184 3791 
L 1347 3791 
z
" transform="scale(0.015625)"/>
       <path id="Roboto-Bold-4d" d="M 2800 1250 
L 3966 4550 
L 5194 4550 
L 5194 0 
L 4253 0 
L 4253 1244 
L 4347 3381 
L 3122 0 
L 2478 0 
L 1253 3381 
L 1347 1244 
L 1347 0 
L 406 0 
L 406 4550 
L 1634 4550 
L 2800 1250 
z
" transform="scale(0.015625)"/>
       <path id="Roboto-Bold-46" d="M 406 0 
L 406 4550 
L 3372 4550 
L 3372 3791 
L 1347 3791 
L 1347 2616 
L 3147 2616 
L 3147 1859 
L 1347 1859 
L 1347 0 
L 406 0 
z
" transform="scale(0.015625)"/>
       <path id="Roboto-Bold-6b" d="M 2444 0 
L 1575 1356 
L 1253 1034 
L 1253 0 
L 350 0 
L 350 4803 
L 1253 4803 
L 1253 2144 
L 1428 2369 
L 2291 3381 
L 3375 3381 
L 2156 1975 
L 3484 0 
L 2444 0 
z
" transform="scale(0.015625)"/>
       <path id="Roboto-Bold-63" d="M 1753 666 
Q 2000 666 2159 802 
Q 2319 938 2322 1169 
L 3172 1169 
Q 3166 631 2761 284 
Q 2356 -63 1769 -63 
Q 984 -63 595 432 
Q 206 928 206 1647 
L 206 1734 
Q 206 2450 593 2947 
Q 981 3444 1766 3444 
Q 2388 3444 2777 3087 
Q 3166 2731 3172 2122 
L 2322 2122 
Q 2319 2369 2172 2542 
Q 2025 2716 1750 2716 
Q 1356 2716 1234 2420 
Q 1113 2125 1113 1647 
Q 1113 1256 1233 961 
Q 1353 666 1753 666 
z
" transform="scale(0.015625)"/>
       <path id="Roboto-Bold-2f" d="M 2306 4550 
L 631 -391 
L -41 -391 
L 1634 4550 
L 2306 4550 
z
" transform="scale(0.015625)"/>
       <path id="Roboto-Bold-6d" d="M 1806 2713 
Q 1431 2713 1253 2394 
L 1253 0 
L 347 0 
L 347 3381 
L 1197 3381 
L 1228 3009 
Q 1581 3444 2197 3444 
Q 2850 3444 3094 2928 
Q 3441 3444 4109 3444 
Q 4597 3444 4894 3156 
Q 5191 2869 5194 2169 
L 5194 0 
L 4288 0 
L 4288 2156 
Q 4288 2494 4152 2603 
Q 4016 2713 3781 2713 
Q 3381 2713 3222 2334 
L 3222 0 
L 2319 0 
L 2319 2150 
Q 2319 2484 2181 2598 
Q 2044 2713 1806 2713 
z
" transform="scale(0.015625)"/>
       <path id="Roboto-Bold-6f" d="M 206 1722 
Q 206 2459 625 2951 
Q 1044 3444 1806 3444 
Q 2578 3444 2993 2951 
Q 3409 2459 3409 1722 
L 3409 1656 
Q 3409 919 2993 428 
Q 2578 -63 1813 -63 
Q 1053 -63 636 415 
Q 219 894 206 1616 
L 206 1722 
z
M 1113 1656 
Q 1113 1244 1270 955 
Q 1428 666 1813 666 
Q 2191 666 2348 953 
Q 2506 1241 2506 1722 
Q 2506 2125 2348 2420 
Q 2191 2716 1806 2716 
Q 1425 2716 1269 2422 
Q 1113 2128 1113 1656 
z
" transform="scale(0.015625)"/>
      </defs>
      <use xlink:href="#Roboto-Bold-50"/>
      <use xlink:href="#Roboto-Bold-4d" x="64.550781"/>
      <use xlink:href="#Roboto-Bold-46" x="152.148438"/>
      <use xlink:href="#Roboto-Bold-20" x="206.982422"/>
      <use xlink:href="#Roboto-Bold-5b" x="231.884766"/>
      <use xlink:href="#Roboto-Bold-6b" x="259.716797"/>
      <use xlink:href="#Roboto-Bold-63" x="313.134766"/>
      <use xlink:href="#Roboto-Bold-61" x="365.332031"/>
      <use xlink:href="#Roboto-Bold-6c" x="418.945312"/>
      <use xlink:href="#Roboto-Bold-2f" x="445.458984"/>
      <use xlink:href="#Roboto-Bold-6d" x="482.861328"/>
      <use xlink:href="#Roboto-Bold-6f" x="569.433594"/>
      <use xlink:href="#Roboto-Bold-6c" x="625.976562"/>
      <use xlink:href="#Roboto-Bold-5d" x="652.490234"/>
     </g>
    </g>
   </g>
   <g id="line2d_17">
    <path d="M 47.252 134.412515 
L 48.923438 137.874185 
L 50.594876 141.169444 
L 51.709168 144.110239 
L 54.494898 152.153309 
L 55.609191 154.618408 
L 56.723483 156.506035 
L 59.509213 160.544217 
L 64.523527 170.056653 
L 68.423549 176.601237 
L 70.652134 179.837045 
L 72.323572 181.988102 
L 73.99501 183.814261 
L 83.466492 192.959967 
L 85.13793 194.599223 
L 87.366515 197.245932 
L 89.595099 199.819831 
L 94.052267 204.603297 
L 95.723705 205.924472 
L 96.837997 206.549178 
L 97.952289 206.950804 
L 99.066581 207.159649 
L 100.738019 207.205748 
L 101.852312 207.049152 
L 102.966604 206.679168 
L 104.080896 206.070694 
L 105.195188 205.250418 
L 106.866626 203.670396 
L 108.538064 201.725186 
L 110.766648 198.787127 
L 112.438086 196.323937 
L 114.109524 193.474365 
L 117.452401 187.076275 
L 124.138153 174.552091 
L 126.366737 170.903985 
L 128.038175 167.958303 
L 130.823905 162.65349 
L 133.609636 157.958105 
L 135.281074 155.531546 
L 137.509658 152.368763 
L 141.40968 146.347442 
L 141.966826 145.872959 
L 142.523972 145.6251 
L 143.081118 145.621522 
L 143.638264 145.838786 
L 145.866848 147.320577 
L 146.423994 147.482491 
L 147.538287 147.453061 
L 149.209725 147.209117 
L 149.766871 147.337111 
L 150.324017 147.652948 
L 151.438309 148.748091 
L 152.552601 149.904349 
L 153.109747 150.292987 
L 153.666893 150.507272 
L 154.224039 150.562722 
L 155.338331 150.386025 
L 156.452623 150.188103 
L 157.566915 150.282839 
L 158.681207 150.810774 
L 161.466937 152.942827 
L 162.581229 153.343642 
L 165.36696 153.90968 
L 168.15269 154.104789 
L 170.381274 154.646335 
L 172.052712 154.660571 
L 174.281296 154.605393 
L 178.181318 154.76544 
L 180.409903 154.656875 
L 182.081341 154.917943 
L 183.195633 155.006528 
L 184.309925 154.682954 
L 187.095655 153.287301 
L 188.209947 152.771074 
L 189.324239 152.022453 
L 191.552823 150.115233 
L 193.224261 148.757864 
L 197.124284 145.909072 
L 198.795722 144.492237 
L 201.581452 141.751887 
L 202.695744 140.245932 
L 206.03862 135.39239 
L 207.152912 133.920398 
L 207.710058 133.338581 
L 208.267204 132.943699 
L 208.82435 132.746806 
L 210.495789 132.443391 
L 211.052935 132.042651 
L 211.610081 131.393963 
L 212.724373 129.488585 
L 214.395811 125.844935 
L 216.624395 120.612042 
L 217.181541 119.650814 
L 217.738687 119.002891 
L 218.295833 118.703853 
L 218.852979 118.7625 
L 219.410125 119.171248 
L 219.967271 119.885735 
L 221.638709 122.431219 
L 222.195855 122.797386 
L 222.753001 122.723567 
L 223.310147 122.216109 
L 223.867293 121.355791 
L 225.538732 117.859176 
L 226.653024 115.778226 
L 227.21017 115.115755 
L 227.767316 114.821234 
L 228.324462 114.860391 
L 229.438754 115.257746 
L 229.9959 115.260255 
L 230.553046 115.042376 
L 231.667338 114.303147 
L 232.224484 114.079972 
L 232.78163 114.106997 
L 233.338776 114.388485 
L 235.010214 115.606599 
L 235.56736 115.689691 
L 236.124506 115.521878 
L 237.795944 114.632516 
L 238.35309 114.685672 
L 238.910236 114.977498 
L 240.024529 115.965126 
L 241.138821 117.356181 
L 243.924551 121.919854 
L 245.595989 123.80698 
L 246.710281 125.607129 
L 248.381719 128.484712 
L 249.496011 129.799645 
L 254.510325 134.473627 
L 255.624618 135.259077 
L 256.73891 135.583817 
L 257.853202 135.565712 
L 258.967494 135.338105 
L 261.753224 134.520369 
L 263.424662 134.354786 
L 264.538954 133.868752 
L 265.653246 133.018467 
L 266.767538 131.87057 
L 267.88183 130.295718 
L 270.667561 125.653542 
L 272.338999 123.694139 
L 276.796167 118.831539 
L 277.910459 117.188241 
L 279.024751 115.199172 
L 280.139043 112.552338 
L 281.253335 108.916607 
L 282.924773 103.024999 
L 283.481919 101.569681 
L 284.039065 100.50658 
L 284.596211 99.785234 
L 286.824796 97.759648 
L 287.381942 96.633011 
L 287.939088 94.879349 
L 288.496234 92.376773 
L 289.610526 85.428123 
L 290.724818 78.822332 
L 291.281964 77.027634 
L 291.83911 76.189922 
L 292.953402 75.262311 
L 293.510548 74.433371 
L 295.181986 70.881674 
L 295.739132 70.347365 
L 296.853424 70.155414 
L 297.41057 69.448123 
L 297.967716 67.700098 
L 298.524862 64.642219 
L 299.082008 60.129263 
L 299.639154 54.087447 
L 300.1963 46.480346 
L 301.310592 26.508451 
L 302.466224 -1 
M 327.333719 -1 
L 328.053602 17.934169 
L 329.167894 42.047644 
L 330.282186 60.348067 
L 331.396478 73.252346 
L 331.953624 77.917402 
L 332.510771 81.60137 
L 333.625063 87.023334 
L 335.296501 94.518138 
L 336.410793 99.837772 
L 336.967939 101.99947 
L 337.525085 103.57342 
L 338.082231 104.489213 
L 338.639377 104.790431 
L 339.196523 104.644306 
L 339.753669 104.339712 
L 340.310815 104.23294 
L 340.867961 104.612392 
L 341.425107 105.552968 
L 344.210837 112.199122 
L 345.325129 113.851806 
L 346.996567 116.095655 
L 347.553713 117.113634 
L 348.11086 118.434849 
L 349.225152 122.021404 
L 350.339444 125.977637 
L 350.89659 127.643189 
L 351.453736 128.946802 
L 352.010882 129.87087 
L 352.568028 130.474091 
L 354.796612 132.188099 
L 355.910904 133.728756 
L 357.025196 135.659889 
L 360.368072 142.171006 
L 362.03951 144.278996 
L 363.710949 146.525529 
L 366.496679 150.512705 
L 368.168117 152.296754 
L 371.510993 155.651024 
L 373.739577 158.318243 
L 375.411015 160.117267 
L 378.196745 162.719185 
L 380.42533 165.084945 
L 381.539622 165.880996 
L 383.21106 166.593567 
L 385.99679 167.86894 
L 387.668228 168.670682 
L 389.896812 169.88979 
L 391.011104 170.223861 
L 392.125396 170.314766 
L 393.796834 170.199708 
L 396.025419 169.85786 
L 399.368295 169.07573 
L 401.039733 168.41866 
L 402.154025 167.82186 
L 403.268317 167.033883 
L 404.939755 165.509879 
L 407.168339 163.299884 
L 408.282631 161.929293 
L 410.511216 158.560047 
L 412.7398 154.861207 
L 417.196968 146.811723 
L 419.425552 141.415138 
L 421.09699 137.000369 
L 422.768428 132.278823 
L 423.325574 131.001063 
L 423.88272 130.046225 
L 424.439866 129.397971 
L 426.111305 127.867986 
L 426.668451 127.053115 
L 427.782743 124.774689 
L 428.897035 121.850908 
L 431.125619 115.629293 
L 432.797057 111.302828 
L 433.911349 108.08795 
L 434.468495 106.854268 
L 435.025641 106.313752 
L 435.582787 106.714954 
L 436.139933 108.057971 
L 437.254225 112.370394 
L 438.368517 116.385869 
L 438.925663 117.688043 
L 439.482809 118.440493 
L 440.039955 118.732865 
L 441.154248 118.880456 
L 441.711394 119.353605 
L 442.26854 120.362911 
L 443.382832 123.593934 
L 444.497124 126.995095 
L 445.611416 129.701317 
L 447.84 134.412515 
L 447.84 134.412515 
" clip-path="url(#pf46b09cd57)" style="fill: none; stroke: #f99752; stroke-width: 2.5; stroke-linecap: square"/>
   </g>
   <g id="patch_3">
    <path d="M 47.252 300.112 
L 47.252 12.96 
" style="fill: none; stroke: #c2c1c1; stroke-width: 0.8; stroke-linejoin: miter; stroke-linecap: square"/>
   </g>
   <g id="patch_4">
    <path d="M 447.84 300.112 
L 447.84 12.96 
" style="fill: none; stroke: #c2c1c1; stroke-width: 0.8; stroke-linejoin: miter; stroke-linecap: square"/>
   </g>
   <g id="patch_5">
    <path d="M 47.252 300.112 
L 447.84 300.112 
" style="fill: none; stroke: #c2c1c1; stroke-width: 0.8; stroke-linejoin: miter; stroke-linecap: square"/>
   </g>
   <g id="patch_6">
    <path d="M 47.252 12.96 
L 447.84 12.96 
" style="fill: none; stroke: #c2c1c1; stroke-width: 0.8; stroke-linejoin: miter; stroke-linecap: square"/>
   </g>
   <g id="legend_1">
    <g id="line2d_18">
     <path d="M 58.052 246.856375 
L 70.052 246.856375 
L 82.052 246.856375 
" style="fill: none; stroke: #1e2e79; stroke-width: 2.5; stroke-linecap: square"/>
    </g>
    <g id="text_16">
     <!-- Reduced -->
     <g transform="translate(91.652 251.056375) scale(0.12 -0.12)">
      <defs>
       <path id="Roboto-Regular-52" d="M 3188 0 
L 2200 1844 
L 1131 1844 
L 1131 0 
L 528 0 
L 528 4550 
L 2034 4550 
Q 2800 4550 3214 4200 
Q 3628 3850 3628 3184 
Q 3628 2759 3398 2442 
Q 3169 2125 2763 1969 
L 3831 38 
L 3831 0 
L 3188 0 
z
M 1131 4056 
L 1131 2334 
L 2053 2334 
Q 2538 2334 2783 2582 
Q 3028 2831 3028 3184 
Q 3028 3578 2792 3817 
Q 2556 4056 2034 4056 
L 1131 4056 
z
" transform="scale(0.015625)"/>
       <path id="Roboto-Regular-65" d="M 3116 591 
Q 2950 341 2647 139 
Q 2344 -63 1844 -63 
Q 1138 -63 714 396 
Q 291 856 291 1572 
L 291 1703 
Q 291 2256 502 2645 
Q 713 3034 1050 3239 
Q 1388 3444 1769 3444 
Q 2494 3444 2826 2970 
Q 3159 2497 3159 1788 
L 3159 1528 
L 872 1528 
Q 884 1063 1148 736 
Q 1413 409 1875 409 
Q 2181 409 2393 534 
Q 2606 659 2766 869 
L 3116 591 
z
M 1769 2969 
Q 1425 2969 1187 2719 
Q 950 2469 891 2000 
L 2581 2000 
L 2581 2044 
Q 2559 2381 2386 2675 
Q 2213 2969 1769 2969 
z
" transform="scale(0.015625)"/>
       <path id="Roboto-Regular-64" d="M 2622 0 
L 2594 363 
Q 2247 -63 1628 -63 
Q 1034 -63 668 418 
Q 303 900 297 1628 
L 297 1719 
Q 297 2494 664 2969 
Q 1031 3444 1634 3444 
Q 2231 3444 2572 3044 
L 2572 4800 
L 3153 4800 
L 3153 0 
L 2622 0 
z
M 878 1653 
Q 878 1150 1090 789 
Q 1303 428 1772 428 
Q 2309 428 2572 919 
L 2572 2475 
Q 2313 2956 1778 2956 
Q 1306 2956 1092 2589 
Q 878 2222 878 1719 
L 878 1653 
z
" transform="scale(0.015625)"/>
       <path id="Roboto-Regular-75" d="M 2538 0 
L 2525 334 
Q 2194 -63 1538 -63 
Q 1041 -63 734 231 
Q 428 525 428 1200 
L 428 3381 
L 1006 3381 
L 1006 1194 
Q 1006 738 1198 583 
Q 1391 428 1628 428 
Q 2281 428 2509 919 
L 2509 3381 
L 3091 3381 
L 3091 0 
L 2538 0 
z
" transform="scale(0.015625)"/>
       <path id="Roboto-Regular-63" d="M 1794 413 
Q 2103 413 2336 597 
Q 2569 781 2591 1069 
L 3141 1069 
Q 3119 616 2725 276 
Q 2331 -63 1794 -63 
Q 1031 -63 661 440 
Q 291 944 291 1625 
L 291 1756 
Q 291 2438 661 2941 
Q 1031 3444 1794 3444 
Q 2388 3444 2753 3092 
Q 3119 2741 3141 2219 
L 2591 2219 
Q 2569 2531 2355 2750 
Q 2141 2969 1794 2969 
Q 1438 2969 1236 2787 
Q 1034 2606 951 2328 
Q 869 2050 869 1756 
L 869 1625 
Q 869 1328 950 1050 
Q 1031 772 1232 592 
Q 1434 413 1794 413 
z
" transform="scale(0.015625)"/>
      </defs>
      <use xlink:href="#Roboto-Regular-52"/>
      <use xlink:href="#Roboto-Regular-65" x="61.621094"/>
      <use xlink:href="#Roboto-Regular-64" x="114.648438"/>
      <use xlink:href="#Roboto-Regular-75" x="171.044922"/>
      <use xlink:href="#Roboto-Regular-63" x="226.171875"/>
      <use xlink:href="#Roboto-Regular-65" x="278.515625"/>
      <use xlink:href="#Roboto-Regular-64" x="331.542969"/>
     </g>
    </g>
    <g id="line2d_19">
     <path d="M 58.052 264.293875 
L 70.052 264.293875 
L 82.052 264.293875 
" style="fill: none; stroke: #ec4067; stroke-width: 2.5; stroke-linecap: square"/>
    </g>
    <g id="text_17">
     <!-- Oxidized -->
     <g transform="translate(91.652 268.493875) scale(0.12 -0.12)">
      <defs>
       <path id="Roboto-Regular-4f" d="M 4031 2131 
Q 4031 1106 3534 521 
Q 3038 -63 2206 -63 
Q 1397 -63 884 521 
Q 372 1106 372 2131 
L 372 2419 
Q 372 3441 881 4027 
Q 1391 4613 2200 4613 
Q 3025 4613 3523 4036 
Q 4022 3459 4031 2456 
L 4031 2131 
z
M 3434 2425 
Q 3434 3238 3109 3669 
Q 2784 4100 2200 4100 
Q 1641 4100 1305 3669 
Q 969 3238 969 2425 
L 969 2131 
Q 969 1313 1308 880 
Q 1647 447 2206 447 
Q 2794 447 3114 880 
Q 3434 1313 3434 2131 
L 3434 2425 
z
" transform="scale(0.015625)"/>
       <path id="Roboto-Regular-78" d="M 831 3381 
L 1572 2150 
L 2322 3381 
L 3000 3381 
L 1894 1713 
L 3034 0 
L 2366 0 
L 1584 1269 
L 803 0 
L 131 0 
L 1269 1713 
L 166 3381 
L 831 3381 
z
" transform="scale(0.015625)"/>
       <path id="Roboto-Regular-69" d="M 444 4278 
Q 444 4419 530 4516 
Q 616 4613 784 4613 
Q 950 4613 1039 4516 
Q 1128 4419 1128 4278 
Q 1128 4144 1039 4048 
Q 950 3953 784 3953 
Q 616 3953 530 4048 
Q 444 4144 444 4278 
z
M 1069 3381 
L 1069 0 
L 488 0 
L 488 3381 
L 1069 3381 
z
" transform="scale(0.015625)"/>
       <path id="Roboto-Regular-7a" d="M 303 2903 
L 303 3381 
L 2869 3381 
L 2869 2972 
L 988 475 
L 2959 475 
L 2959 0 
L 278 0 
L 278 425 
L 2141 2903 
L 303 2903 
z
" transform="scale(0.015625)"/>
      </defs>
      <use xlink:href="#Roboto-Regular-4f"/>
      <use xlink:href="#Roboto-Regular-78" x="68.798828"/>
      <use xlink:href="#Roboto-Regular-69" x="118.408203"/>
      <use xlink:href="#Roboto-Regular-64" x="142.724609"/>
      <use xlink:href="#Roboto-Regular-69" x="199.121094"/>
      <use xlink:href="#Roboto-Regular-7a" x="223.4375"/>
      <use xlink:href="#Roboto-Regular-65" x="273.046875"/>
      <use xlink:href="#Roboto-Regular-64" x="326.074219"/>
     </g>
    </g>
    <g id="line2d_20">
     <path d="M 58.052 282.357625 
L 70.052 282.357625 
L 82.052 282.357625 
" style="fill: none; stroke: #f99752; stroke-width: 2.5; stroke-linecap: square"/>
    </g>
    <g id="text_18">
     <!-- Cu(I) -->
     <g transform="translate(91.652 286.557625) scale(0.12 -0.12)">
      <defs>
       <path id="Roboto-Regular-43" d="M 3275 1447 
L 3875 1447 
Q 3806 800 3387 368 
Q 2969 -63 2150 -63 
Q 1356 -63 870 504 
Q 384 1072 375 2013 
L 375 2500 
Q 375 3456 867 4034 
Q 1359 4613 2203 4613 
Q 2975 4613 3390 4188 
Q 3806 3763 3875 3091 
L 3275 3091 
Q 3206 3566 2968 3842 
Q 2731 4119 2203 4119 
Q 1600 4119 1287 3675 
Q 975 3231 975 2506 
L 975 2047 
Q 975 1375 1259 901 
Q 1544 428 2150 428 
Q 2725 428 2961 697 
Q 3197 966 3275 1447 
z
" transform="scale(0.015625)"/>
       <path id="Roboto-Regular-28" d="M 419 1850 
Q 419 2756 678 3434 
Q 938 4113 1294 4541 
Q 1650 4969 1947 5134 
L 2069 4753 
Q 1700 4475 1348 3761 
Q 997 3047 997 1813 
Q 997 625 1348 -97 
Q 1700 -819 2069 -1119 
L 1947 -1469 
Q 1650 -1306 1294 -878 
Q 938 -450 678 226 
Q 419 903 419 1850 
z
" transform="scale(0.015625)"/>
       <path id="Roboto-Regular-49" d="M 1175 4550 
L 1175 0 
L 572 0 
L 572 4550 
L 1175 4550 
z
" transform="scale(0.015625)"/>
       <path id="Roboto-Regular-29" d="M 1772 1819 
Q 1772 906 1512 228 
Q 1253 -450 895 -878 
Q 538 -1306 244 -1469 
L 122 -1119 
Q 488 -841 841 -109 
Q 1194 622 1194 1856 
Q 1194 2647 1019 3236 
Q 844 3825 594 4212 
Q 344 4600 122 4781 
L 244 5134 
Q 538 4969 895 4541 
Q 1253 4113 1512 3436 
Q 1772 2759 1772 1819 
z
" transform="scale(0.015625)"/>
      </defs>
      <use xlink:href="#Roboto-Regular-43"/>
      <use xlink:href="#Roboto-Regular-75" x="65.087891"/>
      <use xlink:href="#Roboto-Regular-28" x="120.214844"/>
      <use xlink:href="#Roboto-Regular-49" x="154.443359"/>
      <use xlink:href="#Roboto-Regular-29" x="181.640625"/>
     </g>
    </g>
   </g>
  </g>
 </g>
 <defs>
  <clipPath id="pf46b09cd57">
   <rect x="47.252" y="12.96" width="400.588" height="287.152"/>
  </clipPath>
 </defs>
</svg>
