<?xml version="1.0" encoding="utf-8" standalone="no"?>
<!DOCTYPE svg PUBLIC "-//W3C//DTD SVG 1.1//EN"
  "http://www.w3.org/Graphics/SVG/1.1/DTD/svg11.dtd">
<svg xmlns:xlink="http://www.w3.org/1999/xlink" width="460.8pt" height="345.6pt" viewBox="0 0 460.8 345.6" xmlns="http://www.w3.org/2000/svg" version="1.1">
 <metadata>
  <rdf:RDF xmlns:dc="http://purl.org/dc/elements/1.1/" xmlns:cc="http://creativecommons.org/ns#" xmlns:rdf="http://www.w3.org/1999/02/22-rdf-syntax-ns#">
   <cc:Work>
    <dc:type rdf:resource="http://purl.org/dc/dcmitype/StillImage"/>
    <dc:date>2024-07-06T18:18:53.471866</dc:date>
    <dc:format>image/svg+xml</dc:format>
    <dc:creator>
     <cc:Agent>
      <dc:title>Matplotlib v3.8.4, https://matplotlib.org/</dc:title>
     </cc:Agent>
    </dc:creator>
   </cc:Work>
  </rdf:RDF>
 </metadata>
 <defs>
  <style type="text/css">*{stroke-linejoin: round; stroke-linecap: butt}</style>
 </defs>
 <g id="figure_1">
  <g id="patch_1">
   <path d="M 0 345.6 
L 460.8 345.6 
L 460.8 0 
L 0 0 
z
" style="fill: #ffffff"/>
  </g>
  <g id="axes_1">
   <g id="patch_2">
    <path d="M 60.59 303.64 
L 450 303.64 
L 450 10.8 
L 60.59 10.8 
z
" style="fill: #ffffff"/>
   </g>
   <g id="line2d_1">
    <path d="M 60.59 222.894375 
L 64.487998 196.853131 
L 67.996196 173.964805 
L 69.945195 162.628129 
L 71.504394 154.729071 
L 72.673794 149.653999 
L 73.843193 145.412138 
L 75.012593 142.083717 
L 75.792192 140.404595 
L 76.571792 139.17482 
L 77.351391 138.405097 
L 78.130991 138.102143 
L 78.520791 138.126689 
L 79.30039 138.527543 
L 80.07999 139.394042 
L 80.85959 140.718595 
L 81.639189 142.489677 
L 82.808589 145.949127 
L 83.977988 150.311831 
L 85.147387 155.495923 
L 86.706587 163.520241 
L 88.655586 174.980419 
L 91.384184 192.743319 
L 97.231181 231.560225 
L 99.56998 245.464005 
L 101.518979 255.836727 
L 103.467978 264.973981 
L 105.027177 271.365481 
L 106.586376 276.950678 
L 108.145576 281.761908 
L 109.704775 285.847491 
L 111.263974 289.266437 
L 112.823173 292.08366 
L 114.382372 294.365848 
L 115.941572 296.178099 
L 117.500771 297.581333 
L 119.05997 298.630446 
L 120.619169 299.373141 
L 122.178368 299.849319 
L 123.737568 300.090938 
L 125.296767 300.122225 
L 126.855966 299.960142 
L 128.804965 299.500762 
L 130.753964 298.762314 
L 132.702963 297.740036 
L 134.651962 296.419204 
L 136.600961 294.777009 
L 138.54996 292.784001 
L 140.498959 290.405038 
L 142.447958 287.5998 
L 144.396957 284.323121 
L 146.345956 280.525594 
L 148.294955 276.155091 
L 150.243954 271.159973 
L 152.192953 265.494704 
L 154.141952 259.128283 
L 156.090951 252.055412 
L 158.42975 242.686095 
L 161.158348 230.753301 
L 168.564545 197.56793 
L 170.513544 190.277006 
L 172.072743 185.389766 
L 173.242142 182.395908 
L 174.411542 180.051866 
L 175.191141 178.877562 
L 175.970741 178.029256 
L 176.75034 177.516723 
L 177.52994 177.346564 
L 178.30954 177.522077 
L 179.089139 178.043183 
L 179.868739 178.906411 
L 180.648338 180.10495 
L 181.427938 181.628754 
L 182.597337 184.494865 
L 183.766737 188.006661 
L 185.325936 193.573985 
L 186.885135 199.979087 
L 189.223934 210.703403 
L 197.40973 249.720482 
L 199.748529 259.216915 
L 201.697528 266.205172 
L 203.646527 272.321357 
L 205.595526 277.588878 
L 207.154725 281.229975 
L 208.713924 284.404356 
L 210.273123 287.156332 
L 211.832322 289.531616 
L 213.391522 291.574961 
L 215.340521 293.726245 
L 217.28952 295.498809 
L 219.238519 296.957031 
L 221.187518 298.15535 
L 223.526316 299.31351 
L 225.865115 300.22576 
L 228.593714 301.045638 
L 231.712112 301.735012 
L 235.22031 302.27735 
L 239.508108 302.706765 
L 244.965305 303.019707 
L 253.151101 303.238164 
L 267.963493 303.367027 
L 285.114685 303.32391 
L 294.85968 303.078628 
L 303.825075 302.620198 
L 319.417067 301.756184 
L 325.264064 301.70169 
L 331.111061 301.879613 
L 338.517257 302.358559 
L 350.990851 303.188632 
L 359.176647 303.473798 
L 370.091041 303.604831 
L 394.258629 303.606763 
L 405.562823 303.445318 
L 411.40982 303.15581 
L 415.307818 302.762437 
L 418.426216 302.231813 
L 420.765015 301.634054 
L 422.714014 300.948581 
L 424.663013 300.034349 
L 426.222212 299.09193 
L 427.781411 297.915852 
L 429.340611 296.456427 
L 430.89981 294.657339 
L 432.459009 292.456249 
L 434.018208 289.786029 
L 435.577407 286.576734 
L 437.136607 282.758406 
L 438.695806 278.264734 
L 440.255005 273.037553 
L 441.814204 267.032026 
L 443.373403 260.222313 
L 445.322402 250.580496 
L 447.271401 239.748533 
L 449.6102 225.401734 
L 450 222.894375 
L 450 222.894375 
" clip-path="url(#p4264be1306)" style="fill: none; stroke: #1e2e79; stroke-width: 2.5; stroke-linecap: square"/>
   </g>
   <g id="line2d_2">
    <path d="M 60.59 288.266094 
L 66.436997 281.800088 
L 68.775796 279.606909 
L 70.724795 278.119057 
L 72.283994 277.205942 
L 73.843193 276.572476 
L 75.402392 276.239939 
L 76.571792 276.195126 
L 77.741191 276.326817 
L 78.910591 276.632315 
L 80.46979 277.299106 
L 82.028989 278.240851 
L 83.588188 279.425976 
L 85.537187 281.190495 
L 87.875986 283.609551 
L 97.620981 294.080888 
L 99.95978 296.103744 
L 102.298579 297.823907 
L 104.637377 299.239934 
L 106.976176 300.37116 
L 109.314975 301.25024 
L 112.043574 302.009379 
L 114.772172 302.541536 
L 118.28037 302.982183 
L 122.568168 303.27144 
L 127.635566 303.386335 
L 132.702963 303.285137 
L 136.211161 303.015362 
L 138.93976 302.595566 
L 141.278559 301.993088 
L 143.227558 301.235153 
L 144.786757 300.39862 
L 146.345956 299.296352 
L 147.905155 297.860261 
L 149.074555 296.516697 
L 150.243954 294.903049 
L 151.413353 292.978077 
L 152.582753 290.697416 
L 153.752152 288.014069 
L 154.921552 284.879105 
L 156.090951 281.242558 
L 157.65015 275.527543 
L 159.209349 268.718663 
L 160.768549 260.713418 
L 162.327748 251.427987 
L 163.886947 240.805442 
L 165.446146 228.824231 
L 167.395145 211.975492 
L 169.344144 193.19907 
L 171.682943 168.553921 
L 175.580941 124.598342 
L 179.089139 85.969068 
L 181.038138 66.781239 
L 182.597337 53.366025 
L 183.766737 44.715506 
L 184.936136 37.456199 
L 186.105536 31.729827 
L 186.885135 28.822536 
L 187.664735 26.676285 
L 188.444334 25.312194 
L 188.834134 24.92825 
L 189.223934 24.744742 
L 189.613734 24.762397 
L 190.003534 24.981498 
L 190.393333 25.401882 
L 191.172933 26.843601 
L 191.952533 29.077289 
L 192.732132 32.085614 
L 193.511732 35.844375 
L 194.681131 42.820599 
L 195.850531 51.28541 
L 197.40973 64.613928 
L 198.968929 79.878959 
L 201.307728 105.360238 
L 209.103724 193.490282 
L 211.052723 212.457331 
L 213.001722 229.301389 
L 214.560921 241.148826 
L 216.12012 251.543222 
L 217.679319 260.532709 
L 219.238519 268.203665 
L 220.797718 274.668956 
L 222.356917 280.057042 
L 223.916116 284.502558 
L 225.475315 288.138695 
L 227.034515 291.091521 
L 228.593714 293.476147 
L 230.152913 295.394551 
L 231.712112 296.934744 
L 233.271311 298.170976 
L 235.22031 299.381251 
L 237.169309 300.306778 
L 239.508108 301.141261 
L 242.236707 301.843932 
L 245.355105 302.403089 
L 249.253103 302.862252 
L 254.320501 303.213176 
L 261.336897 303.450519 
L 273.030891 303.585728 
L 288.233083 303.553993 
L 296.418879 303.333103 
L 302.655676 302.946942 
L 310.451672 302.209124 
L 317.468068 301.599324 
L 321.755866 301.436578 
L 326.043664 301.495651 
L 331.111061 301.811187 
L 350.211251 303.269431 
L 358.397047 303.511663 
L 370.480841 303.624229 
L 405.562823 303.624657 
L 417.256817 303.476877 
L 422.714014 303.19016 
L 426.612012 302.761068 
L 429.73041 302.190329 
L 432.459009 301.454039 
L 434.797808 300.596353 
L 437.136607 299.487218 
L 439.475405 298.092447 
L 441.814204 296.390613 
L 444.153003 294.380768 
L 446.491802 292.089718 
L 449.6102 288.705848 
L 450 288.266094 
L 450 288.266094 
" clip-path="url(#p4264be1306)" style="fill: none; stroke: #ec4067; stroke-width: 2.5; stroke-linecap: square"/>
   </g>
   <g id="matplotlib.axis_1">
    <g id="xtick_1">
     <g id="line2d_3">
      <defs>
       <path id="m916d8f5e31" d="M 0 0 
L 0 3.5 
" style="stroke: #000000; stroke-width: 0.8"/>
      </defs>
      <g>
       <use xlink:href="#m916d8f5e31" x="60.59" y="303.64" style="stroke: #000000; stroke-width: 0.8"/>
      </g>
     </g>
     <g id="text_1">
      <!-- −180 -->
      <g transform="translate(46.856406 318.238437) scale(0.1 -0.1)">
       <defs>
        <path id="DejaVuSans-2212" d="M 678 2272 
L 4684 2272 
L 4684 1741 
L 678 1741 
L 678 2272 
z
" transform="scale(0.015625)"/>
        <path id="DejaVuSans-31" d="M 794 531 
L 1825 531 
L 1825 4091 
L 703 3866 
L 703 4441 
L 1819 4666 
L 2450 4666 
L 2450 531 
L 3481 531 
L 3481 0 
L 794 0 
L 794 531 
z
" transform="scale(0.015625)"/>
        <path id="DejaVuSans-38" d="M 2034 2216 
Q 1584 2216 1326 1975 
Q 1069 1734 1069 1313 
Q 1069 891 1326 650 
Q 1584 409 2034 409 
Q 2484 409 2743 651 
Q 3003 894 3003 1313 
Q 3003 1734 2745 1975 
Q 2488 2216 2034 2216 
z
M 1403 2484 
Q 997 2584 770 2862 
Q 544 3141 544 3541 
Q 544 4100 942 4425 
Q 1341 4750 2034 4750 
Q 2731 4750 3128 4425 
Q 3525 4100 3525 3541 
Q 3525 3141 3298 2862 
Q 3072 2584 2669 2484 
Q 3125 2378 3379 2068 
Q 3634 1759 3634 1313 
Q 3634 634 3220 271 
Q 2806 -91 2034 -91 
Q 1263 -91 848 271 
Q 434 634 434 1313 
Q 434 1759 690 2068 
Q 947 2378 1403 2484 
z
M 1172 3481 
Q 1172 3119 1398 2916 
Q 1625 2713 2034 2713 
Q 2441 2713 2670 2916 
Q 2900 3119 2900 3481 
Q 2900 3844 2670 4047 
Q 2441 4250 2034 4250 
Q 1625 4250 1398 4047 
Q 1172 3844 1172 3481 
z
" transform="scale(0.015625)"/>
        <path id="DejaVuSans-30" d="M 2034 4250 
Q 1547 4250 1301 3770 
Q 1056 3291 1056 2328 
Q 1056 1369 1301 889 
Q 1547 409 2034 409 
Q 2525 409 2770 889 
Q 3016 1369 3016 2328 
Q 3016 3291 2770 3770 
Q 2525 4250 2034 4250 
z
M 2034 4750 
Q 2819 4750 3233 4129 
Q 3647 3509 3647 2328 
Q 3647 1150 3233 529 
Q 2819 -91 2034 -91 
Q 1250 -91 836 529 
Q 422 1150 422 2328 
Q 422 3509 836 4129 
Q 1250 4750 2034 4750 
z
" transform="scale(0.015625)"/>
       </defs>
       <use xlink:href="#DejaVuSans-2212"/>
       <use xlink:href="#DejaVuSans-31" x="83.789062"/>
       <use xlink:href="#DejaVuSans-38" x="147.412109"/>
       <use xlink:href="#DejaVuSans-30" x="211.035156"/>
      </g>
     </g>
    </g>
    <g id="xtick_2">
     <g id="line2d_4">
      <g>
       <use xlink:href="#m916d8f5e31" x="125.491667" y="303.64" style="stroke: #000000; stroke-width: 0.8"/>
      </g>
     </g>
     <g id="text_2">
      <!-- −120 -->
      <g transform="translate(111.758073 318.238437) scale(0.1 -0.1)">
       <defs>
        <path id="DejaVuSans-32" d="M 1228 531 
L 3431 531 
L 3431 0 
L 469 0 
L 469 531 
Q 828 903 1448 1529 
Q 2069 2156 2228 2338 
Q 2531 2678 2651 2914 
Q 2772 3150 2772 3378 
Q 2772 3750 2511 3984 
Q 2250 4219 1831 4219 
Q 1534 4219 1204 4116 
Q 875 4013 500 3803 
L 500 4441 
Q 881 4594 1212 4672 
Q 1544 4750 1819 4750 
Q 2544 4750 2975 4387 
Q 3406 4025 3406 3419 
Q 3406 3131 3298 2873 
Q 3191 2616 2906 2266 
Q 2828 2175 2409 1742 
Q 1991 1309 1228 531 
z
" transform="scale(0.015625)"/>
       </defs>
       <use xlink:href="#DejaVuSans-2212"/>
       <use xlink:href="#DejaVuSans-31" x="83.789062"/>
       <use xlink:href="#DejaVuSans-32" x="147.412109"/>
       <use xlink:href="#DejaVuSans-30" x="211.035156"/>
      </g>
     </g>
    </g>
    <g id="xtick_3">
     <g id="line2d_5">
      <g>
       <use xlink:href="#m916d8f5e31" x="190.393333" y="303.64" style="stroke: #000000; stroke-width: 0.8"/>
      </g>
     </g>
     <g id="text_3">
      <!-- −60 -->
      <g transform="translate(179.84099 318.238437) scale(0.1 -0.1)">
       <defs>
        <path id="DejaVuSans-36" d="M 2113 2584 
Q 1688 2584 1439 2293 
Q 1191 2003 1191 1497 
Q 1191 994 1439 701 
Q 1688 409 2113 409 
Q 2538 409 2786 701 
Q 3034 994 3034 1497 
Q 3034 2003 2786 2293 
Q 2538 2584 2113 2584 
z
M 3366 4563 
L 3366 3988 
Q 3128 4100 2886 4159 
Q 2644 4219 2406 4219 
Q 1781 4219 1451 3797 
Q 1122 3375 1075 2522 
Q 1259 2794 1537 2939 
Q 1816 3084 2150 3084 
Q 2853 3084 3261 2657 
Q 3669 2231 3669 1497 
Q 3669 778 3244 343 
Q 2819 -91 2113 -91 
Q 1303 -91 875 529 
Q 447 1150 447 2328 
Q 447 3434 972 4092 
Q 1497 4750 2381 4750 
Q 2619 4750 2861 4703 
Q 3103 4656 3366 4563 
z
" transform="scale(0.015625)"/>
       </defs>
       <use xlink:href="#DejaVuSans-2212"/>
       <use xlink:href="#DejaVuSans-36" x="83.789062"/>
       <use xlink:href="#DejaVuSans-30" x="147.412109"/>
      </g>
     </g>
    </g>
    <g id="xtick_4">
     <g id="line2d_6">
      <g>
       <use xlink:href="#m916d8f5e31" x="255.295" y="303.64" style="stroke: #000000; stroke-width: 0.8"/>
      </g>
     </g>
     <g id="text_4">
      <!-- 0 -->
      <g transform="translate(252.11375 318.238437) scale(0.1 -0.1)">
       <use xlink:href="#DejaVuSans-30"/>
      </g>
     </g>
    </g>
    <g id="xtick_5">
     <g id="line2d_7">
      <g>
       <use xlink:href="#m916d8f5e31" x="320.196667" y="303.64" style="stroke: #000000; stroke-width: 0.8"/>
      </g>
     </g>
     <g id="text_5">
      <!-- 60 -->
      <g transform="translate(313.834167 318.238437) scale(0.1 -0.1)">
       <use xlink:href="#DejaVuSans-36"/>
       <use xlink:href="#DejaVuSans-30" x="63.623047"/>
      </g>
     </g>
    </g>
    <g id="xtick_6">
     <g id="line2d_8">
      <g>
       <use xlink:href="#m916d8f5e31" x="385.098333" y="303.64" style="stroke: #000000; stroke-width: 0.8"/>
      </g>
     </g>
     <g id="text_6">
      <!-- 120 -->
      <g transform="translate(375.554583 318.238437) scale(0.1 -0.1)">
       <use xlink:href="#DejaVuSans-31"/>
       <use xlink:href="#DejaVuSans-32" x="63.623047"/>
       <use xlink:href="#DejaVuSans-30" x="127.246094"/>
      </g>
     </g>
    </g>
    <g id="xtick_7">
     <g id="line2d_9">
      <g>
       <use xlink:href="#m916d8f5e31" x="450" y="303.64" style="stroke: #000000; stroke-width: 0.8"/>
      </g>
     </g>
     <g id="text_7">
      <!-- 180 -->
      <g transform="translate(440.45625 318.238437) scale(0.1 -0.1)">
       <use xlink:href="#DejaVuSans-31"/>
       <use xlink:href="#DejaVuSans-38" x="63.623047"/>
       <use xlink:href="#DejaVuSans-30" x="127.246094"/>
      </g>
     </g>
    </g>
    <g id="text_8">
     <!-- SER205 OG-CB-CA-N Dihedral [°] -->
     <g transform="translate(172.923906 331.916562) scale(0.1 -0.1)">
      <defs>
       <path id="DejaVuSans-53" d="M 3425 4513 
L 3425 3897 
Q 3066 4069 2747 4153 
Q 2428 4238 2131 4238 
Q 1616 4238 1336 4038 
Q 1056 3838 1056 3469 
Q 1056 3159 1242 3001 
Q 1428 2844 1947 2747 
L 2328 2669 
Q 3034 2534 3370 2195 
Q 3706 1856 3706 1288 
Q 3706 609 3251 259 
Q 2797 -91 1919 -91 
Q 1588 -91 1214 -16 
Q 841 59 441 206 
L 441 856 
Q 825 641 1194 531 
Q 1563 422 1919 422 
Q 2459 422 2753 634 
Q 3047 847 3047 1241 
Q 3047 1584 2836 1778 
Q 2625 1972 2144 2069 
L 1759 2144 
Q 1053 2284 737 2584 
Q 422 2884 422 3419 
Q 422 4038 858 4394 
Q 1294 4750 2059 4750 
Q 2388 4750 2728 4690 
Q 3069 4631 3425 4513 
z
" transform="scale(0.015625)"/>
       <path id="DejaVuSans-45" d="M 628 4666 
L 3578 4666 
L 3578 4134 
L 1259 4134 
L 1259 2753 
L 3481 2753 
L 3481 2222 
L 1259 2222 
L 1259 531 
L 3634 531 
L 3634 0 
L 628 0 
L 628 4666 
z
" transform="scale(0.015625)"/>
       <path id="DejaVuSans-52" d="M 2841 2188 
Q 3044 2119 3236 1894 
Q 3428 1669 3622 1275 
L 4263 0 
L 3584 0 
L 2988 1197 
Q 2756 1666 2539 1819 
Q 2322 1972 1947 1972 
L 1259 1972 
L 1259 0 
L 628 0 
L 628 4666 
L 2053 4666 
Q 2853 4666 3247 4331 
Q 3641 3997 3641 3322 
Q 3641 2881 3436 2590 
Q 3231 2300 2841 2188 
z
M 1259 4147 
L 1259 2491 
L 2053 2491 
Q 2509 2491 2742 2702 
Q 2975 2913 2975 3322 
Q 2975 3731 2742 3939 
Q 2509 4147 2053 4147 
L 1259 4147 
z
" transform="scale(0.015625)"/>
       <path id="DejaVuSans-35" d="M 691 4666 
L 3169 4666 
L 3169 4134 
L 1269 4134 
L 1269 2991 
Q 1406 3038 1543 3061 
Q 1681 3084 1819 3084 
Q 2600 3084 3056 2656 
Q 3513 2228 3513 1497 
Q 3513 744 3044 326 
Q 2575 -91 1722 -91 
Q 1428 -91 1123 -41 
Q 819 9 494 109 
L 494 744 
Q 775 591 1075 516 
Q 1375 441 1709 441 
Q 2250 441 2565 725 
Q 2881 1009 2881 1497 
Q 2881 1984 2565 2268 
Q 2250 2553 1709 2553 
Q 1456 2553 1204 2497 
Q 953 2441 691 2322 
L 691 4666 
z
" transform="scale(0.015625)"/>
       <path id="DejaVuSans-20" transform="scale(0.015625)"/>
       <path id="DejaVuSans-4f" d="M 2522 4238 
Q 1834 4238 1429 3725 
Q 1025 3213 1025 2328 
Q 1025 1447 1429 934 
Q 1834 422 2522 422 
Q 3209 422 3611 934 
Q 4013 1447 4013 2328 
Q 4013 3213 3611 3725 
Q 3209 4238 2522 4238 
z
M 2522 4750 
Q 3503 4750 4090 4092 
Q 4678 3434 4678 2328 
Q 4678 1225 4090 567 
Q 3503 -91 2522 -91 
Q 1538 -91 948 565 
Q 359 1222 359 2328 
Q 359 3434 948 4092 
Q 1538 4750 2522 4750 
z
" transform="scale(0.015625)"/>
       <path id="DejaVuSans-47" d="M 3809 666 
L 3809 1919 
L 2778 1919 
L 2778 2438 
L 4434 2438 
L 4434 434 
Q 4069 175 3628 42 
Q 3188 -91 2688 -91 
Q 1594 -91 976 548 
Q 359 1188 359 2328 
Q 359 3472 976 4111 
Q 1594 4750 2688 4750 
Q 3144 4750 3555 4637 
Q 3966 4525 4313 4306 
L 4313 3634 
Q 3963 3931 3569 4081 
Q 3175 4231 2741 4231 
Q 1884 4231 1454 3753 
Q 1025 3275 1025 2328 
Q 1025 1384 1454 906 
Q 1884 428 2741 428 
Q 3075 428 3337 486 
Q 3600 544 3809 666 
z
" transform="scale(0.015625)"/>
       <path id="DejaVuSans-2d" d="M 313 2009 
L 1997 2009 
L 1997 1497 
L 313 1497 
L 313 2009 
z
" transform="scale(0.015625)"/>
       <path id="DejaVuSans-43" d="M 4122 4306 
L 4122 3641 
Q 3803 3938 3442 4084 
Q 3081 4231 2675 4231 
Q 1875 4231 1450 3742 
Q 1025 3253 1025 2328 
Q 1025 1406 1450 917 
Q 1875 428 2675 428 
Q 3081 428 3442 575 
Q 3803 722 4122 1019 
L 4122 359 
Q 3791 134 3420 21 
Q 3050 -91 2638 -91 
Q 1578 -91 968 557 
Q 359 1206 359 2328 
Q 359 3453 968 4101 
Q 1578 4750 2638 4750 
Q 3056 4750 3426 4639 
Q 3797 4528 4122 4306 
z
" transform="scale(0.015625)"/>
       <path id="DejaVuSans-42" d="M 1259 2228 
L 1259 519 
L 2272 519 
Q 2781 519 3026 730 
Q 3272 941 3272 1375 
Q 3272 1813 3026 2020 
Q 2781 2228 2272 2228 
L 1259 2228 
z
M 1259 4147 
L 1259 2741 
L 2194 2741 
Q 2656 2741 2882 2914 
Q 3109 3088 3109 3444 
Q 3109 3797 2882 3972 
Q 2656 4147 2194 4147 
L 1259 4147 
z
M 628 4666 
L 2241 4666 
Q 2963 4666 3353 4366 
Q 3744 4066 3744 3513 
Q 3744 3084 3544 2831 
Q 3344 2578 2956 2516 
Q 3422 2416 3680 2098 
Q 3938 1781 3938 1306 
Q 3938 681 3513 340 
Q 3088 0 2303 0 
L 628 0 
L 628 4666 
z
" transform="scale(0.015625)"/>
       <path id="DejaVuSans-41" d="M 2188 4044 
L 1331 1722 
L 3047 1722 
L 2188 4044 
z
M 1831 4666 
L 2547 4666 
L 4325 0 
L 3669 0 
L 3244 1197 
L 1141 1197 
L 716 0 
L 50 0 
L 1831 4666 
z
" transform="scale(0.015625)"/>
       <path id="DejaVuSans-4e" d="M 628 4666 
L 1478 4666 
L 3547 763 
L 3547 4666 
L 4159 4666 
L 4159 0 
L 3309 0 
L 1241 3903 
L 1241 0 
L 628 0 
L 628 4666 
z
" transform="scale(0.015625)"/>
       <path id="DejaVuSans-44" d="M 1259 4147 
L 1259 519 
L 2022 519 
Q 2988 519 3436 956 
Q 3884 1394 3884 2338 
Q 3884 3275 3436 3711 
Q 2988 4147 2022 4147 
L 1259 4147 
z
M 628 4666 
L 1925 4666 
Q 3281 4666 3915 4102 
Q 4550 3538 4550 2338 
Q 4550 1131 3912 565 
Q 3275 0 1925 0 
L 628 0 
L 628 4666 
z
" transform="scale(0.015625)"/>
       <path id="DejaVuSans-69" d="M 603 3500 
L 1178 3500 
L 1178 0 
L 603 0 
L 603 3500 
z
M 603 4863 
L 1178 4863 
L 1178 4134 
L 603 4134 
L 603 4863 
z
" transform="scale(0.015625)"/>
       <path id="DejaVuSans-68" d="M 3513 2113 
L 3513 0 
L 2938 0 
L 2938 2094 
Q 2938 2591 2744 2837 
Q 2550 3084 2163 3084 
Q 1697 3084 1428 2787 
Q 1159 2491 1159 1978 
L 1159 0 
L 581 0 
L 581 4863 
L 1159 4863 
L 1159 2956 
Q 1366 3272 1645 3428 
Q 1925 3584 2291 3584 
Q 2894 3584 3203 3211 
Q 3513 2838 3513 2113 
z
" transform="scale(0.015625)"/>
       <path id="DejaVuSans-65" d="M 3597 1894 
L 3597 1613 
L 953 1613 
Q 991 1019 1311 708 
Q 1631 397 2203 397 
Q 2534 397 2845 478 
Q 3156 559 3463 722 
L 3463 178 
Q 3153 47 2828 -22 
Q 2503 -91 2169 -91 
Q 1331 -91 842 396 
Q 353 884 353 1716 
Q 353 2575 817 3079 
Q 1281 3584 2069 3584 
Q 2775 3584 3186 3129 
Q 3597 2675 3597 1894 
z
M 3022 2063 
Q 3016 2534 2758 2815 
Q 2500 3097 2075 3097 
Q 1594 3097 1305 2825 
Q 1016 2553 972 2059 
L 3022 2063 
z
" transform="scale(0.015625)"/>
       <path id="DejaVuSans-64" d="M 2906 2969 
L 2906 4863 
L 3481 4863 
L 3481 0 
L 2906 0 
L 2906 525 
Q 2725 213 2448 61 
Q 2172 -91 1784 -91 
Q 1150 -91 751 415 
Q 353 922 353 1747 
Q 353 2572 751 3078 
Q 1150 3584 1784 3584 
Q 2172 3584 2448 3432 
Q 2725 3281 2906 2969 
z
M 947 1747 
Q 947 1113 1208 752 
Q 1469 391 1925 391 
Q 2381 391 2643 752 
Q 2906 1113 2906 1747 
Q 2906 2381 2643 2742 
Q 2381 3103 1925 3103 
Q 1469 3103 1208 2742 
Q 947 2381 947 1747 
z
" transform="scale(0.015625)"/>
       <path id="DejaVuSans-72" d="M 2631 2963 
Q 2534 3019 2420 3045 
Q 2306 3072 2169 3072 
Q 1681 3072 1420 2755 
Q 1159 2438 1159 1844 
L 1159 0 
L 581 0 
L 581 3500 
L 1159 3500 
L 1159 2956 
Q 1341 3275 1631 3429 
Q 1922 3584 2338 3584 
Q 2397 3584 2469 3576 
Q 2541 3569 2628 3553 
L 2631 2963 
z
" transform="scale(0.015625)"/>
       <path id="DejaVuSans-61" d="M 2194 1759 
Q 1497 1759 1228 1600 
Q 959 1441 959 1056 
Q 959 750 1161 570 
Q 1363 391 1709 391 
Q 2188 391 2477 730 
Q 2766 1069 2766 1631 
L 2766 1759 
L 2194 1759 
z
M 3341 1997 
L 3341 0 
L 2766 0 
L 2766 531 
Q 2569 213 2275 61 
Q 1981 -91 1556 -91 
Q 1019 -91 701 211 
Q 384 513 384 1019 
Q 384 1609 779 1909 
Q 1175 2209 1959 2209 
L 2766 2209 
L 2766 2266 
Q 2766 2663 2505 2880 
Q 2244 3097 1772 3097 
Q 1472 3097 1187 3025 
Q 903 2953 641 2809 
L 641 3341 
Q 956 3463 1253 3523 
Q 1550 3584 1831 3584 
Q 2591 3584 2966 3190 
Q 3341 2797 3341 1997 
z
" transform="scale(0.015625)"/>
       <path id="DejaVuSans-6c" d="M 603 4863 
L 1178 4863 
L 1178 0 
L 603 0 
L 603 4863 
z
" transform="scale(0.015625)"/>
       <path id="DejaVuSans-5b" d="M 550 4863 
L 1875 4863 
L 1875 4416 
L 1125 4416 
L 1125 -397 
L 1875 -397 
L 1875 -844 
L 550 -844 
L 550 4863 
z
" transform="scale(0.015625)"/>
       <path id="DejaVuSans-b0" d="M 1600 4347 
Q 1350 4347 1178 4173 
Q 1006 4000 1006 3750 
Q 1006 3503 1178 3333 
Q 1350 3163 1600 3163 
Q 1850 3163 2022 3333 
Q 2194 3503 2194 3750 
Q 2194 3997 2020 4172 
Q 1847 4347 1600 4347 
z
M 1600 4750 
Q 1800 4750 1984 4673 
Q 2169 4597 2303 4453 
Q 2447 4313 2519 4134 
Q 2591 3956 2591 3750 
Q 2591 3338 2302 3052 
Q 2013 2766 1594 2766 
Q 1172 2766 890 3047 
Q 609 3328 609 3750 
Q 609 4169 896 4459 
Q 1184 4750 1600 4750 
z
" transform="scale(0.015625)"/>
       <path id="DejaVuSans-5d" d="M 1947 4863 
L 1947 -844 
L 622 -844 
L 622 -397 
L 1369 -397 
L 1369 4416 
L 622 4416 
L 622 4863 
L 1947 4863 
z
" transform="scale(0.015625)"/>
      </defs>
      <use xlink:href="#DejaVuSans-53"/>
      <use xlink:href="#DejaVuSans-45" x="63.476562"/>
      <use xlink:href="#DejaVuSans-52" x="126.660156"/>
      <use xlink:href="#DejaVuSans-32" x="196.142578"/>
      <use xlink:href="#DejaVuSans-30" x="259.765625"/>
      <use xlink:href="#DejaVuSans-35" x="323.388672"/>
      <use xlink:href="#DejaVuSans-20" x="387.011719"/>
      <use xlink:href="#DejaVuSans-4f" x="418.798828"/>
      <use xlink:href="#DejaVuSans-47" x="497.509766"/>
      <use xlink:href="#DejaVuSans-2d" x="575"/>
      <use xlink:href="#DejaVuSans-43" x="611.083984"/>
      <use xlink:href="#DejaVuSans-42" x="680.908203"/>
      <use xlink:href="#DejaVuSans-2d" x="749.511719"/>
      <use xlink:href="#DejaVuSans-43" x="785.595703"/>
      <use xlink:href="#DejaVuSans-41" x="855.419922"/>
      <use xlink:href="#DejaVuSans-2d" x="921.578125"/>
      <use xlink:href="#DejaVuSans-4e" x="957.662109"/>
      <use xlink:href="#DejaVuSans-20" x="1032.466797"/>
      <use xlink:href="#DejaVuSans-44" x="1064.253906"/>
      <use xlink:href="#DejaVuSans-69" x="1141.255859"/>
      <use xlink:href="#DejaVuSans-68" x="1169.039062"/>
      <use xlink:href="#DejaVuSans-65" x="1232.417969"/>
      <use xlink:href="#DejaVuSans-64" x="1293.941406"/>
      <use xlink:href="#DejaVuSans-72" x="1357.417969"/>
      <use xlink:href="#DejaVuSans-61" x="1398.53125"/>
      <use xlink:href="#DejaVuSans-6c" x="1459.810547"/>
      <use xlink:href="#DejaVuSans-20" x="1487.59375"/>
      <use xlink:href="#DejaVuSans-5b" x="1519.380859"/>
      <use xlink:href="#DejaVuSans-b0" x="1558.394531"/>
      <use xlink:href="#DejaVuSans-5d" x="1608.394531"/>
     </g>
    </g>
   </g>
   <g id="matplotlib.axis_2">
    <g id="ytick_1">
     <g id="line2d_10">
      <defs>
       <path id="m4d562d3dae" d="M 0 0 
L -3.5 0 
" style="stroke: #000000; stroke-width: 0.8"/>
      </defs>
      <g>
       <use xlink:href="#m4d562d3dae" x="60.59" y="303.64" style="stroke: #000000; stroke-width: 0.8"/>
      </g>
     </g>
     <g id="text_9">
      <!-- 0.000 -->
      <g transform="translate(24.961875 307.439219) scale(0.1 -0.1)">
       <defs>
        <path id="DejaVuSans-2e" d="M 684 794 
L 1344 794 
L 1344 0 
L 684 0 
L 684 794 
z
" transform="scale(0.015625)"/>
       </defs>
       <use xlink:href="#DejaVuSans-30"/>
       <use xlink:href="#DejaVuSans-2e" x="63.623047"/>
       <use xlink:href="#DejaVuSans-30" x="95.410156"/>
       <use xlink:href="#DejaVuSans-30" x="159.033203"/>
       <use xlink:href="#DejaVuSans-30" x="222.65625"/>
      </g>
     </g>
    </g>
    <g id="ytick_2">
     <g id="line2d_11">
      <g>
       <use xlink:href="#m4d562d3dae" x="60.59" y="251.019721" style="stroke: #000000; stroke-width: 0.8"/>
      </g>
     </g>
     <g id="text_10">
      <!-- 0.005 -->
      <g transform="translate(24.961875 254.81894) scale(0.1 -0.1)">
       <use xlink:href="#DejaVuSans-30"/>
       <use xlink:href="#DejaVuSans-2e" x="63.623047"/>
       <use xlink:href="#DejaVuSans-30" x="95.410156"/>
       <use xlink:href="#DejaVuSans-30" x="159.033203"/>
       <use xlink:href="#DejaVuSans-35" x="222.65625"/>
      </g>
     </g>
    </g>
    <g id="ytick_3">
     <g id="line2d_12">
      <g>
       <use xlink:href="#m4d562d3dae" x="60.59" y="198.399443" style="stroke: #000000; stroke-width: 0.8"/>
      </g>
     </g>
     <g id="text_11">
      <!-- 0.010 -->
      <g transform="translate(24.961875 202.198662) scale(0.1 -0.1)">
       <use xlink:href="#DejaVuSans-30"/>
       <use xlink:href="#DejaVuSans-2e" x="63.623047"/>
       <use xlink:href="#DejaVuSans-30" x="95.410156"/>
       <use xlink:href="#DejaVuSans-31" x="159.033203"/>
       <use xlink:href="#DejaVuSans-30" x="222.65625"/>
      </g>
     </g>
    </g>
    <g id="ytick_4">
     <g id="line2d_13">
      <g>
       <use xlink:href="#m4d562d3dae" x="60.59" y="145.779164" style="stroke: #000000; stroke-width: 0.8"/>
      </g>
     </g>
     <g id="text_12">
      <!-- 0.015 -->
      <g transform="translate(24.961875 149.578383) scale(0.1 -0.1)">
       <use xlink:href="#DejaVuSans-30"/>
       <use xlink:href="#DejaVuSans-2e" x="63.623047"/>
       <use xlink:href="#DejaVuSans-30" x="95.410156"/>
       <use xlink:href="#DejaVuSans-31" x="159.033203"/>
       <use xlink:href="#DejaVuSans-35" x="222.65625"/>
      </g>
     </g>
    </g>
    <g id="ytick_5">
     <g id="line2d_14">
      <g>
       <use xlink:href="#m4d562d3dae" x="60.59" y="93.158886" style="stroke: #000000; stroke-width: 0.8"/>
      </g>
     </g>
     <g id="text_13">
      <!-- 0.020 -->
      <g transform="translate(24.961875 96.958105) scale(0.1 -0.1)">
       <use xlink:href="#DejaVuSans-30"/>
       <use xlink:href="#DejaVuSans-2e" x="63.623047"/>
       <use xlink:href="#DejaVuSans-30" x="95.410156"/>
       <use xlink:href="#DejaVuSans-32" x="159.033203"/>
       <use xlink:href="#DejaVuSans-30" x="222.65625"/>
      </g>
     </g>
    </g>
    <g id="ytick_6">
     <g id="line2d_15">
      <g>
       <use xlink:href="#m4d562d3dae" x="60.59" y="40.538607" style="stroke: #000000; stroke-width: 0.8"/>
      </g>
     </g>
     <g id="text_14">
      <!-- 0.025 -->
      <g transform="translate(24.961875 44.337826) scale(0.1 -0.1)">
       <use xlink:href="#DejaVuSans-30"/>
       <use xlink:href="#DejaVuSans-2e" x="63.623047"/>
       <use xlink:href="#DejaVuSans-30" x="95.410156"/>
       <use xlink:href="#DejaVuSans-32" x="159.033203"/>
       <use xlink:href="#DejaVuSans-35" x="222.65625"/>
      </g>
     </g>
    </g>
    <g id="text_15">
     <!-- Density -->
     <g transform="translate(18.882188 176.228594) rotate(-90) scale(0.1 -0.1)">
      <defs>
       <path id="DejaVuSans-6e" d="M 3513 2113 
L 3513 0 
L 2938 0 
L 2938 2094 
Q 2938 2591 2744 2837 
Q 2550 3084 2163 3084 
Q 1697 3084 1428 2787 
Q 1159 2491 1159 1978 
L 1159 0 
L 581 0 
L 581 3500 
L 1159 3500 
L 1159 2956 
Q 1366 3272 1645 3428 
Q 1925 3584 2291 3584 
Q 2894 3584 3203 3211 
Q 3513 2838 3513 2113 
z
" transform="scale(0.015625)"/>
       <path id="DejaVuSans-73" d="M 2834 3397 
L 2834 2853 
Q 2591 2978 2328 3040 
Q 2066 3103 1784 3103 
Q 1356 3103 1142 2972 
Q 928 2841 928 2578 
Q 928 2378 1081 2264 
Q 1234 2150 1697 2047 
L 1894 2003 
Q 2506 1872 2764 1633 
Q 3022 1394 3022 966 
Q 3022 478 2636 193 
Q 2250 -91 1575 -91 
Q 1294 -91 989 -36 
Q 684 19 347 128 
L 347 722 
Q 666 556 975 473 
Q 1284 391 1588 391 
Q 1994 391 2212 530 
Q 2431 669 2431 922 
Q 2431 1156 2273 1281 
Q 2116 1406 1581 1522 
L 1381 1569 
Q 847 1681 609 1914 
Q 372 2147 372 2553 
Q 372 3047 722 3315 
Q 1072 3584 1716 3584 
Q 2034 3584 2315 3537 
Q 2597 3491 2834 3397 
z
" transform="scale(0.015625)"/>
       <path id="DejaVuSans-74" d="M 1172 4494 
L 1172 3500 
L 2356 3500 
L 2356 3053 
L 1172 3053 
L 1172 1153 
Q 1172 725 1289 603 
Q 1406 481 1766 481 
L 2356 481 
L 2356 0 
L 1766 0 
Q 1100 0 847 248 
Q 594 497 594 1153 
L 594 3053 
L 172 3053 
L 172 3500 
L 594 3500 
L 594 4494 
L 1172 4494 
z
" transform="scale(0.015625)"/>
       <path id="DejaVuSans-79" d="M 2059 -325 
Q 1816 -950 1584 -1140 
Q 1353 -1331 966 -1331 
L 506 -1331 
L 506 -850 
L 844 -850 
Q 1081 -850 1212 -737 
Q 1344 -625 1503 -206 
L 1606 56 
L 191 3500 
L 800 3500 
L 1894 763 
L 2988 3500 
L 3597 3500 
L 2059 -325 
z
" transform="scale(0.015625)"/>
      </defs>
      <use xlink:href="#DejaVuSans-44"/>
      <use xlink:href="#DejaVuSans-65" x="77.001953"/>
      <use xlink:href="#DejaVuSans-6e" x="138.525391"/>
      <use xlink:href="#DejaVuSans-73" x="201.904297"/>
      <use xlink:href="#DejaVuSans-69" x="254.003906"/>
      <use xlink:href="#DejaVuSans-74" x="281.787109"/>
      <use xlink:href="#DejaVuSans-79" x="320.996094"/>
     </g>
    </g>
   </g>
   <g id="line2d_16">
    <path d="M 60.59 286.753695 
L 63.318599 285.149378 
L 65.657397 284.014301 
L 67.606396 283.288521 
L 69.555395 282.798263 
L 71.504394 282.569167 
L 73.063594 282.585256 
L 74.622793 282.782557 
L 76.571792 283.281448 
L 78.520791 284.047515 
L 80.46979 285.055752 
L 82.808589 286.534961 
L 85.537187 288.534248 
L 96.061782 296.591251 
L 98.79038 298.244073 
L 101.129179 299.423146 
L 103.467978 300.374444 
L 105.806777 301.101282 
L 108.145576 301.612361 
L 110.484374 301.91634 
L 112.823173 302.016876 
L 115.161972 301.908474 
L 117.500771 301.573285 
L 119.44977 301.097768 
L 121.398769 300.415258 
L 123.347768 299.490571 
L 125.296767 298.280686 
L 126.855966 297.073778 
L 128.415165 295.623284 
L 129.974364 293.897932 
L 131.533564 291.864514 
L 133.092763 289.488336 
L 134.651962 286.733641 
L 136.211161 283.563924 
L 137.77036 279.942084 
L 139.32956 275.830345 
L 140.888759 271.189927 
L 142.837758 264.584368 
L 144.786757 257.006246 
L 146.735756 248.366323 
L 148.684755 238.57117 
L 150.633754 227.529298 
L 152.582753 215.163552 
L 154.531752 201.430763 
L 156.870551 183.17723 
L 159.599149 159.72336 
L 163.886947 120.229585 
L 167.005345 92.453865 
L 168.954344 77.078816 
L 170.513544 66.567163 
L 171.682943 60.000888 
L 172.852342 54.740686 
L 173.631942 52.027636 
L 174.411542 49.9896 
L 175.191141 48.654007 
L 175.580941 48.256371 
L 175.970741 48.041554 
L 176.360541 48.01102 
L 176.75034 48.16576 
L 177.14014 48.506291 
L 177.91974 49.744395 
L 178.699339 51.719845 
L 179.478939 54.419509 
L 180.258539 57.822795 
L 181.427938 64.184549 
L 182.597337 71.944486 
L 184.156537 84.203157 
L 185.715736 98.260592 
L 188.054535 121.699028 
L 195.460731 198.279007 
L 197.40973 215.691244 
L 199.358729 231.175008 
L 200.917928 242.087634 
L 202.477127 251.687496 
L 204.036326 260.019449 
L 205.595526 267.160339 
L 207.154725 273.208115 
L 208.713924 278.272306 
L 210.273123 282.466252 
L 211.832322 285.901215 
L 213.391522 288.682294 
L 214.950721 290.905917 
L 216.50992 292.658613 
L 218.069119 294.016731 
L 219.628318 295.046802 
L 221.187518 295.806281 
L 222.746717 296.344467 
L 224.695716 296.769548 
L 227.034515 297.005267 
L 229.763113 297.019234 
L 233.271311 296.794651 
L 246.914304 295.681616 
L 250.812302 295.669105 
L 254.7103 295.877074 
L 258.608298 296.318286 
L 262.896096 297.051532 
L 268.353293 298.247574 
L 279.267688 300.706411 
L 284.335085 301.578339 
L 289.402482 302.209518 
L 294.46988 302.61879 
L 300.316877 302.865903 
L 306.553674 302.911307 
L 313.18027 302.739394 
L 332.67026 302.036642 
L 338.517257 302.223082 
L 347.872452 302.801979 
L 357.617447 303.316197 
L 366.582843 303.545461 
L 379.836036 303.630685 
L 398.546426 303.543518 
L 406.732222 303.299455 
L 412.189419 302.934029 
L 416.477217 302.448757 
L 420.375215 301.790961 
L 423.883413 300.971848 
L 427.001812 300.027305 
L 430.12021 298.852151 
L 433.238609 297.429531 
L 436.357007 295.757898 
L 439.865205 293.607847 
L 444.542803 290.439021 
L 450 286.753695 
L 450 286.753695 
" clip-path="url(#p4264be1306)" style="fill: none; stroke: #f99752; stroke-width: 2.5; stroke-linecap: square"/>
   </g>
   <g id="patch_3">
    <path d="M 60.59 303.64 
L 60.59 10.8 
" style="fill: none; stroke: #000000; stroke-width: 0.8; stroke-linejoin: miter; stroke-linecap: square"/>
   </g>
   <g id="patch_4">
    <path d="M 450 303.64 
L 450 10.8 
" style="fill: none; stroke: #000000; stroke-width: 0.8; stroke-linejoin: miter; stroke-linecap: square"/>
   </g>
   <g id="patch_5">
    <path d="M 60.59 303.64 
L 450 303.64 
" style="fill: none; stroke: #000000; stroke-width: 0.8; stroke-linejoin: miter; stroke-linecap: square"/>
   </g>
   <g id="patch_6">
    <path d="M 60.59 10.8 
L 450 10.8 
" style="fill: none; stroke: #000000; stroke-width: 0.8; stroke-linejoin: miter; stroke-linecap: square"/>
   </g>
   <g id="legend_1">
    <g id="patch_7">
     <path d="M 367.554688 62.834375 
L 443 62.834375 
Q 445 62.834375 445 60.834375 
L 445 17.8 
Q 445 15.8 443 15.8 
L 367.554688 15.8 
Q 365.554688 15.8 365.554688 17.8 
L 365.554688 60.834375 
Q 365.554688 62.834375 367.554688 62.834375 
z
" style="fill: #ffffff; opacity: 0.8; stroke: #cccccc; stroke-linejoin: miter"/>
    </g>
    <g id="line2d_17">
     <path d="M 369.554688 23.898438 
L 379.554688 23.898438 
L 389.554688 23.898438 
" style="fill: none; stroke: #1e2e79; stroke-width: 2.5; stroke-linecap: square"/>
    </g>
    <g id="text_16">
     <!-- Reduced -->
     <g transform="translate(397.554688 27.398438) scale(0.1 -0.1)">
      <defs>
       <path id="DejaVuSans-75" d="M 544 1381 
L 544 3500 
L 1119 3500 
L 1119 1403 
Q 1119 906 1312 657 
Q 1506 409 1894 409 
Q 2359 409 2629 706 
Q 2900 1003 2900 1516 
L 2900 3500 
L 3475 3500 
L 3475 0 
L 2900 0 
L 2900 538 
Q 2691 219 2414 64 
Q 2138 -91 1772 -91 
Q 1169 -91 856 284 
Q 544 659 544 1381 
z
M 1991 3584 
L 1991 3584 
z
" transform="scale(0.015625)"/>
       <path id="DejaVuSans-63" d="M 3122 3366 
L 3122 2828 
Q 2878 2963 2633 3030 
Q 2388 3097 2138 3097 
Q 1578 3097 1268 2742 
Q 959 2388 959 1747 
Q 959 1106 1268 751 
Q 1578 397 2138 397 
Q 2388 397 2633 464 
Q 2878 531 3122 666 
L 3122 134 
Q 2881 22 2623 -34 
Q 2366 -91 2075 -91 
Q 1284 -91 818 406 
Q 353 903 353 1747 
Q 353 2603 823 3093 
Q 1294 3584 2113 3584 
Q 2378 3584 2631 3529 
Q 2884 3475 3122 3366 
z
" transform="scale(0.015625)"/>
      </defs>
      <use xlink:href="#DejaVuSans-52"/>
      <use xlink:href="#DejaVuSans-65" x="64.982422"/>
      <use xlink:href="#DejaVuSans-64" x="126.505859"/>
      <use xlink:href="#DejaVuSans-75" x="189.982422"/>
      <use xlink:href="#DejaVuSans-63" x="253.361328"/>
      <use xlink:href="#DejaVuSans-65" x="308.341797"/>
      <use xlink:href="#DejaVuSans-64" x="369.865234"/>
     </g>
    </g>
    <g id="line2d_18">
     <path d="M 369.554688 38.576563 
L 379.554688 38.576563 
L 389.554688 38.576563 
" style="fill: none; stroke: #ec4067; stroke-width: 2.5; stroke-linecap: square"/>
    </g>
    <g id="text_17">
     <!-- Oxidized -->
     <g transform="translate(397.554688 42.076563) scale(0.1 -0.1)">
      <defs>
       <path id="DejaVuSans-78" d="M 3513 3500 
L 2247 1797 
L 3578 0 
L 2900 0 
L 1881 1375 
L 863 0 
L 184 0 
L 1544 1831 
L 300 3500 
L 978 3500 
L 1906 2253 
L 2834 3500 
L 3513 3500 
z
" transform="scale(0.015625)"/>
       <path id="DejaVuSans-7a" d="M 353 3500 
L 3084 3500 
L 3084 2975 
L 922 459 
L 3084 459 
L 3084 0 
L 275 0 
L 275 525 
L 2438 3041 
L 353 3041 
L 353 3500 
z
" transform="scale(0.015625)"/>
      </defs>
      <use xlink:href="#DejaVuSans-4f"/>
      <use xlink:href="#DejaVuSans-78" x="78.710938"/>
      <use xlink:href="#DejaVuSans-69" x="137.890625"/>
      <use xlink:href="#DejaVuSans-64" x="165.673828"/>
      <use xlink:href="#DejaVuSans-69" x="229.150391"/>
      <use xlink:href="#DejaVuSans-7a" x="256.933594"/>
      <use xlink:href="#DejaVuSans-65" x="309.423828"/>
      <use xlink:href="#DejaVuSans-64" x="370.947266"/>
     </g>
    </g>
    <g id="line2d_19">
     <path d="M 369.554688 53.254688 
L 379.554688 53.254688 
L 389.554688 53.254688 
" style="fill: none; stroke: #f99752; stroke-width: 2.5; stroke-linecap: square"/>
    </g>
    <g id="text_18">
     <!-- Cu$^{+}$ -->
     <g transform="translate(397.554688 56.754688) scale(0.1 -0.1)">
      <defs>
       <path id="DejaVuSans-2b" d="M 2944 4013 
L 2944 2272 
L 4684 2272 
L 4684 1741 
L 2944 1741 
L 2944 0 
L 2419 0 
L 2419 1741 
L 678 1741 
L 678 2272 
L 2419 2272 
L 2419 4013 
L 2944 4013 
z
" transform="scale(0.015625)"/>
      </defs>
      <use xlink:href="#DejaVuSans-43" transform="translate(0 0.826562)"/>
      <use xlink:href="#DejaVuSans-75" transform="translate(69.824219 0.826562)"/>
      <use xlink:href="#DejaVuSans-2b" transform="translate(134.160156 39.107812) scale(0.7)"/>
     </g>
    </g>
   </g>
  </g>
 </g>
 <defs>
  <clipPath id="p4264be1306">
   <rect x="60.59" y="10.8" width="389.41" height="292.84"/>
  </clipPath>
 </defs>
</svg>
