<?xml version="1.0" encoding="utf-8" standalone="no"?>
<!DOCTYPE svg PUBLIC "-//W3C//DTD SVG 1.1//EN"
  "http://www.w3.org/Graphics/SVG/1.1/DTD/svg11.dtd">
<svg xmlns:xlink="http://www.w3.org/1999/xlink" width="460.8pt" height="345.6pt" viewBox="0 0 460.8 345.6" xmlns="http://www.w3.org/2000/svg" version="1.1">
 <metadata>
  <rdf:RDF xmlns:dc="http://purl.org/dc/elements/1.1/" xmlns:cc="http://creativecommons.org/ns#" xmlns:rdf="http://www.w3.org/1999/02/22-rdf-syntax-ns#">
   <cc:Work>
    <dc:type rdf:resource="http://purl.org/dc/dcmitype/StillImage"/>
    <dc:date>2024-06-20T23:44:13.968653</dc:date>
    <dc:format>image/svg+xml</dc:format>
    <dc:creator>
     <cc:Agent>
      <dc:title>Matplotlib v3.8.4, https://matplotlib.org/</dc:title>
     </cc:Agent>
    </dc:creator>
   </cc:Work>
  </rdf:RDF>
 </metadata>
 <defs>
  <style type="text/css">*{stroke-linejoin: round; stroke-linecap: butt}</style>
 </defs>
 <g id="figure_1">
  <g id="patch_1">
   <path d="M 0 345.6 
L 460.8 345.6 
L 460.8 0 
L 0 0 
z
" style="fill: #ffffff"/>
  </g>
  <g id="axes_1">
   <g id="patch_2">
    <path d="M 47.81 302.8525 
L 446.805 302.8525 
L 446.805 10.8 
L 47.81 10.8 
z
" style="fill: #ffffff"/>
   </g>
   <g id="line2d_1">
    <path d="M -1 302.8525 
L 55.198796 302.763001 
L 58.527083 302.548486 
L 60.524055 302.254085 
L 62.521027 301.722827 
L 63.852342 301.166204 
L 65.183656 300.380765 
L 66.514971 299.294353 
L 67.846285 297.821333 
L 69.1776 295.863613 
L 70.508915 293.313219 
L 71.840229 290.056691 
L 73.171544 285.981412 
L 74.502859 280.983807 
L 75.834173 274.979047 
L 77.165488 267.911661 
L 78.496803 259.76616 
L 80.493775 245.616356 
L 82.490747 229.489913 
L 85.819033 200.152022 
L 88.481662 177.190628 
L 90.478634 162.09437 
L 91.809949 153.669901 
L 93.141264 146.884558 
L 93.806921 144.175357 
L 94.472578 141.949441 
L 95.138236 140.221376 
L 95.803893 139.000602 
L 96.46955 138.291367 
L 97.135208 138.092762 
L 97.800865 138.398835 
L 98.466522 139.1988 
L 99.13218 140.477309 
L 99.797837 142.214805 
L 100.463494 144.387929 
L 101.794809 149.931344 
L 103.126124 156.862615 
L 104.457438 164.907679 
L 106.45441 178.437078 
L 113.776641 230.109082 
L 115.773613 242.124287 
L 117.770585 252.690266 
L 119.767557 261.767805 
L 121.764529 269.416982 
L 123.095843 273.781745 
L 124.427158 277.6105 
L 125.758473 280.951196 
L 127.089787 283.85221 
L 128.421102 286.360564 
L 129.752417 288.520728 
L 131.083731 290.373908 
L 132.415046 291.95769 
L 134.412018 293.90137 
L 136.40899 295.413505 
L 138.405962 296.576193 
L 140.402934 297.455673 
L 142.399906 298.103127 
L 144.396878 298.55485 
L 146.39385 298.831806 
L 148.390822 298.938688 
L 150.387794 298.862616 
L 152.384766 298.571708 
L 154.381738 298.013871 
L 155.713052 297.458577 
L 157.044367 296.726164 
L 158.375682 295.786483 
L 159.706996 294.606357 
L 161.038311 293.150424 
L 162.369625 291.382289 
L 163.70094 289.265966 
L 165.032255 286.767626 
L 166.363569 283.857595 
L 167.694884 280.512543 
L 169.026199 276.717764 
L 171.023171 270.17745 
L 173.020143 262.663084 
L 175.017115 254.295066 
L 177.679744 242.171322 
L 183.005003 217.41739 
L 185.001974 209.118037 
L 186.998946 201.941549 
L 188.330261 197.935668 
L 189.661576 194.635762 
L 190.99289 192.089546 
L 192.324205 190.321498 
L 192.989862 189.730354 
L 193.65552 189.332026 
L 194.321177 189.122862 
L 194.986834 189.097806 
L 195.652492 189.250473 
L 196.318149 189.573233 
L 196.983806 190.057309 
L 198.315121 191.469239 
L 199.646436 193.397522 
L 200.97775 195.74297 
L 202.974722 199.812636 
L 209.631295 214.076443 
L 211.628267 217.518569 
L 212.959582 219.436803 
L 214.290897 221.027406 
L 215.622211 222.281444 
L 216.953526 223.200336 
L 218.284841 223.79395 
L 219.616155 224.078659 
L 220.94747 224.075503 
L 222.278785 223.808548 
L 223.610099 223.303531 
L 224.941414 222.586797 
L 226.938386 221.171833 
L 228.935358 219.424442 
L 231.597987 216.714198 
L 234.926274 212.949368 
L 245.576791 200.603726 
L 250.236392 195.679177 
L 254.230336 191.758954 
L 258.22428 188.128624 
L 262.218224 184.824125 
L 265.546511 182.388738 
L 268.20914 180.724237 
L 270.206112 179.690389 
L 272.203084 178.880966 
L 274.200056 178.334479 
L 276.197028 178.089424 
L 277.528343 178.111709 
L 278.859657 178.294145 
L 280.190972 178.645308 
L 281.522286 179.172047 
L 282.853601 179.879005 
L 284.184916 180.768207 
L 286.181888 182.440887 
L 288.17886 184.504869 
L 290.175832 186.929613 
L 292.172804 189.672814 
L 294.835433 193.738582 
L 298.16372 199.296005 
L 304.820293 211.056212 
L 309.479894 219.014861 
L 312.808181 224.249179 
L 315.47081 228.089556 
L 318.133439 231.604028 
L 320.796069 234.799547 
L 323.458698 237.694528 
L 326.121327 240.309686 
L 328.783956 242.662574 
L 331.446586 244.766525 
L 334.109215 246.632122 
L 336.771844 248.268302 
L 339.434474 249.681539 
L 342.097103 250.874191 
L 344.759732 251.844668 
L 347.422362 252.591293 
L 350.084991 253.119247 
L 352.74762 253.447885 
L 356.075907 253.638361 
L 366.060767 253.963719 
L 369.389053 254.422158 
L 372.051683 255.000533 
L 375.379969 255.984214 
L 378.708256 257.226517 
L 382.036542 258.692432 
L 386.030486 260.71843 
L 390.02443 263.028207 
L 394.018374 265.623352 
L 398.012318 268.485559 
L 404.668891 273.608936 
L 409.99415 277.58999 
L 413.988094 280.278304 
L 417.982038 282.673816 
L 422.641639 285.176359 
L 427.966898 287.777625 
L 433.292156 290.144445 
L 438.617415 292.250677 
L 443.277016 293.86718 
L 447.936617 295.266566 
L 452.596219 296.447184 
L 457.921477 297.556928 
L 461.8 298.236778 
L 461.8 298.236778 
" clip-path="url(#pdacab74eff)" style="fill: none; stroke: #1e2e79; stroke-width: 2.5; stroke-linecap: square"/>
   </g>
   <g id="line2d_2">
    <path d="M -1 302.852497 
L 32.566447 302.755899 
L 37.891706 302.522495 
L 41.219992 302.179018 
L 43.882622 301.696015 
L 45.879594 301.147665 
L 47.876566 300.376437 
L 49.873538 299.309261 
L 51.204852 298.389846 
L 52.536167 297.268553 
L 53.867482 295.91102 
L 55.198796 294.279492 
L 56.530111 292.333057 
L 57.861426 290.028051 
L 59.19274 287.318633 
L 60.524055 284.157564 
L 61.85537 280.497179 
L 63.186684 276.290571 
L 64.517999 271.492963 
L 65.849313 266.063253 
L 67.180628 259.965704 
L 69.1776 249.507045 
L 71.174572 237.426813 
L 73.171544 223.727148 
L 75.168516 208.480935 
L 77.831145 186.022801 
L 81.159432 155.410757 
L 87.816005 92.82251 
L 89.812977 75.847696 
L 91.809949 60.63244 
L 93.141264 51.703937 
L 94.472578 43.89521 
L 95.803893 37.314337 
L 97.135208 32.049879 
L 98.466522 28.168738 
L 99.13218 26.761508 
L 99.797837 25.714636 
L 100.463494 25.029825 
L 101.129152 24.707262 
L 101.794809 24.745627 
L 102.460466 25.142115 
L 103.126124 25.892469 
L 103.791781 26.991019 
L 104.457438 28.430738 
L 105.123096 30.203296 
L 106.45441 34.707517 
L 107.785725 40.413772 
L 109.11704 47.21634 
L 110.448354 54.996676 
L 112.445326 68.218195 
L 115.107955 88.02752 
L 119.101899 120.204098 
L 123.761501 157.548109 
L 126.42413 177.294893 
L 129.086759 195.234401 
L 131.083731 207.318886 
L 133.080703 218.153903 
L 135.077675 227.719304 
L 137.074647 236.028955 
L 139.071619 243.121373 
L 140.402934 247.1998 
L 141.734248 250.779473 
L 143.065563 253.879282 
L 144.396878 256.517956 
L 145.728192 258.713438 
L 147.059507 260.482419 
L 148.390822 261.840034 
L 149.722136 262.799703 
L 151.053451 263.373141 
L 152.384766 263.5705 
L 153.71608 263.400649 
L 155.047395 262.871566 
L 156.37871 261.990836 
L 157.710024 260.76621 
L 159.041339 259.206234 
L 160.372653 257.320883 
L 161.703968 255.122206 
L 163.70094 251.269778 
L 165.697912 246.80999 
L 167.694884 241.825953 
L 170.357513 234.54825 
L 179.676716 208.060791 
L 181.673688 203.265118 
L 183.67066 199.137413 
L 185.001974 196.822102 
L 186.333289 194.893809 
L 187.664604 193.377758 
L 188.995918 192.292125 
L 190.327233 191.647651 
L 191.658548 191.447462 
L 192.989862 191.687101 
L 194.321177 192.354763 
L 195.652492 193.43173 
L 196.983806 194.892985 
L 198.315121 196.707972 
L 199.646436 198.841485 
L 201.643408 202.553172 
L 203.64038 206.752091 
L 206.968666 214.434582 
L 213.625239 230.10516 
L 216.287869 235.772734 
L 218.950498 240.840991 
L 220.94747 244.195723 
L 222.944442 247.149114 
L 224.941414 249.700336 
L 226.938386 251.860311 
L 228.935358 253.648906 
L 230.93233 255.092341 
L 232.929302 256.220934 
L 234.926274 257.067277 
L 236.923246 257.664841 
L 238.920218 258.047005 
L 241.582847 258.277825 
L 244.245476 258.258271 
L 247.573763 257.989675 
L 260.221252 256.637884 
L 262.883881 256.670905 
L 265.546511 256.919516 
L 268.20914 257.414793 
L 270.871769 258.176936 
L 273.534399 259.214255 
L 276.197028 260.522868 
L 278.859657 262.087167 
L 281.522286 263.881046 
L 284.850573 266.392685 
L 288.844517 269.693132 
L 303.488978 282.132997 
L 307.482922 285.08049 
L 310.811209 287.287509 
L 314.139495 289.254756 
L 317.467782 290.984329 
L 320.796069 292.489162 
L 324.790013 294.027543 
L 328.783956 295.315264 
L 333.443558 296.561014 
L 338.768816 297.725921 
L 344.759732 298.796764 
L 351.416305 299.769013 
L 358.738536 300.625924 
L 366.726424 301.335321 
L 375.379969 301.873693 
L 385.364829 302.268547 
L 398.012318 302.534121 
L 414.653751 302.644417 
L 461.8 302.729161 
L 461.8 302.729161 
" clip-path="url(#pdacab74eff)" style="fill: none; stroke: #ec4067; stroke-width: 2.5; stroke-linecap: square"/>
   </g>
   <g id="matplotlib.axis_1">
    <g id="xtick_1">
     <g id="line2d_3">
      <defs>
       <path id="m7fe32eb9f0" d="M 0 0 
L 0 3.5 
" style="stroke: #000000; stroke-width: 0.8"/>
      </defs>
      <g>
       <use xlink:href="#m7fe32eb9f0" x="47.81" y="302.8525" style="stroke: #000000; stroke-width: 0.8"/>
      </g>
     </g>
     <g id="text_1">
      <!-- 1 -->
      <g transform="translate(44.62875 317.450938) scale(0.1 -0.1)">
       <defs>
        <path id="DejaVuSans-31" d="M 794 531 
L 1825 531 
L 1825 4091 
L 703 3866 
L 703 4441 
L 1819 4666 
L 2450 4666 
L 2450 531 
L 3481 531 
L 3481 0 
L 794 0 
L 794 531 
z
" transform="scale(0.015625)"/>
       </defs>
       <use xlink:href="#DejaVuSans-31"/>
      </g>
     </g>
    </g>
    <g id="xtick_2">
     <g id="line2d_4">
      <g>
       <use xlink:href="#m7fe32eb9f0" x="114.309167" y="302.8525" style="stroke: #000000; stroke-width: 0.8"/>
      </g>
     </g>
     <g id="text_2">
      <!-- 2 -->
      <g transform="translate(111.127917 317.450938) scale(0.1 -0.1)">
       <defs>
        <path id="DejaVuSans-32" d="M 1228 531 
L 3431 531 
L 3431 0 
L 469 0 
L 469 531 
Q 828 903 1448 1529 
Q 2069 2156 2228 2338 
Q 2531 2678 2651 2914 
Q 2772 3150 2772 3378 
Q 2772 3750 2511 3984 
Q 2250 4219 1831 4219 
Q 1534 4219 1204 4116 
Q 875 4013 500 3803 
L 500 4441 
Q 881 4594 1212 4672 
Q 1544 4750 1819 4750 
Q 2544 4750 2975 4387 
Q 3406 4025 3406 3419 
Q 3406 3131 3298 2873 
Q 3191 2616 2906 2266 
Q 2828 2175 2409 1742 
Q 1991 1309 1228 531 
z
" transform="scale(0.015625)"/>
       </defs>
       <use xlink:href="#DejaVuSans-32"/>
      </g>
     </g>
    </g>
    <g id="xtick_3">
     <g id="line2d_5">
      <g>
       <use xlink:href="#m7fe32eb9f0" x="180.808333" y="302.8525" style="stroke: #000000; stroke-width: 0.8"/>
      </g>
     </g>
     <g id="text_3">
      <!-- 3 -->
      <g transform="translate(177.627083 317.450938) scale(0.1 -0.1)">
       <defs>
        <path id="DejaVuSans-33" d="M 2597 2516 
Q 3050 2419 3304 2112 
Q 3559 1806 3559 1356 
Q 3559 666 3084 287 
Q 2609 -91 1734 -91 
Q 1441 -91 1130 -33 
Q 819 25 488 141 
L 488 750 
Q 750 597 1062 519 
Q 1375 441 1716 441 
Q 2309 441 2620 675 
Q 2931 909 2931 1356 
Q 2931 1769 2642 2001 
Q 2353 2234 1838 2234 
L 1294 2234 
L 1294 2753 
L 1863 2753 
Q 2328 2753 2575 2939 
Q 2822 3125 2822 3475 
Q 2822 3834 2567 4026 
Q 2313 4219 1838 4219 
Q 1578 4219 1281 4162 
Q 984 4106 628 3988 
L 628 4550 
Q 988 4650 1302 4700 
Q 1616 4750 1894 4750 
Q 2613 4750 3031 4423 
Q 3450 4097 3450 3541 
Q 3450 3153 3228 2886 
Q 3006 2619 2597 2516 
z
" transform="scale(0.015625)"/>
       </defs>
       <use xlink:href="#DejaVuSans-33"/>
      </g>
     </g>
    </g>
    <g id="xtick_4">
     <g id="line2d_6">
      <g>
       <use xlink:href="#m7fe32eb9f0" x="247.3075" y="302.8525" style="stroke: #000000; stroke-width: 0.8"/>
      </g>
     </g>
     <g id="text_4">
      <!-- 4 -->
      <g transform="translate(244.12625 317.450938) scale(0.1 -0.1)">
       <defs>
        <path id="DejaVuSans-34" d="M 2419 4116 
L 825 1625 
L 2419 1625 
L 2419 4116 
z
M 2253 4666 
L 3047 4666 
L 3047 1625 
L 3713 1625 
L 3713 1100 
L 3047 1100 
L 3047 0 
L 2419 0 
L 2419 1100 
L 313 1100 
L 313 1709 
L 2253 4666 
z
" transform="scale(0.015625)"/>
       </defs>
       <use xlink:href="#DejaVuSans-34"/>
      </g>
     </g>
    </g>
    <g id="xtick_5">
     <g id="line2d_7">
      <g>
       <use xlink:href="#m7fe32eb9f0" x="313.806667" y="302.8525" style="stroke: #000000; stroke-width: 0.8"/>
      </g>
     </g>
     <g id="text_5">
      <!-- 5 -->
      <g transform="translate(310.625417 317.450938) scale(0.1 -0.1)">
       <defs>
        <path id="DejaVuSans-35" d="M 691 4666 
L 3169 4666 
L 3169 4134 
L 1269 4134 
L 1269 2991 
Q 1406 3038 1543 3061 
Q 1681 3084 1819 3084 
Q 2600 3084 3056 2656 
Q 3513 2228 3513 1497 
Q 3513 744 3044 326 
Q 2575 -91 1722 -91 
Q 1428 -91 1123 -41 
Q 819 9 494 109 
L 494 744 
Q 775 591 1075 516 
Q 1375 441 1709 441 
Q 2250 441 2565 725 
Q 2881 1009 2881 1497 
Q 2881 1984 2565 2268 
Q 2250 2553 1709 2553 
Q 1456 2553 1204 2497 
Q 953 2441 691 2322 
L 691 4666 
z
" transform="scale(0.015625)"/>
       </defs>
       <use xlink:href="#DejaVuSans-35"/>
      </g>
     </g>
    </g>
    <g id="xtick_6">
     <g id="line2d_8">
      <g>
       <use xlink:href="#m7fe32eb9f0" x="380.305833" y="302.8525" style="stroke: #000000; stroke-width: 0.8"/>
      </g>
     </g>
     <g id="text_6">
      <!-- 6 -->
      <g transform="translate(377.124583 317.450938) scale(0.1 -0.1)">
       <defs>
        <path id="DejaVuSans-36" d="M 2113 2584 
Q 1688 2584 1439 2293 
Q 1191 2003 1191 1497 
Q 1191 994 1439 701 
Q 1688 409 2113 409 
Q 2538 409 2786 701 
Q 3034 994 3034 1497 
Q 3034 2003 2786 2293 
Q 2538 2584 2113 2584 
z
M 3366 4563 
L 3366 3988 
Q 3128 4100 2886 4159 
Q 2644 4219 2406 4219 
Q 1781 4219 1451 3797 
Q 1122 3375 1075 2522 
Q 1259 2794 1537 2939 
Q 1816 3084 2150 3084 
Q 2853 3084 3261 2657 
Q 3669 2231 3669 1497 
Q 3669 778 3244 343 
Q 2819 -91 2113 -91 
Q 1303 -91 875 529 
Q 447 1150 447 2328 
Q 447 3434 972 4092 
Q 1497 4750 2381 4750 
Q 2619 4750 2861 4703 
Q 3103 4656 3366 4563 
z
" transform="scale(0.015625)"/>
       </defs>
       <use xlink:href="#DejaVuSans-36"/>
      </g>
     </g>
    </g>
    <g id="xtick_7">
     <g id="line2d_9">
      <g>
       <use xlink:href="#m7fe32eb9f0" x="446.805" y="302.8525" style="stroke: #000000; stroke-width: 0.8"/>
      </g>
     </g>
     <g id="text_7">
      <!-- 7 -->
      <g transform="translate(443.62375 317.450938) scale(0.1 -0.1)">
       <defs>
        <path id="DejaVuSans-37" d="M 525 4666 
L 3525 4666 
L 3525 4397 
L 1831 0 
L 1172 0 
L 2766 4134 
L 525 4134 
L 525 4666 
z
" transform="scale(0.015625)"/>
       </defs>
       <use xlink:href="#DejaVuSans-37"/>
      </g>
     </g>
    </g>
    <g id="text_8">
     <!-- CRO66 OH - H2O H Distance [Å] -->
     <g transform="translate(167.187187 332.0525) scale(0.1 -0.1)">
      <defs>
       <path id="DejaVuSans-43" d="M 4122 4306 
L 4122 3641 
Q 3803 3938 3442 4084 
Q 3081 4231 2675 4231 
Q 1875 4231 1450 3742 
Q 1025 3253 1025 2328 
Q 1025 1406 1450 917 
Q 1875 428 2675 428 
Q 3081 428 3442 575 
Q 3803 722 4122 1019 
L 4122 359 
Q 3791 134 3420 21 
Q 3050 -91 2638 -91 
Q 1578 -91 968 557 
Q 359 1206 359 2328 
Q 359 3453 968 4101 
Q 1578 4750 2638 4750 
Q 3056 4750 3426 4639 
Q 3797 4528 4122 4306 
z
" transform="scale(0.015625)"/>
       <path id="DejaVuSans-52" d="M 2841 2188 
Q 3044 2119 3236 1894 
Q 3428 1669 3622 1275 
L 4263 0 
L 3584 0 
L 2988 1197 
Q 2756 1666 2539 1819 
Q 2322 1972 1947 1972 
L 1259 1972 
L 1259 0 
L 628 0 
L 628 4666 
L 2053 4666 
Q 2853 4666 3247 4331 
Q 3641 3997 3641 3322 
Q 3641 2881 3436 2590 
Q 3231 2300 2841 2188 
z
M 1259 4147 
L 1259 2491 
L 2053 2491 
Q 2509 2491 2742 2702 
Q 2975 2913 2975 3322 
Q 2975 3731 2742 3939 
Q 2509 4147 2053 4147 
L 1259 4147 
z
" transform="scale(0.015625)"/>
       <path id="DejaVuSans-4f" d="M 2522 4238 
Q 1834 4238 1429 3725 
Q 1025 3213 1025 2328 
Q 1025 1447 1429 934 
Q 1834 422 2522 422 
Q 3209 422 3611 934 
Q 4013 1447 4013 2328 
Q 4013 3213 3611 3725 
Q 3209 4238 2522 4238 
z
M 2522 4750 
Q 3503 4750 4090 4092 
Q 4678 3434 4678 2328 
Q 4678 1225 4090 567 
Q 3503 -91 2522 -91 
Q 1538 -91 948 565 
Q 359 1222 359 2328 
Q 359 3434 948 4092 
Q 1538 4750 2522 4750 
z
" transform="scale(0.015625)"/>
       <path id="DejaVuSans-20" transform="scale(0.015625)"/>
       <path id="DejaVuSans-48" d="M 628 4666 
L 1259 4666 
L 1259 2753 
L 3553 2753 
L 3553 4666 
L 4184 4666 
L 4184 0 
L 3553 0 
L 3553 2222 
L 1259 2222 
L 1259 0 
L 628 0 
L 628 4666 
z
" transform="scale(0.015625)"/>
       <path id="DejaVuSans-2d" d="M 313 2009 
L 1997 2009 
L 1997 1497 
L 313 1497 
L 313 2009 
z
" transform="scale(0.015625)"/>
       <path id="DejaVuSans-44" d="M 1259 4147 
L 1259 519 
L 2022 519 
Q 2988 519 3436 956 
Q 3884 1394 3884 2338 
Q 3884 3275 3436 3711 
Q 2988 4147 2022 4147 
L 1259 4147 
z
M 628 4666 
L 1925 4666 
Q 3281 4666 3915 4102 
Q 4550 3538 4550 2338 
Q 4550 1131 3912 565 
Q 3275 0 1925 0 
L 628 0 
L 628 4666 
z
" transform="scale(0.015625)"/>
       <path id="DejaVuSans-69" d="M 603 3500 
L 1178 3500 
L 1178 0 
L 603 0 
L 603 3500 
z
M 603 4863 
L 1178 4863 
L 1178 4134 
L 603 4134 
L 603 4863 
z
" transform="scale(0.015625)"/>
       <path id="DejaVuSans-73" d="M 2834 3397 
L 2834 2853 
Q 2591 2978 2328 3040 
Q 2066 3103 1784 3103 
Q 1356 3103 1142 2972 
Q 928 2841 928 2578 
Q 928 2378 1081 2264 
Q 1234 2150 1697 2047 
L 1894 2003 
Q 2506 1872 2764 1633 
Q 3022 1394 3022 966 
Q 3022 478 2636 193 
Q 2250 -91 1575 -91 
Q 1294 -91 989 -36 
Q 684 19 347 128 
L 347 722 
Q 666 556 975 473 
Q 1284 391 1588 391 
Q 1994 391 2212 530 
Q 2431 669 2431 922 
Q 2431 1156 2273 1281 
Q 2116 1406 1581 1522 
L 1381 1569 
Q 847 1681 609 1914 
Q 372 2147 372 2553 
Q 372 3047 722 3315 
Q 1072 3584 1716 3584 
Q 2034 3584 2315 3537 
Q 2597 3491 2834 3397 
z
" transform="scale(0.015625)"/>
       <path id="DejaVuSans-74" d="M 1172 4494 
L 1172 3500 
L 2356 3500 
L 2356 3053 
L 1172 3053 
L 1172 1153 
Q 1172 725 1289 603 
Q 1406 481 1766 481 
L 2356 481 
L 2356 0 
L 1766 0 
Q 1100 0 847 248 
Q 594 497 594 1153 
L 594 3053 
L 172 3053 
L 172 3500 
L 594 3500 
L 594 4494 
L 1172 4494 
z
" transform="scale(0.015625)"/>
       <path id="DejaVuSans-61" d="M 2194 1759 
Q 1497 1759 1228 1600 
Q 959 1441 959 1056 
Q 959 750 1161 570 
Q 1363 391 1709 391 
Q 2188 391 2477 730 
Q 2766 1069 2766 1631 
L 2766 1759 
L 2194 1759 
z
M 3341 1997 
L 3341 0 
L 2766 0 
L 2766 531 
Q 2569 213 2275 61 
Q 1981 -91 1556 -91 
Q 1019 -91 701 211 
Q 384 513 384 1019 
Q 384 1609 779 1909 
Q 1175 2209 1959 2209 
L 2766 2209 
L 2766 2266 
Q 2766 2663 2505 2880 
Q 2244 3097 1772 3097 
Q 1472 3097 1187 3025 
Q 903 2953 641 2809 
L 641 3341 
Q 956 3463 1253 3523 
Q 1550 3584 1831 3584 
Q 2591 3584 2966 3190 
Q 3341 2797 3341 1997 
z
" transform="scale(0.015625)"/>
       <path id="DejaVuSans-6e" d="M 3513 2113 
L 3513 0 
L 2938 0 
L 2938 2094 
Q 2938 2591 2744 2837 
Q 2550 3084 2163 3084 
Q 1697 3084 1428 2787 
Q 1159 2491 1159 1978 
L 1159 0 
L 581 0 
L 581 3500 
L 1159 3500 
L 1159 2956 
Q 1366 3272 1645 3428 
Q 1925 3584 2291 3584 
Q 2894 3584 3203 3211 
Q 3513 2838 3513 2113 
z
" transform="scale(0.015625)"/>
       <path id="DejaVuSans-63" d="M 3122 3366 
L 3122 2828 
Q 2878 2963 2633 3030 
Q 2388 3097 2138 3097 
Q 1578 3097 1268 2742 
Q 959 2388 959 1747 
Q 959 1106 1268 751 
Q 1578 397 2138 397 
Q 2388 397 2633 464 
Q 2878 531 3122 666 
L 3122 134 
Q 2881 22 2623 -34 
Q 2366 -91 2075 -91 
Q 1284 -91 818 406 
Q 353 903 353 1747 
Q 353 2603 823 3093 
Q 1294 3584 2113 3584 
Q 2378 3584 2631 3529 
Q 2884 3475 3122 3366 
z
" transform="scale(0.015625)"/>
       <path id="DejaVuSans-65" d="M 3597 1894 
L 3597 1613 
L 953 1613 
Q 991 1019 1311 708 
Q 1631 397 2203 397 
Q 2534 397 2845 478 
Q 3156 559 3463 722 
L 3463 178 
Q 3153 47 2828 -22 
Q 2503 -91 2169 -91 
Q 1331 -91 842 396 
Q 353 884 353 1716 
Q 353 2575 817 3079 
Q 1281 3584 2069 3584 
Q 2775 3584 3186 3129 
Q 3597 2675 3597 1894 
z
M 3022 2063 
Q 3016 2534 2758 2815 
Q 2500 3097 2075 3097 
Q 1594 3097 1305 2825 
Q 1016 2553 972 2059 
L 3022 2063 
z
" transform="scale(0.015625)"/>
       <path id="DejaVuSans-5b" d="M 550 4863 
L 1875 4863 
L 1875 4416 
L 1125 4416 
L 1125 -397 
L 1875 -397 
L 1875 -844 
L 550 -844 
L 550 4863 
z
" transform="scale(0.015625)"/>
       <path id="DejaVuSans-c5" d="M 2663 5081 
Q 2663 5278 2523 5417 
Q 2384 5556 2188 5556 
Q 1988 5556 1852 5420 
Q 1716 5284 1716 5081 
Q 1716 4884 1853 4746 
Q 1991 4609 2188 4609 
Q 2384 4609 2523 4746 
Q 2663 4884 2663 5081 
z
M 2188 4044 
L 1338 1722 
L 3041 1722 
L 2188 4044 
z
M 1716 4366 
Q 1525 4494 1428 4673 
Q 1331 4853 1331 5081 
Q 1331 5441 1579 5691 
Q 1828 5941 2188 5941 
Q 2544 5941 2795 5689 
Q 3047 5438 3047 5081 
Q 3047 4863 2948 4678 
Q 2850 4494 2663 4366 
L 4325 0 
L 3669 0 
L 3244 1197 
L 1141 1197 
L 716 0 
L 50 0 
L 1716 4366 
z
" transform="scale(0.015625)"/>
       <path id="DejaVuSans-5d" d="M 1947 4863 
L 1947 -844 
L 622 -844 
L 622 -397 
L 1369 -397 
L 1369 4416 
L 622 4416 
L 622 4863 
L 1947 4863 
z
" transform="scale(0.015625)"/>
      </defs>
      <use xlink:href="#DejaVuSans-43"/>
      <use xlink:href="#DejaVuSans-52" x="69.824219"/>
      <use xlink:href="#DejaVuSans-4f" x="139.306641"/>
      <use xlink:href="#DejaVuSans-36" x="218.017578"/>
      <use xlink:href="#DejaVuSans-36" x="281.640625"/>
      <use xlink:href="#DejaVuSans-20" x="345.263672"/>
      <use xlink:href="#DejaVuSans-4f" x="377.050781"/>
      <use xlink:href="#DejaVuSans-48" x="455.761719"/>
      <use xlink:href="#DejaVuSans-20" x="530.957031"/>
      <use xlink:href="#DejaVuSans-2d" x="562.744141"/>
      <use xlink:href="#DejaVuSans-20" x="598.828125"/>
      <use xlink:href="#DejaVuSans-48" x="630.615234"/>
      <use xlink:href="#DejaVuSans-32" x="705.810547"/>
      <use xlink:href="#DejaVuSans-4f" x="769.433594"/>
      <use xlink:href="#DejaVuSans-20" x="848.144531"/>
      <use xlink:href="#DejaVuSans-48" x="879.931641"/>
      <use xlink:href="#DejaVuSans-20" x="955.126953"/>
      <use xlink:href="#DejaVuSans-44" x="986.914062"/>
      <use xlink:href="#DejaVuSans-69" x="1063.916016"/>
      <use xlink:href="#DejaVuSans-73" x="1091.699219"/>
      <use xlink:href="#DejaVuSans-74" x="1143.798828"/>
      <use xlink:href="#DejaVuSans-61" x="1183.007812"/>
      <use xlink:href="#DejaVuSans-6e" x="1244.287109"/>
      <use xlink:href="#DejaVuSans-63" x="1307.666016"/>
      <use xlink:href="#DejaVuSans-65" x="1362.646484"/>
      <use xlink:href="#DejaVuSans-20" x="1424.169922"/>
      <use xlink:href="#DejaVuSans-5b" x="1455.957031"/>
      <use xlink:href="#DejaVuSans-c5" x="1494.970703"/>
      <use xlink:href="#DejaVuSans-5d" x="1563.378906"/>
     </g>
    </g>
   </g>
   <g id="matplotlib.axis_2">
    <g id="ytick_1">
     <g id="line2d_10">
      <defs>
       <path id="md2522ca9dd" d="M 0 0 
L -3.5 0 
" style="stroke: #000000; stroke-width: 0.8"/>
      </defs>
      <g>
       <use xlink:href="#md2522ca9dd" x="47.81" y="302.8525" style="stroke: #000000; stroke-width: 0.8"/>
      </g>
     </g>
     <g id="text_9">
      <!-- 0.0 -->
      <g transform="translate(24.906875 306.651719) scale(0.1 -0.1)">
       <defs>
        <path id="DejaVuSans-30" d="M 2034 4250 
Q 1547 4250 1301 3770 
Q 1056 3291 1056 2328 
Q 1056 1369 1301 889 
Q 1547 409 2034 409 
Q 2525 409 2770 889 
Q 3016 1369 3016 2328 
Q 3016 3291 2770 3770 
Q 2525 4250 2034 4250 
z
M 2034 4750 
Q 2819 4750 3233 4129 
Q 3647 3509 3647 2328 
Q 3647 1150 3233 529 
Q 2819 -91 2034 -91 
Q 1250 -91 836 529 
Q 422 1150 422 2328 
Q 422 3509 836 4129 
Q 1250 4750 2034 4750 
z
" transform="scale(0.015625)"/>
        <path id="DejaVuSans-2e" d="M 684 794 
L 1344 794 
L 1344 0 
L 684 0 
L 684 794 
z
" transform="scale(0.015625)"/>
       </defs>
       <use xlink:href="#DejaVuSans-30"/>
       <use xlink:href="#DejaVuSans-2e" x="63.623047"/>
       <use xlink:href="#DejaVuSans-30" x="95.410156"/>
      </g>
     </g>
    </g>
    <g id="ytick_2">
     <g id="line2d_11">
      <g>
       <use xlink:href="#md2522ca9dd" x="47.81" y="263.116423" style="stroke: #000000; stroke-width: 0.8"/>
      </g>
     </g>
     <g id="text_10">
      <!-- 0.1 -->
      <g transform="translate(24.906875 266.915641) scale(0.1 -0.1)">
       <use xlink:href="#DejaVuSans-30"/>
       <use xlink:href="#DejaVuSans-2e" x="63.623047"/>
       <use xlink:href="#DejaVuSans-31" x="95.410156"/>
      </g>
     </g>
    </g>
    <g id="ytick_3">
     <g id="line2d_12">
      <g>
       <use xlink:href="#md2522ca9dd" x="47.81" y="223.380345" style="stroke: #000000; stroke-width: 0.8"/>
      </g>
     </g>
     <g id="text_11">
      <!-- 0.2 -->
      <g transform="translate(24.906875 227.179564) scale(0.1 -0.1)">
       <use xlink:href="#DejaVuSans-30"/>
       <use xlink:href="#DejaVuSans-2e" x="63.623047"/>
       <use xlink:href="#DejaVuSans-32" x="95.410156"/>
      </g>
     </g>
    </g>
    <g id="ytick_4">
     <g id="line2d_13">
      <g>
       <use xlink:href="#md2522ca9dd" x="47.81" y="183.644268" style="stroke: #000000; stroke-width: 0.8"/>
      </g>
     </g>
     <g id="text_12">
      <!-- 0.3 -->
      <g transform="translate(24.906875 187.443486) scale(0.1 -0.1)">
       <use xlink:href="#DejaVuSans-30"/>
       <use xlink:href="#DejaVuSans-2e" x="63.623047"/>
       <use xlink:href="#DejaVuSans-33" x="95.410156"/>
      </g>
     </g>
    </g>
    <g id="ytick_5">
     <g id="line2d_14">
      <g>
       <use xlink:href="#md2522ca9dd" x="47.81" y="143.90819" style="stroke: #000000; stroke-width: 0.8"/>
      </g>
     </g>
     <g id="text_13">
      <!-- 0.4 -->
      <g transform="translate(24.906875 147.707409) scale(0.1 -0.1)">
       <use xlink:href="#DejaVuSans-30"/>
       <use xlink:href="#DejaVuSans-2e" x="63.623047"/>
       <use xlink:href="#DejaVuSans-34" x="95.410156"/>
      </g>
     </g>
    </g>
    <g id="ytick_6">
     <g id="line2d_15">
      <g>
       <use xlink:href="#md2522ca9dd" x="47.81" y="104.172113" style="stroke: #000000; stroke-width: 0.8"/>
      </g>
     </g>
     <g id="text_14">
      <!-- 0.5 -->
      <g transform="translate(24.906875 107.971331) scale(0.1 -0.1)">
       <use xlink:href="#DejaVuSans-30"/>
       <use xlink:href="#DejaVuSans-2e" x="63.623047"/>
       <use xlink:href="#DejaVuSans-35" x="95.410156"/>
      </g>
     </g>
    </g>
    <g id="ytick_7">
     <g id="line2d_16">
      <g>
       <use xlink:href="#md2522ca9dd" x="47.81" y="64.436035" style="stroke: #000000; stroke-width: 0.8"/>
      </g>
     </g>
     <g id="text_15">
      <!-- 0.6 -->
      <g transform="translate(24.906875 68.235254) scale(0.1 -0.1)">
       <use xlink:href="#DejaVuSans-30"/>
       <use xlink:href="#DejaVuSans-2e" x="63.623047"/>
       <use xlink:href="#DejaVuSans-36" x="95.410156"/>
      </g>
     </g>
    </g>
    <g id="ytick_8">
     <g id="line2d_17">
      <g>
       <use xlink:href="#md2522ca9dd" x="47.81" y="24.699958" style="stroke: #000000; stroke-width: 0.8"/>
      </g>
     </g>
     <g id="text_16">
      <!-- 0.7 -->
      <g transform="translate(24.906875 28.499176) scale(0.1 -0.1)">
       <use xlink:href="#DejaVuSans-30"/>
       <use xlink:href="#DejaVuSans-2e" x="63.623047"/>
       <use xlink:href="#DejaVuSans-37" x="95.410156"/>
      </g>
     </g>
    </g>
    <g id="text_17">
     <!-- Density -->
     <g transform="translate(18.827187 175.834844) rotate(-90) scale(0.1 -0.1)">
      <defs>
       <path id="DejaVuSans-79" d="M 2059 -325 
Q 1816 -950 1584 -1140 
Q 1353 -1331 966 -1331 
L 506 -1331 
L 506 -850 
L 844 -850 
Q 1081 -850 1212 -737 
Q 1344 -625 1503 -206 
L 1606 56 
L 191 3500 
L 800 3500 
L 1894 763 
L 2988 3500 
L 3597 3500 
L 2059 -325 
z
" transform="scale(0.015625)"/>
      </defs>
      <use xlink:href="#DejaVuSans-44"/>
      <use xlink:href="#DejaVuSans-65" x="77.001953"/>
      <use xlink:href="#DejaVuSans-6e" x="138.525391"/>
      <use xlink:href="#DejaVuSans-73" x="201.904297"/>
      <use xlink:href="#DejaVuSans-69" x="254.003906"/>
      <use xlink:href="#DejaVuSans-74" x="281.787109"/>
      <use xlink:href="#DejaVuSans-79" x="320.996094"/>
     </g>
    </g>
   </g>
   <g id="line2d_18">
    <path d="M -1 302.8525 
L 67.180628 302.773117 
L 69.1776 302.593334 
L 70.508915 302.319177 
L 71.840229 301.810638 
L 73.171544 300.917407 
L 73.837201 300.26345 
L 74.502859 299.429875 
L 75.168516 298.381042 
L 75.834173 297.078168 
L 76.499831 295.480086 
L 77.165488 293.54428 
L 77.831145 291.228202 
L 79.16246 285.294525 
L 80.493775 277.40246 
L 81.825089 267.39095 
L 83.156404 255.273509 
L 84.487719 241.282247 
L 86.484691 217.866023 
L 89.14732 186.117802 
L 90.478634 172.046556 
L 91.809949 160.327387 
L 92.475606 155.566843 
L 93.141264 151.625958 
L 93.806921 148.549278 
L 94.472578 146.36397 
L 95.138236 145.07988 
L 95.803893 144.690151 
L 96.46955 145.172338 
L 97.135208 146.48992 
L 97.800865 148.594101 
L 98.466522 151.425797 
L 99.797837 158.996484 
L 101.129152 168.602718 
L 103.126124 185.446328 
L 107.785725 226.474887 
L 109.782697 241.719475 
L 111.114012 250.635259 
L 112.445326 258.511518 
L 113.776641 265.375662 
L 115.107955 271.288614 
L 116.43927 276.328394 
L 117.770585 280.579688 
L 119.101899 284.12929 
L 120.433214 287.065347 
L 121.764529 289.477442 
L 123.095843 291.454982 
L 124.427158 293.083039 
L 125.758473 294.43674 
L 127.755445 296.080269 
L 129.752417 297.372504 
L 131.749389 298.381045 
L 133.746361 299.142667 
L 135.743332 299.694934 
L 138.405962 300.193062 
L 142.399906 300.665463 
L 146.39385 300.949663 
L 149.722136 300.995132 
L 153.050423 300.791418 
L 155.713052 300.401022 
L 157.710024 299.931964 
L 159.706996 299.248547 
L 161.703968 298.259274 
L 163.035283 297.369089 
L 164.366597 296.240848 
L 165.697912 294.818614 
L 167.029227 293.036474 
L 168.360541 290.819408 
L 169.691856 288.087091 
L 171.023171 284.7608 
L 172.354485 280.772261 
L 173.6858 276.072593 
L 175.017115 270.639896 
L 176.348429 264.485084 
L 178.345401 254.015159 
L 181.008031 238.316521 
L 185.667632 210.088774 
L 187.664604 199.622275 
L 188.995918 193.743416 
L 190.327233 188.970436 
L 191.658548 185.451928 
L 192.324205 184.191541 
L 192.989862 183.268056 
L 193.65552 182.676855 
L 194.321177 182.406711 
L 194.986834 182.43995 
L 195.652492 182.753011 
L 196.318149 183.317367 
L 196.983806 184.100772 
L 198.315121 186.185791 
L 200.312093 190.096019 
L 203.64038 196.894391 
L 205.637352 200.383368 
L 206.968666 202.270718 
L 208.299981 203.708132 
L 208.965638 204.232094 
L 209.631295 204.613765 
L 210.296953 204.845576 
L 210.96261 204.921997 
L 211.628267 204.839971 
L 212.293925 204.599214 
L 212.959582 204.202357 
L 214.290897 202.965025 
L 215.622211 201.201524 
L 216.953526 199.012956 
L 218.950498 195.168576 
L 221.613127 189.420555 
L 224.275757 183.148552 
L 226.938386 176.232151 
L 232.263644 161.829132 
L 233.594959 158.788974 
L 234.926274 156.185027 
L 236.257588 154.047803 
L 237.588903 152.357511 
L 238.920218 151.055783 
L 240.251532 150.063533 
L 241.582847 149.30126 
L 243.579819 148.463705 
L 245.576791 147.944049 
L 246.908106 147.8161 
L 248.23942 147.925332 
L 249.570735 148.332693 
L 250.90205 149.090746 
L 252.233364 150.23128 
L 253.564679 151.754377 
L 254.895993 153.620729 
L 256.892965 156.882621 
L 261.552567 164.832828 
L 266.212168 172.006437 
L 269.540455 177.414857 
L 273.534399 184.442766 
L 280.856629 197.500405 
L 283.519258 201.698312 
L 294.835433 218.744999 
L 301.492006 229.120869 
L 304.154635 232.922784 
L 306.151607 235.487664 
L 308.148579 237.741731 
L 310.145551 239.686091 
L 312.808181 241.91246 
L 321.461726 248.732802 
L 326.121327 252.70849 
L 328.118299 254.136615 
L 330.115271 255.3323 
L 334.109215 257.382881 
L 338.103159 259.290824 
L 340.100131 260.045764 
L 342.76276 260.804932 
L 346.091047 261.774759 
L 348.088019 262.583968 
L 350.750648 263.921699 
L 356.075907 266.690462 
L 358.738536 267.786571 
L 362.066823 268.832765 
L 365.395109 269.908465 
L 367.392081 270.761747 
L 370.054711 272.144485 
L 375.379969 275.008051 
L 378.042598 276.165132 
L 385.364829 279.050464 
L 388.693116 280.793152 
L 399.343633 286.768757 
L 402.006262 287.892854 
L 418.647695 294.065908 
L 433.957814 298.577111 
L 438.617415 299.575189 
L 443.942674 300.466 
L 448.602275 301.033742 
L 455.924505 301.635184 
L 461.8 301.98723 
L 461.8 301.98723 
" clip-path="url(#pdacab74eff)" style="fill: none; stroke: #f99752; stroke-width: 2.5; stroke-linecap: square"/>
   </g>
   <g id="patch_3">
    <path d="M 47.81 302.8525 
L 47.81 10.8 
" style="fill: none; stroke: #000000; stroke-width: 0.8; stroke-linejoin: miter; stroke-linecap: square"/>
   </g>
   <g id="patch_4">
    <path d="M 446.805 302.8525 
L 446.805 10.8 
" style="fill: none; stroke: #000000; stroke-width: 0.8; stroke-linejoin: miter; stroke-linecap: square"/>
   </g>
   <g id="patch_5">
    <path d="M 47.81 302.8525 
L 446.805 302.8525 
" style="fill: none; stroke: #000000; stroke-width: 0.8; stroke-linejoin: miter; stroke-linecap: square"/>
   </g>
   <g id="patch_6">
    <path d="M 47.81 10.8 
L 446.805 10.8 
" style="fill: none; stroke: #000000; stroke-width: 0.8; stroke-linejoin: miter; stroke-linecap: square"/>
   </g>
   <g id="legend_1">
    <g id="patch_7">
     <path d="M 364.359688 62.834375 
L 439.805 62.834375 
Q 441.805 62.834375 441.805 60.834375 
L 441.805 17.8 
Q 441.805 15.8 439.805 15.8 
L 364.359688 15.8 
Q 362.359688 15.8 362.359688 17.8 
L 362.359688 60.834375 
Q 362.359688 62.834375 364.359688 62.834375 
z
" style="fill: #ffffff; opacity: 0.8; stroke: #cccccc; stroke-linejoin: miter"/>
    </g>
    <g id="line2d_19">
     <path d="M 366.359688 23.898438 
L 376.359688 23.898438 
L 386.359688 23.898438 
" style="fill: none; stroke: #1e2e79; stroke-width: 2.5; stroke-linecap: square"/>
    </g>
    <g id="text_18">
     <!-- Reduced -->
     <g transform="translate(394.359688 27.398438) scale(0.1 -0.1)">
      <defs>
       <path id="DejaVuSans-64" d="M 2906 2969 
L 2906 4863 
L 3481 4863 
L 3481 0 
L 2906 0 
L 2906 525 
Q 2725 213 2448 61 
Q 2172 -91 1784 -91 
Q 1150 -91 751 415 
Q 353 922 353 1747 
Q 353 2572 751 3078 
Q 1150 3584 1784 3584 
Q 2172 3584 2448 3432 
Q 2725 3281 2906 2969 
z
M 947 1747 
Q 947 1113 1208 752 
Q 1469 391 1925 391 
Q 2381 391 2643 752 
Q 2906 1113 2906 1747 
Q 2906 2381 2643 2742 
Q 2381 3103 1925 3103 
Q 1469 3103 1208 2742 
Q 947 2381 947 1747 
z
" transform="scale(0.015625)"/>
       <path id="DejaVuSans-75" d="M 544 1381 
L 544 3500 
L 1119 3500 
L 1119 1403 
Q 1119 906 1312 657 
Q 1506 409 1894 409 
Q 2359 409 2629 706 
Q 2900 1003 2900 1516 
L 2900 3500 
L 3475 3500 
L 3475 0 
L 2900 0 
L 2900 538 
Q 2691 219 2414 64 
Q 2138 -91 1772 -91 
Q 1169 -91 856 284 
Q 544 659 544 1381 
z
M 1991 3584 
L 1991 3584 
z
" transform="scale(0.015625)"/>
      </defs>
      <use xlink:href="#DejaVuSans-52"/>
      <use xlink:href="#DejaVuSans-65" x="64.982422"/>
      <use xlink:href="#DejaVuSans-64" x="126.505859"/>
      <use xlink:href="#DejaVuSans-75" x="189.982422"/>
      <use xlink:href="#DejaVuSans-63" x="253.361328"/>
      <use xlink:href="#DejaVuSans-65" x="308.341797"/>
      <use xlink:href="#DejaVuSans-64" x="369.865234"/>
     </g>
    </g>
    <g id="line2d_20">
     <path d="M 366.359688 38.576563 
L 376.359688 38.576563 
L 386.359688 38.576563 
" style="fill: none; stroke: #ec4067; stroke-width: 2.5; stroke-linecap: square"/>
    </g>
    <g id="text_19">
     <!-- Oxidized -->
     <g transform="translate(394.359688 42.076563) scale(0.1 -0.1)">
      <defs>
       <path id="DejaVuSans-78" d="M 3513 3500 
L 2247 1797 
L 3578 0 
L 2900 0 
L 1881 1375 
L 863 0 
L 184 0 
L 1544 1831 
L 300 3500 
L 978 3500 
L 1906 2253 
L 2834 3500 
L 3513 3500 
z
" transform="scale(0.015625)"/>
       <path id="DejaVuSans-7a" d="M 353 3500 
L 3084 3500 
L 3084 2975 
L 922 459 
L 3084 459 
L 3084 0 
L 275 0 
L 275 525 
L 2438 3041 
L 353 3041 
L 353 3500 
z
" transform="scale(0.015625)"/>
      </defs>
      <use xlink:href="#DejaVuSans-4f"/>
      <use xlink:href="#DejaVuSans-78" x="78.710938"/>
      <use xlink:href="#DejaVuSans-69" x="137.890625"/>
      <use xlink:href="#DejaVuSans-64" x="165.673828"/>
      <use xlink:href="#DejaVuSans-69" x="229.150391"/>
      <use xlink:href="#DejaVuSans-7a" x="256.933594"/>
      <use xlink:href="#DejaVuSans-65" x="309.423828"/>
      <use xlink:href="#DejaVuSans-64" x="370.947266"/>
     </g>
    </g>
    <g id="line2d_21">
     <path d="M 366.359688 53.254687 
L 376.359688 53.254687 
L 386.359688 53.254687 
" style="fill: none; stroke: #f99752; stroke-width: 2.5; stroke-linecap: square"/>
    </g>
    <g id="text_20">
     <!-- Cu$^{+}$ -->
     <g transform="translate(394.359688 56.754687) scale(0.1 -0.1)">
      <defs>
       <path id="DejaVuSans-2b" d="M 2944 4013 
L 2944 2272 
L 4684 2272 
L 4684 1741 
L 2944 1741 
L 2944 0 
L 2419 0 
L 2419 1741 
L 678 1741 
L 678 2272 
L 2419 2272 
L 2419 4013 
L 2944 4013 
z
" transform="scale(0.015625)"/>
      </defs>
      <use xlink:href="#DejaVuSans-43" transform="translate(0 0.826562)"/>
      <use xlink:href="#DejaVuSans-75" transform="translate(69.824219 0.826562)"/>
      <use xlink:href="#DejaVuSans-2b" transform="translate(134.160156 39.107812) scale(0.7)"/>
     </g>
    </g>
   </g>
  </g>
 </g>
 <defs>
  <clipPath id="pdacab74eff">
   <rect x="47.81" y="10.8" width="398.995" height="292.0525"/>
  </clipPath>
 </defs>
</svg>
