<?xml version="1.0" encoding="utf-8" standalone="no"?>
<!DOCTYPE svg PUBLIC "-//W3C//DTD SVG 1.1//EN"
  "http://www.w3.org/Graphics/SVG/1.1/DTD/svg11.dtd">
<svg xmlns:xlink="http://www.w3.org/1999/xlink" width="460.8pt" height="345.6pt" viewBox="0 0 460.8 345.6" xmlns="http://www.w3.org/2000/svg" version="1.1">
 <metadata>
  <rdf:RDF xmlns:dc="http://purl.org/dc/elements/1.1/" xmlns:cc="http://creativecommons.org/ns#" xmlns:rdf="http://www.w3.org/1999/02/22-rdf-syntax-ns#">
   <cc:Work>
    <dc:type rdf:resource="http://purl.org/dc/dcmitype/StillImage"/>
    <dc:date>2024-07-07T13:54:19.581586</dc:date>
    <dc:format>image/svg+xml</dc:format>
    <dc:creator>
     <cc:Agent>
      <dc:title>Matplotlib v3.8.4, https://matplotlib.org/</dc:title>
     </cc:Agent>
    </dc:creator>
   </cc:Work>
  </rdf:RDF>
 </metadata>
 <defs>
  <style type="text/css">*{stroke-linejoin: round; stroke-linecap: butt}</style>
 </defs>
 <g id="figure_1">
  <g id="patch_1">
   <path d="M 0 345.6 
L 460.8 345.6 
L 460.8 0 
L 0 0 
z
" style="fill: #ffffff"/>
  </g>
  <g id="axes_1">
   <g id="patch_2">
    <path d="M 60.662 299.968 
L 447.84 299.968 
L 447.84 12.96 
L 60.662 12.96 
z
" style="fill: #ffffff"/>
   </g>
   <g id="line2d_1">
    <path d="M 60.662 40.923917 
L 61.437131 39.048453 
L 62.212262 37.853157 
L 62.599828 37.514809 
L 62.987393 37.350898 
L 63.374959 37.362167 
L 63.762525 37.548998 
L 64.15009 37.911418 
L 64.925221 39.16132 
L 65.700352 41.104871 
L 66.475483 43.729369 
L 67.250615 47.016541 
L 68.413311 53.136739 
L 69.576008 60.592884 
L 71.12627 72.396327 
L 72.676533 86.009162 
L 74.61436 104.977151 
L 77.714885 137.934148 
L 82.365672 187.258978 
L 84.691065 209.532968 
L 86.628893 226.169778 
L 88.566721 240.824974 
L 90.116983 251.066688 
L 91.667245 260.002406 
L 93.217508 267.683731 
L 94.76777 274.191382 
L 96.318032 279.626448 
L 97.868294 284.10227 
L 99.418557 287.737317 
L 100.581253 289.982816 
L 101.74395 291.869556 
L 103.294212 293.905049 
L 104.844474 295.48163 
L 106.394737 296.686683 
L 107.944999 297.595737 
L 109.495261 298.272631 
L 111.433089 298.871795 
L 113.758482 299.33342 
L 116.471441 299.643113 
L 120.347097 299.850161 
L 127.323277 299.951871 
L 154.840432 299.967999 
L 386.992206 299.86377 
L 392.030559 299.634935 
L 395.518649 299.262613 
L 398.231608 298.741941 
L 400.557001 298.040741 
L 402.494829 297.200799 
L 404.045091 296.308492 
L 405.595353 295.170659 
L 407.145616 293.733635 
L 408.695878 291.936126 
L 410.24614 289.709275 
L 411.796402 286.977108 
L 413.346665 283.657468 
L 414.896927 279.663547 
L 416.447189 274.906087 
L 417.997451 269.296351 
L 419.547714 262.749896 
L 421.097976 255.19114 
L 422.648238 246.558684 
L 424.198501 236.811223 
L 426.136328 223.039224 
L 428.074156 207.548598 
L 430.39955 186.899314 
L 433.112509 160.575055 
L 440.476254 87.384558 
L 442.414082 70.982105 
L 443.964344 59.698278 
L 445.127041 52.537149 
L 446.289738 46.637525 
L 447.452434 42.111226 
L 447.84 40.923917 
L 447.84 40.923917 
" clip-path="url(#p11b1d6701b)" style="fill: none; stroke: #1e2e79; stroke-width: 2.5; stroke-linecap: square"/>
   </g>
   <g id="matplotlib.axis_1">
    <g id="xtick_1">
     <g id="line2d_2">
      <defs>
       <path id="mfaaf31fb89" d="M 0 0 
L 0 3.5 
" style="stroke: #c2c1c1; stroke-width: 0.8"/>
      </defs>
      <g>
       <use xlink:href="#mfaaf31fb89" x="60.662" y="299.968" style="fill: #c2c1c1; stroke: #c2c1c1; stroke-width: 0.8"/>
      </g>
     </g>
     <g id="text_1">
      <!-- −180 -->
      <g style="fill: #191919" transform="translate(49.372937 314.468) scale(0.1 -0.1)">
       <defs>
        <path id="Roboto-Regular-2212" d="M 3134 2509 
L 3134 2034 
L 525 2034 
L 525 2509 
L 3134 2509 
z
" transform="scale(0.015625)"/>
        <path id="Roboto-Regular-31" d="M 2278 4575 
L 2278 0 
L 1700 0 
L 1700 3853 
L 534 3428 
L 534 3950 
L 2188 4575 
L 2278 4575 
z
" transform="scale(0.015625)"/>
        <path id="Roboto-Regular-38" d="M 3244 1231 
Q 3244 606 2826 271 
Q 2409 -63 1796 -63 
Q 1184 -63 767 271 
Q 350 606 350 1231 
Q 350 1613 554 1905 
Q 759 2197 1109 2347 
Q 806 2494 629 2762 
Q 453 3031 453 3366 
Q 453 3963 833 4288 
Q 1213 4613 1794 4613 
Q 2378 4613 2758 4288 
Q 3138 3963 3138 3366 
Q 3138 3028 2956 2761 
Q 2775 2494 2472 2347 
Q 2825 2197 3034 1903 
Q 3244 1609 3244 1231 
z
M 2559 3356 
Q 2559 3697 2346 3917 
Q 2134 4138 1793 4138 
Q 1453 4138 1243 3927 
Q 1034 3716 1034 3356 
Q 1034 3003 1243 2790 
Q 1453 2578 1797 2578 
Q 2138 2578 2348 2790 
Q 2559 3003 2559 3356 
z
M 2663 1244 
Q 2663 1625 2420 1865 
Q 2178 2106 1791 2106 
Q 1394 2106 1161 1865 
Q 928 1625 928 1244 
Q 928 850 1161 631 
Q 1394 413 1797 413 
Q 2200 413 2431 631 
Q 2663 850 2663 1244 
z
" transform="scale(0.015625)"/>
        <path id="Roboto-Regular-30" d="M 3234 1944 
Q 3234 825 2848 381 
Q 2463 -63 1800 -63 
Q 1156 -63 764 368 
Q 372 800 359 1872 
L 359 2638 
Q 359 3753 750 4183 
Q 1141 4613 1794 4613 
Q 2447 4613 2834 4195 
Q 3222 3778 3234 2709 
L 3234 1944 
z
M 2653 2734 
Q 2653 3503 2434 3822 
Q 2216 4141 1794 4141 
Q 1388 4141 1167 3831 
Q 947 3522 941 2778 
L 941 1850 
Q 941 1088 1164 750 
Q 1388 413 1800 413 
Q 2222 413 2436 745 
Q 2650 1078 2653 1825 
L 2653 2734 
z
" transform="scale(0.015625)"/>
       </defs>
       <use xlink:href="#Roboto-Regular-2212"/>
       <use xlink:href="#Roboto-Regular-31" x="57.177734"/>
       <use xlink:href="#Roboto-Regular-38" x="113.378906"/>
       <use xlink:href="#Roboto-Regular-30" x="169.580078"/>
      </g>
     </g>
    </g>
    <g id="xtick_2">
     <g id="line2d_3">
      <g>
       <use xlink:href="#mfaaf31fb89" x="125.191667" y="299.968" style="fill: #c2c1c1; stroke: #c2c1c1; stroke-width: 0.8"/>
      </g>
     </g>
     <g id="text_2">
      <!-- −120 -->
      <g style="fill: #191919" transform="translate(113.902604 314.468) scale(0.1 -0.1)">
       <defs>
        <path id="Roboto-Regular-32" d="M 3359 475 
L 3359 0 
L 381 0 
L 381 416 
L 1925 2134 
Q 2306 2566 2439 2819 
Q 2572 3072 2572 3328 
Q 2572 3663 2364 3900 
Q 2156 4138 1778 4138 
Q 1322 4138 1097 3878 
Q 872 3619 872 3213 
L 294 3213 
Q 294 3788 672 4200 
Q 1050 4613 1778 4613 
Q 2422 4613 2786 4278 
Q 3150 3944 3150 3397 
Q 3150 2997 2903 2592 
Q 2656 2188 2297 1797 
L 1078 475 
L 3359 475 
z
" transform="scale(0.015625)"/>
       </defs>
       <use xlink:href="#Roboto-Regular-2212"/>
       <use xlink:href="#Roboto-Regular-31" x="57.177734"/>
       <use xlink:href="#Roboto-Regular-32" x="113.378906"/>
       <use xlink:href="#Roboto-Regular-30" x="169.580078"/>
      </g>
     </g>
    </g>
    <g id="xtick_3">
     <g id="line2d_4">
      <g>
       <use xlink:href="#mfaaf31fb89" x="189.721333" y="299.968" style="fill: #c2c1c1; stroke: #c2c1c1; stroke-width: 0.8"/>
      </g>
     </g>
     <g id="text_3">
      <!-- −60 -->
      <g style="fill: #191919" transform="translate(181.242427 314.468) scale(0.1 -0.1)">
       <defs>
        <path id="Roboto-Regular-36" d="M 3291 1484 
Q 3291 838 2930 387 
Q 2569 -63 1878 -63 
Q 1388 -63 1063 198 
Q 738 459 577 861 
Q 416 1263 416 1684 
L 416 1956 
Q 416 2597 595 3194 
Q 775 3791 1247 4173 
Q 1719 4556 2597 4556 
L 2647 4556 
L 2647 4066 
Q 2041 4066 1705 3853 
Q 1369 3641 1205 3302 
Q 1041 2963 1006 2575 
Q 1369 2984 1984 2984 
Q 2438 2984 2727 2765 
Q 3016 2547 3153 2201 
Q 3291 1856 3291 1484 
z
M 997 1666 
Q 997 1059 1267 737 
Q 1538 416 1878 416 
Q 2278 416 2498 708 
Q 2719 1000 2719 1456 
Q 2719 1863 2516 2184 
Q 2313 2506 1891 2506 
Q 1588 2506 1341 2325 
Q 1094 2144 997 1884 
L 997 1666 
z
" transform="scale(0.015625)"/>
       </defs>
       <use xlink:href="#Roboto-Regular-2212"/>
       <use xlink:href="#Roboto-Regular-36" x="57.177734"/>
       <use xlink:href="#Roboto-Regular-30" x="113.378906"/>
      </g>
     </g>
    </g>
    <g id="xtick_4">
     <g id="line2d_5">
      <g>
       <use xlink:href="#mfaaf31fb89" x="254.251" y="299.968" style="fill: #c2c1c1; stroke: #c2c1c1; stroke-width: 0.8"/>
      </g>
     </g>
     <g id="text_4">
      <!-- 0 -->
      <g style="fill: #191919" transform="translate(251.440844 314.468) scale(0.1 -0.1)">
       <use xlink:href="#Roboto-Regular-30"/>
      </g>
     </g>
    </g>
    <g id="xtick_5">
     <g id="line2d_6">
      <g>
       <use xlink:href="#mfaaf31fb89" x="318.780667" y="299.968" style="fill: #c2c1c1; stroke: #c2c1c1; stroke-width: 0.8"/>
      </g>
     </g>
     <g id="text_5">
      <!-- 60 -->
      <g style="fill: #191919" transform="translate(313.160354 314.468) scale(0.1 -0.1)">
       <use xlink:href="#Roboto-Regular-36"/>
       <use xlink:href="#Roboto-Regular-30" x="56.201172"/>
      </g>
     </g>
    </g>
    <g id="xtick_6">
     <g id="line2d_7">
      <g>
       <use xlink:href="#mfaaf31fb89" x="383.310333" y="299.968" style="fill: #c2c1c1; stroke: #c2c1c1; stroke-width: 0.8"/>
      </g>
     </g>
     <g id="text_6">
      <!-- 120 -->
      <g style="fill: #191919" transform="translate(374.879865 314.468) scale(0.1 -0.1)">
       <use xlink:href="#Roboto-Regular-31"/>
       <use xlink:href="#Roboto-Regular-32" x="56.201172"/>
       <use xlink:href="#Roboto-Regular-30" x="112.402344"/>
      </g>
     </g>
    </g>
    <g id="xtick_7">
     <g id="line2d_8">
      <g>
       <use xlink:href="#mfaaf31fb89" x="447.84" y="299.968" style="fill: #c2c1c1; stroke: #c2c1c1; stroke-width: 0.8"/>
      </g>
     </g>
     <g id="text_7">
      <!-- 180 -->
      <g style="fill: #191919" transform="translate(439.409531 314.468) scale(0.1 -0.1)">
       <use xlink:href="#Roboto-Regular-31"/>
       <use xlink:href="#Roboto-Regular-38" x="56.201172"/>
       <use xlink:href="#Roboto-Regular-30" x="112.402344"/>
      </g>
     </g>
    </g>
    <g id="text_8">
     <!-- CYS204 CA-C SER205 N-CA Dihedral [°] -->
     <g style="fill: #191919" transform="translate(145.3885 330.103) scale(0.12 -0.12)">
      <defs>
       <path id="Roboto-Black-43" d="M 2934 1541 
L 4028 1541 
Q 3994 825 3491 381 
Q 2988 -63 2147 -63 
Q 1244 -63 737 518 
Q 231 1100 219 2100 
L 219 2397 
Q 219 3425 742 4020 
Q 1266 4616 2131 4616 
Q 3022 4616 3497 4152 
Q 3972 3688 4034 2978 
L 2941 2978 
Q 2928 3363 2748 3559 
Q 2569 3756 2131 3756 
Q 1728 3756 1531 3448 
Q 1334 3141 1331 2428 
L 1331 2150 
Q 1331 1425 1515 1111 
Q 1700 797 2147 797 
Q 2913 797 2934 1541 
z
" transform="scale(0.015625)"/>
       <path id="Roboto-Black-59" d="M 1172 4550 
L 2009 2575 
L 2850 4550 
L 4031 4550 
L 2569 1634 
L 2569 0 
L 1453 0 
L 1453 1634 
L -13 4550 
L 1172 4550 
z
" transform="scale(0.015625)"/>
       <path id="Roboto-Black-53" d="M 2691 1209 
Q 2691 1425 2542 1565 
Q 2394 1706 1891 1873 
Q 1388 2041 1045 2239 
Q 703 2438 520 2700 
Q 338 2963 338 3334 
Q 338 3919 834 4266 
Q 1331 4613 2088 4613 
Q 2834 4613 3311 4228 
Q 3788 3844 3788 3200 
L 2697 3200 
Q 2697 3456 2539 3620 
Q 2381 3784 2063 3784 
Q 1750 3784 1590 3648 
Q 1431 3513 1431 3325 
Q 1431 3122 1653 2983 
Q 1875 2844 2266 2719 
Q 2991 2488 3389 2139 
Q 3788 1791 3788 1216 
Q 3788 600 3328 268 
Q 2869 -63 2106 -63 
Q 1638 -63 1200 96 
Q 763 256 481 597 
Q 200 938 200 1475 
L 1300 1475 
Q 1300 1075 1509 919 
Q 1719 763 2106 763 
Q 2419 763 2555 894 
Q 2691 1025 2691 1209 
z
" transform="scale(0.015625)"/>
       <path id="Roboto-Black-32" d="M 3456 813 
L 3456 0 
L 281 0 
L 281 688 
L 1744 2225 
Q 2284 2847 2284 3203 
Q 2284 3803 1784 3803 
Q 1538 3803 1391 3598 
Q 1244 3394 1244 3088 
L 188 3088 
Q 188 3716 636 4166 
Q 1084 4616 1809 4616 
Q 2563 4616 2952 4267 
Q 3341 3919 3341 3297 
Q 3341 2822 3052 2409 
Q 2763 1997 2250 1491 
L 1663 813 
L 3456 813 
z
" transform="scale(0.015625)"/>
       <path id="Roboto-Black-30" d="M 3441 1859 
Q 3441 875 3000 406 
Q 2559 -63 1859 -63 
Q 1156 -63 712 406 
Q 269 875 269 1859 
L 269 2691 
Q 269 3675 709 4144 
Q 1150 4613 1853 4613 
Q 2553 4613 2997 4144 
Q 3441 3675 3441 2691 
L 3441 1859 
z
M 2388 2825 
Q 2388 3369 2244 3584 
Q 2100 3800 1853 3800 
Q 1609 3800 1467 3589 
Q 1325 3378 1322 2850 
L 1322 1731 
Q 1322 1178 1465 964 
Q 1609 750 1859 750 
Q 2100 750 2242 959 
Q 2384 1169 2388 1706 
L 2388 2825 
z
" transform="scale(0.015625)"/>
       <path id="Roboto-Black-34" d="M 184 1609 
L 2009 4544 
L 2009 4550 
L 3063 4550 
L 3063 1778 
L 3522 1778 
L 3522 966 
L 3063 966 
L 3063 0 
L 2009 0 
L 2009 966 
L 247 966 
L 184 1609 
z
M 1191 1778 
L 2009 1778 
L 2009 3184 
L 1941 3072 
L 1191 1778 
z
" transform="scale(0.015625)"/>
       <path id="Roboto-Black-20" transform="scale(0.015625)"/>
       <path id="Roboto-Black-41" d="M -13 0 
L 1659 4550 
L 2694 4550 
L 4375 0 
L 3194 0 
L 2931 850 
L 1428 850 
L 1166 0 
L -13 0 
z
M 1691 1697 
L 2669 1697 
L 2178 3281 
L 1691 1697 
z
" transform="scale(0.015625)"/>
       <path id="Roboto-Black-2d" d="M 2353 2369 
L 2353 1553 
L 475 1553 
L 475 2369 
L 2353 2369 
z
" transform="scale(0.015625)"/>
       <path id="Roboto-Black-45" d="M 347 0 
L 347 4550 
L 3488 4550 
L 3488 3703 
L 1444 3703 
L 1444 2744 
L 3166 2744 
L 3166 1928 
L 1444 1928 
L 1444 844 
L 3478 844 
L 3478 0 
L 347 0 
z
" transform="scale(0.015625)"/>
       <path id="Roboto-Black-52" d="M 2838 0 
L 2034 1606 
L 1444 1606 
L 1444 0 
L 347 0 
L 347 4550 
L 2138 4550 
Q 2925 4550 3392 4198 
Q 3859 3847 3859 3175 
Q 3859 2650 3642 2350 
Q 3425 2050 3066 1881 
L 4013 47 
L 4013 0 
L 2838 0 
z
M 1444 3703 
L 1444 2453 
L 2138 2453 
Q 2763 2453 2763 3075 
Q 2763 3694 2156 3703 
L 1444 3703 
z
" transform="scale(0.015625)"/>
       <path id="Roboto-Black-35" d="M 1178 2028 
L 341 2225 
L 616 4550 
L 3275 4550 
L 3275 3731 
L 1475 3731 
L 1372 2828 
Q 1447 2872 1626 2933 
Q 1806 2994 2025 2994 
Q 2700 2994 3065 2595 
Q 3431 2197 3431 1466 
Q 3431 1075 3261 725 
Q 3091 375 2741 156 
Q 2391 -63 1850 -63 
Q 1447 -63 1078 101 
Q 709 266 478 570 
Q 247 875 250 1294 
L 1309 1294 
Q 1322 1044 1467 897 
Q 1613 750 1844 750 
Q 2159 750 2267 984 
Q 2375 1219 2375 1538 
Q 2375 1872 2223 2069 
Q 2072 2266 1728 2266 
Q 1497 2266 1367 2186 
Q 1238 2106 1178 2028 
z
" transform="scale(0.015625)"/>
       <path id="Roboto-Black-4e" d="M 4147 4550 
L 4147 0 
L 3053 0 
L 1444 2831 
L 1444 0 
L 347 0 
L 347 4550 
L 1444 4550 
L 3053 1719 
L 3053 4550 
L 4147 4550 
z
" transform="scale(0.015625)"/>
       <path id="Roboto-Black-44" d="M 347 0 
L 347 4550 
L 1809 4550 
Q 2425 4550 2901 4273 
Q 3378 3997 3648 3505 
Q 3919 3013 3919 2369 
L 3919 2178 
Q 3919 1219 3333 611 
Q 2747 3 1831 0 
L 347 0 
z
M 1444 3703 
L 1444 844 
L 1825 844 
Q 2744 844 2797 2028 
L 2800 2375 
Q 2800 3675 1850 3703 
L 1444 3703 
z
" transform="scale(0.015625)"/>
       <path id="Roboto-Black-69" d="M 291 4253 
Q 291 4478 453 4622 
Q 616 4766 875 4766 
Q 1134 4766 1296 4622 
Q 1459 4478 1459 4253 
Q 1459 4028 1296 3884 
Q 1134 3741 875 3741 
Q 616 3741 453 3884 
Q 291 4028 291 4253 
z
M 1409 3381 
L 1409 0 
L 353 0 
L 353 3381 
L 1409 3381 
z
" transform="scale(0.015625)"/>
       <path id="Roboto-Black-68" d="M 1784 2631 
Q 1466 2631 1328 2428 
L 1328 0 
L 275 0 
L 275 4800 
L 1328 4800 
L 1328 3022 
Q 1669 3444 2191 3444 
Q 2691 3444 3006 3144 
Q 3322 2844 3325 2116 
L 3325 0 
L 2266 0 
L 2266 2106 
Q 2266 2416 2139 2523 
Q 2013 2631 1784 2631 
z
" transform="scale(0.015625)"/>
       <path id="Roboto-Black-65" d="M 3266 531 
Q 3109 309 2765 123 
Q 2422 -63 1934 -63 
Q 1109 -63 651 421 
Q 194 906 191 1569 
L 191 1697 
Q 191 2438 600 2941 
Q 1009 3444 1822 3444 
Q 2541 3444 2948 2997 
Q 3356 2550 3356 1788 
L 3356 1359 
L 1266 1359 
Q 1322 1078 1512 914 
Q 1703 750 2003 750 
Q 2506 750 2788 1100 
L 3266 531 
z
M 1813 2631 
Q 1544 2631 1422 2457 
Q 1300 2284 1266 2019 
L 2328 2019 
L 2328 2100 
Q 2334 2631 1813 2631 
z
" transform="scale(0.015625)"/>
       <path id="Roboto-Black-64" d="M 2350 0 
L 2300 363 
Q 1969 -63 1475 -63 
Q 834 -63 501 420 
Q 169 903 166 1638 
L 166 1716 
Q 166 2488 500 2966 
Q 834 3444 1481 3444 
Q 1934 3444 2241 3091 
L 2241 4800 
L 3300 4800 
L 3300 0 
L 2350 0 
z
M 1219 1650 
Q 1219 1269 1330 1009 
Q 1441 750 1744 750 
Q 2094 750 2241 1041 
L 2241 2338 
Q 2100 2631 1750 2631 
Q 1456 2631 1337 2372 
Q 1219 2113 1219 1650 
z
" transform="scale(0.015625)"/>
       <path id="Roboto-Black-72" d="M 1994 2453 
Q 1500 2453 1359 2144 
L 1359 0 
L 306 0 
L 306 3381 
L 1291 3381 
L 1325 2950 
Q 1591 3444 2069 3444 
Q 2244 3444 2359 3406 
L 2341 2428 
L 1994 2453 
z
" transform="scale(0.015625)"/>
       <path id="Roboto-Black-61" d="M 2200 0 
Q 2141 122 2103 303 
Q 1813 -63 1291 -63 
Q 822 -63 483 220 
Q 144 503 144 953 
Q 144 1469 520 1764 
Q 897 2059 1694 2066 
L 2053 2066 
L 2053 2244 
Q 2053 2709 1650 2709 
Q 1275 2709 1275 2341 
L 222 2341 
Q 222 2813 625 3128 
Q 1028 3444 1706 3444 
Q 2309 3444 2711 3142 
Q 3113 2841 3113 2238 
L 3113 766 
Q 3119 306 3256 53 
L 3256 0 
L 2200 0 
z
M 1541 688 
Q 1734 688 1865 770 
Q 1997 853 2053 956 
L 2053 1503 
L 1722 1503 
Q 1425 1503 1311 1351 
Q 1197 1200 1197 1009 
Q 1197 866 1295 777 
Q 1394 688 1541 688 
z
" transform="scale(0.015625)"/>
       <path id="Roboto-Black-6c" d="M 1409 4800 
L 1409 0 
L 353 0 
L 353 4800 
L 1409 4800 
z
" transform="scale(0.015625)"/>
       <path id="Roboto-Black-5b" d="M 1766 5331 
L 1766 4563 
L 1397 4563 
L 1397 -325 
L 1766 -325 
L 1766 -1091 
L 338 -1091 
L 338 5331 
L 1766 5331 
z
" transform="scale(0.015625)"/>
       <path id="Roboto-Black-b0" d="M 394 3734 
Q 394 4094 651 4353 
Q 909 4613 1269 4613 
Q 1625 4613 1878 4353 
Q 2131 4094 2131 3734 
Q 2131 3375 1878 3122 
Q 1625 2869 1269 2869 
Q 909 2869 651 3122 
Q 394 3375 394 3734 
z
M 875 3734 
Q 875 3569 992 3458 
Q 1109 3347 1268 3347 
Q 1428 3347 1537 3456 
Q 1647 3566 1647 3734 
Q 1647 3906 1537 4020 
Q 1428 4134 1268 4134 
Q 1109 4134 992 4020 
Q 875 3906 875 3734 
z
" transform="scale(0.015625)"/>
       <path id="Roboto-Black-5d" d="M 44 4563 
L 44 5331 
L 1472 5331 
L 1472 -1091 
L 44 -1091 
L 44 -325 
L 419 -325 
L 419 4563 
L 44 4563 
z
" transform="scale(0.015625)"/>
      </defs>
      <use xlink:href="#Roboto-Black-43"/>
      <use xlink:href="#Roboto-Black-59" x="65.625"/>
      <use xlink:href="#Roboto-Black-53" x="128.417969"/>
      <use xlink:href="#Roboto-Black-32" x="191.015625"/>
      <use xlink:href="#Roboto-Black-30" x="248.974609"/>
      <use xlink:href="#Roboto-Black-34" x="306.933594"/>
      <use xlink:href="#Roboto-Black-20" x="364.892578"/>
      <use xlink:href="#Roboto-Black-43" x="389.794922"/>
      <use xlink:href="#Roboto-Black-41" x="455.419922"/>
      <use xlink:href="#Roboto-Black-2d" x="523.535156"/>
      <use xlink:href="#Roboto-Black-43" x="568.505859"/>
      <use xlink:href="#Roboto-Black-20" x="634.130859"/>
      <use xlink:href="#Roboto-Black-53" x="659.033203"/>
      <use xlink:href="#Roboto-Black-45" x="721.630859"/>
      <use xlink:href="#Roboto-Black-52" x="777.587891"/>
      <use xlink:href="#Roboto-Black-32" x="842.822266"/>
      <use xlink:href="#Roboto-Black-30" x="900.78125"/>
      <use xlink:href="#Roboto-Black-35" x="958.740234"/>
      <use xlink:href="#Roboto-Black-20" x="1016.699219"/>
      <use xlink:href="#Roboto-Black-4e" x="1041.601562"/>
      <use xlink:href="#Roboto-Black-2d" x="1111.816406"/>
      <use xlink:href="#Roboto-Black-43" x="1156.787109"/>
      <use xlink:href="#Roboto-Black-41" x="1222.412109"/>
      <use xlink:href="#Roboto-Black-20" x="1290.527344"/>
      <use xlink:href="#Roboto-Black-44" x="1315.429688"/>
      <use xlink:href="#Roboto-Black-69" x="1380.126953"/>
      <use xlink:href="#Roboto-Black-68" x="1407.617188"/>
      <use xlink:href="#Roboto-Black-65" x="1464.0625"/>
      <use xlink:href="#Roboto-Black-64" x="1518.554688"/>
      <use xlink:href="#Roboto-Black-72" x="1574.804688"/>
      <use xlink:href="#Roboto-Black-61" x="1612.695312"/>
      <use xlink:href="#Roboto-Black-6c" x="1665.820312"/>
      <use xlink:href="#Roboto-Black-20" x="1693.310547"/>
      <use xlink:href="#Roboto-Black-5b" x="1718.212891"/>
      <use xlink:href="#Roboto-Black-b0" x="1746.435547"/>
      <use xlink:href="#Roboto-Black-5d" x="1786.181641"/>
     </g>
    </g>
   </g>
   <g id="matplotlib.axis_2">
    <g id="ytick_1">
     <g id="line2d_9">
      <defs>
       <path id="m635c1960d0" d="M 0 0 
L -3.5 0 
" style="stroke: #c2c1c1; stroke-width: 0.8"/>
      </defs>
      <g>
       <use xlink:href="#m635c1960d0" x="60.662" y="299.968" style="fill: #c2c1c1; stroke: #c2c1c1; stroke-width: 0.8"/>
      </g>
     </g>
     <g id="text_9">
      <!-- 0.000 -->
      <g style="fill: #191919" transform="translate(28.54325 303.718) scale(0.1 -0.1)">
       <defs>
        <path id="Roboto-Regular-2e" d="M 450 306 
Q 450 453 542 554 
Q 634 656 809 656 
Q 984 656 1076 554 
Q 1169 453 1169 306 
Q 1169 163 1076 62 
Q 984 -38 809 -38 
Q 634 -38 542 62 
Q 450 163 450 306 
z
" transform="scale(0.015625)"/>
       </defs>
       <use xlink:href="#Roboto-Regular-30"/>
       <use xlink:href="#Roboto-Regular-2e" x="56.201172"/>
       <use xlink:href="#Roboto-Regular-30" x="82.568359"/>
       <use xlink:href="#Roboto-Regular-30" x="138.769531"/>
       <use xlink:href="#Roboto-Regular-30" x="194.970703"/>
      </g>
     </g>
    </g>
    <g id="ytick_2">
     <g id="line2d_10">
      <g>
       <use xlink:href="#m635c1960d0" x="60.662" y="253.769981" style="fill: #c2c1c1; stroke: #c2c1c1; stroke-width: 0.8"/>
      </g>
     </g>
     <g id="text_10">
      <!-- 0.005 -->
      <g style="fill: #191919" transform="translate(28.54325 257.519981) scale(0.1 -0.1)">
       <defs>
        <path id="Roboto-Regular-35" d="M 1109 2166 
L 647 2284 
L 875 4550 
L 3209 4550 
L 3209 4016 
L 1366 4016 
L 1228 2778 
Q 1572 2975 1988 2975 
Q 2616 2975 2980 2561 
Q 3344 2147 3344 1450 
Q 3344 797 2987 367 
Q 2631 -63 1903 -63 
Q 1350 -63 947 248 
Q 544 559 481 1197 
L 1031 1197 
Q 1141 413 1903 413 
Q 2313 413 2538 691 
Q 2763 969 2763 1444 
Q 2763 1872 2527 2164 
Q 2291 2456 1853 2456 
Q 1563 2456 1413 2378 
Q 1263 2300 1109 2166 
z
" transform="scale(0.015625)"/>
       </defs>
       <use xlink:href="#Roboto-Regular-30"/>
       <use xlink:href="#Roboto-Regular-2e" x="56.201172"/>
       <use xlink:href="#Roboto-Regular-30" x="82.568359"/>
       <use xlink:href="#Roboto-Regular-30" x="138.769531"/>
       <use xlink:href="#Roboto-Regular-35" x="194.970703"/>
      </g>
     </g>
    </g>
    <g id="ytick_3">
     <g id="line2d_11">
      <g>
       <use xlink:href="#m635c1960d0" x="60.662" y="207.571963" style="fill: #c2c1c1; stroke: #c2c1c1; stroke-width: 0.8"/>
      </g>
     </g>
     <g id="text_11">
      <!-- 0.010 -->
      <g style="fill: #191919" transform="translate(28.54325 211.321963) scale(0.1 -0.1)">
       <use xlink:href="#Roboto-Regular-30"/>
       <use xlink:href="#Roboto-Regular-2e" x="56.201172"/>
       <use xlink:href="#Roboto-Regular-30" x="82.568359"/>
       <use xlink:href="#Roboto-Regular-31" x="138.769531"/>
       <use xlink:href="#Roboto-Regular-30" x="194.970703"/>
      </g>
     </g>
    </g>
    <g id="ytick_4">
     <g id="line2d_12">
      <g>
       <use xlink:href="#m635c1960d0" x="60.662" y="161.373944" style="fill: #c2c1c1; stroke: #c2c1c1; stroke-width: 0.8"/>
      </g>
     </g>
     <g id="text_12">
      <!-- 0.015 -->
      <g style="fill: #191919" transform="translate(28.54325 165.123944) scale(0.1 -0.1)">
       <use xlink:href="#Roboto-Regular-30"/>
       <use xlink:href="#Roboto-Regular-2e" x="56.201172"/>
       <use xlink:href="#Roboto-Regular-30" x="82.568359"/>
       <use xlink:href="#Roboto-Regular-31" x="138.769531"/>
       <use xlink:href="#Roboto-Regular-35" x="194.970703"/>
      </g>
     </g>
    </g>
    <g id="ytick_5">
     <g id="line2d_13">
      <g>
       <use xlink:href="#m635c1960d0" x="60.662" y="115.175925" style="fill: #c2c1c1; stroke: #c2c1c1; stroke-width: 0.8"/>
      </g>
     </g>
     <g id="text_13">
      <!-- 0.020 -->
      <g style="fill: #191919" transform="translate(28.54325 118.925925) scale(0.1 -0.1)">
       <use xlink:href="#Roboto-Regular-30"/>
       <use xlink:href="#Roboto-Regular-2e" x="56.201172"/>
       <use xlink:href="#Roboto-Regular-30" x="82.568359"/>
       <use xlink:href="#Roboto-Regular-32" x="138.769531"/>
       <use xlink:href="#Roboto-Regular-30" x="194.970703"/>
      </g>
     </g>
    </g>
    <g id="ytick_6">
     <g id="line2d_14">
      <g>
       <use xlink:href="#m635c1960d0" x="60.662" y="68.977907" style="fill: #c2c1c1; stroke: #c2c1c1; stroke-width: 0.8"/>
      </g>
     </g>
     <g id="text_14">
      <!-- 0.025 -->
      <g style="fill: #191919" transform="translate(28.54325 72.727907) scale(0.1 -0.1)">
       <use xlink:href="#Roboto-Regular-30"/>
       <use xlink:href="#Roboto-Regular-2e" x="56.201172"/>
       <use xlink:href="#Roboto-Regular-30" x="82.568359"/>
       <use xlink:href="#Roboto-Regular-32" x="138.769531"/>
       <use xlink:href="#Roboto-Regular-35" x="194.970703"/>
      </g>
     </g>
    </g>
    <g id="ytick_7">
     <g id="line2d_15">
      <g>
       <use xlink:href="#m635c1960d0" x="60.662" y="22.779888" style="fill: #c2c1c1; stroke: #c2c1c1; stroke-width: 0.8"/>
      </g>
     </g>
     <g id="text_15">
      <!-- 0.030 -->
      <g style="fill: #191919" transform="translate(28.54325 26.529888) scale(0.1 -0.1)">
       <defs>
        <path id="Roboto-Regular-33" d="M 1222 2084 
L 1222 2559 
L 1647 2559 
Q 2094 2563 2312 2784 
Q 2531 3006 2531 3338 
Q 2531 4138 1738 4138 
Q 1369 4138 1141 3927 
Q 913 3716 913 3359 
L 334 3359 
Q 334 3881 720 4247 
Q 1106 4613 1738 4613 
Q 2353 4613 2733 4286 
Q 3113 3959 3113 3325 
Q 3113 3072 2942 2784 
Q 2772 2497 2397 2338 
Q 2850 2191 3015 1884 
Q 3181 1578 3181 1269 
Q 3181 631 2768 284 
Q 2356 -63 1741 -63 
Q 1147 -63 722 267 
Q 297 597 297 1203 
L 875 1203 
Q 875 844 1108 628 
Q 1341 413 1741 413 
Q 2138 413 2369 622 
Q 2600 831 2600 1256 
Q 2600 1681 2337 1882 
Q 2075 2084 1634 2084 
L 1222 2084 
z
" transform="scale(0.015625)"/>
       </defs>
       <use xlink:href="#Roboto-Regular-30"/>
       <use xlink:href="#Roboto-Regular-2e" x="56.201172"/>
       <use xlink:href="#Roboto-Regular-30" x="82.568359"/>
       <use xlink:href="#Roboto-Regular-33" x="138.769531"/>
       <use xlink:href="#Roboto-Regular-30" x="194.970703"/>
      </g>
     </g>
    </g>
    <g id="text_16">
     <!-- Density -->
     <g style="fill: #191919" transform="translate(21.982 176.899625) rotate(-90) scale(0.12 -0.12)">
      <defs>
       <path id="Roboto-Black-6e" d="M 1788 2631 
Q 1478 2631 1331 2391 
L 1331 0 
L 278 0 
L 278 3381 
L 1266 3381 
L 1300 2988 
Q 1653 3444 2263 3444 
Q 2731 3444 3026 3156 
Q 3322 2869 3325 2144 
L 3325 0 
L 2266 0 
L 2266 2131 
Q 2266 2438 2141 2534 
Q 2016 2631 1788 2631 
z
" transform="scale(0.015625)"/>
       <path id="Roboto-Black-73" d="M 2069 950 
Q 2069 1084 1920 1167 
Q 1772 1250 1391 1334 
Q 897 1444 556 1689 
Q 216 1934 216 2375 
Q 216 2803 580 3123 
Q 944 3444 1609 3444 
Q 2291 3444 2689 3137 
Q 3088 2831 3088 2344 
L 2034 2344 
Q 2034 2750 1606 2750 
Q 1444 2750 1328 2662 
Q 1213 2575 1213 2428 
Q 1213 2166 1773 2059 
Q 2334 1953 2709 1728 
Q 3084 1503 3084 981 
Q 3084 534 2686 235 
Q 2288 -63 1606 -63 
Q 878 -63 495 306 
Q 113 675 113 1084 
L 1094 1084 
Q 1103 850 1251 742 
Q 1400 634 1634 634 
Q 2069 634 2069 950 
z
" transform="scale(0.015625)"/>
       <path id="Roboto-Black-74" d="M 2128 28 
Q 1850 -63 1534 -63 
Q 1025 -63 747 179 
Q 469 422 469 972 
L 469 2650 
L 41 2650 
L 41 3381 
L 469 3381 
L 469 4222 
L 1522 4222 
L 1522 3381 
L 2078 3381 
L 2078 2650 
L 1522 2650 
L 1522 1103 
Q 1522 900 1597 831 
Q 1672 763 1866 763 
Q 2019 763 2128 781 
L 2128 28 
z
" transform="scale(0.015625)"/>
       <path id="Roboto-Black-79" d="M 1981 -503 
Q 1925 -675 1811 -875 
Q 1697 -1075 1473 -1220 
Q 1250 -1366 866 -1366 
L 666 -1356 
L 428 -1303 
L 428 -550 
L 566 -550 
Q 819 -550 925 -475 
Q 1031 -400 1078 -256 
L 1166 -34 
L -16 3381 
L 1113 3381 
L 1650 1472 
L 2209 3381 
L 3341 3381 
L 1981 -503 
z
" transform="scale(0.015625)"/>
      </defs>
      <use xlink:href="#Roboto-Black-44"/>
      <use xlink:href="#Roboto-Black-65" x="64.697266"/>
      <use xlink:href="#Roboto-Black-6e" x="119.189453"/>
      <use xlink:href="#Roboto-Black-73" x="175.634766"/>
      <use xlink:href="#Roboto-Black-69" x="226.904297"/>
      <use xlink:href="#Roboto-Black-74" x="254.394531"/>
      <use xlink:href="#Roboto-Black-79" x="288.769531"/>
     </g>
    </g>
   </g>
   <g id="line2d_16">
    <path d="M 60.662 36.67147 
L 61.824697 43.203782 
L 62.987393 51.17074 
L 64.537656 63.769063 
L 66.087918 78.257865 
L 68.025746 98.360211 
L 71.513836 137.450523 
L 75.389491 180.327631 
L 77.714885 203.705885 
L 79.652713 221.18652 
L 81.590541 236.607086 
L 83.140803 247.402901 
L 84.691065 256.841513 
L 86.241327 264.976051 
L 87.79159 271.889345 
L 89.341852 277.684925 
L 90.892114 282.478761 
L 92.442376 286.392061 
L 93.992639 289.545351 
L 95.542901 292.053899 
L 97.093163 294.024445 
L 98.643425 295.553126 
L 100.193688 296.724424 
L 101.74395 297.610941 
L 103.681778 298.4107 
L 105.619606 298.956497 
L 107.944999 299.378699 
L 111.045524 299.691907 
L 115.308745 299.877224 
L 123.447622 299.959258 
L 170.730621 299.968 
L 386.604641 299.859856 
L 391.255427 299.607321 
L 393.968386 299.270244 
L 396.29378 298.77098 
L 398.231608 298.125693 
L 399.78187 297.39866 
L 401.332132 296.424101 
L 402.882394 295.134034 
L 404.045091 293.911457 
L 405.207788 292.427639 
L 406.370484 290.639901 
L 407.533181 288.50188 
L 408.695878 285.964015 
L 409.858575 282.974254 
L 411.021271 279.479012 
L 412.183968 275.424403 
L 413.73423 269.057422 
L 415.284492 261.486727 
L 416.834755 252.614178 
L 418.385017 242.368787 
L 419.935279 230.716521 
L 421.873107 214.196954 
L 423.810935 195.650182 
L 426.136328 171.153493 
L 429.624418 131.662973 
L 433.112509 92.595392 
L 435.050336 72.912043 
L 436.600599 58.976271 
L 438.150861 47.11414 
L 439.313558 39.806958 
L 440.476254 34.012571 
L 441.251385 31.044188 
L 442.026517 28.82093 
L 442.801648 27.361126 
L 443.189213 26.921485 
L 443.576779 26.676643 
L 443.964344 26.627048 
L 444.35191 26.772727 
L 444.739475 27.113293 
L 445.127041 27.647937 
L 445.902172 29.294171 
L 446.677303 31.696794 
L 447.452434 34.834854 
L 447.84 36.67147 
L 447.84 36.67147 
" clip-path="url(#p11b1d6701b)" style="fill: none; stroke: #f99752; stroke-width: 2.5; stroke-linecap: square"/>
   </g>
   <g id="patch_3">
    <path d="M 60.662 299.968 
L 60.662 12.96 
" style="fill: none; stroke: #c2c1c1; stroke-width: 0.8; stroke-linejoin: miter; stroke-linecap: square"/>
   </g>
   <g id="patch_4">
    <path d="M 447.84 299.968 
L 447.84 12.96 
" style="fill: none; stroke: #c2c1c1; stroke-width: 0.8; stroke-linejoin: miter; stroke-linecap: square"/>
   </g>
   <g id="patch_5">
    <path d="M 60.662 299.968 
L 447.84 299.968 
" style="fill: none; stroke: #c2c1c1; stroke-width: 0.8; stroke-linejoin: miter; stroke-linecap: square"/>
   </g>
   <g id="patch_6">
    <path d="M 60.662 12.96 
L 447.84 12.96 
" style="fill: none; stroke: #c2c1c1; stroke-width: 0.8; stroke-linejoin: miter; stroke-linecap: square"/>
   </g>
   <g id="legend_1">
    <g id="line2d_17">
     <path d="M 214.17475 264.149875 
L 226.17475 264.149875 
L 238.17475 264.149875 
" style="fill: none; stroke: #1e2e79; stroke-width: 2.5; stroke-linecap: square"/>
    </g>
    <g id="text_17">
     <!-- Reduced -->
     <g transform="translate(247.77475 268.349875) scale(0.12 -0.12)">
      <defs>
       <path id="Roboto-Regular-52" d="M 3188 0 
L 2200 1844 
L 1131 1844 
L 1131 0 
L 528 0 
L 528 4550 
L 2034 4550 
Q 2800 4550 3214 4200 
Q 3628 3850 3628 3184 
Q 3628 2759 3398 2442 
Q 3169 2125 2763 1969 
L 3831 38 
L 3831 0 
L 3188 0 
z
M 1131 4056 
L 1131 2334 
L 2053 2334 
Q 2538 2334 2783 2582 
Q 3028 2831 3028 3184 
Q 3028 3578 2792 3817 
Q 2556 4056 2034 4056 
L 1131 4056 
z
" transform="scale(0.015625)"/>
       <path id="Roboto-Regular-65" d="M 3116 591 
Q 2950 341 2647 139 
Q 2344 -63 1844 -63 
Q 1138 -63 714 396 
Q 291 856 291 1572 
L 291 1703 
Q 291 2256 502 2645 
Q 713 3034 1050 3239 
Q 1388 3444 1769 3444 
Q 2494 3444 2826 2970 
Q 3159 2497 3159 1788 
L 3159 1528 
L 872 1528 
Q 884 1063 1148 736 
Q 1413 409 1875 409 
Q 2181 409 2393 534 
Q 2606 659 2766 869 
L 3116 591 
z
M 1769 2969 
Q 1425 2969 1187 2719 
Q 950 2469 891 2000 
L 2581 2000 
L 2581 2044 
Q 2559 2381 2386 2675 
Q 2213 2969 1769 2969 
z
" transform="scale(0.015625)"/>
       <path id="Roboto-Regular-64" d="M 2622 0 
L 2594 363 
Q 2247 -63 1628 -63 
Q 1034 -63 668 418 
Q 303 900 297 1628 
L 297 1719 
Q 297 2494 664 2969 
Q 1031 3444 1634 3444 
Q 2231 3444 2572 3044 
L 2572 4800 
L 3153 4800 
L 3153 0 
L 2622 0 
z
M 878 1653 
Q 878 1150 1090 789 
Q 1303 428 1772 428 
Q 2309 428 2572 919 
L 2572 2475 
Q 2313 2956 1778 2956 
Q 1306 2956 1092 2589 
Q 878 2222 878 1719 
L 878 1653 
z
" transform="scale(0.015625)"/>
       <path id="Roboto-Regular-75" d="M 2538 0 
L 2525 334 
Q 2194 -63 1538 -63 
Q 1041 -63 734 231 
Q 428 525 428 1200 
L 428 3381 
L 1006 3381 
L 1006 1194 
Q 1006 738 1198 583 
Q 1391 428 1628 428 
Q 2281 428 2509 919 
L 2509 3381 
L 3091 3381 
L 3091 0 
L 2538 0 
z
" transform="scale(0.015625)"/>
       <path id="Roboto-Regular-63" d="M 1794 413 
Q 2103 413 2336 597 
Q 2569 781 2591 1069 
L 3141 1069 
Q 3119 616 2725 276 
Q 2331 -63 1794 -63 
Q 1031 -63 661 440 
Q 291 944 291 1625 
L 291 1756 
Q 291 2438 661 2941 
Q 1031 3444 1794 3444 
Q 2388 3444 2753 3092 
Q 3119 2741 3141 2219 
L 2591 2219 
Q 2569 2531 2355 2750 
Q 2141 2969 1794 2969 
Q 1438 2969 1236 2787 
Q 1034 2606 951 2328 
Q 869 2050 869 1756 
L 869 1625 
Q 869 1328 950 1050 
Q 1031 772 1232 592 
Q 1434 413 1794 413 
z
" transform="scale(0.015625)"/>
      </defs>
      <use xlink:href="#Roboto-Regular-52"/>
      <use xlink:href="#Roboto-Regular-65" x="61.621094"/>
      <use xlink:href="#Roboto-Regular-64" x="114.648438"/>
      <use xlink:href="#Roboto-Regular-75" x="171.044922"/>
      <use xlink:href="#Roboto-Regular-63" x="226.171875"/>
      <use xlink:href="#Roboto-Regular-65" x="278.515625"/>
      <use xlink:href="#Roboto-Regular-64" x="331.542969"/>
     </g>
    </g>
    <g id="line2d_18">
     <path d="M 214.17475 282.213625 
L 226.17475 282.213625 
L 238.17475 282.213625 
" style="fill: none; stroke: #f99752; stroke-width: 2.5; stroke-linecap: square"/>
    </g>
    <g id="text_18">
     <!-- Cu(I) -->
     <g transform="translate(247.77475 286.413625) scale(0.12 -0.12)">
      <defs>
       <path id="Roboto-Regular-43" d="M 3275 1447 
L 3875 1447 
Q 3806 800 3387 368 
Q 2969 -63 2150 -63 
Q 1356 -63 870 504 
Q 384 1072 375 2013 
L 375 2500 
Q 375 3456 867 4034 
Q 1359 4613 2203 4613 
Q 2975 4613 3390 4188 
Q 3806 3763 3875 3091 
L 3275 3091 
Q 3206 3566 2968 3842 
Q 2731 4119 2203 4119 
Q 1600 4119 1287 3675 
Q 975 3231 975 2506 
L 975 2047 
Q 975 1375 1259 901 
Q 1544 428 2150 428 
Q 2725 428 2961 697 
Q 3197 966 3275 1447 
z
" transform="scale(0.015625)"/>
       <path id="Roboto-Regular-28" d="M 419 1850 
Q 419 2756 678 3434 
Q 938 4113 1294 4541 
Q 1650 4969 1947 5134 
L 2069 4753 
Q 1700 4475 1348 3761 
Q 997 3047 997 1813 
Q 997 625 1348 -97 
Q 1700 -819 2069 -1119 
L 1947 -1469 
Q 1650 -1306 1294 -878 
Q 938 -450 678 226 
Q 419 903 419 1850 
z
" transform="scale(0.015625)"/>
       <path id="Roboto-Regular-49" d="M 1175 4550 
L 1175 0 
L 572 0 
L 572 4550 
L 1175 4550 
z
" transform="scale(0.015625)"/>
       <path id="Roboto-Regular-29" d="M 1772 1819 
Q 1772 906 1512 228 
Q 1253 -450 895 -878 
Q 538 -1306 244 -1469 
L 122 -1119 
Q 488 -841 841 -109 
Q 1194 622 1194 1856 
Q 1194 2647 1019 3236 
Q 844 3825 594 4212 
Q 344 4600 122 4781 
L 244 5134 
Q 538 4969 895 4541 
Q 1253 4113 1512 3436 
Q 1772 2759 1772 1819 
z
" transform="scale(0.015625)"/>
      </defs>
      <use xlink:href="#Roboto-Regular-43"/>
      <use xlink:href="#Roboto-Regular-75" x="65.087891"/>
      <use xlink:href="#Roboto-Regular-28" x="120.214844"/>
      <use xlink:href="#Roboto-Regular-49" x="154.443359"/>
      <use xlink:href="#Roboto-Regular-29" x="181.640625"/>
     </g>
    </g>
   </g>
  </g>
 </g>
 <defs>
  <clipPath id="p11b1d6701b">
   <rect x="60.662" y="12.96" width="387.178" height="287.008"/>
  </clipPath>
 </defs>
</svg>
