<?xml version="1.0" encoding="utf-8" standalone="no"?>
<!DOCTYPE svg PUBLIC "-//W3C//DTD SVG 1.1//EN"
  "http://www.w3.org/Graphics/SVG/1.1/DTD/svg11.dtd">
<svg xmlns:xlink="http://www.w3.org/1999/xlink" width="460.8pt" height="345.6pt" viewBox="0 0 460.8 345.6" xmlns="http://www.w3.org/2000/svg" version="1.1">
 <metadata>
  <rdf:RDF xmlns:dc="http://purl.org/dc/elements/1.1/" xmlns:cc="http://creativecommons.org/ns#" xmlns:rdf="http://www.w3.org/1999/02/22-rdf-syntax-ns#">
   <cc:Work>
    <dc:type rdf:resource="http://purl.org/dc/dcmitype/StillImage"/>
    <dc:date>2024-07-07T13:55:01.521059</dc:date>
    <dc:format>image/svg+xml</dc:format>
    <dc:creator>
     <cc:Agent>
      <dc:title>Matplotlib v3.8.4, https://matplotlib.org/</dc:title>
     </cc:Agent>
    </dc:creator>
   </cc:Work>
  </rdf:RDF>
 </metadata>
 <defs>
  <style type="text/css">*{stroke-linejoin: round; stroke-linecap: butt}</style>
 </defs>
 <g id="figure_1">
  <g id="patch_1">
   <path d="M 0 345.6 
L 460.8 345.6 
L 460.8 0 
L 0 0 
z
" style="fill: #ffffff"/>
  </g>
  <g id="axes_1">
   <g id="patch_2">
    <path d="M 49.43 298.672 
L 445.032 298.672 
L 445.032 12.96 
L 49.43 12.96 
z
" style="fill: #ffffff"/>
   </g>
   <g id="line2d_1">
    <path d="M -1 298.672 
L 3.498682 298.672 
L 10.166131 298.672 
L 16.833581 298.672 
L 23.50103 298.672 
L 30.168479 298.671971 
L 36.835929 298.66124 
L 43.503378 298.530143 
L 50.170828 298.595385 
L 56.838277 298.672 
L 63.505727 298.671947 
L 70.173176 298.646208 
L 76.840625 298.570428 
L 83.508075 298.208583 
L 90.175524 296.776133 
L 96.842974 291.330656 
L 103.510423 272.559902 
L 110.177873 230.140721 
L 116.845322 161.44327 
L 123.512772 74.044135 
L 130.180221 31.410631 
L 136.84767 74.389423 
L 143.51512 155.510905 
L 150.182569 226.520875 
L 156.850019 259.775806 
L 163.517468 277.971088 
L 170.184918 286.225893 
L 176.852367 289.291836 
L 183.519816 292.205321 
L 190.187266 290.849455 
L 196.854715 289.355913 
L 203.522165 285.155456 
L 210.189614 281.666694 
L 216.857064 274.983271 
L 223.524513 269.164451 
L 230.191963 264.554199 
L 236.859412 262.250697 
L 243.526861 262.56736 
L 250.194311 267.072161 
L 256.86176 267.28036 
L 263.52921 270.395598 
L 270.196659 270.732605 
L 276.864109 272.048866 
L 283.531558 270.197443 
L 290.199007 264.991584 
L 296.866457 264.175657 
L 303.533906 264.00154 
L 310.201356 264.306041 
L 316.868805 266.697765 
L 323.536255 268.807033 
L 330.203704 271.646902 
L 336.871154 277.645768 
L 343.538603 280.43152 
L 350.206052 281.957022 
L 356.873502 283.343255 
L 363.540951 283.93743 
L 370.208401 285.715746 
L 376.87585 288.075394 
L 383.5433 286.673637 
L 390.210749 288.651508 
L 396.878199 290.254659 
L 403.545648 290.888977 
L 410.213097 290.20832 
L 416.880547 289.910997 
L 423.547996 291.426929 
L 430.215446 289.687321 
L 436.882895 291.283677 
L 443.550345 290.475651 
L 450.217794 289.950914 
L 456.885243 290.219688 
L 461.8 290.543351 
" clip-path="url(#p9e0f3610a8)" style="fill: none; stroke: #1e2e79; stroke-width: 2.5; stroke-linecap: square"/>
   </g>
   <g id="line2d_2">
    <path d="M -1 298.672 
L 3.498682 298.672 
L 10.166131 298.672 
L 16.833581 298.672 
L 23.50103 298.672 
L 30.168479 298.672 
L 36.835929 298.672 
L 43.503378 298.609127 
L 50.170828 298.62525 
L 56.838277 298.640912 
L 63.505727 298.669619 
L 70.173176 298.672 
L 76.840625 298.66957 
L 83.508075 298.64124 
L 90.175524 298.03139 
L 96.842974 293.609345 
L 103.510423 276.970089 
L 110.177873 243.30263 
L 116.845322 175.399747 
L 123.512772 103.477061 
L 130.180221 60.286015 
L 136.84767 103.897497 
L 143.51512 163.787155 
L 150.182569 228.155663 
L 156.850019 260.406344 
L 163.517468 279.028613 
L 170.184918 287.880548 
L 176.852367 292.01385 
L 183.519816 294.11562 
L 190.187266 295.930087 
L 196.854715 296.088156 
L 203.522165 296.923095 
L 210.189614 296.269809 
L 216.857064 293.415202 
L 223.524513 290.654547 
L 230.191963 284.553483 
L 236.859412 275.530518 
L 243.526861 267.186413 
L 250.194311 257.027687 
L 256.86176 250.306553 
L 263.52921 246.714497 
L 270.196659 247.459171 
L 276.864109 252.290198 
L 283.531558 258.596483 
L 290.199007 269.56509 
L 296.866457 275.220106 
L 303.533906 280.283245 
L 310.201356 286.921083 
L 316.868805 287.739708 
L 323.536255 290.648946 
L 330.203704 292.683572 
L 336.871154 293.436636 
L 343.538603 293.909531 
L 350.206052 295.034081 
L 356.873502 295.793732 
L 363.540951 296.359623 
L 370.208401 297.433572 
L 376.87585 296.85336 
L 383.5433 297.466928 
L 390.210749 297.745646 
L 396.878199 298.115543 
L 403.545648 298.111321 
L 410.213097 298.249933 
L 416.880547 298.190622 
L 423.547996 298.473334 
L 430.215446 298.612224 
L 436.882895 298.454143 
L 443.550345 298.654648 
L 450.217794 298.386698 
L 456.885243 298.591239 
L 461.8 298.492272 
" clip-path="url(#p9e0f3610a8)" style="fill: none; stroke: #ec4067; stroke-width: 2.5; stroke-linecap: square"/>
   </g>
   <g id="matplotlib.axis_1">
    <g id="xtick_1">
     <g id="line2d_3">
      <defs>
       <path id="mc368879e5c" d="M 0 0 
L 0 3.5 
" style="stroke: #c2c1c1; stroke-width: 0.8"/>
      </defs>
      <g>
       <use xlink:href="#mc368879e5c" x="49.43" y="298.672" style="fill: #c2c1c1; stroke: #c2c1c1; stroke-width: 0.8"/>
      </g>
     </g>
     <g id="text_1">
      <!-- 2 -->
      <g style="fill: #191919" transform="translate(46.619844 313.172) scale(0.1 -0.1)">
       <defs>
        <path id="Roboto-Regular-32" d="M 3359 475 
L 3359 0 
L 381 0 
L 381 416 
L 1925 2134 
Q 2306 2566 2439 2819 
Q 2572 3072 2572 3328 
Q 2572 3663 2364 3900 
Q 2156 4138 1778 4138 
Q 1322 4138 1097 3878 
Q 872 3619 872 3213 
L 294 3213 
Q 294 3788 672 4200 
Q 1050 4613 1778 4613 
Q 2422 4613 2786 4278 
Q 3150 3944 3150 3397 
Q 3150 2997 2903 2592 
Q 2656 2188 2297 1797 
L 1078 475 
L 3359 475 
z
" transform="scale(0.015625)"/>
       </defs>
       <use xlink:href="#Roboto-Regular-32"/>
      </g>
     </g>
    </g>
    <g id="xtick_2">
     <g id="line2d_4">
      <g>
       <use xlink:href="#mc368879e5c" x="115.363667" y="298.672" style="fill: #c2c1c1; stroke: #c2c1c1; stroke-width: 0.8"/>
      </g>
     </g>
     <g id="text_2">
      <!-- 3 -->
      <g style="fill: #191919" transform="translate(112.55351 313.172) scale(0.1 -0.1)">
       <defs>
        <path id="Roboto-Regular-33" d="M 1222 2084 
L 1222 2559 
L 1647 2559 
Q 2094 2563 2312 2784 
Q 2531 3006 2531 3338 
Q 2531 4138 1738 4138 
Q 1369 4138 1141 3927 
Q 913 3716 913 3359 
L 334 3359 
Q 334 3881 720 4247 
Q 1106 4613 1738 4613 
Q 2353 4613 2733 4286 
Q 3113 3959 3113 3325 
Q 3113 3072 2942 2784 
Q 2772 2497 2397 2338 
Q 2850 2191 3015 1884 
Q 3181 1578 3181 1269 
Q 3181 631 2768 284 
Q 2356 -63 1741 -63 
Q 1147 -63 722 267 
Q 297 597 297 1203 
L 875 1203 
Q 875 844 1108 628 
Q 1341 413 1741 413 
Q 2138 413 2369 622 
Q 2600 831 2600 1256 
Q 2600 1681 2337 1882 
Q 2075 2084 1634 2084 
L 1222 2084 
z
" transform="scale(0.015625)"/>
       </defs>
       <use xlink:href="#Roboto-Regular-33"/>
      </g>
     </g>
    </g>
    <g id="xtick_3">
     <g id="line2d_5">
      <g>
       <use xlink:href="#mc368879e5c" x="181.297333" y="298.672" style="fill: #c2c1c1; stroke: #c2c1c1; stroke-width: 0.8"/>
      </g>
     </g>
     <g id="text_3">
      <!-- 4 -->
      <g style="fill: #191919" transform="translate(178.487177 313.172) scale(0.1 -0.1)">
       <defs>
        <path id="Roboto-Regular-34" d="M 166 1397 
L 2203 4550 
L 2819 4550 
L 2819 1531 
L 3453 1531 
L 3453 1056 
L 2819 1056 
L 2819 0 
L 2241 0 
L 2241 1056 
L 166 1056 
L 166 1397 
z
M 822 1531 
L 2241 1531 
L 2241 3766 
L 2169 3638 
L 822 1531 
z
" transform="scale(0.015625)"/>
       </defs>
       <use xlink:href="#Roboto-Regular-34"/>
      </g>
     </g>
    </g>
    <g id="xtick_4">
     <g id="line2d_6">
      <g>
       <use xlink:href="#mc368879e5c" x="247.231" y="298.672" style="fill: #c2c1c1; stroke: #c2c1c1; stroke-width: 0.8"/>
      </g>
     </g>
     <g id="text_4">
      <!-- 5 -->
      <g style="fill: #191919" transform="translate(244.420844 313.172) scale(0.1 -0.1)">
       <defs>
        <path id="Roboto-Regular-35" d="M 1109 2166 
L 647 2284 
L 875 4550 
L 3209 4550 
L 3209 4016 
L 1366 4016 
L 1228 2778 
Q 1572 2975 1988 2975 
Q 2616 2975 2980 2561 
Q 3344 2147 3344 1450 
Q 3344 797 2987 367 
Q 2631 -63 1903 -63 
Q 1350 -63 947 248 
Q 544 559 481 1197 
L 1031 1197 
Q 1141 413 1903 413 
Q 2313 413 2538 691 
Q 2763 969 2763 1444 
Q 2763 1872 2527 2164 
Q 2291 2456 1853 2456 
Q 1563 2456 1413 2378 
Q 1263 2300 1109 2166 
z
" transform="scale(0.015625)"/>
       </defs>
       <use xlink:href="#Roboto-Regular-35"/>
      </g>
     </g>
    </g>
    <g id="xtick_5">
     <g id="line2d_7">
      <g>
       <use xlink:href="#mc368879e5c" x="313.164667" y="298.672" style="fill: #c2c1c1; stroke: #c2c1c1; stroke-width: 0.8"/>
      </g>
     </g>
     <g id="text_5">
      <!-- 6 -->
      <g style="fill: #191919" transform="translate(310.35451 313.172) scale(0.1 -0.1)">
       <defs>
        <path id="Roboto-Regular-36" d="M 3291 1484 
Q 3291 838 2930 387 
Q 2569 -63 1878 -63 
Q 1388 -63 1063 198 
Q 738 459 577 861 
Q 416 1263 416 1684 
L 416 1956 
Q 416 2597 595 3194 
Q 775 3791 1247 4173 
Q 1719 4556 2597 4556 
L 2647 4556 
L 2647 4066 
Q 2041 4066 1705 3853 
Q 1369 3641 1205 3302 
Q 1041 2963 1006 2575 
Q 1369 2984 1984 2984 
Q 2438 2984 2727 2765 
Q 3016 2547 3153 2201 
Q 3291 1856 3291 1484 
z
M 997 1666 
Q 997 1059 1267 737 
Q 1538 416 1878 416 
Q 2278 416 2498 708 
Q 2719 1000 2719 1456 
Q 2719 1863 2516 2184 
Q 2313 2506 1891 2506 
Q 1588 2506 1341 2325 
Q 1094 2144 997 1884 
L 997 1666 
z
" transform="scale(0.015625)"/>
       </defs>
       <use xlink:href="#Roboto-Regular-36"/>
      </g>
     </g>
    </g>
    <g id="xtick_6">
     <g id="line2d_8">
      <g>
       <use xlink:href="#mc368879e5c" x="379.098333" y="298.672" style="fill: #c2c1c1; stroke: #c2c1c1; stroke-width: 0.8"/>
      </g>
     </g>
     <g id="text_6">
      <!-- 7 -->
      <g style="fill: #191919" transform="translate(376.288177 313.172) scale(0.1 -0.1)">
       <defs>
        <path id="Roboto-Regular-37" d="M 3319 4550 
L 3319 4225 
L 1434 0 
L 825 0 
L 2706 4075 
L 244 4075 
L 244 4550 
L 3319 4550 
z
" transform="scale(0.015625)"/>
       </defs>
       <use xlink:href="#Roboto-Regular-37"/>
      </g>
     </g>
    </g>
    <g id="xtick_7">
     <g id="line2d_9">
      <g>
       <use xlink:href="#mc368879e5c" x="445.032" y="298.672" style="fill: #c2c1c1; stroke: #c2c1c1; stroke-width: 0.8"/>
      </g>
     </g>
     <g id="text_7">
      <!-- 8 -->
      <g style="fill: #191919" transform="translate(442.221844 313.172) scale(0.1 -0.1)">
       <defs>
        <path id="Roboto-Regular-38" d="M 3244 1231 
Q 3244 606 2826 271 
Q 2409 -63 1796 -63 
Q 1184 -63 767 271 
Q 350 606 350 1231 
Q 350 1613 554 1905 
Q 759 2197 1109 2347 
Q 806 2494 629 2762 
Q 453 3031 453 3366 
Q 453 3963 833 4288 
Q 1213 4613 1794 4613 
Q 2378 4613 2758 4288 
Q 3138 3963 3138 3366 
Q 3138 3028 2956 2761 
Q 2775 2494 2472 2347 
Q 2825 2197 3034 1903 
Q 3244 1609 3244 1231 
z
M 2559 3356 
Q 2559 3697 2346 3917 
Q 2134 4138 1793 4138 
Q 1453 4138 1243 3927 
Q 1034 3716 1034 3356 
Q 1034 3003 1243 2790 
Q 1453 2578 1797 2578 
Q 2138 2578 2348 2790 
Q 2559 3003 2559 3356 
z
M 2663 1244 
Q 2663 1625 2420 1865 
Q 2178 2106 1791 2106 
Q 1394 2106 1161 1865 
Q 928 1625 928 1244 
Q 928 850 1161 631 
Q 1394 413 1797 413 
Q 2200 413 2431 631 
Q 2663 850 2663 1244 
z
" transform="scale(0.015625)"/>
       </defs>
       <use xlink:href="#Roboto-Regular-38"/>
      </g>
     </g>
    </g>
    <g id="text_8">
     <!-- SER205 OG - H2O H Distance [Å] -->
     <g style="fill: #191919" transform="translate(158.716 330.102625) scale(0.12 -0.12)">
      <defs>
       <path id="Roboto-Black-53" d="M 2691 1209 
Q 2691 1425 2542 1565 
Q 2394 1706 1891 1873 
Q 1388 2041 1045 2239 
Q 703 2438 520 2700 
Q 338 2963 338 3334 
Q 338 3919 834 4266 
Q 1331 4613 2088 4613 
Q 2834 4613 3311 4228 
Q 3788 3844 3788 3200 
L 2697 3200 
Q 2697 3456 2539 3620 
Q 2381 3784 2063 3784 
Q 1750 3784 1590 3648 
Q 1431 3513 1431 3325 
Q 1431 3122 1653 2983 
Q 1875 2844 2266 2719 
Q 2991 2488 3389 2139 
Q 3788 1791 3788 1216 
Q 3788 600 3328 268 
Q 2869 -63 2106 -63 
Q 1638 -63 1200 96 
Q 763 256 481 597 
Q 200 938 200 1475 
L 1300 1475 
Q 1300 1075 1509 919 
Q 1719 763 2106 763 
Q 2419 763 2555 894 
Q 2691 1025 2691 1209 
z
" transform="scale(0.015625)"/>
       <path id="Roboto-Black-45" d="M 347 0 
L 347 4550 
L 3488 4550 
L 3488 3703 
L 1444 3703 
L 1444 2744 
L 3166 2744 
L 3166 1928 
L 1444 1928 
L 1444 844 
L 3478 844 
L 3478 0 
L 347 0 
z
" transform="scale(0.015625)"/>
       <path id="Roboto-Black-52" d="M 2838 0 
L 2034 1606 
L 1444 1606 
L 1444 0 
L 347 0 
L 347 4550 
L 2138 4550 
Q 2925 4550 3392 4198 
Q 3859 3847 3859 3175 
Q 3859 2650 3642 2350 
Q 3425 2050 3066 1881 
L 4013 47 
L 4013 0 
L 2838 0 
z
M 1444 3703 
L 1444 2453 
L 2138 2453 
Q 2763 2453 2763 3075 
Q 2763 3694 2156 3703 
L 1444 3703 
z
" transform="scale(0.015625)"/>
       <path id="Roboto-Black-32" d="M 3456 813 
L 3456 0 
L 281 0 
L 281 688 
L 1744 2225 
Q 2284 2847 2284 3203 
Q 2284 3803 1784 3803 
Q 1538 3803 1391 3598 
Q 1244 3394 1244 3088 
L 188 3088 
Q 188 3716 636 4166 
Q 1084 4616 1809 4616 
Q 2563 4616 2952 4267 
Q 3341 3919 3341 3297 
Q 3341 2822 3052 2409 
Q 2763 1997 2250 1491 
L 1663 813 
L 3456 813 
z
" transform="scale(0.015625)"/>
       <path id="Roboto-Black-30" d="M 3441 1859 
Q 3441 875 3000 406 
Q 2559 -63 1859 -63 
Q 1156 -63 712 406 
Q 269 875 269 1859 
L 269 2691 
Q 269 3675 709 4144 
Q 1150 4613 1853 4613 
Q 2553 4613 2997 4144 
Q 3441 3675 3441 2691 
L 3441 1859 
z
M 2388 2825 
Q 2388 3369 2244 3584 
Q 2100 3800 1853 3800 
Q 1609 3800 1467 3589 
Q 1325 3378 1322 2850 
L 1322 1731 
Q 1322 1178 1465 964 
Q 1609 750 1859 750 
Q 2100 750 2242 959 
Q 2384 1169 2388 1706 
L 2388 2825 
z
" transform="scale(0.015625)"/>
       <path id="Roboto-Black-35" d="M 1178 2028 
L 341 2225 
L 616 4550 
L 3275 4550 
L 3275 3731 
L 1475 3731 
L 1372 2828 
Q 1447 2872 1626 2933 
Q 1806 2994 2025 2994 
Q 2700 2994 3065 2595 
Q 3431 2197 3431 1466 
Q 3431 1075 3261 725 
Q 3091 375 2741 156 
Q 2391 -63 1850 -63 
Q 1447 -63 1078 101 
Q 709 266 478 570 
Q 247 875 250 1294 
L 1309 1294 
Q 1322 1044 1467 897 
Q 1613 750 1844 750 
Q 2159 750 2267 984 
Q 2375 1219 2375 1538 
Q 2375 1872 2223 2069 
Q 2072 2266 1728 2266 
Q 1497 2266 1367 2186 
Q 1238 2106 1178 2028 
z
" transform="scale(0.015625)"/>
       <path id="Roboto-Black-20" transform="scale(0.015625)"/>
       <path id="Roboto-Black-4f" d="M 4197 2181 
Q 4197 1138 3640 537 
Q 3084 -63 2213 -63 
Q 1334 -63 776 537 
Q 219 1138 219 2181 
L 219 2366 
Q 219 3409 773 4011 
Q 1328 4613 2206 4613 
Q 3078 4613 3637 4011 
Q 4197 3409 4197 2366 
L 4197 2181 
z
M 3084 2372 
Q 3084 3059 2865 3406 
Q 2647 3753 2206 3753 
Q 1388 3753 1338 2534 
L 1334 2181 
Q 1334 1513 1554 1153 
Q 1775 794 2213 794 
Q 2628 794 2854 1148 
Q 3081 1503 3084 2163 
L 3084 2372 
z
" transform="scale(0.015625)"/>
       <path id="Roboto-Black-47" d="M 4069 2431 
L 4069 563 
Q 3894 369 3444 153 
Q 2994 -63 2259 -63 
Q 1353 -63 804 510 
Q 256 1084 256 2147 
L 256 2400 
Q 256 3463 803 4039 
Q 1350 4616 2200 4616 
Q 3141 4616 3569 4181 
Q 3997 3747 4066 3066 
L 3013 3066 
Q 2963 3403 2791 3587 
Q 2619 3772 2238 3772 
Q 1844 3772 1609 3437 
Q 1375 3103 1372 2425 
L 1372 2147 
Q 1372 1463 1614 1122 
Q 1856 781 2338 781 
Q 2763 781 2972 972 
L 2972 1678 
L 2209 1678 
L 2209 2431 
L 4069 2431 
z
" transform="scale(0.015625)"/>
       <path id="Roboto-Black-2d" d="M 2353 2369 
L 2353 1553 
L 475 1553 
L 475 2369 
L 2353 2369 
z
" transform="scale(0.015625)"/>
       <path id="Roboto-Black-48" d="M 3056 0 
L 3056 1900 
L 1444 1900 
L 1444 0 
L 347 0 
L 347 4550 
L 1444 4550 
L 1444 2744 
L 3056 2744 
L 3056 4550 
L 4150 4550 
L 4150 0 
L 3056 0 
z
" transform="scale(0.015625)"/>
       <path id="Roboto-Black-44" d="M 347 0 
L 347 4550 
L 1809 4550 
Q 2425 4550 2901 4273 
Q 3378 3997 3648 3505 
Q 3919 3013 3919 2369 
L 3919 2178 
Q 3919 1219 3333 611 
Q 2747 3 1831 0 
L 347 0 
z
M 1444 3703 
L 1444 844 
L 1825 844 
Q 2744 844 2797 2028 
L 2800 2375 
Q 2800 3675 1850 3703 
L 1444 3703 
z
" transform="scale(0.015625)"/>
       <path id="Roboto-Black-69" d="M 291 4253 
Q 291 4478 453 4622 
Q 616 4766 875 4766 
Q 1134 4766 1296 4622 
Q 1459 4478 1459 4253 
Q 1459 4028 1296 3884 
Q 1134 3741 875 3741 
Q 616 3741 453 3884 
Q 291 4028 291 4253 
z
M 1409 3381 
L 1409 0 
L 353 0 
L 353 3381 
L 1409 3381 
z
" transform="scale(0.015625)"/>
       <path id="Roboto-Black-73" d="M 2069 950 
Q 2069 1084 1920 1167 
Q 1772 1250 1391 1334 
Q 897 1444 556 1689 
Q 216 1934 216 2375 
Q 216 2803 580 3123 
Q 944 3444 1609 3444 
Q 2291 3444 2689 3137 
Q 3088 2831 3088 2344 
L 2034 2344 
Q 2034 2750 1606 2750 
Q 1444 2750 1328 2662 
Q 1213 2575 1213 2428 
Q 1213 2166 1773 2059 
Q 2334 1953 2709 1728 
Q 3084 1503 3084 981 
Q 3084 534 2686 235 
Q 2288 -63 1606 -63 
Q 878 -63 495 306 
Q 113 675 113 1084 
L 1094 1084 
Q 1103 850 1251 742 
Q 1400 634 1634 634 
Q 2069 634 2069 950 
z
" transform="scale(0.015625)"/>
       <path id="Roboto-Black-74" d="M 2128 28 
Q 1850 -63 1534 -63 
Q 1025 -63 747 179 
Q 469 422 469 972 
L 469 2650 
L 41 2650 
L 41 3381 
L 469 3381 
L 469 4222 
L 1522 4222 
L 1522 3381 
L 2078 3381 
L 2078 2650 
L 1522 2650 
L 1522 1103 
Q 1522 900 1597 831 
Q 1672 763 1866 763 
Q 2019 763 2128 781 
L 2128 28 
z
" transform="scale(0.015625)"/>
       <path id="Roboto-Black-61" d="M 2200 0 
Q 2141 122 2103 303 
Q 1813 -63 1291 -63 
Q 822 -63 483 220 
Q 144 503 144 953 
Q 144 1469 520 1764 
Q 897 2059 1694 2066 
L 2053 2066 
L 2053 2244 
Q 2053 2709 1650 2709 
Q 1275 2709 1275 2341 
L 222 2341 
Q 222 2813 625 3128 
Q 1028 3444 1706 3444 
Q 2309 3444 2711 3142 
Q 3113 2841 3113 2238 
L 3113 766 
Q 3119 306 3256 53 
L 3256 0 
L 2200 0 
z
M 1541 688 
Q 1734 688 1865 770 
Q 1997 853 2053 956 
L 2053 1503 
L 1722 1503 
Q 1425 1503 1311 1351 
Q 1197 1200 1197 1009 
Q 1197 866 1295 777 
Q 1394 688 1541 688 
z
" transform="scale(0.015625)"/>
       <path id="Roboto-Black-6e" d="M 1788 2631 
Q 1478 2631 1331 2391 
L 1331 0 
L 278 0 
L 278 3381 
L 1266 3381 
L 1300 2988 
Q 1653 3444 2263 3444 
Q 2731 3444 3026 3156 
Q 3322 2869 3325 2144 
L 3325 0 
L 2266 0 
L 2266 2131 
Q 2266 2438 2141 2534 
Q 2016 2631 1788 2631 
z
" transform="scale(0.015625)"/>
       <path id="Roboto-Black-63" d="M 1725 750 
Q 2197 750 2188 1206 
L 3178 1206 
Q 3181 634 2770 285 
Q 2359 -63 1750 -63 
Q 956 -63 561 428 
Q 166 919 166 1653 
L 166 1725 
Q 166 2459 561 2951 
Q 956 3444 1744 3444 
Q 2375 3444 2778 3087 
Q 3181 2731 3178 2088 
L 2188 2088 
Q 2194 2316 2076 2473 
Q 1959 2631 1719 2631 
Q 1400 2631 1309 2372 
Q 1219 2113 1219 1653 
Q 1219 1278 1306 1014 
Q 1394 750 1725 750 
z
" transform="scale(0.015625)"/>
       <path id="Roboto-Black-65" d="M 3266 531 
Q 3109 309 2765 123 
Q 2422 -63 1934 -63 
Q 1109 -63 651 421 
Q 194 906 191 1569 
L 191 1697 
Q 191 2438 600 2941 
Q 1009 3444 1822 3444 
Q 2541 3444 2948 2997 
Q 3356 2550 3356 1788 
L 3356 1359 
L 1266 1359 
Q 1322 1078 1512 914 
Q 1703 750 2003 750 
Q 2506 750 2788 1100 
L 3266 531 
z
M 1813 2631 
Q 1544 2631 1422 2457 
Q 1300 2284 1266 2019 
L 2328 2019 
L 2328 2100 
Q 2334 2631 1813 2631 
z
" transform="scale(0.015625)"/>
       <path id="Roboto-Black-5b" d="M 1766 5331 
L 1766 4563 
L 1397 4563 
L 1397 -325 
L 1766 -325 
L 1766 -1091 
L 338 -1091 
L 338 5331 
L 1766 5331 
z
" transform="scale(0.015625)"/>
       <path id="Roboto-Black-c5" d="M -13 0 
L 1659 4550 
L 2694 4550 
L 4375 0 
L 3194 0 
L 2931 850 
L 1428 850 
L 1166 0 
L -13 0 
z
M 1691 1697 
L 2669 1697 
L 2178 3281 
L 1691 1697 
z
M 1492 5388 
Q 1492 5644 1690 5833 
Q 1889 6022 2192 6022 
Q 2498 6022 2696 5833 
Q 2895 5644 2895 5388 
Q 2895 5132 2696 4949 
Q 2498 4766 2192 4766 
Q 1889 4766 1690 4949 
Q 1492 5132 1492 5388 
z
M 1870 5387 
Q 1870 5250 1956 5156 
Q 2042 5063 2192 5063 
Q 2345 5063 2431 5156 
Q 2517 5250 2517 5387 
Q 2517 5525 2431 5622 
Q 2345 5719 2192 5719 
Q 2042 5719 1956 5622 
Q 1870 5525 1870 5387 
z
" transform="scale(0.015625)"/>
       <path id="Roboto-Black-5d" d="M 44 4563 
L 44 5331 
L 1472 5331 
L 1472 -1091 
L 44 -1091 
L 44 -325 
L 419 -325 
L 419 4563 
L 44 4563 
z
" transform="scale(0.015625)"/>
      </defs>
      <use xlink:href="#Roboto-Black-53"/>
      <use xlink:href="#Roboto-Black-45" x="62.597656"/>
      <use xlink:href="#Roboto-Black-52" x="118.554688"/>
      <use xlink:href="#Roboto-Black-32" x="183.789062"/>
      <use xlink:href="#Roboto-Black-30" x="241.748047"/>
      <use xlink:href="#Roboto-Black-35" x="299.707031"/>
      <use xlink:href="#Roboto-Black-20" x="357.666016"/>
      <use xlink:href="#Roboto-Black-4f" x="382.568359"/>
      <use xlink:href="#Roboto-Black-47" x="451.611328"/>
      <use xlink:href="#Roboto-Black-20" x="519.775391"/>
      <use xlink:href="#Roboto-Black-2d" x="544.677734"/>
      <use xlink:href="#Roboto-Black-20" x="589.648438"/>
      <use xlink:href="#Roboto-Black-48" x="614.550781"/>
      <use xlink:href="#Roboto-Black-32" x="684.814453"/>
      <use xlink:href="#Roboto-Black-4f" x="742.773438"/>
      <use xlink:href="#Roboto-Black-20" x="811.816406"/>
      <use xlink:href="#Roboto-Black-48" x="836.71875"/>
      <use xlink:href="#Roboto-Black-20" x="906.982422"/>
      <use xlink:href="#Roboto-Black-44" x="931.884766"/>
      <use xlink:href="#Roboto-Black-69" x="996.582031"/>
      <use xlink:href="#Roboto-Black-73" x="1024.072266"/>
      <use xlink:href="#Roboto-Black-74" x="1075.341797"/>
      <use xlink:href="#Roboto-Black-61" x="1109.716797"/>
      <use xlink:href="#Roboto-Black-6e" x="1162.841797"/>
      <use xlink:href="#Roboto-Black-63" x="1219.287109"/>
      <use xlink:href="#Roboto-Black-65" x="1271.289062"/>
      <use xlink:href="#Roboto-Black-20" x="1325.78125"/>
      <use xlink:href="#Roboto-Black-5b" x="1350.683594"/>
      <use xlink:href="#Roboto-Black-c5" x="1378.90625"/>
      <use xlink:href="#Roboto-Black-5d" x="1447.021484"/>
     </g>
    </g>
   </g>
   <g id="matplotlib.axis_2">
    <g id="ytick_1">
     <g id="line2d_10">
      <defs>
       <path id="m043866667d" d="M 0 0 
L -3.5 0 
" style="stroke: #c2c1c1; stroke-width: 0.8"/>
      </defs>
      <g>
       <use xlink:href="#m043866667d" x="49.43" y="298.672" style="fill: #c2c1c1; stroke: #c2c1c1; stroke-width: 0.8"/>
      </g>
     </g>
     <g id="text_9">
      <!-- 0.0 -->
      <g style="fill: #191919" transform="translate(28.551875 302.422) scale(0.1 -0.1)">
       <defs>
        <path id="Roboto-Regular-30" d="M 3234 1944 
Q 3234 825 2848 381 
Q 2463 -63 1800 -63 
Q 1156 -63 764 368 
Q 372 800 359 1872 
L 359 2638 
Q 359 3753 750 4183 
Q 1141 4613 1794 4613 
Q 2447 4613 2834 4195 
Q 3222 3778 3234 2709 
L 3234 1944 
z
M 2653 2734 
Q 2653 3503 2434 3822 
Q 2216 4141 1794 4141 
Q 1388 4141 1167 3831 
Q 947 3522 941 2778 
L 941 1850 
Q 941 1088 1164 750 
Q 1388 413 1800 413 
Q 2222 413 2436 745 
Q 2650 1078 2653 1825 
L 2653 2734 
z
" transform="scale(0.015625)"/>
        <path id="Roboto-Regular-2e" d="M 450 306 
Q 450 453 542 554 
Q 634 656 809 656 
Q 984 656 1076 554 
Q 1169 453 1169 306 
Q 1169 163 1076 62 
Q 984 -38 809 -38 
Q 634 -38 542 62 
Q 450 163 450 306 
z
" transform="scale(0.015625)"/>
       </defs>
       <use xlink:href="#Roboto-Regular-30"/>
       <use xlink:href="#Roboto-Regular-2e" x="56.201172"/>
       <use xlink:href="#Roboto-Regular-30" x="82.568359"/>
      </g>
     </g>
    </g>
    <g id="ytick_2">
     <g id="line2d_11">
      <g>
       <use xlink:href="#m043866667d" x="49.43" y="245.104624" style="fill: #c2c1c1; stroke: #c2c1c1; stroke-width: 0.8"/>
      </g>
     </g>
     <g id="text_10">
      <!-- 0.2 -->
      <g style="fill: #191919" transform="translate(28.551875 248.854624) scale(0.1 -0.1)">
       <use xlink:href="#Roboto-Regular-30"/>
       <use xlink:href="#Roboto-Regular-2e" x="56.201172"/>
       <use xlink:href="#Roboto-Regular-32" x="82.568359"/>
      </g>
     </g>
    </g>
    <g id="ytick_3">
     <g id="line2d_12">
      <g>
       <use xlink:href="#m043866667d" x="49.43" y="191.537247" style="fill: #c2c1c1; stroke: #c2c1c1; stroke-width: 0.8"/>
      </g>
     </g>
     <g id="text_11">
      <!-- 0.4 -->
      <g style="fill: #191919" transform="translate(28.551875 195.287247) scale(0.1 -0.1)">
       <use xlink:href="#Roboto-Regular-30"/>
       <use xlink:href="#Roboto-Regular-2e" x="56.201172"/>
       <use xlink:href="#Roboto-Regular-34" x="82.568359"/>
      </g>
     </g>
    </g>
    <g id="ytick_4">
     <g id="line2d_13">
      <g>
       <use xlink:href="#m043866667d" x="49.43" y="137.969871" style="fill: #c2c1c1; stroke: #c2c1c1; stroke-width: 0.8"/>
      </g>
     </g>
     <g id="text_12">
      <!-- 0.6 -->
      <g style="fill: #191919" transform="translate(28.551875 141.719871) scale(0.1 -0.1)">
       <use xlink:href="#Roboto-Regular-30"/>
       <use xlink:href="#Roboto-Regular-2e" x="56.201172"/>
       <use xlink:href="#Roboto-Regular-36" x="82.568359"/>
      </g>
     </g>
    </g>
    <g id="ytick_5">
     <g id="line2d_14">
      <g>
       <use xlink:href="#m043866667d" x="49.43" y="84.402495" style="fill: #c2c1c1; stroke: #c2c1c1; stroke-width: 0.8"/>
      </g>
     </g>
     <g id="text_13">
      <!-- 0.8 -->
      <g style="fill: #191919" transform="translate(28.551875 88.152495) scale(0.1 -0.1)">
       <use xlink:href="#Roboto-Regular-30"/>
       <use xlink:href="#Roboto-Regular-2e" x="56.201172"/>
       <use xlink:href="#Roboto-Regular-38" x="82.568359"/>
      </g>
     </g>
    </g>
    <g id="ytick_6">
     <g id="line2d_15">
      <g>
       <use xlink:href="#m043866667d" x="49.43" y="30.835118" style="fill: #c2c1c1; stroke: #c2c1c1; stroke-width: 0.8"/>
      </g>
     </g>
     <g id="text_14">
      <!-- 1.0 -->
      <g style="fill: #191919" transform="translate(28.551875 34.585118) scale(0.1 -0.1)">
       <defs>
        <path id="Roboto-Regular-31" d="M 2278 4575 
L 2278 0 
L 1700 0 
L 1700 3853 
L 534 3428 
L 534 3950 
L 2188 4575 
L 2278 4575 
z
" transform="scale(0.015625)"/>
       </defs>
       <use xlink:href="#Roboto-Regular-31"/>
       <use xlink:href="#Roboto-Regular-2e" x="56.201172"/>
       <use xlink:href="#Roboto-Regular-30" x="82.568359"/>
      </g>
     </g>
    </g>
    <g id="text_15">
     <!-- Density -->
     <g style="fill: #191919" transform="translate(21.990625 176.251625) rotate(-90) scale(0.12 -0.12)">
      <defs>
       <path id="Roboto-Black-79" d="M 1981 -503 
Q 1925 -675 1811 -875 
Q 1697 -1075 1473 -1220 
Q 1250 -1366 866 -1366 
L 666 -1356 
L 428 -1303 
L 428 -550 
L 566 -550 
Q 819 -550 925 -475 
Q 1031 -400 1078 -256 
L 1166 -34 
L -16 3381 
L 1113 3381 
L 1650 1472 
L 2209 3381 
L 3341 3381 
L 1981 -503 
z
" transform="scale(0.015625)"/>
      </defs>
      <use xlink:href="#Roboto-Black-44"/>
      <use xlink:href="#Roboto-Black-65" x="64.697266"/>
      <use xlink:href="#Roboto-Black-6e" x="119.189453"/>
      <use xlink:href="#Roboto-Black-73" x="175.634766"/>
      <use xlink:href="#Roboto-Black-69" x="226.904297"/>
      <use xlink:href="#Roboto-Black-74" x="254.394531"/>
      <use xlink:href="#Roboto-Black-79" x="288.769531"/>
     </g>
    </g>
   </g>
   <g id="line2d_16">
    <path d="M -1 298.672 
L 3.498682 298.672 
L 10.166131 298.672 
L 16.833581 298.672 
L 23.50103 298.611629 
L 30.168479 298.488496 
L 36.835929 298.4104 
L 43.503378 298.461676 
L 50.170828 298.448436 
L 56.838277 298.479775 
L 63.505727 298.394795 
L 70.173176 298.43477 
L 76.840625 298.339825 
L 83.508075 297.793376 
L 90.175524 294.744172 
L 96.842974 285.450583 
L 103.510423 263.583632 
L 110.177873 222.491291 
L 116.845322 145.004999 
L 123.512772 64.328365 
L 130.180221 26.565333 
L 136.84767 75.075438 
L 143.51512 166.779808 
L 150.182569 232.397879 
L 156.850019 265.678971 
L 163.517468 282.763339 
L 170.184918 289.322708 
L 176.852367 291.338727 
L 183.519816 291.401566 
L 190.187266 289.117225 
L 196.854715 285.900261 
L 203.522165 281.532202 
L 210.189614 274.91463 
L 216.857064 269.164455 
L 223.524513 263.216769 
L 230.191963 259.643282 
L 236.859412 261.135583 
L 243.526861 262.870202 
L 250.194311 265.578578 
L 256.86176 269.264533 
L 263.52921 273.003384 
L 270.196659 276.690215 
L 276.864109 279.905118 
L 283.531558 281.434669 
L 290.199007 283.20225 
L 296.866457 284.853627 
L 303.533906 285.667308 
L 310.201356 285.197104 
L 316.868805 285.123762 
L 323.536255 284.638481 
L 330.203704 285.499489 
L 336.871154 285.695851 
L 343.538603 287.876867 
L 350.206052 287.852748 
L 356.873502 289.788482 
L 363.540951 289.2729 
L 370.208401 291.35247 
L 376.87585 291.720014 
L 383.5433 292.520002 
L 390.210749 293.293322 
L 396.878199 293.289403 
L 403.545648 293.420171 
L 410.213097 293.741673 
L 416.880547 293.696957 
L 423.547996 293.423988 
L 430.215446 294.100028 
L 436.882895 292.806861 
L 443.550345 293.564626 
L 450.217794 293.410215 
L 456.885243 293.226821 
L 461.8 294.176477 
" clip-path="url(#p9e0f3610a8)" style="fill: none; stroke: #f99752; stroke-width: 2.5; stroke-linecap: square"/>
   </g>
   <g id="patch_3">
    <path d="M 49.43 298.672 
L 49.43 12.96 
" style="fill: none; stroke: #c2c1c1; stroke-width: 0.8; stroke-linejoin: miter; stroke-linecap: square"/>
   </g>
   <g id="patch_4">
    <path d="M 445.032 298.672 
L 445.032 12.96 
" style="fill: none; stroke: #c2c1c1; stroke-width: 0.8; stroke-linejoin: miter; stroke-linecap: square"/>
   </g>
   <g id="patch_5">
    <path d="M 49.43 298.672 
L 445.032 298.672 
" style="fill: none; stroke: #c2c1c1; stroke-width: 0.8; stroke-linejoin: miter; stroke-linecap: square"/>
   </g>
   <g id="patch_6">
    <path d="M 49.43 12.96 
L 445.032 12.96 
" style="fill: none; stroke: #c2c1c1; stroke-width: 0.8; stroke-linejoin: miter; stroke-linecap: square"/>
   </g>
   <g id="legend_1">
    <g id="line2d_17">
     <path d="M 354.0795 28.56 
L 366.0795 28.56 
L 378.0795 28.56 
" style="fill: none; stroke: #1e2e79; stroke-width: 2.5; stroke-linecap: square"/>
    </g>
    <g id="text_16">
     <!-- Reduced -->
     <g transform="translate(387.6795 32.76) scale(0.12 -0.12)">
      <defs>
       <path id="Roboto-Regular-52" d="M 3188 0 
L 2200 1844 
L 1131 1844 
L 1131 0 
L 528 0 
L 528 4550 
L 2034 4550 
Q 2800 4550 3214 4200 
Q 3628 3850 3628 3184 
Q 3628 2759 3398 2442 
Q 3169 2125 2763 1969 
L 3831 38 
L 3831 0 
L 3188 0 
z
M 1131 4056 
L 1131 2334 
L 2053 2334 
Q 2538 2334 2783 2582 
Q 3028 2831 3028 3184 
Q 3028 3578 2792 3817 
Q 2556 4056 2034 4056 
L 1131 4056 
z
" transform="scale(0.015625)"/>
       <path id="Roboto-Regular-65" d="M 3116 591 
Q 2950 341 2647 139 
Q 2344 -63 1844 -63 
Q 1138 -63 714 396 
Q 291 856 291 1572 
L 291 1703 
Q 291 2256 502 2645 
Q 713 3034 1050 3239 
Q 1388 3444 1769 3444 
Q 2494 3444 2826 2970 
Q 3159 2497 3159 1788 
L 3159 1528 
L 872 1528 
Q 884 1063 1148 736 
Q 1413 409 1875 409 
Q 2181 409 2393 534 
Q 2606 659 2766 869 
L 3116 591 
z
M 1769 2969 
Q 1425 2969 1187 2719 
Q 950 2469 891 2000 
L 2581 2000 
L 2581 2044 
Q 2559 2381 2386 2675 
Q 2213 2969 1769 2969 
z
" transform="scale(0.015625)"/>
       <path id="Roboto-Regular-64" d="M 2622 0 
L 2594 363 
Q 2247 -63 1628 -63 
Q 1034 -63 668 418 
Q 303 900 297 1628 
L 297 1719 
Q 297 2494 664 2969 
Q 1031 3444 1634 3444 
Q 2231 3444 2572 3044 
L 2572 4800 
L 3153 4800 
L 3153 0 
L 2622 0 
z
M 878 1653 
Q 878 1150 1090 789 
Q 1303 428 1772 428 
Q 2309 428 2572 919 
L 2572 2475 
Q 2313 2956 1778 2956 
Q 1306 2956 1092 2589 
Q 878 2222 878 1719 
L 878 1653 
z
" transform="scale(0.015625)"/>
       <path id="Roboto-Regular-75" d="M 2538 0 
L 2525 334 
Q 2194 -63 1538 -63 
Q 1041 -63 734 231 
Q 428 525 428 1200 
L 428 3381 
L 1006 3381 
L 1006 1194 
Q 1006 738 1198 583 
Q 1391 428 1628 428 
Q 2281 428 2509 919 
L 2509 3381 
L 3091 3381 
L 3091 0 
L 2538 0 
z
" transform="scale(0.015625)"/>
       <path id="Roboto-Regular-63" d="M 1794 413 
Q 2103 413 2336 597 
Q 2569 781 2591 1069 
L 3141 1069 
Q 3119 616 2725 276 
Q 2331 -63 1794 -63 
Q 1031 -63 661 440 
Q 291 944 291 1625 
L 291 1756 
Q 291 2438 661 2941 
Q 1031 3444 1794 3444 
Q 2388 3444 2753 3092 
Q 3119 2741 3141 2219 
L 2591 2219 
Q 2569 2531 2355 2750 
Q 2141 2969 1794 2969 
Q 1438 2969 1236 2787 
Q 1034 2606 951 2328 
Q 869 2050 869 1756 
L 869 1625 
Q 869 1328 950 1050 
Q 1031 772 1232 592 
Q 1434 413 1794 413 
z
" transform="scale(0.015625)"/>
      </defs>
      <use xlink:href="#Roboto-Regular-52"/>
      <use xlink:href="#Roboto-Regular-65" x="61.621094"/>
      <use xlink:href="#Roboto-Regular-64" x="114.648438"/>
      <use xlink:href="#Roboto-Regular-75" x="171.044922"/>
      <use xlink:href="#Roboto-Regular-63" x="226.171875"/>
      <use xlink:href="#Roboto-Regular-65" x="278.515625"/>
      <use xlink:href="#Roboto-Regular-64" x="331.542969"/>
     </g>
    </g>
    <g id="line2d_18">
     <path d="M 354.0795 45.9975 
L 366.0795 45.9975 
L 378.0795 45.9975 
" style="fill: none; stroke: #ec4067; stroke-width: 2.5; stroke-linecap: square"/>
    </g>
    <g id="text_17">
     <!-- Oxidized -->
     <g transform="translate(387.6795 50.1975) scale(0.12 -0.12)">
      <defs>
       <path id="Roboto-Regular-4f" d="M 4031 2131 
Q 4031 1106 3534 521 
Q 3038 -63 2206 -63 
Q 1397 -63 884 521 
Q 372 1106 372 2131 
L 372 2419 
Q 372 3441 881 4027 
Q 1391 4613 2200 4613 
Q 3025 4613 3523 4036 
Q 4022 3459 4031 2456 
L 4031 2131 
z
M 3434 2425 
Q 3434 3238 3109 3669 
Q 2784 4100 2200 4100 
Q 1641 4100 1305 3669 
Q 969 3238 969 2425 
L 969 2131 
Q 969 1313 1308 880 
Q 1647 447 2206 447 
Q 2794 447 3114 880 
Q 3434 1313 3434 2131 
L 3434 2425 
z
" transform="scale(0.015625)"/>
       <path id="Roboto-Regular-78" d="M 831 3381 
L 1572 2150 
L 2322 3381 
L 3000 3381 
L 1894 1713 
L 3034 0 
L 2366 0 
L 1584 1269 
L 803 0 
L 131 0 
L 1269 1713 
L 166 3381 
L 831 3381 
z
" transform="scale(0.015625)"/>
       <path id="Roboto-Regular-69" d="M 444 4278 
Q 444 4419 530 4516 
Q 616 4613 784 4613 
Q 950 4613 1039 4516 
Q 1128 4419 1128 4278 
Q 1128 4144 1039 4048 
Q 950 3953 784 3953 
Q 616 3953 530 4048 
Q 444 4144 444 4278 
z
M 1069 3381 
L 1069 0 
L 488 0 
L 488 3381 
L 1069 3381 
z
" transform="scale(0.015625)"/>
       <path id="Roboto-Regular-7a" d="M 303 2903 
L 303 3381 
L 2869 3381 
L 2869 2972 
L 988 475 
L 2959 475 
L 2959 0 
L 278 0 
L 278 425 
L 2141 2903 
L 303 2903 
z
" transform="scale(0.015625)"/>
      </defs>
      <use xlink:href="#Roboto-Regular-4f"/>
      <use xlink:href="#Roboto-Regular-78" x="68.798828"/>
      <use xlink:href="#Roboto-Regular-69" x="118.408203"/>
      <use xlink:href="#Roboto-Regular-64" x="142.724609"/>
      <use xlink:href="#Roboto-Regular-69" x="199.121094"/>
      <use xlink:href="#Roboto-Regular-7a" x="223.4375"/>
      <use xlink:href="#Roboto-Regular-65" x="273.046875"/>
      <use xlink:href="#Roboto-Regular-64" x="326.074219"/>
     </g>
    </g>
    <g id="line2d_19">
     <path d="M 354.0795 64.06125 
L 366.0795 64.06125 
L 378.0795 64.06125 
" style="fill: none; stroke: #f99752; stroke-width: 2.5; stroke-linecap: square"/>
    </g>
    <g id="text_18">
     <!-- Cu(I) -->
     <g transform="translate(387.6795 68.26125) scale(0.12 -0.12)">
      <defs>
       <path id="Roboto-Regular-43" d="M 3275 1447 
L 3875 1447 
Q 3806 800 3387 368 
Q 2969 -63 2150 -63 
Q 1356 -63 870 504 
Q 384 1072 375 2013 
L 375 2500 
Q 375 3456 867 4034 
Q 1359 4613 2203 4613 
Q 2975 4613 3390 4188 
Q 3806 3763 3875 3091 
L 3275 3091 
Q 3206 3566 2968 3842 
Q 2731 4119 2203 4119 
Q 1600 4119 1287 3675 
Q 975 3231 975 2506 
L 975 2047 
Q 975 1375 1259 901 
Q 1544 428 2150 428 
Q 2725 428 2961 697 
Q 3197 966 3275 1447 
z
" transform="scale(0.015625)"/>
       <path id="Roboto-Regular-28" d="M 419 1850 
Q 419 2756 678 3434 
Q 938 4113 1294 4541 
Q 1650 4969 1947 5134 
L 2069 4753 
Q 1700 4475 1348 3761 
Q 997 3047 997 1813 
Q 997 625 1348 -97 
Q 1700 -819 2069 -1119 
L 1947 -1469 
Q 1650 -1306 1294 -878 
Q 938 -450 678 226 
Q 419 903 419 1850 
z
" transform="scale(0.015625)"/>
       <path id="Roboto-Regular-49" d="M 1175 4550 
L 1175 0 
L 572 0 
L 572 4550 
L 1175 4550 
z
" transform="scale(0.015625)"/>
       <path id="Roboto-Regular-29" d="M 1772 1819 
Q 1772 906 1512 228 
Q 1253 -450 895 -878 
Q 538 -1306 244 -1469 
L 122 -1119 
Q 488 -841 841 -109 
Q 1194 622 1194 1856 
Q 1194 2647 1019 3236 
Q 844 3825 594 4212 
Q 344 4600 122 4781 
L 244 5134 
Q 538 4969 895 4541 
Q 1253 4113 1512 3436 
Q 1772 2759 1772 1819 
z
" transform="scale(0.015625)"/>
      </defs>
      <use xlink:href="#Roboto-Regular-43"/>
      <use xlink:href="#Roboto-Regular-75" x="65.087891"/>
      <use xlink:href="#Roboto-Regular-28" x="120.214844"/>
      <use xlink:href="#Roboto-Regular-49" x="154.443359"/>
      <use xlink:href="#Roboto-Regular-29" x="181.640625"/>
     </g>
    </g>
   </g>
  </g>
 </g>
 <defs>
  <clipPath id="p9e0f3610a8">
   <rect x="49.43" y="12.96" width="395.602" height="285.712"/>
  </clipPath>
 </defs>
</svg>
