<?xml version="1.0" encoding="utf-8" standalone="no"?>
<!DOCTYPE svg PUBLIC "-//W3C//DTD SVG 1.1//EN"
  "http://www.w3.org/Graphics/SVG/1.1/DTD/svg11.dtd">
<svg xmlns:xlink="http://www.w3.org/1999/xlink" width="460.8pt" height="345.6pt" viewBox="0 0 460.8 345.6" xmlns="http://www.w3.org/2000/svg" version="1.1">
 <metadata>
  <rdf:RDF xmlns:dc="http://purl.org/dc/elements/1.1/" xmlns:cc="http://creativecommons.org/ns#" xmlns:rdf="http://www.w3.org/1999/02/22-rdf-syntax-ns#">
   <cc:Work>
    <dc:type rdf:resource="http://purl.org/dc/dcmitype/StillImage"/>
    <dc:date>2024-07-06T12:58:30.450824</dc:date>
    <dc:format>image/svg+xml</dc:format>
    <dc:creator>
     <cc:Agent>
      <dc:title>Matplotlib v3.8.4, https://matplotlib.org/</dc:title>
     </cc:Agent>
    </dc:creator>
   </cc:Work>
  </rdf:RDF>
 </metadata>
 <defs>
  <style type="text/css">*{stroke-linejoin: round; stroke-linecap: butt}</style>
 </defs>
 <g id="figure_1">
  <g id="patch_1">
   <path d="M 0 345.6 
L 460.8 345.6 
L 460.8 0 
L 0 0 
z
" style="fill: #ffffff"/>
  </g>
  <g id="axes_1">
   <g id="patch_2">
    <path d="M 46.64 302.8525 
L 446.805 302.8525 
L 446.805 14.76 
L 46.64 14.76 
z
" style="fill: #ffffff"/>
   </g>
   <g id="line2d_1">
    <path d="M 46.64 187.6155 
L 446.805 187.6155 
" clip-path="url(#p8e3bc03646)" style="fill: none; stroke-dasharray: 1.75,2.8875; stroke-dashoffset: 0; stroke: #c0c0c0; stroke-width: 1.75"/>
   </g>
   <g id="line2d_2">
    <path d="M 40.818402 -1 
L 41.232365 1.401254 
L 41.343749 -1 
M 76.391466 -1 
L 76.682417 3.46034 
L 76.995316 -1 
M 78.917741 -1 
L 79.085811 6.466841 
L 79.686659 24.042167 
L 80.287508 27.007745 
L 80.888356 33.418505 
L 81.489204 48.232976 
L 82.090053 54.184145 
L 82.690901 48.537534 
L 83.291749 49.690168 
L 85.094294 65.04894 
L 85.695143 63.840232 
L 86.295991 69.113666 
L 86.896839 80.486719 
L 87.497688 86.841986 
L 88.098536 85.831027 
L 88.699384 80.281585 
L 89.300233 81.04845 
L 91.102778 110.878417 
L 91.703626 115.574464 
L 92.304474 118.148131 
L 92.905323 124.152659 
L 93.506171 128.961842 
L 94.10702 130.899321 
L 95.308716 138.171642 
L 97.111261 154.859592 
L 97.71211 158.186363 
L 98.312958 162.272687 
L 98.913806 165.572655 
L 100.115503 169.17769 
L 101.3172 177.068449 
L 102.518896 183.335786 
L 103.119745 185.321132 
L 103.720593 185.760291 
L 104.321441 188.918255 
L 104.92229 194.819748 
L 105.523138 199.425442 
L 106.724835 203.467887 
L 107.325683 207.184143 
L 109.128228 214.892549 
L 110.329925 221.028075 
L 110.930773 223.024731 
L 111.531622 224.496013 
L 112.13247 225.295272 
L 112.733318 227.135369 
L 113.334167 230.284576 
L 113.935015 232.461735 
L 114.535863 233.494435 
L 115.73756 237.166723 
L 116.939257 240.821347 
L 118.741802 244.856376 
L 119.34265 245.981116 
L 122.346892 253.319588 
L 122.94774 254.435636 
L 123.548589 254.646865 
L 124.149437 254.538465 
L 124.750285 254.670651 
L 125.951982 256.207603 
L 126.55283 256.63728 
L 127.754527 257.14534 
L 128.355375 257.10288 
L 128.956224 256.89314 
L 129.557072 256.911699 
L 130.15792 256.708748 
L 130.758769 256.257325 
L 132.561314 255.488712 
L 134.363859 251.847729 
L 136.166404 249.883203 
L 136.767252 248.729892 
L 137.368101 246.983246 
L 137.968949 244.860721 
L 139.170646 241.945915 
L 139.771494 240.006345 
L 140.372342 238.665925 
L 140.973191 237.637477 
L 142.174887 234.688395 
L 143.977432 229.322294 
L 144.578281 227.073946 
L 145.179129 225.268504 
L 148.784219 211.491552 
L 149.385068 210.04929 
L 151.788461 202.714167 
L 153.591006 195.160936 
L 154.191854 193.531582 
L 154.792703 192.632958 
L 155.393551 190.417399 
L 155.994399 186.407019 
L 156.595248 183.159421 
L 157.196096 181.949438 
L 157.796944 180.452226 
L 158.397793 177.040187 
L 158.998641 174.340985 
L 159.599489 173.128966 
L 160.200338 171.316481 
L 160.801186 170.370125 
L 161.402035 170.353579 
L 162.002883 169.404959 
L 164.406276 155.177641 
L 165.007125 154.055889 
L 165.607973 153.318481 
L 166.80967 153.303922 
L 167.410518 152.420399 
L 168.011366 152.57969 
L 168.612215 152.289208 
L 169.813911 147.768444 
L 171.616456 142.979915 
L 172.217305 142.572966 
L 172.818153 143.682549 
L 173.419002 145.197197 
L 174.01985 145.414626 
L 174.620698 143.685638 
L 175.221547 142.857119 
L 175.822395 140.324726 
L 176.423243 136.028343 
L 177.024092 135.292374 
L 177.62494 134.842641 
L 178.225788 133.709199 
L 178.826637 134.405769 
L 179.427485 135.541912 
L 180.028333 134.97872 
L 180.629182 131.548906 
L 181.23003 129.449863 
L 181.830878 129.191786 
L 183.032575 129.557502 
L 183.633423 128.94989 
L 184.234272 128.94648 
L 185.435968 136.030522 
L 186.036817 136.432038 
L 186.637665 135.154771 
L 187.238514 131.284694 
L 187.839362 130.246839 
L 188.44021 133.866557 
L 189.041059 135.805628 
L 189.641907 133.375883 
L 190.242755 132.479577 
L 190.843604 136.458971 
L 191.444452 139.245246 
L 192.0453 138.767017 
L 192.646149 136.135405 
L 193.246997 131.61808 
L 193.847845 130.582217 
L 195.049542 138.804589 
L 195.65039 141.492032 
L 196.251239 142.709092 
L 196.852087 141.732816 
L 197.452935 139.86333 
L 198.053784 140.700472 
L 199.25548 146.504147 
L 199.856329 147.122968 
L 200.457177 146.259617 
L 201.058026 147.26551 
L 202.259722 154.06204 
L 202.860571 154.474999 
L 203.461419 154.360953 
L 204.062267 155.725799 
L 204.663116 155.356024 
L 205.263964 153.82914 
L 205.864812 153.965183 
L 206.465661 156.610272 
L 207.667357 163.439217 
L 208.268206 164.455228 
L 208.869054 162.816026 
L 209.469902 163.100052 
L 210.070751 166.408581 
L 210.671599 168.417768 
L 211.272447 169.4886 
L 211.873296 169.9921 
L 212.474144 169.48502 
L 213.074992 169.327 
L 213.675841 170.407264 
L 214.276689 172.438186 
L 214.877538 174.013583 
L 216.079234 173.969396 
L 217.280931 176.9561 
L 217.881779 176.727251 
L 218.482628 176.165002 
L 219.083476 176.303201 
L 219.684324 178.006918 
L 220.285173 180.291894 
L 220.886021 180.903499 
L 221.486869 180.648533 
L 222.087718 180.637341 
L 222.688566 181.265824 
L 223.890263 186.182571 
L 224.491111 186.901921 
L 225.091959 186.471992 
L 226.293656 185.084459 
L 226.894505 184.179809 
L 227.495353 184.734052 
L 228.096201 185.994946 
L 228.69705 186.863908 
L 229.297898 186.830586 
L 229.898746 185.228003 
L 230.499595 184.833038 
L 231.701291 185.452231 
L 232.30214 186.450717 
L 232.902988 186.843515 
L 234.104685 185.690291 
L 234.705533 185.789107 
L 235.306381 187.126206 
L 235.90723 188.78736 
L 237.108926 186.992713 
L 237.709775 189.090834 
L 238.310623 190.71935 
L 238.911471 189.246264 
L 239.51232 187.211698 
L 240.113168 186.970786 
L 240.714017 188.148797 
L 241.314865 188.794054 
L 241.915713 188.438307 
L 243.11741 188.385057 
L 243.718258 188.816411 
L 244.319107 187.890751 
L 244.919955 185.506204 
L 245.520803 184.055249 
L 246.7225 183.40483 
L 247.323348 182.493569 
L 247.924197 182.271254 
L 249.125893 182.990974 
L 249.726742 183.78272 
L 250.32759 183.696747 
L 250.928438 182.981589 
L 252.130135 183.916448 
L 252.730983 182.664206 
L 253.331832 181.05954 
L 253.93268 180.318593 
L 254.533529 180.648424 
L 255.735225 182.020123 
L 256.336074 183.277478 
L 256.936922 183.825727 
L 257.53777 182.460453 
L 258.138619 180.802125 
L 258.739467 180.071253 
L 259.340315 180.000966 
L 259.941164 180.145755 
L 261.14286 179.755931 
L 262.945405 179.99323 
L 263.546254 179.752477 
L 264.74795 178.21766 
L 265.348799 177.484973 
L 265.949647 177.859534 
L 266.550495 178.450186 
L 267.752192 177.614938 
L 268.353041 177.932443 
L 268.953889 179.402505 
L 269.554737 180.427972 
L 270.756434 176.810065 
L 271.357282 176.713243 
L 272.558979 177.729131 
L 273.760676 179.222941 
L 274.361524 178.882994 
L 275.563221 177.37152 
L 276.164069 177.56946 
L 276.764917 177.889354 
L 277.966614 177.589461 
L 278.567462 178.120364 
L 279.168311 178.317431 
L 279.769159 177.585905 
L 280.370008 178.360187 
L 280.970856 179.47633 
L 281.571704 180.079656 
L 282.773401 179.771985 
L 283.374249 180.179541 
L 283.975098 180.225195 
L 285.777643 182.328633 
L 286.378491 183.225761 
L 286.979339 183.381745 
L 287.580188 183.186162 
L 288.181036 183.211738 
L 288.781884 182.747036 
L 289.382733 183.755665 
L 289.983581 185.587942 
L 290.584429 186.388473 
L 291.185278 186.415241 
L 291.786126 186.00341 
L 292.386974 186.152513 
L 292.987823 186.150616 
L 293.588671 185.730705 
L 294.790368 184.502706 
L 295.391216 185.150961 
L 295.992065 186.514591 
L 296.592913 187.214329 
L 297.193761 186.097802 
L 297.79461 184.604355 
L 298.395458 185.148524 
L 299.597155 189.480591 
L 300.198003 190.152383 
L 301.3997 186.999473 
L 302.601396 187.791674 
L 303.202245 187.161692 
L 303.803093 186.986778 
L 304.403941 187.142772 
L 305.00479 187.927711 
L 305.605638 189.30561 
L 306.206486 189.907381 
L 306.807335 189.839341 
L 307.408183 188.909589 
L 308.009032 186.643434 
L 308.60988 185.513964 
L 309.210728 187.41742 
L 309.811577 188.295315 
L 310.412425 186.67641 
L 311.013273 185.839981 
L 312.21497 185.206354 
L 312.815818 185.666219 
L 313.416667 185.672769 
L 314.618363 184.782409 
L 315.82006 181.309546 
L 316.420908 181.613782 
L 317.622605 185.763551 
L 318.223453 186.55763 
L 318.824302 185.609424 
L 319.42515 184.963678 
L 320.025998 185.216757 
L 320.626847 184.051587 
L 321.227695 182.353645 
L 321.828544 181.954799 
L 322.429392 183.036219 
L 323.03024 183.537447 
L 323.631089 182.495678 
L 324.832785 179.73075 
L 326.034482 179.497413 
L 326.63533 178.596629 
L 327.236179 177.036265 
L 327.837027 175.13614 
L 328.437875 175.729833 
L 329.038724 178.220017 
L 329.639572 179.809787 
L 330.24042 179.278993 
L 330.841269 178.016956 
L 331.442117 176.217762 
L 332.643814 169.924051 
L 333.244662 170.358694 
L 333.845511 173.837296 
L 334.446359 174.374942 
L 335.047207 172.861077 
L 335.648056 172.096064 
L 336.248904 171.632814 
L 336.849752 170.997937 
L 338.051449 168.481683 
L 339.253146 169.685128 
L 339.853994 168.931182 
L 341.055691 164.792196 
L 342.257387 167.470031 
L 342.858236 167.945445 
L 343.459084 167.489502 
L 344.660781 163.09308 
L 345.261629 162.726196 
L 345.862477 163.829797 
L 346.463326 164.625302 
L 347.665023 162.508932 
L 348.866719 161.130927 
L 349.467568 161.832466 
L 350.068416 163.415895 
L 350.669264 162.705417 
L 351.270113 160.354767 
L 351.870961 158.736236 
L 352.471809 157.669806 
L 353.072658 159.445474 
L 353.673506 163.474994 
L 354.274354 166.477192 
L 354.875203 167.576869 
L 356.076899 163.219522 
L 357.278596 158.661333 
L 358.480293 160.318672 
L 359.681989 158.068263 
L 360.883686 156.839276 
L 361.484535 155.681436 
L 362.085383 154.98192 
L 362.686231 154.477461 
L 363.28708 154.310091 
L 363.887928 155.920803 
L 364.488776 157.861609 
L 365.089625 158.920703 
L 365.690473 159.536975 
L 366.291321 159.379494 
L 366.89217 158.862694 
L 367.493018 158.138205 
L 369.295563 154.260486 
L 369.896411 153.111146 
L 370.49726 152.684163 
L 371.098108 153.169254 
L 371.698956 150.50683 
L 372.299805 145.713735 
L 372.900653 145.226303 
L 373.501502 148.229372 
L 374.10235 150.392788 
L 374.703198 150.634702 
L 375.304047 149.974037 
L 375.904895 148.679858 
L 376.505743 147.067432 
L 377.106592 145.778252 
L 377.70744 146.003102 
L 378.308288 147.205861 
L 378.909137 148.982196 
L 379.509985 150.19952 
L 380.110833 149.621868 
L 380.711682 147.732548 
L 381.31253 147.711973 
L 381.913378 148.892767 
L 382.514227 149.371702 
L 383.115075 148.930079 
L 383.715923 149.349329 
L 384.316772 150.138588 
L 384.91762 151.354201 
L 385.518468 153.074551 
L 386.119317 152.227249 
L 386.720165 150.254963 
L 387.321014 146.786958 
L 387.921862 144.009779 
L 388.52271 145.114792 
L 389.123559 148.024119 
L 389.724407 147.888007 
L 390.325255 144.69829 
L 390.926104 143.757328 
L 392.1278 145.486459 
L 392.728649 143.491892 
L 393.329497 140.812878 
L 393.930345 140.916362 
L 394.531194 142.500047 
L 395.132042 143.612551 
L 395.73289 143.664245 
L 396.934587 138.882391 
L 397.535435 138.289192 
L 398.737132 138.340017 
L 399.33798 141.069252 
L 399.938829 144.509145 
L 400.539677 142.062475 
L 401.140526 137.186196 
L 401.741374 139.241798 
L 402.342222 143.498012 
L 402.943071 142.775957 
L 403.543919 138.639093 
L 404.144767 136.047315 
L 404.745616 135.495941 
L 405.346464 137.805404 
L 405.947312 141.548964 
L 406.548161 143.002015 
L 407.149009 142.466007 
L 407.749857 142.637737 
L 408.350706 142.628366 
L 408.951554 140.499846 
L 409.552402 139.685929 
L 410.153251 140.458072 
L 411.354947 138.295835 
L 411.955796 138.987672 
L 412.556644 138.795687 
L 413.157492 138.772015 
L 414.359189 140.842985 
L 414.960038 141.254538 
L 415.560886 141.809284 
L 416.161734 141.67143 
L 417.363431 135.771225 
L 418.565128 139.804729 
L 419.165976 136.717515 
L 419.766824 134.428563 
L 420.367673 135.10937 
L 420.968521 136.796705 
L 421.569369 136.680154 
L 422.170218 133.347568 
L 422.771066 132.518496 
L 423.371914 135.055667 
L 423.972763 135.724863 
L 424.573611 134.229268 
L 425.174459 133.048609 
L 425.775308 133.511043 
L 426.977005 139.269134 
L 427.577853 140.452709 
L 428.178701 139.752002 
L 428.77955 140.474783 
L 429.380398 143.057557 
L 429.981246 144.768567 
L 430.582095 143.224961 
L 431.182943 141.112939 
L 431.783791 140.626875 
L 432.38464 138.362057 
L 432.985488 134.12462 
L 433.586336 132.414774 
L 434.788033 139.38865 
L 435.388881 139.665662 
L 436.590578 136.093793 
L 437.792275 133.8196 
L 438.393123 133.751651 
L 438.993971 134.394779 
L 439.59482 136.2011 
L 440.195668 137.193091 
L 440.796517 135.866039 
L 441.998213 134.724549 
L 442.599062 131.325216 
L 443.19991 130.264584 
L 443.800758 132.60687 
L 444.401607 135.602161 
L 445.002455 137.463241 
L 445.603303 136.633205 
L 446.204152 134.686254 
L 446.805 136.329027 
L 447.405848 138.660808 
L 448.006697 138.617343 
L 448.607545 137.304176 
L 449.208393 135.433007 
L 449.809242 135.910153 
L 450.41009 136.777455 
L 451.010938 136.845227 
L 451.611787 138.125227 
L 452.212635 139.996242 
L 452.813483 140.665045 
L 453.414332 141.073262 
L 454.01518 142.685977 
L 454.616029 140.572515 
L 455.216877 136.115947 
L 455.817725 137.744756 
L 456.418574 142.113097 
L 457.019422 143.542872 
L 457.62027 141.941607 
L 458.221119 139.751957 
L 458.821967 138.427534 
L 459.422815 137.678701 
L 460.023664 138.295537 
L 460.624512 138.618868 
L 461.22536 138.158347 
L 461.8 137.443789 
L 461.8 137.443789 
" clip-path="url(#p8e3bc03646)" style="fill: none; stroke: #1e2e79; stroke-width: 2.5; stroke-linecap: square"/>
   </g>
   <g id="line2d_3">
    <path d="M 47.960327 -1 
L 48.442545 9.838133 
L 48.968691 -1 
M 81.957975 -1 
L 82.090053 7.140907 
L 82.690901 27.953604 
L 83.291749 38.768001 
L 83.892598 52.554338 
L 84.493446 61.800225 
L 85.094294 58.819746 
L 85.695143 51.366858 
L 86.295991 54.296766 
L 86.896839 61.223226 
L 87.497688 63.368437 
L 88.098536 61.924468 
L 88.699384 65.834245 
L 90.501929 103.018468 
L 91.102778 109.695057 
L 91.703626 113.927314 
L 92.905323 123.708318 
L 93.506171 126.240793 
L 94.10702 129.584058 
L 94.707868 134.303363 
L 95.909565 141.947286 
L 97.111261 152.377229 
L 98.913806 161.181573 
L 99.514655 165.176416 
L 101.3172 183.310057 
L 101.918048 186.795588 
L 102.518896 188.828878 
L 103.119745 190.144369 
L 103.720593 192.641122 
L 104.92229 200.53716 
L 106.724835 209.574098 
L 107.926532 214.82762 
L 109.128228 220.875559 
L 111.531622 231.497031 
L 112.13247 233.36338 
L 112.733318 235.65337 
L 113.935015 241.102526 
L 114.535863 242.611674 
L 115.136712 243.756555 
L 115.73756 245.206728 
L 118.140953 252.128807 
L 118.741802 253.602346 
L 119.943498 256.069463 
L 120.544347 257.745729 
L 121.145195 258.771761 
L 121.746044 258.99926 
L 122.346892 259.500455 
L 123.548589 261.264266 
L 125.351134 263.741408 
L 127.153679 265.005301 
L 127.754527 265.588028 
L 128.355375 265.821744 
L 128.956224 265.631663 
L 129.557072 265.281652 
L 131.359617 263.921436 
L 131.960465 263.825915 
L 132.561314 263.465634 
L 133.162162 262.743861 
L 133.763011 261.63217 
L 134.363859 260.108129 
L 134.964707 258.988922 
L 135.565556 258.502935 
L 136.166404 257.715172 
L 137.968949 254.054701 
L 138.569797 253.073041 
L 139.170646 251.730701 
L 140.372342 248.171643 
L 140.973191 247.036198 
L 142.174887 245.790444 
L 142.775736 244.233224 
L 143.977432 240.21009 
L 145.179129 235.983727 
L 146.380826 231.027462 
L 146.981674 228.236181 
L 147.582523 226.455043 
L 148.183371 225.0708 
L 149.385068 221.118348 
L 150.586764 215.862681 
L 151.788461 212.829647 
L 152.990158 208.241729 
L 154.191854 206.09763 
L 154.792703 204.664576 
L 155.393551 202.611974 
L 156.595248 197.641856 
L 157.196096 195.848382 
L 158.998641 192.306844 
L 159.599489 190.786187 
L 160.200338 188.955184 
L 162.002883 180.20047 
L 163.20458 177.084038 
L 164.406276 172.176481 
L 165.007125 170.471092 
L 165.607973 169.39405 
L 166.208821 169.012064 
L 166.80967 168.151396 
L 167.410518 166.063648 
L 169.213063 158.274208 
L 169.813911 158.15125 
L 170.41476 157.326144 
L 171.015608 155.201511 
L 171.616456 153.81447 
L 172.217305 153.534775 
L 172.818153 152.143713 
L 174.01985 143.982066 
L 174.620698 141.874931 
L 175.221547 142.060704 
L 175.822395 143.98894 
L 176.423243 146.304591 
L 177.024092 147.860258 
L 177.62494 147.100446 
L 178.225788 143.402324 
L 178.826637 138.20404 
L 179.427485 136.179988 
L 180.028333 137.592375 
L 180.629182 136.247919 
L 181.23003 132.117496 
L 181.830878 129.953115 
L 182.431727 130.056272 
L 183.032575 131.258378 
L 183.633423 131.559455 
L 184.234272 127.143425 
L 184.83512 119.764875 
L 185.435968 118.704624 
L 186.036817 123.966401 
L 186.637665 127.324442 
L 187.238514 126.088521 
L 187.839362 122.204774 
L 189.041059 112.276259 
L 189.641907 109.301066 
L 190.242755 111.157881 
L 190.843604 113.950965 
L 191.444452 112.794337 
L 192.0453 109.283555 
L 192.646149 107.724779 
L 193.246997 108.167403 
L 193.847845 109.287698 
L 194.448694 111.706151 
L 195.049542 113.646438 
L 195.65039 111.174538 
L 196.251239 107.944532 
L 196.852087 108.492508 
L 197.452935 110.444219 
L 198.053784 108.484059 
L 198.654632 101.875855 
L 199.25548 97.253549 
L 200.457177 103.70385 
L 201.058026 101.439826 
L 201.658874 96.818572 
L 202.259722 95.98789 
L 202.860571 98.699649 
L 203.461419 100.503752 
L 204.062267 101.878608 
L 204.663116 106.533217 
L 205.263964 112.505699 
L 205.864812 112.941523 
L 206.465661 106.684209 
L 207.066509 101.76326 
L 207.667357 103.279545 
L 208.268206 105.195179 
L 208.869054 106.704978 
L 210.070751 110.460083 
L 210.671599 112.604753 
L 211.272447 114.177723 
L 212.474144 118.267895 
L 213.074992 119.439757 
L 213.675841 119.724685 
L 214.276689 118.811629 
L 214.877538 121.095592 
L 216.079234 135.589924 
L 216.680083 139.174059 
L 217.280931 139.342716 
L 217.881779 138.650556 
L 218.482628 138.770806 
L 219.684324 140.260077 
L 220.285173 141.695695 
L 220.886021 143.541102 
L 221.486869 144.62424 
L 222.688566 149.173459 
L 223.289414 149.697721 
L 223.890263 149.813857 
L 224.491111 150.364748 
L 225.091959 151.656504 
L 226.293656 157.443278 
L 227.495353 162.928929 
L 228.096201 165.224231 
L 229.297898 168.116567 
L 230.499595 172.885521 
L 232.30214 177.154405 
L 233.503836 178.817039 
L 234.104685 180.193717 
L 235.306381 182.110015 
L 235.90723 184.095073 
L 236.508078 187.043197 
L 237.108926 188.678349 
L 237.709775 188.568503 
L 238.911471 187.355203 
L 239.51232 187.970071 
L 240.714017 192.106613 
L 241.915713 193.937174 
L 242.516562 195.546261 
L 243.11741 196.380484 
L 243.718258 196.896532 
L 244.919955 199.75622 
L 245.520803 200.741137 
L 246.121652 202.104408 
L 246.7225 203.966226 
L 247.323348 205.006638 
L 248.525045 204.209716 
L 249.125893 204.779849 
L 249.726742 205.902813 
L 250.32759 206.695058 
L 250.928438 206.535422 
L 251.529287 205.703021 
L 252.130135 205.691482 
L 253.331832 207.198175 
L 253.93268 208.121817 
L 254.533529 209.612232 
L 255.134377 211.416757 
L 255.735225 212.119344 
L 256.936922 210.418456 
L 257.53777 210.797481 
L 258.138619 211.694138 
L 258.739467 211.811121 
L 259.340315 211.237915 
L 259.941164 210.947259 
L 260.542012 211.621594 
L 261.14286 212.625804 
L 261.743709 213.172364 
L 262.344557 213.357202 
L 262.945405 213.297916 
L 263.546254 214.114614 
L 264.147102 215.298193 
L 264.74795 214.642868 
L 265.348799 212.752779 
L 265.949647 211.361008 
L 266.550495 210.911952 
L 267.151344 211.418994 
L 267.752192 212.304016 
L 268.353041 212.325645 
L 268.953889 212.173817 
L 270.155586 213.115847 
L 270.756434 213.12001 
L 271.357282 212.389897 
L 271.958131 211.189139 
L 273.159827 209.716159 
L 273.760676 208.553456 
L 274.361524 208.398708 
L 274.962372 209.248213 
L 275.563221 209.689494 
L 276.164069 209.594608 
L 276.764917 209.618358 
L 277.365766 210.021416 
L 277.966614 210.093219 
L 278.567462 208.865573 
L 279.168311 206.883427 
L 279.769159 205.82536 
L 280.970856 205.512783 
L 281.571704 205.13822 
L 282.172553 204.608584 
L 282.773401 204.521631 
L 283.374249 204.635152 
L 283.975098 203.214051 
L 284.575946 200.841094 
L 285.176794 199.875071 
L 285.777643 200.192304 
L 286.378491 200.052014 
L 286.979339 199.380461 
L 287.580188 198.35662 
L 288.181036 197.715505 
L 288.781884 197.365081 
L 289.382733 196.07498 
L 290.584429 192.617501 
L 291.185278 192.083088 
L 291.786126 192.402079 
L 292.386974 192.322224 
L 293.588671 190.43973 
L 294.18952 190.233387 
L 294.790368 190.727584 
L 295.391216 191.030281 
L 295.992065 189.640475 
L 296.592913 187.198337 
L 297.193761 185.616771 
L 297.79461 184.560425 
L 298.996306 181.566521 
L 299.597155 181.229137 
L 300.198003 180.367204 
L 300.798851 178.928229 
L 301.3997 178.986882 
L 302.000548 179.538641 
L 302.601396 179.308931 
L 303.202245 178.429468 
L 303.803093 177.747204 
L 304.403941 177.918508 
L 305.00479 177.281922 
L 306.206486 171.841565 
L 307.408183 170.610707 
L 308.009032 169.562604 
L 309.210728 166.299299 
L 309.811577 164.592387 
L 311.614122 158.167001 
L 312.815818 159.6319 
L 313.416667 158.291711 
L 314.017515 158.224175 
L 314.618363 160.200337 
L 315.219212 161.63208 
L 315.82006 161.406621 
L 316.420908 160.448682 
L 317.021757 160.051141 
L 317.622605 159.025566 
L 318.824302 153.355593 
L 319.42515 150.604125 
L 320.025998 149.564863 
L 320.626847 150.554741 
L 321.227695 152.088987 
L 321.828544 152.906713 
L 322.429392 151.396374 
L 323.03024 148.485928 
L 323.631089 148.282827 
L 324.231937 150.665298 
L 324.832785 151.624936 
L 325.433634 150.668579 
L 326.63533 146.777337 
L 327.236179 146.687997 
L 327.837027 146.314803 
L 328.437875 145.610475 
L 329.038724 144.518827 
L 329.639572 141.212978 
L 330.24042 138.697405 
L 330.841269 140.011187 
L 331.442117 142.250703 
L 332.042965 141.857154 
L 333.244662 136.951427 
L 333.845511 135.69238 
L 334.446359 135.462321 
L 335.047207 136.757374 
L 335.648056 137.463232 
L 336.248904 136.877356 
L 337.450601 134.569496 
L 338.051449 134.232467 
L 338.652297 135.365032 
L 339.253146 137.497863 
L 339.853994 137.166638 
L 340.454842 133.117349 
L 341.055691 128.252293 
L 341.656539 126.427127 
L 342.257387 128.759882 
L 342.858236 132.088088 
L 343.459084 133.387695 
L 344.660781 129.948902 
L 345.261629 129.289613 
L 345.862477 126.394348 
L 346.463326 120.684916 
L 347.064174 116.939727 
L 347.665023 115.950289 
L 348.265871 115.356575 
L 348.866719 115.596165 
L 349.467568 118.014717 
L 350.068416 121.875657 
L 350.669264 122.826457 
L 351.270113 120.749293 
L 351.870961 120.691114 
L 352.471809 121.144933 
L 353.072658 120.820658 
L 353.673506 122.237169 
L 354.274354 122.065483 
L 354.875203 117.249417 
L 355.476051 110.310492 
L 356.076899 108.794679 
L 356.677748 114.137123 
L 357.278596 116.099623 
L 357.879444 112.286967 
L 358.480293 111.32814 
L 359.081141 114.739966 
L 359.681989 116.630934 
L 360.282838 117.235658 
L 360.883686 118.404473 
L 361.484535 116.424283 
L 362.686231 99.814952 
L 363.28708 99.991676 
L 365.089625 110.692635 
L 365.690473 112.859056 
L 366.291321 112.172866 
L 366.89217 109.027431 
L 368.093866 99.240251 
L 368.694715 96.58441 
L 369.295563 95.017636 
L 370.49726 86.726771 
L 371.098108 85.119303 
L 371.698956 87.322856 
L 372.299805 89.084216 
L 372.900653 89.348717 
L 374.10235 92.678145 
L 374.703198 93.225328 
L 375.304047 91.483604 
L 375.904895 93.057267 
L 376.505743 100.529197 
L 377.106592 103.937824 
L 377.70744 100.110791 
L 378.308288 92.815345 
L 378.909137 87.964247 
L 379.509985 91.864645 
L 380.110833 100.013364 
L 380.711682 103.607962 
L 381.31253 99.468473 
L 381.913378 87.85419 
L 382.514227 80.455321 
L 383.115075 83.972862 
L 383.715923 85.508169 
L 384.316772 84.363993 
L 384.91762 84.084446 
L 385.518468 81.17855 
L 386.119317 75.724539 
L 386.720165 74.601245 
L 387.321014 76.029814 
L 387.921862 78.329347 
L 388.52271 81.521879 
L 389.123559 85.631099 
L 389.724407 88.633013 
L 390.325255 85.149035 
L 390.926104 76.708677 
L 391.526952 76.425709 
L 392.1278 82.372431 
L 392.728649 84.45365 
L 393.329497 88.893105 
L 393.930345 94.788521 
L 394.531194 95.957902 
L 395.132042 92.807749 
L 395.73289 86.446781 
L 396.333739 76.639141 
L 396.934587 61.713379 
L 397.535435 50.714443 
L 398.136284 58.517246 
L 398.737132 69.038214 
L 399.33798 71.586544 
L 400.539677 63.032697 
L 401.140526 68.105418 
L 401.741374 71.376048 
L 402.342222 63.647475 
L 402.943071 48.173428 
L 403.543919 40.504851 
L 404.745616 57.157467 
L 405.346464 59.612251 
L 405.947312 57.945559 
L 406.548161 55.888811 
L 407.149009 55.152762 
L 407.749857 55.231013 
L 408.951554 65.071158 
L 409.552402 67.155838 
L 410.153251 65.470351 
L 410.754099 59.884931 
L 411.354947 52.15352 
L 412.556644 28.208459 
L 413.157492 36.47941 
L 413.758341 49.640169 
L 414.359189 57.714961 
L 414.960038 56.45904 
L 416.161734 42.310786 
L 416.762583 37.670776 
L 417.363431 40.989258 
L 417.964279 49.311147 
L 418.565128 53.362327 
L 419.165976 49.386956 
L 419.766824 43.784352 
L 420.367673 41.39705 
L 420.968521 32.338636 
L 421.88965 -1 
M 422.534869 -1 
L 423.371914 18.880459 
L 423.972763 21.781312 
L 424.573611 22.608891 
L 425.174459 22.284497 
L 425.775308 22.355096 
L 426.376156 17.918718 
L 426.977005 11.090223 
L 427.577853 9.450484 
L 428.178701 9.174861 
L 428.77955 12.95871 
L 429.380398 21.397055 
L 429.981246 18.743338 
L 430.566049 -1 
M 433.211801 -1 
L 434.187185 18.754945 
L 434.788033 23.530118 
L 435.388881 23.730281 
L 435.98973 14.631155 
L 436.590578 -0.820622 
L 437.191426 2.365873 
L 437.792275 17.168904 
L 438.393123 25.69608 
L 438.993971 17.666589 
L 439.424964 -1 
M 440.393012 -1 
L 440.796517 17.413152 
L 441.397365 26.744913 
L 441.998213 17.952479 
L 442.599062 4.301942 
L 443.19991 4.35575 
L 443.800758 12.459411 
L 444.401607 2.459709 
L 444.458398 -1 
M 446.663093 -1 
L 446.805 10.480232 
L 447.405848 36.410509 
L 448.006697 40.942426 
L 448.607545 27.901538 
L 449.208393 6.911903 
L 449.748166 -1 
M 449.869343 -1 
L 450.41009 7.054644 
L 451.010938 23.529098 
L 451.611787 35.050668 
L 452.212635 32.604366 
L 453.526425 -1 
M 455.039911 -1 
L 455.216877 3.866599 
L 455.817725 25.526923 
L 456.418574 34.098108 
L 457.019422 25.753546 
L 457.644912 -1 
M 458.969357 -1 
L 459.422815 18.322715 
L 460.023664 31.664313 
L 460.624512 31.586617 
L 461.22536 20.794464 
L 461.8 15.279865 
L 461.8 15.279865 
" clip-path="url(#p8e3bc03646)" style="fill: none; stroke: #ec4067; stroke-width: 2.5; stroke-linecap: square"/>
   </g>
   <g id="matplotlib.axis_1">
    <g id="xtick_1">
     <g id="line2d_4">
      <defs>
       <path id="m97483787c2" d="M 0 0 
L 0 3.5 
" style="stroke: #000000; stroke-width: 0.8"/>
      </defs>
      <g>
       <use xlink:href="#m97483787c2" x="46.64" y="302.8525" style="stroke: #000000; stroke-width: 0.8"/>
      </g>
     </g>
     <g id="text_1">
      <!-- 2 -->
      <g transform="translate(43.45875 317.450937) scale(0.1 -0.1)">
       <defs>
        <path id="DejaVuSans-32" d="M 1228 531 
L 3431 531 
L 3431 0 
L 469 0 
L 469 531 
Q 828 903 1448 1529 
Q 2069 2156 2228 2338 
Q 2531 2678 2651 2914 
Q 2772 3150 2772 3378 
Q 2772 3750 2511 3984 
Q 2250 4219 1831 4219 
Q 1534 4219 1204 4116 
Q 875 4013 500 3803 
L 500 4441 
Q 881 4594 1212 4672 
Q 1544 4750 1819 4750 
Q 2544 4750 2975 4387 
Q 3406 4025 3406 3419 
Q 3406 3131 3298 2873 
Q 3191 2616 2906 2266 
Q 2828 2175 2409 1742 
Q 1991 1309 1228 531 
z
" transform="scale(0.015625)"/>
       </defs>
       <use xlink:href="#DejaVuSans-32"/>
      </g>
     </g>
    </g>
    <g id="xtick_2">
     <g id="line2d_5">
      <g>
       <use xlink:href="#m97483787c2" x="113.334167" y="302.8525" style="stroke: #000000; stroke-width: 0.8"/>
      </g>
     </g>
     <g id="text_2">
      <!-- 3 -->
      <g transform="translate(110.152917 317.450937) scale(0.1 -0.1)">
       <defs>
        <path id="DejaVuSans-33" d="M 2597 2516 
Q 3050 2419 3304 2112 
Q 3559 1806 3559 1356 
Q 3559 666 3084 287 
Q 2609 -91 1734 -91 
Q 1441 -91 1130 -33 
Q 819 25 488 141 
L 488 750 
Q 750 597 1062 519 
Q 1375 441 1716 441 
Q 2309 441 2620 675 
Q 2931 909 2931 1356 
Q 2931 1769 2642 2001 
Q 2353 2234 1838 2234 
L 1294 2234 
L 1294 2753 
L 1863 2753 
Q 2328 2753 2575 2939 
Q 2822 3125 2822 3475 
Q 2822 3834 2567 4026 
Q 2313 4219 1838 4219 
Q 1578 4219 1281 4162 
Q 984 4106 628 3988 
L 628 4550 
Q 988 4650 1302 4700 
Q 1616 4750 1894 4750 
Q 2613 4750 3031 4423 
Q 3450 4097 3450 3541 
Q 3450 3153 3228 2886 
Q 3006 2619 2597 2516 
z
" transform="scale(0.015625)"/>
       </defs>
       <use xlink:href="#DejaVuSans-33"/>
      </g>
     </g>
    </g>
    <g id="xtick_3">
     <g id="line2d_6">
      <g>
       <use xlink:href="#m97483787c2" x="180.028333" y="302.8525" style="stroke: #000000; stroke-width: 0.8"/>
      </g>
     </g>
     <g id="text_3">
      <!-- 4 -->
      <g transform="translate(176.847083 317.450937) scale(0.1 -0.1)">
       <defs>
        <path id="DejaVuSans-34" d="M 2419 4116 
L 825 1625 
L 2419 1625 
L 2419 4116 
z
M 2253 4666 
L 3047 4666 
L 3047 1625 
L 3713 1625 
L 3713 1100 
L 3047 1100 
L 3047 0 
L 2419 0 
L 2419 1100 
L 313 1100 
L 313 1709 
L 2253 4666 
z
" transform="scale(0.015625)"/>
       </defs>
       <use xlink:href="#DejaVuSans-34"/>
      </g>
     </g>
    </g>
    <g id="xtick_4">
     <g id="line2d_7">
      <g>
       <use xlink:href="#m97483787c2" x="246.7225" y="302.8525" style="stroke: #000000; stroke-width: 0.8"/>
      </g>
     </g>
     <g id="text_4">
      <!-- 5 -->
      <g transform="translate(243.54125 317.450937) scale(0.1 -0.1)">
       <defs>
        <path id="DejaVuSans-35" d="M 691 4666 
L 3169 4666 
L 3169 4134 
L 1269 4134 
L 1269 2991 
Q 1406 3038 1543 3061 
Q 1681 3084 1819 3084 
Q 2600 3084 3056 2656 
Q 3513 2228 3513 1497 
Q 3513 744 3044 326 
Q 2575 -91 1722 -91 
Q 1428 -91 1123 -41 
Q 819 9 494 109 
L 494 744 
Q 775 591 1075 516 
Q 1375 441 1709 441 
Q 2250 441 2565 725 
Q 2881 1009 2881 1497 
Q 2881 1984 2565 2268 
Q 2250 2553 1709 2553 
Q 1456 2553 1204 2497 
Q 953 2441 691 2322 
L 691 4666 
z
" transform="scale(0.015625)"/>
       </defs>
       <use xlink:href="#DejaVuSans-35"/>
      </g>
     </g>
    </g>
    <g id="xtick_5">
     <g id="line2d_8">
      <g>
       <use xlink:href="#m97483787c2" x="313.416667" y="302.8525" style="stroke: #000000; stroke-width: 0.8"/>
      </g>
     </g>
     <g id="text_5">
      <!-- 6 -->
      <g transform="translate(310.235417 317.450937) scale(0.1 -0.1)">
       <defs>
        <path id="DejaVuSans-36" d="M 2113 2584 
Q 1688 2584 1439 2293 
Q 1191 2003 1191 1497 
Q 1191 994 1439 701 
Q 1688 409 2113 409 
Q 2538 409 2786 701 
Q 3034 994 3034 1497 
Q 3034 2003 2786 2293 
Q 2538 2584 2113 2584 
z
M 3366 4563 
L 3366 3988 
Q 3128 4100 2886 4159 
Q 2644 4219 2406 4219 
Q 1781 4219 1451 3797 
Q 1122 3375 1075 2522 
Q 1259 2794 1537 2939 
Q 1816 3084 2150 3084 
Q 2853 3084 3261 2657 
Q 3669 2231 3669 1497 
Q 3669 778 3244 343 
Q 2819 -91 2113 -91 
Q 1303 -91 875 529 
Q 447 1150 447 2328 
Q 447 3434 972 4092 
Q 1497 4750 2381 4750 
Q 2619 4750 2861 4703 
Q 3103 4656 3366 4563 
z
" transform="scale(0.015625)"/>
       </defs>
       <use xlink:href="#DejaVuSans-36"/>
      </g>
     </g>
    </g>
    <g id="xtick_6">
     <g id="line2d_9">
      <g>
       <use xlink:href="#m97483787c2" x="380.110833" y="302.8525" style="stroke: #000000; stroke-width: 0.8"/>
      </g>
     </g>
     <g id="text_6">
      <!-- 7 -->
      <g transform="translate(376.929583 317.450937) scale(0.1 -0.1)">
       <defs>
        <path id="DejaVuSans-37" d="M 525 4666 
L 3525 4666 
L 3525 4397 
L 1831 0 
L 1172 0 
L 2766 4134 
L 525 4134 
L 525 4666 
z
" transform="scale(0.015625)"/>
       </defs>
       <use xlink:href="#DejaVuSans-37"/>
      </g>
     </g>
    </g>
    <g id="xtick_7">
     <g id="line2d_10">
      <g>
       <use xlink:href="#m97483787c2" x="446.805" y="302.8525" style="stroke: #000000; stroke-width: 0.8"/>
      </g>
     </g>
     <g id="text_7">
      <!-- 8 -->
      <g transform="translate(443.62375 317.450937) scale(0.1 -0.1)">
       <defs>
        <path id="DejaVuSans-38" d="M 2034 2216 
Q 1584 2216 1326 1975 
Q 1069 1734 1069 1313 
Q 1069 891 1326 650 
Q 1584 409 2034 409 
Q 2484 409 2743 651 
Q 3003 894 3003 1313 
Q 3003 1734 2745 1975 
Q 2488 2216 2034 2216 
z
M 1403 2484 
Q 997 2584 770 2862 
Q 544 3141 544 3541 
Q 544 4100 942 4425 
Q 1341 4750 2034 4750 
Q 2731 4750 3128 4425 
Q 3525 4100 3525 3541 
Q 3525 3141 3298 2862 
Q 3072 2584 2669 2484 
Q 3125 2378 3379 2068 
Q 3634 1759 3634 1313 
Q 3634 634 3220 271 
Q 2806 -91 2034 -91 
Q 1263 -91 848 271 
Q 434 634 434 1313 
Q 434 1759 690 2068 
Q 947 2378 1403 2484 
z
M 1172 3481 
Q 1172 3119 1398 2916 
Q 1625 2713 2034 2713 
Q 2441 2713 2670 2916 
Q 2900 3119 2900 3481 
Q 2900 3844 2670 4047 
Q 2441 4250 2034 4250 
Q 1625 4250 1398 4047 
Q 1172 3844 1172 3481 
z
" transform="scale(0.015625)"/>
       </defs>
       <use xlink:href="#DejaVuSans-38"/>
      </g>
     </g>
    </g>
    <g id="text_8">
     <!-- SER205 OG - H2O H Distance [Å] -->
     <g transform="translate(164.400625 332.0525) scale(0.1 -0.1)">
      <defs>
       <path id="DejaVuSans-53" d="M 3425 4513 
L 3425 3897 
Q 3066 4069 2747 4153 
Q 2428 4238 2131 4238 
Q 1616 4238 1336 4038 
Q 1056 3838 1056 3469 
Q 1056 3159 1242 3001 
Q 1428 2844 1947 2747 
L 2328 2669 
Q 3034 2534 3370 2195 
Q 3706 1856 3706 1288 
Q 3706 609 3251 259 
Q 2797 -91 1919 -91 
Q 1588 -91 1214 -16 
Q 841 59 441 206 
L 441 856 
Q 825 641 1194 531 
Q 1563 422 1919 422 
Q 2459 422 2753 634 
Q 3047 847 3047 1241 
Q 3047 1584 2836 1778 
Q 2625 1972 2144 2069 
L 1759 2144 
Q 1053 2284 737 2584 
Q 422 2884 422 3419 
Q 422 4038 858 4394 
Q 1294 4750 2059 4750 
Q 2388 4750 2728 4690 
Q 3069 4631 3425 4513 
z
" transform="scale(0.015625)"/>
       <path id="DejaVuSans-45" d="M 628 4666 
L 3578 4666 
L 3578 4134 
L 1259 4134 
L 1259 2753 
L 3481 2753 
L 3481 2222 
L 1259 2222 
L 1259 531 
L 3634 531 
L 3634 0 
L 628 0 
L 628 4666 
z
" transform="scale(0.015625)"/>
       <path id="DejaVuSans-52" d="M 2841 2188 
Q 3044 2119 3236 1894 
Q 3428 1669 3622 1275 
L 4263 0 
L 3584 0 
L 2988 1197 
Q 2756 1666 2539 1819 
Q 2322 1972 1947 1972 
L 1259 1972 
L 1259 0 
L 628 0 
L 628 4666 
L 2053 4666 
Q 2853 4666 3247 4331 
Q 3641 3997 3641 3322 
Q 3641 2881 3436 2590 
Q 3231 2300 2841 2188 
z
M 1259 4147 
L 1259 2491 
L 2053 2491 
Q 2509 2491 2742 2702 
Q 2975 2913 2975 3322 
Q 2975 3731 2742 3939 
Q 2509 4147 2053 4147 
L 1259 4147 
z
" transform="scale(0.015625)"/>
       <path id="DejaVuSans-30" d="M 2034 4250 
Q 1547 4250 1301 3770 
Q 1056 3291 1056 2328 
Q 1056 1369 1301 889 
Q 1547 409 2034 409 
Q 2525 409 2770 889 
Q 3016 1369 3016 2328 
Q 3016 3291 2770 3770 
Q 2525 4250 2034 4250 
z
M 2034 4750 
Q 2819 4750 3233 4129 
Q 3647 3509 3647 2328 
Q 3647 1150 3233 529 
Q 2819 -91 2034 -91 
Q 1250 -91 836 529 
Q 422 1150 422 2328 
Q 422 3509 836 4129 
Q 1250 4750 2034 4750 
z
" transform="scale(0.015625)"/>
       <path id="DejaVuSans-20" transform="scale(0.015625)"/>
       <path id="DejaVuSans-4f" d="M 2522 4238 
Q 1834 4238 1429 3725 
Q 1025 3213 1025 2328 
Q 1025 1447 1429 934 
Q 1834 422 2522 422 
Q 3209 422 3611 934 
Q 4013 1447 4013 2328 
Q 4013 3213 3611 3725 
Q 3209 4238 2522 4238 
z
M 2522 4750 
Q 3503 4750 4090 4092 
Q 4678 3434 4678 2328 
Q 4678 1225 4090 567 
Q 3503 -91 2522 -91 
Q 1538 -91 948 565 
Q 359 1222 359 2328 
Q 359 3434 948 4092 
Q 1538 4750 2522 4750 
z
" transform="scale(0.015625)"/>
       <path id="DejaVuSans-47" d="M 3809 666 
L 3809 1919 
L 2778 1919 
L 2778 2438 
L 4434 2438 
L 4434 434 
Q 4069 175 3628 42 
Q 3188 -91 2688 -91 
Q 1594 -91 976 548 
Q 359 1188 359 2328 
Q 359 3472 976 4111 
Q 1594 4750 2688 4750 
Q 3144 4750 3555 4637 
Q 3966 4525 4313 4306 
L 4313 3634 
Q 3963 3931 3569 4081 
Q 3175 4231 2741 4231 
Q 1884 4231 1454 3753 
Q 1025 3275 1025 2328 
Q 1025 1384 1454 906 
Q 1884 428 2741 428 
Q 3075 428 3337 486 
Q 3600 544 3809 666 
z
" transform="scale(0.015625)"/>
       <path id="DejaVuSans-2d" d="M 313 2009 
L 1997 2009 
L 1997 1497 
L 313 1497 
L 313 2009 
z
" transform="scale(0.015625)"/>
       <path id="DejaVuSans-48" d="M 628 4666 
L 1259 4666 
L 1259 2753 
L 3553 2753 
L 3553 4666 
L 4184 4666 
L 4184 0 
L 3553 0 
L 3553 2222 
L 1259 2222 
L 1259 0 
L 628 0 
L 628 4666 
z
" transform="scale(0.015625)"/>
       <path id="DejaVuSans-44" d="M 1259 4147 
L 1259 519 
L 2022 519 
Q 2988 519 3436 956 
Q 3884 1394 3884 2338 
Q 3884 3275 3436 3711 
Q 2988 4147 2022 4147 
L 1259 4147 
z
M 628 4666 
L 1925 4666 
Q 3281 4666 3915 4102 
Q 4550 3538 4550 2338 
Q 4550 1131 3912 565 
Q 3275 0 1925 0 
L 628 0 
L 628 4666 
z
" transform="scale(0.015625)"/>
       <path id="DejaVuSans-69" d="M 603 3500 
L 1178 3500 
L 1178 0 
L 603 0 
L 603 3500 
z
M 603 4863 
L 1178 4863 
L 1178 4134 
L 603 4134 
L 603 4863 
z
" transform="scale(0.015625)"/>
       <path id="DejaVuSans-73" d="M 2834 3397 
L 2834 2853 
Q 2591 2978 2328 3040 
Q 2066 3103 1784 3103 
Q 1356 3103 1142 2972 
Q 928 2841 928 2578 
Q 928 2378 1081 2264 
Q 1234 2150 1697 2047 
L 1894 2003 
Q 2506 1872 2764 1633 
Q 3022 1394 3022 966 
Q 3022 478 2636 193 
Q 2250 -91 1575 -91 
Q 1294 -91 989 -36 
Q 684 19 347 128 
L 347 722 
Q 666 556 975 473 
Q 1284 391 1588 391 
Q 1994 391 2212 530 
Q 2431 669 2431 922 
Q 2431 1156 2273 1281 
Q 2116 1406 1581 1522 
L 1381 1569 
Q 847 1681 609 1914 
Q 372 2147 372 2553 
Q 372 3047 722 3315 
Q 1072 3584 1716 3584 
Q 2034 3584 2315 3537 
Q 2597 3491 2834 3397 
z
" transform="scale(0.015625)"/>
       <path id="DejaVuSans-74" d="M 1172 4494 
L 1172 3500 
L 2356 3500 
L 2356 3053 
L 1172 3053 
L 1172 1153 
Q 1172 725 1289 603 
Q 1406 481 1766 481 
L 2356 481 
L 2356 0 
L 1766 0 
Q 1100 0 847 248 
Q 594 497 594 1153 
L 594 3053 
L 172 3053 
L 172 3500 
L 594 3500 
L 594 4494 
L 1172 4494 
z
" transform="scale(0.015625)"/>
       <path id="DejaVuSans-61" d="M 2194 1759 
Q 1497 1759 1228 1600 
Q 959 1441 959 1056 
Q 959 750 1161 570 
Q 1363 391 1709 391 
Q 2188 391 2477 730 
Q 2766 1069 2766 1631 
L 2766 1759 
L 2194 1759 
z
M 3341 1997 
L 3341 0 
L 2766 0 
L 2766 531 
Q 2569 213 2275 61 
Q 1981 -91 1556 -91 
Q 1019 -91 701 211 
Q 384 513 384 1019 
Q 384 1609 779 1909 
Q 1175 2209 1959 2209 
L 2766 2209 
L 2766 2266 
Q 2766 2663 2505 2880 
Q 2244 3097 1772 3097 
Q 1472 3097 1187 3025 
Q 903 2953 641 2809 
L 641 3341 
Q 956 3463 1253 3523 
Q 1550 3584 1831 3584 
Q 2591 3584 2966 3190 
Q 3341 2797 3341 1997 
z
" transform="scale(0.015625)"/>
       <path id="DejaVuSans-6e" d="M 3513 2113 
L 3513 0 
L 2938 0 
L 2938 2094 
Q 2938 2591 2744 2837 
Q 2550 3084 2163 3084 
Q 1697 3084 1428 2787 
Q 1159 2491 1159 1978 
L 1159 0 
L 581 0 
L 581 3500 
L 1159 3500 
L 1159 2956 
Q 1366 3272 1645 3428 
Q 1925 3584 2291 3584 
Q 2894 3584 3203 3211 
Q 3513 2838 3513 2113 
z
" transform="scale(0.015625)"/>
       <path id="DejaVuSans-63" d="M 3122 3366 
L 3122 2828 
Q 2878 2963 2633 3030 
Q 2388 3097 2138 3097 
Q 1578 3097 1268 2742 
Q 959 2388 959 1747 
Q 959 1106 1268 751 
Q 1578 397 2138 397 
Q 2388 397 2633 464 
Q 2878 531 3122 666 
L 3122 134 
Q 2881 22 2623 -34 
Q 2366 -91 2075 -91 
Q 1284 -91 818 406 
Q 353 903 353 1747 
Q 353 2603 823 3093 
Q 1294 3584 2113 3584 
Q 2378 3584 2631 3529 
Q 2884 3475 3122 3366 
z
" transform="scale(0.015625)"/>
       <path id="DejaVuSans-65" d="M 3597 1894 
L 3597 1613 
L 953 1613 
Q 991 1019 1311 708 
Q 1631 397 2203 397 
Q 2534 397 2845 478 
Q 3156 559 3463 722 
L 3463 178 
Q 3153 47 2828 -22 
Q 2503 -91 2169 -91 
Q 1331 -91 842 396 
Q 353 884 353 1716 
Q 353 2575 817 3079 
Q 1281 3584 2069 3584 
Q 2775 3584 3186 3129 
Q 3597 2675 3597 1894 
z
M 3022 2063 
Q 3016 2534 2758 2815 
Q 2500 3097 2075 3097 
Q 1594 3097 1305 2825 
Q 1016 2553 972 2059 
L 3022 2063 
z
" transform="scale(0.015625)"/>
       <path id="DejaVuSans-5b" d="M 550 4863 
L 1875 4863 
L 1875 4416 
L 1125 4416 
L 1125 -397 
L 1875 -397 
L 1875 -844 
L 550 -844 
L 550 4863 
z
" transform="scale(0.015625)"/>
       <path id="DejaVuSans-c5" d="M 2663 5081 
Q 2663 5278 2523 5417 
Q 2384 5556 2188 5556 
Q 1988 5556 1852 5420 
Q 1716 5284 1716 5081 
Q 1716 4884 1853 4746 
Q 1991 4609 2188 4609 
Q 2384 4609 2523 4746 
Q 2663 4884 2663 5081 
z
M 2188 4044 
L 1338 1722 
L 3041 1722 
L 2188 4044 
z
M 1716 4366 
Q 1525 4494 1428 4673 
Q 1331 4853 1331 5081 
Q 1331 5441 1579 5691 
Q 1828 5941 2188 5941 
Q 2544 5941 2795 5689 
Q 3047 5438 3047 5081 
Q 3047 4863 2948 4678 
Q 2850 4494 2663 4366 
L 4325 0 
L 3669 0 
L 3244 1197 
L 1141 1197 
L 716 0 
L 50 0 
L 1716 4366 
z
" transform="scale(0.015625)"/>
       <path id="DejaVuSans-5d" d="M 1947 4863 
L 1947 -844 
L 622 -844 
L 622 -397 
L 1369 -397 
L 1369 4416 
L 622 4416 
L 622 4863 
L 1947 4863 
z
" transform="scale(0.015625)"/>
      </defs>
      <use xlink:href="#DejaVuSans-53"/>
      <use xlink:href="#DejaVuSans-45" x="63.476562"/>
      <use xlink:href="#DejaVuSans-52" x="126.660156"/>
      <use xlink:href="#DejaVuSans-32" x="196.142578"/>
      <use xlink:href="#DejaVuSans-30" x="259.765625"/>
      <use xlink:href="#DejaVuSans-35" x="323.388672"/>
      <use xlink:href="#DejaVuSans-20" x="387.011719"/>
      <use xlink:href="#DejaVuSans-4f" x="418.798828"/>
      <use xlink:href="#DejaVuSans-47" x="497.509766"/>
      <use xlink:href="#DejaVuSans-20" x="575"/>
      <use xlink:href="#DejaVuSans-2d" x="606.787109"/>
      <use xlink:href="#DejaVuSans-20" x="642.871094"/>
      <use xlink:href="#DejaVuSans-48" x="674.658203"/>
      <use xlink:href="#DejaVuSans-32" x="749.853516"/>
      <use xlink:href="#DejaVuSans-4f" x="813.476562"/>
      <use xlink:href="#DejaVuSans-20" x="892.1875"/>
      <use xlink:href="#DejaVuSans-48" x="923.974609"/>
      <use xlink:href="#DejaVuSans-20" x="999.169922"/>
      <use xlink:href="#DejaVuSans-44" x="1030.957031"/>
      <use xlink:href="#DejaVuSans-69" x="1107.958984"/>
      <use xlink:href="#DejaVuSans-73" x="1135.742188"/>
      <use xlink:href="#DejaVuSans-74" x="1187.841797"/>
      <use xlink:href="#DejaVuSans-61" x="1227.050781"/>
      <use xlink:href="#DejaVuSans-6e" x="1288.330078"/>
      <use xlink:href="#DejaVuSans-63" x="1351.708984"/>
      <use xlink:href="#DejaVuSans-65" x="1406.689453"/>
      <use xlink:href="#DejaVuSans-20" x="1468.212891"/>
      <use xlink:href="#DejaVuSans-5b" x="1500"/>
      <use xlink:href="#DejaVuSans-c5" x="1539.013672"/>
      <use xlink:href="#DejaVuSans-5d" x="1607.421875"/>
     </g>
    </g>
   </g>
   <g id="matplotlib.axis_2">
    <g id="ytick_1">
     <g id="line2d_11">
      <defs>
       <path id="mc7b9327204" d="M 0 0 
L -3.5 0 
" style="stroke: #000000; stroke-width: 0.8"/>
      </defs>
      <g>
       <use xlink:href="#mc7b9327204" x="46.64" y="302.8525" style="stroke: #000000; stroke-width: 0.8"/>
      </g>
     </g>
     <g id="text_9">
      <!-- −2 -->
      <g transform="translate(24.897813 306.651719) scale(0.1 -0.1)">
       <defs>
        <path id="DejaVuSans-2212" d="M 678 2272 
L 4684 2272 
L 4684 1741 
L 678 1741 
L 678 2272 
z
" transform="scale(0.015625)"/>
       </defs>
       <use xlink:href="#DejaVuSans-2212"/>
       <use xlink:href="#DejaVuSans-32" x="83.789062"/>
      </g>
     </g>
    </g>
    <g id="ytick_2">
     <g id="line2d_12">
      <g>
       <use xlink:href="#mc7b9327204" x="46.64" y="245.234" style="stroke: #000000; stroke-width: 0.8"/>
      </g>
     </g>
     <g id="text_10">
      <!-- −1 -->
      <g transform="translate(24.897813 249.033219) scale(0.1 -0.1)">
       <defs>
        <path id="DejaVuSans-31" d="M 794 531 
L 1825 531 
L 1825 4091 
L 703 3866 
L 703 4441 
L 1819 4666 
L 2450 4666 
L 2450 531 
L 3481 531 
L 3481 0 
L 794 0 
L 794 531 
z
" transform="scale(0.015625)"/>
       </defs>
       <use xlink:href="#DejaVuSans-2212"/>
       <use xlink:href="#DejaVuSans-31" x="83.789062"/>
      </g>
     </g>
    </g>
    <g id="ytick_3">
     <g id="line2d_13">
      <g>
       <use xlink:href="#mc7b9327204" x="46.64" y="187.6155" style="stroke: #000000; stroke-width: 0.8"/>
      </g>
     </g>
     <g id="text_11">
      <!-- 0 -->
      <g transform="translate(33.2775 191.414719) scale(0.1 -0.1)">
       <use xlink:href="#DejaVuSans-30"/>
      </g>
     </g>
    </g>
    <g id="ytick_4">
     <g id="line2d_14">
      <g>
       <use xlink:href="#mc7b9327204" x="46.64" y="129.997" style="stroke: #000000; stroke-width: 0.8"/>
      </g>
     </g>
     <g id="text_12">
      <!-- 1 -->
      <g transform="translate(33.2775 133.796219) scale(0.1 -0.1)">
       <use xlink:href="#DejaVuSans-31"/>
      </g>
     </g>
    </g>
    <g id="ytick_5">
     <g id="line2d_15">
      <g>
       <use xlink:href="#mc7b9327204" x="46.64" y="72.3785" style="stroke: #000000; stroke-width: 0.8"/>
      </g>
     </g>
     <g id="text_13">
      <!-- 2 -->
      <g transform="translate(33.2775 76.177719) scale(0.1 -0.1)">
       <use xlink:href="#DejaVuSans-32"/>
      </g>
     </g>
    </g>
    <g id="ytick_6">
     <g id="line2d_16">
      <g>
       <use xlink:href="#mc7b9327204" x="46.64" y="14.76" style="stroke: #000000; stroke-width: 0.8"/>
      </g>
     </g>
     <g id="text_14">
      <!-- 3 -->
      <g transform="translate(33.2775 18.559219) scale(0.1 -0.1)">
       <use xlink:href="#DejaVuSans-33"/>
      </g>
     </g>
    </g>
    <g id="text_15">
     <!-- PMF [kcal/mol] -->
     <g transform="translate(18.818125 195.602344) rotate(-90) scale(0.1 -0.1)">
      <defs>
       <path id="DejaVuSans-50" d="M 1259 4147 
L 1259 2394 
L 2053 2394 
Q 2494 2394 2734 2622 
Q 2975 2850 2975 3272 
Q 2975 3691 2734 3919 
Q 2494 4147 2053 4147 
L 1259 4147 
z
M 628 4666 
L 2053 4666 
Q 2838 4666 3239 4311 
Q 3641 3956 3641 3272 
Q 3641 2581 3239 2228 
Q 2838 1875 2053 1875 
L 1259 1875 
L 1259 0 
L 628 0 
L 628 4666 
z
" transform="scale(0.015625)"/>
       <path id="DejaVuSans-4d" d="M 628 4666 
L 1569 4666 
L 2759 1491 
L 3956 4666 
L 4897 4666 
L 4897 0 
L 4281 0 
L 4281 4097 
L 3078 897 
L 2444 897 
L 1241 4097 
L 1241 0 
L 628 0 
L 628 4666 
z
" transform="scale(0.015625)"/>
       <path id="DejaVuSans-46" d="M 628 4666 
L 3309 4666 
L 3309 4134 
L 1259 4134 
L 1259 2759 
L 3109 2759 
L 3109 2228 
L 1259 2228 
L 1259 0 
L 628 0 
L 628 4666 
z
" transform="scale(0.015625)"/>
       <path id="DejaVuSans-6b" d="M 581 4863 
L 1159 4863 
L 1159 1991 
L 2875 3500 
L 3609 3500 
L 1753 1863 
L 3688 0 
L 2938 0 
L 1159 1709 
L 1159 0 
L 581 0 
L 581 4863 
z
" transform="scale(0.015625)"/>
       <path id="DejaVuSans-6c" d="M 603 4863 
L 1178 4863 
L 1178 0 
L 603 0 
L 603 4863 
z
" transform="scale(0.015625)"/>
       <path id="DejaVuSans-2f" d="M 1625 4666 
L 2156 4666 
L 531 -594 
L 0 -594 
L 1625 4666 
z
" transform="scale(0.015625)"/>
       <path id="DejaVuSans-6d" d="M 3328 2828 
Q 3544 3216 3844 3400 
Q 4144 3584 4550 3584 
Q 5097 3584 5394 3201 
Q 5691 2819 5691 2113 
L 5691 0 
L 5113 0 
L 5113 2094 
Q 5113 2597 4934 2840 
Q 4756 3084 4391 3084 
Q 3944 3084 3684 2787 
Q 3425 2491 3425 1978 
L 3425 0 
L 2847 0 
L 2847 2094 
Q 2847 2600 2669 2842 
Q 2491 3084 2119 3084 
Q 1678 3084 1418 2786 
Q 1159 2488 1159 1978 
L 1159 0 
L 581 0 
L 581 3500 
L 1159 3500 
L 1159 2956 
Q 1356 3278 1631 3431 
Q 1906 3584 2284 3584 
Q 2666 3584 2933 3390 
Q 3200 3197 3328 2828 
z
" transform="scale(0.015625)"/>
       <path id="DejaVuSans-6f" d="M 1959 3097 
Q 1497 3097 1228 2736 
Q 959 2375 959 1747 
Q 959 1119 1226 758 
Q 1494 397 1959 397 
Q 2419 397 2687 759 
Q 2956 1122 2956 1747 
Q 2956 2369 2687 2733 
Q 2419 3097 1959 3097 
z
M 1959 3584 
Q 2709 3584 3137 3096 
Q 3566 2609 3566 1747 
Q 3566 888 3137 398 
Q 2709 -91 1959 -91 
Q 1206 -91 779 398 
Q 353 888 353 1747 
Q 353 2609 779 3096 
Q 1206 3584 1959 3584 
z
" transform="scale(0.015625)"/>
      </defs>
      <use xlink:href="#DejaVuSans-50"/>
      <use xlink:href="#DejaVuSans-4d" x="60.302734"/>
      <use xlink:href="#DejaVuSans-46" x="146.582031"/>
      <use xlink:href="#DejaVuSans-20" x="204.101562"/>
      <use xlink:href="#DejaVuSans-5b" x="235.888672"/>
      <use xlink:href="#DejaVuSans-6b" x="274.902344"/>
      <use xlink:href="#DejaVuSans-63" x="332.8125"/>
      <use xlink:href="#DejaVuSans-61" x="387.792969"/>
      <use xlink:href="#DejaVuSans-6c" x="449.072266"/>
      <use xlink:href="#DejaVuSans-2f" x="476.855469"/>
      <use xlink:href="#DejaVuSans-6d" x="510.546875"/>
      <use xlink:href="#DejaVuSans-6f" x="607.958984"/>
      <use xlink:href="#DejaVuSans-6c" x="669.140625"/>
      <use xlink:href="#DejaVuSans-5d" x="696.923828"/>
     </g>
    </g>
   </g>
   <g id="line2d_17">
    <path d="M 25.886208 -1 
L 27.412853 6.438836 
L 28.013701 8.472184 
L 28.61455 8.923164 
L 29.215398 7.543067 
L 29.816246 5.183674 
L 30.417095 3.519272 
L 31.017943 3.741516 
L 31.618791 5.61801 
L 32.820488 11.487164 
L 34.022185 18.058531 
L 34.623033 20.423817 
L 36.425578 24.997201 
L 37.026426 27.05414 
L 37.627275 28.497876 
L 38.228123 28.173914 
L 38.828971 25.356353 
L 40.631517 10.024437 
L 41.232365 10.039904 
L 41.833213 13.667138 
L 43.635758 29.89709 
L 44.236607 33.817724 
L 44.837455 35.263294 
L 45.438303 33.383588 
L 46.039152 28.022424 
L 47.240848 13.199146 
L 47.841697 11.033738 
L 48.442545 14.924613 
L 49.644242 27.912311 
L 50.24509 31.919415 
L 50.845938 33.154198 
L 51.446787 31.618242 
L 52.047635 27.64009 
L 53.249332 15.221497 
L 53.85018 9.142064 
L 54.451029 5.001572 
L 55.051877 3.318351 
L 55.652725 3.556473 
L 56.253574 5.047851 
L 57.45527 9.459759 
L 58.056119 10.594186 
L 59.257815 10.579482 
L 59.858664 12.345396 
L 61.661209 24.063372 
L 62.262057 25.041239 
L 62.862905 23.788858 
L 64.064602 19.314841 
L 64.66545 18.284819 
L 65.266299 17.755085 
L 65.867147 16.856007 
L 67.068844 14.227725 
L 67.669692 14.157473 
L 68.270541 15.383345 
L 68.871389 16.992937 
L 69.472237 17.709984 
L 70.073086 16.653671 
L 70.673934 13.552737 
L 72.476479 -0.234643 
L 73.077327 2.675417 
L 73.678176 12.262431 
L 74.879872 34.080199 
L 75.480721 40.91905 
L 76.081569 44.645623 
L 76.682417 46.217684 
L 77.283266 47.06728 
L 77.884114 48.427472 
L 79.686659 54.715554 
L 80.287508 56.182035 
L 80.888356 58.0671 
L 81.489204 61.367774 
L 82.090053 66.417245 
L 83.892598 84.800496 
L 85.094294 93.88567 
L 88.098536 111.867045 
L 90.501929 124.261821 
L 91.703626 132.477786 
L 93.506171 145.705288 
L 94.707868 152.804553 
L 96.510413 161.799281 
L 98.312958 170.832953 
L 100.115503 180.311621 
L 101.3172 185.631806 
L 105.523138 202.330377 
L 109.729077 218.451489 
L 113.935015 233.964981 
L 115.136712 237.258073 
L 118.140953 244.583759 
L 119.943498 248.276093 
L 121.145195 250.320499 
L 124.750285 255.534006 
L 125.351134 256.112838 
L 125.951982 256.459626 
L 126.55283 256.572748 
L 127.754527 256.316969 
L 129.557072 255.565773 
L 130.758769 254.845389 
L 131.960465 253.826715 
L 133.162162 252.406082 
L 134.363859 250.583481 
L 135.565556 248.407324 
L 136.767252 245.811403 
L 137.968949 242.751661 
L 139.771494 237.296469 
L 141.574039 231.899304 
L 142.775736 228.336845 
L 144.578281 222.041001 
L 148.183371 209.038958 
L 151.187613 197.695736 
L 155.393551 183.255633 
L 157.196096 175.982675 
L 158.397793 172.449506 
L 158.998641 170.766218 
L 159.599489 168.692177 
L 162.002883 158.693903 
L 162.603731 157.10768 
L 165.607973 150.51921 
L 166.80967 146.951183 
L 168.612215 140.830197 
L 169.213063 139.222278 
L 169.813911 138.086658 
L 171.616456 135.683189 
L 173.419002 132.346864 
L 174.01985 131.649608 
L 174.620698 131.474371 
L 175.221547 131.738632 
L 176.423243 132.563386 
L 177.024092 132.582148 
L 177.62494 132.141731 
L 178.826637 130.556906 
L 179.427485 130.046965 
L 180.028333 129.942077 
L 180.629182 130.145037 
L 181.23003 130.526668 
L 181.830878 131.08298 
L 182.431727 131.926941 
L 183.032575 133.133043 
L 184.83512 137.312024 
L 185.435968 138.263505 
L 186.036817 138.982057 
L 186.637665 139.524428 
L 187.238514 139.884066 
L 188.44021 140.400811 
L 189.041059 141.091902 
L 189.641907 142.301879 
L 191.444452 146.756646 
L 192.646149 149.337469 
L 193.246997 150.423095 
L 193.847845 151.092926 
L 194.448694 151.251142 
L 195.65039 150.99734 
L 196.251239 151.408421 
L 196.852087 152.477457 
L 199.25548 158.742123 
L 199.856329 159.47875 
L 201.058026 160.105958 
L 202.259722 160.913194 
L 203.461419 162.142848 
L 204.062267 163.031324 
L 205.263964 165.472332 
L 206.465661 167.958274 
L 208.268206 170.991503 
L 209.469902 172.585298 
L 210.671599 173.587798 
L 211.873296 174.567607 
L 213.074992 175.949545 
L 215.478386 179.388411 
L 216.079234 179.834533 
L 216.680083 179.981591 
L 217.881779 179.901095 
L 218.482628 180.004757 
L 219.083476 180.35777 
L 219.684324 181.016524 
L 220.285173 181.986484 
L 222.087718 185.417614 
L 222.688566 186.062316 
L 223.289414 186.322565 
L 223.890263 186.293909 
L 226.293656 185.533892 
L 226.894505 185.791196 
L 227.495353 186.39603 
L 229.898746 189.810489 
L 230.499595 190.140303 
L 231.100443 190.212676 
L 232.902988 189.994657 
L 234.104685 189.611434 
L 235.306381 188.859322 
L 237.709775 186.90634 
L 238.310623 186.810642 
L 238.911471 187.013606 
L 240.113168 187.816729 
L 240.714017 187.962999 
L 241.314865 187.74063 
L 243.11741 186.377253 
L 243.718258 186.270368 
L 244.919955 186.241232 
L 245.520803 186.067509 
L 249.125893 184.219335 
L 249.726742 183.7262 
L 250.928438 182.308264 
L 252.730983 179.787021 
L 253.331832 179.408361 
L 253.93268 179.397675 
L 255.134377 179.772692 
L 255.735225 179.821928 
L 256.336074 179.717184 
L 256.936922 179.47053 
L 257.53777 179.071167 
L 258.739467 177.80939 
L 259.941164 176.459847 
L 260.542012 176.016644 
L 261.14286 175.783802 
L 262.344557 175.611093 
L 262.945405 175.276011 
L 263.546254 174.537662 
L 264.74795 172.141697 
L 265.348799 170.955441 
L 265.949647 170.06639 
L 266.550495 169.5764 
L 267.151344 169.484758 
L 268.953889 170.044545 
L 269.554737 169.910431 
L 270.155586 169.524529 
L 273.159827 166.614764 
L 274.962372 164.605694 
L 275.563221 164.214062 
L 276.164069 164.134822 
L 277.966614 164.547864 
L 278.567462 164.503033 
L 280.370008 164.051111 
L 280.970856 163.982404 
L 281.571704 163.80054 
L 282.172553 163.323029 
L 282.773401 162.490258 
L 283.975098 160.473147 
L 284.575946 159.816887 
L 285.176794 159.547662 
L 286.979339 159.67949 
L 287.580188 159.448046 
L 289.983581 157.676132 
L 290.584429 157.534711 
L 291.185278 157.537407 
L 292.987823 157.970971 
L 293.588671 157.871508 
L 294.18952 157.446068 
L 294.790368 156.692496 
L 296.592913 153.985549 
L 297.193761 153.633654 
L 297.79461 153.684867 
L 299.597155 154.489118 
L 300.198003 154.503345 
L 300.798851 154.298006 
L 302.000548 153.347224 
L 305.00479 150.539062 
L 305.605638 150.749692 
L 306.206486 151.587534 
L 307.408183 153.766594 
L 308.009032 154.271121 
L 308.60988 154.223169 
L 309.811577 153.346167 
L 311.013273 152.425195 
L 311.614122 152.092905 
L 312.21497 152.099359 
L 312.815818 152.58456 
L 314.017515 154.070653 
L 314.618363 154.298248 
L 315.219212 154.029597 
L 316.420908 153.186892 
L 317.021757 153.059709 
L 318.223453 153.138234 
L 318.824302 153.254129 
L 319.42515 153.490697 
L 320.025998 153.906728 
L 321.828544 155.519568 
L 322.429392 155.580033 
L 323.03024 155.245335 
L 324.231937 153.842259 
L 325.433634 152.500176 
L 326.034482 152.116497 
L 326.63533 151.949384 
L 327.837027 151.990099 
L 330.24042 152.091676 
L 330.841269 152.100989 
L 331.442117 152.282406 
L 332.042965 152.818074 
L 333.244662 154.6292 
L 333.845511 155.214976 
L 334.446359 155.147521 
L 335.047207 154.388065 
L 336.248904 152.145267 
L 336.849752 151.579741 
L 337.450601 151.592236 
L 338.051449 151.88146 
L 338.652297 152.002317 
L 339.253146 151.615525 
L 339.853994 150.639126 
L 341.656539 146.558284 
L 342.257387 145.574701 
L 342.858236 144.942815 
L 343.459084 144.793238 
L 344.059932 145.17045 
L 345.261629 146.402589 
L 345.862477 146.550787 
L 346.463326 146.294244 
L 347.665023 145.442273 
L 348.265871 145.201268 
L 348.866719 145.14595 
L 350.669264 145.358293 
L 351.270113 145.19621 
L 351.870961 144.710309 
L 352.471809 143.832424 
L 353.673506 141.61731 
L 354.274354 141.016536 
L 354.875203 140.97976 
L 355.476051 141.165862 
L 356.076899 141.044309 
L 356.677748 140.32322 
L 357.879444 138.198327 
L 358.480293 137.80167 
L 359.081141 138.017626 
L 360.282838 138.994248 
L 362.085383 139.967909 
L 363.28708 140.537568 
L 363.887928 140.606479 
L 364.488776 140.447555 
L 365.089625 140.060317 
L 365.690473 139.430031 
L 366.291321 138.536405 
L 368.694715 134.130299 
L 369.896411 132.541925 
L 370.49726 132.072078 
L 371.098108 131.90638 
L 372.900653 132.18535 
L 373.501502 131.917794 
L 374.10235 131.332551 
L 375.304047 129.837153 
L 375.904895 129.403272 
L 376.505743 129.370861 
L 377.70744 130.041446 
L 378.308288 130.357831 
L 378.909137 130.467162 
L 379.509985 130.261418 
L 381.31253 128.725586 
L 382.514227 128.604772 
L 383.115075 128.181771 
L 384.91762 125.624973 
L 385.518468 125.363222 
L 386.720165 125.451497 
L 387.321014 125.302046 
L 387.921862 124.867065 
L 389.123559 123.430575 
L 390.325255 122.056434 
L 392.1278 120.742452 
L 392.728649 119.894332 
L 394.531194 116.324837 
L 395.132042 116.205025 
L 395.73289 116.884757 
L 397.535435 120.663102 
L 398.136284 121.376161 
L 398.737132 121.437714 
L 399.33798 120.867658 
L 400.539677 119.14972 
L 401.140526 118.953014 
L 401.741374 119.437497 
L 402.943071 121.070473 
L 403.543919 121.481556 
L 404.144767 121.359578 
L 404.745616 120.66106 
L 405.346464 119.48017 
L 406.548161 116.657835 
L 407.149009 115.488843 
L 407.749857 114.604502 
L 408.350706 114.026049 
L 408.951554 113.846772 
L 409.552402 114.220679 
L 410.153251 115.203623 
L 411.354947 117.927968 
L 411.955796 118.805562 
L 412.556644 119.120389 
L 413.157492 119.186987 
L 413.758341 119.473915 
L 414.960038 120.881026 
L 415.560886 121.217966 
L 416.161734 120.955053 
L 417.964279 118.906477 
L 418.565128 118.507343 
L 419.766824 118.106896 
L 421.569369 117.738386 
L 422.170218 117.869201 
L 422.771066 118.405908 
L 423.972763 120.090568 
L 424.573611 120.517819 
L 425.174459 120.433133 
L 426.376156 119.741913 
L 426.977005 119.785559 
L 428.178701 120.325867 
L 428.77955 120.070436 
L 429.380398 119.199946 
L 430.582095 116.58797 
L 431.182943 115.765909 
L 431.783791 115.720061 
L 432.38464 116.379758 
L 434.187185 119.36104 
L 434.788033 119.879538 
L 435.98973 120.521937 
L 436.590578 121.217652 
L 438.393123 124.118606 
L 438.993971 124.630812 
L 439.59482 124.789134 
L 440.195668 124.558133 
L 440.796517 123.957566 
L 443.19991 120.655009 
L 443.800758 120.123742 
L 444.401607 119.785796 
L 445.002455 119.59434 
L 445.603303 119.531123 
L 446.204152 119.6318 
L 447.405848 120.234362 
L 449.208393 121.07986 
L 449.809242 121.288916 
L 450.41009 121.330256 
L 451.010938 121.117409 
L 451.611787 120.752555 
L 452.212635 120.551059 
L 452.813483 120.841895 
L 453.414332 121.680843 
L 454.616029 123.707807 
L 455.216877 124.150282 
L 455.817725 124.016159 
L 458.221119 121.954184 
L 459.422815 121.633074 
L 460.023664 121.682625 
L 461.8 122.121764 
L 461.8 122.121764 
" clip-path="url(#p8e3bc03646)" style="fill: none; stroke: #f99752; stroke-width: 2.5; stroke-linecap: square"/>
   </g>
   <g id="patch_3">
    <path d="M 46.64 302.8525 
L 46.64 14.76 
" style="fill: none; stroke: #000000; stroke-width: 0.8; stroke-linejoin: miter; stroke-linecap: square"/>
   </g>
   <g id="patch_4">
    <path d="M 446.805 302.8525 
L 446.805 14.76 
" style="fill: none; stroke: #000000; stroke-width: 0.8; stroke-linejoin: miter; stroke-linecap: square"/>
   </g>
   <g id="patch_5">
    <path d="M 46.64 302.8525 
L 446.805 302.8525 
" style="fill: none; stroke: #000000; stroke-width: 0.8; stroke-linejoin: miter; stroke-linecap: square"/>
   </g>
   <g id="patch_6">
    <path d="M 46.64 14.76 
L 446.805 14.76 
" style="fill: none; stroke: #000000; stroke-width: 0.8; stroke-linejoin: miter; stroke-linecap: square"/>
   </g>
   <g id="legend_1">
    <g id="patch_7">
     <path d="M 364.359688 297.8525 
L 439.805 297.8525 
Q 441.805 297.8525 441.805 295.8525 
L 441.805 252.818125 
Q 441.805 250.818125 439.805 250.818125 
L 364.359688 250.818125 
Q 362.359688 250.818125 362.359688 252.818125 
L 362.359688 295.8525 
Q 362.359688 297.8525 364.359688 297.8525 
z
" style="fill: #ffffff; opacity: 0.8; stroke: #cccccc; stroke-linejoin: miter"/>
    </g>
    <g id="line2d_18">
     <path d="M 366.359688 258.916562 
L 376.359688 258.916562 
L 386.359688 258.916562 
" style="fill: none; stroke: #1e2e79; stroke-width: 2.5; stroke-linecap: square"/>
    </g>
    <g id="text_16">
     <!-- Reduced -->
     <g transform="translate(394.359688 262.416562) scale(0.1 -0.1)">
      <defs>
       <path id="DejaVuSans-64" d="M 2906 2969 
L 2906 4863 
L 3481 4863 
L 3481 0 
L 2906 0 
L 2906 525 
Q 2725 213 2448 61 
Q 2172 -91 1784 -91 
Q 1150 -91 751 415 
Q 353 922 353 1747 
Q 353 2572 751 3078 
Q 1150 3584 1784 3584 
Q 2172 3584 2448 3432 
Q 2725 3281 2906 2969 
z
M 947 1747 
Q 947 1113 1208 752 
Q 1469 391 1925 391 
Q 2381 391 2643 752 
Q 2906 1113 2906 1747 
Q 2906 2381 2643 2742 
Q 2381 3103 1925 3103 
Q 1469 3103 1208 2742 
Q 947 2381 947 1747 
z
" transform="scale(0.015625)"/>
       <path id="DejaVuSans-75" d="M 544 1381 
L 544 3500 
L 1119 3500 
L 1119 1403 
Q 1119 906 1312 657 
Q 1506 409 1894 409 
Q 2359 409 2629 706 
Q 2900 1003 2900 1516 
L 2900 3500 
L 3475 3500 
L 3475 0 
L 2900 0 
L 2900 538 
Q 2691 219 2414 64 
Q 2138 -91 1772 -91 
Q 1169 -91 856 284 
Q 544 659 544 1381 
z
M 1991 3584 
L 1991 3584 
z
" transform="scale(0.015625)"/>
      </defs>
      <use xlink:href="#DejaVuSans-52"/>
      <use xlink:href="#DejaVuSans-65" x="64.982422"/>
      <use xlink:href="#DejaVuSans-64" x="126.505859"/>
      <use xlink:href="#DejaVuSans-75" x="189.982422"/>
      <use xlink:href="#DejaVuSans-63" x="253.361328"/>
      <use xlink:href="#DejaVuSans-65" x="308.341797"/>
      <use xlink:href="#DejaVuSans-64" x="369.865234"/>
     </g>
    </g>
    <g id="line2d_19">
     <path d="M 366.359688 273.594687 
L 376.359688 273.594687 
L 386.359688 273.594687 
" style="fill: none; stroke: #ec4067; stroke-width: 2.5; stroke-linecap: square"/>
    </g>
    <g id="text_17">
     <!-- Oxidized -->
     <g transform="translate(394.359688 277.094687) scale(0.1 -0.1)">
      <defs>
       <path id="DejaVuSans-78" d="M 3513 3500 
L 2247 1797 
L 3578 0 
L 2900 0 
L 1881 1375 
L 863 0 
L 184 0 
L 1544 1831 
L 300 3500 
L 978 3500 
L 1906 2253 
L 2834 3500 
L 3513 3500 
z
" transform="scale(0.015625)"/>
       <path id="DejaVuSans-7a" d="M 353 3500 
L 3084 3500 
L 3084 2975 
L 922 459 
L 3084 459 
L 3084 0 
L 275 0 
L 275 525 
L 2438 3041 
L 353 3041 
L 353 3500 
z
" transform="scale(0.015625)"/>
      </defs>
      <use xlink:href="#DejaVuSans-4f"/>
      <use xlink:href="#DejaVuSans-78" x="78.710938"/>
      <use xlink:href="#DejaVuSans-69" x="137.890625"/>
      <use xlink:href="#DejaVuSans-64" x="165.673828"/>
      <use xlink:href="#DejaVuSans-69" x="229.150391"/>
      <use xlink:href="#DejaVuSans-7a" x="256.933594"/>
      <use xlink:href="#DejaVuSans-65" x="309.423828"/>
      <use xlink:href="#DejaVuSans-64" x="370.947266"/>
     </g>
    </g>
    <g id="line2d_20">
     <path d="M 366.359688 288.272812 
L 376.359688 288.272812 
L 386.359688 288.272812 
" style="fill: none; stroke: #f99752; stroke-width: 2.5; stroke-linecap: square"/>
    </g>
    <g id="text_18">
     <!-- Cu$^{+}$ -->
     <g transform="translate(394.359688 291.772812) scale(0.1 -0.1)">
      <defs>
       <path id="DejaVuSans-43" d="M 4122 4306 
L 4122 3641 
Q 3803 3938 3442 4084 
Q 3081 4231 2675 4231 
Q 1875 4231 1450 3742 
Q 1025 3253 1025 2328 
Q 1025 1406 1450 917 
Q 1875 428 2675 428 
Q 3081 428 3442 575 
Q 3803 722 4122 1019 
L 4122 359 
Q 3791 134 3420 21 
Q 3050 -91 2638 -91 
Q 1578 -91 968 557 
Q 359 1206 359 2328 
Q 359 3453 968 4101 
Q 1578 4750 2638 4750 
Q 3056 4750 3426 4639 
Q 3797 4528 4122 4306 
z
" transform="scale(0.015625)"/>
       <path id="DejaVuSans-2b" d="M 2944 4013 
L 2944 2272 
L 4684 2272 
L 4684 1741 
L 2944 1741 
L 2944 0 
L 2419 0 
L 2419 1741 
L 678 1741 
L 678 2272 
L 2419 2272 
L 2419 4013 
L 2944 4013 
z
" transform="scale(0.015625)"/>
      </defs>
      <use xlink:href="#DejaVuSans-43" transform="translate(0 0.826562)"/>
      <use xlink:href="#DejaVuSans-75" transform="translate(69.824219 0.826562)"/>
      <use xlink:href="#DejaVuSans-2b" transform="translate(134.160156 39.107812) scale(0.7)"/>
     </g>
    </g>
   </g>
  </g>
 </g>
 <defs>
  <clipPath id="p8e3bc03646">
   <rect x="46.64" y="14.76" width="400.165" height="288.0925"/>
  </clipPath>
 </defs>
</svg>
