<?xml version="1.0" encoding="utf-8" standalone="no"?>
<!DOCTYPE svg PUBLIC "-//W3C//DTD SVG 1.1//EN"
  "http://www.w3.org/Graphics/SVG/1.1/DTD/svg11.dtd">
<svg xmlns:xlink="http://www.w3.org/1999/xlink" width="460.8pt" height="345.6pt" viewBox="0 0 460.8 345.6" xmlns="http://www.w3.org/2000/svg" version="1.1">
 <metadata>
  <rdf:RDF xmlns:dc="http://purl.org/dc/elements/1.1/" xmlns:cc="http://creativecommons.org/ns#" xmlns:rdf="http://www.w3.org/1999/02/22-rdf-syntax-ns#">
   <cc:Work>
    <dc:type rdf:resource="http://purl.org/dc/dcmitype/StillImage"/>
    <dc:date>2024-06-21T00:00:49.710212</dc:date>
    <dc:format>image/svg+xml</dc:format>
    <dc:creator>
     <cc:Agent>
      <dc:title>Matplotlib v3.8.4, https://matplotlib.org/</dc:title>
     </cc:Agent>
    </dc:creator>
   </cc:Work>
  </rdf:RDF>
 </metadata>
 <defs>
  <style type="text/css">*{stroke-linejoin: round; stroke-linecap: butt}</style>
 </defs>
 <g id="figure_1">
  <g id="patch_1">
   <path d="M 0 345.6 
L 460.8 345.6 
L 460.8 0 
L 0 0 
z
" style="fill: #ffffff"/>
  </g>
  <g id="axes_1">
   <g id="patch_2">
    <path d="M 46.64 302.8525 
L 446.805 302.8525 
L 446.805 14.76 
L 46.64 14.76 
z
" style="fill: #ffffff"/>
   </g>
   <g id="line2d_1">
    <path d="M 46.64 187.6155 
L 446.805 187.6155 
" clip-path="url(#p0b37393bbd)" style="fill: none; stroke-dasharray: 1.75,2.8875; stroke-dashoffset: 0; stroke: #c0c0c0; stroke-width: 1.75"/>
   </g>
   <g id="line2d_2">
    <path d="M 72.674879 -1 
L 75.480721 19.148433 
L 86.896839 102.838587 
L 90.501929 127.185035 
L 93.506171 145.857902 
L 96.510413 162.955606 
L 99.514655 178.580956 
L 102.518896 192.832137 
L 104.92229 203.241857 
L 107.325683 212.734602 
L 109.729077 221.284026 
L 112.13247 228.883939 
L 113.935015 233.962092 
L 115.73756 238.504197 
L 117.540105 242.499917 
L 119.34265 245.932051 
L 121.145195 248.779407 
L 122.346892 250.342136 
L 123.548589 251.629782 
L 124.750285 252.637645 
L 125.951982 253.36211 
L 127.153679 253.800718 
L 128.355375 253.952183 
L 129.557072 253.816414 
L 130.758769 253.394564 
L 131.960465 252.689111 
L 133.162162 251.703957 
L 134.363859 250.444506 
L 135.565556 248.917687 
L 137.368101 246.144882 
L 139.170646 242.823425 
L 140.973191 238.992116 
L 142.775736 234.693329 
L 145.179129 228.312929 
L 147.582523 221.297412 
L 150.586764 211.826231 
L 154.792703 197.7223 
L 162.002883 173.421009 
L 164.406276 166.0617 
L 166.80967 159.449262 
L 168.612215 155.058136 
L 170.41476 151.155787 
L 172.217305 147.70151 
L 174.01985 144.642436 
L 175.822395 141.945389 
L 177.62494 139.618591 
L 179.427485 137.711556 
L 180.629182 136.707198 
L 181.830878 135.937506 
L 183.032575 135.412997 
L 184.234272 135.135252 
L 185.435968 135.097554 
L 186.637665 135.287606 
L 187.839362 135.691196 
L 189.041059 136.295493 
L 190.242755 137.09091 
L 192.0453 138.629029 
L 193.847845 140.566236 
L 195.65039 142.875614 
L 198.053784 146.445552 
L 201.058026 151.447525 
L 209.469902 165.82544 
L 212.474144 170.37475 
L 215.478386 174.458014 
L 217.881779 177.374565 
L 220.285173 179.94653 
L 222.087718 181.617879 
L 223.890263 183.047327 
L 225.692808 184.231518 
L 227.495353 185.187368 
L 229.898746 186.165535 
L 232.30214 186.883537 
L 234.705533 187.383647 
L 237.108926 187.640136 
L 238.911471 187.634201 
L 240.714017 187.435003 
L 242.516562 187.044533 
L 244.919955 186.280988 
L 255.735225 182.394743 
L 262.344557 180.524872 
L 265.949647 179.719865 
L 268.953889 179.281616 
L 271.357282 179.11849 
L 273.760676 179.148825 
L 276.164069 179.407992 
L 278.567462 179.929363 
L 280.970856 180.716177 
L 283.975098 181.99268 
L 291.185278 185.221982 
L 294.18952 186.25692 
L 297.193761 187.062974 
L 300.198003 187.627599 
L 302.601396 187.859919 
L 305.00479 187.850404 
L 307.408183 187.582763 
L 309.811577 187.086696 
L 313.416667 186.059025 
L 317.622605 184.599333 
L 320.626847 183.304448 
L 323.03024 182.030036 
L 325.433634 180.527882 
L 328.437875 178.388245 
L 333.244662 174.629667 
L 339.853994 169.452937 
L 342.858236 167.340609 
L 345.261629 165.860968 
L 347.665023 164.612083 
L 350.669264 163.350112 
L 358.480293 160.306116 
L 362.686231 158.293145 
L 366.291321 156.348399 
L 369.896411 154.130968 
L 373.501502 151.946072 
L 375.304047 151.059971 
L 377.106592 150.379522 
L 379.509985 149.757814 
L 384.91762 148.581895 
L 387.321014 147.709641 
L 389.724407 146.552774 
L 396.333739 143.079409 
L 398.737132 142.179054 
L 401.140526 141.570899 
L 403.543919 141.199088 
L 412.556644 140.096322 
L 416.161734 139.233396 
L 419.766824 138.405424 
L 421.569369 138.176407 
L 423.371914 138.124387 
L 425.775308 138.27551 
L 429.380398 138.535769 
L 431.182943 138.480412 
L 433.586336 138.140789 
L 440.796517 136.734199 
L 442.599062 136.71671 
L 444.401607 136.905066 
L 446.805 137.420544 
L 453.414332 139.126088 
L 455.216877 139.342377 
L 457.019422 139.386539 
L 459.422815 139.212606 
L 461.8 138.887259 
L 461.8 138.887259 
" clip-path="url(#p0b37393bbd)" style="fill: none; stroke: #1e2e79; stroke-width: 2.5; stroke-linecap: square"/>
   </g>
   <g id="line2d_3">
    <path d="M 74.124846 -1 
L 77.884114 33.683453 
L 81.489204 64.98318 
L 84.493446 89.388915 
L 87.497688 112.157895 
L 90.501929 133.252022 
L 93.506171 152.6854 
L 96.510413 170.491774 
L 98.913806 183.58698 
L 101.3172 195.673177 
L 103.720593 206.756768 
L 106.123986 216.837895 
L 108.52738 225.911767 
L 110.930773 233.972278 
L 112.733318 239.350288 
L 114.535863 244.155994 
L 116.338408 248.390044 
L 118.140953 252.05296 
L 119.943498 255.14417 
L 121.746044 257.661394 
L 122.94774 259.018789 
L 124.149437 260.117997 
L 125.351134 260.957713 
L 126.55283 261.536958 
L 127.754527 261.855352 
L 128.956224 261.913358 
L 130.15792 261.71249 
L 131.359617 261.255424 
L 132.561314 260.54602 
L 133.763011 259.589243 
L 134.964707 258.390993 
L 136.166404 256.957887 
L 137.968949 254.383502 
L 139.771494 251.321902 
L 141.574039 247.799481 
L 143.376584 243.845015 
L 145.779977 237.959599 
L 148.183371 231.469262 
L 151.187613 222.70925 
L 155.994399 207.888744 
L 165.607973 178.189658 
L 169.213063 167.680595 
L 172.217305 159.491378 
L 175.221547 151.91422 
L 178.826637 143.53129 
L 183.032575 134.382092 
L 186.637665 126.95878 
L 189.641907 121.25872 
L 192.0453 117.222161 
L 193.847845 114.609798 
L 195.65039 112.438095 
L 196.852087 111.278255 
L 198.053784 110.383574 
L 199.25548 109.787068 
L 200.457177 109.522744 
L 201.658874 109.622526 
L 202.860571 110.112249 
L 204.062267 111.007463 
L 205.263964 112.309985 
L 206.465661 114.006047 
L 207.667357 116.066608 
L 209.469902 119.74686 
L 211.272447 123.978648 
L 214.276689 131.782629 
L 222.087718 153.213785 
L 226.293656 164.419899 
L 229.297898 171.9075 
L 232.30214 178.767029 
L 234.705533 183.761557 
L 237.108926 188.333786 
L 239.51232 192.510851 
L 241.915713 196.305999 
L 244.319107 199.713178 
L 246.7225 202.719031 
L 249.125893 205.318591 
L 251.529287 207.521283 
L 253.93268 209.344612 
L 255.735225 210.472343 
L 257.53777 211.398168 
L 259.340315 212.122601 
L 261.14286 212.645338 
L 262.945405 212.967266 
L 264.74795 213.091923 
L 266.550495 213.025876 
L 268.353041 212.777871 
L 270.756434 212.179725 
L 273.159827 211.290208 
L 275.563221 210.114241 
L 277.966614 208.646692 
L 280.370008 206.880969 
L 282.773401 204.820621 
L 285.176794 202.48699 
L 288.181036 199.244015 
L 291.786126 194.984782 
L 295.992065 189.628451 
L 300.198003 183.881016 
L 304.403941 177.729467 
L 313.416667 164.306814 
L 316.420908 160.356848 
L 320.025998 156.056047 
L 325.433634 150.044165 
L 335.047207 139.639375 
L 343.459084 130.616447 
L 349.467568 124.061369 
L 353.072658 120.475195 
L 359.681989 114.051695 
L 362.686231 110.708822 
L 366.291321 106.253413 
L 369.896411 101.781794 
L 372.299805 99.144828 
L 374.703198 96.90126 
L 377.70744 94.486704 
L 383.115075 90.185506 
L 390.926104 83.569579 
L 392.728649 81.813675 
L 394.531194 79.789935 
L 396.333739 77.440931 
L 398.737132 73.827079 
L 407.149009 60.34362 
L 414.359189 49.869385 
L 416.161734 46.747792 
L 417.964279 43.2736 
L 420.367673 38.107696 
L 427.577853 21.727168 
L 429.380398 18.53111 
L 430.582095 16.803302 
L 431.783791 15.417645 
L 432.985488 14.363847 
L 434.187185 13.611864 
L 435.388881 13.119557 
L 436.590578 12.841282 
L 438.393123 12.735738 
L 440.195668 12.91389 
L 441.998213 13.312246 
L 444.401607 14.113588 
L 447.405848 15.393372 
L 452.813483 17.977943 
L 454.616029 19.036849 
L 456.418574 20.358887 
L 458.221119 22.027902 
L 460.023664 24.051809 
L 461.8 26.31065 
L 461.8 26.31065 
" clip-path="url(#p0b37393bbd)" style="fill: none; stroke: #ec4067; stroke-width: 2.5; stroke-linecap: square"/>
   </g>
   <g id="matplotlib.axis_1">
    <g id="xtick_1">
     <g id="line2d_4">
      <defs>
       <path id="m2e6bb689e3" d="M 0 0 
L 0 3.5 
" style="stroke: #000000; stroke-width: 0.8"/>
      </defs>
      <g>
       <use xlink:href="#m2e6bb689e3" x="46.64" y="302.8525" style="stroke: #000000; stroke-width: 0.8"/>
      </g>
     </g>
     <g id="text_1">
      <!-- 2 -->
      <g transform="translate(43.45875 317.450937) scale(0.1 -0.1)">
       <defs>
        <path id="DejaVuSans-32" d="M 1228 531 
L 3431 531 
L 3431 0 
L 469 0 
L 469 531 
Q 828 903 1448 1529 
Q 2069 2156 2228 2338 
Q 2531 2678 2651 2914 
Q 2772 3150 2772 3378 
Q 2772 3750 2511 3984 
Q 2250 4219 1831 4219 
Q 1534 4219 1204 4116 
Q 875 4013 500 3803 
L 500 4441 
Q 881 4594 1212 4672 
Q 1544 4750 1819 4750 
Q 2544 4750 2975 4387 
Q 3406 4025 3406 3419 
Q 3406 3131 3298 2873 
Q 3191 2616 2906 2266 
Q 2828 2175 2409 1742 
Q 1991 1309 1228 531 
z
" transform="scale(0.015625)"/>
       </defs>
       <use xlink:href="#DejaVuSans-32"/>
      </g>
     </g>
    </g>
    <g id="xtick_2">
     <g id="line2d_5">
      <g>
       <use xlink:href="#m2e6bb689e3" x="113.334167" y="302.8525" style="stroke: #000000; stroke-width: 0.8"/>
      </g>
     </g>
     <g id="text_2">
      <!-- 3 -->
      <g transform="translate(110.152917 317.450937) scale(0.1 -0.1)">
       <defs>
        <path id="DejaVuSans-33" d="M 2597 2516 
Q 3050 2419 3304 2112 
Q 3559 1806 3559 1356 
Q 3559 666 3084 287 
Q 2609 -91 1734 -91 
Q 1441 -91 1130 -33 
Q 819 25 488 141 
L 488 750 
Q 750 597 1062 519 
Q 1375 441 1716 441 
Q 2309 441 2620 675 
Q 2931 909 2931 1356 
Q 2931 1769 2642 2001 
Q 2353 2234 1838 2234 
L 1294 2234 
L 1294 2753 
L 1863 2753 
Q 2328 2753 2575 2939 
Q 2822 3125 2822 3475 
Q 2822 3834 2567 4026 
Q 2313 4219 1838 4219 
Q 1578 4219 1281 4162 
Q 984 4106 628 3988 
L 628 4550 
Q 988 4650 1302 4700 
Q 1616 4750 1894 4750 
Q 2613 4750 3031 4423 
Q 3450 4097 3450 3541 
Q 3450 3153 3228 2886 
Q 3006 2619 2597 2516 
z
" transform="scale(0.015625)"/>
       </defs>
       <use xlink:href="#DejaVuSans-33"/>
      </g>
     </g>
    </g>
    <g id="xtick_3">
     <g id="line2d_6">
      <g>
       <use xlink:href="#m2e6bb689e3" x="180.028333" y="302.8525" style="stroke: #000000; stroke-width: 0.8"/>
      </g>
     </g>
     <g id="text_3">
      <!-- 4 -->
      <g transform="translate(176.847083 317.450937) scale(0.1 -0.1)">
       <defs>
        <path id="DejaVuSans-34" d="M 2419 4116 
L 825 1625 
L 2419 1625 
L 2419 4116 
z
M 2253 4666 
L 3047 4666 
L 3047 1625 
L 3713 1625 
L 3713 1100 
L 3047 1100 
L 3047 0 
L 2419 0 
L 2419 1100 
L 313 1100 
L 313 1709 
L 2253 4666 
z
" transform="scale(0.015625)"/>
       </defs>
       <use xlink:href="#DejaVuSans-34"/>
      </g>
     </g>
    </g>
    <g id="xtick_4">
     <g id="line2d_7">
      <g>
       <use xlink:href="#m2e6bb689e3" x="246.7225" y="302.8525" style="stroke: #000000; stroke-width: 0.8"/>
      </g>
     </g>
     <g id="text_4">
      <!-- 5 -->
      <g transform="translate(243.54125 317.450937) scale(0.1 -0.1)">
       <defs>
        <path id="DejaVuSans-35" d="M 691 4666 
L 3169 4666 
L 3169 4134 
L 1269 4134 
L 1269 2991 
Q 1406 3038 1543 3061 
Q 1681 3084 1819 3084 
Q 2600 3084 3056 2656 
Q 3513 2228 3513 1497 
Q 3513 744 3044 326 
Q 2575 -91 1722 -91 
Q 1428 -91 1123 -41 
Q 819 9 494 109 
L 494 744 
Q 775 591 1075 516 
Q 1375 441 1709 441 
Q 2250 441 2565 725 
Q 2881 1009 2881 1497 
Q 2881 1984 2565 2268 
Q 2250 2553 1709 2553 
Q 1456 2553 1204 2497 
Q 953 2441 691 2322 
L 691 4666 
z
" transform="scale(0.015625)"/>
       </defs>
       <use xlink:href="#DejaVuSans-35"/>
      </g>
     </g>
    </g>
    <g id="xtick_5">
     <g id="line2d_8">
      <g>
       <use xlink:href="#m2e6bb689e3" x="313.416667" y="302.8525" style="stroke: #000000; stroke-width: 0.8"/>
      </g>
     </g>
     <g id="text_5">
      <!-- 6 -->
      <g transform="translate(310.235417 317.450937) scale(0.1 -0.1)">
       <defs>
        <path id="DejaVuSans-36" d="M 2113 2584 
Q 1688 2584 1439 2293 
Q 1191 2003 1191 1497 
Q 1191 994 1439 701 
Q 1688 409 2113 409 
Q 2538 409 2786 701 
Q 3034 994 3034 1497 
Q 3034 2003 2786 2293 
Q 2538 2584 2113 2584 
z
M 3366 4563 
L 3366 3988 
Q 3128 4100 2886 4159 
Q 2644 4219 2406 4219 
Q 1781 4219 1451 3797 
Q 1122 3375 1075 2522 
Q 1259 2794 1537 2939 
Q 1816 3084 2150 3084 
Q 2853 3084 3261 2657 
Q 3669 2231 3669 1497 
Q 3669 778 3244 343 
Q 2819 -91 2113 -91 
Q 1303 -91 875 529 
Q 447 1150 447 2328 
Q 447 3434 972 4092 
Q 1497 4750 2381 4750 
Q 2619 4750 2861 4703 
Q 3103 4656 3366 4563 
z
" transform="scale(0.015625)"/>
       </defs>
       <use xlink:href="#DejaVuSans-36"/>
      </g>
     </g>
    </g>
    <g id="xtick_6">
     <g id="line2d_9">
      <g>
       <use xlink:href="#m2e6bb689e3" x="380.110833" y="302.8525" style="stroke: #000000; stroke-width: 0.8"/>
      </g>
     </g>
     <g id="text_6">
      <!-- 7 -->
      <g transform="translate(376.929583 317.450937) scale(0.1 -0.1)">
       <defs>
        <path id="DejaVuSans-37" d="M 525 4666 
L 3525 4666 
L 3525 4397 
L 1831 0 
L 1172 0 
L 2766 4134 
L 525 4134 
L 525 4666 
z
" transform="scale(0.015625)"/>
       </defs>
       <use xlink:href="#DejaVuSans-37"/>
      </g>
     </g>
    </g>
    <g id="xtick_7">
     <g id="line2d_10">
      <g>
       <use xlink:href="#m2e6bb689e3" x="446.805" y="302.8525" style="stroke: #000000; stroke-width: 0.8"/>
      </g>
     </g>
     <g id="text_7">
      <!-- 8 -->
      <g transform="translate(443.62375 317.450937) scale(0.1 -0.1)">
       <defs>
        <path id="DejaVuSans-38" d="M 2034 2216 
Q 1584 2216 1326 1975 
Q 1069 1734 1069 1313 
Q 1069 891 1326 650 
Q 1584 409 2034 409 
Q 2484 409 2743 651 
Q 3003 894 3003 1313 
Q 3003 1734 2745 1975 
Q 2488 2216 2034 2216 
z
M 1403 2484 
Q 997 2584 770 2862 
Q 544 3141 544 3541 
Q 544 4100 942 4425 
Q 1341 4750 2034 4750 
Q 2731 4750 3128 4425 
Q 3525 4100 3525 3541 
Q 3525 3141 3298 2862 
Q 3072 2584 2669 2484 
Q 3125 2378 3379 2068 
Q 3634 1759 3634 1313 
Q 3634 634 3220 271 
Q 2806 -91 2034 -91 
Q 1263 -91 848 271 
Q 434 634 434 1313 
Q 434 1759 690 2068 
Q 947 2378 1403 2484 
z
M 1172 3481 
Q 1172 3119 1398 2916 
Q 1625 2713 2034 2713 
Q 2441 2713 2670 2916 
Q 2900 3119 2900 3481 
Q 2900 3844 2670 4047 
Q 2441 4250 2034 4250 
Q 1625 4250 1398 4047 
Q 1172 3844 1172 3481 
z
" transform="scale(0.015625)"/>
       </defs>
       <use xlink:href="#DejaVuSans-38"/>
      </g>
     </g>
    </g>
    <g id="text_8">
     <!-- SER205 OG - H2O H Distance [Å] -->
     <g transform="translate(164.400625 332.0525) scale(0.1 -0.1)">
      <defs>
       <path id="DejaVuSans-53" d="M 3425 4513 
L 3425 3897 
Q 3066 4069 2747 4153 
Q 2428 4238 2131 4238 
Q 1616 4238 1336 4038 
Q 1056 3838 1056 3469 
Q 1056 3159 1242 3001 
Q 1428 2844 1947 2747 
L 2328 2669 
Q 3034 2534 3370 2195 
Q 3706 1856 3706 1288 
Q 3706 609 3251 259 
Q 2797 -91 1919 -91 
Q 1588 -91 1214 -16 
Q 841 59 441 206 
L 441 856 
Q 825 641 1194 531 
Q 1563 422 1919 422 
Q 2459 422 2753 634 
Q 3047 847 3047 1241 
Q 3047 1584 2836 1778 
Q 2625 1972 2144 2069 
L 1759 2144 
Q 1053 2284 737 2584 
Q 422 2884 422 3419 
Q 422 4038 858 4394 
Q 1294 4750 2059 4750 
Q 2388 4750 2728 4690 
Q 3069 4631 3425 4513 
z
" transform="scale(0.015625)"/>
       <path id="DejaVuSans-45" d="M 628 4666 
L 3578 4666 
L 3578 4134 
L 1259 4134 
L 1259 2753 
L 3481 2753 
L 3481 2222 
L 1259 2222 
L 1259 531 
L 3634 531 
L 3634 0 
L 628 0 
L 628 4666 
z
" transform="scale(0.015625)"/>
       <path id="DejaVuSans-52" d="M 2841 2188 
Q 3044 2119 3236 1894 
Q 3428 1669 3622 1275 
L 4263 0 
L 3584 0 
L 2988 1197 
Q 2756 1666 2539 1819 
Q 2322 1972 1947 1972 
L 1259 1972 
L 1259 0 
L 628 0 
L 628 4666 
L 2053 4666 
Q 2853 4666 3247 4331 
Q 3641 3997 3641 3322 
Q 3641 2881 3436 2590 
Q 3231 2300 2841 2188 
z
M 1259 4147 
L 1259 2491 
L 2053 2491 
Q 2509 2491 2742 2702 
Q 2975 2913 2975 3322 
Q 2975 3731 2742 3939 
Q 2509 4147 2053 4147 
L 1259 4147 
z
" transform="scale(0.015625)"/>
       <path id="DejaVuSans-30" d="M 2034 4250 
Q 1547 4250 1301 3770 
Q 1056 3291 1056 2328 
Q 1056 1369 1301 889 
Q 1547 409 2034 409 
Q 2525 409 2770 889 
Q 3016 1369 3016 2328 
Q 3016 3291 2770 3770 
Q 2525 4250 2034 4250 
z
M 2034 4750 
Q 2819 4750 3233 4129 
Q 3647 3509 3647 2328 
Q 3647 1150 3233 529 
Q 2819 -91 2034 -91 
Q 1250 -91 836 529 
Q 422 1150 422 2328 
Q 422 3509 836 4129 
Q 1250 4750 2034 4750 
z
" transform="scale(0.015625)"/>
       <path id="DejaVuSans-20" transform="scale(0.015625)"/>
       <path id="DejaVuSans-4f" d="M 2522 4238 
Q 1834 4238 1429 3725 
Q 1025 3213 1025 2328 
Q 1025 1447 1429 934 
Q 1834 422 2522 422 
Q 3209 422 3611 934 
Q 4013 1447 4013 2328 
Q 4013 3213 3611 3725 
Q 3209 4238 2522 4238 
z
M 2522 4750 
Q 3503 4750 4090 4092 
Q 4678 3434 4678 2328 
Q 4678 1225 4090 567 
Q 3503 -91 2522 -91 
Q 1538 -91 948 565 
Q 359 1222 359 2328 
Q 359 3434 948 4092 
Q 1538 4750 2522 4750 
z
" transform="scale(0.015625)"/>
       <path id="DejaVuSans-47" d="M 3809 666 
L 3809 1919 
L 2778 1919 
L 2778 2438 
L 4434 2438 
L 4434 434 
Q 4069 175 3628 42 
Q 3188 -91 2688 -91 
Q 1594 -91 976 548 
Q 359 1188 359 2328 
Q 359 3472 976 4111 
Q 1594 4750 2688 4750 
Q 3144 4750 3555 4637 
Q 3966 4525 4313 4306 
L 4313 3634 
Q 3963 3931 3569 4081 
Q 3175 4231 2741 4231 
Q 1884 4231 1454 3753 
Q 1025 3275 1025 2328 
Q 1025 1384 1454 906 
Q 1884 428 2741 428 
Q 3075 428 3337 486 
Q 3600 544 3809 666 
z
" transform="scale(0.015625)"/>
       <path id="DejaVuSans-2d" d="M 313 2009 
L 1997 2009 
L 1997 1497 
L 313 1497 
L 313 2009 
z
" transform="scale(0.015625)"/>
       <path id="DejaVuSans-48" d="M 628 4666 
L 1259 4666 
L 1259 2753 
L 3553 2753 
L 3553 4666 
L 4184 4666 
L 4184 0 
L 3553 0 
L 3553 2222 
L 1259 2222 
L 1259 0 
L 628 0 
L 628 4666 
z
" transform="scale(0.015625)"/>
       <path id="DejaVuSans-44" d="M 1259 4147 
L 1259 519 
L 2022 519 
Q 2988 519 3436 956 
Q 3884 1394 3884 2338 
Q 3884 3275 3436 3711 
Q 2988 4147 2022 4147 
L 1259 4147 
z
M 628 4666 
L 1925 4666 
Q 3281 4666 3915 4102 
Q 4550 3538 4550 2338 
Q 4550 1131 3912 565 
Q 3275 0 1925 0 
L 628 0 
L 628 4666 
z
" transform="scale(0.015625)"/>
       <path id="DejaVuSans-69" d="M 603 3500 
L 1178 3500 
L 1178 0 
L 603 0 
L 603 3500 
z
M 603 4863 
L 1178 4863 
L 1178 4134 
L 603 4134 
L 603 4863 
z
" transform="scale(0.015625)"/>
       <path id="DejaVuSans-73" d="M 2834 3397 
L 2834 2853 
Q 2591 2978 2328 3040 
Q 2066 3103 1784 3103 
Q 1356 3103 1142 2972 
Q 928 2841 928 2578 
Q 928 2378 1081 2264 
Q 1234 2150 1697 2047 
L 1894 2003 
Q 2506 1872 2764 1633 
Q 3022 1394 3022 966 
Q 3022 478 2636 193 
Q 2250 -91 1575 -91 
Q 1294 -91 989 -36 
Q 684 19 347 128 
L 347 722 
Q 666 556 975 473 
Q 1284 391 1588 391 
Q 1994 391 2212 530 
Q 2431 669 2431 922 
Q 2431 1156 2273 1281 
Q 2116 1406 1581 1522 
L 1381 1569 
Q 847 1681 609 1914 
Q 372 2147 372 2553 
Q 372 3047 722 3315 
Q 1072 3584 1716 3584 
Q 2034 3584 2315 3537 
Q 2597 3491 2834 3397 
z
" transform="scale(0.015625)"/>
       <path id="DejaVuSans-74" d="M 1172 4494 
L 1172 3500 
L 2356 3500 
L 2356 3053 
L 1172 3053 
L 1172 1153 
Q 1172 725 1289 603 
Q 1406 481 1766 481 
L 2356 481 
L 2356 0 
L 1766 0 
Q 1100 0 847 248 
Q 594 497 594 1153 
L 594 3053 
L 172 3053 
L 172 3500 
L 594 3500 
L 594 4494 
L 1172 4494 
z
" transform="scale(0.015625)"/>
       <path id="DejaVuSans-61" d="M 2194 1759 
Q 1497 1759 1228 1600 
Q 959 1441 959 1056 
Q 959 750 1161 570 
Q 1363 391 1709 391 
Q 2188 391 2477 730 
Q 2766 1069 2766 1631 
L 2766 1759 
L 2194 1759 
z
M 3341 1997 
L 3341 0 
L 2766 0 
L 2766 531 
Q 2569 213 2275 61 
Q 1981 -91 1556 -91 
Q 1019 -91 701 211 
Q 384 513 384 1019 
Q 384 1609 779 1909 
Q 1175 2209 1959 2209 
L 2766 2209 
L 2766 2266 
Q 2766 2663 2505 2880 
Q 2244 3097 1772 3097 
Q 1472 3097 1187 3025 
Q 903 2953 641 2809 
L 641 3341 
Q 956 3463 1253 3523 
Q 1550 3584 1831 3584 
Q 2591 3584 2966 3190 
Q 3341 2797 3341 1997 
z
" transform="scale(0.015625)"/>
       <path id="DejaVuSans-6e" d="M 3513 2113 
L 3513 0 
L 2938 0 
L 2938 2094 
Q 2938 2591 2744 2837 
Q 2550 3084 2163 3084 
Q 1697 3084 1428 2787 
Q 1159 2491 1159 1978 
L 1159 0 
L 581 0 
L 581 3500 
L 1159 3500 
L 1159 2956 
Q 1366 3272 1645 3428 
Q 1925 3584 2291 3584 
Q 2894 3584 3203 3211 
Q 3513 2838 3513 2113 
z
" transform="scale(0.015625)"/>
       <path id="DejaVuSans-63" d="M 3122 3366 
L 3122 2828 
Q 2878 2963 2633 3030 
Q 2388 3097 2138 3097 
Q 1578 3097 1268 2742 
Q 959 2388 959 1747 
Q 959 1106 1268 751 
Q 1578 397 2138 397 
Q 2388 397 2633 464 
Q 2878 531 3122 666 
L 3122 134 
Q 2881 22 2623 -34 
Q 2366 -91 2075 -91 
Q 1284 -91 818 406 
Q 353 903 353 1747 
Q 353 2603 823 3093 
Q 1294 3584 2113 3584 
Q 2378 3584 2631 3529 
Q 2884 3475 3122 3366 
z
" transform="scale(0.015625)"/>
       <path id="DejaVuSans-65" d="M 3597 1894 
L 3597 1613 
L 953 1613 
Q 991 1019 1311 708 
Q 1631 397 2203 397 
Q 2534 397 2845 478 
Q 3156 559 3463 722 
L 3463 178 
Q 3153 47 2828 -22 
Q 2503 -91 2169 -91 
Q 1331 -91 842 396 
Q 353 884 353 1716 
Q 353 2575 817 3079 
Q 1281 3584 2069 3584 
Q 2775 3584 3186 3129 
Q 3597 2675 3597 1894 
z
M 3022 2063 
Q 3016 2534 2758 2815 
Q 2500 3097 2075 3097 
Q 1594 3097 1305 2825 
Q 1016 2553 972 2059 
L 3022 2063 
z
" transform="scale(0.015625)"/>
       <path id="DejaVuSans-5b" d="M 550 4863 
L 1875 4863 
L 1875 4416 
L 1125 4416 
L 1125 -397 
L 1875 -397 
L 1875 -844 
L 550 -844 
L 550 4863 
z
" transform="scale(0.015625)"/>
       <path id="DejaVuSans-c5" d="M 2663 5081 
Q 2663 5278 2523 5417 
Q 2384 5556 2188 5556 
Q 1988 5556 1852 5420 
Q 1716 5284 1716 5081 
Q 1716 4884 1853 4746 
Q 1991 4609 2188 4609 
Q 2384 4609 2523 4746 
Q 2663 4884 2663 5081 
z
M 2188 4044 
L 1338 1722 
L 3041 1722 
L 2188 4044 
z
M 1716 4366 
Q 1525 4494 1428 4673 
Q 1331 4853 1331 5081 
Q 1331 5441 1579 5691 
Q 1828 5941 2188 5941 
Q 2544 5941 2795 5689 
Q 3047 5438 3047 5081 
Q 3047 4863 2948 4678 
Q 2850 4494 2663 4366 
L 4325 0 
L 3669 0 
L 3244 1197 
L 1141 1197 
L 716 0 
L 50 0 
L 1716 4366 
z
" transform="scale(0.015625)"/>
       <path id="DejaVuSans-5d" d="M 1947 4863 
L 1947 -844 
L 622 -844 
L 622 -397 
L 1369 -397 
L 1369 4416 
L 622 4416 
L 622 4863 
L 1947 4863 
z
" transform="scale(0.015625)"/>
      </defs>
      <use xlink:href="#DejaVuSans-53"/>
      <use xlink:href="#DejaVuSans-45" x="63.476562"/>
      <use xlink:href="#DejaVuSans-52" x="126.660156"/>
      <use xlink:href="#DejaVuSans-32" x="196.142578"/>
      <use xlink:href="#DejaVuSans-30" x="259.765625"/>
      <use xlink:href="#DejaVuSans-35" x="323.388672"/>
      <use xlink:href="#DejaVuSans-20" x="387.011719"/>
      <use xlink:href="#DejaVuSans-4f" x="418.798828"/>
      <use xlink:href="#DejaVuSans-47" x="497.509766"/>
      <use xlink:href="#DejaVuSans-20" x="575"/>
      <use xlink:href="#DejaVuSans-2d" x="606.787109"/>
      <use xlink:href="#DejaVuSans-20" x="642.871094"/>
      <use xlink:href="#DejaVuSans-48" x="674.658203"/>
      <use xlink:href="#DejaVuSans-32" x="749.853516"/>
      <use xlink:href="#DejaVuSans-4f" x="813.476562"/>
      <use xlink:href="#DejaVuSans-20" x="892.1875"/>
      <use xlink:href="#DejaVuSans-48" x="923.974609"/>
      <use xlink:href="#DejaVuSans-20" x="999.169922"/>
      <use xlink:href="#DejaVuSans-44" x="1030.957031"/>
      <use xlink:href="#DejaVuSans-69" x="1107.958984"/>
      <use xlink:href="#DejaVuSans-73" x="1135.742188"/>
      <use xlink:href="#DejaVuSans-74" x="1187.841797"/>
      <use xlink:href="#DejaVuSans-61" x="1227.050781"/>
      <use xlink:href="#DejaVuSans-6e" x="1288.330078"/>
      <use xlink:href="#DejaVuSans-63" x="1351.708984"/>
      <use xlink:href="#DejaVuSans-65" x="1406.689453"/>
      <use xlink:href="#DejaVuSans-20" x="1468.212891"/>
      <use xlink:href="#DejaVuSans-5b" x="1500"/>
      <use xlink:href="#DejaVuSans-c5" x="1539.013672"/>
      <use xlink:href="#DejaVuSans-5d" x="1607.421875"/>
     </g>
    </g>
   </g>
   <g id="matplotlib.axis_2">
    <g id="ytick_1">
     <g id="line2d_11">
      <defs>
       <path id="m2ba67c849a" d="M 0 0 
L -3.5 0 
" style="stroke: #000000; stroke-width: 0.8"/>
      </defs>
      <g>
       <use xlink:href="#m2ba67c849a" x="46.64" y="302.8525" style="stroke: #000000; stroke-width: 0.8"/>
      </g>
     </g>
     <g id="text_9">
      <!-- −2 -->
      <g transform="translate(24.897813 306.651719) scale(0.1 -0.1)">
       <defs>
        <path id="DejaVuSans-2212" d="M 678 2272 
L 4684 2272 
L 4684 1741 
L 678 1741 
L 678 2272 
z
" transform="scale(0.015625)"/>
       </defs>
       <use xlink:href="#DejaVuSans-2212"/>
       <use xlink:href="#DejaVuSans-32" x="83.789062"/>
      </g>
     </g>
    </g>
    <g id="ytick_2">
     <g id="line2d_12">
      <g>
       <use xlink:href="#m2ba67c849a" x="46.64" y="245.234" style="stroke: #000000; stroke-width: 0.8"/>
      </g>
     </g>
     <g id="text_10">
      <!-- −1 -->
      <g transform="translate(24.897813 249.033219) scale(0.1 -0.1)">
       <defs>
        <path id="DejaVuSans-31" d="M 794 531 
L 1825 531 
L 1825 4091 
L 703 3866 
L 703 4441 
L 1819 4666 
L 2450 4666 
L 2450 531 
L 3481 531 
L 3481 0 
L 794 0 
L 794 531 
z
" transform="scale(0.015625)"/>
       </defs>
       <use xlink:href="#DejaVuSans-2212"/>
       <use xlink:href="#DejaVuSans-31" x="83.789062"/>
      </g>
     </g>
    </g>
    <g id="ytick_3">
     <g id="line2d_13">
      <g>
       <use xlink:href="#m2ba67c849a" x="46.64" y="187.6155" style="stroke: #000000; stroke-width: 0.8"/>
      </g>
     </g>
     <g id="text_11">
      <!-- 0 -->
      <g transform="translate(33.2775 191.414719) scale(0.1 -0.1)">
       <use xlink:href="#DejaVuSans-30"/>
      </g>
     </g>
    </g>
    <g id="ytick_4">
     <g id="line2d_14">
      <g>
       <use xlink:href="#m2ba67c849a" x="46.64" y="129.997" style="stroke: #000000; stroke-width: 0.8"/>
      </g>
     </g>
     <g id="text_12">
      <!-- 1 -->
      <g transform="translate(33.2775 133.796219) scale(0.1 -0.1)">
       <use xlink:href="#DejaVuSans-31"/>
      </g>
     </g>
    </g>
    <g id="ytick_5">
     <g id="line2d_15">
      <g>
       <use xlink:href="#m2ba67c849a" x="46.64" y="72.3785" style="stroke: #000000; stroke-width: 0.8"/>
      </g>
     </g>
     <g id="text_13">
      <!-- 2 -->
      <g transform="translate(33.2775 76.177719) scale(0.1 -0.1)">
       <use xlink:href="#DejaVuSans-32"/>
      </g>
     </g>
    </g>
    <g id="ytick_6">
     <g id="line2d_16">
      <g>
       <use xlink:href="#m2ba67c849a" x="46.64" y="14.76" style="stroke: #000000; stroke-width: 0.8"/>
      </g>
     </g>
     <g id="text_14">
      <!-- 3 -->
      <g transform="translate(33.2775 18.559219) scale(0.1 -0.1)">
       <use xlink:href="#DejaVuSans-33"/>
      </g>
     </g>
    </g>
    <g id="text_15">
     <!-- PMF [kcal/mol] -->
     <g transform="translate(18.818125 195.602344) rotate(-90) scale(0.1 -0.1)">
      <defs>
       <path id="DejaVuSans-50" d="M 1259 4147 
L 1259 2394 
L 2053 2394 
Q 2494 2394 2734 2622 
Q 2975 2850 2975 3272 
Q 2975 3691 2734 3919 
Q 2494 4147 2053 4147 
L 1259 4147 
z
M 628 4666 
L 2053 4666 
Q 2838 4666 3239 4311 
Q 3641 3956 3641 3272 
Q 3641 2581 3239 2228 
Q 2838 1875 2053 1875 
L 1259 1875 
L 1259 0 
L 628 0 
L 628 4666 
z
" transform="scale(0.015625)"/>
       <path id="DejaVuSans-4d" d="M 628 4666 
L 1569 4666 
L 2759 1491 
L 3956 4666 
L 4897 4666 
L 4897 0 
L 4281 0 
L 4281 4097 
L 3078 897 
L 2444 897 
L 1241 4097 
L 1241 0 
L 628 0 
L 628 4666 
z
" transform="scale(0.015625)"/>
       <path id="DejaVuSans-46" d="M 628 4666 
L 3309 4666 
L 3309 4134 
L 1259 4134 
L 1259 2759 
L 3109 2759 
L 3109 2228 
L 1259 2228 
L 1259 0 
L 628 0 
L 628 4666 
z
" transform="scale(0.015625)"/>
       <path id="DejaVuSans-6b" d="M 581 4863 
L 1159 4863 
L 1159 1991 
L 2875 3500 
L 3609 3500 
L 1753 1863 
L 3688 0 
L 2938 0 
L 1159 1709 
L 1159 0 
L 581 0 
L 581 4863 
z
" transform="scale(0.015625)"/>
       <path id="DejaVuSans-6c" d="M 603 4863 
L 1178 4863 
L 1178 0 
L 603 0 
L 603 4863 
z
" transform="scale(0.015625)"/>
       <path id="DejaVuSans-2f" d="M 1625 4666 
L 2156 4666 
L 531 -594 
L 0 -594 
L 1625 4666 
z
" transform="scale(0.015625)"/>
       <path id="DejaVuSans-6d" d="M 3328 2828 
Q 3544 3216 3844 3400 
Q 4144 3584 4550 3584 
Q 5097 3584 5394 3201 
Q 5691 2819 5691 2113 
L 5691 0 
L 5113 0 
L 5113 2094 
Q 5113 2597 4934 2840 
Q 4756 3084 4391 3084 
Q 3944 3084 3684 2787 
Q 3425 2491 3425 1978 
L 3425 0 
L 2847 0 
L 2847 2094 
Q 2847 2600 2669 2842 
Q 2491 3084 2119 3084 
Q 1678 3084 1418 2786 
Q 1159 2488 1159 1978 
L 1159 0 
L 581 0 
L 581 3500 
L 1159 3500 
L 1159 2956 
Q 1356 3278 1631 3431 
Q 1906 3584 2284 3584 
Q 2666 3584 2933 3390 
Q 3200 3197 3328 2828 
z
" transform="scale(0.015625)"/>
       <path id="DejaVuSans-6f" d="M 1959 3097 
Q 1497 3097 1228 2736 
Q 959 2375 959 1747 
Q 959 1119 1226 758 
Q 1494 397 1959 397 
Q 2419 397 2687 759 
Q 2956 1122 2956 1747 
Q 2956 2369 2687 2733 
Q 2419 3097 1959 3097 
z
M 1959 3584 
Q 2709 3584 3137 3096 
Q 3566 2609 3566 1747 
Q 3566 888 3137 398 
Q 2709 -91 1959 -91 
Q 1206 -91 779 398 
Q 353 888 353 1747 
Q 353 2609 779 3096 
Q 1206 3584 1959 3584 
z
" transform="scale(0.015625)"/>
      </defs>
      <use xlink:href="#DejaVuSans-50"/>
      <use xlink:href="#DejaVuSans-4d" x="60.302734"/>
      <use xlink:href="#DejaVuSans-46" x="146.582031"/>
      <use xlink:href="#DejaVuSans-20" x="204.101562"/>
      <use xlink:href="#DejaVuSans-5b" x="235.888672"/>
      <use xlink:href="#DejaVuSans-6b" x="274.902344"/>
      <use xlink:href="#DejaVuSans-63" x="332.8125"/>
      <use xlink:href="#DejaVuSans-61" x="387.792969"/>
      <use xlink:href="#DejaVuSans-6c" x="449.072266"/>
      <use xlink:href="#DejaVuSans-2f" x="476.855469"/>
      <use xlink:href="#DejaVuSans-6d" x="510.546875"/>
      <use xlink:href="#DejaVuSans-6f" x="607.958984"/>
      <use xlink:href="#DejaVuSans-6c" x="669.140625"/>
      <use xlink:href="#DejaVuSans-5d" x="696.923828"/>
     </g>
    </g>
   </g>
   <g id="line2d_17">
    <path d="M 25.39527 -1 
L 27.412853 2.839894 
L 29.816246 6.848237 
L 31.618791 9.476419 
L 33.421336 11.80099 
L 35.223881 13.843512 
L 37.627275 16.173454 
L 40.030668 18.126774 
L 43.03491 20.205841 
L 47.240848 23.025483 
L 49.043393 24.48514 
L 50.845938 26.291081 
L 52.047635 27.764863 
L 53.249332 29.509659 
L 54.451029 31.56973 
L 55.652725 33.982929 
L 56.854422 36.777265 
L 58.656967 41.713018 
L 60.459512 47.528554 
L 62.262057 54.146252 
L 64.66545 63.991115 
L 67.669692 77.421079 
L 81.489204 140.839916 
L 85.094294 155.769887 
L 88.699384 169.70142 
L 91.703626 180.505086 
L 94.707868 190.548708 
L 97.71211 199.810101 
L 100.716351 208.268183 
L 103.119745 214.442321 
L 105.523138 220.078592 
L 107.926532 225.166781 
L 110.329925 229.697109 
L 112.733318 233.660434 
L 114.535863 236.255794 
L 116.338408 238.524381 
L 118.140953 240.463422 
L 119.943498 242.070549 
L 121.746044 243.343838 
L 123.548589 244.281843 
L 125.351134 244.883636 
L 127.153679 245.148842 
L 128.355375 245.138736 
L 129.557072 244.979343 
L 131.359617 244.461148 
L 133.162162 243.60967 
L 134.964707 242.427461 
L 136.767252 240.917901 
L 138.569797 239.085284 
L 140.372342 236.934906 
L 142.174887 234.473185 
L 143.977432 231.7078 
L 146.380826 227.564235 
L 148.784219 222.923509 
L 151.187613 217.818393 
L 154.191854 210.847296 
L 157.196096 203.319328 
L 161.402035 192.12074 
L 168.612215 172.800644 
L 171.015608 166.981878 
L 172.818153 163.048188 
L 174.620698 159.590561 
L 176.423243 156.694114 
L 177.62494 155.107604 
L 178.826637 153.81128 
L 180.028333 152.810177 
L 181.23003 152.102338 
L 182.431727 151.679099 
L 183.633423 151.525847 
L 184.83512 151.623157 
L 186.036817 151.948131 
L 187.238514 152.475775 
L 189.041059 153.590831 
L 190.843604 155.018717 
L 193.246997 157.275195 
L 196.251239 160.446466 
L 207.667357 172.870545 
L 211.272447 176.303 
L 214.276689 178.865715 
L 217.280931 181.127217 
L 220.285173 183.066821 
L 222.688566 184.376783 
L 225.091959 185.466489 
L 227.495353 186.333379 
L 229.898746 186.977198 
L 232.30214 187.400012 
L 234.705533 187.606199 
L 237.108926 187.602366 
L 239.51232 187.397207 
L 241.915713 187.001303 
L 244.919955 186.256954 
L 247.924197 185.260662 
L 250.928438 184.042011 
L 254.533529 182.33082 
L 258.739467 180.064426 
L 264.147102 176.868768 
L 279.168311 167.805298 
L 284.575946 164.895386 
L 289.382733 162.586372 
L 293.588671 160.824433 
L 297.193761 159.533542 
L 300.798851 158.460773 
L 304.403941 157.60674 
L 308.60988 156.860272 
L 313.416667 156.252456 
L 326.034482 154.81652 
L 330.24042 154.053913 
L 334.446359 153.045436 
L 338.652297 151.778407 
L 342.858236 150.271631 
L 347.665023 148.308908 
L 353.673506 145.59962 
L 361.484535 141.811476 
L 370.49726 137.182758 
L 386.119317 129.0789 
L 390.926104 126.895343 
L 394.531194 125.470858 
L 398.136284 124.2717 
L 401.741374 123.319885 
L 405.346464 122.618496 
L 408.951554 122.152629 
L 412.556644 121.894149 
L 416.762583 121.808057 
L 421.569369 121.924636 
L 428.178701 122.324072 
L 445.603303 123.505296 
L 453.414332 123.705312 
L 461.8 123.841849 
L 461.8 123.841849 
" clip-path="url(#p0b37393bbd)" style="fill: none; stroke: #f99752; stroke-width: 2.5; stroke-linecap: square"/>
   </g>
   <g id="patch_3">
    <path d="M 46.64 302.8525 
L 46.64 14.76 
" style="fill: none; stroke: #000000; stroke-width: 0.8; stroke-linejoin: miter; stroke-linecap: square"/>
   </g>
   <g id="patch_4">
    <path d="M 446.805 302.8525 
L 446.805 14.76 
" style="fill: none; stroke: #000000; stroke-width: 0.8; stroke-linejoin: miter; stroke-linecap: square"/>
   </g>
   <g id="patch_5">
    <path d="M 46.64 302.8525 
L 446.805 302.8525 
" style="fill: none; stroke: #000000; stroke-width: 0.8; stroke-linejoin: miter; stroke-linecap: square"/>
   </g>
   <g id="patch_6">
    <path d="M 46.64 14.76 
L 446.805 14.76 
" style="fill: none; stroke: #000000; stroke-width: 0.8; stroke-linejoin: miter; stroke-linecap: square"/>
   </g>
   <g id="legend_1">
    <g id="patch_7">
     <path d="M 364.359688 297.8525 
L 439.805 297.8525 
Q 441.805 297.8525 441.805 295.8525 
L 441.805 252.818125 
Q 441.805 250.818125 439.805 250.818125 
L 364.359688 250.818125 
Q 362.359688 250.818125 362.359688 252.818125 
L 362.359688 295.8525 
Q 362.359688 297.8525 364.359688 297.8525 
z
" style="fill: #ffffff; opacity: 0.8; stroke: #cccccc; stroke-linejoin: miter"/>
    </g>
    <g id="line2d_18">
     <path d="M 366.359688 258.916562 
L 376.359688 258.916562 
L 386.359688 258.916562 
" style="fill: none; stroke: #1e2e79; stroke-width: 2.5; stroke-linecap: square"/>
    </g>
    <g id="text_16">
     <!-- Reduced -->
     <g transform="translate(394.359688 262.416562) scale(0.1 -0.1)">
      <defs>
       <path id="DejaVuSans-64" d="M 2906 2969 
L 2906 4863 
L 3481 4863 
L 3481 0 
L 2906 0 
L 2906 525 
Q 2725 213 2448 61 
Q 2172 -91 1784 -91 
Q 1150 -91 751 415 
Q 353 922 353 1747 
Q 353 2572 751 3078 
Q 1150 3584 1784 3584 
Q 2172 3584 2448 3432 
Q 2725 3281 2906 2969 
z
M 947 1747 
Q 947 1113 1208 752 
Q 1469 391 1925 391 
Q 2381 391 2643 752 
Q 2906 1113 2906 1747 
Q 2906 2381 2643 2742 
Q 2381 3103 1925 3103 
Q 1469 3103 1208 2742 
Q 947 2381 947 1747 
z
" transform="scale(0.015625)"/>
       <path id="DejaVuSans-75" d="M 544 1381 
L 544 3500 
L 1119 3500 
L 1119 1403 
Q 1119 906 1312 657 
Q 1506 409 1894 409 
Q 2359 409 2629 706 
Q 2900 1003 2900 1516 
L 2900 3500 
L 3475 3500 
L 3475 0 
L 2900 0 
L 2900 538 
Q 2691 219 2414 64 
Q 2138 -91 1772 -91 
Q 1169 -91 856 284 
Q 544 659 544 1381 
z
M 1991 3584 
L 1991 3584 
z
" transform="scale(0.015625)"/>
      </defs>
      <use xlink:href="#DejaVuSans-52"/>
      <use xlink:href="#DejaVuSans-65" x="64.982422"/>
      <use xlink:href="#DejaVuSans-64" x="126.505859"/>
      <use xlink:href="#DejaVuSans-75" x="189.982422"/>
      <use xlink:href="#DejaVuSans-63" x="253.361328"/>
      <use xlink:href="#DejaVuSans-65" x="308.341797"/>
      <use xlink:href="#DejaVuSans-64" x="369.865234"/>
     </g>
    </g>
    <g id="line2d_19">
     <path d="M 366.359688 273.594687 
L 376.359688 273.594687 
L 386.359688 273.594687 
" style="fill: none; stroke: #ec4067; stroke-width: 2.5; stroke-linecap: square"/>
    </g>
    <g id="text_17">
     <!-- Oxidized -->
     <g transform="translate(394.359688 277.094687) scale(0.1 -0.1)">
      <defs>
       <path id="DejaVuSans-78" d="M 3513 3500 
L 2247 1797 
L 3578 0 
L 2900 0 
L 1881 1375 
L 863 0 
L 184 0 
L 1544 1831 
L 300 3500 
L 978 3500 
L 1906 2253 
L 2834 3500 
L 3513 3500 
z
" transform="scale(0.015625)"/>
       <path id="DejaVuSans-7a" d="M 353 3500 
L 3084 3500 
L 3084 2975 
L 922 459 
L 3084 459 
L 3084 0 
L 275 0 
L 275 525 
L 2438 3041 
L 353 3041 
L 353 3500 
z
" transform="scale(0.015625)"/>
      </defs>
      <use xlink:href="#DejaVuSans-4f"/>
      <use xlink:href="#DejaVuSans-78" x="78.710938"/>
      <use xlink:href="#DejaVuSans-69" x="137.890625"/>
      <use xlink:href="#DejaVuSans-64" x="165.673828"/>
      <use xlink:href="#DejaVuSans-69" x="229.150391"/>
      <use xlink:href="#DejaVuSans-7a" x="256.933594"/>
      <use xlink:href="#DejaVuSans-65" x="309.423828"/>
      <use xlink:href="#DejaVuSans-64" x="370.947266"/>
     </g>
    </g>
    <g id="line2d_20">
     <path d="M 366.359688 288.272812 
L 376.359688 288.272812 
L 386.359688 288.272812 
" style="fill: none; stroke: #f99752; stroke-width: 2.5; stroke-linecap: square"/>
    </g>
    <g id="text_18">
     <!-- Cu$^{+}$ -->
     <g transform="translate(394.359688 291.772812) scale(0.1 -0.1)">
      <defs>
       <path id="DejaVuSans-43" d="M 4122 4306 
L 4122 3641 
Q 3803 3938 3442 4084 
Q 3081 4231 2675 4231 
Q 1875 4231 1450 3742 
Q 1025 3253 1025 2328 
Q 1025 1406 1450 917 
Q 1875 428 2675 428 
Q 3081 428 3442 575 
Q 3803 722 4122 1019 
L 4122 359 
Q 3791 134 3420 21 
Q 3050 -91 2638 -91 
Q 1578 -91 968 557 
Q 359 1206 359 2328 
Q 359 3453 968 4101 
Q 1578 4750 2638 4750 
Q 3056 4750 3426 4639 
Q 3797 4528 4122 4306 
z
" transform="scale(0.015625)"/>
       <path id="DejaVuSans-2b" d="M 2944 4013 
L 2944 2272 
L 4684 2272 
L 4684 1741 
L 2944 1741 
L 2944 0 
L 2419 0 
L 2419 1741 
L 678 1741 
L 678 2272 
L 2419 2272 
L 2419 4013 
L 2944 4013 
z
" transform="scale(0.015625)"/>
      </defs>
      <use xlink:href="#DejaVuSans-43" transform="translate(0 0.826562)"/>
      <use xlink:href="#DejaVuSans-75" transform="translate(69.824219 0.826562)"/>
      <use xlink:href="#DejaVuSans-2b" transform="translate(134.160156 39.107812) scale(0.7)"/>
     </g>
    </g>
   </g>
  </g>
 </g>
 <defs>
  <clipPath id="p0b37393bbd">
   <rect x="46.64" y="14.76" width="400.165" height="288.0925"/>
  </clipPath>
 </defs>
</svg>
