<?xml version="1.0" encoding="utf-8" standalone="no"?>
<!DOCTYPE svg PUBLIC "-//W3C//DTD SVG 1.1//EN"
  "http://www.w3.org/Graphics/SVG/1.1/DTD/svg11.dtd">
<svg xmlns:xlink="http://www.w3.org/1999/xlink" width="460.8pt" height="345.6pt" viewBox="0 0 460.8 345.6" xmlns="http://www.w3.org/2000/svg" version="1.1">
 <metadata>
  <rdf:RDF xmlns:dc="http://purl.org/dc/elements/1.1/" xmlns:cc="http://creativecommons.org/ns#" xmlns:rdf="http://www.w3.org/1999/02/22-rdf-syntax-ns#">
   <cc:Work>
    <dc:type rdf:resource="http://purl.org/dc/dcmitype/StillImage"/>
    <dc:date>2024-07-07T13:53:48.979159</dc:date>
    <dc:format>image/svg+xml</dc:format>
    <dc:creator>
     <cc:Agent>
      <dc:title>Matplotlib v3.8.4, https://matplotlib.org/</dc:title>
     </cc:Agent>
    </dc:creator>
   </cc:Work>
  </rdf:RDF>
 </metadata>
 <defs>
  <style type="text/css">*{stroke-linejoin: round; stroke-linecap: butt}</style>
 </defs>
 <g id="figure_1">
  <g id="patch_1">
   <path d="M 0 345.6 
L 460.8 345.6 
L 460.8 0 
L 0 0 
z
" style="fill: #ffffff"/>
  </g>
  <g id="axes_1">
   <g id="patch_2">
    <path d="M 60.662 299.968 
L 447.84 299.968 
L 447.84 12.96 
L 60.662 12.96 
z
" style="fill: #ffffff"/>
   </g>
   <g id="line2d_1">
    <path d="M 60.662 299.683622 
L 69.576008 299.776398 
L 80.427844 299.660364 
L 89.341852 299.367782 
L 95.542901 298.961264 
L 100.968819 298.37988 
L 106.394737 297.559187 
L 122.284925 294.916617 
L 125.773015 294.679183 
L 129.261105 294.678699 
L 132.749195 294.920933 
L 136.624851 295.435037 
L 142.050769 296.418891 
L 150.577211 297.97592 
L 156.003129 298.71764 
L 161.429047 299.226933 
L 167.630096 299.56973 
L 175.381407 299.753881 
L 188.171071 299.801096 
L 199.798038 299.652432 
L 208.712046 299.32603 
L 215.688226 298.860912 
L 220.726579 298.307567 
L 224.602234 297.665376 
L 227.702759 296.947591 
L 230.415718 296.116513 
L 233.128677 295.039919 
L 235.45407 293.872589 
L 237.779463 292.428265 
L 239.717291 290.972078 
L 241.655119 289.245938 
L 243.592947 287.206841 
L 245.530775 284.806385 
L 247.468603 281.990364 
L 249.40643 278.69845 
L 251.344258 274.864107 
L 253.282086 270.414981 
L 255.219914 265.27403 
L 257.157742 259.36168 
L 259.09557 252.599179 
L 261.033397 244.913175 
L 262.971225 236.241367 
L 264.909053 226.538896 
L 266.846881 215.785056 
L 269.172274 201.509184 
L 271.497668 185.823154 
L 274.210627 165.97824 
L 277.698717 138.721875 
L 284.287331 86.772298 
L 286.612725 70.171169 
L 288.550553 57.759522 
L 290.100815 49.017719 
L 291.651077 41.517051 
L 292.813774 36.799731 
L 293.97647 32.925238 
L 295.139167 29.942719 
L 295.914298 28.469973 
L 296.689429 27.420806 
L 297.464561 26.802311 
L 298.239692 26.619323 
L 299.014823 26.874357 
L 299.789954 27.567561 
L 300.565085 28.696698 
L 301.340216 30.257154 
L 302.115347 32.241964 
L 303.278044 35.993989 
L 304.440741 40.638991 
L 305.603437 46.126105 
L 307.1537 54.646873 
L 308.703962 64.391804 
L 310.64179 78.010945 
L 312.967183 95.943201 
L 316.842839 127.858932 
L 321.493626 165.706116 
L 324.206585 185.873574 
L 326.531978 201.401294 
L 328.469806 212.880468 
L 330.407634 222.916999 
L 331.957896 229.867386 
L 333.508158 235.847128 
L 335.05842 240.861767 
L 336.221117 244.000162 
L 337.383814 246.617903 
L 338.546511 248.729918 
L 339.709207 250.353642 
L 340.871904 251.508628 
L 341.647035 252.02868 
L 342.422166 252.356563 
L 343.197297 252.499258 
L 343.972428 252.463997 
L 344.74756 252.258254 
L 345.910256 251.64689 
L 347.072953 250.696258 
L 348.23565 249.434449 
L 349.785912 247.318765 
L 351.336174 244.774944 
L 353.274002 241.110881 
L 355.599395 236.216096 
L 362.18801 221.947632 
L 364.125838 218.381945 
L 365.6761 215.954057 
L 367.226362 213.989209 
L 368.389059 212.861079 
L 369.551756 212.056557 
L 370.714452 211.595509 
L 371.489584 211.486523 
L 372.264715 211.539995 
L 373.039846 211.757896 
L 373.814977 212.14105 
L 374.977674 213.024563 
L 376.14037 214.272733 
L 377.303067 215.873552 
L 378.465764 217.809328 
L 380.016026 220.870944 
L 381.566288 224.419141 
L 383.504116 229.416511 
L 386.217075 237.148272 
L 394.355952 261.010966 
L 396.681345 267.001627 
L 399.006739 272.368817 
L 400.944567 276.334668 
L 402.882394 279.841253 
L 404.820222 282.908239 
L 406.75805 285.566791 
L 408.695878 287.854513 
L 410.633706 289.811407 
L 412.571534 291.476986 
L 414.509361 292.888458 
L 416.834755 294.294389 
L 419.160148 295.435116 
L 421.873107 296.490324 
L 424.586066 297.305906 
L 427.686591 298.008834 
L 431.174681 298.579866 
L 435.437902 299.055279 
L 440.86382 299.430715 
L 447.84 299.683622 
L 447.84 299.683622 
" clip-path="url(#pc66abb6685)" style="fill: none; stroke: #1e2e79; stroke-width: 2.5; stroke-linecap: square"/>
   </g>
   <g id="line2d_2">
    <path d="M 60.662 299.688396 
L 72.288967 299.676564 
L 78.877582 299.473656 
L 83.528368 299.130793 
L 87.404024 298.616665 
L 90.504549 297.979843 
L 93.217508 297.202827 
L 95.930466 296.173068 
L 98.25586 295.057308 
L 100.581253 293.704293 
L 102.906647 292.102833 
L 105.23204 290.25586 
L 107.944999 287.8213 
L 111.433089 284.371997 
L 117.246573 278.587051 
L 119.571966 276.599822 
L 121.509794 275.22196 
L 123.060056 274.346469 
L 124.610318 273.700165 
L 126.160581 273.301225 
L 127.710843 273.160051 
L 129.261105 273.278878 
L 130.811367 273.651843 
L 132.36163 274.265484 
L 133.911892 275.099583 
L 135.84972 276.412416 
L 138.175113 278.304391 
L 141.275638 281.176 
L 148.639383 288.167967 
L 151.352342 290.402169 
L 154.065301 292.330468 
L 156.390695 293.720102 
L 158.716088 294.865825 
L 161.041481 295.775893 
L 163.366875 296.462318 
L 165.692268 296.936725 
L 168.017662 297.207009 
L 170.343055 297.274658 
L 172.668448 297.132508 
L 174.993842 296.762763 
L 177.319235 296.135168 
L 179.257063 295.383638 
L 181.194891 294.388605 
L 183.132719 293.108275 
L 184.682981 291.845386 
L 186.233243 290.339079 
L 187.783506 288.557343 
L 189.333768 286.465679 
L 190.88403 284.027719 
L 192.434292 281.206026 
L 193.984555 277.963072 
L 195.534817 274.262362 
L 197.085079 270.069676 
L 199.022907 264.090782 
L 200.960735 257.247185 
L 202.898563 249.506755 
L 204.83639 240.857947 
L 207.161784 229.30065 
L 209.487177 216.532251 
L 212.200136 200.297714 
L 215.688226 177.851561 
L 224.214669 122.004503 
L 226.540062 108.346852 
L 228.47789 98.008938 
L 230.415718 88.826349 
L 231.96598 82.428199 
L 233.516242 76.95635 
L 234.678939 73.500224 
L 235.841636 70.625504 
L 237.004332 68.351355 
L 238.167029 66.692601 
L 238.94216 65.933893 
L 239.717291 65.455165 
L 240.492422 65.257252 
L 241.267554 65.339963 
L 242.042685 65.702056 
L 242.817816 66.341221 
L 243.592947 67.254061 
L 244.368078 68.436094 
L 245.530775 70.701405 
L 246.693471 73.536323 
L 247.856168 76.912315 
L 249.40643 82.196778 
L 250.956693 88.291377 
L 252.894521 96.889526 
L 255.219914 108.34675 
L 258.320438 124.874366 
L 265.296619 162.537761 
L 268.009578 175.753758 
L 270.334971 185.932861 
L 272.272799 193.475214 
L 274.210627 200.103071 
L 275.760889 204.734293 
L 277.311151 208.776477 
L 278.861413 212.250984 
L 280.411676 215.191321 
L 281.961938 217.641395 
L 283.5122 219.653512 
L 285.062462 221.286239 
L 286.612725 222.602241 
L 288.550553 223.900431 
L 290.875946 225.115725 
L 298.239692 228.653902 
L 300.17752 229.948268 
L 302.115347 231.519437 
L 304.053175 233.402803 
L 305.991003 235.615731 
L 307.928831 238.157778 
L 310.254224 241.616861 
L 312.967183 246.136926 
L 316.455273 252.489932 
L 324.59415 267.580529 
L 327.307109 272.047879 
L 329.632503 275.465524 
L 331.57033 277.978743 
L 333.508158 280.1645 
L 335.445986 282.011622 
L 337.383814 283.517942 
L 339.321642 284.689233 
L 340.871904 285.393326 
L 342.422166 285.900161 
L 344.359994 286.273664 
L 346.297822 286.382633 
L 348.23565 286.256747 
L 350.561043 285.842193 
L 352.886436 285.199125 
L 355.986961 284.103103 
L 363.738272 281.241645 
L 366.063666 280.645054 
L 368.389059 280.279479 
L 370.326887 280.181618 
L 372.264715 280.287245 
L 374.202543 280.600676 
L 376.14037 281.116521 
L 378.465764 281.982077 
L 380.791157 283.079677 
L 383.891682 284.818073 
L 388.542468 287.747517 
L 394.355952 291.378531 
L 397.844042 293.292491 
L 400.944567 294.741341 
L 404.045091 295.929304 
L 407.145616 296.863466 
L 410.24614 297.573025 
L 413.73423 298.15524 
L 417.997451 298.644427 
L 423.810935 299.070692 
L 431.562246 299.402531 
L 442.414082 299.628394 
L 447.84 299.688396 
L 447.84 299.688396 
" clip-path="url(#pc66abb6685)" style="fill: none; stroke: #ec4067; stroke-width: 2.5; stroke-linecap: square"/>
   </g>
   <g id="matplotlib.axis_1">
    <g id="xtick_1">
     <g id="line2d_3">
      <defs>
       <path id="m9d78f9271f" d="M 0 0 
L 0 3.5 
" style="stroke: #c2c1c1; stroke-width: 0.8"/>
      </defs>
      <g>
       <use xlink:href="#m9d78f9271f" x="60.662" y="299.968" style="fill: #c2c1c1; stroke: #c2c1c1; stroke-width: 0.8"/>
      </g>
     </g>
     <g id="text_1">
      <!-- −180 -->
      <g style="fill: #191919" transform="translate(49.372937 314.468) scale(0.1 -0.1)">
       <defs>
        <path id="Roboto-Regular-2212" d="M 3134 2509 
L 3134 2034 
L 525 2034 
L 525 2509 
L 3134 2509 
z
" transform="scale(0.015625)"/>
        <path id="Roboto-Regular-31" d="M 2278 4575 
L 2278 0 
L 1700 0 
L 1700 3853 
L 534 3428 
L 534 3950 
L 2188 4575 
L 2278 4575 
z
" transform="scale(0.015625)"/>
        <path id="Roboto-Regular-38" d="M 3244 1231 
Q 3244 606 2826 271 
Q 2409 -63 1796 -63 
Q 1184 -63 767 271 
Q 350 606 350 1231 
Q 350 1613 554 1905 
Q 759 2197 1109 2347 
Q 806 2494 629 2762 
Q 453 3031 453 3366 
Q 453 3963 833 4288 
Q 1213 4613 1794 4613 
Q 2378 4613 2758 4288 
Q 3138 3963 3138 3366 
Q 3138 3028 2956 2761 
Q 2775 2494 2472 2347 
Q 2825 2197 3034 1903 
Q 3244 1609 3244 1231 
z
M 2559 3356 
Q 2559 3697 2346 3917 
Q 2134 4138 1793 4138 
Q 1453 4138 1243 3927 
Q 1034 3716 1034 3356 
Q 1034 3003 1243 2790 
Q 1453 2578 1797 2578 
Q 2138 2578 2348 2790 
Q 2559 3003 2559 3356 
z
M 2663 1244 
Q 2663 1625 2420 1865 
Q 2178 2106 1791 2106 
Q 1394 2106 1161 1865 
Q 928 1625 928 1244 
Q 928 850 1161 631 
Q 1394 413 1797 413 
Q 2200 413 2431 631 
Q 2663 850 2663 1244 
z
" transform="scale(0.015625)"/>
        <path id="Roboto-Regular-30" d="M 3234 1944 
Q 3234 825 2848 381 
Q 2463 -63 1800 -63 
Q 1156 -63 764 368 
Q 372 800 359 1872 
L 359 2638 
Q 359 3753 750 4183 
Q 1141 4613 1794 4613 
Q 2447 4613 2834 4195 
Q 3222 3778 3234 2709 
L 3234 1944 
z
M 2653 2734 
Q 2653 3503 2434 3822 
Q 2216 4141 1794 4141 
Q 1388 4141 1167 3831 
Q 947 3522 941 2778 
L 941 1850 
Q 941 1088 1164 750 
Q 1388 413 1800 413 
Q 2222 413 2436 745 
Q 2650 1078 2653 1825 
L 2653 2734 
z
" transform="scale(0.015625)"/>
       </defs>
       <use xlink:href="#Roboto-Regular-2212"/>
       <use xlink:href="#Roboto-Regular-31" x="57.177734"/>
       <use xlink:href="#Roboto-Regular-38" x="113.378906"/>
       <use xlink:href="#Roboto-Regular-30" x="169.580078"/>
      </g>
     </g>
    </g>
    <g id="xtick_2">
     <g id="line2d_4">
      <g>
       <use xlink:href="#m9d78f9271f" x="125.191667" y="299.968" style="fill: #c2c1c1; stroke: #c2c1c1; stroke-width: 0.8"/>
      </g>
     </g>
     <g id="text_2">
      <!-- −120 -->
      <g style="fill: #191919" transform="translate(113.902604 314.468) scale(0.1 -0.1)">
       <defs>
        <path id="Roboto-Regular-32" d="M 3359 475 
L 3359 0 
L 381 0 
L 381 416 
L 1925 2134 
Q 2306 2566 2439 2819 
Q 2572 3072 2572 3328 
Q 2572 3663 2364 3900 
Q 2156 4138 1778 4138 
Q 1322 4138 1097 3878 
Q 872 3619 872 3213 
L 294 3213 
Q 294 3788 672 4200 
Q 1050 4613 1778 4613 
Q 2422 4613 2786 4278 
Q 3150 3944 3150 3397 
Q 3150 2997 2903 2592 
Q 2656 2188 2297 1797 
L 1078 475 
L 3359 475 
z
" transform="scale(0.015625)"/>
       </defs>
       <use xlink:href="#Roboto-Regular-2212"/>
       <use xlink:href="#Roboto-Regular-31" x="57.177734"/>
       <use xlink:href="#Roboto-Regular-32" x="113.378906"/>
       <use xlink:href="#Roboto-Regular-30" x="169.580078"/>
      </g>
     </g>
    </g>
    <g id="xtick_3">
     <g id="line2d_5">
      <g>
       <use xlink:href="#m9d78f9271f" x="189.721333" y="299.968" style="fill: #c2c1c1; stroke: #c2c1c1; stroke-width: 0.8"/>
      </g>
     </g>
     <g id="text_3">
      <!-- −60 -->
      <g style="fill: #191919" transform="translate(181.242427 314.468) scale(0.1 -0.1)">
       <defs>
        <path id="Roboto-Regular-36" d="M 3291 1484 
Q 3291 838 2930 387 
Q 2569 -63 1878 -63 
Q 1388 -63 1063 198 
Q 738 459 577 861 
Q 416 1263 416 1684 
L 416 1956 
Q 416 2597 595 3194 
Q 775 3791 1247 4173 
Q 1719 4556 2597 4556 
L 2647 4556 
L 2647 4066 
Q 2041 4066 1705 3853 
Q 1369 3641 1205 3302 
Q 1041 2963 1006 2575 
Q 1369 2984 1984 2984 
Q 2438 2984 2727 2765 
Q 3016 2547 3153 2201 
Q 3291 1856 3291 1484 
z
M 997 1666 
Q 997 1059 1267 737 
Q 1538 416 1878 416 
Q 2278 416 2498 708 
Q 2719 1000 2719 1456 
Q 2719 1863 2516 2184 
Q 2313 2506 1891 2506 
Q 1588 2506 1341 2325 
Q 1094 2144 997 1884 
L 997 1666 
z
" transform="scale(0.015625)"/>
       </defs>
       <use xlink:href="#Roboto-Regular-2212"/>
       <use xlink:href="#Roboto-Regular-36" x="57.177734"/>
       <use xlink:href="#Roboto-Regular-30" x="113.378906"/>
      </g>
     </g>
    </g>
    <g id="xtick_4">
     <g id="line2d_6">
      <g>
       <use xlink:href="#m9d78f9271f" x="254.251" y="299.968" style="fill: #c2c1c1; stroke: #c2c1c1; stroke-width: 0.8"/>
      </g>
     </g>
     <g id="text_4">
      <!-- 0 -->
      <g style="fill: #191919" transform="translate(251.440844 314.468) scale(0.1 -0.1)">
       <use xlink:href="#Roboto-Regular-30"/>
      </g>
     </g>
    </g>
    <g id="xtick_5">
     <g id="line2d_7">
      <g>
       <use xlink:href="#m9d78f9271f" x="318.780667" y="299.968" style="fill: #c2c1c1; stroke: #c2c1c1; stroke-width: 0.8"/>
      </g>
     </g>
     <g id="text_5">
      <!-- 60 -->
      <g style="fill: #191919" transform="translate(313.160354 314.468) scale(0.1 -0.1)">
       <use xlink:href="#Roboto-Regular-36"/>
       <use xlink:href="#Roboto-Regular-30" x="56.201172"/>
      </g>
     </g>
    </g>
    <g id="xtick_6">
     <g id="line2d_8">
      <g>
       <use xlink:href="#m9d78f9271f" x="383.310333" y="299.968" style="fill: #c2c1c1; stroke: #c2c1c1; stroke-width: 0.8"/>
      </g>
     </g>
     <g id="text_6">
      <!-- 120 -->
      <g style="fill: #191919" transform="translate(374.879865 314.468) scale(0.1 -0.1)">
       <use xlink:href="#Roboto-Regular-31"/>
       <use xlink:href="#Roboto-Regular-32" x="56.201172"/>
       <use xlink:href="#Roboto-Regular-30" x="112.402344"/>
      </g>
     </g>
    </g>
    <g id="xtick_7">
     <g id="line2d_9">
      <g>
       <use xlink:href="#m9d78f9271f" x="447.84" y="299.968" style="fill: #c2c1c1; stroke: #c2c1c1; stroke-width: 0.8"/>
      </g>
     </g>
     <g id="text_7">
      <!-- 180 -->
      <g style="fill: #191919" transform="translate(439.409531 314.468) scale(0.1 -0.1)">
       <use xlink:href="#Roboto-Regular-31"/>
       <use xlink:href="#Roboto-Regular-38" x="56.201172"/>
       <use xlink:href="#Roboto-Regular-30" x="112.402344"/>
      </g>
     </g>
    </g>
    <g id="text_8">
     <!-- THR203 HG1-OG1-CB-CG2 Dihedral [°] -->
     <g style="fill: #191919" transform="translate(148.072563 330.103) scale(0.12 -0.12)">
      <defs>
       <path id="Roboto-Black-54" d="M 116 3703 
L 116 4550 
L 3919 4550 
L 3919 3703 
L 2550 3703 
L 2550 0 
L 1453 0 
L 1453 3703 
L 116 3703 
z
" transform="scale(0.015625)"/>
       <path id="Roboto-Black-48" d="M 3056 0 
L 3056 1900 
L 1444 1900 
L 1444 0 
L 347 0 
L 347 4550 
L 1444 4550 
L 1444 2744 
L 3056 2744 
L 3056 4550 
L 4150 4550 
L 4150 0 
L 3056 0 
z
" transform="scale(0.015625)"/>
       <path id="Roboto-Black-52" d="M 2838 0 
L 2034 1606 
L 1444 1606 
L 1444 0 
L 347 0 
L 347 4550 
L 2138 4550 
Q 2925 4550 3392 4198 
Q 3859 3847 3859 3175 
Q 3859 2650 3642 2350 
Q 3425 2050 3066 1881 
L 4013 47 
L 4013 0 
L 2838 0 
z
M 1444 3703 
L 1444 2453 
L 2138 2453 
Q 2763 2453 2763 3075 
Q 2763 3694 2156 3703 
L 1444 3703 
z
" transform="scale(0.015625)"/>
       <path id="Roboto-Black-32" d="M 3456 813 
L 3456 0 
L 281 0 
L 281 688 
L 1744 2225 
Q 2284 2847 2284 3203 
Q 2284 3803 1784 3803 
Q 1538 3803 1391 3598 
Q 1244 3394 1244 3088 
L 188 3088 
Q 188 3716 636 4166 
Q 1084 4616 1809 4616 
Q 2563 4616 2952 4267 
Q 3341 3919 3341 3297 
Q 3341 2822 3052 2409 
Q 2763 1997 2250 1491 
L 1663 813 
L 3456 813 
z
" transform="scale(0.015625)"/>
       <path id="Roboto-Black-30" d="M 3441 1859 
Q 3441 875 3000 406 
Q 2559 -63 1859 -63 
Q 1156 -63 712 406 
Q 269 875 269 1859 
L 269 2691 
Q 269 3675 709 4144 
Q 1150 4613 1853 4613 
Q 2553 4613 2997 4144 
Q 3441 3675 3441 2691 
L 3441 1859 
z
M 2388 2825 
Q 2388 3369 2244 3584 
Q 2100 3800 1853 3800 
Q 1609 3800 1467 3589 
Q 1325 3378 1322 2850 
L 1322 1731 
Q 1322 1178 1465 964 
Q 1609 750 1859 750 
Q 2100 750 2242 959 
Q 2384 1169 2388 1706 
L 2388 2825 
z
" transform="scale(0.015625)"/>
       <path id="Roboto-Black-33" d="M 1241 1931 
L 1241 2716 
L 1738 2716 
Q 2328 2716 2328 3294 
Q 2328 3497 2198 3650 
Q 2069 3803 1791 3803 
Q 1600 3803 1437 3690 
Q 1275 3578 1275 3378 
L 219 3378 
Q 219 3956 681 4286 
Q 1144 4616 1756 4616 
Q 2481 4616 2931 4284 
Q 3381 3953 3381 3316 
Q 3381 3006 3190 2747 
Q 3000 2488 2681 2338 
Q 3041 2206 3248 1939 
Q 3456 1672 3456 1278 
Q 3456 638 2968 287 
Q 2481 -63 1756 -63 
Q 1375 -63 1006 75 
Q 638 213 394 506 
Q 150 800 150 1266 
L 1206 1266 
Q 1206 1047 1379 898 
Q 1553 750 1791 750 
Q 2081 750 2240 909 
Q 2400 1069 2400 1300 
Q 2400 1644 2228 1787 
Q 2056 1931 1753 1931 
L 1241 1931 
z
" transform="scale(0.015625)"/>
       <path id="Roboto-Black-20" transform="scale(0.015625)"/>
       <path id="Roboto-Black-47" d="M 4069 2431 
L 4069 563 
Q 3894 369 3444 153 
Q 2994 -63 2259 -63 
Q 1353 -63 804 510 
Q 256 1084 256 2147 
L 256 2400 
Q 256 3463 803 4039 
Q 1350 4616 2200 4616 
Q 3141 4616 3569 4181 
Q 3997 3747 4066 3066 
L 3013 3066 
Q 2963 3403 2791 3587 
Q 2619 3772 2238 3772 
Q 1844 3772 1609 3437 
Q 1375 3103 1372 2425 
L 1372 2147 
Q 1372 1463 1614 1122 
Q 1856 781 2338 781 
Q 2763 781 2972 972 
L 2972 1678 
L 2209 1678 
L 2209 2431 
L 4069 2431 
z
" transform="scale(0.015625)"/>
       <path id="Roboto-Black-31" d="M 2613 4550 
L 2613 0 
L 1559 0 
L 1559 3363 
L 522 3059 
L 522 3859 
L 2516 4550 
L 2613 4550 
z
" transform="scale(0.015625)"/>
       <path id="Roboto-Black-2d" d="M 2353 2369 
L 2353 1553 
L 475 1553 
L 475 2369 
L 2353 2369 
z
" transform="scale(0.015625)"/>
       <path id="Roboto-Black-4f" d="M 4197 2181 
Q 4197 1138 3640 537 
Q 3084 -63 2213 -63 
Q 1334 -63 776 537 
Q 219 1138 219 2181 
L 219 2366 
Q 219 3409 773 4011 
Q 1328 4613 2206 4613 
Q 3078 4613 3637 4011 
Q 4197 3409 4197 2366 
L 4197 2181 
z
M 3084 2372 
Q 3084 3059 2865 3406 
Q 2647 3753 2206 3753 
Q 1388 3753 1338 2534 
L 1334 2181 
Q 1334 1513 1554 1153 
Q 1775 794 2213 794 
Q 2628 794 2854 1148 
Q 3081 1503 3084 2163 
L 3084 2372 
z
" transform="scale(0.015625)"/>
       <path id="Roboto-Black-43" d="M 2934 1541 
L 4028 1541 
Q 3994 825 3491 381 
Q 2988 -63 2147 -63 
Q 1244 -63 737 518 
Q 231 1100 219 2100 
L 219 2397 
Q 219 3425 742 4020 
Q 1266 4616 2131 4616 
Q 3022 4616 3497 4152 
Q 3972 3688 4034 2978 
L 2941 2978 
Q 2928 3363 2748 3559 
Q 2569 3756 2131 3756 
Q 1728 3756 1531 3448 
Q 1334 3141 1331 2428 
L 1331 2150 
Q 1331 1425 1515 1111 
Q 1700 797 2147 797 
Q 2913 797 2934 1541 
z
" transform="scale(0.015625)"/>
       <path id="Roboto-Black-42" d="M 3869 1347 
Q 3869 678 3448 342 
Q 3028 6 2191 0 
L 347 0 
L 347 4550 
L 1981 4550 
Q 2822 4550 3298 4240 
Q 3775 3931 3775 3294 
Q 3775 2984 3631 2720 
Q 3488 2456 3134 2322 
Q 3538 2219 3703 1939 
Q 3869 1659 3869 1347 
z
M 1444 3703 
L 1444 2653 
L 1975 2653 
Q 2356 2653 2517 2781 
Q 2678 2909 2678 3163 
Q 2678 3691 2013 3703 
L 1444 3703 
z
M 2778 1363 
Q 2778 1919 2241 1934 
L 1444 1934 
L 1444 844 
L 2159 844 
Q 2494 844 2636 995 
Q 2778 1147 2778 1363 
z
" transform="scale(0.015625)"/>
       <path id="Roboto-Black-44" d="M 347 0 
L 347 4550 
L 1809 4550 
Q 2425 4550 2901 4273 
Q 3378 3997 3648 3505 
Q 3919 3013 3919 2369 
L 3919 2178 
Q 3919 1219 3333 611 
Q 2747 3 1831 0 
L 347 0 
z
M 1444 3703 
L 1444 844 
L 1825 844 
Q 2744 844 2797 2028 
L 2800 2375 
Q 2800 3675 1850 3703 
L 1444 3703 
z
" transform="scale(0.015625)"/>
       <path id="Roboto-Black-69" d="M 291 4253 
Q 291 4478 453 4622 
Q 616 4766 875 4766 
Q 1134 4766 1296 4622 
Q 1459 4478 1459 4253 
Q 1459 4028 1296 3884 
Q 1134 3741 875 3741 
Q 616 3741 453 3884 
Q 291 4028 291 4253 
z
M 1409 3381 
L 1409 0 
L 353 0 
L 353 3381 
L 1409 3381 
z
" transform="scale(0.015625)"/>
       <path id="Roboto-Black-68" d="M 1784 2631 
Q 1466 2631 1328 2428 
L 1328 0 
L 275 0 
L 275 4800 
L 1328 4800 
L 1328 3022 
Q 1669 3444 2191 3444 
Q 2691 3444 3006 3144 
Q 3322 2844 3325 2116 
L 3325 0 
L 2266 0 
L 2266 2106 
Q 2266 2416 2139 2523 
Q 2013 2631 1784 2631 
z
" transform="scale(0.015625)"/>
       <path id="Roboto-Black-65" d="M 3266 531 
Q 3109 309 2765 123 
Q 2422 -63 1934 -63 
Q 1109 -63 651 421 
Q 194 906 191 1569 
L 191 1697 
Q 191 2438 600 2941 
Q 1009 3444 1822 3444 
Q 2541 3444 2948 2997 
Q 3356 2550 3356 1788 
L 3356 1359 
L 1266 1359 
Q 1322 1078 1512 914 
Q 1703 750 2003 750 
Q 2506 750 2788 1100 
L 3266 531 
z
M 1813 2631 
Q 1544 2631 1422 2457 
Q 1300 2284 1266 2019 
L 2328 2019 
L 2328 2100 
Q 2334 2631 1813 2631 
z
" transform="scale(0.015625)"/>
       <path id="Roboto-Black-64" d="M 2350 0 
L 2300 363 
Q 1969 -63 1475 -63 
Q 834 -63 501 420 
Q 169 903 166 1638 
L 166 1716 
Q 166 2488 500 2966 
Q 834 3444 1481 3444 
Q 1934 3444 2241 3091 
L 2241 4800 
L 3300 4800 
L 3300 0 
L 2350 0 
z
M 1219 1650 
Q 1219 1269 1330 1009 
Q 1441 750 1744 750 
Q 2094 750 2241 1041 
L 2241 2338 
Q 2100 2631 1750 2631 
Q 1456 2631 1337 2372 
Q 1219 2113 1219 1650 
z
" transform="scale(0.015625)"/>
       <path id="Roboto-Black-72" d="M 1994 2453 
Q 1500 2453 1359 2144 
L 1359 0 
L 306 0 
L 306 3381 
L 1291 3381 
L 1325 2950 
Q 1591 3444 2069 3444 
Q 2244 3444 2359 3406 
L 2341 2428 
L 1994 2453 
z
" transform="scale(0.015625)"/>
       <path id="Roboto-Black-61" d="M 2200 0 
Q 2141 122 2103 303 
Q 1813 -63 1291 -63 
Q 822 -63 483 220 
Q 144 503 144 953 
Q 144 1469 520 1764 
Q 897 2059 1694 2066 
L 2053 2066 
L 2053 2244 
Q 2053 2709 1650 2709 
Q 1275 2709 1275 2341 
L 222 2341 
Q 222 2813 625 3128 
Q 1028 3444 1706 3444 
Q 2309 3444 2711 3142 
Q 3113 2841 3113 2238 
L 3113 766 
Q 3119 306 3256 53 
L 3256 0 
L 2200 0 
z
M 1541 688 
Q 1734 688 1865 770 
Q 1997 853 2053 956 
L 2053 1503 
L 1722 1503 
Q 1425 1503 1311 1351 
Q 1197 1200 1197 1009 
Q 1197 866 1295 777 
Q 1394 688 1541 688 
z
" transform="scale(0.015625)"/>
       <path id="Roboto-Black-6c" d="M 1409 4800 
L 1409 0 
L 353 0 
L 353 4800 
L 1409 4800 
z
" transform="scale(0.015625)"/>
       <path id="Roboto-Black-5b" d="M 1766 5331 
L 1766 4563 
L 1397 4563 
L 1397 -325 
L 1766 -325 
L 1766 -1091 
L 338 -1091 
L 338 5331 
L 1766 5331 
z
" transform="scale(0.015625)"/>
       <path id="Roboto-Black-b0" d="M 394 3734 
Q 394 4094 651 4353 
Q 909 4613 1269 4613 
Q 1625 4613 1878 4353 
Q 2131 4094 2131 3734 
Q 2131 3375 1878 3122 
Q 1625 2869 1269 2869 
Q 909 2869 651 3122 
Q 394 3375 394 3734 
z
M 875 3734 
Q 875 3569 992 3458 
Q 1109 3347 1268 3347 
Q 1428 3347 1537 3456 
Q 1647 3566 1647 3734 
Q 1647 3906 1537 4020 
Q 1428 4134 1268 4134 
Q 1109 4134 992 4020 
Q 875 3906 875 3734 
z
" transform="scale(0.015625)"/>
       <path id="Roboto-Black-5d" d="M 44 4563 
L 44 5331 
L 1472 5331 
L 1472 -1091 
L 44 -1091 
L 44 -325 
L 419 -325 
L 419 4563 
L 44 4563 
z
" transform="scale(0.015625)"/>
      </defs>
      <use xlink:href="#Roboto-Black-54"/>
      <use xlink:href="#Roboto-Black-48" x="63.085938"/>
      <use xlink:href="#Roboto-Black-52" x="133.349609"/>
      <use xlink:href="#Roboto-Black-32" x="198.583984"/>
      <use xlink:href="#Roboto-Black-30" x="256.542969"/>
      <use xlink:href="#Roboto-Black-33" x="314.501953"/>
      <use xlink:href="#Roboto-Black-20" x="372.460938"/>
      <use xlink:href="#Roboto-Black-48" x="397.363281"/>
      <use xlink:href="#Roboto-Black-47" x="467.626953"/>
      <use xlink:href="#Roboto-Black-31" x="535.791016"/>
      <use xlink:href="#Roboto-Black-2d" x="593.75"/>
      <use xlink:href="#Roboto-Black-4f" x="638.720703"/>
      <use xlink:href="#Roboto-Black-47" x="707.763672"/>
      <use xlink:href="#Roboto-Black-31" x="775.927734"/>
      <use xlink:href="#Roboto-Black-2d" x="833.886719"/>
      <use xlink:href="#Roboto-Black-43" x="878.857422"/>
      <use xlink:href="#Roboto-Black-42" x="944.482422"/>
      <use xlink:href="#Roboto-Black-2d" x="1009.033203"/>
      <use xlink:href="#Roboto-Black-43" x="1054.003906"/>
      <use xlink:href="#Roboto-Black-47" x="1119.628906"/>
      <use xlink:href="#Roboto-Black-32" x="1187.792969"/>
      <use xlink:href="#Roboto-Black-20" x="1245.751953"/>
      <use xlink:href="#Roboto-Black-44" x="1270.654297"/>
      <use xlink:href="#Roboto-Black-69" x="1335.351562"/>
      <use xlink:href="#Roboto-Black-68" x="1362.841797"/>
      <use xlink:href="#Roboto-Black-65" x="1419.287109"/>
      <use xlink:href="#Roboto-Black-64" x="1473.779297"/>
      <use xlink:href="#Roboto-Black-72" x="1530.029297"/>
      <use xlink:href="#Roboto-Black-61" x="1567.919922"/>
      <use xlink:href="#Roboto-Black-6c" x="1621.044922"/>
      <use xlink:href="#Roboto-Black-20" x="1648.535156"/>
      <use xlink:href="#Roboto-Black-5b" x="1673.4375"/>
      <use xlink:href="#Roboto-Black-b0" x="1701.660156"/>
      <use xlink:href="#Roboto-Black-5d" x="1741.40625"/>
     </g>
    </g>
   </g>
   <g id="matplotlib.axis_2">
    <g id="ytick_1">
     <g id="line2d_10">
      <defs>
       <path id="m58ab838a13" d="M 0 0 
L -3.5 0 
" style="stroke: #c2c1c1; stroke-width: 0.8"/>
      </defs>
      <g>
       <use xlink:href="#m58ab838a13" x="60.662" y="299.968" style="fill: #c2c1c1; stroke: #c2c1c1; stroke-width: 0.8"/>
      </g>
     </g>
     <g id="text_9">
      <!-- 0.000 -->
      <g style="fill: #191919" transform="translate(28.54325 303.718) scale(0.1 -0.1)">
       <defs>
        <path id="Roboto-Regular-2e" d="M 450 306 
Q 450 453 542 554 
Q 634 656 809 656 
Q 984 656 1076 554 
Q 1169 453 1169 306 
Q 1169 163 1076 62 
Q 984 -38 809 -38 
Q 634 -38 542 62 
Q 450 163 450 306 
z
" transform="scale(0.015625)"/>
       </defs>
       <use xlink:href="#Roboto-Regular-30"/>
       <use xlink:href="#Roboto-Regular-2e" x="56.201172"/>
       <use xlink:href="#Roboto-Regular-30" x="82.568359"/>
       <use xlink:href="#Roboto-Regular-30" x="138.769531"/>
       <use xlink:href="#Roboto-Regular-30" x="194.970703"/>
      </g>
     </g>
    </g>
    <g id="ytick_2">
     <g id="line2d_11">
      <g>
       <use xlink:href="#m58ab838a13" x="60.662" y="266.362042" style="fill: #c2c1c1; stroke: #c2c1c1; stroke-width: 0.8"/>
      </g>
     </g>
     <g id="text_10">
      <!-- 0.002 -->
      <g style="fill: #191919" transform="translate(28.54325 270.112042) scale(0.1 -0.1)">
       <use xlink:href="#Roboto-Regular-30"/>
       <use xlink:href="#Roboto-Regular-2e" x="56.201172"/>
       <use xlink:href="#Roboto-Regular-30" x="82.568359"/>
       <use xlink:href="#Roboto-Regular-30" x="138.769531"/>
       <use xlink:href="#Roboto-Regular-32" x="194.970703"/>
      </g>
     </g>
    </g>
    <g id="ytick_3">
     <g id="line2d_12">
      <g>
       <use xlink:href="#m58ab838a13" x="60.662" y="232.756083" style="fill: #c2c1c1; stroke: #c2c1c1; stroke-width: 0.8"/>
      </g>
     </g>
     <g id="text_11">
      <!-- 0.004 -->
      <g style="fill: #191919" transform="translate(28.54325 236.506083) scale(0.1 -0.1)">
       <defs>
        <path id="Roboto-Regular-34" d="M 166 1397 
L 2203 4550 
L 2819 4550 
L 2819 1531 
L 3453 1531 
L 3453 1056 
L 2819 1056 
L 2819 0 
L 2241 0 
L 2241 1056 
L 166 1056 
L 166 1397 
z
M 822 1531 
L 2241 1531 
L 2241 3766 
L 2169 3638 
L 822 1531 
z
" transform="scale(0.015625)"/>
       </defs>
       <use xlink:href="#Roboto-Regular-30"/>
       <use xlink:href="#Roboto-Regular-2e" x="56.201172"/>
       <use xlink:href="#Roboto-Regular-30" x="82.568359"/>
       <use xlink:href="#Roboto-Regular-30" x="138.769531"/>
       <use xlink:href="#Roboto-Regular-34" x="194.970703"/>
      </g>
     </g>
    </g>
    <g id="ytick_4">
     <g id="line2d_13">
      <g>
       <use xlink:href="#m58ab838a13" x="60.662" y="199.150125" style="fill: #c2c1c1; stroke: #c2c1c1; stroke-width: 0.8"/>
      </g>
     </g>
     <g id="text_12">
      <!-- 0.006 -->
      <g style="fill: #191919" transform="translate(28.54325 202.900125) scale(0.1 -0.1)">
       <use xlink:href="#Roboto-Regular-30"/>
       <use xlink:href="#Roboto-Regular-2e" x="56.201172"/>
       <use xlink:href="#Roboto-Regular-30" x="82.568359"/>
       <use xlink:href="#Roboto-Regular-30" x="138.769531"/>
       <use xlink:href="#Roboto-Regular-36" x="194.970703"/>
      </g>
     </g>
    </g>
    <g id="ytick_5">
     <g id="line2d_14">
      <g>
       <use xlink:href="#m58ab838a13" x="60.662" y="165.544167" style="fill: #c2c1c1; stroke: #c2c1c1; stroke-width: 0.8"/>
      </g>
     </g>
     <g id="text_13">
      <!-- 0.008 -->
      <g style="fill: #191919" transform="translate(28.54325 169.294167) scale(0.1 -0.1)">
       <use xlink:href="#Roboto-Regular-30"/>
       <use xlink:href="#Roboto-Regular-2e" x="56.201172"/>
       <use xlink:href="#Roboto-Regular-30" x="82.568359"/>
       <use xlink:href="#Roboto-Regular-30" x="138.769531"/>
       <use xlink:href="#Roboto-Regular-38" x="194.970703"/>
      </g>
     </g>
    </g>
    <g id="ytick_6">
     <g id="line2d_15">
      <g>
       <use xlink:href="#m58ab838a13" x="60.662" y="131.938209" style="fill: #c2c1c1; stroke: #c2c1c1; stroke-width: 0.8"/>
      </g>
     </g>
     <g id="text_14">
      <!-- 0.010 -->
      <g style="fill: #191919" transform="translate(28.54325 135.688209) scale(0.1 -0.1)">
       <use xlink:href="#Roboto-Regular-30"/>
       <use xlink:href="#Roboto-Regular-2e" x="56.201172"/>
       <use xlink:href="#Roboto-Regular-30" x="82.568359"/>
       <use xlink:href="#Roboto-Regular-31" x="138.769531"/>
       <use xlink:href="#Roboto-Regular-30" x="194.970703"/>
      </g>
     </g>
    </g>
    <g id="ytick_7">
     <g id="line2d_16">
      <g>
       <use xlink:href="#m58ab838a13" x="60.662" y="98.33225" style="fill: #c2c1c1; stroke: #c2c1c1; stroke-width: 0.8"/>
      </g>
     </g>
     <g id="text_15">
      <!-- 0.012 -->
      <g style="fill: #191919" transform="translate(28.54325 102.08225) scale(0.1 -0.1)">
       <use xlink:href="#Roboto-Regular-30"/>
       <use xlink:href="#Roboto-Regular-2e" x="56.201172"/>
       <use xlink:href="#Roboto-Regular-30" x="82.568359"/>
       <use xlink:href="#Roboto-Regular-31" x="138.769531"/>
       <use xlink:href="#Roboto-Regular-32" x="194.970703"/>
      </g>
     </g>
    </g>
    <g id="ytick_8">
     <g id="line2d_17">
      <g>
       <use xlink:href="#m58ab838a13" x="60.662" y="64.726292" style="fill: #c2c1c1; stroke: #c2c1c1; stroke-width: 0.8"/>
      </g>
     </g>
     <g id="text_16">
      <!-- 0.014 -->
      <g style="fill: #191919" transform="translate(28.54325 68.476292) scale(0.1 -0.1)">
       <use xlink:href="#Roboto-Regular-30"/>
       <use xlink:href="#Roboto-Regular-2e" x="56.201172"/>
       <use xlink:href="#Roboto-Regular-30" x="82.568359"/>
       <use xlink:href="#Roboto-Regular-31" x="138.769531"/>
       <use xlink:href="#Roboto-Regular-34" x="194.970703"/>
      </g>
     </g>
    </g>
    <g id="ytick_9">
     <g id="line2d_18">
      <g>
       <use xlink:href="#m58ab838a13" x="60.662" y="31.120334" style="fill: #c2c1c1; stroke: #c2c1c1; stroke-width: 0.8"/>
      </g>
     </g>
     <g id="text_17">
      <!-- 0.016 -->
      <g style="fill: #191919" transform="translate(28.54325 34.870334) scale(0.1 -0.1)">
       <use xlink:href="#Roboto-Regular-30"/>
       <use xlink:href="#Roboto-Regular-2e" x="56.201172"/>
       <use xlink:href="#Roboto-Regular-30" x="82.568359"/>
       <use xlink:href="#Roboto-Regular-31" x="138.769531"/>
       <use xlink:href="#Roboto-Regular-36" x="194.970703"/>
      </g>
     </g>
    </g>
    <g id="text_18">
     <!-- Density -->
     <g style="fill: #191919" transform="translate(21.982 176.899625) rotate(-90) scale(0.12 -0.12)">
      <defs>
       <path id="Roboto-Black-6e" d="M 1788 2631 
Q 1478 2631 1331 2391 
L 1331 0 
L 278 0 
L 278 3381 
L 1266 3381 
L 1300 2988 
Q 1653 3444 2263 3444 
Q 2731 3444 3026 3156 
Q 3322 2869 3325 2144 
L 3325 0 
L 2266 0 
L 2266 2131 
Q 2266 2438 2141 2534 
Q 2016 2631 1788 2631 
z
" transform="scale(0.015625)"/>
       <path id="Roboto-Black-73" d="M 2069 950 
Q 2069 1084 1920 1167 
Q 1772 1250 1391 1334 
Q 897 1444 556 1689 
Q 216 1934 216 2375 
Q 216 2803 580 3123 
Q 944 3444 1609 3444 
Q 2291 3444 2689 3137 
Q 3088 2831 3088 2344 
L 2034 2344 
Q 2034 2750 1606 2750 
Q 1444 2750 1328 2662 
Q 1213 2575 1213 2428 
Q 1213 2166 1773 2059 
Q 2334 1953 2709 1728 
Q 3084 1503 3084 981 
Q 3084 534 2686 235 
Q 2288 -63 1606 -63 
Q 878 -63 495 306 
Q 113 675 113 1084 
L 1094 1084 
Q 1103 850 1251 742 
Q 1400 634 1634 634 
Q 2069 634 2069 950 
z
" transform="scale(0.015625)"/>
       <path id="Roboto-Black-74" d="M 2128 28 
Q 1850 -63 1534 -63 
Q 1025 -63 747 179 
Q 469 422 469 972 
L 469 2650 
L 41 2650 
L 41 3381 
L 469 3381 
L 469 4222 
L 1522 4222 
L 1522 3381 
L 2078 3381 
L 2078 2650 
L 1522 2650 
L 1522 1103 
Q 1522 900 1597 831 
Q 1672 763 1866 763 
Q 2019 763 2128 781 
L 2128 28 
z
" transform="scale(0.015625)"/>
       <path id="Roboto-Black-79" d="M 1981 -503 
Q 1925 -675 1811 -875 
Q 1697 -1075 1473 -1220 
Q 1250 -1366 866 -1366 
L 666 -1356 
L 428 -1303 
L 428 -550 
L 566 -550 
Q 819 -550 925 -475 
Q 1031 -400 1078 -256 
L 1166 -34 
L -16 3381 
L 1113 3381 
L 1650 1472 
L 2209 3381 
L 3341 3381 
L 1981 -503 
z
" transform="scale(0.015625)"/>
      </defs>
      <use xlink:href="#Roboto-Black-44"/>
      <use xlink:href="#Roboto-Black-65" x="64.697266"/>
      <use xlink:href="#Roboto-Black-6e" x="119.189453"/>
      <use xlink:href="#Roboto-Black-73" x="175.634766"/>
      <use xlink:href="#Roboto-Black-69" x="226.904297"/>
      <use xlink:href="#Roboto-Black-74" x="254.394531"/>
      <use xlink:href="#Roboto-Black-79" x="288.769531"/>
     </g>
    </g>
   </g>
   <g id="line2d_19">
    <path d="M 60.662 299.685288 
L 67.63818 299.58442 
L 73.064098 299.310999 
L 77.327319 298.876666 
L 80.427844 298.359556 
L 83.140803 297.705494 
L 85.466196 296.948932 
L 87.79159 295.968871 
L 90.116983 294.724492 
L 92.054811 293.458733 
L 93.992639 291.967032 
L 96.318032 289.866256 
L 98.643425 287.430849 
L 101.356384 284.210691 
L 104.844474 279.648933 
L 109.882827 273.013977 
L 112.20822 270.334348 
L 114.146048 268.465489 
L 115.69631 267.276336 
L 117.246573 266.40282 
L 118.409269 265.973621 
L 119.571966 265.748266 
L 120.734663 265.731787 
L 121.897359 265.925194 
L 123.060056 266.32543 
L 124.222753 266.925458 
L 125.773015 268.017125 
L 127.323277 269.409562 
L 129.261105 271.505939 
L 131.586498 274.41181 
L 135.462154 279.725706 
L 139.33781 284.950257 
L 142.050769 288.232704 
L 144.376162 290.692449 
L 146.701556 292.790862 
L 148.639383 294.262354 
L 150.577211 295.494253 
L 152.902605 296.684442 
L 155.227998 297.600543 
L 157.553391 298.287954 
L 160.26635 298.859496 
L 163.366875 299.284845 
L 167.242531 299.585082 
L 172.668448 299.759247 
L 181.582456 299.79 
L 197.472645 299.607696 
L 210.649874 299.255503 
L 221.889275 298.748937 
L 227.315193 298.304146 
L 231.190849 297.788129 
L 234.678939 297.099044 
L 237.779463 296.241985 
L 240.492422 295.249789 
L 242.817816 294.17739 
L 245.143209 292.857281 
L 247.081037 291.532757 
L 249.018865 289.968918 
L 250.956693 288.128121 
L 252.894521 285.968939 
L 254.832348 283.447224 
L 256.770176 280.517643 
L 258.708004 277.135643 
L 260.645832 273.259753 
L 262.58366 268.854135 
L 264.521487 263.891286 
L 266.459315 258.35477 
L 268.784709 250.950959 
L 271.110102 242.74413 
L 273.823061 232.242249 
L 276.923586 219.23463 
L 281.574372 198.553104 
L 286.225159 178.087234 
L 288.938118 167.113115 
L 290.875946 160.031801 
L 292.813774 153.76611 
L 294.364036 149.441328 
L 295.914298 145.801046 
L 297.076995 143.554451 
L 298.239692 141.744249 
L 299.402388 140.385557 
L 300.17752 139.736049 
L 300.952651 139.294057 
L 301.727782 139.06068 
L 302.502913 139.036099 
L 303.278044 139.219581 
L 304.053175 139.609502 
L 304.828306 140.203371 
L 305.991003 141.469069 
L 307.1537 143.171386 
L 308.316396 145.292008 
L 309.479093 147.809252 
L 311.029355 151.739534 
L 312.579618 156.265393 
L 314.517445 162.650469 
L 316.842839 171.180973 
L 319.943363 183.583925 
L 330.020068 224.835903 
L 332.345461 233.143633 
L 334.283289 239.38367 
L 336.221117 244.879658 
L 337.771379 248.663442 
L 339.321642 251.837787 
L 340.484338 253.782085 
L 341.647035 255.323267 
L 342.809732 256.434786 
L 343.584863 256.923851 
L 344.359994 257.202051 
L 345.135125 257.26143 
L 345.910256 257.094109 
L 346.685387 256.692354 
L 347.460519 256.048646 
L 348.23565 255.155777 
L 349.010781 254.006952 
L 350.173477 251.790255 
L 351.336174 248.965456 
L 352.498871 245.518713 
L 353.661568 241.44178 
L 355.21183 235.024306 
L 356.762092 227.504725 
L 358.312354 218.933771 
L 360.250182 206.876766 
L 362.575576 190.787752 
L 366.063666 164.719406 
L 369.551756 138.966401 
L 371.489584 126.062843 
L 373.039846 116.985941 
L 374.590108 109.329155 
L 375.752805 104.671869 
L 376.915502 101.045419 
L 377.690633 99.236526 
L 378.465764 97.934213 
L 379.240895 97.150596 
L 379.62846 96.955901 
L 380.016026 96.893453 
L 380.403592 96.963528 
L 380.791157 97.166124 
L 381.566288 97.96747 
L 382.341419 99.291896 
L 383.116551 101.129438 
L 383.891682 103.465907 
L 385.054378 107.865232 
L 386.217075 113.26831 
L 387.767337 121.870088 
L 389.3176 131.83029 
L 391.255427 145.750877 
L 394.355952 170.02659 
L 399.006739 206.634637 
L 401.332132 223.357789 
L 403.26996 235.985326 
L 405.207788 247.255177 
L 407.145616 257.104587 
L 408.695878 263.967673 
L 410.24614 269.962428 
L 411.796402 275.140696 
L 413.346665 279.566747 
L 414.896927 283.312316 
L 416.447189 286.452358 
L 417.997451 289.061595 
L 419.547714 291.211867 
L 421.097976 292.97025 
L 422.648238 294.397844 
L 424.198501 295.549139 
L 426.136328 296.671752 
L 428.074156 297.515443 
L 430.39955 298.248779 
L 433.112509 298.82582 
L 436.213033 299.236722 
L 440.088689 299.518151 
L 445.514607 299.671498 
L 447.84 299.685288 
L 447.84 299.685288 
" clip-path="url(#pc66abb6685)" style="fill: none; stroke: #f99752; stroke-width: 2.5; stroke-linecap: square"/>
   </g>
   <g id="patch_3">
    <path d="M 60.662 299.968 
L 60.662 12.96 
" style="fill: none; stroke: #c2c1c1; stroke-width: 0.8; stroke-linejoin: miter; stroke-linecap: square"/>
   </g>
   <g id="patch_4">
    <path d="M 447.84 299.968 
L 447.84 12.96 
" style="fill: none; stroke: #c2c1c1; stroke-width: 0.8; stroke-linejoin: miter; stroke-linecap: square"/>
   </g>
   <g id="patch_5">
    <path d="M 60.662 299.968 
L 447.84 299.968 
" style="fill: none; stroke: #c2c1c1; stroke-width: 0.8; stroke-linejoin: miter; stroke-linecap: square"/>
   </g>
   <g id="patch_6">
    <path d="M 60.662 12.96 
L 447.84 12.96 
" style="fill: none; stroke: #c2c1c1; stroke-width: 0.8; stroke-linejoin: miter; stroke-linecap: square"/>
   </g>
   <g id="legend_1">
    <g id="line2d_20">
     <path d="M 356.8875 28.56 
L 368.8875 28.56 
L 380.8875 28.56 
" style="fill: none; stroke: #1e2e79; stroke-width: 2.5; stroke-linecap: square"/>
    </g>
    <g id="text_19">
     <!-- Reduced -->
     <g transform="translate(390.4875 32.76) scale(0.12 -0.12)">
      <defs>
       <path id="Roboto-Regular-52" d="M 3188 0 
L 2200 1844 
L 1131 1844 
L 1131 0 
L 528 0 
L 528 4550 
L 2034 4550 
Q 2800 4550 3214 4200 
Q 3628 3850 3628 3184 
Q 3628 2759 3398 2442 
Q 3169 2125 2763 1969 
L 3831 38 
L 3831 0 
L 3188 0 
z
M 1131 4056 
L 1131 2334 
L 2053 2334 
Q 2538 2334 2783 2582 
Q 3028 2831 3028 3184 
Q 3028 3578 2792 3817 
Q 2556 4056 2034 4056 
L 1131 4056 
z
" transform="scale(0.015625)"/>
       <path id="Roboto-Regular-65" d="M 3116 591 
Q 2950 341 2647 139 
Q 2344 -63 1844 -63 
Q 1138 -63 714 396 
Q 291 856 291 1572 
L 291 1703 
Q 291 2256 502 2645 
Q 713 3034 1050 3239 
Q 1388 3444 1769 3444 
Q 2494 3444 2826 2970 
Q 3159 2497 3159 1788 
L 3159 1528 
L 872 1528 
Q 884 1063 1148 736 
Q 1413 409 1875 409 
Q 2181 409 2393 534 
Q 2606 659 2766 869 
L 3116 591 
z
M 1769 2969 
Q 1425 2969 1187 2719 
Q 950 2469 891 2000 
L 2581 2000 
L 2581 2044 
Q 2559 2381 2386 2675 
Q 2213 2969 1769 2969 
z
" transform="scale(0.015625)"/>
       <path id="Roboto-Regular-64" d="M 2622 0 
L 2594 363 
Q 2247 -63 1628 -63 
Q 1034 -63 668 418 
Q 303 900 297 1628 
L 297 1719 
Q 297 2494 664 2969 
Q 1031 3444 1634 3444 
Q 2231 3444 2572 3044 
L 2572 4800 
L 3153 4800 
L 3153 0 
L 2622 0 
z
M 878 1653 
Q 878 1150 1090 789 
Q 1303 428 1772 428 
Q 2309 428 2572 919 
L 2572 2475 
Q 2313 2956 1778 2956 
Q 1306 2956 1092 2589 
Q 878 2222 878 1719 
L 878 1653 
z
" transform="scale(0.015625)"/>
       <path id="Roboto-Regular-75" d="M 2538 0 
L 2525 334 
Q 2194 -63 1538 -63 
Q 1041 -63 734 231 
Q 428 525 428 1200 
L 428 3381 
L 1006 3381 
L 1006 1194 
Q 1006 738 1198 583 
Q 1391 428 1628 428 
Q 2281 428 2509 919 
L 2509 3381 
L 3091 3381 
L 3091 0 
L 2538 0 
z
" transform="scale(0.015625)"/>
       <path id="Roboto-Regular-63" d="M 1794 413 
Q 2103 413 2336 597 
Q 2569 781 2591 1069 
L 3141 1069 
Q 3119 616 2725 276 
Q 2331 -63 1794 -63 
Q 1031 -63 661 440 
Q 291 944 291 1625 
L 291 1756 
Q 291 2438 661 2941 
Q 1031 3444 1794 3444 
Q 2388 3444 2753 3092 
Q 3119 2741 3141 2219 
L 2591 2219 
Q 2569 2531 2355 2750 
Q 2141 2969 1794 2969 
Q 1438 2969 1236 2787 
Q 1034 2606 951 2328 
Q 869 2050 869 1756 
L 869 1625 
Q 869 1328 950 1050 
Q 1031 772 1232 592 
Q 1434 413 1794 413 
z
" transform="scale(0.015625)"/>
      </defs>
      <use xlink:href="#Roboto-Regular-52"/>
      <use xlink:href="#Roboto-Regular-65" x="61.621094"/>
      <use xlink:href="#Roboto-Regular-64" x="114.648438"/>
      <use xlink:href="#Roboto-Regular-75" x="171.044922"/>
      <use xlink:href="#Roboto-Regular-63" x="226.171875"/>
      <use xlink:href="#Roboto-Regular-65" x="278.515625"/>
      <use xlink:href="#Roboto-Regular-64" x="331.542969"/>
     </g>
    </g>
    <g id="line2d_21">
     <path d="M 356.8875 45.9975 
L 368.8875 45.9975 
L 380.8875 45.9975 
" style="fill: none; stroke: #ec4067; stroke-width: 2.5; stroke-linecap: square"/>
    </g>
    <g id="text_20">
     <!-- Oxidized -->
     <g transform="translate(390.4875 50.1975) scale(0.12 -0.12)">
      <defs>
       <path id="Roboto-Regular-4f" d="M 4031 2131 
Q 4031 1106 3534 521 
Q 3038 -63 2206 -63 
Q 1397 -63 884 521 
Q 372 1106 372 2131 
L 372 2419 
Q 372 3441 881 4027 
Q 1391 4613 2200 4613 
Q 3025 4613 3523 4036 
Q 4022 3459 4031 2456 
L 4031 2131 
z
M 3434 2425 
Q 3434 3238 3109 3669 
Q 2784 4100 2200 4100 
Q 1641 4100 1305 3669 
Q 969 3238 969 2425 
L 969 2131 
Q 969 1313 1308 880 
Q 1647 447 2206 447 
Q 2794 447 3114 880 
Q 3434 1313 3434 2131 
L 3434 2425 
z
" transform="scale(0.015625)"/>
       <path id="Roboto-Regular-78" d="M 831 3381 
L 1572 2150 
L 2322 3381 
L 3000 3381 
L 1894 1713 
L 3034 0 
L 2366 0 
L 1584 1269 
L 803 0 
L 131 0 
L 1269 1713 
L 166 3381 
L 831 3381 
z
" transform="scale(0.015625)"/>
       <path id="Roboto-Regular-69" d="M 444 4278 
Q 444 4419 530 4516 
Q 616 4613 784 4613 
Q 950 4613 1039 4516 
Q 1128 4419 1128 4278 
Q 1128 4144 1039 4048 
Q 950 3953 784 3953 
Q 616 3953 530 4048 
Q 444 4144 444 4278 
z
M 1069 3381 
L 1069 0 
L 488 0 
L 488 3381 
L 1069 3381 
z
" transform="scale(0.015625)"/>
       <path id="Roboto-Regular-7a" d="M 303 2903 
L 303 3381 
L 2869 3381 
L 2869 2972 
L 988 475 
L 2959 475 
L 2959 0 
L 278 0 
L 278 425 
L 2141 2903 
L 303 2903 
z
" transform="scale(0.015625)"/>
      </defs>
      <use xlink:href="#Roboto-Regular-4f"/>
      <use xlink:href="#Roboto-Regular-78" x="68.798828"/>
      <use xlink:href="#Roboto-Regular-69" x="118.408203"/>
      <use xlink:href="#Roboto-Regular-64" x="142.724609"/>
      <use xlink:href="#Roboto-Regular-69" x="199.121094"/>
      <use xlink:href="#Roboto-Regular-7a" x="223.4375"/>
      <use xlink:href="#Roboto-Regular-65" x="273.046875"/>
      <use xlink:href="#Roboto-Regular-64" x="326.074219"/>
     </g>
    </g>
    <g id="line2d_22">
     <path d="M 356.8875 64.06125 
L 368.8875 64.06125 
L 380.8875 64.06125 
" style="fill: none; stroke: #f99752; stroke-width: 2.5; stroke-linecap: square"/>
    </g>
    <g id="text_21">
     <!-- Cu(I) -->
     <g transform="translate(390.4875 68.26125) scale(0.12 -0.12)">
      <defs>
       <path id="Roboto-Regular-43" d="M 3275 1447 
L 3875 1447 
Q 3806 800 3387 368 
Q 2969 -63 2150 -63 
Q 1356 -63 870 504 
Q 384 1072 375 2013 
L 375 2500 
Q 375 3456 867 4034 
Q 1359 4613 2203 4613 
Q 2975 4613 3390 4188 
Q 3806 3763 3875 3091 
L 3275 3091 
Q 3206 3566 2968 3842 
Q 2731 4119 2203 4119 
Q 1600 4119 1287 3675 
Q 975 3231 975 2506 
L 975 2047 
Q 975 1375 1259 901 
Q 1544 428 2150 428 
Q 2725 428 2961 697 
Q 3197 966 3275 1447 
z
" transform="scale(0.015625)"/>
       <path id="Roboto-Regular-28" d="M 419 1850 
Q 419 2756 678 3434 
Q 938 4113 1294 4541 
Q 1650 4969 1947 5134 
L 2069 4753 
Q 1700 4475 1348 3761 
Q 997 3047 997 1813 
Q 997 625 1348 -97 
Q 1700 -819 2069 -1119 
L 1947 -1469 
Q 1650 -1306 1294 -878 
Q 938 -450 678 226 
Q 419 903 419 1850 
z
" transform="scale(0.015625)"/>
       <path id="Roboto-Regular-49" d="M 1175 4550 
L 1175 0 
L 572 0 
L 572 4550 
L 1175 4550 
z
" transform="scale(0.015625)"/>
       <path id="Roboto-Regular-29" d="M 1772 1819 
Q 1772 906 1512 228 
Q 1253 -450 895 -878 
Q 538 -1306 244 -1469 
L 122 -1119 
Q 488 -841 841 -109 
Q 1194 622 1194 1856 
Q 1194 2647 1019 3236 
Q 844 3825 594 4212 
Q 344 4600 122 4781 
L 244 5134 
Q 538 4969 895 4541 
Q 1253 4113 1512 3436 
Q 1772 2759 1772 1819 
z
" transform="scale(0.015625)"/>
      </defs>
      <use xlink:href="#Roboto-Regular-43"/>
      <use xlink:href="#Roboto-Regular-75" x="65.087891"/>
      <use xlink:href="#Roboto-Regular-28" x="120.214844"/>
      <use xlink:href="#Roboto-Regular-49" x="154.443359"/>
      <use xlink:href="#Roboto-Regular-29" x="181.640625"/>
     </g>
    </g>
   </g>
  </g>
 </g>
 <defs>
  <clipPath id="pc66abb6685">
   <rect x="60.662" y="12.96" width="387.178" height="287.008"/>
  </clipPath>
 </defs>
</svg>
