<?xml version="1.0" encoding="utf-8" standalone="no"?>
<!DOCTYPE svg PUBLIC "-//W3C//DTD SVG 1.1//EN"
  "http://www.w3.org/Graphics/SVG/1.1/DTD/svg11.dtd">
<svg xmlns:xlink="http://www.w3.org/1999/xlink" width="460.8pt" height="345.6pt" viewBox="0 0 460.8 345.6" xmlns="http://www.w3.org/2000/svg" version="1.1">
 <metadata>
  <rdf:RDF xmlns:dc="http://purl.org/dc/elements/1.1/" xmlns:cc="http://creativecommons.org/ns#" xmlns:rdf="http://www.w3.org/1999/02/22-rdf-syntax-ns#">
   <cc:Work>
    <dc:type rdf:resource="http://purl.org/dc/dcmitype/StillImage"/>
    <dc:date>2024-06-10T22:00:19.060611</dc:date>
    <dc:format>image/svg+xml</dc:format>
    <dc:creator>
     <cc:Agent>
      <dc:title>Matplotlib v3.8.4, https://matplotlib.org/</dc:title>
     </cc:Agent>
    </dc:creator>
   </cc:Work>
  </rdf:RDF>
 </metadata>
 <defs>
  <style type="text/css">*{stroke-linejoin: round; stroke-linecap: butt}</style>
 </defs>
 <g id="figure_1">
  <g id="patch_1">
   <path d="M 0 345.6 
L 460.8 345.6 
L 460.8 0 
L 0 0 
z
" style="fill: #ffffff"/>
  </g>
  <g id="axes_1">
   <g id="patch_2">
    <path d="M 60.41 303.64 
L 450 303.64 
L 450 10.8 
L 60.41 10.8 
z
" style="fill: #ffffff"/>
   </g>
   <g id="line2d_1">
    <path d="M 60.41 303.349843 
L 69.37954 303.444505 
L 80.298979 303.326112 
L 89.268519 303.027585 
L 95.508198 302.612807 
L 100.967918 302.01961 
L 106.427638 301.18224 
L 122.416817 298.485973 
L 125.926637 298.243715 
L 129.046476 298.230824 
L 132.556296 298.45137 
L 136.456096 298.952832 
L 141.525836 299.865882 
L 151.275335 301.669497 
L 156.345075 302.364233 
L 161.804795 302.883874 
L 167.654494 303.218059 
L 175.064114 303.411021 
L 187.153493 303.473412 
L 199.242873 303.345665 
L 208.602392 303.023752 
L 215.622032 302.577151 
L 220.691772 302.050371 
L 224.591572 301.441812 
L 228.101391 300.662239 
L 230.831251 299.845327 
L 233.561111 298.786427 
L 235.900991 297.637419 
L 238.240871 296.21466 
L 240.190771 294.779159 
L 242.140671 293.076374 
L 244.090571 291.063474 
L 246.04047 288.69221 
L 247.99037 285.90849 
L 249.94027 282.652027 
L 251.89017 278.856188 
L 253.84007 274.448271 
L 255.78997 269.350486 
L 257.73987 263.481927 
L 259.68977 256.761737 
L 261.63967 249.113545 
L 263.58957 240.471021 
L 265.539469 230.784294 
L 267.489369 220.026763 
L 269.829249 205.711536 
L 272.169129 189.93672 
L 274.898989 169.91002 
L 278.408809 142.271148 
L 285.818428 83.181848 
L 288.158308 66.521581 
L 290.108208 54.170561 
L 291.668128 45.551938 
L 293.228048 38.240842 
L 294.397988 33.708202 
L 295.567928 30.053223 
L 296.347888 28.127808 
L 297.127848 26.625135 
L 297.907808 25.55465 
L 298.687768 24.923587 
L 299.467728 24.73688 
L 300.247688 24.997096 
L 301.027648 25.704386 
L 301.807608 26.856468 
L 302.587568 28.448632 
L 303.367528 30.473773 
L 304.537467 34.302039 
L 305.707407 39.041428 
L 306.877347 44.64004 
L 308.437267 53.33395 
L 309.997187 63.276897 
L 311.947087 77.172779 
L 314.286967 95.469419 
L 318.186767 128.033678 
L 322.476547 163.559394 
L 325.206406 184.414237 
L 327.546286 200.559832 
L 329.496186 212.555418 
L 331.446086 223.096462 
L 333.006006 230.43478 
L 334.565926 236.783663 
L 336.125846 242.14508 
L 337.295786 245.527203 
L 338.465726 248.373661 
L 339.635666 250.698734 
L 340.805606 252.519405 
L 341.975546 253.854946 
L 342.755506 254.486187 
L 343.535465 254.917896 
L 344.315425 255.15706 
L 345.095385 255.21093 
L 345.875345 255.087012 
L 346.655305 254.793046 
L 347.825245 254.050761 
L 348.995185 252.971735 
L 350.165125 251.58503 
L 351.725045 249.310012 
L 353.284965 246.617404 
L 355.234865 242.786242 
L 357.964725 236.852668 
L 363.424444 224.820454 
L 365.374344 221.080045 
L 366.934264 218.496882 
L 368.494184 216.367002 
L 369.664124 215.111203 
L 370.834064 214.177782 
L 372.004004 213.588601 
L 372.783964 213.395632 
L 373.563924 213.366987 
L 374.343884 213.505251 
L 375.123844 213.811854 
L 376.293784 214.58761 
L 377.463724 215.738189 
L 378.633664 217.253324 
L 379.803604 219.116863 
L 381.363524 222.105266 
L 382.923443 225.608633 
L 384.873343 230.591542 
L 387.213223 237.22524 
L 391.892983 251.415415 
L 395.402803 261.728147 
L 398.132663 269.027257 
L 400.472543 274.613884 
L 402.422442 278.755011 
L 404.372342 282.425439 
L 406.322242 285.642204 
L 408.272142 288.435199 
L 410.222042 290.841843 
L 412.171942 292.902737 
L 414.121842 294.658476 
L 416.071742 296.147598 
L 418.411622 297.632149 
L 420.751502 298.837786 
L 423.091381 299.811484 
L 425.821241 300.707827 
L 428.941081 301.481722 
L 432.450901 302.11111 
L 436.740681 302.635114 
L 442.2004 303.048992 
L 449.22004 303.330722 
L 450 303.349843 
L 450 303.349843 
" clip-path="url(#pbf64dd38d6)" style="fill: none; stroke: #1e2e79; stroke-width: 2.5; stroke-linecap: square"/>
   </g>
   <g id="line2d_2">
    <path d="M 60.41 303.354715 
L 72.109399 303.342642 
L 78.739059 303.135611 
L 83.418819 302.785781 
L 86.928639 302.326398 
L 90.048478 301.706352 
L 92.778338 300.946616 
L 95.508198 299.935537 
L 97.848078 298.835598 
L 100.187958 297.496546 
L 102.527838 295.905037 
L 104.867718 294.061313 
L 107.597578 291.617897 
L 111.107397 288.129326 
L 117.347077 281.82459 
L 119.686957 279.79698 
L 121.636857 278.391121 
L 123.196777 277.49784 
L 124.756697 276.838403 
L 126.316617 276.431356 
L 127.876537 276.287314 
L 129.436456 276.408555 
L 130.996376 276.789099 
L 132.556296 277.415209 
L 134.116216 278.266257 
L 136.066116 279.605767 
L 138.405996 281.536187 
L 141.525836 284.466146 
L 148.935455 291.60019 
L 151.665315 293.879791 
L 154.395175 295.847273 
L 156.735055 297.265145 
L 159.074935 298.434149 
L 161.414815 299.36271 
L 163.754695 300.063083 
L 166.094575 300.547129 
L 168.434454 300.822906 
L 170.774334 300.891929 
L 173.114214 300.746891 
L 175.454094 300.369633 
L 177.403994 299.856012 
L 179.353894 299.134499 
L 181.303794 298.172087 
L 183.253694 296.927765 
L 184.813614 295.696543 
L 186.373534 294.224671 
L 187.933453 292.480197 
L 189.493373 290.428504 
L 191.053293 288.032892 
L 192.613213 285.25535 
L 194.173133 282.057507 
L 195.733053 278.401749 
L 197.292973 274.252457 
L 198.852893 269.57734 
L 200.802793 262.952558 
L 202.752693 255.423549 
L 204.702593 246.969627 
L 206.652492 237.593603 
L 208.992372 225.169807 
L 211.332252 211.573964 
L 214.062112 194.473254 
L 217.961912 168.521552 
L 224.201592 126.955767 
L 226.931451 110.359185 
L 229.271331 97.577132 
L 231.221231 88.207953 
L 232.781151 81.679792 
L 234.341071 76.096755 
L 235.511011 72.570401 
L 236.680951 69.637266 
L 237.850891 67.316906 
L 239.020831 65.624447 
L 239.800791 64.850322 
L 240.580751 64.361866 
L 241.360711 64.159931 
L 242.140671 64.244323 
L 242.920631 64.613774 
L 243.700591 65.265927 
L 244.480551 66.197316 
L 245.260511 67.403368 
L 246.43045 69.714709 
L 247.60039 72.607233 
L 248.77033 76.051826 
L 250.33025 81.443669 
L 251.89017 87.66211 
L 253.84007 96.434973 
L 256.17995 108.125008 
L 259.29979 124.988465 
L 266.319429 163.41718 
L 269.049289 176.901726 
L 271.389169 187.287668 
L 273.339069 194.983282 
L 275.288969 201.745817 
L 276.848889 206.471144 
L 278.408809 210.595466 
L 279.968729 214.140575 
L 281.528649 217.140659 
L 283.088569 219.640519 
L 284.648488 221.693523 
L 286.208408 223.359427 
L 287.768328 224.70217 
L 289.328248 225.787753 
L 291.278148 226.88369 
L 294.397988 228.325554 
L 297.907808 229.987737 
L 300.247688 231.374249 
L 302.197588 232.802381 
L 304.147487 234.529589 
L 306.097387 236.58463 
L 308.047287 238.9779 
L 309.997187 241.701854 
L 312.337067 245.37147 
L 315.066927 250.112321 
L 318.966727 257.435681 
L 325.206406 269.211535 
L 327.936266 273.899609 
L 330.276146 277.524834 
L 332.616026 280.717255 
L 334.565926 283.015474 
L 336.515826 284.969689 
L 338.465726 286.575935 
L 340.415626 287.838571 
L 341.975546 288.608842 
L 343.535465 289.175292 
L 345.095385 289.548921 
L 347.045285 289.764635 
L 348.995185 289.728188 
L 350.945085 289.471885 
L 353.284965 288.924058 
L 356.014825 288.037764 
L 360.694585 286.216288 
L 364.594384 284.77881 
L 367.324244 284.010883 
L 369.664124 283.595199 
L 371.614024 283.455237 
L 373.563924 283.520811 
L 375.513824 283.798336 
L 377.463724 284.284251 
L 379.803604 285.123748 
L 382.143483 286.207446 
L 384.873343 287.714932 
L 388.773143 290.153556 
L 396.572743 295.106192 
L 400.082563 297.027743 
L 403.202402 298.473318 
L 406.322242 299.652114 
L 409.442082 300.574616 
L 412.561922 301.272806 
L 416.461722 301.896991 
L 421.141481 302.394613 
L 427.381161 302.809576 
L 435.570741 303.119725 
L 447.66012 303.331889 
L 450 303.354715 
L 450 303.354715 
" clip-path="url(#pbf64dd38d6)" style="fill: none; stroke: #ec4067; stroke-width: 2.5; stroke-linecap: square"/>
   </g>
   <g id="matplotlib.axis_1">
    <g id="xtick_1">
     <g id="line2d_3">
      <defs>
       <path id="m5dfc0a98cd" d="M 0 0 
L 0 3.5 
" style="stroke: #000000; stroke-width: 0.8"/>
      </defs>
      <g>
       <use xlink:href="#m5dfc0a98cd" x="60.41" y="303.64" style="stroke: #000000; stroke-width: 0.8"/>
      </g>
     </g>
     <g id="text_1">
      <!-- −180 -->
      <g transform="translate(46.676406 318.238437) scale(0.1 -0.1)">
       <defs>
        <path id="DejaVuSans-2212" d="M 678 2272 
L 4684 2272 
L 4684 1741 
L 678 1741 
L 678 2272 
z
" transform="scale(0.015625)"/>
        <path id="DejaVuSans-31" d="M 794 531 
L 1825 531 
L 1825 4091 
L 703 3866 
L 703 4441 
L 1819 4666 
L 2450 4666 
L 2450 531 
L 3481 531 
L 3481 0 
L 794 0 
L 794 531 
z
" transform="scale(0.015625)"/>
        <path id="DejaVuSans-38" d="M 2034 2216 
Q 1584 2216 1326 1975 
Q 1069 1734 1069 1313 
Q 1069 891 1326 650 
Q 1584 409 2034 409 
Q 2484 409 2743 651 
Q 3003 894 3003 1313 
Q 3003 1734 2745 1975 
Q 2488 2216 2034 2216 
z
M 1403 2484 
Q 997 2584 770 2862 
Q 544 3141 544 3541 
Q 544 4100 942 4425 
Q 1341 4750 2034 4750 
Q 2731 4750 3128 4425 
Q 3525 4100 3525 3541 
Q 3525 3141 3298 2862 
Q 3072 2584 2669 2484 
Q 3125 2378 3379 2068 
Q 3634 1759 3634 1313 
Q 3634 634 3220 271 
Q 2806 -91 2034 -91 
Q 1263 -91 848 271 
Q 434 634 434 1313 
Q 434 1759 690 2068 
Q 947 2378 1403 2484 
z
M 1172 3481 
Q 1172 3119 1398 2916 
Q 1625 2713 2034 2713 
Q 2441 2713 2670 2916 
Q 2900 3119 2900 3481 
Q 2900 3844 2670 4047 
Q 2441 4250 2034 4250 
Q 1625 4250 1398 4047 
Q 1172 3844 1172 3481 
z
" transform="scale(0.015625)"/>
        <path id="DejaVuSans-30" d="M 2034 4250 
Q 1547 4250 1301 3770 
Q 1056 3291 1056 2328 
Q 1056 1369 1301 889 
Q 1547 409 2034 409 
Q 2525 409 2770 889 
Q 3016 1369 3016 2328 
Q 3016 3291 2770 3770 
Q 2525 4250 2034 4250 
z
M 2034 4750 
Q 2819 4750 3233 4129 
Q 3647 3509 3647 2328 
Q 3647 1150 3233 529 
Q 2819 -91 2034 -91 
Q 1250 -91 836 529 
Q 422 1150 422 2328 
Q 422 3509 836 4129 
Q 1250 4750 2034 4750 
z
" transform="scale(0.015625)"/>
       </defs>
       <use xlink:href="#DejaVuSans-2212"/>
       <use xlink:href="#DejaVuSans-31" x="83.789062"/>
       <use xlink:href="#DejaVuSans-38" x="147.412109"/>
       <use xlink:href="#DejaVuSans-30" x="211.035156"/>
      </g>
     </g>
    </g>
    <g id="xtick_2">
     <g id="line2d_4">
      <g>
       <use xlink:href="#m5dfc0a98cd" x="125.341667" y="303.64" style="stroke: #000000; stroke-width: 0.8"/>
      </g>
     </g>
     <g id="text_2">
      <!-- −120 -->
      <g transform="translate(111.608073 318.238437) scale(0.1 -0.1)">
       <defs>
        <path id="DejaVuSans-32" d="M 1228 531 
L 3431 531 
L 3431 0 
L 469 0 
L 469 531 
Q 828 903 1448 1529 
Q 2069 2156 2228 2338 
Q 2531 2678 2651 2914 
Q 2772 3150 2772 3378 
Q 2772 3750 2511 3984 
Q 2250 4219 1831 4219 
Q 1534 4219 1204 4116 
Q 875 4013 500 3803 
L 500 4441 
Q 881 4594 1212 4672 
Q 1544 4750 1819 4750 
Q 2544 4750 2975 4387 
Q 3406 4025 3406 3419 
Q 3406 3131 3298 2873 
Q 3191 2616 2906 2266 
Q 2828 2175 2409 1742 
Q 1991 1309 1228 531 
z
" transform="scale(0.015625)"/>
       </defs>
       <use xlink:href="#DejaVuSans-2212"/>
       <use xlink:href="#DejaVuSans-31" x="83.789062"/>
       <use xlink:href="#DejaVuSans-32" x="147.412109"/>
       <use xlink:href="#DejaVuSans-30" x="211.035156"/>
      </g>
     </g>
    </g>
    <g id="xtick_3">
     <g id="line2d_5">
      <g>
       <use xlink:href="#m5dfc0a98cd" x="190.273333" y="303.64" style="stroke: #000000; stroke-width: 0.8"/>
      </g>
     </g>
     <g id="text_3">
      <!-- −60 -->
      <g transform="translate(179.72099 318.238437) scale(0.1 -0.1)">
       <defs>
        <path id="DejaVuSans-36" d="M 2113 2584 
Q 1688 2584 1439 2293 
Q 1191 2003 1191 1497 
Q 1191 994 1439 701 
Q 1688 409 2113 409 
Q 2538 409 2786 701 
Q 3034 994 3034 1497 
Q 3034 2003 2786 2293 
Q 2538 2584 2113 2584 
z
M 3366 4563 
L 3366 3988 
Q 3128 4100 2886 4159 
Q 2644 4219 2406 4219 
Q 1781 4219 1451 3797 
Q 1122 3375 1075 2522 
Q 1259 2794 1537 2939 
Q 1816 3084 2150 3084 
Q 2853 3084 3261 2657 
Q 3669 2231 3669 1497 
Q 3669 778 3244 343 
Q 2819 -91 2113 -91 
Q 1303 -91 875 529 
Q 447 1150 447 2328 
Q 447 3434 972 4092 
Q 1497 4750 2381 4750 
Q 2619 4750 2861 4703 
Q 3103 4656 3366 4563 
z
" transform="scale(0.015625)"/>
       </defs>
       <use xlink:href="#DejaVuSans-2212"/>
       <use xlink:href="#DejaVuSans-36" x="83.789062"/>
       <use xlink:href="#DejaVuSans-30" x="147.412109"/>
      </g>
     </g>
    </g>
    <g id="xtick_4">
     <g id="line2d_6">
      <g>
       <use xlink:href="#m5dfc0a98cd" x="255.205" y="303.64" style="stroke: #000000; stroke-width: 0.8"/>
      </g>
     </g>
     <g id="text_4">
      <!-- 0 -->
      <g transform="translate(252.02375 318.238437) scale(0.1 -0.1)">
       <use xlink:href="#DejaVuSans-30"/>
      </g>
     </g>
    </g>
    <g id="xtick_5">
     <g id="line2d_7">
      <g>
       <use xlink:href="#m5dfc0a98cd" x="320.136667" y="303.64" style="stroke: #000000; stroke-width: 0.8"/>
      </g>
     </g>
     <g id="text_5">
      <!-- 60 -->
      <g transform="translate(313.774167 318.238437) scale(0.1 -0.1)">
       <use xlink:href="#DejaVuSans-36"/>
       <use xlink:href="#DejaVuSans-30" x="63.623047"/>
      </g>
     </g>
    </g>
    <g id="xtick_6">
     <g id="line2d_8">
      <g>
       <use xlink:href="#m5dfc0a98cd" x="385.068333" y="303.64" style="stroke: #000000; stroke-width: 0.8"/>
      </g>
     </g>
     <g id="text_6">
      <!-- 120 -->
      <g transform="translate(375.524583 318.238437) scale(0.1 -0.1)">
       <use xlink:href="#DejaVuSans-31"/>
       <use xlink:href="#DejaVuSans-32" x="63.623047"/>
       <use xlink:href="#DejaVuSans-30" x="127.246094"/>
      </g>
     </g>
    </g>
    <g id="xtick_7">
     <g id="line2d_9">
      <g>
       <use xlink:href="#m5dfc0a98cd" x="450" y="303.64" style="stroke: #000000; stroke-width: 0.8"/>
      </g>
     </g>
     <g id="text_7">
      <!-- 180 -->
      <g transform="translate(440.45625 318.238437) scale(0.1 -0.1)">
       <use xlink:href="#DejaVuSans-31"/>
       <use xlink:href="#DejaVuSans-38" x="63.623047"/>
       <use xlink:href="#DejaVuSans-30" x="127.246094"/>
      </g>
     </g>
    </g>
    <g id="text_8">
     <!-- THR203 HG1-OG1-CB-CG2 Dihedral [°] -->
     <g transform="translate(158.212031 331.916562) scale(0.1 -0.1)">
      <defs>
       <path id="DejaVuSans-54" d="M -19 4666 
L 3928 4666 
L 3928 4134 
L 2272 4134 
L 2272 0 
L 1638 0 
L 1638 4134 
L -19 4134 
L -19 4666 
z
" transform="scale(0.015625)"/>
       <path id="DejaVuSans-48" d="M 628 4666 
L 1259 4666 
L 1259 2753 
L 3553 2753 
L 3553 4666 
L 4184 4666 
L 4184 0 
L 3553 0 
L 3553 2222 
L 1259 2222 
L 1259 0 
L 628 0 
L 628 4666 
z
" transform="scale(0.015625)"/>
       <path id="DejaVuSans-52" d="M 2841 2188 
Q 3044 2119 3236 1894 
Q 3428 1669 3622 1275 
L 4263 0 
L 3584 0 
L 2988 1197 
Q 2756 1666 2539 1819 
Q 2322 1972 1947 1972 
L 1259 1972 
L 1259 0 
L 628 0 
L 628 4666 
L 2053 4666 
Q 2853 4666 3247 4331 
Q 3641 3997 3641 3322 
Q 3641 2881 3436 2590 
Q 3231 2300 2841 2188 
z
M 1259 4147 
L 1259 2491 
L 2053 2491 
Q 2509 2491 2742 2702 
Q 2975 2913 2975 3322 
Q 2975 3731 2742 3939 
Q 2509 4147 2053 4147 
L 1259 4147 
z
" transform="scale(0.015625)"/>
       <path id="DejaVuSans-33" d="M 2597 2516 
Q 3050 2419 3304 2112 
Q 3559 1806 3559 1356 
Q 3559 666 3084 287 
Q 2609 -91 1734 -91 
Q 1441 -91 1130 -33 
Q 819 25 488 141 
L 488 750 
Q 750 597 1062 519 
Q 1375 441 1716 441 
Q 2309 441 2620 675 
Q 2931 909 2931 1356 
Q 2931 1769 2642 2001 
Q 2353 2234 1838 2234 
L 1294 2234 
L 1294 2753 
L 1863 2753 
Q 2328 2753 2575 2939 
Q 2822 3125 2822 3475 
Q 2822 3834 2567 4026 
Q 2313 4219 1838 4219 
Q 1578 4219 1281 4162 
Q 984 4106 628 3988 
L 628 4550 
Q 988 4650 1302 4700 
Q 1616 4750 1894 4750 
Q 2613 4750 3031 4423 
Q 3450 4097 3450 3541 
Q 3450 3153 3228 2886 
Q 3006 2619 2597 2516 
z
" transform="scale(0.015625)"/>
       <path id="DejaVuSans-20" transform="scale(0.015625)"/>
       <path id="DejaVuSans-47" d="M 3809 666 
L 3809 1919 
L 2778 1919 
L 2778 2438 
L 4434 2438 
L 4434 434 
Q 4069 175 3628 42 
Q 3188 -91 2688 -91 
Q 1594 -91 976 548 
Q 359 1188 359 2328 
Q 359 3472 976 4111 
Q 1594 4750 2688 4750 
Q 3144 4750 3555 4637 
Q 3966 4525 4313 4306 
L 4313 3634 
Q 3963 3931 3569 4081 
Q 3175 4231 2741 4231 
Q 1884 4231 1454 3753 
Q 1025 3275 1025 2328 
Q 1025 1384 1454 906 
Q 1884 428 2741 428 
Q 3075 428 3337 486 
Q 3600 544 3809 666 
z
" transform="scale(0.015625)"/>
       <path id="DejaVuSans-2d" d="M 313 2009 
L 1997 2009 
L 1997 1497 
L 313 1497 
L 313 2009 
z
" transform="scale(0.015625)"/>
       <path id="DejaVuSans-4f" d="M 2522 4238 
Q 1834 4238 1429 3725 
Q 1025 3213 1025 2328 
Q 1025 1447 1429 934 
Q 1834 422 2522 422 
Q 3209 422 3611 934 
Q 4013 1447 4013 2328 
Q 4013 3213 3611 3725 
Q 3209 4238 2522 4238 
z
M 2522 4750 
Q 3503 4750 4090 4092 
Q 4678 3434 4678 2328 
Q 4678 1225 4090 567 
Q 3503 -91 2522 -91 
Q 1538 -91 948 565 
Q 359 1222 359 2328 
Q 359 3434 948 4092 
Q 1538 4750 2522 4750 
z
" transform="scale(0.015625)"/>
       <path id="DejaVuSans-43" d="M 4122 4306 
L 4122 3641 
Q 3803 3938 3442 4084 
Q 3081 4231 2675 4231 
Q 1875 4231 1450 3742 
Q 1025 3253 1025 2328 
Q 1025 1406 1450 917 
Q 1875 428 2675 428 
Q 3081 428 3442 575 
Q 3803 722 4122 1019 
L 4122 359 
Q 3791 134 3420 21 
Q 3050 -91 2638 -91 
Q 1578 -91 968 557 
Q 359 1206 359 2328 
Q 359 3453 968 4101 
Q 1578 4750 2638 4750 
Q 3056 4750 3426 4639 
Q 3797 4528 4122 4306 
z
" transform="scale(0.015625)"/>
       <path id="DejaVuSans-42" d="M 1259 2228 
L 1259 519 
L 2272 519 
Q 2781 519 3026 730 
Q 3272 941 3272 1375 
Q 3272 1813 3026 2020 
Q 2781 2228 2272 2228 
L 1259 2228 
z
M 1259 4147 
L 1259 2741 
L 2194 2741 
Q 2656 2741 2882 2914 
Q 3109 3088 3109 3444 
Q 3109 3797 2882 3972 
Q 2656 4147 2194 4147 
L 1259 4147 
z
M 628 4666 
L 2241 4666 
Q 2963 4666 3353 4366 
Q 3744 4066 3744 3513 
Q 3744 3084 3544 2831 
Q 3344 2578 2956 2516 
Q 3422 2416 3680 2098 
Q 3938 1781 3938 1306 
Q 3938 681 3513 340 
Q 3088 0 2303 0 
L 628 0 
L 628 4666 
z
" transform="scale(0.015625)"/>
       <path id="DejaVuSans-44" d="M 1259 4147 
L 1259 519 
L 2022 519 
Q 2988 519 3436 956 
Q 3884 1394 3884 2338 
Q 3884 3275 3436 3711 
Q 2988 4147 2022 4147 
L 1259 4147 
z
M 628 4666 
L 1925 4666 
Q 3281 4666 3915 4102 
Q 4550 3538 4550 2338 
Q 4550 1131 3912 565 
Q 3275 0 1925 0 
L 628 0 
L 628 4666 
z
" transform="scale(0.015625)"/>
       <path id="DejaVuSans-69" d="M 603 3500 
L 1178 3500 
L 1178 0 
L 603 0 
L 603 3500 
z
M 603 4863 
L 1178 4863 
L 1178 4134 
L 603 4134 
L 603 4863 
z
" transform="scale(0.015625)"/>
       <path id="DejaVuSans-68" d="M 3513 2113 
L 3513 0 
L 2938 0 
L 2938 2094 
Q 2938 2591 2744 2837 
Q 2550 3084 2163 3084 
Q 1697 3084 1428 2787 
Q 1159 2491 1159 1978 
L 1159 0 
L 581 0 
L 581 4863 
L 1159 4863 
L 1159 2956 
Q 1366 3272 1645 3428 
Q 1925 3584 2291 3584 
Q 2894 3584 3203 3211 
Q 3513 2838 3513 2113 
z
" transform="scale(0.015625)"/>
       <path id="DejaVuSans-65" d="M 3597 1894 
L 3597 1613 
L 953 1613 
Q 991 1019 1311 708 
Q 1631 397 2203 397 
Q 2534 397 2845 478 
Q 3156 559 3463 722 
L 3463 178 
Q 3153 47 2828 -22 
Q 2503 -91 2169 -91 
Q 1331 -91 842 396 
Q 353 884 353 1716 
Q 353 2575 817 3079 
Q 1281 3584 2069 3584 
Q 2775 3584 3186 3129 
Q 3597 2675 3597 1894 
z
M 3022 2063 
Q 3016 2534 2758 2815 
Q 2500 3097 2075 3097 
Q 1594 3097 1305 2825 
Q 1016 2553 972 2059 
L 3022 2063 
z
" transform="scale(0.015625)"/>
       <path id="DejaVuSans-64" d="M 2906 2969 
L 2906 4863 
L 3481 4863 
L 3481 0 
L 2906 0 
L 2906 525 
Q 2725 213 2448 61 
Q 2172 -91 1784 -91 
Q 1150 -91 751 415 
Q 353 922 353 1747 
Q 353 2572 751 3078 
Q 1150 3584 1784 3584 
Q 2172 3584 2448 3432 
Q 2725 3281 2906 2969 
z
M 947 1747 
Q 947 1113 1208 752 
Q 1469 391 1925 391 
Q 2381 391 2643 752 
Q 2906 1113 2906 1747 
Q 2906 2381 2643 2742 
Q 2381 3103 1925 3103 
Q 1469 3103 1208 2742 
Q 947 2381 947 1747 
z
" transform="scale(0.015625)"/>
       <path id="DejaVuSans-72" d="M 2631 2963 
Q 2534 3019 2420 3045 
Q 2306 3072 2169 3072 
Q 1681 3072 1420 2755 
Q 1159 2438 1159 1844 
L 1159 0 
L 581 0 
L 581 3500 
L 1159 3500 
L 1159 2956 
Q 1341 3275 1631 3429 
Q 1922 3584 2338 3584 
Q 2397 3584 2469 3576 
Q 2541 3569 2628 3553 
L 2631 2963 
z
" transform="scale(0.015625)"/>
       <path id="DejaVuSans-61" d="M 2194 1759 
Q 1497 1759 1228 1600 
Q 959 1441 959 1056 
Q 959 750 1161 570 
Q 1363 391 1709 391 
Q 2188 391 2477 730 
Q 2766 1069 2766 1631 
L 2766 1759 
L 2194 1759 
z
M 3341 1997 
L 3341 0 
L 2766 0 
L 2766 531 
Q 2569 213 2275 61 
Q 1981 -91 1556 -91 
Q 1019 -91 701 211 
Q 384 513 384 1019 
Q 384 1609 779 1909 
Q 1175 2209 1959 2209 
L 2766 2209 
L 2766 2266 
Q 2766 2663 2505 2880 
Q 2244 3097 1772 3097 
Q 1472 3097 1187 3025 
Q 903 2953 641 2809 
L 641 3341 
Q 956 3463 1253 3523 
Q 1550 3584 1831 3584 
Q 2591 3584 2966 3190 
Q 3341 2797 3341 1997 
z
" transform="scale(0.015625)"/>
       <path id="DejaVuSans-6c" d="M 603 4863 
L 1178 4863 
L 1178 0 
L 603 0 
L 603 4863 
z
" transform="scale(0.015625)"/>
       <path id="DejaVuSans-5b" d="M 550 4863 
L 1875 4863 
L 1875 4416 
L 1125 4416 
L 1125 -397 
L 1875 -397 
L 1875 -844 
L 550 -844 
L 550 4863 
z
" transform="scale(0.015625)"/>
       <path id="DejaVuSans-b0" d="M 1600 4347 
Q 1350 4347 1178 4173 
Q 1006 4000 1006 3750 
Q 1006 3503 1178 3333 
Q 1350 3163 1600 3163 
Q 1850 3163 2022 3333 
Q 2194 3503 2194 3750 
Q 2194 3997 2020 4172 
Q 1847 4347 1600 4347 
z
M 1600 4750 
Q 1800 4750 1984 4673 
Q 2169 4597 2303 4453 
Q 2447 4313 2519 4134 
Q 2591 3956 2591 3750 
Q 2591 3338 2302 3052 
Q 2013 2766 1594 2766 
Q 1172 2766 890 3047 
Q 609 3328 609 3750 
Q 609 4169 896 4459 
Q 1184 4750 1600 4750 
z
" transform="scale(0.015625)"/>
       <path id="DejaVuSans-5d" d="M 1947 4863 
L 1947 -844 
L 622 -844 
L 622 -397 
L 1369 -397 
L 1369 4416 
L 622 4416 
L 622 4863 
L 1947 4863 
z
" transform="scale(0.015625)"/>
      </defs>
      <use xlink:href="#DejaVuSans-54"/>
      <use xlink:href="#DejaVuSans-48" x="61.083984"/>
      <use xlink:href="#DejaVuSans-52" x="136.279297"/>
      <use xlink:href="#DejaVuSans-32" x="205.761719"/>
      <use xlink:href="#DejaVuSans-30" x="269.384766"/>
      <use xlink:href="#DejaVuSans-33" x="333.007812"/>
      <use xlink:href="#DejaVuSans-20" x="396.630859"/>
      <use xlink:href="#DejaVuSans-48" x="428.417969"/>
      <use xlink:href="#DejaVuSans-47" x="503.613281"/>
      <use xlink:href="#DejaVuSans-31" x="581.103516"/>
      <use xlink:href="#DejaVuSans-2d" x="644.726562"/>
      <use xlink:href="#DejaVuSans-4f" x="683.560547"/>
      <use xlink:href="#DejaVuSans-47" x="762.271484"/>
      <use xlink:href="#DejaVuSans-31" x="839.761719"/>
      <use xlink:href="#DejaVuSans-2d" x="903.384766"/>
      <use xlink:href="#DejaVuSans-43" x="939.46875"/>
      <use xlink:href="#DejaVuSans-42" x="1009.292969"/>
      <use xlink:href="#DejaVuSans-2d" x="1077.896484"/>
      <use xlink:href="#DejaVuSans-43" x="1113.980469"/>
      <use xlink:href="#DejaVuSans-47" x="1183.804688"/>
      <use xlink:href="#DejaVuSans-32" x="1261.294922"/>
      <use xlink:href="#DejaVuSans-20" x="1324.917969"/>
      <use xlink:href="#DejaVuSans-44" x="1356.705078"/>
      <use xlink:href="#DejaVuSans-69" x="1433.707031"/>
      <use xlink:href="#DejaVuSans-68" x="1461.490234"/>
      <use xlink:href="#DejaVuSans-65" x="1524.869141"/>
      <use xlink:href="#DejaVuSans-64" x="1586.392578"/>
      <use xlink:href="#DejaVuSans-72" x="1649.869141"/>
      <use xlink:href="#DejaVuSans-61" x="1690.982422"/>
      <use xlink:href="#DejaVuSans-6c" x="1752.261719"/>
      <use xlink:href="#DejaVuSans-20" x="1780.044922"/>
      <use xlink:href="#DejaVuSans-5b" x="1811.832031"/>
      <use xlink:href="#DejaVuSans-b0" x="1850.845703"/>
      <use xlink:href="#DejaVuSans-5d" x="1900.845703"/>
     </g>
    </g>
   </g>
   <g id="matplotlib.axis_2">
    <g id="ytick_1">
     <g id="line2d_10">
      <defs>
       <path id="m34f70a2384" d="M 0 0 
L -3.5 0 
" style="stroke: #000000; stroke-width: 0.8"/>
      </defs>
      <g>
       <use xlink:href="#m34f70a2384" x="60.41" y="303.64" style="stroke: #000000; stroke-width: 0.8"/>
      </g>
     </g>
     <g id="text_9">
      <!-- 0.000 -->
      <g transform="translate(24.781875 307.439219) scale(0.1 -0.1)">
       <defs>
        <path id="DejaVuSans-2e" d="M 684 794 
L 1344 794 
L 1344 0 
L 684 0 
L 684 794 
z
" transform="scale(0.015625)"/>
       </defs>
       <use xlink:href="#DejaVuSans-30"/>
       <use xlink:href="#DejaVuSans-2e" x="63.623047"/>
       <use xlink:href="#DejaVuSans-30" x="95.410156"/>
       <use xlink:href="#DejaVuSans-30" x="159.033203"/>
       <use xlink:href="#DejaVuSans-30" x="222.65625"/>
      </g>
     </g>
    </g>
    <g id="ytick_2">
     <g id="line2d_11">
      <g>
       <use xlink:href="#m34f70a2384" x="60.41" y="269.351169" style="stroke: #000000; stroke-width: 0.8"/>
      </g>
     </g>
     <g id="text_10">
      <!-- 0.002 -->
      <g transform="translate(24.781875 273.150388) scale(0.1 -0.1)">
       <use xlink:href="#DejaVuSans-30"/>
       <use xlink:href="#DejaVuSans-2e" x="63.623047"/>
       <use xlink:href="#DejaVuSans-30" x="95.410156"/>
       <use xlink:href="#DejaVuSans-30" x="159.033203"/>
       <use xlink:href="#DejaVuSans-32" x="222.65625"/>
      </g>
     </g>
    </g>
    <g id="ytick_3">
     <g id="line2d_12">
      <g>
       <use xlink:href="#m34f70a2384" x="60.41" y="235.062338" style="stroke: #000000; stroke-width: 0.8"/>
      </g>
     </g>
     <g id="text_11">
      <!-- 0.004 -->
      <g transform="translate(24.781875 238.861557) scale(0.1 -0.1)">
       <defs>
        <path id="DejaVuSans-34" d="M 2419 4116 
L 825 1625 
L 2419 1625 
L 2419 4116 
z
M 2253 4666 
L 3047 4666 
L 3047 1625 
L 3713 1625 
L 3713 1100 
L 3047 1100 
L 3047 0 
L 2419 0 
L 2419 1100 
L 313 1100 
L 313 1709 
L 2253 4666 
z
" transform="scale(0.015625)"/>
       </defs>
       <use xlink:href="#DejaVuSans-30"/>
       <use xlink:href="#DejaVuSans-2e" x="63.623047"/>
       <use xlink:href="#DejaVuSans-30" x="95.410156"/>
       <use xlink:href="#DejaVuSans-30" x="159.033203"/>
       <use xlink:href="#DejaVuSans-34" x="222.65625"/>
      </g>
     </g>
    </g>
    <g id="ytick_4">
     <g id="line2d_13">
      <g>
       <use xlink:href="#m34f70a2384" x="60.41" y="200.773507" style="stroke: #000000; stroke-width: 0.8"/>
      </g>
     </g>
     <g id="text_12">
      <!-- 0.006 -->
      <g transform="translate(24.781875 204.572726) scale(0.1 -0.1)">
       <use xlink:href="#DejaVuSans-30"/>
       <use xlink:href="#DejaVuSans-2e" x="63.623047"/>
       <use xlink:href="#DejaVuSans-30" x="95.410156"/>
       <use xlink:href="#DejaVuSans-30" x="159.033203"/>
       <use xlink:href="#DejaVuSans-36" x="222.65625"/>
      </g>
     </g>
    </g>
    <g id="ytick_5">
     <g id="line2d_14">
      <g>
       <use xlink:href="#m34f70a2384" x="60.41" y="166.484676" style="stroke: #000000; stroke-width: 0.8"/>
      </g>
     </g>
     <g id="text_13">
      <!-- 0.008 -->
      <g transform="translate(24.781875 170.283895) scale(0.1 -0.1)">
       <use xlink:href="#DejaVuSans-30"/>
       <use xlink:href="#DejaVuSans-2e" x="63.623047"/>
       <use xlink:href="#DejaVuSans-30" x="95.410156"/>
       <use xlink:href="#DejaVuSans-30" x="159.033203"/>
       <use xlink:href="#DejaVuSans-38" x="222.65625"/>
      </g>
     </g>
    </g>
    <g id="ytick_6">
     <g id="line2d_15">
      <g>
       <use xlink:href="#m34f70a2384" x="60.41" y="132.195845" style="stroke: #000000; stroke-width: 0.8"/>
      </g>
     </g>
     <g id="text_14">
      <!-- 0.010 -->
      <g transform="translate(24.781875 135.995063) scale(0.1 -0.1)">
       <use xlink:href="#DejaVuSans-30"/>
       <use xlink:href="#DejaVuSans-2e" x="63.623047"/>
       <use xlink:href="#DejaVuSans-30" x="95.410156"/>
       <use xlink:href="#DejaVuSans-31" x="159.033203"/>
       <use xlink:href="#DejaVuSans-30" x="222.65625"/>
      </g>
     </g>
    </g>
    <g id="ytick_7">
     <g id="line2d_16">
      <g>
       <use xlink:href="#m34f70a2384" x="60.41" y="97.907014" style="stroke: #000000; stroke-width: 0.8"/>
      </g>
     </g>
     <g id="text_15">
      <!-- 0.012 -->
      <g transform="translate(24.781875 101.706232) scale(0.1 -0.1)">
       <use xlink:href="#DejaVuSans-30"/>
       <use xlink:href="#DejaVuSans-2e" x="63.623047"/>
       <use xlink:href="#DejaVuSans-30" x="95.410156"/>
       <use xlink:href="#DejaVuSans-31" x="159.033203"/>
       <use xlink:href="#DejaVuSans-32" x="222.65625"/>
      </g>
     </g>
    </g>
    <g id="ytick_8">
     <g id="line2d_17">
      <g>
       <use xlink:href="#m34f70a2384" x="60.41" y="63.618183" style="stroke: #000000; stroke-width: 0.8"/>
      </g>
     </g>
     <g id="text_16">
      <!-- 0.014 -->
      <g transform="translate(24.781875 67.417401) scale(0.1 -0.1)">
       <use xlink:href="#DejaVuSans-30"/>
       <use xlink:href="#DejaVuSans-2e" x="63.623047"/>
       <use xlink:href="#DejaVuSans-30" x="95.410156"/>
       <use xlink:href="#DejaVuSans-31" x="159.033203"/>
       <use xlink:href="#DejaVuSans-34" x="222.65625"/>
      </g>
     </g>
    </g>
    <g id="ytick_9">
     <g id="line2d_18">
      <g>
       <use xlink:href="#m34f70a2384" x="60.41" y="29.329352" style="stroke: #000000; stroke-width: 0.8"/>
      </g>
     </g>
     <g id="text_17">
      <!-- 0.016 -->
      <g transform="translate(24.781875 33.12857) scale(0.1 -0.1)">
       <use xlink:href="#DejaVuSans-30"/>
       <use xlink:href="#DejaVuSans-2e" x="63.623047"/>
       <use xlink:href="#DejaVuSans-30" x="95.410156"/>
       <use xlink:href="#DejaVuSans-31" x="159.033203"/>
       <use xlink:href="#DejaVuSans-36" x="222.65625"/>
      </g>
     </g>
    </g>
    <g id="text_18">
     <!-- Density -->
     <g transform="translate(18.702188 176.228594) rotate(-90) scale(0.1 -0.1)">
      <defs>
       <path id="DejaVuSans-6e" d="M 3513 2113 
L 3513 0 
L 2938 0 
L 2938 2094 
Q 2938 2591 2744 2837 
Q 2550 3084 2163 3084 
Q 1697 3084 1428 2787 
Q 1159 2491 1159 1978 
L 1159 0 
L 581 0 
L 581 3500 
L 1159 3500 
L 1159 2956 
Q 1366 3272 1645 3428 
Q 1925 3584 2291 3584 
Q 2894 3584 3203 3211 
Q 3513 2838 3513 2113 
z
" transform="scale(0.015625)"/>
       <path id="DejaVuSans-73" d="M 2834 3397 
L 2834 2853 
Q 2591 2978 2328 3040 
Q 2066 3103 1784 3103 
Q 1356 3103 1142 2972 
Q 928 2841 928 2578 
Q 928 2378 1081 2264 
Q 1234 2150 1697 2047 
L 1894 2003 
Q 2506 1872 2764 1633 
Q 3022 1394 3022 966 
Q 3022 478 2636 193 
Q 2250 -91 1575 -91 
Q 1294 -91 989 -36 
Q 684 19 347 128 
L 347 722 
Q 666 556 975 473 
Q 1284 391 1588 391 
Q 1994 391 2212 530 
Q 2431 669 2431 922 
Q 2431 1156 2273 1281 
Q 2116 1406 1581 1522 
L 1381 1569 
Q 847 1681 609 1914 
Q 372 2147 372 2553 
Q 372 3047 722 3315 
Q 1072 3584 1716 3584 
Q 2034 3584 2315 3537 
Q 2597 3491 2834 3397 
z
" transform="scale(0.015625)"/>
       <path id="DejaVuSans-74" d="M 1172 4494 
L 1172 3500 
L 2356 3500 
L 2356 3053 
L 1172 3053 
L 1172 1153 
Q 1172 725 1289 603 
Q 1406 481 1766 481 
L 2356 481 
L 2356 0 
L 1766 0 
Q 1100 0 847 248 
Q 594 497 594 1153 
L 594 3053 
L 172 3053 
L 172 3500 
L 594 3500 
L 594 4494 
L 1172 4494 
z
" transform="scale(0.015625)"/>
       <path id="DejaVuSans-79" d="M 2059 -325 
Q 1816 -950 1584 -1140 
Q 1353 -1331 966 -1331 
L 506 -1331 
L 506 -850 
L 844 -850 
Q 1081 -850 1212 -737 
Q 1344 -625 1503 -206 
L 1606 56 
L 191 3500 
L 800 3500 
L 1894 763 
L 2988 3500 
L 3597 3500 
L 2059 -325 
z
" transform="scale(0.015625)"/>
      </defs>
      <use xlink:href="#DejaVuSans-44"/>
      <use xlink:href="#DejaVuSans-65" x="77.001953"/>
      <use xlink:href="#DejaVuSans-6e" x="138.525391"/>
      <use xlink:href="#DejaVuSans-73" x="201.904297"/>
      <use xlink:href="#DejaVuSans-69" x="254.003906"/>
      <use xlink:href="#DejaVuSans-74" x="281.787109"/>
      <use xlink:href="#DejaVuSans-79" x="320.996094"/>
     </g>
    </g>
   </g>
   <g id="line2d_19">
    <path d="M 60.41 303.351543 
L 67.42964 303.248626 
L 72.889359 302.969648 
L 77.179139 302.52649 
L 80.298979 301.998873 
L 83.028839 301.331519 
L 85.368719 300.559584 
L 87.708599 299.559609 
L 90.048478 298.289944 
L 91.998378 296.998465 
L 93.948278 295.476452 
L 96.288158 293.332988 
L 98.628038 290.848094 
L 101.357898 287.562503 
L 104.867718 282.90805 
L 109.937457 276.138272 
L 112.277337 273.404193 
L 114.227237 271.497358 
L 115.787157 270.284042 
L 117.347077 269.392776 
L 118.517017 268.954855 
L 119.686957 268.724922 
L 120.856897 268.708108 
L 122.026837 268.905444 
L 123.196777 269.313813 
L 124.366717 269.926034 
L 125.926637 271.039883 
L 127.486557 272.460614 
L 129.436456 274.59959 
L 131.776336 277.564508 
L 135.676136 282.986382 
L 139.575936 288.317097 
L 142.305796 291.666243 
L 144.645676 294.17597 
L 146.595576 295.986143 
L 148.545475 297.538224 
L 150.495375 298.842634 
L 152.445275 299.91825 
L 154.785155 300.941087 
L 157.125035 301.715107 
L 159.854895 302.364617 
L 162.974735 302.853444 
L 166.874535 303.203771 
L 171.944274 303.404817 
L 180.133854 303.465054 
L 195.343073 303.319661 
L 208.992372 302.992643 
L 221.081752 302.48912 
L 227.321431 302.02355 
L 231.611211 301.479031 
L 235.121031 300.804118 
L 238.240871 299.962736 
L 240.970731 298.986748 
L 243.310611 297.930418 
L 245.65049 296.628848 
L 247.60039 295.322022 
L 249.55029 293.778177 
L 251.50019 291.959763 
L 253.45009 289.825212 
L 255.39999 287.329923 
L 257.34989 284.427738 
L 259.29979 281.07286 
L 261.24969 277.222146 
L 263.19959 272.837661 
L 265.149489 267.88942 
L 267.099389 262.358175 
L 269.439269 254.944052 
L 271.779149 246.70357 
L 274.509009 236.125749 
L 277.628849 222.973666 
L 281.918629 203.721654 
L 287.378348 179.282618 
L 290.108208 168.085505 
L 292.058108 160.860299 
L 294.008008 154.467289 
L 295.567928 150.054627 
L 297.127848 146.340375 
L 298.297788 144.048129 
L 299.467728 142.201144 
L 300.637668 140.814844 
L 301.417628 140.152137 
L 302.197588 139.701164 
L 302.977548 139.463045 
L 303.757508 139.437964 
L 304.537467 139.625174 
L 305.317427 140.023019 
L 306.097387 140.628955 
L 307.267327 141.920372 
L 308.437267 143.65728 
L 309.607207 145.820993 
L 310.777147 148.389387 
L 312.337067 152.399533 
L 313.896987 157.017357 
L 315.846887 163.532178 
L 318.186767 172.236022 
L 321.306607 184.891001 
L 331.446086 226.981219 
L 333.785966 235.457763 
L 335.735866 241.824597 
L 337.685766 247.432263 
L 339.245686 251.292934 
L 340.805606 254.531782 
L 341.975546 256.515588 
L 343.145485 258.088086 
L 344.315425 259.222191 
L 345.095385 259.721195 
L 345.875345 260.005048 
L 346.655305 260.065633 
L 347.435265 259.894912 
L 348.215225 259.484993 
L 348.995185 258.828205 
L 349.775145 257.917193 
L 350.555105 256.745024 
L 351.725045 254.483284 
L 352.894985 251.601084 
L 354.064925 248.084304 
L 355.234865 243.924528 
L 356.794785 237.376651 
L 358.354705 229.704272 
L 359.914625 220.959156 
L 361.864525 208.657153 
L 364.204404 192.24121 
L 367.714224 165.643156 
L 371.224044 139.36685 
L 373.173944 126.201091 
L 374.733864 116.939747 
L 376.293784 109.127375 
L 377.463724 104.375453 
L 378.633664 100.675314 
L 379.413624 98.829665 
L 380.193584 97.500889 
L 380.973544 96.701348 
L 381.363524 96.502697 
L 381.753504 96.43898 
L 382.143483 96.510479 
L 382.533463 96.717191 
L 383.313423 97.534821 
L 384.093383 98.88616 
L 384.873343 100.76104 
L 385.653303 103.144986 
L 386.823243 107.633705 
L 387.993183 113.146574 
L 389.553103 121.92314 
L 391.113023 132.085733 
L 393.062923 146.289187 
L 396.182763 171.058182 
L 400.862523 208.410104 
L 403.202402 225.47307 
L 405.152302 238.357199 
L 407.102202 249.856052 
L 409.052102 259.905603 
L 410.612022 266.908146 
L 412.171942 273.024715 
L 413.731862 278.308205 
L 415.291782 282.824193 
L 416.851702 286.645872 
L 418.411622 289.84972 
L 419.971542 292.511976 
L 421.531461 294.705943 
L 423.091381 296.500056 
L 424.651301 297.956659 
L 426.211221 299.131348 
L 428.161121 300.276772 
L 430.111021 301.137607 
L 432.450901 301.885844 
L 435.180761 302.47461 
L 438.300601 302.893862 
L 442.2004 303.18101 
L 447.66012 303.337473 
L 450 303.351543 
L 450 303.351543 
" clip-path="url(#pbf64dd38d6)" style="fill: none; stroke: #f99752; stroke-width: 2.5; stroke-linecap: square"/>
   </g>
   <g id="patch_3">
    <path d="M 60.41 303.64 
L 60.41 10.8 
" style="fill: none; stroke: #000000; stroke-width: 0.8; stroke-linejoin: miter; stroke-linecap: square"/>
   </g>
   <g id="patch_4">
    <path d="M 450 303.64 
L 450 10.8 
" style="fill: none; stroke: #000000; stroke-width: 0.8; stroke-linejoin: miter; stroke-linecap: square"/>
   </g>
   <g id="patch_5">
    <path d="M 60.41 303.64 
L 450 303.64 
" style="fill: none; stroke: #000000; stroke-width: 0.8; stroke-linejoin: miter; stroke-linecap: square"/>
   </g>
   <g id="patch_6">
    <path d="M 60.41 10.8 
L 450 10.8 
" style="fill: none; stroke: #000000; stroke-width: 0.8; stroke-linejoin: miter; stroke-linecap: square"/>
   </g>
   <g id="legend_1">
    <g id="patch_7">
     <path d="M 367.554688 62.834375 
L 443 62.834375 
Q 445 62.834375 445 60.834375 
L 445 17.8 
Q 445 15.8 443 15.8 
L 367.554688 15.8 
Q 365.554688 15.8 365.554688 17.8 
L 365.554688 60.834375 
Q 365.554688 62.834375 367.554688 62.834375 
z
" style="fill: #ffffff; opacity: 0.8; stroke: #cccccc; stroke-linejoin: miter"/>
    </g>
    <g id="line2d_20">
     <path d="M 369.554688 23.898438 
L 379.554688 23.898438 
L 389.554688 23.898438 
" style="fill: none; stroke: #1e2e79; stroke-width: 2.5; stroke-linecap: square"/>
    </g>
    <g id="text_19">
     <!-- Reduced -->
     <g transform="translate(397.554688 27.398438) scale(0.1 -0.1)">
      <defs>
       <path id="DejaVuSans-75" d="M 544 1381 
L 544 3500 
L 1119 3500 
L 1119 1403 
Q 1119 906 1312 657 
Q 1506 409 1894 409 
Q 2359 409 2629 706 
Q 2900 1003 2900 1516 
L 2900 3500 
L 3475 3500 
L 3475 0 
L 2900 0 
L 2900 538 
Q 2691 219 2414 64 
Q 2138 -91 1772 -91 
Q 1169 -91 856 284 
Q 544 659 544 1381 
z
M 1991 3584 
L 1991 3584 
z
" transform="scale(0.015625)"/>
       <path id="DejaVuSans-63" d="M 3122 3366 
L 3122 2828 
Q 2878 2963 2633 3030 
Q 2388 3097 2138 3097 
Q 1578 3097 1268 2742 
Q 959 2388 959 1747 
Q 959 1106 1268 751 
Q 1578 397 2138 397 
Q 2388 397 2633 464 
Q 2878 531 3122 666 
L 3122 134 
Q 2881 22 2623 -34 
Q 2366 -91 2075 -91 
Q 1284 -91 818 406 
Q 353 903 353 1747 
Q 353 2603 823 3093 
Q 1294 3584 2113 3584 
Q 2378 3584 2631 3529 
Q 2884 3475 3122 3366 
z
" transform="scale(0.015625)"/>
      </defs>
      <use xlink:href="#DejaVuSans-52"/>
      <use xlink:href="#DejaVuSans-65" x="64.982422"/>
      <use xlink:href="#DejaVuSans-64" x="126.505859"/>
      <use xlink:href="#DejaVuSans-75" x="189.982422"/>
      <use xlink:href="#DejaVuSans-63" x="253.361328"/>
      <use xlink:href="#DejaVuSans-65" x="308.341797"/>
      <use xlink:href="#DejaVuSans-64" x="369.865234"/>
     </g>
    </g>
    <g id="line2d_21">
     <path d="M 369.554688 38.576563 
L 379.554688 38.576563 
L 389.554688 38.576563 
" style="fill: none; stroke: #ec4067; stroke-width: 2.5; stroke-linecap: square"/>
    </g>
    <g id="text_20">
     <!-- Oxidized -->
     <g transform="translate(397.554688 42.076563) scale(0.1 -0.1)">
      <defs>
       <path id="DejaVuSans-78" d="M 3513 3500 
L 2247 1797 
L 3578 0 
L 2900 0 
L 1881 1375 
L 863 0 
L 184 0 
L 1544 1831 
L 300 3500 
L 978 3500 
L 1906 2253 
L 2834 3500 
L 3513 3500 
z
" transform="scale(0.015625)"/>
       <path id="DejaVuSans-7a" d="M 353 3500 
L 3084 3500 
L 3084 2975 
L 922 459 
L 3084 459 
L 3084 0 
L 275 0 
L 275 525 
L 2438 3041 
L 353 3041 
L 353 3500 
z
" transform="scale(0.015625)"/>
      </defs>
      <use xlink:href="#DejaVuSans-4f"/>
      <use xlink:href="#DejaVuSans-78" x="78.710938"/>
      <use xlink:href="#DejaVuSans-69" x="137.890625"/>
      <use xlink:href="#DejaVuSans-64" x="165.673828"/>
      <use xlink:href="#DejaVuSans-69" x="229.150391"/>
      <use xlink:href="#DejaVuSans-7a" x="256.933594"/>
      <use xlink:href="#DejaVuSans-65" x="309.423828"/>
      <use xlink:href="#DejaVuSans-64" x="370.947266"/>
     </g>
    </g>
    <g id="line2d_22">
     <path d="M 369.554688 53.254688 
L 379.554688 53.254688 
L 389.554688 53.254688 
" style="fill: none; stroke: #f99752; stroke-width: 2.5; stroke-linecap: square"/>
    </g>
    <g id="text_21">
     <!-- Cu$^{+}$ -->
     <g transform="translate(397.554688 56.754688) scale(0.1 -0.1)">
      <defs>
       <path id="DejaVuSans-2b" d="M 2944 4013 
L 2944 2272 
L 4684 2272 
L 4684 1741 
L 2944 1741 
L 2944 0 
L 2419 0 
L 2419 1741 
L 678 1741 
L 678 2272 
L 2419 2272 
L 2419 4013 
L 2944 4013 
z
" transform="scale(0.015625)"/>
      </defs>
      <use xlink:href="#DejaVuSans-43" transform="translate(0 0.826562)"/>
      <use xlink:href="#DejaVuSans-75" transform="translate(69.824219 0.826562)"/>
      <use xlink:href="#DejaVuSans-2b" transform="translate(134.160156 39.107812) scale(0.7)"/>
     </g>
    </g>
   </g>
  </g>
 </g>
 <defs>
  <clipPath id="pbf64dd38d6">
   <rect x="60.41" y="10.8" width="389.59" height="292.84"/>
  </clipPath>
 </defs>
</svg>
