<?xml version="1.0" encoding="utf-8" standalone="no"?>
<!DOCTYPE svg PUBLIC "-//W3C//DTD SVG 1.1//EN"
  "http://www.w3.org/Graphics/SVG/1.1/DTD/svg11.dtd">
<svg xmlns:xlink="http://www.w3.org/1999/xlink" width="252pt" height="216pt" viewBox="0 0 252 216" xmlns="http://www.w3.org/2000/svg" version="1.1">
 <metadata>
  <rdf:RDF xmlns:dc="http://purl.org/dc/elements/1.1/" xmlns:cc="http://creativecommons.org/ns#" xmlns:rdf="http://www.w3.org/1999/02/22-rdf-syntax-ns#">
   <cc:Work>
    <dc:type rdf:resource="http://purl.org/dc/dcmitype/StillImage"/>
    <dc:date>2024-08-14T09:30:19.584632</dc:date>
    <dc:format>image/svg+xml</dc:format>
    <dc:creator>
     <cc:Agent>
      <dc:title>Matplotlib v3.9.1, https://matplotlib.org/</dc:title>
     </cc:Agent>
    </dc:creator>
   </cc:Work>
  </rdf:RDF>
 </metadata>
 <defs>
  <style type="text/css">*{stroke-linejoin: round; stroke-linecap: butt}</style>
 </defs>
 <g id="figure_1">
  <g id="patch_1">
   <path d="M 0 216 
L 252 216 
L 252 0 
L 0 0 
z
" style="fill: #ffffff"/>
  </g>
  <g id="axes_1">
   <g id="patch_2">
    <path d="M 43.319 179.8 
L 237.807 179.8 
L 237.807 11.664 
L 43.319 11.664 
z
" style="fill: #ffffff"/>
   </g>
   <g id="line2d_1">
    <path d="M 43.319 95.732 
L 237.807 95.732 
" clip-path="url(#p1e937b23e4)" style="fill: none; stroke-dasharray: 1.5,2.475; stroke-dashoffset: 0; stroke: #c0c0c0; stroke-width: 1.5"/>
   </g>
   <g id="line2d_2">
    <path d="M 70.052122 -1 
L 70.210497 2.311322 
L 72.655179 42.038868 
L 75.09986 71.861251 
L 77.544542 93.071767 
L 79.989223 107.094166 
L 82.433905 115.398945 
L 84.878587 119.232604 
L 87.323268 119.678047 
L 89.76795 117.595337 
L 92.212631 113.700507 
L 94.657313 108.675852 
L 101.991358 92.308189 
L 104.436039 87.297881 
L 109.325402 77.957044 
L 111.770084 73.608496 
L 114.214765 69.709236 
L 116.659447 66.582937 
L 119.104128 64.162868 
L 121.54881 62.293905 
L 128.882855 58.237345 
L 131.327536 57.979848 
L 133.772218 58.19061 
L 136.216899 58.141628 
L 138.661581 58.3514 
L 141.106263 59.758356 
L 143.550944 61.564658 
L 148.440307 64.36987 
L 150.884989 65.546302 
L 153.32967 66.916845 
L 155.774352 69.357156 
L 158.219034 72.08793 
L 163.108397 76.84241 
L 165.553078 79.028346 
L 167.99776 81.373075 
L 170.442441 84.232685 
L 172.887123 87.333395 
L 175.331804 89.891319 
L 177.776486 91.667514 
L 182.665849 94.4984 
L 185.110531 95.411334 
L 187.555212 95.737935 
L 189.999894 95.653148 
L 192.444575 94.998681 
L 194.889257 93.593385 
L 197.333939 91.571143 
L 199.77862 89.177569 
L 202.223302 86.618945 
L 204.667983 83.849963 
L 207.112665 80.735932 
L 214.446709 70.537086 
L 221.780754 60.619173 
L 224.225436 57.734601 
L 226.670117 55.057935 
L 229.114799 52.089376 
L 231.55948 48.677981 
L 234.004162 44.964252 
L 236.448844 41.835582 
L 238.893525 39.498908 
L 241.338207 36.829653 
L 243.782888 33.870306 
L 246.22757 30.398541 
L 253 18.800692 
L 253 18.800692 
" clip-path="url(#p1e937b23e4)" style="fill: none; stroke: #1e2e79; stroke-width: 1.5; stroke-linecap: square"/>
   </g>
   <g id="line2d_3">
    <path d="M 70.023534 -1 
L 70.210497 4.257054 
L 72.655179 56.693361 
L 75.09986 95.604115 
L 77.544542 122.681355 
L 79.989223 140.110446 
L 82.433905 150.629939 
L 84.878587 156.135562 
L 87.323268 157.858893 
L 89.76795 156.747305 
L 92.212631 153.803943 
L 94.657313 149.970761 
L 97.101994 145.496131 
L 101.991358 135.706056 
L 106.880721 126.953395 
L 109.325402 123.09468 
L 111.770084 119.838114 
L 116.659447 113.107583 
L 119.104128 110.481327 
L 121.54881 108.387547 
L 126.438173 105.761754 
L 128.882855 104.003688 
L 131.327536 102.689544 
L 136.216899 101.13898 
L 138.661581 100.879476 
L 145.995626 100.67265 
L 150.884989 100.119508 
L 155.774352 101.53426 
L 160.663715 101.984135 
L 163.108397 102.039279 
L 165.553078 101.804624 
L 167.99776 101.248417 
L 170.442441 101.369949 
L 172.887123 101.273085 
L 175.331804 100.487053 
L 177.776486 99.503835 
L 180.221168 99.264595 
L 182.665849 98.093789 
L 185.110531 96.732946 
L 187.555212 95.855544 
L 189.999894 94.090629 
L 192.444575 91.792263 
L 197.333939 88.561218 
L 199.77862 86.143574 
L 202.223302 83.37624 
L 209.557346 75.851855 
L 212.002028 73.00243 
L 214.446709 69.833111 
L 219.336073 63.9615 
L 221.780754 58.907586 
L 224.225436 54.513396 
L 226.670117 51.886042 
L 229.114799 49.982915 
L 231.55948 47.806247 
L 236.448844 39.430474 
L 238.893525 35.868617 
L 241.338207 31.780809 
L 243.782888 29.22561 
L 246.22757 24.696947 
L 248.672251 22.437924 
L 251.116933 19.977536 
L 253 16.746485 
L 253 16.746485 
" clip-path="url(#p1e937b23e4)" style="fill: none; stroke: #ec4067; stroke-width: 1.5; stroke-linecap: square"/>
   </g>
   <g id="matplotlib.axis_1">
    <g id="xtick_1">
     <g id="line2d_4">
      <defs>
       <path id="me002cf3889" d="M 0 0 
L 0 3.5 
" style="stroke: #c2c1c1; stroke-width: 0.8"/>
      </defs>
      <g>
       <use xlink:href="#me002cf3889" x="43.319" y="179.8" style="fill: #c2c1c1; stroke: #c2c1c1; stroke-width: 0.8"/>
      </g>
     </g>
     <g id="text_1">
      <!-- 1.0 -->
      <g style="fill: #191919" transform="translate(37.76775 192.8) scale(0.08 -0.08)">
       <defs>
        <path id="Roboto-Regular-31" d="M 2278 4575 
L 2278 0 
L 1700 0 
L 1700 3853 
L 534 3428 
L 534 3950 
L 2188 4575 
L 2278 4575 
z
" transform="scale(0.015625)"/>
        <path id="Roboto-Regular-2e" d="M 450 306 
Q 450 453 542 554 
Q 634 656 809 656 
Q 984 656 1076 554 
Q 1169 453 1169 306 
Q 1169 163 1076 62 
Q 984 -38 809 -38 
Q 634 -38 542 62 
Q 450 163 450 306 
z
" transform="scale(0.015625)"/>
        <path id="Roboto-Regular-30" d="M 3234 1944 
Q 3234 825 2848 381 
Q 2463 -63 1800 -63 
Q 1156 -63 764 368 
Q 372 800 359 1872 
L 359 2638 
Q 359 3753 750 4183 
Q 1141 4613 1794 4613 
Q 2447 4613 2834 4195 
Q 3222 3778 3234 2709 
L 3234 1944 
z
M 2653 2734 
Q 2653 3503 2434 3822 
Q 2216 4141 1794 4141 
Q 1388 4141 1167 3831 
Q 947 3522 941 2778 
L 941 1850 
Q 941 1088 1164 750 
Q 1388 413 1800 413 
Q 2222 413 2436 745 
Q 2650 1078 2653 1825 
L 2653 2734 
z
" transform="scale(0.015625)"/>
       </defs>
       <use xlink:href="#Roboto-Regular-31"/>
       <use xlink:href="#Roboto-Regular-2e" x="56.201172"/>
       <use xlink:href="#Roboto-Regular-30" x="82.568359"/>
      </g>
     </g>
    </g>
    <g id="xtick_2">
     <g id="line2d_5">
      <g>
       <use xlink:href="#me002cf3889" x="67.63" y="179.8" style="fill: #c2c1c1; stroke: #c2c1c1; stroke-width: 0.8"/>
      </g>
     </g>
     <g id="text_2">
      <!-- 1.5 -->
      <g style="fill: #191919" transform="translate(62.07875 192.8) scale(0.08 -0.08)">
       <defs>
        <path id="Roboto-Regular-35" d="M 1109 2166 
L 647 2284 
L 875 4550 
L 3209 4550 
L 3209 4016 
L 1366 4016 
L 1228 2778 
Q 1572 2975 1988 2975 
Q 2616 2975 2980 2561 
Q 3344 2147 3344 1450 
Q 3344 797 2987 367 
Q 2631 -63 1903 -63 
Q 1350 -63 947 248 
Q 544 559 481 1197 
L 1031 1197 
Q 1141 413 1903 413 
Q 2313 413 2538 691 
Q 2763 969 2763 1444 
Q 2763 1872 2527 2164 
Q 2291 2456 1853 2456 
Q 1563 2456 1413 2378 
Q 1263 2300 1109 2166 
z
" transform="scale(0.015625)"/>
       </defs>
       <use xlink:href="#Roboto-Regular-31"/>
       <use xlink:href="#Roboto-Regular-2e" x="56.201172"/>
       <use xlink:href="#Roboto-Regular-35" x="82.568359"/>
      </g>
     </g>
    </g>
    <g id="xtick_3">
     <g id="line2d_6">
      <g>
       <use xlink:href="#me002cf3889" x="91.941" y="179.8" style="fill: #c2c1c1; stroke: #c2c1c1; stroke-width: 0.8"/>
      </g>
     </g>
     <g id="text_3">
      <!-- 2.0 -->
      <g style="fill: #191919" transform="translate(86.38975 192.8) scale(0.08 -0.08)">
       <defs>
        <path id="Roboto-Regular-32" d="M 3359 475 
L 3359 0 
L 381 0 
L 381 416 
L 1925 2134 
Q 2306 2566 2439 2819 
Q 2572 3072 2572 3328 
Q 2572 3663 2364 3900 
Q 2156 4138 1778 4138 
Q 1322 4138 1097 3878 
Q 872 3619 872 3213 
L 294 3213 
Q 294 3788 672 4200 
Q 1050 4613 1778 4613 
Q 2422 4613 2786 4278 
Q 3150 3944 3150 3397 
Q 3150 2997 2903 2592 
Q 2656 2188 2297 1797 
L 1078 475 
L 3359 475 
z
" transform="scale(0.015625)"/>
       </defs>
       <use xlink:href="#Roboto-Regular-32"/>
       <use xlink:href="#Roboto-Regular-2e" x="56.201172"/>
       <use xlink:href="#Roboto-Regular-30" x="82.568359"/>
      </g>
     </g>
    </g>
    <g id="xtick_4">
     <g id="line2d_7">
      <g>
       <use xlink:href="#me002cf3889" x="116.252" y="179.8" style="fill: #c2c1c1; stroke: #c2c1c1; stroke-width: 0.8"/>
      </g>
     </g>
     <g id="text_4">
      <!-- 2.5 -->
      <g style="fill: #191919" transform="translate(110.70075 192.8) scale(0.08 -0.08)">
       <use xlink:href="#Roboto-Regular-32"/>
       <use xlink:href="#Roboto-Regular-2e" x="56.201172"/>
       <use xlink:href="#Roboto-Regular-35" x="82.568359"/>
      </g>
     </g>
    </g>
    <g id="xtick_5">
     <g id="line2d_8">
      <g>
       <use xlink:href="#me002cf3889" x="140.563" y="179.8" style="fill: #c2c1c1; stroke: #c2c1c1; stroke-width: 0.8"/>
      </g>
     </g>
     <g id="text_5">
      <!-- 3.0 -->
      <g style="fill: #191919" transform="translate(135.01175 192.8) scale(0.08 -0.08)">
       <defs>
        <path id="Roboto-Regular-33" d="M 1222 2084 
L 1222 2559 
L 1647 2559 
Q 2094 2563 2312 2784 
Q 2531 3006 2531 3338 
Q 2531 4138 1738 4138 
Q 1369 4138 1141 3927 
Q 913 3716 913 3359 
L 334 3359 
Q 334 3881 720 4247 
Q 1106 4613 1738 4613 
Q 2353 4613 2733 4286 
Q 3113 3959 3113 3325 
Q 3113 3072 2942 2784 
Q 2772 2497 2397 2338 
Q 2850 2191 3015 1884 
Q 3181 1578 3181 1269 
Q 3181 631 2768 284 
Q 2356 -63 1741 -63 
Q 1147 -63 722 267 
Q 297 597 297 1203 
L 875 1203 
Q 875 844 1108 628 
Q 1341 413 1741 413 
Q 2138 413 2369 622 
Q 2600 831 2600 1256 
Q 2600 1681 2337 1882 
Q 2075 2084 1634 2084 
L 1222 2084 
z
" transform="scale(0.015625)"/>
       </defs>
       <use xlink:href="#Roboto-Regular-33"/>
       <use xlink:href="#Roboto-Regular-2e" x="56.201172"/>
       <use xlink:href="#Roboto-Regular-30" x="82.568359"/>
      </g>
     </g>
    </g>
    <g id="xtick_6">
     <g id="line2d_9">
      <g>
       <use xlink:href="#me002cf3889" x="164.874" y="179.8" style="fill: #c2c1c1; stroke: #c2c1c1; stroke-width: 0.8"/>
      </g>
     </g>
     <g id="text_6">
      <!-- 3.5 -->
      <g style="fill: #191919" transform="translate(159.32275 192.8) scale(0.08 -0.08)">
       <use xlink:href="#Roboto-Regular-33"/>
       <use xlink:href="#Roboto-Regular-2e" x="56.201172"/>
       <use xlink:href="#Roboto-Regular-35" x="82.568359"/>
      </g>
     </g>
    </g>
    <g id="xtick_7">
     <g id="line2d_10">
      <g>
       <use xlink:href="#me002cf3889" x="189.185" y="179.8" style="fill: #c2c1c1; stroke: #c2c1c1; stroke-width: 0.8"/>
      </g>
     </g>
     <g id="text_7">
      <!-- 4.0 -->
      <g style="fill: #191919" transform="translate(183.63375 192.8) scale(0.08 -0.08)">
       <defs>
        <path id="Roboto-Regular-34" d="M 166 1397 
L 2203 4550 
L 2819 4550 
L 2819 1531 
L 3453 1531 
L 3453 1056 
L 2819 1056 
L 2819 0 
L 2241 0 
L 2241 1056 
L 166 1056 
L 166 1397 
z
M 822 1531 
L 2241 1531 
L 2241 3766 
L 2169 3638 
L 822 1531 
z
" transform="scale(0.015625)"/>
       </defs>
       <use xlink:href="#Roboto-Regular-34"/>
       <use xlink:href="#Roboto-Regular-2e" x="56.201172"/>
       <use xlink:href="#Roboto-Regular-30" x="82.568359"/>
      </g>
     </g>
    </g>
    <g id="xtick_8">
     <g id="line2d_11">
      <g>
       <use xlink:href="#me002cf3889" x="213.496" y="179.8" style="fill: #c2c1c1; stroke: #c2c1c1; stroke-width: 0.8"/>
      </g>
     </g>
     <g id="text_8">
      <!-- 4.5 -->
      <g style="fill: #191919" transform="translate(207.94475 192.8) scale(0.08 -0.08)">
       <use xlink:href="#Roboto-Regular-34"/>
       <use xlink:href="#Roboto-Regular-2e" x="56.201172"/>
       <use xlink:href="#Roboto-Regular-35" x="82.568359"/>
      </g>
     </g>
    </g>
    <g id="xtick_9">
     <g id="line2d_12">
      <g>
       <use xlink:href="#me002cf3889" x="237.807" y="179.8" style="fill: #c2c1c1; stroke: #c2c1c1; stroke-width: 0.8"/>
      </g>
     </g>
     <g id="text_9">
      <!-- 5.0 -->
      <g style="fill: #191919" transform="translate(232.25575 192.8) scale(0.08 -0.08)">
       <use xlink:href="#Roboto-Regular-35"/>
       <use xlink:href="#Roboto-Regular-2e" x="56.201172"/>
       <use xlink:href="#Roboto-Regular-30" x="82.568359"/>
      </g>
     </g>
    </g>
    <g id="text_10">
     <!-- Cro66 OH - His148 HD1 Distance [Å] -->
     <g style="fill: #191919" transform="translate(75.326125 205.70375) scale(0.08 -0.08)">
      <defs>
       <path id="Roboto-Bold-43" d="M 3044 1516 
L 3981 1516 
Q 3934 822 3461 379 
Q 2988 -63 2150 -63 
Q 1275 -63 772 526 
Q 269 1116 269 2125 
L 269 2422 
Q 269 3431 784 4023 
Q 1300 4616 2159 4616 
Q 3013 4616 3466 4161 
Q 3919 3706 3984 3006 
L 3047 3006 
Q 3016 3413 2820 3630 
Q 2625 3847 2159 3847 
Q 1247 3847 1222 2500 
L 1222 2125 
Q 1222 1419 1436 1062 
Q 1650 706 2150 706 
Q 2594 706 2801 907 
Q 3009 1109 3044 1516 
z
" transform="scale(0.015625)"/>
       <path id="Roboto-Bold-72" d="M 1922 2563 
Q 1413 2563 1253 2216 
L 1253 0 
L 347 0 
L 347 3381 
L 1200 3381 
L 1228 2978 
Q 1494 3444 1981 3444 
Q 2153 3444 2259 3403 
L 2250 2538 
L 1922 2563 
z
" transform="scale(0.015625)"/>
       <path id="Roboto-Bold-6f" d="M 206 1722 
Q 206 2459 625 2951 
Q 1044 3444 1806 3444 
Q 2578 3444 2993 2951 
Q 3409 2459 3409 1722 
L 3409 1656 
Q 3409 919 2993 428 
Q 2578 -63 1813 -63 
Q 1053 -63 636 415 
Q 219 894 206 1616 
L 206 1722 
z
M 1113 1656 
Q 1113 1244 1270 955 
Q 1428 666 1813 666 
Q 2191 666 2348 953 
Q 2506 1241 2506 1722 
Q 2506 2125 2348 2420 
Q 2191 2716 1806 2716 
Q 1425 2716 1269 2422 
Q 1113 2128 1113 1656 
z
" transform="scale(0.015625)"/>
       <path id="Roboto-Bold-36" d="M 3450 1500 
Q 3450 838 3033 387 
Q 2616 -63 1916 -63 
Q 1188 -63 752 443 
Q 316 950 316 1750 
L 316 2097 
Q 316 3200 925 3898 
Q 1534 4597 2634 4597 
L 2763 4597 
L 2763 3853 
L 2672 3853 
Q 2050 3844 1688 3538 
Q 1313 3219 1238 2675 
Q 1603 3047 2156 3047 
Q 2800 3047 3125 2589 
Q 3450 2131 3450 1500 
z
M 1219 1631 
Q 1219 1150 1408 909 
Q 1597 669 1900 669 
Q 2194 669 2370 901 
Q 2547 1134 2547 1491 
Q 2547 1853 2370 2087 
Q 2194 2322 1881 2322 
Q 1641 2322 1469 2198 
Q 1297 2075 1219 1903 
L 1219 1631 
z
" transform="scale(0.015625)"/>
       <path id="Roboto-Bold-20" transform="scale(0.015625)"/>
       <path id="Roboto-Bold-4f" d="M 4147 2172 
Q 4147 1131 3608 534 
Q 3069 -63 2212 -63 
Q 1356 -63 812 534 
Q 269 1131 269 2172 
L 269 2375 
Q 269 3416 809 4014 
Q 1350 4613 2206 4613 
Q 3063 4613 3605 4014 
Q 4147 3416 4147 2375 
L 4147 2172 
z
M 3197 2381 
Q 3197 3094 2937 3466 
Q 2678 3838 2206 3838 
Q 1734 3838 1478 3470 
Q 1222 3103 1219 2397 
L 1219 2172 
Q 1219 1463 1478 1086 
Q 1738 709 2213 709 
Q 2684 709 2939 1081 
Q 3194 1453 3197 2156 
L 3197 2381 
z
" transform="scale(0.015625)"/>
       <path id="Roboto-Bold-48" d="M 3175 0 
L 3175 1950 
L 1347 1950 
L 1347 0 
L 406 0 
L 406 4550 
L 1347 4550 
L 1347 2706 
L 3175 2706 
L 3175 4550 
L 4113 4550 
L 4113 0 
L 3175 0 
z
" transform="scale(0.015625)"/>
       <path id="Roboto-Bold-2d" d="M 2103 2316 
L 2103 1584 
L 347 1584 
L 347 2316 
L 2103 2316 
z
" transform="scale(0.015625)"/>
       <path id="Roboto-Bold-69" d="M 341 4256 
Q 341 4459 478 4592 
Q 616 4725 847 4725 
Q 1078 4725 1215 4592 
Q 1353 4459 1353 4256 
Q 1353 4056 1215 3923 
Q 1078 3791 847 3791 
Q 616 3791 478 3923 
Q 341 4056 341 4256 
z
M 1303 3381 
L 1303 0 
L 397 0 
L 397 3381 
L 1303 3381 
z
" transform="scale(0.015625)"/>
       <path id="Roboto-Bold-73" d="M 2178 938 
Q 2178 1081 2045 1179 
Q 1913 1278 1475 1372 
Q 953 1484 618 1721 
Q 284 1959 284 2394 
Q 284 2816 642 3130 
Q 1000 3444 1631 3444 
Q 2291 3444 2669 3134 
Q 3047 2825 3047 2353 
L 2144 2353 
Q 2144 2547 2019 2675 
Q 1894 2803 1628 2803 
Q 1403 2803 1276 2698 
Q 1150 2594 1150 2438 
Q 1150 2294 1284 2200 
Q 1419 2106 1781 2034 
Q 2331 1925 2693 1700 
Q 3056 1475 3056 972 
Q 3056 525 2672 231 
Q 2288 -63 1634 -63 
Q 925 -63 550 301 
Q 175 666 175 1078 
L 1034 1078 
Q 1047 813 1230 697 
Q 1413 581 1653 581 
Q 2178 581 2178 938 
z
" transform="scale(0.015625)"/>
       <path id="Roboto-Bold-31" d="M 2503 4556 
L 2503 0 
L 1600 0 
L 1600 3484 
L 525 3150 
L 525 3881 
L 2406 4556 
L 2503 4556 
z
" transform="scale(0.015625)"/>
       <path id="Roboto-Bold-34" d="M 175 1553 
L 2072 4550 
L 2984 4550 
L 2984 1713 
L 3500 1713 
L 3500 984 
L 2984 984 
L 2984 0 
L 2081 0 
L 2081 984 
L 216 984 
L 175 1553 
z
M 1072 1713 
L 2081 1713 
L 2081 3328 
L 2019 3219 
L 1072 1713 
z
" transform="scale(0.015625)"/>
       <path id="Roboto-Bold-38" d="M 3369 1247 
Q 3369 603 2933 270 
Q 2497 -63 1837 -63 
Q 1178 -63 736 270 
Q 294 603 294 1247 
Q 294 1625 489 1908 
Q 684 2191 1013 2347 
Q 725 2497 559 2755 
Q 394 3013 394 3341 
Q 394 3959 800 4287 
Q 1206 4616 1831 4616 
Q 2466 4616 2870 4287 
Q 3275 3959 3275 3341 
Q 3275 3009 3108 2753 
Q 2941 2497 2653 2344 
Q 2981 2188 3175 1906 
Q 3369 1625 3369 1247 
z
M 2372 3297 
Q 2372 3563 2230 3725 
Q 2088 3888 1831 3888 
Q 1581 3888 1439 3730 
Q 1297 3572 1297 3297 
Q 1297 3028 1439 2862 
Q 1581 2697 1837 2697 
Q 2094 2697 2233 2862 
Q 2372 3028 2372 3297 
z
M 2466 1313 
Q 2466 1619 2291 1794 
Q 2116 1969 1831 1969 
Q 1547 1969 1373 1794 
Q 1200 1619 1200 1313 
Q 1200 1009 1373 837 
Q 1547 666 1838 666 
Q 2125 666 2295 837 
Q 2466 1009 2466 1313 
z
" transform="scale(0.015625)"/>
       <path id="Roboto-Bold-44" d="M 406 0 
L 406 4550 
L 1809 4550 
Q 2728 4550 3308 3950 
Q 3888 3350 3888 2375 
L 3888 2172 
Q 3888 1197 3308 598 
Q 2728 0 1797 0 
L 406 0 
z
M 1347 3791 
L 1347 756 
L 1797 756 
Q 2350 756 2639 1115 
Q 2928 1475 2934 2144 
L 2934 2381 
Q 2934 3075 2661 3428 
Q 2388 3781 1838 3791 
L 1347 3791 
z
" transform="scale(0.015625)"/>
       <path id="Roboto-Bold-74" d="M 2041 22 
Q 1788 -63 1497 -63 
Q 1053 -63 790 168 
Q 528 400 528 938 
L 528 2722 
L 31 2722 
L 31 3381 
L 528 3381 
L 528 4216 
L 1431 4216 
L 1431 3381 
L 2006 3381 
L 2006 2722 
L 1431 2722 
L 1431 1031 
Q 1431 819 1518 750 
Q 1606 681 1778 681 
Q 1916 681 2041 706 
L 2041 22 
z
" transform="scale(0.015625)"/>
       <path id="Roboto-Bold-61" d="M 2306 0 
Q 2250 119 2216 303 
Q 1888 -63 1363 -63 
Q 878 -63 547 223 
Q 216 509 216 950 
Q 216 1481 609 1773 
Q 1003 2066 1775 2066 
L 2178 2066 
L 2178 2263 
Q 2178 2497 2058 2636 
Q 1938 2775 1678 2775 
Q 1194 2775 1194 2369 
L 291 2369 
Q 291 2809 681 3126 
Q 1072 3444 1728 3444 
Q 2313 3444 2698 3147 
Q 3084 2850 3084 2256 
L 3084 750 
Q 3091 300 3219 53 
L 3219 0 
L 2306 0 
z
M 1559 628 
Q 1788 628 1948 729 
Q 2109 831 2178 953 
L 2178 1541 
L 1809 1541 
Q 1450 1541 1284 1389 
Q 1119 1238 1119 1016 
Q 1119 847 1236 737 
Q 1353 628 1559 628 
z
" transform="scale(0.015625)"/>
       <path id="Roboto-Bold-6e" d="M 1806 2713 
Q 1422 2713 1234 2388 
L 1234 0 
L 331 0 
L 331 3381 
L 1178 3381 
L 1209 2994 
Q 1572 3444 2181 3444 
Q 2659 3444 2953 3159 
Q 3247 2875 3250 2169 
L 3250 0 
L 2344 0 
L 2344 2156 
Q 2344 2481 2205 2597 
Q 2066 2713 1806 2713 
z
" transform="scale(0.015625)"/>
       <path id="Roboto-Bold-63" d="M 1753 666 
Q 2000 666 2159 802 
Q 2319 938 2322 1169 
L 3172 1169 
Q 3166 631 2761 284 
Q 2356 -63 1769 -63 
Q 984 -63 595 432 
Q 206 928 206 1647 
L 206 1734 
Q 206 2450 593 2947 
Q 981 3444 1766 3444 
Q 2388 3444 2777 3087 
Q 3166 2731 3172 2122 
L 2322 2122 
Q 2319 2369 2172 2542 
Q 2025 2716 1750 2716 
Q 1356 2716 1234 2420 
Q 1113 2125 1113 1647 
Q 1113 1256 1233 961 
Q 1353 666 1753 666 
z
" transform="scale(0.015625)"/>
       <path id="Roboto-Bold-65" d="M 3225 550 
Q 3063 319 2731 128 
Q 2400 -63 1906 -63 
Q 1119 -63 675 414 
Q 231 891 228 1566 
L 228 1697 
Q 228 2463 654 2953 
Q 1081 3444 1806 3444 
Q 2534 3444 2915 2987 
Q 3297 2531 3297 1781 
L 3297 1397 
L 1144 1397 
Q 1191 1069 1403 867 
Q 1616 666 1963 666 
Q 2478 666 2778 1044 
L 3225 550 
z
M 1800 2716 
Q 1513 2716 1356 2522 
Q 1200 2328 1153 2016 
L 2409 2016 
L 2409 2084 
Q 2403 2356 2258 2536 
Q 2113 2716 1800 2716 
z
" transform="scale(0.015625)"/>
       <path id="Roboto-Bold-5b" d="M 1728 5297 
L 1728 4600 
L 1281 4600 
L 1281 -366 
L 1728 -366 
L 1728 -1059 
L 375 -1059 
L 375 5297 
L 1728 5297 
z
" transform="scale(0.015625)"/>
       <path id="Roboto-Bold-c5" d="M 25 0 
L 1719 4550 
L 2588 4550 
L 4291 0 
L 3291 0 
L 2978 938 
L 1331 938 
L 1019 0 
L 25 0 
z
M 1584 1697 
L 2725 1697 
L 2156 3406 
L 1584 1697 
z
M 1471 5424 
Q 1471 5683 1668 5873 
Q 1865 6064 2168 6064 
Q 2468 6064 2666 5873 
Q 2865 5683 2865 5424 
Q 2865 5158 2666 4975 
Q 2468 4793 2168 4793 
Q 1865 4793 1668 4975 
Q 1471 5158 1471 5424 
z
M 1830 5423 
Q 1830 5286 1922 5187 
Q 2015 5089 2168 5089 
Q 2321 5089 2413 5187 
Q 2505 5286 2505 5423 
Q 2505 5561 2413 5662 
Q 2321 5764 2168 5764 
Q 2015 5764 1922 5662 
Q 1830 5561 1830 5423 
z
" transform="scale(0.015625)"/>
       <path id="Roboto-Bold-5d" d="M 41 4600 
L 41 5297 
L 1394 5297 
L 1394 -1059 
L 41 -1059 
L 41 -366 
L 491 -366 
L 491 4600 
L 41 4600 
z
" transform="scale(0.015625)"/>
      </defs>
      <use xlink:href="#Roboto-Bold-43"/>
      <use xlink:href="#Roboto-Bold-72" x="65.478516"/>
      <use xlink:href="#Roboto-Bold-6f" x="102.001953"/>
      <use xlink:href="#Roboto-Bold-36" x="158.544922"/>
      <use xlink:href="#Roboto-Bold-36" x="215.917969"/>
      <use xlink:href="#Roboto-Bold-20" x="273.291016"/>
      <use xlink:href="#Roboto-Bold-4f" x="298.193359"/>
      <use xlink:href="#Roboto-Bold-48" x="367.236328"/>
      <use xlink:href="#Roboto-Bold-20" x="437.939453"/>
      <use xlink:href="#Roboto-Bold-2d" x="462.841797"/>
      <use xlink:href="#Roboto-Bold-20" x="501.660156"/>
      <use xlink:href="#Roboto-Bold-48" x="526.5625"/>
      <use xlink:href="#Roboto-Bold-69" x="597.265625"/>
      <use xlink:href="#Roboto-Bold-73" x="623.779297"/>
      <use xlink:href="#Roboto-Bold-31" x="675.244141"/>
      <use xlink:href="#Roboto-Bold-34" x="732.617188"/>
      <use xlink:href="#Roboto-Bold-38" x="789.990234"/>
      <use xlink:href="#Roboto-Bold-20" x="847.363281"/>
      <use xlink:href="#Roboto-Bold-48" x="872.265625"/>
      <use xlink:href="#Roboto-Bold-44" x="942.96875"/>
      <use xlink:href="#Roboto-Bold-31" x="1008.007812"/>
      <use xlink:href="#Roboto-Bold-20" x="1065.380859"/>
      <use xlink:href="#Roboto-Bold-44" x="1090.283203"/>
      <use xlink:href="#Roboto-Bold-69" x="1155.322266"/>
      <use xlink:href="#Roboto-Bold-73" x="1181.835938"/>
      <use xlink:href="#Roboto-Bold-74" x="1233.300781"/>
      <use xlink:href="#Roboto-Bold-61" x="1267.089844"/>
      <use xlink:href="#Roboto-Bold-6e" x="1320.703125"/>
      <use xlink:href="#Roboto-Bold-63" x="1376.708984"/>
      <use xlink:href="#Roboto-Bold-65" x="1428.90625"/>
      <use xlink:href="#Roboto-Bold-20" x="1482.958984"/>
      <use xlink:href="#Roboto-Bold-5b" x="1507.861328"/>
      <use xlink:href="#Roboto-Bold-c5" x="1535.693359"/>
      <use xlink:href="#Roboto-Bold-5d" x="1603.027344"/>
     </g>
    </g>
   </g>
   <g id="matplotlib.axis_2">
    <g id="ytick_1">
     <g id="line2d_13">
      <defs>
       <path id="m3aa8819e5d" d="M 0 0 
L -3.5 0 
" style="stroke: #c2c1c1; stroke-width: 0.8"/>
      </defs>
      <g>
       <use xlink:href="#m3aa8819e5d" x="43.319" y="179.8" style="fill: #c2c1c1; stroke: #c2c1c1; stroke-width: 0.8"/>
      </g>
     </g>
     <g id="text_11">
      <!-- −2.0 -->
      <g style="fill: #191919" transform="translate(20.64275 182.8) scale(0.08 -0.08)">
       <defs>
        <path id="Roboto-Regular-2212" d="M 3134 2509 
L 3134 2034 
L 525 2034 
L 525 2509 
L 3134 2509 
z
" transform="scale(0.015625)"/>
       </defs>
       <use xlink:href="#Roboto-Regular-2212"/>
       <use xlink:href="#Roboto-Regular-32" x="57.177734"/>
       <use xlink:href="#Roboto-Regular-2e" x="113.378906"/>
       <use xlink:href="#Roboto-Regular-30" x="139.746094"/>
      </g>
     </g>
    </g>
    <g id="ytick_2">
     <g id="line2d_14">
      <g>
       <use xlink:href="#m3aa8819e5d" x="43.319" y="158.783" style="fill: #c2c1c1; stroke: #c2c1c1; stroke-width: 0.8"/>
      </g>
     </g>
     <g id="text_12">
      <!-- −1.5 -->
      <g style="fill: #191919" transform="translate(20.64275 161.783) scale(0.08 -0.08)">
       <use xlink:href="#Roboto-Regular-2212"/>
       <use xlink:href="#Roboto-Regular-31" x="57.177734"/>
       <use xlink:href="#Roboto-Regular-2e" x="113.378906"/>
       <use xlink:href="#Roboto-Regular-35" x="139.746094"/>
      </g>
     </g>
    </g>
    <g id="ytick_3">
     <g id="line2d_15">
      <g>
       <use xlink:href="#m3aa8819e5d" x="43.319" y="137.766" style="fill: #c2c1c1; stroke: #c2c1c1; stroke-width: 0.8"/>
      </g>
     </g>
     <g id="text_13">
      <!-- −1.0 -->
      <g style="fill: #191919" transform="translate(20.64275 140.766) scale(0.08 -0.08)">
       <use xlink:href="#Roboto-Regular-2212"/>
       <use xlink:href="#Roboto-Regular-31" x="57.177734"/>
       <use xlink:href="#Roboto-Regular-2e" x="113.378906"/>
       <use xlink:href="#Roboto-Regular-30" x="139.746094"/>
      </g>
     </g>
    </g>
    <g id="ytick_4">
     <g id="line2d_16">
      <g>
       <use xlink:href="#m3aa8819e5d" x="43.319" y="116.749" style="fill: #c2c1c1; stroke: #c2c1c1; stroke-width: 0.8"/>
      </g>
     </g>
     <g id="text_14">
      <!-- −0.5 -->
      <g style="fill: #191919" transform="translate(20.64275 119.749) scale(0.08 -0.08)">
       <use xlink:href="#Roboto-Regular-2212"/>
       <use xlink:href="#Roboto-Regular-30" x="57.177734"/>
       <use xlink:href="#Roboto-Regular-2e" x="113.378906"/>
       <use xlink:href="#Roboto-Regular-35" x="139.746094"/>
      </g>
     </g>
    </g>
    <g id="ytick_5">
     <g id="line2d_17">
      <g>
       <use xlink:href="#m3aa8819e5d" x="43.319" y="95.732" style="fill: #c2c1c1; stroke: #c2c1c1; stroke-width: 0.8"/>
      </g>
     </g>
     <g id="text_15">
      <!-- 0.0 -->
      <g style="fill: #191919" transform="translate(25.2165 98.732) scale(0.08 -0.08)">
       <use xlink:href="#Roboto-Regular-30"/>
       <use xlink:href="#Roboto-Regular-2e" x="56.201172"/>
       <use xlink:href="#Roboto-Regular-30" x="82.568359"/>
      </g>
     </g>
    </g>
    <g id="ytick_6">
     <g id="line2d_18">
      <g>
       <use xlink:href="#m3aa8819e5d" x="43.319" y="74.715" style="fill: #c2c1c1; stroke: #c2c1c1; stroke-width: 0.8"/>
      </g>
     </g>
     <g id="text_16">
      <!-- 0.5 -->
      <g style="fill: #191919" transform="translate(25.2165 77.715) scale(0.08 -0.08)">
       <use xlink:href="#Roboto-Regular-30"/>
       <use xlink:href="#Roboto-Regular-2e" x="56.201172"/>
       <use xlink:href="#Roboto-Regular-35" x="82.568359"/>
      </g>
     </g>
    </g>
    <g id="ytick_7">
     <g id="line2d_19">
      <g>
       <use xlink:href="#m3aa8819e5d" x="43.319" y="53.698" style="fill: #c2c1c1; stroke: #c2c1c1; stroke-width: 0.8"/>
      </g>
     </g>
     <g id="text_17">
      <!-- 1.0 -->
      <g style="fill: #191919" transform="translate(25.2165 56.698) scale(0.08 -0.08)">
       <use xlink:href="#Roboto-Regular-31"/>
       <use xlink:href="#Roboto-Regular-2e" x="56.201172"/>
       <use xlink:href="#Roboto-Regular-30" x="82.568359"/>
      </g>
     </g>
    </g>
    <g id="ytick_8">
     <g id="line2d_20">
      <g>
       <use xlink:href="#m3aa8819e5d" x="43.319" y="32.681" style="fill: #c2c1c1; stroke: #c2c1c1; stroke-width: 0.8"/>
      </g>
     </g>
     <g id="text_18">
      <!-- 1.5 -->
      <g style="fill: #191919" transform="translate(25.2165 35.681) scale(0.08 -0.08)">
       <use xlink:href="#Roboto-Regular-31"/>
       <use xlink:href="#Roboto-Regular-2e" x="56.201172"/>
       <use xlink:href="#Roboto-Regular-35" x="82.568359"/>
      </g>
     </g>
    </g>
    <g id="ytick_9">
     <g id="line2d_21">
      <g>
       <use xlink:href="#m3aa8819e5d" x="43.319" y="11.664" style="fill: #c2c1c1; stroke: #c2c1c1; stroke-width: 0.8"/>
      </g>
     </g>
     <g id="text_19">
      <!-- 2.0 -->
      <g style="fill: #191919" transform="translate(25.2165 14.664) scale(0.08 -0.08)">
       <use xlink:href="#Roboto-Regular-32"/>
       <use xlink:href="#Roboto-Regular-2e" x="56.201172"/>
       <use xlink:href="#Roboto-Regular-30" x="82.568359"/>
      </g>
     </g>
    </g>
    <g id="text_20">
     <!-- PMF [kcal/mol] -->
     <g style="fill: #191919" transform="translate(15.01775 122.945125) rotate(-90) scale(0.08 -0.08)">
      <defs>
       <path id="Roboto-Bold-50" d="M 1347 1606 
L 1347 0 
L 406 0 
L 406 4550 
L 2184 4550 
Q 2991 4550 3442 4125 
Q 3894 3700 3894 3047 
Q 3894 2388 3442 1997 
Q 2991 1606 2184 1606 
L 1347 1606 
z
M 1347 3791 
L 1347 2363 
L 2184 2363 
Q 2588 2363 2766 2553 
Q 2944 2744 2944 3041 
Q 2944 3338 2766 3564 
Q 2588 3791 2184 3791 
L 1347 3791 
z
" transform="scale(0.015625)"/>
       <path id="Roboto-Bold-4d" d="M 2800 1250 
L 3966 4550 
L 5194 4550 
L 5194 0 
L 4253 0 
L 4253 1244 
L 4347 3381 
L 3122 0 
L 2478 0 
L 1253 3381 
L 1347 1244 
L 1347 0 
L 406 0 
L 406 4550 
L 1634 4550 
L 2800 1250 
z
" transform="scale(0.015625)"/>
       <path id="Roboto-Bold-46" d="M 406 0 
L 406 4550 
L 3372 4550 
L 3372 3791 
L 1347 3791 
L 1347 2616 
L 3147 2616 
L 3147 1859 
L 1347 1859 
L 1347 0 
L 406 0 
z
" transform="scale(0.015625)"/>
       <path id="Roboto-Bold-6b" d="M 2444 0 
L 1575 1356 
L 1253 1034 
L 1253 0 
L 350 0 
L 350 4803 
L 1253 4803 
L 1253 2144 
L 1428 2369 
L 2291 3381 
L 3375 3381 
L 2156 1975 
L 3484 0 
L 2444 0 
z
" transform="scale(0.015625)"/>
       <path id="Roboto-Bold-6c" d="M 1303 4800 
L 1303 0 
L 397 0 
L 397 4800 
L 1303 4800 
z
" transform="scale(0.015625)"/>
       <path id="Roboto-Bold-2f" d="M 2306 4550 
L 631 -391 
L -41 -391 
L 1634 4550 
L 2306 4550 
z
" transform="scale(0.015625)"/>
       <path id="Roboto-Bold-6d" d="M 1806 2713 
Q 1431 2713 1253 2394 
L 1253 0 
L 347 0 
L 347 3381 
L 1197 3381 
L 1228 3009 
Q 1581 3444 2197 3444 
Q 2850 3444 3094 2928 
Q 3441 3444 4109 3444 
Q 4597 3444 4894 3156 
Q 5191 2869 5194 2169 
L 5194 0 
L 4288 0 
L 4288 2156 
Q 4288 2494 4152 2603 
Q 4016 2713 3781 2713 
Q 3381 2713 3222 2334 
L 3222 0 
L 2319 0 
L 2319 2150 
Q 2319 2484 2181 2598 
Q 2044 2713 1806 2713 
z
" transform="scale(0.015625)"/>
      </defs>
      <use xlink:href="#Roboto-Bold-50"/>
      <use xlink:href="#Roboto-Bold-4d" x="64.550781"/>
      <use xlink:href="#Roboto-Bold-46" x="152.148438"/>
      <use xlink:href="#Roboto-Bold-20" x="206.982422"/>
      <use xlink:href="#Roboto-Bold-5b" x="231.884766"/>
      <use xlink:href="#Roboto-Bold-6b" x="259.716797"/>
      <use xlink:href="#Roboto-Bold-63" x="313.134766"/>
      <use xlink:href="#Roboto-Bold-61" x="365.332031"/>
      <use xlink:href="#Roboto-Bold-6c" x="418.945312"/>
      <use xlink:href="#Roboto-Bold-2f" x="445.458984"/>
      <use xlink:href="#Roboto-Bold-6d" x="482.861328"/>
      <use xlink:href="#Roboto-Bold-6f" x="569.433594"/>
      <use xlink:href="#Roboto-Bold-6c" x="625.976562"/>
      <use xlink:href="#Roboto-Bold-5d" x="652.490234"/>
     </g>
    </g>
   </g>
   <g id="line2d_22">
    <path d="M 72.379096 -1 
L 72.655179 4.169977 
L 75.09986 39.464556 
L 77.544542 65.850645 
L 79.989223 84.744188 
L 82.433905 97.103612 
L 84.878587 104.411399 
L 87.323268 108.162315 
L 89.76795 109.421541 
L 92.212631 108.841853 
L 94.657313 106.878442 
L 97.101994 103.928266 
L 104.436039 94.234305 
L 106.880721 91.178575 
L 114.214765 83.232361 
L 116.659447 81.552832 
L 119.104128 80.359105 
L 121.54881 79.419277 
L 128.882855 78.476017 
L 131.327536 78.756945 
L 133.772218 79.614575 
L 136.216899 80.658625 
L 138.661581 81.567338 
L 141.106263 82.650645 
L 143.550944 84.014783 
L 150.884989 88.757225 
L 153.32967 89.81974 
L 155.774352 91.004814 
L 160.663715 93.609982 
L 163.108397 94.695497 
L 167.99776 96.293295 
L 170.442441 96.71583 
L 172.887123 96.816604 
L 175.331804 97.123896 
L 177.776486 97.576984 
L 180.221168 97.491038 
L 182.665849 96.798562 
L 187.555212 95.804737 
L 192.444575 93.668231 
L 194.889257 92.564251 
L 199.77862 89.57366 
L 202.223302 87.692397 
L 204.667983 85.541632 
L 207.112665 83.799921 
L 209.557346 82.325197 
L 212.002028 80.29655 
L 214.446709 77.756409 
L 221.780754 69.730482 
L 229.114799 62.057696 
L 234.004162 56.105454 
L 236.448844 52.344145 
L 241.338207 43.78848 
L 243.782888 39.900776 
L 246.22757 36.731881 
L 248.672251 33.064399 
L 251.116933 27.934783 
L 253 24.412714 
L 253 24.412714 
" clip-path="url(#p1e937b23e4)" style="fill: none; stroke: #f99752; stroke-width: 1.5; stroke-linecap: square"/>
   </g>
   <g id="patch_3">
    <path d="M 43.319 179.8 
L 43.319 11.664 
" style="fill: none; stroke: #c2c1c1; stroke-width: 0.8; stroke-linejoin: miter; stroke-linecap: square"/>
   </g>
   <g id="patch_4">
    <path d="M 237.807 179.8 
L 237.807 11.664 
" style="fill: none; stroke: #c2c1c1; stroke-width: 0.8; stroke-linejoin: miter; stroke-linecap: square"/>
   </g>
   <g id="patch_5">
    <path d="M 43.319 179.8 
L 237.807 179.8 
" style="fill: none; stroke: #c2c1c1; stroke-width: 0.8; stroke-linejoin: miter; stroke-linecap: square"/>
   </g>
   <g id="patch_6">
    <path d="M 43.319 11.664 
L 237.807 11.664 
" style="fill: none; stroke: #c2c1c1; stroke-width: 0.8; stroke-linejoin: miter; stroke-linecap: square"/>
   </g>
   <g id="legend_1">
    <g id="line2d_23">
     <path d="M 177.172 144.29625 
L 185.172 144.29625 
L 193.172 144.29625 
" style="fill: none; stroke: #1e2e79; stroke-width: 1.5; stroke-linecap: square"/>
    </g>
    <g id="text_21">
     <!-- Reduced -->
     <g transform="translate(199.572 147.09625) scale(0.08 -0.08)">
      <defs>
       <path id="Roboto-Regular-52" d="M 3188 0 
L 2200 1844 
L 1131 1844 
L 1131 0 
L 528 0 
L 528 4550 
L 2034 4550 
Q 2800 4550 3214 4200 
Q 3628 3850 3628 3184 
Q 3628 2759 3398 2442 
Q 3169 2125 2763 1969 
L 3831 38 
L 3831 0 
L 3188 0 
z
M 1131 4056 
L 1131 2334 
L 2053 2334 
Q 2538 2334 2783 2582 
Q 3028 2831 3028 3184 
Q 3028 3578 2792 3817 
Q 2556 4056 2034 4056 
L 1131 4056 
z
" transform="scale(0.015625)"/>
       <path id="Roboto-Regular-65" d="M 3116 591 
Q 2950 341 2647 139 
Q 2344 -63 1844 -63 
Q 1138 -63 714 396 
Q 291 856 291 1572 
L 291 1703 
Q 291 2256 502 2645 
Q 713 3034 1050 3239 
Q 1388 3444 1769 3444 
Q 2494 3444 2826 2970 
Q 3159 2497 3159 1788 
L 3159 1528 
L 872 1528 
Q 884 1063 1148 736 
Q 1413 409 1875 409 
Q 2181 409 2393 534 
Q 2606 659 2766 869 
L 3116 591 
z
M 1769 2969 
Q 1425 2969 1187 2719 
Q 950 2469 891 2000 
L 2581 2000 
L 2581 2044 
Q 2559 2381 2386 2675 
Q 2213 2969 1769 2969 
z
" transform="scale(0.015625)"/>
       <path id="Roboto-Regular-64" d="M 2622 0 
L 2594 363 
Q 2247 -63 1628 -63 
Q 1034 -63 668 418 
Q 303 900 297 1628 
L 297 1719 
Q 297 2494 664 2969 
Q 1031 3444 1634 3444 
Q 2231 3444 2572 3044 
L 2572 4800 
L 3153 4800 
L 3153 0 
L 2622 0 
z
M 878 1653 
Q 878 1150 1090 789 
Q 1303 428 1772 428 
Q 2309 428 2572 919 
L 2572 2475 
Q 2313 2956 1778 2956 
Q 1306 2956 1092 2589 
Q 878 2222 878 1719 
L 878 1653 
z
" transform="scale(0.015625)"/>
       <path id="Roboto-Regular-75" d="M 2538 0 
L 2525 334 
Q 2194 -63 1538 -63 
Q 1041 -63 734 231 
Q 428 525 428 1200 
L 428 3381 
L 1006 3381 
L 1006 1194 
Q 1006 738 1198 583 
Q 1391 428 1628 428 
Q 2281 428 2509 919 
L 2509 3381 
L 3091 3381 
L 3091 0 
L 2538 0 
z
" transform="scale(0.015625)"/>
       <path id="Roboto-Regular-63" d="M 1794 413 
Q 2103 413 2336 597 
Q 2569 781 2591 1069 
L 3141 1069 
Q 3119 616 2725 276 
Q 2331 -63 1794 -63 
Q 1031 -63 661 440 
Q 291 944 291 1625 
L 291 1756 
Q 291 2438 661 2941 
Q 1031 3444 1794 3444 
Q 2388 3444 2753 3092 
Q 3119 2741 3141 2219 
L 2591 2219 
Q 2569 2531 2355 2750 
Q 2141 2969 1794 2969 
Q 1438 2969 1236 2787 
Q 1034 2606 951 2328 
Q 869 2050 869 1756 
L 869 1625 
Q 869 1328 950 1050 
Q 1031 772 1232 592 
Q 1434 413 1794 413 
z
" transform="scale(0.015625)"/>
      </defs>
      <use xlink:href="#Roboto-Regular-52"/>
      <use xlink:href="#Roboto-Regular-65" x="61.621094"/>
      <use xlink:href="#Roboto-Regular-64" x="114.648438"/>
      <use xlink:href="#Roboto-Regular-75" x="171.044922"/>
      <use xlink:href="#Roboto-Regular-63" x="226.171875"/>
      <use xlink:href="#Roboto-Regular-65" x="278.515625"/>
      <use xlink:href="#Roboto-Regular-64" x="331.542969"/>
     </g>
    </g>
    <g id="line2d_24">
     <path d="M 177.172 155.92125 
L 185.172 155.92125 
L 193.172 155.92125 
" style="fill: none; stroke: #ec4067; stroke-width: 1.5; stroke-linecap: square"/>
    </g>
    <g id="text_22">
     <!-- Oxidized -->
     <g transform="translate(199.572 158.72125) scale(0.08 -0.08)">
      <defs>
       <path id="Roboto-Regular-4f" d="M 4031 2131 
Q 4031 1106 3534 521 
Q 3038 -63 2206 -63 
Q 1397 -63 884 521 
Q 372 1106 372 2131 
L 372 2419 
Q 372 3441 881 4027 
Q 1391 4613 2200 4613 
Q 3025 4613 3523 4036 
Q 4022 3459 4031 2456 
L 4031 2131 
z
M 3434 2425 
Q 3434 3238 3109 3669 
Q 2784 4100 2200 4100 
Q 1641 4100 1305 3669 
Q 969 3238 969 2425 
L 969 2131 
Q 969 1313 1308 880 
Q 1647 447 2206 447 
Q 2794 447 3114 880 
Q 3434 1313 3434 2131 
L 3434 2425 
z
" transform="scale(0.015625)"/>
       <path id="Roboto-Regular-78" d="M 831 3381 
L 1572 2150 
L 2322 3381 
L 3000 3381 
L 1894 1713 
L 3034 0 
L 2366 0 
L 1584 1269 
L 803 0 
L 131 0 
L 1269 1713 
L 166 3381 
L 831 3381 
z
" transform="scale(0.015625)"/>
       <path id="Roboto-Regular-69" d="M 444 4278 
Q 444 4419 530 4516 
Q 616 4613 784 4613 
Q 950 4613 1039 4516 
Q 1128 4419 1128 4278 
Q 1128 4144 1039 4048 
Q 950 3953 784 3953 
Q 616 3953 530 4048 
Q 444 4144 444 4278 
z
M 1069 3381 
L 1069 0 
L 488 0 
L 488 3381 
L 1069 3381 
z
" transform="scale(0.015625)"/>
       <path id="Roboto-Regular-7a" d="M 303 2903 
L 303 3381 
L 2869 3381 
L 2869 2972 
L 988 475 
L 2959 475 
L 2959 0 
L 278 0 
L 278 425 
L 2141 2903 
L 303 2903 
z
" transform="scale(0.015625)"/>
      </defs>
      <use xlink:href="#Roboto-Regular-4f"/>
      <use xlink:href="#Roboto-Regular-78" x="68.798828"/>
      <use xlink:href="#Roboto-Regular-69" x="118.408203"/>
      <use xlink:href="#Roboto-Regular-64" x="142.724609"/>
      <use xlink:href="#Roboto-Regular-69" x="199.121094"/>
      <use xlink:href="#Roboto-Regular-7a" x="223.4375"/>
      <use xlink:href="#Roboto-Regular-65" x="273.046875"/>
      <use xlink:href="#Roboto-Regular-64" x="326.074219"/>
     </g>
    </g>
    <g id="line2d_25">
     <path d="M 177.172 167.96375 
L 185.172 167.96375 
L 193.172 167.96375 
" style="fill: none; stroke: #f99752; stroke-width: 1.5; stroke-linecap: square"/>
    </g>
    <g id="text_23">
     <!-- Cu(I) -->
     <g transform="translate(199.572 170.76375) scale(0.08 -0.08)">
      <defs>
       <path id="Roboto-Regular-43" d="M 3275 1447 
L 3875 1447 
Q 3806 800 3387 368 
Q 2969 -63 2150 -63 
Q 1356 -63 870 504 
Q 384 1072 375 2013 
L 375 2500 
Q 375 3456 867 4034 
Q 1359 4613 2203 4613 
Q 2975 4613 3390 4188 
Q 3806 3763 3875 3091 
L 3275 3091 
Q 3206 3566 2968 3842 
Q 2731 4119 2203 4119 
Q 1600 4119 1287 3675 
Q 975 3231 975 2506 
L 975 2047 
Q 975 1375 1259 901 
Q 1544 428 2150 428 
Q 2725 428 2961 697 
Q 3197 966 3275 1447 
z
" transform="scale(0.015625)"/>
       <path id="Roboto-Regular-28" d="M 419 1850 
Q 419 2756 678 3434 
Q 938 4113 1294 4541 
Q 1650 4969 1947 5134 
L 2069 4753 
Q 1700 4475 1348 3761 
Q 997 3047 997 1813 
Q 997 625 1348 -97 
Q 1700 -819 2069 -1119 
L 1947 -1469 
Q 1650 -1306 1294 -878 
Q 938 -450 678 226 
Q 419 903 419 1850 
z
" transform="scale(0.015625)"/>
       <path id="Roboto-Regular-49" d="M 1175 4550 
L 1175 0 
L 572 0 
L 572 4550 
L 1175 4550 
z
" transform="scale(0.015625)"/>
       <path id="Roboto-Regular-29" d="M 1772 1819 
Q 1772 906 1512 228 
Q 1253 -450 895 -878 
Q 538 -1306 244 -1469 
L 122 -1119 
Q 488 -841 841 -109 
Q 1194 622 1194 1856 
Q 1194 2647 1019 3236 
Q 844 3825 594 4212 
Q 344 4600 122 4781 
L 244 5134 
Q 538 4969 895 4541 
Q 1253 4113 1512 3436 
Q 1772 2759 1772 1819 
z
" transform="scale(0.015625)"/>
      </defs>
      <use xlink:href="#Roboto-Regular-43"/>
      <use xlink:href="#Roboto-Regular-75" x="65.087891"/>
      <use xlink:href="#Roboto-Regular-28" x="120.214844"/>
      <use xlink:href="#Roboto-Regular-49" x="154.443359"/>
      <use xlink:href="#Roboto-Regular-29" x="181.640625"/>
     </g>
    </g>
   </g>
  </g>
 </g>
 <defs>
  <clipPath id="p1e937b23e4">
   <rect x="43.319" y="11.664" width="194.488" height="168.136"/>
  </clipPath>
 </defs>
</svg>
