<?xml version="1.0" encoding="utf-8" standalone="no"?>
<!DOCTYPE svg PUBLIC "-//W3C//DTD SVG 1.1//EN"
  "http://www.w3.org/Graphics/SVG/1.1/DTD/svg11.dtd">
<svg xmlns:xlink="http://www.w3.org/1999/xlink" width="460.8pt" height="345.6pt" viewBox="0 0 460.8 345.6" xmlns="http://www.w3.org/2000/svg" version="1.1">
 <metadata>
  <rdf:RDF xmlns:dc="http://purl.org/dc/elements/1.1/" xmlns:cc="http://creativecommons.org/ns#" xmlns:rdf="http://www.w3.org/1999/02/22-rdf-syntax-ns#">
   <cc:Work>
    <dc:type rdf:resource="http://purl.org/dc/dcmitype/StillImage"/>
    <dc:date>2024-05-06T00:06:31.132216</dc:date>
    <dc:format>image/svg+xml</dc:format>
    <dc:creator>
     <cc:Agent>
      <dc:title>Matplotlib v3.8.4, https://matplotlib.org/</dc:title>
     </cc:Agent>
    </dc:creator>
   </cc:Work>
  </rdf:RDF>
 </metadata>
 <defs>
  <style type="text/css">*{stroke-linejoin: round; stroke-linecap: butt}</style>
 </defs>
 <g id="figure_1">
  <g id="patch_1">
   <path d="M 0 345.6 
L 460.8 345.6 
L 460.8 0 
L 0 0 
z
" style="fill: #ffffff"/>
  </g>
  <g id="axes_1">
   <g id="patch_2">
    <path d="M 46.64 302.8525 
L 446.85 302.8525 
L 446.85 14.76 
L 46.64 14.76 
z
" style="fill: #ffffff"/>
   </g>
   <g id="line2d_1">
    <path d="M 46.64 245.234 
L 446.85 245.234 
" clip-path="url(#p352b3d40c6)" style="fill: none; stroke-dasharray: 1.75,2.8875; stroke-dashoffset: 0; stroke: #c0c0c0; stroke-width: 1.75"/>
   </g>
   <g id="line2d_2">
    <path d="M 46.64 58.005925 
L 49.64458 84.361243 
L 52.649159 108.845554 
L 55.653739 131.476004 
L 58.658318 152.27076 
L 61.662898 171.249319 
L 64.066562 185.13865 
L 66.470225 197.890836 
L 68.873889 209.518526 
L 71.277553 220.035413 
L 73.681216 229.45635 
L 76.08488 237.797477 
L 77.887628 243.355205 
L 79.690375 248.323366 
L 81.493123 252.710465 
L 83.295871 256.525569 
L 85.098619 259.778338 
L 86.901366 262.479056 
L 88.704114 264.638651 
L 89.905946 265.783455 
L 91.107778 266.6965 
L 92.30961 267.381518 
L 93.511441 267.84237 
L 94.713273 268.083045 
L 95.915105 268.10765 
L 97.116937 267.920405 
L 98.318769 267.525634 
L 99.520601 266.92775 
L 100.722432 266.131246 
L 101.924264 265.140673 
L 103.727012 263.300996 
L 105.52976 261.050604 
L 107.332508 258.405061 
L 109.135255 255.37975 
L 110.938003 251.989734 
L 113.341667 246.927622 
L 115.74533 241.27646 
L 118.148994 235.068198 
L 121.153574 226.572042 
L 124.158153 217.317344 
L 127.162733 207.377073 
L 130.768228 194.682733 
L 136.176471 174.678092 
L 140.382883 159.368813 
L 142.786547 151.372455 
L 144.589294 146.041443 
L 146.392042 141.47626 
L 147.593874 138.927251 
L 148.795706 136.801917 
L 149.997538 135.104538 
L 151.199369 133.821653 
L 152.401201 132.924984 
L 153.603033 132.376327 
L 154.804865 132.133056 
L 156.006697 132.153017 
L 157.208529 132.398031 
L 158.41036 132.835777 
L 160.213108 133.798466 
L 162.015856 135.072669 
L 163.818604 136.612554 
L 166.222267 139.015407 
L 168.625931 141.739563 
L 172.231426 146.230565 
L 180.043333 156.518046 
L 187.85524 166.613349 
L 192.662568 172.510565 
L 196.868979 177.314754 
L 200.474474 181.110032 
L 204.680886 185.188989 
L 209.488213 189.5235 
L 215.497372 194.649452 
L 220.3047 198.509439 
L 224.511111 201.614376 
L 228.116607 204.022625 
L 232.323018 206.551961 
L 243.74042 213.176118 
L 246.745 215.30376 
L 249.74958 217.723171 
L 252.754159 220.434828 
L 256.359655 224.002492 
L 267.777057 235.614157 
L 270.781637 238.224616 
L 273.1853 240.062462 
L 275.588964 241.646693 
L 277.992628 242.956775 
L 280.396291 243.978588 
L 282.799955 244.703147 
L 284.602703 245.04829 
L 286.40545 245.222135 
L 288.208198 245.224141 
L 290.010946 245.054206 
L 291.813694 244.712586 
L 294.217357 243.991178 
L 296.621021 242.9686 
L 299.024685 241.650051 
L 301.428348 240.04407 
L 303.832012 238.163548 
L 306.235676 236.026458 
L 309.240255 233.030373 
L 312.244835 229.7271 
L 316.451246 224.716344 
L 323.662237 215.63415 
L 330.272312 207.45906 
L 335.680556 201.154465 
L 341.088799 195.188253 
L 347.097958 188.903742 
L 353.107117 182.93969 
L 359.717192 176.66329 
L 364.52452 172.371686 
L 368.130015 169.435232 
L 371.735511 166.797312 
L 375.941922 164.020933 
L 383.753829 158.953495 
L 387.359324 156.339029 
L 390.96482 153.435125 
L 394.570315 150.196795 
L 398.175811 146.609254 
L 402.382222 142.045881 
L 411.395961 132.039728 
L 415.001456 128.477458 
L 418.606952 125.270306 
L 424.015195 120.83612 
L 430.62527 115.336596 
L 449.85458 98.866884 
L 454.060991 95.647789 
L 457.065571 93.576971 
L 460.07015 91.796852 
L 461.8 90.939469 
L 461.8 90.939469 
" clip-path="url(#p352b3d40c6)" style="fill: none; stroke: #1e2e79; stroke-width: 2.5; stroke-linecap: square"/>
   </g>
   <g id="line2d_3">
    <path d="M 46.64 84.154481 
L 49.64458 111.249309 
L 52.649159 136.278174 
L 55.653739 159.260766 
L 58.658318 180.218035 
L 61.061982 195.540619 
L 63.465646 209.593543 
L 65.869309 222.389818 
L 68.272973 233.943332 
L 70.676637 244.268955 
L 73.0803 253.382675 
L 74.883048 259.432981 
L 76.685796 264.819071 
L 78.488544 269.549253 
L 80.291291 273.632392 
L 82.094039 277.077966 
L 83.896787 279.896135 
L 85.098619 281.431705 
L 86.30045 282.696687 
L 87.502282 283.694682 
L 88.704114 284.429474 
L 89.905946 284.90504 
L 91.107778 285.125563 
L 92.30961 285.09544 
L 93.511441 284.819299 
L 94.713273 284.302006 
L 95.915105 283.548682 
L 97.116937 282.564714 
L 98.318769 281.355769 
L 100.121517 279.13364 
L 101.924264 276.44022 
L 103.727012 273.298597 
L 105.52976 269.733617 
L 107.933423 264.368163 
L 110.337087 258.3663 
L 112.740751 251.802631 
L 115.74533 242.930998 
L 119.350826 231.530443 
L 124.759069 213.54262 
L 131.369144 191.650725 
L 134.97464 180.558441 
L 137.378303 173.769858 
L 139.781967 167.607945 
L 141.584715 163.46728 
L 143.387462 159.791215 
L 145.19021 156.625072 
L 146.992958 154.009029 
L 148.19479 152.585458 
L 149.396622 151.423433 
L 150.598453 150.522034 
L 151.800285 149.874933 
L 153.002117 149.470432 
L 154.203949 149.292121 
L 155.405781 149.320066 
L 156.607613 149.532306 
L 158.41036 150.147299 
L 160.213108 151.055473 
L 162.015856 152.19617 
L 164.41952 153.997112 
L 167.424099 156.581142 
L 171.630511 160.58422 
L 178.841502 167.554403 
L 182.446997 170.680739 
L 185.451577 172.980394 
L 188.456156 174.966998 
L 190.85982 176.321701 
L 193.263483 177.467876 
L 195.667147 178.412115 
L 198.671727 179.329027 
L 201.676306 179.989719 
L 205.281802 180.511843 
L 209.488213 180.865651 
L 216.098288 181.356154 
L 218.501952 181.74388 
L 220.3047 182.203124 
L 222.107447 182.857911 
L 223.910195 183.750269 
L 225.712943 184.912857 
L 227.515691 186.364517 
L 229.318438 188.107793 
L 231.121186 190.129018 
L 233.52485 193.207467 
L 235.928514 196.640271 
L 239.534009 202.230001 
L 250.350495 219.410463 
L 253.955991 224.573278 
L 256.960571 228.497912 
L 259.96515 232.038207 
L 262.96973 235.174021 
L 265.373393 237.385043 
L 267.777057 239.328769 
L 270.180721 241.003139 
L 272.584384 242.406078 
L 274.988048 243.536022 
L 277.391712 244.392991 
L 279.795375 244.979768 
L 282.199039 245.30294 
L 284.602703 245.373787 
L 287.006366 245.209173 
L 289.41003 244.832557 
L 292.41461 244.111711 
L 296.020105 242.985262 
L 306.836592 239.388664 
L 317.653078 236.19968 
L 320.056742 235.174195 
L 322.460405 233.898164 
L 324.864069 232.319466 
L 327.267733 230.395992 
L 329.671396 228.096123 
L 332.07506 225.398599 
L 334.478724 222.292133 
L 336.882387 218.774868 
L 339.286051 214.853712 
L 341.689715 210.543513 
L 344.694294 204.642403 
L 347.698874 198.222599 
L 351.304369 189.925556 
L 355.510781 179.581996 
L 360.318108 167.131336 
L 371.735511 137.165414 
L 374.74009 129.976138 
L 377.74467 123.318586 
L 381.951081 114.624906 
L 386.157492 105.813783 
L 388.561156 100.30622 
L 390.96482 94.239915 
L 393.368483 87.4886 
L 395.772147 79.9599 
L 398.175811 71.585302 
L 400.579474 62.309852 
L 402.983138 52.083928 
L 405.386802 40.858025 
L 407.790465 28.580497 
L 410.194129 15.197622 
L 412.857937 -1 
L 412.857937 -1 
" clip-path="url(#p352b3d40c6)" style="fill: none; stroke: #ec4067; stroke-width: 2.5; stroke-linecap: square"/>
   </g>
   <g id="matplotlib.axis_1">
    <g id="xtick_1">
     <g id="line2d_4">
      <defs>
       <path id="m7308c42367" d="M 0 0 
L 0 3.5 
" style="stroke: #000000; stroke-width: 0.8"/>
      </defs>
      <g>
       <use xlink:href="#m7308c42367" x="46.64" y="302.8525" style="stroke: #000000; stroke-width: 0.8"/>
      </g>
     </g>
     <g id="text_1">
      <!-- 1 -->
      <g transform="translate(43.45875 317.450937) scale(0.1 -0.1)">
       <defs>
        <path id="DejaVuSans-31" d="M 794 531 
L 1825 531 
L 1825 4091 
L 703 3866 
L 703 4441 
L 1819 4666 
L 2450 4666 
L 2450 531 
L 3481 531 
L 3481 0 
L 794 0 
L 794 531 
z
" transform="scale(0.015625)"/>
       </defs>
       <use xlink:href="#DejaVuSans-31"/>
      </g>
     </g>
    </g>
    <g id="xtick_2">
     <g id="line2d_5">
      <g>
       <use xlink:href="#m7308c42367" x="113.341667" y="302.8525" style="stroke: #000000; stroke-width: 0.8"/>
      </g>
     </g>
     <g id="text_2">
      <!-- 2 -->
      <g transform="translate(110.160417 317.450937) scale(0.1 -0.1)">
       <defs>
        <path id="DejaVuSans-32" d="M 1228 531 
L 3431 531 
L 3431 0 
L 469 0 
L 469 531 
Q 828 903 1448 1529 
Q 2069 2156 2228 2338 
Q 2531 2678 2651 2914 
Q 2772 3150 2772 3378 
Q 2772 3750 2511 3984 
Q 2250 4219 1831 4219 
Q 1534 4219 1204 4116 
Q 875 4013 500 3803 
L 500 4441 
Q 881 4594 1212 4672 
Q 1544 4750 1819 4750 
Q 2544 4750 2975 4387 
Q 3406 4025 3406 3419 
Q 3406 3131 3298 2873 
Q 3191 2616 2906 2266 
Q 2828 2175 2409 1742 
Q 1991 1309 1228 531 
z
" transform="scale(0.015625)"/>
       </defs>
       <use xlink:href="#DejaVuSans-32"/>
      </g>
     </g>
    </g>
    <g id="xtick_3">
     <g id="line2d_6">
      <g>
       <use xlink:href="#m7308c42367" x="180.043333" y="302.8525" style="stroke: #000000; stroke-width: 0.8"/>
      </g>
     </g>
     <g id="text_3">
      <!-- 3 -->
      <g transform="translate(176.862083 317.450937) scale(0.1 -0.1)">
       <defs>
        <path id="DejaVuSans-33" d="M 2597 2516 
Q 3050 2419 3304 2112 
Q 3559 1806 3559 1356 
Q 3559 666 3084 287 
Q 2609 -91 1734 -91 
Q 1441 -91 1130 -33 
Q 819 25 488 141 
L 488 750 
Q 750 597 1062 519 
Q 1375 441 1716 441 
Q 2309 441 2620 675 
Q 2931 909 2931 1356 
Q 2931 1769 2642 2001 
Q 2353 2234 1838 2234 
L 1294 2234 
L 1294 2753 
L 1863 2753 
Q 2328 2753 2575 2939 
Q 2822 3125 2822 3475 
Q 2822 3834 2567 4026 
Q 2313 4219 1838 4219 
Q 1578 4219 1281 4162 
Q 984 4106 628 3988 
L 628 4550 
Q 988 4650 1302 4700 
Q 1616 4750 1894 4750 
Q 2613 4750 3031 4423 
Q 3450 4097 3450 3541 
Q 3450 3153 3228 2886 
Q 3006 2619 2597 2516 
z
" transform="scale(0.015625)"/>
       </defs>
       <use xlink:href="#DejaVuSans-33"/>
      </g>
     </g>
    </g>
    <g id="xtick_4">
     <g id="line2d_7">
      <g>
       <use xlink:href="#m7308c42367" x="246.745" y="302.8525" style="stroke: #000000; stroke-width: 0.8"/>
      </g>
     </g>
     <g id="text_4">
      <!-- 4 -->
      <g transform="translate(243.56375 317.450937) scale(0.1 -0.1)">
       <defs>
        <path id="DejaVuSans-34" d="M 2419 4116 
L 825 1625 
L 2419 1625 
L 2419 4116 
z
M 2253 4666 
L 3047 4666 
L 3047 1625 
L 3713 1625 
L 3713 1100 
L 3047 1100 
L 3047 0 
L 2419 0 
L 2419 1100 
L 313 1100 
L 313 1709 
L 2253 4666 
z
" transform="scale(0.015625)"/>
       </defs>
       <use xlink:href="#DejaVuSans-34"/>
      </g>
     </g>
    </g>
    <g id="xtick_5">
     <g id="line2d_8">
      <g>
       <use xlink:href="#m7308c42367" x="313.446667" y="302.8525" style="stroke: #000000; stroke-width: 0.8"/>
      </g>
     </g>
     <g id="text_5">
      <!-- 5 -->
      <g transform="translate(310.265417 317.450937) scale(0.1 -0.1)">
       <defs>
        <path id="DejaVuSans-35" d="M 691 4666 
L 3169 4666 
L 3169 4134 
L 1269 4134 
L 1269 2991 
Q 1406 3038 1543 3061 
Q 1681 3084 1819 3084 
Q 2600 3084 3056 2656 
Q 3513 2228 3513 1497 
Q 3513 744 3044 326 
Q 2575 -91 1722 -91 
Q 1428 -91 1123 -41 
Q 819 9 494 109 
L 494 744 
Q 775 591 1075 516 
Q 1375 441 1709 441 
Q 2250 441 2565 725 
Q 2881 1009 2881 1497 
Q 2881 1984 2565 2268 
Q 2250 2553 1709 2553 
Q 1456 2553 1204 2497 
Q 953 2441 691 2322 
L 691 4666 
z
" transform="scale(0.015625)"/>
       </defs>
       <use xlink:href="#DejaVuSans-35"/>
      </g>
     </g>
    </g>
    <g id="xtick_6">
     <g id="line2d_9">
      <g>
       <use xlink:href="#m7308c42367" x="380.148333" y="302.8525" style="stroke: #000000; stroke-width: 0.8"/>
      </g>
     </g>
     <g id="text_6">
      <!-- 6 -->
      <g transform="translate(376.967083 317.450937) scale(0.1 -0.1)">
       <defs>
        <path id="DejaVuSans-36" d="M 2113 2584 
Q 1688 2584 1439 2293 
Q 1191 2003 1191 1497 
Q 1191 994 1439 701 
Q 1688 409 2113 409 
Q 2538 409 2786 701 
Q 3034 994 3034 1497 
Q 3034 2003 2786 2293 
Q 2538 2584 2113 2584 
z
M 3366 4563 
L 3366 3988 
Q 3128 4100 2886 4159 
Q 2644 4219 2406 4219 
Q 1781 4219 1451 3797 
Q 1122 3375 1075 2522 
Q 1259 2794 1537 2939 
Q 1816 3084 2150 3084 
Q 2853 3084 3261 2657 
Q 3669 2231 3669 1497 
Q 3669 778 3244 343 
Q 2819 -91 2113 -91 
Q 1303 -91 875 529 
Q 447 1150 447 2328 
Q 447 3434 972 4092 
Q 1497 4750 2381 4750 
Q 2619 4750 2861 4703 
Q 3103 4656 3366 4563 
z
" transform="scale(0.015625)"/>
       </defs>
       <use xlink:href="#DejaVuSans-36"/>
      </g>
     </g>
    </g>
    <g id="xtick_7">
     <g id="line2d_10">
      <g>
       <use xlink:href="#m7308c42367" x="446.85" y="302.8525" style="stroke: #000000; stroke-width: 0.8"/>
      </g>
     </g>
     <g id="text_7">
      <!-- 7 -->
      <g transform="translate(443.66875 317.450937) scale(0.1 -0.1)">
       <defs>
        <path id="DejaVuSans-37" d="M 525 4666 
L 3525 4666 
L 3525 4397 
L 1831 0 
L 1172 0 
L 2766 4134 
L 525 4134 
L 525 4666 
z
" transform="scale(0.015625)"/>
       </defs>
       <use xlink:href="#DejaVuSans-37"/>
      </g>
     </g>
    </g>
    <g id="text_8">
     <!-- THR203 HG1 - GLU222 OE Distance [Å] -->
     <g transform="translate(148.866094 332.0525) scale(0.1 -0.1)">
      <defs>
       <path id="DejaVuSans-54" d="M -19 4666 
L 3928 4666 
L 3928 4134 
L 2272 4134 
L 2272 0 
L 1638 0 
L 1638 4134 
L -19 4134 
L -19 4666 
z
" transform="scale(0.015625)"/>
       <path id="DejaVuSans-48" d="M 628 4666 
L 1259 4666 
L 1259 2753 
L 3553 2753 
L 3553 4666 
L 4184 4666 
L 4184 0 
L 3553 0 
L 3553 2222 
L 1259 2222 
L 1259 0 
L 628 0 
L 628 4666 
z
" transform="scale(0.015625)"/>
       <path id="DejaVuSans-52" d="M 2841 2188 
Q 3044 2119 3236 1894 
Q 3428 1669 3622 1275 
L 4263 0 
L 3584 0 
L 2988 1197 
Q 2756 1666 2539 1819 
Q 2322 1972 1947 1972 
L 1259 1972 
L 1259 0 
L 628 0 
L 628 4666 
L 2053 4666 
Q 2853 4666 3247 4331 
Q 3641 3997 3641 3322 
Q 3641 2881 3436 2590 
Q 3231 2300 2841 2188 
z
M 1259 4147 
L 1259 2491 
L 2053 2491 
Q 2509 2491 2742 2702 
Q 2975 2913 2975 3322 
Q 2975 3731 2742 3939 
Q 2509 4147 2053 4147 
L 1259 4147 
z
" transform="scale(0.015625)"/>
       <path id="DejaVuSans-30" d="M 2034 4250 
Q 1547 4250 1301 3770 
Q 1056 3291 1056 2328 
Q 1056 1369 1301 889 
Q 1547 409 2034 409 
Q 2525 409 2770 889 
Q 3016 1369 3016 2328 
Q 3016 3291 2770 3770 
Q 2525 4250 2034 4250 
z
M 2034 4750 
Q 2819 4750 3233 4129 
Q 3647 3509 3647 2328 
Q 3647 1150 3233 529 
Q 2819 -91 2034 -91 
Q 1250 -91 836 529 
Q 422 1150 422 2328 
Q 422 3509 836 4129 
Q 1250 4750 2034 4750 
z
" transform="scale(0.015625)"/>
       <path id="DejaVuSans-20" transform="scale(0.015625)"/>
       <path id="DejaVuSans-47" d="M 3809 666 
L 3809 1919 
L 2778 1919 
L 2778 2438 
L 4434 2438 
L 4434 434 
Q 4069 175 3628 42 
Q 3188 -91 2688 -91 
Q 1594 -91 976 548 
Q 359 1188 359 2328 
Q 359 3472 976 4111 
Q 1594 4750 2688 4750 
Q 3144 4750 3555 4637 
Q 3966 4525 4313 4306 
L 4313 3634 
Q 3963 3931 3569 4081 
Q 3175 4231 2741 4231 
Q 1884 4231 1454 3753 
Q 1025 3275 1025 2328 
Q 1025 1384 1454 906 
Q 1884 428 2741 428 
Q 3075 428 3337 486 
Q 3600 544 3809 666 
z
" transform="scale(0.015625)"/>
       <path id="DejaVuSans-2d" d="M 313 2009 
L 1997 2009 
L 1997 1497 
L 313 1497 
L 313 2009 
z
" transform="scale(0.015625)"/>
       <path id="DejaVuSans-4c" d="M 628 4666 
L 1259 4666 
L 1259 531 
L 3531 531 
L 3531 0 
L 628 0 
L 628 4666 
z
" transform="scale(0.015625)"/>
       <path id="DejaVuSans-55" d="M 556 4666 
L 1191 4666 
L 1191 1831 
Q 1191 1081 1462 751 
Q 1734 422 2344 422 
Q 2950 422 3222 751 
Q 3494 1081 3494 1831 
L 3494 4666 
L 4128 4666 
L 4128 1753 
Q 4128 841 3676 375 
Q 3225 -91 2344 -91 
Q 1459 -91 1007 375 
Q 556 841 556 1753 
L 556 4666 
z
" transform="scale(0.015625)"/>
       <path id="DejaVuSans-4f" d="M 2522 4238 
Q 1834 4238 1429 3725 
Q 1025 3213 1025 2328 
Q 1025 1447 1429 934 
Q 1834 422 2522 422 
Q 3209 422 3611 934 
Q 4013 1447 4013 2328 
Q 4013 3213 3611 3725 
Q 3209 4238 2522 4238 
z
M 2522 4750 
Q 3503 4750 4090 4092 
Q 4678 3434 4678 2328 
Q 4678 1225 4090 567 
Q 3503 -91 2522 -91 
Q 1538 -91 948 565 
Q 359 1222 359 2328 
Q 359 3434 948 4092 
Q 1538 4750 2522 4750 
z
" transform="scale(0.015625)"/>
       <path id="DejaVuSans-45" d="M 628 4666 
L 3578 4666 
L 3578 4134 
L 1259 4134 
L 1259 2753 
L 3481 2753 
L 3481 2222 
L 1259 2222 
L 1259 531 
L 3634 531 
L 3634 0 
L 628 0 
L 628 4666 
z
" transform="scale(0.015625)"/>
       <path id="DejaVuSans-44" d="M 1259 4147 
L 1259 519 
L 2022 519 
Q 2988 519 3436 956 
Q 3884 1394 3884 2338 
Q 3884 3275 3436 3711 
Q 2988 4147 2022 4147 
L 1259 4147 
z
M 628 4666 
L 1925 4666 
Q 3281 4666 3915 4102 
Q 4550 3538 4550 2338 
Q 4550 1131 3912 565 
Q 3275 0 1925 0 
L 628 0 
L 628 4666 
z
" transform="scale(0.015625)"/>
       <path id="DejaVuSans-69" d="M 603 3500 
L 1178 3500 
L 1178 0 
L 603 0 
L 603 3500 
z
M 603 4863 
L 1178 4863 
L 1178 4134 
L 603 4134 
L 603 4863 
z
" transform="scale(0.015625)"/>
       <path id="DejaVuSans-73" d="M 2834 3397 
L 2834 2853 
Q 2591 2978 2328 3040 
Q 2066 3103 1784 3103 
Q 1356 3103 1142 2972 
Q 928 2841 928 2578 
Q 928 2378 1081 2264 
Q 1234 2150 1697 2047 
L 1894 2003 
Q 2506 1872 2764 1633 
Q 3022 1394 3022 966 
Q 3022 478 2636 193 
Q 2250 -91 1575 -91 
Q 1294 -91 989 -36 
Q 684 19 347 128 
L 347 722 
Q 666 556 975 473 
Q 1284 391 1588 391 
Q 1994 391 2212 530 
Q 2431 669 2431 922 
Q 2431 1156 2273 1281 
Q 2116 1406 1581 1522 
L 1381 1569 
Q 847 1681 609 1914 
Q 372 2147 372 2553 
Q 372 3047 722 3315 
Q 1072 3584 1716 3584 
Q 2034 3584 2315 3537 
Q 2597 3491 2834 3397 
z
" transform="scale(0.015625)"/>
       <path id="DejaVuSans-74" d="M 1172 4494 
L 1172 3500 
L 2356 3500 
L 2356 3053 
L 1172 3053 
L 1172 1153 
Q 1172 725 1289 603 
Q 1406 481 1766 481 
L 2356 481 
L 2356 0 
L 1766 0 
Q 1100 0 847 248 
Q 594 497 594 1153 
L 594 3053 
L 172 3053 
L 172 3500 
L 594 3500 
L 594 4494 
L 1172 4494 
z
" transform="scale(0.015625)"/>
       <path id="DejaVuSans-61" d="M 2194 1759 
Q 1497 1759 1228 1600 
Q 959 1441 959 1056 
Q 959 750 1161 570 
Q 1363 391 1709 391 
Q 2188 391 2477 730 
Q 2766 1069 2766 1631 
L 2766 1759 
L 2194 1759 
z
M 3341 1997 
L 3341 0 
L 2766 0 
L 2766 531 
Q 2569 213 2275 61 
Q 1981 -91 1556 -91 
Q 1019 -91 701 211 
Q 384 513 384 1019 
Q 384 1609 779 1909 
Q 1175 2209 1959 2209 
L 2766 2209 
L 2766 2266 
Q 2766 2663 2505 2880 
Q 2244 3097 1772 3097 
Q 1472 3097 1187 3025 
Q 903 2953 641 2809 
L 641 3341 
Q 956 3463 1253 3523 
Q 1550 3584 1831 3584 
Q 2591 3584 2966 3190 
Q 3341 2797 3341 1997 
z
" transform="scale(0.015625)"/>
       <path id="DejaVuSans-6e" d="M 3513 2113 
L 3513 0 
L 2938 0 
L 2938 2094 
Q 2938 2591 2744 2837 
Q 2550 3084 2163 3084 
Q 1697 3084 1428 2787 
Q 1159 2491 1159 1978 
L 1159 0 
L 581 0 
L 581 3500 
L 1159 3500 
L 1159 2956 
Q 1366 3272 1645 3428 
Q 1925 3584 2291 3584 
Q 2894 3584 3203 3211 
Q 3513 2838 3513 2113 
z
" transform="scale(0.015625)"/>
       <path id="DejaVuSans-63" d="M 3122 3366 
L 3122 2828 
Q 2878 2963 2633 3030 
Q 2388 3097 2138 3097 
Q 1578 3097 1268 2742 
Q 959 2388 959 1747 
Q 959 1106 1268 751 
Q 1578 397 2138 397 
Q 2388 397 2633 464 
Q 2878 531 3122 666 
L 3122 134 
Q 2881 22 2623 -34 
Q 2366 -91 2075 -91 
Q 1284 -91 818 406 
Q 353 903 353 1747 
Q 353 2603 823 3093 
Q 1294 3584 2113 3584 
Q 2378 3584 2631 3529 
Q 2884 3475 3122 3366 
z
" transform="scale(0.015625)"/>
       <path id="DejaVuSans-65" d="M 3597 1894 
L 3597 1613 
L 953 1613 
Q 991 1019 1311 708 
Q 1631 397 2203 397 
Q 2534 397 2845 478 
Q 3156 559 3463 722 
L 3463 178 
Q 3153 47 2828 -22 
Q 2503 -91 2169 -91 
Q 1331 -91 842 396 
Q 353 884 353 1716 
Q 353 2575 817 3079 
Q 1281 3584 2069 3584 
Q 2775 3584 3186 3129 
Q 3597 2675 3597 1894 
z
M 3022 2063 
Q 3016 2534 2758 2815 
Q 2500 3097 2075 3097 
Q 1594 3097 1305 2825 
Q 1016 2553 972 2059 
L 3022 2063 
z
" transform="scale(0.015625)"/>
       <path id="DejaVuSans-5b" d="M 550 4863 
L 1875 4863 
L 1875 4416 
L 1125 4416 
L 1125 -397 
L 1875 -397 
L 1875 -844 
L 550 -844 
L 550 4863 
z
" transform="scale(0.015625)"/>
       <path id="DejaVuSans-c5" d="M 2663 5081 
Q 2663 5278 2523 5417 
Q 2384 5556 2188 5556 
Q 1988 5556 1852 5420 
Q 1716 5284 1716 5081 
Q 1716 4884 1853 4746 
Q 1991 4609 2188 4609 
Q 2384 4609 2523 4746 
Q 2663 4884 2663 5081 
z
M 2188 4044 
L 1338 1722 
L 3041 1722 
L 2188 4044 
z
M 1716 4366 
Q 1525 4494 1428 4673 
Q 1331 4853 1331 5081 
Q 1331 5441 1579 5691 
Q 1828 5941 2188 5941 
Q 2544 5941 2795 5689 
Q 3047 5438 3047 5081 
Q 3047 4863 2948 4678 
Q 2850 4494 2663 4366 
L 4325 0 
L 3669 0 
L 3244 1197 
L 1141 1197 
L 716 0 
L 50 0 
L 1716 4366 
z
" transform="scale(0.015625)"/>
       <path id="DejaVuSans-5d" d="M 1947 4863 
L 1947 -844 
L 622 -844 
L 622 -397 
L 1369 -397 
L 1369 4416 
L 622 4416 
L 622 4863 
L 1947 4863 
z
" transform="scale(0.015625)"/>
      </defs>
      <use xlink:href="#DejaVuSans-54"/>
      <use xlink:href="#DejaVuSans-48" x="61.083984"/>
      <use xlink:href="#DejaVuSans-52" x="136.279297"/>
      <use xlink:href="#DejaVuSans-32" x="205.761719"/>
      <use xlink:href="#DejaVuSans-30" x="269.384766"/>
      <use xlink:href="#DejaVuSans-33" x="333.007812"/>
      <use xlink:href="#DejaVuSans-20" x="396.630859"/>
      <use xlink:href="#DejaVuSans-48" x="428.417969"/>
      <use xlink:href="#DejaVuSans-47" x="503.613281"/>
      <use xlink:href="#DejaVuSans-31" x="581.103516"/>
      <use xlink:href="#DejaVuSans-20" x="644.726562"/>
      <use xlink:href="#DejaVuSans-2d" x="676.513672"/>
      <use xlink:href="#DejaVuSans-20" x="712.597656"/>
      <use xlink:href="#DejaVuSans-47" x="744.384766"/>
      <use xlink:href="#DejaVuSans-4c" x="821.875"/>
      <use xlink:href="#DejaVuSans-55" x="872.587891"/>
      <use xlink:href="#DejaVuSans-32" x="945.78125"/>
      <use xlink:href="#DejaVuSans-32" x="1009.404297"/>
      <use xlink:href="#DejaVuSans-32" x="1073.027344"/>
      <use xlink:href="#DejaVuSans-20" x="1136.650391"/>
      <use xlink:href="#DejaVuSans-4f" x="1168.4375"/>
      <use xlink:href="#DejaVuSans-45" x="1247.148438"/>
      <use xlink:href="#DejaVuSans-20" x="1310.332031"/>
      <use xlink:href="#DejaVuSans-44" x="1342.119141"/>
      <use xlink:href="#DejaVuSans-69" x="1419.121094"/>
      <use xlink:href="#DejaVuSans-73" x="1446.904297"/>
      <use xlink:href="#DejaVuSans-74" x="1499.003906"/>
      <use xlink:href="#DejaVuSans-61" x="1538.212891"/>
      <use xlink:href="#DejaVuSans-6e" x="1599.492188"/>
      <use xlink:href="#DejaVuSans-63" x="1662.871094"/>
      <use xlink:href="#DejaVuSans-65" x="1717.851562"/>
      <use xlink:href="#DejaVuSans-20" x="1779.375"/>
      <use xlink:href="#DejaVuSans-5b" x="1811.162109"/>
      <use xlink:href="#DejaVuSans-c5" x="1850.175781"/>
      <use xlink:href="#DejaVuSans-5d" x="1918.583984"/>
     </g>
    </g>
   </g>
   <g id="matplotlib.axis_2">
    <g id="ytick_1">
     <g id="line2d_11">
      <defs>
       <path id="m51f6b364a8" d="M 0 0 
L -3.5 0 
" style="stroke: #000000; stroke-width: 0.8"/>
      </defs>
      <g>
       <use xlink:href="#m51f6b364a8" x="46.64" y="283.646333" style="stroke: #000000; stroke-width: 0.8"/>
      </g>
     </g>
     <g id="text_9">
      <!-- −1 -->
      <g transform="translate(24.897813 287.445552) scale(0.1 -0.1)">
       <defs>
        <path id="DejaVuSans-2212" d="M 678 2272 
L 4684 2272 
L 4684 1741 
L 678 1741 
L 678 2272 
z
" transform="scale(0.015625)"/>
       </defs>
       <use xlink:href="#DejaVuSans-2212"/>
       <use xlink:href="#DejaVuSans-31" x="83.789062"/>
      </g>
     </g>
    </g>
    <g id="ytick_2">
     <g id="line2d_12">
      <g>
       <use xlink:href="#m51f6b364a8" x="46.64" y="245.234" style="stroke: #000000; stroke-width: 0.8"/>
      </g>
     </g>
     <g id="text_10">
      <!-- 0 -->
      <g transform="translate(33.2775 249.033219) scale(0.1 -0.1)">
       <use xlink:href="#DejaVuSans-30"/>
      </g>
     </g>
    </g>
    <g id="ytick_3">
     <g id="line2d_13">
      <g>
       <use xlink:href="#m51f6b364a8" x="46.64" y="206.821667" style="stroke: #000000; stroke-width: 0.8"/>
      </g>
     </g>
     <g id="text_11">
      <!-- 1 -->
      <g transform="translate(33.2775 210.620885) scale(0.1 -0.1)">
       <use xlink:href="#DejaVuSans-31"/>
      </g>
     </g>
    </g>
    <g id="ytick_4">
     <g id="line2d_14">
      <g>
       <use xlink:href="#m51f6b364a8" x="46.64" y="168.409333" style="stroke: #000000; stroke-width: 0.8"/>
      </g>
     </g>
     <g id="text_12">
      <!-- 2 -->
      <g transform="translate(33.2775 172.208552) scale(0.1 -0.1)">
       <use xlink:href="#DejaVuSans-32"/>
      </g>
     </g>
    </g>
    <g id="ytick_5">
     <g id="line2d_15">
      <g>
       <use xlink:href="#m51f6b364a8" x="46.64" y="129.997" style="stroke: #000000; stroke-width: 0.8"/>
      </g>
     </g>
     <g id="text_13">
      <!-- 3 -->
      <g transform="translate(33.2775 133.796219) scale(0.1 -0.1)">
       <use xlink:href="#DejaVuSans-33"/>
      </g>
     </g>
    </g>
    <g id="ytick_6">
     <g id="line2d_16">
      <g>
       <use xlink:href="#m51f6b364a8" x="46.64" y="91.584667" style="stroke: #000000; stroke-width: 0.8"/>
      </g>
     </g>
     <g id="text_14">
      <!-- 4 -->
      <g transform="translate(33.2775 95.383885) scale(0.1 -0.1)">
       <use xlink:href="#DejaVuSans-34"/>
      </g>
     </g>
    </g>
    <g id="ytick_7">
     <g id="line2d_17">
      <g>
       <use xlink:href="#m51f6b364a8" x="46.64" y="53.172333" style="stroke: #000000; stroke-width: 0.8"/>
      </g>
     </g>
     <g id="text_15">
      <!-- 5 -->
      <g transform="translate(33.2775 56.971552) scale(0.1 -0.1)">
       <use xlink:href="#DejaVuSans-35"/>
      </g>
     </g>
    </g>
    <g id="ytick_8">
     <g id="line2d_18">
      <g>
       <use xlink:href="#m51f6b364a8" x="46.64" y="14.76" style="stroke: #000000; stroke-width: 0.8"/>
      </g>
     </g>
     <g id="text_16">
      <!-- 6 -->
      <g transform="translate(33.2775 18.559219) scale(0.1 -0.1)">
       <use xlink:href="#DejaVuSans-36"/>
      </g>
     </g>
    </g>
    <g id="text_17">
     <!-- PMF [kcal/mol] -->
     <g transform="translate(18.818125 195.602344) rotate(-90) scale(0.1 -0.1)">
      <defs>
       <path id="DejaVuSans-50" d="M 1259 4147 
L 1259 2394 
L 2053 2394 
Q 2494 2394 2734 2622 
Q 2975 2850 2975 3272 
Q 2975 3691 2734 3919 
Q 2494 4147 2053 4147 
L 1259 4147 
z
M 628 4666 
L 2053 4666 
Q 2838 4666 3239 4311 
Q 3641 3956 3641 3272 
Q 3641 2581 3239 2228 
Q 2838 1875 2053 1875 
L 1259 1875 
L 1259 0 
L 628 0 
L 628 4666 
z
" transform="scale(0.015625)"/>
       <path id="DejaVuSans-4d" d="M 628 4666 
L 1569 4666 
L 2759 1491 
L 3956 4666 
L 4897 4666 
L 4897 0 
L 4281 0 
L 4281 4097 
L 3078 897 
L 2444 897 
L 1241 4097 
L 1241 0 
L 628 0 
L 628 4666 
z
" transform="scale(0.015625)"/>
       <path id="DejaVuSans-46" d="M 628 4666 
L 3309 4666 
L 3309 4134 
L 1259 4134 
L 1259 2759 
L 3109 2759 
L 3109 2228 
L 1259 2228 
L 1259 0 
L 628 0 
L 628 4666 
z
" transform="scale(0.015625)"/>
       <path id="DejaVuSans-6b" d="M 581 4863 
L 1159 4863 
L 1159 1991 
L 2875 3500 
L 3609 3500 
L 1753 1863 
L 3688 0 
L 2938 0 
L 1159 1709 
L 1159 0 
L 581 0 
L 581 4863 
z
" transform="scale(0.015625)"/>
       <path id="DejaVuSans-6c" d="M 603 4863 
L 1178 4863 
L 1178 0 
L 603 0 
L 603 4863 
z
" transform="scale(0.015625)"/>
       <path id="DejaVuSans-2f" d="M 1625 4666 
L 2156 4666 
L 531 -594 
L 0 -594 
L 1625 4666 
z
" transform="scale(0.015625)"/>
       <path id="DejaVuSans-6d" d="M 3328 2828 
Q 3544 3216 3844 3400 
Q 4144 3584 4550 3584 
Q 5097 3584 5394 3201 
Q 5691 2819 5691 2113 
L 5691 0 
L 5113 0 
L 5113 2094 
Q 5113 2597 4934 2840 
Q 4756 3084 4391 3084 
Q 3944 3084 3684 2787 
Q 3425 2491 3425 1978 
L 3425 0 
L 2847 0 
L 2847 2094 
Q 2847 2600 2669 2842 
Q 2491 3084 2119 3084 
Q 1678 3084 1418 2786 
Q 1159 2488 1159 1978 
L 1159 0 
L 581 0 
L 581 3500 
L 1159 3500 
L 1159 2956 
Q 1356 3278 1631 3431 
Q 1906 3584 2284 3584 
Q 2666 3584 2933 3390 
Q 3200 3197 3328 2828 
z
" transform="scale(0.015625)"/>
       <path id="DejaVuSans-6f" d="M 1959 3097 
Q 1497 3097 1228 2736 
Q 959 2375 959 1747 
Q 959 1119 1226 758 
Q 1494 397 1959 397 
Q 2419 397 2687 759 
Q 2956 1122 2956 1747 
Q 2956 2369 2687 2733 
Q 2419 3097 1959 3097 
z
M 1959 3584 
Q 2709 3584 3137 3096 
Q 3566 2609 3566 1747 
Q 3566 888 3137 398 
Q 2709 -91 1959 -91 
Q 1206 -91 779 398 
Q 353 888 353 1747 
Q 353 2609 779 3096 
Q 1206 3584 1959 3584 
z
" transform="scale(0.015625)"/>
      </defs>
      <use xlink:href="#DejaVuSans-50"/>
      <use xlink:href="#DejaVuSans-4d" x="60.302734"/>
      <use xlink:href="#DejaVuSans-46" x="146.582031"/>
      <use xlink:href="#DejaVuSans-20" x="204.101562"/>
      <use xlink:href="#DejaVuSans-5b" x="235.888672"/>
      <use xlink:href="#DejaVuSans-6b" x="274.902344"/>
      <use xlink:href="#DejaVuSans-63" x="332.8125"/>
      <use xlink:href="#DejaVuSans-61" x="387.792969"/>
      <use xlink:href="#DejaVuSans-6c" x="449.072266"/>
      <use xlink:href="#DejaVuSans-2f" x="476.855469"/>
      <use xlink:href="#DejaVuSans-6d" x="510.546875"/>
      <use xlink:href="#DejaVuSans-6f" x="607.958984"/>
      <use xlink:href="#DejaVuSans-6c" x="669.140625"/>
      <use xlink:href="#DejaVuSans-5d" x="696.923828"/>
     </g>
    </g>
   </g>
   <g id="line2d_19">
    <path d="M 46.64 16.607207 
L 49.64458 45.045545 
L 52.649159 71.406886 
L 55.653739 95.710422 
L 58.658318 117.976297 
L 61.061982 134.33616 
L 63.465646 149.4171 
L 65.869309 163.231388 
L 68.272973 175.79212 
L 70.676637 187.113356 
L 73.0803 197.21027 
L 74.883048 203.989333 
L 76.685796 210.09639 
L 78.488544 215.539388 
L 80.291291 220.326797 
L 82.094039 224.467654 
L 83.896787 227.971594 
L 85.699535 230.848886 
L 86.901366 232.424319 
L 88.103198 233.729507 
L 89.30503 234.768013 
L 90.506862 235.543549 
L 91.708694 236.059985 
L 92.910526 236.321353 
L 94.112357 236.331856 
L 95.314189 236.09587 
L 96.516021 235.617958 
L 97.717853 234.902867 
L 98.919685 233.955545 
L 100.121517 232.781139 
L 101.924264 230.605521 
L 103.727012 227.950034 
L 105.52976 224.834724 
L 107.332508 221.280694 
L 109.135255 217.310038 
L 111.538919 211.407535 
L 113.942583 204.861458 
L 116.346246 197.729006 
L 119.350826 188.075238 
L 122.355405 177.7006 
L 125.960901 164.44045 
L 130.167312 148.067963 
L 136.176471 123.621271 
L 143.387462 94.3427 
L 147.593874 78.210158 
L 149.997538 69.676127 
L 151.800285 63.859642 
L 153.603033 58.791629 
L 154.804865 55.947506 
L 156.006697 53.596946 
L 157.208529 51.765934 
L 158.41036 50.4442 
L 159.612192 49.585596 
L 160.814024 49.116518 
L 162.015856 48.948855 
L 163.217688 48.992906 
L 165.621351 49.403829 
L 169.226847 50.057934 
L 175.236006 50.844401 
L 176.437838 51.307195 
L 177.63967 52.043706 
L 178.841502 53.13193 
L 180.043333 54.631522 
L 181.245165 56.571805 
L 182.446997 58.945526 
L 184.249745 63.220366 
L 186.052492 68.13823 
L 189.657988 78.88768 
L 194.465315 93.177192 
L 198.070811 103.215096 
L 201.676306 112.623927 
L 205.281802 121.443552 
L 208.887297 129.672399 
L 212.492793 137.282449 
L 215.497372 143.145014 
L 219.102868 149.642781 
L 222.708363 155.654093 
L 227.515691 163.186217 
L 236.529429 177.182888 
L 241.336757 185.145855 
L 246.745 194.598664 
L 258.162402 214.757242 
L 261.767898 220.646562 
L 265.373393 226.097765 
L 268.377973 230.238185 
L 271.382553 233.963904 
L 273.786216 236.618549 
L 276.18988 238.963072 
L 278.593544 240.980806 
L 280.997207 242.657771 
L 282.799955 243.685335 
L 284.602703 244.512096 
L 286.40545 245.136257 
L 288.208198 245.557291 
L 290.010946 245.775876 
L 291.813694 245.793817 
L 293.616441 245.613961 
L 295.419189 245.24014 
L 297.221937 244.677153 
L 299.024685 243.930816 
L 301.428348 242.662639 
L 303.832012 241.100979 
L 306.235676 239.270603 
L 309.240255 236.651121 
L 312.244835 233.729443 
L 316.451246 229.283272 
L 324.263153 220.568552 
L 335.680556 207.931061 
L 346.497042 196.287286 
L 352.506201 190.107694 
L 357.313529 185.450081 
L 362.120856 181.07824 
L 369.331847 174.867087 
L 375.341006 169.620644 
L 378.946502 166.2194 
L 382.551997 162.483848 
L 385.556577 159.052827 
L 388.561156 155.310454 
L 392.166652 150.418076 
L 395.772147 145.116208 
L 399.377643 139.422077 
L 402.983138 133.336148 
L 407.18955 125.771321 
L 412.597793 115.527306 
L 420.4097 100.261758 
L 424.616111 91.606558 
L 427.620691 84.981538 
L 430.62527 77.813267 
L 433.028934 71.585386 
L 435.432598 64.832716 
L 437.836261 57.469921 
L 440.239925 49.404817 
L 442.643589 40.539754 
L 445.047252 30.775147 
L 447.450916 20.013844 
L 449.85458 8.165043 
L 451.568827 -1 
L 451.568827 -1 
" clip-path="url(#p352b3d40c6)" style="fill: none; stroke: #f99752; stroke-width: 2.5; stroke-linecap: square"/>
   </g>
   <g id="patch_3">
    <path d="M 46.64 302.8525 
L 46.64 14.76 
" style="fill: none; stroke: #000000; stroke-width: 0.8; stroke-linejoin: miter; stroke-linecap: square"/>
   </g>
   <g id="patch_4">
    <path d="M 446.85 302.8525 
L 446.85 14.76 
" style="fill: none; stroke: #000000; stroke-width: 0.8; stroke-linejoin: miter; stroke-linecap: square"/>
   </g>
   <g id="patch_5">
    <path d="M 46.64 302.8525 
L 446.85 302.8525 
" style="fill: none; stroke: #000000; stroke-width: 0.8; stroke-linejoin: miter; stroke-linecap: square"/>
   </g>
   <g id="patch_6">
    <path d="M 46.64 14.76 
L 446.85 14.76 
" style="fill: none; stroke: #000000; stroke-width: 0.8; stroke-linejoin: miter; stroke-linecap: square"/>
   </g>
   <g id="legend_1">
    <g id="patch_7">
     <path d="M 364.404688 297.8525 
L 439.85 297.8525 
Q 441.85 297.8525 441.85 295.8525 
L 441.85 252.818125 
Q 441.85 250.818125 439.85 250.818125 
L 364.404688 250.818125 
Q 362.404688 250.818125 362.404688 252.818125 
L 362.404688 295.8525 
Q 362.404688 297.8525 364.404688 297.8525 
z
" style="fill: #ffffff; opacity: 0.8; stroke: #cccccc; stroke-linejoin: miter"/>
    </g>
    <g id="line2d_20">
     <path d="M 366.404688 258.916562 
L 376.404688 258.916562 
L 386.404688 258.916562 
" style="fill: none; stroke: #1e2e79; stroke-width: 2.5; stroke-linecap: square"/>
    </g>
    <g id="text_18">
     <!-- Reduced -->
     <g transform="translate(394.404688 262.416562) scale(0.1 -0.1)">
      <defs>
       <path id="DejaVuSans-64" d="M 2906 2969 
L 2906 4863 
L 3481 4863 
L 3481 0 
L 2906 0 
L 2906 525 
Q 2725 213 2448 61 
Q 2172 -91 1784 -91 
Q 1150 -91 751 415 
Q 353 922 353 1747 
Q 353 2572 751 3078 
Q 1150 3584 1784 3584 
Q 2172 3584 2448 3432 
Q 2725 3281 2906 2969 
z
M 947 1747 
Q 947 1113 1208 752 
Q 1469 391 1925 391 
Q 2381 391 2643 752 
Q 2906 1113 2906 1747 
Q 2906 2381 2643 2742 
Q 2381 3103 1925 3103 
Q 1469 3103 1208 2742 
Q 947 2381 947 1747 
z
" transform="scale(0.015625)"/>
       <path id="DejaVuSans-75" d="M 544 1381 
L 544 3500 
L 1119 3500 
L 1119 1403 
Q 1119 906 1312 657 
Q 1506 409 1894 409 
Q 2359 409 2629 706 
Q 2900 1003 2900 1516 
L 2900 3500 
L 3475 3500 
L 3475 0 
L 2900 0 
L 2900 538 
Q 2691 219 2414 64 
Q 2138 -91 1772 -91 
Q 1169 -91 856 284 
Q 544 659 544 1381 
z
M 1991 3584 
L 1991 3584 
z
" transform="scale(0.015625)"/>
      </defs>
      <use xlink:href="#DejaVuSans-52"/>
      <use xlink:href="#DejaVuSans-65" x="64.982422"/>
      <use xlink:href="#DejaVuSans-64" x="126.505859"/>
      <use xlink:href="#DejaVuSans-75" x="189.982422"/>
      <use xlink:href="#DejaVuSans-63" x="253.361328"/>
      <use xlink:href="#DejaVuSans-65" x="308.341797"/>
      <use xlink:href="#DejaVuSans-64" x="369.865234"/>
     </g>
    </g>
    <g id="line2d_21">
     <path d="M 366.404688 273.594687 
L 376.404688 273.594687 
L 386.404688 273.594687 
" style="fill: none; stroke: #ec4067; stroke-width: 2.5; stroke-linecap: square"/>
    </g>
    <g id="text_19">
     <!-- Oxidized -->
     <g transform="translate(394.404688 277.094687) scale(0.1 -0.1)">
      <defs>
       <path id="DejaVuSans-78" d="M 3513 3500 
L 2247 1797 
L 3578 0 
L 2900 0 
L 1881 1375 
L 863 0 
L 184 0 
L 1544 1831 
L 300 3500 
L 978 3500 
L 1906 2253 
L 2834 3500 
L 3513 3500 
z
" transform="scale(0.015625)"/>
       <path id="DejaVuSans-7a" d="M 353 3500 
L 3084 3500 
L 3084 2975 
L 922 459 
L 3084 459 
L 3084 0 
L 275 0 
L 275 525 
L 2438 3041 
L 353 3041 
L 353 3500 
z
" transform="scale(0.015625)"/>
      </defs>
      <use xlink:href="#DejaVuSans-4f"/>
      <use xlink:href="#DejaVuSans-78" x="78.710938"/>
      <use xlink:href="#DejaVuSans-69" x="137.890625"/>
      <use xlink:href="#DejaVuSans-64" x="165.673828"/>
      <use xlink:href="#DejaVuSans-69" x="229.150391"/>
      <use xlink:href="#DejaVuSans-7a" x="256.933594"/>
      <use xlink:href="#DejaVuSans-65" x="309.423828"/>
      <use xlink:href="#DejaVuSans-64" x="370.947266"/>
     </g>
    </g>
    <g id="line2d_22">
     <path d="M 366.404688 288.272812 
L 376.404688 288.272812 
L 386.404688 288.272812 
" style="fill: none; stroke: #f99752; stroke-width: 2.5; stroke-linecap: square"/>
    </g>
    <g id="text_20">
     <!-- Cu$^{+}$ -->
     <g transform="translate(394.404688 291.772812) scale(0.1 -0.1)">
      <defs>
       <path id="DejaVuSans-43" d="M 4122 4306 
L 4122 3641 
Q 3803 3938 3442 4084 
Q 3081 4231 2675 4231 
Q 1875 4231 1450 3742 
Q 1025 3253 1025 2328 
Q 1025 1406 1450 917 
Q 1875 428 2675 428 
Q 3081 428 3442 575 
Q 3803 722 4122 1019 
L 4122 359 
Q 3791 134 3420 21 
Q 3050 -91 2638 -91 
Q 1578 -91 968 557 
Q 359 1206 359 2328 
Q 359 3453 968 4101 
Q 1578 4750 2638 4750 
Q 3056 4750 3426 4639 
Q 3797 4528 4122 4306 
z
" transform="scale(0.015625)"/>
       <path id="DejaVuSans-2b" d="M 2944 4013 
L 2944 2272 
L 4684 2272 
L 4684 1741 
L 2944 1741 
L 2944 0 
L 2419 0 
L 2419 1741 
L 678 1741 
L 678 2272 
L 2419 2272 
L 2419 4013 
L 2944 4013 
z
" transform="scale(0.015625)"/>
      </defs>
      <use xlink:href="#DejaVuSans-43" transform="translate(0 0.826562)"/>
      <use xlink:href="#DejaVuSans-75" transform="translate(69.824219 0.826562)"/>
      <use xlink:href="#DejaVuSans-2b" transform="translate(134.160156 39.107812) scale(0.7)"/>
     </g>
    </g>
   </g>
  </g>
 </g>
 <defs>
  <clipPath id="p352b3d40c6">
   <rect x="46.64" y="14.76" width="400.21" height="288.0925"/>
  </clipPath>
 </defs>
</svg>
