<?xml version="1.0" encoding="utf-8" standalone="no"?>
<!DOCTYPE svg PUBLIC "-//W3C//DTD SVG 1.1//EN"
  "http://www.w3.org/Graphics/SVG/1.1/DTD/svg11.dtd">
<svg xmlns:xlink="http://www.w3.org/1999/xlink" width="460.8pt" height="345.6pt" viewBox="0 0 460.8 345.6" xmlns="http://www.w3.org/2000/svg" version="1.1">
 <metadata>
  <rdf:RDF xmlns:dc="http://purl.org/dc/elements/1.1/" xmlns:cc="http://creativecommons.org/ns#" xmlns:rdf="http://www.w3.org/1999/02/22-rdf-syntax-ns#">
   <cc:Work>
    <dc:type rdf:resource="http://purl.org/dc/dcmitype/StillImage"/>
    <dc:date>2024-07-07T13:53:37.905053</dc:date>
    <dc:format>image/svg+xml</dc:format>
    <dc:creator>
     <cc:Agent>
      <dc:title>Matplotlib v3.8.4, https://matplotlib.org/</dc:title>
     </cc:Agent>
    </dc:creator>
   </cc:Work>
  </rdf:RDF>
 </metadata>
 <defs>
  <style type="text/css">*{stroke-linejoin: round; stroke-linecap: butt}</style>
 </defs>
 <g id="figure_1">
  <g id="patch_1">
   <path d="M 0 345.6 
L 460.8 345.6 
L 460.8 0 
L 0 0 
z
" style="fill: #ffffff"/>
  </g>
  <g id="axes_1">
   <g id="patch_2">
    <path d="M 49.286 298.6 
L 445.032 298.6 
L 445.032 12.96 
L 49.286 12.96 
z
" style="fill: #ffffff"/>
   </g>
   <g id="line2d_1">
    <path d="M -1 298.6 
L 3.041524 298.6 
L 11.045375 298.6 
L 19.049227 298.6 
L 27.053079 298.6 
L 35.05693 298.6 
L 43.060782 298.6 
L 51.064634 298.6 
L 59.068485 298.6 
L 67.072337 298.6 
L 75.076189 298.6 
L 83.08004 298.582975 
L 91.083892 298.502421 
L 99.087744 298.501801 
L 107.091596 298.210923 
L 115.095447 297.826144 
L 123.099299 296.652469 
L 131.103151 293.511533 
L 139.107002 286.87988 
L 147.110854 274.538136 
L 155.114706 250.943165 
L 163.118557 213.559631 
L 171.122409 173.095801 
L 179.126261 126.074698 
L 187.130112 87.028126 
L 195.133964 50.276675 
L 203.137816 40.738052 
L 211.141667 37.00277 
L 219.145519 35.988893 
L 227.149371 37.298407 
L 235.153222 38.873329 
L 243.157074 32.76039 
L 251.160926 56.101164 
L 259.164778 68.889738 
L 267.168629 117.165715 
L 275.172481 150.363409 
L 283.176333 189.615004 
L 291.180184 226.571479 
L 299.184036 245.779939 
L 307.187888 268.088829 
L 315.191739 277.161278 
L 323.195591 286.315538 
L 331.199443 288.590648 
L 339.203294 293.734051 
L 347.207146 295.140662 
L 355.210998 295.809257 
L 363.214849 296.575473 
L 371.218701 297.467408 
L 379.222553 298.109867 
L 387.226404 298.36438 
L 395.230256 298.51775 
L 403.234108 298.578979 
L 411.23796 298.593094 
L 419.241811 298.451172 
L 427.245663 298.599949 
L 435.249515 298.6 
L 443.253366 298.6 
L 451.257218 298.6 
L 459.26107 298.6 
L 461.8 298.6 
" clip-path="url(#pac0dc7c7eb)" style="fill: none; stroke: #1e2e79; stroke-width: 2.5; stroke-linecap: square"/>
   </g>
   <g id="line2d_2">
    <path d="M -1 298.6 
L 3.041524 298.6 
L 11.045375 298.6 
L 19.049227 298.6 
L 27.053079 298.6 
L 35.05693 298.6 
L 43.060782 298.6 
L 51.064634 298.6 
L 59.068485 298.6 
L 67.072337 298.6 
L 75.076189 298.6 
L 83.08004 298.6 
L 91.083892 298.6 
L 99.087744 298.541972 
L 107.091596 298.384796 
L 115.095447 297.290974 
L 123.099299 292.326372 
L 131.103151 275.267844 
L 139.107002 247.925325 
L 147.110854 206.758224 
L 155.114706 146.386298 
L 163.118557 103.426227 
L 171.122409 71.884978 
L 179.126261 51.959997 
L 187.130112 34.793968 
L 195.133964 26.561905 
L 203.137816 29.850001 
L 211.141667 36.882695 
L 219.145519 36.125225 
L 227.149371 48.292138 
L 235.153222 56.488426 
L 243.157074 81.192067 
L 251.160926 115.930199 
L 259.164778 154.705089 
L 267.168629 198.972525 
L 275.172481 237.211363 
L 283.176333 263.296552 
L 291.180184 279.842782 
L 299.184036 286.916522 
L 307.187888 293.189526 
L 315.191739 295.375776 
L 323.195591 295.696093 
L 331.199443 297.295172 
L 339.203294 296.990136 
L 347.207146 297.818395 
L 355.210998 298.122162 
L 363.214849 298.43613 
L 371.218701 298.251911 
L 379.222553 298.005141 
L 387.226404 298.364515 
L 395.230256 298.6 
L 403.234108 298.6 
L 411.23796 298.6 
L 419.241811 298.6 
L 427.245663 298.6 
L 435.249515 298.6 
L 443.253366 298.6 
L 451.257218 298.6 
L 459.26107 298.6 
L 461.8 298.6 
" clip-path="url(#pac0dc7c7eb)" style="fill: none; stroke: #ec4067; stroke-width: 2.5; stroke-linecap: square"/>
   </g>
   <g id="matplotlib.axis_1">
    <g id="xtick_1">
     <g id="line2d_3">
      <defs>
       <path id="mf120d0fbf6" d="M 0 0 
L 0 3.5 
" style="stroke: #c2c1c1; stroke-width: 0.8"/>
      </defs>
      <g>
       <use xlink:href="#mf120d0fbf6" x="49.286" y="298.6" style="fill: #c2c1c1; stroke: #c2c1c1; stroke-width: 0.8"/>
      </g>
     </g>
     <g id="text_1">
      <!-- 3 -->
      <g style="fill: #191919" transform="translate(46.475844 313.1) scale(0.1 -0.1)">
       <defs>
        <path id="Roboto-Regular-33" d="M 1222 2084 
L 1222 2559 
L 1647 2559 
Q 2094 2563 2312 2784 
Q 2531 3006 2531 3338 
Q 2531 4138 1738 4138 
Q 1369 4138 1141 3927 
Q 913 3716 913 3359 
L 334 3359 
Q 334 3881 720 4247 
Q 1106 4613 1738 4613 
Q 2353 4613 2733 4286 
Q 3113 3959 3113 3325 
Q 3113 3072 2942 2784 
Q 2772 2497 2397 2338 
Q 2850 2191 3015 1884 
Q 3181 1578 3181 1269 
Q 3181 631 2768 284 
Q 2356 -63 1741 -63 
Q 1147 -63 722 267 
Q 297 597 297 1203 
L 875 1203 
Q 875 844 1108 628 
Q 1341 413 1741 413 
Q 2138 413 2369 622 
Q 2600 831 2600 1256 
Q 2600 1681 2337 1882 
Q 2075 2084 1634 2084 
L 1222 2084 
z
" transform="scale(0.015625)"/>
       </defs>
       <use xlink:href="#Roboto-Regular-33"/>
      </g>
     </g>
    </g>
    <g id="xtick_2">
     <g id="line2d_4">
      <g>
       <use xlink:href="#mf120d0fbf6" x="128.4352" y="298.6" style="fill: #c2c1c1; stroke: #c2c1c1; stroke-width: 0.8"/>
      </g>
     </g>
     <g id="text_2">
      <!-- 4 -->
      <g style="fill: #191919" transform="translate(125.625044 313.1) scale(0.1 -0.1)">
       <defs>
        <path id="Roboto-Regular-34" d="M 166 1397 
L 2203 4550 
L 2819 4550 
L 2819 1531 
L 3453 1531 
L 3453 1056 
L 2819 1056 
L 2819 0 
L 2241 0 
L 2241 1056 
L 166 1056 
L 166 1397 
z
M 822 1531 
L 2241 1531 
L 2241 3766 
L 2169 3638 
L 822 1531 
z
" transform="scale(0.015625)"/>
       </defs>
       <use xlink:href="#Roboto-Regular-34"/>
      </g>
     </g>
    </g>
    <g id="xtick_3">
     <g id="line2d_5">
      <g>
       <use xlink:href="#mf120d0fbf6" x="207.5844" y="298.6" style="fill: #c2c1c1; stroke: #c2c1c1; stroke-width: 0.8"/>
      </g>
     </g>
     <g id="text_3">
      <!-- 5 -->
      <g style="fill: #191919" transform="translate(204.774244 313.1) scale(0.1 -0.1)">
       <defs>
        <path id="Roboto-Regular-35" d="M 1109 2166 
L 647 2284 
L 875 4550 
L 3209 4550 
L 3209 4016 
L 1366 4016 
L 1228 2778 
Q 1572 2975 1988 2975 
Q 2616 2975 2980 2561 
Q 3344 2147 3344 1450 
Q 3344 797 2987 367 
Q 2631 -63 1903 -63 
Q 1350 -63 947 248 
Q 544 559 481 1197 
L 1031 1197 
Q 1141 413 1903 413 
Q 2313 413 2538 691 
Q 2763 969 2763 1444 
Q 2763 1872 2527 2164 
Q 2291 2456 1853 2456 
Q 1563 2456 1413 2378 
Q 1263 2300 1109 2166 
z
" transform="scale(0.015625)"/>
       </defs>
       <use xlink:href="#Roboto-Regular-35"/>
      </g>
     </g>
    </g>
    <g id="xtick_4">
     <g id="line2d_6">
      <g>
       <use xlink:href="#mf120d0fbf6" x="286.7336" y="298.6" style="fill: #c2c1c1; stroke: #c2c1c1; stroke-width: 0.8"/>
      </g>
     </g>
     <g id="text_4">
      <!-- 6 -->
      <g style="fill: #191919" transform="translate(283.923444 313.1) scale(0.1 -0.1)">
       <defs>
        <path id="Roboto-Regular-36" d="M 3291 1484 
Q 3291 838 2930 387 
Q 2569 -63 1878 -63 
Q 1388 -63 1063 198 
Q 738 459 577 861 
Q 416 1263 416 1684 
L 416 1956 
Q 416 2597 595 3194 
Q 775 3791 1247 4173 
Q 1719 4556 2597 4556 
L 2647 4556 
L 2647 4066 
Q 2041 4066 1705 3853 
Q 1369 3641 1205 3302 
Q 1041 2963 1006 2575 
Q 1369 2984 1984 2984 
Q 2438 2984 2727 2765 
Q 3016 2547 3153 2201 
Q 3291 1856 3291 1484 
z
M 997 1666 
Q 997 1059 1267 737 
Q 1538 416 1878 416 
Q 2278 416 2498 708 
Q 2719 1000 2719 1456 
Q 2719 1863 2516 2184 
Q 2313 2506 1891 2506 
Q 1588 2506 1341 2325 
Q 1094 2144 997 1884 
L 997 1666 
z
" transform="scale(0.015625)"/>
       </defs>
       <use xlink:href="#Roboto-Regular-36"/>
      </g>
     </g>
    </g>
    <g id="xtick_5">
     <g id="line2d_7">
      <g>
       <use xlink:href="#mf120d0fbf6" x="365.8828" y="298.6" style="fill: #c2c1c1; stroke: #c2c1c1; stroke-width: 0.8"/>
      </g>
     </g>
     <g id="text_5">
      <!-- 7 -->
      <g style="fill: #191919" transform="translate(363.072644 313.1) scale(0.1 -0.1)">
       <defs>
        <path id="Roboto-Regular-37" d="M 3319 4550 
L 3319 4225 
L 1434 0 
L 825 0 
L 2706 4075 
L 244 4075 
L 244 4550 
L 3319 4550 
z
" transform="scale(0.015625)"/>
       </defs>
       <use xlink:href="#Roboto-Regular-37"/>
      </g>
     </g>
    </g>
    <g id="xtick_6">
     <g id="line2d_8">
      <g>
       <use xlink:href="#mf120d0fbf6" x="445.032" y="298.6" style="fill: #c2c1c1; stroke: #c2c1c1; stroke-width: 0.8"/>
      </g>
     </g>
     <g id="text_6">
      <!-- 8 -->
      <g style="fill: #191919" transform="translate(442.221844 313.1) scale(0.1 -0.1)">
       <defs>
        <path id="Roboto-Regular-38" d="M 3244 1231 
Q 3244 606 2826 271 
Q 2409 -63 1796 -63 
Q 1184 -63 767 271 
Q 350 606 350 1231 
Q 350 1613 554 1905 
Q 759 2197 1109 2347 
Q 806 2494 629 2762 
Q 453 3031 453 3366 
Q 453 3963 833 4288 
Q 1213 4613 1794 4613 
Q 2378 4613 2758 4288 
Q 3138 3963 3138 3366 
Q 3138 3028 2956 2761 
Q 2775 2494 2472 2347 
Q 2825 2197 3034 1903 
Q 3244 1609 3244 1231 
z
M 2559 3356 
Q 2559 3697 2346 3917 
Q 2134 4138 1793 4138 
Q 1453 4138 1243 3927 
Q 1034 3716 1034 3356 
Q 1034 3003 1243 2790 
Q 1453 2578 1797 2578 
Q 2138 2578 2348 2790 
Q 2559 3003 2559 3356 
z
M 2663 1244 
Q 2663 1625 2420 1865 
Q 2178 2106 1791 2106 
Q 1394 2106 1161 1865 
Q 928 1625 928 1244 
Q 928 850 1161 631 
Q 1394 413 1797 413 
Q 2200 413 2431 631 
Q 2663 850 2663 1244 
z
" transform="scale(0.015625)"/>
       </defs>
       <use xlink:href="#Roboto-Regular-38"/>
      </g>
     </g>
    </g>
    <g id="text_7">
     <!-- CRO66 OH - ASN146 O Distance [Å] -->
     <g style="fill: #191919" transform="translate(151.315563 330.049375) scale(0.12 -0.12)">
      <defs>
       <path id="Roboto-Bold-43" d="M 3044 1516 
L 3981 1516 
Q 3934 822 3461 379 
Q 2988 -63 2150 -63 
Q 1275 -63 772 526 
Q 269 1116 269 2125 
L 269 2422 
Q 269 3431 784 4023 
Q 1300 4616 2159 4616 
Q 3013 4616 3466 4161 
Q 3919 3706 3984 3006 
L 3047 3006 
Q 3016 3413 2820 3630 
Q 2625 3847 2159 3847 
Q 1247 3847 1222 2500 
L 1222 2125 
Q 1222 1419 1436 1062 
Q 1650 706 2150 706 
Q 2594 706 2801 907 
Q 3009 1109 3044 1516 
z
" transform="scale(0.015625)"/>
       <path id="Roboto-Bold-52" d="M 2944 0 
L 2094 1669 
L 1347 1669 
L 1347 0 
L 406 0 
L 406 4550 
L 2100 4550 
Q 2884 4550 3332 4198 
Q 3781 3847 3781 3175 
Q 3781 2681 3562 2378 
Q 3344 2075 2969 1906 
L 3953 44 
L 3953 0 
L 2944 0 
z
M 1347 3791 
L 1347 2425 
L 2100 2425 
Q 2469 2425 2655 2611 
Q 2841 2797 2841 3103 
Q 2841 3419 2659 3605 
Q 2478 3791 2100 3791 
L 1347 3791 
z
" transform="scale(0.015625)"/>
       <path id="Roboto-Bold-4f" d="M 4147 2172 
Q 4147 1131 3608 534 
Q 3069 -63 2212 -63 
Q 1356 -63 812 534 
Q 269 1131 269 2172 
L 269 2375 
Q 269 3416 809 4014 
Q 1350 4613 2206 4613 
Q 3063 4613 3605 4014 
Q 4147 3416 4147 2375 
L 4147 2172 
z
M 3197 2381 
Q 3197 3094 2937 3466 
Q 2678 3838 2206 3838 
Q 1734 3838 1478 3470 
Q 1222 3103 1219 2397 
L 1219 2172 
Q 1219 1463 1478 1086 
Q 1738 709 2213 709 
Q 2684 709 2939 1081 
Q 3194 1453 3197 2156 
L 3197 2381 
z
" transform="scale(0.015625)"/>
       <path id="Roboto-Bold-36" d="M 3450 1500 
Q 3450 838 3033 387 
Q 2616 -63 1916 -63 
Q 1188 -63 752 443 
Q 316 950 316 1750 
L 316 2097 
Q 316 3200 925 3898 
Q 1534 4597 2634 4597 
L 2763 4597 
L 2763 3853 
L 2672 3853 
Q 2050 3844 1688 3538 
Q 1313 3219 1238 2675 
Q 1603 3047 2156 3047 
Q 2800 3047 3125 2589 
Q 3450 2131 3450 1500 
z
M 1219 1631 
Q 1219 1150 1408 909 
Q 1597 669 1900 669 
Q 2194 669 2370 901 
Q 2547 1134 2547 1491 
Q 2547 1853 2370 2087 
Q 2194 2322 1881 2322 
Q 1641 2322 1469 2198 
Q 1297 2075 1219 1903 
L 1219 1631 
z
" transform="scale(0.015625)"/>
       <path id="Roboto-Bold-20" transform="scale(0.015625)"/>
       <path id="Roboto-Bold-48" d="M 3175 0 
L 3175 1950 
L 1347 1950 
L 1347 0 
L 406 0 
L 406 4550 
L 1347 4550 
L 1347 2706 
L 3175 2706 
L 3175 4550 
L 4113 4550 
L 4113 0 
L 3175 0 
z
" transform="scale(0.015625)"/>
       <path id="Roboto-Bold-2d" d="M 2103 2316 
L 2103 1584 
L 347 1584 
L 347 2316 
L 2103 2316 
z
" transform="scale(0.015625)"/>
       <path id="Roboto-Bold-41" d="M 25 0 
L 1719 4550 
L 2588 4550 
L 4291 0 
L 3291 0 
L 2978 938 
L 1331 938 
L 1019 0 
L 25 0 
z
M 1584 1697 
L 2725 1697 
L 2156 3406 
L 1584 1697 
z
" transform="scale(0.015625)"/>
       <path id="Roboto-Bold-53" d="M 2769 1194 
Q 2769 1422 2612 1573 
Q 2456 1725 1854 1920 
Q 1253 2116 816 2425 
Q 356 2747 356 3341 
Q 356 3913 828 4263 
Q 1300 4613 2038 4613 
Q 2794 4613 3250 4217 
Q 3706 3822 3706 3209 
L 2769 3209 
Q 2769 3497 2584 3681 
Q 2400 3866 2022 3866 
Q 1653 3866 1473 3711 
Q 1294 3556 1294 3338 
Q 1294 3113 1525 2963 
Q 1756 2813 2197 2678 
Q 2944 2450 3326 2106 
Q 3709 1763 3709 1200 
Q 3709 603 3259 270 
Q 2809 -63 2059 -63 
Q 1606 -63 1184 96 
Q 763 256 491 587 
Q 219 919 219 1434 
L 1159 1434 
Q 1159 1019 1407 850 
Q 1656 681 2059 681 
Q 2422 681 2595 828 
Q 2769 975 2769 1194 
z
" transform="scale(0.015625)"/>
       <path id="Roboto-Bold-4e" d="M 4109 4550 
L 4109 0 
L 3172 0 
L 1347 2997 
L 1347 0 
L 406 0 
L 406 4550 
L 1347 4550 
L 3172 1550 
L 3172 4550 
L 4109 4550 
z
" transform="scale(0.015625)"/>
       <path id="Roboto-Bold-31" d="M 2503 4556 
L 2503 0 
L 1600 0 
L 1600 3484 
L 525 3150 
L 525 3881 
L 2406 4556 
L 2503 4556 
z
" transform="scale(0.015625)"/>
       <path id="Roboto-Bold-34" d="M 175 1553 
L 2072 4550 
L 2984 4550 
L 2984 1713 
L 3500 1713 
L 3500 984 
L 2984 984 
L 2984 0 
L 2081 0 
L 2081 984 
L 216 984 
L 175 1553 
z
M 1072 1713 
L 2081 1713 
L 2081 3328 
L 2019 3219 
L 1072 1713 
z
" transform="scale(0.015625)"/>
       <path id="Roboto-Bold-44" d="M 406 0 
L 406 4550 
L 1809 4550 
Q 2728 4550 3308 3950 
Q 3888 3350 3888 2375 
L 3888 2172 
Q 3888 1197 3308 598 
Q 2728 0 1797 0 
L 406 0 
z
M 1347 3791 
L 1347 756 
L 1797 756 
Q 2350 756 2639 1115 
Q 2928 1475 2934 2144 
L 2934 2381 
Q 2934 3075 2661 3428 
Q 2388 3781 1838 3791 
L 1347 3791 
z
" transform="scale(0.015625)"/>
       <path id="Roboto-Bold-69" d="M 341 4256 
Q 341 4459 478 4592 
Q 616 4725 847 4725 
Q 1078 4725 1215 4592 
Q 1353 4459 1353 4256 
Q 1353 4056 1215 3923 
Q 1078 3791 847 3791 
Q 616 3791 478 3923 
Q 341 4056 341 4256 
z
M 1303 3381 
L 1303 0 
L 397 0 
L 397 3381 
L 1303 3381 
z
" transform="scale(0.015625)"/>
       <path id="Roboto-Bold-73" d="M 2178 938 
Q 2178 1081 2045 1179 
Q 1913 1278 1475 1372 
Q 953 1484 618 1721 
Q 284 1959 284 2394 
Q 284 2816 642 3130 
Q 1000 3444 1631 3444 
Q 2291 3444 2669 3134 
Q 3047 2825 3047 2353 
L 2144 2353 
Q 2144 2547 2019 2675 
Q 1894 2803 1628 2803 
Q 1403 2803 1276 2698 
Q 1150 2594 1150 2438 
Q 1150 2294 1284 2200 
Q 1419 2106 1781 2034 
Q 2331 1925 2693 1700 
Q 3056 1475 3056 972 
Q 3056 525 2672 231 
Q 2288 -63 1634 -63 
Q 925 -63 550 301 
Q 175 666 175 1078 
L 1034 1078 
Q 1047 813 1230 697 
Q 1413 581 1653 581 
Q 2178 581 2178 938 
z
" transform="scale(0.015625)"/>
       <path id="Roboto-Bold-74" d="M 2041 22 
Q 1788 -63 1497 -63 
Q 1053 -63 790 168 
Q 528 400 528 938 
L 528 2722 
L 31 2722 
L 31 3381 
L 528 3381 
L 528 4216 
L 1431 4216 
L 1431 3381 
L 2006 3381 
L 2006 2722 
L 1431 2722 
L 1431 1031 
Q 1431 819 1518 750 
Q 1606 681 1778 681 
Q 1916 681 2041 706 
L 2041 22 
z
" transform="scale(0.015625)"/>
       <path id="Roboto-Bold-61" d="M 2306 0 
Q 2250 119 2216 303 
Q 1888 -63 1363 -63 
Q 878 -63 547 223 
Q 216 509 216 950 
Q 216 1481 609 1773 
Q 1003 2066 1775 2066 
L 2178 2066 
L 2178 2263 
Q 2178 2497 2058 2636 
Q 1938 2775 1678 2775 
Q 1194 2775 1194 2369 
L 291 2369 
Q 291 2809 681 3126 
Q 1072 3444 1728 3444 
Q 2313 3444 2698 3147 
Q 3084 2850 3084 2256 
L 3084 750 
Q 3091 300 3219 53 
L 3219 0 
L 2306 0 
z
M 1559 628 
Q 1788 628 1948 729 
Q 2109 831 2178 953 
L 2178 1541 
L 1809 1541 
Q 1450 1541 1284 1389 
Q 1119 1238 1119 1016 
Q 1119 847 1236 737 
Q 1353 628 1559 628 
z
" transform="scale(0.015625)"/>
       <path id="Roboto-Bold-6e" d="M 1806 2713 
Q 1422 2713 1234 2388 
L 1234 0 
L 331 0 
L 331 3381 
L 1178 3381 
L 1209 2994 
Q 1572 3444 2181 3444 
Q 2659 3444 2953 3159 
Q 3247 2875 3250 2169 
L 3250 0 
L 2344 0 
L 2344 2156 
Q 2344 2481 2205 2597 
Q 2066 2713 1806 2713 
z
" transform="scale(0.015625)"/>
       <path id="Roboto-Bold-63" d="M 1753 666 
Q 2000 666 2159 802 
Q 2319 938 2322 1169 
L 3172 1169 
Q 3166 631 2761 284 
Q 2356 -63 1769 -63 
Q 984 -63 595 432 
Q 206 928 206 1647 
L 206 1734 
Q 206 2450 593 2947 
Q 981 3444 1766 3444 
Q 2388 3444 2777 3087 
Q 3166 2731 3172 2122 
L 2322 2122 
Q 2319 2369 2172 2542 
Q 2025 2716 1750 2716 
Q 1356 2716 1234 2420 
Q 1113 2125 1113 1647 
Q 1113 1256 1233 961 
Q 1353 666 1753 666 
z
" transform="scale(0.015625)"/>
       <path id="Roboto-Bold-65" d="M 3225 550 
Q 3063 319 2731 128 
Q 2400 -63 1906 -63 
Q 1119 -63 675 414 
Q 231 891 228 1566 
L 228 1697 
Q 228 2463 654 2953 
Q 1081 3444 1806 3444 
Q 2534 3444 2915 2987 
Q 3297 2531 3297 1781 
L 3297 1397 
L 1144 1397 
Q 1191 1069 1403 867 
Q 1616 666 1963 666 
Q 2478 666 2778 1044 
L 3225 550 
z
M 1800 2716 
Q 1513 2716 1356 2522 
Q 1200 2328 1153 2016 
L 2409 2016 
L 2409 2084 
Q 2403 2356 2258 2536 
Q 2113 2716 1800 2716 
z
" transform="scale(0.015625)"/>
       <path id="Roboto-Bold-5b" d="M 1728 5297 
L 1728 4600 
L 1281 4600 
L 1281 -366 
L 1728 -366 
L 1728 -1059 
L 375 -1059 
L 375 5297 
L 1728 5297 
z
" transform="scale(0.015625)"/>
       <path id="Roboto-Bold-c5" d="M 25 0 
L 1719 4550 
L 2588 4550 
L 4291 0 
L 3291 0 
L 2978 938 
L 1331 938 
L 1019 0 
L 25 0 
z
M 1584 1697 
L 2725 1697 
L 2156 3406 
L 1584 1697 
z
M 1471 5424 
Q 1471 5683 1668 5873 
Q 1865 6064 2168 6064 
Q 2468 6064 2666 5873 
Q 2865 5683 2865 5424 
Q 2865 5158 2666 4975 
Q 2468 4793 2168 4793 
Q 1865 4793 1668 4975 
Q 1471 5158 1471 5424 
z
M 1830 5423 
Q 1830 5286 1922 5187 
Q 2015 5089 2168 5089 
Q 2321 5089 2413 5187 
Q 2505 5286 2505 5423 
Q 2505 5561 2413 5662 
Q 2321 5764 2168 5764 
Q 2015 5764 1922 5662 
Q 1830 5561 1830 5423 
z
" transform="scale(0.015625)"/>
       <path id="Roboto-Bold-5d" d="M 41 4600 
L 41 5297 
L 1394 5297 
L 1394 -1059 
L 41 -1059 
L 41 -366 
L 491 -366 
L 491 4600 
L 41 4600 
z
" transform="scale(0.015625)"/>
      </defs>
      <use xlink:href="#Roboto-Bold-43"/>
      <use xlink:href="#Roboto-Bold-52" x="65.478516"/>
      <use xlink:href="#Roboto-Bold-4f" x="129.296875"/>
      <use xlink:href="#Roboto-Bold-36" x="198.339844"/>
      <use xlink:href="#Roboto-Bold-36" x="255.712891"/>
      <use xlink:href="#Roboto-Bold-20" x="313.085938"/>
      <use xlink:href="#Roboto-Bold-4f" x="337.988281"/>
      <use xlink:href="#Roboto-Bold-48" x="407.03125"/>
      <use xlink:href="#Roboto-Bold-20" x="477.734375"/>
      <use xlink:href="#Roboto-Bold-2d" x="502.636719"/>
      <use xlink:href="#Roboto-Bold-20" x="541.455078"/>
      <use xlink:href="#Roboto-Bold-41" x="566.357422"/>
      <use xlink:href="#Roboto-Bold-53" x="633.691406"/>
      <use xlink:href="#Roboto-Bold-4e" x="695.166016"/>
      <use xlink:href="#Roboto-Bold-31" x="765.820312"/>
      <use xlink:href="#Roboto-Bold-34" x="823.193359"/>
      <use xlink:href="#Roboto-Bold-36" x="880.566406"/>
      <use xlink:href="#Roboto-Bold-20" x="937.939453"/>
      <use xlink:href="#Roboto-Bold-4f" x="962.841797"/>
      <use xlink:href="#Roboto-Bold-20" x="1031.884766"/>
      <use xlink:href="#Roboto-Bold-44" x="1056.787109"/>
      <use xlink:href="#Roboto-Bold-69" x="1121.826172"/>
      <use xlink:href="#Roboto-Bold-73" x="1148.339844"/>
      <use xlink:href="#Roboto-Bold-74" x="1199.804688"/>
      <use xlink:href="#Roboto-Bold-61" x="1233.59375"/>
      <use xlink:href="#Roboto-Bold-6e" x="1287.207031"/>
      <use xlink:href="#Roboto-Bold-63" x="1343.212891"/>
      <use xlink:href="#Roboto-Bold-65" x="1395.410156"/>
      <use xlink:href="#Roboto-Bold-20" x="1449.462891"/>
      <use xlink:href="#Roboto-Bold-5b" x="1474.365234"/>
      <use xlink:href="#Roboto-Bold-c5" x="1502.197266"/>
      <use xlink:href="#Roboto-Bold-5d" x="1569.53125"/>
     </g>
    </g>
   </g>
   <g id="matplotlib.axis_2">
    <g id="ytick_1">
     <g id="line2d_9">
      <defs>
       <path id="m6c6d592503" d="M 0 0 
L -3.5 0 
" style="stroke: #c2c1c1; stroke-width: 0.8"/>
      </defs>
      <g>
       <use xlink:href="#m6c6d592503" x="49.286" y="298.6" style="fill: #c2c1c1; stroke: #c2c1c1; stroke-width: 0.8"/>
      </g>
     </g>
     <g id="text_8">
      <!-- 0.0 -->
      <g style="fill: #191919" transform="translate(28.407875 302.35) scale(0.1 -0.1)">
       <defs>
        <path id="Roboto-Regular-30" d="M 3234 1944 
Q 3234 825 2848 381 
Q 2463 -63 1800 -63 
Q 1156 -63 764 368 
Q 372 800 359 1872 
L 359 2638 
Q 359 3753 750 4183 
Q 1141 4613 1794 4613 
Q 2447 4613 2834 4195 
Q 3222 3778 3234 2709 
L 3234 1944 
z
M 2653 2734 
Q 2653 3503 2434 3822 
Q 2216 4141 1794 4141 
Q 1388 4141 1167 3831 
Q 947 3522 941 2778 
L 941 1850 
Q 941 1088 1164 750 
Q 1388 413 1800 413 
Q 2222 413 2436 745 
Q 2650 1078 2653 1825 
L 2653 2734 
z
" transform="scale(0.015625)"/>
        <path id="Roboto-Regular-2e" d="M 450 306 
Q 450 453 542 554 
Q 634 656 809 656 
Q 984 656 1076 554 
Q 1169 453 1169 306 
Q 1169 163 1076 62 
Q 984 -38 809 -38 
Q 634 -38 542 62 
Q 450 163 450 306 
z
" transform="scale(0.015625)"/>
       </defs>
       <use xlink:href="#Roboto-Regular-30"/>
       <use xlink:href="#Roboto-Regular-2e" x="56.201172"/>
       <use xlink:href="#Roboto-Regular-30" x="82.568359"/>
      </g>
     </g>
    </g>
    <g id="ytick_2">
     <g id="line2d_10">
      <g>
       <use xlink:href="#m6c6d592503" x="49.286" y="261.856262" style="fill: #c2c1c1; stroke: #c2c1c1; stroke-width: 0.8"/>
      </g>
     </g>
     <g id="text_9">
      <!-- 0.1 -->
      <g style="fill: #191919" transform="translate(28.407875 265.606262) scale(0.1 -0.1)">
       <defs>
        <path id="Roboto-Regular-31" d="M 2278 4575 
L 2278 0 
L 1700 0 
L 1700 3853 
L 534 3428 
L 534 3950 
L 2188 4575 
L 2278 4575 
z
" transform="scale(0.015625)"/>
       </defs>
       <use xlink:href="#Roboto-Regular-30"/>
       <use xlink:href="#Roboto-Regular-2e" x="56.201172"/>
       <use xlink:href="#Roboto-Regular-31" x="82.568359"/>
      </g>
     </g>
    </g>
    <g id="ytick_3">
     <g id="line2d_11">
      <g>
       <use xlink:href="#m6c6d592503" x="49.286" y="225.112524" style="fill: #c2c1c1; stroke: #c2c1c1; stroke-width: 0.8"/>
      </g>
     </g>
     <g id="text_10">
      <!-- 0.2 -->
      <g style="fill: #191919" transform="translate(28.407875 228.862524) scale(0.1 -0.1)">
       <defs>
        <path id="Roboto-Regular-32" d="M 3359 475 
L 3359 0 
L 381 0 
L 381 416 
L 1925 2134 
Q 2306 2566 2439 2819 
Q 2572 3072 2572 3328 
Q 2572 3663 2364 3900 
Q 2156 4138 1778 4138 
Q 1322 4138 1097 3878 
Q 872 3619 872 3213 
L 294 3213 
Q 294 3788 672 4200 
Q 1050 4613 1778 4613 
Q 2422 4613 2786 4278 
Q 3150 3944 3150 3397 
Q 3150 2997 2903 2592 
Q 2656 2188 2297 1797 
L 1078 475 
L 3359 475 
z
" transform="scale(0.015625)"/>
       </defs>
       <use xlink:href="#Roboto-Regular-30"/>
       <use xlink:href="#Roboto-Regular-2e" x="56.201172"/>
       <use xlink:href="#Roboto-Regular-32" x="82.568359"/>
      </g>
     </g>
    </g>
    <g id="ytick_4">
     <g id="line2d_12">
      <g>
       <use xlink:href="#m6c6d592503" x="49.286" y="188.368786" style="fill: #c2c1c1; stroke: #c2c1c1; stroke-width: 0.8"/>
      </g>
     </g>
     <g id="text_11">
      <!-- 0.3 -->
      <g style="fill: #191919" transform="translate(28.407875 192.118786) scale(0.1 -0.1)">
       <use xlink:href="#Roboto-Regular-30"/>
       <use xlink:href="#Roboto-Regular-2e" x="56.201172"/>
       <use xlink:href="#Roboto-Regular-33" x="82.568359"/>
      </g>
     </g>
    </g>
    <g id="ytick_5">
     <g id="line2d_13">
      <g>
       <use xlink:href="#m6c6d592503" x="49.286" y="151.625047" style="fill: #c2c1c1; stroke: #c2c1c1; stroke-width: 0.8"/>
      </g>
     </g>
     <g id="text_12">
      <!-- 0.4 -->
      <g style="fill: #191919" transform="translate(28.407875 155.375047) scale(0.1 -0.1)">
       <use xlink:href="#Roboto-Regular-30"/>
       <use xlink:href="#Roboto-Regular-2e" x="56.201172"/>
       <use xlink:href="#Roboto-Regular-34" x="82.568359"/>
      </g>
     </g>
    </g>
    <g id="ytick_6">
     <g id="line2d_14">
      <g>
       <use xlink:href="#m6c6d592503" x="49.286" y="114.881309" style="fill: #c2c1c1; stroke: #c2c1c1; stroke-width: 0.8"/>
      </g>
     </g>
     <g id="text_13">
      <!-- 0.5 -->
      <g style="fill: #191919" transform="translate(28.407875 118.631309) scale(0.1 -0.1)">
       <use xlink:href="#Roboto-Regular-30"/>
       <use xlink:href="#Roboto-Regular-2e" x="56.201172"/>
       <use xlink:href="#Roboto-Regular-35" x="82.568359"/>
      </g>
     </g>
    </g>
    <g id="ytick_7">
     <g id="line2d_15">
      <g>
       <use xlink:href="#m6c6d592503" x="49.286" y="78.137571" style="fill: #c2c1c1; stroke: #c2c1c1; stroke-width: 0.8"/>
      </g>
     </g>
     <g id="text_14">
      <!-- 0.6 -->
      <g style="fill: #191919" transform="translate(28.407875 81.887571) scale(0.1 -0.1)">
       <use xlink:href="#Roboto-Regular-30"/>
       <use xlink:href="#Roboto-Regular-2e" x="56.201172"/>
       <use xlink:href="#Roboto-Regular-36" x="82.568359"/>
      </g>
     </g>
    </g>
    <g id="ytick_8">
     <g id="line2d_16">
      <g>
       <use xlink:href="#m6c6d592503" x="49.286" y="41.393833" style="fill: #c2c1c1; stroke: #c2c1c1; stroke-width: 0.8"/>
      </g>
     </g>
     <g id="text_15">
      <!-- 0.7 -->
      <g style="fill: #191919" transform="translate(28.407875 45.143833) scale(0.1 -0.1)">
       <use xlink:href="#Roboto-Regular-30"/>
       <use xlink:href="#Roboto-Regular-2e" x="56.201172"/>
       <use xlink:href="#Roboto-Regular-37" x="82.568359"/>
      </g>
     </g>
    </g>
    <g id="text_16">
     <!-- Density -->
     <g style="fill: #191919" transform="translate(21.846625 176.0075) rotate(-90) scale(0.12 -0.12)">
      <defs>
       <path id="Roboto-Bold-79" d="M 769 -1366 
Q 594 -1366 369 -1306 
L 369 -622 
L 509 -625 
Q 775 -625 903 -539 
Q 1031 -453 1097 -266 
L 1197 -6 
L 13 3381 
L 984 3381 
L 1613 1275 
L 2238 3381 
L 3203 3381 
L 1850 -506 
Q 1791 -675 1675 -876 
Q 1559 -1078 1342 -1222 
Q 1125 -1366 769 -1366 
z
" transform="scale(0.015625)"/>
      </defs>
      <use xlink:href="#Roboto-Bold-44"/>
      <use xlink:href="#Roboto-Bold-65" x="65.039062"/>
      <use xlink:href="#Roboto-Bold-6e" x="119.091797"/>
      <use xlink:href="#Roboto-Bold-73" x="175.097656"/>
      <use xlink:href="#Roboto-Bold-69" x="226.5625"/>
      <use xlink:href="#Roboto-Bold-74" x="253.076172"/>
      <use xlink:href="#Roboto-Bold-79" x="286.865234"/>
     </g>
    </g>
   </g>
   <g id="line2d_17">
    <path d="M -1 298.6 
L 3.041524 298.6 
L 11.045375 298.6 
L 19.049227 298.6 
L 27.053079 298.6 
L 35.05693 298.6 
L 43.060782 298.6 
L 51.064634 298.6 
L 59.068485 298.6 
L 67.072337 298.6 
L 75.076189 298.6 
L 83.08004 298.6 
L 91.083892 298.599002 
L 99.087744 298.586031 
L 107.091596 298.292909 
L 115.095447 297.76022 
L 123.099299 295.688578 
L 131.103151 290.309225 
L 139.107002 277.73782 
L 147.110854 254.91484 
L 155.114706 223.66076 
L 163.118557 168.219938 
L 171.122409 124.533378 
L 179.126261 74.031476 
L 187.130112 41.6311 
L 195.133964 28.91366 
L 203.137816 30.958439 
L 211.141667 44.252766 
L 219.145519 57.93445 
L 227.149371 66.355809 
L 235.153222 49.693424 
L 243.157074 51.546667 
L 251.160926 64.9683 
L 259.164778 85.098934 
L 267.168629 135.532645 
L 275.172481 172.295345 
L 283.176333 217.875928 
L 291.180184 248.447905 
L 299.184036 273.498426 
L 307.187888 282.128271 
L 315.191739 290.545869 
L 323.195591 293.703843 
L 331.199443 296.730913 
L 339.203294 297.483032 
L 347.207146 298.199733 
L 355.210998 298.599476 
L 363.214849 298.492791 
L 371.218701 298.6 
L 379.222553 298.6 
L 387.226404 298.6 
L 395.230256 298.6 
L 403.234108 298.6 
L 411.23796 298.6 
L 419.241811 298.6 
L 427.245663 298.6 
L 435.249515 298.6 
L 443.253366 298.6 
L 451.257218 298.6 
L 459.26107 298.6 
L 461.8 298.6 
" clip-path="url(#pac0dc7c7eb)" style="fill: none; stroke: #f99752; stroke-width: 2.5; stroke-linecap: square"/>
   </g>
   <g id="patch_3">
    <path d="M 49.286 298.6 
L 49.286 12.96 
" style="fill: none; stroke: #c2c1c1; stroke-width: 0.8; stroke-linejoin: miter; stroke-linecap: square"/>
   </g>
   <g id="patch_4">
    <path d="M 445.032 298.6 
L 445.032 12.96 
" style="fill: none; stroke: #c2c1c1; stroke-width: 0.8; stroke-linejoin: miter; stroke-linecap: square"/>
   </g>
   <g id="patch_5">
    <path d="M 49.286 298.6 
L 445.032 298.6 
" style="fill: none; stroke: #c2c1c1; stroke-width: 0.8; stroke-linejoin: miter; stroke-linecap: square"/>
   </g>
   <g id="patch_6">
    <path d="M 49.286 12.96 
L 445.032 12.96 
" style="fill: none; stroke: #c2c1c1; stroke-width: 0.8; stroke-linejoin: miter; stroke-linecap: square"/>
   </g>
   <g id="legend_1">
    <g id="line2d_18">
     <path d="M 354.0795 28.56 
L 366.0795 28.56 
L 378.0795 28.56 
" style="fill: none; stroke: #1e2e79; stroke-width: 2.5; stroke-linecap: square"/>
    </g>
    <g id="text_17">
     <!-- Reduced -->
     <g transform="translate(387.6795 32.76) scale(0.12 -0.12)">
      <defs>
       <path id="Roboto-Regular-52" d="M 3188 0 
L 2200 1844 
L 1131 1844 
L 1131 0 
L 528 0 
L 528 4550 
L 2034 4550 
Q 2800 4550 3214 4200 
Q 3628 3850 3628 3184 
Q 3628 2759 3398 2442 
Q 3169 2125 2763 1969 
L 3831 38 
L 3831 0 
L 3188 0 
z
M 1131 4056 
L 1131 2334 
L 2053 2334 
Q 2538 2334 2783 2582 
Q 3028 2831 3028 3184 
Q 3028 3578 2792 3817 
Q 2556 4056 2034 4056 
L 1131 4056 
z
" transform="scale(0.015625)"/>
       <path id="Roboto-Regular-65" d="M 3116 591 
Q 2950 341 2647 139 
Q 2344 -63 1844 -63 
Q 1138 -63 714 396 
Q 291 856 291 1572 
L 291 1703 
Q 291 2256 502 2645 
Q 713 3034 1050 3239 
Q 1388 3444 1769 3444 
Q 2494 3444 2826 2970 
Q 3159 2497 3159 1788 
L 3159 1528 
L 872 1528 
Q 884 1063 1148 736 
Q 1413 409 1875 409 
Q 2181 409 2393 534 
Q 2606 659 2766 869 
L 3116 591 
z
M 1769 2969 
Q 1425 2969 1187 2719 
Q 950 2469 891 2000 
L 2581 2000 
L 2581 2044 
Q 2559 2381 2386 2675 
Q 2213 2969 1769 2969 
z
" transform="scale(0.015625)"/>
       <path id="Roboto-Regular-64" d="M 2622 0 
L 2594 363 
Q 2247 -63 1628 -63 
Q 1034 -63 668 418 
Q 303 900 297 1628 
L 297 1719 
Q 297 2494 664 2969 
Q 1031 3444 1634 3444 
Q 2231 3444 2572 3044 
L 2572 4800 
L 3153 4800 
L 3153 0 
L 2622 0 
z
M 878 1653 
Q 878 1150 1090 789 
Q 1303 428 1772 428 
Q 2309 428 2572 919 
L 2572 2475 
Q 2313 2956 1778 2956 
Q 1306 2956 1092 2589 
Q 878 2222 878 1719 
L 878 1653 
z
" transform="scale(0.015625)"/>
       <path id="Roboto-Regular-75" d="M 2538 0 
L 2525 334 
Q 2194 -63 1538 -63 
Q 1041 -63 734 231 
Q 428 525 428 1200 
L 428 3381 
L 1006 3381 
L 1006 1194 
Q 1006 738 1198 583 
Q 1391 428 1628 428 
Q 2281 428 2509 919 
L 2509 3381 
L 3091 3381 
L 3091 0 
L 2538 0 
z
" transform="scale(0.015625)"/>
       <path id="Roboto-Regular-63" d="M 1794 413 
Q 2103 413 2336 597 
Q 2569 781 2591 1069 
L 3141 1069 
Q 3119 616 2725 276 
Q 2331 -63 1794 -63 
Q 1031 -63 661 440 
Q 291 944 291 1625 
L 291 1756 
Q 291 2438 661 2941 
Q 1031 3444 1794 3444 
Q 2388 3444 2753 3092 
Q 3119 2741 3141 2219 
L 2591 2219 
Q 2569 2531 2355 2750 
Q 2141 2969 1794 2969 
Q 1438 2969 1236 2787 
Q 1034 2606 951 2328 
Q 869 2050 869 1756 
L 869 1625 
Q 869 1328 950 1050 
Q 1031 772 1232 592 
Q 1434 413 1794 413 
z
" transform="scale(0.015625)"/>
      </defs>
      <use xlink:href="#Roboto-Regular-52"/>
      <use xlink:href="#Roboto-Regular-65" x="61.621094"/>
      <use xlink:href="#Roboto-Regular-64" x="114.648438"/>
      <use xlink:href="#Roboto-Regular-75" x="171.044922"/>
      <use xlink:href="#Roboto-Regular-63" x="226.171875"/>
      <use xlink:href="#Roboto-Regular-65" x="278.515625"/>
      <use xlink:href="#Roboto-Regular-64" x="331.542969"/>
     </g>
    </g>
    <g id="line2d_19">
     <path d="M 354.0795 45.9975 
L 366.0795 45.9975 
L 378.0795 45.9975 
" style="fill: none; stroke: #ec4067; stroke-width: 2.5; stroke-linecap: square"/>
    </g>
    <g id="text_18">
     <!-- Oxidized -->
     <g transform="translate(387.6795 50.1975) scale(0.12 -0.12)">
      <defs>
       <path id="Roboto-Regular-4f" d="M 4031 2131 
Q 4031 1106 3534 521 
Q 3038 -63 2206 -63 
Q 1397 -63 884 521 
Q 372 1106 372 2131 
L 372 2419 
Q 372 3441 881 4027 
Q 1391 4613 2200 4613 
Q 3025 4613 3523 4036 
Q 4022 3459 4031 2456 
L 4031 2131 
z
M 3434 2425 
Q 3434 3238 3109 3669 
Q 2784 4100 2200 4100 
Q 1641 4100 1305 3669 
Q 969 3238 969 2425 
L 969 2131 
Q 969 1313 1308 880 
Q 1647 447 2206 447 
Q 2794 447 3114 880 
Q 3434 1313 3434 2131 
L 3434 2425 
z
" transform="scale(0.015625)"/>
       <path id="Roboto-Regular-78" d="M 831 3381 
L 1572 2150 
L 2322 3381 
L 3000 3381 
L 1894 1713 
L 3034 0 
L 2366 0 
L 1584 1269 
L 803 0 
L 131 0 
L 1269 1713 
L 166 3381 
L 831 3381 
z
" transform="scale(0.015625)"/>
       <path id="Roboto-Regular-69" d="M 444 4278 
Q 444 4419 530 4516 
Q 616 4613 784 4613 
Q 950 4613 1039 4516 
Q 1128 4419 1128 4278 
Q 1128 4144 1039 4048 
Q 950 3953 784 3953 
Q 616 3953 530 4048 
Q 444 4144 444 4278 
z
M 1069 3381 
L 1069 0 
L 488 0 
L 488 3381 
L 1069 3381 
z
" transform="scale(0.015625)"/>
       <path id="Roboto-Regular-7a" d="M 303 2903 
L 303 3381 
L 2869 3381 
L 2869 2972 
L 988 475 
L 2959 475 
L 2959 0 
L 278 0 
L 278 425 
L 2141 2903 
L 303 2903 
z
" transform="scale(0.015625)"/>
      </defs>
      <use xlink:href="#Roboto-Regular-4f"/>
      <use xlink:href="#Roboto-Regular-78" x="68.798828"/>
      <use xlink:href="#Roboto-Regular-69" x="118.408203"/>
      <use xlink:href="#Roboto-Regular-64" x="142.724609"/>
      <use xlink:href="#Roboto-Regular-69" x="199.121094"/>
      <use xlink:href="#Roboto-Regular-7a" x="223.4375"/>
      <use xlink:href="#Roboto-Regular-65" x="273.046875"/>
      <use xlink:href="#Roboto-Regular-64" x="326.074219"/>
     </g>
    </g>
    <g id="line2d_20">
     <path d="M 354.0795 64.06125 
L 366.0795 64.06125 
L 378.0795 64.06125 
" style="fill: none; stroke: #f99752; stroke-width: 2.5; stroke-linecap: square"/>
    </g>
    <g id="text_19">
     <!-- Cu(I) -->
     <g transform="translate(387.6795 68.26125) scale(0.12 -0.12)">
      <defs>
       <path id="Roboto-Regular-43" d="M 3275 1447 
L 3875 1447 
Q 3806 800 3387 368 
Q 2969 -63 2150 -63 
Q 1356 -63 870 504 
Q 384 1072 375 2013 
L 375 2500 
Q 375 3456 867 4034 
Q 1359 4613 2203 4613 
Q 2975 4613 3390 4188 
Q 3806 3763 3875 3091 
L 3275 3091 
Q 3206 3566 2968 3842 
Q 2731 4119 2203 4119 
Q 1600 4119 1287 3675 
Q 975 3231 975 2506 
L 975 2047 
Q 975 1375 1259 901 
Q 1544 428 2150 428 
Q 2725 428 2961 697 
Q 3197 966 3275 1447 
z
" transform="scale(0.015625)"/>
       <path id="Roboto-Regular-28" d="M 419 1850 
Q 419 2756 678 3434 
Q 938 4113 1294 4541 
Q 1650 4969 1947 5134 
L 2069 4753 
Q 1700 4475 1348 3761 
Q 997 3047 997 1813 
Q 997 625 1348 -97 
Q 1700 -819 2069 -1119 
L 1947 -1469 
Q 1650 -1306 1294 -878 
Q 938 -450 678 226 
Q 419 903 419 1850 
z
" transform="scale(0.015625)"/>
       <path id="Roboto-Regular-49" d="M 1175 4550 
L 1175 0 
L 572 0 
L 572 4550 
L 1175 4550 
z
" transform="scale(0.015625)"/>
       <path id="Roboto-Regular-29" d="M 1772 1819 
Q 1772 906 1512 228 
Q 1253 -450 895 -878 
Q 538 -1306 244 -1469 
L 122 -1119 
Q 488 -841 841 -109 
Q 1194 622 1194 1856 
Q 1194 2647 1019 3236 
Q 844 3825 594 4212 
Q 344 4600 122 4781 
L 244 5134 
Q 538 4969 895 4541 
Q 1253 4113 1512 3436 
Q 1772 2759 1772 1819 
z
" transform="scale(0.015625)"/>
      </defs>
      <use xlink:href="#Roboto-Regular-43"/>
      <use xlink:href="#Roboto-Regular-75" x="65.087891"/>
      <use xlink:href="#Roboto-Regular-28" x="120.214844"/>
      <use xlink:href="#Roboto-Regular-49" x="154.443359"/>
      <use xlink:href="#Roboto-Regular-29" x="181.640625"/>
     </g>
    </g>
   </g>
  </g>
 </g>
 <defs>
  <clipPath id="pac0dc7c7eb">
   <rect x="49.286" y="12.96" width="395.746" height="285.64"/>
  </clipPath>
 </defs>
</svg>
