<?xml version="1.0" encoding="utf-8" standalone="no"?>
<!DOCTYPE svg PUBLIC "-//W3C//DTD SVG 1.1//EN"
  "http://www.w3.org/Graphics/SVG/1.1/DTD/svg11.dtd">
<svg xmlns:xlink="http://www.w3.org/1999/xlink" width="460.8pt" height="345.6pt" viewBox="0 0 460.8 345.6" xmlns="http://www.w3.org/2000/svg" version="1.1">
 <metadata>
  <rdf:RDF xmlns:dc="http://purl.org/dc/elements/1.1/" xmlns:cc="http://creativecommons.org/ns#" xmlns:rdf="http://www.w3.org/1999/02/22-rdf-syntax-ns#">
   <cc:Work>
    <dc:type rdf:resource="http://purl.org/dc/dcmitype/StillImage"/>
    <dc:date>2024-08-08T18:39:23.312964</dc:date>
    <dc:format>image/svg+xml</dc:format>
    <dc:creator>
     <cc:Agent>
      <dc:title>Matplotlib v3.9.1, https://matplotlib.org/</dc:title>
     </cc:Agent>
    </dc:creator>
   </cc:Work>
  </rdf:RDF>
 </metadata>
 <defs>
  <style type="text/css">*{stroke-linejoin: round; stroke-linecap: butt}</style>
 </defs>
 <g id="figure_1">
  <g id="patch_1">
   <path d="M 0 345.6 
L 460.8 345.6 
L 460.8 0 
L 0 0 
z
" style="fill: #ffffff"/>
  </g>
  <g id="axes_1">
   <g id="patch_2">
    <path d="M 47.387 298.672 
L 445.032 298.672 
L 445.032 16.74 
L 47.387 16.74 
z
" style="fill: #ffffff"/>
   </g>
   <g id="line2d_1">
    <path d="M 47.387 242.2856 
L 445.032 242.2856 
" clip-path="url(#p476f303cc8)" style="fill: none; stroke-dasharray: 1.75,2.8875; stroke-dashoffset: 0; stroke: #c0c0c0; stroke-width: 1.75"/>
   </g>
   <g id="line2d_2">
    <path d="M 73.283402 -1 
L 76.109352 91.216164 
L 81.853822 203.134358 
L 87.598292 254.523824 
L 93.342762 268.953273 
L 99.087233 261.190395 
L 104.831703 241.216163 
L 110.576173 213.669352 
L 116.320644 186.80646 
L 122.065114 159.734485 
L 127.809584 128.980131 
L 133.554055 107.373104 
L 139.298525 80.879524 
L 145.042995 66.761289 
L 150.787465 68.822614 
L 156.531936 62.22635 
L 162.276406 42.6087 
L 168.020876 39.414965 
L 173.765347 75.626518 
L 179.509817 98.991128 
L 185.254287 125.615787 
L 190.998758 148.953073 
L 196.743228 165.959757 
L 202.487698 183.487872 
L 208.232169 196.24227 
L 213.976639 210.557332 
L 219.721109 220.905374 
L 225.465579 229.540828 
L 231.21005 235.183962 
L 236.95452 238.889256 
L 242.69899 241.71116 
L 248.443461 242.28432 
L 254.187931 242.476338 
L 259.932401 241.025738 
L 265.676872 239.695197 
L 271.421342 237.878968 
L 277.165812 238.187221 
L 282.910283 236.697724 
L 288.654753 234.581809 
L 294.399223 231.974873 
L 300.143693 228.363924 
L 305.888164 225.415341 
L 311.632634 219.787974 
L 317.377104 215.343445 
L 323.121575 210.442529 
L 328.866045 205.029898 
L 334.610515 199.191692 
L 340.354986 192.140323 
L 346.099456 187.13595 
L 351.843926 182.633397 
L 357.588396 175.533941 
L 363.332867 169.012089 
L 369.077337 158.654773 
L 374.821807 155.258943 
L 380.566278 145.846276 
L 386.310748 138.803202 
L 392.055218 128.59954 
L 397.799689 119.809204 
L 403.544159 110.630679 
L 409.288629 101.356872 
L 415.0331 85.275342 
L 420.77757 81.006929 
L 426.52204 65.627236 
L 432.26651 44.572969 
L 438.010981 33.166224 
L 443.755451 29.782156 
L 449.499921 7.777478 
L 450.678295 -1 
" clip-path="url(#p476f303cc8)" style="fill: none; stroke: #1e2e79; stroke-width: 2.5; stroke-linecap: square"/>
   </g>
   <g id="line2d_3">
    <path d="M 157.24251 -1 
L 162.276406 64.156793 
L 168.020876 100.50576 
L 173.765347 149.599219 
L 179.509817 187.82467 
L 185.254287 214.570816 
L 190.998758 231.651737 
L 196.743228 241.143166 
L 202.487698 248.531674 
L 208.232169 250.794721 
L 213.976639 252.688118 
L 219.721109 253.485652 
L 225.465579 250.500686 
L 231.21005 250.140464 
L 236.95452 248.216113 
L 242.69899 244.772441 
L 248.443461 242.301892 
L 254.187931 239.858098 
L 259.932401 236.311548 
L 265.676872 232.196015 
L 271.421342 226.93632 
L 277.165812 220.918835 
L 282.910283 213.058666 
L 288.654753 206.092786 
L 294.399223 200.005207 
L 300.143693 191.491749 
L 305.888164 183.074934 
L 311.632634 174.753219 
L 317.377104 163.727434 
L 323.121575 159.796596 
L 328.866045 146.439808 
L 334.610515 140.13419 
L 340.354986 129.61044 
L 346.099456 131.133921 
L 351.843926 125.590391 
L 357.588396 115.434353 
L 363.332867 125.240628 
L 369.077337 110.630131 
L 374.821807 99.573483 
L 380.566278 91.289038 
L 386.310748 72.111899 
L 392.055218 60.343287 
L 397.799689 39.052099 
L 403.544159 13.036148 
L 409.288629 4.817753 
L 410.709514 -1 
M 438.010389 -1 
L 438.010981 -0.927847 
L 438.017002 -1 
" clip-path="url(#p476f303cc8)" style="fill: none; stroke: #ec4067; stroke-width: 2.5; stroke-linecap: square"/>
   </g>
   <g id="matplotlib.axis_1">
    <g id="xtick_1">
     <g id="line2d_4">
      <defs>
       <path id="ma0fa09f395" d="M 0 0 
L 0 3.5 
" style="stroke: #c2c1c1; stroke-width: 0.8"/>
      </defs>
      <g>
       <use xlink:href="#ma0fa09f395" x="47.387" y="298.672" style="fill: #c2c1c1; stroke: #c2c1c1; stroke-width: 0.8"/>
      </g>
     </g>
     <g id="text_1">
      <!-- 1 -->
      <g style="fill: #191919" transform="translate(44.579187 313.172) scale(0.1 -0.1)">
       <defs>
        <path id="Roboto-Regular-31" d="M 2278 0 
L 1697 0 
L 1697 3853 
L 531 3425 
L 531 3950 
L 2188 4572 
L 2278 4572 
L 2278 0 
z
" transform="scale(0.015625)"/>
       </defs>
       <use xlink:href="#Roboto-Regular-31"/>
      </g>
     </g>
    </g>
    <g id="xtick_2">
     <g id="line2d_5">
      <g>
       <use xlink:href="#ma0fa09f395" x="104.193429" y="298.672" style="fill: #c2c1c1; stroke: #c2c1c1; stroke-width: 0.8"/>
      </g>
     </g>
     <g id="text_2">
      <!-- 2 -->
      <g style="fill: #191919" transform="translate(101.385616 313.172) scale(0.1 -0.1)">
       <defs>
        <path id="Roboto-Regular-32" d="M 3359 0 
L 378 0 
L 378 416 
L 1953 2166 
Q 2303 2563 2436 2811 
Q 2569 3059 2569 3325 
Q 2569 3681 2353 3909 
Q 2138 4138 1778 4138 
Q 1347 4138 1108 3892 
Q 869 3647 869 3209 
L 291 3209 
Q 291 3838 695 4225 
Q 1100 4613 1778 4613 
Q 2413 4613 2781 4280 
Q 3150 3947 3150 3394 
Q 3150 2722 2294 1794 
L 1075 472 
L 3359 472 
L 3359 0 
z
" transform="scale(0.015625)"/>
       </defs>
       <use xlink:href="#Roboto-Regular-32"/>
      </g>
     </g>
    </g>
    <g id="xtick_3">
     <g id="line2d_6">
      <g>
       <use xlink:href="#ma0fa09f395" x="160.999857" y="298.672" style="fill: #c2c1c1; stroke: #c2c1c1; stroke-width: 0.8"/>
      </g>
     </g>
     <g id="text_3">
      <!-- 3 -->
      <g style="fill: #191919" transform="translate(158.192045 313.172) scale(0.1 -0.1)">
       <defs>
        <path id="Roboto-Regular-33" d="M 1219 2556 
L 1653 2556 
Q 2063 2563 2297 2772 
Q 2531 2981 2531 3338 
Q 2531 4138 1734 4138 
Q 1359 4138 1136 3923 
Q 913 3709 913 3356 
L 334 3356 
Q 334 3897 729 4255 
Q 1125 4613 1734 4613 
Q 2378 4613 2743 4272 
Q 3109 3931 3109 3325 
Q 3109 3028 2917 2750 
Q 2725 2472 2394 2334 
Q 2769 2216 2973 1941 
Q 3178 1666 3178 1269 
Q 3178 656 2778 296 
Q 2378 -63 1737 -63 
Q 1097 -63 695 284 
Q 294 631 294 1200 
L 875 1200 
Q 875 841 1109 625 
Q 1344 409 1738 409 
Q 2156 409 2378 628 
Q 2600 847 2600 1256 
Q 2600 1653 2356 1865 
Q 2113 2078 1653 2084 
L 1219 2084 
L 1219 2556 
z
" transform="scale(0.015625)"/>
       </defs>
       <use xlink:href="#Roboto-Regular-33"/>
      </g>
     </g>
    </g>
    <g id="xtick_4">
     <g id="line2d_7">
      <g>
       <use xlink:href="#ma0fa09f395" x="217.806286" y="298.672" style="fill: #c2c1c1; stroke: #c2c1c1; stroke-width: 0.8"/>
      </g>
     </g>
     <g id="text_4">
      <!-- 4 -->
      <g style="fill: #191919" transform="translate(214.998473 313.172) scale(0.1 -0.1)">
       <defs>
        <path id="Roboto-Regular-34" d="M 2819 1528 
L 3450 1528 
L 3450 1056 
L 2819 1056 
L 2819 0 
L 2238 0 
L 2238 1056 
L 166 1056 
L 166 1397 
L 2203 4550 
L 2819 4550 
L 2819 1528 
z
M 822 1528 
L 2238 1528 
L 2238 3759 
L 2169 3634 
L 822 1528 
z
" transform="scale(0.015625)"/>
       </defs>
       <use xlink:href="#Roboto-Regular-34"/>
      </g>
     </g>
    </g>
    <g id="xtick_5">
     <g id="line2d_8">
      <g>
       <use xlink:href="#ma0fa09f395" x="274.612714" y="298.672" style="fill: #c2c1c1; stroke: #c2c1c1; stroke-width: 0.8"/>
      </g>
     </g>
     <g id="text_5">
      <!-- 5 -->
      <g style="fill: #191919" transform="translate(271.804902 313.172) scale(0.1 -0.1)">
       <defs>
        <path id="Roboto-Regular-35" d="M 644 2281 
L 875 4550 
L 3206 4550 
L 3206 4016 
L 1366 4016 
L 1228 2775 
Q 1563 2972 1988 2972 
Q 2609 2972 2975 2561 
Q 3341 2150 3341 1450 
Q 3341 747 2961 342 
Q 2581 -63 1900 -63 
Q 1297 -63 915 271 
Q 534 606 481 1197 
L 1028 1197 
Q 1081 806 1306 607 
Q 1531 409 1900 409 
Q 2303 409 2533 684 
Q 2763 959 2763 1444 
Q 2763 1900 2514 2176 
Q 2266 2453 1853 2453 
Q 1475 2453 1259 2288 
L 1106 2163 
L 644 2281 
z
" transform="scale(0.015625)"/>
       </defs>
       <use xlink:href="#Roboto-Regular-35"/>
      </g>
     </g>
    </g>
    <g id="xtick_6">
     <g id="line2d_9">
      <g>
       <use xlink:href="#ma0fa09f395" x="331.419143" y="298.672" style="fill: #c2c1c1; stroke: #c2c1c1; stroke-width: 0.8"/>
      </g>
     </g>
     <g id="text_6">
      <!-- 6 -->
      <g style="fill: #191919" transform="translate(328.61133 313.172) scale(0.1 -0.1)">
       <defs>
        <path id="Roboto-Regular-36" d="M 2647 4553 
L 2647 4063 
L 2541 4063 
Q 1866 4050 1466 3662 
Q 1066 3275 1003 2572 
Q 1363 2984 1984 2984 
Q 2578 2984 2933 2565 
Q 3288 2147 3288 1484 
Q 3288 781 2905 359 
Q 2522 -63 1878 -63 
Q 1225 -63 819 439 
Q 413 941 413 1731 
L 413 1953 
Q 413 3209 948 3873 
Q 1484 4538 2544 4553 
L 2647 4553 
z
M 1888 2503 
Q 1591 2503 1341 2325 
Q 1091 2147 994 1878 
L 994 1666 
Q 994 1103 1247 759 
Q 1500 416 1878 416 
Q 2269 416 2492 703 
Q 2716 991 2716 1456 
Q 2716 1925 2489 2214 
Q 2263 2503 1888 2503 
z
" transform="scale(0.015625)"/>
       </defs>
       <use xlink:href="#Roboto-Regular-36"/>
      </g>
     </g>
    </g>
    <g id="xtick_7">
     <g id="line2d_10">
      <g>
       <use xlink:href="#ma0fa09f395" x="388.225571" y="298.672" style="fill: #c2c1c1; stroke: #c2c1c1; stroke-width: 0.8"/>
      </g>
     </g>
     <g id="text_7">
      <!-- 7 -->
      <g style="fill: #191919" transform="translate(385.417759 313.172) scale(0.1 -0.1)">
       <defs>
        <path id="Roboto-Regular-37" d="M 3316 4225 
L 1431 0 
L 825 0 
L 2703 4075 
L 241 4075 
L 241 4550 
L 3316 4550 
L 3316 4225 
z
" transform="scale(0.015625)"/>
       </defs>
       <use xlink:href="#Roboto-Regular-37"/>
      </g>
     </g>
    </g>
    <g id="xtick_8">
     <g id="line2d_11">
      <g>
       <use xlink:href="#ma0fa09f395" x="445.032" y="298.672" style="fill: #c2c1c1; stroke: #c2c1c1; stroke-width: 0.8"/>
      </g>
     </g>
     <g id="text_8">
      <!-- 8 -->
      <g style="fill: #191919" transform="translate(442.224188 313.172) scale(0.1 -0.1)">
       <defs>
        <path id="Roboto-Regular-38" d="M 3138 3363 
Q 3138 3022 2958 2756 
Q 2778 2491 2472 2341 
Q 2828 2188 3036 1894 
Q 3244 1600 3244 1228 
Q 3244 638 2845 287 
Q 2447 -63 1797 -63 
Q 1141 -63 745 289 
Q 350 641 350 1228 
Q 350 1597 551 1894 
Q 753 2191 1109 2344 
Q 806 2494 631 2759 
Q 456 3025 456 3363 
Q 456 3938 825 4275 
Q 1194 4613 1797 4613 
Q 2397 4613 2767 4275 
Q 3138 3938 3138 3363 
z
M 2666 1241 
Q 2666 1622 2423 1862 
Q 2181 2103 1790 2103 
Q 1400 2103 1164 1865 
Q 928 1628 928 1240 
Q 928 853 1158 631 
Q 1388 409 1797 409 
Q 2203 409 2434 632 
Q 2666 856 2666 1241 
z
M 1797 4138 
Q 1456 4138 1245 3927 
Q 1034 3716 1034 3353 
Q 1034 3006 1242 2792 
Q 1450 2578 1797 2578 
Q 2144 2578 2351 2792 
Q 2559 3006 2559 3353 
Q 2559 3700 2343 3919 
Q 2128 4138 1797 4138 
z
" transform="scale(0.015625)"/>
       </defs>
       <use xlink:href="#Roboto-Regular-38"/>
      </g>
     </g>
    </g>
    <g id="text_9">
     <!-- Glu222 HE2 - Ser205 OG Distance [Å] -->
     <g style="fill: #191919" transform="translate(144.920125 330.102625) scale(0.12 -0.12)">
      <defs>
       <path id="Roboto-Black-47" d="M 4069 563 
Q 3816 281 3328 109 
Q 2841 -63 2259 -63 
Q 1366 -63 831 484 
Q 297 1031 259 2006 
L 256 2400 
Q 256 3072 493 3573 
Q 731 4075 1173 4345 
Q 1616 4616 2197 4616 
Q 3047 4616 3517 4227 
Q 3988 3838 4066 3066 
L 3009 3066 
Q 2953 3447 2765 3609 
Q 2578 3772 2234 3772 
Q 1822 3772 1597 3422 
Q 1372 3072 1369 2422 
L 1369 2147 
Q 1369 1466 1601 1123 
Q 1834 781 2334 781 
Q 2763 781 2972 972 
L 2972 1678 
L 2209 1678 
L 2209 2431 
L 4069 2431 
L 4069 563 
z
" transform="scale(0.015625)"/>
       <path id="Roboto-Black-6c" d="M 1406 0 
L 350 0 
L 350 4800 
L 1406 4800 
L 1406 0 
z
" transform="scale(0.015625)"/>
       <path id="Roboto-Black-75" d="M 2309 366 
Q 1975 -63 1406 -63 
Q 850 -63 564 260 
Q 278 584 278 1191 
L 278 3381 
L 1331 3381 
L 1331 1184 
Q 1331 750 1753 750 
Q 2116 750 2269 1009 
L 2269 3381 
L 3328 3381 
L 3328 0 
L 2341 0 
L 2309 366 
z
" transform="scale(0.015625)"/>
       <path id="Roboto-Black-32" d="M 3453 0 
L 278 0 
L 278 688 
L 1741 2225 
Q 2281 2841 2281 3203 
Q 2281 3497 2153 3650 
Q 2025 3803 1781 3803 
Q 1541 3803 1391 3598 
Q 1241 3394 1241 3088 
L 184 3088 
Q 184 3506 393 3861 
Q 603 4216 975 4416 
Q 1347 4616 1806 4616 
Q 2544 4616 2942 4275 
Q 3341 3934 3341 3297 
Q 3341 3028 3241 2773 
Q 3141 2519 2930 2239 
Q 2719 1959 2250 1491 
L 1663 813 
L 3453 813 
L 3453 0 
z
" transform="scale(0.015625)"/>
       <path id="Roboto-Black-20" transform="scale(0.015625)"/>
       <path id="Roboto-Black-48" d="M 4147 0 
L 3056 0 
L 3056 1900 
L 1441 1900 
L 1441 0 
L 344 0 
L 344 4550 
L 1441 4550 
L 1441 2744 
L 3056 2744 
L 3056 4550 
L 4147 4550 
L 4147 0 
z
" transform="scale(0.015625)"/>
       <path id="Roboto-Black-45" d="M 3166 1928 
L 1441 1928 
L 1441 844 
L 3478 844 
L 3478 0 
L 344 0 
L 344 4550 
L 3484 4550 
L 3484 3703 
L 1441 3703 
L 1441 2744 
L 3166 2744 
L 3166 1928 
z
" transform="scale(0.015625)"/>
       <path id="Roboto-Black-2d" d="M 2353 1553 
L 475 1553 
L 475 2369 
L 2353 2369 
L 2353 1553 
z
" transform="scale(0.015625)"/>
       <path id="Roboto-Black-53" d="M 2691 1209 
Q 2691 1450 2520 1584 
Q 2350 1719 1922 1862 
Q 1494 2006 1222 2141 
Q 338 2575 338 3334 
Q 338 3713 558 4002 
Q 778 4291 1181 4452 
Q 1584 4613 2088 4613 
Q 2578 4613 2967 4438 
Q 3356 4263 3572 3939 
Q 3788 3616 3788 3200 
L 2694 3200 
Q 2694 3478 2523 3631 
Q 2353 3784 2063 3784 
Q 1769 3784 1598 3654 
Q 1428 3525 1428 3325 
Q 1428 3150 1615 3008 
Q 1803 2866 2275 2714 
Q 2747 2563 3050 2388 
Q 3788 1963 3788 1216 
Q 3788 619 3338 278 
Q 2888 -63 2103 -63 
Q 1550 -63 1101 135 
Q 653 334 426 679 
Q 200 1025 200 1475 
L 1300 1475 
Q 1300 1109 1489 936 
Q 1678 763 2103 763 
Q 2375 763 2533 880 
Q 2691 997 2691 1209 
z
" transform="scale(0.015625)"/>
       <path id="Roboto-Black-65" d="M 1931 -63 
Q 1153 -63 672 401 
Q 191 866 191 1609 
L 191 1697 
Q 191 2216 383 2612 
Q 575 3009 944 3226 
Q 1313 3444 1819 3444 
Q 2531 3444 2943 3001 
Q 3356 2559 3356 1769 
L 3356 1359 
L 1263 1359 
Q 1319 1075 1509 912 
Q 1700 750 2003 750 
Q 2503 750 2784 1100 
L 3266 531 
Q 3069 259 2708 98 
Q 2347 -63 1931 -63 
z
M 1813 2631 
Q 1350 2631 1263 2019 
L 2325 2019 
L 2325 2100 
Q 2331 2353 2197 2492 
Q 2063 2631 1813 2631 
z
" transform="scale(0.015625)"/>
       <path id="Roboto-Black-72" d="M 2341 2428 
L 1994 2453 
Q 1497 2453 1356 2141 
L 1356 0 
L 303 0 
L 303 3381 
L 1291 3381 
L 1325 2947 
Q 1591 3444 2066 3444 
Q 2234 3444 2359 3406 
L 2341 2428 
z
" transform="scale(0.015625)"/>
       <path id="Roboto-Black-30" d="M 3438 1859 
Q 3438 938 3023 437 
Q 2609 -63 1856 -63 
Q 1097 -63 681 440 
Q 266 944 266 1859 
L 266 2691 
Q 266 3613 680 4113 
Q 1094 4613 1850 4613 
Q 2606 4613 3022 4109 
Q 3438 3606 3438 2688 
L 3438 1859 
z
M 2384 2825 
Q 2384 3316 2256 3558 
Q 2128 3800 1850 3800 
Q 1578 3800 1454 3575 
Q 1331 3350 1322 2894 
L 1322 1731 
Q 1322 1222 1450 986 
Q 1578 750 1856 750 
Q 2125 750 2253 979 
Q 2381 1209 2384 1700 
L 2384 2825 
z
" transform="scale(0.015625)"/>
       <path id="Roboto-Black-35" d="M 341 2225 
L 619 4550 
L 3278 4550 
L 3278 3731 
L 1475 3731 
L 1372 2828 
Q 1484 2894 1667 2944 
Q 1850 2994 2025 2994 
Q 2703 2994 3067 2592 
Q 3431 2191 3431 1466 
Q 3431 1028 3236 673 
Q 3041 319 2687 128 
Q 2334 -63 1853 -63 
Q 1425 -63 1050 114 
Q 675 291 462 598 
Q 250 906 253 1294 
L 1309 1294 
Q 1325 1044 1469 897 
Q 1613 750 1847 750 
Q 2378 750 2378 1538 
Q 2378 2266 1728 2266 
Q 1359 2266 1178 2028 
L 341 2225 
z
" transform="scale(0.015625)"/>
       <path id="Roboto-Black-4f" d="M 4197 2181 
Q 4197 1516 3950 1003 
Q 3703 491 3248 214 
Q 2794 -63 2212 -63 
Q 1631 -63 1181 204 
Q 731 472 479 969 
Q 228 1466 216 2109 
L 216 2366 
Q 216 3034 461 3545 
Q 706 4056 1164 4334 
Q 1622 4613 2206 4613 
Q 2784 4613 3237 4338 
Q 3691 4063 3942 3555 
Q 4194 3047 4197 2391 
L 4197 2181 
z
M 3081 2372 
Q 3081 3050 2854 3401 
Q 2628 3753 2206 3753 
Q 1381 3753 1334 2516 
L 1331 2181 
Q 1331 1513 1553 1153 
Q 1775 794 2213 794 
Q 2628 794 2853 1147 
Q 3078 1500 3081 2163 
L 3081 2372 
z
" transform="scale(0.015625)"/>
       <path id="Roboto-Black-44" d="M 344 0 
L 344 4550 
L 1809 4550 
Q 2413 4550 2894 4276 
Q 3375 4003 3645 3504 
Q 3916 3006 3919 2388 
L 3919 2178 
Q 3919 1553 3655 1058 
Q 3391 563 2911 283 
Q 2431 3 1841 0 
L 344 0 
z
M 1441 3703 
L 1441 844 
L 1822 844 
Q 2294 844 2547 1180 
Q 2800 1516 2800 2178 
L 2800 2375 
Q 2800 3034 2547 3368 
Q 2294 3703 1809 3703 
L 1441 3703 
z
" transform="scale(0.015625)"/>
       <path id="Roboto-Black-69" d="M 1406 0 
L 350 0 
L 350 3381 
L 1406 3381 
L 1406 0 
z
M 288 4253 
Q 288 4478 450 4622 
Q 613 4766 872 4766 
Q 1131 4766 1293 4622 
Q 1456 4478 1456 4253 
Q 1456 4028 1293 3884 
Q 1131 3741 872 3741 
Q 613 3741 450 3884 
Q 288 4028 288 4253 
z
" transform="scale(0.015625)"/>
       <path id="Roboto-Black-73" d="M 2066 950 
Q 2066 1084 1925 1165 
Q 1784 1247 1390 1334 
Q 997 1422 740 1564 
Q 484 1706 350 1909 
Q 216 2113 216 2375 
Q 216 2841 600 3142 
Q 984 3444 1606 3444 
Q 2275 3444 2681 3141 
Q 3088 2838 3088 2344 
L 2031 2344 
Q 2031 2750 1603 2750 
Q 1438 2750 1325 2658 
Q 1213 2566 1213 2428 
Q 1213 2288 1350 2200 
Q 1488 2113 1789 2056 
Q 2091 2000 2319 1922 
Q 3081 1659 3081 981 
Q 3081 519 2670 228 
Q 2259 -63 1606 -63 
Q 1172 -63 831 93 
Q 491 250 300 519 
Q 109 788 109 1084 
L 1094 1084 
Q 1100 850 1250 742 
Q 1400 634 1634 634 
Q 1850 634 1958 721 
Q 2066 809 2066 950 
z
" transform="scale(0.015625)"/>
       <path id="Roboto-Black-74" d="M 1522 4222 
L 1522 3381 
L 2078 3381 
L 2078 2650 
L 1522 2650 
L 1522 1103 
Q 1522 913 1590 838 
Q 1659 763 1863 763 
Q 2019 763 2125 781 
L 2125 28 
Q 1841 -63 1531 -63 
Q 988 -63 728 193 
Q 469 450 469 972 
L 469 2650 
L 38 2650 
L 38 3381 
L 469 3381 
L 469 4222 
L 1522 4222 
z
" transform="scale(0.015625)"/>
       <path id="Roboto-Black-61" d="M 2200 0 
Q 2144 103 2100 303 
Q 1809 -63 1288 -63 
Q 809 -63 475 226 
Q 141 516 141 953 
Q 141 1503 547 1784 
Q 953 2066 1728 2066 
L 2053 2066 
L 2053 2244 
Q 2053 2709 1650 2709 
Q 1275 2709 1275 2341 
L 222 2341 
Q 222 2831 639 3137 
Q 1056 3444 1703 3444 
Q 2350 3444 2725 3128 
Q 3100 2813 3109 2263 
L 3109 766 
Q 3116 300 3253 53 
L 3253 0 
L 2200 0 
z
M 1541 688 
Q 1738 688 1867 772 
Q 1997 856 2053 963 
L 2053 1503 
L 1747 1503 
Q 1197 1503 1197 1009 
Q 1197 866 1294 777 
Q 1391 688 1541 688 
z
" transform="scale(0.015625)"/>
       <path id="Roboto-Black-6e" d="M 1263 3381 
L 1297 2984 
Q 1647 3444 2263 3444 
Q 2791 3444 3052 3128 
Q 3313 2813 3322 2178 
L 3322 0 
L 2266 0 
L 2266 2134 
Q 2266 2391 2162 2511 
Q 2059 2631 1788 2631 
Q 1478 2631 1328 2388 
L 1328 0 
L 275 0 
L 275 3381 
L 1263 3381 
z
" transform="scale(0.015625)"/>
       <path id="Roboto-Black-63" d="M 1725 750 
Q 1947 750 2069 870 
Q 2191 991 2188 1206 
L 3175 1206 
Q 3175 650 2776 293 
Q 2378 -63 1750 -63 
Q 1013 -63 588 400 
Q 163 863 163 1681 
L 163 1725 
Q 163 2238 352 2630 
Q 541 3022 897 3233 
Q 1253 3444 1741 3444 
Q 2400 3444 2787 3078 
Q 3175 2713 3175 2088 
L 2188 2088 
Q 2188 2350 2059 2490 
Q 1931 2631 1716 2631 
Q 1306 2631 1238 2109 
Q 1216 1944 1216 1653 
Q 1216 1144 1337 947 
Q 1459 750 1725 750 
z
" transform="scale(0.015625)"/>
       <path id="Roboto-Black-5b" d="M 1763 4563 
L 1394 4563 
L 1394 -325 
L 1763 -325 
L 1763 -1091 
L 338 -1091 
L 338 5331 
L 1763 5331 
L 1763 4563 
z
" transform="scale(0.015625)"/>
       <path id="Roboto-Black-c5" d="M 2928 850 
L 1425 850 
L 1163 0 
L -9 0 
L 1659 4550 
L 2691 4550 
L 4372 0 
L 3194 0 
L 2928 850 
z
M 1688 1697 
L 2666 1697 
L 2175 3275 
L 1688 1697 
z
M 1489 5388 
Q 1489 5657 1693 5839 
Q 1898 6022 2192 6022 
Q 2483 6022 2687 5839 
Q 2892 5657 2892 5388 
Q 2892 5122 2690 4944 
Q 2489 4766 2192 4766 
Q 1892 4766 1690 4944 
Q 1489 5122 1489 5388 
z
M 2192 5063 
Q 2342 5063 2428 5156 
Q 2514 5250 2514 5387 
Q 2514 5525 2428 5622 
Q 2342 5719 2192 5719 
Q 2039 5719 1953 5622 
Q 1867 5525 1867 5387 
Q 1867 5250 1953 5156 
Q 2039 5063 2192 5063 
z
" transform="scale(0.015625)"/>
       <path id="Roboto-Black-5d" d="M 44 5331 
L 1469 5331 
L 1469 -1091 
L 44 -1091 
L 44 -325 
L 416 -325 
L 416 4563 
L 44 4563 
L 44 5331 
z
" transform="scale(0.015625)"/>
      </defs>
      <use xlink:href="#Roboto-Black-47"/>
      <use xlink:href="#Roboto-Black-6c" x="68.164062"/>
      <use xlink:href="#Roboto-Black-75" x="95.654297"/>
      <use xlink:href="#Roboto-Black-32" x="152.050781"/>
      <use xlink:href="#Roboto-Black-32" x="209.960938"/>
      <use xlink:href="#Roboto-Black-32" x="267.871094"/>
      <use xlink:href="#Roboto-Black-20" x="325.78125"/>
      <use xlink:href="#Roboto-Black-48" x="350.683594"/>
      <use xlink:href="#Roboto-Black-45" x="420.947266"/>
      <use xlink:href="#Roboto-Black-32" x="476.904297"/>
      <use xlink:href="#Roboto-Black-20" x="534.814453"/>
      <use xlink:href="#Roboto-Black-2d" x="559.716797"/>
      <use xlink:href="#Roboto-Black-20" x="604.6875"/>
      <use xlink:href="#Roboto-Black-53" x="629.589844"/>
      <use xlink:href="#Roboto-Black-65" x="692.1875"/>
      <use xlink:href="#Roboto-Black-72" x="746.630859"/>
      <use xlink:href="#Roboto-Black-32" x="784.521484"/>
      <use xlink:href="#Roboto-Black-30" x="842.431641"/>
      <use xlink:href="#Roboto-Black-35" x="900.341797"/>
      <use xlink:href="#Roboto-Black-20" x="958.251953"/>
      <use xlink:href="#Roboto-Black-4f" x="983.154297"/>
      <use xlink:href="#Roboto-Black-47" x="1052.197266"/>
      <use xlink:href="#Roboto-Black-20" x="1120.361328"/>
      <use xlink:href="#Roboto-Black-44" x="1145.263672"/>
      <use xlink:href="#Roboto-Black-69" x="1209.912109"/>
      <use xlink:href="#Roboto-Black-73" x="1237.402344"/>
      <use xlink:href="#Roboto-Black-74" x="1288.623047"/>
      <use xlink:href="#Roboto-Black-61" x="1322.949219"/>
      <use xlink:href="#Roboto-Black-6e" x="1376.025391"/>
      <use xlink:href="#Roboto-Black-63" x="1432.421875"/>
      <use xlink:href="#Roboto-Black-65" x="1484.375"/>
      <use xlink:href="#Roboto-Black-20" x="1538.818359"/>
      <use xlink:href="#Roboto-Black-5b" x="1563.720703"/>
      <use xlink:href="#Roboto-Black-c5" x="1591.894531"/>
      <use xlink:href="#Roboto-Black-5d" x="1660.009766"/>
     </g>
    </g>
   </g>
   <g id="matplotlib.axis_2">
    <g id="ytick_1">
     <g id="line2d_12">
      <defs>
       <path id="m9cf51ce774" d="M 0 0 
L -3.5 0 
" style="stroke: #c2c1c1; stroke-width: 0.8"/>
      </defs>
      <g>
       <use xlink:href="#m9cf51ce774" x="47.387" y="298.672" style="fill: #c2c1c1; stroke: #c2c1c1; stroke-width: 0.8"/>
      </g>
     </g>
     <g id="text_10">
      <!-- −1 -->
      <g style="fill: #191919" transform="translate(29.058875 302.422) scale(0.1 -0.1)">
       <defs>
        <path id="Roboto-Regular-2212" d="M 3134 2034 
L 525 2034 
L 525 2506 
L 3134 2506 
L 3134 2034 
z
" transform="scale(0.015625)"/>
       </defs>
       <use xlink:href="#Roboto-Regular-2212"/>
       <use xlink:href="#Roboto-Regular-31" x="57.128906"/>
      </g>
     </g>
    </g>
    <g id="ytick_2">
     <g id="line2d_13">
      <g>
       <use xlink:href="#m9cf51ce774" x="47.387" y="242.2856" style="fill: #c2c1c1; stroke: #c2c1c1; stroke-width: 0.8"/>
      </g>
     </g>
     <g id="text_11">
      <!-- 0 -->
      <g style="fill: #191919" transform="translate(34.771375 246.0356) scale(0.1 -0.1)">
       <defs>
        <path id="Roboto-Regular-30" d="M 3231 1941 
Q 3231 925 2884 431 
Q 2538 -63 1800 -63 
Q 1072 -63 722 420 
Q 372 903 359 1863 
L 359 2634 
Q 359 3638 706 4125 
Q 1053 4613 1794 4613 
Q 2528 4613 2875 4142 
Q 3222 3672 3231 2691 
L 3231 1941 
z
M 2653 2731 
Q 2653 3466 2447 3802 
Q 2241 4138 1794 4138 
Q 1350 4138 1147 3803 
Q 944 3469 938 2775 
L 938 1850 
Q 938 1113 1152 761 
Q 1366 409 1800 409 
Q 2228 409 2436 740 
Q 2644 1072 2653 1784 
L 2653 2731 
z
" transform="scale(0.015625)"/>
       </defs>
       <use xlink:href="#Roboto-Regular-30"/>
      </g>
     </g>
    </g>
    <g id="ytick_3">
     <g id="line2d_14">
      <g>
       <use xlink:href="#m9cf51ce774" x="47.387" y="185.8992" style="fill: #c2c1c1; stroke: #c2c1c1; stroke-width: 0.8"/>
      </g>
     </g>
     <g id="text_12">
      <!-- 1 -->
      <g style="fill: #191919" transform="translate(34.771375 189.6492) scale(0.1 -0.1)">
       <use xlink:href="#Roboto-Regular-31"/>
      </g>
     </g>
    </g>
    <g id="ytick_4">
     <g id="line2d_15">
      <g>
       <use xlink:href="#m9cf51ce774" x="47.387" y="129.5128" style="fill: #c2c1c1; stroke: #c2c1c1; stroke-width: 0.8"/>
      </g>
     </g>
     <g id="text_13">
      <!-- 2 -->
      <g style="fill: #191919" transform="translate(34.771375 133.2628) scale(0.1 -0.1)">
       <use xlink:href="#Roboto-Regular-32"/>
      </g>
     </g>
    </g>
    <g id="ytick_5">
     <g id="line2d_16">
      <g>
       <use xlink:href="#m9cf51ce774" x="47.387" y="73.1264" style="fill: #c2c1c1; stroke: #c2c1c1; stroke-width: 0.8"/>
      </g>
     </g>
     <g id="text_14">
      <!-- 3 -->
      <g style="fill: #191919" transform="translate(34.771375 76.8764) scale(0.1 -0.1)">
       <use xlink:href="#Roboto-Regular-33"/>
      </g>
     </g>
    </g>
    <g id="ytick_6">
     <g id="line2d_17">
      <g>
       <use xlink:href="#m9cf51ce774" x="47.387" y="16.74" style="fill: #c2c1c1; stroke: #c2c1c1; stroke-width: 0.8"/>
      </g>
     </g>
     <g id="text_15">
      <!-- 4 -->
      <g style="fill: #191919" transform="translate(34.771375 20.49) scale(0.1 -0.1)">
       <use xlink:href="#Roboto-Regular-34"/>
      </g>
     </g>
    </g>
    <g id="text_16">
     <!-- PMF [kcal/mol] -->
     <g style="fill: #191919" transform="translate(22.621375 198.551938) rotate(-90) scale(0.12 -0.12)">
      <defs>
       <path id="Roboto-Black-50" d="M 1441 1544 
L 1441 0 
L 344 0 
L 344 4550 
L 2159 4550 
Q 2681 4550 3082 4358 
Q 3484 4166 3704 3811 
Q 3925 3456 3925 3006 
Q 3925 2341 3448 1942 
Q 2972 1544 2141 1544 
L 1441 1544 
z
M 1441 2391 
L 2159 2391 
Q 2478 2391 2645 2550 
Q 2813 2709 2813 3000 
Q 2813 3319 2641 3509 
Q 2469 3700 2172 3703 
L 1441 3703 
L 1441 2391 
z
" transform="scale(0.015625)"/>
       <path id="Roboto-Black-4d" d="M 1784 4550 
L 2800 1384 
L 3813 4550 
L 5256 4550 
L 5256 0 
L 4156 0 
L 4156 1063 
L 4263 3238 
L 3163 0 
L 2438 0 
L 1334 3241 
L 1441 1063 
L 1441 0 
L 344 0 
L 344 4550 
L 1784 4550 
z
" transform="scale(0.015625)"/>
       <path id="Roboto-Black-46" d="M 3209 1813 
L 1441 1813 
L 1441 0 
L 344 0 
L 344 4550 
L 3388 4550 
L 3388 3703 
L 1441 3703 
L 1441 2656 
L 3209 2656 
L 3209 1813 
z
" transform="scale(0.015625)"/>
       <path id="Roboto-Black-6b" d="M 1653 1259 
L 1356 963 
L 1356 0 
L 303 0 
L 303 4803 
L 1356 4803 
L 1356 2253 
L 1463 2394 
L 2256 3381 
L 3519 3381 
L 2334 1991 
L 3597 0 
L 2391 0 
L 1653 1259 
z
" transform="scale(0.015625)"/>
       <path id="Roboto-Black-2f" d="M 656 -391 
L -91 -391 
L 1463 4550 
L 2213 4550 
L 656 -391 
z
" transform="scale(0.015625)"/>
       <path id="Roboto-Black-6d" d="M 1291 3381 
L 1325 2984 
Q 1684 3444 2291 3444 
Q 2931 3444 3156 2934 
Q 3500 3444 4150 3444 
Q 5178 3444 5206 2200 
L 5206 0 
L 4150 0 
L 4150 2134 
Q 4150 2394 4062 2512 
Q 3975 2631 3744 2631 
Q 3431 2631 3278 2353 
L 3281 2309 
L 3281 0 
L 2225 0 
L 2225 2128 
Q 2225 2394 2140 2512 
Q 2056 2631 1819 2631 
Q 1516 2631 1356 2353 
L 1356 0 
L 303 0 
L 303 3381 
L 1291 3381 
z
" transform="scale(0.015625)"/>
       <path id="Roboto-Black-6f" d="M 163 1722 
Q 163 2228 359 2623 
Q 556 3019 925 3231 
Q 1294 3444 1791 3444 
Q 2550 3444 2987 2973 
Q 3425 2503 3425 1694 
L 3425 1656 
Q 3425 866 2986 401 
Q 2547 -63 1797 -63 
Q 1075 -63 637 370 
Q 200 803 166 1544 
L 163 1722 
z
M 1216 1656 
Q 1216 1188 1362 969 
Q 1509 750 1797 750 
Q 2359 750 2372 1616 
L 2372 1722 
Q 2372 2631 1791 2631 
Q 1263 2631 1219 1847 
L 1216 1656 
z
" transform="scale(0.015625)"/>
      </defs>
      <use xlink:href="#Roboto-Black-50"/>
      <use xlink:href="#Roboto-Black-4d" x="65.087891"/>
      <use xlink:href="#Roboto-Black-46" x="152.734375"/>
      <use xlink:href="#Roboto-Black-20" x="207.421875"/>
      <use xlink:href="#Roboto-Black-5b" x="232.324219"/>
      <use xlink:href="#Roboto-Black-6b" x="260.498047"/>
      <use xlink:href="#Roboto-Black-63" x="315.185547"/>
      <use xlink:href="#Roboto-Black-61" x="367.138672"/>
      <use xlink:href="#Roboto-Black-6c" x="420.214844"/>
      <use xlink:href="#Roboto-Black-2f" x="447.705078"/>
      <use xlink:href="#Roboto-Black-6d" x="482.8125"/>
      <use xlink:href="#Roboto-Black-6f" x="568.945312"/>
      <use xlink:href="#Roboto-Black-6c" x="625.097656"/>
      <use xlink:href="#Roboto-Black-5d" x="652.587891"/>
     </g>
    </g>
   </g>
   <g id="line2d_18">
    <path d="M 87.501949 -1 
L 87.598292 7.286033 
L 93.342762 2.724788 
L 99.087233 4.856708 
L 99.526267 -1 
M 153.208811 -1 
L 156.531936 19.365925 
L 162.276406 51.283227 
L 168.020876 80.719118 
L 173.765347 119.166961 
L 179.509817 150.711216 
L 185.254287 174.884472 
L 190.998758 187.931487 
L 196.743228 199.70215 
L 202.487698 206.210061 
L 208.232169 210.059061 
L 213.976639 216.796938 
L 219.721109 223.494565 
L 225.465579 226.854608 
L 231.21005 231.629675 
L 236.95452 236.528816 
L 242.69899 240.700002 
L 248.443461 242.264651 
L 254.187931 245.407075 
L 259.932401 246.625148 
L 265.676872 246.000523 
L 271.421342 244.335475 
L 277.165812 239.62952 
L 282.910283 234.481203 
L 288.654753 231.364042 
L 294.399223 225.567704 
L 300.143693 221.470643 
L 305.888164 217.7461 
L 311.632634 217.025766 
L 317.377104 215.852271 
L 323.121575 215.775428 
L 328.866045 216.649345 
L 334.610515 214.836715 
L 340.354986 215.03868 
L 346.099456 212.823489 
L 351.843926 211.732175 
L 357.588396 208.222396 
L 363.332867 203.50756 
L 369.077337 198.449065 
L 374.821807 191.244258 
L 380.566278 182.590318 
L 386.310748 173.787281 
L 392.055218 166.308067 
L 397.799689 156.859112 
L 403.544159 146.086807 
L 409.288629 131.980376 
L 415.0331 124.721543 
L 420.77757 114.536557 
L 426.52204 110.54158 
L 432.26651 99.242511 
L 438.010981 87.952993 
L 443.755451 78.303634 
L 449.499921 69.281998 
L 455.244392 61.120171 
L 460.988862 47.195448 
L 461.8 44.861262 
" clip-path="url(#p476f303cc8)" style="fill: none; stroke: #f99752; stroke-width: 2.5; stroke-linecap: square"/>
   </g>
   <g id="patch_3">
    <path d="M 47.387 298.672 
L 47.387 16.74 
" style="fill: none; stroke: #c2c1c1; stroke-width: 0.8; stroke-linejoin: miter; stroke-linecap: square"/>
   </g>
   <g id="patch_4">
    <path d="M 445.032 298.672 
L 445.032 16.74 
" style="fill: none; stroke: #c2c1c1; stroke-width: 0.8; stroke-linejoin: miter; stroke-linecap: square"/>
   </g>
   <g id="patch_5">
    <path d="M 47.387 298.672 
L 445.032 298.672 
" style="fill: none; stroke: #c2c1c1; stroke-width: 0.8; stroke-linejoin: miter; stroke-linecap: square"/>
   </g>
   <g id="patch_6">
    <path d="M 47.387 16.74 
L 445.032 16.74 
" style="fill: none; stroke: #c2c1c1; stroke-width: 0.8; stroke-linejoin: miter; stroke-linecap: square"/>
   </g>
   <g id="legend_1">
    <g id="line2d_19">
     <path d="M 206.141688 32.34 
L 218.141688 32.34 
L 230.141688 32.34 
" style="fill: none; stroke: #1e2e79; stroke-width: 2.5; stroke-linecap: square"/>
    </g>
    <g id="text_17">
     <!-- Reduced -->
     <g transform="translate(239.741688 36.54) scale(0.12 -0.12)">
      <defs>
       <path id="Roboto-Regular-52" d="M 2197 1841 
L 1128 1841 
L 1128 0 
L 525 0 
L 525 4550 
L 2031 4550 
Q 2800 4550 3214 4200 
Q 3628 3850 3628 3181 
Q 3628 2756 3398 2440 
Q 3169 2125 2759 1969 
L 3828 38 
L 3828 0 
L 3184 0 
L 2197 1841 
z
M 1128 2331 
L 2050 2331 
Q 2497 2331 2761 2562 
Q 3025 2794 3025 3181 
Q 3025 3603 2773 3828 
Q 2522 4053 2047 4056 
L 1128 4056 
L 1128 2331 
z
" transform="scale(0.015625)"/>
       <path id="Roboto-Regular-65" d="M 1841 -63 
Q 1153 -63 722 389 
Q 291 841 291 1597 
L 291 1703 
Q 291 2206 483 2601 
Q 675 2997 1020 3220 
Q 1366 3444 1769 3444 
Q 2428 3444 2793 3009 
Q 3159 2575 3159 1766 
L 3159 1525 
L 869 1525 
Q 881 1025 1161 717 
Q 1441 409 1872 409 
Q 2178 409 2390 534 
Q 2603 659 2763 866 
L 3116 591 
Q 2691 -63 1841 -63 
z
M 1769 2969 
Q 1419 2969 1181 2714 
Q 944 2459 888 2000 
L 2581 2000 
L 2581 2044 
Q 2556 2484 2343 2726 
Q 2131 2969 1769 2969 
z
" transform="scale(0.015625)"/>
       <path id="Roboto-Regular-64" d="M 297 1719 
Q 297 2497 665 2970 
Q 1034 3444 1631 3444 
Q 2225 3444 2572 3038 
L 2572 4800 
L 3150 4800 
L 3150 0 
L 2619 0 
L 2591 363 
Q 2244 -63 1625 -63 
Q 1038 -63 667 418 
Q 297 900 297 1675 
L 297 1719 
z
M 875 1653 
Q 875 1078 1112 753 
Q 1350 428 1769 428 
Q 2319 428 2572 922 
L 2572 2475 
Q 2313 2953 1775 2953 
Q 1350 2953 1112 2625 
Q 875 2297 875 1653 
z
" transform="scale(0.015625)"/>
       <path id="Roboto-Regular-75" d="M 2525 334 
Q 2188 -63 1534 -63 
Q 994 -63 711 251 
Q 428 566 425 1181 
L 425 3381 
L 1003 3381 
L 1003 1197 
Q 1003 428 1628 428 
Q 2291 428 2509 922 
L 2509 3381 
L 3088 3381 
L 3088 0 
L 2538 0 
L 2525 334 
z
" transform="scale(0.015625)"/>
       <path id="Roboto-Regular-63" d="M 1794 409 
Q 2103 409 2334 596 
Q 2566 784 2591 1066 
L 3138 1066 
Q 3122 775 2937 512 
Q 2753 250 2445 93 
Q 2138 -63 1794 -63 
Q 1103 -63 695 398 
Q 288 859 288 1659 
L 288 1756 
Q 288 2250 469 2634 
Q 650 3019 989 3231 
Q 1328 3444 1791 3444 
Q 2359 3444 2736 3103 
Q 3113 2763 3138 2219 
L 2591 2219 
Q 2566 2547 2342 2758 
Q 2119 2969 1791 2969 
Q 1350 2969 1108 2651 
Q 866 2334 866 1734 
L 866 1625 
Q 866 1041 1106 725 
Q 1347 409 1794 409 
z
" transform="scale(0.015625)"/>
      </defs>
      <use xlink:href="#Roboto-Regular-52"/>
      <use xlink:href="#Roboto-Regular-65" x="61.572266"/>
      <use xlink:href="#Roboto-Regular-64" x="114.550781"/>
      <use xlink:href="#Roboto-Regular-75" x="170.947266"/>
      <use xlink:href="#Roboto-Regular-63" x="226.074219"/>
      <use xlink:href="#Roboto-Regular-65" x="278.417969"/>
      <use xlink:href="#Roboto-Regular-64" x="331.396484"/>
     </g>
    </g>
    <g id="line2d_20">
     <path d="M 206.141688 49.7775 
L 218.141688 49.7775 
L 230.141688 49.7775 
" style="fill: none; stroke: #ec4067; stroke-width: 2.5; stroke-linecap: square"/>
    </g>
    <g id="text_18">
     <!-- Oxidized -->
     <g transform="translate(239.741688 53.9775) scale(0.12 -0.12)">
      <defs>
       <path id="Roboto-Regular-4f" d="M 4028 2128 
Q 4028 1459 3803 961 
Q 3578 463 3165 200 
Q 2753 -63 2203 -63 
Q 1666 -63 1250 201 
Q 834 466 604 955 
Q 375 1444 369 2088 
L 369 2416 
Q 369 3072 597 3575 
Q 825 4078 1242 4345 
Q 1659 4613 2197 4613 
Q 2744 4613 3161 4348 
Q 3578 4084 3803 3582 
Q 4028 3081 4028 2416 
L 4028 2128 
z
M 3431 2422 
Q 3431 3231 3106 3664 
Q 2781 4097 2197 4097 
Q 1628 4097 1301 3664 
Q 975 3231 966 2463 
L 966 2128 
Q 966 1344 1295 895 
Q 1625 447 2203 447 
Q 2784 447 3103 870 
Q 3422 1294 3431 2084 
L 3431 2422 
z
" transform="scale(0.015625)"/>
       <path id="Roboto-Regular-78" d="M 1572 2147 
L 2322 3381 
L 2997 3381 
L 1891 1709 
L 3031 0 
L 2363 0 
L 1581 1266 
L 800 0 
L 128 0 
L 1269 1709 
L 163 3381 
L 831 3381 
L 1572 2147 
z
" transform="scale(0.015625)"/>
       <path id="Roboto-Regular-69" d="M 1066 0 
L 488 0 
L 488 3381 
L 1066 3381 
L 1066 0 
z
M 441 4278 
Q 441 4419 527 4516 
Q 613 4613 781 4613 
Q 950 4613 1037 4516 
Q 1125 4419 1125 4278 
Q 1125 4138 1037 4044 
Q 950 3950 781 3950 
Q 613 3950 527 4044 
Q 441 4138 441 4278 
z
" transform="scale(0.015625)"/>
       <path id="Roboto-Regular-7a" d="M 981 472 
L 2959 472 
L 2959 0 
L 275 0 
L 275 425 
L 2141 2903 
L 303 2903 
L 303 3381 
L 2866 3381 
L 2866 2972 
L 981 472 
z
" transform="scale(0.015625)"/>
      </defs>
      <use xlink:href="#Roboto-Regular-4f"/>
      <use xlink:href="#Roboto-Regular-78" x="68.75"/>
      <use xlink:href="#Roboto-Regular-69" x="118.310547"/>
      <use xlink:href="#Roboto-Regular-64" x="142.578125"/>
      <use xlink:href="#Roboto-Regular-69" x="198.974609"/>
      <use xlink:href="#Roboto-Regular-7a" x="223.242188"/>
      <use xlink:href="#Roboto-Regular-65" x="272.802734"/>
      <use xlink:href="#Roboto-Regular-64" x="325.78125"/>
     </g>
    </g>
    <g id="line2d_21">
     <path d="M 206.141688 67.84125 
L 218.141688 67.84125 
L 230.141688 67.84125 
" style="fill: none; stroke: #f99752; stroke-width: 2.5; stroke-linecap: square"/>
    </g>
    <g id="text_19">
     <!-- Cu(I) -->
     <g transform="translate(239.741688 72.04125) scale(0.12 -0.12)">
      <defs>
       <path id="Roboto-Regular-43" d="M 3875 1444 
Q 3791 722 3342 329 
Q 2894 -63 2150 -63 
Q 1344 -63 858 515 
Q 372 1094 372 2063 
L 372 2500 
Q 372 3134 598 3615 
Q 825 4097 1240 4355 
Q 1656 4613 2203 4613 
Q 2928 4613 3365 4208 
Q 3803 3803 3875 3088 
L 3272 3088 
Q 3194 3631 2933 3875 
Q 2672 4119 2203 4119 
Q 1628 4119 1301 3694 
Q 975 3269 975 2484 
L 975 2044 
Q 975 1303 1284 865 
Q 1594 428 2150 428 
Q 2650 428 2917 654 
Q 3184 881 3272 1444 
L 3875 1444 
z
" transform="scale(0.015625)"/>
       <path id="Roboto-Regular-28" d="M 416 1847 
Q 416 2553 605 3203 
Q 794 3853 1169 4384 
Q 1544 4916 1947 5134 
L 2066 4753 
Q 1609 4403 1317 3684 
Q 1025 2966 997 2075 
L 994 1809 
Q 994 603 1434 -284 
Q 1700 -816 2066 -1116 
L 1947 -1469 
Q 1531 -1238 1153 -694 
Q 416 369 416 1847 
z
" transform="scale(0.015625)"/>
       <path id="Roboto-Regular-49" d="M 1172 0 
L 572 0 
L 572 4550 
L 1172 4550 
L 1172 0 
z
" transform="scale(0.015625)"/>
       <path id="Roboto-Regular-29" d="M 1772 1816 
Q 1772 1119 1589 480 
Q 1406 -159 1029 -700 
Q 653 -1241 241 -1469 
L 119 -1116 
Q 600 -747 892 29 
Q 1184 806 1191 1753 
L 1191 1853 
Q 1191 2509 1053 3073 
Q 916 3638 670 4084 
Q 425 4531 119 4781 
L 241 5134 
Q 653 4906 1026 4372 
Q 1400 3838 1586 3194 
Q 1772 2550 1772 1816 
z
" transform="scale(0.015625)"/>
      </defs>
      <use xlink:href="#Roboto-Regular-43"/>
      <use xlink:href="#Roboto-Regular-75" x="65.087891"/>
      <use xlink:href="#Roboto-Regular-28" x="120.214844"/>
      <use xlink:href="#Roboto-Regular-49" x="154.394531"/>
      <use xlink:href="#Roboto-Regular-29" x="181.591797"/>
     </g>
    </g>
   </g>
  </g>
 </g>
 <defs>
  <clipPath id="p476f303cc8">
   <rect x="47.387" y="16.74" width="397.645" height="281.932"/>
  </clipPath>
 </defs>
</svg>
