<?xml version="1.0" encoding="utf-8" standalone="no"?>
<!DOCTYPE svg PUBLIC "-//W3C//DTD SVG 1.1//EN"
  "http://www.w3.org/Graphics/SVG/1.1/DTD/svg11.dtd">
<svg xmlns:xlink="http://www.w3.org/1999/xlink" width="460.8pt" height="345.6pt" viewBox="0 0 460.8 345.6" xmlns="http://www.w3.org/2000/svg" version="1.1">
 <metadata>
  <rdf:RDF xmlns:dc="http://purl.org/dc/elements/1.1/" xmlns:cc="http://creativecommons.org/ns#" xmlns:rdf="http://www.w3.org/1999/02/22-rdf-syntax-ns#">
   <cc:Work>
    <dc:type rdf:resource="http://purl.org/dc/dcmitype/StillImage"/>
    <dc:date>2024-07-17T21:52:03.760251</dc:date>
    <dc:format>image/svg+xml</dc:format>
    <dc:creator>
     <cc:Agent>
      <dc:title>Matplotlib v3.8.4, https://matplotlib.org/</dc:title>
     </cc:Agent>
    </dc:creator>
   </cc:Work>
  </rdf:RDF>
 </metadata>
 <defs>
  <style type="text/css">*{stroke-linejoin: round; stroke-linecap: butt}</style>
 </defs>
 <g id="figure_1">
  <g id="patch_1">
   <path d="M 0 345.6 
L 460.8 345.6 
L 460.8 0 
L 0 0 
z
" style="fill: #ffffff"/>
  </g>
  <g id="axes_1">
   <g id="patch_2">
    <path d="M 47.387 298.672 
L 440.9055 298.672 
L 440.9055 16.74 
L 47.387 16.74 
z
" style="fill: #ffffff"/>
   </g>
   <g id="line2d_1">
    <path d="M 47.387 170.521091 
L 440.9055 170.521091 
" clip-path="url(#p31563ee49c)" style="fill: none; stroke-dasharray: 1.75,2.8875; stroke-dashoffset: 0; stroke: #c0c0c0; stroke-width: 1.75"/>
   </g>
   <g id="line2d_2">
    <path d="M 109.190539 -1 
L 110.419997 16.964145 
L 112.389778 43.54424 
L 114.359559 66.877244 
L 116.32934 85.939824 
L 118.299121 101.594954 
L 120.268902 114.909069 
L 122.238684 126.470483 
L 124.208465 136.59106 
L 126.178246 145.040001 
L 128.148027 151.733113 
L 130.117808 157.135652 
L 132.087589 161.613293 
L 133.07248 163.428849 
L 134.05737 164.956966 
L 135.042261 166.242859 
L 136.027152 167.316063 
L 137.012042 168.180397 
L 138.981823 169.405781 
L 140.951604 170.284942 
L 141.936495 170.549288 
L 142.921386 170.617438 
L 143.906276 170.474403 
L 144.891167 170.148827 
L 146.860948 169.139107 
L 148.830729 167.853726 
L 150.80051 166.305504 
L 153.755182 163.484267 
L 156.709854 160.398293 
L 161.634306 154.666144 
L 164.588978 150.824828 
L 168.52854 145.368781 
L 173.452993 138.273616 
L 179.362337 130.895664 
L 183.301899 125.735321 
L 185.27168 123.984442 
L 187.241461 122.146076 
L 193.150805 115.262709 
L 194.135695 114.11502 
L 195.120586 113.144882 
L 196.105477 112.387061 
L 198.075258 111.227138 
L 202.01482 109.015309 
L 204.969492 106.75869 
L 208.909054 104.301308 
L 210.878835 102.786623 
L 212.848616 101.246696 
L 213.833507 100.717162 
L 218.75796 98.765011 
L 219.74285 98.598164 
L 221.712631 98.631641 
L 222.697522 98.431657 
L 223.682413 97.89494 
L 226.637084 95.637221 
L 231.561537 92.432076 
L 232.546428 91.419795 
L 234.516209 88.892054 
L 235.501099 88.014495 
L 236.48599 87.570679 
L 237.470881 87.301265 
L 238.455771 86.914598 
L 240.425552 85.709112 
L 242.395333 84.351805 
L 244.365115 82.634712 
L 245.350005 81.976754 
L 246.334896 81.639412 
L 248.304677 81.378418 
L 249.289567 80.886531 
L 250.274458 79.919016 
L 254.21402 74.879254 
L 256.183801 72.760128 
L 257.168692 72.097655 
L 259.138473 71.372538 
L 260.123364 70.751444 
L 261.108254 69.72014 
L 263.078035 67.056406 
L 264.062926 65.977727 
L 265.047817 65.225476 
L 268.987379 62.974483 
L 269.972269 61.962206 
L 270.95716 60.5245 
L 271.942051 58.71191 
L 275.881613 50.368167 
L 276.866503 48.830422 
L 278.836285 46.232327 
L 282.775847 40.037511 
L 283.760737 39.177346 
L 287.7003 36.584223 
L 288.68519 35.728999 
L 289.670081 34.714039 
L 293.609643 30.061603 
L 295.579424 28.387976 
L 296.564315 27.190522 
L 297.549206 25.528737 
L 301.488768 17.202495 
L 302.473658 15.570862 
L 303.458549 13.609394 
L 304.44344 11.039638 
L 306.413221 5.059433 
L 308.383002 0.207865 
L 308.914693 -1 
L 308.914693 -1 
" clip-path="url(#p31563ee49c)" style="fill: none; stroke: #1e2e79; stroke-width: 2.5; stroke-linecap: square"/>
   </g>
   <g id="line2d_3">
    <path d="M 107.597624 -1 
L 109.435106 26.843832 
L 111.404887 57.85249 
L 112.389778 71.709357 
L 113.374668 83.856887 
L 115.34445 103.528039 
L 118.299121 127.831898 
L 119.284012 135.27281 
L 120.268902 140.938786 
L 124.208465 159.723433 
L 126.178246 166.418019 
L 128.148027 170.471252 
L 129.132918 172.532569 
L 130.117808 173.797975 
L 131.102699 174.575032 
L 133.07248 176.409383 
L 134.05737 176.568538 
L 135.042261 176.436332 
L 136.027152 176.179888 
L 137.012042 175.679602 
L 138.981823 174.370851 
L 139.966714 173.409077 
L 140.951604 172.07088 
L 142.921386 168.646471 
L 143.906276 167.197921 
L 145.876057 163.775177 
L 146.860948 161.715415 
L 147.845838 159.240806 
L 148.830729 157.083804 
L 150.80051 153.481893 
L 151.785401 151.20475 
L 157.694744 134.497182 
L 158.679635 132.368819 
L 159.664525 129.589421 
L 162.619197 119.839946 
L 164.588978 114.113837 
L 165.573869 110.750846 
L 167.54365 107.071385 
L 168.52854 104.172604 
L 170.498322 96.234253 
L 171.483212 93.317747 
L 174.437884 86.399332 
L 178.377446 75.20466 
L 179.362337 71.093875 
L 181.332118 61.971915 
L 182.317008 60.954331 
L 183.301899 62.283804 
L 184.28679 60.140018 
L 185.27168 56.294965 
L 186.256571 51.145213 
L 187.241461 47.586304 
L 188.226352 46.894532 
L 189.211242 44.641246 
L 190.196133 41.978069 
L 191.181024 37.916343 
L 192.165914 35.118006 
L 193.150805 35.289045 
L 194.135695 31.696191 
L 195.120586 29.965149 
L 196.105477 33.259241 
L 197.090367 29.413793 
L 198.075258 23.126983 
L 199.060148 22.426901 
L 200.045039 18.978847 
L 201.029929 14.156889 
L 202.01482 5.749065 
L 202.613719 -1 
M 204.724403 -1 
L 204.969492 1.162301 
L 205.954382 4.776192 
L 206.939273 1.788625 
L 207.588429 -1 
L 207.588429 -1 
" clip-path="url(#p31563ee49c)" style="fill: none; stroke: #ec4067; stroke-width: 2.5; stroke-linecap: square"/>
   </g>
   <g id="matplotlib.axis_1">
    <g id="xtick_1">
     <g id="line2d_4">
      <defs>
       <path id="md564993b83" d="M 0 0 
L 0 3.5 
" style="stroke: #c2c1c1; stroke-width: 0.8"/>
      </defs>
      <g>
       <use xlink:href="#md564993b83" x="47.387" y="298.672" style="fill: #c2c1c1; stroke: #c2c1c1; stroke-width: 0.8"/>
      </g>
     </g>
     <g id="text_1">
      <!-- 1.0 -->
      <g style="fill: #191919" transform="translate(40.447937 313.172) scale(0.1 -0.1)">
       <defs>
        <path id="Roboto-Regular-31" d="M 2278 4575 
L 2278 0 
L 1700 0 
L 1700 3853 
L 534 3428 
L 534 3950 
L 2188 4575 
L 2278 4575 
z
" transform="scale(0.015625)"/>
        <path id="Roboto-Regular-2e" d="M 450 306 
Q 450 453 542 554 
Q 634 656 809 656 
Q 984 656 1076 554 
Q 1169 453 1169 306 
Q 1169 163 1076 62 
Q 984 -38 809 -38 
Q 634 -38 542 62 
Q 450 163 450 306 
z
" transform="scale(0.015625)"/>
        <path id="Roboto-Regular-30" d="M 3234 1944 
Q 3234 825 2848 381 
Q 2463 -63 1800 -63 
Q 1156 -63 764 368 
Q 372 800 359 1872 
L 359 2638 
Q 359 3753 750 4183 
Q 1141 4613 1794 4613 
Q 2447 4613 2834 4195 
Q 3222 3778 3234 2709 
L 3234 1944 
z
M 2653 2734 
Q 2653 3503 2434 3822 
Q 2216 4141 1794 4141 
Q 1388 4141 1167 3831 
Q 947 3522 941 2778 
L 941 1850 
Q 941 1088 1164 750 
Q 1388 413 1800 413 
Q 2222 413 2436 745 
Q 2650 1078 2653 1825 
L 2653 2734 
z
" transform="scale(0.015625)"/>
       </defs>
       <use xlink:href="#Roboto-Regular-31"/>
       <use xlink:href="#Roboto-Regular-2e" x="56.201172"/>
       <use xlink:href="#Roboto-Regular-30" x="82.568359"/>
      </g>
     </g>
    </g>
    <g id="xtick_2">
     <g id="line2d_5">
      <g>
       <use xlink:href="#md564993b83" x="96.576812" y="298.672" style="fill: #c2c1c1; stroke: #c2c1c1; stroke-width: 0.8"/>
      </g>
     </g>
     <g id="text_2">
      <!-- 1.5 -->
      <g style="fill: #191919" transform="translate(89.63775 313.172) scale(0.1 -0.1)">
       <defs>
        <path id="Roboto-Regular-35" d="M 1109 2166 
L 647 2284 
L 875 4550 
L 3209 4550 
L 3209 4016 
L 1366 4016 
L 1228 2778 
Q 1572 2975 1988 2975 
Q 2616 2975 2980 2561 
Q 3344 2147 3344 1450 
Q 3344 797 2987 367 
Q 2631 -63 1903 -63 
Q 1350 -63 947 248 
Q 544 559 481 1197 
L 1031 1197 
Q 1141 413 1903 413 
Q 2313 413 2538 691 
Q 2763 969 2763 1444 
Q 2763 1872 2527 2164 
Q 2291 2456 1853 2456 
Q 1563 2456 1413 2378 
Q 1263 2300 1109 2166 
z
" transform="scale(0.015625)"/>
       </defs>
       <use xlink:href="#Roboto-Regular-31"/>
       <use xlink:href="#Roboto-Regular-2e" x="56.201172"/>
       <use xlink:href="#Roboto-Regular-35" x="82.568359"/>
      </g>
     </g>
    </g>
    <g id="xtick_3">
     <g id="line2d_6">
      <g>
       <use xlink:href="#md564993b83" x="145.766625" y="298.672" style="fill: #c2c1c1; stroke: #c2c1c1; stroke-width: 0.8"/>
      </g>
     </g>
     <g id="text_3">
      <!-- 2.0 -->
      <g style="fill: #191919" transform="translate(138.827562 313.172) scale(0.1 -0.1)">
       <defs>
        <path id="Roboto-Regular-32" d="M 3359 475 
L 3359 0 
L 381 0 
L 381 416 
L 1925 2134 
Q 2306 2566 2439 2819 
Q 2572 3072 2572 3328 
Q 2572 3663 2364 3900 
Q 2156 4138 1778 4138 
Q 1322 4138 1097 3878 
Q 872 3619 872 3213 
L 294 3213 
Q 294 3788 672 4200 
Q 1050 4613 1778 4613 
Q 2422 4613 2786 4278 
Q 3150 3944 3150 3397 
Q 3150 2997 2903 2592 
Q 2656 2188 2297 1797 
L 1078 475 
L 3359 475 
z
" transform="scale(0.015625)"/>
       </defs>
       <use xlink:href="#Roboto-Regular-32"/>
       <use xlink:href="#Roboto-Regular-2e" x="56.201172"/>
       <use xlink:href="#Roboto-Regular-30" x="82.568359"/>
      </g>
     </g>
    </g>
    <g id="xtick_4">
     <g id="line2d_7">
      <g>
       <use xlink:href="#md564993b83" x="194.956438" y="298.672" style="fill: #c2c1c1; stroke: #c2c1c1; stroke-width: 0.8"/>
      </g>
     </g>
     <g id="text_4">
      <!-- 2.5 -->
      <g style="fill: #191919" transform="translate(188.017375 313.172) scale(0.1 -0.1)">
       <use xlink:href="#Roboto-Regular-32"/>
       <use xlink:href="#Roboto-Regular-2e" x="56.201172"/>
       <use xlink:href="#Roboto-Regular-35" x="82.568359"/>
      </g>
     </g>
    </g>
    <g id="xtick_5">
     <g id="line2d_8">
      <g>
       <use xlink:href="#md564993b83" x="244.14625" y="298.672" style="fill: #c2c1c1; stroke: #c2c1c1; stroke-width: 0.8"/>
      </g>
     </g>
     <g id="text_5">
      <!-- 3.0 -->
      <g style="fill: #191919" transform="translate(237.207187 313.172) scale(0.1 -0.1)">
       <defs>
        <path id="Roboto-Regular-33" d="M 1222 2084 
L 1222 2559 
L 1647 2559 
Q 2094 2563 2312 2784 
Q 2531 3006 2531 3338 
Q 2531 4138 1738 4138 
Q 1369 4138 1141 3927 
Q 913 3716 913 3359 
L 334 3359 
Q 334 3881 720 4247 
Q 1106 4613 1738 4613 
Q 2353 4613 2733 4286 
Q 3113 3959 3113 3325 
Q 3113 3072 2942 2784 
Q 2772 2497 2397 2338 
Q 2850 2191 3015 1884 
Q 3181 1578 3181 1269 
Q 3181 631 2768 284 
Q 2356 -63 1741 -63 
Q 1147 -63 722 267 
Q 297 597 297 1203 
L 875 1203 
Q 875 844 1108 628 
Q 1341 413 1741 413 
Q 2138 413 2369 622 
Q 2600 831 2600 1256 
Q 2600 1681 2337 1882 
Q 2075 2084 1634 2084 
L 1222 2084 
z
" transform="scale(0.015625)"/>
       </defs>
       <use xlink:href="#Roboto-Regular-33"/>
       <use xlink:href="#Roboto-Regular-2e" x="56.201172"/>
       <use xlink:href="#Roboto-Regular-30" x="82.568359"/>
      </g>
     </g>
    </g>
    <g id="xtick_6">
     <g id="line2d_9">
      <g>
       <use xlink:href="#md564993b83" x="293.336062" y="298.672" style="fill: #c2c1c1; stroke: #c2c1c1; stroke-width: 0.8"/>
      </g>
     </g>
     <g id="text_6">
      <!-- 3.5 -->
      <g style="fill: #191919" transform="translate(286.397 313.172) scale(0.1 -0.1)">
       <use xlink:href="#Roboto-Regular-33"/>
       <use xlink:href="#Roboto-Regular-2e" x="56.201172"/>
       <use xlink:href="#Roboto-Regular-35" x="82.568359"/>
      </g>
     </g>
    </g>
    <g id="xtick_7">
     <g id="line2d_10">
      <g>
       <use xlink:href="#md564993b83" x="342.525875" y="298.672" style="fill: #c2c1c1; stroke: #c2c1c1; stroke-width: 0.8"/>
      </g>
     </g>
     <g id="text_7">
      <!-- 4.0 -->
      <g style="fill: #191919" transform="translate(335.586813 313.172) scale(0.1 -0.1)">
       <defs>
        <path id="Roboto-Regular-34" d="M 166 1397 
L 2203 4550 
L 2819 4550 
L 2819 1531 
L 3453 1531 
L 3453 1056 
L 2819 1056 
L 2819 0 
L 2241 0 
L 2241 1056 
L 166 1056 
L 166 1397 
z
M 822 1531 
L 2241 1531 
L 2241 3766 
L 2169 3638 
L 822 1531 
z
" transform="scale(0.015625)"/>
       </defs>
       <use xlink:href="#Roboto-Regular-34"/>
       <use xlink:href="#Roboto-Regular-2e" x="56.201172"/>
       <use xlink:href="#Roboto-Regular-30" x="82.568359"/>
      </g>
     </g>
    </g>
    <g id="xtick_8">
     <g id="line2d_11">
      <g>
       <use xlink:href="#md564993b83" x="391.715688" y="298.672" style="fill: #c2c1c1; stroke: #c2c1c1; stroke-width: 0.8"/>
      </g>
     </g>
     <g id="text_8">
      <!-- 4.5 -->
      <g style="fill: #191919" transform="translate(384.776625 313.172) scale(0.1 -0.1)">
       <use xlink:href="#Roboto-Regular-34"/>
       <use xlink:href="#Roboto-Regular-2e" x="56.201172"/>
       <use xlink:href="#Roboto-Regular-35" x="82.568359"/>
      </g>
     </g>
    </g>
    <g id="xtick_9">
     <g id="line2d_12">
      <g>
       <use xlink:href="#md564993b83" x="440.9055" y="298.672" style="fill: #c2c1c1; stroke: #c2c1c1; stroke-width: 0.8"/>
      </g>
     </g>
     <g id="text_9">
      <!-- 5.0 -->
      <g style="fill: #191919" transform="translate(433.966438 313.172) scale(0.1 -0.1)">
       <use xlink:href="#Roboto-Regular-35"/>
       <use xlink:href="#Roboto-Regular-2e" x="56.201172"/>
       <use xlink:href="#Roboto-Regular-30" x="82.568359"/>
      </g>
     </g>
    </g>
    <g id="text_10">
     <!-- His148 H - Thr203 O Distance [Å] -->
     <g style="fill: #191919" transform="translate(153.765625 330.102625) scale(0.12 -0.12)">
      <defs>
       <path id="Roboto-Black-48" d="M 3056 0 
L 3056 1900 
L 1444 1900 
L 1444 0 
L 347 0 
L 347 4550 
L 1444 4550 
L 1444 2744 
L 3056 2744 
L 3056 4550 
L 4150 4550 
L 4150 0 
L 3056 0 
z
" transform="scale(0.015625)"/>
       <path id="Roboto-Black-69" d="M 291 4253 
Q 291 4478 453 4622 
Q 616 4766 875 4766 
Q 1134 4766 1296 4622 
Q 1459 4478 1459 4253 
Q 1459 4028 1296 3884 
Q 1134 3741 875 3741 
Q 616 3741 453 3884 
Q 291 4028 291 4253 
z
M 1409 3381 
L 1409 0 
L 353 0 
L 353 3381 
L 1409 3381 
z
" transform="scale(0.015625)"/>
       <path id="Roboto-Black-73" d="M 2069 950 
Q 2069 1084 1920 1167 
Q 1772 1250 1391 1334 
Q 897 1444 556 1689 
Q 216 1934 216 2375 
Q 216 2803 580 3123 
Q 944 3444 1609 3444 
Q 2291 3444 2689 3137 
Q 3088 2831 3088 2344 
L 2034 2344 
Q 2034 2750 1606 2750 
Q 1444 2750 1328 2662 
Q 1213 2575 1213 2428 
Q 1213 2166 1773 2059 
Q 2334 1953 2709 1728 
Q 3084 1503 3084 981 
Q 3084 534 2686 235 
Q 2288 -63 1606 -63 
Q 878 -63 495 306 
Q 113 675 113 1084 
L 1094 1084 
Q 1103 850 1251 742 
Q 1400 634 1634 634 
Q 2069 634 2069 950 
z
" transform="scale(0.015625)"/>
       <path id="Roboto-Black-31" d="M 2613 4550 
L 2613 0 
L 1559 0 
L 1559 3363 
L 522 3059 
L 522 3859 
L 2516 4550 
L 2613 4550 
z
" transform="scale(0.015625)"/>
       <path id="Roboto-Black-34" d="M 184 1609 
L 2009 4544 
L 2009 4550 
L 3063 4550 
L 3063 1778 
L 3522 1778 
L 3522 966 
L 3063 966 
L 3063 0 
L 2009 0 
L 2009 966 
L 247 966 
L 184 1609 
z
M 1191 1778 
L 2009 1778 
L 2009 3184 
L 1941 3072 
L 1191 1778 
z
" transform="scale(0.015625)"/>
       <path id="Roboto-Black-38" d="M 3441 1253 
Q 3441 600 2992 268 
Q 2544 -63 1859 -63 
Q 1178 -63 722 268 
Q 266 600 266 1253 
Q 266 1631 459 1911 
Q 653 2191 981 2347 
Q 694 2500 528 2753 
Q 363 3006 363 3334 
Q 363 3959 783 4287 
Q 1203 4616 1853 4616 
Q 2509 4616 2928 4287 
Q 3347 3959 3347 3334 
Q 3347 3006 3183 2751 
Q 3019 2497 2734 2344 
Q 3059 2188 3250 1909 
Q 3441 1631 3441 1253 
z
M 2294 3278 
Q 2294 3803 1853 3803 
Q 1419 3803 1419 3278 
Q 1419 3034 1530 2884 
Q 1641 2734 1859 2734 
Q 2078 2734 2186 2884 
Q 2294 3034 2294 3278 
z
M 2381 1338 
Q 2381 1616 2237 1769 
Q 2094 1922 1853 1922 
Q 1619 1922 1470 1769 
Q 1322 1616 1322 1338 
Q 1322 1063 1470 906 
Q 1619 750 1859 750 
Q 2097 750 2239 906 
Q 2381 1063 2381 1338 
z
" transform="scale(0.015625)"/>
       <path id="Roboto-Black-20" transform="scale(0.015625)"/>
       <path id="Roboto-Black-2d" d="M 2353 2369 
L 2353 1553 
L 475 1553 
L 475 2369 
L 2353 2369 
z
" transform="scale(0.015625)"/>
       <path id="Roboto-Black-54" d="M 116 3703 
L 116 4550 
L 3919 4550 
L 3919 3703 
L 2550 3703 
L 2550 0 
L 1453 0 
L 1453 3703 
L 116 3703 
z
" transform="scale(0.015625)"/>
       <path id="Roboto-Black-68" d="M 1784 2631 
Q 1466 2631 1328 2428 
L 1328 0 
L 275 0 
L 275 4800 
L 1328 4800 
L 1328 3022 
Q 1669 3444 2191 3444 
Q 2691 3444 3006 3144 
Q 3322 2844 3325 2116 
L 3325 0 
L 2266 0 
L 2266 2106 
Q 2266 2416 2139 2523 
Q 2013 2631 1784 2631 
z
" transform="scale(0.015625)"/>
       <path id="Roboto-Black-72" d="M 1994 2453 
Q 1500 2453 1359 2144 
L 1359 0 
L 306 0 
L 306 3381 
L 1291 3381 
L 1325 2950 
Q 1591 3444 2069 3444 
Q 2244 3444 2359 3406 
L 2341 2428 
L 1994 2453 
z
" transform="scale(0.015625)"/>
       <path id="Roboto-Black-32" d="M 3456 813 
L 3456 0 
L 281 0 
L 281 688 
L 1744 2225 
Q 2284 2847 2284 3203 
Q 2284 3803 1784 3803 
Q 1538 3803 1391 3598 
Q 1244 3394 1244 3088 
L 188 3088 
Q 188 3716 636 4166 
Q 1084 4616 1809 4616 
Q 2563 4616 2952 4267 
Q 3341 3919 3341 3297 
Q 3341 2822 3052 2409 
Q 2763 1997 2250 1491 
L 1663 813 
L 3456 813 
z
" transform="scale(0.015625)"/>
       <path id="Roboto-Black-30" d="M 3441 1859 
Q 3441 875 3000 406 
Q 2559 -63 1859 -63 
Q 1156 -63 712 406 
Q 269 875 269 1859 
L 269 2691 
Q 269 3675 709 4144 
Q 1150 4613 1853 4613 
Q 2553 4613 2997 4144 
Q 3441 3675 3441 2691 
L 3441 1859 
z
M 2388 2825 
Q 2388 3369 2244 3584 
Q 2100 3800 1853 3800 
Q 1609 3800 1467 3589 
Q 1325 3378 1322 2850 
L 1322 1731 
Q 1322 1178 1465 964 
Q 1609 750 1859 750 
Q 2100 750 2242 959 
Q 2384 1169 2388 1706 
L 2388 2825 
z
" transform="scale(0.015625)"/>
       <path id="Roboto-Black-33" d="M 1241 1931 
L 1241 2716 
L 1738 2716 
Q 2328 2716 2328 3294 
Q 2328 3497 2198 3650 
Q 2069 3803 1791 3803 
Q 1600 3803 1437 3690 
Q 1275 3578 1275 3378 
L 219 3378 
Q 219 3956 681 4286 
Q 1144 4616 1756 4616 
Q 2481 4616 2931 4284 
Q 3381 3953 3381 3316 
Q 3381 3006 3190 2747 
Q 3000 2488 2681 2338 
Q 3041 2206 3248 1939 
Q 3456 1672 3456 1278 
Q 3456 638 2968 287 
Q 2481 -63 1756 -63 
Q 1375 -63 1006 75 
Q 638 213 394 506 
Q 150 800 150 1266 
L 1206 1266 
Q 1206 1047 1379 898 
Q 1553 750 1791 750 
Q 2081 750 2240 909 
Q 2400 1069 2400 1300 
Q 2400 1644 2228 1787 
Q 2056 1931 1753 1931 
L 1241 1931 
z
" transform="scale(0.015625)"/>
       <path id="Roboto-Black-4f" d="M 4197 2181 
Q 4197 1138 3640 537 
Q 3084 -63 2213 -63 
Q 1334 -63 776 537 
Q 219 1138 219 2181 
L 219 2366 
Q 219 3409 773 4011 
Q 1328 4613 2206 4613 
Q 3078 4613 3637 4011 
Q 4197 3409 4197 2366 
L 4197 2181 
z
M 3084 2372 
Q 3084 3059 2865 3406 
Q 2647 3753 2206 3753 
Q 1388 3753 1338 2534 
L 1334 2181 
Q 1334 1513 1554 1153 
Q 1775 794 2213 794 
Q 2628 794 2854 1148 
Q 3081 1503 3084 2163 
L 3084 2372 
z
" transform="scale(0.015625)"/>
       <path id="Roboto-Black-44" d="M 347 0 
L 347 4550 
L 1809 4550 
Q 2425 4550 2901 4273 
Q 3378 3997 3648 3505 
Q 3919 3013 3919 2369 
L 3919 2178 
Q 3919 1219 3333 611 
Q 2747 3 1831 0 
L 347 0 
z
M 1444 3703 
L 1444 844 
L 1825 844 
Q 2744 844 2797 2028 
L 2800 2375 
Q 2800 3675 1850 3703 
L 1444 3703 
z
" transform="scale(0.015625)"/>
       <path id="Roboto-Black-74" d="M 2128 28 
Q 1850 -63 1534 -63 
Q 1025 -63 747 179 
Q 469 422 469 972 
L 469 2650 
L 41 2650 
L 41 3381 
L 469 3381 
L 469 4222 
L 1522 4222 
L 1522 3381 
L 2078 3381 
L 2078 2650 
L 1522 2650 
L 1522 1103 
Q 1522 900 1597 831 
Q 1672 763 1866 763 
Q 2019 763 2128 781 
L 2128 28 
z
" transform="scale(0.015625)"/>
       <path id="Roboto-Black-61" d="M 2200 0 
Q 2141 122 2103 303 
Q 1813 -63 1291 -63 
Q 822 -63 483 220 
Q 144 503 144 953 
Q 144 1469 520 1764 
Q 897 2059 1694 2066 
L 2053 2066 
L 2053 2244 
Q 2053 2709 1650 2709 
Q 1275 2709 1275 2341 
L 222 2341 
Q 222 2813 625 3128 
Q 1028 3444 1706 3444 
Q 2309 3444 2711 3142 
Q 3113 2841 3113 2238 
L 3113 766 
Q 3119 306 3256 53 
L 3256 0 
L 2200 0 
z
M 1541 688 
Q 1734 688 1865 770 
Q 1997 853 2053 956 
L 2053 1503 
L 1722 1503 
Q 1425 1503 1311 1351 
Q 1197 1200 1197 1009 
Q 1197 866 1295 777 
Q 1394 688 1541 688 
z
" transform="scale(0.015625)"/>
       <path id="Roboto-Black-6e" d="M 1788 2631 
Q 1478 2631 1331 2391 
L 1331 0 
L 278 0 
L 278 3381 
L 1266 3381 
L 1300 2988 
Q 1653 3444 2263 3444 
Q 2731 3444 3026 3156 
Q 3322 2869 3325 2144 
L 3325 0 
L 2266 0 
L 2266 2131 
Q 2266 2438 2141 2534 
Q 2016 2631 1788 2631 
z
" transform="scale(0.015625)"/>
       <path id="Roboto-Black-63" d="M 1725 750 
Q 2197 750 2188 1206 
L 3178 1206 
Q 3181 634 2770 285 
Q 2359 -63 1750 -63 
Q 956 -63 561 428 
Q 166 919 166 1653 
L 166 1725 
Q 166 2459 561 2951 
Q 956 3444 1744 3444 
Q 2375 3444 2778 3087 
Q 3181 2731 3178 2088 
L 2188 2088 
Q 2194 2316 2076 2473 
Q 1959 2631 1719 2631 
Q 1400 2631 1309 2372 
Q 1219 2113 1219 1653 
Q 1219 1278 1306 1014 
Q 1394 750 1725 750 
z
" transform="scale(0.015625)"/>
       <path id="Roboto-Black-65" d="M 3266 531 
Q 3109 309 2765 123 
Q 2422 -63 1934 -63 
Q 1109 -63 651 421 
Q 194 906 191 1569 
L 191 1697 
Q 191 2438 600 2941 
Q 1009 3444 1822 3444 
Q 2541 3444 2948 2997 
Q 3356 2550 3356 1788 
L 3356 1359 
L 1266 1359 
Q 1322 1078 1512 914 
Q 1703 750 2003 750 
Q 2506 750 2788 1100 
L 3266 531 
z
M 1813 2631 
Q 1544 2631 1422 2457 
Q 1300 2284 1266 2019 
L 2328 2019 
L 2328 2100 
Q 2334 2631 1813 2631 
z
" transform="scale(0.015625)"/>
       <path id="Roboto-Black-5b" d="M 1766 5331 
L 1766 4563 
L 1397 4563 
L 1397 -325 
L 1766 -325 
L 1766 -1091 
L 338 -1091 
L 338 5331 
L 1766 5331 
z
" transform="scale(0.015625)"/>
       <path id="Roboto-Black-c5" d="M -13 0 
L 1659 4550 
L 2694 4550 
L 4375 0 
L 3194 0 
L 2931 850 
L 1428 850 
L 1166 0 
L -13 0 
z
M 1691 1697 
L 2669 1697 
L 2178 3281 
L 1691 1697 
z
M 1492 5388 
Q 1492 5644 1690 5833 
Q 1889 6022 2192 6022 
Q 2498 6022 2696 5833 
Q 2895 5644 2895 5388 
Q 2895 5132 2696 4949 
Q 2498 4766 2192 4766 
Q 1889 4766 1690 4949 
Q 1492 5132 1492 5388 
z
M 1870 5387 
Q 1870 5250 1956 5156 
Q 2042 5063 2192 5063 
Q 2345 5063 2431 5156 
Q 2517 5250 2517 5387 
Q 2517 5525 2431 5622 
Q 2345 5719 2192 5719 
Q 2042 5719 1956 5622 
Q 1870 5525 1870 5387 
z
" transform="scale(0.015625)"/>
       <path id="Roboto-Black-5d" d="M 44 4563 
L 44 5331 
L 1472 5331 
L 1472 -1091 
L 44 -1091 
L 44 -325 
L 419 -325 
L 419 4563 
L 44 4563 
z
" transform="scale(0.015625)"/>
      </defs>
      <use xlink:href="#Roboto-Black-48"/>
      <use xlink:href="#Roboto-Black-69" x="70.263672"/>
      <use xlink:href="#Roboto-Black-73" x="97.753906"/>
      <use xlink:href="#Roboto-Black-31" x="149.023438"/>
      <use xlink:href="#Roboto-Black-34" x="206.982422"/>
      <use xlink:href="#Roboto-Black-38" x="264.941406"/>
      <use xlink:href="#Roboto-Black-20" x="322.900391"/>
      <use xlink:href="#Roboto-Black-48" x="347.802734"/>
      <use xlink:href="#Roboto-Black-20" x="418.066406"/>
      <use xlink:href="#Roboto-Black-2d" x="442.96875"/>
      <use xlink:href="#Roboto-Black-20" x="487.939453"/>
      <use xlink:href="#Roboto-Black-54" x="512.841797"/>
      <use xlink:href="#Roboto-Black-68" x="575.927734"/>
      <use xlink:href="#Roboto-Black-72" x="632.373047"/>
      <use xlink:href="#Roboto-Black-32" x="670.263672"/>
      <use xlink:href="#Roboto-Black-30" x="728.222656"/>
      <use xlink:href="#Roboto-Black-33" x="786.181641"/>
      <use xlink:href="#Roboto-Black-20" x="844.140625"/>
      <use xlink:href="#Roboto-Black-4f" x="869.042969"/>
      <use xlink:href="#Roboto-Black-20" x="938.085938"/>
      <use xlink:href="#Roboto-Black-44" x="962.988281"/>
      <use xlink:href="#Roboto-Black-69" x="1027.685547"/>
      <use xlink:href="#Roboto-Black-73" x="1055.175781"/>
      <use xlink:href="#Roboto-Black-74" x="1106.445312"/>
      <use xlink:href="#Roboto-Black-61" x="1140.820312"/>
      <use xlink:href="#Roboto-Black-6e" x="1193.945312"/>
      <use xlink:href="#Roboto-Black-63" x="1250.390625"/>
      <use xlink:href="#Roboto-Black-65" x="1302.392578"/>
      <use xlink:href="#Roboto-Black-20" x="1356.884766"/>
      <use xlink:href="#Roboto-Black-5b" x="1381.787109"/>
      <use xlink:href="#Roboto-Black-c5" x="1410.009766"/>
      <use xlink:href="#Roboto-Black-5d" x="1478.125"/>
     </g>
    </g>
   </g>
   <g id="matplotlib.axis_2">
    <g id="ytick_1">
     <g id="line2d_13">
      <defs>
       <path id="mcfafce6e08" d="M 0 0 
L -3.5 0 
" style="stroke: #c2c1c1; stroke-width: 0.8"/>
      </defs>
      <g>
       <use xlink:href="#mcfafce6e08" x="47.387" y="273.041818" style="fill: #c2c1c1; stroke: #c2c1c1; stroke-width: 0.8"/>
      </g>
     </g>
     <g id="text_11">
      <!-- −2 -->
      <g style="fill: #191919" transform="translate(29.0495 276.791818) scale(0.1 -0.1)">
       <defs>
        <path id="Roboto-Regular-2212" d="M 3134 2509 
L 3134 2034 
L 525 2034 
L 525 2509 
L 3134 2509 
z
" transform="scale(0.015625)"/>
       </defs>
       <use xlink:href="#Roboto-Regular-2212"/>
       <use xlink:href="#Roboto-Regular-32" x="57.177734"/>
      </g>
     </g>
    </g>
    <g id="ytick_2">
     <g id="line2d_14">
      <g>
       <use xlink:href="#mcfafce6e08" x="47.387" y="221.781455" style="fill: #c2c1c1; stroke: #c2c1c1; stroke-width: 0.8"/>
      </g>
     </g>
     <g id="text_12">
      <!-- −1 -->
      <g style="fill: #191919" transform="translate(29.0495 225.531455) scale(0.1 -0.1)">
       <use xlink:href="#Roboto-Regular-2212"/>
       <use xlink:href="#Roboto-Regular-31" x="57.177734"/>
      </g>
     </g>
    </g>
    <g id="ytick_3">
     <g id="line2d_15">
      <g>
       <use xlink:href="#mcfafce6e08" x="47.387" y="170.521091" style="fill: #c2c1c1; stroke: #c2c1c1; stroke-width: 0.8"/>
      </g>
     </g>
     <g id="text_13">
      <!-- 0 -->
      <g style="fill: #191919" transform="translate(34.766687 174.271091) scale(0.1 -0.1)">
       <use xlink:href="#Roboto-Regular-30"/>
      </g>
     </g>
    </g>
    <g id="ytick_4">
     <g id="line2d_16">
      <g>
       <use xlink:href="#mcfafce6e08" x="47.387" y="119.260727" style="fill: #c2c1c1; stroke: #c2c1c1; stroke-width: 0.8"/>
      </g>
     </g>
     <g id="text_14">
      <!-- 1 -->
      <g style="fill: #191919" transform="translate(34.766687 123.010727) scale(0.1 -0.1)">
       <use xlink:href="#Roboto-Regular-31"/>
      </g>
     </g>
    </g>
    <g id="ytick_5">
     <g id="line2d_17">
      <g>
       <use xlink:href="#mcfafce6e08" x="47.387" y="68.000364" style="fill: #c2c1c1; stroke: #c2c1c1; stroke-width: 0.8"/>
      </g>
     </g>
     <g id="text_15">
      <!-- 2 -->
      <g style="fill: #191919" transform="translate(34.766687 71.750364) scale(0.1 -0.1)">
       <use xlink:href="#Roboto-Regular-32"/>
      </g>
     </g>
    </g>
    <g id="ytick_6">
     <g id="line2d_18">
      <g>
       <use xlink:href="#mcfafce6e08" x="47.387" y="16.74" style="fill: #c2c1c1; stroke: #c2c1c1; stroke-width: 0.8"/>
      </g>
     </g>
     <g id="text_16">
      <!-- 3 -->
      <g style="fill: #191919" transform="translate(34.766687 20.49) scale(0.1 -0.1)">
       <use xlink:href="#Roboto-Regular-33"/>
      </g>
     </g>
    </g>
    <g id="text_17">
     <!-- PMF [kcal/mol] -->
     <g style="fill: #191919" transform="translate(22.612 198.568813) rotate(-90) scale(0.12 -0.12)">
      <defs>
       <path id="Roboto-Black-50" d="M 1444 1544 
L 1444 0 
L 347 0 
L 347 4550 
L 2163 4550 
Q 2981 4550 3453 4112 
Q 3925 3675 3925 3006 
Q 3925 2344 3453 1944 
Q 2981 1544 2163 1544 
L 1444 1544 
z
M 1444 3703 
L 1444 2391 
L 2163 2391 
Q 2506 2391 2661 2562 
Q 2816 2734 2816 3000 
Q 2816 3278 2661 3490 
Q 2506 3703 2163 3703 
L 1444 3703 
z
" transform="scale(0.015625)"/>
       <path id="Roboto-Black-4d" d="M 2800 1384 
L 3816 4550 
L 5256 4550 
L 5256 0 
L 4156 0 
L 4156 1063 
L 4263 3238 
L 3163 0 
L 2438 0 
L 1338 3238 
L 1444 1063 
L 1444 0 
L 347 0 
L 347 4550 
L 1784 4550 
L 2800 1384 
z
" transform="scale(0.015625)"/>
       <path id="Roboto-Black-46" d="M 347 0 
L 347 4550 
L 3391 4550 
L 3391 3703 
L 1444 3703 
L 1444 2656 
L 3213 2656 
L 3213 1813 
L 1444 1813 
L 1444 0 
L 347 0 
z
" transform="scale(0.015625)"/>
       <path id="Roboto-Black-6b" d="M 2394 0 
L 1653 1259 
L 1359 966 
L 1359 0 
L 306 0 
L 306 4803 
L 1359 4803 
L 1359 2256 
L 2259 3381 
L 3522 3381 
L 2334 1991 
L 3600 0 
L 2394 0 
z
" transform="scale(0.015625)"/>
       <path id="Roboto-Black-6c" d="M 1409 4800 
L 1409 0 
L 353 0 
L 353 4800 
L 1409 4800 
z
" transform="scale(0.015625)"/>
       <path id="Roboto-Black-2f" d="M 2216 4550 
L 659 -391 
L -91 -391 
L 1466 4550 
L 2216 4550 
z
" transform="scale(0.015625)"/>
       <path id="Roboto-Black-6d" d="M 1819 2631 
Q 1522 2631 1359 2353 
L 1359 0 
L 306 0 
L 306 3381 
L 1294 3381 
L 1331 2984 
Q 1681 3444 2294 3444 
Q 2925 3444 3159 2934 
Q 3500 3444 4150 3444 
Q 4609 3444 4906 3156 
Q 5203 2869 5206 2144 
L 5206 0 
L 4150 0 
L 4150 2128 
Q 4150 2444 4042 2537 
Q 3934 2631 3747 2631 
Q 3431 2631 3278 2353 
L 3281 0 
L 2228 0 
L 2228 2122 
Q 2228 2444 2120 2537 
Q 2013 2631 1819 2631 
z
" transform="scale(0.015625)"/>
       <path id="Roboto-Black-6f" d="M 166 1722 
Q 166 2463 583 2953 
Q 1000 3444 1794 3444 
Q 2591 3444 3009 2953 
Q 3428 2463 3428 1722 
L 3428 1656 
Q 3428 916 3011 426 
Q 2594 -63 1800 -63 
Q 1013 -63 595 414 
Q 178 891 166 1616 
L 166 1722 
z
M 1219 1656 
Q 1219 1275 1339 1012 
Q 1459 750 1800 750 
Q 2131 750 2253 1011 
Q 2375 1272 2375 1722 
Q 2375 2094 2254 2362 
Q 2134 2631 1794 2631 
Q 1463 2631 1341 2364 
Q 1219 2097 1219 1656 
z
" transform="scale(0.015625)"/>
      </defs>
      <use xlink:href="#Roboto-Black-50"/>
      <use xlink:href="#Roboto-Black-4d" x="65.136719"/>
      <use xlink:href="#Roboto-Black-46" x="152.783203"/>
      <use xlink:href="#Roboto-Black-20" x="207.470703"/>
      <use xlink:href="#Roboto-Black-5b" x="232.373047"/>
      <use xlink:href="#Roboto-Black-6b" x="260.595703"/>
      <use xlink:href="#Roboto-Black-63" x="315.283203"/>
      <use xlink:href="#Roboto-Black-61" x="367.285156"/>
      <use xlink:href="#Roboto-Black-6c" x="420.410156"/>
      <use xlink:href="#Roboto-Black-2f" x="447.900391"/>
      <use xlink:href="#Roboto-Black-6d" x="483.007812"/>
      <use xlink:href="#Roboto-Black-6f" x="569.140625"/>
      <use xlink:href="#Roboto-Black-6c" x="625.341797"/>
      <use xlink:href="#Roboto-Black-5d" x="652.832031"/>
     </g>
    </g>
   </g>
   <g id="line2d_19">
    <path d="M 110.206512 -1 
L 110.419997 3.471953 
L 111.404887 21.457611 
L 112.389778 37.235486 
L 113.374668 51.159308 
L 114.359559 63.454098 
L 115.34445 74.214359 
L 116.32934 83.455446 
L 117.314231 91.197991 
L 118.299121 97.548284 
L 119.284012 102.7478 
L 123.223574 120.883401 
L 126.178246 137.936461 
L 127.163136 142.800567 
L 128.148027 146.814227 
L 129.132918 150.031912 
L 130.117808 152.632147 
L 131.102699 154.8068 
L 133.07248 158.38038 
L 135.042261 161.623467 
L 138.981823 168.543241 
L 139.966714 169.580229 
L 140.951604 170.210064 
L 141.936495 170.558228 
L 143.906276 170.871475 
L 146.860948 171.128074 
L 148.830729 171.726718 
L 150.80051 172.440029 
L 152.770291 172.807661 
L 154.740072 173.043843 
L 155.724963 173.299341 
L 156.709854 173.71915 
L 157.694744 174.313707 
L 158.679635 175.07731 
L 159.664525 176.005966 
L 161.634306 178.289658 
L 164.588978 181.899704 
L 167.54365 185.313137 
L 169.513431 188.091579 
L 174.437884 195.842027 
L 177.392556 200.14626 
L 179.362337 203.661565 
L 183.301899 210.97894 
L 185.27168 214.700462 
L 187.241461 219.019659 
L 189.211242 223.364779 
L 191.181024 226.901007 
L 197.090367 235.920664 
L 199.060148 239.295117 
L 201.029929 242.227956 
L 203.984601 246.256884 
L 207.924163 251.989015 
L 209.893945 254.264849 
L 213.833507 258.353327 
L 217.773069 262.949608 
L 219.74285 264.888192 
L 221.712631 266.534345 
L 223.682413 267.904937 
L 225.652194 269.041351 
L 227.621975 269.996796 
L 230.576647 271.086597 
L 233.531318 272.181869 
L 236.48599 273.342377 
L 238.455771 273.830266 
L 240.425552 273.899634 
L 242.395333 273.647537 
L 247.319786 272.674778 
L 250.274458 271.895967 
L 252.244239 271.037902 
L 254.21402 269.848163 
L 262.093145 264.512396 
L 269.972269 258.260426 
L 272.926941 255.409607 
L 275.881613 252.430391 
L 277.851394 250.184233 
L 287.7003 237.637669 
L 289.670081 234.891065 
L 291.639862 232.629204 
L 297.549206 226.773567 
L 301.488768 223.370902 
L 304.44344 220.549099 
L 306.413221 219.176327 
L 311.337674 216.412259 
L 313.307455 214.711187 
L 315.277236 212.985494 
L 319.216798 209.791639 
L 320.201689 208.97778 
L 321.186579 208.335358 
L 322.17147 207.949196 
L 323.15636 207.798591 
L 325.126142 207.694839 
L 326.111032 207.494716 
L 328.080813 206.705028 
L 330.050594 205.665313 
L 333.005266 203.912433 
L 333.990157 203.486431 
L 339.8995 201.666783 
L 341.869281 200.724211 
L 343.839062 199.437921 
L 348.763515 195.761196 
L 351.718187 193.880878 
L 352.703078 193.009163 
L 353.687968 191.896359 
L 362.551983 180.427311 
L 366.491546 176.225821 
L 367.476436 174.707134 
L 369.446217 170.845493 
L 371.415998 166.746178 
L 372.400889 164.993206 
L 373.38578 163.588044 
L 374.37067 162.579815 
L 375.355561 161.944324 
L 378.310232 160.703363 
L 379.295123 159.7865 
L 380.280014 158.444557 
L 383.234685 153.654574 
L 385.204466 150.608693 
L 387.174248 146.635889 
L 389.144029 142.521111 
L 390.128919 140.845398 
L 392.098701 138.186877 
L 394.068482 135.519675 
L 395.053372 133.865901 
L 396.038263 131.877847 
L 397.023153 129.501191 
L 399.977825 121.149618 
L 400.962716 118.989569 
L 401.947606 117.579612 
L 402.932497 116.753633 
L 403.917387 116.086162 
L 404.902278 115.158221 
L 405.887169 113.74843 
L 406.872059 111.849291 
L 408.84184 107.046417 
L 410.811621 101.521223 
L 415.736074 87.280357 
L 416.720965 84.743455 
L 417.705855 82.607532 
L 418.690746 81.024427 
L 420.660527 78.792016 
L 421.645418 77.349822 
L 422.630308 75.381639 
L 423.615199 73.123468 
L 424.600089 71.198716 
L 425.58498 70.216766 
L 427.554761 69.895353 
L 428.539652 68.407335 
L 429.524542 64.821312 
L 430.509433 58.963263 
L 433.464105 36.148099 
L 434.448995 32.032595 
L 435.433886 31.589962 
L 436.418776 34.166853 
L 438.388557 41.648316 
L 439.373448 43.836172 
L 440.358339 44.550945 
L 442.32812 44.320965 
L 443.31301 44.749067 
L 445.282791 46.196379 
L 446.267682 46.292447 
L 447.252573 45.62155 
L 448.237463 44.041914 
L 449.222354 41.281796 
L 450.207244 36.894308 
L 451.192135 30.489505 
L 453.161916 14.496793 
L 454.146807 11.221504 
L 455.131697 14.738092 
L 456.116588 21.553179 
L 457.101478 27.348048 
L 458.086369 30.151329 
L 459.071259 29.602851 
L 460.05615 26.158758 
L 461.8 16.320345 
L 461.8 16.320345 
" clip-path="url(#p31563ee49c)" style="fill: none; stroke: #f99752; stroke-width: 2.5; stroke-linecap: square"/>
   </g>
   <g id="patch_3">
    <path d="M 47.387 298.672 
L 47.387 16.74 
" style="fill: none; stroke: #c2c1c1; stroke-width: 0.8; stroke-linejoin: miter; stroke-linecap: square"/>
   </g>
   <g id="patch_4">
    <path d="M 440.9055 298.672 
L 440.9055 16.74 
" style="fill: none; stroke: #c2c1c1; stroke-width: 0.8; stroke-linejoin: miter; stroke-linecap: square"/>
   </g>
   <g id="patch_5">
    <path d="M 47.387 298.672 
L 440.9055 298.672 
" style="fill: none; stroke: #c2c1c1; stroke-width: 0.8; stroke-linejoin: miter; stroke-linecap: square"/>
   </g>
   <g id="patch_6">
    <path d="M 47.387 16.74 
L 440.9055 16.74 
" style="fill: none; stroke: #c2c1c1; stroke-width: 0.8; stroke-linejoin: miter; stroke-linecap: square"/>
   </g>
   <g id="legend_1">
    <g id="line2d_20">
     <path d="M 58.187 245.416375 
L 70.187 245.416375 
L 82.187 245.416375 
" style="fill: none; stroke: #1e2e79; stroke-width: 2.5; stroke-linecap: square"/>
    </g>
    <g id="text_18">
     <!-- Reduced -->
     <g transform="translate(91.787 249.616375) scale(0.12 -0.12)">
      <defs>
       <path id="Roboto-Regular-52" d="M 3188 0 
L 2200 1844 
L 1131 1844 
L 1131 0 
L 528 0 
L 528 4550 
L 2034 4550 
Q 2800 4550 3214 4200 
Q 3628 3850 3628 3184 
Q 3628 2759 3398 2442 
Q 3169 2125 2763 1969 
L 3831 38 
L 3831 0 
L 3188 0 
z
M 1131 4056 
L 1131 2334 
L 2053 2334 
Q 2538 2334 2783 2582 
Q 3028 2831 3028 3184 
Q 3028 3578 2792 3817 
Q 2556 4056 2034 4056 
L 1131 4056 
z
" transform="scale(0.015625)"/>
       <path id="Roboto-Regular-65" d="M 3116 591 
Q 2950 341 2647 139 
Q 2344 -63 1844 -63 
Q 1138 -63 714 396 
Q 291 856 291 1572 
L 291 1703 
Q 291 2256 502 2645 
Q 713 3034 1050 3239 
Q 1388 3444 1769 3444 
Q 2494 3444 2826 2970 
Q 3159 2497 3159 1788 
L 3159 1528 
L 872 1528 
Q 884 1063 1148 736 
Q 1413 409 1875 409 
Q 2181 409 2393 534 
Q 2606 659 2766 869 
L 3116 591 
z
M 1769 2969 
Q 1425 2969 1187 2719 
Q 950 2469 891 2000 
L 2581 2000 
L 2581 2044 
Q 2559 2381 2386 2675 
Q 2213 2969 1769 2969 
z
" transform="scale(0.015625)"/>
       <path id="Roboto-Regular-64" d="M 2622 0 
L 2594 363 
Q 2247 -63 1628 -63 
Q 1034 -63 668 418 
Q 303 900 297 1628 
L 297 1719 
Q 297 2494 664 2969 
Q 1031 3444 1634 3444 
Q 2231 3444 2572 3044 
L 2572 4800 
L 3153 4800 
L 3153 0 
L 2622 0 
z
M 878 1653 
Q 878 1150 1090 789 
Q 1303 428 1772 428 
Q 2309 428 2572 919 
L 2572 2475 
Q 2313 2956 1778 2956 
Q 1306 2956 1092 2589 
Q 878 2222 878 1719 
L 878 1653 
z
" transform="scale(0.015625)"/>
       <path id="Roboto-Regular-75" d="M 2538 0 
L 2525 334 
Q 2194 -63 1538 -63 
Q 1041 -63 734 231 
Q 428 525 428 1200 
L 428 3381 
L 1006 3381 
L 1006 1194 
Q 1006 738 1198 583 
Q 1391 428 1628 428 
Q 2281 428 2509 919 
L 2509 3381 
L 3091 3381 
L 3091 0 
L 2538 0 
z
" transform="scale(0.015625)"/>
       <path id="Roboto-Regular-63" d="M 1794 413 
Q 2103 413 2336 597 
Q 2569 781 2591 1069 
L 3141 1069 
Q 3119 616 2725 276 
Q 2331 -63 1794 -63 
Q 1031 -63 661 440 
Q 291 944 291 1625 
L 291 1756 
Q 291 2438 661 2941 
Q 1031 3444 1794 3444 
Q 2388 3444 2753 3092 
Q 3119 2741 3141 2219 
L 2591 2219 
Q 2569 2531 2355 2750 
Q 2141 2969 1794 2969 
Q 1438 2969 1236 2787 
Q 1034 2606 951 2328 
Q 869 2050 869 1756 
L 869 1625 
Q 869 1328 950 1050 
Q 1031 772 1232 592 
Q 1434 413 1794 413 
z
" transform="scale(0.015625)"/>
      </defs>
      <use xlink:href="#Roboto-Regular-52"/>
      <use xlink:href="#Roboto-Regular-65" x="61.621094"/>
      <use xlink:href="#Roboto-Regular-64" x="114.648438"/>
      <use xlink:href="#Roboto-Regular-75" x="171.044922"/>
      <use xlink:href="#Roboto-Regular-63" x="226.171875"/>
      <use xlink:href="#Roboto-Regular-65" x="278.515625"/>
      <use xlink:href="#Roboto-Regular-64" x="331.542969"/>
     </g>
    </g>
    <g id="line2d_21">
     <path d="M 58.187 262.853875 
L 70.187 262.853875 
L 82.187 262.853875 
" style="fill: none; stroke: #ec4067; stroke-width: 2.5; stroke-linecap: square"/>
    </g>
    <g id="text_19">
     <!-- Oxidized -->
     <g transform="translate(91.787 267.053875) scale(0.12 -0.12)">
      <defs>
       <path id="Roboto-Regular-4f" d="M 4031 2131 
Q 4031 1106 3534 521 
Q 3038 -63 2206 -63 
Q 1397 -63 884 521 
Q 372 1106 372 2131 
L 372 2419 
Q 372 3441 881 4027 
Q 1391 4613 2200 4613 
Q 3025 4613 3523 4036 
Q 4022 3459 4031 2456 
L 4031 2131 
z
M 3434 2425 
Q 3434 3238 3109 3669 
Q 2784 4100 2200 4100 
Q 1641 4100 1305 3669 
Q 969 3238 969 2425 
L 969 2131 
Q 969 1313 1308 880 
Q 1647 447 2206 447 
Q 2794 447 3114 880 
Q 3434 1313 3434 2131 
L 3434 2425 
z
" transform="scale(0.015625)"/>
       <path id="Roboto-Regular-78" d="M 831 3381 
L 1572 2150 
L 2322 3381 
L 3000 3381 
L 1894 1713 
L 3034 0 
L 2366 0 
L 1584 1269 
L 803 0 
L 131 0 
L 1269 1713 
L 166 3381 
L 831 3381 
z
" transform="scale(0.015625)"/>
       <path id="Roboto-Regular-69" d="M 444 4278 
Q 444 4419 530 4516 
Q 616 4613 784 4613 
Q 950 4613 1039 4516 
Q 1128 4419 1128 4278 
Q 1128 4144 1039 4048 
Q 950 3953 784 3953 
Q 616 3953 530 4048 
Q 444 4144 444 4278 
z
M 1069 3381 
L 1069 0 
L 488 0 
L 488 3381 
L 1069 3381 
z
" transform="scale(0.015625)"/>
       <path id="Roboto-Regular-7a" d="M 303 2903 
L 303 3381 
L 2869 3381 
L 2869 2972 
L 988 475 
L 2959 475 
L 2959 0 
L 278 0 
L 278 425 
L 2141 2903 
L 303 2903 
z
" transform="scale(0.015625)"/>
      </defs>
      <use xlink:href="#Roboto-Regular-4f"/>
      <use xlink:href="#Roboto-Regular-78" x="68.798828"/>
      <use xlink:href="#Roboto-Regular-69" x="118.408203"/>
      <use xlink:href="#Roboto-Regular-64" x="142.724609"/>
      <use xlink:href="#Roboto-Regular-69" x="199.121094"/>
      <use xlink:href="#Roboto-Regular-7a" x="223.4375"/>
      <use xlink:href="#Roboto-Regular-65" x="273.046875"/>
      <use xlink:href="#Roboto-Regular-64" x="326.074219"/>
     </g>
    </g>
    <g id="line2d_22">
     <path d="M 58.187 280.917625 
L 70.187 280.917625 
L 82.187 280.917625 
" style="fill: none; stroke: #f99752; stroke-width: 2.5; stroke-linecap: square"/>
    </g>
    <g id="text_20">
     <!-- Cu(I) -->
     <g transform="translate(91.787 285.117625) scale(0.12 -0.12)">
      <defs>
       <path id="Roboto-Regular-43" d="M 3275 1447 
L 3875 1447 
Q 3806 800 3387 368 
Q 2969 -63 2150 -63 
Q 1356 -63 870 504 
Q 384 1072 375 2013 
L 375 2500 
Q 375 3456 867 4034 
Q 1359 4613 2203 4613 
Q 2975 4613 3390 4188 
Q 3806 3763 3875 3091 
L 3275 3091 
Q 3206 3566 2968 3842 
Q 2731 4119 2203 4119 
Q 1600 4119 1287 3675 
Q 975 3231 975 2506 
L 975 2047 
Q 975 1375 1259 901 
Q 1544 428 2150 428 
Q 2725 428 2961 697 
Q 3197 966 3275 1447 
z
" transform="scale(0.015625)"/>
       <path id="Roboto-Regular-28" d="M 419 1850 
Q 419 2756 678 3434 
Q 938 4113 1294 4541 
Q 1650 4969 1947 5134 
L 2069 4753 
Q 1700 4475 1348 3761 
Q 997 3047 997 1813 
Q 997 625 1348 -97 
Q 1700 -819 2069 -1119 
L 1947 -1469 
Q 1650 -1306 1294 -878 
Q 938 -450 678 226 
Q 419 903 419 1850 
z
" transform="scale(0.015625)"/>
       <path id="Roboto-Regular-49" d="M 1175 4550 
L 1175 0 
L 572 0 
L 572 4550 
L 1175 4550 
z
" transform="scale(0.015625)"/>
       <path id="Roboto-Regular-29" d="M 1772 1819 
Q 1772 906 1512 228 
Q 1253 -450 895 -878 
Q 538 -1306 244 -1469 
L 122 -1119 
Q 488 -841 841 -109 
Q 1194 622 1194 1856 
Q 1194 2647 1019 3236 
Q 844 3825 594 4212 
Q 344 4600 122 4781 
L 244 5134 
Q 538 4969 895 4541 
Q 1253 4113 1512 3436 
Q 1772 2759 1772 1819 
z
" transform="scale(0.015625)"/>
      </defs>
      <use xlink:href="#Roboto-Regular-43"/>
      <use xlink:href="#Roboto-Regular-75" x="65.087891"/>
      <use xlink:href="#Roboto-Regular-28" x="120.214844"/>
      <use xlink:href="#Roboto-Regular-49" x="154.443359"/>
      <use xlink:href="#Roboto-Regular-29" x="181.640625"/>
     </g>
    </g>
   </g>
  </g>
 </g>
 <defs>
  <clipPath id="p31563ee49c">
   <rect x="47.387" y="16.74" width="393.5185" height="281.932"/>
  </clipPath>
 </defs>
</svg>
