<?xml version="1.0" encoding="utf-8" standalone="no"?>
<!DOCTYPE svg PUBLIC "-//W3C//DTD SVG 1.1//EN"
  "http://www.w3.org/Graphics/SVG/1.1/DTD/svg11.dtd">
<svg xmlns:xlink="http://www.w3.org/1999/xlink" width="460.8pt" height="345.6pt" viewBox="0 0 460.8 345.6" xmlns="http://www.w3.org/2000/svg" version="1.1">
 <metadata>
  <rdf:RDF xmlns:dc="http://purl.org/dc/elements/1.1/" xmlns:cc="http://creativecommons.org/ns#" xmlns:rdf="http://www.w3.org/1999/02/22-rdf-syntax-ns#">
   <cc:Work>
    <dc:type rdf:resource="http://purl.org/dc/dcmitype/StillImage"/>
    <dc:date>2024-07-06T13:02:41.556284</dc:date>
    <dc:format>image/svg+xml</dc:format>
    <dc:creator>
     <cc:Agent>
      <dc:title>Matplotlib v3.8.4, https://matplotlib.org/</dc:title>
     </cc:Agent>
    </dc:creator>
   </cc:Work>
  </rdf:RDF>
 </metadata>
 <defs>
  <style type="text/css">*{stroke-linejoin: round; stroke-linecap: butt}</style>
 </defs>
 <g id="figure_1">
  <g id="patch_1">
   <path d="M 0 345.6 
L 460.8 345.6 
L 460.8 0 
L 0 0 
z
" style="fill: #ffffff"/>
  </g>
  <g id="axes_1">
   <g id="patch_2">
    <path d="M 47.81 302.8525 
L 446.805 302.8525 
L 446.805 10.8 
L 47.81 10.8 
z
" style="fill: #ffffff"/>
   </g>
   <g id="line2d_1">
    <path d="M -1 302.8525 
L 74.502859 302.754218 
L 76.499831 302.428809 
L 77.831145 301.713807 
L 78.496803 301.209653 
L 79.16246 299.976024 
L 79.828117 298.281619 
L 80.493775 295.944288 
L 81.159432 292.241489 
L 82.490747 282.823094 
L 83.156404 276.343306 
L 83.822061 266.871276 
L 85.819033 232.037262 
L 86.484691 219.414577 
L 89.14732 160.1446 
L 91.144292 121.000445 
L 93.806921 80.605602 
L 94.472578 75.05188 
L 95.138236 72.393442 
L 95.803893 68.849618 
L 96.46955 67.75749 
L 97.800865 72.760466 
L 98.466522 76.043391 
L 99.13218 80.846905 
L 101.794809 108.370248 
L 103.126124 129.141649 
L 107.785725 188.248858 
L 108.451382 196.013131 
L 112.445326 232.175302 
L 113.776641 239.987946 
L 114.442298 244.867665 
L 116.43927 256.417717 
L 117.770585 262.284382 
L 118.436242 266.938294 
L 119.101899 269.630808 
L 119.767557 270.523436 
L 120.433214 272.157705 
L 122.430186 279.051162 
L 123.761501 281.676098 
L 124.427158 283.661924 
L 125.092815 284.849696 
L 125.758473 285.341865 
L 126.42413 286.608992 
L 127.089787 287.449772 
L 127.755445 287.863214 
L 129.086759 289.567775 
L 130.418074 292.075735 
L 132.415046 293.909314 
L 133.080703 293.857792 
L 133.746361 293.613643 
L 134.412018 293.675387 
L 136.40899 295.035365 
L 137.074647 295.377657 
L 138.405962 295.674037 
L 139.737276 294.966222 
L 140.402934 295.365375 
L 141.068591 295.990705 
L 142.399906 295.275894 
L 143.065563 295.533535 
L 143.73122 295.64218 
L 144.396878 295.401361 
L 145.062535 294.914876 
L 146.39385 295.083355 
L 147.059507 294.837608 
L 147.725164 295.081618 
L 148.390822 295.650407 
L 149.056479 295.680233 
L 150.387794 296.07352 
L 151.053451 295.852194 
L 151.719108 295.776646 
L 153.050423 295.855866 
L 153.71608 295.768049 
L 154.381738 294.888735 
L 155.047395 294.855929 
L 155.713052 295.178064 
L 156.37871 295.15076 
L 157.044367 295.423844 
L 158.375682 295.079669 
L 159.041339 295.437791 
L 159.706996 296.164933 
L 160.372653 296.167822 
L 161.703968 296.4757 
L 162.369625 296.072896 
L 163.035283 295.477802 
L 163.70094 295.171316 
L 164.366597 294.999275 
L 165.032255 294.64984 
L 165.697912 294.521622 
L 167.029227 293.887602 
L 167.694884 293.955121 
L 168.360541 293.462396 
L 169.026199 292.185308 
L 169.691856 291.545326 
L 170.357513 291.39112 
L 171.023171 290.847911 
L 171.688828 290.011131 
L 172.354485 289.544618 
L 173.6858 287.3476 
L 174.351457 287.642376 
L 175.017115 286.771051 
L 176.348429 282.004561 
L 177.014087 280.888814 
L 177.679744 280.496918 
L 178.345401 279.484853 
L 179.676716 276.804476 
L 181.008031 273.583894 
L 181.673688 273.217935 
L 182.339345 272.677225 
L 183.67066 270.091038 
L 185.001974 268.726108 
L 185.667632 266.990237 
L 186.333289 265.628589 
L 186.998946 264.758694 
L 187.664604 266.115395 
L 188.330261 268.235987 
L 188.995918 267.856421 
L 189.661576 265.842457 
L 190.327233 264.402951 
L 190.99289 264.370812 
L 191.658548 264.788917 
L 192.324205 265.549338 
L 192.989862 265.819109 
L 193.65552 266.273088 
L 194.321177 267.261076 
L 195.652492 268.313356 
L 196.318149 268.383313 
L 196.983806 268.598354 
L 197.649464 269.451101 
L 198.315121 269.49278 
L 198.980778 269.331758 
L 200.312093 272.542517 
L 200.97775 272.814181 
L 201.643408 272.497559 
L 202.309065 272.72148 
L 202.974722 272.649663 
L 203.64038 271.846397 
L 204.306037 271.951065 
L 204.971694 273.476264 
L 206.303009 274.569232 
L 206.968666 274.763097 
L 208.299981 276.181494 
L 208.965638 276.073451 
L 210.296953 274.469733 
L 210.96261 274.97741 
L 211.628267 275.141681 
L 212.293925 275.512676 
L 212.959582 276.283923 
L 213.625239 276.622385 
L 214.290897 275.707925 
L 214.956554 275.005983 
L 215.622211 275.206743 
L 216.287869 274.798652 
L 216.953526 275.019013 
L 217.619183 275.733433 
L 218.284841 276.05246 
L 218.950498 275.231078 
L 220.281813 275.331585 
L 220.94747 275.019699 
L 221.613127 274.218826 
L 222.278785 272.911802 
L 222.944442 272.472797 
L 224.275757 274.141213 
L 224.941414 274.177438 
L 225.607071 273.487399 
L 226.272729 273.327823 
L 226.938386 274.59971 
L 227.604043 275.580855 
L 228.269701 275.486802 
L 228.935358 274.112873 
L 229.601015 273.22896 
L 230.266673 273.161299 
L 230.93233 273.444933 
L 232.263644 272.802815 
L 232.929302 273.858044 
L 233.594959 273.830881 
L 234.260616 273.147057 
L 234.926274 273.04668 
L 235.591931 273.559337 
L 236.257588 274.757779 
L 236.923246 274.772989 
L 237.588903 274.016842 
L 238.25456 274.193883 
L 238.920218 274.59873 
L 239.585875 274.280592 
L 240.91719 274.866374 
L 241.582847 274.334018 
L 242.248504 274.033988 
L 242.914162 274.326529 
L 243.579819 276.288098 
L 244.245476 277.066499 
L 245.576791 275.943609 
L 246.242448 275.506914 
L 246.908106 274.791802 
L 247.573763 274.515637 
L 248.23942 274.750691 
L 248.905078 275.154244 
L 249.570735 275.350391 
L 250.236392 276.299604 
L 251.567707 278.689948 
L 252.233364 279.142105 
L 252.899022 277.320738 
L 253.564679 276.364629 
L 254.230336 277.237254 
L 254.895993 277.011918 
L 255.561651 276.591379 
L 256.227308 276.842845 
L 256.892965 277.303658 
L 257.558623 277.062264 
L 258.22428 277.678359 
L 258.889937 278.624558 
L 259.555595 279.162455 
L 260.886909 280.809113 
L 261.552567 280.790851 
L 262.218224 280.01148 
L 262.883881 278.923875 
L 264.215196 276.004404 
L 264.880853 276.431183 
L 266.212168 277.76614 
L 268.20914 279.720739 
L 268.874797 279.201018 
L 269.540455 277.867737 
L 270.206112 277.410001 
L 270.871769 277.880175 
L 272.203084 278.227119 
L 272.868741 278.042475 
L 273.534399 277.979591 
L 274.865713 279.900465 
L 275.531371 279.244978 
L 276.197028 279.04162 
L 276.862685 280.002024 
L 277.528343 280.159364 
L 278.194 279.164642 
L 278.859657 278.477993 
L 279.525314 279.105951 
L 280.190972 280.315021 
L 280.856629 280.298433 
L 281.522286 279.806458 
L 282.187944 278.986382 
L 282.853601 277.620141 
L 283.519258 277.130226 
L 284.184916 277.735371 
L 285.51623 279.467121 
L 286.181888 279.409676 
L 286.847545 278.530771 
L 288.17886 277.996509 
L 289.510174 279.90018 
L 290.841489 278.029909 
L 292.172804 279.792003 
L 292.838461 279.143402 
L 293.504118 277.941093 
L 294.169776 278.380156 
L 294.835433 279.350478 
L 296.166748 278.996279 
L 296.832405 279.537726 
L 297.498062 279.268801 
L 298.16372 278.540983 
L 298.829377 278.976424 
L 299.495034 279.607858 
L 300.826349 279.891934 
L 301.492006 280.215222 
L 302.823321 278.883012 
L 303.488978 280.129616 
L 304.154635 281.079435 
L 304.820293 280.146842 
L 305.48595 278.756257 
L 306.151607 279.343652 
L 306.817265 281.121551 
L 307.482922 281.639474 
L 308.148579 280.212436 
L 308.814237 279.269614 
L 309.479894 278.794454 
L 310.811209 280.552052 
L 311.476866 280.772533 
L 312.142523 281.45417 
L 312.808181 281.7452 
L 313.473838 281.545936 
L 314.139495 280.921587 
L 314.805153 280.460953 
L 316.136467 281.960239 
L 316.802125 281.699735 
L 317.467782 282.029945 
L 318.133439 282.592664 
L 318.799097 282.802356 
L 319.464754 282.752814 
L 320.130411 282.216399 
L 320.796069 282.21102 
L 321.461726 282.377462 
L 322.127383 282.772943 
L 323.458698 282.791601 
L 324.124355 283.462682 
L 324.790013 283.925526 
L 325.45567 283.102632 
L 326.121327 282.529538 
L 326.786984 282.792463 
L 327.452642 283.620468 
L 328.118299 284.266278 
L 328.783956 284.407891 
L 329.449614 284.417621 
L 330.115271 283.997389 
L 330.780928 283.820887 
L 331.446586 284.418746 
L 332.112243 285.27932 
L 332.7779 285.484982 
L 333.443558 285.105159 
L 334.109215 285.56671 
L 334.774872 286.415081 
L 335.44053 286.92085 
L 336.106187 286.518234 
L 336.771844 286.306366 
L 337.437502 285.899208 
L 338.103159 284.844682 
L 338.768816 285.33961 
L 339.434474 286.08837 
L 340.100131 286.079319 
L 340.765788 286.199133 
L 341.431446 287.014257 
L 342.097103 287.268438 
L 342.76276 286.82584 
L 343.428418 286.856559 
L 344.094075 287.39545 
L 345.42539 287.217331 
L 346.091047 287.397756 
L 346.756704 288.162998 
L 347.422362 289.389115 
L 348.088019 290.206159 
L 348.753676 289.968569 
L 349.419334 289.027281 
L 350.084991 289.078453 
L 350.750648 290.248608 
L 351.416305 290.87813 
L 352.081963 290.26432 
L 352.74762 289.917062 
L 354.078935 288.693692 
L 354.744592 289.386597 
L 355.410249 290.33098 
L 356.075907 290.83207 
L 357.407221 291.148927 
L 358.738536 291.031103 
L 359.404193 290.584322 
L 360.069851 290.95959 
L 360.735508 292.075957 
L 361.401165 292.90825 
L 362.73248 292.349258 
L 363.398137 292.727317 
L 364.063795 292.345774 
L 364.729452 291.791076 
L 365.395109 292.289604 
L 366.060767 292.382173 
L 366.726424 291.725299 
L 367.392081 291.886447 
L 368.057739 292.64157 
L 368.723396 293.130837 
L 369.389053 293.437189 
L 370.720368 294.508082 
L 371.386025 294.29457 
L 372.051683 293.590044 
L 372.71734 293.545534 
L 374.048654 293.054821 
L 375.379969 294.563874 
L 376.711284 294.784246 
L 377.376941 295.017553 
L 378.708256 295.864056 
L 380.03957 295.528959 
L 380.705228 295.846112 
L 382.036542 296.845812 
L 382.7022 296.987141 
L 383.367857 296.348758 
L 384.033514 296.214869 
L 384.699172 296.981032 
L 385.364829 296.826525 
L 386.030486 295.779543 
L 386.696144 295.574259 
L 387.361801 295.714249 
L 388.027458 295.616906 
L 390.02443 296.835411 
L 390.690088 296.924379 
L 392.021402 297.343568 
L 393.352717 296.616022 
L 394.684032 297.537346 
L 396.015346 297.793644 
L 396.681004 297.465662 
L 397.346661 297.265206 
L 398.677975 298.072714 
L 400.00929 297.935111 
L 400.674947 297.84024 
L 401.340605 297.958027 
L 402.671919 297.184446 
L 404.668891 298.35012 
L 405.334549 298.853714 
L 406.665863 299.347096 
L 407.997178 298.924985 
L 408.662835 299.051109 
L 409.328493 299.042654 
L 409.99415 298.858664 
L 410.659807 298.475595 
L 411.325465 298.384027 
L 411.991122 298.943253 
L 412.656779 299.349723 
L 414.653751 299.364656 
L 415.985066 299.308347 
L 416.650723 299.740592 
L 417.316381 299.932335 
L 417.982038 299.627298 
L 419.313353 299.556759 
L 419.97901 299.30842 
L 420.644667 299.438861 
L 421.310324 299.95671 
L 421.975982 299.979529 
L 422.641639 299.70142 
L 423.307296 299.757873 
L 423.972954 300.034119 
L 424.638611 300.448559 
L 427.30124 300.770315 
L 428.632555 299.832705 
L 429.298212 300.042619 
L 429.96387 300.631156 
L 430.629527 300.671983 
L 431.295184 300.573503 
L 431.960842 300.820089 
L 432.626499 300.929417 
L 433.957814 300.791251 
L 437.2861 300.85232 
L 438.617415 300.629786 
L 439.283072 300.685466 
L 440.614387 301.157666 
L 441.280044 301.179807 
L 442.611359 300.966638 
L 443.277016 300.848958 
L 444.608331 300.944928 
L 445.939645 301.420379 
L 446.605303 301.322724 
L 447.936617 301.44161 
L 449.933589 301.704947 
L 450.599247 301.922082 
L 451.930561 302.011171 
L 452.596219 301.945526 
L 453.261876 301.743349 
L 453.927533 301.712725 
L 454.593191 301.825554 
L 455.924505 301.494169 
L 457.921477 302.097372 
L 459.252792 301.976451 
L 459.918449 302.130813 
L 460.584107 302.099806 
L 461.249764 301.720039 
L 461.8 301.713079 
L 461.8 301.713079 
" clip-path="url(#p55a53c08cc)" style="fill: none; stroke: #1e2e79; stroke-width: 2.5; stroke-linecap: square"/>
   </g>
   <g id="line2d_2">
    <path d="M -1 302.8525 
L 74.502859 302.787652 
L 76.499831 302.544283 
L 77.165488 302.371817 
L 77.831145 301.996201 
L 78.496803 301.334325 
L 79.16246 300.44659 
L 79.828117 299.331324 
L 80.493775 297.601955 
L 81.159432 294.721343 
L 81.825089 290.666154 
L 82.490747 285.269123 
L 83.156404 278.131063 
L 84.487719 260.426837 
L 85.153376 249.373174 
L 86.484691 221.225959 
L 93.141264 61.352968 
L 93.806921 51.261902 
L 94.472578 44.648554 
L 95.803893 37.282202 
L 97.135208 29.113535 
L 97.800865 25.737482 
L 98.466522 24.707262 
L 99.13218 27.68606 
L 99.797837 34.014511 
L 101.129152 50.791504 
L 103.126124 70.845269 
L 105.123096 101.29734 
L 106.45441 123.799542 
L 108.451382 149.019456 
L 109.782697 168.545598 
L 111.114012 183.304495 
L 113.776641 210.099803 
L 115.107955 223.658098 
L 115.773613 228.262631 
L 117.104927 235.713531 
L 119.101899 250.539618 
L 120.433214 255.591325 
L 121.764529 260.799009 
L 123.095843 266.198385 
L 124.427158 269.872637 
L 127.089787 279.581134 
L 127.755445 281.009442 
L 129.086759 282.701693 
L 130.418074 284.449744 
L 131.749389 287.333258 
L 132.415046 288.176235 
L 133.080703 288.724436 
L 133.746361 289.809455 
L 134.412018 291.110256 
L 135.077675 291.867746 
L 136.40899 292.048193 
L 137.074647 292.618855 
L 137.740304 293.701217 
L 138.405962 294.490425 
L 139.737276 294.557669 
L 140.402934 295.050551 
L 141.068591 295.722441 
L 141.734248 295.8984 
L 142.399906 295.736748 
L 143.065563 295.961589 
L 145.062535 297.697277 
L 146.39385 298.000266 
L 149.056479 299.3395 
L 149.722136 299.547525 
L 150.387794 299.62533 
L 152.384766 299.470393 
L 153.71608 299.043056 
L 154.381738 299.301089 
L 155.713052 300.60325 
L 156.37871 300.632034 
L 157.710024 299.988623 
L 158.375682 299.891168 
L 164.366597 300.248086 
L 165.032255 300.408814 
L 167.029227 300.614674 
L 168.360541 301.041279 
L 169.026199 301.088029 
L 169.691856 301.016212 
L 171.688828 300.332145 
L 173.020143 300.220445 
L 174.351457 299.719407 
L 175.017115 299.454871 
L 175.682772 299.460898 
L 177.014087 300.145057 
L 177.679744 300.160951 
L 179.011059 299.57083 
L 179.676716 299.256065 
L 180.342373 299.070725 
L 181.008031 299.086825 
L 181.673688 299.217059 
L 182.339345 299.178194 
L 183.67066 298.693146 
L 185.001974 298.634771 
L 186.333289 298.449652 
L 186.998946 298.321543 
L 188.330261 298.394819 
L 189.661576 298.800042 
L 191.658548 298.617617 
L 192.989862 299.112494 
L 193.65552 299.090882 
L 194.321177 298.900664 
L 194.986834 298.944737 
L 196.318149 299.333427 
L 197.649464 299.461829 
L 200.312093 300.221636 
L 204.306037 299.915401 
L 206.968666 300.65627 
L 208.299981 300.70562 
L 208.965638 300.807359 
L 210.296953 300.788146 
L 211.628267 301.136953 
L 212.293925 301.131159 
L 213.625239 300.872943 
L 217.619183 301.301931 
L 218.950498 301.289654 
L 219.616155 301.317682 
L 221.613127 300.987096 
L 224.275757 301.283309 
L 226.272729 301.234611 
L 227.604043 301.548075 
L 228.935358 301.548922 
L 230.266673 301.419012 
L 231.597987 301.435862 
L 233.594959 301.626707 
L 240.251532 301.792576 
L 241.582847 301.526566 
L 242.248504 301.594185 
L 243.579819 301.97976 
L 244.911134 302.012341 
L 246.908106 301.86892 
L 248.905078 301.428632 
L 250.90205 301.808617 
L 252.899022 301.417838 
L 254.230336 301.581129 
L 255.561651 301.667496 
L 256.892965 301.597382 
L 262.218224 300.9891 
L 263.549539 301.084302 
L 264.880853 301.233218 
L 265.546511 301.199381 
L 267.543483 300.750138 
L 270.206112 300.844974 
L 271.537427 300.697213 
L 272.203084 300.763467 
L 272.868741 300.973198 
L 273.534399 301.009303 
L 274.865713 300.647068 
L 276.197028 300.669486 
L 277.528343 300.923233 
L 278.859657 300.748058 
L 281.522286 300.304215 
L 282.187944 300.493013 
L 282.853601 300.807136 
L 283.519258 300.998074 
L 286.181888 300.821014 
L 287.513202 301.006278 
L 288.844517 301.194963 
L 291.507146 301.046507 
L 293.504118 301.247703 
L 294.169776 301.184625 
L 295.50109 300.880151 
L 298.16372 301.081587 
L 299.495034 301.551277 
L 300.826349 301.400463 
L 302.157663 301.265012 
L 303.488978 301.364573 
L 304.820293 301.673141 
L 306.151607 301.625445 
L 308.148579 301.507243 
L 310.145551 301.924052 
L 314.805153 301.887207 
L 316.136467 301.586792 
L 316.802125 301.625896 
L 318.133439 301.95153 
L 319.464754 301.998237 
L 320.796069 301.796077 
L 321.461726 301.853136 
L 322.793041 302.192622 
L 327.452642 302.250515 
L 329.449614 302.537858 
L 335.44053 302.190987 
L 337.437502 302.284206 
L 338.768816 302.160826 
L 340.765788 302.412418 
L 341.431446 302.513701 
L 344.759732 302.374852 
L 346.091047 302.336508 
L 348.088019 302.530112 
L 349.419334 302.500207 
L 350.750648 302.359418 
L 354.078935 302.575003 
L 358.072879 302.518395 
L 359.404193 302.413252 
L 362.73248 302.59374 
L 365.395109 302.472867 
L 368.723396 302.609586 
L 370.054711 302.637437 
L 372.71734 302.484618 
L 374.714312 302.738288 
L 392.68706 302.852499 
L 461.8 302.8525 
L 461.8 302.8525 
" clip-path="url(#p55a53c08cc)" style="fill: none; stroke: #ec4067; stroke-width: 2.5; stroke-linecap: square"/>
   </g>
   <g id="matplotlib.axis_1">
    <g id="xtick_1">
     <g id="line2d_3">
      <defs>
       <path id="m7ccb786604" d="M 0 0 
L 0 3.5 
" style="stroke: #000000; stroke-width: 0.8"/>
      </defs>
      <g>
       <use xlink:href="#m7ccb786604" x="47.81" y="302.8525" style="stroke: #000000; stroke-width: 0.8"/>
      </g>
     </g>
     <g id="text_1">
      <!-- 1 -->
      <g transform="translate(44.62875 317.450938) scale(0.1 -0.1)">
       <defs>
        <path id="DejaVuSans-31" d="M 794 531 
L 1825 531 
L 1825 4091 
L 703 3866 
L 703 4441 
L 1819 4666 
L 2450 4666 
L 2450 531 
L 3481 531 
L 3481 0 
L 794 0 
L 794 531 
z
" transform="scale(0.015625)"/>
       </defs>
       <use xlink:href="#DejaVuSans-31"/>
      </g>
     </g>
    </g>
    <g id="xtick_2">
     <g id="line2d_4">
      <g>
       <use xlink:href="#m7ccb786604" x="114.309167" y="302.8525" style="stroke: #000000; stroke-width: 0.8"/>
      </g>
     </g>
     <g id="text_2">
      <!-- 2 -->
      <g transform="translate(111.127917 317.450938) scale(0.1 -0.1)">
       <defs>
        <path id="DejaVuSans-32" d="M 1228 531 
L 3431 531 
L 3431 0 
L 469 0 
L 469 531 
Q 828 903 1448 1529 
Q 2069 2156 2228 2338 
Q 2531 2678 2651 2914 
Q 2772 3150 2772 3378 
Q 2772 3750 2511 3984 
Q 2250 4219 1831 4219 
Q 1534 4219 1204 4116 
Q 875 4013 500 3803 
L 500 4441 
Q 881 4594 1212 4672 
Q 1544 4750 1819 4750 
Q 2544 4750 2975 4387 
Q 3406 4025 3406 3419 
Q 3406 3131 3298 2873 
Q 3191 2616 2906 2266 
Q 2828 2175 2409 1742 
Q 1991 1309 1228 531 
z
" transform="scale(0.015625)"/>
       </defs>
       <use xlink:href="#DejaVuSans-32"/>
      </g>
     </g>
    </g>
    <g id="xtick_3">
     <g id="line2d_5">
      <g>
       <use xlink:href="#m7ccb786604" x="180.808333" y="302.8525" style="stroke: #000000; stroke-width: 0.8"/>
      </g>
     </g>
     <g id="text_3">
      <!-- 3 -->
      <g transform="translate(177.627083 317.450938) scale(0.1 -0.1)">
       <defs>
        <path id="DejaVuSans-33" d="M 2597 2516 
Q 3050 2419 3304 2112 
Q 3559 1806 3559 1356 
Q 3559 666 3084 287 
Q 2609 -91 1734 -91 
Q 1441 -91 1130 -33 
Q 819 25 488 141 
L 488 750 
Q 750 597 1062 519 
Q 1375 441 1716 441 
Q 2309 441 2620 675 
Q 2931 909 2931 1356 
Q 2931 1769 2642 2001 
Q 2353 2234 1838 2234 
L 1294 2234 
L 1294 2753 
L 1863 2753 
Q 2328 2753 2575 2939 
Q 2822 3125 2822 3475 
Q 2822 3834 2567 4026 
Q 2313 4219 1838 4219 
Q 1578 4219 1281 4162 
Q 984 4106 628 3988 
L 628 4550 
Q 988 4650 1302 4700 
Q 1616 4750 1894 4750 
Q 2613 4750 3031 4423 
Q 3450 4097 3450 3541 
Q 3450 3153 3228 2886 
Q 3006 2619 2597 2516 
z
" transform="scale(0.015625)"/>
       </defs>
       <use xlink:href="#DejaVuSans-33"/>
      </g>
     </g>
    </g>
    <g id="xtick_4">
     <g id="line2d_6">
      <g>
       <use xlink:href="#m7ccb786604" x="247.3075" y="302.8525" style="stroke: #000000; stroke-width: 0.8"/>
      </g>
     </g>
     <g id="text_4">
      <!-- 4 -->
      <g transform="translate(244.12625 317.450938) scale(0.1 -0.1)">
       <defs>
        <path id="DejaVuSans-34" d="M 2419 4116 
L 825 1625 
L 2419 1625 
L 2419 4116 
z
M 2253 4666 
L 3047 4666 
L 3047 1625 
L 3713 1625 
L 3713 1100 
L 3047 1100 
L 3047 0 
L 2419 0 
L 2419 1100 
L 313 1100 
L 313 1709 
L 2253 4666 
z
" transform="scale(0.015625)"/>
       </defs>
       <use xlink:href="#DejaVuSans-34"/>
      </g>
     </g>
    </g>
    <g id="xtick_5">
     <g id="line2d_7">
      <g>
       <use xlink:href="#m7ccb786604" x="313.806667" y="302.8525" style="stroke: #000000; stroke-width: 0.8"/>
      </g>
     </g>
     <g id="text_5">
      <!-- 5 -->
      <g transform="translate(310.625417 317.450938) scale(0.1 -0.1)">
       <defs>
        <path id="DejaVuSans-35" d="M 691 4666 
L 3169 4666 
L 3169 4134 
L 1269 4134 
L 1269 2991 
Q 1406 3038 1543 3061 
Q 1681 3084 1819 3084 
Q 2600 3084 3056 2656 
Q 3513 2228 3513 1497 
Q 3513 744 3044 326 
Q 2575 -91 1722 -91 
Q 1428 -91 1123 -41 
Q 819 9 494 109 
L 494 744 
Q 775 591 1075 516 
Q 1375 441 1709 441 
Q 2250 441 2565 725 
Q 2881 1009 2881 1497 
Q 2881 1984 2565 2268 
Q 2250 2553 1709 2553 
Q 1456 2553 1204 2497 
Q 953 2441 691 2322 
L 691 4666 
z
" transform="scale(0.015625)"/>
       </defs>
       <use xlink:href="#DejaVuSans-35"/>
      </g>
     </g>
    </g>
    <g id="xtick_6">
     <g id="line2d_8">
      <g>
       <use xlink:href="#m7ccb786604" x="380.305833" y="302.8525" style="stroke: #000000; stroke-width: 0.8"/>
      </g>
     </g>
     <g id="text_6">
      <!-- 6 -->
      <g transform="translate(377.124583 317.450938) scale(0.1 -0.1)">
       <defs>
        <path id="DejaVuSans-36" d="M 2113 2584 
Q 1688 2584 1439 2293 
Q 1191 2003 1191 1497 
Q 1191 994 1439 701 
Q 1688 409 2113 409 
Q 2538 409 2786 701 
Q 3034 994 3034 1497 
Q 3034 2003 2786 2293 
Q 2538 2584 2113 2584 
z
M 3366 4563 
L 3366 3988 
Q 3128 4100 2886 4159 
Q 2644 4219 2406 4219 
Q 1781 4219 1451 3797 
Q 1122 3375 1075 2522 
Q 1259 2794 1537 2939 
Q 1816 3084 2150 3084 
Q 2853 3084 3261 2657 
Q 3669 2231 3669 1497 
Q 3669 778 3244 343 
Q 2819 -91 2113 -91 
Q 1303 -91 875 529 
Q 447 1150 447 2328 
Q 447 3434 972 4092 
Q 1497 4750 2381 4750 
Q 2619 4750 2861 4703 
Q 3103 4656 3366 4563 
z
" transform="scale(0.015625)"/>
       </defs>
       <use xlink:href="#DejaVuSans-36"/>
      </g>
     </g>
    </g>
    <g id="xtick_7">
     <g id="line2d_9">
      <g>
       <use xlink:href="#m7ccb786604" x="446.805" y="302.8525" style="stroke: #000000; stroke-width: 0.8"/>
      </g>
     </g>
     <g id="text_7">
      <!-- 7 -->
      <g transform="translate(443.62375 317.450938) scale(0.1 -0.1)">
       <defs>
        <path id="DejaVuSans-37" d="M 525 4666 
L 3525 4666 
L 3525 4397 
L 1831 0 
L 1172 0 
L 2766 4134 
L 525 4134 
L 525 4666 
z
" transform="scale(0.015625)"/>
       </defs>
       <use xlink:href="#DejaVuSans-37"/>
      </g>
     </g>
    </g>
    <g id="text_8">
     <!-- CRO66 OH - H2O H Distance [Å] -->
     <g transform="translate(167.187187 332.0525) scale(0.1 -0.1)">
      <defs>
       <path id="DejaVuSans-43" d="M 4122 4306 
L 4122 3641 
Q 3803 3938 3442 4084 
Q 3081 4231 2675 4231 
Q 1875 4231 1450 3742 
Q 1025 3253 1025 2328 
Q 1025 1406 1450 917 
Q 1875 428 2675 428 
Q 3081 428 3442 575 
Q 3803 722 4122 1019 
L 4122 359 
Q 3791 134 3420 21 
Q 3050 -91 2638 -91 
Q 1578 -91 968 557 
Q 359 1206 359 2328 
Q 359 3453 968 4101 
Q 1578 4750 2638 4750 
Q 3056 4750 3426 4639 
Q 3797 4528 4122 4306 
z
" transform="scale(0.015625)"/>
       <path id="DejaVuSans-52" d="M 2841 2188 
Q 3044 2119 3236 1894 
Q 3428 1669 3622 1275 
L 4263 0 
L 3584 0 
L 2988 1197 
Q 2756 1666 2539 1819 
Q 2322 1972 1947 1972 
L 1259 1972 
L 1259 0 
L 628 0 
L 628 4666 
L 2053 4666 
Q 2853 4666 3247 4331 
Q 3641 3997 3641 3322 
Q 3641 2881 3436 2590 
Q 3231 2300 2841 2188 
z
M 1259 4147 
L 1259 2491 
L 2053 2491 
Q 2509 2491 2742 2702 
Q 2975 2913 2975 3322 
Q 2975 3731 2742 3939 
Q 2509 4147 2053 4147 
L 1259 4147 
z
" transform="scale(0.015625)"/>
       <path id="DejaVuSans-4f" d="M 2522 4238 
Q 1834 4238 1429 3725 
Q 1025 3213 1025 2328 
Q 1025 1447 1429 934 
Q 1834 422 2522 422 
Q 3209 422 3611 934 
Q 4013 1447 4013 2328 
Q 4013 3213 3611 3725 
Q 3209 4238 2522 4238 
z
M 2522 4750 
Q 3503 4750 4090 4092 
Q 4678 3434 4678 2328 
Q 4678 1225 4090 567 
Q 3503 -91 2522 -91 
Q 1538 -91 948 565 
Q 359 1222 359 2328 
Q 359 3434 948 4092 
Q 1538 4750 2522 4750 
z
" transform="scale(0.015625)"/>
       <path id="DejaVuSans-20" transform="scale(0.015625)"/>
       <path id="DejaVuSans-48" d="M 628 4666 
L 1259 4666 
L 1259 2753 
L 3553 2753 
L 3553 4666 
L 4184 4666 
L 4184 0 
L 3553 0 
L 3553 2222 
L 1259 2222 
L 1259 0 
L 628 0 
L 628 4666 
z
" transform="scale(0.015625)"/>
       <path id="DejaVuSans-2d" d="M 313 2009 
L 1997 2009 
L 1997 1497 
L 313 1497 
L 313 2009 
z
" transform="scale(0.015625)"/>
       <path id="DejaVuSans-44" d="M 1259 4147 
L 1259 519 
L 2022 519 
Q 2988 519 3436 956 
Q 3884 1394 3884 2338 
Q 3884 3275 3436 3711 
Q 2988 4147 2022 4147 
L 1259 4147 
z
M 628 4666 
L 1925 4666 
Q 3281 4666 3915 4102 
Q 4550 3538 4550 2338 
Q 4550 1131 3912 565 
Q 3275 0 1925 0 
L 628 0 
L 628 4666 
z
" transform="scale(0.015625)"/>
       <path id="DejaVuSans-69" d="M 603 3500 
L 1178 3500 
L 1178 0 
L 603 0 
L 603 3500 
z
M 603 4863 
L 1178 4863 
L 1178 4134 
L 603 4134 
L 603 4863 
z
" transform="scale(0.015625)"/>
       <path id="DejaVuSans-73" d="M 2834 3397 
L 2834 2853 
Q 2591 2978 2328 3040 
Q 2066 3103 1784 3103 
Q 1356 3103 1142 2972 
Q 928 2841 928 2578 
Q 928 2378 1081 2264 
Q 1234 2150 1697 2047 
L 1894 2003 
Q 2506 1872 2764 1633 
Q 3022 1394 3022 966 
Q 3022 478 2636 193 
Q 2250 -91 1575 -91 
Q 1294 -91 989 -36 
Q 684 19 347 128 
L 347 722 
Q 666 556 975 473 
Q 1284 391 1588 391 
Q 1994 391 2212 530 
Q 2431 669 2431 922 
Q 2431 1156 2273 1281 
Q 2116 1406 1581 1522 
L 1381 1569 
Q 847 1681 609 1914 
Q 372 2147 372 2553 
Q 372 3047 722 3315 
Q 1072 3584 1716 3584 
Q 2034 3584 2315 3537 
Q 2597 3491 2834 3397 
z
" transform="scale(0.015625)"/>
       <path id="DejaVuSans-74" d="M 1172 4494 
L 1172 3500 
L 2356 3500 
L 2356 3053 
L 1172 3053 
L 1172 1153 
Q 1172 725 1289 603 
Q 1406 481 1766 481 
L 2356 481 
L 2356 0 
L 1766 0 
Q 1100 0 847 248 
Q 594 497 594 1153 
L 594 3053 
L 172 3053 
L 172 3500 
L 594 3500 
L 594 4494 
L 1172 4494 
z
" transform="scale(0.015625)"/>
       <path id="DejaVuSans-61" d="M 2194 1759 
Q 1497 1759 1228 1600 
Q 959 1441 959 1056 
Q 959 750 1161 570 
Q 1363 391 1709 391 
Q 2188 391 2477 730 
Q 2766 1069 2766 1631 
L 2766 1759 
L 2194 1759 
z
M 3341 1997 
L 3341 0 
L 2766 0 
L 2766 531 
Q 2569 213 2275 61 
Q 1981 -91 1556 -91 
Q 1019 -91 701 211 
Q 384 513 384 1019 
Q 384 1609 779 1909 
Q 1175 2209 1959 2209 
L 2766 2209 
L 2766 2266 
Q 2766 2663 2505 2880 
Q 2244 3097 1772 3097 
Q 1472 3097 1187 3025 
Q 903 2953 641 2809 
L 641 3341 
Q 956 3463 1253 3523 
Q 1550 3584 1831 3584 
Q 2591 3584 2966 3190 
Q 3341 2797 3341 1997 
z
" transform="scale(0.015625)"/>
       <path id="DejaVuSans-6e" d="M 3513 2113 
L 3513 0 
L 2938 0 
L 2938 2094 
Q 2938 2591 2744 2837 
Q 2550 3084 2163 3084 
Q 1697 3084 1428 2787 
Q 1159 2491 1159 1978 
L 1159 0 
L 581 0 
L 581 3500 
L 1159 3500 
L 1159 2956 
Q 1366 3272 1645 3428 
Q 1925 3584 2291 3584 
Q 2894 3584 3203 3211 
Q 3513 2838 3513 2113 
z
" transform="scale(0.015625)"/>
       <path id="DejaVuSans-63" d="M 3122 3366 
L 3122 2828 
Q 2878 2963 2633 3030 
Q 2388 3097 2138 3097 
Q 1578 3097 1268 2742 
Q 959 2388 959 1747 
Q 959 1106 1268 751 
Q 1578 397 2138 397 
Q 2388 397 2633 464 
Q 2878 531 3122 666 
L 3122 134 
Q 2881 22 2623 -34 
Q 2366 -91 2075 -91 
Q 1284 -91 818 406 
Q 353 903 353 1747 
Q 353 2603 823 3093 
Q 1294 3584 2113 3584 
Q 2378 3584 2631 3529 
Q 2884 3475 3122 3366 
z
" transform="scale(0.015625)"/>
       <path id="DejaVuSans-65" d="M 3597 1894 
L 3597 1613 
L 953 1613 
Q 991 1019 1311 708 
Q 1631 397 2203 397 
Q 2534 397 2845 478 
Q 3156 559 3463 722 
L 3463 178 
Q 3153 47 2828 -22 
Q 2503 -91 2169 -91 
Q 1331 -91 842 396 
Q 353 884 353 1716 
Q 353 2575 817 3079 
Q 1281 3584 2069 3584 
Q 2775 3584 3186 3129 
Q 3597 2675 3597 1894 
z
M 3022 2063 
Q 3016 2534 2758 2815 
Q 2500 3097 2075 3097 
Q 1594 3097 1305 2825 
Q 1016 2553 972 2059 
L 3022 2063 
z
" transform="scale(0.015625)"/>
       <path id="DejaVuSans-5b" d="M 550 4863 
L 1875 4863 
L 1875 4416 
L 1125 4416 
L 1125 -397 
L 1875 -397 
L 1875 -844 
L 550 -844 
L 550 4863 
z
" transform="scale(0.015625)"/>
       <path id="DejaVuSans-c5" d="M 2663 5081 
Q 2663 5278 2523 5417 
Q 2384 5556 2188 5556 
Q 1988 5556 1852 5420 
Q 1716 5284 1716 5081 
Q 1716 4884 1853 4746 
Q 1991 4609 2188 4609 
Q 2384 4609 2523 4746 
Q 2663 4884 2663 5081 
z
M 2188 4044 
L 1338 1722 
L 3041 1722 
L 2188 4044 
z
M 1716 4366 
Q 1525 4494 1428 4673 
Q 1331 4853 1331 5081 
Q 1331 5441 1579 5691 
Q 1828 5941 2188 5941 
Q 2544 5941 2795 5689 
Q 3047 5438 3047 5081 
Q 3047 4863 2948 4678 
Q 2850 4494 2663 4366 
L 4325 0 
L 3669 0 
L 3244 1197 
L 1141 1197 
L 716 0 
L 50 0 
L 1716 4366 
z
" transform="scale(0.015625)"/>
       <path id="DejaVuSans-5d" d="M 1947 4863 
L 1947 -844 
L 622 -844 
L 622 -397 
L 1369 -397 
L 1369 4416 
L 622 4416 
L 622 4863 
L 1947 4863 
z
" transform="scale(0.015625)"/>
      </defs>
      <use xlink:href="#DejaVuSans-43"/>
      <use xlink:href="#DejaVuSans-52" x="69.824219"/>
      <use xlink:href="#DejaVuSans-4f" x="139.306641"/>
      <use xlink:href="#DejaVuSans-36" x="218.017578"/>
      <use xlink:href="#DejaVuSans-36" x="281.640625"/>
      <use xlink:href="#DejaVuSans-20" x="345.263672"/>
      <use xlink:href="#DejaVuSans-4f" x="377.050781"/>
      <use xlink:href="#DejaVuSans-48" x="455.761719"/>
      <use xlink:href="#DejaVuSans-20" x="530.957031"/>
      <use xlink:href="#DejaVuSans-2d" x="562.744141"/>
      <use xlink:href="#DejaVuSans-20" x="598.828125"/>
      <use xlink:href="#DejaVuSans-48" x="630.615234"/>
      <use xlink:href="#DejaVuSans-32" x="705.810547"/>
      <use xlink:href="#DejaVuSans-4f" x="769.433594"/>
      <use xlink:href="#DejaVuSans-20" x="848.144531"/>
      <use xlink:href="#DejaVuSans-48" x="879.931641"/>
      <use xlink:href="#DejaVuSans-20" x="955.126953"/>
      <use xlink:href="#DejaVuSans-44" x="986.914062"/>
      <use xlink:href="#DejaVuSans-69" x="1063.916016"/>
      <use xlink:href="#DejaVuSans-73" x="1091.699219"/>
      <use xlink:href="#DejaVuSans-74" x="1143.798828"/>
      <use xlink:href="#DejaVuSans-61" x="1183.007812"/>
      <use xlink:href="#DejaVuSans-6e" x="1244.287109"/>
      <use xlink:href="#DejaVuSans-63" x="1307.666016"/>
      <use xlink:href="#DejaVuSans-65" x="1362.646484"/>
      <use xlink:href="#DejaVuSans-20" x="1424.169922"/>
      <use xlink:href="#DejaVuSans-5b" x="1455.957031"/>
      <use xlink:href="#DejaVuSans-c5" x="1494.970703"/>
      <use xlink:href="#DejaVuSans-5d" x="1563.378906"/>
     </g>
    </g>
   </g>
   <g id="matplotlib.axis_2">
    <g id="ytick_1">
     <g id="line2d_10">
      <defs>
       <path id="mb826eb6748" d="M 0 0 
L -3.5 0 
" style="stroke: #000000; stroke-width: 0.8"/>
      </defs>
      <g>
       <use xlink:href="#mb826eb6748" x="47.81" y="302.8525" style="stroke: #000000; stroke-width: 0.8"/>
      </g>
     </g>
     <g id="text_9">
      <!-- 0.0 -->
      <g transform="translate(24.906875 306.651719) scale(0.1 -0.1)">
       <defs>
        <path id="DejaVuSans-30" d="M 2034 4250 
Q 1547 4250 1301 3770 
Q 1056 3291 1056 2328 
Q 1056 1369 1301 889 
Q 1547 409 2034 409 
Q 2525 409 2770 889 
Q 3016 1369 3016 2328 
Q 3016 3291 2770 3770 
Q 2525 4250 2034 4250 
z
M 2034 4750 
Q 2819 4750 3233 4129 
Q 3647 3509 3647 2328 
Q 3647 1150 3233 529 
Q 2819 -91 2034 -91 
Q 1250 -91 836 529 
Q 422 1150 422 2328 
Q 422 3509 836 4129 
Q 1250 4750 2034 4750 
z
" transform="scale(0.015625)"/>
        <path id="DejaVuSans-2e" d="M 684 794 
L 1344 794 
L 1344 0 
L 684 0 
L 684 794 
z
" transform="scale(0.015625)"/>
       </defs>
       <use xlink:href="#DejaVuSans-30"/>
       <use xlink:href="#DejaVuSans-2e" x="63.623047"/>
       <use xlink:href="#DejaVuSans-30" x="95.410156"/>
      </g>
     </g>
    </g>
    <g id="ytick_2">
     <g id="line2d_11">
      <g>
       <use xlink:href="#mb826eb6748" x="47.81" y="270.096982" style="stroke: #000000; stroke-width: 0.8"/>
      </g>
     </g>
     <g id="text_10">
      <!-- 0.2 -->
      <g transform="translate(24.906875 273.896201) scale(0.1 -0.1)">
       <use xlink:href="#DejaVuSans-30"/>
       <use xlink:href="#DejaVuSans-2e" x="63.623047"/>
       <use xlink:href="#DejaVuSans-32" x="95.410156"/>
      </g>
     </g>
    </g>
    <g id="ytick_3">
     <g id="line2d_12">
      <g>
       <use xlink:href="#mb826eb6748" x="47.81" y="237.341464" style="stroke: #000000; stroke-width: 0.8"/>
      </g>
     </g>
     <g id="text_11">
      <!-- 0.4 -->
      <g transform="translate(24.906875 241.140683) scale(0.1 -0.1)">
       <use xlink:href="#DejaVuSans-30"/>
       <use xlink:href="#DejaVuSans-2e" x="63.623047"/>
       <use xlink:href="#DejaVuSans-34" x="95.410156"/>
      </g>
     </g>
    </g>
    <g id="ytick_4">
     <g id="line2d_13">
      <g>
       <use xlink:href="#mb826eb6748" x="47.81" y="204.585947" style="stroke: #000000; stroke-width: 0.8"/>
      </g>
     </g>
     <g id="text_12">
      <!-- 0.6 -->
      <g transform="translate(24.906875 208.385165) scale(0.1 -0.1)">
       <use xlink:href="#DejaVuSans-30"/>
       <use xlink:href="#DejaVuSans-2e" x="63.623047"/>
       <use xlink:href="#DejaVuSans-36" x="95.410156"/>
      </g>
     </g>
    </g>
    <g id="ytick_5">
     <g id="line2d_14">
      <g>
       <use xlink:href="#mb826eb6748" x="47.81" y="171.830429" style="stroke: #000000; stroke-width: 0.8"/>
      </g>
     </g>
     <g id="text_13">
      <!-- 0.8 -->
      <g transform="translate(24.906875 175.629648) scale(0.1 -0.1)">
       <defs>
        <path id="DejaVuSans-38" d="M 2034 2216 
Q 1584 2216 1326 1975 
Q 1069 1734 1069 1313 
Q 1069 891 1326 650 
Q 1584 409 2034 409 
Q 2484 409 2743 651 
Q 3003 894 3003 1313 
Q 3003 1734 2745 1975 
Q 2488 2216 2034 2216 
z
M 1403 2484 
Q 997 2584 770 2862 
Q 544 3141 544 3541 
Q 544 4100 942 4425 
Q 1341 4750 2034 4750 
Q 2731 4750 3128 4425 
Q 3525 4100 3525 3541 
Q 3525 3141 3298 2862 
Q 3072 2584 2669 2484 
Q 3125 2378 3379 2068 
Q 3634 1759 3634 1313 
Q 3634 634 3220 271 
Q 2806 -91 2034 -91 
Q 1263 -91 848 271 
Q 434 634 434 1313 
Q 434 1759 690 2068 
Q 947 2378 1403 2484 
z
M 1172 3481 
Q 1172 3119 1398 2916 
Q 1625 2713 2034 2713 
Q 2441 2713 2670 2916 
Q 2900 3119 2900 3481 
Q 2900 3844 2670 4047 
Q 2441 4250 2034 4250 
Q 1625 4250 1398 4047 
Q 1172 3844 1172 3481 
z
" transform="scale(0.015625)"/>
       </defs>
       <use xlink:href="#DejaVuSans-30"/>
       <use xlink:href="#DejaVuSans-2e" x="63.623047"/>
       <use xlink:href="#DejaVuSans-38" x="95.410156"/>
      </g>
     </g>
    </g>
    <g id="ytick_6">
     <g id="line2d_15">
      <g>
       <use xlink:href="#mb826eb6748" x="47.81" y="139.074911" style="stroke: #000000; stroke-width: 0.8"/>
      </g>
     </g>
     <g id="text_14">
      <!-- 1.0 -->
      <g transform="translate(24.906875 142.87413) scale(0.1 -0.1)">
       <use xlink:href="#DejaVuSans-31"/>
       <use xlink:href="#DejaVuSans-2e" x="63.623047"/>
       <use xlink:href="#DejaVuSans-30" x="95.410156"/>
      </g>
     </g>
    </g>
    <g id="ytick_7">
     <g id="line2d_16">
      <g>
       <use xlink:href="#mb826eb6748" x="47.81" y="106.319393" style="stroke: #000000; stroke-width: 0.8"/>
      </g>
     </g>
     <g id="text_15">
      <!-- 1.2 -->
      <g transform="translate(24.906875 110.118612) scale(0.1 -0.1)">
       <use xlink:href="#DejaVuSans-31"/>
       <use xlink:href="#DejaVuSans-2e" x="63.623047"/>
       <use xlink:href="#DejaVuSans-32" x="95.410156"/>
      </g>
     </g>
    </g>
    <g id="ytick_8">
     <g id="line2d_17">
      <g>
       <use xlink:href="#mb826eb6748" x="47.81" y="73.563875" style="stroke: #000000; stroke-width: 0.8"/>
      </g>
     </g>
     <g id="text_16">
      <!-- 1.4 -->
      <g transform="translate(24.906875 77.363094) scale(0.1 -0.1)">
       <use xlink:href="#DejaVuSans-31"/>
       <use xlink:href="#DejaVuSans-2e" x="63.623047"/>
       <use xlink:href="#DejaVuSans-34" x="95.410156"/>
      </g>
     </g>
    </g>
    <g id="ytick_9">
     <g id="line2d_18">
      <g>
       <use xlink:href="#mb826eb6748" x="47.81" y="40.808358" style="stroke: #000000; stroke-width: 0.8"/>
      </g>
     </g>
     <g id="text_17">
      <!-- 1.6 -->
      <g transform="translate(24.906875 44.607576) scale(0.1 -0.1)">
       <use xlink:href="#DejaVuSans-31"/>
       <use xlink:href="#DejaVuSans-2e" x="63.623047"/>
       <use xlink:href="#DejaVuSans-36" x="95.410156"/>
      </g>
     </g>
    </g>
    <g id="text_18">
     <!-- Density -->
     <g transform="translate(18.827187 175.834844) rotate(-90) scale(0.1 -0.1)">
      <defs>
       <path id="DejaVuSans-79" d="M 2059 -325 
Q 1816 -950 1584 -1140 
Q 1353 -1331 966 -1331 
L 506 -1331 
L 506 -850 
L 844 -850 
Q 1081 -850 1212 -737 
Q 1344 -625 1503 -206 
L 1606 56 
L 191 3500 
L 800 3500 
L 1894 763 
L 2988 3500 
L 3597 3500 
L 2059 -325 
z
" transform="scale(0.015625)"/>
      </defs>
      <use xlink:href="#DejaVuSans-44"/>
      <use xlink:href="#DejaVuSans-65" x="77.001953"/>
      <use xlink:href="#DejaVuSans-6e" x="138.525391"/>
      <use xlink:href="#DejaVuSans-73" x="201.904297"/>
      <use xlink:href="#DejaVuSans-69" x="254.003906"/>
      <use xlink:href="#DejaVuSans-74" x="281.787109"/>
      <use xlink:href="#DejaVuSans-79" x="320.996094"/>
     </g>
    </g>
   </g>
   <g id="line2d_19">
    <path d="M -1 302.8525 
L 73.837201 302.768429 
L 75.168516 302.59939 
L 75.834173 302.40108 
L 76.499831 302.060218 
L 77.165488 301.524918 
L 77.831145 300.747686 
L 78.496803 299.654675 
L 79.16246 298.104783 
L 79.828117 295.888793 
L 80.493775 292.786524 
L 81.159432 288.627459 
L 81.825089 283.286103 
L 82.490747 276.635792 
L 83.156404 268.541279 
L 83.822061 258.888102 
L 85.153376 234.598657 
L 86.484691 203.976351 
L 89.14732 137.344752 
L 91.144292 94.004007 
L 92.475606 67.431987 
L 93.806921 45.550049 
L 94.472578 37.407142 
L 95.138236 31.833385 
L 95.803893 29.171711 
L 96.46955 29.093954 
L 97.135208 30.742726 
L 97.800865 33.437255 
L 98.466522 37.111725 
L 99.13218 42.04002 
L 99.797837 48.317119 
L 101.129152 63.772177 
L 103.126124 90.19762 
L 109.11704 171.684192 
L 111.114012 195.492333 
L 112.445326 209.050032 
L 114.442298 225.87234 
L 115.773613 235.021554 
L 117.104927 241.547232 
L 118.436242 247.791267 
L 121.098871 262.268207 
L 122.430186 267.403039 
L 123.761501 271.753837 
L 125.092815 275.275063 
L 129.086759 283.690033 
L 129.752417 284.87666 
L 130.418074 285.686522 
L 132.415046 287.125101 
L 135.077675 290.253248 
L 136.40899 291.21911 
L 139.071619 292.937227 
L 140.402934 293.946873 
L 141.068591 294.325199 
L 141.734248 294.489125 
L 143.065563 294.304549 
L 143.73122 294.23623 
L 144.396878 294.327235 
L 147.059507 295.140273 
L 150.387794 295.851073 
L 151.719108 295.521693 
L 153.050423 295.177766 
L 155.047395 295.107817 
L 159.041339 293.986588 
L 162.369625 293.488731 
L 163.70094 293.075187 
L 165.032255 292.413774 
L 166.363569 291.720806 
L 169.026199 290.947605 
L 170.357513 289.847541 
L 172.354485 287.974645 
L 173.020143 287.132936 
L 174.351457 284.94209 
L 175.682772 282.658629 
L 179.011059 277.922214 
L 180.342373 275.864839 
L 183.67066 271.367328 
L 185.001974 268.991861 
L 185.667632 268.14075 
L 186.333289 267.677868 
L 188.330261 267.17815 
L 189.661576 266.265561 
L 190.327233 266.174607 
L 190.99289 266.628775 
L 192.989862 269.311549 
L 194.321177 270.328616 
L 194.986834 270.850743 
L 201.643408 277.686571 
L 202.974722 279.600472 
L 203.64038 280.362152 
L 204.306037 280.86171 
L 205.637352 281.574611 
L 206.303009 282.085855 
L 208.965638 284.743303 
L 210.296953 285.512734 
L 211.628267 286.333809 
L 212.959582 287.423397 
L 213.625239 287.805781 
L 215.622211 288.485473 
L 217.619183 289.658801 
L 218.950498 289.823708 
L 220.94747 289.874625 
L 222.278785 289.567827 
L 222.944442 289.568224 
L 223.610099 289.802622 
L 226.272729 291.335239 
L 226.938386 291.417409 
L 228.269701 291.192547 
L 231.597987 290.574154 
L 232.263644 290.525948 
L 233.594959 290.718001 
L 236.923246 291.366625 
L 238.25456 292.036514 
L 239.585875 292.752434 
L 240.251532 292.935779 
L 241.582847 292.904086 
L 243.579819 292.753841 
L 245.576791 292.876003 
L 248.905078 293.351021 
L 249.570735 293.265162 
L 252.233364 292.414576 
L 253.564679 292.520559 
L 255.561651 293.006568 
L 256.227308 293.008514 
L 257.558623 292.684721 
L 260.221252 291.747485 
L 260.886909 291.687767 
L 262.218224 291.959936 
L 263.549539 292.267489 
L 264.215196 292.313203 
L 265.546511 292.097545 
L 266.877825 291.93672 
L 268.20914 291.910685 
L 270.871769 291.335491 
L 272.203084 291.494033 
L 273.534399 291.705884 
L 275.531371 291.694809 
L 279.525314 291.627 
L 283.519258 290.924461 
L 285.51623 290.962005 
L 286.847545 290.476858 
L 288.17886 290.050347 
L 289.510174 290.072052 
L 290.841489 290.240026 
L 292.172804 290.117356 
L 293.504118 289.989871 
L 294.835433 290.310851 
L 296.166748 290.586997 
L 298.16372 290.780918 
L 300.826349 291.532799 
L 302.157663 291.283653 
L 303.488978 291.110168 
L 304.820293 291.249852 
L 306.151607 291.468654 
L 309.479894 291.655934 
L 311.476866 292.051988 
L 313.473838 292.660992 
L 314.805153 292.72847 
L 316.136467 292.676479 
L 317.467782 292.995695 
L 318.799097 293.396791 
L 320.130411 293.719026 
L 321.461726 294.085475 
L 322.127383 294.028403 
L 323.458698 293.520456 
L 324.124355 293.430768 
L 324.790013 293.611523 
L 326.786984 294.649143 
L 327.452642 294.656114 
L 328.783956 294.440071 
L 329.449614 294.521617 
L 331.446586 295.087318 
L 332.7779 294.989782 
L 334.109215 294.797944 
L 334.774872 294.82427 
L 336.106187 295.199316 
L 337.437502 295.536687 
L 340.100131 295.876915 
L 341.431446 296.183277 
L 342.76276 296.178649 
L 344.094075 296.069612 
L 344.759732 296.144405 
L 346.756704 296.754416 
L 348.088019 296.729435 
L 350.084991 296.495325 
L 354.078935 296.847644 
L 356.741564 296.352268 
L 358.072879 296.64774 
L 359.404193 296.942619 
L 364.063795 297.014478 
L 365.395109 296.783365 
L 366.060767 296.778105 
L 367.392081 297.126674 
L 368.723396 297.603984 
L 369.389053 297.705158 
L 370.720368 297.54682 
L 372.051683 297.275077 
L 373.382997 297.334512 
L 375.379969 297.697262 
L 377.376941 297.956553 
L 378.708256 298.126567 
L 386.696144 298.607286 
L 388.693116 299.082763 
L 390.02443 299.091658 
L 392.68706 298.909785 
L 394.018374 299.287561 
L 395.349689 299.639678 
L 396.681004 299.573874 
L 398.012318 299.461235 
L 399.343633 299.492636 
L 405.334549 300.170247 
L 407.331521 300.145454 
L 410.659807 300.414408 
L 412.656779 300.419983 
L 415.319409 300.652588 
L 416.650723 300.953753 
L 417.982038 301.326532 
L 418.647695 301.364988 
L 421.310324 300.972243 
L 425.304268 301.218706 
L 429.96387 301.316657 
L 435.289128 301.824075 
L 445.273988 301.927957 
L 447.27096 302.130437 
L 456.590163 302.364773 
L 461.8 302.525528 
L 461.8 302.525528 
" clip-path="url(#p55a53c08cc)" style="fill: none; stroke: #f99752; stroke-width: 2.5; stroke-linecap: square"/>
   </g>
   <g id="patch_3">
    <path d="M 47.81 302.8525 
L 47.81 10.8 
" style="fill: none; stroke: #000000; stroke-width: 0.8; stroke-linejoin: miter; stroke-linecap: square"/>
   </g>
   <g id="patch_4">
    <path d="M 446.805 302.8525 
L 446.805 10.8 
" style="fill: none; stroke: #000000; stroke-width: 0.8; stroke-linejoin: miter; stroke-linecap: square"/>
   </g>
   <g id="patch_5">
    <path d="M 47.81 302.8525 
L 446.805 302.8525 
" style="fill: none; stroke: #000000; stroke-width: 0.8; stroke-linejoin: miter; stroke-linecap: square"/>
   </g>
   <g id="patch_6">
    <path d="M 47.81 10.8 
L 446.805 10.8 
" style="fill: none; stroke: #000000; stroke-width: 0.8; stroke-linejoin: miter; stroke-linecap: square"/>
   </g>
   <g id="legend_1">
    <g id="patch_7">
     <path d="M 364.359688 62.834375 
L 439.805 62.834375 
Q 441.805 62.834375 441.805 60.834375 
L 441.805 17.8 
Q 441.805 15.8 439.805 15.8 
L 364.359688 15.8 
Q 362.359688 15.8 362.359688 17.8 
L 362.359688 60.834375 
Q 362.359688 62.834375 364.359688 62.834375 
z
" style="fill: #ffffff; opacity: 0.8; stroke: #cccccc; stroke-linejoin: miter"/>
    </g>
    <g id="line2d_20">
     <path d="M 366.359688 23.898438 
L 376.359688 23.898438 
L 386.359688 23.898438 
" style="fill: none; stroke: #1e2e79; stroke-width: 2.5; stroke-linecap: square"/>
    </g>
    <g id="text_19">
     <!-- Reduced -->
     <g transform="translate(394.359688 27.398438) scale(0.1 -0.1)">
      <defs>
       <path id="DejaVuSans-64" d="M 2906 2969 
L 2906 4863 
L 3481 4863 
L 3481 0 
L 2906 0 
L 2906 525 
Q 2725 213 2448 61 
Q 2172 -91 1784 -91 
Q 1150 -91 751 415 
Q 353 922 353 1747 
Q 353 2572 751 3078 
Q 1150 3584 1784 3584 
Q 2172 3584 2448 3432 
Q 2725 3281 2906 2969 
z
M 947 1747 
Q 947 1113 1208 752 
Q 1469 391 1925 391 
Q 2381 391 2643 752 
Q 2906 1113 2906 1747 
Q 2906 2381 2643 2742 
Q 2381 3103 1925 3103 
Q 1469 3103 1208 2742 
Q 947 2381 947 1747 
z
" transform="scale(0.015625)"/>
       <path id="DejaVuSans-75" d="M 544 1381 
L 544 3500 
L 1119 3500 
L 1119 1403 
Q 1119 906 1312 657 
Q 1506 409 1894 409 
Q 2359 409 2629 706 
Q 2900 1003 2900 1516 
L 2900 3500 
L 3475 3500 
L 3475 0 
L 2900 0 
L 2900 538 
Q 2691 219 2414 64 
Q 2138 -91 1772 -91 
Q 1169 -91 856 284 
Q 544 659 544 1381 
z
M 1991 3584 
L 1991 3584 
z
" transform="scale(0.015625)"/>
      </defs>
      <use xlink:href="#DejaVuSans-52"/>
      <use xlink:href="#DejaVuSans-65" x="64.982422"/>
      <use xlink:href="#DejaVuSans-64" x="126.505859"/>
      <use xlink:href="#DejaVuSans-75" x="189.982422"/>
      <use xlink:href="#DejaVuSans-63" x="253.361328"/>
      <use xlink:href="#DejaVuSans-65" x="308.341797"/>
      <use xlink:href="#DejaVuSans-64" x="369.865234"/>
     </g>
    </g>
    <g id="line2d_21">
     <path d="M 366.359688 38.576563 
L 376.359688 38.576563 
L 386.359688 38.576563 
" style="fill: none; stroke: #ec4067; stroke-width: 2.5; stroke-linecap: square"/>
    </g>
    <g id="text_20">
     <!-- Oxidized -->
     <g transform="translate(394.359688 42.076563) scale(0.1 -0.1)">
      <defs>
       <path id="DejaVuSans-78" d="M 3513 3500 
L 2247 1797 
L 3578 0 
L 2900 0 
L 1881 1375 
L 863 0 
L 184 0 
L 1544 1831 
L 300 3500 
L 978 3500 
L 1906 2253 
L 2834 3500 
L 3513 3500 
z
" transform="scale(0.015625)"/>
       <path id="DejaVuSans-7a" d="M 353 3500 
L 3084 3500 
L 3084 2975 
L 922 459 
L 3084 459 
L 3084 0 
L 275 0 
L 275 525 
L 2438 3041 
L 353 3041 
L 353 3500 
z
" transform="scale(0.015625)"/>
      </defs>
      <use xlink:href="#DejaVuSans-4f"/>
      <use xlink:href="#DejaVuSans-78" x="78.710938"/>
      <use xlink:href="#DejaVuSans-69" x="137.890625"/>
      <use xlink:href="#DejaVuSans-64" x="165.673828"/>
      <use xlink:href="#DejaVuSans-69" x="229.150391"/>
      <use xlink:href="#DejaVuSans-7a" x="256.933594"/>
      <use xlink:href="#DejaVuSans-65" x="309.423828"/>
      <use xlink:href="#DejaVuSans-64" x="370.947266"/>
     </g>
    </g>
    <g id="line2d_22">
     <path d="M 366.359688 53.254687 
L 376.359688 53.254687 
L 386.359688 53.254687 
" style="fill: none; stroke: #f99752; stroke-width: 2.5; stroke-linecap: square"/>
    </g>
    <g id="text_21">
     <!-- Cu$^{+}$ -->
     <g transform="translate(394.359688 56.754687) scale(0.1 -0.1)">
      <defs>
       <path id="DejaVuSans-2b" d="M 2944 4013 
L 2944 2272 
L 4684 2272 
L 4684 1741 
L 2944 1741 
L 2944 0 
L 2419 0 
L 2419 1741 
L 678 1741 
L 678 2272 
L 2419 2272 
L 2419 4013 
L 2944 4013 
z
" transform="scale(0.015625)"/>
      </defs>
      <use xlink:href="#DejaVuSans-43" transform="translate(0 0.826562)"/>
      <use xlink:href="#DejaVuSans-75" transform="translate(69.824219 0.826562)"/>
      <use xlink:href="#DejaVuSans-2b" transform="translate(134.160156 39.107812) scale(0.7)"/>
     </g>
    </g>
   </g>
  </g>
 </g>
 <defs>
  <clipPath id="p55a53c08cc">
   <rect x="47.81" y="10.8" width="398.995" height="292.0525"/>
  </clipPath>
 </defs>
</svg>
