<?xml version="1.0" encoding="utf-8" standalone="no"?>
<!DOCTYPE svg PUBLIC "-//W3C//DTD SVG 1.1//EN"
  "http://www.w3.org/Graphics/SVG/1.1/DTD/svg11.dtd">
<svg xmlns:xlink="http://www.w3.org/1999/xlink" width="460.8pt" height="345.6pt" viewBox="0 0 460.8 345.6" xmlns="http://www.w3.org/2000/svg" version="1.1">
 <metadata>
  <rdf:RDF xmlns:dc="http://purl.org/dc/elements/1.1/" xmlns:cc="http://creativecommons.org/ns#" xmlns:rdf="http://www.w3.org/1999/02/22-rdf-syntax-ns#">
   <cc:Work>
    <dc:type rdf:resource="http://purl.org/dc/dcmitype/StillImage"/>
    <dc:date>2024-07-07T13:53:20.089535</dc:date>
    <dc:format>image/svg+xml</dc:format>
    <dc:creator>
     <cc:Agent>
      <dc:title>Matplotlib v3.8.4, https://matplotlib.org/</dc:title>
     </cc:Agent>
    </dc:creator>
   </cc:Work>
  </rdf:RDF>
 </metadata>
 <defs>
  <style type="text/css">*{stroke-linejoin: round; stroke-linecap: butt}</style>
 </defs>
 <g id="figure_1">
  <g id="patch_1">
   <path d="M 0 345.6 
L 460.8 345.6 
L 460.8 0 
L 0 0 
z
" style="fill: #ffffff"/>
  </g>
  <g id="axes_1">
   <g id="patch_2">
    <path d="M 49.43 298.672 
L 440.901 298.672 
L 440.901 12.96 
L 49.43 12.96 
z
" style="fill: #ffffff"/>
   </g>
   <g id="line2d_1">
    <path d="M -1 298.672 
L 7.193998 298.672 
L 16.019432 298.672 
L 24.844865 298.672 
L 33.670298 298.672 
L 42.495731 298.672 
L 51.321164 298.672 
L 60.146597 298.672 
L 68.972031 298.58265 
L 77.797464 298.671266 
L 86.622897 298.626199 
L 95.44833 298.341134 
L 104.273763 298.18333 
L 113.099196 297.672742 
L 121.92463 297.254255 
L 130.750063 296.362306 
L 139.575496 293.538282 
L 148.400929 288.21799 
L 157.226362 278.364466 
L 166.051795 263.780683 
L 174.877229 234.427056 
L 183.702662 192.519262 
L 192.528095 148.049192 
L 201.353528 109.389163 
L 210.178961 78.334774 
L 219.004395 57.951866 
L 227.829828 44.721389 
L 236.655261 35.243388 
L 245.480694 48.140746 
L 254.306127 50.547653 
L 263.13156 59.540428 
L 271.956994 77.846609 
L 280.782427 108.260579 
L 289.60786 131.213125 
L 298.433293 172.652544 
L 307.258726 203.067529 
L 316.084159 235.949817 
L 324.909593 256.404697 
L 333.735026 272.87933 
L 342.560459 282.866021 
L 351.385892 289.364973 
L 360.211325 293.680027 
L 369.036758 296.722427 
L 377.862192 297.22811 
L 386.687625 297.947868 
L 395.513058 298.61942 
L 404.338491 298.568364 
L 413.163924 298.667622 
L 421.989357 298.672 
L 430.814791 298.672 
L 439.640224 298.671999 
L 448.465657 298.672 
L 457.29109 298.672 
L 461.8 298.672 
" clip-path="url(#pd1f7a276f5)" style="fill: none; stroke: #1e2e79; stroke-width: 2.5; stroke-linecap: square"/>
   </g>
   <g id="line2d_2">
    <path d="M -1 298.672 
L 7.193998 298.672 
L 16.019432 298.672 
L 24.844865 298.672 
L 33.670298 298.672 
L 42.495731 298.672 
L 51.321164 298.672 
L 60.146597 298.672 
L 68.972031 298.672 
L 77.797464 298.672 
L 86.622897 298.6719 
L 95.44833 298.5951 
L 104.273763 298.022722 
L 113.099196 297.639757 
L 121.92463 293.460931 
L 130.750063 286.032802 
L 139.575496 269.106385 
L 148.400929 240.958758 
L 157.226362 201.819836 
L 166.051795 169.908547 
L 174.877229 127.389254 
L 183.702662 89.030546 
L 192.528095 67.37169 
L 201.353528 36.813401 
L 210.178961 30.300737 
L 219.004395 37.017052 
L 227.829828 50.369065 
L 236.655261 54.072151 
L 245.480694 71.094541 
L 254.306127 102.16106 
L 263.13156 117.952812 
L 271.956994 158.213812 
L 280.782427 192.986708 
L 289.60786 225.431967 
L 298.433293 250.592604 
L 307.258726 271.279046 
L 316.084159 283.766666 
L 324.909593 292.767907 
L 333.735026 295.773481 
L 342.560459 297.789511 
L 351.385892 298.107651 
L 360.211325 298.561181 
L 369.036758 298.672 
L 377.862192 298.671998 
L 386.687625 298.672 
L 395.513058 298.672 
L 404.338491 298.672 
L 413.163924 298.672 
L 421.989357 298.672 
L 430.814791 298.672 
L 439.640224 298.672 
L 448.465657 298.672 
L 457.29109 298.672 
L 461.8 298.672 
" clip-path="url(#pd1f7a276f5)" style="fill: none; stroke: #ec4067; stroke-width: 2.5; stroke-linecap: square"/>
   </g>
   <g id="matplotlib.axis_1">
    <g id="xtick_1">
     <g id="line2d_3">
      <defs>
       <path id="md5fc64a5a6" d="M 0 0 
L 0 3.5 
" style="stroke: #c2c1c1; stroke-width: 0.8"/>
      </defs>
      <g>
       <use xlink:href="#md5fc64a5a6" x="49.43" y="298.672" style="fill: #c2c1c1; stroke: #c2c1c1; stroke-width: 0.8"/>
      </g>
     </g>
     <g id="text_1">
      <!-- 4.5 -->
      <g style="fill: #191919" transform="translate(42.490937 313.172) scale(0.1 -0.1)">
       <defs>
        <path id="Roboto-Regular-34" d="M 166 1397 
L 2203 4550 
L 2819 4550 
L 2819 1531 
L 3453 1531 
L 3453 1056 
L 2819 1056 
L 2819 0 
L 2241 0 
L 2241 1056 
L 166 1056 
L 166 1397 
z
M 822 1531 
L 2241 1531 
L 2241 3766 
L 2169 3638 
L 822 1531 
z
" transform="scale(0.015625)"/>
        <path id="Roboto-Regular-2e" d="M 450 306 
Q 450 453 542 554 
Q 634 656 809 656 
Q 984 656 1076 554 
Q 1169 453 1169 306 
Q 1169 163 1076 62 
Q 984 -38 809 -38 
Q 634 -38 542 62 
Q 450 163 450 306 
z
" transform="scale(0.015625)"/>
        <path id="Roboto-Regular-35" d="M 1109 2166 
L 647 2284 
L 875 4550 
L 3209 4550 
L 3209 4016 
L 1366 4016 
L 1228 2778 
Q 1572 2975 1988 2975 
Q 2616 2975 2980 2561 
Q 3344 2147 3344 1450 
Q 3344 797 2987 367 
Q 2631 -63 1903 -63 
Q 1350 -63 947 248 
Q 544 559 481 1197 
L 1031 1197 
Q 1141 413 1903 413 
Q 2313 413 2538 691 
Q 2763 969 2763 1444 
Q 2763 1872 2527 2164 
Q 2291 2456 1853 2456 
Q 1563 2456 1413 2378 
Q 1263 2300 1109 2166 
z
" transform="scale(0.015625)"/>
       </defs>
       <use xlink:href="#Roboto-Regular-34"/>
       <use xlink:href="#Roboto-Regular-2e" x="56.201172"/>
       <use xlink:href="#Roboto-Regular-35" x="82.568359"/>
      </g>
     </g>
    </g>
    <g id="xtick_2">
     <g id="line2d_4">
      <g>
       <use xlink:href="#md5fc64a5a6" x="92.926778" y="298.672" style="fill: #c2c1c1; stroke: #c2c1c1; stroke-width: 0.8"/>
      </g>
     </g>
     <g id="text_2">
      <!-- 5.0 -->
      <g style="fill: #191919" transform="translate(85.987715 313.172) scale(0.1 -0.1)">
       <defs>
        <path id="Roboto-Regular-30" d="M 3234 1944 
Q 3234 825 2848 381 
Q 2463 -63 1800 -63 
Q 1156 -63 764 368 
Q 372 800 359 1872 
L 359 2638 
Q 359 3753 750 4183 
Q 1141 4613 1794 4613 
Q 2447 4613 2834 4195 
Q 3222 3778 3234 2709 
L 3234 1944 
z
M 2653 2734 
Q 2653 3503 2434 3822 
Q 2216 4141 1794 4141 
Q 1388 4141 1167 3831 
Q 947 3522 941 2778 
L 941 1850 
Q 941 1088 1164 750 
Q 1388 413 1800 413 
Q 2222 413 2436 745 
Q 2650 1078 2653 1825 
L 2653 2734 
z
" transform="scale(0.015625)"/>
       </defs>
       <use xlink:href="#Roboto-Regular-35"/>
       <use xlink:href="#Roboto-Regular-2e" x="56.201172"/>
       <use xlink:href="#Roboto-Regular-30" x="82.568359"/>
      </g>
     </g>
    </g>
    <g id="xtick_3">
     <g id="line2d_5">
      <g>
       <use xlink:href="#md5fc64a5a6" x="136.423556" y="298.672" style="fill: #c2c1c1; stroke: #c2c1c1; stroke-width: 0.8"/>
      </g>
     </g>
     <g id="text_3">
      <!-- 5.5 -->
      <g style="fill: #191919" transform="translate(129.484493 313.172) scale(0.1 -0.1)">
       <use xlink:href="#Roboto-Regular-35"/>
       <use xlink:href="#Roboto-Regular-2e" x="56.201172"/>
       <use xlink:href="#Roboto-Regular-35" x="82.568359"/>
      </g>
     </g>
    </g>
    <g id="xtick_4">
     <g id="line2d_6">
      <g>
       <use xlink:href="#md5fc64a5a6" x="179.920333" y="298.672" style="fill: #c2c1c1; stroke: #c2c1c1; stroke-width: 0.8"/>
      </g>
     </g>
     <g id="text_4">
      <!-- 6.0 -->
      <g style="fill: #191919" transform="translate(172.981271 313.172) scale(0.1 -0.1)">
       <defs>
        <path id="Roboto-Regular-36" d="M 3291 1484 
Q 3291 838 2930 387 
Q 2569 -63 1878 -63 
Q 1388 -63 1063 198 
Q 738 459 577 861 
Q 416 1263 416 1684 
L 416 1956 
Q 416 2597 595 3194 
Q 775 3791 1247 4173 
Q 1719 4556 2597 4556 
L 2647 4556 
L 2647 4066 
Q 2041 4066 1705 3853 
Q 1369 3641 1205 3302 
Q 1041 2963 1006 2575 
Q 1369 2984 1984 2984 
Q 2438 2984 2727 2765 
Q 3016 2547 3153 2201 
Q 3291 1856 3291 1484 
z
M 997 1666 
Q 997 1059 1267 737 
Q 1538 416 1878 416 
Q 2278 416 2498 708 
Q 2719 1000 2719 1456 
Q 2719 1863 2516 2184 
Q 2313 2506 1891 2506 
Q 1588 2506 1341 2325 
Q 1094 2144 997 1884 
L 997 1666 
z
" transform="scale(0.015625)"/>
       </defs>
       <use xlink:href="#Roboto-Regular-36"/>
       <use xlink:href="#Roboto-Regular-2e" x="56.201172"/>
       <use xlink:href="#Roboto-Regular-30" x="82.568359"/>
      </g>
     </g>
    </g>
    <g id="xtick_5">
     <g id="line2d_7">
      <g>
       <use xlink:href="#md5fc64a5a6" x="223.417111" y="298.672" style="fill: #c2c1c1; stroke: #c2c1c1; stroke-width: 0.8"/>
      </g>
     </g>
     <g id="text_5">
      <!-- 6.5 -->
      <g style="fill: #191919" transform="translate(216.478049 313.172) scale(0.1 -0.1)">
       <use xlink:href="#Roboto-Regular-36"/>
       <use xlink:href="#Roboto-Regular-2e" x="56.201172"/>
       <use xlink:href="#Roboto-Regular-35" x="82.568359"/>
      </g>
     </g>
    </g>
    <g id="xtick_6">
     <g id="line2d_8">
      <g>
       <use xlink:href="#md5fc64a5a6" x="266.913889" y="298.672" style="fill: #c2c1c1; stroke: #c2c1c1; stroke-width: 0.8"/>
      </g>
     </g>
     <g id="text_6">
      <!-- 7.0 -->
      <g style="fill: #191919" transform="translate(259.974826 313.172) scale(0.1 -0.1)">
       <defs>
        <path id="Roboto-Regular-37" d="M 3319 4550 
L 3319 4225 
L 1434 0 
L 825 0 
L 2706 4075 
L 244 4075 
L 244 4550 
L 3319 4550 
z
" transform="scale(0.015625)"/>
       </defs>
       <use xlink:href="#Roboto-Regular-37"/>
       <use xlink:href="#Roboto-Regular-2e" x="56.201172"/>
       <use xlink:href="#Roboto-Regular-30" x="82.568359"/>
      </g>
     </g>
    </g>
    <g id="xtick_7">
     <g id="line2d_9">
      <g>
       <use xlink:href="#md5fc64a5a6" x="310.410667" y="298.672" style="fill: #c2c1c1; stroke: #c2c1c1; stroke-width: 0.8"/>
      </g>
     </g>
     <g id="text_7">
      <!-- 7.5 -->
      <g style="fill: #191919" transform="translate(303.471604 313.172) scale(0.1 -0.1)">
       <use xlink:href="#Roboto-Regular-37"/>
       <use xlink:href="#Roboto-Regular-2e" x="56.201172"/>
       <use xlink:href="#Roboto-Regular-35" x="82.568359"/>
      </g>
     </g>
    </g>
    <g id="xtick_8">
     <g id="line2d_10">
      <g>
       <use xlink:href="#md5fc64a5a6" x="353.907444" y="298.672" style="fill: #c2c1c1; stroke: #c2c1c1; stroke-width: 0.8"/>
      </g>
     </g>
     <g id="text_8">
      <!-- 8.0 -->
      <g style="fill: #191919" transform="translate(346.968382 313.172) scale(0.1 -0.1)">
       <defs>
        <path id="Roboto-Regular-38" d="M 3244 1231 
Q 3244 606 2826 271 
Q 2409 -63 1796 -63 
Q 1184 -63 767 271 
Q 350 606 350 1231 
Q 350 1613 554 1905 
Q 759 2197 1109 2347 
Q 806 2494 629 2762 
Q 453 3031 453 3366 
Q 453 3963 833 4288 
Q 1213 4613 1794 4613 
Q 2378 4613 2758 4288 
Q 3138 3963 3138 3366 
Q 3138 3028 2956 2761 
Q 2775 2494 2472 2347 
Q 2825 2197 3034 1903 
Q 3244 1609 3244 1231 
z
M 2559 3356 
Q 2559 3697 2346 3917 
Q 2134 4138 1793 4138 
Q 1453 4138 1243 3927 
Q 1034 3716 1034 3356 
Q 1034 3003 1243 2790 
Q 1453 2578 1797 2578 
Q 2138 2578 2348 2790 
Q 2559 3003 2559 3356 
z
M 2663 1244 
Q 2663 1625 2420 1865 
Q 2178 2106 1791 2106 
Q 1394 2106 1161 1865 
Q 928 1625 928 1244 
Q 928 850 1161 631 
Q 1394 413 1797 413 
Q 2200 413 2431 631 
Q 2663 850 2663 1244 
z
" transform="scale(0.015625)"/>
       </defs>
       <use xlink:href="#Roboto-Regular-38"/>
       <use xlink:href="#Roboto-Regular-2e" x="56.201172"/>
       <use xlink:href="#Roboto-Regular-30" x="82.568359"/>
      </g>
     </g>
    </g>
    <g id="xtick_9">
     <g id="line2d_11">
      <g>
       <use xlink:href="#md5fc64a5a6" x="397.404222" y="298.672" style="fill: #c2c1c1; stroke: #c2c1c1; stroke-width: 0.8"/>
      </g>
     </g>
     <g id="text_9">
      <!-- 8.5 -->
      <g style="fill: #191919" transform="translate(390.46516 313.172) scale(0.1 -0.1)">
       <use xlink:href="#Roboto-Regular-38"/>
       <use xlink:href="#Roboto-Regular-2e" x="56.201172"/>
       <use xlink:href="#Roboto-Regular-35" x="82.568359"/>
      </g>
     </g>
    </g>
    <g id="xtick_10">
     <g id="line2d_12">
      <g>
       <use xlink:href="#md5fc64a5a6" x="440.901" y="298.672" style="fill: #c2c1c1; stroke: #c2c1c1; stroke-width: 0.8"/>
      </g>
     </g>
     <g id="text_10">
      <!-- 9.0 -->
      <g style="fill: #191919" transform="translate(433.961937 313.172) scale(0.1 -0.1)">
       <defs>
        <path id="Roboto-Regular-39" d="M 3175 2563 
Q 3175 2119 3098 1667 
Q 3022 1216 2801 836 
Q 2581 456 2151 225 
Q 1722 -6 953 -6 
L 953 484 
Q 1644 484 1980 700 
Q 2316 916 2448 1264 
Q 2581 1613 2597 2006 
Q 2416 1791 2162 1656 
Q 1909 1522 1613 1522 
Q 1163 1522 875 1747 
Q 588 1972 450 2320 
Q 313 2669 313 3041 
Q 313 3691 670 4152 
Q 1028 4613 1725 4613 
Q 2244 4613 2564 4344 
Q 2884 4075 3029 3653 
Q 3175 3231 3175 2772 
L 3175 2563 
z
M 881 3072 
Q 881 2666 1086 2334 
Q 1291 2003 1706 2003 
Q 2003 2003 2245 2181 
Q 2488 2359 2600 2622 
L 2600 2850 
Q 2600 3472 2336 3803 
Q 2072 4134 1725 4134 
Q 1322 4134 1101 3829 
Q 881 3525 881 3072 
z
" transform="scale(0.015625)"/>
       </defs>
       <use xlink:href="#Roboto-Regular-39"/>
       <use xlink:href="#Roboto-Regular-2e" x="56.201172"/>
       <use xlink:href="#Roboto-Regular-30" x="82.568359"/>
      </g>
     </g>
    </g>
    <g id="text_11">
     <!-- CRO66 OH - CYS147 CA Distance [Å] -->
     <g style="fill: #191919" transform="translate(145.169875 330.102625) scale(0.12 -0.12)">
      <defs>
       <path id="Roboto-Black-43" d="M 2934 1541 
L 4028 1541 
Q 3994 825 3491 381 
Q 2988 -63 2147 -63 
Q 1244 -63 737 518 
Q 231 1100 219 2100 
L 219 2397 
Q 219 3425 742 4020 
Q 1266 4616 2131 4616 
Q 3022 4616 3497 4152 
Q 3972 3688 4034 2978 
L 2941 2978 
Q 2928 3363 2748 3559 
Q 2569 3756 2131 3756 
Q 1728 3756 1531 3448 
Q 1334 3141 1331 2428 
L 1331 2150 
Q 1331 1425 1515 1111 
Q 1700 797 2147 797 
Q 2913 797 2934 1541 
z
" transform="scale(0.015625)"/>
       <path id="Roboto-Black-52" d="M 2838 0 
L 2034 1606 
L 1444 1606 
L 1444 0 
L 347 0 
L 347 4550 
L 2138 4550 
Q 2925 4550 3392 4198 
Q 3859 3847 3859 3175 
Q 3859 2650 3642 2350 
Q 3425 2050 3066 1881 
L 4013 47 
L 4013 0 
L 2838 0 
z
M 1444 3703 
L 1444 2453 
L 2138 2453 
Q 2763 2453 2763 3075 
Q 2763 3694 2156 3703 
L 1444 3703 
z
" transform="scale(0.015625)"/>
       <path id="Roboto-Black-4f" d="M 4197 2181 
Q 4197 1138 3640 537 
Q 3084 -63 2213 -63 
Q 1334 -63 776 537 
Q 219 1138 219 2181 
L 219 2366 
Q 219 3409 773 4011 
Q 1328 4613 2206 4613 
Q 3078 4613 3637 4011 
Q 4197 3409 4197 2366 
L 4197 2181 
z
M 3084 2372 
Q 3084 3059 2865 3406 
Q 2647 3753 2206 3753 
Q 1388 3753 1338 2534 
L 1334 2181 
Q 1334 1513 1554 1153 
Q 1775 794 2213 794 
Q 2628 794 2854 1148 
Q 3081 1503 3084 2163 
L 3084 2372 
z
" transform="scale(0.015625)"/>
       <path id="Roboto-Black-36" d="M 3528 1506 
Q 3528 838 3083 387 
Q 2638 -63 1938 -63 
Q 1225 -63 748 412 
Q 272 888 263 1734 
L 263 2153 
Q 263 2931 594 3481 
Q 925 4031 1470 4323 
Q 2016 4616 2653 4616 
L 2822 4616 
L 2822 3788 
L 2766 3788 
Q 2228 3788 1833 3523 
Q 1438 3259 1341 2722 
Q 1694 3069 2241 3069 
Q 2863 3069 3195 2619 
Q 3528 2169 3528 1506 
z
M 1316 1613 
Q 1316 750 1909 750 
Q 2156 750 2314 965 
Q 2472 1181 2472 1506 
Q 2472 1856 2305 2059 
Q 2138 2263 1872 2263 
Q 1666 2263 1525 2167 
Q 1384 2072 1316 1934 
L 1316 1613 
z
" transform="scale(0.015625)"/>
       <path id="Roboto-Black-20" transform="scale(0.015625)"/>
       <path id="Roboto-Black-48" d="M 3056 0 
L 3056 1900 
L 1444 1900 
L 1444 0 
L 347 0 
L 347 4550 
L 1444 4550 
L 1444 2744 
L 3056 2744 
L 3056 4550 
L 4150 4550 
L 4150 0 
L 3056 0 
z
" transform="scale(0.015625)"/>
       <path id="Roboto-Black-2d" d="M 2353 2369 
L 2353 1553 
L 475 1553 
L 475 2369 
L 2353 2369 
z
" transform="scale(0.015625)"/>
       <path id="Roboto-Black-59" d="M 1172 4550 
L 2009 2575 
L 2850 4550 
L 4031 4550 
L 2569 1634 
L 2569 0 
L 1453 0 
L 1453 1634 
L -13 4550 
L 1172 4550 
z
" transform="scale(0.015625)"/>
       <path id="Roboto-Black-53" d="M 2691 1209 
Q 2691 1425 2542 1565 
Q 2394 1706 1891 1873 
Q 1388 2041 1045 2239 
Q 703 2438 520 2700 
Q 338 2963 338 3334 
Q 338 3919 834 4266 
Q 1331 4613 2088 4613 
Q 2834 4613 3311 4228 
Q 3788 3844 3788 3200 
L 2697 3200 
Q 2697 3456 2539 3620 
Q 2381 3784 2063 3784 
Q 1750 3784 1590 3648 
Q 1431 3513 1431 3325 
Q 1431 3122 1653 2983 
Q 1875 2844 2266 2719 
Q 2991 2488 3389 2139 
Q 3788 1791 3788 1216 
Q 3788 600 3328 268 
Q 2869 -63 2106 -63 
Q 1638 -63 1200 96 
Q 763 256 481 597 
Q 200 938 200 1475 
L 1300 1475 
Q 1300 1075 1509 919 
Q 1719 763 2106 763 
Q 2419 763 2555 894 
Q 2691 1025 2691 1209 
z
" transform="scale(0.015625)"/>
       <path id="Roboto-Black-31" d="M 2613 4550 
L 2613 0 
L 1559 0 
L 1559 3363 
L 522 3059 
L 522 3859 
L 2516 4550 
L 2613 4550 
z
" transform="scale(0.015625)"/>
       <path id="Roboto-Black-34" d="M 184 1609 
L 2009 4544 
L 2009 4550 
L 3063 4550 
L 3063 1778 
L 3522 1778 
L 3522 966 
L 3063 966 
L 3063 0 
L 2009 0 
L 2009 966 
L 247 966 
L 184 1609 
z
M 1191 1778 
L 2009 1778 
L 2009 3184 
L 1941 3072 
L 1191 1778 
z
" transform="scale(0.015625)"/>
       <path id="Roboto-Black-37" d="M 3444 4550 
L 3444 3988 
L 1744 0 
L 631 0 
L 2334 3738 
L 163 3738 
L 163 4550 
L 3444 4550 
z
" transform="scale(0.015625)"/>
       <path id="Roboto-Black-41" d="M -13 0 
L 1659 4550 
L 2694 4550 
L 4375 0 
L 3194 0 
L 2931 850 
L 1428 850 
L 1166 0 
L -13 0 
z
M 1691 1697 
L 2669 1697 
L 2178 3281 
L 1691 1697 
z
" transform="scale(0.015625)"/>
       <path id="Roboto-Black-44" d="M 347 0 
L 347 4550 
L 1809 4550 
Q 2425 4550 2901 4273 
Q 3378 3997 3648 3505 
Q 3919 3013 3919 2369 
L 3919 2178 
Q 3919 1219 3333 611 
Q 2747 3 1831 0 
L 347 0 
z
M 1444 3703 
L 1444 844 
L 1825 844 
Q 2744 844 2797 2028 
L 2800 2375 
Q 2800 3675 1850 3703 
L 1444 3703 
z
" transform="scale(0.015625)"/>
       <path id="Roboto-Black-69" d="M 291 4253 
Q 291 4478 453 4622 
Q 616 4766 875 4766 
Q 1134 4766 1296 4622 
Q 1459 4478 1459 4253 
Q 1459 4028 1296 3884 
Q 1134 3741 875 3741 
Q 616 3741 453 3884 
Q 291 4028 291 4253 
z
M 1409 3381 
L 1409 0 
L 353 0 
L 353 3381 
L 1409 3381 
z
" transform="scale(0.015625)"/>
       <path id="Roboto-Black-73" d="M 2069 950 
Q 2069 1084 1920 1167 
Q 1772 1250 1391 1334 
Q 897 1444 556 1689 
Q 216 1934 216 2375 
Q 216 2803 580 3123 
Q 944 3444 1609 3444 
Q 2291 3444 2689 3137 
Q 3088 2831 3088 2344 
L 2034 2344 
Q 2034 2750 1606 2750 
Q 1444 2750 1328 2662 
Q 1213 2575 1213 2428 
Q 1213 2166 1773 2059 
Q 2334 1953 2709 1728 
Q 3084 1503 3084 981 
Q 3084 534 2686 235 
Q 2288 -63 1606 -63 
Q 878 -63 495 306 
Q 113 675 113 1084 
L 1094 1084 
Q 1103 850 1251 742 
Q 1400 634 1634 634 
Q 2069 634 2069 950 
z
" transform="scale(0.015625)"/>
       <path id="Roboto-Black-74" d="M 2128 28 
Q 1850 -63 1534 -63 
Q 1025 -63 747 179 
Q 469 422 469 972 
L 469 2650 
L 41 2650 
L 41 3381 
L 469 3381 
L 469 4222 
L 1522 4222 
L 1522 3381 
L 2078 3381 
L 2078 2650 
L 1522 2650 
L 1522 1103 
Q 1522 900 1597 831 
Q 1672 763 1866 763 
Q 2019 763 2128 781 
L 2128 28 
z
" transform="scale(0.015625)"/>
       <path id="Roboto-Black-61" d="M 2200 0 
Q 2141 122 2103 303 
Q 1813 -63 1291 -63 
Q 822 -63 483 220 
Q 144 503 144 953 
Q 144 1469 520 1764 
Q 897 2059 1694 2066 
L 2053 2066 
L 2053 2244 
Q 2053 2709 1650 2709 
Q 1275 2709 1275 2341 
L 222 2341 
Q 222 2813 625 3128 
Q 1028 3444 1706 3444 
Q 2309 3444 2711 3142 
Q 3113 2841 3113 2238 
L 3113 766 
Q 3119 306 3256 53 
L 3256 0 
L 2200 0 
z
M 1541 688 
Q 1734 688 1865 770 
Q 1997 853 2053 956 
L 2053 1503 
L 1722 1503 
Q 1425 1503 1311 1351 
Q 1197 1200 1197 1009 
Q 1197 866 1295 777 
Q 1394 688 1541 688 
z
" transform="scale(0.015625)"/>
       <path id="Roboto-Black-6e" d="M 1788 2631 
Q 1478 2631 1331 2391 
L 1331 0 
L 278 0 
L 278 3381 
L 1266 3381 
L 1300 2988 
Q 1653 3444 2263 3444 
Q 2731 3444 3026 3156 
Q 3322 2869 3325 2144 
L 3325 0 
L 2266 0 
L 2266 2131 
Q 2266 2438 2141 2534 
Q 2016 2631 1788 2631 
z
" transform="scale(0.015625)"/>
       <path id="Roboto-Black-63" d="M 1725 750 
Q 2197 750 2188 1206 
L 3178 1206 
Q 3181 634 2770 285 
Q 2359 -63 1750 -63 
Q 956 -63 561 428 
Q 166 919 166 1653 
L 166 1725 
Q 166 2459 561 2951 
Q 956 3444 1744 3444 
Q 2375 3444 2778 3087 
Q 3181 2731 3178 2088 
L 2188 2088 
Q 2194 2316 2076 2473 
Q 1959 2631 1719 2631 
Q 1400 2631 1309 2372 
Q 1219 2113 1219 1653 
Q 1219 1278 1306 1014 
Q 1394 750 1725 750 
z
" transform="scale(0.015625)"/>
       <path id="Roboto-Black-65" d="M 3266 531 
Q 3109 309 2765 123 
Q 2422 -63 1934 -63 
Q 1109 -63 651 421 
Q 194 906 191 1569 
L 191 1697 
Q 191 2438 600 2941 
Q 1009 3444 1822 3444 
Q 2541 3444 2948 2997 
Q 3356 2550 3356 1788 
L 3356 1359 
L 1266 1359 
Q 1322 1078 1512 914 
Q 1703 750 2003 750 
Q 2506 750 2788 1100 
L 3266 531 
z
M 1813 2631 
Q 1544 2631 1422 2457 
Q 1300 2284 1266 2019 
L 2328 2019 
L 2328 2100 
Q 2334 2631 1813 2631 
z
" transform="scale(0.015625)"/>
       <path id="Roboto-Black-5b" d="M 1766 5331 
L 1766 4563 
L 1397 4563 
L 1397 -325 
L 1766 -325 
L 1766 -1091 
L 338 -1091 
L 338 5331 
L 1766 5331 
z
" transform="scale(0.015625)"/>
       <path id="Roboto-Black-c5" d="M -13 0 
L 1659 4550 
L 2694 4550 
L 4375 0 
L 3194 0 
L 2931 850 
L 1428 850 
L 1166 0 
L -13 0 
z
M 1691 1697 
L 2669 1697 
L 2178 3281 
L 1691 1697 
z
M 1492 5388 
Q 1492 5644 1690 5833 
Q 1889 6022 2192 6022 
Q 2498 6022 2696 5833 
Q 2895 5644 2895 5388 
Q 2895 5132 2696 4949 
Q 2498 4766 2192 4766 
Q 1889 4766 1690 4949 
Q 1492 5132 1492 5388 
z
M 1870 5387 
Q 1870 5250 1956 5156 
Q 2042 5063 2192 5063 
Q 2345 5063 2431 5156 
Q 2517 5250 2517 5387 
Q 2517 5525 2431 5622 
Q 2345 5719 2192 5719 
Q 2042 5719 1956 5622 
Q 1870 5525 1870 5387 
z
" transform="scale(0.015625)"/>
       <path id="Roboto-Black-5d" d="M 44 4563 
L 44 5331 
L 1472 5331 
L 1472 -1091 
L 44 -1091 
L 44 -325 
L 419 -325 
L 419 4563 
L 44 4563 
z
" transform="scale(0.015625)"/>
      </defs>
      <use xlink:href="#Roboto-Black-43"/>
      <use xlink:href="#Roboto-Black-52" x="65.625"/>
      <use xlink:href="#Roboto-Black-4f" x="130.859375"/>
      <use xlink:href="#Roboto-Black-36" x="199.902344"/>
      <use xlink:href="#Roboto-Black-36" x="257.861328"/>
      <use xlink:href="#Roboto-Black-20" x="315.820312"/>
      <use xlink:href="#Roboto-Black-4f" x="340.722656"/>
      <use xlink:href="#Roboto-Black-48" x="409.765625"/>
      <use xlink:href="#Roboto-Black-20" x="480.029297"/>
      <use xlink:href="#Roboto-Black-2d" x="504.931641"/>
      <use xlink:href="#Roboto-Black-20" x="549.902344"/>
      <use xlink:href="#Roboto-Black-43" x="574.804688"/>
      <use xlink:href="#Roboto-Black-59" x="640.429688"/>
      <use xlink:href="#Roboto-Black-53" x="703.222656"/>
      <use xlink:href="#Roboto-Black-31" x="765.820312"/>
      <use xlink:href="#Roboto-Black-34" x="823.779297"/>
      <use xlink:href="#Roboto-Black-37" x="881.738281"/>
      <use xlink:href="#Roboto-Black-20" x="939.697266"/>
      <use xlink:href="#Roboto-Black-43" x="964.599609"/>
      <use xlink:href="#Roboto-Black-41" x="1030.224609"/>
      <use xlink:href="#Roboto-Black-20" x="1098.339844"/>
      <use xlink:href="#Roboto-Black-44" x="1123.242188"/>
      <use xlink:href="#Roboto-Black-69" x="1187.939453"/>
      <use xlink:href="#Roboto-Black-73" x="1215.429688"/>
      <use xlink:href="#Roboto-Black-74" x="1266.699219"/>
      <use xlink:href="#Roboto-Black-61" x="1301.074219"/>
      <use xlink:href="#Roboto-Black-6e" x="1354.199219"/>
      <use xlink:href="#Roboto-Black-63" x="1410.644531"/>
      <use xlink:href="#Roboto-Black-65" x="1462.646484"/>
      <use xlink:href="#Roboto-Black-20" x="1517.138672"/>
      <use xlink:href="#Roboto-Black-5b" x="1542.041016"/>
      <use xlink:href="#Roboto-Black-c5" x="1570.263672"/>
      <use xlink:href="#Roboto-Black-5d" x="1638.378906"/>
     </g>
    </g>
   </g>
   <g id="matplotlib.axis_2">
    <g id="ytick_1">
     <g id="line2d_13">
      <defs>
       <path id="m92e57119f4" d="M 0 0 
L -3.5 0 
" style="stroke: #c2c1c1; stroke-width: 0.8"/>
      </defs>
      <g>
       <use xlink:href="#m92e57119f4" x="49.43" y="298.672" style="fill: #c2c1c1; stroke: #c2c1c1; stroke-width: 0.8"/>
      </g>
     </g>
     <g id="text_12">
      <!-- 0.0 -->
      <g style="fill: #191919" transform="translate(28.551875 302.422) scale(0.1 -0.1)">
       <use xlink:href="#Roboto-Regular-30"/>
       <use xlink:href="#Roboto-Regular-2e" x="56.201172"/>
       <use xlink:href="#Roboto-Regular-30" x="82.568359"/>
      </g>
     </g>
    </g>
    <g id="ytick_2">
     <g id="line2d_14">
      <g>
       <use xlink:href="#m92e57119f4" x="49.43" y="265.617326" style="fill: #c2c1c1; stroke: #c2c1c1; stroke-width: 0.8"/>
      </g>
     </g>
     <g id="text_13">
      <!-- 0.1 -->
      <g style="fill: #191919" transform="translate(28.551875 269.367326) scale(0.1 -0.1)">
       <defs>
        <path id="Roboto-Regular-31" d="M 2278 4575 
L 2278 0 
L 1700 0 
L 1700 3853 
L 534 3428 
L 534 3950 
L 2188 4575 
L 2278 4575 
z
" transform="scale(0.015625)"/>
       </defs>
       <use xlink:href="#Roboto-Regular-30"/>
       <use xlink:href="#Roboto-Regular-2e" x="56.201172"/>
       <use xlink:href="#Roboto-Regular-31" x="82.568359"/>
      </g>
     </g>
    </g>
    <g id="ytick_3">
     <g id="line2d_15">
      <g>
       <use xlink:href="#m92e57119f4" x="49.43" y="232.562652" style="fill: #c2c1c1; stroke: #c2c1c1; stroke-width: 0.8"/>
      </g>
     </g>
     <g id="text_14">
      <!-- 0.2 -->
      <g style="fill: #191919" transform="translate(28.551875 236.312652) scale(0.1 -0.1)">
       <defs>
        <path id="Roboto-Regular-32" d="M 3359 475 
L 3359 0 
L 381 0 
L 381 416 
L 1925 2134 
Q 2306 2566 2439 2819 
Q 2572 3072 2572 3328 
Q 2572 3663 2364 3900 
Q 2156 4138 1778 4138 
Q 1322 4138 1097 3878 
Q 872 3619 872 3213 
L 294 3213 
Q 294 3788 672 4200 
Q 1050 4613 1778 4613 
Q 2422 4613 2786 4278 
Q 3150 3944 3150 3397 
Q 3150 2997 2903 2592 
Q 2656 2188 2297 1797 
L 1078 475 
L 3359 475 
z
" transform="scale(0.015625)"/>
       </defs>
       <use xlink:href="#Roboto-Regular-30"/>
       <use xlink:href="#Roboto-Regular-2e" x="56.201172"/>
       <use xlink:href="#Roboto-Regular-32" x="82.568359"/>
      </g>
     </g>
    </g>
    <g id="ytick_4">
     <g id="line2d_16">
      <g>
       <use xlink:href="#m92e57119f4" x="49.43" y="199.507977" style="fill: #c2c1c1; stroke: #c2c1c1; stroke-width: 0.8"/>
      </g>
     </g>
     <g id="text_15">
      <!-- 0.3 -->
      <g style="fill: #191919" transform="translate(28.551875 203.257977) scale(0.1 -0.1)">
       <defs>
        <path id="Roboto-Regular-33" d="M 1222 2084 
L 1222 2559 
L 1647 2559 
Q 2094 2563 2312 2784 
Q 2531 3006 2531 3338 
Q 2531 4138 1738 4138 
Q 1369 4138 1141 3927 
Q 913 3716 913 3359 
L 334 3359 
Q 334 3881 720 4247 
Q 1106 4613 1738 4613 
Q 2353 4613 2733 4286 
Q 3113 3959 3113 3325 
Q 3113 3072 2942 2784 
Q 2772 2497 2397 2338 
Q 2850 2191 3015 1884 
Q 3181 1578 3181 1269 
Q 3181 631 2768 284 
Q 2356 -63 1741 -63 
Q 1147 -63 722 267 
Q 297 597 297 1203 
L 875 1203 
Q 875 844 1108 628 
Q 1341 413 1741 413 
Q 2138 413 2369 622 
Q 2600 831 2600 1256 
Q 2600 1681 2337 1882 
Q 2075 2084 1634 2084 
L 1222 2084 
z
" transform="scale(0.015625)"/>
       </defs>
       <use xlink:href="#Roboto-Regular-30"/>
       <use xlink:href="#Roboto-Regular-2e" x="56.201172"/>
       <use xlink:href="#Roboto-Regular-33" x="82.568359"/>
      </g>
     </g>
    </g>
    <g id="ytick_5">
     <g id="line2d_17">
      <g>
       <use xlink:href="#m92e57119f4" x="49.43" y="166.453303" style="fill: #c2c1c1; stroke: #c2c1c1; stroke-width: 0.8"/>
      </g>
     </g>
     <g id="text_16">
      <!-- 0.4 -->
      <g style="fill: #191919" transform="translate(28.551875 170.203303) scale(0.1 -0.1)">
       <use xlink:href="#Roboto-Regular-30"/>
       <use xlink:href="#Roboto-Regular-2e" x="56.201172"/>
       <use xlink:href="#Roboto-Regular-34" x="82.568359"/>
      </g>
     </g>
    </g>
    <g id="ytick_6">
     <g id="line2d_18">
      <g>
       <use xlink:href="#m92e57119f4" x="49.43" y="133.398629" style="fill: #c2c1c1; stroke: #c2c1c1; stroke-width: 0.8"/>
      </g>
     </g>
     <g id="text_17">
      <!-- 0.5 -->
      <g style="fill: #191919" transform="translate(28.551875 137.148629) scale(0.1 -0.1)">
       <use xlink:href="#Roboto-Regular-30"/>
       <use xlink:href="#Roboto-Regular-2e" x="56.201172"/>
       <use xlink:href="#Roboto-Regular-35" x="82.568359"/>
      </g>
     </g>
    </g>
    <g id="ytick_7">
     <g id="line2d_19">
      <g>
       <use xlink:href="#m92e57119f4" x="49.43" y="100.343955" style="fill: #c2c1c1; stroke: #c2c1c1; stroke-width: 0.8"/>
      </g>
     </g>
     <g id="text_18">
      <!-- 0.6 -->
      <g style="fill: #191919" transform="translate(28.551875 104.093955) scale(0.1 -0.1)">
       <use xlink:href="#Roboto-Regular-30"/>
       <use xlink:href="#Roboto-Regular-2e" x="56.201172"/>
       <use xlink:href="#Roboto-Regular-36" x="82.568359"/>
      </g>
     </g>
    </g>
    <g id="ytick_8">
     <g id="line2d_20">
      <g>
       <use xlink:href="#m92e57119f4" x="49.43" y="67.28928" style="fill: #c2c1c1; stroke: #c2c1c1; stroke-width: 0.8"/>
      </g>
     </g>
     <g id="text_19">
      <!-- 0.7 -->
      <g style="fill: #191919" transform="translate(28.551875 71.03928) scale(0.1 -0.1)">
       <use xlink:href="#Roboto-Regular-30"/>
       <use xlink:href="#Roboto-Regular-2e" x="56.201172"/>
       <use xlink:href="#Roboto-Regular-37" x="82.568359"/>
      </g>
     </g>
    </g>
    <g id="ytick_9">
     <g id="line2d_21">
      <g>
       <use xlink:href="#m92e57119f4" x="49.43" y="34.234606" style="fill: #c2c1c1; stroke: #c2c1c1; stroke-width: 0.8"/>
      </g>
     </g>
     <g id="text_20">
      <!-- 0.8 -->
      <g style="fill: #191919" transform="translate(28.551875 37.984606) scale(0.1 -0.1)">
       <use xlink:href="#Roboto-Regular-30"/>
       <use xlink:href="#Roboto-Regular-2e" x="56.201172"/>
       <use xlink:href="#Roboto-Regular-38" x="82.568359"/>
      </g>
     </g>
    </g>
    <g id="text_21">
     <!-- Density -->
     <g style="fill: #191919" transform="translate(21.990625 176.251625) rotate(-90) scale(0.12 -0.12)">
      <defs>
       <path id="Roboto-Black-79" d="M 1981 -503 
Q 1925 -675 1811 -875 
Q 1697 -1075 1473 -1220 
Q 1250 -1366 866 -1366 
L 666 -1356 
L 428 -1303 
L 428 -550 
L 566 -550 
Q 819 -550 925 -475 
Q 1031 -400 1078 -256 
L 1166 -34 
L -16 3381 
L 1113 3381 
L 1650 1472 
L 2209 3381 
L 3341 3381 
L 1981 -503 
z
" transform="scale(0.015625)"/>
      </defs>
      <use xlink:href="#Roboto-Black-44"/>
      <use xlink:href="#Roboto-Black-65" x="64.697266"/>
      <use xlink:href="#Roboto-Black-6e" x="119.189453"/>
      <use xlink:href="#Roboto-Black-73" x="175.634766"/>
      <use xlink:href="#Roboto-Black-69" x="226.904297"/>
      <use xlink:href="#Roboto-Black-74" x="254.394531"/>
      <use xlink:href="#Roboto-Black-79" x="288.769531"/>
     </g>
    </g>
   </g>
   <g id="line2d_22">
    <path d="M -1 298.672 
L 7.193998 298.672 
L 16.019432 298.672 
L 24.844865 298.672 
L 33.670298 298.672 
L 42.495731 298.672 
L 51.321164 298.672 
L 60.146597 298.672 
L 68.972031 298.672 
L 77.797464 298.671994 
L 86.622897 298.602324 
L 95.44833 298.349831 
L 104.273763 296.733662 
L 113.099196 294.742813 
L 121.92463 288.62543 
L 130.750063 278.97822 
L 139.575496 253.243022 
L 148.400929 224.552638 
L 157.226362 179.252284 
L 166.051795 126.575768 
L 174.877229 70.894857 
L 183.702662 30.800572 
L 192.528095 26.565333 
L 201.353528 39.328711 
L 210.178961 62.454681 
L 219.004395 85.337515 
L 227.829828 104.795664 
L 236.655261 120.045733 
L 245.480694 122.715541 
L 254.306127 115.739459 
L 263.13156 135.65069 
L 271.956994 162.291144 
L 280.782427 189.639869 
L 289.60786 222.97976 
L 298.433293 246.731581 
L 307.258726 264.518844 
L 316.084159 281.723667 
L 324.909593 288.788815 
L 333.735026 293.201807 
L 342.560459 296.175595 
L 351.385892 297.537976 
L 360.211325 298.322165 
L 369.036758 298.61344 
L 377.862192 298.613914 
L 386.687625 298.659438 
L 395.513058 298.672 
L 404.338491 298.671433 
L 413.163924 298.672 
L 421.989357 298.672 
L 430.814791 298.672 
L 439.640224 298.672 
L 448.465657 298.672 
L 457.29109 298.672 
L 461.8 298.672 
" clip-path="url(#pd1f7a276f5)" style="fill: none; stroke: #f99752; stroke-width: 2.5; stroke-linecap: square"/>
   </g>
   <g id="patch_3">
    <path d="M 49.43 298.672 
L 49.43 12.96 
" style="fill: none; stroke: #c2c1c1; stroke-width: 0.8; stroke-linejoin: miter; stroke-linecap: square"/>
   </g>
   <g id="patch_4">
    <path d="M 440.901 298.672 
L 440.901 12.96 
" style="fill: none; stroke: #c2c1c1; stroke-width: 0.8; stroke-linejoin: miter; stroke-linecap: square"/>
   </g>
   <g id="patch_5">
    <path d="M 49.43 298.672 
L 440.901 298.672 
" style="fill: none; stroke: #c2c1c1; stroke-width: 0.8; stroke-linejoin: miter; stroke-linecap: square"/>
   </g>
   <g id="patch_6">
    <path d="M 49.43 12.96 
L 440.901 12.96 
" style="fill: none; stroke: #c2c1c1; stroke-width: 0.8; stroke-linejoin: miter; stroke-linecap: square"/>
   </g>
   <g id="legend_1">
    <g id="line2d_23">
     <path d="M 349.9485 28.56 
L 361.9485 28.56 
L 373.9485 28.56 
" style="fill: none; stroke: #1e2e79; stroke-width: 2.5; stroke-linecap: square"/>
    </g>
    <g id="text_22">
     <!-- Reduced -->
     <g transform="translate(383.5485 32.76) scale(0.12 -0.12)">
      <defs>
       <path id="Roboto-Regular-52" d="M 3188 0 
L 2200 1844 
L 1131 1844 
L 1131 0 
L 528 0 
L 528 4550 
L 2034 4550 
Q 2800 4550 3214 4200 
Q 3628 3850 3628 3184 
Q 3628 2759 3398 2442 
Q 3169 2125 2763 1969 
L 3831 38 
L 3831 0 
L 3188 0 
z
M 1131 4056 
L 1131 2334 
L 2053 2334 
Q 2538 2334 2783 2582 
Q 3028 2831 3028 3184 
Q 3028 3578 2792 3817 
Q 2556 4056 2034 4056 
L 1131 4056 
z
" transform="scale(0.015625)"/>
       <path id="Roboto-Regular-65" d="M 3116 591 
Q 2950 341 2647 139 
Q 2344 -63 1844 -63 
Q 1138 -63 714 396 
Q 291 856 291 1572 
L 291 1703 
Q 291 2256 502 2645 
Q 713 3034 1050 3239 
Q 1388 3444 1769 3444 
Q 2494 3444 2826 2970 
Q 3159 2497 3159 1788 
L 3159 1528 
L 872 1528 
Q 884 1063 1148 736 
Q 1413 409 1875 409 
Q 2181 409 2393 534 
Q 2606 659 2766 869 
L 3116 591 
z
M 1769 2969 
Q 1425 2969 1187 2719 
Q 950 2469 891 2000 
L 2581 2000 
L 2581 2044 
Q 2559 2381 2386 2675 
Q 2213 2969 1769 2969 
z
" transform="scale(0.015625)"/>
       <path id="Roboto-Regular-64" d="M 2622 0 
L 2594 363 
Q 2247 -63 1628 -63 
Q 1034 -63 668 418 
Q 303 900 297 1628 
L 297 1719 
Q 297 2494 664 2969 
Q 1031 3444 1634 3444 
Q 2231 3444 2572 3044 
L 2572 4800 
L 3153 4800 
L 3153 0 
L 2622 0 
z
M 878 1653 
Q 878 1150 1090 789 
Q 1303 428 1772 428 
Q 2309 428 2572 919 
L 2572 2475 
Q 2313 2956 1778 2956 
Q 1306 2956 1092 2589 
Q 878 2222 878 1719 
L 878 1653 
z
" transform="scale(0.015625)"/>
       <path id="Roboto-Regular-75" d="M 2538 0 
L 2525 334 
Q 2194 -63 1538 -63 
Q 1041 -63 734 231 
Q 428 525 428 1200 
L 428 3381 
L 1006 3381 
L 1006 1194 
Q 1006 738 1198 583 
Q 1391 428 1628 428 
Q 2281 428 2509 919 
L 2509 3381 
L 3091 3381 
L 3091 0 
L 2538 0 
z
" transform="scale(0.015625)"/>
       <path id="Roboto-Regular-63" d="M 1794 413 
Q 2103 413 2336 597 
Q 2569 781 2591 1069 
L 3141 1069 
Q 3119 616 2725 276 
Q 2331 -63 1794 -63 
Q 1031 -63 661 440 
Q 291 944 291 1625 
L 291 1756 
Q 291 2438 661 2941 
Q 1031 3444 1794 3444 
Q 2388 3444 2753 3092 
Q 3119 2741 3141 2219 
L 2591 2219 
Q 2569 2531 2355 2750 
Q 2141 2969 1794 2969 
Q 1438 2969 1236 2787 
Q 1034 2606 951 2328 
Q 869 2050 869 1756 
L 869 1625 
Q 869 1328 950 1050 
Q 1031 772 1232 592 
Q 1434 413 1794 413 
z
" transform="scale(0.015625)"/>
      </defs>
      <use xlink:href="#Roboto-Regular-52"/>
      <use xlink:href="#Roboto-Regular-65" x="61.621094"/>
      <use xlink:href="#Roboto-Regular-64" x="114.648438"/>
      <use xlink:href="#Roboto-Regular-75" x="171.044922"/>
      <use xlink:href="#Roboto-Regular-63" x="226.171875"/>
      <use xlink:href="#Roboto-Regular-65" x="278.515625"/>
      <use xlink:href="#Roboto-Regular-64" x="331.542969"/>
     </g>
    </g>
    <g id="line2d_24">
     <path d="M 349.9485 45.9975 
L 361.9485 45.9975 
L 373.9485 45.9975 
" style="fill: none; stroke: #ec4067; stroke-width: 2.5; stroke-linecap: square"/>
    </g>
    <g id="text_23">
     <!-- Oxidized -->
     <g transform="translate(383.5485 50.1975) scale(0.12 -0.12)">
      <defs>
       <path id="Roboto-Regular-4f" d="M 4031 2131 
Q 4031 1106 3534 521 
Q 3038 -63 2206 -63 
Q 1397 -63 884 521 
Q 372 1106 372 2131 
L 372 2419 
Q 372 3441 881 4027 
Q 1391 4613 2200 4613 
Q 3025 4613 3523 4036 
Q 4022 3459 4031 2456 
L 4031 2131 
z
M 3434 2425 
Q 3434 3238 3109 3669 
Q 2784 4100 2200 4100 
Q 1641 4100 1305 3669 
Q 969 3238 969 2425 
L 969 2131 
Q 969 1313 1308 880 
Q 1647 447 2206 447 
Q 2794 447 3114 880 
Q 3434 1313 3434 2131 
L 3434 2425 
z
" transform="scale(0.015625)"/>
       <path id="Roboto-Regular-78" d="M 831 3381 
L 1572 2150 
L 2322 3381 
L 3000 3381 
L 1894 1713 
L 3034 0 
L 2366 0 
L 1584 1269 
L 803 0 
L 131 0 
L 1269 1713 
L 166 3381 
L 831 3381 
z
" transform="scale(0.015625)"/>
       <path id="Roboto-Regular-69" d="M 444 4278 
Q 444 4419 530 4516 
Q 616 4613 784 4613 
Q 950 4613 1039 4516 
Q 1128 4419 1128 4278 
Q 1128 4144 1039 4048 
Q 950 3953 784 3953 
Q 616 3953 530 4048 
Q 444 4144 444 4278 
z
M 1069 3381 
L 1069 0 
L 488 0 
L 488 3381 
L 1069 3381 
z
" transform="scale(0.015625)"/>
       <path id="Roboto-Regular-7a" d="M 303 2903 
L 303 3381 
L 2869 3381 
L 2869 2972 
L 988 475 
L 2959 475 
L 2959 0 
L 278 0 
L 278 425 
L 2141 2903 
L 303 2903 
z
" transform="scale(0.015625)"/>
      </defs>
      <use xlink:href="#Roboto-Regular-4f"/>
      <use xlink:href="#Roboto-Regular-78" x="68.798828"/>
      <use xlink:href="#Roboto-Regular-69" x="118.408203"/>
      <use xlink:href="#Roboto-Regular-64" x="142.724609"/>
      <use xlink:href="#Roboto-Regular-69" x="199.121094"/>
      <use xlink:href="#Roboto-Regular-7a" x="223.4375"/>
      <use xlink:href="#Roboto-Regular-65" x="273.046875"/>
      <use xlink:href="#Roboto-Regular-64" x="326.074219"/>
     </g>
    </g>
    <g id="line2d_25">
     <path d="M 349.9485 64.06125 
L 361.9485 64.06125 
L 373.9485 64.06125 
" style="fill: none; stroke: #f99752; stroke-width: 2.5; stroke-linecap: square"/>
    </g>
    <g id="text_24">
     <!-- Cu(I) -->
     <g transform="translate(383.5485 68.26125) scale(0.12 -0.12)">
      <defs>
       <path id="Roboto-Regular-43" d="M 3275 1447 
L 3875 1447 
Q 3806 800 3387 368 
Q 2969 -63 2150 -63 
Q 1356 -63 870 504 
Q 384 1072 375 2013 
L 375 2500 
Q 375 3456 867 4034 
Q 1359 4613 2203 4613 
Q 2975 4613 3390 4188 
Q 3806 3763 3875 3091 
L 3275 3091 
Q 3206 3566 2968 3842 
Q 2731 4119 2203 4119 
Q 1600 4119 1287 3675 
Q 975 3231 975 2506 
L 975 2047 
Q 975 1375 1259 901 
Q 1544 428 2150 428 
Q 2725 428 2961 697 
Q 3197 966 3275 1447 
z
" transform="scale(0.015625)"/>
       <path id="Roboto-Regular-28" d="M 419 1850 
Q 419 2756 678 3434 
Q 938 4113 1294 4541 
Q 1650 4969 1947 5134 
L 2069 4753 
Q 1700 4475 1348 3761 
Q 997 3047 997 1813 
Q 997 625 1348 -97 
Q 1700 -819 2069 -1119 
L 1947 -1469 
Q 1650 -1306 1294 -878 
Q 938 -450 678 226 
Q 419 903 419 1850 
z
" transform="scale(0.015625)"/>
       <path id="Roboto-Regular-49" d="M 1175 4550 
L 1175 0 
L 572 0 
L 572 4550 
L 1175 4550 
z
" transform="scale(0.015625)"/>
       <path id="Roboto-Regular-29" d="M 1772 1819 
Q 1772 906 1512 228 
Q 1253 -450 895 -878 
Q 538 -1306 244 -1469 
L 122 -1119 
Q 488 -841 841 -109 
Q 1194 622 1194 1856 
Q 1194 2647 1019 3236 
Q 844 3825 594 4212 
Q 344 4600 122 4781 
L 244 5134 
Q 538 4969 895 4541 
Q 1253 4113 1512 3436 
Q 1772 2759 1772 1819 
z
" transform="scale(0.015625)"/>
      </defs>
      <use xlink:href="#Roboto-Regular-43"/>
      <use xlink:href="#Roboto-Regular-75" x="65.087891"/>
      <use xlink:href="#Roboto-Regular-28" x="120.214844"/>
      <use xlink:href="#Roboto-Regular-49" x="154.443359"/>
      <use xlink:href="#Roboto-Regular-29" x="181.640625"/>
     </g>
    </g>
   </g>
  </g>
 </g>
 <defs>
  <clipPath id="pd1f7a276f5">
   <rect x="49.43" y="12.96" width="391.471" height="285.712"/>
  </clipPath>
 </defs>
</svg>
