<?xml version="1.0" encoding="utf-8" standalone="no"?>
<!DOCTYPE svg PUBLIC "-//W3C//DTD SVG 1.1//EN"
  "http://www.w3.org/Graphics/SVG/1.1/DTD/svg11.dtd">
<svg xmlns:xlink="http://www.w3.org/1999/xlink" width="460.8pt" height="345.6pt" viewBox="0 0 460.8 345.6" xmlns="http://www.w3.org/2000/svg" version="1.1">
 <metadata>
  <rdf:RDF xmlns:dc="http://purl.org/dc/elements/1.1/" xmlns:cc="http://creativecommons.org/ns#" xmlns:rdf="http://www.w3.org/1999/02/22-rdf-syntax-ns#">
   <cc:Work>
    <dc:type rdf:resource="http://purl.org/dc/dcmitype/StillImage"/>
    <dc:date>2024-07-14T18:34:42.542073</dc:date>
    <dc:format>image/svg+xml</dc:format>
    <dc:creator>
     <cc:Agent>
      <dc:title>Matplotlib v3.8.4, https://matplotlib.org/</dc:title>
     </cc:Agent>
    </dc:creator>
   </cc:Work>
  </rdf:RDF>
 </metadata>
 <defs>
  <style type="text/css">*{stroke-linejoin: round; stroke-linecap: butt}</style>
 </defs>
 <g id="figure_1">
  <g id="patch_1">
   <path d="M 0 345.6 
L 460.8 345.6 
L 460.8 0 
L 0 0 
z
" style="fill: #ffffff"/>
  </g>
  <g id="axes_1">
   <g id="patch_2">
    <path d="M 47.243 300.112 
L 447.84 300.112 
L 447.84 16.74 
L 47.243 16.74 
z
" style="fill: #ffffff"/>
   </g>
   <g id="line2d_1">
    <path d="M 47.243 268.626222 
L 447.84 268.626222 
" clip-path="url(#p51dc6d8bd5)" style="fill: none; stroke-dasharray: 1.75,2.8875; stroke-dashoffset: 0; stroke: #c0c0c0; stroke-width: 1.75"/>
   </g>
   <g id="line2d_2">
    <path d="M 60.128238 -1 
L 61.133379 42.142095 
L 61.688995 59.135516 
L 62.24461 71.392721 
L 62.800225 78.91371 
L 63.35584 81.698482 
L 63.911455 79.747037 
L 64.467071 73.059376 
L 65.022686 61.635499 
L 65.578301 45.475405 
L 66.133916 24.579124 
L 66.688412 -1 
M 69.1968 -1 
L 70.023222 35.833034 
L 70.578837 54.312728 
L 71.134453 68.05621 
L 71.690068 77.063475 
L 72.245683 81.334523 
L 72.801298 80.869355 
L 73.356913 75.667972 
L 73.912529 65.730404 
L 74.468144 51.0575 
L 75.023759 31.672704 
L 75.900075 -1 
M 76.35663 -1 
L 76.690604 9.166985 
L 77.801835 51.725475 
L 78.35745 66.211797 
L 78.913065 75.962685 
L 79.46868 80.977491 
L 80.024296 81.257154 
L 80.579911 76.81141 
L 81.135526 67.738008 
L 81.691141 54.981843 
L 82.246756 45.269017 
L 82.802371 51.405714 
L 83.357987 64.493 
L 83.913602 74.764128 
L 84.469217 80.50337 
L 85.024832 81.52682 
L 85.580447 77.816195 
L 86.136062 69.371577 
L 86.691678 56.226167 
L 87.802908 25.036125 
L 88.358523 35.522002 
L 89.469754 72.466077 
L 90.025369 84.614618 
L 90.580984 92.032562 
L 91.136599 94.715481 
L 91.692214 92.663774 
L 92.247829 85.885162 
L 92.803445 74.471461 
L 93.35906 59.483976 
L 93.914675 49.544054 
L 94.47029 59.181116 
L 95.58152 88.971869 
L 96.137136 99.262988 
L 96.692751 106.660662 
L 97.248366 111.69781 
L 97.803981 114.676969 
L 98.359596 115.477847 
L 98.915212 113.660099 
L 99.470827 108.844321 
L 100.582057 95.047582 
L 101.137672 96.167899 
L 102.248903 111.735833 
L 102.804518 116.862603 
L 103.360133 118.747364 
L 103.915748 117.695367 
L 105.026979 111.703325 
L 105.582594 110.683599 
L 106.138209 112.343574 
L 107.805054 121.689551 
L 108.36067 123.312513 
L 108.916285 124.094306 
L 109.4719 124.308418 
L 110.027515 123.791062 
L 110.58313 122.020045 
L 111.138745 118.75764 
L 111.694361 114.757361 
L 112.249976 112.000156 
L 112.805591 112.139393 
L 113.361206 114.592983 
L 114.472437 121.845538 
L 115.583667 129.095759 
L 116.139282 131.644566 
L 116.694897 133.425584 
L 118.361743 137.73612 
L 120.028588 143.245898 
L 120.584204 144.600236 
L 121.695434 146.58761 
L 122.251049 147.957851 
L 123.917895 153.779347 
L 124.47351 154.960617 
L 125.029125 155.473606 
L 125.58474 155.528914 
L 127.807201 155.280733 
L 128.918431 155.160761 
L 129.474046 154.723747 
L 131.140892 152.204405 
L 132.252122 151.015477 
L 132.807737 150.658753 
L 133.363353 151.001931 
L 133.918968 152.127856 
L 135.030198 154.735047 
L 135.585813 155.113877 
L 136.141428 154.517211 
L 136.697044 153.055763 
L 137.808274 149.075386 
L 138.363889 147.555929 
L 138.919504 146.893287 
L 140.030735 146.87291 
L 140.58635 146.171415 
L 141.141965 144.670628 
L 144.475656 132.080519 
L 145.031271 128.819829 
L 146.698117 116.171313 
L 147.253732 111.152758 
L 148.364962 98.715583 
L 148.920578 95.122763 
L 149.476193 95.169225 
L 150.031808 95.541263 
L 150.587423 93.428729 
L 151.698653 84.716485 
L 152.254269 86.052646 
L 152.809884 90.940393 
L 153.365499 94.562811 
L 153.921114 95.201309 
L 154.476729 93.755497 
L 155.032345 92.90033 
L 155.58796 94.486828 
L 156.143575 96.964039 
L 156.69919 98.139911 
L 157.254805 97.514345 
L 158.921651 92.22499 
L 159.477266 89.670599 
L 160.032881 85.200887 
L 160.588496 77.759901 
L 161.144112 66.642643 
L 162.255342 39.004162 
L 162.810957 43.424997 
L 163.922187 70.578179 
L 164.477803 78.471752 
L 165.033418 81.647869 
L 165.589033 80.090387 
L 166.144648 73.809351 
L 166.700263 62.942727 
L 167.255878 49.06019 
L 167.811494 43.035656 
L 168.367109 55.823538 
L 168.922724 72.072335 
L 169.478339 84.804583 
L 170.033954 93.545451 
L 170.58957 98.912204 
L 171.145185 102.064506 
L 172.256415 106.470286 
L 172.81203 108.107466 
L 173.367645 108.8865 
L 174.478876 109.367929 
L 175.034491 109.88571 
L 175.590106 109.934743 
L 176.145721 108.599662 
L 176.701336 105.509557 
L 177.256952 101.717218 
L 177.812567 100.761961 
L 178.368182 105.39385 
L 178.923797 112.484119 
L 179.479412 118.120376 
L 180.035028 120.878845 
L 180.590643 120.754568 
L 181.146258 118.459847 
L 182.257488 112.651257 
L 182.813103 111.59863 
L 183.368719 111.931455 
L 183.924334 112.743268 
L 184.479949 113.108288 
L 185.035564 112.502735 
L 185.591179 111.182425 
L 186.146795 110.441226 
L 186.70241 111.5733 
L 187.258025 113.971328 
L 187.81364 115.79013 
L 188.369255 115.825182 
L 188.92487 114.035685 
L 189.480486 111.774022 
L 190.036101 111.863404 
L 190.591716 115.807046 
L 191.147331 121.207609 
L 191.702946 125.179575 
L 192.258561 126.691973 
L 192.814177 126.229722 
L 193.369792 125.205635 
L 193.925407 124.975488 
L 195.592253 126.928333 
L 196.147868 127.402838 
L 196.703483 128.553192 
L 197.814713 131.962506 
L 198.370328 133.064547 
L 198.925944 133.624424 
L 199.481559 133.793452 
L 200.037174 133.656076 
L 200.592789 133.368048 
L 201.148404 133.317074 
L 201.704019 133.900774 
L 202.81525 136.085822 
L 203.370865 136.357755 
L 203.92648 135.354353 
L 204.482095 132.845439 
L 205.593326 124.925962 
L 206.148941 122.254278 
L 206.704556 121.81656 
L 207.260171 122.391469 
L 207.815786 122.447706 
L 208.927017 120.818556 
L 209.482632 121.206484 
L 210.038247 123.031023 
L 210.593862 125.319851 
L 211.149478 126.894095 
L 211.705093 126.924573 
L 212.260708 125.041424 
L 213.927553 114.97775 
L 215.038784 111.969185 
L 215.594399 110.58186 
L 216.150014 109.887971 
L 216.705629 110.875966 
L 217.261244 114.083174 
L 218.372475 124.82395 
L 219.483705 134.598729 
L 220.594936 140.587269 
L 221.150551 143.643976 
L 222.261781 152.197494 
L 223.373011 159.970154 
L 225.595472 171.210175 
L 228.373548 188.104704 
L 230.596009 201.197842 
L 232.262854 211.171224 
L 236.707776 233.959838 
L 238.374621 241.130577 
L 240.597082 249.604165 
L 241.708312 253.29008 
L 243.375158 257.909848 
L 245.042003 261.833499 
L 246.153234 264.025144 
L 247.264464 265.765342 
L 248.375694 267.068508 
L 249.486925 267.972428 
L 250.598155 268.474778 
L 251.709386 268.626501 
L 252.820616 268.466377 
L 253.376231 268.225234 
L 254.487461 267.378122 
L 255.598692 266.077235 
L 256.709922 264.405463 
L 257.821152 262.474289 
L 258.932383 260.186506 
L 260.599228 256.145364 
L 262.266074 251.45778 
L 263.377304 247.739 
L 265.04415 241.228911 
L 267.266611 231.317527 
L 268.933456 223.375525 
L 270.044686 217.327478 
L 272.267147 203.470467 
L 273.933993 192.877788 
L 275.600838 182.81529 
L 277.823299 167.574341 
L 278.934529 158.189407 
L 280.04576 148.875881 
L 281.15699 142.108867 
L 283.379451 129.987458 
L 285.046296 117.116886 
L 285.601911 115.458649 
L 286.157527 116.531896 
L 288.379987 124.774429 
L 288.935602 125.505719 
L 289.491218 124.89817 
L 290.602448 122.121392 
L 291.158063 121.078741 
L 291.713678 119.642887 
L 293.380524 112.721803 
L 293.936139 112.651997 
L 295.047369 114.860038 
L 295.602985 115.531244 
L 296.1586 116.024838 
L 296.714215 116.874245 
L 297.26983 118.424535 
L 298.38106 121.956059 
L 298.936676 122.530835 
L 299.492291 122.399373 
L 300.047906 122.417591 
L 300.603521 122.872057 
L 301.159136 123.050507 
L 301.714752 122.3389 
L 302.270367 121.224701 
L 302.825982 121.143265 
L 303.381597 123.043525 
L 304.492827 128.964048 
L 305.048443 130.070941 
L 305.604058 128.830206 
L 306.159673 125.122207 
L 307.826519 106.821861 
L 308.382134 103.670411 
L 308.937749 105.145347 
L 310.048979 115.670881 
L 310.604594 119.015372 
L 311.16021 119.699279 
L 311.715825 118.322333 
L 312.27144 116.364442 
L 312.827055 115.187424 
L 313.38267 114.620612 
L 313.938285 113.602915 
L 314.493901 112.003475 
L 315.049516 110.968761 
L 315.605131 111.436594 
L 316.716361 114.609406 
L 317.827592 118.547663 
L 318.383207 120.751078 
L 318.938822 122.115835 
L 319.494437 121.615914 
L 320.050052 118.461462 
L 320.605668 112.206175 
L 322.272513 85.857 
L 322.828128 85.586317 
L 323.383743 88.540995 
L 323.939359 92.861801 
L 325.606204 110.662961 
L 326.161819 113.79909 
L 326.717435 114.242109 
L 327.27305 111.828506 
L 327.828665 106.632515 
L 328.939895 92.402587 
L 329.49551 88.468729 
L 330.051126 87.579855 
L 330.606741 87.852095 
L 331.162356 88.72552 
L 332.273586 91.249363 
L 332.829202 91.081117 
L 333.384817 88.84278 
L 333.940432 84.047575 
L 335.051662 71.230879 
L 335.607277 72.014355 
L 336.162893 77.380769 
L 336.718508 81.297996 
L 337.274123 81.231269 
L 337.829738 76.587091 
L 338.385353 67.31183 
L 339.496584 43.084783 
L 340.052199 49.179751 
L 341.163429 78.193946 
L 341.719044 88.422706 
L 342.27466 95.55103 
L 342.830275 100.11777 
L 343.38589 102.838471 
L 343.941505 104.577109 
L 344.49712 105.91884 
L 345.052735 106.667731 
L 345.608351 106.359388 
L 346.163966 105.540533 
L 346.719581 105.976966 
L 347.830811 110.731168 
L 348.386427 111.567655 
L 348.942042 110.63333 
L 349.497657 109.029556 
L 350.053272 108.160254 
L 350.608887 108.401727 
L 351.164502 109.126867 
L 351.720118 110.115959 
L 352.275733 112.189662 
L 352.831348 116.157882 
L 353.942578 126.123245 
L 354.498193 129.435676 
L 355.053809 131.170321 
L 355.609424 131.877829 
L 357.831885 133.44264 
L 358.3875 134.09747 
L 358.943115 135.263589 
L 359.49873 137.026723 
L 361.165576 143.710618 
L 361.721191 145.221299 
L 362.276806 145.617856 
L 362.832421 144.77558 
L 363.388036 143.243931 
L 363.943651 142.160215 
L 364.499267 142.420759 
L 365.054882 143.878126 
L 366.166112 147.209629 
L 366.721727 148.051335 
L 368.388573 149.04671 
L 368.944188 149.699077 
L 369.499803 150.127199 
L 370.055418 150.07252 
L 370.611034 149.737659 
L 371.166649 149.603641 
L 371.722264 149.874489 
L 372.833494 150.600976 
L 373.38911 150.906543 
L 373.944725 151.521192 
L 375.055955 153.822668 
L 375.61157 154.938101 
L 376.167185 155.538933 
L 376.722801 155.286168 
L 377.278416 154.043016 
L 378.389646 150.462251 
L 378.945261 149.688773 
L 380.056492 149.767829 
L 380.612107 149.390611 
L 381.167722 148.444502 
L 381.723337 146.930045 
L 383.390183 140.546728 
L 383.945798 139.644865 
L 384.501413 139.523626 
L 385.057028 139.567147 
L 385.612643 139.412363 
L 386.168259 138.814938 
L 386.723874 137.494496 
L 387.279489 135.390616 
L 388.390719 130.389037 
L 388.946335 128.421627 
L 389.50195 127.227485 
L 390.057565 126.867979 
L 390.61318 126.86132 
L 391.168795 126.36575 
L 391.72441 124.764802 
L 392.280026 121.956463 
L 393.391256 115.328559 
L 393.946871 114.354725 
L 394.502486 115.833608 
L 395.058101 118.041384 
L 395.613717 119.126326 
L 396.169332 118.39199 
L 398.391793 109.989201 
L 399.503023 106.787336 
L 400.058638 105.900769 
L 400.614253 106.560301 
L 401.169868 107.662375 
L 401.725484 107.138705 
L 402.281099 103.505355 
L 402.836714 96.018368 
L 403.392329 84.341266 
L 404.503559 49.963448 
L 405.059175 41.415046 
L 405.61479 52.750553 
L 406.170405 66.438166 
L 406.72602 76.068039 
L 407.281635 81.013554 
L 407.837251 81.226757 
L 408.392866 76.704038 
L 408.948481 67.445127 
L 409.504096 53.450037 
L 410.059711 34.72003 
L 410.872882 -1 
M 412.18618 -1 
L 413.393402 48.7152 
L 413.949018 64.690869 
L 414.504633 76.405267 
L 415.060248 84.226237 
L 415.615863 88.672769 
L 416.171478 90.285062 
L 416.727093 89.345528 
L 417.282709 85.683542 
L 417.838324 78.810888 
L 418.393939 68.329787 
L 418.949554 55.200127 
L 419.505169 47.624291 
L 420.060784 56.19256 
L 420.6164 69.629452 
L 421.172015 80.315522 
L 421.72763 87.370964 
L 422.283245 91.079677 
L 422.83886 91.900391 
L 423.394476 90.490838 
L 423.950091 88.05051 
L 424.505706 86.192158 
L 425.061321 85.289296 
L 425.616936 83.631249 
L 426.172551 79.196735 
L 426.728167 70.819229 
L 427.283782 58.001506 
L 427.839397 40.555134 
L 428.799549 -1 
M 430.401187 -1 
L 431.173088 35.589735 
L 431.728703 56.346516 
L 432.284318 72.569491 
L 432.839934 84.2774 
L 433.395549 91.485618 
L 433.951164 94.204343 
L 434.506779 92.437572 
L 435.062394 86.182697 
L 435.618009 75.430771 
L 436.173625 60.167402 
L 436.72924 40.374086 
L 437.612061 -1 
L 437.612061 -1 
" clip-path="url(#p51dc6d8bd5)" style="fill: none; stroke: #1e2e79; stroke-width: 2.5; stroke-linecap: square"/>
   </g>
   <g id="line2d_3">
    <path d="M 47.243 141.88691 
L 49.465461 145.911409 
L 50.576691 148.965775 
L 51.132306 149.519932 
L 51.687921 148.702581 
L 53.910382 140.963872 
L 55.021612 136.240275 
L 55.577228 134.638409 
L 56.132843 134.494864 
L 57.244073 135.97532 
L 57.799688 135.627268 
L 58.355304 134.503295 
L 58.910919 133.837177 
L 59.466534 134.659429 
L 60.577764 138.086527 
L 61.133379 138.675846 
L 61.688995 137.967555 
L 62.24461 135.943538 
L 63.35584 129.276946 
L 63.911455 125.79506 
L 64.467071 123.117948 
L 65.022686 122.327483 
L 65.578301 123.819085 
L 66.133916 126.142357 
L 66.689531 127.669801 
L 67.800762 128.61204 
L 70.023222 132.419623 
L 71.134453 134.565986 
L 71.690068 134.971813 
L 72.801298 134.807703 
L 73.912529 135.089845 
L 74.468144 134.79983 
L 75.023759 133.794677 
L 75.579374 131.898519 
L 76.134989 128.943682 
L 76.690604 124.809411 
L 77.801835 115.749871 
L 78.35745 116.341484 
L 80.024296 131.916506 
L 80.579911 133.822937 
L 81.135526 134.148581 
L 81.691141 133.878078 
L 82.246756 133.939915 
L 82.802371 134.815834 
L 83.913602 137.637096 
L 84.469217 138.356345 
L 85.580447 138.476423 
L 86.136062 139.028366 
L 87.247293 141.01725 
L 87.802908 141.44287 
L 88.358523 141.528363 
L 88.914138 141.755856 
L 89.469754 142.421456 
L 90.580984 144.22194 
L 91.136599 144.406935 
L 92.247829 143.59709 
L 92.803445 144.23357 
L 94.47029 149.212663 
L 95.025905 149.909459 
L 96.137136 150.403451 
L 96.692751 150.956352 
L 97.803981 152.529699 
L 98.359596 152.302555 
L 98.915212 150.728761 
L 100.026442 145.802248 
L 100.582057 144.815176 
L 101.137672 145.011009 
L 101.693287 145.327886 
L 102.248903 145.18197 
L 102.804518 144.695462 
L 103.360133 144.043273 
L 103.915748 142.933583 
L 104.471363 140.86124 
L 105.582594 134.663192 
L 106.138209 132.772599 
L 107.249439 131.607405 
L 107.805054 129.65215 
L 108.36067 126.057722 
L 109.4719 117.26854 
L 110.027515 114.537685 
L 111.694361 109.972925 
L 112.805591 106.341967 
L 113.361206 104.742171 
L 113.916821 102.723224 
L 114.472437 100.180718 
L 115.028052 97.10716 
L 115.583667 92.943751 
L 116.139282 86.645892 
L 117.250512 67.792201 
L 117.806128 66.196381 
L 118.917358 83.867095 
L 119.472973 89.806212 
L 120.028588 92.327348 
L 120.584204 91.626411 
L 121.139819 87.602243 
L 121.695434 79.841413 
L 122.251049 67.845927 
L 122.806664 51.211012 
L 123.362279 29.669529 
L 123.989007 -1 
M 195.359973 -1 
L 196.147868 36.339343 
L 196.703483 55.876332 
L 197.259098 70.165964 
L 197.814713 79.208239 
L 198.370328 83.003158 
L 198.925944 81.55072 
L 199.481559 74.850926 
L 200.037174 62.903775 
L 200.592789 45.709268 
L 201.148404 23.267404 
L 201.635357 -1 
M 208.069264 -1 
L 208.927017 41.892282 
L 209.482632 63.006895 
L 210.038247 79.436545 
L 210.593862 91.615446 
L 211.149478 100.338698 
L 212.260708 111.976483 
L 212.816323 116.276786 
L 213.371938 119.411106 
L 215.038784 125.215512 
L 216.150014 130.167603 
L 216.705629 131.159189 
L 217.261244 130.572955 
L 217.81686 128.675335 
L 219.483705 120.267369 
L 220.03932 117.319584 
L 220.594936 113.597978 
L 221.706166 104.896994 
L 222.261781 104.676091 
L 222.817396 109.028418 
L 223.373011 114.800869 
L 223.928627 119.269249 
L 224.484242 121.441412 
L 225.039857 121.467897 
L 225.595472 120.562811 
L 226.151087 121.053949 
L 226.706703 124.822973 
L 228.373548 142.921476 
L 229.484778 151.549067 
L 231.151624 163.615204 
L 232.818469 178.733966 
L 233.9297 188.408894 
L 235.596545 200.347125 
L 237.819006 214.875033 
L 240.041467 228.175349 
L 241.708312 237.486942 
L 243.375158 245.451636 
L 244.486388 250.132474 
L 245.597619 254.12089 
L 247.264464 259.321042 
L 248.375694 262.365398 
L 249.486925 264.92727 
L 250.598155 267.013141 
L 251.709386 268.620829 
L 252.820616 269.865758 
L 253.931846 270.726791 
L 254.487461 270.939962 
L 255.043077 270.986001 
L 255.598692 270.879752 
L 256.709922 270.356197 
L 257.821152 269.461801 
L 258.932383 268.049801 
L 260.043613 266.226371 
L 261.154844 263.970288 
L 262.266074 261.225444 
L 263.377304 257.959995 
L 265.04415 252.279132 
L 266.710995 245.774991 
L 268.377841 238.287441 
L 270.044686 230.014995 
L 271.711532 220.614404 
L 274.489608 202.579682 
L 276.156453 191.306073 
L 277.823299 178.225721 
L 280.04576 159.76252 
L 281.712605 143.696595 
L 283.379451 133.430764 
L 283.935066 127.429792 
L 284.490681 118.738985 
L 285.046296 106.953648 
L 285.601911 91.643749 
L 286.157527 72.359237 
L 287.824372 4.175452 
L 288.379987 22.683629 
L 288.935602 44.961248 
L 289.491218 62.344791 
L 290.046833 74.491665 
L 290.602448 81.391505 
L 291.158063 83.043998 
L 291.713678 79.449135 
L 292.269294 70.606915 
L 292.824909 56.517339 
L 293.380524 37.180407 
L 294.189367 -1 
M 378.8239 -1 
L 379.500876 31.661539 
L 380.056492 52.279811 
L 380.612107 67.650839 
L 381.167722 77.775321 
L 381.723337 82.658247 
L 382.278952 82.335313 
L 382.834568 77.058858 
L 383.390183 68.477527 
L 383.945798 63.623926 
L 384.501413 69.396271 
L 385.057028 78.077174 
L 385.612643 83.790272 
L 386.168259 86.763257 
L 386.723874 90.510589 
L 388.390719 113.856822 
L 388.946335 118.048643 
L 389.50195 119.798584 
L 390.057565 120.473681 
L 390.61318 121.929183 
L 391.72441 127.750064 
L 392.280026 129.471069 
L 393.391256 130.900157 
L 394.502486 134.209097 
L 395.058101 135.071843 
L 395.613717 135.571379 
L 396.169332 137.042196 
L 397.280562 142.80053 
L 397.836177 144.863752 
L 398.391793 146.018566 
L 399.503023 147.493249 
L 400.058638 148.00768 
L 400.614253 148.158499 
L 401.169868 147.808967 
L 401.725484 146.861855 
L 402.836714 144.3221 
L 403.392329 143.848569 
L 403.947944 143.607937 
L 404.503559 142.483257 
L 405.059175 139.874886 
L 405.61479 136.585704 
L 406.170405 134.759852 
L 406.72602 135.56859 
L 407.281635 137.597765 
L 407.837251 139.180055 
L 408.392866 139.874778 
L 408.948481 139.940715 
L 409.504096 139.624539 
L 410.059711 138.950606 
L 411.726557 136.144339 
L 412.282172 135.486269 
L 412.837787 135.136362 
L 413.393402 135.361619 
L 414.504633 136.492433 
L 415.060248 136.434681 
L 415.615863 135.896142 
L 416.171478 135.001224 
L 416.727093 133.657434 
L 418.393939 128.062662 
L 419.505169 125.813763 
L 420.060784 123.897285 
L 420.6164 121.120184 
L 421.172015 119.167764 
L 421.72763 120.265666 
L 423.394476 130.434837 
L 423.950091 132.553998 
L 424.505706 134.110214 
L 425.061321 134.836754 
L 425.616936 134.435663 
L 426.728167 131.866376 
L 427.283782 131.437423 
L 427.839397 131.840018 
L 428.395012 132.624465 
L 428.950627 133.690364 
L 430.061858 136.660682 
L 430.617473 138.498011 
L 432.839934 147.284977 
L 433.395549 147.882837 
L 434.506779 148.105809 
L 435.062394 148.024814 
L 435.618009 147.568644 
L 436.173625 146.908885 
L 436.72924 146.487906 
L 437.284855 146.510546 
L 437.84047 146.896199 
L 438.396085 147.647699 
L 439.507316 149.72844 
L 440.062931 149.766407 
L 440.618546 148.483083 
L 441.174161 146.44567 
L 441.729776 144.97101 
L 442.285392 144.875336 
L 442.841007 145.598942 
L 443.396622 146.132333 
L 443.952237 145.998943 
L 444.507852 145.231166 
L 446.174698 141.742002 
L 446.730313 141.88691 
L 446.730313 141.88691 
" clip-path="url(#p51dc6d8bd5)" style="fill: none; stroke: #ec4067; stroke-width: 2.5; stroke-linecap: square"/>
   </g>
   <g id="matplotlib.axis_1">
    <g id="xtick_1">
     <g id="line2d_4">
      <defs>
       <path id="mb714aa9a22" d="M 0 0 
L 0 3.5 
" style="stroke: #c2c1c1; stroke-width: 0.8"/>
      </defs>
      <g>
       <use xlink:href="#mb714aa9a22" x="47.243" y="300.112" style="fill: #c2c1c1; stroke: #c2c1c1; stroke-width: 0.8"/>
      </g>
     </g>
     <g id="text_1">
      <!-- 0 -->
      <g style="fill: #191919" transform="translate(44.432844 314.612) scale(0.1 -0.1)">
       <defs>
        <path id="Roboto-Regular-30" d="M 3234 1944 
Q 3234 825 2848 381 
Q 2463 -63 1800 -63 
Q 1156 -63 764 368 
Q 372 800 359 1872 
L 359 2638 
Q 359 3753 750 4183 
Q 1141 4613 1794 4613 
Q 2447 4613 2834 4195 
Q 3222 3778 3234 2709 
L 3234 1944 
z
M 2653 2734 
Q 2653 3503 2434 3822 
Q 2216 4141 1794 4141 
Q 1388 4141 1167 3831 
Q 947 3522 941 2778 
L 941 1850 
Q 941 1088 1164 750 
Q 1388 413 1800 413 
Q 2222 413 2436 745 
Q 2650 1078 2653 1825 
L 2653 2734 
z
" transform="scale(0.015625)"/>
       </defs>
       <use xlink:href="#Roboto-Regular-30"/>
      </g>
     </g>
    </g>
    <g id="xtick_2">
     <g id="line2d_5">
      <g>
       <use xlink:href="#mb714aa9a22" x="113.824219" y="300.112" style="fill: #c2c1c1; stroke: #c2c1c1; stroke-width: 0.8"/>
      </g>
     </g>
     <g id="text_2">
      <!-- 60 -->
      <g style="fill: #191919" transform="translate(108.203906 314.612) scale(0.1 -0.1)">
       <defs>
        <path id="Roboto-Regular-36" d="M 3291 1484 
Q 3291 838 2930 387 
Q 2569 -63 1878 -63 
Q 1388 -63 1063 198 
Q 738 459 577 861 
Q 416 1263 416 1684 
L 416 1956 
Q 416 2597 595 3194 
Q 775 3791 1247 4173 
Q 1719 4556 2597 4556 
L 2647 4556 
L 2647 4066 
Q 2041 4066 1705 3853 
Q 1369 3641 1205 3302 
Q 1041 2963 1006 2575 
Q 1369 2984 1984 2984 
Q 2438 2984 2727 2765 
Q 3016 2547 3153 2201 
Q 3291 1856 3291 1484 
z
M 997 1666 
Q 997 1059 1267 737 
Q 1538 416 1878 416 
Q 2278 416 2498 708 
Q 2719 1000 2719 1456 
Q 2719 1863 2516 2184 
Q 2313 2506 1891 2506 
Q 1588 2506 1341 2325 
Q 1094 2144 997 1884 
L 997 1666 
z
" transform="scale(0.015625)"/>
       </defs>
       <use xlink:href="#Roboto-Regular-36"/>
       <use xlink:href="#Roboto-Regular-30" x="56.201172"/>
      </g>
     </g>
    </g>
    <g id="xtick_3">
     <g id="line2d_6">
      <g>
       <use xlink:href="#mb714aa9a22" x="180.405438" y="300.112" style="fill: #c2c1c1; stroke: #c2c1c1; stroke-width: 0.8"/>
      </g>
     </g>
     <g id="text_3">
      <!-- 120 -->
      <g style="fill: #191919" transform="translate(171.974969 314.612) scale(0.1 -0.1)">
       <defs>
        <path id="Roboto-Regular-31" d="M 2278 4575 
L 2278 0 
L 1700 0 
L 1700 3853 
L 534 3428 
L 534 3950 
L 2188 4575 
L 2278 4575 
z
" transform="scale(0.015625)"/>
        <path id="Roboto-Regular-32" d="M 3359 475 
L 3359 0 
L 381 0 
L 381 416 
L 1925 2134 
Q 2306 2566 2439 2819 
Q 2572 3072 2572 3328 
Q 2572 3663 2364 3900 
Q 2156 4138 1778 4138 
Q 1322 4138 1097 3878 
Q 872 3619 872 3213 
L 294 3213 
Q 294 3788 672 4200 
Q 1050 4613 1778 4613 
Q 2422 4613 2786 4278 
Q 3150 3944 3150 3397 
Q 3150 2997 2903 2592 
Q 2656 2188 2297 1797 
L 1078 475 
L 3359 475 
z
" transform="scale(0.015625)"/>
       </defs>
       <use xlink:href="#Roboto-Regular-31"/>
       <use xlink:href="#Roboto-Regular-32" x="56.201172"/>
       <use xlink:href="#Roboto-Regular-30" x="112.402344"/>
      </g>
     </g>
    </g>
    <g id="xtick_4">
     <g id="line2d_7">
      <g>
       <use xlink:href="#mb714aa9a22" x="246.986657" y="300.112" style="fill: #c2c1c1; stroke: #c2c1c1; stroke-width: 0.8"/>
      </g>
     </g>
     <g id="text_4">
      <!-- 180 -->
      <g style="fill: #191919" transform="translate(238.556188 314.612) scale(0.1 -0.1)">
       <defs>
        <path id="Roboto-Regular-38" d="M 3244 1231 
Q 3244 606 2826 271 
Q 2409 -63 1796 -63 
Q 1184 -63 767 271 
Q 350 606 350 1231 
Q 350 1613 554 1905 
Q 759 2197 1109 2347 
Q 806 2494 629 2762 
Q 453 3031 453 3366 
Q 453 3963 833 4288 
Q 1213 4613 1794 4613 
Q 2378 4613 2758 4288 
Q 3138 3963 3138 3366 
Q 3138 3028 2956 2761 
Q 2775 2494 2472 2347 
Q 2825 2197 3034 1903 
Q 3244 1609 3244 1231 
z
M 2559 3356 
Q 2559 3697 2346 3917 
Q 2134 4138 1793 4138 
Q 1453 4138 1243 3927 
Q 1034 3716 1034 3356 
Q 1034 3003 1243 2790 
Q 1453 2578 1797 2578 
Q 2138 2578 2348 2790 
Q 2559 3003 2559 3356 
z
M 2663 1244 
Q 2663 1625 2420 1865 
Q 2178 2106 1791 2106 
Q 1394 2106 1161 1865 
Q 928 1625 928 1244 
Q 928 850 1161 631 
Q 1394 413 1797 413 
Q 2200 413 2431 631 
Q 2663 850 2663 1244 
z
" transform="scale(0.015625)"/>
       </defs>
       <use xlink:href="#Roboto-Regular-31"/>
       <use xlink:href="#Roboto-Regular-38" x="56.201172"/>
       <use xlink:href="#Roboto-Regular-30" x="112.402344"/>
      </g>
     </g>
    </g>
    <g id="xtick_5">
     <g id="line2d_8">
      <g>
       <use xlink:href="#mb714aa9a22" x="313.567875" y="300.112" style="fill: #c2c1c1; stroke: #c2c1c1; stroke-width: 0.8"/>
      </g>
     </g>
     <g id="text_5">
      <!-- 240 -->
      <g style="fill: #191919" transform="translate(305.137407 314.612) scale(0.1 -0.1)">
       <defs>
        <path id="Roboto-Regular-34" d="M 166 1397 
L 2203 4550 
L 2819 4550 
L 2819 1531 
L 3453 1531 
L 3453 1056 
L 2819 1056 
L 2819 0 
L 2241 0 
L 2241 1056 
L 166 1056 
L 166 1397 
z
M 822 1531 
L 2241 1531 
L 2241 3766 
L 2169 3638 
L 822 1531 
z
" transform="scale(0.015625)"/>
       </defs>
       <use xlink:href="#Roboto-Regular-32"/>
       <use xlink:href="#Roboto-Regular-34" x="56.201172"/>
       <use xlink:href="#Roboto-Regular-30" x="112.402344"/>
      </g>
     </g>
    </g>
    <g id="xtick_6">
     <g id="line2d_9">
      <g>
       <use xlink:href="#mb714aa9a22" x="380.149094" y="300.112" style="fill: #c2c1c1; stroke: #c2c1c1; stroke-width: 0.8"/>
      </g>
     </g>
     <g id="text_6">
      <!-- 300 -->
      <g style="fill: #191919" transform="translate(371.718625 314.612) scale(0.1 -0.1)">
       <defs>
        <path id="Roboto-Regular-33" d="M 1222 2084 
L 1222 2559 
L 1647 2559 
Q 2094 2563 2312 2784 
Q 2531 3006 2531 3338 
Q 2531 4138 1738 4138 
Q 1369 4138 1141 3927 
Q 913 3716 913 3359 
L 334 3359 
Q 334 3881 720 4247 
Q 1106 4613 1738 4613 
Q 2353 4613 2733 4286 
Q 3113 3959 3113 3325 
Q 3113 3072 2942 2784 
Q 2772 2497 2397 2338 
Q 2850 2191 3015 1884 
Q 3181 1578 3181 1269 
Q 3181 631 2768 284 
Q 2356 -63 1741 -63 
Q 1147 -63 722 267 
Q 297 597 297 1203 
L 875 1203 
Q 875 844 1108 628 
Q 1341 413 1741 413 
Q 2138 413 2369 622 
Q 2600 831 2600 1256 
Q 2600 1681 2337 1882 
Q 2075 2084 1634 2084 
L 1222 2084 
z
" transform="scale(0.015625)"/>
       </defs>
       <use xlink:href="#Roboto-Regular-33"/>
       <use xlink:href="#Roboto-Regular-30" x="56.201172"/>
       <use xlink:href="#Roboto-Regular-30" x="112.402344"/>
      </g>
     </g>
    </g>
    <g id="xtick_7">
     <g id="line2d_10">
      <g>
       <use xlink:href="#mb714aa9a22" x="446.730313" y="300.112" style="fill: #c2c1c1; stroke: #c2c1c1; stroke-width: 0.8"/>
      </g>
     </g>
     <g id="text_7">
      <!-- 360 -->
      <g style="fill: #191919" transform="translate(438.299844 314.612) scale(0.1 -0.1)">
       <use xlink:href="#Roboto-Regular-33"/>
       <use xlink:href="#Roboto-Regular-36" x="56.201172"/>
       <use xlink:href="#Roboto-Regular-30" x="112.402344"/>
      </g>
     </g>
    </g>
    <g id="text_8">
     <!-- Cro66 CG2-CB2-CA2-C2 Dihedral [°] -->
     <g style="fill: #191919" transform="translate(150.080875 330.12325) scale(0.12 -0.12)">
      <defs>
       <path id="Roboto-Bold-43" d="M 3044 1516 
L 3981 1516 
Q 3934 822 3461 379 
Q 2988 -63 2150 -63 
Q 1275 -63 772 526 
Q 269 1116 269 2125 
L 269 2422 
Q 269 3431 784 4023 
Q 1300 4616 2159 4616 
Q 3013 4616 3466 4161 
Q 3919 3706 3984 3006 
L 3047 3006 
Q 3016 3413 2820 3630 
Q 2625 3847 2159 3847 
Q 1247 3847 1222 2500 
L 1222 2125 
Q 1222 1419 1436 1062 
Q 1650 706 2150 706 
Q 2594 706 2801 907 
Q 3009 1109 3044 1516 
z
" transform="scale(0.015625)"/>
       <path id="Roboto-Bold-72" d="M 1922 2563 
Q 1413 2563 1253 2216 
L 1253 0 
L 347 0 
L 347 3381 
L 1200 3381 
L 1228 2978 
Q 1494 3444 1981 3444 
Q 2153 3444 2259 3403 
L 2250 2538 
L 1922 2563 
z
" transform="scale(0.015625)"/>
       <path id="Roboto-Bold-6f" d="M 206 1722 
Q 206 2459 625 2951 
Q 1044 3444 1806 3444 
Q 2578 3444 2993 2951 
Q 3409 2459 3409 1722 
L 3409 1656 
Q 3409 919 2993 428 
Q 2578 -63 1813 -63 
Q 1053 -63 636 415 
Q 219 894 206 1616 
L 206 1722 
z
M 1113 1656 
Q 1113 1244 1270 955 
Q 1428 666 1813 666 
Q 2191 666 2348 953 
Q 2506 1241 2506 1722 
Q 2506 2125 2348 2420 
Q 2191 2716 1806 2716 
Q 1425 2716 1269 2422 
Q 1113 2128 1113 1656 
z
" transform="scale(0.015625)"/>
       <path id="Roboto-Bold-36" d="M 3450 1500 
Q 3450 838 3033 387 
Q 2616 -63 1916 -63 
Q 1188 -63 752 443 
Q 316 950 316 1750 
L 316 2097 
Q 316 3200 925 3898 
Q 1534 4597 2634 4597 
L 2763 4597 
L 2763 3853 
L 2672 3853 
Q 2050 3844 1688 3538 
Q 1313 3219 1238 2675 
Q 1603 3047 2156 3047 
Q 2800 3047 3125 2589 
Q 3450 2131 3450 1500 
z
M 1219 1631 
Q 1219 1150 1408 909 
Q 1597 669 1900 669 
Q 2194 669 2370 901 
Q 2547 1134 2547 1491 
Q 2547 1853 2370 2087 
Q 2194 2322 1881 2322 
Q 1641 2322 1469 2198 
Q 1297 2075 1219 1903 
L 1219 1631 
z
" transform="scale(0.015625)"/>
       <path id="Roboto-Bold-20" transform="scale(0.015625)"/>
       <path id="Roboto-Bold-47" d="M 4009 2391 
L 4009 575 
Q 3847 381 3433 159 
Q 3019 -63 2269 -63 
Q 1384 -63 839 510 
Q 294 1084 294 2138 
L 294 2409 
Q 294 3463 816 4039 
Q 1338 4616 2203 4616 
Q 3088 4616 3509 4191 
Q 3931 3766 4006 3103 
L 3094 3103 
Q 3041 3447 2847 3653 
Q 2653 3859 2228 3859 
Q 1306 3859 1250 2584 
L 1247 2138 
Q 1247 1419 1514 1056 
Q 1781 694 2319 694 
Q 2656 694 2825 770 
Q 2994 847 3069 919 
L 3069 1703 
L 2219 1703 
L 2219 2391 
L 4009 2391 
z
" transform="scale(0.015625)"/>
       <path id="Roboto-Bold-32" d="M 3428 728 
L 3428 0 
L 313 0 
L 313 619 
L 1784 2188 
Q 2116 2553 2245 2792 
Q 2375 3031 2375 3234 
Q 2375 3538 2223 3713 
Q 2072 3888 1788 3888 
Q 1466 3888 1295 3669 
Q 1125 3450 1125 3119 
L 222 3119 
Q 222 3734 645 4175 
Q 1069 4616 1803 4616 
Q 2519 4616 2900 4270 
Q 3281 3925 3281 3325 
Q 3281 2875 3014 2470 
Q 2747 2066 2284 1581 
L 1472 728 
L 3428 728 
z
" transform="scale(0.015625)"/>
       <path id="Roboto-Bold-2d" d="M 2103 2316 
L 2103 1584 
L 347 1584 
L 347 2316 
L 2103 2316 
z
" transform="scale(0.015625)"/>
       <path id="Roboto-Bold-42" d="M 3788 1341 
Q 3788 684 3369 345 
Q 2950 6 2175 0 
L 406 0 
L 406 4550 
L 2003 4550 
Q 2794 4550 3241 4247 
Q 3688 3944 3688 3306 
Q 3688 2997 3531 2737 
Q 3375 2478 3038 2344 
Q 3438 2244 3613 1956 
Q 3788 1669 3788 1341 
z
M 1347 3791 
L 1347 2647 
L 2003 2647 
Q 2747 2647 2747 3209 
Q 2747 3778 2034 3791 
L 1347 3791 
z
M 2850 1350 
Q 2850 1963 2231 1984 
L 1347 1984 
L 1347 756 
L 2147 756 
Q 2506 756 2678 925 
Q 2850 1094 2850 1350 
z
" transform="scale(0.015625)"/>
       <path id="Roboto-Bold-41" d="M 25 0 
L 1719 4550 
L 2588 4550 
L 4291 0 
L 3291 0 
L 2978 938 
L 1331 938 
L 1019 0 
L 25 0 
z
M 1584 1697 
L 2725 1697 
L 2156 3406 
L 1584 1697 
z
" transform="scale(0.015625)"/>
       <path id="Roboto-Bold-44" d="M 406 0 
L 406 4550 
L 1809 4550 
Q 2728 4550 3308 3950 
Q 3888 3350 3888 2375 
L 3888 2172 
Q 3888 1197 3308 598 
Q 2728 0 1797 0 
L 406 0 
z
M 1347 3791 
L 1347 756 
L 1797 756 
Q 2350 756 2639 1115 
Q 2928 1475 2934 2144 
L 2934 2381 
Q 2934 3075 2661 3428 
Q 2388 3781 1838 3791 
L 1347 3791 
z
" transform="scale(0.015625)"/>
       <path id="Roboto-Bold-69" d="M 341 4256 
Q 341 4459 478 4592 
Q 616 4725 847 4725 
Q 1078 4725 1215 4592 
Q 1353 4459 1353 4256 
Q 1353 4056 1215 3923 
Q 1078 3791 847 3791 
Q 616 3791 478 3923 
Q 341 4056 341 4256 
z
M 1303 3381 
L 1303 0 
L 397 0 
L 397 3381 
L 1303 3381 
z
" transform="scale(0.015625)"/>
       <path id="Roboto-Bold-68" d="M 1803 2713 
Q 1409 2713 1231 2409 
L 1231 0 
L 328 0 
L 328 4800 
L 1231 4800 
L 1231 3016 
Q 1584 3444 2134 3444 
Q 2631 3444 2939 3150 
Q 3247 2856 3250 2147 
L 3250 0 
L 2344 0 
L 2344 2138 
Q 2344 2466 2203 2589 
Q 2063 2713 1803 2713 
z
" transform="scale(0.015625)"/>
       <path id="Roboto-Bold-65" d="M 3225 550 
Q 3063 319 2731 128 
Q 2400 -63 1906 -63 
Q 1119 -63 675 414 
Q 231 891 228 1566 
L 228 1697 
Q 228 2463 654 2953 
Q 1081 3444 1806 3444 
Q 2534 3444 2915 2987 
Q 3297 2531 3297 1781 
L 3297 1397 
L 1144 1397 
Q 1191 1069 1403 867 
Q 1616 666 1963 666 
Q 2478 666 2778 1044 
L 3225 550 
z
M 1800 2716 
Q 1513 2716 1356 2522 
Q 1200 2328 1153 2016 
L 2409 2016 
L 2409 2084 
Q 2403 2356 2258 2536 
Q 2113 2716 1800 2716 
z
" transform="scale(0.015625)"/>
       <path id="Roboto-Bold-64" d="M 2438 0 
L 2394 359 
Q 2059 -63 1528 -63 
Q 900 -63 553 425 
Q 206 913 206 1650 
L 206 1716 
Q 206 2488 553 2966 
Q 900 3444 1534 3444 
Q 2028 3444 2347 3078 
L 2347 4800 
L 3253 4800 
L 3253 0 
L 2438 0 
z
M 1113 1650 
Q 1113 1244 1256 958 
Q 1400 672 1756 672 
Q 2169 672 2347 1022 
L 2347 2363 
Q 2175 2713 1763 2713 
Q 1409 2713 1261 2425 
Q 1113 2138 1113 1650 
z
" transform="scale(0.015625)"/>
       <path id="Roboto-Bold-61" d="M 2306 0 
Q 2250 119 2216 303 
Q 1888 -63 1363 -63 
Q 878 -63 547 223 
Q 216 509 216 950 
Q 216 1481 609 1773 
Q 1003 2066 1775 2066 
L 2178 2066 
L 2178 2263 
Q 2178 2497 2058 2636 
Q 1938 2775 1678 2775 
Q 1194 2775 1194 2369 
L 291 2369 
Q 291 2809 681 3126 
Q 1072 3444 1728 3444 
Q 2313 3444 2698 3147 
Q 3084 2850 3084 2256 
L 3084 750 
Q 3091 300 3219 53 
L 3219 0 
L 2306 0 
z
M 1559 628 
Q 1788 628 1948 729 
Q 2109 831 2178 953 
L 2178 1541 
L 1809 1541 
Q 1450 1541 1284 1389 
Q 1119 1238 1119 1016 
Q 1119 847 1236 737 
Q 1353 628 1559 628 
z
" transform="scale(0.015625)"/>
       <path id="Roboto-Bold-6c" d="M 1303 4800 
L 1303 0 
L 397 0 
L 397 4800 
L 1303 4800 
z
" transform="scale(0.015625)"/>
       <path id="Roboto-Bold-5b" d="M 1728 5297 
L 1728 4600 
L 1281 4600 
L 1281 -366 
L 1728 -366 
L 1728 -1059 
L 375 -1059 
L 375 5297 
L 1728 5297 
z
" transform="scale(0.015625)"/>
       <path id="Roboto-Bold-b0" d="M 397 3750 
Q 397 4103 647 4358 
Q 897 4613 1247 4613 
Q 1591 4613 1836 4358 
Q 2081 4103 2081 3750 
Q 2081 3397 1836 3150 
Q 1591 2903 1247 2903 
Q 897 2903 647 3150 
Q 397 3397 397 3750 
z
M 853 3750 
Q 853 3584 970 3473 
Q 1088 3363 1247 3363 
Q 1406 3363 1515 3473 
Q 1625 3584 1625 3750 
Q 1625 3922 1515 4036 
Q 1406 4150 1247 4150 
Q 1088 4150 970 4036 
Q 853 3922 853 3750 
z
" transform="scale(0.015625)"/>
       <path id="Roboto-Bold-5d" d="M 41 4600 
L 41 5297 
L 1394 5297 
L 1394 -1059 
L 41 -1059 
L 41 -366 
L 491 -366 
L 491 4600 
L 41 4600 
z
" transform="scale(0.015625)"/>
      </defs>
      <use xlink:href="#Roboto-Bold-43"/>
      <use xlink:href="#Roboto-Bold-72" x="65.478516"/>
      <use xlink:href="#Roboto-Bold-6f" x="102.001953"/>
      <use xlink:href="#Roboto-Bold-36" x="158.544922"/>
      <use xlink:href="#Roboto-Bold-36" x="215.917969"/>
      <use xlink:href="#Roboto-Bold-20" x="273.291016"/>
      <use xlink:href="#Roboto-Bold-43" x="298.193359"/>
      <use xlink:href="#Roboto-Bold-47" x="363.671875"/>
      <use xlink:href="#Roboto-Bold-32" x="431.787109"/>
      <use xlink:href="#Roboto-Bold-2d" x="489.160156"/>
      <use xlink:href="#Roboto-Bold-43" x="527.978516"/>
      <use xlink:href="#Roboto-Bold-42" x="593.457031"/>
      <use xlink:href="#Roboto-Bold-32" x="657.275391"/>
      <use xlink:href="#Roboto-Bold-2d" x="714.648438"/>
      <use xlink:href="#Roboto-Bold-43" x="753.466797"/>
      <use xlink:href="#Roboto-Bold-41" x="818.945312"/>
      <use xlink:href="#Roboto-Bold-32" x="886.279297"/>
      <use xlink:href="#Roboto-Bold-2d" x="943.652344"/>
      <use xlink:href="#Roboto-Bold-43" x="982.470703"/>
      <use xlink:href="#Roboto-Bold-32" x="1047.949219"/>
      <use xlink:href="#Roboto-Bold-20" x="1105.322266"/>
      <use xlink:href="#Roboto-Bold-44" x="1130.224609"/>
      <use xlink:href="#Roboto-Bold-69" x="1195.263672"/>
      <use xlink:href="#Roboto-Bold-68" x="1221.777344"/>
      <use xlink:href="#Roboto-Bold-65" x="1277.783203"/>
      <use xlink:href="#Roboto-Bold-64" x="1331.835938"/>
      <use xlink:href="#Roboto-Bold-72" x="1388.232422"/>
      <use xlink:href="#Roboto-Bold-61" x="1424.755859"/>
      <use xlink:href="#Roboto-Bold-6c" x="1478.369141"/>
      <use xlink:href="#Roboto-Bold-20" x="1504.882812"/>
      <use xlink:href="#Roboto-Bold-5b" x="1529.785156"/>
      <use xlink:href="#Roboto-Bold-b0" x="1557.617188"/>
      <use xlink:href="#Roboto-Bold-5d" x="1596.484375"/>
     </g>
    </g>
   </g>
   <g id="matplotlib.axis_2">
    <g id="ytick_1">
     <g id="line2d_11">
      <defs>
       <path id="m28aa1284ae" d="M 0 0 
L -3.5 0 
" style="stroke: #c2c1c1; stroke-width: 0.8"/>
      </defs>
      <g>
       <use xlink:href="#m28aa1284ae" x="47.243" y="300.112" style="fill: #c2c1c1; stroke: #c2c1c1; stroke-width: 0.8"/>
      </g>
     </g>
     <g id="text_9">
      <!-- −1 -->
      <g style="fill: #191919" transform="translate(28.9055 303.862) scale(0.1 -0.1)">
       <defs>
        <path id="Roboto-Regular-2212" d="M 3134 2509 
L 3134 2034 
L 525 2034 
L 525 2509 
L 3134 2509 
z
" transform="scale(0.015625)"/>
       </defs>
       <use xlink:href="#Roboto-Regular-2212"/>
       <use xlink:href="#Roboto-Regular-31" x="57.177734"/>
      </g>
     </g>
    </g>
    <g id="ytick_2">
     <g id="line2d_12">
      <g>
       <use xlink:href="#m28aa1284ae" x="47.243" y="268.626222" style="fill: #c2c1c1; stroke: #c2c1c1; stroke-width: 0.8"/>
      </g>
     </g>
     <g id="text_10">
      <!-- 0 -->
      <g style="fill: #191919" transform="translate(34.622687 272.376222) scale(0.1 -0.1)">
       <use xlink:href="#Roboto-Regular-30"/>
      </g>
     </g>
    </g>
    <g id="ytick_3">
     <g id="line2d_13">
      <g>
       <use xlink:href="#m28aa1284ae" x="47.243" y="237.140444" style="fill: #c2c1c1; stroke: #c2c1c1; stroke-width: 0.8"/>
      </g>
     </g>
     <g id="text_11">
      <!-- 1 -->
      <g style="fill: #191919" transform="translate(34.622687 240.890444) scale(0.1 -0.1)">
       <use xlink:href="#Roboto-Regular-31"/>
      </g>
     </g>
    </g>
    <g id="ytick_4">
     <g id="line2d_14">
      <g>
       <use xlink:href="#m28aa1284ae" x="47.243" y="205.654667" style="fill: #c2c1c1; stroke: #c2c1c1; stroke-width: 0.8"/>
      </g>
     </g>
     <g id="text_12">
      <!-- 2 -->
      <g style="fill: #191919" transform="translate(34.622687 209.404667) scale(0.1 -0.1)">
       <use xlink:href="#Roboto-Regular-32"/>
      </g>
     </g>
    </g>
    <g id="ytick_5">
     <g id="line2d_15">
      <g>
       <use xlink:href="#m28aa1284ae" x="47.243" y="174.168889" style="fill: #c2c1c1; stroke: #c2c1c1; stroke-width: 0.8"/>
      </g>
     </g>
     <g id="text_13">
      <!-- 3 -->
      <g style="fill: #191919" transform="translate(34.622687 177.918889) scale(0.1 -0.1)">
       <use xlink:href="#Roboto-Regular-33"/>
      </g>
     </g>
    </g>
    <g id="ytick_6">
     <g id="line2d_16">
      <g>
       <use xlink:href="#m28aa1284ae" x="47.243" y="142.683111" style="fill: #c2c1c1; stroke: #c2c1c1; stroke-width: 0.8"/>
      </g>
     </g>
     <g id="text_14">
      <!-- 4 -->
      <g style="fill: #191919" transform="translate(34.622687 146.433111) scale(0.1 -0.1)">
       <use xlink:href="#Roboto-Regular-34"/>
      </g>
     </g>
    </g>
    <g id="ytick_7">
     <g id="line2d_17">
      <g>
       <use xlink:href="#m28aa1284ae" x="47.243" y="111.197333" style="fill: #c2c1c1; stroke: #c2c1c1; stroke-width: 0.8"/>
      </g>
     </g>
     <g id="text_15">
      <!-- 5 -->
      <g style="fill: #191919" transform="translate(34.622687 114.947333) scale(0.1 -0.1)">
       <defs>
        <path id="Roboto-Regular-35" d="M 1109 2166 
L 647 2284 
L 875 4550 
L 3209 4550 
L 3209 4016 
L 1366 4016 
L 1228 2778 
Q 1572 2975 1988 2975 
Q 2616 2975 2980 2561 
Q 3344 2147 3344 1450 
Q 3344 797 2987 367 
Q 2631 -63 1903 -63 
Q 1350 -63 947 248 
Q 544 559 481 1197 
L 1031 1197 
Q 1141 413 1903 413 
Q 2313 413 2538 691 
Q 2763 969 2763 1444 
Q 2763 1872 2527 2164 
Q 2291 2456 1853 2456 
Q 1563 2456 1413 2378 
Q 1263 2300 1109 2166 
z
" transform="scale(0.015625)"/>
       </defs>
       <use xlink:href="#Roboto-Regular-35"/>
      </g>
     </g>
    </g>
    <g id="ytick_8">
     <g id="line2d_18">
      <g>
       <use xlink:href="#m28aa1284ae" x="47.243" y="79.711556" style="fill: #c2c1c1; stroke: #c2c1c1; stroke-width: 0.8"/>
      </g>
     </g>
     <g id="text_16">
      <!-- 6 -->
      <g style="fill: #191919" transform="translate(34.622687 83.461556) scale(0.1 -0.1)">
       <use xlink:href="#Roboto-Regular-36"/>
      </g>
     </g>
    </g>
    <g id="ytick_9">
     <g id="line2d_19">
      <g>
       <use xlink:href="#m28aa1284ae" x="47.243" y="48.225778" style="fill: #c2c1c1; stroke: #c2c1c1; stroke-width: 0.8"/>
      </g>
     </g>
     <g id="text_17">
      <!-- 7 -->
      <g style="fill: #191919" transform="translate(34.622687 51.975778) scale(0.1 -0.1)">
       <defs>
        <path id="Roboto-Regular-37" d="M 3319 4550 
L 3319 4225 
L 1434 0 
L 825 0 
L 2706 4075 
L 244 4075 
L 244 4550 
L 3319 4550 
z
" transform="scale(0.015625)"/>
       </defs>
       <use xlink:href="#Roboto-Regular-37"/>
      </g>
     </g>
    </g>
    <g id="ytick_10">
     <g id="line2d_20">
      <g>
       <use xlink:href="#m28aa1284ae" x="47.243" y="16.74" style="fill: #c2c1c1; stroke: #c2c1c1; stroke-width: 0.8"/>
      </g>
     </g>
     <g id="text_18">
      <!-- 8 -->
      <g style="fill: #191919" transform="translate(34.622687 20.49) scale(0.1 -0.1)">
       <use xlink:href="#Roboto-Regular-38"/>
      </g>
     </g>
    </g>
    <g id="text_19">
     <!-- PMF [kcal/mol] -->
     <g style="fill: #191919" transform="translate(22.468 199.245687) rotate(-90) scale(0.12 -0.12)">
      <defs>
       <path id="Roboto-Bold-50" d="M 1347 1606 
L 1347 0 
L 406 0 
L 406 4550 
L 2184 4550 
Q 2991 4550 3442 4125 
Q 3894 3700 3894 3047 
Q 3894 2388 3442 1997 
Q 2991 1606 2184 1606 
L 1347 1606 
z
M 1347 3791 
L 1347 2363 
L 2184 2363 
Q 2588 2363 2766 2553 
Q 2944 2744 2944 3041 
Q 2944 3338 2766 3564 
Q 2588 3791 2184 3791 
L 1347 3791 
z
" transform="scale(0.015625)"/>
       <path id="Roboto-Bold-4d" d="M 2800 1250 
L 3966 4550 
L 5194 4550 
L 5194 0 
L 4253 0 
L 4253 1244 
L 4347 3381 
L 3122 0 
L 2478 0 
L 1253 3381 
L 1347 1244 
L 1347 0 
L 406 0 
L 406 4550 
L 1634 4550 
L 2800 1250 
z
" transform="scale(0.015625)"/>
       <path id="Roboto-Bold-46" d="M 406 0 
L 406 4550 
L 3372 4550 
L 3372 3791 
L 1347 3791 
L 1347 2616 
L 3147 2616 
L 3147 1859 
L 1347 1859 
L 1347 0 
L 406 0 
z
" transform="scale(0.015625)"/>
       <path id="Roboto-Bold-6b" d="M 2444 0 
L 1575 1356 
L 1253 1034 
L 1253 0 
L 350 0 
L 350 4803 
L 1253 4803 
L 1253 2144 
L 1428 2369 
L 2291 3381 
L 3375 3381 
L 2156 1975 
L 3484 0 
L 2444 0 
z
" transform="scale(0.015625)"/>
       <path id="Roboto-Bold-63" d="M 1753 666 
Q 2000 666 2159 802 
Q 2319 938 2322 1169 
L 3172 1169 
Q 3166 631 2761 284 
Q 2356 -63 1769 -63 
Q 984 -63 595 432 
Q 206 928 206 1647 
L 206 1734 
Q 206 2450 593 2947 
Q 981 3444 1766 3444 
Q 2388 3444 2777 3087 
Q 3166 2731 3172 2122 
L 2322 2122 
Q 2319 2369 2172 2542 
Q 2025 2716 1750 2716 
Q 1356 2716 1234 2420 
Q 1113 2125 1113 1647 
Q 1113 1256 1233 961 
Q 1353 666 1753 666 
z
" transform="scale(0.015625)"/>
       <path id="Roboto-Bold-2f" d="M 2306 4550 
L 631 -391 
L -41 -391 
L 1634 4550 
L 2306 4550 
z
" transform="scale(0.015625)"/>
       <path id="Roboto-Bold-6d" d="M 1806 2713 
Q 1431 2713 1253 2394 
L 1253 0 
L 347 0 
L 347 3381 
L 1197 3381 
L 1228 3009 
Q 1581 3444 2197 3444 
Q 2850 3444 3094 2928 
Q 3441 3444 4109 3444 
Q 4597 3444 4894 3156 
Q 5191 2869 5194 2169 
L 5194 0 
L 4288 0 
L 4288 2156 
Q 4288 2494 4152 2603 
Q 4016 2713 3781 2713 
Q 3381 2713 3222 2334 
L 3222 0 
L 2319 0 
L 2319 2150 
Q 2319 2484 2181 2598 
Q 2044 2713 1806 2713 
z
" transform="scale(0.015625)"/>
      </defs>
      <use xlink:href="#Roboto-Bold-50"/>
      <use xlink:href="#Roboto-Bold-4d" x="64.550781"/>
      <use xlink:href="#Roboto-Bold-46" x="152.148438"/>
      <use xlink:href="#Roboto-Bold-20" x="206.982422"/>
      <use xlink:href="#Roboto-Bold-5b" x="231.884766"/>
      <use xlink:href="#Roboto-Bold-6b" x="259.716797"/>
      <use xlink:href="#Roboto-Bold-63" x="313.134766"/>
      <use xlink:href="#Roboto-Bold-61" x="365.332031"/>
      <use xlink:href="#Roboto-Bold-6c" x="418.945312"/>
      <use xlink:href="#Roboto-Bold-2f" x="445.458984"/>
      <use xlink:href="#Roboto-Bold-6d" x="482.861328"/>
      <use xlink:href="#Roboto-Bold-6f" x="569.433594"/>
      <use xlink:href="#Roboto-Bold-6c" x="625.976562"/>
      <use xlink:href="#Roboto-Bold-5d" x="652.490234"/>
     </g>
    </g>
   </g>
   <g id="line2d_21">
    <path d="M 47.243 131.328758 
L 47.798615 129.372237 
L 49.465461 118.877694 
L 50.021076 118.654906 
L 52.243537 124.670651 
L 55.021612 133.442542 
L 56.132843 138.505052 
L 56.688458 140.065631 
L 57.244073 140.850135 
L 58.910919 142.187539 
L 59.466534 142.24417 
L 60.022149 141.796424 
L 60.577764 140.836349 
L 61.133379 139.354893 
L 61.688995 137.231404 
L 62.800225 131.002966 
L 63.35584 128.021958 
L 63.911455 126.40735 
L 64.467071 126.277969 
L 65.022686 126.80765 
L 65.578301 127.083259 
L 66.133916 126.590341 
L 66.689531 125.264377 
L 67.800762 121.813814 
L 68.356377 120.911018 
L 68.911992 120.890164 
L 69.467607 121.229817 
L 70.023222 121.043658 
L 70.578837 119.817755 
L 71.134453 118.036412 
L 71.690068 116.93482 
L 72.801298 117.028243 
L 73.356913 116.183648 
L 73.912529 115.010491 
L 74.468144 115.641276 
L 75.023759 119.387811 
L 76.134989 129.502862 
L 76.690604 132.607461 
L 77.24622 134.007194 
L 77.801835 134.274337 
L 78.35745 134.3595 
L 78.913065 135.165212 
L 80.024296 138.605481 
L 80.579911 139.637824 
L 81.135526 139.777373 
L 81.691141 139.632525 
L 82.246756 139.924919 
L 82.802371 140.641601 
L 83.357987 141.16247 
L 83.913602 141.125537 
L 85.580447 140.121177 
L 86.691678 139.505976 
L 87.247293 139.6026 
L 87.802908 140.228882 
L 88.358523 141.159655 
L 88.914138 141.800116 
L 89.469754 141.368951 
L 90.025369 139.205714 
L 90.580984 135.076321 
L 91.692214 123.908373 
L 92.247829 120.05832 
L 93.35906 115.847575 
L 94.47029 110.028443 
L 95.025905 108.658174 
L 95.58152 109.436353 
L 96.692751 112.551709 
L 97.248366 113.080643 
L 97.803981 112.693126 
L 98.359596 111.28775 
L 98.915212 108.681299 
L 100.026442 100.66935 
L 101.137672 91.905605 
L 101.693287 85.87578 
L 102.804518 70.53545 
L 103.360133 72.016285 
L 104.471363 90.863194 
L 105.026979 97.54489 
L 105.582594 101.272205 
L 106.138209 102.433603 
L 106.693824 101.586598 
L 107.249439 99.731245 
L 107.805054 99.234895 
L 108.36067 103.100312 
L 109.4719 117.57299 
L 110.027515 122.189947 
L 110.58313 123.685908 
L 111.138745 122.221838 
L 112.249976 115.598436 
L 112.805591 115.72852 
L 113.916821 121.928013 
L 114.472437 123.032843 
L 115.028052 121.659418 
L 115.583667 118.149981 
L 116.694897 109.523166 
L 117.250512 107.256547 
L 118.361743 105.198579 
L 118.917358 103.86926 
L 119.472973 103.318268 
L 120.028588 104.634677 
L 120.584204 107.010197 
L 121.139819 108.602892 
L 121.695434 108.590241 
L 122.251049 107.830294 
L 122.806664 108.255097 
L 123.362279 110.798828 
L 124.47351 117.353223 
L 125.029125 118.78129 
L 125.58474 118.080022 
L 126.140355 115.083381 
L 127.807201 99.254906 
L 128.362816 98.057231 
L 128.918431 102.077816 
L 129.474046 108.365056 
L 130.029662 113.277375 
L 130.585277 115.163166 
L 131.140892 113.66395 
L 131.696507 109.03086 
L 132.807737 95.07721 
L 133.363353 90.764261 
L 134.474583 87.6683 
L 135.030198 83.127987 
L 135.585813 74.633526 
L 136.141428 61.824186 
L 137.252659 25.525854 
L 137.808274 21.279504 
L 139.47512 71.160927 
L 140.030735 80.750302 
L 140.58635 85.844955 
L 141.141965 86.443821 
L 141.69758 82.546841 
L 142.253195 74.154009 
L 142.808811 61.265327 
L 143.364426 43.880795 
L 144.404544 -1 
M 153.775419 -1 
L 154.476729 31.220216 
L 155.032345 51.317537 
L 155.58796 66.921517 
L 156.143575 78.040472 
L 156.69919 84.710699 
L 157.254805 87.091508 
L 157.81042 85.86544 
L 158.366036 83.538171 
L 158.921651 85.33634 
L 160.588496 107.771508 
L 161.144112 111.64913 
L 161.699727 113.591541 
L 162.810957 115.89552 
L 163.366572 117.239958 
L 163.922187 118.150634 
L 164.477803 118.078003 
L 165.033418 116.806175 
L 166.144648 112.209076 
L 166.700263 111.513134 
L 167.255878 113.280774 
L 167.811494 116.138175 
L 168.367109 118.293261 
L 168.922724 119.105838 
L 169.478339 118.917645 
L 170.033954 118.429357 
L 170.58957 118.264604 
L 171.145185 118.795075 
L 172.256415 121.264226 
L 172.81203 121.939148 
L 173.367645 121.565217 
L 175.034491 117.911763 
L 176.145721 118.061596 
L 176.701336 117.039578 
L 177.812567 112.490044 
L 178.368182 111.673504 
L 178.923797 112.706786 
L 179.479412 114.014724 
L 180.035028 113.720647 
L 180.590643 110.65738 
L 181.146258 104.348661 
L 182.257488 85.76469 
L 182.813103 81.988867 
L 183.924334 86.827759 
L 184.479949 85.914492 
L 185.035564 80.744421 
L 185.591179 71.127559 
L 186.146795 57.024979 
L 186.70241 38.428663 
L 187.587053 -1 
M 194.350736 -1 
L 195.036637 30.573453 
L 195.592253 50.799714 
L 196.147868 66.530124 
L 196.703483 77.764684 
L 197.259098 84.503393 
L 197.814713 86.746251 
L 198.370328 84.493258 
L 198.925944 77.744414 
L 199.481559 66.49972 
L 200.037174 50.759208 
L 200.592789 30.524135 
L 201.28806 -1 
M 202.730147 -1 
L 203.370865 30.366762 
L 204.482095 72.521765 
L 205.037711 87.83069 
L 205.593326 99.644445 
L 206.148941 108.354409 
L 206.704556 114.490082 
L 207.260171 118.740937 
L 209.482632 131.966134 
L 211.149478 145.515827 
L 211.705093 148.860335 
L 212.260708 151.024986 
L 212.816323 152.516614 
L 213.371938 154.419315 
L 213.927553 157.639275 
L 216.705629 179.19585 
L 218.372475 189.962114 
L 221.150551 205.519773 
L 222.817396 214.417855 
L 225.039857 224.404962 
L 227.817933 235.378087 
L 229.484778 241.318678 
L 231.151624 246.583856 
L 234.485315 255.972581 
L 235.596545 258.496515 
L 237.263391 261.675261 
L 239.485852 265.35948 
L 240.597082 266.967388 
L 241.708312 268.243776 
L 243.375158 269.676651 
L 244.486388 270.406721 
L 245.597619 270.922361 
L 246.708849 271.160934 
L 247.820079 271.03659 
L 248.93131 270.603364 
L 250.04254 269.949615 
L 251.15377 269.123256 
L 252.265001 268.045919 
L 253.376231 266.467404 
L 254.487461 264.405814 
L 256.154307 260.810339 
L 257.821152 256.554869 
L 259.487998 251.457935 
L 261.154844 245.582599 
L 263.377304 236.800995 
L 264.488535 231.675248 
L 266.710995 219.699594 
L 268.377841 210.376988 
L 272.822762 182.386681 
L 273.933993 172.907008 
L 275.600838 158.236855 
L 277.267684 144.684819 
L 278.378914 136.544583 
L 279.490144 125.189603 
L 280.04576 119.884059 
L 280.601375 117.935716 
L 281.712605 120.050892 
L 282.26822 119.48825 
L 282.823835 116.798212 
L 283.379451 112.341087 
L 284.490681 100.611754 
L 285.046296 93.373081 
L 285.601911 84.128294 
L 286.157527 71.919335 
L 286.713142 56.084153 
L 287.824372 12.477589 
L 288.178513 -1 
M 288.778254 -1 
L 288.935602 2.029307 
L 290.046833 47.378961 
L 290.602448 63.94418 
L 291.158063 76.015067 
L 291.713678 83.590157 
L 292.269294 86.669419 
L 292.824909 85.253103 
L 293.380524 79.344577 
L 293.936139 68.988859 
L 295.047369 42.836072 
L 295.602985 50.71534 
L 296.714215 85.070924 
L 297.26983 96.801237 
L 297.825445 104.141102 
L 298.38106 107.085069 
L 298.936676 105.637134 
L 299.492291 99.8012 
L 300.047906 89.580234 
L 300.603521 74.97622 
L 301.159136 55.993953 
L 302.270367 8.042846 
L 302.825982 6.290375 
L 303.937212 48.798843 
L 304.492827 65.019076 
L 305.048443 76.748444 
L 305.604058 83.982927 
L 306.159673 86.726862 
L 306.715288 85.01079 
L 307.270903 79.039421 
L 307.826519 70.100567 
L 308.382134 63.949596 
L 308.937749 68.266921 
L 309.493364 77.337323 
L 310.048979 84.112817 
L 310.604594 86.774995 
L 311.16021 85.138359 
L 312.27144 73.407949 
L 312.827055 72.62403 
L 315.049516 98.260586 
L 316.160746 107.453042 
L 316.716361 110.449563 
L 317.271977 111.637074 
L 317.827592 111.388903 
L 318.383207 110.654795 
L 318.938822 110.260796 
L 319.494437 110.43609 
L 320.050052 111.137039 
L 321.161283 113.506152 
L 321.716898 114.207715 
L 322.272513 114.156373 
L 322.828128 113.753478 
L 323.383743 113.856014 
L 323.939359 115.121319 
L 325.606204 121.470607 
L 326.161819 122.273804 
L 326.717435 121.934998 
L 327.27305 120.331091 
L 328.38428 114.989919 
L 328.939895 114.340725 
L 329.49551 116.328479 
L 330.051126 119.046839 
L 330.606741 120.387714 
L 331.162356 119.369316 
L 331.717971 115.888633 
L 332.829202 104.26321 
L 333.940432 93.514215 
L 334.496047 90.077076 
L 335.051662 88.802219 
L 335.607277 88.918258 
L 336.162893 88.102331 
L 336.718508 84.773155 
L 337.274123 79.893058 
L 337.829738 79.146454 
L 338.385353 86.906151 
L 339.496584 105.860808 
L 340.052199 111.419374 
L 340.607814 114.511881 
L 341.163429 115.835281 
L 341.719044 115.778086 
L 342.27466 114.193909 
L 342.830275 110.811048 
L 343.941505 102.095001 
L 344.49712 100.841895 
L 345.052735 101.151844 
L 345.608351 99.997127 
L 346.163966 95.49041 
L 346.719581 86.901659 
L 347.275196 73.991184 
L 347.830811 56.682803 
L 348.386427 34.95143 
L 349.119755 -1 
M 353.891112 -1 
L 354.498193 27.16299 
L 355.053809 48.061445 
L 355.609424 64.464049 
L 356.165039 76.370803 
L 356.720654 83.781705 
L 357.276269 86.696757 
L 357.831885 85.115958 
L 358.3875 79.039308 
L 358.943115 68.466807 
L 359.49873 53.398456 
L 360.054345 33.834253 
L 360.819595 -1 
M 366.661627 -1 
L 367.277343 27.545126 
L 367.832958 48.369238 
L 368.388573 64.697498 
L 368.944188 76.529907 
L 369.499803 83.866466 
L 370.055418 86.707179 
L 370.611034 85.052099 
L 371.166649 78.902011 
L 371.722264 68.268214 
L 372.833494 36.175851 
L 373.38911 31.345305 
L 375.055955 75.198343 
L 375.61157 83.139168 
L 376.167185 86.587671 
L 376.722801 85.549089 
L 377.278416 80.082531 
L 378.389646 60.30889 
L 378.945261 59.115034 
L 380.056492 78.719025 
L 380.612107 84.923032 
L 381.167722 86.727803 
L 381.723337 84.048998 
L 382.278952 76.876273 
L 382.834568 65.214309 
L 383.945798 30.315325 
L 384.501413 22.667185 
L 386.168259 70.708778 
L 386.723874 80.485387 
L 387.279489 85.818683 
L 387.835104 86.870025 
L 388.390719 84.296874 
L 388.946335 80.32906 
L 389.50195 79.329063 
L 390.61318 86.309669 
L 391.168795 87.245073 
L 391.72441 85.112679 
L 392.280026 81.928127 
L 392.835641 81.459329 
L 393.946871 86.909201 
L 394.502486 86.465815 
L 395.058101 82.410284 
L 395.613717 76.620142 
L 396.169332 75.749022 
L 396.724947 83.709289 
L 397.280562 93.765939 
L 397.836177 101.428717 
L 398.391793 106.182938 
L 399.503023 111.893462 
L 401.169868 124.004574 
L 401.725484 126.349925 
L 402.281099 127.674213 
L 403.947944 130.453022 
L 405.059175 131.571895 
L 406.170405 133.288306 
L 406.72602 134.231241 
L 407.281635 135.449298 
L 408.948481 140.293837 
L 410.059711 142.479109 
L 410.615326 144.046267 
L 411.726557 147.847735 
L 412.282172 149.026357 
L 412.837787 149.290046 
L 413.393402 148.666199 
L 413.949018 147.348451 
L 417.282709 137.436342 
L 418.393939 134.769563 
L 419.505169 132.556518 
L 420.060784 132.189886 
L 420.6164 132.527363 
L 421.172015 133.388383 
L 422.283245 135.782448 
L 423.950091 140.150186 
L 424.505706 140.693372 
L 425.061321 140.195875 
L 426.172551 137.97871 
L 426.728167 138.036281 
L 427.283782 139.429867 
L 428.395012 143.657553 
L 428.950627 145.039854 
L 429.506242 145.379961 
L 430.061858 144.569965 
L 431.173088 141.069289 
L 431.728703 140.595052 
L 432.284318 142.163679 
L 433.395549 147.127819 
L 433.951164 148.157566 
L 434.506779 147.883712 
L 435.062394 146.705175 
L 436.173625 143.825844 
L 437.284855 142.074463 
L 438.396085 140.18605 
L 438.951701 139.633812 
L 439.507316 140.113005 
L 440.062931 141.661723 
L 440.618546 143.635694 
L 441.174161 145.097842 
L 441.729776 145.175236 
L 442.285392 143.22608 
L 442.841007 138.955752 
L 443.952237 126.32032 
L 444.507852 123.370191 
L 445.063467 125.245778 
L 445.619083 128.789863 
L 446.174698 131.135215 
L 446.730313 131.328758 
L 446.730313 131.328758 
" clip-path="url(#p51dc6d8bd5)" style="fill: none; stroke: #f99752; stroke-width: 2.5; stroke-linecap: square"/>
   </g>
   <g id="patch_3">
    <path d="M 47.243 300.112 
L 47.243 16.74 
" style="fill: none; stroke: #c2c1c1; stroke-width: 0.8; stroke-linejoin: miter; stroke-linecap: square"/>
   </g>
   <g id="patch_4">
    <path d="M 447.84 300.112 
L 447.84 16.74 
" style="fill: none; stroke: #c2c1c1; stroke-width: 0.8; stroke-linejoin: miter; stroke-linecap: square"/>
   </g>
   <g id="patch_5">
    <path d="M 47.243 300.112 
L 447.84 300.112 
" style="fill: none; stroke: #c2c1c1; stroke-width: 0.8; stroke-linejoin: miter; stroke-linecap: square"/>
   </g>
   <g id="patch_6">
    <path d="M 47.243 16.74 
L 447.84 16.74 
" style="fill: none; stroke: #c2c1c1; stroke-width: 0.8; stroke-linejoin: miter; stroke-linecap: square"/>
   </g>
   <g id="legend_1">
    <g id="line2d_22">
     <path d="M 58.043 246.856375 
L 70.043 246.856375 
L 82.043 246.856375 
" style="fill: none; stroke: #1e2e79; stroke-width: 2.5; stroke-linecap: square"/>
    </g>
    <g id="text_20">
     <!-- Reduced -->
     <g transform="translate(91.643 251.056375) scale(0.12 -0.12)">
      <defs>
       <path id="Roboto-Regular-52" d="M 3188 0 
L 2200 1844 
L 1131 1844 
L 1131 0 
L 528 0 
L 528 4550 
L 2034 4550 
Q 2800 4550 3214 4200 
Q 3628 3850 3628 3184 
Q 3628 2759 3398 2442 
Q 3169 2125 2763 1969 
L 3831 38 
L 3831 0 
L 3188 0 
z
M 1131 4056 
L 1131 2334 
L 2053 2334 
Q 2538 2334 2783 2582 
Q 3028 2831 3028 3184 
Q 3028 3578 2792 3817 
Q 2556 4056 2034 4056 
L 1131 4056 
z
" transform="scale(0.015625)"/>
       <path id="Roboto-Regular-65" d="M 3116 591 
Q 2950 341 2647 139 
Q 2344 -63 1844 -63 
Q 1138 -63 714 396 
Q 291 856 291 1572 
L 291 1703 
Q 291 2256 502 2645 
Q 713 3034 1050 3239 
Q 1388 3444 1769 3444 
Q 2494 3444 2826 2970 
Q 3159 2497 3159 1788 
L 3159 1528 
L 872 1528 
Q 884 1063 1148 736 
Q 1413 409 1875 409 
Q 2181 409 2393 534 
Q 2606 659 2766 869 
L 3116 591 
z
M 1769 2969 
Q 1425 2969 1187 2719 
Q 950 2469 891 2000 
L 2581 2000 
L 2581 2044 
Q 2559 2381 2386 2675 
Q 2213 2969 1769 2969 
z
" transform="scale(0.015625)"/>
       <path id="Roboto-Regular-64" d="M 2622 0 
L 2594 363 
Q 2247 -63 1628 -63 
Q 1034 -63 668 418 
Q 303 900 297 1628 
L 297 1719 
Q 297 2494 664 2969 
Q 1031 3444 1634 3444 
Q 2231 3444 2572 3044 
L 2572 4800 
L 3153 4800 
L 3153 0 
L 2622 0 
z
M 878 1653 
Q 878 1150 1090 789 
Q 1303 428 1772 428 
Q 2309 428 2572 919 
L 2572 2475 
Q 2313 2956 1778 2956 
Q 1306 2956 1092 2589 
Q 878 2222 878 1719 
L 878 1653 
z
" transform="scale(0.015625)"/>
       <path id="Roboto-Regular-75" d="M 2538 0 
L 2525 334 
Q 2194 -63 1538 -63 
Q 1041 -63 734 231 
Q 428 525 428 1200 
L 428 3381 
L 1006 3381 
L 1006 1194 
Q 1006 738 1198 583 
Q 1391 428 1628 428 
Q 2281 428 2509 919 
L 2509 3381 
L 3091 3381 
L 3091 0 
L 2538 0 
z
" transform="scale(0.015625)"/>
       <path id="Roboto-Regular-63" d="M 1794 413 
Q 2103 413 2336 597 
Q 2569 781 2591 1069 
L 3141 1069 
Q 3119 616 2725 276 
Q 2331 -63 1794 -63 
Q 1031 -63 661 440 
Q 291 944 291 1625 
L 291 1756 
Q 291 2438 661 2941 
Q 1031 3444 1794 3444 
Q 2388 3444 2753 3092 
Q 3119 2741 3141 2219 
L 2591 2219 
Q 2569 2531 2355 2750 
Q 2141 2969 1794 2969 
Q 1438 2969 1236 2787 
Q 1034 2606 951 2328 
Q 869 2050 869 1756 
L 869 1625 
Q 869 1328 950 1050 
Q 1031 772 1232 592 
Q 1434 413 1794 413 
z
" transform="scale(0.015625)"/>
      </defs>
      <use xlink:href="#Roboto-Regular-52"/>
      <use xlink:href="#Roboto-Regular-65" x="61.621094"/>
      <use xlink:href="#Roboto-Regular-64" x="114.648438"/>
      <use xlink:href="#Roboto-Regular-75" x="171.044922"/>
      <use xlink:href="#Roboto-Regular-63" x="226.171875"/>
      <use xlink:href="#Roboto-Regular-65" x="278.515625"/>
      <use xlink:href="#Roboto-Regular-64" x="331.542969"/>
     </g>
    </g>
    <g id="line2d_23">
     <path d="M 58.043 264.293875 
L 70.043 264.293875 
L 82.043 264.293875 
" style="fill: none; stroke: #ec4067; stroke-width: 2.5; stroke-linecap: square"/>
    </g>
    <g id="text_21">
     <!-- Oxidized -->
     <g transform="translate(91.643 268.493875) scale(0.12 -0.12)">
      <defs>
       <path id="Roboto-Regular-4f" d="M 4031 2131 
Q 4031 1106 3534 521 
Q 3038 -63 2206 -63 
Q 1397 -63 884 521 
Q 372 1106 372 2131 
L 372 2419 
Q 372 3441 881 4027 
Q 1391 4613 2200 4613 
Q 3025 4613 3523 4036 
Q 4022 3459 4031 2456 
L 4031 2131 
z
M 3434 2425 
Q 3434 3238 3109 3669 
Q 2784 4100 2200 4100 
Q 1641 4100 1305 3669 
Q 969 3238 969 2425 
L 969 2131 
Q 969 1313 1308 880 
Q 1647 447 2206 447 
Q 2794 447 3114 880 
Q 3434 1313 3434 2131 
L 3434 2425 
z
" transform="scale(0.015625)"/>
       <path id="Roboto-Regular-78" d="M 831 3381 
L 1572 2150 
L 2322 3381 
L 3000 3381 
L 1894 1713 
L 3034 0 
L 2366 0 
L 1584 1269 
L 803 0 
L 131 0 
L 1269 1713 
L 166 3381 
L 831 3381 
z
" transform="scale(0.015625)"/>
       <path id="Roboto-Regular-69" d="M 444 4278 
Q 444 4419 530 4516 
Q 616 4613 784 4613 
Q 950 4613 1039 4516 
Q 1128 4419 1128 4278 
Q 1128 4144 1039 4048 
Q 950 3953 784 3953 
Q 616 3953 530 4048 
Q 444 4144 444 4278 
z
M 1069 3381 
L 1069 0 
L 488 0 
L 488 3381 
L 1069 3381 
z
" transform="scale(0.015625)"/>
       <path id="Roboto-Regular-7a" d="M 303 2903 
L 303 3381 
L 2869 3381 
L 2869 2972 
L 988 475 
L 2959 475 
L 2959 0 
L 278 0 
L 278 425 
L 2141 2903 
L 303 2903 
z
" transform="scale(0.015625)"/>
      </defs>
      <use xlink:href="#Roboto-Regular-4f"/>
      <use xlink:href="#Roboto-Regular-78" x="68.798828"/>
      <use xlink:href="#Roboto-Regular-69" x="118.408203"/>
      <use xlink:href="#Roboto-Regular-64" x="142.724609"/>
      <use xlink:href="#Roboto-Regular-69" x="199.121094"/>
      <use xlink:href="#Roboto-Regular-7a" x="223.4375"/>
      <use xlink:href="#Roboto-Regular-65" x="273.046875"/>
      <use xlink:href="#Roboto-Regular-64" x="326.074219"/>
     </g>
    </g>
    <g id="line2d_24">
     <path d="M 58.043 282.357625 
L 70.043 282.357625 
L 82.043 282.357625 
" style="fill: none; stroke: #f99752; stroke-width: 2.5; stroke-linecap: square"/>
    </g>
    <g id="text_22">
     <!-- Cu(I) -->
     <g transform="translate(91.643 286.557625) scale(0.12 -0.12)">
      <defs>
       <path id="Roboto-Regular-43" d="M 3275 1447 
L 3875 1447 
Q 3806 800 3387 368 
Q 2969 -63 2150 -63 
Q 1356 -63 870 504 
Q 384 1072 375 2013 
L 375 2500 
Q 375 3456 867 4034 
Q 1359 4613 2203 4613 
Q 2975 4613 3390 4188 
Q 3806 3763 3875 3091 
L 3275 3091 
Q 3206 3566 2968 3842 
Q 2731 4119 2203 4119 
Q 1600 4119 1287 3675 
Q 975 3231 975 2506 
L 975 2047 
Q 975 1375 1259 901 
Q 1544 428 2150 428 
Q 2725 428 2961 697 
Q 3197 966 3275 1447 
z
" transform="scale(0.015625)"/>
       <path id="Roboto-Regular-28" d="M 419 1850 
Q 419 2756 678 3434 
Q 938 4113 1294 4541 
Q 1650 4969 1947 5134 
L 2069 4753 
Q 1700 4475 1348 3761 
Q 997 3047 997 1813 
Q 997 625 1348 -97 
Q 1700 -819 2069 -1119 
L 1947 -1469 
Q 1650 -1306 1294 -878 
Q 938 -450 678 226 
Q 419 903 419 1850 
z
" transform="scale(0.015625)"/>
       <path id="Roboto-Regular-49" d="M 1175 4550 
L 1175 0 
L 572 0 
L 572 4550 
L 1175 4550 
z
" transform="scale(0.015625)"/>
       <path id="Roboto-Regular-29" d="M 1772 1819 
Q 1772 906 1512 228 
Q 1253 -450 895 -878 
Q 538 -1306 244 -1469 
L 122 -1119 
Q 488 -841 841 -109 
Q 1194 622 1194 1856 
Q 1194 2647 1019 3236 
Q 844 3825 594 4212 
Q 344 4600 122 4781 
L 244 5134 
Q 538 4969 895 4541 
Q 1253 4113 1512 3436 
Q 1772 2759 1772 1819 
z
" transform="scale(0.015625)"/>
      </defs>
      <use xlink:href="#Roboto-Regular-43"/>
      <use xlink:href="#Roboto-Regular-75" x="65.087891"/>
      <use xlink:href="#Roboto-Regular-28" x="120.214844"/>
      <use xlink:href="#Roboto-Regular-49" x="154.443359"/>
      <use xlink:href="#Roboto-Regular-29" x="181.640625"/>
     </g>
    </g>
   </g>
  </g>
 </g>
 <defs>
  <clipPath id="p51dc6d8bd5">
   <rect x="47.243" y="16.74" width="400.597" height="283.372"/>
  </clipPath>
 </defs>
</svg>
