<?xml version="1.0" encoding="utf-8" standalone="no"?>
<!DOCTYPE svg PUBLIC "-//W3C//DTD SVG 1.1//EN"
  "http://www.w3.org/Graphics/SVG/1.1/DTD/svg11.dtd">
<svg xmlns:xlink="http://www.w3.org/1999/xlink" width="252pt" height="216pt" viewBox="0 0 252 216" xmlns="http://www.w3.org/2000/svg" version="1.1">
 <metadata>
  <rdf:RDF xmlns:dc="http://purl.org/dc/elements/1.1/" xmlns:cc="http://creativecommons.org/ns#" xmlns:rdf="http://www.w3.org/1999/02/22-rdf-syntax-ns#">
   <cc:Work>
    <dc:type rdf:resource="http://purl.org/dc/dcmitype/StillImage"/>
    <dc:date>2024-12-21T20:23:57.559826</dc:date>
    <dc:format>image/svg+xml</dc:format>
    <dc:creator>
     <cc:Agent>
      <dc:title>Matplotlib v3.9.1, https://matplotlib.org/</dc:title>
     </cc:Agent>
    </dc:creator>
   </cc:Work>
  </rdf:RDF>
 </metadata>
 <defs>
  <style type="text/css">*{stroke-linejoin: round; stroke-linecap: butt}</style>
 </defs>
 <g id="figure_1">
  <g id="patch_1">
   <path d="M 0 216 
L 252 216 
L 252 0 
L 0 0 
z
" style="fill: #ffffff"/>
  </g>
  <g id="axes_1">
   <g id="patch_2">
    <path d="M 38.459 179.728 
L 241.1145 179.728 
L 241.1145 8.64 
L 38.459 8.64 
z
" style="fill: #ffffff"/>
   </g>
   <g id="line2d_1">
    <path d="M 38.459 179.728 
L 89.405913 179.713913 
L 91.104144 179.274268 
L 92.802374 176.673816 
L 94.500605 168.559931 
L 96.198835 151.61067 
L 99.595296 108.567417 
L 101.293527 94.709119 
L 102.991757 90.016886 
L 104.689987 93.283513 
L 106.388218 99.682668 
L 108.086448 109.534619 
L 109.784679 120.218698 
L 111.482909 128.270318 
L 113.18114 137.010451 
L 114.87937 142.925718 
L 116.577601 146.64326 
L 118.275831 151.037351 
L 119.974061 154.038426 
L 121.672292 156.321048 
L 125.068753 158.886355 
L 126.766983 160.773536 
L 128.465214 161.588245 
L 131.861675 163.778524 
L 133.559905 164.615925 
L 135.258135 165.175173 
L 140.352827 167.31764 
L 142.051057 168.017348 
L 143.749288 168.98171 
L 145.447518 170.443591 
L 147.145749 171.290267 
L 148.843979 171.950936 
L 150.542209 173.58964 
L 152.24044 174.244877 
L 153.93867 174.613809 
L 157.335131 176.117032 
L 159.033362 176.490409 
L 160.731592 177.093363 
L 162.429823 177.418372 
L 164.128053 177.93398 
L 165.826284 178.328836 
L 174.317436 179.070518 
L 177.713897 179.221983 
L 179.412127 179.352806 
L 181.110358 179.313956 
L 182.808588 179.46204 
L 187.903279 179.588052 
L 192.997971 179.678559 
L 253 179.728 
L 253 179.728 
" clip-path="url(#pa77c5172ed)" style="fill: none; stroke: #1e2e79; stroke-width: 1.5; stroke-linecap: square"/>
   </g>
   <g id="line2d_2">
    <path d="M 38.459 179.728 
L 89.405913 179.702808 
L 91.104144 179.323564 
L 92.802374 175.370802 
L 94.500605 156.163103 
L 96.198835 117.745027 
L 97.897066 67.891083 
L 99.595296 30.053677 
L 101.293527 16.787048 
L 102.991757 28.556411 
L 108.086448 109.334969 
L 109.784679 128.741178 
L 111.482909 145.071927 
L 113.18114 154.960118 
L 114.87937 162.400905 
L 116.577601 167.518726 
L 118.275831 170.365753 
L 119.974061 173.443592 
L 121.672292 174.721258 
L 123.370522 175.611673 
L 125.068753 176.768778 
L 126.766983 177.395779 
L 128.465214 177.051538 
L 130.163444 177.69679 
L 133.559905 178.117925 
L 135.258135 178.279564 
L 136.956366 178.123791 
L 138.654596 178.484894 
L 142.051057 178.567695 
L 143.749288 178.735223 
L 145.447518 178.584779 
L 147.145749 178.867976 
L 152.24044 179.130485 
L 153.93867 179.1044 
L 155.636901 179.343765 
L 159.033362 179.407411 
L 162.429823 179.503364 
L 164.128053 179.627288 
L 165.826284 179.611121 
L 167.524514 179.471832 
L 170.920975 179.49098 
L 172.619205 179.589874 
L 176.015666 179.525388 
L 179.412127 179.673451 
L 182.808588 179.666891 
L 189.60151 179.660274 
L 204.885584 179.713024 
L 235.453732 179.728 
L 253 179.728 
L 253 179.728 
" clip-path="url(#pa77c5172ed)" style="fill: none; stroke: #ec4067; stroke-width: 1.5; stroke-linecap: square"/>
   </g>
   <g id="matplotlib.axis_1">
    <g id="xtick_1">
     <g id="line2d_3">
      <defs>
       <path id="m068901e108" d="M 0 0 
L 0 3.5 
" style="stroke: #c2c1c1; stroke-width: 0.8"/>
      </defs>
      <g>
       <use xlink:href="#m068901e108" x="38.459" y="179.728" style="fill: #c2c1c1; stroke: #c2c1c1; stroke-width: 0.8"/>
      </g>
     </g>
     <g id="text_1">
      <!-- 1 -->
      <g style="fill: #191919" transform="translate(36.21275 192.728) scale(0.08 -0.08)">
       <defs>
        <path id="Roboto-Regular-31" d="M 2278 0 
L 1697 0 
L 1697 3853 
L 531 3425 
L 531 3950 
L 2188 4572 
L 2278 4572 
L 2278 0 
z
" transform="scale(0.015625)"/>
       </defs>
       <use xlink:href="#Roboto-Regular-31"/>
      </g>
     </g>
    </g>
    <g id="xtick_2">
     <g id="line2d_4">
      <g>
       <use xlink:href="#m068901e108" x="72.234917" y="179.728" style="fill: #c2c1c1; stroke: #c2c1c1; stroke-width: 0.8"/>
      </g>
     </g>
     <g id="text_2">
      <!-- 2 -->
      <g style="fill: #191919" transform="translate(69.988667 192.728) scale(0.08 -0.08)">
       <defs>
        <path id="Roboto-Regular-32" d="M 3359 0 
L 378 0 
L 378 416 
L 1953 2166 
Q 2303 2563 2436 2811 
Q 2569 3059 2569 3325 
Q 2569 3681 2353 3909 
Q 2138 4138 1778 4138 
Q 1347 4138 1108 3892 
Q 869 3647 869 3209 
L 291 3209 
Q 291 3838 695 4225 
Q 1100 4613 1778 4613 
Q 2413 4613 2781 4280 
Q 3150 3947 3150 3394 
Q 3150 2722 2294 1794 
L 1075 472 
L 3359 472 
L 3359 0 
z
" transform="scale(0.015625)"/>
       </defs>
       <use xlink:href="#Roboto-Regular-32"/>
      </g>
     </g>
    </g>
    <g id="xtick_3">
     <g id="line2d_5">
      <g>
       <use xlink:href="#m068901e108" x="106.010833" y="179.728" style="fill: #c2c1c1; stroke: #c2c1c1; stroke-width: 0.8"/>
      </g>
     </g>
     <g id="text_3">
      <!-- 3 -->
      <g style="fill: #191919" transform="translate(103.764583 192.728) scale(0.08 -0.08)">
       <defs>
        <path id="Roboto-Regular-33" d="M 1219 2556 
L 1653 2556 
Q 2063 2563 2297 2772 
Q 2531 2981 2531 3338 
Q 2531 4138 1734 4138 
Q 1359 4138 1136 3923 
Q 913 3709 913 3356 
L 334 3356 
Q 334 3897 729 4255 
Q 1125 4613 1734 4613 
Q 2378 4613 2743 4272 
Q 3109 3931 3109 3325 
Q 3109 3028 2917 2750 
Q 2725 2472 2394 2334 
Q 2769 2216 2973 1941 
Q 3178 1666 3178 1269 
Q 3178 656 2778 296 
Q 2378 -63 1737 -63 
Q 1097 -63 695 284 
Q 294 631 294 1200 
L 875 1200 
Q 875 841 1109 625 
Q 1344 409 1738 409 
Q 2156 409 2378 628 
Q 2600 847 2600 1256 
Q 2600 1653 2356 1865 
Q 2113 2078 1653 2084 
L 1219 2084 
L 1219 2556 
z
" transform="scale(0.015625)"/>
       </defs>
       <use xlink:href="#Roboto-Regular-33"/>
      </g>
     </g>
    </g>
    <g id="xtick_4">
     <g id="line2d_6">
      <g>
       <use xlink:href="#m068901e108" x="139.78675" y="179.728" style="fill: #c2c1c1; stroke: #c2c1c1; stroke-width: 0.8"/>
      </g>
     </g>
     <g id="text_4">
      <!-- 4 -->
      <g style="fill: #191919" transform="translate(137.5405 192.728) scale(0.08 -0.08)">
       <defs>
        <path id="Roboto-Regular-34" d="M 2819 1528 
L 3450 1528 
L 3450 1056 
L 2819 1056 
L 2819 0 
L 2238 0 
L 2238 1056 
L 166 1056 
L 166 1397 
L 2203 4550 
L 2819 4550 
L 2819 1528 
z
M 822 1528 
L 2238 1528 
L 2238 3759 
L 2169 3634 
L 822 1528 
z
" transform="scale(0.015625)"/>
       </defs>
       <use xlink:href="#Roboto-Regular-34"/>
      </g>
     </g>
    </g>
    <g id="xtick_5">
     <g id="line2d_7">
      <g>
       <use xlink:href="#m068901e108" x="173.562667" y="179.728" style="fill: #c2c1c1; stroke: #c2c1c1; stroke-width: 0.8"/>
      </g>
     </g>
     <g id="text_5">
      <!-- 5 -->
      <g style="fill: #191919" transform="translate(171.316417 192.728) scale(0.08 -0.08)">
       <defs>
        <path id="Roboto-Regular-35" d="M 644 2281 
L 875 4550 
L 3206 4550 
L 3206 4016 
L 1366 4016 
L 1228 2775 
Q 1563 2972 1988 2972 
Q 2609 2972 2975 2561 
Q 3341 2150 3341 1450 
Q 3341 747 2961 342 
Q 2581 -63 1900 -63 
Q 1297 -63 915 271 
Q 534 606 481 1197 
L 1028 1197 
Q 1081 806 1306 607 
Q 1531 409 1900 409 
Q 2303 409 2533 684 
Q 2763 959 2763 1444 
Q 2763 1900 2514 2176 
Q 2266 2453 1853 2453 
Q 1475 2453 1259 2288 
L 1106 2163 
L 644 2281 
z
" transform="scale(0.015625)"/>
       </defs>
       <use xlink:href="#Roboto-Regular-35"/>
      </g>
     </g>
    </g>
    <g id="xtick_6">
     <g id="line2d_8">
      <g>
       <use xlink:href="#m068901e108" x="207.338583" y="179.728" style="fill: #c2c1c1; stroke: #c2c1c1; stroke-width: 0.8"/>
      </g>
     </g>
     <g id="text_6">
      <!-- 6 -->
      <g style="fill: #191919" transform="translate(205.092333 192.728) scale(0.08 -0.08)">
       <defs>
        <path id="Roboto-Regular-36" d="M 2647 4553 
L 2647 4063 
L 2541 4063 
Q 1866 4050 1466 3662 
Q 1066 3275 1003 2572 
Q 1363 2984 1984 2984 
Q 2578 2984 2933 2565 
Q 3288 2147 3288 1484 
Q 3288 781 2905 359 
Q 2522 -63 1878 -63 
Q 1225 -63 819 439 
Q 413 941 413 1731 
L 413 1953 
Q 413 3209 948 3873 
Q 1484 4538 2544 4553 
L 2647 4553 
z
M 1888 2503 
Q 1591 2503 1341 2325 
Q 1091 2147 994 1878 
L 994 1666 
Q 994 1103 1247 759 
Q 1500 416 1878 416 
Q 2269 416 2492 703 
Q 2716 991 2716 1456 
Q 2716 1925 2489 2214 
Q 2263 2503 1888 2503 
z
" transform="scale(0.015625)"/>
       </defs>
       <use xlink:href="#Roboto-Regular-36"/>
      </g>
     </g>
    </g>
    <g id="xtick_7">
     <g id="line2d_9">
      <g>
       <use xlink:href="#m068901e108" x="241.1145" y="179.728" style="fill: #c2c1c1; stroke: #c2c1c1; stroke-width: 0.8"/>
      </g>
     </g>
     <g id="text_7">
      <!-- 7 -->
      <g style="fill: #191919" transform="translate(238.86825 192.728) scale(0.08 -0.08)">
       <defs>
        <path id="Roboto-Regular-37" d="M 3316 4225 
L 1431 0 
L 825 0 
L 2703 4075 
L 241 4075 
L 241 4550 
L 3316 4550 
L 3316 4225 
z
" transform="scale(0.015625)"/>
       </defs>
       <use xlink:href="#Roboto-Regular-37"/>
      </g>
     </g>
    </g>
    <g id="text_8">
     <!-- Cro66 O2 - Gln94 NE2 Distance [Å] -->
     <g style="fill: #191919" transform="translate(77.1155 205.61925) scale(0.08 -0.08)">
      <defs>
       <path id="Roboto-Black-43" d="M 4025 1541 
Q 4003 1066 3768 702 
Q 3534 338 3111 137 
Q 2688 -63 2144 -63 
Q 1247 -63 731 521 
Q 216 1106 216 2172 
L 216 2397 
Q 216 3066 448 3567 
Q 681 4069 1118 4342 
Q 1556 4616 2131 4616 
Q 2959 4616 3462 4180 
Q 3966 3744 4034 2978 
L 2941 2978 
Q 2928 3394 2731 3575 
Q 2534 3756 2131 3756 
Q 1722 3756 1531 3450 
Q 1341 3144 1331 2472 
L 1331 2150 
Q 1331 1422 1514 1109 
Q 1697 797 2144 797 
Q 2522 797 2722 975 
Q 2922 1153 2934 1541 
L 4025 1541 
z
" transform="scale(0.015625)"/>
       <path id="Roboto-Black-72" d="M 2341 2428 
L 1994 2453 
Q 1497 2453 1356 2141 
L 1356 0 
L 303 0 
L 303 3381 
L 1291 3381 
L 1325 2947 
Q 1591 3444 2066 3444 
Q 2234 3444 2359 3406 
L 2341 2428 
z
" transform="scale(0.015625)"/>
       <path id="Roboto-Black-6f" d="M 163 1722 
Q 163 2228 359 2623 
Q 556 3019 925 3231 
Q 1294 3444 1791 3444 
Q 2550 3444 2987 2973 
Q 3425 2503 3425 1694 
L 3425 1656 
Q 3425 866 2986 401 
Q 2547 -63 1797 -63 
Q 1075 -63 637 370 
Q 200 803 166 1544 
L 163 1722 
z
M 1216 1656 
Q 1216 1188 1362 969 
Q 1509 750 1797 750 
Q 2359 750 2372 1616 
L 2372 1722 
Q 2372 2631 1791 2631 
Q 1263 2631 1219 1847 
L 1216 1656 
z
" transform="scale(0.015625)"/>
       <path id="Roboto-Black-36" d="M 2822 4616 
L 2822 3788 
L 2775 3788 
Q 2184 3788 1804 3505 
Q 1425 3222 1338 2719 
Q 1694 3069 2238 3069 
Q 2828 3069 3178 2637 
Q 3528 2206 3528 1506 
Q 3528 1072 3323 709 
Q 3119 347 2751 142 
Q 2384 -63 1938 -63 
Q 1453 -63 1072 157 
Q 691 378 478 787 
Q 266 1197 259 1731 
L 259 2153 
Q 259 2856 561 3417 
Q 863 3978 1422 4297 
Q 1981 4616 2663 4616 
L 2822 4616 
z
M 1872 2263 
Q 1663 2263 1522 2166 
Q 1381 2069 1313 1928 
L 1313 1613 
Q 1313 750 1909 750 
Q 2150 750 2311 965 
Q 2472 1181 2472 1506 
Q 2472 1841 2308 2052 
Q 2144 2263 1872 2263 
z
" transform="scale(0.015625)"/>
       <path id="Roboto-Black-20" transform="scale(0.015625)"/>
       <path id="Roboto-Black-4f" d="M 4197 2181 
Q 4197 1516 3950 1003 
Q 3703 491 3248 214 
Q 2794 -63 2212 -63 
Q 1631 -63 1181 204 
Q 731 472 479 969 
Q 228 1466 216 2109 
L 216 2366 
Q 216 3034 461 3545 
Q 706 4056 1164 4334 
Q 1622 4613 2206 4613 
Q 2784 4613 3237 4338 
Q 3691 4063 3942 3555 
Q 4194 3047 4197 2391 
L 4197 2181 
z
M 3081 2372 
Q 3081 3050 2854 3401 
Q 2628 3753 2206 3753 
Q 1381 3753 1334 2516 
L 1331 2181 
Q 1331 1513 1553 1153 
Q 1775 794 2213 794 
Q 2628 794 2853 1147 
Q 3078 1500 3081 2163 
L 3081 2372 
z
" transform="scale(0.015625)"/>
       <path id="Roboto-Black-32" d="M 3453 0 
L 278 0 
L 278 688 
L 1741 2225 
Q 2281 2841 2281 3203 
Q 2281 3497 2153 3650 
Q 2025 3803 1781 3803 
Q 1541 3803 1391 3598 
Q 1241 3394 1241 3088 
L 184 3088 
Q 184 3506 393 3861 
Q 603 4216 975 4416 
Q 1347 4616 1806 4616 
Q 2544 4616 2942 4275 
Q 3341 3934 3341 3297 
Q 3341 3028 3241 2773 
Q 3141 2519 2930 2239 
Q 2719 1959 2250 1491 
L 1663 813 
L 3453 813 
L 3453 0 
z
" transform="scale(0.015625)"/>
       <path id="Roboto-Black-2d" d="M 2353 1553 
L 475 1553 
L 475 2369 
L 2353 2369 
L 2353 1553 
z
" transform="scale(0.015625)"/>
       <path id="Roboto-Black-47" d="M 4069 563 
Q 3816 281 3328 109 
Q 2841 -63 2259 -63 
Q 1366 -63 831 484 
Q 297 1031 259 2006 
L 256 2400 
Q 256 3072 493 3573 
Q 731 4075 1173 4345 
Q 1616 4616 2197 4616 
Q 3047 4616 3517 4227 
Q 3988 3838 4066 3066 
L 3009 3066 
Q 2953 3447 2765 3609 
Q 2578 3772 2234 3772 
Q 1822 3772 1597 3422 
Q 1372 3072 1369 2422 
L 1369 2147 
Q 1369 1466 1601 1123 
Q 1834 781 2334 781 
Q 2763 781 2972 972 
L 2972 1678 
L 2209 1678 
L 2209 2431 
L 4069 2431 
L 4069 563 
z
" transform="scale(0.015625)"/>
       <path id="Roboto-Black-6c" d="M 1406 0 
L 350 0 
L 350 4800 
L 1406 4800 
L 1406 0 
z
" transform="scale(0.015625)"/>
       <path id="Roboto-Black-6e" d="M 1263 3381 
L 1297 2984 
Q 1647 3444 2263 3444 
Q 2791 3444 3052 3128 
Q 3313 2813 3322 2178 
L 3322 0 
L 2266 0 
L 2266 2134 
Q 2266 2391 2162 2511 
Q 2059 2631 1788 2631 
Q 1478 2631 1328 2388 
L 1328 0 
L 275 0 
L 275 3381 
L 1263 3381 
z
" transform="scale(0.015625)"/>
       <path id="Roboto-Black-39" d="M 2353 1759 
Q 2013 1453 1591 1453 
Q 972 1453 609 1872 
Q 247 2291 247 2991 
Q 247 3428 450 3803 
Q 653 4178 1020 4397 
Q 1388 4616 1831 4616 
Q 2281 4616 2645 4389 
Q 3009 4163 3212 3748 
Q 3416 3334 3422 2794 
L 3422 2391 
Q 3422 1638 3126 1084 
Q 2831 531 2284 234 
Q 1738 -63 1009 -63 
L 944 -63 
L 944 781 
L 1144 784 
Q 2231 838 2353 1759 
z
M 1875 2213 
Q 2219 2213 2369 2509 
L 2369 2947 
Q 2369 3384 2222 3593 
Q 2075 3803 1825 3803 
Q 1603 3803 1453 3565 
Q 1303 3328 1303 2991 
Q 1303 2634 1456 2423 
Q 1609 2213 1875 2213 
z
" transform="scale(0.015625)"/>
       <path id="Roboto-Black-34" d="M 3059 1778 
L 3522 1778 
L 3522 966 
L 3059 966 
L 3059 0 
L 2006 0 
L 2006 966 
L 247 966 
L 184 1609 
L 2006 4541 
L 2006 4550 
L 3059 4550 
L 3059 1778 
z
M 1188 1778 
L 2006 1778 
L 2006 3178 
L 1941 3072 
L 1188 1778 
z
" transform="scale(0.015625)"/>
       <path id="Roboto-Black-4e" d="M 4144 0 
L 3053 0 
L 1441 2831 
L 1441 0 
L 344 0 
L 344 4550 
L 1441 4550 
L 3050 1719 
L 3050 4550 
L 4144 4550 
L 4144 0 
z
" transform="scale(0.015625)"/>
       <path id="Roboto-Black-45" d="M 3166 1928 
L 1441 1928 
L 1441 844 
L 3478 844 
L 3478 0 
L 344 0 
L 344 4550 
L 3484 4550 
L 3484 3703 
L 1441 3703 
L 1441 2744 
L 3166 2744 
L 3166 1928 
z
" transform="scale(0.015625)"/>
       <path id="Roboto-Black-44" d="M 344 0 
L 344 4550 
L 1809 4550 
Q 2413 4550 2894 4276 
Q 3375 4003 3645 3504 
Q 3916 3006 3919 2388 
L 3919 2178 
Q 3919 1553 3655 1058 
Q 3391 563 2911 283 
Q 2431 3 1841 0 
L 344 0 
z
M 1441 3703 
L 1441 844 
L 1822 844 
Q 2294 844 2547 1180 
Q 2800 1516 2800 2178 
L 2800 2375 
Q 2800 3034 2547 3368 
Q 2294 3703 1809 3703 
L 1441 3703 
z
" transform="scale(0.015625)"/>
       <path id="Roboto-Black-69" d="M 1406 0 
L 350 0 
L 350 3381 
L 1406 3381 
L 1406 0 
z
M 288 4253 
Q 288 4478 450 4622 
Q 613 4766 872 4766 
Q 1131 4766 1293 4622 
Q 1456 4478 1456 4253 
Q 1456 4028 1293 3884 
Q 1131 3741 872 3741 
Q 613 3741 450 3884 
Q 288 4028 288 4253 
z
" transform="scale(0.015625)"/>
       <path id="Roboto-Black-73" d="M 2066 950 
Q 2066 1084 1925 1165 
Q 1784 1247 1390 1334 
Q 997 1422 740 1564 
Q 484 1706 350 1909 
Q 216 2113 216 2375 
Q 216 2841 600 3142 
Q 984 3444 1606 3444 
Q 2275 3444 2681 3141 
Q 3088 2838 3088 2344 
L 2031 2344 
Q 2031 2750 1603 2750 
Q 1438 2750 1325 2658 
Q 1213 2566 1213 2428 
Q 1213 2288 1350 2200 
Q 1488 2113 1789 2056 
Q 2091 2000 2319 1922 
Q 3081 1659 3081 981 
Q 3081 519 2670 228 
Q 2259 -63 1606 -63 
Q 1172 -63 831 93 
Q 491 250 300 519 
Q 109 788 109 1084 
L 1094 1084 
Q 1100 850 1250 742 
Q 1400 634 1634 634 
Q 1850 634 1958 721 
Q 2066 809 2066 950 
z
" transform="scale(0.015625)"/>
       <path id="Roboto-Black-74" d="M 1522 4222 
L 1522 3381 
L 2078 3381 
L 2078 2650 
L 1522 2650 
L 1522 1103 
Q 1522 913 1590 838 
Q 1659 763 1863 763 
Q 2019 763 2125 781 
L 2125 28 
Q 1841 -63 1531 -63 
Q 988 -63 728 193 
Q 469 450 469 972 
L 469 2650 
L 38 2650 
L 38 3381 
L 469 3381 
L 469 4222 
L 1522 4222 
z
" transform="scale(0.015625)"/>
       <path id="Roboto-Black-61" d="M 2200 0 
Q 2144 103 2100 303 
Q 1809 -63 1288 -63 
Q 809 -63 475 226 
Q 141 516 141 953 
Q 141 1503 547 1784 
Q 953 2066 1728 2066 
L 2053 2066 
L 2053 2244 
Q 2053 2709 1650 2709 
Q 1275 2709 1275 2341 
L 222 2341 
Q 222 2831 639 3137 
Q 1056 3444 1703 3444 
Q 2350 3444 2725 3128 
Q 3100 2813 3109 2263 
L 3109 766 
Q 3116 300 3253 53 
L 3253 0 
L 2200 0 
z
M 1541 688 
Q 1738 688 1867 772 
Q 1997 856 2053 963 
L 2053 1503 
L 1747 1503 
Q 1197 1503 1197 1009 
Q 1197 866 1294 777 
Q 1391 688 1541 688 
z
" transform="scale(0.015625)"/>
       <path id="Roboto-Black-63" d="M 1725 750 
Q 1947 750 2069 870 
Q 2191 991 2188 1206 
L 3175 1206 
Q 3175 650 2776 293 
Q 2378 -63 1750 -63 
Q 1013 -63 588 400 
Q 163 863 163 1681 
L 163 1725 
Q 163 2238 352 2630 
Q 541 3022 897 3233 
Q 1253 3444 1741 3444 
Q 2400 3444 2787 3078 
Q 3175 2713 3175 2088 
L 2188 2088 
Q 2188 2350 2059 2490 
Q 1931 2631 1716 2631 
Q 1306 2631 1238 2109 
Q 1216 1944 1216 1653 
Q 1216 1144 1337 947 
Q 1459 750 1725 750 
z
" transform="scale(0.015625)"/>
       <path id="Roboto-Black-65" d="M 1931 -63 
Q 1153 -63 672 401 
Q 191 866 191 1609 
L 191 1697 
Q 191 2216 383 2612 
Q 575 3009 944 3226 
Q 1313 3444 1819 3444 
Q 2531 3444 2943 3001 
Q 3356 2559 3356 1769 
L 3356 1359 
L 1263 1359 
Q 1319 1075 1509 912 
Q 1700 750 2003 750 
Q 2503 750 2784 1100 
L 3266 531 
Q 3069 259 2708 98 
Q 2347 -63 1931 -63 
z
M 1813 2631 
Q 1350 2631 1263 2019 
L 2325 2019 
L 2325 2100 
Q 2331 2353 2197 2492 
Q 2063 2631 1813 2631 
z
" transform="scale(0.015625)"/>
       <path id="Roboto-Black-5b" d="M 1763 4563 
L 1394 4563 
L 1394 -325 
L 1763 -325 
L 1763 -1091 
L 338 -1091 
L 338 5331 
L 1763 5331 
L 1763 4563 
z
" transform="scale(0.015625)"/>
       <path id="Roboto-Black-c5" d="M 2928 850 
L 1425 850 
L 1163 0 
L -9 0 
L 1659 4550 
L 2691 4550 
L 4372 0 
L 3194 0 
L 2928 850 
z
M 1688 1697 
L 2666 1697 
L 2175 3275 
L 1688 1697 
z
M 1489 5388 
Q 1489 5657 1693 5839 
Q 1898 6022 2192 6022 
Q 2483 6022 2687 5839 
Q 2892 5657 2892 5388 
Q 2892 5122 2690 4944 
Q 2489 4766 2192 4766 
Q 1892 4766 1690 4944 
Q 1489 5122 1489 5388 
z
M 2192 5063 
Q 2342 5063 2428 5156 
Q 2514 5250 2514 5387 
Q 2514 5525 2428 5622 
Q 2342 5719 2192 5719 
Q 2039 5719 1953 5622 
Q 1867 5525 1867 5387 
Q 1867 5250 1953 5156 
Q 2039 5063 2192 5063 
z
" transform="scale(0.015625)"/>
       <path id="Roboto-Black-5d" d="M 44 5331 
L 1469 5331 
L 1469 -1091 
L 44 -1091 
L 44 -325 
L 416 -325 
L 416 4563 
L 44 4563 
L 44 5331 
z
" transform="scale(0.015625)"/>
      </defs>
      <use xlink:href="#Roboto-Black-43"/>
      <use xlink:href="#Roboto-Black-72" x="65.625"/>
      <use xlink:href="#Roboto-Black-6f" x="103.515625"/>
      <use xlink:href="#Roboto-Black-36" x="159.667969"/>
      <use xlink:href="#Roboto-Black-36" x="217.578125"/>
      <use xlink:href="#Roboto-Black-20" x="275.488281"/>
      <use xlink:href="#Roboto-Black-4f" x="300.390625"/>
      <use xlink:href="#Roboto-Black-32" x="369.433594"/>
      <use xlink:href="#Roboto-Black-20" x="427.34375"/>
      <use xlink:href="#Roboto-Black-2d" x="452.246094"/>
      <use xlink:href="#Roboto-Black-20" x="497.216797"/>
      <use xlink:href="#Roboto-Black-47" x="522.119141"/>
      <use xlink:href="#Roboto-Black-6c" x="590.283203"/>
      <use xlink:href="#Roboto-Black-6e" x="617.773438"/>
      <use xlink:href="#Roboto-Black-39" x="674.169922"/>
      <use xlink:href="#Roboto-Black-34" x="732.080078"/>
      <use xlink:href="#Roboto-Black-20" x="789.990234"/>
      <use xlink:href="#Roboto-Black-4e" x="814.892578"/>
      <use xlink:href="#Roboto-Black-45" x="885.107422"/>
      <use xlink:href="#Roboto-Black-32" x="941.064453"/>
      <use xlink:href="#Roboto-Black-20" x="998.974609"/>
      <use xlink:href="#Roboto-Black-44" x="1023.876953"/>
      <use xlink:href="#Roboto-Black-69" x="1088.525391"/>
      <use xlink:href="#Roboto-Black-73" x="1116.015625"/>
      <use xlink:href="#Roboto-Black-74" x="1167.236328"/>
      <use xlink:href="#Roboto-Black-61" x="1201.5625"/>
      <use xlink:href="#Roboto-Black-6e" x="1254.638672"/>
      <use xlink:href="#Roboto-Black-63" x="1311.035156"/>
      <use xlink:href="#Roboto-Black-65" x="1362.988281"/>
      <use xlink:href="#Roboto-Black-20" x="1417.431641"/>
      <use xlink:href="#Roboto-Black-5b" x="1442.333984"/>
      <use xlink:href="#Roboto-Black-c5" x="1470.507812"/>
      <use xlink:href="#Roboto-Black-5d" x="1538.623047"/>
     </g>
    </g>
   </g>
   <g id="matplotlib.axis_2">
    <g id="ytick_1">
     <g id="line2d_10">
      <defs>
       <path id="m604bdddd7c" d="M 0 0 
L -3.5 0 
" style="stroke: #c2c1c1; stroke-width: 0.8"/>
      </defs>
      <g>
       <use xlink:href="#m604bdddd7c" x="38.459" y="179.728" style="fill: #c2c1c1; stroke: #c2c1c1; stroke-width: 0.8"/>
      </g>
     </g>
     <g id="text_9">
      <!-- 0.0 -->
      <g style="fill: #191919" transform="translate(20.369 182.728) scale(0.08 -0.08)">
       <defs>
        <path id="Roboto-Regular-30" d="M 3231 1941 
Q 3231 925 2884 431 
Q 2538 -63 1800 -63 
Q 1072 -63 722 420 
Q 372 903 359 1863 
L 359 2634 
Q 359 3638 706 4125 
Q 1053 4613 1794 4613 
Q 2528 4613 2875 4142 
Q 3222 3672 3231 2691 
L 3231 1941 
z
M 2653 2731 
Q 2653 3466 2447 3802 
Q 2241 4138 1794 4138 
Q 1350 4138 1147 3803 
Q 944 3469 938 2775 
L 938 1850 
Q 938 1113 1152 761 
Q 1366 409 1800 409 
Q 2228 409 2436 740 
Q 2644 1072 2653 1784 
L 2653 2731 
z
" transform="scale(0.015625)"/>
        <path id="Roboto-Regular-2e" d="M 450 303 
Q 450 453 539 553 
Q 628 653 806 653 
Q 984 653 1076 553 
Q 1169 453 1169 303 
Q 1169 159 1076 62 
Q 984 -34 806 -34 
Q 628 -34 539 62 
Q 450 159 450 303 
z
" transform="scale(0.015625)"/>
       </defs>
       <use xlink:href="#Roboto-Regular-30"/>
       <use xlink:href="#Roboto-Regular-2e" x="56.152344"/>
       <use xlink:href="#Roboto-Regular-30" x="82.470703"/>
      </g>
     </g>
    </g>
    <g id="ytick_2">
     <g id="line2d_11">
      <g>
       <use xlink:href="#m604bdddd7c" x="38.459" y="150.786734" style="fill: #c2c1c1; stroke: #c2c1c1; stroke-width: 0.8"/>
      </g>
     </g>
     <g id="text_10">
      <!-- 0.5 -->
      <g style="fill: #191919" transform="translate(20.369 153.786734) scale(0.08 -0.08)">
       <use xlink:href="#Roboto-Regular-30"/>
       <use xlink:href="#Roboto-Regular-2e" x="56.152344"/>
       <use xlink:href="#Roboto-Regular-35" x="82.470703"/>
      </g>
     </g>
    </g>
    <g id="ytick_3">
     <g id="line2d_12">
      <g>
       <use xlink:href="#m604bdddd7c" x="38.459" y="121.845468" style="fill: #c2c1c1; stroke: #c2c1c1; stroke-width: 0.8"/>
      </g>
     </g>
     <g id="text_11">
      <!-- 1.0 -->
      <g style="fill: #191919" transform="translate(20.369 124.845468) scale(0.08 -0.08)">
       <use xlink:href="#Roboto-Regular-31"/>
       <use xlink:href="#Roboto-Regular-2e" x="56.152344"/>
       <use xlink:href="#Roboto-Regular-30" x="82.470703"/>
      </g>
     </g>
    </g>
    <g id="ytick_4">
     <g id="line2d_13">
      <g>
       <use xlink:href="#m604bdddd7c" x="38.459" y="92.904202" style="fill: #c2c1c1; stroke: #c2c1c1; stroke-width: 0.8"/>
      </g>
     </g>
     <g id="text_12">
      <!-- 1.5 -->
      <g style="fill: #191919" transform="translate(20.369 95.904202) scale(0.08 -0.08)">
       <use xlink:href="#Roboto-Regular-31"/>
       <use xlink:href="#Roboto-Regular-2e" x="56.152344"/>
       <use xlink:href="#Roboto-Regular-35" x="82.470703"/>
      </g>
     </g>
    </g>
    <g id="ytick_5">
     <g id="line2d_14">
      <g>
       <use xlink:href="#m604bdddd7c" x="38.459" y="63.962936" style="fill: #c2c1c1; stroke: #c2c1c1; stroke-width: 0.8"/>
      </g>
     </g>
     <g id="text_13">
      <!-- 2.0 -->
      <g style="fill: #191919" transform="translate(20.369 66.962936) scale(0.08 -0.08)">
       <use xlink:href="#Roboto-Regular-32"/>
       <use xlink:href="#Roboto-Regular-2e" x="56.152344"/>
       <use xlink:href="#Roboto-Regular-30" x="82.470703"/>
      </g>
     </g>
    </g>
    <g id="ytick_6">
     <g id="line2d_15">
      <g>
       <use xlink:href="#m604bdddd7c" x="38.459" y="35.02167" style="fill: #c2c1c1; stroke: #c2c1c1; stroke-width: 0.8"/>
      </g>
     </g>
     <g id="text_14">
      <!-- 2.5 -->
      <g style="fill: #191919" transform="translate(20.369 38.02167) scale(0.08 -0.08)">
       <use xlink:href="#Roboto-Regular-32"/>
       <use xlink:href="#Roboto-Regular-2e" x="56.152344"/>
       <use xlink:href="#Roboto-Regular-35" x="82.470703"/>
      </g>
     </g>
    </g>
    <g id="text_15">
     <!-- Density -->
     <g style="fill: #191919" transform="translate(14.6615 107.797125) rotate(-90) scale(0.08 -0.08)">
      <defs>
       <path id="Roboto-Black-79" d="M 1647 1475 
L 2209 3381 
L 3338 3381 
L 1959 -566 
L 1900 -709 
Q 1606 -1366 863 -1366 
Q 656 -1366 428 -1303 
L 428 -550 
L 566 -550 
Q 788 -550 905 -486 
Q 1022 -422 1078 -256 
L 1163 -31 
L -13 3381 
L 1113 3381 
L 1647 1475 
z
" transform="scale(0.015625)"/>
      </defs>
      <use xlink:href="#Roboto-Black-44"/>
      <use xlink:href="#Roboto-Black-65" x="64.648438"/>
      <use xlink:href="#Roboto-Black-6e" x="119.091797"/>
      <use xlink:href="#Roboto-Black-73" x="175.488281"/>
      <use xlink:href="#Roboto-Black-69" x="226.708984"/>
      <use xlink:href="#Roboto-Black-74" x="254.199219"/>
      <use xlink:href="#Roboto-Black-79" x="288.525391"/>
     </g>
    </g>
   </g>
   <g id="line2d_16">
    <path d="M 38.459 179.728 
L 89.405913 179.656435 
L 91.104144 179.080052 
L 92.802374 175.746316 
L 94.500605 165.105751 
L 96.198835 146.078073 
L 97.897066 123.196144 
L 99.595296 104.331482 
L 101.293527 95.603498 
L 102.991757 96.259647 
L 104.689987 102.9017 
L 109.784679 131.447796 
L 111.482909 139.800895 
L 113.18114 146.938584 
L 114.87937 152.465627 
L 116.577601 157.14211 
L 119.974061 163.903802 
L 123.370522 168.42468 
L 126.766983 171.814106 
L 131.861675 174.693018 
L 133.559905 175.287211 
L 135.258135 175.549662 
L 136.956366 175.6418 
L 138.654596 175.59036 
L 142.051057 175.192779 
L 143.749288 175.173527 
L 145.447518 174.482607 
L 148.843979 172.792076 
L 150.542209 172.253767 
L 152.24044 171.021244 
L 153.93867 169.647826 
L 157.335131 167.429191 
L 159.033362 166.553631 
L 160.731592 164.675545 
L 162.429823 163.64761 
L 167.524514 162.053144 
L 169.222744 162.300766 
L 170.920975 162.752266 
L 172.619205 163.363514 
L 174.317436 164.755901 
L 176.015666 166.463607 
L 177.713897 167.851809 
L 179.412127 169.448222 
L 181.110358 171.375499 
L 182.808588 172.94198 
L 184.506818 174.257344 
L 187.903279 176.627959 
L 189.60151 177.437558 
L 194.696201 178.760791 
L 198.092662 179.316252 
L 201.489123 179.535715 
L 213.376736 179.703606 
L 230.359041 179.728 
L 253 179.728 
L 253 179.728 
" clip-path="url(#pa77c5172ed)" style="fill: none; stroke: #f99752; stroke-width: 1.5; stroke-linecap: square"/>
   </g>
   <g id="patch_3">
    <path d="M 38.459 179.728 
L 38.459 8.64 
" style="fill: none; stroke: #c2c1c1; stroke-width: 0.8; stroke-linejoin: miter; stroke-linecap: square"/>
   </g>
   <g id="patch_4">
    <path d="M 241.1145 179.728 
L 241.1145 8.64 
" style="fill: none; stroke: #c2c1c1; stroke-width: 0.8; stroke-linejoin: miter; stroke-linecap: square"/>
   </g>
   <g id="patch_5">
    <path d="M 38.459 179.728 
L 241.1145 179.728 
" style="fill: none; stroke: #c2c1c1; stroke-width: 0.8; stroke-linejoin: miter; stroke-linecap: square"/>
   </g>
   <g id="patch_6">
    <path d="M 38.459 8.64 
L 241.1145 8.64 
" style="fill: none; stroke: #c2c1c1; stroke-width: 0.8; stroke-linejoin: miter; stroke-linecap: square"/>
   </g>
   <g id="line2d_17">
    <path d="M 38.459 179.728 
L 89.405913 179.690091 
L 91.104144 179.283127 
L 92.802374 176.911281 
L 94.500605 167.549587 
L 96.198835 148.987775 
L 97.897066 124.772341 
L 99.595296 105.082873 
L 101.293527 93.471036 
L 102.991757 92.99803 
L 104.689987 101.950447 
L 108.086448 123.010343 
L 109.784679 131.88498 
L 111.482909 139.730367 
L 113.18114 146.291972 
L 114.87937 150.898671 
L 116.577601 154.438661 
L 118.275831 156.381332 
L 119.974061 159.329185 
L 123.370522 161.782366 
L 125.068753 161.672604 
L 126.766983 163.289909 
L 128.465214 163.329303 
L 130.163444 163.733869 
L 131.861675 164.449729 
L 133.559905 164.21957 
L 135.258135 164.48037 
L 136.956366 165.000032 
L 138.654596 164.965863 
L 140.352827 165.645041 
L 142.051057 166.118412 
L 143.749288 167.073665 
L 145.447518 167.327179 
L 147.145749 167.139298 
L 148.843979 167.638652 
L 150.542209 168.98979 
L 152.24044 169.197122 
L 153.93867 170.205772 
L 155.636901 170.611634 
L 157.335131 171.345959 
L 159.033362 172.284668 
L 160.731592 172.948822 
L 165.826284 174.403612 
L 167.524514 174.802004 
L 169.222744 175.319459 
L 170.920975 176.049284 
L 176.015666 177.009339 
L 177.713897 177.22045 
L 179.412127 177.6485 
L 181.110358 177.83764 
L 182.808588 178.257049 
L 198.092662 178.982187 
L 201.489123 179.056011 
L 203.187353 179.166307 
L 204.885584 179.128177 
L 209.980275 179.374702 
L 218.471427 179.639426 
L 223.566119 179.684338 
L 233.755501 179.721638 
L 253 179.728 
L 253 179.728 
" clip-path="url(#pa77c5172ed)" style="fill: none; stroke: #1b998b; stroke-opacity: 0.6; stroke-width: 1.5; stroke-linecap: square"/>
   </g>
   <g id="legend_1">
    <g id="line2d_18">
     <path d="M 180.49075 19.04 
L 188.49075 19.04 
L 196.49075 19.04 
" style="fill: none; stroke: #1e2e79; stroke-width: 1.5; stroke-linecap: square"/>
    </g>
    <g id="text_16">
     <!-- Reduced -->
     <g transform="translate(202.89075 21.84) scale(0.08 -0.08)">
      <defs>
       <path id="Roboto-Regular-52" d="M 2197 1841 
L 1128 1841 
L 1128 0 
L 525 0 
L 525 4550 
L 2031 4550 
Q 2800 4550 3214 4200 
Q 3628 3850 3628 3181 
Q 3628 2756 3398 2440 
Q 3169 2125 2759 1969 
L 3828 38 
L 3828 0 
L 3184 0 
L 2197 1841 
z
M 1128 2331 
L 2050 2331 
Q 2497 2331 2761 2562 
Q 3025 2794 3025 3181 
Q 3025 3603 2773 3828 
Q 2522 4053 2047 4056 
L 1128 4056 
L 1128 2331 
z
" transform="scale(0.015625)"/>
       <path id="Roboto-Regular-65" d="M 1841 -63 
Q 1153 -63 722 389 
Q 291 841 291 1597 
L 291 1703 
Q 291 2206 483 2601 
Q 675 2997 1020 3220 
Q 1366 3444 1769 3444 
Q 2428 3444 2793 3009 
Q 3159 2575 3159 1766 
L 3159 1525 
L 869 1525 
Q 881 1025 1161 717 
Q 1441 409 1872 409 
Q 2178 409 2390 534 
Q 2603 659 2763 866 
L 3116 591 
Q 2691 -63 1841 -63 
z
M 1769 2969 
Q 1419 2969 1181 2714 
Q 944 2459 888 2000 
L 2581 2000 
L 2581 2044 
Q 2556 2484 2343 2726 
Q 2131 2969 1769 2969 
z
" transform="scale(0.015625)"/>
       <path id="Roboto-Regular-64" d="M 297 1719 
Q 297 2497 665 2970 
Q 1034 3444 1631 3444 
Q 2225 3444 2572 3038 
L 2572 4800 
L 3150 4800 
L 3150 0 
L 2619 0 
L 2591 363 
Q 2244 -63 1625 -63 
Q 1038 -63 667 418 
Q 297 900 297 1675 
L 297 1719 
z
M 875 1653 
Q 875 1078 1112 753 
Q 1350 428 1769 428 
Q 2319 428 2572 922 
L 2572 2475 
Q 2313 2953 1775 2953 
Q 1350 2953 1112 2625 
Q 875 2297 875 1653 
z
" transform="scale(0.015625)"/>
       <path id="Roboto-Regular-75" d="M 2525 334 
Q 2188 -63 1534 -63 
Q 994 -63 711 251 
Q 428 566 425 1181 
L 425 3381 
L 1003 3381 
L 1003 1197 
Q 1003 428 1628 428 
Q 2291 428 2509 922 
L 2509 3381 
L 3088 3381 
L 3088 0 
L 2538 0 
L 2525 334 
z
" transform="scale(0.015625)"/>
       <path id="Roboto-Regular-63" d="M 1794 409 
Q 2103 409 2334 596 
Q 2566 784 2591 1066 
L 3138 1066 
Q 3122 775 2937 512 
Q 2753 250 2445 93 
Q 2138 -63 1794 -63 
Q 1103 -63 695 398 
Q 288 859 288 1659 
L 288 1756 
Q 288 2250 469 2634 
Q 650 3019 989 3231 
Q 1328 3444 1791 3444 
Q 2359 3444 2736 3103 
Q 3113 2763 3138 2219 
L 2591 2219 
Q 2566 2547 2342 2758 
Q 2119 2969 1791 2969 
Q 1350 2969 1108 2651 
Q 866 2334 866 1734 
L 866 1625 
Q 866 1041 1106 725 
Q 1347 409 1794 409 
z
" transform="scale(0.015625)"/>
      </defs>
      <use xlink:href="#Roboto-Regular-52"/>
      <use xlink:href="#Roboto-Regular-65" x="61.572266"/>
      <use xlink:href="#Roboto-Regular-64" x="114.550781"/>
      <use xlink:href="#Roboto-Regular-75" x="170.947266"/>
      <use xlink:href="#Roboto-Regular-63" x="226.074219"/>
      <use xlink:href="#Roboto-Regular-65" x="278.417969"/>
      <use xlink:href="#Roboto-Regular-64" x="331.396484"/>
     </g>
    </g>
    <g id="line2d_19">
     <path d="M 180.49075 30.665 
L 188.49075 30.665 
L 196.49075 30.665 
" style="fill: none; stroke: #ec4067; stroke-width: 1.5; stroke-linecap: square"/>
    </g>
    <g id="text_17">
     <!-- Oxidized -->
     <g transform="translate(202.89075 33.465) scale(0.08 -0.08)">
      <defs>
       <path id="Roboto-Regular-4f" d="M 4028 2128 
Q 4028 1459 3803 961 
Q 3578 463 3165 200 
Q 2753 -63 2203 -63 
Q 1666 -63 1250 201 
Q 834 466 604 955 
Q 375 1444 369 2088 
L 369 2416 
Q 369 3072 597 3575 
Q 825 4078 1242 4345 
Q 1659 4613 2197 4613 
Q 2744 4613 3161 4348 
Q 3578 4084 3803 3582 
Q 4028 3081 4028 2416 
L 4028 2128 
z
M 3431 2422 
Q 3431 3231 3106 3664 
Q 2781 4097 2197 4097 
Q 1628 4097 1301 3664 
Q 975 3231 966 2463 
L 966 2128 
Q 966 1344 1295 895 
Q 1625 447 2203 447 
Q 2784 447 3103 870 
Q 3422 1294 3431 2084 
L 3431 2422 
z
" transform="scale(0.015625)"/>
       <path id="Roboto-Regular-78" d="M 1572 2147 
L 2322 3381 
L 2997 3381 
L 1891 1709 
L 3031 0 
L 2363 0 
L 1581 1266 
L 800 0 
L 128 0 
L 1269 1709 
L 163 3381 
L 831 3381 
L 1572 2147 
z
" transform="scale(0.015625)"/>
       <path id="Roboto-Regular-69" d="M 1066 0 
L 488 0 
L 488 3381 
L 1066 3381 
L 1066 0 
z
M 441 4278 
Q 441 4419 527 4516 
Q 613 4613 781 4613 
Q 950 4613 1037 4516 
Q 1125 4419 1125 4278 
Q 1125 4138 1037 4044 
Q 950 3950 781 3950 
Q 613 3950 527 4044 
Q 441 4138 441 4278 
z
" transform="scale(0.015625)"/>
       <path id="Roboto-Regular-7a" d="M 981 472 
L 2959 472 
L 2959 0 
L 275 0 
L 275 425 
L 2141 2903 
L 303 2903 
L 303 3381 
L 2866 3381 
L 2866 2972 
L 981 472 
z
" transform="scale(0.015625)"/>
      </defs>
      <use xlink:href="#Roboto-Regular-4f"/>
      <use xlink:href="#Roboto-Regular-78" x="68.75"/>
      <use xlink:href="#Roboto-Regular-69" x="118.310547"/>
      <use xlink:href="#Roboto-Regular-64" x="142.578125"/>
      <use xlink:href="#Roboto-Regular-69" x="198.974609"/>
      <use xlink:href="#Roboto-Regular-7a" x="223.242188"/>
      <use xlink:href="#Roboto-Regular-65" x="272.802734"/>
      <use xlink:href="#Roboto-Regular-64" x="325.78125"/>
     </g>
    </g>
    <g id="line2d_20">
     <path d="M 180.49075 42.7075 
L 188.49075 42.7075 
L 196.49075 42.7075 
" style="fill: none; stroke: #f99752; stroke-width: 1.5; stroke-linecap: square"/>
    </g>
    <g id="text_18">
     <!-- Cu(I) -->
     <g transform="translate(202.89075 45.5075) scale(0.08 -0.08)">
      <defs>
       <path id="Roboto-Regular-43" d="M 3875 1444 
Q 3791 722 3342 329 
Q 2894 -63 2150 -63 
Q 1344 -63 858 515 
Q 372 1094 372 2063 
L 372 2500 
Q 372 3134 598 3615 
Q 825 4097 1240 4355 
Q 1656 4613 2203 4613 
Q 2928 4613 3365 4208 
Q 3803 3803 3875 3088 
L 3272 3088 
Q 3194 3631 2933 3875 
Q 2672 4119 2203 4119 
Q 1628 4119 1301 3694 
Q 975 3269 975 2484 
L 975 2044 
Q 975 1303 1284 865 
Q 1594 428 2150 428 
Q 2650 428 2917 654 
Q 3184 881 3272 1444 
L 3875 1444 
z
" transform="scale(0.015625)"/>
       <path id="Roboto-Regular-28" d="M 416 1847 
Q 416 2553 605 3203 
Q 794 3853 1169 4384 
Q 1544 4916 1947 5134 
L 2066 4753 
Q 1609 4403 1317 3684 
Q 1025 2966 997 2075 
L 994 1809 
Q 994 603 1434 -284 
Q 1700 -816 2066 -1116 
L 1947 -1469 
Q 1531 -1238 1153 -694 
Q 416 369 416 1847 
z
" transform="scale(0.015625)"/>
       <path id="Roboto-Regular-49" d="M 1172 0 
L 572 0 
L 572 4550 
L 1172 4550 
L 1172 0 
z
" transform="scale(0.015625)"/>
       <path id="Roboto-Regular-29" d="M 1772 1816 
Q 1772 1119 1589 480 
Q 1406 -159 1029 -700 
Q 653 -1241 241 -1469 
L 119 -1116 
Q 600 -747 892 29 
Q 1184 806 1191 1753 
L 1191 1853 
Q 1191 2509 1053 3073 
Q 916 3638 670 4084 
Q 425 4531 119 4781 
L 241 5134 
Q 653 4906 1026 4372 
Q 1400 3838 1586 3194 
Q 1772 2550 1772 1816 
z
" transform="scale(0.015625)"/>
      </defs>
      <use xlink:href="#Roboto-Regular-43"/>
      <use xlink:href="#Roboto-Regular-75" x="65.087891"/>
      <use xlink:href="#Roboto-Regular-28" x="120.214844"/>
      <use xlink:href="#Roboto-Regular-49" x="154.394531"/>
      <use xlink:href="#Roboto-Regular-29" x="181.591797"/>
     </g>
    </g>
    <g id="line2d_21">
     <path d="M 180.49075 54.54375 
L 188.49075 54.54375 
L 196.49075 54.54375 
" style="fill: none; stroke: #1b998b; stroke-opacity: 0.6; stroke-width: 1.5; stroke-linecap: square"/>
    </g>
    <g id="text_19">
     <!-- Na$^+$ -->
     <g transform="translate(202.89075 57.34375) scale(0.08 -0.08)">
      <defs>
       <path id="Roboto-Regular-4e" d="M 4025 0 
L 3422 0 
L 1131 3506 
L 1131 0 
L 528 0 
L 528 4550 
L 1131 4550 
L 3428 1028 
L 3428 4550 
L 4025 4550 
L 4025 0 
z
" transform="scale(0.015625)"/>
       <path id="Roboto-Regular-61" d="M 2525 0 
Q 2475 100 2444 356 
Q 2041 -63 1481 -63 
Q 981 -63 661 220 
Q 341 503 341 938 
Q 341 1466 742 1758 
Q 1144 2050 1872 2050 
L 2434 2050 
L 2434 2316 
Q 2434 2619 2253 2798 
Q 2072 2978 1719 2978 
Q 1409 2978 1200 2822 
Q 991 2666 991 2444 
L 409 2444 
Q 409 2697 589 2933 
Q 769 3169 1076 3306 
Q 1384 3444 1753 3444 
Q 2338 3444 2669 3151 
Q 3000 2859 3013 2347 
L 3013 791 
Q 3013 325 3131 50 
L 3131 0 
L 2525 0 
z
M 1566 441 
Q 1838 441 2081 581 
Q 2325 722 2434 947 
L 2434 1641 
L 1981 1641 
Q 919 1641 919 1019 
Q 919 747 1100 594 
Q 1281 441 1566 441 
z
" transform="scale(0.015625)"/>
       <path id="DejaVuSans-2b" d="M 2944 4013 
L 2944 2272 
L 4684 2272 
L 4684 1741 
L 2944 1741 
L 2944 0 
L 2419 0 
L 2419 1741 
L 678 1741 
L 678 2272 
L 2419 2272 
L 2419 4013 
L 2944 4013 
z
" transform="scale(0.015625)"/>
      </defs>
      <use xlink:href="#Roboto-Regular-4e" transform="translate(0 0.826562)"/>
      <use xlink:href="#Roboto-Regular-61" transform="translate(71.289062 0.826562)"/>
      <use xlink:href="#DejaVuSans-2b" transform="translate(140.27832 39.107812) scale(0.7)"/>
     </g>
    </g>
   </g>
  </g>
 </g>
 <defs>
  <clipPath id="pa77c5172ed">
   <rect x="38.459" y="8.64" width="202.6555" height="171.088"/>
  </clipPath>
 </defs>
</svg>
