<?xml version="1.0" encoding="utf-8" standalone="no"?>
<!DOCTYPE svg PUBLIC "-//W3C//DTD SVG 1.1//EN"
  "http://www.w3.org/Graphics/SVG/1.1/DTD/svg11.dtd">
<svg xmlns:xlink="http://www.w3.org/1999/xlink" width="460.8pt" height="345.6pt" viewBox="0 0 460.8 345.6" xmlns="http://www.w3.org/2000/svg" version="1.1">
 <metadata>
  <rdf:RDF xmlns:dc="http://purl.org/dc/elements/1.1/" xmlns:cc="http://creativecommons.org/ns#" xmlns:rdf="http://www.w3.org/1999/02/22-rdf-syntax-ns#">
   <cc:Work>
    <dc:type rdf:resource="http://purl.org/dc/dcmitype/StillImage"/>
    <dc:date>2024-07-07T22:12:33.617885</dc:date>
    <dc:format>image/svg+xml</dc:format>
    <dc:creator>
     <cc:Agent>
      <dc:title>Matplotlib v3.8.4, https://matplotlib.org/</dc:title>
     </cc:Agent>
    </dc:creator>
   </cc:Work>
  </rdf:RDF>
 </metadata>
 <defs>
  <style type="text/css">*{stroke-linejoin: round; stroke-linecap: butt}</style>
 </defs>
 <g id="figure_1">
  <g id="patch_1">
   <path d="M 0 345.6 
L 460.8 345.6 
L 460.8 0 
L 0 0 
z
" style="fill: #ffffff"/>
  </g>
  <g id="axes_1">
   <g id="patch_2">
    <path d="M 47.387 298.672 
L 445.032 298.672 
L 445.032 16.74 
L 47.387 16.74 
z
" style="fill: #ffffff"/>
   </g>
   <g id="line2d_1">
    <path d="M 47.387 185.8992 
L 445.032 185.8992 
" clip-path="url(#p1bd49bee27)" style="fill: none; stroke-dasharray: 1.75,2.8875; stroke-dashoffset: 0; stroke: #c0c0c0; stroke-width: 1.75"/>
   </g>
   <g id="line2d_2">
    <path d="M 12.999497 -1 
L 14.323719 52.461605 
L 15.652154 94.522575 
L 16.980589 127.112202 
L 18.309025 153.377804 
L 19.63746 174.357957 
L 20.965896 191.947904 
L 22.294331 207.361325 
L 23.622767 221.005083 
L 24.951202 232.495032 
L 26.279637 241.690054 
L 27.608073 248.478554 
L 28.936508 253.833828 
L 30.264944 258.211462 
L 31.593379 261.52272 
L 32.921814 263.631587 
L 34.25025 264.424883 
L 35.578685 264.398245 
L 36.907121 263.982901 
L 38.235556 263.050652 
L 39.563991 261.017086 
L 43.549298 252.182437 
L 47.534604 242.56081 
L 48.863039 238.782707 
L 51.51991 230.015332 
L 52.848346 226.152133 
L 58.162087 208.358874 
L 59.490523 203.64924 
L 63.475829 191.307412 
L 64.804264 187.02205 
L 66.1327 183.531388 
L 67.461135 181.101115 
L 68.789571 178.309967 
L 70.118006 173.337321 
L 71.446441 167.581197 
L 72.774877 164.818715 
L 74.103312 163.314962 
L 75.431748 160.173672 
L 78.088618 151.431398 
L 79.417054 148.647159 
L 82.073925 143.674165 
L 83.40236 140.094105 
L 84.730795 136.130167 
L 86.059231 131.717498 
L 87.387666 128.028619 
L 90.044537 124.983851 
L 91.372973 121.612593 
L 92.701408 118.845839 
L 94.029843 116.656771 
L 95.358279 116.127454 
L 96.686714 118.863238 
L 98.01515 118.921636 
L 100.67202 110.837504 
L 103.328891 108.234478 
L 104.657327 107.460855 
L 105.985762 103.373311 
L 107.314197 96.828459 
L 108.642633 96.427726 
L 109.971068 102.094834 
L 111.299504 104.507471 
L 113.956375 97.160039 
L 115.28481 99.120922 
L 116.613245 102.492818 
L 117.941681 103.220693 
L 119.270116 101.380056 
L 121.926987 108.576543 
L 123.255422 104.889418 
L 124.583858 104.342943 
L 125.912293 111.720851 
L 127.240729 116.487203 
L 128.569164 115.766929 
L 129.897599 114.626344 
L 131.226035 114.271822 
L 132.55447 114.814078 
L 133.882906 116.411246 
L 135.211341 120.591375 
L 136.539777 126.65732 
L 137.868212 132.18261 
L 139.196647 134.141523 
L 140.525083 133.867393 
L 141.853518 136.844537 
L 143.181954 141.836387 
L 144.510389 146.18859 
L 145.838824 149.667537 
L 147.16726 150.555754 
L 148.495695 151.278483 
L 149.824131 154.322955 
L 151.152566 156.607716 
L 152.481001 158.205545 
L 153.809437 162.175163 
L 155.137872 164.780913 
L 156.466308 165.260345 
L 157.794743 167.017371 
L 159.123179 168.987063 
L 160.451614 169.822051 
L 161.780049 170.816912 
L 163.108485 172.109012 
L 164.43692 174.390923 
L 165.765356 175.509791 
L 167.093791 175.541778 
L 168.422226 176.055587 
L 169.750662 177.138754 
L 171.079097 178.638263 
L 172.407533 178.838259 
L 173.735968 178.296367 
L 176.392839 180.114782 
L 177.721274 180.118362 
L 179.04971 180.466544 
L 180.378145 179.619788 
L 181.706581 179.342464 
L 183.035016 180.285103 
L 184.363451 181.693396 
L 185.691887 182.461966 
L 187.020322 182.158426 
L 188.348758 182.195086 
L 191.005628 185.726914 
L 192.334064 187.043451 
L 196.31937 191.580895 
L 197.647805 192.287947 
L 198.976241 192.695073 
L 200.304676 193.258938 
L 201.633112 193.528077 
L 202.961547 194.856479 
L 204.289983 196.732869 
L 205.618418 197.924488 
L 206.946853 198.74354 
L 208.275289 199.247272 
L 210.93216 199.730932 
L 212.260595 199.793864 
L 213.58903 199.476107 
L 216.245901 198.214111 
L 217.574337 198.012454 
L 218.902772 198.224831 
L 220.231207 198.647736 
L 221.559643 198.346587 
L 222.888078 197.757801 
L 224.216514 196.392168 
L 225.544949 194.382453 
L 226.873385 193.508382 
L 228.20182 193.525468 
L 229.530255 192.921747 
L 230.858691 191.815925 
L 232.187126 191.37783 
L 233.515562 190.347134 
L 236.172432 185.964339 
L 237.500868 185.062418 
L 238.829303 185.219905 
L 240.157739 184.554019 
L 241.486174 183.165271 
L 242.81461 181.524297 
L 244.143045 178.814097 
L 245.47148 176.382698 
L 246.799916 176.105183 
L 248.128351 176.66381 
L 249.456787 176.45939 
L 252.113657 173.556449 
L 253.442093 173.167777 
L 254.770528 173.114789 
L 256.098964 172.502948 
L 257.427399 170.67323 
L 258.755834 168.120228 
L 260.08427 166.828421 
L 261.412705 166.956443 
L 262.741141 166.869117 
L 264.069576 166.574707 
L 265.398012 165.566748 
L 266.726447 164.046612 
L 268.054882 163.497463 
L 269.383318 163.084442 
L 270.711753 162.279451 
L 272.040189 161.976735 
L 273.368624 162.095572 
L 276.025495 159.191739 
L 277.35393 158.11465 
L 278.682366 156.772138 
L 280.010801 155.003735 
L 281.339236 154.255521 
L 282.667672 154.330344 
L 283.996107 155.03865 
L 285.324543 155.376456 
L 286.652978 156.315663 
L 287.981414 157.45948 
L 289.309849 157.564055 
L 290.638284 156.199272 
L 291.96672 154.103754 
L 293.295155 154.583929 
L 294.623591 156.47134 
L 295.952026 156.707017 
L 297.280461 155.461828 
L 298.608897 154.374613 
L 299.937332 153.979794 
L 301.265768 154.747311 
L 302.594203 156.530261 
L 303.922638 157.760383 
L 305.251074 157.584493 
L 306.579509 157.683389 
L 307.907945 159.070468 
L 309.23638 159.307964 
L 313.221686 154.865794 
L 314.550122 155.316014 
L 315.878557 156.008495 
L 317.206993 155.863274 
L 318.535428 156.117322 
L 319.863863 155.873414 
L 321.192299 154.325724 
L 322.520734 153.065656 
L 323.84917 152.956741 
L 325.177605 153.619603 
L 326.50604 153.378869 
L 327.834476 153.322835 
L 329.162911 152.947061 
L 330.491347 151.071847 
L 331.819782 151.284918 
L 333.148218 151.72438 
L 334.476653 151.62142 
L 335.805088 150.556176 
L 337.133524 149.698973 
L 338.461959 150.087207 
L 339.790395 149.875324 
L 341.11883 149.071406 
L 342.447265 147.843685 
L 345.104136 148.363555 
L 346.432572 147.766451 
L 347.761007 147.333665 
L 349.089442 145.642663 
L 350.417878 142.095877 
L 351.746313 140.386213 
L 353.074749 142.881442 
L 354.403184 143.627889 
L 355.73162 141.181458 
L 357.060055 140.003872 
L 358.38849 141.699608 
L 359.716926 140.404662 
L 361.045361 136.171118 
L 362.373797 134.234892 
L 363.702232 134.364489 
L 365.030667 134.775882 
L 367.687538 132.502025 
L 369.015974 132.196199 
L 370.344409 132.358005 
L 373.00128 130.644526 
L 374.329715 131.727515 
L 375.658151 132.114854 
L 378.315022 131.626737 
L 379.643457 130.755764 
L 380.971892 131.717928 
L 382.300328 134.010798 
L 383.628763 134.313215 
L 384.957199 133.781821 
L 386.285634 133.903666 
L 387.614069 132.280667 
L 388.942505 130.25899 
L 391.599376 132.647333 
L 392.927811 132.381634 
L 394.256246 135.16231 
L 395.584682 137.44076 
L 396.913117 136.676821 
L 398.241553 135.274514 
L 399.569988 136.023175 
L 400.898424 137.913558 
L 403.555294 140.793342 
L 404.88373 141.947332 
L 407.540601 141.877581 
L 408.869036 142.459793 
L 410.197471 142.135788 
L 411.525907 143.288984 
L 412.854342 147.016023 
L 414.182778 148.537476 
L 415.511213 148.436046 
L 416.839648 148.098622 
L 418.168084 148.834725 
L 419.496519 150.22807 
L 420.824955 150.458884 
L 422.15339 148.682036 
L 423.481826 147.610278 
L 426.138696 151.255813 
L 427.467132 152.260444 
L 428.795567 151.02818 
L 430.124003 149.5763 
L 431.452438 150.817867 
L 432.780873 151.538675 
L 434.109309 151.71664 
L 435.437744 153.055839 
L 436.76618 152.062502 
L 438.094615 150.050125 
L 439.42305 150.31762 
L 440.751486 150.823654 
L 442.079921 150.117871 
L 443.408357 148.771801 
L 444.736792 147.603323 
L 446.065228 146.165049 
L 447.393663 145.131409 
L 448.722098 145.740969 
L 450.050534 147.259045 
L 451.378969 148.435551 
L 452.707405 148.128514 
L 454.03584 146.012145 
L 455.364275 145.141479 
L 456.692711 145.239964 
L 458.021146 144.959818 
L 459.349582 145.231196 
L 460.678017 142.775848 
L 461.8 141.596428 
L 461.8 141.596428 
" clip-path="url(#p1bd49bee27)" style="fill: none; stroke: #1e2e79; stroke-width: 2.5; stroke-linecap: square"/>
   </g>
   <g id="line2d_3">
    <path d="M 13.266872 -1 
L 14.323719 35.997751 
L 15.652154 72.098093 
L 16.980589 103.639304 
L 18.309025 130.55657 
L 19.63746 151.426561 
L 22.294331 188.5502 
L 23.622767 204.474415 
L 24.951202 218.051885 
L 26.279637 229.888892 
L 27.608073 239.752699 
L 28.936508 247.190459 
L 30.264944 253.118059 
L 31.593379 258.395098 
L 32.921814 262.66828 
L 34.25025 265.500105 
L 35.578685 267.046715 
L 36.907121 267.784491 
L 38.235556 268.241777 
L 39.563991 268.155649 
L 40.892427 267.376181 
L 42.220862 266.166763 
L 43.549298 264.527547 
L 46.206169 259.928325 
L 47.534604 257.530698 
L 48.863039 254.709887 
L 51.51991 247.721806 
L 54.176781 240.57218 
L 56.833652 233.922728 
L 60.818958 222.448809 
L 62.147393 219.57169 
L 67.461135 206.356905 
L 70.118006 198.618411 
L 72.774877 191.909688 
L 75.431748 185.774169 
L 76.760183 183.447832 
L 78.088618 181.516661 
L 79.417054 178.205885 
L 80.745489 173.11596 
L 82.073925 167.534646 
L 83.40236 163.856117 
L 84.730795 161.139487 
L 86.059231 158.86949 
L 87.387666 158.628613 
L 88.716102 157.749137 
L 90.044537 154.311636 
L 91.372973 149.34514 
L 92.701408 146.375911 
L 94.029843 145.413181 
L 95.358279 144.182663 
L 96.686714 143.877747 
L 98.01515 144.441748 
L 99.343585 140.582214 
L 100.67202 134.372989 
L 102.000456 131.605808 
L 103.328891 130.818089 
L 104.657327 129.228048 
L 107.314197 124.370215 
L 108.642633 123.565041 
L 109.971068 123.497904 
L 111.299504 121.689802 
L 113.956375 114.30446 
L 115.28481 112.354583 
L 116.613245 111.431983 
L 119.270116 107.527928 
L 120.598552 107.083083 
L 121.926987 104.571973 
L 123.255422 102.414505 
L 124.583858 103.85623 
L 125.912293 103.977606 
L 127.240729 101.077763 
L 128.569164 96.294558 
L 129.897599 91.077029 
L 131.226035 88.199114 
L 132.55447 85.781316 
L 133.882906 82.354014 
L 135.211341 80.118498 
L 136.539777 82.2328 
L 137.868212 85.652315 
L 139.196647 87.222726 
L 140.525083 88.055537 
L 143.181954 89.182439 
L 144.510389 92.164515 
L 145.838824 94.345633 
L 147.16726 90.572873 
L 148.495695 86.043609 
L 149.824131 84.45524 
L 151.152566 86.243613 
L 152.481001 90.702337 
L 153.809437 90.685111 
L 155.137872 90.860411 
L 157.794743 98.42031 
L 159.123179 98.374539 
L 160.451614 94.645257 
L 161.780049 94.624359 
L 163.108485 96.214558 
L 164.43692 96.099242 
L 165.765356 95.511339 
L 167.093791 97.831001 
L 168.422226 105.123603 
L 169.750662 110.276901 
L 171.079097 109.642926 
L 173.735968 100.781636 
L 176.392839 89.833171 
L 177.721274 90.806535 
L 179.04971 94.48088 
L 180.378145 95.916283 
L 181.706581 98.939766 
L 183.035016 101.538168 
L 184.363451 103.42382 
L 185.691887 104.661201 
L 187.020322 103.216467 
L 188.348758 104.7053 
L 189.677193 109.516257 
L 191.005628 112.168913 
L 192.334064 112.464926 
L 193.662499 114.513996 
L 194.990935 118.804749 
L 196.31937 120.459221 
L 197.647805 117.106455 
L 198.976241 112.543684 
L 200.304676 113.77124 
L 201.633112 119.341726 
L 202.961547 122.710673 
L 204.289983 124.132831 
L 205.618418 126.590325 
L 206.946853 130.523239 
L 208.275289 133.624013 
L 209.603724 135.801318 
L 210.93216 138.501197 
L 212.260595 141.522011 
L 213.58903 145.058035 
L 214.917466 148.090125 
L 216.245901 148.944587 
L 217.574337 149.464478 
L 218.902772 152.690474 
L 221.559643 159.934784 
L 222.888078 163.03004 
L 225.544949 166.975662 
L 226.873385 169.408121 
L 228.20182 172.632886 
L 229.530255 175.431904 
L 234.843997 183.16761 
L 236.172432 185.738359 
L 237.500868 187.965394 
L 240.157739 191.041924 
L 241.486174 191.921924 
L 242.81461 192.980885 
L 245.47148 196.990981 
L 246.799916 197.820877 
L 248.128351 198.035042 
L 249.456787 198.781176 
L 250.785222 200.075962 
L 253.442093 203.190251 
L 254.770528 203.877788 
L 256.098964 203.878734 
L 257.427399 204.008008 
L 258.755834 204.386411 
L 261.412705 205.601316 
L 262.741141 205.680243 
L 265.398012 206.277398 
L 266.726447 205.777834 
L 268.054882 204.903535 
L 270.711753 203.628154 
L 272.040189 203.552673 
L 273.368624 203.669915 
L 276.025495 201.625027 
L 277.35393 202.097512 
L 278.682366 202.345275 
L 280.010801 201.410737 
L 283.996107 196.993524 
L 285.324543 195.919668 
L 286.652978 195.107041 
L 287.981414 194.037273 
L 290.638284 191.109302 
L 291.96672 189.368758 
L 293.295155 188.022594 
L 294.623591 186.945916 
L 295.952026 185.076503 
L 297.280461 183.400733 
L 298.608897 182.301013 
L 299.937332 180.168745 
L 301.265768 177.417275 
L 302.594203 175.671522 
L 303.922638 174.59449 
L 305.251074 174.195451 
L 306.579509 173.624834 
L 309.23638 169.751903 
L 310.564816 168.050529 
L 311.893251 166.030472 
L 314.550122 161.48981 
L 315.878557 160.677966 
L 317.206993 160.534712 
L 318.535428 158.72506 
L 319.863863 154.877013 
L 321.192299 152.39094 
L 322.520734 152.486858 
L 323.84917 153.501116 
L 325.177605 153.219215 
L 326.50604 151.571634 
L 329.162911 149.005917 
L 330.491347 148.375355 
L 331.819782 148.006428 
L 333.148218 146.16616 
L 334.476653 144.738789 
L 335.805088 143.551367 
L 337.133524 141.140795 
L 338.461959 140.411781 
L 339.790395 140.436726 
L 341.11883 140.083384 
L 342.447265 139.391486 
L 345.104136 136.813999 
L 347.761007 132.460193 
L 349.089442 131.962156 
L 350.417878 133.551789 
L 351.746313 135.970116 
L 353.074749 134.325032 
L 354.403184 129.456979 
L 355.73162 125.305227 
L 358.38849 120.010722 
L 359.716926 119.869202 
L 361.045361 120.71113 
L 363.702232 117.687203 
L 365.030667 117.427151 
L 366.359103 119.319899 
L 367.687538 122.615444 
L 369.015974 124.964867 
L 370.344409 125.387599 
L 371.672844 123.880407 
L 373.00128 120.543677 
L 374.329715 114.970131 
L 375.658151 112.090783 
L 376.986586 115.923011 
L 378.315022 118.367073 
L 379.643457 116.821571 
L 380.971892 114.325494 
L 383.628763 108.215444 
L 384.957199 108.605655 
L 386.285634 111.193865 
L 387.614069 111.717694 
L 388.942505 108.669198 
L 390.27094 103.656665 
L 391.599376 95.718934 
L 392.927811 93.018362 
L 394.256246 97.858932 
L 395.584682 100.402704 
L 396.913117 102.42823 
L 398.241553 101.544598 
L 399.569988 96.518354 
L 400.898424 94.113196 
L 402.226859 94.57586 
L 403.555294 96.516834 
L 404.88373 97.775702 
L 406.212165 95.898154 
L 407.540601 89.774382 
L 408.869036 87.415823 
L 410.197471 92.578711 
L 411.525907 95.211782 
L 412.854342 93.524264 
L 414.182778 90.681756 
L 415.511213 88.624717 
L 416.839648 85.469071 
L 418.168084 84.038808 
L 419.496519 85.40117 
L 420.824955 84.726727 
L 422.15339 83.601397 
L 423.481826 83.639646 
L 424.810261 84.709668 
L 426.138696 87.29389 
L 427.467132 85.696117 
L 428.795567 80.718787 
L 430.124003 77.032715 
L 431.452438 79.095877 
L 432.780873 83.579509 
L 434.109309 85.663956 
L 435.437744 87.292309 
L 436.76618 85.376144 
L 438.094615 78.624358 
L 439.42305 75.735024 
L 440.751486 78.83782 
L 442.079921 82.695998 
L 443.408357 80.621405 
L 444.736792 75.90827 
L 446.065228 77.704473 
L 447.393663 79.288798 
L 448.722098 75.663179 
L 450.050534 73.634573 
L 451.378969 73.712001 
L 452.707405 71.883719 
L 454.03584 72.157799 
L 455.364275 69.373789 
L 456.692711 60.741927 
L 458.021146 54.228502 
L 459.349582 49.881492 
L 460.678017 49.240618 
L 461.8 49.726104 
L 461.8 49.726104 
" clip-path="url(#p1bd49bee27)" style="fill: none; stroke: #ec4067; stroke-width: 2.5; stroke-linecap: square"/>
   </g>
   <g id="matplotlib.axis_1">
    <g id="xtick_1">
     <g id="line2d_4">
      <defs>
       <path id="medfbfaeb08" d="M 0 0 
L 0 3.5 
" style="stroke: #c2c1c1; stroke-width: 0.8"/>
      </defs>
      <g>
       <use xlink:href="#medfbfaeb08" x="47.387" y="298.672" style="fill: #c2c1c1; stroke: #c2c1c1; stroke-width: 0.8"/>
      </g>
     </g>
     <g id="text_1">
      <!-- 2 -->
      <g style="fill: #191919" transform="translate(44.576844 313.172) scale(0.1 -0.1)">
       <defs>
        <path id="Roboto-Regular-32" d="M 3359 475 
L 3359 0 
L 381 0 
L 381 416 
L 1925 2134 
Q 2306 2566 2439 2819 
Q 2572 3072 2572 3328 
Q 2572 3663 2364 3900 
Q 2156 4138 1778 4138 
Q 1322 4138 1097 3878 
Q 872 3619 872 3213 
L 294 3213 
Q 294 3788 672 4200 
Q 1050 4613 1778 4613 
Q 2422 4613 2786 4278 
Q 3150 3944 3150 3397 
Q 3150 2997 2903 2592 
Q 2656 2188 2297 1797 
L 1078 475 
L 3359 475 
z
" transform="scale(0.015625)"/>
       </defs>
       <use xlink:href="#Roboto-Regular-32"/>
      </g>
     </g>
    </g>
    <g id="xtick_2">
     <g id="line2d_5">
      <g>
       <use xlink:href="#medfbfaeb08" x="113.661167" y="298.672" style="fill: #c2c1c1; stroke: #c2c1c1; stroke-width: 0.8"/>
      </g>
     </g>
     <g id="text_2">
      <!-- 3 -->
      <g style="fill: #191919" transform="translate(110.85101 313.172) scale(0.1 -0.1)">
       <defs>
        <path id="Roboto-Regular-33" d="M 1222 2084 
L 1222 2559 
L 1647 2559 
Q 2094 2563 2312 2784 
Q 2531 3006 2531 3338 
Q 2531 4138 1738 4138 
Q 1369 4138 1141 3927 
Q 913 3716 913 3359 
L 334 3359 
Q 334 3881 720 4247 
Q 1106 4613 1738 4613 
Q 2353 4613 2733 4286 
Q 3113 3959 3113 3325 
Q 3113 3072 2942 2784 
Q 2772 2497 2397 2338 
Q 2850 2191 3015 1884 
Q 3181 1578 3181 1269 
Q 3181 631 2768 284 
Q 2356 -63 1741 -63 
Q 1147 -63 722 267 
Q 297 597 297 1203 
L 875 1203 
Q 875 844 1108 628 
Q 1341 413 1741 413 
Q 2138 413 2369 622 
Q 2600 831 2600 1256 
Q 2600 1681 2337 1882 
Q 2075 2084 1634 2084 
L 1222 2084 
z
" transform="scale(0.015625)"/>
       </defs>
       <use xlink:href="#Roboto-Regular-33"/>
      </g>
     </g>
    </g>
    <g id="xtick_3">
     <g id="line2d_6">
      <g>
       <use xlink:href="#medfbfaeb08" x="179.935333" y="298.672" style="fill: #c2c1c1; stroke: #c2c1c1; stroke-width: 0.8"/>
      </g>
     </g>
     <g id="text_3">
      <!-- 4 -->
      <g style="fill: #191919" transform="translate(177.125177 313.172) scale(0.1 -0.1)">
       <defs>
        <path id="Roboto-Regular-34" d="M 166 1397 
L 2203 4550 
L 2819 4550 
L 2819 1531 
L 3453 1531 
L 3453 1056 
L 2819 1056 
L 2819 0 
L 2241 0 
L 2241 1056 
L 166 1056 
L 166 1397 
z
M 822 1531 
L 2241 1531 
L 2241 3766 
L 2169 3638 
L 822 1531 
z
" transform="scale(0.015625)"/>
       </defs>
       <use xlink:href="#Roboto-Regular-34"/>
      </g>
     </g>
    </g>
    <g id="xtick_4">
     <g id="line2d_7">
      <g>
       <use xlink:href="#medfbfaeb08" x="246.2095" y="298.672" style="fill: #c2c1c1; stroke: #c2c1c1; stroke-width: 0.8"/>
      </g>
     </g>
     <g id="text_4">
      <!-- 5 -->
      <g style="fill: #191919" transform="translate(243.399344 313.172) scale(0.1 -0.1)">
       <defs>
        <path id="Roboto-Regular-35" d="M 1109 2166 
L 647 2284 
L 875 4550 
L 3209 4550 
L 3209 4016 
L 1366 4016 
L 1228 2778 
Q 1572 2975 1988 2975 
Q 2616 2975 2980 2561 
Q 3344 2147 3344 1450 
Q 3344 797 2987 367 
Q 2631 -63 1903 -63 
Q 1350 -63 947 248 
Q 544 559 481 1197 
L 1031 1197 
Q 1141 413 1903 413 
Q 2313 413 2538 691 
Q 2763 969 2763 1444 
Q 2763 1872 2527 2164 
Q 2291 2456 1853 2456 
Q 1563 2456 1413 2378 
Q 1263 2300 1109 2166 
z
" transform="scale(0.015625)"/>
       </defs>
       <use xlink:href="#Roboto-Regular-35"/>
      </g>
     </g>
    </g>
    <g id="xtick_5">
     <g id="line2d_8">
      <g>
       <use xlink:href="#medfbfaeb08" x="312.483667" y="298.672" style="fill: #c2c1c1; stroke: #c2c1c1; stroke-width: 0.8"/>
      </g>
     </g>
     <g id="text_5">
      <!-- 6 -->
      <g style="fill: #191919" transform="translate(309.67351 313.172) scale(0.1 -0.1)">
       <defs>
        <path id="Roboto-Regular-36" d="M 3291 1484 
Q 3291 838 2930 387 
Q 2569 -63 1878 -63 
Q 1388 -63 1063 198 
Q 738 459 577 861 
Q 416 1263 416 1684 
L 416 1956 
Q 416 2597 595 3194 
Q 775 3791 1247 4173 
Q 1719 4556 2597 4556 
L 2647 4556 
L 2647 4066 
Q 2041 4066 1705 3853 
Q 1369 3641 1205 3302 
Q 1041 2963 1006 2575 
Q 1369 2984 1984 2984 
Q 2438 2984 2727 2765 
Q 3016 2547 3153 2201 
Q 3291 1856 3291 1484 
z
M 997 1666 
Q 997 1059 1267 737 
Q 1538 416 1878 416 
Q 2278 416 2498 708 
Q 2719 1000 2719 1456 
Q 2719 1863 2516 2184 
Q 2313 2506 1891 2506 
Q 1588 2506 1341 2325 
Q 1094 2144 997 1884 
L 997 1666 
z
" transform="scale(0.015625)"/>
       </defs>
       <use xlink:href="#Roboto-Regular-36"/>
      </g>
     </g>
    </g>
    <g id="xtick_6">
     <g id="line2d_9">
      <g>
       <use xlink:href="#medfbfaeb08" x="378.757833" y="298.672" style="fill: #c2c1c1; stroke: #c2c1c1; stroke-width: 0.8"/>
      </g>
     </g>
     <g id="text_6">
      <!-- 7 -->
      <g style="fill: #191919" transform="translate(375.947677 313.172) scale(0.1 -0.1)">
       <defs>
        <path id="Roboto-Regular-37" d="M 3319 4550 
L 3319 4225 
L 1434 0 
L 825 0 
L 2706 4075 
L 244 4075 
L 244 4550 
L 3319 4550 
z
" transform="scale(0.015625)"/>
       </defs>
       <use xlink:href="#Roboto-Regular-37"/>
      </g>
     </g>
    </g>
    <g id="xtick_7">
     <g id="line2d_10">
      <g>
       <use xlink:href="#medfbfaeb08" x="445.032" y="298.672" style="fill: #c2c1c1; stroke: #c2c1c1; stroke-width: 0.8"/>
      </g>
     </g>
     <g id="text_7">
      <!-- 8 -->
      <g style="fill: #191919" transform="translate(442.221844 313.172) scale(0.1 -0.1)">
       <defs>
        <path id="Roboto-Regular-38" d="M 3244 1231 
Q 3244 606 2826 271 
Q 2409 -63 1796 -63 
Q 1184 -63 767 271 
Q 350 606 350 1231 
Q 350 1613 554 1905 
Q 759 2197 1109 2347 
Q 806 2494 629 2762 
Q 453 3031 453 3366 
Q 453 3963 833 4288 
Q 1213 4613 1794 4613 
Q 2378 4613 2758 4288 
Q 3138 3963 3138 3366 
Q 3138 3028 2956 2761 
Q 2775 2494 2472 2347 
Q 2825 2197 3034 1903 
Q 3244 1609 3244 1231 
z
M 2559 3356 
Q 2559 3697 2346 3917 
Q 2134 4138 1793 4138 
Q 1453 4138 1243 3927 
Q 1034 3716 1034 3356 
Q 1034 3003 1243 2790 
Q 1453 2578 1797 2578 
Q 2138 2578 2348 2790 
Q 2559 3003 2559 3356 
z
M 2663 1244 
Q 2663 1625 2420 1865 
Q 2178 2106 1791 2106 
Q 1394 2106 1161 1865 
Q 928 1625 928 1244 
Q 928 850 1161 631 
Q 1394 413 1797 413 
Q 2200 413 2431 631 
Q 2663 850 2663 1244 
z
" transform="scale(0.015625)"/>
       </defs>
       <use xlink:href="#Roboto-Regular-38"/>
      </g>
     </g>
    </g>
    <g id="text_8">
     <!-- SER205 HG - H2O O Distance [Å] -->
     <g style="fill: #191919" transform="translate(157.6945 330.102625) scale(0.12 -0.12)">
      <defs>
       <path id="Roboto-Black-53" d="M 2691 1209 
Q 2691 1425 2542 1565 
Q 2394 1706 1891 1873 
Q 1388 2041 1045 2239 
Q 703 2438 520 2700 
Q 338 2963 338 3334 
Q 338 3919 834 4266 
Q 1331 4613 2088 4613 
Q 2834 4613 3311 4228 
Q 3788 3844 3788 3200 
L 2697 3200 
Q 2697 3456 2539 3620 
Q 2381 3784 2063 3784 
Q 1750 3784 1590 3648 
Q 1431 3513 1431 3325 
Q 1431 3122 1653 2983 
Q 1875 2844 2266 2719 
Q 2991 2488 3389 2139 
Q 3788 1791 3788 1216 
Q 3788 600 3328 268 
Q 2869 -63 2106 -63 
Q 1638 -63 1200 96 
Q 763 256 481 597 
Q 200 938 200 1475 
L 1300 1475 
Q 1300 1075 1509 919 
Q 1719 763 2106 763 
Q 2419 763 2555 894 
Q 2691 1025 2691 1209 
z
" transform="scale(0.015625)"/>
       <path id="Roboto-Black-45" d="M 347 0 
L 347 4550 
L 3488 4550 
L 3488 3703 
L 1444 3703 
L 1444 2744 
L 3166 2744 
L 3166 1928 
L 1444 1928 
L 1444 844 
L 3478 844 
L 3478 0 
L 347 0 
z
" transform="scale(0.015625)"/>
       <path id="Roboto-Black-52" d="M 2838 0 
L 2034 1606 
L 1444 1606 
L 1444 0 
L 347 0 
L 347 4550 
L 2138 4550 
Q 2925 4550 3392 4198 
Q 3859 3847 3859 3175 
Q 3859 2650 3642 2350 
Q 3425 2050 3066 1881 
L 4013 47 
L 4013 0 
L 2838 0 
z
M 1444 3703 
L 1444 2453 
L 2138 2453 
Q 2763 2453 2763 3075 
Q 2763 3694 2156 3703 
L 1444 3703 
z
" transform="scale(0.015625)"/>
       <path id="Roboto-Black-32" d="M 3456 813 
L 3456 0 
L 281 0 
L 281 688 
L 1744 2225 
Q 2284 2847 2284 3203 
Q 2284 3803 1784 3803 
Q 1538 3803 1391 3598 
Q 1244 3394 1244 3088 
L 188 3088 
Q 188 3716 636 4166 
Q 1084 4616 1809 4616 
Q 2563 4616 2952 4267 
Q 3341 3919 3341 3297 
Q 3341 2822 3052 2409 
Q 2763 1997 2250 1491 
L 1663 813 
L 3456 813 
z
" transform="scale(0.015625)"/>
       <path id="Roboto-Black-30" d="M 3441 1859 
Q 3441 875 3000 406 
Q 2559 -63 1859 -63 
Q 1156 -63 712 406 
Q 269 875 269 1859 
L 269 2691 
Q 269 3675 709 4144 
Q 1150 4613 1853 4613 
Q 2553 4613 2997 4144 
Q 3441 3675 3441 2691 
L 3441 1859 
z
M 2388 2825 
Q 2388 3369 2244 3584 
Q 2100 3800 1853 3800 
Q 1609 3800 1467 3589 
Q 1325 3378 1322 2850 
L 1322 1731 
Q 1322 1178 1465 964 
Q 1609 750 1859 750 
Q 2100 750 2242 959 
Q 2384 1169 2388 1706 
L 2388 2825 
z
" transform="scale(0.015625)"/>
       <path id="Roboto-Black-35" d="M 1178 2028 
L 341 2225 
L 616 4550 
L 3275 4550 
L 3275 3731 
L 1475 3731 
L 1372 2828 
Q 1447 2872 1626 2933 
Q 1806 2994 2025 2994 
Q 2700 2994 3065 2595 
Q 3431 2197 3431 1466 
Q 3431 1075 3261 725 
Q 3091 375 2741 156 
Q 2391 -63 1850 -63 
Q 1447 -63 1078 101 
Q 709 266 478 570 
Q 247 875 250 1294 
L 1309 1294 
Q 1322 1044 1467 897 
Q 1613 750 1844 750 
Q 2159 750 2267 984 
Q 2375 1219 2375 1538 
Q 2375 1872 2223 2069 
Q 2072 2266 1728 2266 
Q 1497 2266 1367 2186 
Q 1238 2106 1178 2028 
z
" transform="scale(0.015625)"/>
       <path id="Roboto-Black-20" transform="scale(0.015625)"/>
       <path id="Roboto-Black-48" d="M 3056 0 
L 3056 1900 
L 1444 1900 
L 1444 0 
L 347 0 
L 347 4550 
L 1444 4550 
L 1444 2744 
L 3056 2744 
L 3056 4550 
L 4150 4550 
L 4150 0 
L 3056 0 
z
" transform="scale(0.015625)"/>
       <path id="Roboto-Black-47" d="M 4069 2431 
L 4069 563 
Q 3894 369 3444 153 
Q 2994 -63 2259 -63 
Q 1353 -63 804 510 
Q 256 1084 256 2147 
L 256 2400 
Q 256 3463 803 4039 
Q 1350 4616 2200 4616 
Q 3141 4616 3569 4181 
Q 3997 3747 4066 3066 
L 3013 3066 
Q 2963 3403 2791 3587 
Q 2619 3772 2238 3772 
Q 1844 3772 1609 3437 
Q 1375 3103 1372 2425 
L 1372 2147 
Q 1372 1463 1614 1122 
Q 1856 781 2338 781 
Q 2763 781 2972 972 
L 2972 1678 
L 2209 1678 
L 2209 2431 
L 4069 2431 
z
" transform="scale(0.015625)"/>
       <path id="Roboto-Black-2d" d="M 2353 2369 
L 2353 1553 
L 475 1553 
L 475 2369 
L 2353 2369 
z
" transform="scale(0.015625)"/>
       <path id="Roboto-Black-4f" d="M 4197 2181 
Q 4197 1138 3640 537 
Q 3084 -63 2213 -63 
Q 1334 -63 776 537 
Q 219 1138 219 2181 
L 219 2366 
Q 219 3409 773 4011 
Q 1328 4613 2206 4613 
Q 3078 4613 3637 4011 
Q 4197 3409 4197 2366 
L 4197 2181 
z
M 3084 2372 
Q 3084 3059 2865 3406 
Q 2647 3753 2206 3753 
Q 1388 3753 1338 2534 
L 1334 2181 
Q 1334 1513 1554 1153 
Q 1775 794 2213 794 
Q 2628 794 2854 1148 
Q 3081 1503 3084 2163 
L 3084 2372 
z
" transform="scale(0.015625)"/>
       <path id="Roboto-Black-44" d="M 347 0 
L 347 4550 
L 1809 4550 
Q 2425 4550 2901 4273 
Q 3378 3997 3648 3505 
Q 3919 3013 3919 2369 
L 3919 2178 
Q 3919 1219 3333 611 
Q 2747 3 1831 0 
L 347 0 
z
M 1444 3703 
L 1444 844 
L 1825 844 
Q 2744 844 2797 2028 
L 2800 2375 
Q 2800 3675 1850 3703 
L 1444 3703 
z
" transform="scale(0.015625)"/>
       <path id="Roboto-Black-69" d="M 291 4253 
Q 291 4478 453 4622 
Q 616 4766 875 4766 
Q 1134 4766 1296 4622 
Q 1459 4478 1459 4253 
Q 1459 4028 1296 3884 
Q 1134 3741 875 3741 
Q 616 3741 453 3884 
Q 291 4028 291 4253 
z
M 1409 3381 
L 1409 0 
L 353 0 
L 353 3381 
L 1409 3381 
z
" transform="scale(0.015625)"/>
       <path id="Roboto-Black-73" d="M 2069 950 
Q 2069 1084 1920 1167 
Q 1772 1250 1391 1334 
Q 897 1444 556 1689 
Q 216 1934 216 2375 
Q 216 2803 580 3123 
Q 944 3444 1609 3444 
Q 2291 3444 2689 3137 
Q 3088 2831 3088 2344 
L 2034 2344 
Q 2034 2750 1606 2750 
Q 1444 2750 1328 2662 
Q 1213 2575 1213 2428 
Q 1213 2166 1773 2059 
Q 2334 1953 2709 1728 
Q 3084 1503 3084 981 
Q 3084 534 2686 235 
Q 2288 -63 1606 -63 
Q 878 -63 495 306 
Q 113 675 113 1084 
L 1094 1084 
Q 1103 850 1251 742 
Q 1400 634 1634 634 
Q 2069 634 2069 950 
z
" transform="scale(0.015625)"/>
       <path id="Roboto-Black-74" d="M 2128 28 
Q 1850 -63 1534 -63 
Q 1025 -63 747 179 
Q 469 422 469 972 
L 469 2650 
L 41 2650 
L 41 3381 
L 469 3381 
L 469 4222 
L 1522 4222 
L 1522 3381 
L 2078 3381 
L 2078 2650 
L 1522 2650 
L 1522 1103 
Q 1522 900 1597 831 
Q 1672 763 1866 763 
Q 2019 763 2128 781 
L 2128 28 
z
" transform="scale(0.015625)"/>
       <path id="Roboto-Black-61" d="M 2200 0 
Q 2141 122 2103 303 
Q 1813 -63 1291 -63 
Q 822 -63 483 220 
Q 144 503 144 953 
Q 144 1469 520 1764 
Q 897 2059 1694 2066 
L 2053 2066 
L 2053 2244 
Q 2053 2709 1650 2709 
Q 1275 2709 1275 2341 
L 222 2341 
Q 222 2813 625 3128 
Q 1028 3444 1706 3444 
Q 2309 3444 2711 3142 
Q 3113 2841 3113 2238 
L 3113 766 
Q 3119 306 3256 53 
L 3256 0 
L 2200 0 
z
M 1541 688 
Q 1734 688 1865 770 
Q 1997 853 2053 956 
L 2053 1503 
L 1722 1503 
Q 1425 1503 1311 1351 
Q 1197 1200 1197 1009 
Q 1197 866 1295 777 
Q 1394 688 1541 688 
z
" transform="scale(0.015625)"/>
       <path id="Roboto-Black-6e" d="M 1788 2631 
Q 1478 2631 1331 2391 
L 1331 0 
L 278 0 
L 278 3381 
L 1266 3381 
L 1300 2988 
Q 1653 3444 2263 3444 
Q 2731 3444 3026 3156 
Q 3322 2869 3325 2144 
L 3325 0 
L 2266 0 
L 2266 2131 
Q 2266 2438 2141 2534 
Q 2016 2631 1788 2631 
z
" transform="scale(0.015625)"/>
       <path id="Roboto-Black-63" d="M 1725 750 
Q 2197 750 2188 1206 
L 3178 1206 
Q 3181 634 2770 285 
Q 2359 -63 1750 -63 
Q 956 -63 561 428 
Q 166 919 166 1653 
L 166 1725 
Q 166 2459 561 2951 
Q 956 3444 1744 3444 
Q 2375 3444 2778 3087 
Q 3181 2731 3178 2088 
L 2188 2088 
Q 2194 2316 2076 2473 
Q 1959 2631 1719 2631 
Q 1400 2631 1309 2372 
Q 1219 2113 1219 1653 
Q 1219 1278 1306 1014 
Q 1394 750 1725 750 
z
" transform="scale(0.015625)"/>
       <path id="Roboto-Black-65" d="M 3266 531 
Q 3109 309 2765 123 
Q 2422 -63 1934 -63 
Q 1109 -63 651 421 
Q 194 906 191 1569 
L 191 1697 
Q 191 2438 600 2941 
Q 1009 3444 1822 3444 
Q 2541 3444 2948 2997 
Q 3356 2550 3356 1788 
L 3356 1359 
L 1266 1359 
Q 1322 1078 1512 914 
Q 1703 750 2003 750 
Q 2506 750 2788 1100 
L 3266 531 
z
M 1813 2631 
Q 1544 2631 1422 2457 
Q 1300 2284 1266 2019 
L 2328 2019 
L 2328 2100 
Q 2334 2631 1813 2631 
z
" transform="scale(0.015625)"/>
       <path id="Roboto-Black-5b" d="M 1766 5331 
L 1766 4563 
L 1397 4563 
L 1397 -325 
L 1766 -325 
L 1766 -1091 
L 338 -1091 
L 338 5331 
L 1766 5331 
z
" transform="scale(0.015625)"/>
       <path id="Roboto-Black-c5" d="M -13 0 
L 1659 4550 
L 2694 4550 
L 4375 0 
L 3194 0 
L 2931 850 
L 1428 850 
L 1166 0 
L -13 0 
z
M 1691 1697 
L 2669 1697 
L 2178 3281 
L 1691 1697 
z
M 1492 5388 
Q 1492 5644 1690 5833 
Q 1889 6022 2192 6022 
Q 2498 6022 2696 5833 
Q 2895 5644 2895 5388 
Q 2895 5132 2696 4949 
Q 2498 4766 2192 4766 
Q 1889 4766 1690 4949 
Q 1492 5132 1492 5388 
z
M 1870 5387 
Q 1870 5250 1956 5156 
Q 2042 5063 2192 5063 
Q 2345 5063 2431 5156 
Q 2517 5250 2517 5387 
Q 2517 5525 2431 5622 
Q 2345 5719 2192 5719 
Q 2042 5719 1956 5622 
Q 1870 5525 1870 5387 
z
" transform="scale(0.015625)"/>
       <path id="Roboto-Black-5d" d="M 44 4563 
L 44 5331 
L 1472 5331 
L 1472 -1091 
L 44 -1091 
L 44 -325 
L 419 -325 
L 419 4563 
L 44 4563 
z
" transform="scale(0.015625)"/>
      </defs>
      <use xlink:href="#Roboto-Black-53"/>
      <use xlink:href="#Roboto-Black-45" x="62.597656"/>
      <use xlink:href="#Roboto-Black-52" x="118.554688"/>
      <use xlink:href="#Roboto-Black-32" x="183.789062"/>
      <use xlink:href="#Roboto-Black-30" x="241.748047"/>
      <use xlink:href="#Roboto-Black-35" x="299.707031"/>
      <use xlink:href="#Roboto-Black-20" x="357.666016"/>
      <use xlink:href="#Roboto-Black-48" x="382.568359"/>
      <use xlink:href="#Roboto-Black-47" x="452.832031"/>
      <use xlink:href="#Roboto-Black-20" x="520.996094"/>
      <use xlink:href="#Roboto-Black-2d" x="545.898438"/>
      <use xlink:href="#Roboto-Black-20" x="590.869141"/>
      <use xlink:href="#Roboto-Black-48" x="615.771484"/>
      <use xlink:href="#Roboto-Black-32" x="686.035156"/>
      <use xlink:href="#Roboto-Black-4f" x="743.994141"/>
      <use xlink:href="#Roboto-Black-20" x="813.037109"/>
      <use xlink:href="#Roboto-Black-4f" x="837.939453"/>
      <use xlink:href="#Roboto-Black-20" x="906.982422"/>
      <use xlink:href="#Roboto-Black-44" x="931.884766"/>
      <use xlink:href="#Roboto-Black-69" x="996.582031"/>
      <use xlink:href="#Roboto-Black-73" x="1024.072266"/>
      <use xlink:href="#Roboto-Black-74" x="1075.341797"/>
      <use xlink:href="#Roboto-Black-61" x="1109.716797"/>
      <use xlink:href="#Roboto-Black-6e" x="1162.841797"/>
      <use xlink:href="#Roboto-Black-63" x="1219.287109"/>
      <use xlink:href="#Roboto-Black-65" x="1271.289062"/>
      <use xlink:href="#Roboto-Black-20" x="1325.78125"/>
      <use xlink:href="#Roboto-Black-5b" x="1350.683594"/>
      <use xlink:href="#Roboto-Black-c5" x="1378.90625"/>
      <use xlink:href="#Roboto-Black-5d" x="1447.021484"/>
     </g>
    </g>
   </g>
   <g id="matplotlib.axis_2">
    <g id="ytick_1">
     <g id="line2d_11">
      <defs>
       <path id="m1932bf7e40" d="M 0 0 
L -3.5 0 
" style="stroke: #c2c1c1; stroke-width: 0.8"/>
      </defs>
      <g>
       <use xlink:href="#m1932bf7e40" x="47.387" y="298.672" style="fill: #c2c1c1; stroke: #c2c1c1; stroke-width: 0.8"/>
      </g>
     </g>
     <g id="text_9">
      <!-- −2 -->
      <g style="fill: #191919" transform="translate(29.0495 302.422) scale(0.1 -0.1)">
       <defs>
        <path id="Roboto-Regular-2212" d="M 3134 2509 
L 3134 2034 
L 525 2034 
L 525 2509 
L 3134 2509 
z
" transform="scale(0.015625)"/>
       </defs>
       <use xlink:href="#Roboto-Regular-2212"/>
       <use xlink:href="#Roboto-Regular-32" x="57.177734"/>
      </g>
     </g>
    </g>
    <g id="ytick_2">
     <g id="line2d_12">
      <g>
       <use xlink:href="#m1932bf7e40" x="47.387" y="242.2856" style="fill: #c2c1c1; stroke: #c2c1c1; stroke-width: 0.8"/>
      </g>
     </g>
     <g id="text_10">
      <!-- −1 -->
      <g style="fill: #191919" transform="translate(29.0495 246.0356) scale(0.1 -0.1)">
       <defs>
        <path id="Roboto-Regular-31" d="M 2278 4575 
L 2278 0 
L 1700 0 
L 1700 3853 
L 534 3428 
L 534 3950 
L 2188 4575 
L 2278 4575 
z
" transform="scale(0.015625)"/>
       </defs>
       <use xlink:href="#Roboto-Regular-2212"/>
       <use xlink:href="#Roboto-Regular-31" x="57.177734"/>
      </g>
     </g>
    </g>
    <g id="ytick_3">
     <g id="line2d_13">
      <g>
       <use xlink:href="#m1932bf7e40" x="47.387" y="185.8992" style="fill: #c2c1c1; stroke: #c2c1c1; stroke-width: 0.8"/>
      </g>
     </g>
     <g id="text_11">
      <!-- 0 -->
      <g style="fill: #191919" transform="translate(34.766687 189.6492) scale(0.1 -0.1)">
       <defs>
        <path id="Roboto-Regular-30" d="M 3234 1944 
Q 3234 825 2848 381 
Q 2463 -63 1800 -63 
Q 1156 -63 764 368 
Q 372 800 359 1872 
L 359 2638 
Q 359 3753 750 4183 
Q 1141 4613 1794 4613 
Q 2447 4613 2834 4195 
Q 3222 3778 3234 2709 
L 3234 1944 
z
M 2653 2734 
Q 2653 3503 2434 3822 
Q 2216 4141 1794 4141 
Q 1388 4141 1167 3831 
Q 947 3522 941 2778 
L 941 1850 
Q 941 1088 1164 750 
Q 1388 413 1800 413 
Q 2222 413 2436 745 
Q 2650 1078 2653 1825 
L 2653 2734 
z
" transform="scale(0.015625)"/>
       </defs>
       <use xlink:href="#Roboto-Regular-30"/>
      </g>
     </g>
    </g>
    <g id="ytick_4">
     <g id="line2d_14">
      <g>
       <use xlink:href="#m1932bf7e40" x="47.387" y="129.5128" style="fill: #c2c1c1; stroke: #c2c1c1; stroke-width: 0.8"/>
      </g>
     </g>
     <g id="text_12">
      <!-- 1 -->
      <g style="fill: #191919" transform="translate(34.766687 133.2628) scale(0.1 -0.1)">
       <use xlink:href="#Roboto-Regular-31"/>
      </g>
     </g>
    </g>
    <g id="ytick_5">
     <g id="line2d_15">
      <g>
       <use xlink:href="#m1932bf7e40" x="47.387" y="73.1264" style="fill: #c2c1c1; stroke: #c2c1c1; stroke-width: 0.8"/>
      </g>
     </g>
     <g id="text_13">
      <!-- 2 -->
      <g style="fill: #191919" transform="translate(34.766687 76.8764) scale(0.1 -0.1)">
       <use xlink:href="#Roboto-Regular-32"/>
      </g>
     </g>
    </g>
    <g id="ytick_6">
     <g id="line2d_16">
      <g>
       <use xlink:href="#m1932bf7e40" x="47.387" y="16.74" style="fill: #c2c1c1; stroke: #c2c1c1; stroke-width: 0.8"/>
      </g>
     </g>
     <g id="text_14">
      <!-- 3 -->
      <g style="fill: #191919" transform="translate(34.766687 20.49) scale(0.1 -0.1)">
       <use xlink:href="#Roboto-Regular-33"/>
      </g>
     </g>
    </g>
    <g id="text_15">
     <!-- PMF [kcal/mol] -->
     <g style="fill: #191919" transform="translate(22.612 198.568813) rotate(-90) scale(0.12 -0.12)">
      <defs>
       <path id="Roboto-Black-50" d="M 1444 1544 
L 1444 0 
L 347 0 
L 347 4550 
L 2163 4550 
Q 2981 4550 3453 4112 
Q 3925 3675 3925 3006 
Q 3925 2344 3453 1944 
Q 2981 1544 2163 1544 
L 1444 1544 
z
M 1444 3703 
L 1444 2391 
L 2163 2391 
Q 2506 2391 2661 2562 
Q 2816 2734 2816 3000 
Q 2816 3278 2661 3490 
Q 2506 3703 2163 3703 
L 1444 3703 
z
" transform="scale(0.015625)"/>
       <path id="Roboto-Black-4d" d="M 2800 1384 
L 3816 4550 
L 5256 4550 
L 5256 0 
L 4156 0 
L 4156 1063 
L 4263 3238 
L 3163 0 
L 2438 0 
L 1338 3238 
L 1444 1063 
L 1444 0 
L 347 0 
L 347 4550 
L 1784 4550 
L 2800 1384 
z
" transform="scale(0.015625)"/>
       <path id="Roboto-Black-46" d="M 347 0 
L 347 4550 
L 3391 4550 
L 3391 3703 
L 1444 3703 
L 1444 2656 
L 3213 2656 
L 3213 1813 
L 1444 1813 
L 1444 0 
L 347 0 
z
" transform="scale(0.015625)"/>
       <path id="Roboto-Black-6b" d="M 2394 0 
L 1653 1259 
L 1359 966 
L 1359 0 
L 306 0 
L 306 4803 
L 1359 4803 
L 1359 2256 
L 2259 3381 
L 3522 3381 
L 2334 1991 
L 3600 0 
L 2394 0 
z
" transform="scale(0.015625)"/>
       <path id="Roboto-Black-6c" d="M 1409 4800 
L 1409 0 
L 353 0 
L 353 4800 
L 1409 4800 
z
" transform="scale(0.015625)"/>
       <path id="Roboto-Black-2f" d="M 2216 4550 
L 659 -391 
L -91 -391 
L 1466 4550 
L 2216 4550 
z
" transform="scale(0.015625)"/>
       <path id="Roboto-Black-6d" d="M 1819 2631 
Q 1522 2631 1359 2353 
L 1359 0 
L 306 0 
L 306 3381 
L 1294 3381 
L 1331 2984 
Q 1681 3444 2294 3444 
Q 2925 3444 3159 2934 
Q 3500 3444 4150 3444 
Q 4609 3444 4906 3156 
Q 5203 2869 5206 2144 
L 5206 0 
L 4150 0 
L 4150 2128 
Q 4150 2444 4042 2537 
Q 3934 2631 3747 2631 
Q 3431 2631 3278 2353 
L 3281 0 
L 2228 0 
L 2228 2122 
Q 2228 2444 2120 2537 
Q 2013 2631 1819 2631 
z
" transform="scale(0.015625)"/>
       <path id="Roboto-Black-6f" d="M 166 1722 
Q 166 2463 583 2953 
Q 1000 3444 1794 3444 
Q 2591 3444 3009 2953 
Q 3428 2463 3428 1722 
L 3428 1656 
Q 3428 916 3011 426 
Q 2594 -63 1800 -63 
Q 1013 -63 595 414 
Q 178 891 166 1616 
L 166 1722 
z
M 1219 1656 
Q 1219 1275 1339 1012 
Q 1459 750 1800 750 
Q 2131 750 2253 1011 
Q 2375 1272 2375 1722 
Q 2375 2094 2254 2362 
Q 2134 2631 1794 2631 
Q 1463 2631 1341 2364 
Q 1219 2097 1219 1656 
z
" transform="scale(0.015625)"/>
      </defs>
      <use xlink:href="#Roboto-Black-50"/>
      <use xlink:href="#Roboto-Black-4d" x="65.136719"/>
      <use xlink:href="#Roboto-Black-46" x="152.783203"/>
      <use xlink:href="#Roboto-Black-20" x="207.470703"/>
      <use xlink:href="#Roboto-Black-5b" x="232.373047"/>
      <use xlink:href="#Roboto-Black-6b" x="260.595703"/>
      <use xlink:href="#Roboto-Black-63" x="315.283203"/>
      <use xlink:href="#Roboto-Black-61" x="367.285156"/>
      <use xlink:href="#Roboto-Black-6c" x="420.410156"/>
      <use xlink:href="#Roboto-Black-2f" x="447.900391"/>
      <use xlink:href="#Roboto-Black-6d" x="483.007812"/>
      <use xlink:href="#Roboto-Black-6f" x="569.140625"/>
      <use xlink:href="#Roboto-Black-6c" x="625.341797"/>
      <use xlink:href="#Roboto-Black-5d" x="652.832031"/>
     </g>
    </g>
   </g>
   <g id="line2d_17">
    <path d="M 9.998085 -1 
L 10.338412 8.100534 
L 11.666848 40.402855 
L 12.995283 69.902603 
L 14.323719 96.823398 
L 15.652154 121.289728 
L 16.980589 143.395449 
L 18.309025 163.229602 
L 19.63746 180.881869 
L 20.965896 196.441613 
L 22.294331 210.001384 
L 23.622767 221.67252 
L 24.951202 231.599826 
L 26.279637 239.951898 
L 27.608073 246.886802 
L 28.936508 252.523188 
L 30.264944 256.943239 
L 31.593379 260.219025 
L 32.921814 262.432039 
L 34.25025 263.670687 
L 35.578685 264.020267 
L 36.907121 263.568969 
L 38.235556 262.428052 
L 39.563991 260.733555 
L 40.892427 258.609424 
L 42.220862 256.125302 
L 43.549298 253.300765 
L 44.877733 250.15059 
L 47.534604 243.023001 
L 50.191475 234.946497 
L 56.833652 212.90897 
L 63.475829 190.501907 
L 68.789571 172.105425 
L 71.446441 163.75589 
L 74.103312 156.261625 
L 76.760183 148.838029 
L 80.745489 136.696371 
L 82.073925 133.268427 
L 83.40236 130.425214 
L 86.059231 125.71329 
L 90.044537 118.902996 
L 91.372973 116.419232 
L 92.701408 113.6393 
L 95.358279 107.373666 
L 96.686714 104.768791 
L 98.01515 103.176415 
L 99.343585 102.526209 
L 102.000456 102.084102 
L 103.328891 101.619514 
L 105.985762 100.336209 
L 107.314197 99.503187 
L 108.642633 98.364803 
L 109.971068 97.039507 
L 111.299504 95.89698 
L 112.627939 95.188587 
L 116.613245 94.19997 
L 117.941681 93.586137 
L 120.598552 91.833341 
L 121.926987 91.54933 
L 123.255422 92.213829 
L 127.240729 96.158556 
L 129.897599 97.62831 
L 131.226035 98.625976 
L 132.55447 100.284079 
L 133.882906 102.742858 
L 137.868212 111.776914 
L 139.196647 113.971638 
L 140.525083 115.491461 
L 141.853518 116.466481 
L 143.181954 117.171578 
L 144.510389 118.007946 
L 145.838824 119.401369 
L 147.16726 121.563234 
L 151.152566 129.709568 
L 152.481001 131.758714 
L 153.809437 133.396665 
L 159.123179 138.984132 
L 163.108485 142.85391 
L 168.422226 148.73535 
L 172.407533 151.65098 
L 173.735968 153.095206 
L 177.721274 158.309313 
L 179.04971 159.721456 
L 187.020322 167.164323 
L 188.348758 168.03116 
L 189.677193 168.556013 
L 192.334064 169.365845 
L 193.662499 170.049836 
L 197.647805 172.743286 
L 198.976241 173.400044 
L 202.961547 174.695597 
L 204.289983 175.573835 
L 205.618418 176.879754 
L 208.275289 180.008583 
L 209.603724 181.394703 
L 210.93216 182.565047 
L 213.58903 184.509311 
L 214.917466 185.333494 
L 216.245901 186.001481 
L 218.902772 186.901331 
L 224.216514 188.39527 
L 225.544949 188.495585 
L 226.873385 188.300993 
L 229.530255 187.255563 
L 230.858691 186.782508 
L 232.187126 186.546408 
L 234.843997 186.340492 
L 236.172432 185.948246 
L 237.500868 185.26915 
L 240.157739 183.674034 
L 241.486174 183.062117 
L 242.81461 182.619295 
L 245.47148 182.131422 
L 246.799916 181.942463 
L 248.128351 181.563663 
L 249.456787 180.858064 
L 252.113657 179.008674 
L 253.442093 178.443179 
L 256.098964 177.960458 
L 257.427399 177.410975 
L 258.755834 176.446582 
L 261.412705 173.82287 
L 264.069576 171.247987 
L 270.711753 165.130853 
L 272.040189 164.156466 
L 273.368624 163.388527 
L 277.35393 161.531178 
L 280.010801 159.913682 
L 282.667672 158.089185 
L 285.324543 155.897529 
L 287.981414 153.368965 
L 289.309849 152.32473 
L 290.638284 151.5957 
L 293.295155 150.790113 
L 295.952026 149.931066 
L 298.608897 148.84104 
L 299.937332 148.412985 
L 302.594203 147.97555 
L 303.922638 147.741074 
L 305.251074 147.252053 
L 306.579509 146.445507 
L 309.23638 144.280306 
L 311.893251 141.737104 
L 314.550122 138.690589 
L 315.878557 137.448926 
L 317.206993 136.776106 
L 318.535428 136.664597 
L 321.192299 136.905988 
L 322.520734 136.782974 
L 323.84917 136.474822 
L 325.177605 136.023109 
L 327.834476 134.738075 
L 329.162911 134.114639 
L 330.491347 133.802705 
L 331.819782 133.975549 
L 333.148218 134.586419 
L 334.476653 135.367961 
L 335.805088 135.99586 
L 337.133524 136.261648 
L 338.461959 136.131948 
L 339.790395 135.704679 
L 343.775701 134.042847 
L 345.104136 133.70988 
L 346.432572 133.633 
L 347.761007 133.890843 
L 351.746313 135.566476 
L 353.074749 135.556637 
L 354.403184 135.060087 
L 357.060055 133.27879 
L 359.716926 131.576714 
L 363.702232 129.639286 
L 365.030667 128.801055 
L 367.687538 126.762823 
L 369.015974 125.577178 
L 371.672844 122.704428 
L 374.329715 119.698561 
L 375.658151 118.392236 
L 376.986586 117.318241 
L 378.315022 116.649378 
L 379.643457 116.495985 
L 382.300328 116.73588 
L 383.628763 116.391525 
L 386.285634 115.158326 
L 387.614069 115.039372 
L 388.942505 115.352738 
L 390.27094 115.79537 
L 391.599376 116.078491 
L 392.927811 116.078812 
L 394.256246 115.801707 
L 395.584682 115.296461 
L 398.241553 113.891347 
L 399.569988 113.393647 
L 400.898424 113.543623 
L 402.226859 114.616307 
L 403.555294 116.44288 
L 404.88373 118.461546 
L 406.212165 120.093309 
L 407.540601 121.081516 
L 408.869036 121.576691 
L 410.197471 121.942304 
L 411.525907 122.429818 
L 414.182778 123.762348 
L 415.511213 124.648521 
L 416.839648 125.851185 
L 419.496519 128.920797 
L 420.824955 130.188603 
L 422.15339 130.939231 
L 423.481826 131.177825 
L 424.810261 131.07619 
L 428.795567 130.307735 
L 431.452438 129.717908 
L 432.780873 129.710681 
L 434.109309 130.113811 
L 435.437744 130.905387 
L 438.094615 132.758997 
L 439.42305 133.220452 
L 440.751486 133.111492 
L 442.079921 132.457739 
L 446.065228 129.480972 
L 447.393663 128.916437 
L 450.050534 128.234757 
L 452.707405 127.176265 
L 456.692711 125.485872 
L 459.349582 124.053022 
L 460.678017 123.519222 
L 461.8 123.212877 
L 461.8 123.212877 
" clip-path="url(#p1bd49bee27)" style="fill: none; stroke: #f99752; stroke-width: 2.5; stroke-linecap: square"/>
   </g>
   <g id="patch_3">
    <path d="M 47.387 298.672 
L 47.387 16.74 
" style="fill: none; stroke: #c2c1c1; stroke-width: 0.8; stroke-linejoin: miter; stroke-linecap: square"/>
   </g>
   <g id="patch_4">
    <path d="M 445.032 298.672 
L 445.032 16.74 
" style="fill: none; stroke: #c2c1c1; stroke-width: 0.8; stroke-linejoin: miter; stroke-linecap: square"/>
   </g>
   <g id="patch_5">
    <path d="M 47.387 298.672 
L 445.032 298.672 
" style="fill: none; stroke: #c2c1c1; stroke-width: 0.8; stroke-linejoin: miter; stroke-linecap: square"/>
   </g>
   <g id="patch_6">
    <path d="M 47.387 16.74 
L 445.032 16.74 
" style="fill: none; stroke: #c2c1c1; stroke-width: 0.8; stroke-linejoin: miter; stroke-linecap: square"/>
   </g>
   <g id="legend_1">
    <g id="line2d_18">
     <path d="M 58.187 32.34 
L 70.187 32.34 
L 82.187 32.34 
" style="fill: none; stroke: #1e2e79; stroke-width: 2.5; stroke-linecap: square"/>
    </g>
    <g id="text_16">
     <!-- Reduced -->
     <g transform="translate(91.787 36.54) scale(0.12 -0.12)">
      <defs>
       <path id="Roboto-Regular-52" d="M 3188 0 
L 2200 1844 
L 1131 1844 
L 1131 0 
L 528 0 
L 528 4550 
L 2034 4550 
Q 2800 4550 3214 4200 
Q 3628 3850 3628 3184 
Q 3628 2759 3398 2442 
Q 3169 2125 2763 1969 
L 3831 38 
L 3831 0 
L 3188 0 
z
M 1131 4056 
L 1131 2334 
L 2053 2334 
Q 2538 2334 2783 2582 
Q 3028 2831 3028 3184 
Q 3028 3578 2792 3817 
Q 2556 4056 2034 4056 
L 1131 4056 
z
" transform="scale(0.015625)"/>
       <path id="Roboto-Regular-65" d="M 3116 591 
Q 2950 341 2647 139 
Q 2344 -63 1844 -63 
Q 1138 -63 714 396 
Q 291 856 291 1572 
L 291 1703 
Q 291 2256 502 2645 
Q 713 3034 1050 3239 
Q 1388 3444 1769 3444 
Q 2494 3444 2826 2970 
Q 3159 2497 3159 1788 
L 3159 1528 
L 872 1528 
Q 884 1063 1148 736 
Q 1413 409 1875 409 
Q 2181 409 2393 534 
Q 2606 659 2766 869 
L 3116 591 
z
M 1769 2969 
Q 1425 2969 1187 2719 
Q 950 2469 891 2000 
L 2581 2000 
L 2581 2044 
Q 2559 2381 2386 2675 
Q 2213 2969 1769 2969 
z
" transform="scale(0.015625)"/>
       <path id="Roboto-Regular-64" d="M 2622 0 
L 2594 363 
Q 2247 -63 1628 -63 
Q 1034 -63 668 418 
Q 303 900 297 1628 
L 297 1719 
Q 297 2494 664 2969 
Q 1031 3444 1634 3444 
Q 2231 3444 2572 3044 
L 2572 4800 
L 3153 4800 
L 3153 0 
L 2622 0 
z
M 878 1653 
Q 878 1150 1090 789 
Q 1303 428 1772 428 
Q 2309 428 2572 919 
L 2572 2475 
Q 2313 2956 1778 2956 
Q 1306 2956 1092 2589 
Q 878 2222 878 1719 
L 878 1653 
z
" transform="scale(0.015625)"/>
       <path id="Roboto-Regular-75" d="M 2538 0 
L 2525 334 
Q 2194 -63 1538 -63 
Q 1041 -63 734 231 
Q 428 525 428 1200 
L 428 3381 
L 1006 3381 
L 1006 1194 
Q 1006 738 1198 583 
Q 1391 428 1628 428 
Q 2281 428 2509 919 
L 2509 3381 
L 3091 3381 
L 3091 0 
L 2538 0 
z
" transform="scale(0.015625)"/>
       <path id="Roboto-Regular-63" d="M 1794 413 
Q 2103 413 2336 597 
Q 2569 781 2591 1069 
L 3141 1069 
Q 3119 616 2725 276 
Q 2331 -63 1794 -63 
Q 1031 -63 661 440 
Q 291 944 291 1625 
L 291 1756 
Q 291 2438 661 2941 
Q 1031 3444 1794 3444 
Q 2388 3444 2753 3092 
Q 3119 2741 3141 2219 
L 2591 2219 
Q 2569 2531 2355 2750 
Q 2141 2969 1794 2969 
Q 1438 2969 1236 2787 
Q 1034 2606 951 2328 
Q 869 2050 869 1756 
L 869 1625 
Q 869 1328 950 1050 
Q 1031 772 1232 592 
Q 1434 413 1794 413 
z
" transform="scale(0.015625)"/>
      </defs>
      <use xlink:href="#Roboto-Regular-52"/>
      <use xlink:href="#Roboto-Regular-65" x="61.621094"/>
      <use xlink:href="#Roboto-Regular-64" x="114.648438"/>
      <use xlink:href="#Roboto-Regular-75" x="171.044922"/>
      <use xlink:href="#Roboto-Regular-63" x="226.171875"/>
      <use xlink:href="#Roboto-Regular-65" x="278.515625"/>
      <use xlink:href="#Roboto-Regular-64" x="331.542969"/>
     </g>
    </g>
    <g id="line2d_19">
     <path d="M 58.187 49.7775 
L 70.187 49.7775 
L 82.187 49.7775 
" style="fill: none; stroke: #ec4067; stroke-width: 2.5; stroke-linecap: square"/>
    </g>
    <g id="text_17">
     <!-- Oxidized -->
     <g transform="translate(91.787 53.9775) scale(0.12 -0.12)">
      <defs>
       <path id="Roboto-Regular-4f" d="M 4031 2131 
Q 4031 1106 3534 521 
Q 3038 -63 2206 -63 
Q 1397 -63 884 521 
Q 372 1106 372 2131 
L 372 2419 
Q 372 3441 881 4027 
Q 1391 4613 2200 4613 
Q 3025 4613 3523 4036 
Q 4022 3459 4031 2456 
L 4031 2131 
z
M 3434 2425 
Q 3434 3238 3109 3669 
Q 2784 4100 2200 4100 
Q 1641 4100 1305 3669 
Q 969 3238 969 2425 
L 969 2131 
Q 969 1313 1308 880 
Q 1647 447 2206 447 
Q 2794 447 3114 880 
Q 3434 1313 3434 2131 
L 3434 2425 
z
" transform="scale(0.015625)"/>
       <path id="Roboto-Regular-78" d="M 831 3381 
L 1572 2150 
L 2322 3381 
L 3000 3381 
L 1894 1713 
L 3034 0 
L 2366 0 
L 1584 1269 
L 803 0 
L 131 0 
L 1269 1713 
L 166 3381 
L 831 3381 
z
" transform="scale(0.015625)"/>
       <path id="Roboto-Regular-69" d="M 444 4278 
Q 444 4419 530 4516 
Q 616 4613 784 4613 
Q 950 4613 1039 4516 
Q 1128 4419 1128 4278 
Q 1128 4144 1039 4048 
Q 950 3953 784 3953 
Q 616 3953 530 4048 
Q 444 4144 444 4278 
z
M 1069 3381 
L 1069 0 
L 488 0 
L 488 3381 
L 1069 3381 
z
" transform="scale(0.015625)"/>
       <path id="Roboto-Regular-7a" d="M 303 2903 
L 303 3381 
L 2869 3381 
L 2869 2972 
L 988 475 
L 2959 475 
L 2959 0 
L 278 0 
L 278 425 
L 2141 2903 
L 303 2903 
z
" transform="scale(0.015625)"/>
      </defs>
      <use xlink:href="#Roboto-Regular-4f"/>
      <use xlink:href="#Roboto-Regular-78" x="68.798828"/>
      <use xlink:href="#Roboto-Regular-69" x="118.408203"/>
      <use xlink:href="#Roboto-Regular-64" x="142.724609"/>
      <use xlink:href="#Roboto-Regular-69" x="199.121094"/>
      <use xlink:href="#Roboto-Regular-7a" x="223.4375"/>
      <use xlink:href="#Roboto-Regular-65" x="273.046875"/>
      <use xlink:href="#Roboto-Regular-64" x="326.074219"/>
     </g>
    </g>
    <g id="line2d_20">
     <path d="M 58.187 67.84125 
L 70.187 67.84125 
L 82.187 67.84125 
" style="fill: none; stroke: #f99752; stroke-width: 2.5; stroke-linecap: square"/>
    </g>
    <g id="text_18">
     <!-- Cu(I) -->
     <g transform="translate(91.787 72.04125) scale(0.12 -0.12)">
      <defs>
       <path id="Roboto-Regular-43" d="M 3275 1447 
L 3875 1447 
Q 3806 800 3387 368 
Q 2969 -63 2150 -63 
Q 1356 -63 870 504 
Q 384 1072 375 2013 
L 375 2500 
Q 375 3456 867 4034 
Q 1359 4613 2203 4613 
Q 2975 4613 3390 4188 
Q 3806 3763 3875 3091 
L 3275 3091 
Q 3206 3566 2968 3842 
Q 2731 4119 2203 4119 
Q 1600 4119 1287 3675 
Q 975 3231 975 2506 
L 975 2047 
Q 975 1375 1259 901 
Q 1544 428 2150 428 
Q 2725 428 2961 697 
Q 3197 966 3275 1447 
z
" transform="scale(0.015625)"/>
       <path id="Roboto-Regular-28" d="M 419 1850 
Q 419 2756 678 3434 
Q 938 4113 1294 4541 
Q 1650 4969 1947 5134 
L 2069 4753 
Q 1700 4475 1348 3761 
Q 997 3047 997 1813 
Q 997 625 1348 -97 
Q 1700 -819 2069 -1119 
L 1947 -1469 
Q 1650 -1306 1294 -878 
Q 938 -450 678 226 
Q 419 903 419 1850 
z
" transform="scale(0.015625)"/>
       <path id="Roboto-Regular-49" d="M 1175 4550 
L 1175 0 
L 572 0 
L 572 4550 
L 1175 4550 
z
" transform="scale(0.015625)"/>
       <path id="Roboto-Regular-29" d="M 1772 1819 
Q 1772 906 1512 228 
Q 1253 -450 895 -878 
Q 538 -1306 244 -1469 
L 122 -1119 
Q 488 -841 841 -109 
Q 1194 622 1194 1856 
Q 1194 2647 1019 3236 
Q 844 3825 594 4212 
Q 344 4600 122 4781 
L 244 5134 
Q 538 4969 895 4541 
Q 1253 4113 1512 3436 
Q 1772 2759 1772 1819 
z
" transform="scale(0.015625)"/>
      </defs>
      <use xlink:href="#Roboto-Regular-43"/>
      <use xlink:href="#Roboto-Regular-75" x="65.087891"/>
      <use xlink:href="#Roboto-Regular-28" x="120.214844"/>
      <use xlink:href="#Roboto-Regular-49" x="154.443359"/>
      <use xlink:href="#Roboto-Regular-29" x="181.640625"/>
     </g>
    </g>
   </g>
  </g>
 </g>
 <defs>
  <clipPath id="p1bd49bee27">
   <rect x="47.387" y="16.74" width="397.645" height="281.932"/>
  </clipPath>
 </defs>
</svg>
