<?xml version="1.0" encoding="utf-8" standalone="no"?>
<!DOCTYPE svg PUBLIC "-//W3C//DTD SVG 1.1//EN"
  "http://www.w3.org/Graphics/SVG/1.1/DTD/svg11.dtd">
<svg xmlns:xlink="http://www.w3.org/1999/xlink" width="460.8pt" height="345.6pt" viewBox="0 0 460.8 345.6" xmlns="http://www.w3.org/2000/svg" version="1.1">
 <metadata>
  <rdf:RDF xmlns:dc="http://purl.org/dc/elements/1.1/" xmlns:cc="http://creativecommons.org/ns#" xmlns:rdf="http://www.w3.org/1999/02/22-rdf-syntax-ns#">
   <cc:Work>
    <dc:type rdf:resource="http://purl.org/dc/dcmitype/StillImage"/>
    <dc:date>2024-07-06T18:19:56.693949</dc:date>
    <dc:format>image/svg+xml</dc:format>
    <dc:creator>
     <cc:Agent>
      <dc:title>Matplotlib v3.8.4, https://matplotlib.org/</dc:title>
     </cc:Agent>
    </dc:creator>
   </cc:Work>
  </rdf:RDF>
 </metadata>
 <defs>
  <style type="text/css">*{stroke-linejoin: round; stroke-linecap: butt}</style>
 </defs>
 <g id="figure_1">
  <g id="patch_1">
   <path d="M 0 345.6 
L 460.8 345.6 
L 460.8 0 
L 0 0 
z
" style="fill: #ffffff"/>
  </g>
  <g id="axes_1">
   <g id="patch_2">
    <path d="M 60.59 303.64 
L 450 303.64 
L 450 10.8 
L 60.59 10.8 
z
" style="fill: #ffffff"/>
   </g>
   <g id="line2d_1">
    <path d="M 60.59 26.281047 
L 61.3696 25.084356 
L 61.759399 24.807331 
L 62.149199 24.744762 
L 62.538999 24.896217 
L 62.928799 25.260758 
L 63.318599 25.836947 
L 64.098198 27.61614 
L 64.877798 30.213331 
L 65.657397 33.602295 
L 66.826797 40.101971 
L 67.996196 48.192236 
L 69.165596 57.727718 
L 70.724795 72.375227 
L 72.673794 93.032588 
L 76.571792 137.754349 
L 79.69019 172.549184 
L 82.028989 196.088485 
L 83.977988 213.255791 
L 85.537187 225.190763 
L 87.096386 235.520172 
L 88.655586 244.317994 
L 90.214785 251.70783 
L 91.773984 257.86458 
L 93.333183 263.003802 
L 94.892382 267.325878 
L 96.451582 270.952736 
L 98.010781 273.928375 
L 99.18018 275.751985 
L 100.34958 277.261195 
L 101.908779 278.874969 
L 103.467978 280.153313 
L 105.416977 281.412627 
L 107.365976 282.351542 
L 109.314975 282.990209 
L 111.263974 283.356 
L 113.212973 283.468389 
L 115.161972 283.351767 
L 117.890571 282.922635 
L 120.619169 282.299184 
L 122.568168 281.647558 
L 124.127367 280.88511 
L 125.686567 279.843545 
L 127.635566 278.187564 
L 131.923363 274.312481 
L 135.821361 271.058934 
L 136.990761 269.73455 
L 138.16016 268.100287 
L 139.32956 266.129956 
L 140.888759 262.988525 
L 142.447958 259.266257 
L 144.007157 254.900214 
L 145.566356 249.767373 
L 147.125556 243.766432 
L 148.684755 236.870924 
L 150.633754 227.030468 
L 152.582753 215.890232 
L 154.921552 201.03992 
L 160.768549 162.879061 
L 162.717548 152.06293 
L 164.276747 144.640785 
L 165.446146 139.97997 
L 166.615546 136.280714 
L 167.395145 134.443727 
L 168.174745 133.177342 
L 168.564545 132.774961 
L 168.954344 132.534518 
L 169.344144 132.461283 
L 169.733944 132.559783 
L 170.123744 132.833703 
L 170.513544 133.285808 
L 171.293143 134.7307 
L 172.072743 136.896447 
L 172.852342 139.768843 
L 174.021742 145.335934 
L 175.191141 152.281673 
L 176.75034 163.376295 
L 178.30954 176.132377 
L 180.648338 197.229022 
L 184.936136 236.307411 
L 186.885135 252.006888 
L 188.444334 262.928273 
L 190.003534 272.169866 
L 191.172933 277.984736 
L 192.342332 282.899166 
L 193.511732 286.997774 
L 194.681131 290.377162 
L 195.850531 293.135083 
L 197.01993 295.365614 
L 198.189329 297.156718 
L 199.358729 298.58785 
L 200.528128 299.727388 
L 202.087327 300.887349 
L 203.646527 301.72417 
L 205.205726 302.308868 
L 207.154725 302.778202 
L 209.883323 303.147809 
L 214.171121 303.461047 
L 219.628318 303.614055 
L 232.101912 303.639999 
L 319.806867 303.534718 
L 324.484464 303.296346 
L 330.721261 302.676223 
L 333.44986 302.257588 
L 335.788659 301.684073 
L 338.907057 300.662462 
L 347.092853 297.644449 
L 357.227648 293.727381 
L 361.125646 292.077989 
L 366.193043 290.15191 
L 367.752242 289.23302 
L 369.311441 288.056186 
L 372.04004 285.624833 
L 375.158438 282.894101 
L 378.276837 280.500278 
L 384.123834 276.265229 
L 385.683033 275.496674 
L 387.242232 275.028721 
L 388.801431 274.807288 
L 391.14023 274.729855 
L 394.648428 274.858418 
L 397.377027 274.915589 
L 399.326026 274.752542 
L 402.054625 274.269681 
L 404.393423 273.675366 
L 406.342422 272.946175 
L 408.291421 271.949875 
L 410.63022 270.476102 
L 412.579219 268.978494 
L 414.138418 267.45936 
L 415.307818 266.046948 
L 416.477217 264.346323 
L 417.646617 262.310278 
L 418.816016 259.884204 
L 419.985415 257.004101 
L 421.154815 253.603523 
L 422.324214 249.623111 
L 423.493614 245.01452 
L 425.052813 237.824293 
L 426.612012 229.372215 
L 428.171211 219.632143 
L 430.12021 205.716469 
L 432.069209 189.960903 
L 434.018208 172.260312 
L 435.967207 152.407798 
L 438.306006 126.059149 
L 442.983604 72.580079 
L 444.542803 57.402167 
L 445.712202 47.61939 
L 446.881602 39.429476 
L 448.051001 32.968137 
L 448.830601 29.668357 
L 449.6102 27.199207 
L 450 26.281047 
L 450 26.281047 
" clip-path="url(#p6c252ce9ba)" style="fill: none; stroke: #1e2e79; stroke-width: 2.5; stroke-linecap: square"/>
   </g>
   <g id="line2d_2">
    <path d="M 60.59 103.978446 
L 61.759399 108.794258 
L 63.318599 116.343851 
L 64.877798 125.010298 
L 67.216597 139.521317 
L 75.402392 192.168565 
L 80.07999 220.010286 
L 82.418789 232.629551 
L 84.367788 241.949085 
L 86.316787 250.253047 
L 88.655586 259.201132 
L 90.994384 267.191192 
L 92.943383 273.040069 
L 94.502583 277.114672 
L 96.061782 280.614682 
L 97.620981 283.553656 
L 99.18018 286.002615 
L 100.739379 288.064667 
L 102.688378 290.231122 
L 104.637377 292.013493 
L 106.196577 293.166202 
L 107.755776 294.068958 
L 109.314975 294.723865 
L 110.874174 295.142178 
L 112.433373 295.339498 
L 113.992573 295.330634 
L 115.551772 295.125322 
L 117.110971 294.72841 
L 119.05997 293.97373 
L 121.008969 292.96059 
L 122.957968 291.72249 
L 124.906967 290.257336 
L 126.855966 288.496238 
L 128.415165 286.792024 
L 129.974364 284.758244 
L 131.533564 282.357732 
L 133.092763 279.576812 
L 135.041762 275.566708 
L 136.990761 271.003763 
L 139.32956 264.922928 
L 141.668358 258.166142 
L 143.617357 251.758512 
L 145.566356 244.467617 
L 148.294955 233.195265 
L 153.362352 211.289694 
L 156.090951 198.397772 
L 161.937948 170.145759 
L 163.886947 161.817793 
L 165.835946 154.516424 
L 167.395145 149.546617 
L 168.954344 145.329317 
L 170.513544 141.743084 
L 172.072743 138.689998 
L 173.242142 136.762744 
L 174.411542 135.219245 
L 175.191141 134.454316 
L 175.970741 133.941173 
L 176.75034 133.713618 
L 177.52994 133.800857 
L 178.30954 134.224852 
L 179.089139 134.998829 
L 179.868739 136.12706 
L 180.648338 137.605606 
L 181.817738 140.454564 
L 182.987137 144.004072 
L 184.546336 149.675454 
L 186.105536 156.199721 
L 188.054535 165.261232 
L 190.003534 175.244939 
L 191.952533 186.254004 
L 194.681131 203.089797 
L 198.579129 227.036656 
L 200.917928 239.981838 
L 203.256727 251.775748 
L 205.595526 262.427231 
L 207.544525 270.216874 
L 209.103724 275.645038 
L 210.662923 280.404985 
L 212.222122 284.588464 
L 213.781321 288.251075 
L 215.340521 291.395214 
L 216.89972 294.01576 
L 218.458919 296.1425 
L 220.018118 297.839867 
L 221.577317 299.183317 
L 223.136517 300.243475 
L 225.085516 301.26319 
L 227.034515 302.027831 
L 229.373313 302.680008 
L 231.712112 303.083711 
L 234.440711 303.315514 
L 240.677508 303.520687 
L 247.693904 303.606232 
L 340.856056 303.447666 
L 365.413443 302.868869 
L 370.480841 302.388945 
L 377.107437 301.474646 
L 380.225836 300.859907 
L 382.564635 300.176683 
L 385.683033 299.001712 
L 388.411632 297.75961 
L 390.75043 296.430782 
L 393.479029 294.573709 
L 396.207628 292.49465 
L 398.156627 290.733774 
L 399.715826 288.995924 
L 401.275025 286.869798 
L 402.834224 284.310899 
L 404.393423 281.288246 
L 405.952623 277.757231 
L 407.511822 273.657607 
L 409.071021 268.91742 
L 410.63022 263.451681 
L 412.189419 257.183526 
L 413.748619 250.088345 
L 415.697618 240.099591 
L 417.646617 228.869536 
L 419.595616 216.32785 
L 422.324214 196.990856 
L 427.391612 160.634177 
L 430.89981 137.162822 
L 433.628408 120.325393 
L 435.577407 109.705226 
L 437.136607 102.511378 
L 438.306006 98.095619 
L 439.475405 94.654274 
L 440.255005 92.937723 
L 441.034605 91.688271 
L 441.814204 90.89319 
L 442.593804 90.52718 
L 443.373403 90.557306 
L 444.153003 90.949254 
L 444.932603 91.673404 
L 445.712202 92.709351 
L 446.491802 94.047938 
L 447.661201 96.62846 
L 448.830601 99.926605 
L 450 103.978446 
L 450 103.978446 
" clip-path="url(#p6c252ce9ba)" style="fill: none; stroke: #ec4067; stroke-width: 2.5; stroke-linecap: square"/>
   </g>
   <g id="matplotlib.axis_1">
    <g id="xtick_1">
     <g id="line2d_3">
      <defs>
       <path id="m43839c8eb5" d="M 0 0 
L 0 3.5 
" style="stroke: #000000; stroke-width: 0.8"/>
      </defs>
      <g>
       <use xlink:href="#m43839c8eb5" x="60.59" y="303.64" style="stroke: #000000; stroke-width: 0.8"/>
      </g>
     </g>
     <g id="text_1">
      <!-- −180 -->
      <g transform="translate(46.856406 318.238437) scale(0.1 -0.1)">
       <defs>
        <path id="DejaVuSans-2212" d="M 678 2272 
L 4684 2272 
L 4684 1741 
L 678 1741 
L 678 2272 
z
" transform="scale(0.015625)"/>
        <path id="DejaVuSans-31" d="M 794 531 
L 1825 531 
L 1825 4091 
L 703 3866 
L 703 4441 
L 1819 4666 
L 2450 4666 
L 2450 531 
L 3481 531 
L 3481 0 
L 794 0 
L 794 531 
z
" transform="scale(0.015625)"/>
        <path id="DejaVuSans-38" d="M 2034 2216 
Q 1584 2216 1326 1975 
Q 1069 1734 1069 1313 
Q 1069 891 1326 650 
Q 1584 409 2034 409 
Q 2484 409 2743 651 
Q 3003 894 3003 1313 
Q 3003 1734 2745 1975 
Q 2488 2216 2034 2216 
z
M 1403 2484 
Q 997 2584 770 2862 
Q 544 3141 544 3541 
Q 544 4100 942 4425 
Q 1341 4750 2034 4750 
Q 2731 4750 3128 4425 
Q 3525 4100 3525 3541 
Q 3525 3141 3298 2862 
Q 3072 2584 2669 2484 
Q 3125 2378 3379 2068 
Q 3634 1759 3634 1313 
Q 3634 634 3220 271 
Q 2806 -91 2034 -91 
Q 1263 -91 848 271 
Q 434 634 434 1313 
Q 434 1759 690 2068 
Q 947 2378 1403 2484 
z
M 1172 3481 
Q 1172 3119 1398 2916 
Q 1625 2713 2034 2713 
Q 2441 2713 2670 2916 
Q 2900 3119 2900 3481 
Q 2900 3844 2670 4047 
Q 2441 4250 2034 4250 
Q 1625 4250 1398 4047 
Q 1172 3844 1172 3481 
z
" transform="scale(0.015625)"/>
        <path id="DejaVuSans-30" d="M 2034 4250 
Q 1547 4250 1301 3770 
Q 1056 3291 1056 2328 
Q 1056 1369 1301 889 
Q 1547 409 2034 409 
Q 2525 409 2770 889 
Q 3016 1369 3016 2328 
Q 3016 3291 2770 3770 
Q 2525 4250 2034 4250 
z
M 2034 4750 
Q 2819 4750 3233 4129 
Q 3647 3509 3647 2328 
Q 3647 1150 3233 529 
Q 2819 -91 2034 -91 
Q 1250 -91 836 529 
Q 422 1150 422 2328 
Q 422 3509 836 4129 
Q 1250 4750 2034 4750 
z
" transform="scale(0.015625)"/>
       </defs>
       <use xlink:href="#DejaVuSans-2212"/>
       <use xlink:href="#DejaVuSans-31" x="83.789062"/>
       <use xlink:href="#DejaVuSans-38" x="147.412109"/>
       <use xlink:href="#DejaVuSans-30" x="211.035156"/>
      </g>
     </g>
    </g>
    <g id="xtick_2">
     <g id="line2d_4">
      <g>
       <use xlink:href="#m43839c8eb5" x="125.491667" y="303.64" style="stroke: #000000; stroke-width: 0.8"/>
      </g>
     </g>
     <g id="text_2">
      <!-- −120 -->
      <g transform="translate(111.758073 318.238437) scale(0.1 -0.1)">
       <defs>
        <path id="DejaVuSans-32" d="M 1228 531 
L 3431 531 
L 3431 0 
L 469 0 
L 469 531 
Q 828 903 1448 1529 
Q 2069 2156 2228 2338 
Q 2531 2678 2651 2914 
Q 2772 3150 2772 3378 
Q 2772 3750 2511 3984 
Q 2250 4219 1831 4219 
Q 1534 4219 1204 4116 
Q 875 4013 500 3803 
L 500 4441 
Q 881 4594 1212 4672 
Q 1544 4750 1819 4750 
Q 2544 4750 2975 4387 
Q 3406 4025 3406 3419 
Q 3406 3131 3298 2873 
Q 3191 2616 2906 2266 
Q 2828 2175 2409 1742 
Q 1991 1309 1228 531 
z
" transform="scale(0.015625)"/>
       </defs>
       <use xlink:href="#DejaVuSans-2212"/>
       <use xlink:href="#DejaVuSans-31" x="83.789062"/>
       <use xlink:href="#DejaVuSans-32" x="147.412109"/>
       <use xlink:href="#DejaVuSans-30" x="211.035156"/>
      </g>
     </g>
    </g>
    <g id="xtick_3">
     <g id="line2d_5">
      <g>
       <use xlink:href="#m43839c8eb5" x="190.393333" y="303.64" style="stroke: #000000; stroke-width: 0.8"/>
      </g>
     </g>
     <g id="text_3">
      <!-- −60 -->
      <g transform="translate(179.84099 318.238437) scale(0.1 -0.1)">
       <defs>
        <path id="DejaVuSans-36" d="M 2113 2584 
Q 1688 2584 1439 2293 
Q 1191 2003 1191 1497 
Q 1191 994 1439 701 
Q 1688 409 2113 409 
Q 2538 409 2786 701 
Q 3034 994 3034 1497 
Q 3034 2003 2786 2293 
Q 2538 2584 2113 2584 
z
M 3366 4563 
L 3366 3988 
Q 3128 4100 2886 4159 
Q 2644 4219 2406 4219 
Q 1781 4219 1451 3797 
Q 1122 3375 1075 2522 
Q 1259 2794 1537 2939 
Q 1816 3084 2150 3084 
Q 2853 3084 3261 2657 
Q 3669 2231 3669 1497 
Q 3669 778 3244 343 
Q 2819 -91 2113 -91 
Q 1303 -91 875 529 
Q 447 1150 447 2328 
Q 447 3434 972 4092 
Q 1497 4750 2381 4750 
Q 2619 4750 2861 4703 
Q 3103 4656 3366 4563 
z
" transform="scale(0.015625)"/>
       </defs>
       <use xlink:href="#DejaVuSans-2212"/>
       <use xlink:href="#DejaVuSans-36" x="83.789062"/>
       <use xlink:href="#DejaVuSans-30" x="147.412109"/>
      </g>
     </g>
    </g>
    <g id="xtick_4">
     <g id="line2d_6">
      <g>
       <use xlink:href="#m43839c8eb5" x="255.295" y="303.64" style="stroke: #000000; stroke-width: 0.8"/>
      </g>
     </g>
     <g id="text_4">
      <!-- 0 -->
      <g transform="translate(252.11375 318.238437) scale(0.1 -0.1)">
       <use xlink:href="#DejaVuSans-30"/>
      </g>
     </g>
    </g>
    <g id="xtick_5">
     <g id="line2d_7">
      <g>
       <use xlink:href="#m43839c8eb5" x="320.196667" y="303.64" style="stroke: #000000; stroke-width: 0.8"/>
      </g>
     </g>
     <g id="text_5">
      <!-- 60 -->
      <g transform="translate(313.834167 318.238437) scale(0.1 -0.1)">
       <use xlink:href="#DejaVuSans-36"/>
       <use xlink:href="#DejaVuSans-30" x="63.623047"/>
      </g>
     </g>
    </g>
    <g id="xtick_6">
     <g id="line2d_8">
      <g>
       <use xlink:href="#m43839c8eb5" x="385.098333" y="303.64" style="stroke: #000000; stroke-width: 0.8"/>
      </g>
     </g>
     <g id="text_6">
      <!-- 120 -->
      <g transform="translate(375.554583 318.238437) scale(0.1 -0.1)">
       <use xlink:href="#DejaVuSans-31"/>
       <use xlink:href="#DejaVuSans-32" x="63.623047"/>
       <use xlink:href="#DejaVuSans-30" x="127.246094"/>
      </g>
     </g>
    </g>
    <g id="xtick_7">
     <g id="line2d_9">
      <g>
       <use xlink:href="#m43839c8eb5" x="450" y="303.64" style="stroke: #000000; stroke-width: 0.8"/>
      </g>
     </g>
     <g id="text_7">
      <!-- 180 -->
      <g transform="translate(440.45625 318.238437) scale(0.1 -0.1)">
       <use xlink:href="#DejaVuSans-31"/>
       <use xlink:href="#DejaVuSans-38" x="63.623047"/>
       <use xlink:href="#DejaVuSans-30" x="127.246094"/>
      </g>
     </g>
    </g>
    <g id="text_8">
     <!-- CYS204 C SER205 N-CA-CB Dihedral [°] -->
     <g transform="translate(156.692656 331.916562) scale(0.1 -0.1)">
      <defs>
       <path id="DejaVuSans-43" d="M 4122 4306 
L 4122 3641 
Q 3803 3938 3442 4084 
Q 3081 4231 2675 4231 
Q 1875 4231 1450 3742 
Q 1025 3253 1025 2328 
Q 1025 1406 1450 917 
Q 1875 428 2675 428 
Q 3081 428 3442 575 
Q 3803 722 4122 1019 
L 4122 359 
Q 3791 134 3420 21 
Q 3050 -91 2638 -91 
Q 1578 -91 968 557 
Q 359 1206 359 2328 
Q 359 3453 968 4101 
Q 1578 4750 2638 4750 
Q 3056 4750 3426 4639 
Q 3797 4528 4122 4306 
z
" transform="scale(0.015625)"/>
       <path id="DejaVuSans-59" d="M -13 4666 
L 666 4666 
L 1959 2747 
L 3244 4666 
L 3922 4666 
L 2272 2222 
L 2272 0 
L 1638 0 
L 1638 2222 
L -13 4666 
z
" transform="scale(0.015625)"/>
       <path id="DejaVuSans-53" d="M 3425 4513 
L 3425 3897 
Q 3066 4069 2747 4153 
Q 2428 4238 2131 4238 
Q 1616 4238 1336 4038 
Q 1056 3838 1056 3469 
Q 1056 3159 1242 3001 
Q 1428 2844 1947 2747 
L 2328 2669 
Q 3034 2534 3370 2195 
Q 3706 1856 3706 1288 
Q 3706 609 3251 259 
Q 2797 -91 1919 -91 
Q 1588 -91 1214 -16 
Q 841 59 441 206 
L 441 856 
Q 825 641 1194 531 
Q 1563 422 1919 422 
Q 2459 422 2753 634 
Q 3047 847 3047 1241 
Q 3047 1584 2836 1778 
Q 2625 1972 2144 2069 
L 1759 2144 
Q 1053 2284 737 2584 
Q 422 2884 422 3419 
Q 422 4038 858 4394 
Q 1294 4750 2059 4750 
Q 2388 4750 2728 4690 
Q 3069 4631 3425 4513 
z
" transform="scale(0.015625)"/>
       <path id="DejaVuSans-34" d="M 2419 4116 
L 825 1625 
L 2419 1625 
L 2419 4116 
z
M 2253 4666 
L 3047 4666 
L 3047 1625 
L 3713 1625 
L 3713 1100 
L 3047 1100 
L 3047 0 
L 2419 0 
L 2419 1100 
L 313 1100 
L 313 1709 
L 2253 4666 
z
" transform="scale(0.015625)"/>
       <path id="DejaVuSans-20" transform="scale(0.015625)"/>
       <path id="DejaVuSans-45" d="M 628 4666 
L 3578 4666 
L 3578 4134 
L 1259 4134 
L 1259 2753 
L 3481 2753 
L 3481 2222 
L 1259 2222 
L 1259 531 
L 3634 531 
L 3634 0 
L 628 0 
L 628 4666 
z
" transform="scale(0.015625)"/>
       <path id="DejaVuSans-52" d="M 2841 2188 
Q 3044 2119 3236 1894 
Q 3428 1669 3622 1275 
L 4263 0 
L 3584 0 
L 2988 1197 
Q 2756 1666 2539 1819 
Q 2322 1972 1947 1972 
L 1259 1972 
L 1259 0 
L 628 0 
L 628 4666 
L 2053 4666 
Q 2853 4666 3247 4331 
Q 3641 3997 3641 3322 
Q 3641 2881 3436 2590 
Q 3231 2300 2841 2188 
z
M 1259 4147 
L 1259 2491 
L 2053 2491 
Q 2509 2491 2742 2702 
Q 2975 2913 2975 3322 
Q 2975 3731 2742 3939 
Q 2509 4147 2053 4147 
L 1259 4147 
z
" transform="scale(0.015625)"/>
       <path id="DejaVuSans-35" d="M 691 4666 
L 3169 4666 
L 3169 4134 
L 1269 4134 
L 1269 2991 
Q 1406 3038 1543 3061 
Q 1681 3084 1819 3084 
Q 2600 3084 3056 2656 
Q 3513 2228 3513 1497 
Q 3513 744 3044 326 
Q 2575 -91 1722 -91 
Q 1428 -91 1123 -41 
Q 819 9 494 109 
L 494 744 
Q 775 591 1075 516 
Q 1375 441 1709 441 
Q 2250 441 2565 725 
Q 2881 1009 2881 1497 
Q 2881 1984 2565 2268 
Q 2250 2553 1709 2553 
Q 1456 2553 1204 2497 
Q 953 2441 691 2322 
L 691 4666 
z
" transform="scale(0.015625)"/>
       <path id="DejaVuSans-4e" d="M 628 4666 
L 1478 4666 
L 3547 763 
L 3547 4666 
L 4159 4666 
L 4159 0 
L 3309 0 
L 1241 3903 
L 1241 0 
L 628 0 
L 628 4666 
z
" transform="scale(0.015625)"/>
       <path id="DejaVuSans-2d" d="M 313 2009 
L 1997 2009 
L 1997 1497 
L 313 1497 
L 313 2009 
z
" transform="scale(0.015625)"/>
       <path id="DejaVuSans-41" d="M 2188 4044 
L 1331 1722 
L 3047 1722 
L 2188 4044 
z
M 1831 4666 
L 2547 4666 
L 4325 0 
L 3669 0 
L 3244 1197 
L 1141 1197 
L 716 0 
L 50 0 
L 1831 4666 
z
" transform="scale(0.015625)"/>
       <path id="DejaVuSans-42" d="M 1259 2228 
L 1259 519 
L 2272 519 
Q 2781 519 3026 730 
Q 3272 941 3272 1375 
Q 3272 1813 3026 2020 
Q 2781 2228 2272 2228 
L 1259 2228 
z
M 1259 4147 
L 1259 2741 
L 2194 2741 
Q 2656 2741 2882 2914 
Q 3109 3088 3109 3444 
Q 3109 3797 2882 3972 
Q 2656 4147 2194 4147 
L 1259 4147 
z
M 628 4666 
L 2241 4666 
Q 2963 4666 3353 4366 
Q 3744 4066 3744 3513 
Q 3744 3084 3544 2831 
Q 3344 2578 2956 2516 
Q 3422 2416 3680 2098 
Q 3938 1781 3938 1306 
Q 3938 681 3513 340 
Q 3088 0 2303 0 
L 628 0 
L 628 4666 
z
" transform="scale(0.015625)"/>
       <path id="DejaVuSans-44" d="M 1259 4147 
L 1259 519 
L 2022 519 
Q 2988 519 3436 956 
Q 3884 1394 3884 2338 
Q 3884 3275 3436 3711 
Q 2988 4147 2022 4147 
L 1259 4147 
z
M 628 4666 
L 1925 4666 
Q 3281 4666 3915 4102 
Q 4550 3538 4550 2338 
Q 4550 1131 3912 565 
Q 3275 0 1925 0 
L 628 0 
L 628 4666 
z
" transform="scale(0.015625)"/>
       <path id="DejaVuSans-69" d="M 603 3500 
L 1178 3500 
L 1178 0 
L 603 0 
L 603 3500 
z
M 603 4863 
L 1178 4863 
L 1178 4134 
L 603 4134 
L 603 4863 
z
" transform="scale(0.015625)"/>
       <path id="DejaVuSans-68" d="M 3513 2113 
L 3513 0 
L 2938 0 
L 2938 2094 
Q 2938 2591 2744 2837 
Q 2550 3084 2163 3084 
Q 1697 3084 1428 2787 
Q 1159 2491 1159 1978 
L 1159 0 
L 581 0 
L 581 4863 
L 1159 4863 
L 1159 2956 
Q 1366 3272 1645 3428 
Q 1925 3584 2291 3584 
Q 2894 3584 3203 3211 
Q 3513 2838 3513 2113 
z
" transform="scale(0.015625)"/>
       <path id="DejaVuSans-65" d="M 3597 1894 
L 3597 1613 
L 953 1613 
Q 991 1019 1311 708 
Q 1631 397 2203 397 
Q 2534 397 2845 478 
Q 3156 559 3463 722 
L 3463 178 
Q 3153 47 2828 -22 
Q 2503 -91 2169 -91 
Q 1331 -91 842 396 
Q 353 884 353 1716 
Q 353 2575 817 3079 
Q 1281 3584 2069 3584 
Q 2775 3584 3186 3129 
Q 3597 2675 3597 1894 
z
M 3022 2063 
Q 3016 2534 2758 2815 
Q 2500 3097 2075 3097 
Q 1594 3097 1305 2825 
Q 1016 2553 972 2059 
L 3022 2063 
z
" transform="scale(0.015625)"/>
       <path id="DejaVuSans-64" d="M 2906 2969 
L 2906 4863 
L 3481 4863 
L 3481 0 
L 2906 0 
L 2906 525 
Q 2725 213 2448 61 
Q 2172 -91 1784 -91 
Q 1150 -91 751 415 
Q 353 922 353 1747 
Q 353 2572 751 3078 
Q 1150 3584 1784 3584 
Q 2172 3584 2448 3432 
Q 2725 3281 2906 2969 
z
M 947 1747 
Q 947 1113 1208 752 
Q 1469 391 1925 391 
Q 2381 391 2643 752 
Q 2906 1113 2906 1747 
Q 2906 2381 2643 2742 
Q 2381 3103 1925 3103 
Q 1469 3103 1208 2742 
Q 947 2381 947 1747 
z
" transform="scale(0.015625)"/>
       <path id="DejaVuSans-72" d="M 2631 2963 
Q 2534 3019 2420 3045 
Q 2306 3072 2169 3072 
Q 1681 3072 1420 2755 
Q 1159 2438 1159 1844 
L 1159 0 
L 581 0 
L 581 3500 
L 1159 3500 
L 1159 2956 
Q 1341 3275 1631 3429 
Q 1922 3584 2338 3584 
Q 2397 3584 2469 3576 
Q 2541 3569 2628 3553 
L 2631 2963 
z
" transform="scale(0.015625)"/>
       <path id="DejaVuSans-61" d="M 2194 1759 
Q 1497 1759 1228 1600 
Q 959 1441 959 1056 
Q 959 750 1161 570 
Q 1363 391 1709 391 
Q 2188 391 2477 730 
Q 2766 1069 2766 1631 
L 2766 1759 
L 2194 1759 
z
M 3341 1997 
L 3341 0 
L 2766 0 
L 2766 531 
Q 2569 213 2275 61 
Q 1981 -91 1556 -91 
Q 1019 -91 701 211 
Q 384 513 384 1019 
Q 384 1609 779 1909 
Q 1175 2209 1959 2209 
L 2766 2209 
L 2766 2266 
Q 2766 2663 2505 2880 
Q 2244 3097 1772 3097 
Q 1472 3097 1187 3025 
Q 903 2953 641 2809 
L 641 3341 
Q 956 3463 1253 3523 
Q 1550 3584 1831 3584 
Q 2591 3584 2966 3190 
Q 3341 2797 3341 1997 
z
" transform="scale(0.015625)"/>
       <path id="DejaVuSans-6c" d="M 603 4863 
L 1178 4863 
L 1178 0 
L 603 0 
L 603 4863 
z
" transform="scale(0.015625)"/>
       <path id="DejaVuSans-5b" d="M 550 4863 
L 1875 4863 
L 1875 4416 
L 1125 4416 
L 1125 -397 
L 1875 -397 
L 1875 -844 
L 550 -844 
L 550 4863 
z
" transform="scale(0.015625)"/>
       <path id="DejaVuSans-b0" d="M 1600 4347 
Q 1350 4347 1178 4173 
Q 1006 4000 1006 3750 
Q 1006 3503 1178 3333 
Q 1350 3163 1600 3163 
Q 1850 3163 2022 3333 
Q 2194 3503 2194 3750 
Q 2194 3997 2020 4172 
Q 1847 4347 1600 4347 
z
M 1600 4750 
Q 1800 4750 1984 4673 
Q 2169 4597 2303 4453 
Q 2447 4313 2519 4134 
Q 2591 3956 2591 3750 
Q 2591 3338 2302 3052 
Q 2013 2766 1594 2766 
Q 1172 2766 890 3047 
Q 609 3328 609 3750 
Q 609 4169 896 4459 
Q 1184 4750 1600 4750 
z
" transform="scale(0.015625)"/>
       <path id="DejaVuSans-5d" d="M 1947 4863 
L 1947 -844 
L 622 -844 
L 622 -397 
L 1369 -397 
L 1369 4416 
L 622 4416 
L 622 4863 
L 1947 4863 
z
" transform="scale(0.015625)"/>
      </defs>
      <use xlink:href="#DejaVuSans-43"/>
      <use xlink:href="#DejaVuSans-59" x="68.074219"/>
      <use xlink:href="#DejaVuSans-53" x="129.158203"/>
      <use xlink:href="#DejaVuSans-32" x="192.634766"/>
      <use xlink:href="#DejaVuSans-30" x="256.257812"/>
      <use xlink:href="#DejaVuSans-34" x="319.880859"/>
      <use xlink:href="#DejaVuSans-20" x="383.503906"/>
      <use xlink:href="#DejaVuSans-43" x="415.291016"/>
      <use xlink:href="#DejaVuSans-20" x="485.115234"/>
      <use xlink:href="#DejaVuSans-53" x="516.902344"/>
      <use xlink:href="#DejaVuSans-45" x="580.378906"/>
      <use xlink:href="#DejaVuSans-52" x="643.5625"/>
      <use xlink:href="#DejaVuSans-32" x="713.044922"/>
      <use xlink:href="#DejaVuSans-30" x="776.667969"/>
      <use xlink:href="#DejaVuSans-35" x="840.291016"/>
      <use xlink:href="#DejaVuSans-20" x="903.914062"/>
      <use xlink:href="#DejaVuSans-4e" x="935.701172"/>
      <use xlink:href="#DejaVuSans-2d" x="1010.505859"/>
      <use xlink:href="#DejaVuSans-43" x="1046.589844"/>
      <use xlink:href="#DejaVuSans-41" x="1116.414062"/>
      <use xlink:href="#DejaVuSans-2d" x="1182.572266"/>
      <use xlink:href="#DejaVuSans-43" x="1218.65625"/>
      <use xlink:href="#DejaVuSans-42" x="1288.480469"/>
      <use xlink:href="#DejaVuSans-20" x="1357.083984"/>
      <use xlink:href="#DejaVuSans-44" x="1388.871094"/>
      <use xlink:href="#DejaVuSans-69" x="1465.873047"/>
      <use xlink:href="#DejaVuSans-68" x="1493.65625"/>
      <use xlink:href="#DejaVuSans-65" x="1557.035156"/>
      <use xlink:href="#DejaVuSans-64" x="1618.558594"/>
      <use xlink:href="#DejaVuSans-72" x="1682.035156"/>
      <use xlink:href="#DejaVuSans-61" x="1723.148438"/>
      <use xlink:href="#DejaVuSans-6c" x="1784.427734"/>
      <use xlink:href="#DejaVuSans-20" x="1812.210938"/>
      <use xlink:href="#DejaVuSans-5b" x="1843.998047"/>
      <use xlink:href="#DejaVuSans-b0" x="1883.011719"/>
      <use xlink:href="#DejaVuSans-5d" x="1933.011719"/>
     </g>
    </g>
   </g>
   <g id="matplotlib.axis_2">
    <g id="ytick_1">
     <g id="line2d_10">
      <defs>
       <path id="m52d69cf047" d="M 0 0 
L -3.5 0 
" style="stroke: #000000; stroke-width: 0.8"/>
      </defs>
      <g>
       <use xlink:href="#m52d69cf047" x="60.59" y="303.64" style="stroke: #000000; stroke-width: 0.8"/>
      </g>
     </g>
     <g id="text_9">
      <!-- 0.000 -->
      <g transform="translate(24.961875 307.439219) scale(0.1 -0.1)">
       <defs>
        <path id="DejaVuSans-2e" d="M 684 794 
L 1344 794 
L 1344 0 
L 684 0 
L 684 794 
z
" transform="scale(0.015625)"/>
       </defs>
       <use xlink:href="#DejaVuSans-30"/>
       <use xlink:href="#DejaVuSans-2e" x="63.623047"/>
       <use xlink:href="#DejaVuSans-30" x="95.410156"/>
       <use xlink:href="#DejaVuSans-30" x="159.033203"/>
       <use xlink:href="#DejaVuSans-30" x="222.65625"/>
      </g>
     </g>
    </g>
    <g id="ytick_2">
     <g id="line2d_11">
      <g>
       <use xlink:href="#m52d69cf047" x="60.59" y="269.650046" style="stroke: #000000; stroke-width: 0.8"/>
      </g>
     </g>
     <g id="text_10">
      <!-- 0.002 -->
      <g transform="translate(24.961875 273.449265) scale(0.1 -0.1)">
       <use xlink:href="#DejaVuSans-30"/>
       <use xlink:href="#DejaVuSans-2e" x="63.623047"/>
       <use xlink:href="#DejaVuSans-30" x="95.410156"/>
       <use xlink:href="#DejaVuSans-30" x="159.033203"/>
       <use xlink:href="#DejaVuSans-32" x="222.65625"/>
      </g>
     </g>
    </g>
    <g id="ytick_3">
     <g id="line2d_12">
      <g>
       <use xlink:href="#m52d69cf047" x="60.59" y="235.660092" style="stroke: #000000; stroke-width: 0.8"/>
      </g>
     </g>
     <g id="text_11">
      <!-- 0.004 -->
      <g transform="translate(24.961875 239.459311) scale(0.1 -0.1)">
       <use xlink:href="#DejaVuSans-30"/>
       <use xlink:href="#DejaVuSans-2e" x="63.623047"/>
       <use xlink:href="#DejaVuSans-30" x="95.410156"/>
       <use xlink:href="#DejaVuSans-30" x="159.033203"/>
       <use xlink:href="#DejaVuSans-34" x="222.65625"/>
      </g>
     </g>
    </g>
    <g id="ytick_4">
     <g id="line2d_13">
      <g>
       <use xlink:href="#m52d69cf047" x="60.59" y="201.670138" style="stroke: #000000; stroke-width: 0.8"/>
      </g>
     </g>
     <g id="text_12">
      <!-- 0.006 -->
      <g transform="translate(24.961875 205.469357) scale(0.1 -0.1)">
       <use xlink:href="#DejaVuSans-30"/>
       <use xlink:href="#DejaVuSans-2e" x="63.623047"/>
       <use xlink:href="#DejaVuSans-30" x="95.410156"/>
       <use xlink:href="#DejaVuSans-30" x="159.033203"/>
       <use xlink:href="#DejaVuSans-36" x="222.65625"/>
      </g>
     </g>
    </g>
    <g id="ytick_5">
     <g id="line2d_14">
      <g>
       <use xlink:href="#m52d69cf047" x="60.59" y="167.680184" style="stroke: #000000; stroke-width: 0.8"/>
      </g>
     </g>
     <g id="text_13">
      <!-- 0.008 -->
      <g transform="translate(24.961875 171.479403) scale(0.1 -0.1)">
       <use xlink:href="#DejaVuSans-30"/>
       <use xlink:href="#DejaVuSans-2e" x="63.623047"/>
       <use xlink:href="#DejaVuSans-30" x="95.410156"/>
       <use xlink:href="#DejaVuSans-30" x="159.033203"/>
       <use xlink:href="#DejaVuSans-38" x="222.65625"/>
      </g>
     </g>
    </g>
    <g id="ytick_6">
     <g id="line2d_15">
      <g>
       <use xlink:href="#m52d69cf047" x="60.59" y="133.69023" style="stroke: #000000; stroke-width: 0.8"/>
      </g>
     </g>
     <g id="text_14">
      <!-- 0.010 -->
      <g transform="translate(24.961875 137.489449) scale(0.1 -0.1)">
       <use xlink:href="#DejaVuSans-30"/>
       <use xlink:href="#DejaVuSans-2e" x="63.623047"/>
       <use xlink:href="#DejaVuSans-30" x="95.410156"/>
       <use xlink:href="#DejaVuSans-31" x="159.033203"/>
       <use xlink:href="#DejaVuSans-30" x="222.65625"/>
      </g>
     </g>
    </g>
    <g id="ytick_7">
     <g id="line2d_16">
      <g>
       <use xlink:href="#m52d69cf047" x="60.59" y="99.700276" style="stroke: #000000; stroke-width: 0.8"/>
      </g>
     </g>
     <g id="text_15">
      <!-- 0.012 -->
      <g transform="translate(24.961875 103.499495) scale(0.1 -0.1)">
       <use xlink:href="#DejaVuSans-30"/>
       <use xlink:href="#DejaVuSans-2e" x="63.623047"/>
       <use xlink:href="#DejaVuSans-30" x="95.410156"/>
       <use xlink:href="#DejaVuSans-31" x="159.033203"/>
       <use xlink:href="#DejaVuSans-32" x="222.65625"/>
      </g>
     </g>
    </g>
    <g id="ytick_8">
     <g id="line2d_17">
      <g>
       <use xlink:href="#m52d69cf047" x="60.59" y="65.710322" style="stroke: #000000; stroke-width: 0.8"/>
      </g>
     </g>
     <g id="text_16">
      <!-- 0.014 -->
      <g transform="translate(24.961875 69.509541) scale(0.1 -0.1)">
       <use xlink:href="#DejaVuSans-30"/>
       <use xlink:href="#DejaVuSans-2e" x="63.623047"/>
       <use xlink:href="#DejaVuSans-30" x="95.410156"/>
       <use xlink:href="#DejaVuSans-31" x="159.033203"/>
       <use xlink:href="#DejaVuSans-34" x="222.65625"/>
      </g>
     </g>
    </g>
    <g id="ytick_9">
     <g id="line2d_18">
      <g>
       <use xlink:href="#m52d69cf047" x="60.59" y="31.720368" style="stroke: #000000; stroke-width: 0.8"/>
      </g>
     </g>
     <g id="text_17">
      <!-- 0.016 -->
      <g transform="translate(24.961875 35.519587) scale(0.1 -0.1)">
       <use xlink:href="#DejaVuSans-30"/>
       <use xlink:href="#DejaVuSans-2e" x="63.623047"/>
       <use xlink:href="#DejaVuSans-30" x="95.410156"/>
       <use xlink:href="#DejaVuSans-31" x="159.033203"/>
       <use xlink:href="#DejaVuSans-36" x="222.65625"/>
      </g>
     </g>
    </g>
    <g id="text_18">
     <!-- Density -->
     <g transform="translate(18.882188 176.228594) rotate(-90) scale(0.1 -0.1)">
      <defs>
       <path id="DejaVuSans-6e" d="M 3513 2113 
L 3513 0 
L 2938 0 
L 2938 2094 
Q 2938 2591 2744 2837 
Q 2550 3084 2163 3084 
Q 1697 3084 1428 2787 
Q 1159 2491 1159 1978 
L 1159 0 
L 581 0 
L 581 3500 
L 1159 3500 
L 1159 2956 
Q 1366 3272 1645 3428 
Q 1925 3584 2291 3584 
Q 2894 3584 3203 3211 
Q 3513 2838 3513 2113 
z
" transform="scale(0.015625)"/>
       <path id="DejaVuSans-73" d="M 2834 3397 
L 2834 2853 
Q 2591 2978 2328 3040 
Q 2066 3103 1784 3103 
Q 1356 3103 1142 2972 
Q 928 2841 928 2578 
Q 928 2378 1081 2264 
Q 1234 2150 1697 2047 
L 1894 2003 
Q 2506 1872 2764 1633 
Q 3022 1394 3022 966 
Q 3022 478 2636 193 
Q 2250 -91 1575 -91 
Q 1294 -91 989 -36 
Q 684 19 347 128 
L 347 722 
Q 666 556 975 473 
Q 1284 391 1588 391 
Q 1994 391 2212 530 
Q 2431 669 2431 922 
Q 2431 1156 2273 1281 
Q 2116 1406 1581 1522 
L 1381 1569 
Q 847 1681 609 1914 
Q 372 2147 372 2553 
Q 372 3047 722 3315 
Q 1072 3584 1716 3584 
Q 2034 3584 2315 3537 
Q 2597 3491 2834 3397 
z
" transform="scale(0.015625)"/>
       <path id="DejaVuSans-74" d="M 1172 4494 
L 1172 3500 
L 2356 3500 
L 2356 3053 
L 1172 3053 
L 1172 1153 
Q 1172 725 1289 603 
Q 1406 481 1766 481 
L 2356 481 
L 2356 0 
L 1766 0 
Q 1100 0 847 248 
Q 594 497 594 1153 
L 594 3053 
L 172 3053 
L 172 3500 
L 594 3500 
L 594 4494 
L 1172 4494 
z
" transform="scale(0.015625)"/>
       <path id="DejaVuSans-79" d="M 2059 -325 
Q 1816 -950 1584 -1140 
Q 1353 -1331 966 -1331 
L 506 -1331 
L 506 -850 
L 844 -850 
Q 1081 -850 1212 -737 
Q 1344 -625 1503 -206 
L 1606 56 
L 191 3500 
L 800 3500 
L 1894 763 
L 2988 3500 
L 3597 3500 
L 2059 -325 
z
" transform="scale(0.015625)"/>
      </defs>
      <use xlink:href="#DejaVuSans-44"/>
      <use xlink:href="#DejaVuSans-65" x="77.001953"/>
      <use xlink:href="#DejaVuSans-6e" x="138.525391"/>
      <use xlink:href="#DejaVuSans-73" x="201.904297"/>
      <use xlink:href="#DejaVuSans-69" x="254.003906"/>
      <use xlink:href="#DejaVuSans-74" x="281.787109"/>
      <use xlink:href="#DejaVuSans-79" x="320.996094"/>
     </g>
    </g>
   </g>
   <g id="line2d_19">
    <path d="M 60.59 195.12634 
L 61.759399 194.857522 
L 62.928799 194.790902 
L 64.098198 195.011056 
L 64.877798 195.363728 
L 65.657397 195.903012 
L 66.826797 197.06312 
L 67.996196 198.586701 
L 69.945195 201.619432 
L 73.063594 206.959409 
L 75.402392 211.452809 
L 82.418789 226.077858 
L 84.757588 231.259311 
L 87.486186 237.902776 
L 94.892382 256.379482 
L 96.841381 260.49658 
L 98.79038 264.102541 
L 101.129179 267.918682 
L 103.078178 270.689298 
L 104.637377 272.574273 
L 106.196577 274.15 
L 108.145576 275.767147 
L 110.094575 277.106671 
L 112.043574 278.16462 
L 113.602773 278.750254 
L 115.161972 279.088188 
L 116.721171 279.190522 
L 118.28037 279.043023 
L 119.44977 278.733174 
L 120.619169 278.215789 
L 121.788569 277.464655 
L 122.957968 276.471205 
L 124.517167 274.797612 
L 126.466166 272.264039 
L 128.415165 269.351924 
L 130.364164 265.991293 
L 131.923363 262.861341 
L 133.482563 259.296386 
L 135.431562 254.265416 
L 137.380561 248.592193 
L 139.32956 242.14021 
L 141.278559 234.824871 
L 143.617357 225.143907 
L 147.125556 209.578182 
L 149.854154 196.494426 
L 152.582753 182.145515 
L 159.988949 142.03516 
L 163.497147 124.598416 
L 166.615546 110.082779 
L 168.954344 100.124248 
L 170.513544 94.354394 
L 171.682943 90.677043 
L 172.852342 87.625915 
L 174.021742 85.210819 
L 175.191141 83.421993 
L 175.970741 82.578513 
L 176.75034 82.024204 
L 177.52994 81.774347 
L 178.30954 81.847453 
L 179.089139 82.261928 
L 179.868739 83.033398 
L 180.648338 84.173418 
L 181.427938 85.689409 
L 182.207538 87.585023 
L 183.376937 91.138214 
L 184.546336 95.518844 
L 186.105536 102.527568 
L 187.664735 110.609685 
L 190.003534 124.000283 
L 193.121932 143.256334 
L 195.460731 159.070245 
L 198.189329 179.341057 
L 203.646527 220.598818 
L 205.985325 236.080009 
L 208.324124 249.841084 
L 210.273123 260.094226 
L 212.222122 269.130946 
L 213.781321 275.347403 
L 215.340521 280.622075 
L 216.89972 285.023365 
L 218.458919 288.685471 
L 220.018118 291.751915 
L 221.577317 294.334943 
L 223.136517 296.499662 
L 224.695716 298.272126 
L 226.254915 299.667145 
L 227.814114 300.718747 
L 229.373313 301.489736 
L 231.322312 302.170402 
L 233.661111 302.712308 
L 236.38971 303.093475 
L 240.287708 303.381526 
L 246.134705 303.569749 
L 256.659299 303.639689 
L 351.380651 303.552872 
L 369.311441 303.159361 
L 379.056436 302.319701 
L 381.785035 301.930789 
L 385.293233 301.176674 
L 389.191231 300.160804 
L 391.14023 299.443163 
L 393.089229 298.461051 
L 395.428028 296.969003 
L 398.546426 294.684355 
L 400.495425 293.015848 
L 402.054625 291.420261 
L 404.003624 289.042326 
L 406.342422 285.727804 
L 408.681221 282.040579 
L 411.02002 277.920579 
L 412.969019 274.037682 
L 414.918018 269.6915 
L 417.646617 262.951807 
L 427.001812 239.192114 
L 433.238609 223.750196 
L 439.865205 207.46766 
L 441.814204 203.565491 
L 443.373403 200.907869 
L 444.932603 198.72078 
L 446.102002 197.434123 
L 447.271401 196.456164 
L 448.440801 195.749028 
L 450 195.12634 
L 450 195.12634 
" clip-path="url(#p6c252ce9ba)" style="fill: none; stroke: #f99752; stroke-width: 2.5; stroke-linecap: square"/>
   </g>
   <g id="patch_3">
    <path d="M 60.59 303.64 
L 60.59 10.8 
" style="fill: none; stroke: #000000; stroke-width: 0.8; stroke-linejoin: miter; stroke-linecap: square"/>
   </g>
   <g id="patch_4">
    <path d="M 450 303.64 
L 450 10.8 
" style="fill: none; stroke: #000000; stroke-width: 0.8; stroke-linejoin: miter; stroke-linecap: square"/>
   </g>
   <g id="patch_5">
    <path d="M 60.59 303.64 
L 450 303.64 
" style="fill: none; stroke: #000000; stroke-width: 0.8; stroke-linejoin: miter; stroke-linecap: square"/>
   </g>
   <g id="patch_6">
    <path d="M 60.59 10.8 
L 450 10.8 
" style="fill: none; stroke: #000000; stroke-width: 0.8; stroke-linejoin: miter; stroke-linecap: square"/>
   </g>
   <g id="legend_1">
    <g id="patch_7">
     <path d="M 217.572344 62.834375 
L 293.017656 62.834375 
Q 295.017656 62.834375 295.017656 60.834375 
L 295.017656 17.8 
Q 295.017656 15.8 293.017656 15.8 
L 217.572344 15.8 
Q 215.572344 15.8 215.572344 17.8 
L 215.572344 60.834375 
Q 215.572344 62.834375 217.572344 62.834375 
z
" style="fill: #ffffff; opacity: 0.8; stroke: #cccccc; stroke-linejoin: miter"/>
    </g>
    <g id="line2d_20">
     <path d="M 219.572344 23.898438 
L 229.572344 23.898438 
L 239.572344 23.898438 
" style="fill: none; stroke: #1e2e79; stroke-width: 2.5; stroke-linecap: square"/>
    </g>
    <g id="text_19">
     <!-- Reduced -->
     <g transform="translate(247.572344 27.398438) scale(0.1 -0.1)">
      <defs>
       <path id="DejaVuSans-75" d="M 544 1381 
L 544 3500 
L 1119 3500 
L 1119 1403 
Q 1119 906 1312 657 
Q 1506 409 1894 409 
Q 2359 409 2629 706 
Q 2900 1003 2900 1516 
L 2900 3500 
L 3475 3500 
L 3475 0 
L 2900 0 
L 2900 538 
Q 2691 219 2414 64 
Q 2138 -91 1772 -91 
Q 1169 -91 856 284 
Q 544 659 544 1381 
z
M 1991 3584 
L 1991 3584 
z
" transform="scale(0.015625)"/>
       <path id="DejaVuSans-63" d="M 3122 3366 
L 3122 2828 
Q 2878 2963 2633 3030 
Q 2388 3097 2138 3097 
Q 1578 3097 1268 2742 
Q 959 2388 959 1747 
Q 959 1106 1268 751 
Q 1578 397 2138 397 
Q 2388 397 2633 464 
Q 2878 531 3122 666 
L 3122 134 
Q 2881 22 2623 -34 
Q 2366 -91 2075 -91 
Q 1284 -91 818 406 
Q 353 903 353 1747 
Q 353 2603 823 3093 
Q 1294 3584 2113 3584 
Q 2378 3584 2631 3529 
Q 2884 3475 3122 3366 
z
" transform="scale(0.015625)"/>
      </defs>
      <use xlink:href="#DejaVuSans-52"/>
      <use xlink:href="#DejaVuSans-65" x="64.982422"/>
      <use xlink:href="#DejaVuSans-64" x="126.505859"/>
      <use xlink:href="#DejaVuSans-75" x="189.982422"/>
      <use xlink:href="#DejaVuSans-63" x="253.361328"/>
      <use xlink:href="#DejaVuSans-65" x="308.341797"/>
      <use xlink:href="#DejaVuSans-64" x="369.865234"/>
     </g>
    </g>
    <g id="line2d_21">
     <path d="M 219.572344 38.576563 
L 229.572344 38.576563 
L 239.572344 38.576563 
" style="fill: none; stroke: #ec4067; stroke-width: 2.5; stroke-linecap: square"/>
    </g>
    <g id="text_20">
     <!-- Oxidized -->
     <g transform="translate(247.572344 42.076563) scale(0.1 -0.1)">
      <defs>
       <path id="DejaVuSans-4f" d="M 2522 4238 
Q 1834 4238 1429 3725 
Q 1025 3213 1025 2328 
Q 1025 1447 1429 934 
Q 1834 422 2522 422 
Q 3209 422 3611 934 
Q 4013 1447 4013 2328 
Q 4013 3213 3611 3725 
Q 3209 4238 2522 4238 
z
M 2522 4750 
Q 3503 4750 4090 4092 
Q 4678 3434 4678 2328 
Q 4678 1225 4090 567 
Q 3503 -91 2522 -91 
Q 1538 -91 948 565 
Q 359 1222 359 2328 
Q 359 3434 948 4092 
Q 1538 4750 2522 4750 
z
" transform="scale(0.015625)"/>
       <path id="DejaVuSans-78" d="M 3513 3500 
L 2247 1797 
L 3578 0 
L 2900 0 
L 1881 1375 
L 863 0 
L 184 0 
L 1544 1831 
L 300 3500 
L 978 3500 
L 1906 2253 
L 2834 3500 
L 3513 3500 
z
" transform="scale(0.015625)"/>
       <path id="DejaVuSans-7a" d="M 353 3500 
L 3084 3500 
L 3084 2975 
L 922 459 
L 3084 459 
L 3084 0 
L 275 0 
L 275 525 
L 2438 3041 
L 353 3041 
L 353 3500 
z
" transform="scale(0.015625)"/>
      </defs>
      <use xlink:href="#DejaVuSans-4f"/>
      <use xlink:href="#DejaVuSans-78" x="78.710938"/>
      <use xlink:href="#DejaVuSans-69" x="137.890625"/>
      <use xlink:href="#DejaVuSans-64" x="165.673828"/>
      <use xlink:href="#DejaVuSans-69" x="229.150391"/>
      <use xlink:href="#DejaVuSans-7a" x="256.933594"/>
      <use xlink:href="#DejaVuSans-65" x="309.423828"/>
      <use xlink:href="#DejaVuSans-64" x="370.947266"/>
     </g>
    </g>
    <g id="line2d_22">
     <path d="M 219.572344 53.254688 
L 229.572344 53.254688 
L 239.572344 53.254688 
" style="fill: none; stroke: #f99752; stroke-width: 2.5; stroke-linecap: square"/>
    </g>
    <g id="text_21">
     <!-- Cu$^{+}$ -->
     <g transform="translate(247.572344 56.754688) scale(0.1 -0.1)">
      <defs>
       <path id="DejaVuSans-2b" d="M 2944 4013 
L 2944 2272 
L 4684 2272 
L 4684 1741 
L 2944 1741 
L 2944 0 
L 2419 0 
L 2419 1741 
L 678 1741 
L 678 2272 
L 2419 2272 
L 2419 4013 
L 2944 4013 
z
" transform="scale(0.015625)"/>
      </defs>
      <use xlink:href="#DejaVuSans-43" transform="translate(0 0.826562)"/>
      <use xlink:href="#DejaVuSans-75" transform="translate(69.824219 0.826562)"/>
      <use xlink:href="#DejaVuSans-2b" transform="translate(134.160156 39.107812) scale(0.7)"/>
     </g>
    </g>
   </g>
  </g>
 </g>
 <defs>
  <clipPath id="p6c252ce9ba">
   <rect x="60.59" y="10.8" width="389.41" height="292.84"/>
  </clipPath>
 </defs>
</svg>
