<?xml version="1.0" encoding="utf-8" standalone="no"?>
<!DOCTYPE svg PUBLIC "-//W3C//DTD SVG 1.1//EN"
  "http://www.w3.org/Graphics/SVG/1.1/DTD/svg11.dtd">
<svg xmlns:xlink="http://www.w3.org/1999/xlink" width="252pt" height="216pt" viewBox="0 0 252 216" xmlns="http://www.w3.org/2000/svg" version="1.1">
 <metadata>
  <rdf:RDF xmlns:dc="http://purl.org/dc/elements/1.1/" xmlns:cc="http://creativecommons.org/ns#" xmlns:rdf="http://www.w3.org/1999/02/22-rdf-syntax-ns#">
   <cc:Work>
    <dc:type rdf:resource="http://purl.org/dc/dcmitype/StillImage"/>
    <dc:date>2024-12-06T23:00:03.009854</dc:date>
    <dc:format>image/svg+xml</dc:format>
    <dc:creator>
     <cc:Agent>
      <dc:title>Matplotlib v3.9.2, https://matplotlib.org/</dc:title>
     </cc:Agent>
    </dc:creator>
   </cc:Work>
  </rdf:RDF>
 </metadata>
 <defs>
  <style type="text/css">*{stroke-linejoin: round; stroke-linecap: butt}</style>
 </defs>
 <g id="figure_1">
  <g id="patch_1">
   <path d="M 0 216 
L 252 216 
L 252 0 
L 0 0 
z
" style="fill: #ffffff"/>
  </g>
  <g id="axes_1">
   <g id="patch_2">
    <path d="M 47.45 179.512 
L 236.61 179.512 
L 236.61 8.64 
L 47.45 8.64 
z
" style="fill: #ffffff"/>
   </g>
   <g id="line2d_1">
    <path d="M 47.45 179.512 
L 72.70286 179.401607 
L 76.20232 179.211739 
L 78.09392 179.012101 
L 79.89094 178.586981 
L 84.05246 177.253017 
L 88.49772 174.372074 
L 89.82184 173.34045 
L 90.9568 172.436766 
L 91.80802 171.436183 
L 92.65924 170.076837 
L 93.3213 168.61284 
L 93.98336 166.620443 
L 95.11832 162.283789 
L 96.1587 158.653173 
L 99.09068 149.516021 
L 100.32022 144.683447 
L 101.54976 138.883694 
L 103.91426 127.254656 
L 104.86006 124.106613 
L 105.90044 120.573984 
L 106.65708 117.097415 
L 107.69746 111.09721 
L 108.83242 103.225374 
L 109.96738 93.745915 
L 112.52104 71.640296 
L 113.08852 69.005401 
L 113.46684 68.060377 
L 113.84516 67.644236 
L 114.88554 67.031352 
L 115.16928 66.39375 
L 115.5476 64.963417 
L 116.11508 61.625707 
L 117.9121 49.72819 
L 118.385 48.266764 
L 118.76332 47.758807 
L 119.04706 47.706891 
L 119.3308 47.876542 
L 119.8037 48.482873 
L 121.60072 51.116107 
L 123.01942 52.663419 
L 123.39774 52.796897 
L 123.68148 52.69061 
L 123.96522 52.358404 
L 124.34354 51.523166 
L 124.81644 49.879108 
L 126.51888 43.254469 
L 126.80262 42.91746 
L 127.08636 42.932237 
L 127.3701 43.288349 
L 127.74842 44.23543 
L 128.3159 46.428958 
L 129.35628 51.680133 
L 131.05872 60.227373 
L 131.81536 62.879064 
L 133.61238 68.178915 
L 134.27444 71.686024 
L 135.97688 81.298633 
L 136.92268 84.857031 
L 137.96306 88.968601 
L 139.1926 95.077544 
L 140.51672 101.224125 
L 141.93542 107.65712 
L 143.16496 114.601447 
L 145.3403 126.831557 
L 147.51564 137.954564 
L 148.27228 140.782435 
L 148.93434 142.502049 
L 149.88014 144.242327 
L 150.63678 145.783291 
L 151.29884 147.629739 
L 152.15006 150.745893 
L 154.70372 160.726467 
L 155.2712 161.94462 
L 155.7441 162.534746 
L 156.31158 162.878343 
L 157.35196 163.390838 
L 157.91944 164.005531 
L 158.67608 165.249025 
L 161.98638 171.313426 
L 163.12134 172.59588 
L 166.33706 175.726142 
L 167.28286 176.348528 
L 168.0395 176.591173 
L 169.07988 176.643081 
L 170.49858 176.739623 
L 174.75468 177.567988 
L 176.36254 178.264683 
L 177.4975 178.627002 
L 178.82162 178.751264 
L 183.83436 179.162237 
L 186.0097 179.469222 
L 188.65794 179.511826 
L 236.70458 179.512 
L 236.70458 179.512 
" clip-path="url(#p437c382a8e)" style="fill: none; stroke: #1e2e79; stroke-width: 1.5; stroke-linecap: square"/>
   </g>
   <g id="line2d_2">
    <path d="M 47.45 179.512 
L 56.62426 179.40912 
L 59.08334 179.243505 
L 61.06952 179.109685 
L 64.56898 178.444325 
L 65.98768 177.627863 
L 67.12264 177.022107 
L 67.87928 176.872099 
L 68.82508 176.683535 
L 69.29798 176.360754 
L 69.86546 175.665305 
L 70.6221 174.27815 
L 72.32454 170.982383 
L 73.08118 169.575517 
L 73.64866 167.975251 
L 74.4053 164.946128 
L 76.20232 157.39248 
L 77.2427 153.999653 
L 78.28308 150.684902 
L 78.94514 147.723783 
L 79.79636 142.697947 
L 81.30964 131.926683 
L 84.61994 107.703614 
L 85.56574 99.247643 
L 87.93024 74.266246 
L 89.0652 61.354868 
L 89.91642 52.449937 
L 90.4839 48.605999 
L 92.47008 37.770304 
L 94.45626 23.506559 
L 95.02374 21.431015 
L 95.40206 20.711922 
L 95.78038 20.459151 
L 96.1587 20.540412 
L 96.91534 20.83604 
L 97.19908 20.713883 
L 97.5774 20.236546 
L 98.14488 18.98925 
L 98.9961 17.137342 
L 99.37442 16.796172 
L 99.65816 16.817064 
L 100.03648 17.17474 
L 101.17144 18.58504 
L 101.45518 18.543799 
L 101.92808 18.130502 
L 102.3064 17.852364 
L 102.49556 17.872765 
L 102.68472 18.061224 
L 102.96846 18.721001 
L 103.34678 20.318364 
L 104.10342 24.966392 
L 104.86006 29.090634 
L 106.27876 35.753177 
L 107.0354 41.433292 
L 108.17036 49.765879 
L 110.44028 64.133343 
L 111.57524 72.404913 
L 112.99394 81.998656 
L 114.22348 91.045008 
L 115.83134 100.856103 
L 116.4934 107.70317 
L 118.00668 124.229055 
L 118.66874 128.567117 
L 120.46576 138.726122 
L 121.31698 143.325881 
L 122.07362 146.235731 
L 122.92484 148.644265 
L 123.77606 150.36853 
L 124.62728 152.107187 
L 125.19476 153.871516 
L 126.04598 157.435635 
L 127.55926 163.763183 
L 128.59964 167.118448 
L 129.54544 169.426626 
L 130.2075 170.565313 
L 130.77498 171.168927 
L 131.34246 171.472643 
L 132.28826 171.655222 
L 133.0449 171.89287 
L 133.61238 172.350111 
L 134.27444 173.2319 
L 135.22024 174.512629 
L 135.78772 174.906726 
L 136.44978 175.045397 
L 137.49016 175.228062 
L 140.04382 176.204903 
L 140.80046 176.648739 
L 142.59748 177.836286 
L 143.73244 178.180455 
L 149.97472 179.307923 
L 151.20426 179.220499 
L 152.4338 179.193333 
L 154.98746 179.320135 
L 156.50074 179.41242 
L 158.5815 179.50985 
L 163.3105 179.430925 
L 165.29668 179.351001 
L 168.70156 179.511696 
L 236.70458 179.512 
L 236.70458 179.512 
" clip-path="url(#p437c382a8e)" style="fill: none; stroke: #ec4067; stroke-width: 1.5; stroke-linecap: square"/>
   </g>
   <g id="matplotlib.axis_1">
    <g id="xtick_1">
     <g id="line2d_3">
      <defs>
       <path id="m2f8abb249f" d="M 0 0 
L 0 3.5 
" style="stroke: #c2c1c1; stroke-width: 0.8"/>
      </defs>
      <g>
       <use xlink:href="#m2f8abb249f" x="71.095" y="179.512" style="fill: #c2c1c1; stroke: #c2c1c1; stroke-width: 0.8"/>
      </g>
     </g>
     <g id="text_1">
      <!-- 100 -->
      <g style="fill: #191919" transform="translate(64.350625 192.512) scale(0.08 -0.08)">
       <defs>
        <path id="Roboto-Regular-31" d="M 2278 4575 
L 2278 0 
L 1700 0 
L 1700 3853 
L 534 3428 
L 534 3950 
L 2188 4575 
L 2278 4575 
z
" transform="scale(0.015625)"/>
        <path id="Roboto-Regular-30" d="M 3234 1944 
Q 3234 825 2848 381 
Q 2463 -63 1800 -63 
Q 1156 -63 764 368 
Q 372 800 359 1872 
L 359 2638 
Q 359 3753 750 4183 
Q 1141 4613 1794 4613 
Q 2447 4613 2834 4195 
Q 3222 3778 3234 2709 
L 3234 1944 
z
M 2653 2734 
Q 2653 3503 2434 3822 
Q 2216 4141 1794 4141 
Q 1388 4141 1167 3831 
Q 947 3522 941 2778 
L 941 1850 
Q 941 1088 1164 750 
Q 1388 413 1800 413 
Q 2222 413 2436 745 
Q 2650 1078 2653 1825 
L 2653 2734 
z
" transform="scale(0.015625)"/>
       </defs>
       <use xlink:href="#Roboto-Regular-31"/>
       <use xlink:href="#Roboto-Regular-30" x="56.201172"/>
       <use xlink:href="#Roboto-Regular-30" x="112.402344"/>
      </g>
     </g>
    </g>
    <g id="xtick_2">
     <g id="line2d_4">
      <g>
       <use xlink:href="#m2f8abb249f" x="118.385" y="179.512" style="fill: #c2c1c1; stroke: #c2c1c1; stroke-width: 0.8"/>
      </g>
     </g>
     <g id="text_2">
      <!-- 150 -->
      <g style="fill: #191919" transform="translate(111.640625 192.512) scale(0.08 -0.08)">
       <defs>
        <path id="Roboto-Regular-35" d="M 1109 2166 
L 647 2284 
L 875 4550 
L 3209 4550 
L 3209 4016 
L 1366 4016 
L 1228 2778 
Q 1572 2975 1988 2975 
Q 2616 2975 2980 2561 
Q 3344 2147 3344 1450 
Q 3344 797 2987 367 
Q 2631 -63 1903 -63 
Q 1350 -63 947 248 
Q 544 559 481 1197 
L 1031 1197 
Q 1141 413 1903 413 
Q 2313 413 2538 691 
Q 2763 969 2763 1444 
Q 2763 1872 2527 2164 
Q 2291 2456 1853 2456 
Q 1563 2456 1413 2378 
Q 1263 2300 1109 2166 
z
" transform="scale(0.015625)"/>
       </defs>
       <use xlink:href="#Roboto-Regular-31"/>
       <use xlink:href="#Roboto-Regular-35" x="56.201172"/>
       <use xlink:href="#Roboto-Regular-30" x="112.402344"/>
      </g>
     </g>
    </g>
    <g id="xtick_3">
     <g id="line2d_5">
      <g>
       <use xlink:href="#m2f8abb249f" x="165.675" y="179.512" style="fill: #c2c1c1; stroke: #c2c1c1; stroke-width: 0.8"/>
      </g>
     </g>
     <g id="text_3">
      <!-- 200 -->
      <g style="fill: #191919" transform="translate(158.930625 192.512) scale(0.08 -0.08)">
       <defs>
        <path id="Roboto-Regular-32" d="M 3359 475 
L 3359 0 
L 381 0 
L 381 416 
L 1925 2134 
Q 2306 2566 2439 2819 
Q 2572 3072 2572 3328 
Q 2572 3663 2364 3900 
Q 2156 4138 1778 4138 
Q 1322 4138 1097 3878 
Q 872 3619 872 3213 
L 294 3213 
Q 294 3788 672 4200 
Q 1050 4613 1778 4613 
Q 2422 4613 2786 4278 
Q 3150 3944 3150 3397 
Q 3150 2997 2903 2592 
Q 2656 2188 2297 1797 
L 1078 475 
L 3359 475 
z
" transform="scale(0.015625)"/>
       </defs>
       <use xlink:href="#Roboto-Regular-32"/>
       <use xlink:href="#Roboto-Regular-30" x="56.201172"/>
       <use xlink:href="#Roboto-Regular-30" x="112.402344"/>
      </g>
     </g>
    </g>
    <g id="xtick_4">
     <g id="line2d_6">
      <g>
       <use xlink:href="#m2f8abb249f" x="212.965" y="179.512" style="fill: #c2c1c1; stroke: #c2c1c1; stroke-width: 0.8"/>
      </g>
     </g>
     <g id="text_4">
      <!-- 250 -->
      <g style="fill: #191919" transform="translate(206.220625 192.512) scale(0.08 -0.08)">
       <use xlink:href="#Roboto-Regular-32"/>
       <use xlink:href="#Roboto-Regular-35" x="56.201172"/>
       <use xlink:href="#Roboto-Regular-30" x="112.402344"/>
      </g>
     </g>
    </g>
    <g id="text_5">
     <!-- Cro66 Pocket Volume [Å$^3$] -->
     <g style="fill: #191919" transform="translate(94.87 205.472) scale(0.08 -0.08)">
      <defs>
       <path id="Roboto-Bold-43" d="M 3044 1516 
L 3981 1516 
Q 3934 822 3461 379 
Q 2988 -63 2150 -63 
Q 1275 -63 772 526 
Q 269 1116 269 2125 
L 269 2422 
Q 269 3431 784 4023 
Q 1300 4616 2159 4616 
Q 3013 4616 3466 4161 
Q 3919 3706 3984 3006 
L 3047 3006 
Q 3016 3413 2820 3630 
Q 2625 3847 2159 3847 
Q 1247 3847 1222 2500 
L 1222 2125 
Q 1222 1419 1436 1062 
Q 1650 706 2150 706 
Q 2594 706 2801 907 
Q 3009 1109 3044 1516 
z
" transform="scale(0.015625)"/>
       <path id="Roboto-Bold-72" d="M 1922 2563 
Q 1413 2563 1253 2216 
L 1253 0 
L 347 0 
L 347 3381 
L 1200 3381 
L 1228 2978 
Q 1494 3444 1981 3444 
Q 2153 3444 2259 3403 
L 2250 2538 
L 1922 2563 
z
" transform="scale(0.015625)"/>
       <path id="Roboto-Bold-6f" d="M 206 1722 
Q 206 2459 625 2951 
Q 1044 3444 1806 3444 
Q 2578 3444 2993 2951 
Q 3409 2459 3409 1722 
L 3409 1656 
Q 3409 919 2993 428 
Q 2578 -63 1813 -63 
Q 1053 -63 636 415 
Q 219 894 206 1616 
L 206 1722 
z
M 1113 1656 
Q 1113 1244 1270 955 
Q 1428 666 1813 666 
Q 2191 666 2348 953 
Q 2506 1241 2506 1722 
Q 2506 2125 2348 2420 
Q 2191 2716 1806 2716 
Q 1425 2716 1269 2422 
Q 1113 2128 1113 1656 
z
" transform="scale(0.015625)"/>
       <path id="Roboto-Bold-36" d="M 3450 1500 
Q 3450 838 3033 387 
Q 2616 -63 1916 -63 
Q 1188 -63 752 443 
Q 316 950 316 1750 
L 316 2097 
Q 316 3200 925 3898 
Q 1534 4597 2634 4597 
L 2763 4597 
L 2763 3853 
L 2672 3853 
Q 2050 3844 1688 3538 
Q 1313 3219 1238 2675 
Q 1603 3047 2156 3047 
Q 2800 3047 3125 2589 
Q 3450 2131 3450 1500 
z
M 1219 1631 
Q 1219 1150 1408 909 
Q 1597 669 1900 669 
Q 2194 669 2370 901 
Q 2547 1134 2547 1491 
Q 2547 1853 2370 2087 
Q 2194 2322 1881 2322 
Q 1641 2322 1469 2198 
Q 1297 2075 1219 1903 
L 1219 1631 
z
" transform="scale(0.015625)"/>
       <path id="Roboto-Bold-20" transform="scale(0.015625)"/>
       <path id="Roboto-Bold-50" d="M 1347 1606 
L 1347 0 
L 406 0 
L 406 4550 
L 2184 4550 
Q 2991 4550 3442 4125 
Q 3894 3700 3894 3047 
Q 3894 2388 3442 1997 
Q 2991 1606 2184 1606 
L 1347 1606 
z
M 1347 3791 
L 1347 2363 
L 2184 2363 
Q 2588 2363 2766 2553 
Q 2944 2744 2944 3041 
Q 2944 3338 2766 3564 
Q 2588 3791 2184 3791 
L 1347 3791 
z
" transform="scale(0.015625)"/>
       <path id="Roboto-Bold-63" d="M 1753 666 
Q 2000 666 2159 802 
Q 2319 938 2322 1169 
L 3172 1169 
Q 3166 631 2761 284 
Q 2356 -63 1769 -63 
Q 984 -63 595 432 
Q 206 928 206 1647 
L 206 1734 
Q 206 2450 593 2947 
Q 981 3444 1766 3444 
Q 2388 3444 2777 3087 
Q 3166 2731 3172 2122 
L 2322 2122 
Q 2319 2369 2172 2542 
Q 2025 2716 1750 2716 
Q 1356 2716 1234 2420 
Q 1113 2125 1113 1647 
Q 1113 1256 1233 961 
Q 1353 666 1753 666 
z
" transform="scale(0.015625)"/>
       <path id="Roboto-Bold-6b" d="M 2444 0 
L 1575 1356 
L 1253 1034 
L 1253 0 
L 350 0 
L 350 4803 
L 1253 4803 
L 1253 2144 
L 1428 2369 
L 2291 3381 
L 3375 3381 
L 2156 1975 
L 3484 0 
L 2444 0 
z
" transform="scale(0.015625)"/>
       <path id="Roboto-Bold-65" d="M 3225 550 
Q 3063 319 2731 128 
Q 2400 -63 1906 -63 
Q 1119 -63 675 414 
Q 231 891 228 1566 
L 228 1697 
Q 228 2463 654 2953 
Q 1081 3444 1806 3444 
Q 2534 3444 2915 2987 
Q 3297 2531 3297 1781 
L 3297 1397 
L 1144 1397 
Q 1191 1069 1403 867 
Q 1616 666 1963 666 
Q 2478 666 2778 1044 
L 3225 550 
z
M 1800 2716 
Q 1513 2716 1356 2522 
Q 1200 2328 1153 2016 
L 2409 2016 
L 2409 2084 
Q 2403 2356 2258 2536 
Q 2113 2716 1800 2716 
z
" transform="scale(0.015625)"/>
       <path id="Roboto-Bold-74" d="M 2041 22 
Q 1788 -63 1497 -63 
Q 1053 -63 790 168 
Q 528 400 528 938 
L 528 2722 
L 31 2722 
L 31 3381 
L 528 3381 
L 528 4216 
L 1431 4216 
L 1431 3381 
L 2006 3381 
L 2006 2722 
L 1431 2722 
L 1431 1031 
Q 1431 819 1518 750 
Q 1606 681 1778 681 
Q 1916 681 2041 706 
L 2041 22 
z
" transform="scale(0.015625)"/>
       <path id="Roboto-Bold-56" d="M 4166 4550 
L 2578 0 
L 1603 0 
L 25 4550 
L 1063 4550 
L 2091 1131 
L 3122 4550 
L 4166 4550 
z
" transform="scale(0.015625)"/>
       <path id="Roboto-Bold-6c" d="M 1303 4800 
L 1303 0 
L 397 0 
L 397 4800 
L 1303 4800 
z
" transform="scale(0.015625)"/>
       <path id="Roboto-Bold-75" d="M 2400 0 
L 2375 347 
Q 2044 -63 1450 -63 
Q 953 -63 642 228 
Q 331 519 328 1181 
L 328 3381 
L 1231 3381 
L 1231 1188 
Q 1231 906 1365 789 
Q 1500 672 1709 672 
Q 2169 672 2344 994 
L 2344 3381 
L 3250 3381 
L 3250 0 
L 2400 0 
z
" transform="scale(0.015625)"/>
       <path id="Roboto-Bold-6d" d="M 1806 2713 
Q 1431 2713 1253 2394 
L 1253 0 
L 347 0 
L 347 3381 
L 1197 3381 
L 1228 3009 
Q 1581 3444 2197 3444 
Q 2850 3444 3094 2928 
Q 3441 3444 4109 3444 
Q 4597 3444 4894 3156 
Q 5191 2869 5194 2169 
L 5194 0 
L 4288 0 
L 4288 2156 
Q 4288 2494 4152 2603 
Q 4016 2713 3781 2713 
Q 3381 2713 3222 2334 
L 3222 0 
L 2319 0 
L 2319 2150 
Q 2319 2484 2181 2598 
Q 2044 2713 1806 2713 
z
" transform="scale(0.015625)"/>
       <path id="Roboto-Bold-5b" d="M 1728 5297 
L 1728 4600 
L 1281 4600 
L 1281 -366 
L 1728 -366 
L 1728 -1059 
L 375 -1059 
L 375 5297 
L 1728 5297 
z
" transform="scale(0.015625)"/>
       <path id="Roboto-Bold-c5" d="M 25 0 
L 1719 4550 
L 2588 4550 
L 4291 0 
L 3291 0 
L 2978 938 
L 1331 938 
L 1019 0 
L 25 0 
z
M 1584 1697 
L 2725 1697 
L 2156 3406 
L 1584 1697 
z
M 1472 5407 
Q 1472 5666 1669 5856 
Q 1866 6047 2169 6047 
Q 2469 6047 2667 5856 
Q 2866 5666 2866 5407 
Q 2866 5141 2667 4958 
Q 2469 4776 2169 4776 
Q 1866 4776 1669 4958 
Q 1472 5141 1472 5407 
z
M 1831 5406 
Q 1831 5269 1923 5170 
Q 2016 5072 2169 5072 
Q 2322 5072 2414 5170 
Q 2506 5269 2506 5406 
Q 2506 5544 2414 5645 
Q 2322 5747 2169 5747 
Q 2016 5747 1923 5645 
Q 1831 5544 1831 5406 
z
" transform="scale(0.015625)"/>
       <path id="DejaVuSans-33" d="M 2597 2516 
Q 3050 2419 3304 2112 
Q 3559 1806 3559 1356 
Q 3559 666 3084 287 
Q 2609 -91 1734 -91 
Q 1441 -91 1130 -33 
Q 819 25 488 141 
L 488 750 
Q 750 597 1062 519 
Q 1375 441 1716 441 
Q 2309 441 2620 675 
Q 2931 909 2931 1356 
Q 2931 1769 2642 2001 
Q 2353 2234 1838 2234 
L 1294 2234 
L 1294 2753 
L 1863 2753 
Q 2328 2753 2575 2939 
Q 2822 3125 2822 3475 
Q 2822 3834 2567 4026 
Q 2313 4219 1838 4219 
Q 1578 4219 1281 4162 
Q 984 4106 628 3988 
L 628 4550 
Q 988 4650 1302 4700 
Q 1616 4750 1894 4750 
Q 2613 4750 3031 4423 
Q 3450 4097 3450 3541 
Q 3450 3153 3228 2886 
Q 3006 2619 2597 2516 
z
" transform="scale(0.015625)"/>
       <path id="Roboto-Bold-5d" d="M 41 4600 
L 41 5297 
L 1394 5297 
L 1394 -1059 
L 41 -1059 
L 41 -366 
L 491 -366 
L 491 4600 
L 41 4600 
z
" transform="scale(0.015625)"/>
      </defs>
      <use xlink:href="#Roboto-Bold-43" transform="translate(0 0.515625)"/>
      <use xlink:href="#Roboto-Bold-72" transform="translate(65.478516 0.515625)"/>
      <use xlink:href="#Roboto-Bold-6f" transform="translate(102.001953 0.515625)"/>
      <use xlink:href="#Roboto-Bold-36" transform="translate(158.544922 0.515625)"/>
      <use xlink:href="#Roboto-Bold-36" transform="translate(215.917969 0.515625)"/>
      <use xlink:href="#Roboto-Bold-20" transform="translate(273.291016 0.515625)"/>
      <use xlink:href="#Roboto-Bold-50" transform="translate(298.193359 0.515625)"/>
      <use xlink:href="#Roboto-Bold-6f" transform="translate(362.744141 0.515625)"/>
      <use xlink:href="#Roboto-Bold-63" transform="translate(419.287109 0.515625)"/>
      <use xlink:href="#Roboto-Bold-6b" transform="translate(471.484375 0.515625)"/>
      <use xlink:href="#Roboto-Bold-65" transform="translate(524.902344 0.515625)"/>
      <use xlink:href="#Roboto-Bold-74" transform="translate(578.955078 0.515625)"/>
      <use xlink:href="#Roboto-Bold-20" transform="translate(612.744141 0.515625)"/>
      <use xlink:href="#Roboto-Bold-56" transform="translate(637.646484 0.515625)"/>
      <use xlink:href="#Roboto-Bold-6f" transform="translate(703.027344 0.515625)"/>
      <use xlink:href="#Roboto-Bold-6c" transform="translate(759.570312 0.515625)"/>
      <use xlink:href="#Roboto-Bold-75" transform="translate(786.083984 0.515625)"/>
      <use xlink:href="#Roboto-Bold-6d" transform="translate(842.089844 0.515625)"/>
      <use xlink:href="#Roboto-Bold-65" transform="translate(928.662109 0.515625)"/>
      <use xlink:href="#Roboto-Bold-20" transform="translate(982.714844 0.515625)"/>
      <use xlink:href="#Roboto-Bold-5b" transform="translate(1007.617188 0.515625)"/>
      <use xlink:href="#Roboto-Bold-c5" transform="translate(1035.449219 0.515625)"/>
      <use xlink:href="#DejaVuSans-33" transform="translate(1103.740234 38.796875) scale(0.7)"/>
      <use xlink:href="#Roboto-Bold-5d" transform="translate(1151.010742 0.515625)"/>
     </g>
    </g>
   </g>
   <g id="matplotlib.axis_2">
    <g id="ytick_1">
     <g id="line2d_7">
      <defs>
       <path id="m5b467c4505" d="M 0 0 
L -3.5 0 
" style="stroke: #c2c1c1; stroke-width: 0.8"/>
      </defs>
      <g>
       <use xlink:href="#m5b467c4505" x="47.45" y="179.512" style="fill: #c2c1c1; stroke: #c2c1c1; stroke-width: 0.8"/>
      </g>
     </g>
     <g id="text_6">
      <!-- 0.000 -->
      <g style="fill: #191919" transform="translate(20.355 182.512) scale(0.08 -0.08)">
       <defs>
        <path id="Roboto-Regular-2e" d="M 450 306 
Q 450 453 542 554 
Q 634 656 809 656 
Q 984 656 1076 554 
Q 1169 453 1169 306 
Q 1169 163 1076 62 
Q 984 -38 809 -38 
Q 634 -38 542 62 
Q 450 163 450 306 
z
" transform="scale(0.015625)"/>
       </defs>
       <use xlink:href="#Roboto-Regular-30"/>
       <use xlink:href="#Roboto-Regular-2e" x="56.201172"/>
       <use xlink:href="#Roboto-Regular-30" x="82.568359"/>
       <use xlink:href="#Roboto-Regular-30" x="138.769531"/>
       <use xlink:href="#Roboto-Regular-30" x="194.970703"/>
      </g>
     </g>
    </g>
    <g id="ytick_2">
     <g id="line2d_8">
      <g>
       <use xlink:href="#m5b467c4505" x="47.45" y="152.523396" style="fill: #c2c1c1; stroke: #c2c1c1; stroke-width: 0.8"/>
      </g>
     </g>
     <g id="text_7">
      <!-- 0.005 -->
      <g style="fill: #191919" transform="translate(20.355 155.523396) scale(0.08 -0.08)">
       <use xlink:href="#Roboto-Regular-30"/>
       <use xlink:href="#Roboto-Regular-2e" x="56.201172"/>
       <use xlink:href="#Roboto-Regular-30" x="82.568359"/>
       <use xlink:href="#Roboto-Regular-30" x="138.769531"/>
       <use xlink:href="#Roboto-Regular-35" x="194.970703"/>
      </g>
     </g>
    </g>
    <g id="ytick_3">
     <g id="line2d_9">
      <g>
       <use xlink:href="#m5b467c4505" x="47.45" y="125.534793" style="fill: #c2c1c1; stroke: #c2c1c1; stroke-width: 0.8"/>
      </g>
     </g>
     <g id="text_8">
      <!-- 0.010 -->
      <g style="fill: #191919" transform="translate(20.355 128.534793) scale(0.08 -0.08)">
       <use xlink:href="#Roboto-Regular-30"/>
       <use xlink:href="#Roboto-Regular-2e" x="56.201172"/>
       <use xlink:href="#Roboto-Regular-30" x="82.568359"/>
       <use xlink:href="#Roboto-Regular-31" x="138.769531"/>
       <use xlink:href="#Roboto-Regular-30" x="194.970703"/>
      </g>
     </g>
    </g>
    <g id="ytick_4">
     <g id="line2d_10">
      <g>
       <use xlink:href="#m5b467c4505" x="47.45" y="98.546189" style="fill: #c2c1c1; stroke: #c2c1c1; stroke-width: 0.8"/>
      </g>
     </g>
     <g id="text_9">
      <!-- 0.015 -->
      <g style="fill: #191919" transform="translate(20.355 101.546189) scale(0.08 -0.08)">
       <use xlink:href="#Roboto-Regular-30"/>
       <use xlink:href="#Roboto-Regular-2e" x="56.201172"/>
       <use xlink:href="#Roboto-Regular-30" x="82.568359"/>
       <use xlink:href="#Roboto-Regular-31" x="138.769531"/>
       <use xlink:href="#Roboto-Regular-35" x="194.970703"/>
      </g>
     </g>
    </g>
    <g id="ytick_5">
     <g id="line2d_11">
      <g>
       <use xlink:href="#m5b467c4505" x="47.45" y="71.557585" style="fill: #c2c1c1; stroke: #c2c1c1; stroke-width: 0.8"/>
      </g>
     </g>
     <g id="text_10">
      <!-- 0.020 -->
      <g style="fill: #191919" transform="translate(20.355 74.557585) scale(0.08 -0.08)">
       <use xlink:href="#Roboto-Regular-30"/>
       <use xlink:href="#Roboto-Regular-2e" x="56.201172"/>
       <use xlink:href="#Roboto-Regular-30" x="82.568359"/>
       <use xlink:href="#Roboto-Regular-32" x="138.769531"/>
       <use xlink:href="#Roboto-Regular-30" x="194.970703"/>
      </g>
     </g>
    </g>
    <g id="ytick_6">
     <g id="line2d_12">
      <g>
       <use xlink:href="#m5b467c4505" x="47.45" y="44.568982" style="fill: #c2c1c1; stroke: #c2c1c1; stroke-width: 0.8"/>
      </g>
     </g>
     <g id="text_11">
      <!-- 0.025 -->
      <g style="fill: #191919" transform="translate(20.355 47.568982) scale(0.08 -0.08)">
       <use xlink:href="#Roboto-Regular-30"/>
       <use xlink:href="#Roboto-Regular-2e" x="56.201172"/>
       <use xlink:href="#Roboto-Regular-30" x="82.568359"/>
       <use xlink:href="#Roboto-Regular-32" x="138.769531"/>
       <use xlink:href="#Roboto-Regular-35" x="194.970703"/>
      </g>
     </g>
    </g>
    <g id="ytick_7">
     <g id="line2d_13">
      <g>
       <use xlink:href="#m5b467c4505" x="47.45" y="17.580378" style="fill: #c2c1c1; stroke: #c2c1c1; stroke-width: 0.8"/>
      </g>
     </g>
     <g id="text_12">
      <!-- 0.030 -->
      <g style="fill: #191919" transform="translate(20.355 20.580378) scale(0.08 -0.08)">
       <defs>
        <path id="Roboto-Regular-33" d="M 1222 2084 
L 1222 2559 
L 1647 2559 
Q 2094 2563 2312 2784 
Q 2531 3006 2531 3338 
Q 2531 4138 1738 4138 
Q 1369 4138 1141 3927 
Q 913 3716 913 3359 
L 334 3359 
Q 334 3881 720 4247 
Q 1106 4613 1738 4613 
Q 2353 4613 2733 4286 
Q 3113 3959 3113 3325 
Q 3113 3072 2942 2784 
Q 2772 2497 2397 2338 
Q 2850 2191 3015 1884 
Q 3181 1578 3181 1269 
Q 3181 631 2768 284 
Q 2356 -63 1741 -63 
Q 1147 -63 722 267 
Q 297 597 297 1203 
L 875 1203 
Q 875 844 1108 628 
Q 1341 413 1741 413 
Q 2138 413 2369 622 
Q 2600 831 2600 1256 
Q 2600 1681 2337 1882 
Q 2075 2084 1634 2084 
L 1222 2084 
z
" transform="scale(0.015625)"/>
       </defs>
       <use xlink:href="#Roboto-Regular-30"/>
       <use xlink:href="#Roboto-Regular-2e" x="56.201172"/>
       <use xlink:href="#Roboto-Regular-30" x="82.568359"/>
       <use xlink:href="#Roboto-Regular-33" x="138.769531"/>
       <use xlink:href="#Roboto-Regular-30" x="194.970703"/>
      </g>
     </g>
    </g>
    <g id="text_13">
     <!-- Density -->
     <g style="fill: #191919" transform="translate(14.6475 107.561) rotate(-90) scale(0.08 -0.08)">
      <defs>
       <path id="Roboto-Bold-44" d="M 406 0 
L 406 4550 
L 1809 4550 
Q 2728 4550 3308 3950 
Q 3888 3350 3888 2375 
L 3888 2172 
Q 3888 1197 3308 598 
Q 2728 0 1797 0 
L 406 0 
z
M 1347 3791 
L 1347 756 
L 1797 756 
Q 2350 756 2639 1115 
Q 2928 1475 2934 2144 
L 2934 2381 
Q 2934 3075 2661 3428 
Q 2388 3781 1838 3791 
L 1347 3791 
z
" transform="scale(0.015625)"/>
       <path id="Roboto-Bold-6e" d="M 1806 2713 
Q 1422 2713 1234 2388 
L 1234 0 
L 331 0 
L 331 3381 
L 1178 3381 
L 1209 2994 
Q 1572 3444 2181 3444 
Q 2659 3444 2953 3159 
Q 3247 2875 3250 2169 
L 3250 0 
L 2344 0 
L 2344 2156 
Q 2344 2481 2205 2597 
Q 2066 2713 1806 2713 
z
" transform="scale(0.015625)"/>
       <path id="Roboto-Bold-73" d="M 2178 938 
Q 2178 1081 2045 1179 
Q 1913 1278 1475 1372 
Q 953 1484 618 1721 
Q 284 1959 284 2394 
Q 284 2816 642 3130 
Q 1000 3444 1631 3444 
Q 2291 3444 2669 3134 
Q 3047 2825 3047 2353 
L 2144 2353 
Q 2144 2547 2019 2675 
Q 1894 2803 1628 2803 
Q 1403 2803 1276 2698 
Q 1150 2594 1150 2438 
Q 1150 2294 1284 2200 
Q 1419 2106 1781 2034 
Q 2331 1925 2693 1700 
Q 3056 1475 3056 972 
Q 3056 525 2672 231 
Q 2288 -63 1634 -63 
Q 925 -63 550 301 
Q 175 666 175 1078 
L 1034 1078 
Q 1047 813 1230 697 
Q 1413 581 1653 581 
Q 2178 581 2178 938 
z
" transform="scale(0.015625)"/>
       <path id="Roboto-Bold-69" d="M 341 4256 
Q 341 4459 478 4592 
Q 616 4725 847 4725 
Q 1078 4725 1215 4592 
Q 1353 4459 1353 4256 
Q 1353 4056 1215 3923 
Q 1078 3791 847 3791 
Q 616 3791 478 3923 
Q 341 4056 341 4256 
z
M 1303 3381 
L 1303 0 
L 397 0 
L 397 3381 
L 1303 3381 
z
" transform="scale(0.015625)"/>
       <path id="Roboto-Bold-79" d="M 769 -1366 
Q 594 -1366 369 -1306 
L 369 -622 
L 509 -625 
Q 775 -625 903 -539 
Q 1031 -453 1097 -266 
L 1197 -6 
L 13 3381 
L 984 3381 
L 1613 1275 
L 2238 3381 
L 3203 3381 
L 1850 -506 
Q 1791 -675 1675 -876 
Q 1559 -1078 1342 -1222 
Q 1125 -1366 769 -1366 
z
" transform="scale(0.015625)"/>
      </defs>
      <use xlink:href="#Roboto-Bold-44"/>
      <use xlink:href="#Roboto-Bold-65" x="65.039062"/>
      <use xlink:href="#Roboto-Bold-6e" x="119.091797"/>
      <use xlink:href="#Roboto-Bold-73" x="175.097656"/>
      <use xlink:href="#Roboto-Bold-69" x="226.5625"/>
      <use xlink:href="#Roboto-Bold-74" x="253.076172"/>
      <use xlink:href="#Roboto-Bold-79" x="286.865234"/>
     </g>
    </g>
   </g>
   <g id="line2d_14">
    <path d="M 47.45 179.512 
L 67.69012 179.404158 
L 73.64866 179.045273 
L 75.54026 179.032008 
L 76.7698 178.805063 
L 78.56682 178.186998 
L 79.89094 177.863094 
L 81.21506 177.800586 
L 83.3904 177.735003 
L 84.61994 177.441115 
L 86.03864 176.868805 
L 87.07902 176.242934 
L 88.02482 175.414013 
L 89.15978 174.080149 
L 90.76764 171.812261 
L 92.47008 169.02813 
L 96.1587 162.572578 
L 97.5774 159.106302 
L 100.8877 150.376932 
L 101.92808 146.735734 
L 103.53594 140.050905 
L 104.76548 135.323013 
L 105.80586 132.155203 
L 107.9812 125.943332 
L 108.927 122.300822 
L 109.8728 117.687491 
L 111.10234 110.385299 
L 112.61562 101.586734 
L 113.46684 97.985547 
L 114.22348 95.761618 
L 114.98012 94.195609 
L 116.77714 90.829697 
L 117.62836 88.500583 
L 120.18202 80.967348 
L 122.26278 76.172414 
L 122.92484 75.123104 
L 123.49232 74.640592 
L 123.96522 74.529512 
L 124.5327 74.654159 
L 125.4785 75.148192 
L 126.51888 75.894987 
L 127.18094 76.630613 
L 127.93758 77.840211 
L 128.97796 79.998726 
L 130.39666 82.875772 
L 130.96414 83.581087 
L 131.43704 83.826194 
L 131.81536 83.780932 
L 132.28826 83.461041 
L 134.17986 81.767777 
L 134.65276 81.811554 
L 135.22024 82.14552 
L 136.07146 82.966071 
L 137.01726 84.138784 
L 137.67932 85.313243 
L 138.34138 87.000844 
L 139.1926 89.941364 
L 141.17878 97.198776 
L 141.93542 99.059445 
L 142.59748 100.167539 
L 143.25954 100.8557 
L 144.01618 101.301413 
L 144.96198 101.848326 
L 145.52946 102.454594 
L 146.09694 103.394579 
L 146.759 104.921355 
L 147.7048 107.712643 
L 149.31266 113.263982 
L 152.15006 123.160458 
L 153.47418 126.899189 
L 154.7983 129.95637 
L 156.87906 134.602631 
L 158.1086 138.112205 
L 159.71646 142.634315 
L 160.85142 145.117907 
L 163.68882 150.578242 
L 166.33706 155.212248 
L 167.47202 158.03011 
L 168.89072 161.517336 
L 169.74194 163.040015 
L 170.8769 164.539199 
L 172.57934 166.800694 
L 174.37636 169.19934 
L 175.32216 170.085351 
L 176.5517 170.894258 
L 178.25414 172.051775 
L 180.71322 173.816083 
L 182.79398 175.274663 
L 184.21268 176.196653 
L 185.25306 176.597095 
L 188.65794 177.66547 
L 190.17122 178.083111 
L 194.9948 178.900259 
L 198.96716 179.100996 
L 202.37204 179.351948 
L 204.9257 179.500692 
L 212.77584 179.512 
L 236.70458 179.512 
L 236.70458 179.512 
" clip-path="url(#p437c382a8e)" style="fill: none; stroke: #f99752; stroke-width: 1.5; stroke-linecap: square"/>
   </g>
   <g id="patch_3">
    <path d="M 47.45 179.512 
L 47.45 8.64 
" style="fill: none; stroke: #c2c1c1; stroke-width: 0.8; stroke-linejoin: miter; stroke-linecap: square"/>
   </g>
   <g id="patch_4">
    <path d="M 236.61 179.512 
L 236.61 8.64 
" style="fill: none; stroke: #c2c1c1; stroke-width: 0.8; stroke-linejoin: miter; stroke-linecap: square"/>
   </g>
   <g id="patch_5">
    <path d="M 47.45 179.512 
L 236.61 179.512 
" style="fill: none; stroke: #c2c1c1; stroke-width: 0.8; stroke-linejoin: miter; stroke-linecap: square"/>
   </g>
   <g id="patch_6">
    <path d="M 47.45 8.64 
L 236.61 8.64 
" style="fill: none; stroke: #c2c1c1; stroke-width: 0.8; stroke-linejoin: miter; stroke-linecap: square"/>
   </g>
   <g id="line2d_15">
    <path d="M 47.45 179.512 
L 74.68904 179.402873 
L 78.1885 179.070767 
L 80.0801 178.689957 
L 81.9717 178.069565 
L 84.3362 177.058759 
L 85.94406 176.136647 
L 87.36276 175.04633 
L 88.97062 173.496344 
L 90.76764 171.444653 
L 92.47008 169.156959 
L 94.07794 166.598074 
L 95.6858 163.602879 
L 97.29366 160.135472 
L 98.61778 156.789605 
L 99.84732 153.091731 
L 101.26602 148.04181 
L 104.29258 136.956139 
L 108.64326 122.674239 
L 111.57524 112.478043 
L 113.1831 107.635751 
L 114.50722 104.297101 
L 115.73676 101.779374 
L 116.9663 99.777275 
L 118.00668 98.470029 
L 118.95248 97.632775 
L 119.8037 97.188349 
L 120.65492 96.997715 
L 121.6953 96.99617 
L 122.83026 97.204799 
L 123.77606 97.587276 
L 124.91102 98.309276 
L 126.70804 99.480646 
L 127.74842 99.861939 
L 129.82918 100.517781 
L 130.86956 101.158414 
L 132.85574 102.443774 
L 133.89612 102.801304 
L 135.50398 103.29967 
L 136.26062 103.810246 
L 137.01726 104.618141 
L 137.86848 105.878451 
L 139.09802 108.151272 
L 141.65168 112.941713 
L 142.69206 114.411442 
L 143.54328 115.275678 
L 144.3945 115.846584 
L 146.00236 116.557436 
L 146.94816 117.144322 
L 147.79938 117.938972 
L 149.02892 119.435507 
L 151.0151 121.845406 
L 153.09586 123.917624 
L 154.7983 125.712536 
L 155.93326 127.252257 
L 157.1628 129.347682 
L 159.62188 133.650896 
L 160.85142 135.297494 
L 162.27012 136.812363 
L 164.91836 139.510166 
L 166.24248 141.309216 
L 168.32324 144.180998 
L 169.4582 145.324988 
L 171.25522 146.721669 
L 172.57934 147.897312 
L 173.90346 149.409528 
L 180.8078 157.95593 
L 183.45604 160.765029 
L 187.4284 165.410023 
L 188.75252 166.468981 
L 190.2658 167.372255 
L 192.25198 168.573419 
L 193.95442 169.941503 
L 195.75144 171.303932 
L 197.73762 172.465006 
L 204.07448 175.93365 
L 205.30402 176.269715 
L 207.00646 176.464347 
L 209.37096 176.768399 
L 211.64088 177.301838 
L 216.18072 178.468313 
L 218.45064 178.72088 
L 222.13926 179.111523 
L 225.2604 179.440856 
L 228.5707 179.507555 
L 236.70458 179.450574 
L 236.70458 179.450574 
" clip-path="url(#p437c382a8e)" style="fill: none; stroke: #1b998b; stroke-opacity: 0.6; stroke-width: 1.5; stroke-linecap: square"/>
   </g>
   <g id="legend_1">
    <g id="line2d_16">
     <path d="M 175.975 19.04 
L 183.975 19.04 
L 191.975 19.04 
" style="fill: none; stroke: #1e2e79; stroke-width: 1.5; stroke-linecap: square"/>
    </g>
    <g id="text_14">
     <!-- Reduced -->
     <g transform="translate(198.375 21.84) scale(0.08 -0.08)">
      <defs>
       <path id="Roboto-Regular-52" d="M 3188 0 
L 2200 1844 
L 1131 1844 
L 1131 0 
L 528 0 
L 528 4550 
L 2034 4550 
Q 2800 4550 3214 4200 
Q 3628 3850 3628 3184 
Q 3628 2759 3398 2442 
Q 3169 2125 2763 1969 
L 3831 38 
L 3831 0 
L 3188 0 
z
M 1131 4056 
L 1131 2334 
L 2053 2334 
Q 2538 2334 2783 2582 
Q 3028 2831 3028 3184 
Q 3028 3578 2792 3817 
Q 2556 4056 2034 4056 
L 1131 4056 
z
" transform="scale(0.015625)"/>
       <path id="Roboto-Regular-65" d="M 3116 591 
Q 2950 341 2647 139 
Q 2344 -63 1844 -63 
Q 1138 -63 714 396 
Q 291 856 291 1572 
L 291 1703 
Q 291 2256 502 2645 
Q 713 3034 1050 3239 
Q 1388 3444 1769 3444 
Q 2494 3444 2826 2970 
Q 3159 2497 3159 1788 
L 3159 1528 
L 872 1528 
Q 884 1063 1148 736 
Q 1413 409 1875 409 
Q 2181 409 2393 534 
Q 2606 659 2766 869 
L 3116 591 
z
M 1769 2969 
Q 1425 2969 1187 2719 
Q 950 2469 891 2000 
L 2581 2000 
L 2581 2044 
Q 2559 2381 2386 2675 
Q 2213 2969 1769 2969 
z
" transform="scale(0.015625)"/>
       <path id="Roboto-Regular-64" d="M 2622 0 
L 2594 363 
Q 2247 -63 1628 -63 
Q 1034 -63 668 418 
Q 303 900 297 1628 
L 297 1719 
Q 297 2494 664 2969 
Q 1031 3444 1634 3444 
Q 2231 3444 2572 3044 
L 2572 4800 
L 3153 4800 
L 3153 0 
L 2622 0 
z
M 878 1653 
Q 878 1150 1090 789 
Q 1303 428 1772 428 
Q 2309 428 2572 919 
L 2572 2475 
Q 2313 2956 1778 2956 
Q 1306 2956 1092 2589 
Q 878 2222 878 1719 
L 878 1653 
z
" transform="scale(0.015625)"/>
       <path id="Roboto-Regular-75" d="M 2538 0 
L 2525 334 
Q 2194 -63 1538 -63 
Q 1041 -63 734 231 
Q 428 525 428 1200 
L 428 3381 
L 1006 3381 
L 1006 1194 
Q 1006 738 1198 583 
Q 1391 428 1628 428 
Q 2281 428 2509 919 
L 2509 3381 
L 3091 3381 
L 3091 0 
L 2538 0 
z
" transform="scale(0.015625)"/>
       <path id="Roboto-Regular-63" d="M 1794 413 
Q 2103 413 2336 597 
Q 2569 781 2591 1069 
L 3141 1069 
Q 3119 616 2725 276 
Q 2331 -63 1794 -63 
Q 1031 -63 661 440 
Q 291 944 291 1625 
L 291 1756 
Q 291 2438 661 2941 
Q 1031 3444 1794 3444 
Q 2388 3444 2753 3092 
Q 3119 2741 3141 2219 
L 2591 2219 
Q 2569 2531 2355 2750 
Q 2141 2969 1794 2969 
Q 1438 2969 1236 2787 
Q 1034 2606 951 2328 
Q 869 2050 869 1756 
L 869 1625 
Q 869 1328 950 1050 
Q 1031 772 1232 592 
Q 1434 413 1794 413 
z
" transform="scale(0.015625)"/>
      </defs>
      <use xlink:href="#Roboto-Regular-52"/>
      <use xlink:href="#Roboto-Regular-65" x="61.621094"/>
      <use xlink:href="#Roboto-Regular-64" x="114.648438"/>
      <use xlink:href="#Roboto-Regular-75" x="171.044922"/>
      <use xlink:href="#Roboto-Regular-63" x="226.171875"/>
      <use xlink:href="#Roboto-Regular-65" x="278.515625"/>
      <use xlink:href="#Roboto-Regular-64" x="331.542969"/>
     </g>
    </g>
    <g id="line2d_17">
     <path d="M 175.975 30.665 
L 183.975 30.665 
L 191.975 30.665 
" style="fill: none; stroke: #ec4067; stroke-width: 1.5; stroke-linecap: square"/>
    </g>
    <g id="text_15">
     <!-- Oxidized -->
     <g transform="translate(198.375 33.465) scale(0.08 -0.08)">
      <defs>
       <path id="Roboto-Regular-4f" d="M 4031 2131 
Q 4031 1106 3534 521 
Q 3038 -63 2206 -63 
Q 1397 -63 884 521 
Q 372 1106 372 2131 
L 372 2419 
Q 372 3441 881 4027 
Q 1391 4613 2200 4613 
Q 3025 4613 3523 4036 
Q 4022 3459 4031 2456 
L 4031 2131 
z
M 3434 2425 
Q 3434 3238 3109 3669 
Q 2784 4100 2200 4100 
Q 1641 4100 1305 3669 
Q 969 3238 969 2425 
L 969 2131 
Q 969 1313 1308 880 
Q 1647 447 2206 447 
Q 2794 447 3114 880 
Q 3434 1313 3434 2131 
L 3434 2425 
z
" transform="scale(0.015625)"/>
       <path id="Roboto-Regular-78" d="M 831 3381 
L 1572 2150 
L 2322 3381 
L 3000 3381 
L 1894 1713 
L 3034 0 
L 2366 0 
L 1584 1269 
L 803 0 
L 131 0 
L 1269 1713 
L 166 3381 
L 831 3381 
z
" transform="scale(0.015625)"/>
       <path id="Roboto-Regular-69" d="M 444 4278 
Q 444 4419 530 4516 
Q 616 4613 784 4613 
Q 950 4613 1039 4516 
Q 1128 4419 1128 4278 
Q 1128 4144 1039 4048 
Q 950 3953 784 3953 
Q 616 3953 530 4048 
Q 444 4144 444 4278 
z
M 1069 3381 
L 1069 0 
L 488 0 
L 488 3381 
L 1069 3381 
z
" transform="scale(0.015625)"/>
       <path id="Roboto-Regular-7a" d="M 303 2903 
L 303 3381 
L 2869 3381 
L 2869 2972 
L 988 475 
L 2959 475 
L 2959 0 
L 278 0 
L 278 425 
L 2141 2903 
L 303 2903 
z
" transform="scale(0.015625)"/>
      </defs>
      <use xlink:href="#Roboto-Regular-4f"/>
      <use xlink:href="#Roboto-Regular-78" x="68.798828"/>
      <use xlink:href="#Roboto-Regular-69" x="118.408203"/>
      <use xlink:href="#Roboto-Regular-64" x="142.724609"/>
      <use xlink:href="#Roboto-Regular-69" x="199.121094"/>
      <use xlink:href="#Roboto-Regular-7a" x="223.4375"/>
      <use xlink:href="#Roboto-Regular-65" x="273.046875"/>
      <use xlink:href="#Roboto-Regular-64" x="326.074219"/>
     </g>
    </g>
    <g id="line2d_18">
     <path d="M 175.975 42.7075 
L 183.975 42.7075 
L 191.975 42.7075 
" style="fill: none; stroke: #f99752; stroke-width: 1.5; stroke-linecap: square"/>
    </g>
    <g id="text_16">
     <!-- Cu(I) -->
     <g transform="translate(198.375 45.5075) scale(0.08 -0.08)">
      <defs>
       <path id="Roboto-Regular-43" d="M 3275 1447 
L 3875 1447 
Q 3806 800 3387 368 
Q 2969 -63 2150 -63 
Q 1356 -63 870 504 
Q 384 1072 375 2013 
L 375 2500 
Q 375 3456 867 4034 
Q 1359 4613 2203 4613 
Q 2975 4613 3390 4188 
Q 3806 3763 3875 3091 
L 3275 3091 
Q 3206 3566 2968 3842 
Q 2731 4119 2203 4119 
Q 1600 4119 1287 3675 
Q 975 3231 975 2506 
L 975 2047 
Q 975 1375 1259 901 
Q 1544 428 2150 428 
Q 2725 428 2961 697 
Q 3197 966 3275 1447 
z
" transform="scale(0.015625)"/>
       <path id="Roboto-Regular-28" d="M 419 1850 
Q 419 2756 678 3434 
Q 938 4113 1294 4541 
Q 1650 4969 1947 5134 
L 2069 4753 
Q 1700 4475 1348 3761 
Q 997 3047 997 1813 
Q 997 625 1348 -97 
Q 1700 -819 2069 -1119 
L 1947 -1469 
Q 1650 -1306 1294 -878 
Q 938 -450 678 226 
Q 419 903 419 1850 
z
" transform="scale(0.015625)"/>
       <path id="Roboto-Regular-49" d="M 1175 4550 
L 1175 0 
L 572 0 
L 572 4550 
L 1175 4550 
z
" transform="scale(0.015625)"/>
       <path id="Roboto-Regular-29" d="M 1772 1819 
Q 1772 906 1512 228 
Q 1253 -450 895 -878 
Q 538 -1306 244 -1469 
L 122 -1119 
Q 488 -841 841 -109 
Q 1194 622 1194 1856 
Q 1194 2647 1019 3236 
Q 844 3825 594 4212 
Q 344 4600 122 4781 
L 244 5134 
Q 538 4969 895 4541 
Q 1253 4113 1512 3436 
Q 1772 2759 1772 1819 
z
" transform="scale(0.015625)"/>
      </defs>
      <use xlink:href="#Roboto-Regular-43"/>
      <use xlink:href="#Roboto-Regular-75" x="65.087891"/>
      <use xlink:href="#Roboto-Regular-28" x="120.214844"/>
      <use xlink:href="#Roboto-Regular-49" x="154.443359"/>
      <use xlink:href="#Roboto-Regular-29" x="181.640625"/>
     </g>
    </g>
    <g id="line2d_19">
     <path d="M 175.975 54.54375 
L 183.975 54.54375 
L 191.975 54.54375 
" style="fill: none; stroke: #1b998b; stroke-opacity: 0.6; stroke-width: 1.5; stroke-linecap: square"/>
    </g>
    <g id="text_17">
     <!-- Na$^+$ -->
     <g transform="translate(198.375 57.34375) scale(0.08 -0.08)">
      <defs>
       <path id="Roboto-Regular-4e" d="M 4028 4550 
L 4028 0 
L 3422 0 
L 1131 3509 
L 1131 0 
L 528 0 
L 528 4550 
L 1131 4550 
L 3431 1031 
L 3431 4550 
L 4028 4550 
z
" transform="scale(0.015625)"/>
       <path id="Roboto-Regular-61" d="M 2528 0 
Q 2472 122 2447 356 
Q 2284 184 2040 60 
Q 1797 -63 1484 -63 
Q 966 -63 653 228 
Q 341 519 341 941 
Q 341 1484 753 1767 
Q 1166 2050 1863 2050 
L 2434 2050 
L 2434 2319 
Q 2434 2619 2254 2798 
Q 2075 2978 1722 2978 
Q 1394 2978 1192 2817 
Q 991 2656 991 2444 
L 413 2444 
Q 413 2806 778 3125 
Q 1144 3444 1756 3444 
Q 2306 3444 2659 3162 
Q 3013 2881 3013 2313 
L 3013 794 
Q 3013 325 3131 50 
L 3131 0 
L 2528 0 
z
M 1569 444 
Q 1881 444 2111 600 
Q 2341 756 2434 947 
L 2434 1644 
L 1897 1644 
Q 922 1625 922 1019 
Q 922 778 1084 611 
Q 1247 444 1569 444 
z
" transform="scale(0.015625)"/>
       <path id="DejaVuSans-2b" d="M 2944 4013 
L 2944 2272 
L 4684 2272 
L 4684 1741 
L 2944 1741 
L 2944 0 
L 2419 0 
L 2419 1741 
L 678 1741 
L 678 2272 
L 2419 2272 
L 2419 4013 
L 2944 4013 
z
" transform="scale(0.015625)"/>
      </defs>
      <use xlink:href="#Roboto-Regular-4e" transform="translate(0 0.826562)"/>
      <use xlink:href="#Roboto-Regular-61" transform="translate(71.337891 0.826562)"/>
      <use xlink:href="#DejaVuSans-2b" transform="translate(140.327148 39.107812) scale(0.7)"/>
     </g>
    </g>
   </g>
  </g>
 </g>
 <defs>
  <clipPath id="p437c382a8e">
   <rect x="47.45" y="8.64" width="189.16" height="170.872"/>
  </clipPath>
 </defs>
</svg>
