<?xml version="1.0" encoding="utf-8" standalone="no"?>
<!DOCTYPE svg PUBLIC "-//W3C//DTD SVG 1.1//EN"
  "http://www.w3.org/Graphics/SVG/1.1/DTD/svg11.dtd">
<svg xmlns:xlink="http://www.w3.org/1999/xlink" width="252pt" height="216pt" viewBox="0 0 252 216" xmlns="http://www.w3.org/2000/svg" version="1.1">
 <metadata>
  <rdf:RDF xmlns:dc="http://purl.org/dc/elements/1.1/" xmlns:cc="http://creativecommons.org/ns#" xmlns:rdf="http://www.w3.org/1999/02/22-rdf-syntax-ns#">
   <cc:Work>
    <dc:type rdf:resource="http://purl.org/dc/dcmitype/StillImage"/>
    <dc:date>2024-12-21T22:58:46.426864</dc:date>
    <dc:format>image/svg+xml</dc:format>
    <dc:creator>
     <cc:Agent>
      <dc:title>Matplotlib v3.9.1, https://matplotlib.org/</dc:title>
     </cc:Agent>
    </dc:creator>
   </cc:Work>
  </rdf:RDF>
 </metadata>
 <defs>
  <style type="text/css">*{stroke-linejoin: round; stroke-linecap: butt}</style>
 </defs>
 <g id="figure_1">
  <g id="patch_1">
   <path d="M 0 216 
L 252 216 
L 252 0 
L 0 0 
z
" style="fill: #ffffff"/>
  </g>
  <g id="axes_1">
   <g id="patch_2">
    <path d="M 38.459 179.728 
L 241.1145 179.728 
L 241.1145 9.232208 
L 38.459 9.232208 
z
" style="fill: #ffffff"/>
   </g>
   <g id="line2d_1">
    <path d="M -1 179.728 
L 63.139949 179.656335 
L 65.177826 179.278481 
L 67.215702 178.231707 
L 69.253579 174.698932 
L 71.291455 169.021244 
L 73.329332 162.452171 
L 75.367208 153.566905 
L 77.405085 140.649829 
L 81.480838 118.803859 
L 85.556591 97.843958 
L 87.594468 92.103124 
L 89.632344 84.909828 
L 91.670221 78.351022 
L 93.708097 74.951191 
L 95.745974 72.560936 
L 97.78385 72.278149 
L 99.821727 73.043117 
L 101.859603 70.830239 
L 103.89748 71.726843 
L 105.935356 73.85075 
L 107.973233 75.500867 
L 112.048986 85.044321 
L 114.086863 87.570183 
L 116.124739 92.086657 
L 122.238369 107.918415 
L 124.276245 109.898276 
L 126.314122 115.103401 
L 128.351998 116.069237 
L 130.389875 122.684256 
L 132.427751 127.202871 
L 134.465628 132.886531 
L 136.503504 136.413494 
L 138.541381 140.988263 
L 140.579258 144.73058 
L 142.617134 149.971674 
L 144.655011 152.762126 
L 146.692887 157.089373 
L 148.730764 159.91042 
L 150.76864 163.736618 
L 152.806517 165.83207 
L 154.844393 167.6727 
L 156.88227 170.443064 
L 158.920146 171.380919 
L 160.958023 172.969159 
L 165.033776 175.481269 
L 167.071653 175.719558 
L 171.147406 177.238378 
L 173.185282 177.361584 
L 177.261035 178.057447 
L 181.336788 178.203535 
L 183.374665 178.56901 
L 185.412541 178.564387 
L 187.450418 178.758065 
L 189.488294 178.718794 
L 191.526171 178.999059 
L 193.564047 178.909003 
L 195.601924 179.203129 
L 197.639801 179.124822 
L 199.677677 179.385261 
L 201.715554 179.197919 
L 203.75343 179.151079 
L 205.791307 179.47948 
L 207.829183 179.35139 
L 224.132196 179.483279 
L 226.170072 179.546521 
L 228.207949 179.40915 
L 230.245825 179.556097 
L 253 179.717264 
L 253 179.717264 
" clip-path="url(#p22468f7d10)" style="fill: none; stroke: #1e2e79; stroke-width: 1.5; stroke-linecap: square"/>
   </g>
   <g id="line2d_2">
    <path d="M -1 179.728 
L 67.215702 179.653666 
L 69.253579 179.555203 
L 71.291455 179.195069 
L 75.367208 177.61664 
L 77.405085 175.425429 
L 79.442961 171.751146 
L 81.480838 168.399909 
L 83.518715 162.569012 
L 85.556591 154.163848 
L 87.594468 142.677891 
L 89.632344 132.218122 
L 91.670221 117.191696 
L 93.708097 103.206413 
L 95.745974 85.423457 
L 97.78385 74.712302 
L 99.821727 56.351551 
L 101.859603 41.875571 
L 105.935356 22.68293 
L 107.973233 20.931308 
L 110.011109 17.351055 
L 112.048986 19.084866 
L 114.086863 26.652403 
L 116.124739 33.183916 
L 118.162616 44.009092 
L 120.200492 57.166218 
L 122.238369 69.235439 
L 126.314122 95.619606 
L 128.351998 106.367273 
L 130.389875 118.24751 
L 132.427751 127.455478 
L 134.465628 138.952623 
L 136.503504 146.551223 
L 138.541381 152.006582 
L 140.579258 157.980524 
L 144.655011 166.076246 
L 146.692887 169.54277 
L 150.76864 172.583231 
L 152.806517 174.935773 
L 154.844393 175.746066 
L 156.88227 176.979186 
L 158.920146 177.603536 
L 167.071653 179.021276 
L 169.109529 178.968748 
L 171.147406 179.274466 
L 177.261035 179.408728 
L 179.298912 179.183398 
L 181.336788 179.416099 
L 189.488294 179.569236 
L 191.526171 179.466016 
L 195.601924 179.512066 
L 199.677677 179.451666 
L 201.715554 179.553005 
L 207.829183 179.390461 
L 209.86706 179.565089 
L 211.904936 179.41009 
L 215.980689 179.528149 
L 218.018566 179.559715 
L 222.094319 179.48229 
L 226.170072 179.506947 
L 228.207949 179.66027 
L 232.283702 179.584782 
L 236.359455 179.663196 
L 240.435208 179.657793 
L 242.473084 179.567422 
L 246.548837 179.727847 
L 253 179.727804 
L 253 179.727804 
" clip-path="url(#p22468f7d10)" style="fill: none; stroke: #ec4067; stroke-width: 1.5; stroke-linecap: square"/>
   </g>
   <g id="matplotlib.axis_1">
    <g id="xtick_1">
     <g id="line2d_3">
      <defs>
       <path id="m12c948c3fa" d="M 0 0 
L 0 3.5 
" style="stroke: #c2c1c1; stroke-width: 0.8"/>
      </defs>
      <g>
       <use xlink:href="#m12c948c3fa" x="38.459" y="179.728" style="fill: #c2c1c1; stroke: #c2c1c1; stroke-width: 0.8"/>
      </g>
     </g>
     <g id="text_1">
      <!-- 2 -->
      <g style="fill: #191919" transform="translate(36.21275 192.728) scale(0.08 -0.08)">
       <defs>
        <path id="Roboto-Regular-32" d="M 3359 0 
L 378 0 
L 378 416 
L 1953 2166 
Q 2303 2563 2436 2811 
Q 2569 3059 2569 3325 
Q 2569 3681 2353 3909 
Q 2138 4138 1778 4138 
Q 1347 4138 1108 3892 
Q 869 3647 869 3209 
L 291 3209 
Q 291 3838 695 4225 
Q 1100 4613 1778 4613 
Q 2413 4613 2781 4280 
Q 3150 3947 3150 3394 
Q 3150 2722 2294 1794 
L 1075 472 
L 3359 472 
L 3359 0 
z
" transform="scale(0.015625)"/>
       </defs>
       <use xlink:href="#Roboto-Regular-32"/>
      </g>
     </g>
    </g>
    <g id="xtick_2">
     <g id="line2d_4">
      <g>
       <use xlink:href="#m12c948c3fa" x="78.9901" y="179.728" style="fill: #c2c1c1; stroke: #c2c1c1; stroke-width: 0.8"/>
      </g>
     </g>
     <g id="text_2">
      <!-- 3 -->
      <g style="fill: #191919" transform="translate(76.74385 192.728) scale(0.08 -0.08)">
       <defs>
        <path id="Roboto-Regular-33" d="M 1219 2556 
L 1653 2556 
Q 2063 2563 2297 2772 
Q 2531 2981 2531 3338 
Q 2531 4138 1734 4138 
Q 1359 4138 1136 3923 
Q 913 3709 913 3356 
L 334 3356 
Q 334 3897 729 4255 
Q 1125 4613 1734 4613 
Q 2378 4613 2743 4272 
Q 3109 3931 3109 3325 
Q 3109 3028 2917 2750 
Q 2725 2472 2394 2334 
Q 2769 2216 2973 1941 
Q 3178 1666 3178 1269 
Q 3178 656 2778 296 
Q 2378 -63 1737 -63 
Q 1097 -63 695 284 
Q 294 631 294 1200 
L 875 1200 
Q 875 841 1109 625 
Q 1344 409 1738 409 
Q 2156 409 2378 628 
Q 2600 847 2600 1256 
Q 2600 1653 2356 1865 
Q 2113 2078 1653 2084 
L 1219 2084 
L 1219 2556 
z
" transform="scale(0.015625)"/>
       </defs>
       <use xlink:href="#Roboto-Regular-33"/>
      </g>
     </g>
    </g>
    <g id="xtick_3">
     <g id="line2d_5">
      <g>
       <use xlink:href="#m12c948c3fa" x="119.5212" y="179.728" style="fill: #c2c1c1; stroke: #c2c1c1; stroke-width: 0.8"/>
      </g>
     </g>
     <g id="text_3">
      <!-- 4 -->
      <g style="fill: #191919" transform="translate(117.27495 192.728) scale(0.08 -0.08)">
       <defs>
        <path id="Roboto-Regular-34" d="M 2819 1528 
L 3450 1528 
L 3450 1056 
L 2819 1056 
L 2819 0 
L 2238 0 
L 2238 1056 
L 166 1056 
L 166 1397 
L 2203 4550 
L 2819 4550 
L 2819 1528 
z
M 822 1528 
L 2238 1528 
L 2238 3759 
L 2169 3634 
L 822 1528 
z
" transform="scale(0.015625)"/>
       </defs>
       <use xlink:href="#Roboto-Regular-34"/>
      </g>
     </g>
    </g>
    <g id="xtick_4">
     <g id="line2d_6">
      <g>
       <use xlink:href="#m12c948c3fa" x="160.0523" y="179.728" style="fill: #c2c1c1; stroke: #c2c1c1; stroke-width: 0.8"/>
      </g>
     </g>
     <g id="text_4">
      <!-- 5 -->
      <g style="fill: #191919" transform="translate(157.80605 192.728) scale(0.08 -0.08)">
       <defs>
        <path id="Roboto-Regular-35" d="M 644 2281 
L 875 4550 
L 3206 4550 
L 3206 4016 
L 1366 4016 
L 1228 2775 
Q 1563 2972 1988 2972 
Q 2609 2972 2975 2561 
Q 3341 2150 3341 1450 
Q 3341 747 2961 342 
Q 2581 -63 1900 -63 
Q 1297 -63 915 271 
Q 534 606 481 1197 
L 1028 1197 
Q 1081 806 1306 607 
Q 1531 409 1900 409 
Q 2303 409 2533 684 
Q 2763 959 2763 1444 
Q 2763 1900 2514 2176 
Q 2266 2453 1853 2453 
Q 1475 2453 1259 2288 
L 1106 2163 
L 644 2281 
z
" transform="scale(0.015625)"/>
       </defs>
       <use xlink:href="#Roboto-Regular-35"/>
      </g>
     </g>
    </g>
    <g id="xtick_5">
     <g id="line2d_7">
      <g>
       <use xlink:href="#m12c948c3fa" x="200.5834" y="179.728" style="fill: #c2c1c1; stroke: #c2c1c1; stroke-width: 0.8"/>
      </g>
     </g>
     <g id="text_5">
      <!-- 6 -->
      <g style="fill: #191919" transform="translate(198.33715 192.728) scale(0.08 -0.08)">
       <defs>
        <path id="Roboto-Regular-36" d="M 2647 4553 
L 2647 4063 
L 2541 4063 
Q 1866 4050 1466 3662 
Q 1066 3275 1003 2572 
Q 1363 2984 1984 2984 
Q 2578 2984 2933 2565 
Q 3288 2147 3288 1484 
Q 3288 781 2905 359 
Q 2522 -63 1878 -63 
Q 1225 -63 819 439 
Q 413 941 413 1731 
L 413 1953 
Q 413 3209 948 3873 
Q 1484 4538 2544 4553 
L 2647 4553 
z
M 1888 2503 
Q 1591 2503 1341 2325 
Q 1091 2147 994 1878 
L 994 1666 
Q 994 1103 1247 759 
Q 1500 416 1878 416 
Q 2269 416 2492 703 
Q 2716 991 2716 1456 
Q 2716 1925 2489 2214 
Q 2263 2503 1888 2503 
z
" transform="scale(0.015625)"/>
       </defs>
       <use xlink:href="#Roboto-Regular-36"/>
      </g>
     </g>
    </g>
    <g id="xtick_6">
     <g id="line2d_8">
      <g>
       <use xlink:href="#m12c948c3fa" x="241.1145" y="179.728" style="fill: #c2c1c1; stroke: #c2c1c1; stroke-width: 0.8"/>
      </g>
     </g>
     <g id="text_6">
      <!-- 7 -->
      <g style="fill: #191919" transform="translate(238.86825 192.728) scale(0.08 -0.08)">
       <defs>
        <path id="Roboto-Regular-37" d="M 3316 4225 
L 1431 0 
L 825 0 
L 2703 4075 
L 241 4075 
L 241 4550 
L 3316 4550 
L 3316 4225 
z
" transform="scale(0.015625)"/>
       </defs>
       <use xlink:href="#Roboto-Regular-37"/>
      </g>
     </g>
    </g>
    <g id="text_7">
     <!-- Cro66 O3 - Gln94 NE2 Distance [Å] -->
     <g style="fill: #191919" transform="translate(77.1155 205.61925) scale(0.08 -0.08)">
      <defs>
       <path id="Roboto-Black-43" d="M 4025 1541 
Q 4003 1066 3768 702 
Q 3534 338 3111 137 
Q 2688 -63 2144 -63 
Q 1247 -63 731 521 
Q 216 1106 216 2172 
L 216 2397 
Q 216 3066 448 3567 
Q 681 4069 1118 4342 
Q 1556 4616 2131 4616 
Q 2959 4616 3462 4180 
Q 3966 3744 4034 2978 
L 2941 2978 
Q 2928 3394 2731 3575 
Q 2534 3756 2131 3756 
Q 1722 3756 1531 3450 
Q 1341 3144 1331 2472 
L 1331 2150 
Q 1331 1422 1514 1109 
Q 1697 797 2144 797 
Q 2522 797 2722 975 
Q 2922 1153 2934 1541 
L 4025 1541 
z
" transform="scale(0.015625)"/>
       <path id="Roboto-Black-72" d="M 2341 2428 
L 1994 2453 
Q 1497 2453 1356 2141 
L 1356 0 
L 303 0 
L 303 3381 
L 1291 3381 
L 1325 2947 
Q 1591 3444 2066 3444 
Q 2234 3444 2359 3406 
L 2341 2428 
z
" transform="scale(0.015625)"/>
       <path id="Roboto-Black-6f" d="M 163 1722 
Q 163 2228 359 2623 
Q 556 3019 925 3231 
Q 1294 3444 1791 3444 
Q 2550 3444 2987 2973 
Q 3425 2503 3425 1694 
L 3425 1656 
Q 3425 866 2986 401 
Q 2547 -63 1797 -63 
Q 1075 -63 637 370 
Q 200 803 166 1544 
L 163 1722 
z
M 1216 1656 
Q 1216 1188 1362 969 
Q 1509 750 1797 750 
Q 2359 750 2372 1616 
L 2372 1722 
Q 2372 2631 1791 2631 
Q 1263 2631 1219 1847 
L 1216 1656 
z
" transform="scale(0.015625)"/>
       <path id="Roboto-Black-36" d="M 2822 4616 
L 2822 3788 
L 2775 3788 
Q 2184 3788 1804 3505 
Q 1425 3222 1338 2719 
Q 1694 3069 2238 3069 
Q 2828 3069 3178 2637 
Q 3528 2206 3528 1506 
Q 3528 1072 3323 709 
Q 3119 347 2751 142 
Q 2384 -63 1938 -63 
Q 1453 -63 1072 157 
Q 691 378 478 787 
Q 266 1197 259 1731 
L 259 2153 
Q 259 2856 561 3417 
Q 863 3978 1422 4297 
Q 1981 4616 2663 4616 
L 2822 4616 
z
M 1872 2263 
Q 1663 2263 1522 2166 
Q 1381 2069 1313 1928 
L 1313 1613 
Q 1313 750 1909 750 
Q 2150 750 2311 965 
Q 2472 1181 2472 1506 
Q 2472 1841 2308 2052 
Q 2144 2263 1872 2263 
z
" transform="scale(0.015625)"/>
       <path id="Roboto-Black-20" transform="scale(0.015625)"/>
       <path id="Roboto-Black-4f" d="M 4197 2181 
Q 4197 1516 3950 1003 
Q 3703 491 3248 214 
Q 2794 -63 2212 -63 
Q 1631 -63 1181 204 
Q 731 472 479 969 
Q 228 1466 216 2109 
L 216 2366 
Q 216 3034 461 3545 
Q 706 4056 1164 4334 
Q 1622 4613 2206 4613 
Q 2784 4613 3237 4338 
Q 3691 4063 3942 3555 
Q 4194 3047 4197 2391 
L 4197 2181 
z
M 3081 2372 
Q 3081 3050 2854 3401 
Q 2628 3753 2206 3753 
Q 1381 3753 1334 2516 
L 1331 2181 
Q 1331 1513 1553 1153 
Q 1775 794 2213 794 
Q 2628 794 2853 1147 
Q 3078 1500 3081 2163 
L 3081 2372 
z
" transform="scale(0.015625)"/>
       <path id="Roboto-Black-33" d="M 1241 2716 
L 1738 2716 
Q 2328 2716 2328 3294 
Q 2328 3519 2187 3661 
Q 2047 3803 1791 3803 
Q 1581 3803 1426 3681 
Q 1272 3559 1272 3378 
L 219 3378 
Q 219 3738 419 4019 
Q 619 4300 973 4458 
Q 1328 4616 1753 4616 
Q 2513 4616 2947 4269 
Q 3381 3922 3381 3316 
Q 3381 3022 3201 2761 
Q 3022 2500 2678 2338 
Q 3041 2206 3247 1939 
Q 3453 1672 3453 1278 
Q 3453 669 2984 303 
Q 2516 -63 1753 -63 
Q 1306 -63 923 107 
Q 541 278 344 579 
Q 147 881 147 1266 
L 1206 1266 
Q 1206 1056 1375 903 
Q 1544 750 1791 750 
Q 2069 750 2234 904 
Q 2400 1059 2400 1300 
Q 2400 1644 2228 1787 
Q 2056 1931 1753 1931 
L 1241 1931 
L 1241 2716 
z
" transform="scale(0.015625)"/>
       <path id="Roboto-Black-2d" d="M 2353 1553 
L 475 1553 
L 475 2369 
L 2353 2369 
L 2353 1553 
z
" transform="scale(0.015625)"/>
       <path id="Roboto-Black-47" d="M 4069 563 
Q 3816 281 3328 109 
Q 2841 -63 2259 -63 
Q 1366 -63 831 484 
Q 297 1031 259 2006 
L 256 2400 
Q 256 3072 493 3573 
Q 731 4075 1173 4345 
Q 1616 4616 2197 4616 
Q 3047 4616 3517 4227 
Q 3988 3838 4066 3066 
L 3009 3066 
Q 2953 3447 2765 3609 
Q 2578 3772 2234 3772 
Q 1822 3772 1597 3422 
Q 1372 3072 1369 2422 
L 1369 2147 
Q 1369 1466 1601 1123 
Q 1834 781 2334 781 
Q 2763 781 2972 972 
L 2972 1678 
L 2209 1678 
L 2209 2431 
L 4069 2431 
L 4069 563 
z
" transform="scale(0.015625)"/>
       <path id="Roboto-Black-6c" d="M 1406 0 
L 350 0 
L 350 4800 
L 1406 4800 
L 1406 0 
z
" transform="scale(0.015625)"/>
       <path id="Roboto-Black-6e" d="M 1263 3381 
L 1297 2984 
Q 1647 3444 2263 3444 
Q 2791 3444 3052 3128 
Q 3313 2813 3322 2178 
L 3322 0 
L 2266 0 
L 2266 2134 
Q 2266 2391 2162 2511 
Q 2059 2631 1788 2631 
Q 1478 2631 1328 2388 
L 1328 0 
L 275 0 
L 275 3381 
L 1263 3381 
z
" transform="scale(0.015625)"/>
       <path id="Roboto-Black-39" d="M 2353 1759 
Q 2013 1453 1591 1453 
Q 972 1453 609 1872 
Q 247 2291 247 2991 
Q 247 3428 450 3803 
Q 653 4178 1020 4397 
Q 1388 4616 1831 4616 
Q 2281 4616 2645 4389 
Q 3009 4163 3212 3748 
Q 3416 3334 3422 2794 
L 3422 2391 
Q 3422 1638 3126 1084 
Q 2831 531 2284 234 
Q 1738 -63 1009 -63 
L 944 -63 
L 944 781 
L 1144 784 
Q 2231 838 2353 1759 
z
M 1875 2213 
Q 2219 2213 2369 2509 
L 2369 2947 
Q 2369 3384 2222 3593 
Q 2075 3803 1825 3803 
Q 1603 3803 1453 3565 
Q 1303 3328 1303 2991 
Q 1303 2634 1456 2423 
Q 1609 2213 1875 2213 
z
" transform="scale(0.015625)"/>
       <path id="Roboto-Black-34" d="M 3059 1778 
L 3522 1778 
L 3522 966 
L 3059 966 
L 3059 0 
L 2006 0 
L 2006 966 
L 247 966 
L 184 1609 
L 2006 4541 
L 2006 4550 
L 3059 4550 
L 3059 1778 
z
M 1188 1778 
L 2006 1778 
L 2006 3178 
L 1941 3072 
L 1188 1778 
z
" transform="scale(0.015625)"/>
       <path id="Roboto-Black-4e" d="M 4144 0 
L 3053 0 
L 1441 2831 
L 1441 0 
L 344 0 
L 344 4550 
L 1441 4550 
L 3050 1719 
L 3050 4550 
L 4144 4550 
L 4144 0 
z
" transform="scale(0.015625)"/>
       <path id="Roboto-Black-45" d="M 3166 1928 
L 1441 1928 
L 1441 844 
L 3478 844 
L 3478 0 
L 344 0 
L 344 4550 
L 3484 4550 
L 3484 3703 
L 1441 3703 
L 1441 2744 
L 3166 2744 
L 3166 1928 
z
" transform="scale(0.015625)"/>
       <path id="Roboto-Black-32" d="M 3453 0 
L 278 0 
L 278 688 
L 1741 2225 
Q 2281 2841 2281 3203 
Q 2281 3497 2153 3650 
Q 2025 3803 1781 3803 
Q 1541 3803 1391 3598 
Q 1241 3394 1241 3088 
L 184 3088 
Q 184 3506 393 3861 
Q 603 4216 975 4416 
Q 1347 4616 1806 4616 
Q 2544 4616 2942 4275 
Q 3341 3934 3341 3297 
Q 3341 3028 3241 2773 
Q 3141 2519 2930 2239 
Q 2719 1959 2250 1491 
L 1663 813 
L 3453 813 
L 3453 0 
z
" transform="scale(0.015625)"/>
       <path id="Roboto-Black-44" d="M 344 0 
L 344 4550 
L 1809 4550 
Q 2413 4550 2894 4276 
Q 3375 4003 3645 3504 
Q 3916 3006 3919 2388 
L 3919 2178 
Q 3919 1553 3655 1058 
Q 3391 563 2911 283 
Q 2431 3 1841 0 
L 344 0 
z
M 1441 3703 
L 1441 844 
L 1822 844 
Q 2294 844 2547 1180 
Q 2800 1516 2800 2178 
L 2800 2375 
Q 2800 3034 2547 3368 
Q 2294 3703 1809 3703 
L 1441 3703 
z
" transform="scale(0.015625)"/>
       <path id="Roboto-Black-69" d="M 1406 0 
L 350 0 
L 350 3381 
L 1406 3381 
L 1406 0 
z
M 288 4253 
Q 288 4478 450 4622 
Q 613 4766 872 4766 
Q 1131 4766 1293 4622 
Q 1456 4478 1456 4253 
Q 1456 4028 1293 3884 
Q 1131 3741 872 3741 
Q 613 3741 450 3884 
Q 288 4028 288 4253 
z
" transform="scale(0.015625)"/>
       <path id="Roboto-Black-73" d="M 2066 950 
Q 2066 1084 1925 1165 
Q 1784 1247 1390 1334 
Q 997 1422 740 1564 
Q 484 1706 350 1909 
Q 216 2113 216 2375 
Q 216 2841 600 3142 
Q 984 3444 1606 3444 
Q 2275 3444 2681 3141 
Q 3088 2838 3088 2344 
L 2031 2344 
Q 2031 2750 1603 2750 
Q 1438 2750 1325 2658 
Q 1213 2566 1213 2428 
Q 1213 2288 1350 2200 
Q 1488 2113 1789 2056 
Q 2091 2000 2319 1922 
Q 3081 1659 3081 981 
Q 3081 519 2670 228 
Q 2259 -63 1606 -63 
Q 1172 -63 831 93 
Q 491 250 300 519 
Q 109 788 109 1084 
L 1094 1084 
Q 1100 850 1250 742 
Q 1400 634 1634 634 
Q 1850 634 1958 721 
Q 2066 809 2066 950 
z
" transform="scale(0.015625)"/>
       <path id="Roboto-Black-74" d="M 1522 4222 
L 1522 3381 
L 2078 3381 
L 2078 2650 
L 1522 2650 
L 1522 1103 
Q 1522 913 1590 838 
Q 1659 763 1863 763 
Q 2019 763 2125 781 
L 2125 28 
Q 1841 -63 1531 -63 
Q 988 -63 728 193 
Q 469 450 469 972 
L 469 2650 
L 38 2650 
L 38 3381 
L 469 3381 
L 469 4222 
L 1522 4222 
z
" transform="scale(0.015625)"/>
       <path id="Roboto-Black-61" d="M 2200 0 
Q 2144 103 2100 303 
Q 1809 -63 1288 -63 
Q 809 -63 475 226 
Q 141 516 141 953 
Q 141 1503 547 1784 
Q 953 2066 1728 2066 
L 2053 2066 
L 2053 2244 
Q 2053 2709 1650 2709 
Q 1275 2709 1275 2341 
L 222 2341 
Q 222 2831 639 3137 
Q 1056 3444 1703 3444 
Q 2350 3444 2725 3128 
Q 3100 2813 3109 2263 
L 3109 766 
Q 3116 300 3253 53 
L 3253 0 
L 2200 0 
z
M 1541 688 
Q 1738 688 1867 772 
Q 1997 856 2053 963 
L 2053 1503 
L 1747 1503 
Q 1197 1503 1197 1009 
Q 1197 866 1294 777 
Q 1391 688 1541 688 
z
" transform="scale(0.015625)"/>
       <path id="Roboto-Black-63" d="M 1725 750 
Q 1947 750 2069 870 
Q 2191 991 2188 1206 
L 3175 1206 
Q 3175 650 2776 293 
Q 2378 -63 1750 -63 
Q 1013 -63 588 400 
Q 163 863 163 1681 
L 163 1725 
Q 163 2238 352 2630 
Q 541 3022 897 3233 
Q 1253 3444 1741 3444 
Q 2400 3444 2787 3078 
Q 3175 2713 3175 2088 
L 2188 2088 
Q 2188 2350 2059 2490 
Q 1931 2631 1716 2631 
Q 1306 2631 1238 2109 
Q 1216 1944 1216 1653 
Q 1216 1144 1337 947 
Q 1459 750 1725 750 
z
" transform="scale(0.015625)"/>
       <path id="Roboto-Black-65" d="M 1931 -63 
Q 1153 -63 672 401 
Q 191 866 191 1609 
L 191 1697 
Q 191 2216 383 2612 
Q 575 3009 944 3226 
Q 1313 3444 1819 3444 
Q 2531 3444 2943 3001 
Q 3356 2559 3356 1769 
L 3356 1359 
L 1263 1359 
Q 1319 1075 1509 912 
Q 1700 750 2003 750 
Q 2503 750 2784 1100 
L 3266 531 
Q 3069 259 2708 98 
Q 2347 -63 1931 -63 
z
M 1813 2631 
Q 1350 2631 1263 2019 
L 2325 2019 
L 2325 2100 
Q 2331 2353 2197 2492 
Q 2063 2631 1813 2631 
z
" transform="scale(0.015625)"/>
       <path id="Roboto-Black-5b" d="M 1763 4563 
L 1394 4563 
L 1394 -325 
L 1763 -325 
L 1763 -1091 
L 338 -1091 
L 338 5331 
L 1763 5331 
L 1763 4563 
z
" transform="scale(0.015625)"/>
       <path id="Roboto-Black-c5" d="M 2928 850 
L 1425 850 
L 1163 0 
L -9 0 
L 1659 4550 
L 2691 4550 
L 4372 0 
L 3194 0 
L 2928 850 
z
M 1688 1697 
L 2666 1697 
L 2175 3275 
L 1688 1697 
z
M 1489 5388 
Q 1489 5657 1693 5839 
Q 1898 6022 2192 6022 
Q 2483 6022 2687 5839 
Q 2892 5657 2892 5388 
Q 2892 5122 2690 4944 
Q 2489 4766 2192 4766 
Q 1892 4766 1690 4944 
Q 1489 5122 1489 5388 
z
M 2192 5063 
Q 2342 5063 2428 5156 
Q 2514 5250 2514 5387 
Q 2514 5525 2428 5622 
Q 2342 5719 2192 5719 
Q 2039 5719 1953 5622 
Q 1867 5525 1867 5387 
Q 1867 5250 1953 5156 
Q 2039 5063 2192 5063 
z
" transform="scale(0.015625)"/>
       <path id="Roboto-Black-5d" d="M 44 5331 
L 1469 5331 
L 1469 -1091 
L 44 -1091 
L 44 -325 
L 416 -325 
L 416 4563 
L 44 4563 
L 44 5331 
z
" transform="scale(0.015625)"/>
      </defs>
      <use xlink:href="#Roboto-Black-43"/>
      <use xlink:href="#Roboto-Black-72" x="65.625"/>
      <use xlink:href="#Roboto-Black-6f" x="103.515625"/>
      <use xlink:href="#Roboto-Black-36" x="159.667969"/>
      <use xlink:href="#Roboto-Black-36" x="217.578125"/>
      <use xlink:href="#Roboto-Black-20" x="275.488281"/>
      <use xlink:href="#Roboto-Black-4f" x="300.390625"/>
      <use xlink:href="#Roboto-Black-33" x="369.433594"/>
      <use xlink:href="#Roboto-Black-20" x="427.34375"/>
      <use xlink:href="#Roboto-Black-2d" x="452.246094"/>
      <use xlink:href="#Roboto-Black-20" x="497.216797"/>
      <use xlink:href="#Roboto-Black-47" x="522.119141"/>
      <use xlink:href="#Roboto-Black-6c" x="590.283203"/>
      <use xlink:href="#Roboto-Black-6e" x="617.773438"/>
      <use xlink:href="#Roboto-Black-39" x="674.169922"/>
      <use xlink:href="#Roboto-Black-34" x="732.080078"/>
      <use xlink:href="#Roboto-Black-20" x="789.990234"/>
      <use xlink:href="#Roboto-Black-4e" x="814.892578"/>
      <use xlink:href="#Roboto-Black-45" x="885.107422"/>
      <use xlink:href="#Roboto-Black-32" x="941.064453"/>
      <use xlink:href="#Roboto-Black-20" x="998.974609"/>
      <use xlink:href="#Roboto-Black-44" x="1023.876953"/>
      <use xlink:href="#Roboto-Black-69" x="1088.525391"/>
      <use xlink:href="#Roboto-Black-73" x="1116.015625"/>
      <use xlink:href="#Roboto-Black-74" x="1167.236328"/>
      <use xlink:href="#Roboto-Black-61" x="1201.5625"/>
      <use xlink:href="#Roboto-Black-6e" x="1254.638672"/>
      <use xlink:href="#Roboto-Black-63" x="1311.035156"/>
      <use xlink:href="#Roboto-Black-65" x="1362.988281"/>
      <use xlink:href="#Roboto-Black-20" x="1417.431641"/>
      <use xlink:href="#Roboto-Black-5b" x="1442.333984"/>
      <use xlink:href="#Roboto-Black-c5" x="1470.507812"/>
      <use xlink:href="#Roboto-Black-5d" x="1538.623047"/>
     </g>
    </g>
   </g>
   <g id="matplotlib.axis_2">
    <g id="ytick_1">
     <g id="line2d_9">
      <defs>
       <path id="mb58c24e38e" d="M 0 0 
L -3.5 0 
" style="stroke: #c2c1c1; stroke-width: 0.8"/>
      </defs>
      <g>
       <use xlink:href="#mb58c24e38e" x="38.459" y="179.728" style="fill: #c2c1c1; stroke: #c2c1c1; stroke-width: 0.8"/>
      </g>
     </g>
     <g id="text_8">
      <!-- 0.0 -->
      <g style="fill: #191919" transform="translate(20.369 182.728) scale(0.08 -0.08)">
       <defs>
        <path id="Roboto-Regular-30" d="M 3231 1941 
Q 3231 925 2884 431 
Q 2538 -63 1800 -63 
Q 1072 -63 722 420 
Q 372 903 359 1863 
L 359 2634 
Q 359 3638 706 4125 
Q 1053 4613 1794 4613 
Q 2528 4613 2875 4142 
Q 3222 3672 3231 2691 
L 3231 1941 
z
M 2653 2731 
Q 2653 3466 2447 3802 
Q 2241 4138 1794 4138 
Q 1350 4138 1147 3803 
Q 944 3469 938 2775 
L 938 1850 
Q 938 1113 1152 761 
Q 1366 409 1800 409 
Q 2228 409 2436 740 
Q 2644 1072 2653 1784 
L 2653 2731 
z
" transform="scale(0.015625)"/>
        <path id="Roboto-Regular-2e" d="M 450 303 
Q 450 453 539 553 
Q 628 653 806 653 
Q 984 653 1076 553 
Q 1169 453 1169 303 
Q 1169 159 1076 62 
Q 984 -34 806 -34 
Q 628 -34 539 62 
Q 450 159 450 303 
z
" transform="scale(0.015625)"/>
       </defs>
       <use xlink:href="#Roboto-Regular-30"/>
       <use xlink:href="#Roboto-Regular-2e" x="56.152344"/>
       <use xlink:href="#Roboto-Regular-30" x="82.470703"/>
      </g>
     </g>
    </g>
    <g id="ytick_2">
     <g id="line2d_10">
      <g>
       <use xlink:href="#mb58c24e38e" x="38.459" y="151.727509" style="fill: #c2c1c1; stroke: #c2c1c1; stroke-width: 0.8"/>
      </g>
     </g>
     <g id="text_9">
      <!-- 0.2 -->
      <g style="fill: #191919" transform="translate(20.369 154.727509) scale(0.08 -0.08)">
       <use xlink:href="#Roboto-Regular-30"/>
       <use xlink:href="#Roboto-Regular-2e" x="56.152344"/>
       <use xlink:href="#Roboto-Regular-32" x="82.470703"/>
      </g>
     </g>
    </g>
    <g id="ytick_3">
     <g id="line2d_11">
      <g>
       <use xlink:href="#mb58c24e38e" x="38.459" y="123.727018" style="fill: #c2c1c1; stroke: #c2c1c1; stroke-width: 0.8"/>
      </g>
     </g>
     <g id="text_10">
      <!-- 0.4 -->
      <g style="fill: #191919" transform="translate(20.369 126.727018) scale(0.08 -0.08)">
       <use xlink:href="#Roboto-Regular-30"/>
       <use xlink:href="#Roboto-Regular-2e" x="56.152344"/>
       <use xlink:href="#Roboto-Regular-34" x="82.470703"/>
      </g>
     </g>
    </g>
    <g id="ytick_4">
     <g id="line2d_12">
      <g>
       <use xlink:href="#mb58c24e38e" x="38.459" y="95.726527" style="fill: #c2c1c1; stroke: #c2c1c1; stroke-width: 0.8"/>
      </g>
     </g>
     <g id="text_11">
      <!-- 0.6 -->
      <g style="fill: #191919" transform="translate(20.369 98.726527) scale(0.08 -0.08)">
       <use xlink:href="#Roboto-Regular-30"/>
       <use xlink:href="#Roboto-Regular-2e" x="56.152344"/>
       <use xlink:href="#Roboto-Regular-36" x="82.470703"/>
      </g>
     </g>
    </g>
    <g id="ytick_5">
     <g id="line2d_13">
      <g>
       <use xlink:href="#mb58c24e38e" x="38.459" y="67.726037" style="fill: #c2c1c1; stroke: #c2c1c1; stroke-width: 0.8"/>
      </g>
     </g>
     <g id="text_12">
      <!-- 0.8 -->
      <g style="fill: #191919" transform="translate(20.369 70.726037) scale(0.08 -0.08)">
       <defs>
        <path id="Roboto-Regular-38" d="M 3138 3363 
Q 3138 3022 2958 2756 
Q 2778 2491 2472 2341 
Q 2828 2188 3036 1894 
Q 3244 1600 3244 1228 
Q 3244 638 2845 287 
Q 2447 -63 1797 -63 
Q 1141 -63 745 289 
Q 350 641 350 1228 
Q 350 1597 551 1894 
Q 753 2191 1109 2344 
Q 806 2494 631 2759 
Q 456 3025 456 3363 
Q 456 3938 825 4275 
Q 1194 4613 1797 4613 
Q 2397 4613 2767 4275 
Q 3138 3938 3138 3363 
z
M 2666 1241 
Q 2666 1622 2423 1862 
Q 2181 2103 1790 2103 
Q 1400 2103 1164 1865 
Q 928 1628 928 1240 
Q 928 853 1158 631 
Q 1388 409 1797 409 
Q 2203 409 2434 632 
Q 2666 856 2666 1241 
z
M 1797 4138 
Q 1456 4138 1245 3927 
Q 1034 3716 1034 3353 
Q 1034 3006 1242 2792 
Q 1450 2578 1797 2578 
Q 2144 2578 2351 2792 
Q 2559 3006 2559 3353 
Q 2559 3700 2343 3919 
Q 2128 4138 1797 4138 
z
" transform="scale(0.015625)"/>
       </defs>
       <use xlink:href="#Roboto-Regular-30"/>
       <use xlink:href="#Roboto-Regular-2e" x="56.152344"/>
       <use xlink:href="#Roboto-Regular-38" x="82.470703"/>
      </g>
     </g>
    </g>
    <g id="ytick_6">
     <g id="line2d_14">
      <g>
       <use xlink:href="#mb58c24e38e" x="38.459" y="39.725546" style="fill: #c2c1c1; stroke: #c2c1c1; stroke-width: 0.8"/>
      </g>
     </g>
     <g id="text_13">
      <!-- 1.0 -->
      <g style="fill: #191919" transform="translate(20.369 42.725546) scale(0.08 -0.08)">
       <defs>
        <path id="Roboto-Regular-31" d="M 2278 0 
L 1697 0 
L 1697 3853 
L 531 3425 
L 531 3950 
L 2188 4572 
L 2278 4572 
L 2278 0 
z
" transform="scale(0.015625)"/>
       </defs>
       <use xlink:href="#Roboto-Regular-31"/>
       <use xlink:href="#Roboto-Regular-2e" x="56.152344"/>
       <use xlink:href="#Roboto-Regular-30" x="82.470703"/>
      </g>
     </g>
    </g>
    <g id="ytick_7">
     <g id="line2d_15">
      <g>
       <use xlink:href="#mb58c24e38e" x="38.459" y="11.725055" style="fill: #c2c1c1; stroke: #c2c1c1; stroke-width: 0.8"/>
      </g>
     </g>
     <g id="text_14">
      <!-- 1.2 -->
      <g style="fill: #191919" transform="translate(20.369 14.725055) scale(0.08 -0.08)">
       <use xlink:href="#Roboto-Regular-31"/>
       <use xlink:href="#Roboto-Regular-2e" x="56.152344"/>
       <use xlink:href="#Roboto-Regular-32" x="82.470703"/>
      </g>
     </g>
    </g>
    <g id="text_15">
     <!-- Density -->
     <g style="fill: #191919" transform="translate(14.6615 108.093229) rotate(-90) scale(0.08 -0.08)">
      <defs>
       <path id="Roboto-Black-79" d="M 1647 1475 
L 2209 3381 
L 3338 3381 
L 1959 -566 
L 1900 -709 
Q 1606 -1366 863 -1366 
Q 656 -1366 428 -1303 
L 428 -550 
L 566 -550 
Q 788 -550 905 -486 
Q 1022 -422 1078 -256 
L 1163 -31 
L -13 3381 
L 1113 3381 
L 1647 1475 
z
" transform="scale(0.015625)"/>
      </defs>
      <use xlink:href="#Roboto-Black-44"/>
      <use xlink:href="#Roboto-Black-65" x="64.648438"/>
      <use xlink:href="#Roboto-Black-6e" x="119.091797"/>
      <use xlink:href="#Roboto-Black-73" x="175.488281"/>
      <use xlink:href="#Roboto-Black-69" x="226.708984"/>
      <use xlink:href="#Roboto-Black-74" x="254.199219"/>
      <use xlink:href="#Roboto-Black-79" x="288.525391"/>
     </g>
    </g>
   </g>
   <g id="line2d_16">
    <path d="M -1 179.728 
L 59.064196 179.706488 
L 61.102073 179.492845 
L 63.139949 178.451593 
L 65.177826 174.540338 
L 67.215702 165.250284 
L 69.253579 150.186206 
L 71.291455 132.87117 
L 73.329332 118.65645 
L 75.367208 109.444092 
L 77.405085 103.510394 
L 79.442961 102.229072 
L 81.480838 100.350148 
L 83.518715 99.83995 
L 85.556591 100.635043 
L 87.594468 99.988078 
L 89.632344 98.411603 
L 91.670221 97.79822 
L 93.708097 98.098759 
L 95.745974 98.55937 
L 97.78385 98.510464 
L 99.821727 100.051841 
L 101.859603 101.931979 
L 103.89748 104.136437 
L 105.935356 106.553704 
L 110.011109 114.860856 
L 116.124739 128.576403 
L 118.162616 132.076107 
L 120.200492 136.246064 
L 122.238369 141.022204 
L 128.351998 152.39942 
L 132.427751 158.837331 
L 134.465628 161.650727 
L 136.503504 164.269629 
L 138.541381 166.433567 
L 140.579258 168.265709 
L 142.617134 170.600176 
L 144.655011 172.357633 
L 146.692887 173.758319 
L 150.76864 175.327702 
L 152.806517 176.508884 
L 154.844393 177.198438 
L 156.88227 177.513778 
L 158.920146 177.626587 
L 162.995899 177.403861 
L 165.033776 177.041629 
L 167.071653 176.232445 
L 169.109529 174.795349 
L 171.147406 172.55803 
L 173.185282 169.265619 
L 175.223159 165.374113 
L 177.261035 160.479077 
L 179.298912 154.843002 
L 183.374665 142.11165 
L 185.412541 136.236968 
L 187.450418 131.74574 
L 189.488294 127.960345 
L 191.526171 126.268308 
L 193.564047 127.178714 
L 195.601924 129.898285 
L 197.639801 133.191896 
L 199.677677 137.828229 
L 201.715554 143.700125 
L 205.791307 156.309669 
L 207.829183 161.300557 
L 209.86706 165.707896 
L 211.904936 169.745982 
L 213.942813 172.491908 
L 215.980689 174.613185 
L 218.018566 176.509041 
L 220.056442 177.574243 
L 222.094319 178.255422 
L 226.170072 179.218445 
L 228.207949 179.491301 
L 232.283702 179.653 
L 240.435208 179.714931 
L 253 179.726783 
L 253 179.726783 
" clip-path="url(#p22468f7d10)" style="fill: none; stroke: #f99752; stroke-width: 1.5; stroke-linecap: square"/>
   </g>
   <g id="patch_3">
    <path d="M 38.459 179.728 
L 38.459 9.232208 
" style="fill: none; stroke: #c2c1c1; stroke-width: 0.8; stroke-linejoin: miter; stroke-linecap: square"/>
   </g>
   <g id="patch_4">
    <path d="M 241.1145 179.728 
L 241.1145 9.232208 
" style="fill: none; stroke: #c2c1c1; stroke-width: 0.8; stroke-linejoin: miter; stroke-linecap: square"/>
   </g>
   <g id="patch_5">
    <path d="M 38.459 179.728 
L 241.1145 179.728 
" style="fill: none; stroke: #c2c1c1; stroke-width: 0.8; stroke-linejoin: miter; stroke-linecap: square"/>
   </g>
   <g id="patch_6">
    <path d="M 38.459 9.232208 
L 241.1145 9.232208 
" style="fill: none; stroke: #c2c1c1; stroke-width: 0.8; stroke-linejoin: miter; stroke-linecap: square"/>
   </g>
   <g id="line2d_17">
    <path d="M -1 179.728 
L 63.139949 179.683373 
L 65.177826 179.197543 
L 67.215702 178.140025 
L 69.253579 175.593603 
L 71.291455 172.062349 
L 73.329332 168.293283 
L 77.405085 159.318252 
L 79.442961 154.006838 
L 81.480838 146.797659 
L 83.518715 142.117863 
L 85.556591 132.929083 
L 87.594468 127.265421 
L 89.632344 119.820934 
L 91.670221 110.090263 
L 93.708097 102.883153 
L 95.745974 99.52941 
L 97.78385 92.133821 
L 99.821727 89.385909 
L 101.859603 82.773729 
L 103.89748 78.870179 
L 105.935356 77.267942 
L 110.011109 76.907522 
L 112.048986 77.677067 
L 114.086863 82.096377 
L 116.124739 85.352764 
L 118.162616 87.715458 
L 120.200492 93.170002 
L 122.238369 97.244931 
L 124.276245 101.067466 
L 126.314122 106.018184 
L 128.351998 112.416029 
L 130.389875 116.508155 
L 134.465628 123.902744 
L 136.503504 129.405496 
L 138.541381 132.702199 
L 140.579258 137.03425 
L 142.617134 139.873484 
L 144.655011 144.103527 
L 146.692887 145.94052 
L 148.730764 148.608601 
L 150.76864 150.94309 
L 152.806517 154.184153 
L 154.844393 156.860077 
L 158.920146 159.454557 
L 160.958023 162.184074 
L 162.995899 163.477373 
L 165.033776 164.946887 
L 167.071653 165.61555 
L 169.109529 166.453152 
L 171.147406 168.425705 
L 173.185282 168.164831 
L 175.223159 169.795965 
L 177.261035 171.084497 
L 181.336788 172.492929 
L 183.374665 172.931876 
L 185.412541 173.641356 
L 187.450418 174.149571 
L 189.488294 174.922342 
L 191.526171 176.02816 
L 195.601924 176.836543 
L 197.639801 176.95534 
L 199.677677 177.20189 
L 201.715554 177.609527 
L 203.75343 177.057043 
L 205.791307 177.509717 
L 207.829183 177.844178 
L 209.86706 177.870046 
L 211.904936 177.602617 
L 213.942813 177.886815 
L 218.018566 177.604556 
L 220.056442 177.970038 
L 222.094319 177.800846 
L 224.132196 178.294408 
L 226.170072 178.028373 
L 228.207949 178.545341 
L 230.245825 178.66079 
L 232.283702 178.532054 
L 236.359455 178.989944 
L 238.397331 179.241912 
L 248.586714 179.657559 
L 253 179.642782 
L 253 179.642782 
" clip-path="url(#p22468f7d10)" style="fill: none; stroke: #1b998b; stroke-opacity: 0.6; stroke-width: 1.5; stroke-linecap: square"/>
   </g>
   <g id="legend_1">
    <g id="line2d_18">
     <path d="M 180.49075 19.632208 
L 188.49075 19.632208 
L 196.49075 19.632208 
" style="fill: none; stroke: #1e2e79; stroke-width: 1.5; stroke-linecap: square"/>
    </g>
    <g id="text_16">
     <!-- Reduced -->
     <g transform="translate(202.89075 22.432208) scale(0.08 -0.08)">
      <defs>
       <path id="Roboto-Regular-52" d="M 2197 1841 
L 1128 1841 
L 1128 0 
L 525 0 
L 525 4550 
L 2031 4550 
Q 2800 4550 3214 4200 
Q 3628 3850 3628 3181 
Q 3628 2756 3398 2440 
Q 3169 2125 2759 1969 
L 3828 38 
L 3828 0 
L 3184 0 
L 2197 1841 
z
M 1128 2331 
L 2050 2331 
Q 2497 2331 2761 2562 
Q 3025 2794 3025 3181 
Q 3025 3603 2773 3828 
Q 2522 4053 2047 4056 
L 1128 4056 
L 1128 2331 
z
" transform="scale(0.015625)"/>
       <path id="Roboto-Regular-65" d="M 1841 -63 
Q 1153 -63 722 389 
Q 291 841 291 1597 
L 291 1703 
Q 291 2206 483 2601 
Q 675 2997 1020 3220 
Q 1366 3444 1769 3444 
Q 2428 3444 2793 3009 
Q 3159 2575 3159 1766 
L 3159 1525 
L 869 1525 
Q 881 1025 1161 717 
Q 1441 409 1872 409 
Q 2178 409 2390 534 
Q 2603 659 2763 866 
L 3116 591 
Q 2691 -63 1841 -63 
z
M 1769 2969 
Q 1419 2969 1181 2714 
Q 944 2459 888 2000 
L 2581 2000 
L 2581 2044 
Q 2556 2484 2343 2726 
Q 2131 2969 1769 2969 
z
" transform="scale(0.015625)"/>
       <path id="Roboto-Regular-64" d="M 297 1719 
Q 297 2497 665 2970 
Q 1034 3444 1631 3444 
Q 2225 3444 2572 3038 
L 2572 4800 
L 3150 4800 
L 3150 0 
L 2619 0 
L 2591 363 
Q 2244 -63 1625 -63 
Q 1038 -63 667 418 
Q 297 900 297 1675 
L 297 1719 
z
M 875 1653 
Q 875 1078 1112 753 
Q 1350 428 1769 428 
Q 2319 428 2572 922 
L 2572 2475 
Q 2313 2953 1775 2953 
Q 1350 2953 1112 2625 
Q 875 2297 875 1653 
z
" transform="scale(0.015625)"/>
       <path id="Roboto-Regular-75" d="M 2525 334 
Q 2188 -63 1534 -63 
Q 994 -63 711 251 
Q 428 566 425 1181 
L 425 3381 
L 1003 3381 
L 1003 1197 
Q 1003 428 1628 428 
Q 2291 428 2509 922 
L 2509 3381 
L 3088 3381 
L 3088 0 
L 2538 0 
L 2525 334 
z
" transform="scale(0.015625)"/>
       <path id="Roboto-Regular-63" d="M 1794 409 
Q 2103 409 2334 596 
Q 2566 784 2591 1066 
L 3138 1066 
Q 3122 775 2937 512 
Q 2753 250 2445 93 
Q 2138 -63 1794 -63 
Q 1103 -63 695 398 
Q 288 859 288 1659 
L 288 1756 
Q 288 2250 469 2634 
Q 650 3019 989 3231 
Q 1328 3444 1791 3444 
Q 2359 3444 2736 3103 
Q 3113 2763 3138 2219 
L 2591 2219 
Q 2566 2547 2342 2758 
Q 2119 2969 1791 2969 
Q 1350 2969 1108 2651 
Q 866 2334 866 1734 
L 866 1625 
Q 866 1041 1106 725 
Q 1347 409 1794 409 
z
" transform="scale(0.015625)"/>
      </defs>
      <use xlink:href="#Roboto-Regular-52"/>
      <use xlink:href="#Roboto-Regular-65" x="61.572266"/>
      <use xlink:href="#Roboto-Regular-64" x="114.550781"/>
      <use xlink:href="#Roboto-Regular-75" x="170.947266"/>
      <use xlink:href="#Roboto-Regular-63" x="226.074219"/>
      <use xlink:href="#Roboto-Regular-65" x="278.417969"/>
      <use xlink:href="#Roboto-Regular-64" x="331.396484"/>
     </g>
    </g>
    <g id="line2d_19">
     <path d="M 180.49075 31.257208 
L 188.49075 31.257208 
L 196.49075 31.257208 
" style="fill: none; stroke: #ec4067; stroke-width: 1.5; stroke-linecap: square"/>
    </g>
    <g id="text_17">
     <!-- Oxidized -->
     <g transform="translate(202.89075 34.057208) scale(0.08 -0.08)">
      <defs>
       <path id="Roboto-Regular-4f" d="M 4028 2128 
Q 4028 1459 3803 961 
Q 3578 463 3165 200 
Q 2753 -63 2203 -63 
Q 1666 -63 1250 201 
Q 834 466 604 955 
Q 375 1444 369 2088 
L 369 2416 
Q 369 3072 597 3575 
Q 825 4078 1242 4345 
Q 1659 4613 2197 4613 
Q 2744 4613 3161 4348 
Q 3578 4084 3803 3582 
Q 4028 3081 4028 2416 
L 4028 2128 
z
M 3431 2422 
Q 3431 3231 3106 3664 
Q 2781 4097 2197 4097 
Q 1628 4097 1301 3664 
Q 975 3231 966 2463 
L 966 2128 
Q 966 1344 1295 895 
Q 1625 447 2203 447 
Q 2784 447 3103 870 
Q 3422 1294 3431 2084 
L 3431 2422 
z
" transform="scale(0.015625)"/>
       <path id="Roboto-Regular-78" d="M 1572 2147 
L 2322 3381 
L 2997 3381 
L 1891 1709 
L 3031 0 
L 2363 0 
L 1581 1266 
L 800 0 
L 128 0 
L 1269 1709 
L 163 3381 
L 831 3381 
L 1572 2147 
z
" transform="scale(0.015625)"/>
       <path id="Roboto-Regular-69" d="M 1066 0 
L 488 0 
L 488 3381 
L 1066 3381 
L 1066 0 
z
M 441 4278 
Q 441 4419 527 4516 
Q 613 4613 781 4613 
Q 950 4613 1037 4516 
Q 1125 4419 1125 4278 
Q 1125 4138 1037 4044 
Q 950 3950 781 3950 
Q 613 3950 527 4044 
Q 441 4138 441 4278 
z
" transform="scale(0.015625)"/>
       <path id="Roboto-Regular-7a" d="M 981 472 
L 2959 472 
L 2959 0 
L 275 0 
L 275 425 
L 2141 2903 
L 303 2903 
L 303 3381 
L 2866 3381 
L 2866 2972 
L 981 472 
z
" transform="scale(0.015625)"/>
      </defs>
      <use xlink:href="#Roboto-Regular-4f"/>
      <use xlink:href="#Roboto-Regular-78" x="68.75"/>
      <use xlink:href="#Roboto-Regular-69" x="118.310547"/>
      <use xlink:href="#Roboto-Regular-64" x="142.578125"/>
      <use xlink:href="#Roboto-Regular-69" x="198.974609"/>
      <use xlink:href="#Roboto-Regular-7a" x="223.242188"/>
      <use xlink:href="#Roboto-Regular-65" x="272.802734"/>
      <use xlink:href="#Roboto-Regular-64" x="325.78125"/>
     </g>
    </g>
    <g id="line2d_20">
     <path d="M 180.49075 43.299708 
L 188.49075 43.299708 
L 196.49075 43.299708 
" style="fill: none; stroke: #f99752; stroke-width: 1.5; stroke-linecap: square"/>
    </g>
    <g id="text_18">
     <!-- Cu(I) -->
     <g transform="translate(202.89075 46.099708) scale(0.08 -0.08)">
      <defs>
       <path id="Roboto-Regular-43" d="M 3875 1444 
Q 3791 722 3342 329 
Q 2894 -63 2150 -63 
Q 1344 -63 858 515 
Q 372 1094 372 2063 
L 372 2500 
Q 372 3134 598 3615 
Q 825 4097 1240 4355 
Q 1656 4613 2203 4613 
Q 2928 4613 3365 4208 
Q 3803 3803 3875 3088 
L 3272 3088 
Q 3194 3631 2933 3875 
Q 2672 4119 2203 4119 
Q 1628 4119 1301 3694 
Q 975 3269 975 2484 
L 975 2044 
Q 975 1303 1284 865 
Q 1594 428 2150 428 
Q 2650 428 2917 654 
Q 3184 881 3272 1444 
L 3875 1444 
z
" transform="scale(0.015625)"/>
       <path id="Roboto-Regular-28" d="M 416 1847 
Q 416 2553 605 3203 
Q 794 3853 1169 4384 
Q 1544 4916 1947 5134 
L 2066 4753 
Q 1609 4403 1317 3684 
Q 1025 2966 997 2075 
L 994 1809 
Q 994 603 1434 -284 
Q 1700 -816 2066 -1116 
L 1947 -1469 
Q 1531 -1238 1153 -694 
Q 416 369 416 1847 
z
" transform="scale(0.015625)"/>
       <path id="Roboto-Regular-49" d="M 1172 0 
L 572 0 
L 572 4550 
L 1172 4550 
L 1172 0 
z
" transform="scale(0.015625)"/>
       <path id="Roboto-Regular-29" d="M 1772 1816 
Q 1772 1119 1589 480 
Q 1406 -159 1029 -700 
Q 653 -1241 241 -1469 
L 119 -1116 
Q 600 -747 892 29 
Q 1184 806 1191 1753 
L 1191 1853 
Q 1191 2509 1053 3073 
Q 916 3638 670 4084 
Q 425 4531 119 4781 
L 241 5134 
Q 653 4906 1026 4372 
Q 1400 3838 1586 3194 
Q 1772 2550 1772 1816 
z
" transform="scale(0.015625)"/>
      </defs>
      <use xlink:href="#Roboto-Regular-43"/>
      <use xlink:href="#Roboto-Regular-75" x="65.087891"/>
      <use xlink:href="#Roboto-Regular-28" x="120.214844"/>
      <use xlink:href="#Roboto-Regular-49" x="154.394531"/>
      <use xlink:href="#Roboto-Regular-29" x="181.591797"/>
     </g>
    </g>
    <g id="line2d_21">
     <path d="M 180.49075 55.135958 
L 188.49075 55.135958 
L 196.49075 55.135958 
" style="fill: none; stroke: #1b998b; stroke-opacity: 0.6; stroke-width: 1.5; stroke-linecap: square"/>
    </g>
    <g id="text_19">
     <!-- Na$^+$ -->
     <g transform="translate(202.89075 57.935958) scale(0.08 -0.08)">
      <defs>
       <path id="Roboto-Regular-4e" d="M 4025 0 
L 3422 0 
L 1131 3506 
L 1131 0 
L 528 0 
L 528 4550 
L 1131 4550 
L 3428 1028 
L 3428 4550 
L 4025 4550 
L 4025 0 
z
" transform="scale(0.015625)"/>
       <path id="Roboto-Regular-61" d="M 2525 0 
Q 2475 100 2444 356 
Q 2041 -63 1481 -63 
Q 981 -63 661 220 
Q 341 503 341 938 
Q 341 1466 742 1758 
Q 1144 2050 1872 2050 
L 2434 2050 
L 2434 2316 
Q 2434 2619 2253 2798 
Q 2072 2978 1719 2978 
Q 1409 2978 1200 2822 
Q 991 2666 991 2444 
L 409 2444 
Q 409 2697 589 2933 
Q 769 3169 1076 3306 
Q 1384 3444 1753 3444 
Q 2338 3444 2669 3151 
Q 3000 2859 3013 2347 
L 3013 791 
Q 3013 325 3131 50 
L 3131 0 
L 2525 0 
z
M 1566 441 
Q 1838 441 2081 581 
Q 2325 722 2434 947 
L 2434 1641 
L 1981 1641 
Q 919 1641 919 1019 
Q 919 747 1100 594 
Q 1281 441 1566 441 
z
" transform="scale(0.015625)"/>
       <path id="DejaVuSans-2b" d="M 2944 4013 
L 2944 2272 
L 4684 2272 
L 4684 1741 
L 2944 1741 
L 2944 0 
L 2419 0 
L 2419 1741 
L 678 1741 
L 678 2272 
L 2419 2272 
L 2419 4013 
L 2944 4013 
z
" transform="scale(0.015625)"/>
      </defs>
      <use xlink:href="#Roboto-Regular-4e" transform="translate(0 0.826562)"/>
      <use xlink:href="#Roboto-Regular-61" transform="translate(71.289062 0.826562)"/>
      <use xlink:href="#DejaVuSans-2b" transform="translate(140.27832 39.107812) scale(0.7)"/>
     </g>
    </g>
   </g>
  </g>
 </g>
 <defs>
  <clipPath id="p22468f7d10">
   <rect x="38.459" y="9.232208" width="202.6555" height="170.495792"/>
  </clipPath>
 </defs>
</svg>
