<?xml version="1.0" encoding="utf-8" standalone="no"?>
<!DOCTYPE svg PUBLIC "-//W3C//DTD SVG 1.1//EN"
  "http://www.w3.org/Graphics/SVG/1.1/DTD/svg11.dtd">
<svg xmlns:xlink="http://www.w3.org/1999/xlink" width="460.8pt" height="345.6pt" viewBox="0 0 460.8 345.6" xmlns="http://www.w3.org/2000/svg" version="1.1">
 <metadata>
  <rdf:RDF xmlns:dc="http://purl.org/dc/elements/1.1/" xmlns:cc="http://creativecommons.org/ns#" xmlns:rdf="http://www.w3.org/1999/02/22-rdf-syntax-ns#">
   <cc:Work>
    <dc:type rdf:resource="http://purl.org/dc/dcmitype/StillImage"/>
    <dc:date>2024-07-07T18:05:55.249032</dc:date>
    <dc:format>image/svg+xml</dc:format>
    <dc:creator>
     <cc:Agent>
      <dc:title>Matplotlib v3.8.4, https://matplotlib.org/</dc:title>
     </cc:Agent>
    </dc:creator>
   </cc:Work>
  </rdf:RDF>
 </metadata>
 <defs>
  <style type="text/css">*{stroke-linejoin: round; stroke-linecap: butt}</style>
 </defs>
 <g id="figure_1">
  <g id="patch_1">
   <path d="M 0 345.6 
L 460.8 345.6 
L 460.8 0 
L 0 0 
z
" style="fill: #ffffff"/>
  </g>
  <g id="axes_1">
   <g id="patch_2">
    <path d="M 49.43 298.672 
L 445.032 298.672 
L 445.032 12.96 
L 49.43 12.96 
z
" style="fill: #ffffff"/>
   </g>
   <g id="line2d_1">
    <path d="M 49.43 298.672 
L 89.605565 298.631251 
L 90.171418 298.544605 
L 92.43483 298.672 
L 95.264095 298.588765 
L 96.395802 298.431983 
L 96.961655 298.170749 
L 97.527508 298.063774 
L 98.659214 298.161105 
L 99.225067 298.173331 
L 100.356773 298.586091 
L 101.488479 298.175751 
L 102.620185 298.09945 
L 104.317744 298.36252 
L 105.44945 298.18035 
L 106.015303 297.921658 
L 107.712862 298.165749 
L 108.278715 298.323322 
L 109.976274 298.055806 
L 110.542127 297.81306 
L 111.10798 297.721712 
L 113.371392 297.70438 
L 113.937245 297.457252 
L 114.503099 297.373542 
L 116.200658 298.322028 
L 116.766511 298.029406 
L 117.332364 297.261645 
L 119.595776 297.980877 
L 120.161629 297.51218 
L 120.727482 297.484678 
L 121.293335 297.883971 
L 121.859188 297.852907 
L 122.425041 297.380359 
L 122.990894 297.400414 
L 123.556747 297.298464 
L 124.688453 296.828803 
L 125.254306 296.963127 
L 125.820159 296.816411 
L 126.386012 297.28571 
L 126.951865 297.460746 
L 127.517718 297.155555 
L 128.649424 297.514098 
L 129.215277 297.075998 
L 129.78113 296.836932 
L 130.346983 297.025804 
L 131.478689 296.579024 
L 132.044542 295.856226 
L 132.610395 295.736925 
L 133.176249 296.546622 
L 133.742102 296.623472 
L 134.307955 296.319386 
L 134.873808 296.717346 
L 135.439661 296.627008 
L 136.005514 295.800481 
L 137.13722 296.521739 
L 137.703073 296.723547 
L 138.834779 295.694413 
L 139.400632 295.920999 
L 140.532338 295.610615 
L 141.098191 296.280648 
L 141.664044 295.975796 
L 142.229897 295.450077 
L 142.79575 295.24315 
L 143.361603 294.796227 
L 144.493309 294.932641 
L 145.625015 294.473685 
L 146.190868 294.528735 
L 146.756721 293.927616 
L 147.322574 294.40972 
L 147.888427 295.18937 
L 148.45428 294.681823 
L 149.020133 293.899543 
L 149.585986 294.711065 
L 150.151839 294.230007 
L 150.717692 293.502044 
L 151.283546 294.027004 
L 151.849399 293.976304 
L 152.415252 293.312625 
L 154.112811 292.951219 
L 155.244517 293.112362 
L 155.81037 292.545431 
L 156.376223 291.627933 
L 156.942076 291.119545 
L 157.507929 290.279451 
L 158.073782 290.78236 
L 158.639635 290.823046 
L 159.205488 289.361204 
L 159.771341 288.556331 
L 160.337194 288.834797 
L 160.903047 289.404751 
L 161.4689 289.582207 
L 162.600606 287.716174 
L 163.166459 286.607996 
L 163.732312 285.234453 
L 164.298165 285.493673 
L 164.864018 285.474608 
L 165.429871 284.967215 
L 165.995724 283.862281 
L 166.561577 283.026944 
L 167.12743 282.854848 
L 167.693283 281.538486 
L 168.259136 281.094262 
L 168.824989 281.604687 
L 169.390842 281.280931 
L 169.956696 281.953568 
L 170.522549 280.459378 
L 171.088402 277.24031 
L 172.785961 272.512442 
L 173.917667 269.707762 
L 174.48352 269.810805 
L 175.049373 269.077164 
L 175.615226 265.961855 
L 176.181079 265.793241 
L 176.746932 266.066377 
L 177.312785 265.486482 
L 177.878638 262.249746 
L 178.444491 260.512101 
L 179.010344 260.239705 
L 179.576197 257.305993 
L 180.14205 253.592445 
L 180.707903 253.708294 
L 181.273756 255.258119 
L 181.839609 255.555253 
L 182.405462 252.322767 
L 182.971315 248.140064 
L 183.537168 244.857396 
L 184.668874 240.425853 
L 185.234727 235.45675 
L 185.80058 232.831567 
L 186.366433 235.005805 
L 186.932286 234.642315 
L 187.498139 232.169218 
L 188.629846 224.344317 
L 189.195699 221.0714 
L 189.761552 218.946845 
L 190.327405 218.645574 
L 190.893258 212.051981 
L 191.459111 206.804881 
L 192.024964 207.332259 
L 192.590817 209.30606 
L 193.15667 209.084842 
L 193.722523 204.19656 
L 194.288376 198.037482 
L 194.854229 196.012726 
L 195.420082 190.884939 
L 195.985935 183.893767 
L 196.551788 181.924191 
L 197.117641 182.343163 
L 197.683494 179.522563 
L 198.249347 178.738309 
L 198.8152 176.876347 
L 199.381053 171.827474 
L 199.946906 170.951425 
L 200.512759 171.540802 
L 201.078612 171.367846 
L 201.644465 166.20751 
L 202.210318 158.988094 
L 203.342024 150.87367 
L 203.907877 148.593457 
L 204.47373 145.423981 
L 205.039583 140.442231 
L 205.605436 132.418466 
L 206.171289 129.770532 
L 206.737142 129.195808 
L 207.302996 127.590226 
L 207.868849 128.111517 
L 208.434702 130.020515 
L 209.000555 128.504711 
L 209.566408 124.598036 
L 210.132261 124.27195 
L 210.698114 123.630115 
L 211.263967 125.291961 
L 211.82982 122.2196 
L 212.961526 106.790658 
L 213.527379 107.754753 
L 214.093232 106.106863 
L 214.659085 101.098172 
L 215.224938 101.07894 
L 215.790791 98.775195 
L 216.356644 93.454355 
L 216.922497 97.006351 
L 217.48835 101.58525 
L 218.054203 100.759112 
L 218.620056 99.536102 
L 219.185909 104.503249 
L 219.751762 101.449226 
L 220.317615 93.916669 
L 220.883468 93.566404 
L 221.449321 96.971399 
L 222.015174 91.88008 
L 222.581027 92.272277 
L 223.14688 95.568652 
L 223.712733 95.930654 
L 224.278586 91.811147 
L 224.844439 89.634464 
L 225.410293 91.263173 
L 225.976146 87.894961 
L 226.541999 86.108603 
L 227.107852 91.99353 
L 227.673705 92.792685 
L 228.239558 94.344206 
L 228.805411 99.061175 
L 229.371264 92.794089 
L 229.937117 83.716167 
L 230.50297 84.840044 
L 231.634676 91.691885 
L 232.200529 94.677791 
L 232.766382 95.951934 
L 233.898088 88.404662 
L 235.029794 96.914737 
L 236.1615 91.94136 
L 236.727353 89.994085 
L 237.293206 90.064397 
L 237.859059 91.981221 
L 238.424912 92.763458 
L 238.990765 94.847743 
L 239.556618 96.204652 
L 240.688324 88.814018 
L 241.254177 100.556477 
L 241.82003 103.393427 
L 242.385883 102.786795 
L 242.951736 101.486618 
L 243.517589 97.499057 
L 244.083443 97.856637 
L 244.649296 103.966322 
L 245.215149 107.100267 
L 245.781002 104.092082 
L 246.346855 101.99924 
L 246.912708 107.962088 
L 247.478561 111.79634 
L 248.044414 107.559581 
L 249.17612 114.531747 
L 249.741973 114.136212 
L 250.873679 109.168741 
L 251.439532 109.383224 
L 252.005385 116.091684 
L 252.571238 121.207924 
L 253.137091 124.614978 
L 253.702944 124.971807 
L 254.268797 123.713223 
L 254.83465 126.217405 
L 255.966356 125.762443 
L 256.532209 125.867983 
L 257.663915 136.159951 
L 258.229768 137.889395 
L 258.795621 140.849669 
L 259.361474 137.555023 
L 259.927327 138.352913 
L 260.49318 139.745523 
L 261.059033 139.550698 
L 261.624886 148.425824 
L 262.190739 150.598791 
L 262.756593 146.861928 
L 263.322446 146.113167 
L 263.888299 150.571436 
L 264.454152 157.54763 
L 265.585858 162.717793 
L 266.151711 159.032972 
L 266.717564 161.480988 
L 267.283417 166.579708 
L 267.84927 168.421978 
L 268.415123 168.130793 
L 268.980976 168.002551 
L 269.546829 171.880144 
L 270.112682 171.53581 
L 270.678535 172.303239 
L 271.810241 167.794501 
L 272.376094 169.540488 
L 273.5078 174.767193 
L 274.639506 177.389572 
L 275.205359 180.133544 
L 275.771212 179.305015 
L 276.337065 179.025074 
L 276.902918 182.078602 
L 277.468771 181.552876 
L 278.034624 179.490158 
L 278.600477 178.867701 
L 279.16633 182.523732 
L 280.298036 190.872474 
L 280.86389 194.722291 
L 281.429743 191.132584 
L 281.995596 188.611331 
L 282.561449 188.927208 
L 283.127302 192.019132 
L 283.693155 190.492427 
L 284.259008 187.909803 
L 284.824861 187.780254 
L 285.956567 192.041618 
L 286.52242 195.738981 
L 287.088273 202.626319 
L 287.654126 205.908117 
L 288.219979 200.596998 
L 288.785832 197.254087 
L 289.351685 199.051318 
L 289.917538 197.239491 
L 290.483391 196.178684 
L 291.049244 197.775424 
L 291.615097 204.720468 
L 292.18095 206.43501 
L 292.746803 204.290046 
L 293.312656 203.403315 
L 293.878509 204.369109 
L 294.444362 203.278343 
L 295.010215 205.484423 
L 295.576068 210.305904 
L 296.141921 208.466906 
L 296.707774 206.100269 
L 297.83948 202.861064 
L 298.405333 212.124322 
L 298.971186 216.442187 
L 299.53704 215.374482 
L 300.668746 215.8941 
L 301.234599 214.131909 
L 301.800452 214.46417 
L 302.366305 216.746919 
L 302.932158 216.321174 
L 303.498011 214.930072 
L 304.629717 218.674717 
L 305.19557 219.48588 
L 305.761423 219.919931 
L 306.327276 221.595779 
L 306.893129 220.944007 
L 307.458982 221.881492 
L 308.024835 222.516184 
L 308.590688 225.535045 
L 309.156541 226.322999 
L 309.722394 226.595841 
L 310.288247 229.70261 
L 310.8541 227.945318 
L 311.419953 226.857781 
L 311.985806 228.86083 
L 312.551659 229.534605 
L 313.117512 229.167193 
L 313.683365 232.400732 
L 314.249218 234.21988 
L 314.815071 233.367729 
L 315.380924 235.120671 
L 316.51263 241.233367 
L 317.644336 235.793912 
L 318.21019 236.648418 
L 318.776043 239.817578 
L 319.341896 243.762553 
L 319.907749 243.485866 
L 320.473602 241.506792 
L 321.039455 243.4005 
L 321.605308 247.64236 
L 322.171161 250.18011 
L 322.737014 251.493591 
L 323.86872 246.85617 
L 324.434573 247.769615 
L 325.566279 253.073991 
L 326.132132 256.801441 
L 326.697985 256.791518 
L 327.829691 254.257885 
L 328.395544 253.14057 
L 328.961397 256.592502 
L 329.52725 257.601727 
L 330.093103 255.995414 
L 331.224809 261.031316 
L 331.790662 260.688371 
L 332.356515 261.115952 
L 332.922368 263.132877 
L 333.488221 263.861338 
L 334.054074 263.490802 
L 334.619927 262.384956 
L 335.18578 262.186673 
L 335.751633 262.530213 
L 336.317487 263.25862 
L 336.88334 263.074997 
L 337.449193 264.556284 
L 338.015046 267.540902 
L 338.580899 268.567445 
L 339.146752 268.04269 
L 339.712605 268.779118 
L 340.844311 271.714511 
L 341.410164 272.133522 
L 341.976017 272.936564 
L 342.54187 274.185131 
L 344.239429 276.4799 
L 345.371135 275.062206 
L 345.936988 275.379655 
L 347.068694 279.463084 
L 347.634547 278.935583 
L 348.2004 279.434788 
L 348.766253 279.354578 
L 349.332106 279.711472 
L 349.897959 280.735954 
L 350.463812 279.757806 
L 351.029665 281.010387 
L 351.595518 283.291744 
L 352.161371 282.747296 
L 352.727224 281.517953 
L 353.293077 280.747814 
L 353.85893 281.748055 
L 354.424783 283.556773 
L 354.990637 284.71996 
L 356.122343 282.783405 
L 356.688196 283.867758 
L 357.254049 286.364596 
L 357.819902 287.315254 
L 358.385755 286.10426 
L 358.951608 285.880705 
L 359.517461 286.750442 
L 360.083314 286.741242 
L 360.649167 284.602196 
L 361.21502 284.583661 
L 361.780873 287.152298 
L 362.346726 288.724511 
L 362.912579 288.967824 
L 363.478432 289.080454 
L 364.044285 288.478891 
L 364.610138 289.197401 
L 365.175991 291.472142 
L 365.741844 291.275688 
L 366.307697 291.200482 
L 366.87355 291.356465 
L 367.439403 290.404706 
L 368.005256 289.863475 
L 368.571109 290.975085 
L 369.136962 292.525893 
L 369.702815 293.279717 
L 370.268668 293.111968 
L 370.834521 292.419396 
L 371.400374 291.918362 
L 371.966227 291.793371 
L 372.53208 292.133828 
L 373.663787 293.724383 
L 374.22964 294.18669 
L 374.795493 294.409451 
L 375.361346 294.258243 
L 375.927199 294.665893 
L 376.493052 295.500728 
L 377.058905 295.461306 
L 378.190611 294.768605 
L 379.322317 294.918269 
L 379.88817 295.471253 
L 380.454023 294.925828 
L 381.019876 295.293646 
L 381.585729 296.042203 
L 382.151582 296.062053 
L 382.717435 295.893748 
L 383.849141 296.265668 
L 384.414994 296.287842 
L 384.980847 296.502755 
L 385.5467 295.963092 
L 386.112553 295.620804 
L 386.678406 296.042563 
L 387.244259 296.190005 
L 387.810112 295.987636 
L 388.941818 296.075216 
L 389.507671 296.804234 
L 390.073524 297.24496 
L 391.771083 297.0858 
L 392.90279 297.587637 
L 393.468643 297.851376 
L 395.166202 297.794085 
L 395.732055 297.584446 
L 396.297908 297.959529 
L 396.863761 298.019635 
L 397.995467 297.684942 
L 398.56132 297.791265 
L 399.693026 297.622581 
L 400.824732 297.937735 
L 401.956438 298.337232 
L 403.088144 298.039704 
L 404.21985 298.416529 
L 404.785703 298.409771 
L 405.351556 298.200673 
L 407.049115 297.885394 
L 407.614968 298.071176 
L 408.180821 298.567973 
L 408.746674 298.622728 
L 411.010087 298.277452 
L 411.57594 298.508267 
L 412.141793 298.579027 
L 413.273499 298.33744 
L 413.839352 298.076886 
L 414.971058 298.484332 
L 415.536911 298.411255 
L 416.668617 298.665584 
L 417.800323 298.610232 
L 418.932029 298.501512 
L 420.063735 298.598159 
L 421.761294 298.449509 
L 424.024706 298.671995 
L 433.078355 298.617376 
L 433.644208 298.541975 
L 435.341767 298.67195 
L 461.8 298.672 
L 461.8 298.672 
" clip-path="url(#p77c52d6275)" style="fill: none; stroke: #1e2e79; stroke-width: 2.5; stroke-linecap: square"/>
   </g>
   <g id="line2d_2">
    <path d="M 49.43 298.672 
L 85.078741 298.582931 
L 85.644594 298.366978 
L 87.908006 298.405017 
L 89.039712 297.773718 
L 89.605565 297.214582 
L 90.171418 296.908838 
L 90.737271 296.275531 
L 91.303124 295.065763 
L 91.868977 294.268564 
L 92.43483 293.684463 
L 93.566536 291.237961 
L 94.698242 286.034773 
L 95.264095 285.154259 
L 96.395802 280.438808 
L 96.961655 276.663806 
L 97.527508 275.23017 
L 98.093361 274.372619 
L 99.225067 260.04727 
L 99.79092 259.959179 
L 100.356773 257.822629 
L 102.054332 245.158989 
L 103.186038 247.042452 
L 103.751891 243.399871 
L 104.317744 238.245075 
L 104.883597 235.302536 
L 106.015303 223.758906 
L 106.581156 225.213821 
L 107.147009 225.733922 
L 107.712862 225.782441 
L 108.844568 218.220393 
L 109.410421 217.951356 
L 110.542127 216.440684 
L 111.10798 216.565393 
L 111.673833 214.887732 
L 112.805539 208.077933 
L 113.371392 207.084094 
L 113.937245 208.498408 
L 114.503099 206.497583 
L 115.068952 210.058248 
L 116.200658 204.580998 
L 116.766511 204.149562 
L 117.332364 204.997689 
L 117.898217 207.810545 
L 118.46407 204.632654 
L 119.029923 202.418733 
L 119.595776 206.290695 
L 120.161629 206.102325 
L 120.727482 208.301531 
L 121.293335 206.215827 
L 121.859188 206.887365 
L 122.425041 210.370351 
L 122.990894 209.195664 
L 123.556747 206.741218 
L 124.1226 205.785031 
L 124.688453 205.576667 
L 125.820159 206.884284 
L 126.386012 207.577213 
L 126.951865 207.957636 
L 127.517718 206.510004 
L 128.083571 204.597138 
L 128.649424 205.637907 
L 129.215277 207.654526 
L 129.78113 206.813631 
L 130.346983 204.949165 
L 130.912836 201.321524 
L 131.478689 202.532676 
L 132.044542 205.870174 
L 132.610395 200.975767 
L 133.176249 199.379315 
L 133.742102 203.145686 
L 134.307955 203.115183 
L 134.873808 199.970338 
L 135.439661 200.299017 
L 136.005514 199.596792 
L 136.571367 198.6301 
L 137.13722 200.468846 
L 137.703073 198.461344 
L 138.268926 195.858065 
L 138.834779 195.985118 
L 139.400632 198.145306 
L 139.966485 202.761098 
L 140.532338 202.915289 
L 141.098191 198.633571 
L 141.664044 200.632167 
L 142.229897 200.340289 
L 142.79575 202.039925 
L 143.361603 199.92491 
L 143.927456 197.132898 
L 144.493309 199.677276 
L 145.059162 202.795288 
L 145.625015 201.94273 
L 146.190868 200.597785 
L 146.756721 193.87574 
L 147.322574 193.133743 
L 147.888427 194.12328 
L 148.45428 192.153803 
L 149.020133 195.304221 
L 149.585986 201.982399 
L 150.151839 201.193736 
L 150.717692 195.105703 
L 151.283546 193.016459 
L 151.849399 196.705025 
L 152.415252 195.214825 
L 152.981105 191.212318 
L 153.546958 190.796972 
L 154.112811 186.954072 
L 154.678664 181.831737 
L 155.244517 185.987206 
L 155.81037 183.928546 
L 156.942076 176.993226 
L 157.507929 181.366772 
L 158.073782 177.139494 
L 158.639635 171.424853 
L 159.205488 172.241149 
L 159.771341 172.322742 
L 160.337194 173.018919 
L 162.034753 163.563784 
L 162.600606 164.837252 
L 163.166459 164.996009 
L 163.732312 162.411695 
L 164.298165 156.972041 
L 164.864018 155.487133 
L 165.429871 155.965837 
L 165.995724 150.641486 
L 166.561577 142.867027 
L 167.12743 139.932888 
L 167.693283 139.425062 
L 168.259136 134.927841 
L 168.824989 131.602238 
L 169.390842 129.909458 
L 169.956696 131.94619 
L 170.522549 131.45507 
L 171.654255 122.838478 
L 172.220108 124.498898 
L 172.785961 116.789794 
L 173.351814 107.422964 
L 173.917667 107.256092 
L 174.48352 111.979387 
L 175.049373 101.592098 
L 175.615226 97.611283 
L 176.181079 98.378036 
L 177.312785 90.503786 
L 177.878638 89.58638 
L 178.444491 85.737539 
L 179.010344 83.926778 
L 179.576197 79.908222 
L 180.14205 72.338314 
L 180.707903 75.771052 
L 181.839609 63.295961 
L 182.405462 69.008518 
L 182.971315 70.552497 
L 183.537168 66.841318 
L 184.668874 50.498294 
L 185.234727 52.232732 
L 185.80058 51.289595 
L 186.366433 52.309879 
L 186.932286 52.869106 
L 187.498139 51.928794 
L 188.063992 53.89733 
L 188.629846 49.434523 
L 189.195699 42.658293 
L 189.761552 38.652575 
L 190.327405 44.625998 
L 190.893258 45.090296 
L 191.459111 35.811205 
L 192.024964 37.892942 
L 192.590817 39.390551 
L 193.15667 36.659928 
L 193.722523 34.807926 
L 194.288376 31.900033 
L 194.854229 26.565333 
L 195.420082 31.915995 
L 195.985935 32.852632 
L 196.551788 35.167054 
L 197.117641 31.59923 
L 197.683494 43.091847 
L 198.249347 48.141711 
L 198.8152 43.731549 
L 199.381053 41.819744 
L 199.946906 42.529503 
L 200.512759 40.518425 
L 201.078612 42.127244 
L 201.644465 46.455813 
L 202.210318 54.67322 
L 202.776171 55.262457 
L 203.342024 55.522681 
L 203.907877 53.176494 
L 204.47373 57.174898 
L 205.039583 70.159754 
L 205.605436 71.680127 
L 206.171289 72.111905 
L 206.737142 76.835968 
L 207.302996 75.654421 
L 207.868849 79.334389 
L 208.434702 90.870678 
L 209.000555 89.800265 
L 209.566408 84.381085 
L 210.132261 93.145486 
L 210.698114 99.613661 
L 211.263967 103.893555 
L 211.82982 99.780278 
L 212.395673 101.227778 
L 212.961526 106.150048 
L 213.527379 104.229163 
L 214.093232 113.816965 
L 214.659085 117.281535 
L 215.224938 125.255815 
L 215.790791 127.854473 
L 216.356644 125.986797 
L 216.922497 133.019487 
L 217.48835 143.341917 
L 218.620056 145.667921 
L 219.185909 153.913729 
L 219.751762 159.351588 
L 220.317615 162.398954 
L 220.883468 158.837693 
L 221.449321 159.850752 
L 222.015174 167.420726 
L 222.581027 167.29735 
L 223.14688 176.34074 
L 223.712733 180.53415 
L 224.278586 179.783336 
L 224.844439 185.847226 
L 225.410293 190.635546 
L 226.541999 192.526313 
L 227.107852 193.948063 
L 227.673705 197.182973 
L 228.239558 207.318129 
L 228.805411 208.616121 
L 229.371264 205.355569 
L 229.937117 207.825989 
L 230.50297 211.770506 
L 231.634676 222.074787 
L 232.200529 224.65005 
L 232.766382 220.941593 
L 233.332235 219.521134 
L 233.898088 224.932579 
L 234.463941 231.880137 
L 235.029794 234.464335 
L 235.595647 232.145062 
L 236.1615 233.270232 
L 236.727353 239.774534 
L 237.293206 239.049153 
L 237.859059 243.173833 
L 238.424912 243.932499 
L 238.990765 243.780995 
L 239.556618 246.0634 
L 240.688324 256.324087 
L 241.254177 255.559068 
L 241.82003 256.499411 
L 242.385883 260.115064 
L 242.951736 259.834256 
L 243.517589 259.156855 
L 244.083443 258.151891 
L 244.649296 254.924463 
L 245.215149 257.516366 
L 246.912708 267.976984 
L 248.044414 269.982558 
L 248.610267 270.08405 
L 249.17612 271.08447 
L 249.741973 270.242977 
L 250.307826 271.309459 
L 250.873679 273.962783 
L 251.439532 276.066131 
L 252.005385 276.864423 
L 252.571238 278.162354 
L 253.137091 278.738002 
L 253.702944 278.864573 
L 254.268797 276.9372 
L 254.83465 277.080584 
L 255.400503 279.197825 
L 255.966356 278.822761 
L 256.532209 280.624192 
L 257.098062 281.370718 
L 257.663915 281.521579 
L 258.229768 280.738304 
L 258.795621 282.810483 
L 259.361474 283.836419 
L 259.927327 283.613643 
L 260.49318 284.241308 
L 261.059033 283.153612 
L 261.624886 283.537428 
L 262.190739 284.359115 
L 262.756593 285.855741 
L 263.888299 287.320877 
L 264.454152 287.573838 
L 265.020005 287.362336 
L 265.585858 285.746196 
L 266.151711 286.682191 
L 266.717564 288.294702 
L 267.283417 288.764354 
L 267.84927 289.042008 
L 268.415123 288.215277 
L 268.980976 287.707479 
L 269.546829 288.596791 
L 270.112682 290.034724 
L 270.678535 290.890537 
L 271.244388 290.183203 
L 271.810241 290.441888 
L 272.376094 291.048954 
L 272.941947 290.426767 
L 274.073653 291.025184 
L 274.639506 291.773558 
L 275.205359 292.087568 
L 275.771212 291.673982 
L 276.337065 290.530748 
L 276.902918 291.869704 
L 277.468771 293.947004 
L 278.034624 293.501594 
L 278.600477 293.200864 
L 279.16633 293.103038 
L 279.732183 292.482183 
L 280.298036 292.440566 
L 280.86389 293.165739 
L 281.429743 292.537877 
L 281.995596 292.601391 
L 283.127302 292.37343 
L 283.693155 292.843565 
L 284.259008 293.650206 
L 284.824861 294.035323 
L 285.390714 294.056203 
L 285.956567 293.37472 
L 286.52242 293.442429 
L 287.088273 294.329972 
L 287.654126 294.791115 
L 288.219979 294.569622 
L 288.785832 294.995302 
L 289.351685 295.143399 
L 289.917538 294.032933 
L 290.483391 294.003338 
L 291.049244 295.094365 
L 292.18095 293.942351 
L 292.746803 295.247395 
L 293.312656 295.415643 
L 293.878509 295.166504 
L 294.444362 295.622968 
L 295.010215 295.842447 
L 296.141921 296.821802 
L 296.707774 295.203868 
L 297.273627 294.963784 
L 297.83948 295.720674 
L 298.971186 295.368186 
L 299.53704 296.237927 
L 300.102893 296.201148 
L 300.668746 296.521467 
L 301.234599 296.307519 
L 301.800452 295.761682 
L 302.366305 296.181524 
L 302.932158 296.80915 
L 303.498011 296.360148 
L 304.063864 296.273324 
L 304.629717 296.509868 
L 306.327276 296.903296 
L 306.893129 296.568523 
L 308.024835 296.149669 
L 308.590688 296.382077 
L 309.156541 297.267703 
L 309.722394 297.171452 
L 310.8541 298.214352 
L 311.419953 298.020999 
L 311.985806 297.562236 
L 312.551659 297.315745 
L 313.683365 298.259073 
L 314.249218 298.414281 
L 314.815071 297.987753 
L 315.380924 297.925918 
L 315.946777 298.076238 
L 316.51263 297.717451 
L 317.078483 297.738911 
L 317.644336 297.428244 
L 318.21019 297.68246 
L 318.776043 298.347692 
L 319.341896 298.41498 
L 319.907749 297.889048 
L 320.473602 297.777136 
L 321.039455 297.809455 
L 322.171161 298.221663 
L 322.737014 298.218549 
L 323.302867 298.096258 
L 323.86872 298.121803 
L 324.434573 298.295186 
L 325.566279 298.094648 
L 326.132132 298.285748 
L 326.697985 298.226994 
L 327.263838 298.324604 
L 327.829691 298.588743 
L 328.395544 298.536513 
L 328.961397 298.288089 
L 329.52725 298.340563 
L 330.658956 298.266017 
L 332.922368 298.64631 
L 333.488221 298.512127 
L 334.054074 298.171748 
L 334.619927 298.197992 
L 335.18578 298.556077 
L 338.015046 298.343897 
L 338.580899 298.572376 
L 339.712605 298.671983 
L 341.410164 298.588128 
L 341.976017 298.399197 
L 343.107723 298.379644 
L 344.239429 298.56856 
L 352.727224 298.672 
L 461.8 298.672 
L 461.8 298.672 
" clip-path="url(#p77c52d6275)" style="fill: none; stroke: #ec4067; stroke-width: 2.5; stroke-linecap: square"/>
   </g>
   <g id="matplotlib.axis_1">
    <g id="xtick_1">
     <g id="line2d_3">
      <defs>
       <path id="mc669b199df" d="M 0 0 
L 0 3.5 
" style="stroke: #c2c1c1; stroke-width: 0.8"/>
      </defs>
      <g>
       <use xlink:href="#mc669b199df" x="49.43" y="298.672" style="fill: #c2c1c1; stroke: #c2c1c1; stroke-width: 0.8"/>
      </g>
     </g>
     <g id="text_1">
      <!-- 1 -->
      <g style="fill: #191919" transform="translate(46.619844 313.172) scale(0.1 -0.1)">
       <defs>
        <path id="Roboto-Regular-31" d="M 2278 4575 
L 2278 0 
L 1700 0 
L 1700 3853 
L 534 3428 
L 534 3950 
L 2188 4575 
L 2278 4575 
z
" transform="scale(0.015625)"/>
       </defs>
       <use xlink:href="#Roboto-Regular-31"/>
      </g>
     </g>
    </g>
    <g id="xtick_2">
     <g id="line2d_4">
      <g>
       <use xlink:href="#mc669b199df" x="105.944571" y="298.672" style="fill: #c2c1c1; stroke: #c2c1c1; stroke-width: 0.8"/>
      </g>
     </g>
     <g id="text_2">
      <!-- 2 -->
      <g style="fill: #191919" transform="translate(103.134415 313.172) scale(0.1 -0.1)">
       <defs>
        <path id="Roboto-Regular-32" d="M 3359 475 
L 3359 0 
L 381 0 
L 381 416 
L 1925 2134 
Q 2306 2566 2439 2819 
Q 2572 3072 2572 3328 
Q 2572 3663 2364 3900 
Q 2156 4138 1778 4138 
Q 1322 4138 1097 3878 
Q 872 3619 872 3213 
L 294 3213 
Q 294 3788 672 4200 
Q 1050 4613 1778 4613 
Q 2422 4613 2786 4278 
Q 3150 3944 3150 3397 
Q 3150 2997 2903 2592 
Q 2656 2188 2297 1797 
L 1078 475 
L 3359 475 
z
" transform="scale(0.015625)"/>
       </defs>
       <use xlink:href="#Roboto-Regular-32"/>
      </g>
     </g>
    </g>
    <g id="xtick_3">
     <g id="line2d_5">
      <g>
       <use xlink:href="#mc669b199df" x="162.459143" y="298.672" style="fill: #c2c1c1; stroke: #c2c1c1; stroke-width: 0.8"/>
      </g>
     </g>
     <g id="text_3">
      <!-- 3 -->
      <g style="fill: #191919" transform="translate(159.648987 313.172) scale(0.1 -0.1)">
       <defs>
        <path id="Roboto-Regular-33" d="M 1222 2084 
L 1222 2559 
L 1647 2559 
Q 2094 2563 2312 2784 
Q 2531 3006 2531 3338 
Q 2531 4138 1738 4138 
Q 1369 4138 1141 3927 
Q 913 3716 913 3359 
L 334 3359 
Q 334 3881 720 4247 
Q 1106 4613 1738 4613 
Q 2353 4613 2733 4286 
Q 3113 3959 3113 3325 
Q 3113 3072 2942 2784 
Q 2772 2497 2397 2338 
Q 2850 2191 3015 1884 
Q 3181 1578 3181 1269 
Q 3181 631 2768 284 
Q 2356 -63 1741 -63 
Q 1147 -63 722 267 
Q 297 597 297 1203 
L 875 1203 
Q 875 844 1108 628 
Q 1341 413 1741 413 
Q 2138 413 2369 622 
Q 2600 831 2600 1256 
Q 2600 1681 2337 1882 
Q 2075 2084 1634 2084 
L 1222 2084 
z
" transform="scale(0.015625)"/>
       </defs>
       <use xlink:href="#Roboto-Regular-33"/>
      </g>
     </g>
    </g>
    <g id="xtick_4">
     <g id="line2d_6">
      <g>
       <use xlink:href="#mc669b199df" x="218.973714" y="298.672" style="fill: #c2c1c1; stroke: #c2c1c1; stroke-width: 0.8"/>
      </g>
     </g>
     <g id="text_4">
      <!-- 4 -->
      <g style="fill: #191919" transform="translate(216.163558 313.172) scale(0.1 -0.1)">
       <defs>
        <path id="Roboto-Regular-34" d="M 166 1397 
L 2203 4550 
L 2819 4550 
L 2819 1531 
L 3453 1531 
L 3453 1056 
L 2819 1056 
L 2819 0 
L 2241 0 
L 2241 1056 
L 166 1056 
L 166 1397 
z
M 822 1531 
L 2241 1531 
L 2241 3766 
L 2169 3638 
L 822 1531 
z
" transform="scale(0.015625)"/>
       </defs>
       <use xlink:href="#Roboto-Regular-34"/>
      </g>
     </g>
    </g>
    <g id="xtick_5">
     <g id="line2d_7">
      <g>
       <use xlink:href="#mc669b199df" x="275.488286" y="298.672" style="fill: #c2c1c1; stroke: #c2c1c1; stroke-width: 0.8"/>
      </g>
     </g>
     <g id="text_5">
      <!-- 5 -->
      <g style="fill: #191919" transform="translate(272.678129 313.172) scale(0.1 -0.1)">
       <defs>
        <path id="Roboto-Regular-35" d="M 1109 2166 
L 647 2284 
L 875 4550 
L 3209 4550 
L 3209 4016 
L 1366 4016 
L 1228 2778 
Q 1572 2975 1988 2975 
Q 2616 2975 2980 2561 
Q 3344 2147 3344 1450 
Q 3344 797 2987 367 
Q 2631 -63 1903 -63 
Q 1350 -63 947 248 
Q 544 559 481 1197 
L 1031 1197 
Q 1141 413 1903 413 
Q 2313 413 2538 691 
Q 2763 969 2763 1444 
Q 2763 1872 2527 2164 
Q 2291 2456 1853 2456 
Q 1563 2456 1413 2378 
Q 1263 2300 1109 2166 
z
" transform="scale(0.015625)"/>
       </defs>
       <use xlink:href="#Roboto-Regular-35"/>
      </g>
     </g>
    </g>
    <g id="xtick_6">
     <g id="line2d_8">
      <g>
       <use xlink:href="#mc669b199df" x="332.002857" y="298.672" style="fill: #c2c1c1; stroke: #c2c1c1; stroke-width: 0.8"/>
      </g>
     </g>
     <g id="text_6">
      <!-- 6 -->
      <g style="fill: #191919" transform="translate(329.192701 313.172) scale(0.1 -0.1)">
       <defs>
        <path id="Roboto-Regular-36" d="M 3291 1484 
Q 3291 838 2930 387 
Q 2569 -63 1878 -63 
Q 1388 -63 1063 198 
Q 738 459 577 861 
Q 416 1263 416 1684 
L 416 1956 
Q 416 2597 595 3194 
Q 775 3791 1247 4173 
Q 1719 4556 2597 4556 
L 2647 4556 
L 2647 4066 
Q 2041 4066 1705 3853 
Q 1369 3641 1205 3302 
Q 1041 2963 1006 2575 
Q 1369 2984 1984 2984 
Q 2438 2984 2727 2765 
Q 3016 2547 3153 2201 
Q 3291 1856 3291 1484 
z
M 997 1666 
Q 997 1059 1267 737 
Q 1538 416 1878 416 
Q 2278 416 2498 708 
Q 2719 1000 2719 1456 
Q 2719 1863 2516 2184 
Q 2313 2506 1891 2506 
Q 1588 2506 1341 2325 
Q 1094 2144 997 1884 
L 997 1666 
z
" transform="scale(0.015625)"/>
       </defs>
       <use xlink:href="#Roboto-Regular-36"/>
      </g>
     </g>
    </g>
    <g id="xtick_7">
     <g id="line2d_9">
      <g>
       <use xlink:href="#mc669b199df" x="388.517429" y="298.672" style="fill: #c2c1c1; stroke: #c2c1c1; stroke-width: 0.8"/>
      </g>
     </g>
     <g id="text_7">
      <!-- 7 -->
      <g style="fill: #191919" transform="translate(385.707272 313.172) scale(0.1 -0.1)">
       <defs>
        <path id="Roboto-Regular-37" d="M 3319 4550 
L 3319 4225 
L 1434 0 
L 825 0 
L 2706 4075 
L 244 4075 
L 244 4550 
L 3319 4550 
z
" transform="scale(0.015625)"/>
       </defs>
       <use xlink:href="#Roboto-Regular-37"/>
      </g>
     </g>
    </g>
    <g id="xtick_8">
     <g id="line2d_10">
      <g>
       <use xlink:href="#mc669b199df" x="445.032" y="298.672" style="fill: #c2c1c1; stroke: #c2c1c1; stroke-width: 0.8"/>
      </g>
     </g>
     <g id="text_8">
      <!-- 8 -->
      <g style="fill: #191919" transform="translate(442.221844 313.172) scale(0.1 -0.1)">
       <defs>
        <path id="Roboto-Regular-38" d="M 3244 1231 
Q 3244 606 2826 271 
Q 2409 -63 1796 -63 
Q 1184 -63 767 271 
Q 350 606 350 1231 
Q 350 1613 554 1905 
Q 759 2197 1109 2347 
Q 806 2494 629 2762 
Q 453 3031 453 3366 
Q 453 3963 833 4288 
Q 1213 4613 1794 4613 
Q 2378 4613 2758 4288 
Q 3138 3963 3138 3366 
Q 3138 3028 2956 2761 
Q 2775 2494 2472 2347 
Q 2825 2197 3034 1903 
Q 3244 1609 3244 1231 
z
M 2559 3356 
Q 2559 3697 2346 3917 
Q 2134 4138 1793 4138 
Q 1453 4138 1243 3927 
Q 1034 3716 1034 3356 
Q 1034 3003 1243 2790 
Q 1453 2578 1797 2578 
Q 2138 2578 2348 2790 
Q 2559 3003 2559 3356 
z
M 2663 1244 
Q 2663 1625 2420 1865 
Q 2178 2106 1791 2106 
Q 1394 2106 1161 1865 
Q 928 1625 928 1244 
Q 928 850 1161 631 
Q 1394 413 1797 413 
Q 2200 413 2431 631 
Q 2663 850 2663 1244 
z
" transform="scale(0.015625)"/>
       </defs>
       <use xlink:href="#Roboto-Regular-38"/>
      </g>
     </g>
    </g>
    <g id="text_9">
     <!-- SER206 H - ASN146 O Distance [Å] -->
     <g style="fill: #191919" transform="translate(152.155375 330.102625) scale(0.12 -0.12)">
      <defs>
       <path id="Roboto-Black-53" d="M 2691 1209 
Q 2691 1425 2542 1565 
Q 2394 1706 1891 1873 
Q 1388 2041 1045 2239 
Q 703 2438 520 2700 
Q 338 2963 338 3334 
Q 338 3919 834 4266 
Q 1331 4613 2088 4613 
Q 2834 4613 3311 4228 
Q 3788 3844 3788 3200 
L 2697 3200 
Q 2697 3456 2539 3620 
Q 2381 3784 2063 3784 
Q 1750 3784 1590 3648 
Q 1431 3513 1431 3325 
Q 1431 3122 1653 2983 
Q 1875 2844 2266 2719 
Q 2991 2488 3389 2139 
Q 3788 1791 3788 1216 
Q 3788 600 3328 268 
Q 2869 -63 2106 -63 
Q 1638 -63 1200 96 
Q 763 256 481 597 
Q 200 938 200 1475 
L 1300 1475 
Q 1300 1075 1509 919 
Q 1719 763 2106 763 
Q 2419 763 2555 894 
Q 2691 1025 2691 1209 
z
" transform="scale(0.015625)"/>
       <path id="Roboto-Black-45" d="M 347 0 
L 347 4550 
L 3488 4550 
L 3488 3703 
L 1444 3703 
L 1444 2744 
L 3166 2744 
L 3166 1928 
L 1444 1928 
L 1444 844 
L 3478 844 
L 3478 0 
L 347 0 
z
" transform="scale(0.015625)"/>
       <path id="Roboto-Black-52" d="M 2838 0 
L 2034 1606 
L 1444 1606 
L 1444 0 
L 347 0 
L 347 4550 
L 2138 4550 
Q 2925 4550 3392 4198 
Q 3859 3847 3859 3175 
Q 3859 2650 3642 2350 
Q 3425 2050 3066 1881 
L 4013 47 
L 4013 0 
L 2838 0 
z
M 1444 3703 
L 1444 2453 
L 2138 2453 
Q 2763 2453 2763 3075 
Q 2763 3694 2156 3703 
L 1444 3703 
z
" transform="scale(0.015625)"/>
       <path id="Roboto-Black-32" d="M 3456 813 
L 3456 0 
L 281 0 
L 281 688 
L 1744 2225 
Q 2284 2847 2284 3203 
Q 2284 3803 1784 3803 
Q 1538 3803 1391 3598 
Q 1244 3394 1244 3088 
L 188 3088 
Q 188 3716 636 4166 
Q 1084 4616 1809 4616 
Q 2563 4616 2952 4267 
Q 3341 3919 3341 3297 
Q 3341 2822 3052 2409 
Q 2763 1997 2250 1491 
L 1663 813 
L 3456 813 
z
" transform="scale(0.015625)"/>
       <path id="Roboto-Black-30" d="M 3441 1859 
Q 3441 875 3000 406 
Q 2559 -63 1859 -63 
Q 1156 -63 712 406 
Q 269 875 269 1859 
L 269 2691 
Q 269 3675 709 4144 
Q 1150 4613 1853 4613 
Q 2553 4613 2997 4144 
Q 3441 3675 3441 2691 
L 3441 1859 
z
M 2388 2825 
Q 2388 3369 2244 3584 
Q 2100 3800 1853 3800 
Q 1609 3800 1467 3589 
Q 1325 3378 1322 2850 
L 1322 1731 
Q 1322 1178 1465 964 
Q 1609 750 1859 750 
Q 2100 750 2242 959 
Q 2384 1169 2388 1706 
L 2388 2825 
z
" transform="scale(0.015625)"/>
       <path id="Roboto-Black-36" d="M 3528 1506 
Q 3528 838 3083 387 
Q 2638 -63 1938 -63 
Q 1225 -63 748 412 
Q 272 888 263 1734 
L 263 2153 
Q 263 2931 594 3481 
Q 925 4031 1470 4323 
Q 2016 4616 2653 4616 
L 2822 4616 
L 2822 3788 
L 2766 3788 
Q 2228 3788 1833 3523 
Q 1438 3259 1341 2722 
Q 1694 3069 2241 3069 
Q 2863 3069 3195 2619 
Q 3528 2169 3528 1506 
z
M 1316 1613 
Q 1316 750 1909 750 
Q 2156 750 2314 965 
Q 2472 1181 2472 1506 
Q 2472 1856 2305 2059 
Q 2138 2263 1872 2263 
Q 1666 2263 1525 2167 
Q 1384 2072 1316 1934 
L 1316 1613 
z
" transform="scale(0.015625)"/>
       <path id="Roboto-Black-20" transform="scale(0.015625)"/>
       <path id="Roboto-Black-48" d="M 3056 0 
L 3056 1900 
L 1444 1900 
L 1444 0 
L 347 0 
L 347 4550 
L 1444 4550 
L 1444 2744 
L 3056 2744 
L 3056 4550 
L 4150 4550 
L 4150 0 
L 3056 0 
z
" transform="scale(0.015625)"/>
       <path id="Roboto-Black-2d" d="M 2353 2369 
L 2353 1553 
L 475 1553 
L 475 2369 
L 2353 2369 
z
" transform="scale(0.015625)"/>
       <path id="Roboto-Black-41" d="M -13 0 
L 1659 4550 
L 2694 4550 
L 4375 0 
L 3194 0 
L 2931 850 
L 1428 850 
L 1166 0 
L -13 0 
z
M 1691 1697 
L 2669 1697 
L 2178 3281 
L 1691 1697 
z
" transform="scale(0.015625)"/>
       <path id="Roboto-Black-4e" d="M 4147 4550 
L 4147 0 
L 3053 0 
L 1444 2831 
L 1444 0 
L 347 0 
L 347 4550 
L 1444 4550 
L 3053 1719 
L 3053 4550 
L 4147 4550 
z
" transform="scale(0.015625)"/>
       <path id="Roboto-Black-31" d="M 2613 4550 
L 2613 0 
L 1559 0 
L 1559 3363 
L 522 3059 
L 522 3859 
L 2516 4550 
L 2613 4550 
z
" transform="scale(0.015625)"/>
       <path id="Roboto-Black-34" d="M 184 1609 
L 2009 4544 
L 2009 4550 
L 3063 4550 
L 3063 1778 
L 3522 1778 
L 3522 966 
L 3063 966 
L 3063 0 
L 2009 0 
L 2009 966 
L 247 966 
L 184 1609 
z
M 1191 1778 
L 2009 1778 
L 2009 3184 
L 1941 3072 
L 1191 1778 
z
" transform="scale(0.015625)"/>
       <path id="Roboto-Black-4f" d="M 4197 2181 
Q 4197 1138 3640 537 
Q 3084 -63 2213 -63 
Q 1334 -63 776 537 
Q 219 1138 219 2181 
L 219 2366 
Q 219 3409 773 4011 
Q 1328 4613 2206 4613 
Q 3078 4613 3637 4011 
Q 4197 3409 4197 2366 
L 4197 2181 
z
M 3084 2372 
Q 3084 3059 2865 3406 
Q 2647 3753 2206 3753 
Q 1388 3753 1338 2534 
L 1334 2181 
Q 1334 1513 1554 1153 
Q 1775 794 2213 794 
Q 2628 794 2854 1148 
Q 3081 1503 3084 2163 
L 3084 2372 
z
" transform="scale(0.015625)"/>
       <path id="Roboto-Black-44" d="M 347 0 
L 347 4550 
L 1809 4550 
Q 2425 4550 2901 4273 
Q 3378 3997 3648 3505 
Q 3919 3013 3919 2369 
L 3919 2178 
Q 3919 1219 3333 611 
Q 2747 3 1831 0 
L 347 0 
z
M 1444 3703 
L 1444 844 
L 1825 844 
Q 2744 844 2797 2028 
L 2800 2375 
Q 2800 3675 1850 3703 
L 1444 3703 
z
" transform="scale(0.015625)"/>
       <path id="Roboto-Black-69" d="M 291 4253 
Q 291 4478 453 4622 
Q 616 4766 875 4766 
Q 1134 4766 1296 4622 
Q 1459 4478 1459 4253 
Q 1459 4028 1296 3884 
Q 1134 3741 875 3741 
Q 616 3741 453 3884 
Q 291 4028 291 4253 
z
M 1409 3381 
L 1409 0 
L 353 0 
L 353 3381 
L 1409 3381 
z
" transform="scale(0.015625)"/>
       <path id="Roboto-Black-73" d="M 2069 950 
Q 2069 1084 1920 1167 
Q 1772 1250 1391 1334 
Q 897 1444 556 1689 
Q 216 1934 216 2375 
Q 216 2803 580 3123 
Q 944 3444 1609 3444 
Q 2291 3444 2689 3137 
Q 3088 2831 3088 2344 
L 2034 2344 
Q 2034 2750 1606 2750 
Q 1444 2750 1328 2662 
Q 1213 2575 1213 2428 
Q 1213 2166 1773 2059 
Q 2334 1953 2709 1728 
Q 3084 1503 3084 981 
Q 3084 534 2686 235 
Q 2288 -63 1606 -63 
Q 878 -63 495 306 
Q 113 675 113 1084 
L 1094 1084 
Q 1103 850 1251 742 
Q 1400 634 1634 634 
Q 2069 634 2069 950 
z
" transform="scale(0.015625)"/>
       <path id="Roboto-Black-74" d="M 2128 28 
Q 1850 -63 1534 -63 
Q 1025 -63 747 179 
Q 469 422 469 972 
L 469 2650 
L 41 2650 
L 41 3381 
L 469 3381 
L 469 4222 
L 1522 4222 
L 1522 3381 
L 2078 3381 
L 2078 2650 
L 1522 2650 
L 1522 1103 
Q 1522 900 1597 831 
Q 1672 763 1866 763 
Q 2019 763 2128 781 
L 2128 28 
z
" transform="scale(0.015625)"/>
       <path id="Roboto-Black-61" d="M 2200 0 
Q 2141 122 2103 303 
Q 1813 -63 1291 -63 
Q 822 -63 483 220 
Q 144 503 144 953 
Q 144 1469 520 1764 
Q 897 2059 1694 2066 
L 2053 2066 
L 2053 2244 
Q 2053 2709 1650 2709 
Q 1275 2709 1275 2341 
L 222 2341 
Q 222 2813 625 3128 
Q 1028 3444 1706 3444 
Q 2309 3444 2711 3142 
Q 3113 2841 3113 2238 
L 3113 766 
Q 3119 306 3256 53 
L 3256 0 
L 2200 0 
z
M 1541 688 
Q 1734 688 1865 770 
Q 1997 853 2053 956 
L 2053 1503 
L 1722 1503 
Q 1425 1503 1311 1351 
Q 1197 1200 1197 1009 
Q 1197 866 1295 777 
Q 1394 688 1541 688 
z
" transform="scale(0.015625)"/>
       <path id="Roboto-Black-6e" d="M 1788 2631 
Q 1478 2631 1331 2391 
L 1331 0 
L 278 0 
L 278 3381 
L 1266 3381 
L 1300 2988 
Q 1653 3444 2263 3444 
Q 2731 3444 3026 3156 
Q 3322 2869 3325 2144 
L 3325 0 
L 2266 0 
L 2266 2131 
Q 2266 2438 2141 2534 
Q 2016 2631 1788 2631 
z
" transform="scale(0.015625)"/>
       <path id="Roboto-Black-63" d="M 1725 750 
Q 2197 750 2188 1206 
L 3178 1206 
Q 3181 634 2770 285 
Q 2359 -63 1750 -63 
Q 956 -63 561 428 
Q 166 919 166 1653 
L 166 1725 
Q 166 2459 561 2951 
Q 956 3444 1744 3444 
Q 2375 3444 2778 3087 
Q 3181 2731 3178 2088 
L 2188 2088 
Q 2194 2316 2076 2473 
Q 1959 2631 1719 2631 
Q 1400 2631 1309 2372 
Q 1219 2113 1219 1653 
Q 1219 1278 1306 1014 
Q 1394 750 1725 750 
z
" transform="scale(0.015625)"/>
       <path id="Roboto-Black-65" d="M 3266 531 
Q 3109 309 2765 123 
Q 2422 -63 1934 -63 
Q 1109 -63 651 421 
Q 194 906 191 1569 
L 191 1697 
Q 191 2438 600 2941 
Q 1009 3444 1822 3444 
Q 2541 3444 2948 2997 
Q 3356 2550 3356 1788 
L 3356 1359 
L 1266 1359 
Q 1322 1078 1512 914 
Q 1703 750 2003 750 
Q 2506 750 2788 1100 
L 3266 531 
z
M 1813 2631 
Q 1544 2631 1422 2457 
Q 1300 2284 1266 2019 
L 2328 2019 
L 2328 2100 
Q 2334 2631 1813 2631 
z
" transform="scale(0.015625)"/>
       <path id="Roboto-Black-5b" d="M 1766 5331 
L 1766 4563 
L 1397 4563 
L 1397 -325 
L 1766 -325 
L 1766 -1091 
L 338 -1091 
L 338 5331 
L 1766 5331 
z
" transform="scale(0.015625)"/>
       <path id="Roboto-Black-c5" d="M -13 0 
L 1659 4550 
L 2694 4550 
L 4375 0 
L 3194 0 
L 2931 850 
L 1428 850 
L 1166 0 
L -13 0 
z
M 1691 1697 
L 2669 1697 
L 2178 3281 
L 1691 1697 
z
M 1492 5388 
Q 1492 5644 1690 5833 
Q 1889 6022 2192 6022 
Q 2498 6022 2696 5833 
Q 2895 5644 2895 5388 
Q 2895 5132 2696 4949 
Q 2498 4766 2192 4766 
Q 1889 4766 1690 4949 
Q 1492 5132 1492 5388 
z
M 1870 5387 
Q 1870 5250 1956 5156 
Q 2042 5063 2192 5063 
Q 2345 5063 2431 5156 
Q 2517 5250 2517 5387 
Q 2517 5525 2431 5622 
Q 2345 5719 2192 5719 
Q 2042 5719 1956 5622 
Q 1870 5525 1870 5387 
z
" transform="scale(0.015625)"/>
       <path id="Roboto-Black-5d" d="M 44 4563 
L 44 5331 
L 1472 5331 
L 1472 -1091 
L 44 -1091 
L 44 -325 
L 419 -325 
L 419 4563 
L 44 4563 
z
" transform="scale(0.015625)"/>
      </defs>
      <use xlink:href="#Roboto-Black-53"/>
      <use xlink:href="#Roboto-Black-45" x="62.597656"/>
      <use xlink:href="#Roboto-Black-52" x="118.554688"/>
      <use xlink:href="#Roboto-Black-32" x="183.789062"/>
      <use xlink:href="#Roboto-Black-30" x="241.748047"/>
      <use xlink:href="#Roboto-Black-36" x="299.707031"/>
      <use xlink:href="#Roboto-Black-20" x="357.666016"/>
      <use xlink:href="#Roboto-Black-48" x="382.568359"/>
      <use xlink:href="#Roboto-Black-20" x="452.832031"/>
      <use xlink:href="#Roboto-Black-2d" x="477.734375"/>
      <use xlink:href="#Roboto-Black-20" x="522.705078"/>
      <use xlink:href="#Roboto-Black-41" x="547.607422"/>
      <use xlink:href="#Roboto-Black-53" x="615.722656"/>
      <use xlink:href="#Roboto-Black-4e" x="678.320312"/>
      <use xlink:href="#Roboto-Black-31" x="748.535156"/>
      <use xlink:href="#Roboto-Black-34" x="806.494141"/>
      <use xlink:href="#Roboto-Black-36" x="864.453125"/>
      <use xlink:href="#Roboto-Black-20" x="922.412109"/>
      <use xlink:href="#Roboto-Black-4f" x="947.314453"/>
      <use xlink:href="#Roboto-Black-20" x="1016.357422"/>
      <use xlink:href="#Roboto-Black-44" x="1041.259766"/>
      <use xlink:href="#Roboto-Black-69" x="1105.957031"/>
      <use xlink:href="#Roboto-Black-73" x="1133.447266"/>
      <use xlink:href="#Roboto-Black-74" x="1184.716797"/>
      <use xlink:href="#Roboto-Black-61" x="1219.091797"/>
      <use xlink:href="#Roboto-Black-6e" x="1272.216797"/>
      <use xlink:href="#Roboto-Black-63" x="1328.662109"/>
      <use xlink:href="#Roboto-Black-65" x="1380.664062"/>
      <use xlink:href="#Roboto-Black-20" x="1435.15625"/>
      <use xlink:href="#Roboto-Black-5b" x="1460.058594"/>
      <use xlink:href="#Roboto-Black-c5" x="1488.28125"/>
      <use xlink:href="#Roboto-Black-5d" x="1556.396484"/>
     </g>
    </g>
   </g>
   <g id="matplotlib.axis_2">
    <g id="ytick_1">
     <g id="line2d_11">
      <defs>
       <path id="mdcb0fb9501" d="M 0 0 
L -3.5 0 
" style="stroke: #c2c1c1; stroke-width: 0.8"/>
      </defs>
      <g>
       <use xlink:href="#mdcb0fb9501" x="49.43" y="298.672" style="fill: #c2c1c1; stroke: #c2c1c1; stroke-width: 0.8"/>
      </g>
     </g>
     <g id="text_10">
      <!-- 0.0 -->
      <g style="fill: #191919" transform="translate(28.551875 302.422) scale(0.1 -0.1)">
       <defs>
        <path id="Roboto-Regular-30" d="M 3234 1944 
Q 3234 825 2848 381 
Q 2463 -63 1800 -63 
Q 1156 -63 764 368 
Q 372 800 359 1872 
L 359 2638 
Q 359 3753 750 4183 
Q 1141 4613 1794 4613 
Q 2447 4613 2834 4195 
Q 3222 3778 3234 2709 
L 3234 1944 
z
M 2653 2734 
Q 2653 3503 2434 3822 
Q 2216 4141 1794 4141 
Q 1388 4141 1167 3831 
Q 947 3522 941 2778 
L 941 1850 
Q 941 1088 1164 750 
Q 1388 413 1800 413 
Q 2222 413 2436 745 
Q 2650 1078 2653 1825 
L 2653 2734 
z
" transform="scale(0.015625)"/>
        <path id="Roboto-Regular-2e" d="M 450 306 
Q 450 453 542 554 
Q 634 656 809 656 
Q 984 656 1076 554 
Q 1169 453 1169 306 
Q 1169 163 1076 62 
Q 984 -38 809 -38 
Q 634 -38 542 62 
Q 450 163 450 306 
z
" transform="scale(0.015625)"/>
       </defs>
       <use xlink:href="#Roboto-Regular-30"/>
       <use xlink:href="#Roboto-Regular-2e" x="56.201172"/>
       <use xlink:href="#Roboto-Regular-30" x="82.568359"/>
      </g>
     </g>
    </g>
    <g id="ytick_2">
     <g id="line2d_12">
      <g>
       <use xlink:href="#mdcb0fb9501" x="49.43" y="261.621136" style="fill: #c2c1c1; stroke: #c2c1c1; stroke-width: 0.8"/>
      </g>
     </g>
     <g id="text_11">
      <!-- 0.1 -->
      <g style="fill: #191919" transform="translate(28.551875 265.371136) scale(0.1 -0.1)">
       <use xlink:href="#Roboto-Regular-30"/>
       <use xlink:href="#Roboto-Regular-2e" x="56.201172"/>
       <use xlink:href="#Roboto-Regular-31" x="82.568359"/>
      </g>
     </g>
    </g>
    <g id="ytick_3">
     <g id="line2d_13">
      <g>
       <use xlink:href="#mdcb0fb9501" x="49.43" y="224.570272" style="fill: #c2c1c1; stroke: #c2c1c1; stroke-width: 0.8"/>
      </g>
     </g>
     <g id="text_12">
      <!-- 0.2 -->
      <g style="fill: #191919" transform="translate(28.551875 228.320272) scale(0.1 -0.1)">
       <use xlink:href="#Roboto-Regular-30"/>
       <use xlink:href="#Roboto-Regular-2e" x="56.201172"/>
       <use xlink:href="#Roboto-Regular-32" x="82.568359"/>
      </g>
     </g>
    </g>
    <g id="ytick_4">
     <g id="line2d_14">
      <g>
       <use xlink:href="#mdcb0fb9501" x="49.43" y="187.519408" style="fill: #c2c1c1; stroke: #c2c1c1; stroke-width: 0.8"/>
      </g>
     </g>
     <g id="text_13">
      <!-- 0.3 -->
      <g style="fill: #191919" transform="translate(28.551875 191.269408) scale(0.1 -0.1)">
       <use xlink:href="#Roboto-Regular-30"/>
       <use xlink:href="#Roboto-Regular-2e" x="56.201172"/>
       <use xlink:href="#Roboto-Regular-33" x="82.568359"/>
      </g>
     </g>
    </g>
    <g id="ytick_5">
     <g id="line2d_15">
      <g>
       <use xlink:href="#mdcb0fb9501" x="49.43" y="150.468543" style="fill: #c2c1c1; stroke: #c2c1c1; stroke-width: 0.8"/>
      </g>
     </g>
     <g id="text_14">
      <!-- 0.4 -->
      <g style="fill: #191919" transform="translate(28.551875 154.218543) scale(0.1 -0.1)">
       <use xlink:href="#Roboto-Regular-30"/>
       <use xlink:href="#Roboto-Regular-2e" x="56.201172"/>
       <use xlink:href="#Roboto-Regular-34" x="82.568359"/>
      </g>
     </g>
    </g>
    <g id="ytick_6">
     <g id="line2d_16">
      <g>
       <use xlink:href="#mdcb0fb9501" x="49.43" y="113.417679" style="fill: #c2c1c1; stroke: #c2c1c1; stroke-width: 0.8"/>
      </g>
     </g>
     <g id="text_15">
      <!-- 0.5 -->
      <g style="fill: #191919" transform="translate(28.551875 117.167679) scale(0.1 -0.1)">
       <use xlink:href="#Roboto-Regular-30"/>
       <use xlink:href="#Roboto-Regular-2e" x="56.201172"/>
       <use xlink:href="#Roboto-Regular-35" x="82.568359"/>
      </g>
     </g>
    </g>
    <g id="ytick_7">
     <g id="line2d_17">
      <g>
       <use xlink:href="#mdcb0fb9501" x="49.43" y="76.366815" style="fill: #c2c1c1; stroke: #c2c1c1; stroke-width: 0.8"/>
      </g>
     </g>
     <g id="text_16">
      <!-- 0.6 -->
      <g style="fill: #191919" transform="translate(28.551875 80.116815) scale(0.1 -0.1)">
       <use xlink:href="#Roboto-Regular-30"/>
       <use xlink:href="#Roboto-Regular-2e" x="56.201172"/>
       <use xlink:href="#Roboto-Regular-36" x="82.568359"/>
      </g>
     </g>
    </g>
    <g id="ytick_8">
     <g id="line2d_18">
      <g>
       <use xlink:href="#mdcb0fb9501" x="49.43" y="39.315951" style="fill: #c2c1c1; stroke: #c2c1c1; stroke-width: 0.8"/>
      </g>
     </g>
     <g id="text_17">
      <!-- 0.7 -->
      <g style="fill: #191919" transform="translate(28.551875 43.065951) scale(0.1 -0.1)">
       <use xlink:href="#Roboto-Regular-30"/>
       <use xlink:href="#Roboto-Regular-2e" x="56.201172"/>
       <use xlink:href="#Roboto-Regular-37" x="82.568359"/>
      </g>
     </g>
    </g>
    <g id="text_18">
     <!-- Density -->
     <g style="fill: #191919" transform="translate(21.990625 176.251625) rotate(-90) scale(0.12 -0.12)">
      <defs>
       <path id="Roboto-Black-79" d="M 1981 -503 
Q 1925 -675 1811 -875 
Q 1697 -1075 1473 -1220 
Q 1250 -1366 866 -1366 
L 666 -1356 
L 428 -1303 
L 428 -550 
L 566 -550 
Q 819 -550 925 -475 
Q 1031 -400 1078 -256 
L 1166 -34 
L -16 3381 
L 1113 3381 
L 1650 1472 
L 2209 3381 
L 3341 3381 
L 1981 -503 
z
" transform="scale(0.015625)"/>
      </defs>
      <use xlink:href="#Roboto-Black-44"/>
      <use xlink:href="#Roboto-Black-65" x="64.697266"/>
      <use xlink:href="#Roboto-Black-6e" x="119.189453"/>
      <use xlink:href="#Roboto-Black-73" x="175.634766"/>
      <use xlink:href="#Roboto-Black-69" x="226.904297"/>
      <use xlink:href="#Roboto-Black-74" x="254.394531"/>
      <use xlink:href="#Roboto-Black-79" x="288.769531"/>
     </g>
    </g>
   </g>
   <g id="line2d_19">
    <path d="M 49.43 298.672 
L 103.751891 298.648574 
L 104.883597 298.481838 
L 106.015303 298.583111 
L 106.581156 298.457183 
L 110.542127 298.672 
L 112.805539 298.627776 
L 113.937245 298.369343 
L 115.068952 298.655955 
L 116.200658 298.665246 
L 117.332364 298.542718 
L 118.46407 298.671654 
L 119.595776 298.592841 
L 121.859188 298.326406 
L 122.990894 298.61444 
L 123.556747 298.559644 
L 124.688453 298.251938 
L 125.254306 298.54053 
L 125.820159 298.666259 
L 132.044542 298.670285 
L 133.742102 298.483235 
L 134.307955 298.591568 
L 134.873808 298.509084 
L 135.439661 298.250062 
L 136.005514 298.412154 
L 136.571367 298.118619 
L 137.703073 298.562203 
L 138.268926 298.476575 
L 139.400632 298.029504 
L 140.532338 298.580275 
L 141.664044 298.313932 
L 142.229897 298.381039 
L 142.79575 298.596687 
L 143.927456 298.582444 
L 144.493309 298.655156 
L 145.625015 298.368306 
L 146.190868 298.154434 
L 147.322574 298.343281 
L 148.45428 298.493677 
L 149.585986 298.291335 
L 150.151839 298.304287 
L 150.717692 298.201563 
L 151.283546 298.236335 
L 151.849399 297.752715 
L 152.415252 297.526329 
L 152.981105 297.499398 
L 153.546958 297.18969 
L 154.678664 297.708116 
L 155.244517 297.504021 
L 155.81037 297.001168 
L 156.376223 296.770965 
L 156.942076 296.901774 
L 157.507929 296.909557 
L 158.073782 297.138866 
L 158.639635 297.17764 
L 159.205488 296.801697 
L 160.337194 295.578052 
L 161.4689 297.09702 
L 162.034753 297.07747 
L 163.166459 295.506455 
L 163.732312 295.278588 
L 164.864018 295.490093 
L 165.429871 294.87924 
L 165.995724 294.897202 
L 166.561577 293.616705 
L 167.12743 293.099663 
L 168.259136 293.679128 
L 168.824989 294.421997 
L 169.390842 293.573593 
L 169.956696 292.415715 
L 170.522549 292.652289 
L 171.088402 291.483311 
L 171.654255 290.654436 
L 172.220108 291.268548 
L 172.785961 291.122829 
L 173.351814 291.355617 
L 173.917667 290.919346 
L 174.48352 290.641317 
L 175.049373 290.635025 
L 175.615226 289.301423 
L 176.181079 289.899247 
L 176.746932 289.54205 
L 177.312785 286.617456 
L 177.878638 284.875163 
L 179.576197 286.773689 
L 180.14205 287.444566 
L 180.707903 287.12998 
L 181.273756 283.852436 
L 182.405462 279.466474 
L 182.971315 278.532202 
L 183.537168 278.703853 
L 184.103021 278.183891 
L 184.668874 277.280292 
L 185.234727 276.939129 
L 185.80058 276.195138 
L 186.366433 275.046324 
L 186.932286 275.972936 
L 187.498139 273.356832 
L 188.063992 272.012044 
L 188.629846 269.774439 
L 189.195699 269.080226 
L 189.761552 267.902953 
L 190.327405 265.497227 
L 190.893258 263.692069 
L 191.459111 260.522167 
L 192.024964 259.870352 
L 192.590817 261.118635 
L 193.15667 259.770134 
L 194.288376 258.61841 
L 194.854229 255.694733 
L 195.420082 254.046205 
L 195.985935 254.462793 
L 197.683494 245.705686 
L 198.249347 243.850775 
L 198.8152 243.167272 
L 199.381053 239.72237 
L 199.946906 234.709672 
L 200.512759 233.966047 
L 201.078612 231.597597 
L 201.644465 232.01727 
L 202.210318 231.396051 
L 202.776171 227.215518 
L 203.342024 226.238734 
L 203.907877 221.53431 
L 204.47373 218.013435 
L 205.039583 217.328393 
L 205.605436 215.612469 
L 206.171289 216.002984 
L 206.737142 217.536606 
L 207.302996 212.962589 
L 207.868849 210.658843 
L 208.434702 210.722273 
L 209.000555 203.032275 
L 209.566408 200.69735 
L 210.132261 195.602447 
L 210.698114 197.667485 
L 211.263967 201.5223 
L 212.395673 188.481264 
L 212.961526 187.901913 
L 213.527379 186.743953 
L 214.093232 181.687981 
L 214.659085 182.433449 
L 215.224938 179.414123 
L 215.790791 179.888504 
L 216.356644 173.088181 
L 216.922497 169.368585 
L 217.48835 169.510091 
L 218.054203 169.172785 
L 218.620056 168.419147 
L 219.185909 163.353445 
L 219.751762 160.321073 
L 220.317615 154.791851 
L 220.883468 151.739534 
L 221.449321 157.673556 
L 222.015174 158.67028 
L 222.581027 150.475024 
L 223.14688 149.370644 
L 223.712733 146.057942 
L 224.278586 136.038129 
L 224.844439 135.640894 
L 225.410293 137.239734 
L 226.541999 134.163814 
L 227.107852 129.50339 
L 227.673705 130.809207 
L 228.239558 128.202729 
L 229.371264 124.866762 
L 229.937117 120.662561 
L 230.50297 115.42989 
L 231.068823 112.080139 
L 231.634676 114.41355 
L 232.200529 112.445672 
L 232.766382 116.067261 
L 233.332235 107.378442 
L 233.898088 101.815896 
L 234.463941 100.825395 
L 235.029794 108.385942 
L 235.595647 108.971534 
L 236.1615 98.745474 
L 236.727353 94.339728 
L 237.293206 93.759837 
L 238.424912 86.502961 
L 238.990765 85.922138 
L 239.556618 92.192238 
L 240.122471 95.377568 
L 240.688324 97.522032 
L 241.82003 82.094833 
L 242.385883 90.024208 
L 242.951736 91.126988 
L 243.517589 89.118767 
L 244.083443 84.323891 
L 244.649296 77.523414 
L 245.215149 78.465566 
L 245.781002 80.880724 
L 246.346855 85.24011 
L 246.912708 81.152799 
L 247.478561 84.112835 
L 248.044414 84.22817 
L 248.610267 81.371194 
L 249.17612 79.518699 
L 249.741973 83.239161 
L 250.307826 92.970791 
L 250.873679 91.112613 
L 251.439532 87.997796 
L 252.005385 86.375902 
L 252.571238 87.086995 
L 253.137091 88.901183 
L 253.702944 94.735377 
L 254.268797 94.39473 
L 254.83465 87.261994 
L 255.400503 87.478377 
L 255.966356 87.924488 
L 256.532209 83.640023 
L 257.098062 91.914209 
L 257.663915 96.677428 
L 258.229768 95.608316 
L 258.795621 93.409572 
L 259.361474 91.799687 
L 259.927327 100.832187 
L 260.49318 103.506576 
L 261.059033 98.073255 
L 261.624886 96.305771 
L 262.190739 106.467735 
L 262.756593 104.988821 
L 263.322446 99.324588 
L 263.888299 102.14994 
L 264.454152 103.170178 
L 265.585858 107.276123 
L 266.151711 115.56867 
L 266.717564 117.660155 
L 267.283417 110.205141 
L 267.84927 105.296927 
L 268.980976 118.489933 
L 269.546829 117.460128 
L 270.112682 115.812344 
L 271.244388 106.661649 
L 271.810241 107.928502 
L 272.376094 110.873698 
L 272.941947 119.951211 
L 273.5078 125.371778 
L 274.073653 118.91911 
L 274.639506 116.708587 
L 275.205359 118.455911 
L 276.337065 130.622342 
L 276.902918 123.569401 
L 277.468771 120.221843 
L 278.034624 129.001655 
L 278.600477 133.776103 
L 279.16633 130.974886 
L 279.732183 129.904822 
L 280.298036 132.445411 
L 280.86389 137.368986 
L 281.429743 132.244088 
L 281.995596 133.153405 
L 282.561449 137.21721 
L 283.127302 139.877025 
L 283.693155 138.015119 
L 284.824861 144.890824 
L 285.956567 133.510127 
L 286.52242 136.59042 
L 287.088273 141.734993 
L 287.654126 135.54401 
L 288.219979 134.404992 
L 288.785832 138.150059 
L 289.351685 137.644872 
L 289.917538 145.02765 
L 290.483391 148.905813 
L 291.049244 147.144098 
L 291.615097 142.724255 
L 292.18095 140.59016 
L 292.746803 143.395213 
L 293.312656 148.877561 
L 293.878509 149.376705 
L 294.444362 146.992721 
L 295.010215 151.16759 
L 295.576068 154.414331 
L 296.141921 155.877023 
L 296.707774 158.869742 
L 297.273627 154.638363 
L 297.83948 153.555279 
L 298.405333 164.172473 
L 298.971186 162.738687 
L 299.53704 157.4783 
L 300.102893 158.746168 
L 300.668746 158.451658 
L 301.234599 155.5483 
L 301.800452 164.342415 
L 302.366305 165.203036 
L 302.932158 162.233601 
L 304.063864 173.73523 
L 304.629717 174.882323 
L 305.19557 173.988665 
L 305.761423 179.708216 
L 306.893129 188.370583 
L 308.024835 187.076659 
L 308.590688 188.371883 
L 309.156541 185.994554 
L 309.722394 184.38751 
L 310.288247 185.964977 
L 311.419953 197.938678 
L 311.985806 195.145328 
L 312.551659 194.606575 
L 313.117512 195.651669 
L 313.683365 203.561958 
L 314.249218 207.314932 
L 314.815071 205.952246 
L 315.380924 206.467573 
L 315.946777 211.377167 
L 316.51263 214.702762 
L 317.078483 214.060249 
L 317.644336 215.614843 
L 318.21019 221.236689 
L 318.776043 220.367282 
L 319.341896 220.96276 
L 319.907749 224.337151 
L 320.473602 223.522476 
L 321.039455 226.41273 
L 321.605308 228.368189 
L 322.171161 224.770418 
L 322.737014 225.334697 
L 323.302867 229.588834 
L 323.86872 232.788848 
L 324.434573 233.0898 
L 325.000426 235.14165 
L 325.566279 238.539284 
L 326.132132 238.782375 
L 327.263838 243.414346 
L 327.829691 243.017466 
L 328.395544 241.942766 
L 328.961397 245.349109 
L 329.52725 246.929641 
L 330.093103 248.056689 
L 330.658956 248.839438 
L 331.790662 252.534055 
L 332.356515 251.062155 
L 333.488221 259.828475 
L 334.619927 258.395531 
L 335.18578 258.583386 
L 336.317487 266.665147 
L 336.88334 266.422362 
L 337.449193 267.091805 
L 338.015046 267.324036 
L 338.580899 268.758126 
L 339.146752 268.283055 
L 340.278458 272.125683 
L 340.844311 270.080871 
L 341.976017 273.120029 
L 342.54187 272.46926 
L 343.107723 273.919036 
L 343.673576 273.6082 
L 344.239429 274.92257 
L 344.805282 274.521122 
L 345.371135 276.001985 
L 345.936988 278.156676 
L 347.068694 280.975129 
L 347.634547 281.358129 
L 348.2004 281.156354 
L 348.766253 283.282246 
L 349.332106 284.238902 
L 349.897959 283.793975 
L 350.463812 282.889486 
L 351.029665 282.611957 
L 351.595518 282.936278 
L 352.727224 287.087561 
L 353.293077 285.890183 
L 353.85893 286.162455 
L 354.424783 287.731153 
L 354.990637 287.567098 
L 355.55649 288.304401 
L 356.122343 287.566926 
L 356.688196 286.642826 
L 357.254049 286.631487 
L 357.819902 287.554879 
L 358.385755 289.233613 
L 359.517461 290.998057 
L 360.083314 290.738159 
L 360.649167 292.181291 
L 361.21502 292.903985 
L 361.780873 292.649006 
L 362.346726 291.654193 
L 362.912579 292.260387 
L 363.478432 291.016201 
L 364.044285 292.036245 
L 364.610138 293.609733 
L 365.741844 293.041979 
L 366.307697 294.897867 
L 366.87355 294.933549 
L 367.439403 293.083784 
L 368.005256 293.59704 
L 368.571109 294.63236 
L 369.136962 295.268814 
L 369.702815 295.456574 
L 370.268668 294.96787 
L 371.400374 295.54777 
L 371.966227 294.856483 
L 373.097933 296.27899 
L 373.663787 296.617918 
L 374.22964 296.486205 
L 374.795493 295.598892 
L 375.361346 295.557487 
L 375.927199 294.920585 
L 376.493052 295.738376 
L 377.058905 296.881715 
L 378.190611 297.161161 
L 378.756464 297.491096 
L 379.322317 297.29268 
L 379.88817 296.701705 
L 380.454023 297.149485 
L 381.019876 297.443213 
L 381.585729 297.063601 
L 382.151582 297.001409 
L 382.717435 297.540104 
L 383.283288 297.334039 
L 383.849141 297.440491 
L 384.414994 297.774464 
L 384.980847 297.892895 
L 386.678406 297.322097 
L 387.244259 297.479183 
L 388.375965 298.200407 
L 388.941818 298.316875 
L 389.507671 298.205264 
L 390.639377 298.216841 
L 391.771083 298.279357 
L 392.336937 298.49566 
L 393.468643 298.042576 
L 394.034496 298.058793 
L 394.600349 297.795972 
L 395.166202 297.951981 
L 395.732055 298.262395 
L 396.863761 298.251456 
L 397.429614 298.259921 
L 397.995467 298.005971 
L 399.127173 298.2802 
L 399.693026 298.392735 
L 400.258879 298.198443 
L 400.824732 298.427846 
L 401.390585 298.358603 
L 401.956438 298.044905 
L 403.653997 298.500265 
L 404.21985 298.562031 
L 405.351556 298.40185 
L 405.917409 298.621494 
L 406.483262 298.649179 
L 408.180821 298.412388 
L 409.312527 298.663196 
L 414.971058 298.669774 
L 417.23447 298.526604 
L 418.366176 298.671134 
L 425.156412 298.645325 
L 425.722265 298.533435 
L 427.985677 298.672 
L 461.8 298.672 
L 461.8 298.672 
" clip-path="url(#p77c52d6275)" style="fill: none; stroke: #f99752; stroke-width: 2.5; stroke-linecap: square"/>
   </g>
   <g id="patch_3">
    <path d="M 49.43 298.672 
L 49.43 12.96 
" style="fill: none; stroke: #c2c1c1; stroke-width: 0.8; stroke-linejoin: miter; stroke-linecap: square"/>
   </g>
   <g id="patch_4">
    <path d="M 445.032 298.672 
L 445.032 12.96 
" style="fill: none; stroke: #c2c1c1; stroke-width: 0.8; stroke-linejoin: miter; stroke-linecap: square"/>
   </g>
   <g id="patch_5">
    <path d="M 49.43 298.672 
L 445.032 298.672 
" style="fill: none; stroke: #c2c1c1; stroke-width: 0.8; stroke-linejoin: miter; stroke-linecap: square"/>
   </g>
   <g id="patch_6">
    <path d="M 49.43 12.96 
L 445.032 12.96 
" style="fill: none; stroke: #c2c1c1; stroke-width: 0.8; stroke-linejoin: miter; stroke-linecap: square"/>
   </g>
   <g id="legend_1">
    <g id="line2d_20">
     <path d="M 354.0795 28.56 
L 366.0795 28.56 
L 378.0795 28.56 
" style="fill: none; stroke: #1e2e79; stroke-width: 2.5; stroke-linecap: square"/>
    </g>
    <g id="text_19">
     <!-- Reduced -->
     <g transform="translate(387.6795 32.76) scale(0.12 -0.12)">
      <defs>
       <path id="Roboto-Regular-52" d="M 3188 0 
L 2200 1844 
L 1131 1844 
L 1131 0 
L 528 0 
L 528 4550 
L 2034 4550 
Q 2800 4550 3214 4200 
Q 3628 3850 3628 3184 
Q 3628 2759 3398 2442 
Q 3169 2125 2763 1969 
L 3831 38 
L 3831 0 
L 3188 0 
z
M 1131 4056 
L 1131 2334 
L 2053 2334 
Q 2538 2334 2783 2582 
Q 3028 2831 3028 3184 
Q 3028 3578 2792 3817 
Q 2556 4056 2034 4056 
L 1131 4056 
z
" transform="scale(0.015625)"/>
       <path id="Roboto-Regular-65" d="M 3116 591 
Q 2950 341 2647 139 
Q 2344 -63 1844 -63 
Q 1138 -63 714 396 
Q 291 856 291 1572 
L 291 1703 
Q 291 2256 502 2645 
Q 713 3034 1050 3239 
Q 1388 3444 1769 3444 
Q 2494 3444 2826 2970 
Q 3159 2497 3159 1788 
L 3159 1528 
L 872 1528 
Q 884 1063 1148 736 
Q 1413 409 1875 409 
Q 2181 409 2393 534 
Q 2606 659 2766 869 
L 3116 591 
z
M 1769 2969 
Q 1425 2969 1187 2719 
Q 950 2469 891 2000 
L 2581 2000 
L 2581 2044 
Q 2559 2381 2386 2675 
Q 2213 2969 1769 2969 
z
" transform="scale(0.015625)"/>
       <path id="Roboto-Regular-64" d="M 2622 0 
L 2594 363 
Q 2247 -63 1628 -63 
Q 1034 -63 668 418 
Q 303 900 297 1628 
L 297 1719 
Q 297 2494 664 2969 
Q 1031 3444 1634 3444 
Q 2231 3444 2572 3044 
L 2572 4800 
L 3153 4800 
L 3153 0 
L 2622 0 
z
M 878 1653 
Q 878 1150 1090 789 
Q 1303 428 1772 428 
Q 2309 428 2572 919 
L 2572 2475 
Q 2313 2956 1778 2956 
Q 1306 2956 1092 2589 
Q 878 2222 878 1719 
L 878 1653 
z
" transform="scale(0.015625)"/>
       <path id="Roboto-Regular-75" d="M 2538 0 
L 2525 334 
Q 2194 -63 1538 -63 
Q 1041 -63 734 231 
Q 428 525 428 1200 
L 428 3381 
L 1006 3381 
L 1006 1194 
Q 1006 738 1198 583 
Q 1391 428 1628 428 
Q 2281 428 2509 919 
L 2509 3381 
L 3091 3381 
L 3091 0 
L 2538 0 
z
" transform="scale(0.015625)"/>
       <path id="Roboto-Regular-63" d="M 1794 413 
Q 2103 413 2336 597 
Q 2569 781 2591 1069 
L 3141 1069 
Q 3119 616 2725 276 
Q 2331 -63 1794 -63 
Q 1031 -63 661 440 
Q 291 944 291 1625 
L 291 1756 
Q 291 2438 661 2941 
Q 1031 3444 1794 3444 
Q 2388 3444 2753 3092 
Q 3119 2741 3141 2219 
L 2591 2219 
Q 2569 2531 2355 2750 
Q 2141 2969 1794 2969 
Q 1438 2969 1236 2787 
Q 1034 2606 951 2328 
Q 869 2050 869 1756 
L 869 1625 
Q 869 1328 950 1050 
Q 1031 772 1232 592 
Q 1434 413 1794 413 
z
" transform="scale(0.015625)"/>
      </defs>
      <use xlink:href="#Roboto-Regular-52"/>
      <use xlink:href="#Roboto-Regular-65" x="61.621094"/>
      <use xlink:href="#Roboto-Regular-64" x="114.648438"/>
      <use xlink:href="#Roboto-Regular-75" x="171.044922"/>
      <use xlink:href="#Roboto-Regular-63" x="226.171875"/>
      <use xlink:href="#Roboto-Regular-65" x="278.515625"/>
      <use xlink:href="#Roboto-Regular-64" x="331.542969"/>
     </g>
    </g>
    <g id="line2d_21">
     <path d="M 354.0795 45.9975 
L 366.0795 45.9975 
L 378.0795 45.9975 
" style="fill: none; stroke: #ec4067; stroke-width: 2.5; stroke-linecap: square"/>
    </g>
    <g id="text_20">
     <!-- Oxidized -->
     <g transform="translate(387.6795 50.1975) scale(0.12 -0.12)">
      <defs>
       <path id="Roboto-Regular-4f" d="M 4031 2131 
Q 4031 1106 3534 521 
Q 3038 -63 2206 -63 
Q 1397 -63 884 521 
Q 372 1106 372 2131 
L 372 2419 
Q 372 3441 881 4027 
Q 1391 4613 2200 4613 
Q 3025 4613 3523 4036 
Q 4022 3459 4031 2456 
L 4031 2131 
z
M 3434 2425 
Q 3434 3238 3109 3669 
Q 2784 4100 2200 4100 
Q 1641 4100 1305 3669 
Q 969 3238 969 2425 
L 969 2131 
Q 969 1313 1308 880 
Q 1647 447 2206 447 
Q 2794 447 3114 880 
Q 3434 1313 3434 2131 
L 3434 2425 
z
" transform="scale(0.015625)"/>
       <path id="Roboto-Regular-78" d="M 831 3381 
L 1572 2150 
L 2322 3381 
L 3000 3381 
L 1894 1713 
L 3034 0 
L 2366 0 
L 1584 1269 
L 803 0 
L 131 0 
L 1269 1713 
L 166 3381 
L 831 3381 
z
" transform="scale(0.015625)"/>
       <path id="Roboto-Regular-69" d="M 444 4278 
Q 444 4419 530 4516 
Q 616 4613 784 4613 
Q 950 4613 1039 4516 
Q 1128 4419 1128 4278 
Q 1128 4144 1039 4048 
Q 950 3953 784 3953 
Q 616 3953 530 4048 
Q 444 4144 444 4278 
z
M 1069 3381 
L 1069 0 
L 488 0 
L 488 3381 
L 1069 3381 
z
" transform="scale(0.015625)"/>
       <path id="Roboto-Regular-7a" d="M 303 2903 
L 303 3381 
L 2869 3381 
L 2869 2972 
L 988 475 
L 2959 475 
L 2959 0 
L 278 0 
L 278 425 
L 2141 2903 
L 303 2903 
z
" transform="scale(0.015625)"/>
      </defs>
      <use xlink:href="#Roboto-Regular-4f"/>
      <use xlink:href="#Roboto-Regular-78" x="68.798828"/>
      <use xlink:href="#Roboto-Regular-69" x="118.408203"/>
      <use xlink:href="#Roboto-Regular-64" x="142.724609"/>
      <use xlink:href="#Roboto-Regular-69" x="199.121094"/>
      <use xlink:href="#Roboto-Regular-7a" x="223.4375"/>
      <use xlink:href="#Roboto-Regular-65" x="273.046875"/>
      <use xlink:href="#Roboto-Regular-64" x="326.074219"/>
     </g>
    </g>
    <g id="line2d_22">
     <path d="M 354.0795 64.06125 
L 366.0795 64.06125 
L 378.0795 64.06125 
" style="fill: none; stroke: #f99752; stroke-width: 2.5; stroke-linecap: square"/>
    </g>
    <g id="text_21">
     <!-- Cu(I) -->
     <g transform="translate(387.6795 68.26125) scale(0.12 -0.12)">
      <defs>
       <path id="Roboto-Regular-43" d="M 3275 1447 
L 3875 1447 
Q 3806 800 3387 368 
Q 2969 -63 2150 -63 
Q 1356 -63 870 504 
Q 384 1072 375 2013 
L 375 2500 
Q 375 3456 867 4034 
Q 1359 4613 2203 4613 
Q 2975 4613 3390 4188 
Q 3806 3763 3875 3091 
L 3275 3091 
Q 3206 3566 2968 3842 
Q 2731 4119 2203 4119 
Q 1600 4119 1287 3675 
Q 975 3231 975 2506 
L 975 2047 
Q 975 1375 1259 901 
Q 1544 428 2150 428 
Q 2725 428 2961 697 
Q 3197 966 3275 1447 
z
" transform="scale(0.015625)"/>
       <path id="Roboto-Regular-28" d="M 419 1850 
Q 419 2756 678 3434 
Q 938 4113 1294 4541 
Q 1650 4969 1947 5134 
L 2069 4753 
Q 1700 4475 1348 3761 
Q 997 3047 997 1813 
Q 997 625 1348 -97 
Q 1700 -819 2069 -1119 
L 1947 -1469 
Q 1650 -1306 1294 -878 
Q 938 -450 678 226 
Q 419 903 419 1850 
z
" transform="scale(0.015625)"/>
       <path id="Roboto-Regular-49" d="M 1175 4550 
L 1175 0 
L 572 0 
L 572 4550 
L 1175 4550 
z
" transform="scale(0.015625)"/>
       <path id="Roboto-Regular-29" d="M 1772 1819 
Q 1772 906 1512 228 
Q 1253 -450 895 -878 
Q 538 -1306 244 -1469 
L 122 -1119 
Q 488 -841 841 -109 
Q 1194 622 1194 1856 
Q 1194 2647 1019 3236 
Q 844 3825 594 4212 
Q 344 4600 122 4781 
L 244 5134 
Q 538 4969 895 4541 
Q 1253 4113 1512 3436 
Q 1772 2759 1772 1819 
z
" transform="scale(0.015625)"/>
      </defs>
      <use xlink:href="#Roboto-Regular-43"/>
      <use xlink:href="#Roboto-Regular-75" x="65.087891"/>
      <use xlink:href="#Roboto-Regular-28" x="120.214844"/>
      <use xlink:href="#Roboto-Regular-49" x="154.443359"/>
      <use xlink:href="#Roboto-Regular-29" x="181.640625"/>
     </g>
    </g>
   </g>
  </g>
 </g>
 <defs>
  <clipPath id="p77c52d6275">
   <rect x="49.43" y="12.96" width="395.602" height="285.712"/>
  </clipPath>
 </defs>
</svg>
