<?xml version="1.0" encoding="utf-8" standalone="no"?>
<!DOCTYPE svg PUBLIC "-//W3C//DTD SVG 1.1//EN"
  "http://www.w3.org/Graphics/SVG/1.1/DTD/svg11.dtd">
<svg xmlns:xlink="http://www.w3.org/1999/xlink" width="460.8pt" height="345.6pt" viewBox="0 0 460.8 345.6" xmlns="http://www.w3.org/2000/svg" version="1.1">
 <metadata>
  <rdf:RDF xmlns:dc="http://purl.org/dc/elements/1.1/" xmlns:cc="http://creativecommons.org/ns#" xmlns:rdf="http://www.w3.org/1999/02/22-rdf-syntax-ns#">
   <cc:Work>
    <dc:type rdf:resource="http://purl.org/dc/dcmitype/StillImage"/>
    <dc:date>2024-06-10T22:02:48.580607</dc:date>
    <dc:format>image/svg+xml</dc:format>
    <dc:creator>
     <cc:Agent>
      <dc:title>Matplotlib v3.8.4, https://matplotlib.org/</dc:title>
     </cc:Agent>
    </dc:creator>
   </cc:Work>
  </rdf:RDF>
 </metadata>
 <defs>
  <style type="text/css">*{stroke-linejoin: round; stroke-linecap: butt}</style>
 </defs>
 <g id="figure_1">
  <g id="patch_1">
   <path d="M 0 345.6 
L 460.8 345.6 
L 460.8 0 
L 0 0 
z
" style="fill: #ffffff"/>
  </g>
  <g id="axes_1">
   <g id="patch_2">
    <path d="M 38.27 302.8525 
L 446.805 302.8525 
L 446.805 10.8 
L 38.27 10.8 
z
" style="fill: #ffffff"/>
   </g>
   <g id="line2d_1">
    <path d="M 38.27 302.8525 
L 217.796391 302.763538 
L 218.614279 302.756733 
L 221.476887 302.613039 
L 223.521607 302.53236 
L 224.748438 302.448698 
L 225.157382 302.308448 
L 225.97527 302.253928 
L 226.384214 302.172193 
L 226.793158 302.339816 
L 227.202102 302.366382 
L 227.611046 302.177596 
L 229.655766 301.903611 
L 232.518373 301.177223 
L 232.927317 301.161824 
L 233.745205 300.710526 
L 234.154149 300.90996 
L 234.563093 300.81365 
L 235.380981 300.93926 
L 235.789925 300.882601 
L 236.198869 300.389634 
L 236.607813 300.269256 
L 237.016757 300.553872 
L 237.425701 300.300203 
L 237.834645 300.499916 
L 238.243589 300.206538 
L 238.652533 300.152603 
L 239.061476 300.408578 
L 239.47042 300.20841 
L 239.879364 299.798922 
L 240.288308 299.580502 
L 241.106196 300.078944 
L 241.924084 299.534106 
L 242.741972 299.556368 
L 243.150916 299.521413 
L 243.55986 299.194916 
L 243.968804 299.102999 
L 244.377748 299.21974 
L 244.786692 299.123274 
L 245.195636 299.217712 
L 245.60458 299.521033 
L 246.013524 299.492681 
L 246.422467 299.22755 
L 246.831411 299.348312 
L 247.649299 298.835842 
L 248.058243 299.087565 
L 248.467187 298.73983 
L 249.285075 299.040155 
L 249.694019 298.573837 
L 250.102963 298.889818 
L 250.511907 298.838925 
L 250.920851 298.620636 
L 251.329795 298.236648 
L 251.738739 298.073264 
L 252.147683 298.222413 
L 252.965571 298.041062 
L 253.783458 297.901815 
L 254.192402 297.665373 
L 254.601346 297.772937 
L 255.01029 298.234514 
L 255.419234 298.246576 
L 255.828178 297.771234 
L 256.237122 297.499094 
L 256.646066 296.953054 
L 257.05501 297.411195 
L 258.690786 296.266663 
L 259.508674 296.3791 
L 259.917618 296.714649 
L 260.326562 296.063008 
L 260.735506 296.129685 
L 261.144449 295.551537 
L 261.553393 294.451391 
L 261.962337 294.45004 
L 262.371281 293.921405 
L 263.189169 294.477684 
L 263.598113 293.709984 
L 264.007057 293.712475 
L 264.416001 293.562542 
L 265.233889 292.407081 
L 265.642833 292.401482 
L 266.051777 292.244646 
L 266.869665 290.301201 
L 267.278609 290.678484 
L 267.687553 290.800818 
L 268.50544 289.246477 
L 268.914384 288.898418 
L 269.732272 289.056853 
L 270.141216 287.762224 
L 270.55016 286.920999 
L 270.959104 286.880484 
L 271.368048 287.384792 
L 271.776992 286.265343 
L 272.185936 284.628501 
L 272.59488 284.574998 
L 273.003824 284.696905 
L 273.821712 281.858409 
L 274.230656 280.203499 
L 274.6396 279.488761 
L 275.048544 279.819419 
L 275.457487 279.761334 
L 275.866431 279.354374 
L 276.275375 280.348824 
L 276.684319 279.433141 
L 277.093263 277.713489 
L 277.911151 276.372218 
L 278.320095 276.149593 
L 278.729039 276.143729 
L 279.137983 274.975184 
L 279.546927 274.624198 
L 279.955871 273.319539 
L 280.364815 273.329324 
L 280.773759 271.951471 
L 281.182703 271.114127 
L 281.591647 271.687009 
L 282.000591 271.93341 
L 282.409535 271.874149 
L 282.818478 269.949424 
L 283.227422 269.233645 
L 283.636366 269.543968 
L 284.04531 268.625274 
L 284.863198 264.750957 
L 285.272142 264.433604 
L 285.681086 264.426156 
L 286.09003 263.682995 
L 286.498974 263.506858 
L 286.907918 264.952664 
L 287.316862 263.80502 
L 288.13475 262.766868 
L 288.543694 261.71446 
L 288.952638 262.219213 
L 289.361582 262.320237 
L 289.770526 262.227925 
L 290.179469 260.375234 
L 290.588413 260.719673 
L 290.997357 259.764055 
L 291.406301 260.171374 
L 291.815245 261.120867 
L 292.224189 261.389688 
L 292.633133 260.978623 
L 293.042077 260.40419 
L 293.451021 260.045003 
L 293.859965 260.501521 
L 294.268909 260.270484 
L 294.677853 259.547815 
L 295.086797 260.142678 
L 295.495741 261.510823 
L 296.313629 258.80646 
L 296.722573 259.406685 
L 297.131517 258.771758 
L 297.949404 259.614915 
L 298.358348 258.877544 
L 298.767292 258.955817 
L 299.58518 260.647074 
L 299.994124 260.311441 
L 300.403068 259.782202 
L 300.812012 258.962633 
L 301.220956 260.173112 
L 301.6299 260.460836 
L 302.038844 261.140772 
L 302.447788 259.823652 
L 303.265676 263.588825 
L 303.67462 263.323547 
L 304.492508 262.027343 
L 304.901451 262.209734 
L 305.310395 262.031709 
L 305.719339 262.707408 
L 306.128283 264.510335 
L 306.537227 264.802592 
L 306.946171 264.932432 
L 307.355115 264.735036 
L 307.764059 263.360153 
L 308.173003 263.463635 
L 308.990891 264.746925 
L 309.399835 267.009721 
L 309.808779 266.465426 
L 310.217723 266.308596 
L 310.626667 267.526738 
L 311.035611 268.013403 
L 311.444555 267.807242 
L 311.853498 268.067762 
L 312.262442 269.266637 
L 312.671386 268.792175 
L 313.08033 268.88 
L 313.489274 270.174241 
L 314.307162 272.265754 
L 314.716106 272.335712 
L 315.12505 270.904881 
L 315.533994 271.237911 
L 315.942938 272.231706 
L 316.351882 272.128323 
L 316.760826 272.299057 
L 317.16977 273.951156 
L 317.578714 273.972321 
L 317.987658 273.65696 
L 318.396602 274.171697 
L 318.805546 274.00959 
L 319.214489 274.801682 
L 319.623433 276.580598 
L 320.032377 276.884689 
L 320.441321 276.630606 
L 320.850265 277.637626 
L 321.259209 277.552488 
L 321.668153 278.421897 
L 322.077097 278.978973 
L 322.486041 279.14774 
L 322.894985 278.957351 
L 323.303929 279.020889 
L 323.712873 280.205923 
L 324.121817 281.001335 
L 324.530761 280.835436 
L 325.348649 282.952235 
L 325.757593 282.489973 
L 326.166537 282.524547 
L 326.57548 283.344154 
L 326.984424 283.435994 
L 327.802312 283.060259 
L 328.211256 284.055271 
L 328.6202 284.62352 
L 329.029144 284.695974 
L 329.438088 285.577281 
L 330.255976 285.974241 
L 330.66492 286.498642 
L 331.073864 286.40816 
L 331.482808 286.763958 
L 331.891752 286.896659 
L 332.300696 287.835262 
L 332.70964 288.44148 
L 333.118584 288.473394 
L 333.936471 288.866124 
L 334.345415 289.875519 
L 334.754359 289.359499 
L 335.163303 289.966258 
L 335.572247 291.066721 
L 337.616967 292.097891 
L 338.434855 293.555016 
L 338.843799 293.368782 
L 339.252743 293.782995 
L 339.661687 293.9894 
L 340.070631 294.478523 
L 340.479575 294.364551 
L 340.888519 294.682871 
L 341.297462 294.418954 
L 341.706406 295.206598 
L 342.524294 295.245702 
L 342.933238 296.163591 
L 343.342182 296.171543 
L 343.751126 296.424285 
L 344.16007 297.009183 
L 344.569014 296.951698 
L 344.977958 297.068127 
L 345.795846 296.946427 
L 346.20479 297.370864 
L 346.613734 297.308172 
L 347.022678 297.397204 
L 347.431622 297.683958 
L 348.24951 298.514709 
L 349.067397 298.962363 
L 349.476341 298.932684 
L 350.294229 299.491851 
L 353.156837 299.8171 
L 353.565781 300.427627 
L 353.974725 300.525994 
L 354.792613 300.329728 
L 355.610501 301.044092 
L 356.428388 300.927353 
L 356.837332 300.888879 
L 358.473108 301.50516 
L 358.882052 301.249875 
L 359.69994 301.343122 
L 360.108884 301.621364 
L 360.517828 301.753618 
L 361.74466 301.627561 
L 365.016211 301.975116 
L 365.425155 302.318828 
L 367.060931 302.031625 
L 367.878819 302.213296 
L 368.287763 302.350625 
L 368.696707 302.215886 
L 371.559314 302.493274 
L 372.786146 302.41499 
L 379.738193 302.553863 
L 380.147137 302.536793 
L 381.373969 302.745256 
L 384.236577 302.640623 
L 385.054464 302.732116 
L 385.872352 302.733789 
L 386.69024 302.69912 
L 387.508128 302.655587 
L 388.326016 302.778802 
L 389.552848 302.744849 
L 392.006512 302.821902 
L 393.233343 302.720655 
L 394.460175 302.799741 
L 396.504895 302.719555 
L 433.30985 302.837207 
L 434.127738 302.819268 
L 442.715561 302.841284 
L 443.533448 302.803216 
L 444.76028 302.851635 
L 446.805 302.813994 
L 446.805 302.813994 
" clip-path="url(#p531f173f50)" style="fill: none; stroke: #1e2e79; stroke-width: 2.5; stroke-linecap: square"/>
   </g>
   <g id="line2d_2">
    <path d="M 38.27 302.8525 
L 109.426246 302.772298 
L 109.83519 302.508821 
L 110.244134 302.848826 
L 110.653078 302.80193 
L 111.062022 302.408289 
L 111.470966 301.606132 
L 111.87991 302.037776 
L 112.288854 300.102012 
L 112.697798 300.292334 
L 113.106742 299.730453 
L 113.515686 295.607552 
L 113.92463 295.55 
L 114.333574 291.41952 
L 114.742518 289.167996 
L 115.151461 282.331695 
L 115.560405 281.525456 
L 115.969349 274.570664 
L 117.605125 232.403424 
L 118.423013 197.465581 
L 119.240901 166.654068 
L 120.876677 69.550499 
L 121.285621 71.776653 
L 121.694565 52.355378 
L 122.512452 30.752909 
L 122.921396 24.707262 
L 123.33034 25.454422 
L 123.739284 38.570147 
L 124.148228 36.779481 
L 124.557172 39.947728 
L 124.966116 60.119316 
L 125.37506 63.218157 
L 125.784004 102.131355 
L 126.192948 111.603866 
L 126.601892 132.981579 
L 127.41978 162.570314 
L 127.828724 195.600343 
L 128.237668 203.972916 
L 128.646612 217.258949 
L 129.055556 240.271297 
L 129.873443 258.963202 
L 130.691331 276.621619 
L 131.509219 288.468889 
L 131.918163 290.305202 
L 132.736051 297.813614 
L 133.144995 298.197175 
L 133.553939 299.723378 
L 134.371827 301.831045 
L 134.780771 301.52923 
L 135.189715 301.965691 
L 135.598659 302.678192 
L 136.007603 302.571491 
L 136.416547 302.767197 
L 136.82549 302.650431 
L 137.234434 302.771479 
L 137.643378 302.685187 
L 138.052322 302.8525 
L 138.87021 302.8525 
L 139.279154 302.668519 
L 139.688098 302.8525 
L 446.805 302.8525 
L 446.805 302.8525 
" clip-path="url(#p531f173f50)" style="fill: none; stroke: #ec4067; stroke-width: 2.5; stroke-linecap: square"/>
   </g>
   <g id="matplotlib.axis_1">
    <g id="xtick_1">
     <g id="line2d_3">
      <defs>
       <path id="mdee5973c30" d="M 0 0 
L 0 3.5 
" style="stroke: #000000; stroke-width: 0.8"/>
      </defs>
      <g>
       <use xlink:href="#mdee5973c30" x="38.27" y="302.8525" style="stroke: #000000; stroke-width: 0.8"/>
      </g>
     </g>
     <g id="text_1">
      <!-- 1 -->
      <g transform="translate(35.08875 317.450938) scale(0.1 -0.1)">
       <defs>
        <path id="DejaVuSans-31" d="M 794 531 
L 1825 531 
L 1825 4091 
L 703 3866 
L 703 4441 
L 1819 4666 
L 2450 4666 
L 2450 531 
L 3481 531 
L 3481 0 
L 794 0 
L 794 531 
z
" transform="scale(0.015625)"/>
       </defs>
       <use xlink:href="#DejaVuSans-31"/>
      </g>
     </g>
    </g>
    <g id="xtick_2">
     <g id="line2d_4">
      <g>
       <use xlink:href="#mdee5973c30" x="119.977" y="302.8525" style="stroke: #000000; stroke-width: 0.8"/>
      </g>
     </g>
     <g id="text_2">
      <!-- 2 -->
      <g transform="translate(116.79575 317.450938) scale(0.1 -0.1)">
       <defs>
        <path id="DejaVuSans-32" d="M 1228 531 
L 3431 531 
L 3431 0 
L 469 0 
L 469 531 
Q 828 903 1448 1529 
Q 2069 2156 2228 2338 
Q 2531 2678 2651 2914 
Q 2772 3150 2772 3378 
Q 2772 3750 2511 3984 
Q 2250 4219 1831 4219 
Q 1534 4219 1204 4116 
Q 875 4013 500 3803 
L 500 4441 
Q 881 4594 1212 4672 
Q 1544 4750 1819 4750 
Q 2544 4750 2975 4387 
Q 3406 4025 3406 3419 
Q 3406 3131 3298 2873 
Q 3191 2616 2906 2266 
Q 2828 2175 2409 1742 
Q 1991 1309 1228 531 
z
" transform="scale(0.015625)"/>
       </defs>
       <use xlink:href="#DejaVuSans-32"/>
      </g>
     </g>
    </g>
    <g id="xtick_3">
     <g id="line2d_5">
      <g>
       <use xlink:href="#mdee5973c30" x="201.684" y="302.8525" style="stroke: #000000; stroke-width: 0.8"/>
      </g>
     </g>
     <g id="text_3">
      <!-- 3 -->
      <g transform="translate(198.50275 317.450938) scale(0.1 -0.1)">
       <defs>
        <path id="DejaVuSans-33" d="M 2597 2516 
Q 3050 2419 3304 2112 
Q 3559 1806 3559 1356 
Q 3559 666 3084 287 
Q 2609 -91 1734 -91 
Q 1441 -91 1130 -33 
Q 819 25 488 141 
L 488 750 
Q 750 597 1062 519 
Q 1375 441 1716 441 
Q 2309 441 2620 675 
Q 2931 909 2931 1356 
Q 2931 1769 2642 2001 
Q 2353 2234 1838 2234 
L 1294 2234 
L 1294 2753 
L 1863 2753 
Q 2328 2753 2575 2939 
Q 2822 3125 2822 3475 
Q 2822 3834 2567 4026 
Q 2313 4219 1838 4219 
Q 1578 4219 1281 4162 
Q 984 4106 628 3988 
L 628 4550 
Q 988 4650 1302 4700 
Q 1616 4750 1894 4750 
Q 2613 4750 3031 4423 
Q 3450 4097 3450 3541 
Q 3450 3153 3228 2886 
Q 3006 2619 2597 2516 
z
" transform="scale(0.015625)"/>
       </defs>
       <use xlink:href="#DejaVuSans-33"/>
      </g>
     </g>
    </g>
    <g id="xtick_4">
     <g id="line2d_6">
      <g>
       <use xlink:href="#mdee5973c30" x="283.391" y="302.8525" style="stroke: #000000; stroke-width: 0.8"/>
      </g>
     </g>
     <g id="text_4">
      <!-- 4 -->
      <g transform="translate(280.20975 317.450938) scale(0.1 -0.1)">
       <defs>
        <path id="DejaVuSans-34" d="M 2419 4116 
L 825 1625 
L 2419 1625 
L 2419 4116 
z
M 2253 4666 
L 3047 4666 
L 3047 1625 
L 3713 1625 
L 3713 1100 
L 3047 1100 
L 3047 0 
L 2419 0 
L 2419 1100 
L 313 1100 
L 313 1709 
L 2253 4666 
z
" transform="scale(0.015625)"/>
       </defs>
       <use xlink:href="#DejaVuSans-34"/>
      </g>
     </g>
    </g>
    <g id="xtick_5">
     <g id="line2d_7">
      <g>
       <use xlink:href="#mdee5973c30" x="365.098" y="302.8525" style="stroke: #000000; stroke-width: 0.8"/>
      </g>
     </g>
     <g id="text_5">
      <!-- 5 -->
      <g transform="translate(361.91675 317.450938) scale(0.1 -0.1)">
       <defs>
        <path id="DejaVuSans-35" d="M 691 4666 
L 3169 4666 
L 3169 4134 
L 1269 4134 
L 1269 2991 
Q 1406 3038 1543 3061 
Q 1681 3084 1819 3084 
Q 2600 3084 3056 2656 
Q 3513 2228 3513 1497 
Q 3513 744 3044 326 
Q 2575 -91 1722 -91 
Q 1428 -91 1123 -41 
Q 819 9 494 109 
L 494 744 
Q 775 591 1075 516 
Q 1375 441 1709 441 
Q 2250 441 2565 725 
Q 2881 1009 2881 1497 
Q 2881 1984 2565 2268 
Q 2250 2553 1709 2553 
Q 1456 2553 1204 2497 
Q 953 2441 691 2322 
L 691 4666 
z
" transform="scale(0.015625)"/>
       </defs>
       <use xlink:href="#DejaVuSans-35"/>
      </g>
     </g>
    </g>
    <g id="xtick_6">
     <g id="line2d_8">
      <g>
       <use xlink:href="#mdee5973c30" x="446.805" y="302.8525" style="stroke: #000000; stroke-width: 0.8"/>
      </g>
     </g>
     <g id="text_6">
      <!-- 6 -->
      <g transform="translate(443.62375 317.450938) scale(0.1 -0.1)">
       <defs>
        <path id="DejaVuSans-36" d="M 2113 2584 
Q 1688 2584 1439 2293 
Q 1191 2003 1191 1497 
Q 1191 994 1439 701 
Q 1688 409 2113 409 
Q 2538 409 2786 701 
Q 3034 994 3034 1497 
Q 3034 2003 2786 2293 
Q 2538 2584 2113 2584 
z
M 3366 4563 
L 3366 3988 
Q 3128 4100 2886 4159 
Q 2644 4219 2406 4219 
Q 1781 4219 1451 3797 
Q 1122 3375 1075 2522 
Q 1259 2794 1537 2939 
Q 1816 3084 2150 3084 
Q 2853 3084 3261 2657 
Q 3669 2231 3669 1497 
Q 3669 778 3244 343 
Q 2819 -91 2113 -91 
Q 1303 -91 875 529 
Q 447 1150 447 2328 
Q 447 3434 972 4092 
Q 1497 4750 2381 4750 
Q 2619 4750 2861 4703 
Q 3103 4656 3366 4563 
z
" transform="scale(0.015625)"/>
       </defs>
       <use xlink:href="#DejaVuSans-36"/>
      </g>
     </g>
    </g>
    <g id="text_7">
     <!-- CYS147 SG - CYS204 SG Distance [Å] -->
     <g transform="translate(149.566406 332.0525) scale(0.1 -0.1)">
      <defs>
       <path id="DejaVuSans-43" d="M 4122 4306 
L 4122 3641 
Q 3803 3938 3442 4084 
Q 3081 4231 2675 4231 
Q 1875 4231 1450 3742 
Q 1025 3253 1025 2328 
Q 1025 1406 1450 917 
Q 1875 428 2675 428 
Q 3081 428 3442 575 
Q 3803 722 4122 1019 
L 4122 359 
Q 3791 134 3420 21 
Q 3050 -91 2638 -91 
Q 1578 -91 968 557 
Q 359 1206 359 2328 
Q 359 3453 968 4101 
Q 1578 4750 2638 4750 
Q 3056 4750 3426 4639 
Q 3797 4528 4122 4306 
z
" transform="scale(0.015625)"/>
       <path id="DejaVuSans-59" d="M -13 4666 
L 666 4666 
L 1959 2747 
L 3244 4666 
L 3922 4666 
L 2272 2222 
L 2272 0 
L 1638 0 
L 1638 2222 
L -13 4666 
z
" transform="scale(0.015625)"/>
       <path id="DejaVuSans-53" d="M 3425 4513 
L 3425 3897 
Q 3066 4069 2747 4153 
Q 2428 4238 2131 4238 
Q 1616 4238 1336 4038 
Q 1056 3838 1056 3469 
Q 1056 3159 1242 3001 
Q 1428 2844 1947 2747 
L 2328 2669 
Q 3034 2534 3370 2195 
Q 3706 1856 3706 1288 
Q 3706 609 3251 259 
Q 2797 -91 1919 -91 
Q 1588 -91 1214 -16 
Q 841 59 441 206 
L 441 856 
Q 825 641 1194 531 
Q 1563 422 1919 422 
Q 2459 422 2753 634 
Q 3047 847 3047 1241 
Q 3047 1584 2836 1778 
Q 2625 1972 2144 2069 
L 1759 2144 
Q 1053 2284 737 2584 
Q 422 2884 422 3419 
Q 422 4038 858 4394 
Q 1294 4750 2059 4750 
Q 2388 4750 2728 4690 
Q 3069 4631 3425 4513 
z
" transform="scale(0.015625)"/>
       <path id="DejaVuSans-37" d="M 525 4666 
L 3525 4666 
L 3525 4397 
L 1831 0 
L 1172 0 
L 2766 4134 
L 525 4134 
L 525 4666 
z
" transform="scale(0.015625)"/>
       <path id="DejaVuSans-20" transform="scale(0.015625)"/>
       <path id="DejaVuSans-47" d="M 3809 666 
L 3809 1919 
L 2778 1919 
L 2778 2438 
L 4434 2438 
L 4434 434 
Q 4069 175 3628 42 
Q 3188 -91 2688 -91 
Q 1594 -91 976 548 
Q 359 1188 359 2328 
Q 359 3472 976 4111 
Q 1594 4750 2688 4750 
Q 3144 4750 3555 4637 
Q 3966 4525 4313 4306 
L 4313 3634 
Q 3963 3931 3569 4081 
Q 3175 4231 2741 4231 
Q 1884 4231 1454 3753 
Q 1025 3275 1025 2328 
Q 1025 1384 1454 906 
Q 1884 428 2741 428 
Q 3075 428 3337 486 
Q 3600 544 3809 666 
z
" transform="scale(0.015625)"/>
       <path id="DejaVuSans-2d" d="M 313 2009 
L 1997 2009 
L 1997 1497 
L 313 1497 
L 313 2009 
z
" transform="scale(0.015625)"/>
       <path id="DejaVuSans-30" d="M 2034 4250 
Q 1547 4250 1301 3770 
Q 1056 3291 1056 2328 
Q 1056 1369 1301 889 
Q 1547 409 2034 409 
Q 2525 409 2770 889 
Q 3016 1369 3016 2328 
Q 3016 3291 2770 3770 
Q 2525 4250 2034 4250 
z
M 2034 4750 
Q 2819 4750 3233 4129 
Q 3647 3509 3647 2328 
Q 3647 1150 3233 529 
Q 2819 -91 2034 -91 
Q 1250 -91 836 529 
Q 422 1150 422 2328 
Q 422 3509 836 4129 
Q 1250 4750 2034 4750 
z
" transform="scale(0.015625)"/>
       <path id="DejaVuSans-44" d="M 1259 4147 
L 1259 519 
L 2022 519 
Q 2988 519 3436 956 
Q 3884 1394 3884 2338 
Q 3884 3275 3436 3711 
Q 2988 4147 2022 4147 
L 1259 4147 
z
M 628 4666 
L 1925 4666 
Q 3281 4666 3915 4102 
Q 4550 3538 4550 2338 
Q 4550 1131 3912 565 
Q 3275 0 1925 0 
L 628 0 
L 628 4666 
z
" transform="scale(0.015625)"/>
       <path id="DejaVuSans-69" d="M 603 3500 
L 1178 3500 
L 1178 0 
L 603 0 
L 603 3500 
z
M 603 4863 
L 1178 4863 
L 1178 4134 
L 603 4134 
L 603 4863 
z
" transform="scale(0.015625)"/>
       <path id="DejaVuSans-73" d="M 2834 3397 
L 2834 2853 
Q 2591 2978 2328 3040 
Q 2066 3103 1784 3103 
Q 1356 3103 1142 2972 
Q 928 2841 928 2578 
Q 928 2378 1081 2264 
Q 1234 2150 1697 2047 
L 1894 2003 
Q 2506 1872 2764 1633 
Q 3022 1394 3022 966 
Q 3022 478 2636 193 
Q 2250 -91 1575 -91 
Q 1294 -91 989 -36 
Q 684 19 347 128 
L 347 722 
Q 666 556 975 473 
Q 1284 391 1588 391 
Q 1994 391 2212 530 
Q 2431 669 2431 922 
Q 2431 1156 2273 1281 
Q 2116 1406 1581 1522 
L 1381 1569 
Q 847 1681 609 1914 
Q 372 2147 372 2553 
Q 372 3047 722 3315 
Q 1072 3584 1716 3584 
Q 2034 3584 2315 3537 
Q 2597 3491 2834 3397 
z
" transform="scale(0.015625)"/>
       <path id="DejaVuSans-74" d="M 1172 4494 
L 1172 3500 
L 2356 3500 
L 2356 3053 
L 1172 3053 
L 1172 1153 
Q 1172 725 1289 603 
Q 1406 481 1766 481 
L 2356 481 
L 2356 0 
L 1766 0 
Q 1100 0 847 248 
Q 594 497 594 1153 
L 594 3053 
L 172 3053 
L 172 3500 
L 594 3500 
L 594 4494 
L 1172 4494 
z
" transform="scale(0.015625)"/>
       <path id="DejaVuSans-61" d="M 2194 1759 
Q 1497 1759 1228 1600 
Q 959 1441 959 1056 
Q 959 750 1161 570 
Q 1363 391 1709 391 
Q 2188 391 2477 730 
Q 2766 1069 2766 1631 
L 2766 1759 
L 2194 1759 
z
M 3341 1997 
L 3341 0 
L 2766 0 
L 2766 531 
Q 2569 213 2275 61 
Q 1981 -91 1556 -91 
Q 1019 -91 701 211 
Q 384 513 384 1019 
Q 384 1609 779 1909 
Q 1175 2209 1959 2209 
L 2766 2209 
L 2766 2266 
Q 2766 2663 2505 2880 
Q 2244 3097 1772 3097 
Q 1472 3097 1187 3025 
Q 903 2953 641 2809 
L 641 3341 
Q 956 3463 1253 3523 
Q 1550 3584 1831 3584 
Q 2591 3584 2966 3190 
Q 3341 2797 3341 1997 
z
" transform="scale(0.015625)"/>
       <path id="DejaVuSans-6e" d="M 3513 2113 
L 3513 0 
L 2938 0 
L 2938 2094 
Q 2938 2591 2744 2837 
Q 2550 3084 2163 3084 
Q 1697 3084 1428 2787 
Q 1159 2491 1159 1978 
L 1159 0 
L 581 0 
L 581 3500 
L 1159 3500 
L 1159 2956 
Q 1366 3272 1645 3428 
Q 1925 3584 2291 3584 
Q 2894 3584 3203 3211 
Q 3513 2838 3513 2113 
z
" transform="scale(0.015625)"/>
       <path id="DejaVuSans-63" d="M 3122 3366 
L 3122 2828 
Q 2878 2963 2633 3030 
Q 2388 3097 2138 3097 
Q 1578 3097 1268 2742 
Q 959 2388 959 1747 
Q 959 1106 1268 751 
Q 1578 397 2138 397 
Q 2388 397 2633 464 
Q 2878 531 3122 666 
L 3122 134 
Q 2881 22 2623 -34 
Q 2366 -91 2075 -91 
Q 1284 -91 818 406 
Q 353 903 353 1747 
Q 353 2603 823 3093 
Q 1294 3584 2113 3584 
Q 2378 3584 2631 3529 
Q 2884 3475 3122 3366 
z
" transform="scale(0.015625)"/>
       <path id="DejaVuSans-65" d="M 3597 1894 
L 3597 1613 
L 953 1613 
Q 991 1019 1311 708 
Q 1631 397 2203 397 
Q 2534 397 2845 478 
Q 3156 559 3463 722 
L 3463 178 
Q 3153 47 2828 -22 
Q 2503 -91 2169 -91 
Q 1331 -91 842 396 
Q 353 884 353 1716 
Q 353 2575 817 3079 
Q 1281 3584 2069 3584 
Q 2775 3584 3186 3129 
Q 3597 2675 3597 1894 
z
M 3022 2063 
Q 3016 2534 2758 2815 
Q 2500 3097 2075 3097 
Q 1594 3097 1305 2825 
Q 1016 2553 972 2059 
L 3022 2063 
z
" transform="scale(0.015625)"/>
       <path id="DejaVuSans-5b" d="M 550 4863 
L 1875 4863 
L 1875 4416 
L 1125 4416 
L 1125 -397 
L 1875 -397 
L 1875 -844 
L 550 -844 
L 550 4863 
z
" transform="scale(0.015625)"/>
       <path id="DejaVuSans-c5" d="M 2663 5081 
Q 2663 5278 2523 5417 
Q 2384 5556 2188 5556 
Q 1988 5556 1852 5420 
Q 1716 5284 1716 5081 
Q 1716 4884 1853 4746 
Q 1991 4609 2188 4609 
Q 2384 4609 2523 4746 
Q 2663 4884 2663 5081 
z
M 2188 4044 
L 1338 1722 
L 3041 1722 
L 2188 4044 
z
M 1716 4366 
Q 1525 4494 1428 4673 
Q 1331 4853 1331 5081 
Q 1331 5441 1579 5691 
Q 1828 5941 2188 5941 
Q 2544 5941 2795 5689 
Q 3047 5438 3047 5081 
Q 3047 4863 2948 4678 
Q 2850 4494 2663 4366 
L 4325 0 
L 3669 0 
L 3244 1197 
L 1141 1197 
L 716 0 
L 50 0 
L 1716 4366 
z
" transform="scale(0.015625)"/>
       <path id="DejaVuSans-5d" d="M 1947 4863 
L 1947 -844 
L 622 -844 
L 622 -397 
L 1369 -397 
L 1369 4416 
L 622 4416 
L 622 4863 
L 1947 4863 
z
" transform="scale(0.015625)"/>
      </defs>
      <use xlink:href="#DejaVuSans-43"/>
      <use xlink:href="#DejaVuSans-59" x="68.074219"/>
      <use xlink:href="#DejaVuSans-53" x="129.158203"/>
      <use xlink:href="#DejaVuSans-31" x="192.634766"/>
      <use xlink:href="#DejaVuSans-34" x="256.257812"/>
      <use xlink:href="#DejaVuSans-37" x="319.880859"/>
      <use xlink:href="#DejaVuSans-20" x="383.503906"/>
      <use xlink:href="#DejaVuSans-53" x="415.291016"/>
      <use xlink:href="#DejaVuSans-47" x="478.767578"/>
      <use xlink:href="#DejaVuSans-20" x="556.257812"/>
      <use xlink:href="#DejaVuSans-2d" x="588.044922"/>
      <use xlink:href="#DejaVuSans-20" x="624.128906"/>
      <use xlink:href="#DejaVuSans-43" x="655.916016"/>
      <use xlink:href="#DejaVuSans-59" x="723.990234"/>
      <use xlink:href="#DejaVuSans-53" x="785.074219"/>
      <use xlink:href="#DejaVuSans-32" x="848.550781"/>
      <use xlink:href="#DejaVuSans-30" x="912.173828"/>
      <use xlink:href="#DejaVuSans-34" x="975.796875"/>
      <use xlink:href="#DejaVuSans-20" x="1039.419922"/>
      <use xlink:href="#DejaVuSans-53" x="1071.207031"/>
      <use xlink:href="#DejaVuSans-47" x="1134.683594"/>
      <use xlink:href="#DejaVuSans-20" x="1212.173828"/>
      <use xlink:href="#DejaVuSans-44" x="1243.960938"/>
      <use xlink:href="#DejaVuSans-69" x="1320.962891"/>
      <use xlink:href="#DejaVuSans-73" x="1348.746094"/>
      <use xlink:href="#DejaVuSans-74" x="1400.845703"/>
      <use xlink:href="#DejaVuSans-61" x="1440.054688"/>
      <use xlink:href="#DejaVuSans-6e" x="1501.333984"/>
      <use xlink:href="#DejaVuSans-63" x="1564.712891"/>
      <use xlink:href="#DejaVuSans-65" x="1619.693359"/>
      <use xlink:href="#DejaVuSans-20" x="1681.216797"/>
      <use xlink:href="#DejaVuSans-5b" x="1713.003906"/>
      <use xlink:href="#DejaVuSans-c5" x="1752.017578"/>
      <use xlink:href="#DejaVuSans-5d" x="1820.425781"/>
     </g>
    </g>
   </g>
   <g id="matplotlib.axis_2">
    <g id="ytick_1">
     <g id="line2d_9">
      <defs>
       <path id="ma60cdd5e67" d="M 0 0 
L -3.5 0 
" style="stroke: #000000; stroke-width: 0.8"/>
      </defs>
      <g>
       <use xlink:href="#ma60cdd5e67" x="38.27" y="302.8525" style="stroke: #000000; stroke-width: 0.8"/>
      </g>
     </g>
     <g id="text_8">
      <!-- 0 -->
      <g transform="translate(24.9075 306.651719) scale(0.1 -0.1)">
       <use xlink:href="#DejaVuSans-30"/>
      </g>
     </g>
    </g>
    <g id="ytick_2">
     <g id="line2d_10">
      <g>
       <use xlink:href="#ma60cdd5e67" x="38.27" y="244.406898" style="stroke: #000000; stroke-width: 0.8"/>
      </g>
     </g>
     <g id="text_9">
      <!-- 2 -->
      <g transform="translate(24.9075 248.206117) scale(0.1 -0.1)">
       <use xlink:href="#DejaVuSans-32"/>
      </g>
     </g>
    </g>
    <g id="ytick_3">
     <g id="line2d_11">
      <g>
       <use xlink:href="#ma60cdd5e67" x="38.27" y="185.961296" style="stroke: #000000; stroke-width: 0.8"/>
      </g>
     </g>
     <g id="text_10">
      <!-- 4 -->
      <g transform="translate(24.9075 189.760514) scale(0.1 -0.1)">
       <use xlink:href="#DejaVuSans-34"/>
      </g>
     </g>
    </g>
    <g id="ytick_4">
     <g id="line2d_12">
      <g>
       <use xlink:href="#ma60cdd5e67" x="38.27" y="127.515693" style="stroke: #000000; stroke-width: 0.8"/>
      </g>
     </g>
     <g id="text_11">
      <!-- 6 -->
      <g transform="translate(24.9075 131.314912) scale(0.1 -0.1)">
       <use xlink:href="#DejaVuSans-36"/>
      </g>
     </g>
    </g>
    <g id="ytick_5">
     <g id="line2d_13">
      <g>
       <use xlink:href="#ma60cdd5e67" x="38.27" y="69.070091" style="stroke: #000000; stroke-width: 0.8"/>
      </g>
     </g>
     <g id="text_12">
      <!-- 8 -->
      <g transform="translate(24.9075 72.86931) scale(0.1 -0.1)">
       <defs>
        <path id="DejaVuSans-38" d="M 2034 2216 
Q 1584 2216 1326 1975 
Q 1069 1734 1069 1313 
Q 1069 891 1326 650 
Q 1584 409 2034 409 
Q 2484 409 2743 651 
Q 3003 894 3003 1313 
Q 3003 1734 2745 1975 
Q 2488 2216 2034 2216 
z
M 1403 2484 
Q 997 2584 770 2862 
Q 544 3141 544 3541 
Q 544 4100 942 4425 
Q 1341 4750 2034 4750 
Q 2731 4750 3128 4425 
Q 3525 4100 3525 3541 
Q 3525 3141 3298 2862 
Q 3072 2584 2669 2484 
Q 3125 2378 3379 2068 
Q 3634 1759 3634 1313 
Q 3634 634 3220 271 
Q 2806 -91 2034 -91 
Q 1263 -91 848 271 
Q 434 634 434 1313 
Q 434 1759 690 2068 
Q 947 2378 1403 2484 
z
M 1172 3481 
Q 1172 3119 1398 2916 
Q 1625 2713 2034 2713 
Q 2441 2713 2670 2916 
Q 2900 3119 2900 3481 
Q 2900 3844 2670 4047 
Q 2441 4250 2034 4250 
Q 1625 4250 1398 4047 
Q 1172 3844 1172 3481 
z
" transform="scale(0.015625)"/>
       </defs>
       <use xlink:href="#DejaVuSans-38"/>
      </g>
     </g>
    </g>
    <g id="text_13">
     <!-- Density -->
     <g transform="translate(18.827813 175.834844) rotate(-90) scale(0.1 -0.1)">
      <defs>
       <path id="DejaVuSans-79" d="M 2059 -325 
Q 1816 -950 1584 -1140 
Q 1353 -1331 966 -1331 
L 506 -1331 
L 506 -850 
L 844 -850 
Q 1081 -850 1212 -737 
Q 1344 -625 1503 -206 
L 1606 56 
L 191 3500 
L 800 3500 
L 1894 763 
L 2988 3500 
L 3597 3500 
L 2059 -325 
z
" transform="scale(0.015625)"/>
      </defs>
      <use xlink:href="#DejaVuSans-44"/>
      <use xlink:href="#DejaVuSans-65" x="77.001953"/>
      <use xlink:href="#DejaVuSans-6e" x="138.525391"/>
      <use xlink:href="#DejaVuSans-73" x="201.904297"/>
      <use xlink:href="#DejaVuSans-69" x="254.003906"/>
      <use xlink:href="#DejaVuSans-74" x="281.787109"/>
      <use xlink:href="#DejaVuSans-79" x="320.996094"/>
     </g>
    </g>
   </g>
   <g id="line2d_14">
    <path d="M 38.27 302.8525 
L 198.167082 302.826035 
L 198.576026 302.685117 
L 198.98497 302.837192 
L 200.211802 302.787404 
L 200.620746 302.525384 
L 201.02969 302.706707 
L 201.438634 302.708039 
L 201.847578 302.576407 
L 202.256522 302.294748 
L 202.665465 302.473026 
L 203.892297 301.816134 
L 204.301241 301.958825 
L 205.119129 301.762961 
L 205.937017 300.909725 
L 206.345961 300.777215 
L 206.754905 300.114931 
L 207.572793 300.16655 
L 207.981737 299.236779 
L 208.390681 297.679342 
L 208.799625 298.184298 
L 209.208569 297.819282 
L 210.026456 296.326046 
L 210.4354 295.133161 
L 210.844344 295.171809 
L 211.253288 293.233616 
L 211.662232 293.300516 
L 212.071176 290.566769 
L 212.48012 290.161121 
L 213.298008 288.926425 
L 213.706952 286.407864 
L 214.115896 285.982355 
L 214.52484 284.221136 
L 214.933784 283.189346 
L 215.342728 280.73977 
L 215.751672 279.664707 
L 216.160616 278.980131 
L 216.56956 276.153821 
L 216.978504 274.388874 
L 217.796391 272.064298 
L 219.023223 266.079056 
L 219.432167 263.095883 
L 219.841111 261.994528 
L 220.250055 264.159479 
L 220.658999 256.764311 
L 221.067943 256.678182 
L 221.476887 255.224978 
L 221.885831 249.723928 
L 222.294775 251.195855 
L 222.703719 248.28439 
L 223.112663 247.990569 
L 223.521607 241.681629 
L 223.930551 242.328407 
L 224.339494 239.829156 
L 224.748438 236.111406 
L 225.157382 238.916417 
L 225.566326 237.298696 
L 225.97527 233.124818 
L 226.384214 230.975129 
L 226.793158 232.36883 
L 227.611046 226.102455 
L 228.01999 227.431959 
L 228.837878 221.009155 
L 229.246822 220.594643 
L 229.655766 221.643223 
L 230.06471 216.177656 
L 230.473654 218.315567 
L 230.882598 217.570274 
L 231.291542 218.988313 
L 231.700485 218.167332 
L 232.109429 211.909589 
L 232.518373 215.74088 
L 232.927317 216.296343 
L 233.336261 215.415408 
L 233.745205 217.872237 
L 234.154149 213.961767 
L 234.563093 216.773283 
L 234.972037 214.958487 
L 235.380981 218.182152 
L 235.789925 219.763027 
L 236.198869 218.681614 
L 236.607813 222.667658 
L 237.016757 218.87787 
L 237.425701 220.813448 
L 237.834645 225.120128 
L 238.243589 221.678875 
L 238.652533 226.642429 
L 239.061476 224.656728 
L 239.47042 226.484709 
L 239.879364 230.691805 
L 240.697252 234.788968 
L 241.106196 233.299184 
L 241.51514 235.826836 
L 243.150916 243.127207 
L 243.968804 248.599828 
L 244.377748 249.447281 
L 244.786692 253.041204 
L 245.195636 252.601864 
L 245.60458 256.641413 
L 246.422467 258.828374 
L 246.831411 262.735958 
L 247.240355 263.900981 
L 247.649299 264.516085 
L 248.058243 264.522327 
L 248.467187 268.577043 
L 249.285075 272.351246 
L 249.694019 273.868595 
L 250.102963 274.265936 
L 250.511907 275.969194 
L 250.920851 276.884114 
L 251.329795 280.763056 
L 251.738739 280.734912 
L 252.147683 280.380257 
L 252.556627 281.865932 
L 252.965571 285.430266 
L 253.374515 284.949717 
L 253.783458 287.867431 
L 254.192402 287.673518 
L 254.601346 287.741015 
L 255.01029 289.477248 
L 255.419234 289.61916 
L 255.828178 290.729971 
L 256.646066 293.669269 
L 257.05501 293.516517 
L 257.463954 293.742539 
L 257.872898 294.898854 
L 258.281842 295.209368 
L 258.690786 295.138391 
L 259.09973 295.199663 
L 259.508674 296.801543 
L 259.917618 297.003406 
L 260.326562 298.155689 
L 260.735506 298.198015 
L 261.144449 298.702693 
L 261.553393 298.83039 
L 261.962337 299.256526 
L 262.371281 299.275532 
L 262.780225 299.820653 
L 263.189169 299.810438 
L 263.598113 300.531078 
L 264.007057 300.129761 
L 264.416001 300.660275 
L 265.642833 301.276083 
L 266.051777 301.250999 
L 266.460721 301.424213 
L 266.869665 302.094303 
L 267.278609 302.123614 
L 267.687553 301.780536 
L 268.50544 301.645969 
L 268.914384 302.321832 
L 269.323328 301.846268 
L 269.732272 302.308615 
L 271.776992 302.351071 
L 272.185936 302.586925 
L 272.59488 302.61431 
L 273.003824 302.498082 
L 273.821712 302.698812 
L 275.048544 302.68954 
L 275.866431 302.803412 
L 276.275375 302.569333 
L 276.684319 302.745461 
L 277.093263 302.625744 
L 279.137983 302.847917 
L 280.364815 302.813569 
L 281.182703 302.844925 
L 281.591647 302.726561 
L 282.000591 302.852362 
L 446.805 302.8525 
L 446.805 302.8525 
" clip-path="url(#p531f173f50)" style="fill: none; stroke: #f99752; stroke-width: 2.5; stroke-linecap: square"/>
   </g>
   <g id="patch_3">
    <path d="M 38.27 302.8525 
L 38.27 10.8 
" style="fill: none; stroke: #000000; stroke-width: 0.8; stroke-linejoin: miter; stroke-linecap: square"/>
   </g>
   <g id="patch_4">
    <path d="M 446.805 302.8525 
L 446.805 10.8 
" style="fill: none; stroke: #000000; stroke-width: 0.8; stroke-linejoin: miter; stroke-linecap: square"/>
   </g>
   <g id="patch_5">
    <path d="M 38.27 302.8525 
L 446.805 302.8525 
" style="fill: none; stroke: #000000; stroke-width: 0.8; stroke-linejoin: miter; stroke-linecap: square"/>
   </g>
   <g id="patch_6">
    <path d="M 38.27 10.8 
L 446.805 10.8 
" style="fill: none; stroke: #000000; stroke-width: 0.8; stroke-linejoin: miter; stroke-linecap: square"/>
   </g>
   <g id="legend_1">
    <g id="patch_7">
     <path d="M 364.359688 62.834375 
L 439.805 62.834375 
Q 441.805 62.834375 441.805 60.834375 
L 441.805 17.8 
Q 441.805 15.8 439.805 15.8 
L 364.359688 15.8 
Q 362.359688 15.8 362.359688 17.8 
L 362.359688 60.834375 
Q 362.359688 62.834375 364.359688 62.834375 
z
" style="fill: #ffffff; opacity: 0.8; stroke: #cccccc; stroke-linejoin: miter"/>
    </g>
    <g id="line2d_15">
     <path d="M 366.359688 23.898438 
L 376.359688 23.898438 
L 386.359688 23.898438 
" style="fill: none; stroke: #1e2e79; stroke-width: 2.5; stroke-linecap: square"/>
    </g>
    <g id="text_14">
     <!-- Reduced -->
     <g transform="translate(394.359688 27.398438) scale(0.1 -0.1)">
      <defs>
       <path id="DejaVuSans-52" d="M 2841 2188 
Q 3044 2119 3236 1894 
Q 3428 1669 3622 1275 
L 4263 0 
L 3584 0 
L 2988 1197 
Q 2756 1666 2539 1819 
Q 2322 1972 1947 1972 
L 1259 1972 
L 1259 0 
L 628 0 
L 628 4666 
L 2053 4666 
Q 2853 4666 3247 4331 
Q 3641 3997 3641 3322 
Q 3641 2881 3436 2590 
Q 3231 2300 2841 2188 
z
M 1259 4147 
L 1259 2491 
L 2053 2491 
Q 2509 2491 2742 2702 
Q 2975 2913 2975 3322 
Q 2975 3731 2742 3939 
Q 2509 4147 2053 4147 
L 1259 4147 
z
" transform="scale(0.015625)"/>
       <path id="DejaVuSans-64" d="M 2906 2969 
L 2906 4863 
L 3481 4863 
L 3481 0 
L 2906 0 
L 2906 525 
Q 2725 213 2448 61 
Q 2172 -91 1784 -91 
Q 1150 -91 751 415 
Q 353 922 353 1747 
Q 353 2572 751 3078 
Q 1150 3584 1784 3584 
Q 2172 3584 2448 3432 
Q 2725 3281 2906 2969 
z
M 947 1747 
Q 947 1113 1208 752 
Q 1469 391 1925 391 
Q 2381 391 2643 752 
Q 2906 1113 2906 1747 
Q 2906 2381 2643 2742 
Q 2381 3103 1925 3103 
Q 1469 3103 1208 2742 
Q 947 2381 947 1747 
z
" transform="scale(0.015625)"/>
       <path id="DejaVuSans-75" d="M 544 1381 
L 544 3500 
L 1119 3500 
L 1119 1403 
Q 1119 906 1312 657 
Q 1506 409 1894 409 
Q 2359 409 2629 706 
Q 2900 1003 2900 1516 
L 2900 3500 
L 3475 3500 
L 3475 0 
L 2900 0 
L 2900 538 
Q 2691 219 2414 64 
Q 2138 -91 1772 -91 
Q 1169 -91 856 284 
Q 544 659 544 1381 
z
M 1991 3584 
L 1991 3584 
z
" transform="scale(0.015625)"/>
      </defs>
      <use xlink:href="#DejaVuSans-52"/>
      <use xlink:href="#DejaVuSans-65" x="64.982422"/>
      <use xlink:href="#DejaVuSans-64" x="126.505859"/>
      <use xlink:href="#DejaVuSans-75" x="189.982422"/>
      <use xlink:href="#DejaVuSans-63" x="253.361328"/>
      <use xlink:href="#DejaVuSans-65" x="308.341797"/>
      <use xlink:href="#DejaVuSans-64" x="369.865234"/>
     </g>
    </g>
    <g id="line2d_16">
     <path d="M 366.359688 38.576563 
L 376.359688 38.576563 
L 386.359688 38.576563 
" style="fill: none; stroke: #ec4067; stroke-width: 2.5; stroke-linecap: square"/>
    </g>
    <g id="text_15">
     <!-- Oxidized -->
     <g transform="translate(394.359688 42.076563) scale(0.1 -0.1)">
      <defs>
       <path id="DejaVuSans-4f" d="M 2522 4238 
Q 1834 4238 1429 3725 
Q 1025 3213 1025 2328 
Q 1025 1447 1429 934 
Q 1834 422 2522 422 
Q 3209 422 3611 934 
Q 4013 1447 4013 2328 
Q 4013 3213 3611 3725 
Q 3209 4238 2522 4238 
z
M 2522 4750 
Q 3503 4750 4090 4092 
Q 4678 3434 4678 2328 
Q 4678 1225 4090 567 
Q 3503 -91 2522 -91 
Q 1538 -91 948 565 
Q 359 1222 359 2328 
Q 359 3434 948 4092 
Q 1538 4750 2522 4750 
z
" transform="scale(0.015625)"/>
       <path id="DejaVuSans-78" d="M 3513 3500 
L 2247 1797 
L 3578 0 
L 2900 0 
L 1881 1375 
L 863 0 
L 184 0 
L 1544 1831 
L 300 3500 
L 978 3500 
L 1906 2253 
L 2834 3500 
L 3513 3500 
z
" transform="scale(0.015625)"/>
       <path id="DejaVuSans-7a" d="M 353 3500 
L 3084 3500 
L 3084 2975 
L 922 459 
L 3084 459 
L 3084 0 
L 275 0 
L 275 525 
L 2438 3041 
L 353 3041 
L 353 3500 
z
" transform="scale(0.015625)"/>
      </defs>
      <use xlink:href="#DejaVuSans-4f"/>
      <use xlink:href="#DejaVuSans-78" x="78.710938"/>
      <use xlink:href="#DejaVuSans-69" x="137.890625"/>
      <use xlink:href="#DejaVuSans-64" x="165.673828"/>
      <use xlink:href="#DejaVuSans-69" x="229.150391"/>
      <use xlink:href="#DejaVuSans-7a" x="256.933594"/>
      <use xlink:href="#DejaVuSans-65" x="309.423828"/>
      <use xlink:href="#DejaVuSans-64" x="370.947266"/>
     </g>
    </g>
    <g id="line2d_17">
     <path d="M 366.359688 53.254687 
L 376.359688 53.254687 
L 386.359688 53.254687 
" style="fill: none; stroke: #f99752; stroke-width: 2.5; stroke-linecap: square"/>
    </g>
    <g id="text_16">
     <!-- Cu$^{+}$ -->
     <g transform="translate(394.359688 56.754687) scale(0.1 -0.1)">
      <defs>
       <path id="DejaVuSans-2b" d="M 2944 4013 
L 2944 2272 
L 4684 2272 
L 4684 1741 
L 2944 1741 
L 2944 0 
L 2419 0 
L 2419 1741 
L 678 1741 
L 678 2272 
L 2419 2272 
L 2419 4013 
L 2944 4013 
z
" transform="scale(0.015625)"/>
      </defs>
      <use xlink:href="#DejaVuSans-43" transform="translate(0 0.826562)"/>
      <use xlink:href="#DejaVuSans-75" transform="translate(69.824219 0.826562)"/>
      <use xlink:href="#DejaVuSans-2b" transform="translate(134.160156 39.107812) scale(0.7)"/>
     </g>
    </g>
   </g>
  </g>
 </g>
 <defs>
  <clipPath id="p531f173f50">
   <rect x="38.27" y="10.8" width="408.535" height="292.0525"/>
  </clipPath>
 </defs>
</svg>
