<?xml version="1.0" encoding="utf-8" standalone="no"?>
<!DOCTYPE svg PUBLIC "-//W3C//DTD SVG 1.1//EN"
  "http://www.w3.org/Graphics/SVG/1.1/DTD/svg11.dtd">
<svg xmlns:xlink="http://www.w3.org/1999/xlink" width="460.8pt" height="345.6pt" viewBox="0 0 460.8 345.6" xmlns="http://www.w3.org/2000/svg" version="1.1">
 <metadata>
  <rdf:RDF xmlns:dc="http://purl.org/dc/elements/1.1/" xmlns:cc="http://creativecommons.org/ns#" xmlns:rdf="http://www.w3.org/1999/02/22-rdf-syntax-ns#">
   <cc:Work>
    <dc:type rdf:resource="http://purl.org/dc/dcmitype/StillImage"/>
    <dc:date>2024-07-07T13:53:59.566592</dc:date>
    <dc:format>image/svg+xml</dc:format>
    <dc:creator>
     <cc:Agent>
      <dc:title>Matplotlib v3.8.4, https://matplotlib.org/</dc:title>
     </cc:Agent>
    </dc:creator>
   </cc:Work>
  </rdf:RDF>
 </metadata>
 <defs>
  <style type="text/css">*{stroke-linejoin: round; stroke-linecap: butt}</style>
 </defs>
 <g id="figure_1">
  <g id="patch_1">
   <path d="M 0 345.6 
L 460.8 345.6 
L 460.8 0 
L 0 0 
z
" style="fill: #ffffff"/>
  </g>
  <g id="axes_1">
   <g id="patch_2">
    <path d="M 60.662 299.968 
L 445.032 299.968 
L 445.032 12.96 
L 60.662 12.96 
z
" style="fill: #ffffff"/>
   </g>
   <g id="line2d_1">
    <path d="M 60.662 299.967866 
L 85.671059 299.865859 
L 89.903361 299.635072 
L 92.596645 299.285098 
L 94.520418 298.850516 
L 96.444192 298.173973 
L 97.983211 297.385817 
L 99.52223 296.300854 
L 100.676494 295.239961 
L 101.830759 293.919643 
L 102.985023 292.29151 
L 104.139287 290.302363 
L 105.293552 287.894811 
L 106.447816 285.008241 
L 107.60208 281.580144 
L 108.756344 277.547829 
L 109.910609 272.850512 
L 111.449628 265.456385 
L 112.988647 256.667623 
L 114.527666 246.406202 
L 116.066685 234.641704 
L 117.990458 217.873415 
L 119.914232 199.019715 
L 122.222761 174.22166 
L 129.533101 93.745707 
L 131.07212 79.707848 
L 132.611139 67.789798 
L 133.765403 60.49993 
L 134.919668 54.792653 
L 135.689177 51.92773 
L 136.458687 49.847583 
L 137.228196 48.572297 
L 137.612951 48.240705 
L 137.997706 48.114442 
L 138.38246 48.19387 
L 138.767215 48.478862 
L 139.15197 48.968802 
L 139.921479 50.558626 
L 140.690989 52.948735 
L 141.460498 56.11699 
L 142.614763 62.262322 
L 143.769027 69.963701 
L 144.923291 79.063864 
L 146.46231 93.05541 
L 148.386084 112.845245 
L 151.464122 147.444431 
L 155.31167 190.487384 
L 157.620198 213.819859 
L 159.543972 231.045261 
L 161.082991 243.182741 
L 162.62201 253.809579 
L 164.161029 262.94719 
L 165.700048 270.667783 
L 167.239067 277.080934 
L 168.778086 282.320491 
L 169.93235 285.567802 
L 171.086615 288.300181 
L 172.240879 290.579414 
L 173.395143 292.464571 
L 174.549407 294.010896 
L 175.703672 295.269047 
L 177.242691 296.576455 
L 178.78171 297.546001 
L 180.320729 298.255649 
L 182.244503 298.87225 
L 184.553031 299.337429 
L 187.246314 299.64312 
L 191.093862 299.844353 
L 198.019447 299.944414 
L 225.72179 299.967035 
L 445.032 299.967866 
L 445.032 299.967866 
" clip-path="url(#p81ea1a8d28)" style="fill: none; stroke: #1e2e79; stroke-width: 2.5; stroke-linecap: square"/>
   </g>
   <g id="line2d_2">
    <path d="M 60.662 299.967957 
L 90.288116 299.864944 
L 94.905173 299.645379 
L 97.983211 299.275229 
L 100.29174 298.750411 
L 101.830759 298.208178 
L 103.369778 297.444191 
L 104.908797 296.381036 
L 106.063061 295.329483 
L 107.217325 294.005925 
L 108.37159 292.35367 
L 109.525854 290.308637 
L 110.680118 287.799707 
L 111.834382 284.749551 
L 112.988647 281.076016 
L 114.142911 276.694136 
L 115.297175 271.518832 
L 116.451439 265.468301 
L 117.605704 258.468068 
L 119.144723 247.551405 
L 120.683742 234.738447 
L 122.222761 220.006247 
L 124.146535 199.015204 
L 126.070308 175.547374 
L 129.148346 134.722538 
L 132.611139 89.054475 
L 134.534913 66.649786 
L 136.073932 51.49659 
L 137.228196 42.186885 
L 138.38246 34.903479 
L 139.15197 31.26806 
L 139.921479 28.659097 
L 140.690989 27.106348 
L 141.075744 26.731939 
L 141.460498 26.627048 
L 141.845253 26.791818 
L 142.230008 27.225587 
L 142.614763 27.926886 
L 143.384272 30.12224 
L 144.153782 33.350465 
L 144.923291 37.572217 
L 146.077556 45.654497 
L 147.23182 55.644502 
L 148.770839 71.489225 
L 150.694613 94.382214 
L 153.772651 134.782433 
L 157.235443 179.84 
L 159.543972 206.803863 
L 161.467746 226.459895 
L 163.006765 240.131879 
L 164.545784 251.948139 
L 166.084803 261.967022 
L 167.623822 270.307532 
L 169.162841 277.129398 
L 170.317105 281.358498 
L 171.471369 284.916087 
L 172.625634 287.881817 
L 173.779898 290.332414 
L 174.934162 292.33998 
L 176.088426 293.97084 
L 177.242691 295.284863 
L 178.396955 296.33517 
L 179.935974 297.404635 
L 181.474993 298.179426 
L 183.398767 298.84467 
L 185.322541 299.27391 
L 188.015824 299.623447 
L 191.863371 299.847637 
L 198.404202 299.950479 
L 223.413261 299.967999 
L 445.032 299.967957 
L 445.032 299.967957 
" clip-path="url(#p81ea1a8d28)" style="fill: none; stroke: #ec4067; stroke-width: 2.5; stroke-linecap: square"/>
   </g>
   <g id="matplotlib.axis_1">
    <g id="xtick_1">
     <g id="line2d_3">
      <defs>
       <path id="m076ae5de8f" d="M 0 0 
L 0 3.5 
" style="stroke: #c2c1c1; stroke-width: 0.8"/>
      </defs>
      <g>
       <use xlink:href="#m076ae5de8f" x="60.662" y="299.968" style="fill: #c2c1c1; stroke: #c2c1c1; stroke-width: 0.8"/>
      </g>
     </g>
     <g id="text_1">
      <!-- −180 -->
      <g style="fill: #191919" transform="translate(49.372937 314.468) scale(0.1 -0.1)">
       <defs>
        <path id="Roboto-Regular-2212" d="M 3134 2509 
L 3134 2034 
L 525 2034 
L 525 2509 
L 3134 2509 
z
" transform="scale(0.015625)"/>
        <path id="Roboto-Regular-31" d="M 2278 4575 
L 2278 0 
L 1700 0 
L 1700 3853 
L 534 3428 
L 534 3950 
L 2188 4575 
L 2278 4575 
z
" transform="scale(0.015625)"/>
        <path id="Roboto-Regular-38" d="M 3244 1231 
Q 3244 606 2826 271 
Q 2409 -63 1796 -63 
Q 1184 -63 767 271 
Q 350 606 350 1231 
Q 350 1613 554 1905 
Q 759 2197 1109 2347 
Q 806 2494 629 2762 
Q 453 3031 453 3366 
Q 453 3963 833 4288 
Q 1213 4613 1794 4613 
Q 2378 4613 2758 4288 
Q 3138 3963 3138 3366 
Q 3138 3028 2956 2761 
Q 2775 2494 2472 2347 
Q 2825 2197 3034 1903 
Q 3244 1609 3244 1231 
z
M 2559 3356 
Q 2559 3697 2346 3917 
Q 2134 4138 1793 4138 
Q 1453 4138 1243 3927 
Q 1034 3716 1034 3356 
Q 1034 3003 1243 2790 
Q 1453 2578 1797 2578 
Q 2138 2578 2348 2790 
Q 2559 3003 2559 3356 
z
M 2663 1244 
Q 2663 1625 2420 1865 
Q 2178 2106 1791 2106 
Q 1394 2106 1161 1865 
Q 928 1625 928 1244 
Q 928 850 1161 631 
Q 1394 413 1797 413 
Q 2200 413 2431 631 
Q 2663 850 2663 1244 
z
" transform="scale(0.015625)"/>
        <path id="Roboto-Regular-30" d="M 3234 1944 
Q 3234 825 2848 381 
Q 2463 -63 1800 -63 
Q 1156 -63 764 368 
Q 372 800 359 1872 
L 359 2638 
Q 359 3753 750 4183 
Q 1141 4613 1794 4613 
Q 2447 4613 2834 4195 
Q 3222 3778 3234 2709 
L 3234 1944 
z
M 2653 2734 
Q 2653 3503 2434 3822 
Q 2216 4141 1794 4141 
Q 1388 4141 1167 3831 
Q 947 3522 941 2778 
L 941 1850 
Q 941 1088 1164 750 
Q 1388 413 1800 413 
Q 2222 413 2436 745 
Q 2650 1078 2653 1825 
L 2653 2734 
z
" transform="scale(0.015625)"/>
       </defs>
       <use xlink:href="#Roboto-Regular-2212"/>
       <use xlink:href="#Roboto-Regular-31" x="57.177734"/>
       <use xlink:href="#Roboto-Regular-38" x="113.378906"/>
       <use xlink:href="#Roboto-Regular-30" x="169.580078"/>
      </g>
     </g>
    </g>
    <g id="xtick_2">
     <g id="line2d_4">
      <g>
       <use xlink:href="#m076ae5de8f" x="124.723667" y="299.968" style="fill: #c2c1c1; stroke: #c2c1c1; stroke-width: 0.8"/>
      </g>
     </g>
     <g id="text_2">
      <!-- −120 -->
      <g style="fill: #191919" transform="translate(113.434604 314.468) scale(0.1 -0.1)">
       <defs>
        <path id="Roboto-Regular-32" d="M 3359 475 
L 3359 0 
L 381 0 
L 381 416 
L 1925 2134 
Q 2306 2566 2439 2819 
Q 2572 3072 2572 3328 
Q 2572 3663 2364 3900 
Q 2156 4138 1778 4138 
Q 1322 4138 1097 3878 
Q 872 3619 872 3213 
L 294 3213 
Q 294 3788 672 4200 
Q 1050 4613 1778 4613 
Q 2422 4613 2786 4278 
Q 3150 3944 3150 3397 
Q 3150 2997 2903 2592 
Q 2656 2188 2297 1797 
L 1078 475 
L 3359 475 
z
" transform="scale(0.015625)"/>
       </defs>
       <use xlink:href="#Roboto-Regular-2212"/>
       <use xlink:href="#Roboto-Regular-31" x="57.177734"/>
       <use xlink:href="#Roboto-Regular-32" x="113.378906"/>
       <use xlink:href="#Roboto-Regular-30" x="169.580078"/>
      </g>
     </g>
    </g>
    <g id="xtick_3">
     <g id="line2d_5">
      <g>
       <use xlink:href="#m076ae5de8f" x="188.785333" y="299.968" style="fill: #c2c1c1; stroke: #c2c1c1; stroke-width: 0.8"/>
      </g>
     </g>
     <g id="text_3">
      <!-- −60 -->
      <g style="fill: #191919" transform="translate(180.306427 314.468) scale(0.1 -0.1)">
       <defs>
        <path id="Roboto-Regular-36" d="M 3291 1484 
Q 3291 838 2930 387 
Q 2569 -63 1878 -63 
Q 1388 -63 1063 198 
Q 738 459 577 861 
Q 416 1263 416 1684 
L 416 1956 
Q 416 2597 595 3194 
Q 775 3791 1247 4173 
Q 1719 4556 2597 4556 
L 2647 4556 
L 2647 4066 
Q 2041 4066 1705 3853 
Q 1369 3641 1205 3302 
Q 1041 2963 1006 2575 
Q 1369 2984 1984 2984 
Q 2438 2984 2727 2765 
Q 3016 2547 3153 2201 
Q 3291 1856 3291 1484 
z
M 997 1666 
Q 997 1059 1267 737 
Q 1538 416 1878 416 
Q 2278 416 2498 708 
Q 2719 1000 2719 1456 
Q 2719 1863 2516 2184 
Q 2313 2506 1891 2506 
Q 1588 2506 1341 2325 
Q 1094 2144 997 1884 
L 997 1666 
z
" transform="scale(0.015625)"/>
       </defs>
       <use xlink:href="#Roboto-Regular-2212"/>
       <use xlink:href="#Roboto-Regular-36" x="57.177734"/>
       <use xlink:href="#Roboto-Regular-30" x="113.378906"/>
      </g>
     </g>
    </g>
    <g id="xtick_4">
     <g id="line2d_6">
      <g>
       <use xlink:href="#m076ae5de8f" x="252.847" y="299.968" style="fill: #c2c1c1; stroke: #c2c1c1; stroke-width: 0.8"/>
      </g>
     </g>
     <g id="text_4">
      <!-- 0 -->
      <g style="fill: #191919" transform="translate(250.036844 314.468) scale(0.1 -0.1)">
       <use xlink:href="#Roboto-Regular-30"/>
      </g>
     </g>
    </g>
    <g id="xtick_5">
     <g id="line2d_7">
      <g>
       <use xlink:href="#m076ae5de8f" x="316.908667" y="299.968" style="fill: #c2c1c1; stroke: #c2c1c1; stroke-width: 0.8"/>
      </g>
     </g>
     <g id="text_5">
      <!-- 60 -->
      <g style="fill: #191919" transform="translate(311.288354 314.468) scale(0.1 -0.1)">
       <use xlink:href="#Roboto-Regular-36"/>
       <use xlink:href="#Roboto-Regular-30" x="56.201172"/>
      </g>
     </g>
    </g>
    <g id="xtick_6">
     <g id="line2d_8">
      <g>
       <use xlink:href="#m076ae5de8f" x="380.970333" y="299.968" style="fill: #c2c1c1; stroke: #c2c1c1; stroke-width: 0.8"/>
      </g>
     </g>
     <g id="text_6">
      <!-- 120 -->
      <g style="fill: #191919" transform="translate(372.539865 314.468) scale(0.1 -0.1)">
       <use xlink:href="#Roboto-Regular-31"/>
       <use xlink:href="#Roboto-Regular-32" x="56.201172"/>
       <use xlink:href="#Roboto-Regular-30" x="112.402344"/>
      </g>
     </g>
    </g>
    <g id="xtick_7">
     <g id="line2d_9">
      <g>
       <use xlink:href="#m076ae5de8f" x="445.032" y="299.968" style="fill: #c2c1c1; stroke: #c2c1c1; stroke-width: 0.8"/>
      </g>
     </g>
     <g id="text_7">
      <!-- 180 -->
      <g style="fill: #191919" transform="translate(436.601531 314.468) scale(0.1 -0.1)">
       <use xlink:href="#Roboto-Regular-31"/>
       <use xlink:href="#Roboto-Regular-38" x="56.201172"/>
       <use xlink:href="#Roboto-Regular-30" x="112.402344"/>
      </g>
     </g>
    </g>
    <g id="text_8">
     <!-- THR203 O-C-CA-CB Dihedral [°] -->
     <g style="fill: #191919" transform="translate(165.562938 330.103) scale(0.12 -0.12)">
      <defs>
       <path id="Roboto-Black-54" d="M 116 3703 
L 116 4550 
L 3919 4550 
L 3919 3703 
L 2550 3703 
L 2550 0 
L 1453 0 
L 1453 3703 
L 116 3703 
z
" transform="scale(0.015625)"/>
       <path id="Roboto-Black-48" d="M 3056 0 
L 3056 1900 
L 1444 1900 
L 1444 0 
L 347 0 
L 347 4550 
L 1444 4550 
L 1444 2744 
L 3056 2744 
L 3056 4550 
L 4150 4550 
L 4150 0 
L 3056 0 
z
" transform="scale(0.015625)"/>
       <path id="Roboto-Black-52" d="M 2838 0 
L 2034 1606 
L 1444 1606 
L 1444 0 
L 347 0 
L 347 4550 
L 2138 4550 
Q 2925 4550 3392 4198 
Q 3859 3847 3859 3175 
Q 3859 2650 3642 2350 
Q 3425 2050 3066 1881 
L 4013 47 
L 4013 0 
L 2838 0 
z
M 1444 3703 
L 1444 2453 
L 2138 2453 
Q 2763 2453 2763 3075 
Q 2763 3694 2156 3703 
L 1444 3703 
z
" transform="scale(0.015625)"/>
       <path id="Roboto-Black-32" d="M 3456 813 
L 3456 0 
L 281 0 
L 281 688 
L 1744 2225 
Q 2284 2847 2284 3203 
Q 2284 3803 1784 3803 
Q 1538 3803 1391 3598 
Q 1244 3394 1244 3088 
L 188 3088 
Q 188 3716 636 4166 
Q 1084 4616 1809 4616 
Q 2563 4616 2952 4267 
Q 3341 3919 3341 3297 
Q 3341 2822 3052 2409 
Q 2763 1997 2250 1491 
L 1663 813 
L 3456 813 
z
" transform="scale(0.015625)"/>
       <path id="Roboto-Black-30" d="M 3441 1859 
Q 3441 875 3000 406 
Q 2559 -63 1859 -63 
Q 1156 -63 712 406 
Q 269 875 269 1859 
L 269 2691 
Q 269 3675 709 4144 
Q 1150 4613 1853 4613 
Q 2553 4613 2997 4144 
Q 3441 3675 3441 2691 
L 3441 1859 
z
M 2388 2825 
Q 2388 3369 2244 3584 
Q 2100 3800 1853 3800 
Q 1609 3800 1467 3589 
Q 1325 3378 1322 2850 
L 1322 1731 
Q 1322 1178 1465 964 
Q 1609 750 1859 750 
Q 2100 750 2242 959 
Q 2384 1169 2388 1706 
L 2388 2825 
z
" transform="scale(0.015625)"/>
       <path id="Roboto-Black-33" d="M 1241 1931 
L 1241 2716 
L 1738 2716 
Q 2328 2716 2328 3294 
Q 2328 3497 2198 3650 
Q 2069 3803 1791 3803 
Q 1600 3803 1437 3690 
Q 1275 3578 1275 3378 
L 219 3378 
Q 219 3956 681 4286 
Q 1144 4616 1756 4616 
Q 2481 4616 2931 4284 
Q 3381 3953 3381 3316 
Q 3381 3006 3190 2747 
Q 3000 2488 2681 2338 
Q 3041 2206 3248 1939 
Q 3456 1672 3456 1278 
Q 3456 638 2968 287 
Q 2481 -63 1756 -63 
Q 1375 -63 1006 75 
Q 638 213 394 506 
Q 150 800 150 1266 
L 1206 1266 
Q 1206 1047 1379 898 
Q 1553 750 1791 750 
Q 2081 750 2240 909 
Q 2400 1069 2400 1300 
Q 2400 1644 2228 1787 
Q 2056 1931 1753 1931 
L 1241 1931 
z
" transform="scale(0.015625)"/>
       <path id="Roboto-Black-20" transform="scale(0.015625)"/>
       <path id="Roboto-Black-4f" d="M 4197 2181 
Q 4197 1138 3640 537 
Q 3084 -63 2213 -63 
Q 1334 -63 776 537 
Q 219 1138 219 2181 
L 219 2366 
Q 219 3409 773 4011 
Q 1328 4613 2206 4613 
Q 3078 4613 3637 4011 
Q 4197 3409 4197 2366 
L 4197 2181 
z
M 3084 2372 
Q 3084 3059 2865 3406 
Q 2647 3753 2206 3753 
Q 1388 3753 1338 2534 
L 1334 2181 
Q 1334 1513 1554 1153 
Q 1775 794 2213 794 
Q 2628 794 2854 1148 
Q 3081 1503 3084 2163 
L 3084 2372 
z
" transform="scale(0.015625)"/>
       <path id="Roboto-Black-2d" d="M 2353 2369 
L 2353 1553 
L 475 1553 
L 475 2369 
L 2353 2369 
z
" transform="scale(0.015625)"/>
       <path id="Roboto-Black-43" d="M 2934 1541 
L 4028 1541 
Q 3994 825 3491 381 
Q 2988 -63 2147 -63 
Q 1244 -63 737 518 
Q 231 1100 219 2100 
L 219 2397 
Q 219 3425 742 4020 
Q 1266 4616 2131 4616 
Q 3022 4616 3497 4152 
Q 3972 3688 4034 2978 
L 2941 2978 
Q 2928 3363 2748 3559 
Q 2569 3756 2131 3756 
Q 1728 3756 1531 3448 
Q 1334 3141 1331 2428 
L 1331 2150 
Q 1331 1425 1515 1111 
Q 1700 797 2147 797 
Q 2913 797 2934 1541 
z
" transform="scale(0.015625)"/>
       <path id="Roboto-Black-41" d="M -13 0 
L 1659 4550 
L 2694 4550 
L 4375 0 
L 3194 0 
L 2931 850 
L 1428 850 
L 1166 0 
L -13 0 
z
M 1691 1697 
L 2669 1697 
L 2178 3281 
L 1691 1697 
z
" transform="scale(0.015625)"/>
       <path id="Roboto-Black-42" d="M 3869 1347 
Q 3869 678 3448 342 
Q 3028 6 2191 0 
L 347 0 
L 347 4550 
L 1981 4550 
Q 2822 4550 3298 4240 
Q 3775 3931 3775 3294 
Q 3775 2984 3631 2720 
Q 3488 2456 3134 2322 
Q 3538 2219 3703 1939 
Q 3869 1659 3869 1347 
z
M 1444 3703 
L 1444 2653 
L 1975 2653 
Q 2356 2653 2517 2781 
Q 2678 2909 2678 3163 
Q 2678 3691 2013 3703 
L 1444 3703 
z
M 2778 1363 
Q 2778 1919 2241 1934 
L 1444 1934 
L 1444 844 
L 2159 844 
Q 2494 844 2636 995 
Q 2778 1147 2778 1363 
z
" transform="scale(0.015625)"/>
       <path id="Roboto-Black-44" d="M 347 0 
L 347 4550 
L 1809 4550 
Q 2425 4550 2901 4273 
Q 3378 3997 3648 3505 
Q 3919 3013 3919 2369 
L 3919 2178 
Q 3919 1219 3333 611 
Q 2747 3 1831 0 
L 347 0 
z
M 1444 3703 
L 1444 844 
L 1825 844 
Q 2744 844 2797 2028 
L 2800 2375 
Q 2800 3675 1850 3703 
L 1444 3703 
z
" transform="scale(0.015625)"/>
       <path id="Roboto-Black-69" d="M 291 4253 
Q 291 4478 453 4622 
Q 616 4766 875 4766 
Q 1134 4766 1296 4622 
Q 1459 4478 1459 4253 
Q 1459 4028 1296 3884 
Q 1134 3741 875 3741 
Q 616 3741 453 3884 
Q 291 4028 291 4253 
z
M 1409 3381 
L 1409 0 
L 353 0 
L 353 3381 
L 1409 3381 
z
" transform="scale(0.015625)"/>
       <path id="Roboto-Black-68" d="M 1784 2631 
Q 1466 2631 1328 2428 
L 1328 0 
L 275 0 
L 275 4800 
L 1328 4800 
L 1328 3022 
Q 1669 3444 2191 3444 
Q 2691 3444 3006 3144 
Q 3322 2844 3325 2116 
L 3325 0 
L 2266 0 
L 2266 2106 
Q 2266 2416 2139 2523 
Q 2013 2631 1784 2631 
z
" transform="scale(0.015625)"/>
       <path id="Roboto-Black-65" d="M 3266 531 
Q 3109 309 2765 123 
Q 2422 -63 1934 -63 
Q 1109 -63 651 421 
Q 194 906 191 1569 
L 191 1697 
Q 191 2438 600 2941 
Q 1009 3444 1822 3444 
Q 2541 3444 2948 2997 
Q 3356 2550 3356 1788 
L 3356 1359 
L 1266 1359 
Q 1322 1078 1512 914 
Q 1703 750 2003 750 
Q 2506 750 2788 1100 
L 3266 531 
z
M 1813 2631 
Q 1544 2631 1422 2457 
Q 1300 2284 1266 2019 
L 2328 2019 
L 2328 2100 
Q 2334 2631 1813 2631 
z
" transform="scale(0.015625)"/>
       <path id="Roboto-Black-64" d="M 2350 0 
L 2300 363 
Q 1969 -63 1475 -63 
Q 834 -63 501 420 
Q 169 903 166 1638 
L 166 1716 
Q 166 2488 500 2966 
Q 834 3444 1481 3444 
Q 1934 3444 2241 3091 
L 2241 4800 
L 3300 4800 
L 3300 0 
L 2350 0 
z
M 1219 1650 
Q 1219 1269 1330 1009 
Q 1441 750 1744 750 
Q 2094 750 2241 1041 
L 2241 2338 
Q 2100 2631 1750 2631 
Q 1456 2631 1337 2372 
Q 1219 2113 1219 1650 
z
" transform="scale(0.015625)"/>
       <path id="Roboto-Black-72" d="M 1994 2453 
Q 1500 2453 1359 2144 
L 1359 0 
L 306 0 
L 306 3381 
L 1291 3381 
L 1325 2950 
Q 1591 3444 2069 3444 
Q 2244 3444 2359 3406 
L 2341 2428 
L 1994 2453 
z
" transform="scale(0.015625)"/>
       <path id="Roboto-Black-61" d="M 2200 0 
Q 2141 122 2103 303 
Q 1813 -63 1291 -63 
Q 822 -63 483 220 
Q 144 503 144 953 
Q 144 1469 520 1764 
Q 897 2059 1694 2066 
L 2053 2066 
L 2053 2244 
Q 2053 2709 1650 2709 
Q 1275 2709 1275 2341 
L 222 2341 
Q 222 2813 625 3128 
Q 1028 3444 1706 3444 
Q 2309 3444 2711 3142 
Q 3113 2841 3113 2238 
L 3113 766 
Q 3119 306 3256 53 
L 3256 0 
L 2200 0 
z
M 1541 688 
Q 1734 688 1865 770 
Q 1997 853 2053 956 
L 2053 1503 
L 1722 1503 
Q 1425 1503 1311 1351 
Q 1197 1200 1197 1009 
Q 1197 866 1295 777 
Q 1394 688 1541 688 
z
" transform="scale(0.015625)"/>
       <path id="Roboto-Black-6c" d="M 1409 4800 
L 1409 0 
L 353 0 
L 353 4800 
L 1409 4800 
z
" transform="scale(0.015625)"/>
       <path id="Roboto-Black-5b" d="M 1766 5331 
L 1766 4563 
L 1397 4563 
L 1397 -325 
L 1766 -325 
L 1766 -1091 
L 338 -1091 
L 338 5331 
L 1766 5331 
z
" transform="scale(0.015625)"/>
       <path id="Roboto-Black-b0" d="M 394 3734 
Q 394 4094 651 4353 
Q 909 4613 1269 4613 
Q 1625 4613 1878 4353 
Q 2131 4094 2131 3734 
Q 2131 3375 1878 3122 
Q 1625 2869 1269 2869 
Q 909 2869 651 3122 
Q 394 3375 394 3734 
z
M 875 3734 
Q 875 3569 992 3458 
Q 1109 3347 1268 3347 
Q 1428 3347 1537 3456 
Q 1647 3566 1647 3734 
Q 1647 3906 1537 4020 
Q 1428 4134 1268 4134 
Q 1109 4134 992 4020 
Q 875 3906 875 3734 
z
" transform="scale(0.015625)"/>
       <path id="Roboto-Black-5d" d="M 44 4563 
L 44 5331 
L 1472 5331 
L 1472 -1091 
L 44 -1091 
L 44 -325 
L 419 -325 
L 419 4563 
L 44 4563 
z
" transform="scale(0.015625)"/>
      </defs>
      <use xlink:href="#Roboto-Black-54"/>
      <use xlink:href="#Roboto-Black-48" x="63.085938"/>
      <use xlink:href="#Roboto-Black-52" x="133.349609"/>
      <use xlink:href="#Roboto-Black-32" x="198.583984"/>
      <use xlink:href="#Roboto-Black-30" x="256.542969"/>
      <use xlink:href="#Roboto-Black-33" x="314.501953"/>
      <use xlink:href="#Roboto-Black-20" x="372.460938"/>
      <use xlink:href="#Roboto-Black-4f" x="397.363281"/>
      <use xlink:href="#Roboto-Black-2d" x="466.40625"/>
      <use xlink:href="#Roboto-Black-43" x="511.376953"/>
      <use xlink:href="#Roboto-Black-2d" x="577.001953"/>
      <use xlink:href="#Roboto-Black-43" x="621.972656"/>
      <use xlink:href="#Roboto-Black-41" x="687.597656"/>
      <use xlink:href="#Roboto-Black-2d" x="755.712891"/>
      <use xlink:href="#Roboto-Black-43" x="800.683594"/>
      <use xlink:href="#Roboto-Black-42" x="866.308594"/>
      <use xlink:href="#Roboto-Black-20" x="930.859375"/>
      <use xlink:href="#Roboto-Black-44" x="955.761719"/>
      <use xlink:href="#Roboto-Black-69" x="1020.458984"/>
      <use xlink:href="#Roboto-Black-68" x="1047.949219"/>
      <use xlink:href="#Roboto-Black-65" x="1104.394531"/>
      <use xlink:href="#Roboto-Black-64" x="1158.886719"/>
      <use xlink:href="#Roboto-Black-72" x="1215.136719"/>
      <use xlink:href="#Roboto-Black-61" x="1253.027344"/>
      <use xlink:href="#Roboto-Black-6c" x="1306.152344"/>
      <use xlink:href="#Roboto-Black-20" x="1333.642578"/>
      <use xlink:href="#Roboto-Black-5b" x="1358.544922"/>
      <use xlink:href="#Roboto-Black-b0" x="1386.767578"/>
      <use xlink:href="#Roboto-Black-5d" x="1426.513672"/>
     </g>
    </g>
   </g>
   <g id="matplotlib.axis_2">
    <g id="ytick_1">
     <g id="line2d_10">
      <defs>
       <path id="m2a14666503" d="M 0 0 
L -3.5 0 
" style="stroke: #c2c1c1; stroke-width: 0.8"/>
      </defs>
      <g>
       <use xlink:href="#m2a14666503" x="60.662" y="299.968" style="fill: #c2c1c1; stroke: #c2c1c1; stroke-width: 0.8"/>
      </g>
     </g>
     <g id="text_9">
      <!-- 0.000 -->
      <g style="fill: #191919" transform="translate(28.54325 303.718) scale(0.1 -0.1)">
       <defs>
        <path id="Roboto-Regular-2e" d="M 450 306 
Q 450 453 542 554 
Q 634 656 809 656 
Q 984 656 1076 554 
Q 1169 453 1169 306 
Q 1169 163 1076 62 
Q 984 -38 809 -38 
Q 634 -38 542 62 
Q 450 163 450 306 
z
" transform="scale(0.015625)"/>
       </defs>
       <use xlink:href="#Roboto-Regular-30"/>
       <use xlink:href="#Roboto-Regular-2e" x="56.201172"/>
       <use xlink:href="#Roboto-Regular-30" x="82.568359"/>
       <use xlink:href="#Roboto-Regular-30" x="138.769531"/>
       <use xlink:href="#Roboto-Regular-30" x="194.970703"/>
      </g>
     </g>
    </g>
    <g id="ytick_2">
     <g id="line2d_11">
      <g>
       <use xlink:href="#m2a14666503" x="60.662" y="260.4285" style="fill: #c2c1c1; stroke: #c2c1c1; stroke-width: 0.8"/>
      </g>
     </g>
     <g id="text_10">
      <!-- 0.005 -->
      <g style="fill: #191919" transform="translate(28.54325 264.1785) scale(0.1 -0.1)">
       <defs>
        <path id="Roboto-Regular-35" d="M 1109 2166 
L 647 2284 
L 875 4550 
L 3209 4550 
L 3209 4016 
L 1366 4016 
L 1228 2778 
Q 1572 2975 1988 2975 
Q 2616 2975 2980 2561 
Q 3344 2147 3344 1450 
Q 3344 797 2987 367 
Q 2631 -63 1903 -63 
Q 1350 -63 947 248 
Q 544 559 481 1197 
L 1031 1197 
Q 1141 413 1903 413 
Q 2313 413 2538 691 
Q 2763 969 2763 1444 
Q 2763 1872 2527 2164 
Q 2291 2456 1853 2456 
Q 1563 2456 1413 2378 
Q 1263 2300 1109 2166 
z
" transform="scale(0.015625)"/>
       </defs>
       <use xlink:href="#Roboto-Regular-30"/>
       <use xlink:href="#Roboto-Regular-2e" x="56.201172"/>
       <use xlink:href="#Roboto-Regular-30" x="82.568359"/>
       <use xlink:href="#Roboto-Regular-30" x="138.769531"/>
       <use xlink:href="#Roboto-Regular-35" x="194.970703"/>
      </g>
     </g>
    </g>
    <g id="ytick_3">
     <g id="line2d_12">
      <g>
       <use xlink:href="#m2a14666503" x="60.662" y="220.888999" style="fill: #c2c1c1; stroke: #c2c1c1; stroke-width: 0.8"/>
      </g>
     </g>
     <g id="text_11">
      <!-- 0.010 -->
      <g style="fill: #191919" transform="translate(28.54325 224.638999) scale(0.1 -0.1)">
       <use xlink:href="#Roboto-Regular-30"/>
       <use xlink:href="#Roboto-Regular-2e" x="56.201172"/>
       <use xlink:href="#Roboto-Regular-30" x="82.568359"/>
       <use xlink:href="#Roboto-Regular-31" x="138.769531"/>
       <use xlink:href="#Roboto-Regular-30" x="194.970703"/>
      </g>
     </g>
    </g>
    <g id="ytick_4">
     <g id="line2d_13">
      <g>
       <use xlink:href="#m2a14666503" x="60.662" y="181.349499" style="fill: #c2c1c1; stroke: #c2c1c1; stroke-width: 0.8"/>
      </g>
     </g>
     <g id="text_12">
      <!-- 0.015 -->
      <g style="fill: #191919" transform="translate(28.54325 185.099499) scale(0.1 -0.1)">
       <use xlink:href="#Roboto-Regular-30"/>
       <use xlink:href="#Roboto-Regular-2e" x="56.201172"/>
       <use xlink:href="#Roboto-Regular-30" x="82.568359"/>
       <use xlink:href="#Roboto-Regular-31" x="138.769531"/>
       <use xlink:href="#Roboto-Regular-35" x="194.970703"/>
      </g>
     </g>
    </g>
    <g id="ytick_5">
     <g id="line2d_14">
      <g>
       <use xlink:href="#m2a14666503" x="60.662" y="141.809999" style="fill: #c2c1c1; stroke: #c2c1c1; stroke-width: 0.8"/>
      </g>
     </g>
     <g id="text_13">
      <!-- 0.020 -->
      <g style="fill: #191919" transform="translate(28.54325 145.559999) scale(0.1 -0.1)">
       <use xlink:href="#Roboto-Regular-30"/>
       <use xlink:href="#Roboto-Regular-2e" x="56.201172"/>
       <use xlink:href="#Roboto-Regular-30" x="82.568359"/>
       <use xlink:href="#Roboto-Regular-32" x="138.769531"/>
       <use xlink:href="#Roboto-Regular-30" x="194.970703"/>
      </g>
     </g>
    </g>
    <g id="ytick_6">
     <g id="line2d_15">
      <g>
       <use xlink:href="#m2a14666503" x="60.662" y="102.270498" style="fill: #c2c1c1; stroke: #c2c1c1; stroke-width: 0.8"/>
      </g>
     </g>
     <g id="text_14">
      <!-- 0.025 -->
      <g style="fill: #191919" transform="translate(28.54325 106.020498) scale(0.1 -0.1)">
       <use xlink:href="#Roboto-Regular-30"/>
       <use xlink:href="#Roboto-Regular-2e" x="56.201172"/>
       <use xlink:href="#Roboto-Regular-30" x="82.568359"/>
       <use xlink:href="#Roboto-Regular-32" x="138.769531"/>
       <use xlink:href="#Roboto-Regular-35" x="194.970703"/>
      </g>
     </g>
    </g>
    <g id="ytick_7">
     <g id="line2d_16">
      <g>
       <use xlink:href="#m2a14666503" x="60.662" y="62.730998" style="fill: #c2c1c1; stroke: #c2c1c1; stroke-width: 0.8"/>
      </g>
     </g>
     <g id="text_15">
      <!-- 0.030 -->
      <g style="fill: #191919" transform="translate(28.54325 66.480998) scale(0.1 -0.1)">
       <defs>
        <path id="Roboto-Regular-33" d="M 1222 2084 
L 1222 2559 
L 1647 2559 
Q 2094 2563 2312 2784 
Q 2531 3006 2531 3338 
Q 2531 4138 1738 4138 
Q 1369 4138 1141 3927 
Q 913 3716 913 3359 
L 334 3359 
Q 334 3881 720 4247 
Q 1106 4613 1738 4613 
Q 2353 4613 2733 4286 
Q 3113 3959 3113 3325 
Q 3113 3072 2942 2784 
Q 2772 2497 2397 2338 
Q 2850 2191 3015 1884 
Q 3181 1578 3181 1269 
Q 3181 631 2768 284 
Q 2356 -63 1741 -63 
Q 1147 -63 722 267 
Q 297 597 297 1203 
L 875 1203 
Q 875 844 1108 628 
Q 1341 413 1741 413 
Q 2138 413 2369 622 
Q 2600 831 2600 1256 
Q 2600 1681 2337 1882 
Q 2075 2084 1634 2084 
L 1222 2084 
z
" transform="scale(0.015625)"/>
       </defs>
       <use xlink:href="#Roboto-Regular-30"/>
       <use xlink:href="#Roboto-Regular-2e" x="56.201172"/>
       <use xlink:href="#Roboto-Regular-30" x="82.568359"/>
       <use xlink:href="#Roboto-Regular-33" x="138.769531"/>
       <use xlink:href="#Roboto-Regular-30" x="194.970703"/>
      </g>
     </g>
    </g>
    <g id="ytick_8">
     <g id="line2d_17">
      <g>
       <use xlink:href="#m2a14666503" x="60.662" y="23.191498" style="fill: #c2c1c1; stroke: #c2c1c1; stroke-width: 0.8"/>
      </g>
     </g>
     <g id="text_16">
      <!-- 0.035 -->
      <g style="fill: #191919" transform="translate(28.54325 26.941498) scale(0.1 -0.1)">
       <use xlink:href="#Roboto-Regular-30"/>
       <use xlink:href="#Roboto-Regular-2e" x="56.201172"/>
       <use xlink:href="#Roboto-Regular-30" x="82.568359"/>
       <use xlink:href="#Roboto-Regular-33" x="138.769531"/>
       <use xlink:href="#Roboto-Regular-35" x="194.970703"/>
      </g>
     </g>
    </g>
    <g id="text_17">
     <!-- Density -->
     <g style="fill: #191919" transform="translate(21.982 176.899625) rotate(-90) scale(0.12 -0.12)">
      <defs>
       <path id="Roboto-Black-6e" d="M 1788 2631 
Q 1478 2631 1331 2391 
L 1331 0 
L 278 0 
L 278 3381 
L 1266 3381 
L 1300 2988 
Q 1653 3444 2263 3444 
Q 2731 3444 3026 3156 
Q 3322 2869 3325 2144 
L 3325 0 
L 2266 0 
L 2266 2131 
Q 2266 2438 2141 2534 
Q 2016 2631 1788 2631 
z
" transform="scale(0.015625)"/>
       <path id="Roboto-Black-73" d="M 2069 950 
Q 2069 1084 1920 1167 
Q 1772 1250 1391 1334 
Q 897 1444 556 1689 
Q 216 1934 216 2375 
Q 216 2803 580 3123 
Q 944 3444 1609 3444 
Q 2291 3444 2689 3137 
Q 3088 2831 3088 2344 
L 2034 2344 
Q 2034 2750 1606 2750 
Q 1444 2750 1328 2662 
Q 1213 2575 1213 2428 
Q 1213 2166 1773 2059 
Q 2334 1953 2709 1728 
Q 3084 1503 3084 981 
Q 3084 534 2686 235 
Q 2288 -63 1606 -63 
Q 878 -63 495 306 
Q 113 675 113 1084 
L 1094 1084 
Q 1103 850 1251 742 
Q 1400 634 1634 634 
Q 2069 634 2069 950 
z
" transform="scale(0.015625)"/>
       <path id="Roboto-Black-74" d="M 2128 28 
Q 1850 -63 1534 -63 
Q 1025 -63 747 179 
Q 469 422 469 972 
L 469 2650 
L 41 2650 
L 41 3381 
L 469 3381 
L 469 4222 
L 1522 4222 
L 1522 3381 
L 2078 3381 
L 2078 2650 
L 1522 2650 
L 1522 1103 
Q 1522 900 1597 831 
Q 1672 763 1866 763 
Q 2019 763 2128 781 
L 2128 28 
z
" transform="scale(0.015625)"/>
       <path id="Roboto-Black-79" d="M 1981 -503 
Q 1925 -675 1811 -875 
Q 1697 -1075 1473 -1220 
Q 1250 -1366 866 -1366 
L 666 -1356 
L 428 -1303 
L 428 -550 
L 566 -550 
Q 819 -550 925 -475 
Q 1031 -400 1078 -256 
L 1166 -34 
L -16 3381 
L 1113 3381 
L 1650 1472 
L 2209 3381 
L 3341 3381 
L 1981 -503 
z
" transform="scale(0.015625)"/>
      </defs>
      <use xlink:href="#Roboto-Black-44"/>
      <use xlink:href="#Roboto-Black-65" x="64.697266"/>
      <use xlink:href="#Roboto-Black-6e" x="119.189453"/>
      <use xlink:href="#Roboto-Black-73" x="175.634766"/>
      <use xlink:href="#Roboto-Black-69" x="226.904297"/>
      <use xlink:href="#Roboto-Black-74" x="254.394531"/>
      <use xlink:href="#Roboto-Black-79" x="288.769531"/>
     </g>
    </g>
   </g>
   <g id="line2d_18">
    <path d="M 60.662 299.968 
L 94.520418 299.859724 
L 98.367966 299.626089 
L 101.061249 299.247547 
L 102.985023 298.777195 
L 104.524042 298.219479 
L 106.063061 297.440882 
L 107.60208 296.372765 
L 108.756344 295.33275 
L 109.910609 294.044282 
L 111.064873 292.46374 
L 112.219137 290.54404 
L 113.373401 288.235412 
L 114.527666 285.486448 
L 115.68193 282.245427 
L 116.836194 278.461896 
L 118.375213 272.492057 
L 119.914232 265.376575 
L 121.453251 257.04244 
L 122.99227 247.449593 
L 124.531289 236.598539 
L 126.455063 221.342098 
L 128.763592 200.838549 
L 131.456875 174.670658 
L 137.997706 110.041629 
L 139.921479 93.65017 
L 141.460498 82.302526 
L 142.614763 75.052598 
L 143.769027 69.032988 
L 144.923291 64.36161 
L 145.692801 62.045947 
L 146.46231 60.397465 
L 147.23182 59.434919 
L 147.616575 59.215289 
L 148.001329 59.171749 
L 148.386084 59.305095 
L 148.770839 59.615753 
L 149.540348 60.768828 
L 150.309858 62.626786 
L 151.079367 65.179258 
L 151.848877 68.409682 
L 153.003141 74.475288 
L 154.157405 81.912831 
L 155.696424 93.73811 
L 157.235443 107.402676 
L 159.159217 126.419765 
L 162.62201 163.355305 
L 166.084803 199.520455 
L 168.393331 221.215575 
L 170.317105 237.162942 
L 171.856124 248.361684 
L 173.395143 258.137477 
L 174.934162 266.518303 
L 176.473181 273.578211 
L 178.0122 279.424669 
L 179.551219 284.186311 
L 180.705483 287.129032 
L 181.859748 289.598925 
L 183.014012 291.653843 
L 184.168276 293.34884 
L 185.322541 294.735184 
L 186.86156 296.183787 
L 188.400579 297.264141 
L 189.939598 298.058651 
L 191.863371 298.751718 
L 193.787145 299.206465 
L 196.480428 299.583433 
L 199.943221 299.815242 
L 205.714543 299.938469 
L 222.643752 299.9679 
L 445.032 299.968 
L 445.032 299.968 
" clip-path="url(#p81ea1a8d28)" style="fill: none; stroke: #f99752; stroke-width: 2.5; stroke-linecap: square"/>
   </g>
   <g id="patch_3">
    <path d="M 60.662 299.968 
L 60.662 12.96 
" style="fill: none; stroke: #c2c1c1; stroke-width: 0.8; stroke-linejoin: miter; stroke-linecap: square"/>
   </g>
   <g id="patch_4">
    <path d="M 445.032 299.968 
L 445.032 12.96 
" style="fill: none; stroke: #c2c1c1; stroke-width: 0.8; stroke-linejoin: miter; stroke-linecap: square"/>
   </g>
   <g id="patch_5">
    <path d="M 60.662 299.968 
L 445.032 299.968 
" style="fill: none; stroke: #c2c1c1; stroke-width: 0.8; stroke-linejoin: miter; stroke-linecap: square"/>
   </g>
   <g id="patch_6">
    <path d="M 60.662 12.96 
L 445.032 12.96 
" style="fill: none; stroke: #c2c1c1; stroke-width: 0.8; stroke-linejoin: miter; stroke-linecap: square"/>
   </g>
   <g id="legend_1">
    <g id="line2d_19">
     <path d="M 354.0795 28.56 
L 366.0795 28.56 
L 378.0795 28.56 
" style="fill: none; stroke: #1e2e79; stroke-width: 2.5; stroke-linecap: square"/>
    </g>
    <g id="text_18">
     <!-- Reduced -->
     <g transform="translate(387.6795 32.76) scale(0.12 -0.12)">
      <defs>
       <path id="Roboto-Regular-52" d="M 3188 0 
L 2200 1844 
L 1131 1844 
L 1131 0 
L 528 0 
L 528 4550 
L 2034 4550 
Q 2800 4550 3214 4200 
Q 3628 3850 3628 3184 
Q 3628 2759 3398 2442 
Q 3169 2125 2763 1969 
L 3831 38 
L 3831 0 
L 3188 0 
z
M 1131 4056 
L 1131 2334 
L 2053 2334 
Q 2538 2334 2783 2582 
Q 3028 2831 3028 3184 
Q 3028 3578 2792 3817 
Q 2556 4056 2034 4056 
L 1131 4056 
z
" transform="scale(0.015625)"/>
       <path id="Roboto-Regular-65" d="M 3116 591 
Q 2950 341 2647 139 
Q 2344 -63 1844 -63 
Q 1138 -63 714 396 
Q 291 856 291 1572 
L 291 1703 
Q 291 2256 502 2645 
Q 713 3034 1050 3239 
Q 1388 3444 1769 3444 
Q 2494 3444 2826 2970 
Q 3159 2497 3159 1788 
L 3159 1528 
L 872 1528 
Q 884 1063 1148 736 
Q 1413 409 1875 409 
Q 2181 409 2393 534 
Q 2606 659 2766 869 
L 3116 591 
z
M 1769 2969 
Q 1425 2969 1187 2719 
Q 950 2469 891 2000 
L 2581 2000 
L 2581 2044 
Q 2559 2381 2386 2675 
Q 2213 2969 1769 2969 
z
" transform="scale(0.015625)"/>
       <path id="Roboto-Regular-64" d="M 2622 0 
L 2594 363 
Q 2247 -63 1628 -63 
Q 1034 -63 668 418 
Q 303 900 297 1628 
L 297 1719 
Q 297 2494 664 2969 
Q 1031 3444 1634 3444 
Q 2231 3444 2572 3044 
L 2572 4800 
L 3153 4800 
L 3153 0 
L 2622 0 
z
M 878 1653 
Q 878 1150 1090 789 
Q 1303 428 1772 428 
Q 2309 428 2572 919 
L 2572 2475 
Q 2313 2956 1778 2956 
Q 1306 2956 1092 2589 
Q 878 2222 878 1719 
L 878 1653 
z
" transform="scale(0.015625)"/>
       <path id="Roboto-Regular-75" d="M 2538 0 
L 2525 334 
Q 2194 -63 1538 -63 
Q 1041 -63 734 231 
Q 428 525 428 1200 
L 428 3381 
L 1006 3381 
L 1006 1194 
Q 1006 738 1198 583 
Q 1391 428 1628 428 
Q 2281 428 2509 919 
L 2509 3381 
L 3091 3381 
L 3091 0 
L 2538 0 
z
" transform="scale(0.015625)"/>
       <path id="Roboto-Regular-63" d="M 1794 413 
Q 2103 413 2336 597 
Q 2569 781 2591 1069 
L 3141 1069 
Q 3119 616 2725 276 
Q 2331 -63 1794 -63 
Q 1031 -63 661 440 
Q 291 944 291 1625 
L 291 1756 
Q 291 2438 661 2941 
Q 1031 3444 1794 3444 
Q 2388 3444 2753 3092 
Q 3119 2741 3141 2219 
L 2591 2219 
Q 2569 2531 2355 2750 
Q 2141 2969 1794 2969 
Q 1438 2969 1236 2787 
Q 1034 2606 951 2328 
Q 869 2050 869 1756 
L 869 1625 
Q 869 1328 950 1050 
Q 1031 772 1232 592 
Q 1434 413 1794 413 
z
" transform="scale(0.015625)"/>
      </defs>
      <use xlink:href="#Roboto-Regular-52"/>
      <use xlink:href="#Roboto-Regular-65" x="61.621094"/>
      <use xlink:href="#Roboto-Regular-64" x="114.648438"/>
      <use xlink:href="#Roboto-Regular-75" x="171.044922"/>
      <use xlink:href="#Roboto-Regular-63" x="226.171875"/>
      <use xlink:href="#Roboto-Regular-65" x="278.515625"/>
      <use xlink:href="#Roboto-Regular-64" x="331.542969"/>
     </g>
    </g>
    <g id="line2d_20">
     <path d="M 354.0795 45.9975 
L 366.0795 45.9975 
L 378.0795 45.9975 
" style="fill: none; stroke: #ec4067; stroke-width: 2.5; stroke-linecap: square"/>
    </g>
    <g id="text_19">
     <!-- Oxidized -->
     <g transform="translate(387.6795 50.1975) scale(0.12 -0.12)">
      <defs>
       <path id="Roboto-Regular-4f" d="M 4031 2131 
Q 4031 1106 3534 521 
Q 3038 -63 2206 -63 
Q 1397 -63 884 521 
Q 372 1106 372 2131 
L 372 2419 
Q 372 3441 881 4027 
Q 1391 4613 2200 4613 
Q 3025 4613 3523 4036 
Q 4022 3459 4031 2456 
L 4031 2131 
z
M 3434 2425 
Q 3434 3238 3109 3669 
Q 2784 4100 2200 4100 
Q 1641 4100 1305 3669 
Q 969 3238 969 2425 
L 969 2131 
Q 969 1313 1308 880 
Q 1647 447 2206 447 
Q 2794 447 3114 880 
Q 3434 1313 3434 2131 
L 3434 2425 
z
" transform="scale(0.015625)"/>
       <path id="Roboto-Regular-78" d="M 831 3381 
L 1572 2150 
L 2322 3381 
L 3000 3381 
L 1894 1713 
L 3034 0 
L 2366 0 
L 1584 1269 
L 803 0 
L 131 0 
L 1269 1713 
L 166 3381 
L 831 3381 
z
" transform="scale(0.015625)"/>
       <path id="Roboto-Regular-69" d="M 444 4278 
Q 444 4419 530 4516 
Q 616 4613 784 4613 
Q 950 4613 1039 4516 
Q 1128 4419 1128 4278 
Q 1128 4144 1039 4048 
Q 950 3953 784 3953 
Q 616 3953 530 4048 
Q 444 4144 444 4278 
z
M 1069 3381 
L 1069 0 
L 488 0 
L 488 3381 
L 1069 3381 
z
" transform="scale(0.015625)"/>
       <path id="Roboto-Regular-7a" d="M 303 2903 
L 303 3381 
L 2869 3381 
L 2869 2972 
L 988 475 
L 2959 475 
L 2959 0 
L 278 0 
L 278 425 
L 2141 2903 
L 303 2903 
z
" transform="scale(0.015625)"/>
      </defs>
      <use xlink:href="#Roboto-Regular-4f"/>
      <use xlink:href="#Roboto-Regular-78" x="68.798828"/>
      <use xlink:href="#Roboto-Regular-69" x="118.408203"/>
      <use xlink:href="#Roboto-Regular-64" x="142.724609"/>
      <use xlink:href="#Roboto-Regular-69" x="199.121094"/>
      <use xlink:href="#Roboto-Regular-7a" x="223.4375"/>
      <use xlink:href="#Roboto-Regular-65" x="273.046875"/>
      <use xlink:href="#Roboto-Regular-64" x="326.074219"/>
     </g>
    </g>
    <g id="line2d_21">
     <path d="M 354.0795 64.06125 
L 366.0795 64.06125 
L 378.0795 64.06125 
" style="fill: none; stroke: #f99752; stroke-width: 2.5; stroke-linecap: square"/>
    </g>
    <g id="text_20">
     <!-- Cu(I) -->
     <g transform="translate(387.6795 68.26125) scale(0.12 -0.12)">
      <defs>
       <path id="Roboto-Regular-43" d="M 3275 1447 
L 3875 1447 
Q 3806 800 3387 368 
Q 2969 -63 2150 -63 
Q 1356 -63 870 504 
Q 384 1072 375 2013 
L 375 2500 
Q 375 3456 867 4034 
Q 1359 4613 2203 4613 
Q 2975 4613 3390 4188 
Q 3806 3763 3875 3091 
L 3275 3091 
Q 3206 3566 2968 3842 
Q 2731 4119 2203 4119 
Q 1600 4119 1287 3675 
Q 975 3231 975 2506 
L 975 2047 
Q 975 1375 1259 901 
Q 1544 428 2150 428 
Q 2725 428 2961 697 
Q 3197 966 3275 1447 
z
" transform="scale(0.015625)"/>
       <path id="Roboto-Regular-28" d="M 419 1850 
Q 419 2756 678 3434 
Q 938 4113 1294 4541 
Q 1650 4969 1947 5134 
L 2069 4753 
Q 1700 4475 1348 3761 
Q 997 3047 997 1813 
Q 997 625 1348 -97 
Q 1700 -819 2069 -1119 
L 1947 -1469 
Q 1650 -1306 1294 -878 
Q 938 -450 678 226 
Q 419 903 419 1850 
z
" transform="scale(0.015625)"/>
       <path id="Roboto-Regular-49" d="M 1175 4550 
L 1175 0 
L 572 0 
L 572 4550 
L 1175 4550 
z
" transform="scale(0.015625)"/>
       <path id="Roboto-Regular-29" d="M 1772 1819 
Q 1772 906 1512 228 
Q 1253 -450 895 -878 
Q 538 -1306 244 -1469 
L 122 -1119 
Q 488 -841 841 -109 
Q 1194 622 1194 1856 
Q 1194 2647 1019 3236 
Q 844 3825 594 4212 
Q 344 4600 122 4781 
L 244 5134 
Q 538 4969 895 4541 
Q 1253 4113 1512 3436 
Q 1772 2759 1772 1819 
z
" transform="scale(0.015625)"/>
      </defs>
      <use xlink:href="#Roboto-Regular-43"/>
      <use xlink:href="#Roboto-Regular-75" x="65.087891"/>
      <use xlink:href="#Roboto-Regular-28" x="120.214844"/>
      <use xlink:href="#Roboto-Regular-49" x="154.443359"/>
      <use xlink:href="#Roboto-Regular-29" x="181.640625"/>
     </g>
    </g>
   </g>
  </g>
 </g>
 <defs>
  <clipPath id="p81ea1a8d28">
   <rect x="60.662" y="12.96" width="384.37" height="287.008"/>
  </clipPath>
 </defs>
</svg>
