<?xml version="1.0" encoding="utf-8" standalone="no"?>
<!DOCTYPE svg PUBLIC "-//W3C//DTD SVG 1.1//EN"
  "http://www.w3.org/Graphics/SVG/1.1/DTD/svg11.dtd">
<svg xmlns:xlink="http://www.w3.org/1999/xlink" width="460.8pt" height="345.6pt" viewBox="0 0 460.8 345.6" xmlns="http://www.w3.org/2000/svg" version="1.1">
 <metadata>
  <rdf:RDF xmlns:dc="http://purl.org/dc/elements/1.1/" xmlns:cc="http://creativecommons.org/ns#" xmlns:rdf="http://www.w3.org/1999/02/22-rdf-syntax-ns#">
   <cc:Work>
    <dc:type rdf:resource="http://purl.org/dc/dcmitype/StillImage"/>
    <dc:date>2024-06-20T23:20:00.048091</dc:date>
    <dc:format>image/svg+xml</dc:format>
    <dc:creator>
     <cc:Agent>
      <dc:title>Matplotlib v3.8.4, https://matplotlib.org/</dc:title>
     </cc:Agent>
    </dc:creator>
   </cc:Work>
  </rdf:RDF>
 </metadata>
 <defs>
  <style type="text/css">*{stroke-linejoin: round; stroke-linecap: butt}</style>
 </defs>
 <g id="figure_1">
  <g id="patch_1">
   <path d="M 0 345.6 
L 460.8 345.6 
L 460.8 0 
L 0 0 
z
" style="fill: #ffffff"/>
  </g>
  <g id="axes_1">
   <g id="patch_2">
    <path d="M 47.81 302.8525 
L 446.805 302.8525 
L 446.805 10.8 
L 47.81 10.8 
z
" style="fill: #ffffff"/>
   </g>
   <g id="line2d_1">
    <path d="M 47.81 302.852493 
L 65.516485 302.744475 
L 68.312246 302.527452 
L 70.176086 302.215427 
L 72.039927 301.662683 
L 73.437807 301.009896 
L 74.835687 300.072845 
L 76.233568 298.766095 
L 77.165488 297.643236 
L 78.097408 296.285382 
L 79.495289 293.746293 
L 80.893169 290.528065 
L 82.291049 286.563979 
L 83.68893 281.81928 
L 85.08681 276.302217 
L 86.950651 267.856248 
L 89.280451 255.996014 
L 93.940053 231.82934 
L 95.337933 225.620861 
L 96.735813 220.347905 
L 97.667734 217.451662 
L 98.599654 215.103565 
L 99.531574 213.334398 
L 100.463494 212.161303 
L 100.929454 211.799893 
L 101.395415 211.587763 
L 101.861375 211.523299 
L 102.327335 211.604127 
L 102.793295 211.827152 
L 103.725215 212.684099 
L 104.657135 214.056866 
L 105.589056 215.900063 
L 106.520976 218.162127 
L 107.918856 222.21796 
L 109.782697 228.557192 
L 112.578458 239.150213 
L 116.772099 255.016236 
L 119.101899 262.900811 
L 120.96574 268.498668 
L 122.82958 273.408483 
L 124.693421 277.623961 
L 126.557261 281.169033 
L 127.955142 283.413421 
L 129.353022 285.327172 
L 130.750903 286.934046 
L 132.148783 288.25767 
L 133.546663 289.320247 
L 134.944544 290.141531 
L 136.342424 290.738061 
L 137.740304 291.122697 
L 139.138185 291.304456 
L 140.536065 291.288635 
L 141.933946 291.077176 
L 143.331826 290.669182 
L 144.729706 290.061494 
L 146.127587 289.249231 
L 147.525467 288.226233 
L 148.923348 286.985422 
L 150.787188 284.978861 
L 152.651029 282.552766 
L 154.514869 279.690274 
L 156.37871 276.379977 
L 158.24255 272.620633 
L 160.572351 267.312593 
L 162.902151 261.393637 
L 165.697912 253.651147 
L 175.949035 224.481009 
L 177.812875 220.10971 
L 179.676716 216.34761 
L 181.074596 213.989466 
L 182.472477 212.067007 
L 183.870357 210.603728 
L 184.802277 209.889903 
L 185.734198 209.38682 
L 186.666118 209.093234 
L 187.598038 209.005838 
L 188.529958 209.119398 
L 189.461879 209.426914 
L 190.393799 209.919802 
L 191.791679 210.984581 
L 193.18956 212.405403 
L 194.58744 214.139667 
L 196.45128 216.861335 
L 198.781081 220.767874 
L 202.042802 226.813674 
L 208.566244 239.107577 
L 210.896044 243.015304 
L 212.759885 245.764138 
L 214.623725 248.077211 
L 216.021606 249.475089 
L 217.419486 250.550906 
L 218.817367 251.281918 
L 219.749287 251.569851 
L 220.681207 251.694972 
L 221.613127 251.656157 
L 222.545048 251.453737 
L 223.476968 251.089455 
L 224.874848 250.246703 
L 226.272729 249.063035 
L 227.670609 247.560497 
L 229.068489 245.766241 
L 230.93233 242.973377 
L 232.79617 239.791693 
L 235.125971 235.370169 
L 237.921732 229.533215 
L 240.717492 223.189389 
L 243.979213 215.198331 
L 247.706894 205.443056 
L 264.947419 159.45417 
L 269.60702 147.675279 
L 272.402781 141.112616 
L 274.732582 136.181533 
L 276.596422 132.717045 
L 278.460263 129.769101 
L 279.858143 127.937781 
L 281.256024 126.455812 
L 282.653904 125.338152 
L 284.051784 124.594344 
L 284.983705 124.308917 
L 285.915625 124.192854 
L 286.847545 124.246536 
L 287.779465 124.470042 
L 288.711386 124.86321 
L 290.109266 125.770098 
L 291.507146 127.054872 
L 292.905027 128.712109 
L 294.302907 130.732799 
L 295.700787 133.103675 
L 297.564628 136.778783 
L 299.428468 140.994447 
L 301.758269 146.939862 
L 304.08807 153.538791 
L 306.88383 162.188927 
L 310.145551 173.101171 
L 314.339193 188.043386 
L 324.124355 223.418775 
L 327.386076 234.121414 
L 330.181837 242.495044 
L 332.977598 250.076333 
L 335.307398 255.803352 
L 337.637199 261.026959 
L 339.966999 265.784618 
L 342.2968 270.113122 
L 344.626601 274.046057 
L 346.956401 277.612546 
L 349.286202 280.836226 
L 351.616003 283.734701 
L 353.945803 286.320391 
L 356.275604 288.603465 
L 358.605405 290.596288 
L 360.935205 292.317404 
L 363.265006 293.79284 
L 366.060767 295.283345 
L 368.856527 296.520655 
L 372.118248 297.707696 
L 375.845929 298.793741 
L 379.57361 299.643188 
L 383.767251 300.363385 
L 388.892813 300.98649 
L 395.416255 301.539445 
L 403.337577 301.988135 
L 416.38446 302.441294 
L 428.499424 302.687392 
L 449.933589 302.819148 
L 461.8 302.840893 
L 461.8 302.840893 
" clip-path="url(#p840a4ed1cf)" style="fill: none; stroke: #1e2e79; stroke-width: 2.5; stroke-linecap: square"/>
   </g>
   <g id="line2d_2">
    <path d="M 47.81 302.852497 
L 69.710126 302.755048 
L 73.437807 302.53497 
L 76.233568 302.162645 
L 78.563368 301.625786 
L 80.427209 300.994697 
L 82.291049 300.147425 
L 84.15489 299.061095 
L 86.01873 297.730287 
L 88.348531 295.751067 
L 91.144292 293.034048 
L 96.735813 287.494501 
L 98.599654 285.951657 
L 100.463494 284.697956 
L 101.861375 283.981838 
L 103.259255 283.473948 
L 104.657135 283.17875 
L 106.055016 283.091317 
L 107.452896 283.197981 
L 109.316737 283.604962 
L 111.180577 284.255197 
L 113.510378 285.301242 
L 122.82958 289.803819 
L 125.625341 290.75732 
L 127.955142 291.311956 
L 130.284942 291.623936 
L 132.614743 291.678111 
L 134.944544 291.462626 
L 136.808384 291.086412 
L 138.672225 290.516707 
L 140.536065 289.736753 
L 142.399906 288.724708 
L 144.263746 287.455058 
L 146.127587 285.90098 
L 147.991427 284.036974 
L 149.855268 281.841133 
L 151.719108 279.296838 
L 153.582949 276.394068 
L 155.446789 273.130815 
L 157.77659 268.55809 
L 160.106391 263.479121 
L 162.902151 256.834324 
L 168.027713 243.871843 
L 171.289434 235.892756 
L 173.619234 230.750029 
L 175.483075 227.151994 
L 176.880955 224.827601 
L 178.278836 222.868994 
L 179.676716 221.309428 
L 181.074596 220.174298 
L 182.006517 219.662061 
L 182.938437 219.34904 
L 183.870357 219.236402 
L 184.802277 219.323647 
L 185.734198 219.608668 
L 186.666118 220.087827 
L 187.598038 220.756048 
L 188.995918 222.098505 
L 190.393799 223.824929 
L 191.791679 225.903294 
L 193.65552 229.158494 
L 195.51936 232.879147 
L 197.849161 238.029704 
L 201.576842 246.951323 
L 207.168363 260.402758 
L 209.964124 266.555184 
L 212.293925 271.180846 
L 214.623725 275.266727 
L 216.487566 278.118142 
L 218.351406 280.5905 
L 220.215247 282.68534 
L 222.079087 284.408043 
L 223.942928 285.764462 
L 225.340808 286.544432 
L 226.738689 287.123186 
L 228.136569 287.503197 
L 229.534449 287.688028 
L 230.93233 287.682942 
L 232.33021 287.495389 
L 234.194051 286.979107 
L 236.057891 286.187553 
L 237.921732 285.159916 
L 240.251532 283.613423 
L 243.513253 281.131051 
L 257.026097 270.456671 
L 262.617618 266.414116 
L 273.800661 258.54489 
L 276.130462 256.464296 
L 277.994303 254.495721 
L 279.858143 252.167548 
L 281.721984 249.397584 
L 283.585824 246.10868 
L 285.449665 242.231009 
L 287.313505 237.70193 
L 289.177346 232.464988 
L 291.041186 226.470487 
L 292.905027 219.679403 
L 294.768867 212.070375 
L 296.632708 203.647463 
L 298.962508 192.030484 
L 301.758269 176.684361 
L 305.01999 157.309064 
L 315.271113 95.06996 
L 317.600913 82.933159 
L 319.464754 74.386825 
L 320.862634 68.796003 
L 322.260515 63.999883 
L 323.658395 60.072278 
L 324.590315 57.96736 
L 325.522236 56.290666 
L 326.454156 55.05339 
L 327.386076 54.263107 
L 328.317996 53.923614 
L 328.783956 53.923059 
L 329.715877 54.258563 
L 330.647797 55.037906 
L 331.579717 56.252167 
L 332.511637 57.889367 
L 333.443558 59.934854 
L 334.841438 63.731116 
L 336.239318 68.34305 
L 337.637199 73.699477 
L 339.501039 81.868036 
L 341.36488 91.036931 
L 343.694681 103.606498 
L 346.956401 122.566303 
L 354.877724 169.21651 
L 357.673484 184.171643 
L 360.469245 197.813406 
L 362.799046 208.098812 
L 365.128846 217.402933 
L 367.458647 225.775911 
L 369.788448 233.296645 
L 372.118248 240.057622 
L 374.448049 246.152408 
L 376.77785 251.66738 
L 379.10765 256.677837 
L 381.903411 262.112948 
L 384.699172 267.000684 
L 387.494932 271.408152 
L 390.290693 275.384229 
L 393.086454 278.965125 
L 395.882215 282.181236 
L 398.677975 285.061295 
L 401.473736 287.631806 
L 404.269497 289.914786 
L 407.065258 291.928301 
L 409.861019 293.690193 
L 412.656779 295.221216 
L 415.9185 296.746494 
L 419.180221 298.024343 
L 422.907902 299.219996 
L 426.635583 300.169519 
L 430.829224 300.988214 
L 435.488825 301.646562 
L 440.614387 302.135769 
L 446.671869 302.482181 
L 454.593191 302.69808 
L 461.8 302.794384 
L 461.8 302.794384 
" clip-path="url(#p840a4ed1cf)" style="fill: none; stroke: #ec4067; stroke-width: 2.5; stroke-linecap: square"/>
   </g>
   <g id="matplotlib.axis_1">
    <g id="xtick_1">
     <g id="line2d_3">
      <defs>
       <path id="m9b139e69ea" d="M 0 0 
L 0 3.5 
" style="stroke: #000000; stroke-width: 0.8"/>
      </defs>
      <g>
       <use xlink:href="#m9b139e69ea" x="47.81" y="302.8525" style="stroke: #000000; stroke-width: 0.8"/>
      </g>
     </g>
     <g id="text_1">
      <!-- 1 -->
      <g transform="translate(44.62875 317.450938) scale(0.1 -0.1)">
       <defs>
        <path id="DejaVuSans-31" d="M 794 531 
L 1825 531 
L 1825 4091 
L 703 3866 
L 703 4441 
L 1819 4666 
L 2450 4666 
L 2450 531 
L 3481 531 
L 3481 0 
L 794 0 
L 794 531 
z
" transform="scale(0.015625)"/>
       </defs>
       <use xlink:href="#DejaVuSans-31"/>
      </g>
     </g>
    </g>
    <g id="xtick_2">
     <g id="line2d_4">
      <g>
       <use xlink:href="#m9b139e69ea" x="114.309167" y="302.8525" style="stroke: #000000; stroke-width: 0.8"/>
      </g>
     </g>
     <g id="text_2">
      <!-- 2 -->
      <g transform="translate(111.127917 317.450938) scale(0.1 -0.1)">
       <defs>
        <path id="DejaVuSans-32" d="M 1228 531 
L 3431 531 
L 3431 0 
L 469 0 
L 469 531 
Q 828 903 1448 1529 
Q 2069 2156 2228 2338 
Q 2531 2678 2651 2914 
Q 2772 3150 2772 3378 
Q 2772 3750 2511 3984 
Q 2250 4219 1831 4219 
Q 1534 4219 1204 4116 
Q 875 4013 500 3803 
L 500 4441 
Q 881 4594 1212 4672 
Q 1544 4750 1819 4750 
Q 2544 4750 2975 4387 
Q 3406 4025 3406 3419 
Q 3406 3131 3298 2873 
Q 3191 2616 2906 2266 
Q 2828 2175 2409 1742 
Q 1991 1309 1228 531 
z
" transform="scale(0.015625)"/>
       </defs>
       <use xlink:href="#DejaVuSans-32"/>
      </g>
     </g>
    </g>
    <g id="xtick_3">
     <g id="line2d_5">
      <g>
       <use xlink:href="#m9b139e69ea" x="180.808333" y="302.8525" style="stroke: #000000; stroke-width: 0.8"/>
      </g>
     </g>
     <g id="text_3">
      <!-- 3 -->
      <g transform="translate(177.627083 317.450938) scale(0.1 -0.1)">
       <defs>
        <path id="DejaVuSans-33" d="M 2597 2516 
Q 3050 2419 3304 2112 
Q 3559 1806 3559 1356 
Q 3559 666 3084 287 
Q 2609 -91 1734 -91 
Q 1441 -91 1130 -33 
Q 819 25 488 141 
L 488 750 
Q 750 597 1062 519 
Q 1375 441 1716 441 
Q 2309 441 2620 675 
Q 2931 909 2931 1356 
Q 2931 1769 2642 2001 
Q 2353 2234 1838 2234 
L 1294 2234 
L 1294 2753 
L 1863 2753 
Q 2328 2753 2575 2939 
Q 2822 3125 2822 3475 
Q 2822 3834 2567 4026 
Q 2313 4219 1838 4219 
Q 1578 4219 1281 4162 
Q 984 4106 628 3988 
L 628 4550 
Q 988 4650 1302 4700 
Q 1616 4750 1894 4750 
Q 2613 4750 3031 4423 
Q 3450 4097 3450 3541 
Q 3450 3153 3228 2886 
Q 3006 2619 2597 2516 
z
" transform="scale(0.015625)"/>
       </defs>
       <use xlink:href="#DejaVuSans-33"/>
      </g>
     </g>
    </g>
    <g id="xtick_4">
     <g id="line2d_6">
      <g>
       <use xlink:href="#m9b139e69ea" x="247.3075" y="302.8525" style="stroke: #000000; stroke-width: 0.8"/>
      </g>
     </g>
     <g id="text_4">
      <!-- 4 -->
      <g transform="translate(244.12625 317.450938) scale(0.1 -0.1)">
       <defs>
        <path id="DejaVuSans-34" d="M 2419 4116 
L 825 1625 
L 2419 1625 
L 2419 4116 
z
M 2253 4666 
L 3047 4666 
L 3047 1625 
L 3713 1625 
L 3713 1100 
L 3047 1100 
L 3047 0 
L 2419 0 
L 2419 1100 
L 313 1100 
L 313 1709 
L 2253 4666 
z
" transform="scale(0.015625)"/>
       </defs>
       <use xlink:href="#DejaVuSans-34"/>
      </g>
     </g>
    </g>
    <g id="xtick_5">
     <g id="line2d_7">
      <g>
       <use xlink:href="#m9b139e69ea" x="313.806667" y="302.8525" style="stroke: #000000; stroke-width: 0.8"/>
      </g>
     </g>
     <g id="text_5">
      <!-- 5 -->
      <g transform="translate(310.625417 317.450938) scale(0.1 -0.1)">
       <defs>
        <path id="DejaVuSans-35" d="M 691 4666 
L 3169 4666 
L 3169 4134 
L 1269 4134 
L 1269 2991 
Q 1406 3038 1543 3061 
Q 1681 3084 1819 3084 
Q 2600 3084 3056 2656 
Q 3513 2228 3513 1497 
Q 3513 744 3044 326 
Q 2575 -91 1722 -91 
Q 1428 -91 1123 -41 
Q 819 9 494 109 
L 494 744 
Q 775 591 1075 516 
Q 1375 441 1709 441 
Q 2250 441 2565 725 
Q 2881 1009 2881 1497 
Q 2881 1984 2565 2268 
Q 2250 2553 1709 2553 
Q 1456 2553 1204 2497 
Q 953 2441 691 2322 
L 691 4666 
z
" transform="scale(0.015625)"/>
       </defs>
       <use xlink:href="#DejaVuSans-35"/>
      </g>
     </g>
    </g>
    <g id="xtick_6">
     <g id="line2d_8">
      <g>
       <use xlink:href="#m9b139e69ea" x="380.305833" y="302.8525" style="stroke: #000000; stroke-width: 0.8"/>
      </g>
     </g>
     <g id="text_6">
      <!-- 6 -->
      <g transform="translate(377.124583 317.450938) scale(0.1 -0.1)">
       <defs>
        <path id="DejaVuSans-36" d="M 2113 2584 
Q 1688 2584 1439 2293 
Q 1191 2003 1191 1497 
Q 1191 994 1439 701 
Q 1688 409 2113 409 
Q 2538 409 2786 701 
Q 3034 994 3034 1497 
Q 3034 2003 2786 2293 
Q 2538 2584 2113 2584 
z
M 3366 4563 
L 3366 3988 
Q 3128 4100 2886 4159 
Q 2644 4219 2406 4219 
Q 1781 4219 1451 3797 
Q 1122 3375 1075 2522 
Q 1259 2794 1537 2939 
Q 1816 3084 2150 3084 
Q 2853 3084 3261 2657 
Q 3669 2231 3669 1497 
Q 3669 778 3244 343 
Q 2819 -91 2113 -91 
Q 1303 -91 875 529 
Q 447 1150 447 2328 
Q 447 3434 972 4092 
Q 1497 4750 2381 4750 
Q 2619 4750 2861 4703 
Q 3103 4656 3366 4563 
z
" transform="scale(0.015625)"/>
       </defs>
       <use xlink:href="#DejaVuSans-36"/>
      </g>
     </g>
    </g>
    <g id="xtick_7">
     <g id="line2d_9">
      <g>
       <use xlink:href="#m9b139e69ea" x="446.805" y="302.8525" style="stroke: #000000; stroke-width: 0.8"/>
      </g>
     </g>
     <g id="text_7">
      <!-- 7 -->
      <g transform="translate(443.62375 317.450938) scale(0.1 -0.1)">
       <defs>
        <path id="DejaVuSans-37" d="M 525 4666 
L 3525 4666 
L 3525 4397 
L 1831 0 
L 1172 0 
L 2766 4134 
L 525 4134 
L 525 4666 
z
" transform="scale(0.015625)"/>
       </defs>
       <use xlink:href="#DejaVuSans-37"/>
      </g>
     </g>
    </g>
    <g id="text_8">
     <!-- CRO66 OH - THR203 HG1 Distance [Å] -->
     <g transform="translate(151.177031 332.0525) scale(0.1 -0.1)">
      <defs>
       <path id="DejaVuSans-43" d="M 4122 4306 
L 4122 3641 
Q 3803 3938 3442 4084 
Q 3081 4231 2675 4231 
Q 1875 4231 1450 3742 
Q 1025 3253 1025 2328 
Q 1025 1406 1450 917 
Q 1875 428 2675 428 
Q 3081 428 3442 575 
Q 3803 722 4122 1019 
L 4122 359 
Q 3791 134 3420 21 
Q 3050 -91 2638 -91 
Q 1578 -91 968 557 
Q 359 1206 359 2328 
Q 359 3453 968 4101 
Q 1578 4750 2638 4750 
Q 3056 4750 3426 4639 
Q 3797 4528 4122 4306 
z
" transform="scale(0.015625)"/>
       <path id="DejaVuSans-52" d="M 2841 2188 
Q 3044 2119 3236 1894 
Q 3428 1669 3622 1275 
L 4263 0 
L 3584 0 
L 2988 1197 
Q 2756 1666 2539 1819 
Q 2322 1972 1947 1972 
L 1259 1972 
L 1259 0 
L 628 0 
L 628 4666 
L 2053 4666 
Q 2853 4666 3247 4331 
Q 3641 3997 3641 3322 
Q 3641 2881 3436 2590 
Q 3231 2300 2841 2188 
z
M 1259 4147 
L 1259 2491 
L 2053 2491 
Q 2509 2491 2742 2702 
Q 2975 2913 2975 3322 
Q 2975 3731 2742 3939 
Q 2509 4147 2053 4147 
L 1259 4147 
z
" transform="scale(0.015625)"/>
       <path id="DejaVuSans-4f" d="M 2522 4238 
Q 1834 4238 1429 3725 
Q 1025 3213 1025 2328 
Q 1025 1447 1429 934 
Q 1834 422 2522 422 
Q 3209 422 3611 934 
Q 4013 1447 4013 2328 
Q 4013 3213 3611 3725 
Q 3209 4238 2522 4238 
z
M 2522 4750 
Q 3503 4750 4090 4092 
Q 4678 3434 4678 2328 
Q 4678 1225 4090 567 
Q 3503 -91 2522 -91 
Q 1538 -91 948 565 
Q 359 1222 359 2328 
Q 359 3434 948 4092 
Q 1538 4750 2522 4750 
z
" transform="scale(0.015625)"/>
       <path id="DejaVuSans-20" transform="scale(0.015625)"/>
       <path id="DejaVuSans-48" d="M 628 4666 
L 1259 4666 
L 1259 2753 
L 3553 2753 
L 3553 4666 
L 4184 4666 
L 4184 0 
L 3553 0 
L 3553 2222 
L 1259 2222 
L 1259 0 
L 628 0 
L 628 4666 
z
" transform="scale(0.015625)"/>
       <path id="DejaVuSans-2d" d="M 313 2009 
L 1997 2009 
L 1997 1497 
L 313 1497 
L 313 2009 
z
" transform="scale(0.015625)"/>
       <path id="DejaVuSans-54" d="M -19 4666 
L 3928 4666 
L 3928 4134 
L 2272 4134 
L 2272 0 
L 1638 0 
L 1638 4134 
L -19 4134 
L -19 4666 
z
" transform="scale(0.015625)"/>
       <path id="DejaVuSans-30" d="M 2034 4250 
Q 1547 4250 1301 3770 
Q 1056 3291 1056 2328 
Q 1056 1369 1301 889 
Q 1547 409 2034 409 
Q 2525 409 2770 889 
Q 3016 1369 3016 2328 
Q 3016 3291 2770 3770 
Q 2525 4250 2034 4250 
z
M 2034 4750 
Q 2819 4750 3233 4129 
Q 3647 3509 3647 2328 
Q 3647 1150 3233 529 
Q 2819 -91 2034 -91 
Q 1250 -91 836 529 
Q 422 1150 422 2328 
Q 422 3509 836 4129 
Q 1250 4750 2034 4750 
z
" transform="scale(0.015625)"/>
       <path id="DejaVuSans-47" d="M 3809 666 
L 3809 1919 
L 2778 1919 
L 2778 2438 
L 4434 2438 
L 4434 434 
Q 4069 175 3628 42 
Q 3188 -91 2688 -91 
Q 1594 -91 976 548 
Q 359 1188 359 2328 
Q 359 3472 976 4111 
Q 1594 4750 2688 4750 
Q 3144 4750 3555 4637 
Q 3966 4525 4313 4306 
L 4313 3634 
Q 3963 3931 3569 4081 
Q 3175 4231 2741 4231 
Q 1884 4231 1454 3753 
Q 1025 3275 1025 2328 
Q 1025 1384 1454 906 
Q 1884 428 2741 428 
Q 3075 428 3337 486 
Q 3600 544 3809 666 
z
" transform="scale(0.015625)"/>
       <path id="DejaVuSans-44" d="M 1259 4147 
L 1259 519 
L 2022 519 
Q 2988 519 3436 956 
Q 3884 1394 3884 2338 
Q 3884 3275 3436 3711 
Q 2988 4147 2022 4147 
L 1259 4147 
z
M 628 4666 
L 1925 4666 
Q 3281 4666 3915 4102 
Q 4550 3538 4550 2338 
Q 4550 1131 3912 565 
Q 3275 0 1925 0 
L 628 0 
L 628 4666 
z
" transform="scale(0.015625)"/>
       <path id="DejaVuSans-69" d="M 603 3500 
L 1178 3500 
L 1178 0 
L 603 0 
L 603 3500 
z
M 603 4863 
L 1178 4863 
L 1178 4134 
L 603 4134 
L 603 4863 
z
" transform="scale(0.015625)"/>
       <path id="DejaVuSans-73" d="M 2834 3397 
L 2834 2853 
Q 2591 2978 2328 3040 
Q 2066 3103 1784 3103 
Q 1356 3103 1142 2972 
Q 928 2841 928 2578 
Q 928 2378 1081 2264 
Q 1234 2150 1697 2047 
L 1894 2003 
Q 2506 1872 2764 1633 
Q 3022 1394 3022 966 
Q 3022 478 2636 193 
Q 2250 -91 1575 -91 
Q 1294 -91 989 -36 
Q 684 19 347 128 
L 347 722 
Q 666 556 975 473 
Q 1284 391 1588 391 
Q 1994 391 2212 530 
Q 2431 669 2431 922 
Q 2431 1156 2273 1281 
Q 2116 1406 1581 1522 
L 1381 1569 
Q 847 1681 609 1914 
Q 372 2147 372 2553 
Q 372 3047 722 3315 
Q 1072 3584 1716 3584 
Q 2034 3584 2315 3537 
Q 2597 3491 2834 3397 
z
" transform="scale(0.015625)"/>
       <path id="DejaVuSans-74" d="M 1172 4494 
L 1172 3500 
L 2356 3500 
L 2356 3053 
L 1172 3053 
L 1172 1153 
Q 1172 725 1289 603 
Q 1406 481 1766 481 
L 2356 481 
L 2356 0 
L 1766 0 
Q 1100 0 847 248 
Q 594 497 594 1153 
L 594 3053 
L 172 3053 
L 172 3500 
L 594 3500 
L 594 4494 
L 1172 4494 
z
" transform="scale(0.015625)"/>
       <path id="DejaVuSans-61" d="M 2194 1759 
Q 1497 1759 1228 1600 
Q 959 1441 959 1056 
Q 959 750 1161 570 
Q 1363 391 1709 391 
Q 2188 391 2477 730 
Q 2766 1069 2766 1631 
L 2766 1759 
L 2194 1759 
z
M 3341 1997 
L 3341 0 
L 2766 0 
L 2766 531 
Q 2569 213 2275 61 
Q 1981 -91 1556 -91 
Q 1019 -91 701 211 
Q 384 513 384 1019 
Q 384 1609 779 1909 
Q 1175 2209 1959 2209 
L 2766 2209 
L 2766 2266 
Q 2766 2663 2505 2880 
Q 2244 3097 1772 3097 
Q 1472 3097 1187 3025 
Q 903 2953 641 2809 
L 641 3341 
Q 956 3463 1253 3523 
Q 1550 3584 1831 3584 
Q 2591 3584 2966 3190 
Q 3341 2797 3341 1997 
z
" transform="scale(0.015625)"/>
       <path id="DejaVuSans-6e" d="M 3513 2113 
L 3513 0 
L 2938 0 
L 2938 2094 
Q 2938 2591 2744 2837 
Q 2550 3084 2163 3084 
Q 1697 3084 1428 2787 
Q 1159 2491 1159 1978 
L 1159 0 
L 581 0 
L 581 3500 
L 1159 3500 
L 1159 2956 
Q 1366 3272 1645 3428 
Q 1925 3584 2291 3584 
Q 2894 3584 3203 3211 
Q 3513 2838 3513 2113 
z
" transform="scale(0.015625)"/>
       <path id="DejaVuSans-63" d="M 3122 3366 
L 3122 2828 
Q 2878 2963 2633 3030 
Q 2388 3097 2138 3097 
Q 1578 3097 1268 2742 
Q 959 2388 959 1747 
Q 959 1106 1268 751 
Q 1578 397 2138 397 
Q 2388 397 2633 464 
Q 2878 531 3122 666 
L 3122 134 
Q 2881 22 2623 -34 
Q 2366 -91 2075 -91 
Q 1284 -91 818 406 
Q 353 903 353 1747 
Q 353 2603 823 3093 
Q 1294 3584 2113 3584 
Q 2378 3584 2631 3529 
Q 2884 3475 3122 3366 
z
" transform="scale(0.015625)"/>
       <path id="DejaVuSans-65" d="M 3597 1894 
L 3597 1613 
L 953 1613 
Q 991 1019 1311 708 
Q 1631 397 2203 397 
Q 2534 397 2845 478 
Q 3156 559 3463 722 
L 3463 178 
Q 3153 47 2828 -22 
Q 2503 -91 2169 -91 
Q 1331 -91 842 396 
Q 353 884 353 1716 
Q 353 2575 817 3079 
Q 1281 3584 2069 3584 
Q 2775 3584 3186 3129 
Q 3597 2675 3597 1894 
z
M 3022 2063 
Q 3016 2534 2758 2815 
Q 2500 3097 2075 3097 
Q 1594 3097 1305 2825 
Q 1016 2553 972 2059 
L 3022 2063 
z
" transform="scale(0.015625)"/>
       <path id="DejaVuSans-5b" d="M 550 4863 
L 1875 4863 
L 1875 4416 
L 1125 4416 
L 1125 -397 
L 1875 -397 
L 1875 -844 
L 550 -844 
L 550 4863 
z
" transform="scale(0.015625)"/>
       <path id="DejaVuSans-c5" d="M 2663 5081 
Q 2663 5278 2523 5417 
Q 2384 5556 2188 5556 
Q 1988 5556 1852 5420 
Q 1716 5284 1716 5081 
Q 1716 4884 1853 4746 
Q 1991 4609 2188 4609 
Q 2384 4609 2523 4746 
Q 2663 4884 2663 5081 
z
M 2188 4044 
L 1338 1722 
L 3041 1722 
L 2188 4044 
z
M 1716 4366 
Q 1525 4494 1428 4673 
Q 1331 4853 1331 5081 
Q 1331 5441 1579 5691 
Q 1828 5941 2188 5941 
Q 2544 5941 2795 5689 
Q 3047 5438 3047 5081 
Q 3047 4863 2948 4678 
Q 2850 4494 2663 4366 
L 4325 0 
L 3669 0 
L 3244 1197 
L 1141 1197 
L 716 0 
L 50 0 
L 1716 4366 
z
" transform="scale(0.015625)"/>
       <path id="DejaVuSans-5d" d="M 1947 4863 
L 1947 -844 
L 622 -844 
L 622 -397 
L 1369 -397 
L 1369 4416 
L 622 4416 
L 622 4863 
L 1947 4863 
z
" transform="scale(0.015625)"/>
      </defs>
      <use xlink:href="#DejaVuSans-43"/>
      <use xlink:href="#DejaVuSans-52" x="69.824219"/>
      <use xlink:href="#DejaVuSans-4f" x="139.306641"/>
      <use xlink:href="#DejaVuSans-36" x="218.017578"/>
      <use xlink:href="#DejaVuSans-36" x="281.640625"/>
      <use xlink:href="#DejaVuSans-20" x="345.263672"/>
      <use xlink:href="#DejaVuSans-4f" x="377.050781"/>
      <use xlink:href="#DejaVuSans-48" x="455.761719"/>
      <use xlink:href="#DejaVuSans-20" x="530.957031"/>
      <use xlink:href="#DejaVuSans-2d" x="562.744141"/>
      <use xlink:href="#DejaVuSans-20" x="598.828125"/>
      <use xlink:href="#DejaVuSans-54" x="630.615234"/>
      <use xlink:href="#DejaVuSans-48" x="691.699219"/>
      <use xlink:href="#DejaVuSans-52" x="766.894531"/>
      <use xlink:href="#DejaVuSans-32" x="836.376953"/>
      <use xlink:href="#DejaVuSans-30" x="900"/>
      <use xlink:href="#DejaVuSans-33" x="963.623047"/>
      <use xlink:href="#DejaVuSans-20" x="1027.246094"/>
      <use xlink:href="#DejaVuSans-48" x="1059.033203"/>
      <use xlink:href="#DejaVuSans-47" x="1134.228516"/>
      <use xlink:href="#DejaVuSans-31" x="1211.71875"/>
      <use xlink:href="#DejaVuSans-20" x="1275.341797"/>
      <use xlink:href="#DejaVuSans-44" x="1307.128906"/>
      <use xlink:href="#DejaVuSans-69" x="1384.130859"/>
      <use xlink:href="#DejaVuSans-73" x="1411.914062"/>
      <use xlink:href="#DejaVuSans-74" x="1464.013672"/>
      <use xlink:href="#DejaVuSans-61" x="1503.222656"/>
      <use xlink:href="#DejaVuSans-6e" x="1564.501953"/>
      <use xlink:href="#DejaVuSans-63" x="1627.880859"/>
      <use xlink:href="#DejaVuSans-65" x="1682.861328"/>
      <use xlink:href="#DejaVuSans-20" x="1744.384766"/>
      <use xlink:href="#DejaVuSans-5b" x="1776.171875"/>
      <use xlink:href="#DejaVuSans-c5" x="1815.185547"/>
      <use xlink:href="#DejaVuSans-5d" x="1883.59375"/>
     </g>
    </g>
   </g>
   <g id="matplotlib.axis_2">
    <g id="ytick_1">
     <g id="line2d_10">
      <defs>
       <path id="m187c7fb951" d="M 0 0 
L -3.5 0 
" style="stroke: #000000; stroke-width: 0.8"/>
      </defs>
      <g>
       <use xlink:href="#m187c7fb951" x="47.81" y="302.8525" style="stroke: #000000; stroke-width: 0.8"/>
      </g>
     </g>
     <g id="text_9">
      <!-- 0.0 -->
      <g transform="translate(24.906875 306.651719) scale(0.1 -0.1)">
       <defs>
        <path id="DejaVuSans-2e" d="M 684 794 
L 1344 794 
L 1344 0 
L 684 0 
L 684 794 
z
" transform="scale(0.015625)"/>
       </defs>
       <use xlink:href="#DejaVuSans-30"/>
       <use xlink:href="#DejaVuSans-2e" x="63.623047"/>
       <use xlink:href="#DejaVuSans-30" x="95.410156"/>
      </g>
     </g>
    </g>
    <g id="ytick_2">
     <g id="line2d_11">
      <g>
       <use xlink:href="#m187c7fb951" x="47.81" y="270.024181" style="stroke: #000000; stroke-width: 0.8"/>
      </g>
     </g>
     <g id="text_10">
      <!-- 0.1 -->
      <g transform="translate(24.906875 273.8234) scale(0.1 -0.1)">
       <use xlink:href="#DejaVuSans-30"/>
       <use xlink:href="#DejaVuSans-2e" x="63.623047"/>
       <use xlink:href="#DejaVuSans-31" x="95.410156"/>
      </g>
     </g>
    </g>
    <g id="ytick_3">
     <g id="line2d_12">
      <g>
       <use xlink:href="#m187c7fb951" x="47.81" y="237.195862" style="stroke: #000000; stroke-width: 0.8"/>
      </g>
     </g>
     <g id="text_11">
      <!-- 0.2 -->
      <g transform="translate(24.906875 240.995081) scale(0.1 -0.1)">
       <use xlink:href="#DejaVuSans-30"/>
       <use xlink:href="#DejaVuSans-2e" x="63.623047"/>
       <use xlink:href="#DejaVuSans-32" x="95.410156"/>
      </g>
     </g>
    </g>
    <g id="ytick_4">
     <g id="line2d_13">
      <g>
       <use xlink:href="#m187c7fb951" x="47.81" y="204.367543" style="stroke: #000000; stroke-width: 0.8"/>
      </g>
     </g>
     <g id="text_12">
      <!-- 0.3 -->
      <g transform="translate(24.906875 208.166762) scale(0.1 -0.1)">
       <use xlink:href="#DejaVuSans-30"/>
       <use xlink:href="#DejaVuSans-2e" x="63.623047"/>
       <use xlink:href="#DejaVuSans-33" x="95.410156"/>
      </g>
     </g>
    </g>
    <g id="ytick_5">
     <g id="line2d_14">
      <g>
       <use xlink:href="#m187c7fb951" x="47.81" y="171.539224" style="stroke: #000000; stroke-width: 0.8"/>
      </g>
     </g>
     <g id="text_13">
      <!-- 0.4 -->
      <g transform="translate(24.906875 175.338443) scale(0.1 -0.1)">
       <use xlink:href="#DejaVuSans-30"/>
       <use xlink:href="#DejaVuSans-2e" x="63.623047"/>
       <use xlink:href="#DejaVuSans-34" x="95.410156"/>
      </g>
     </g>
    </g>
    <g id="ytick_6">
     <g id="line2d_15">
      <g>
       <use xlink:href="#m187c7fb951" x="47.81" y="138.710905" style="stroke: #000000; stroke-width: 0.8"/>
      </g>
     </g>
     <g id="text_14">
      <!-- 0.5 -->
      <g transform="translate(24.906875 142.510124) scale(0.1 -0.1)">
       <use xlink:href="#DejaVuSans-30"/>
       <use xlink:href="#DejaVuSans-2e" x="63.623047"/>
       <use xlink:href="#DejaVuSans-35" x="95.410156"/>
      </g>
     </g>
    </g>
    <g id="ytick_7">
     <g id="line2d_16">
      <g>
       <use xlink:href="#m187c7fb951" x="47.81" y="105.882586" style="stroke: #000000; stroke-width: 0.8"/>
      </g>
     </g>
     <g id="text_15">
      <!-- 0.6 -->
      <g transform="translate(24.906875 109.681805) scale(0.1 -0.1)">
       <use xlink:href="#DejaVuSans-30"/>
       <use xlink:href="#DejaVuSans-2e" x="63.623047"/>
       <use xlink:href="#DejaVuSans-36" x="95.410156"/>
      </g>
     </g>
    </g>
    <g id="ytick_8">
     <g id="line2d_17">
      <g>
       <use xlink:href="#m187c7fb951" x="47.81" y="73.054267" style="stroke: #000000; stroke-width: 0.8"/>
      </g>
     </g>
     <g id="text_16">
      <!-- 0.7 -->
      <g transform="translate(24.906875 76.853486) scale(0.1 -0.1)">
       <use xlink:href="#DejaVuSans-30"/>
       <use xlink:href="#DejaVuSans-2e" x="63.623047"/>
       <use xlink:href="#DejaVuSans-37" x="95.410156"/>
      </g>
     </g>
    </g>
    <g id="ytick_9">
     <g id="line2d_18">
      <g>
       <use xlink:href="#m187c7fb951" x="47.81" y="40.225948" style="stroke: #000000; stroke-width: 0.8"/>
      </g>
     </g>
     <g id="text_17">
      <!-- 0.8 -->
      <g transform="translate(24.906875 44.025167) scale(0.1 -0.1)">
       <defs>
        <path id="DejaVuSans-38" d="M 2034 2216 
Q 1584 2216 1326 1975 
Q 1069 1734 1069 1313 
Q 1069 891 1326 650 
Q 1584 409 2034 409 
Q 2484 409 2743 651 
Q 3003 894 3003 1313 
Q 3003 1734 2745 1975 
Q 2488 2216 2034 2216 
z
M 1403 2484 
Q 997 2584 770 2862 
Q 544 3141 544 3541 
Q 544 4100 942 4425 
Q 1341 4750 2034 4750 
Q 2731 4750 3128 4425 
Q 3525 4100 3525 3541 
Q 3525 3141 3298 2862 
Q 3072 2584 2669 2484 
Q 3125 2378 3379 2068 
Q 3634 1759 3634 1313 
Q 3634 634 3220 271 
Q 2806 -91 2034 -91 
Q 1263 -91 848 271 
Q 434 634 434 1313 
Q 434 1759 690 2068 
Q 947 2378 1403 2484 
z
M 1172 3481 
Q 1172 3119 1398 2916 
Q 1625 2713 2034 2713 
Q 2441 2713 2670 2916 
Q 2900 3119 2900 3481 
Q 2900 3844 2670 4047 
Q 2441 4250 2034 4250 
Q 1625 4250 1398 4047 
Q 1172 3844 1172 3481 
z
" transform="scale(0.015625)"/>
       </defs>
       <use xlink:href="#DejaVuSans-30"/>
       <use xlink:href="#DejaVuSans-2e" x="63.623047"/>
       <use xlink:href="#DejaVuSans-38" x="95.410156"/>
      </g>
     </g>
    </g>
    <g id="text_18">
     <!-- Density -->
     <g transform="translate(18.827187 175.834844) rotate(-90) scale(0.1 -0.1)">
      <defs>
       <path id="DejaVuSans-79" d="M 2059 -325 
Q 1816 -950 1584 -1140 
Q 1353 -1331 966 -1331 
L 506 -1331 
L 506 -850 
L 844 -850 
Q 1081 -850 1212 -737 
Q 1344 -625 1503 -206 
L 1606 56 
L 191 3500 
L 800 3500 
L 1894 763 
L 2988 3500 
L 3597 3500 
L 2059 -325 
z
" transform="scale(0.015625)"/>
      </defs>
      <use xlink:href="#DejaVuSans-44"/>
      <use xlink:href="#DejaVuSans-65" x="77.001953"/>
      <use xlink:href="#DejaVuSans-6e" x="138.525391"/>
      <use xlink:href="#DejaVuSans-73" x="201.904297"/>
      <use xlink:href="#DejaVuSans-69" x="254.003906"/>
      <use xlink:href="#DejaVuSans-74" x="281.787109"/>
      <use xlink:href="#DejaVuSans-79" x="320.996094"/>
     </g>
    </g>
   </g>
   <g id="line2d_19">
    <path d="M 47.81 302.852469 
L 62.720724 302.751243 
L 65.516485 302.528721 
L 67.380325 302.189791 
L 68.778206 301.752156 
L 70.176086 301.071408 
L 71.108006 300.431098 
L 72.039927 299.596702 
L 72.971847 298.52232 
L 73.903767 297.155304 
L 74.835687 295.436463 
L 75.767608 293.300642 
L 76.699528 290.677765 
L 77.631448 287.494373 
L 78.563368 283.675678 
L 79.495289 279.148117 
L 80.893169 270.877986 
L 82.291049 260.660575 
L 83.68893 248.363577 
L 85.08681 233.947037 
L 86.484691 217.485839 
L 88.348531 192.730187 
L 90.678332 158.545343 
L 94.871973 95.892016 
L 96.735813 71.427651 
L 98.133694 55.768381 
L 99.531574 42.979718 
L 100.463494 36.237229 
L 101.395415 31.011155 
L 102.327335 27.344207 
L 102.793295 26.100398 
L 103.259255 25.248627 
L 103.725215 24.78584 
L 104.191175 24.707262 
L 104.657135 25.006481 
L 105.123096 25.675538 
L 105.589056 26.705028 
L 106.520976 29.801116 
L 107.452896 34.194886 
L 108.384816 39.770866 
L 109.782697 50.071337 
L 111.180577 62.287094 
L 113.044418 80.746842 
L 116.306139 116.105253 
L 120.03382 156.202181 
L 122.36362 179.05026 
L 124.227461 195.537503 
L 126.091301 210.251714 
L 127.955142 223.147489 
L 129.818982 234.266569 
L 131.682823 243.711343 
L 133.080703 249.778271 
L 134.478584 255.044149 
L 135.876464 259.571967 
L 137.274344 263.420604 
L 138.672225 266.642414 
L 140.070105 269.28192 
L 141.467985 271.375548 
L 142.865866 272.952233 
L 143.797786 273.72758 
L 144.729706 274.288858 
L 145.661627 274.640866 
L 146.593547 274.787911 
L 147.525467 274.733988 
L 148.457387 274.482929 
L 149.389308 274.038518 
L 150.321228 273.404575 
L 151.719108 272.106874 
L 153.116989 270.405374 
L 154.514869 268.314971 
L 155.912749 265.852219 
L 157.77659 262.022872 
L 159.64043 257.622085 
L 161.970231 251.430637 
L 164.765992 243.24309 
L 172.687314 219.351862 
L 175.017115 213.318517 
L 176.880955 209.164593 
L 178.278836 206.521657 
L 179.676716 204.331641 
L 181.074596 202.628027 
L 182.006517 201.77423 
L 182.938437 201.150811 
L 183.870357 200.759182 
L 184.802277 200.598345 
L 185.734198 200.665002 
L 186.666118 200.953738 
L 187.598038 201.457272 
L 188.529958 202.166738 
L 189.927839 203.594586 
L 191.325719 205.424555 
L 192.723599 207.615236 
L 194.58744 211.021958 
L 196.45128 214.885602 
L 199.247041 221.292097 
L 207.168363 240.06385 
L 209.498164 244.762689 
L 211.362005 247.987821 
L 212.759885 250.044524 
L 214.157765 251.764666 
L 215.555646 253.132613 
L 216.953526 254.139645 
L 218.351406 254.783372 
L 219.283327 255.012096 
L 220.215247 255.082944 
L 221.147167 254.999063 
L 222.545048 254.592041 
L 223.942928 253.86259 
L 225.340808 252.830628 
L 226.738689 251.51889 
L 228.602529 249.378213 
L 230.46637 246.848699 
L 232.79617 243.242153 
L 235.591931 238.436461 
L 239.785572 230.706372 
L 245.377094 220.472392 
L 248.172855 215.798651 
L 250.502655 212.295726 
L 252.366496 209.814088 
L 254.230336 207.661476 
L 256.094177 205.872572 
L 257.492057 204.786413 
L 258.889937 203.928619 
L 260.287818 203.303669 
L 261.685698 202.911811 
L 263.083579 202.748798 
L 264.481459 202.806079 
L 265.879339 203.071509 
L 267.27722 203.530515 
L 269.14106 204.416705 
L 271.004901 205.583741 
L 272.868741 207.000715 
L 275.198542 209.085276 
L 277.528343 211.479938 
L 280.324103 214.710198 
L 283.119864 218.275583 
L 286.381585 222.81551 
L 289.643306 227.767279 
L 292.905027 233.134171 
L 297.098668 240.494316 
L 305.01999 254.481137 
L 310.145551 263.026366 
L 314.805153 270.39752 
L 318.532834 275.895233 
L 321.794555 280.298578 
L 324.590315 283.719291 
L 327.386076 286.792535 
L 330.181837 289.512823 
L 332.977598 291.886743 
L 335.773358 293.932521 
L 338.569119 295.676844 
L 341.36488 297.149166 
L 344.160641 298.377344 
L 346.956401 299.387048 
L 350.218122 300.322735 
L 353.479843 301.037261 
L 357.207524 301.635811 
L 361.401165 302.094562 
L 366.526727 302.429171 
L 373.516129 302.639818 
L 388.426853 302.804606 
L 417.316381 302.8456 
L 461.8 302.8525 
L 461.8 302.8525 
" clip-path="url(#p840a4ed1cf)" style="fill: none; stroke: #f99752; stroke-width: 2.5; stroke-linecap: square"/>
   </g>
   <g id="patch_3">
    <path d="M 47.81 302.8525 
L 47.81 10.8 
" style="fill: none; stroke: #000000; stroke-width: 0.8; stroke-linejoin: miter; stroke-linecap: square"/>
   </g>
   <g id="patch_4">
    <path d="M 446.805 302.8525 
L 446.805 10.8 
" style="fill: none; stroke: #000000; stroke-width: 0.8; stroke-linejoin: miter; stroke-linecap: square"/>
   </g>
   <g id="patch_5">
    <path d="M 47.81 302.8525 
L 446.805 302.8525 
" style="fill: none; stroke: #000000; stroke-width: 0.8; stroke-linejoin: miter; stroke-linecap: square"/>
   </g>
   <g id="patch_6">
    <path d="M 47.81 10.8 
L 446.805 10.8 
" style="fill: none; stroke: #000000; stroke-width: 0.8; stroke-linejoin: miter; stroke-linecap: square"/>
   </g>
   <g id="legend_1">
    <g id="patch_7">
     <path d="M 364.359688 62.834375 
L 439.805 62.834375 
Q 441.805 62.834375 441.805 60.834375 
L 441.805 17.8 
Q 441.805 15.8 439.805 15.8 
L 364.359688 15.8 
Q 362.359688 15.8 362.359688 17.8 
L 362.359688 60.834375 
Q 362.359688 62.834375 364.359688 62.834375 
z
" style="fill: #ffffff; opacity: 0.8; stroke: #cccccc; stroke-linejoin: miter"/>
    </g>
    <g id="line2d_20">
     <path d="M 366.359688 23.898438 
L 376.359688 23.898438 
L 386.359688 23.898438 
" style="fill: none; stroke: #1e2e79; stroke-width: 2.5; stroke-linecap: square"/>
    </g>
    <g id="text_19">
     <!-- Reduced -->
     <g transform="translate(394.359688 27.398438) scale(0.1 -0.1)">
      <defs>
       <path id="DejaVuSans-64" d="M 2906 2969 
L 2906 4863 
L 3481 4863 
L 3481 0 
L 2906 0 
L 2906 525 
Q 2725 213 2448 61 
Q 2172 -91 1784 -91 
Q 1150 -91 751 415 
Q 353 922 353 1747 
Q 353 2572 751 3078 
Q 1150 3584 1784 3584 
Q 2172 3584 2448 3432 
Q 2725 3281 2906 2969 
z
M 947 1747 
Q 947 1113 1208 752 
Q 1469 391 1925 391 
Q 2381 391 2643 752 
Q 2906 1113 2906 1747 
Q 2906 2381 2643 2742 
Q 2381 3103 1925 3103 
Q 1469 3103 1208 2742 
Q 947 2381 947 1747 
z
" transform="scale(0.015625)"/>
       <path id="DejaVuSans-75" d="M 544 1381 
L 544 3500 
L 1119 3500 
L 1119 1403 
Q 1119 906 1312 657 
Q 1506 409 1894 409 
Q 2359 409 2629 706 
Q 2900 1003 2900 1516 
L 2900 3500 
L 3475 3500 
L 3475 0 
L 2900 0 
L 2900 538 
Q 2691 219 2414 64 
Q 2138 -91 1772 -91 
Q 1169 -91 856 284 
Q 544 659 544 1381 
z
M 1991 3584 
L 1991 3584 
z
" transform="scale(0.015625)"/>
      </defs>
      <use xlink:href="#DejaVuSans-52"/>
      <use xlink:href="#DejaVuSans-65" x="64.982422"/>
      <use xlink:href="#DejaVuSans-64" x="126.505859"/>
      <use xlink:href="#DejaVuSans-75" x="189.982422"/>
      <use xlink:href="#DejaVuSans-63" x="253.361328"/>
      <use xlink:href="#DejaVuSans-65" x="308.341797"/>
      <use xlink:href="#DejaVuSans-64" x="369.865234"/>
     </g>
    </g>
    <g id="line2d_21">
     <path d="M 366.359688 38.576563 
L 376.359688 38.576563 
L 386.359688 38.576563 
" style="fill: none; stroke: #ec4067; stroke-width: 2.5; stroke-linecap: square"/>
    </g>
    <g id="text_20">
     <!-- Oxidized -->
     <g transform="translate(394.359688 42.076563) scale(0.1 -0.1)">
      <defs>
       <path id="DejaVuSans-78" d="M 3513 3500 
L 2247 1797 
L 3578 0 
L 2900 0 
L 1881 1375 
L 863 0 
L 184 0 
L 1544 1831 
L 300 3500 
L 978 3500 
L 1906 2253 
L 2834 3500 
L 3513 3500 
z
" transform="scale(0.015625)"/>
       <path id="DejaVuSans-7a" d="M 353 3500 
L 3084 3500 
L 3084 2975 
L 922 459 
L 3084 459 
L 3084 0 
L 275 0 
L 275 525 
L 2438 3041 
L 353 3041 
L 353 3500 
z
" transform="scale(0.015625)"/>
      </defs>
      <use xlink:href="#DejaVuSans-4f"/>
      <use xlink:href="#DejaVuSans-78" x="78.710938"/>
      <use xlink:href="#DejaVuSans-69" x="137.890625"/>
      <use xlink:href="#DejaVuSans-64" x="165.673828"/>
      <use xlink:href="#DejaVuSans-69" x="229.150391"/>
      <use xlink:href="#DejaVuSans-7a" x="256.933594"/>
      <use xlink:href="#DejaVuSans-65" x="309.423828"/>
      <use xlink:href="#DejaVuSans-64" x="370.947266"/>
     </g>
    </g>
    <g id="line2d_22">
     <path d="M 366.359688 53.254687 
L 376.359688 53.254687 
L 386.359688 53.254687 
" style="fill: none; stroke: #f99752; stroke-width: 2.5; stroke-linecap: square"/>
    </g>
    <g id="text_21">
     <!-- Cu$^{+}$ -->
     <g transform="translate(394.359688 56.754687) scale(0.1 -0.1)">
      <defs>
       <path id="DejaVuSans-2b" d="M 2944 4013 
L 2944 2272 
L 4684 2272 
L 4684 1741 
L 2944 1741 
L 2944 0 
L 2419 0 
L 2419 1741 
L 678 1741 
L 678 2272 
L 2419 2272 
L 2419 4013 
L 2944 4013 
z
" transform="scale(0.015625)"/>
      </defs>
      <use xlink:href="#DejaVuSans-43" transform="translate(0 0.826562)"/>
      <use xlink:href="#DejaVuSans-75" transform="translate(69.824219 0.826562)"/>
      <use xlink:href="#DejaVuSans-2b" transform="translate(134.160156 39.107812) scale(0.7)"/>
     </g>
    </g>
   </g>
  </g>
 </g>
 <defs>
  <clipPath id="p840a4ed1cf">
   <rect x="47.81" y="10.8" width="398.995" height="292.0525"/>
  </clipPath>
 </defs>
</svg>
