<?xml version="1.0" encoding="utf-8" standalone="no"?>
<!DOCTYPE svg PUBLIC "-//W3C//DTD SVG 1.1//EN"
  "http://www.w3.org/Graphics/SVG/1.1/DTD/svg11.dtd">
<svg xmlns:xlink="http://www.w3.org/1999/xlink" width="460.8pt" height="345.6pt" viewBox="0 0 460.8 345.6" xmlns="http://www.w3.org/2000/svg" version="1.1">
 <metadata>
  <rdf:RDF xmlns:dc="http://purl.org/dc/elements/1.1/" xmlns:cc="http://creativecommons.org/ns#" xmlns:rdf="http://www.w3.org/1999/02/22-rdf-syntax-ns#">
   <cc:Work>
    <dc:type rdf:resource="http://purl.org/dc/dcmitype/StillImage"/>
    <dc:date>2024-07-07T13:53:30.786955</dc:date>
    <dc:format>image/svg+xml</dc:format>
    <dc:creator>
     <cc:Agent>
      <dc:title>Matplotlib v3.8.4, https://matplotlib.org/</dc:title>
     </cc:Agent>
    </dc:creator>
   </cc:Work>
  </rdf:RDF>
 </metadata>
 <defs>
  <style type="text/css">*{stroke-linejoin: round; stroke-linecap: butt}</style>
 </defs>
 <g id="figure_1">
  <g id="patch_1">
   <path d="M 0 345.6 
L 460.8 345.6 
L 460.8 0 
L 0 0 
z
" style="fill: #ffffff"/>
  </g>
  <g id="axes_1">
   <g id="patch_2">
    <path d="M 54.902 298.6 
L 447.84 298.6 
L 447.84 12.96 
L 54.902 12.96 
z
" style="fill: #ffffff"/>
   </g>
   <g id="patch_3">
    <path d="M 57.127981 298.6 
L 61.48808 298.6 
L 61.48808 297.829376 
L 57.127981 297.829376 
z
" clip-path="url(#p102533de4d)" style="fill: #1e2e79; fill-opacity: 0.5; stroke: #000000; stroke-width: 0.33128; stroke-linejoin: miter"/>
   </g>
   <g id="patch_4">
    <path d="M 61.48808 298.6 
L 65.848178 298.6 
L 65.848178 287.348893 
L 61.48808 287.348893 
z
" clip-path="url(#p102533de4d)" style="fill: #1e2e79; fill-opacity: 0.5; stroke: #000000; stroke-width: 0.33128; stroke-linejoin: miter"/>
   </g>
   <g id="patch_5">
    <path d="M 65.848178 298.6 
L 70.208276 298.6 
L 70.208276 249.357139 
L 65.848178 249.357139 
z
" clip-path="url(#p102533de4d)" style="fill: #1e2e79; fill-opacity: 0.5; stroke: #000000; stroke-width: 0.33128; stroke-linejoin: miter"/>
   </g>
   <g id="patch_6">
    <path d="M 70.208276 298.6 
L 74.568374 298.6 
L 74.568374 164.280272 
L 70.208276 164.280272 
z
" clip-path="url(#p102533de4d)" style="fill: #1e2e79; fill-opacity: 0.5; stroke: #000000; stroke-width: 0.33128; stroke-linejoin: miter"/>
   </g>
   <g id="patch_7">
    <path d="M 74.568374 298.6 
L 78.928473 298.6 
L 78.928473 78.047469 
L 74.568374 78.047469 
z
" clip-path="url(#p102533de4d)" style="fill: #1e2e79; fill-opacity: 0.5; stroke: #000000; stroke-width: 0.33128; stroke-linejoin: miter"/>
   </g>
   <g id="patch_8">
    <path d="M 78.928473 298.6 
L 83.288571 298.6 
L 83.288571 32.580664 
L 78.928473 32.580664 
z
" clip-path="url(#p102533de4d)" style="fill: #1e2e79; fill-opacity: 0.5; stroke: #000000; stroke-width: 0.33128; stroke-linejoin: miter"/>
   </g>
   <g id="patch_9">
    <path d="M 83.288571 298.6 
L 87.648669 298.6 
L 87.648669 31.964165 
L 83.288571 31.964165 
z
" clip-path="url(#p102533de4d)" style="fill: #1e2e79; fill-opacity: 0.5; stroke: #000000; stroke-width: 0.33128; stroke-linejoin: miter"/>
   </g>
   <g id="patch_10">
    <path d="M 87.648669 298.6 
L 92.008767 298.6 
L 92.008767 48.147265 
L 87.648669 48.147265 
z
" clip-path="url(#p102533de4d)" style="fill: #1e2e79; fill-opacity: 0.5; stroke: #000000; stroke-width: 0.33128; stroke-linejoin: miter"/>
   </g>
   <g id="patch_11">
    <path d="M 92.008767 298.6 
L 96.368866 298.6 
L 96.368866 91.610447 
L 92.008767 91.610447 
z
" clip-path="url(#p102533de4d)" style="fill: #1e2e79; fill-opacity: 0.5; stroke: #000000; stroke-width: 0.33128; stroke-linejoin: miter"/>
   </g>
   <g id="patch_12">
    <path d="M 96.368866 298.6 
L 100.728964 298.6 
L 100.728964 127.752704 
L 96.368866 127.752704 
z
" clip-path="url(#p102533de4d)" style="fill: #1e2e79; fill-opacity: 0.5; stroke: #000000; stroke-width: 0.33128; stroke-linejoin: miter"/>
   </g>
   <g id="patch_13">
    <path d="M 100.728964 298.6 
L 105.089062 298.6 
L 105.089062 144.089928 
L 100.728964 144.089928 
z
" clip-path="url(#p102533de4d)" style="fill: #1e2e79; fill-opacity: 0.5; stroke: #000000; stroke-width: 0.33128; stroke-linejoin: miter"/>
   </g>
   <g id="patch_14">
    <path d="M 105.089062 298.6 
L 109.44916 298.6 
L 109.44916 152.181478 
L 105.089062 152.181478 
z
" clip-path="url(#p102533de4d)" style="fill: #1e2e79; fill-opacity: 0.5; stroke: #000000; stroke-width: 0.33128; stroke-linejoin: miter"/>
   </g>
   <g id="patch_15">
    <path d="M 109.44916 298.6 
L 113.809259 298.6 
L 113.809259 161.891338 
L 109.44916 161.891338 
z
" clip-path="url(#p102533de4d)" style="fill: #1e2e79; fill-opacity: 0.5; stroke: #000000; stroke-width: 0.33128; stroke-linejoin: miter"/>
   </g>
   <g id="patch_16">
    <path d="M 113.809259 298.6 
L 118.169357 298.6 
L 118.169357 169.905825 
L 113.809259 169.905825 
z
" clip-path="url(#p102533de4d)" style="fill: #1e2e79; fill-opacity: 0.5; stroke: #000000; stroke-width: 0.33128; stroke-linejoin: miter"/>
   </g>
   <g id="patch_17">
    <path d="M 118.169357 298.6 
L 122.529455 298.6 
L 122.529455 173.527757 
L 118.169357 173.527757 
z
" clip-path="url(#p102533de4d)" style="fill: #1e2e79; fill-opacity: 0.5; stroke: #000000; stroke-width: 0.33128; stroke-linejoin: miter"/>
   </g>
   <g id="patch_18">
    <path d="M 122.529455 298.6 
L 126.889553 298.6 
L 126.889553 167.13158 
L 122.529455 167.13158 
z
" clip-path="url(#p102533de4d)" style="fill: #1e2e79; fill-opacity: 0.5; stroke: #000000; stroke-width: 0.33128; stroke-linejoin: miter"/>
   </g>
   <g id="patch_19">
    <path d="M 126.889553 298.6 
L 131.249652 298.6 
L 131.249652 170.137013 
L 126.889553 170.137013 
z
" clip-path="url(#p102533de4d)" style="fill: #1e2e79; fill-opacity: 0.5; stroke: #000000; stroke-width: 0.33128; stroke-linejoin: miter"/>
   </g>
   <g id="patch_20">
    <path d="M 131.249652 298.6 
L 135.60975 298.6 
L 135.60975 157.344658 
L 131.249652 157.344658 
z
" clip-path="url(#p102533de4d)" style="fill: #1e2e79; fill-opacity: 0.5; stroke: #000000; stroke-width: 0.33128; stroke-linejoin: miter"/>
   </g>
   <g id="patch_21">
    <path d="M 135.60975 298.6 
L 139.969848 298.6 
L 139.969848 155.572223 
L 135.60975 155.572223 
z
" clip-path="url(#p102533de4d)" style="fill: #1e2e79; fill-opacity: 0.5; stroke: #000000; stroke-width: 0.33128; stroke-linejoin: miter"/>
   </g>
   <g id="patch_22">
    <path d="M 139.969848 298.6 
L 144.329946 298.6 
L 144.329946 148.174234 
L 139.969848 148.174234 
z
" clip-path="url(#p102533de4d)" style="fill: #1e2e79; fill-opacity: 0.5; stroke: #000000; stroke-width: 0.33128; stroke-linejoin: miter"/>
   </g>
   <g id="patch_23">
    <path d="M 144.329946 298.6 
L 148.690044 298.6 
L 148.690044 140.853308 
L 144.329946 140.853308 
z
" clip-path="url(#p102533de4d)" style="fill: #1e2e79; fill-opacity: 0.5; stroke: #000000; stroke-width: 0.33128; stroke-linejoin: miter"/>
   </g>
   <g id="patch_24">
    <path d="M 148.690044 298.6 
L 153.050143 298.6 
L 153.050143 136.152503 
L 148.690044 136.152503 
z
" clip-path="url(#p102533de4d)" style="fill: #1e2e79; fill-opacity: 0.5; stroke: #000000; stroke-width: 0.33128; stroke-linejoin: miter"/>
   </g>
   <g id="patch_25">
    <path d="M 153.050143 298.6 
L 157.410241 298.6 
L 157.410241 127.213267 
L 153.050143 127.213267 
z
" clip-path="url(#p102533de4d)" style="fill: #1e2e79; fill-opacity: 0.5; stroke: #000000; stroke-width: 0.33128; stroke-linejoin: miter"/>
   </g>
   <g id="patch_26">
    <path d="M 157.410241 298.6 
L 161.770339 298.6 
L 161.770339 121.741838 
L 157.410241 121.741838 
z
" clip-path="url(#p102533de4d)" style="fill: #1e2e79; fill-opacity: 0.5; stroke: #000000; stroke-width: 0.33128; stroke-linejoin: miter"/>
   </g>
   <g id="patch_27">
    <path d="M 161.770339 298.6 
L 166.130437 298.6 
L 166.130437 107.177048 
L 161.770339 107.177048 
z
" clip-path="url(#p102533de4d)" style="fill: #1e2e79; fill-opacity: 0.5; stroke: #000000; stroke-width: 0.33128; stroke-linejoin: miter"/>
   </g>
   <g id="patch_28">
    <path d="M 166.130437 298.6 
L 170.490536 298.6 
L 170.490536 102.476243 
L 166.130437 102.476243 
z
" clip-path="url(#p102533de4d)" style="fill: #1e2e79; fill-opacity: 0.5; stroke: #000000; stroke-width: 0.33128; stroke-linejoin: miter"/>
   </g>
   <g id="patch_29">
    <path d="M 170.490536 298.6 
L 174.850634 298.6 
L 174.850634 95.232379 
L 170.490536 95.232379 
z
" clip-path="url(#p102533de4d)" style="fill: #1e2e79; fill-opacity: 0.5; stroke: #000000; stroke-width: 0.33128; stroke-linejoin: miter"/>
   </g>
   <g id="patch_30">
    <path d="M 174.850634 298.6 
L 179.210732 298.6 
L 179.210732 89.992137 
L 174.850634 89.992137 
z
" clip-path="url(#p102533de4d)" style="fill: #1e2e79; fill-opacity: 0.5; stroke: #000000; stroke-width: 0.33128; stroke-linejoin: miter"/>
   </g>
   <g id="patch_31">
    <path d="M 179.210732 298.6 
L 183.57083 298.6 
L 183.57083 85.445457 
L 179.210732 85.445457 
z
" clip-path="url(#p102533de4d)" style="fill: #1e2e79; fill-opacity: 0.5; stroke: #000000; stroke-width: 0.33128; stroke-linejoin: miter"/>
   </g>
   <g id="patch_32">
    <path d="M 183.57083 298.6 
L 187.930929 298.6 
L 187.930929 72.498977 
L 183.57083 72.498977 
z
" clip-path="url(#p102533de4d)" style="fill: #1e2e79; fill-opacity: 0.5; stroke: #000000; stroke-width: 0.33128; stroke-linejoin: miter"/>
   </g>
   <g id="patch_33">
    <path d="M 187.930929 298.6 
L 192.291027 298.6 
L 192.291027 78.124531 
L 187.930929 78.124531 
z
" clip-path="url(#p102533de4d)" style="fill: #1e2e79; fill-opacity: 0.5; stroke: #000000; stroke-width: 0.33128; stroke-linejoin: miter"/>
   </g>
   <g id="patch_34">
    <path d="M 192.291027 298.6 
L 196.651125 298.6 
L 196.651125 62.095556 
L 192.291027 62.095556 
z
" clip-path="url(#p102533de4d)" style="fill: #1e2e79; fill-opacity: 0.5; stroke: #000000; stroke-width: 0.33128; stroke-linejoin: miter"/>
   </g>
   <g id="patch_35">
    <path d="M 196.651125 298.6 
L 201.011223 298.6 
L 201.011223 63.945053 
L 196.651125 63.945053 
z
" clip-path="url(#p102533de4d)" style="fill: #1e2e79; fill-opacity: 0.5; stroke: #000000; stroke-width: 0.33128; stroke-linejoin: miter"/>
   </g>
   <g id="patch_36">
    <path d="M 201.011223 298.6 
L 205.371322 298.6 
L 205.371322 63.636803 
L 201.011223 63.636803 
z
" clip-path="url(#p102533de4d)" style="fill: #1e2e79; fill-opacity: 0.5; stroke: #000000; stroke-width: 0.33128; stroke-linejoin: miter"/>
   </g>
   <g id="patch_37">
    <path d="M 205.371322 298.6 
L 209.73142 298.6 
L 209.73142 65.640425 
L 205.371322 65.640425 
z
" clip-path="url(#p102533de4d)" style="fill: #1e2e79; fill-opacity: 0.5; stroke: #000000; stroke-width: 0.33128; stroke-linejoin: miter"/>
   </g>
   <g id="patch_38">
    <path d="M 209.73142 298.6 
L 214.091518 298.6 
L 214.091518 65.948675 
L 209.73142 65.948675 
z
" clip-path="url(#p102533de4d)" style="fill: #1e2e79; fill-opacity: 0.5; stroke: #000000; stroke-width: 0.33128; stroke-linejoin: miter"/>
   </g>
   <g id="patch_39">
    <path d="M 214.091518 298.6 
L 218.451616 298.6 
L 218.451616 68.645858 
L 214.091518 68.645858 
z
" clip-path="url(#p102533de4d)" style="fill: #1e2e79; fill-opacity: 0.5; stroke: #000000; stroke-width: 0.33128; stroke-linejoin: miter"/>
   </g>
   <g id="patch_40">
    <path d="M 218.451616 298.6 
L 222.811715 298.6 
L 222.811715 69.878856 
L 218.451616 69.878856 
z
" clip-path="url(#p102533de4d)" style="fill: #1e2e79; fill-opacity: 0.5; stroke: #000000; stroke-width: 0.33128; stroke-linejoin: miter"/>
   </g>
   <g id="patch_41">
    <path d="M 222.811715 298.6 
L 227.171813 298.6 
L 227.171813 69.724732 
L 222.811715 69.724732 
z
" clip-path="url(#p102533de4d)" style="fill: #1e2e79; fill-opacity: 0.5; stroke: #000000; stroke-width: 0.33128; stroke-linejoin: miter"/>
   </g>
   <g id="patch_42">
    <path d="M 227.171813 298.6 
L 231.531911 298.6 
L 231.531911 67.104611 
L 227.171813 67.104611 
z
" clip-path="url(#p102533de4d)" style="fill: #1e2e79; fill-opacity: 0.5; stroke: #000000; stroke-width: 0.33128; stroke-linejoin: miter"/>
   </g>
   <g id="patch_43">
    <path d="M 231.531911 298.6 
L 235.892009 298.6 
L 235.892009 68.491733 
L 231.531911 68.491733 
z
" clip-path="url(#p102533de4d)" style="fill: #1e2e79; fill-opacity: 0.5; stroke: #000000; stroke-width: 0.33128; stroke-linejoin: miter"/>
   </g>
   <g id="patch_44">
    <path d="M 235.892009 298.6 
L 240.252108 298.6 
L 240.252108 71.343041 
L 235.892009 71.343041 
z
" clip-path="url(#p102533de4d)" style="fill: #1e2e79; fill-opacity: 0.5; stroke: #000000; stroke-width: 0.33128; stroke-linejoin: miter"/>
   </g>
   <g id="patch_45">
    <path d="M 240.252108 298.6 
L 244.612206 298.6 
L 244.612206 62.943242 
L 240.252108 62.943242 
z
" clip-path="url(#p102533de4d)" style="fill: #1e2e79; fill-opacity: 0.5; stroke: #000000; stroke-width: 0.33128; stroke-linejoin: miter"/>
   </g>
   <g id="patch_46">
    <path d="M 244.612206 298.6 
L 248.972304 298.6 
L 248.972304 56.39294 
L 244.612206 56.39294 
z
" clip-path="url(#p102533de4d)" style="fill: #1e2e79; fill-opacity: 0.5; stroke: #000000; stroke-width: 0.33128; stroke-linejoin: miter"/>
   </g>
   <g id="patch_47">
    <path d="M 248.972304 298.6 
L 253.332402 298.6 
L 253.332402 63.867991 
L 248.972304 63.867991 
z
" clip-path="url(#p102533de4d)" style="fill: #1e2e79; fill-opacity: 0.5; stroke: #000000; stroke-width: 0.33128; stroke-linejoin: miter"/>
   </g>
   <g id="patch_48">
    <path d="M 253.332402 298.6 
L 257.692501 298.6 
L 257.692501 45.218895 
L 253.332402 45.218895 
z
" clip-path="url(#p102533de4d)" style="fill: #1e2e79; fill-opacity: 0.5; stroke: #000000; stroke-width: 0.33128; stroke-linejoin: miter"/>
   </g>
   <g id="patch_49">
    <path d="M 257.692501 298.6 
L 262.052599 298.6 
L 262.052599 40.51809 
L 257.692501 40.51809 
z
" clip-path="url(#p102533de4d)" style="fill: #1e2e79; fill-opacity: 0.5; stroke: #000000; stroke-width: 0.33128; stroke-linejoin: miter"/>
   </g>
   <g id="patch_50">
    <path d="M 262.052599 298.6 
L 266.412697 298.6 
L 266.412697 42.367587 
L 262.052599 42.367587 
z
" clip-path="url(#p102533de4d)" style="fill: #1e2e79; fill-opacity: 0.5; stroke: #000000; stroke-width: 0.33128; stroke-linejoin: miter"/>
   </g>
   <g id="patch_51">
    <path d="M 266.412697 298.6 
L 270.772795 298.6 
L 270.772795 41.134589 
L 266.412697 41.134589 
z
" clip-path="url(#p102533de4d)" style="fill: #1e2e79; fill-opacity: 0.5; stroke: #000000; stroke-width: 0.33128; stroke-linejoin: miter"/>
   </g>
   <g id="patch_52">
    <path d="M 270.772795 298.6 
L 275.132894 298.6 
L 275.132894 52.925133 
L 270.772795 52.925133 
z
" clip-path="url(#p102533de4d)" style="fill: #1e2e79; fill-opacity: 0.5; stroke: #000000; stroke-width: 0.33128; stroke-linejoin: miter"/>
   </g>
   <g id="patch_53">
    <path d="M 275.132894 298.6 
L 279.492992 298.6 
L 279.492992 51.846259 
L 275.132894 51.846259 
z
" clip-path="url(#p102533de4d)" style="fill: #1e2e79; fill-opacity: 0.5; stroke: #000000; stroke-width: 0.33128; stroke-linejoin: miter"/>
   </g>
   <g id="patch_54">
    <path d="M 279.492992 298.6 
L 283.85309 298.6 
L 283.85309 73.500788 
L 279.492992 73.500788 
z
" clip-path="url(#p102533de4d)" style="fill: #1e2e79; fill-opacity: 0.5; stroke: #000000; stroke-width: 0.33128; stroke-linejoin: miter"/>
   </g>
   <g id="patch_55">
    <path d="M 283.85309 298.6 
L 288.213188 298.6 
L 288.213188 102.090931 
L 283.85309 102.090931 
z
" clip-path="url(#p102533de4d)" style="fill: #1e2e79; fill-opacity: 0.5; stroke: #000000; stroke-width: 0.33128; stroke-linejoin: miter"/>
   </g>
   <g id="patch_56">
    <path d="M 288.213188 298.6 
L 292.573286 298.6 
L 292.573286 121.664776 
L 288.213188 121.664776 
z
" clip-path="url(#p102533de4d)" style="fill: #1e2e79; fill-opacity: 0.5; stroke: #000000; stroke-width: 0.33128; stroke-linejoin: miter"/>
   </g>
   <g id="patch_57">
    <path d="M 292.573286 298.6 
L 296.933385 298.6 
L 296.933385 134.688318 
L 292.573286 134.688318 
z
" clip-path="url(#p102533de4d)" style="fill: #1e2e79; fill-opacity: 0.5; stroke: #000000; stroke-width: 0.33128; stroke-linejoin: miter"/>
   </g>
   <g id="patch_58">
    <path d="M 296.933385 298.6 
L 301.293483 298.6 
L 301.293483 157.036408 
L 296.933385 157.036408 
z
" clip-path="url(#p102533de4d)" style="fill: #1e2e79; fill-opacity: 0.5; stroke: #000000; stroke-width: 0.33128; stroke-linejoin: miter"/>
   </g>
   <g id="patch_59">
    <path d="M 301.293483 298.6 
L 305.653581 298.6 
L 305.653581 182.698181 
L 301.293483 182.698181 
z
" clip-path="url(#p102533de4d)" style="fill: #1e2e79; fill-opacity: 0.5; stroke: #000000; stroke-width: 0.33128; stroke-linejoin: miter"/>
   </g>
   <g id="patch_60">
    <path d="M 305.653581 298.6 
L 310.013679 298.6 
L 310.013679 192.485103 
L 305.653581 192.485103 
z
" clip-path="url(#p102533de4d)" style="fill: #1e2e79; fill-opacity: 0.5; stroke: #000000; stroke-width: 0.33128; stroke-linejoin: miter"/>
   </g>
   <g id="patch_61">
    <path d="M 310.013679 298.6 
L 314.373778 298.6 
L 314.373778 215.526754 
L 310.013679 215.526754 
z
" clip-path="url(#p102533de4d)" style="fill: #1e2e79; fill-opacity: 0.5; stroke: #000000; stroke-width: 0.33128; stroke-linejoin: miter"/>
   </g>
   <g id="patch_62">
    <path d="M 314.373778 298.6 
L 318.733876 298.6 
L 318.733876 220.612871 
L 314.373778 220.612871 
z
" clip-path="url(#p102533de4d)" style="fill: #1e2e79; fill-opacity: 0.5; stroke: #000000; stroke-width: 0.33128; stroke-linejoin: miter"/>
   </g>
   <g id="patch_63">
    <path d="M 318.733876 298.6 
L 323.093974 298.6 
L 323.093974 237.72072 
L 318.733876 237.72072 
z
" clip-path="url(#p102533de4d)" style="fill: #1e2e79; fill-opacity: 0.5; stroke: #000000; stroke-width: 0.33128; stroke-linejoin: miter"/>
   </g>
   <g id="patch_64">
    <path d="M 323.093974 298.6 
L 327.454072 298.6 
L 327.454072 247.892954 
L 323.093974 247.892954 
z
" clip-path="url(#p102533de4d)" style="fill: #1e2e79; fill-opacity: 0.5; stroke: #000000; stroke-width: 0.33128; stroke-linejoin: miter"/>
   </g>
   <g id="patch_65">
    <path d="M 327.454072 298.6 
L 331.814171 298.6 
L 331.814171 257.834001 
L 327.454072 257.834001 
z
" clip-path="url(#p102533de4d)" style="fill: #1e2e79; fill-opacity: 0.5; stroke: #000000; stroke-width: 0.33128; stroke-linejoin: miter"/>
   </g>
   <g id="patch_66">
    <path d="M 331.814171 298.6 
L 336.174269 298.6 
L 336.174269 262.303619 
L 331.814171 262.303619 
z
" clip-path="url(#p102533de4d)" style="fill: #1e2e79; fill-opacity: 0.5; stroke: #000000; stroke-width: 0.33128; stroke-linejoin: miter"/>
   </g>
   <g id="patch_67">
    <path d="M 336.174269 298.6 
L 340.534367 298.6 
L 340.534367 269.162171 
L 336.174269 269.162171 
z
" clip-path="url(#p102533de4d)" style="fill: #1e2e79; fill-opacity: 0.5; stroke: #000000; stroke-width: 0.33128; stroke-linejoin: miter"/>
   </g>
   <g id="patch_68">
    <path d="M 340.534367 298.6 
L 344.894465 298.6 
L 344.894465 271.011668 
L 340.534367 271.011668 
z
" clip-path="url(#p102533de4d)" style="fill: #1e2e79; fill-opacity: 0.5; stroke: #000000; stroke-width: 0.33128; stroke-linejoin: miter"/>
   </g>
   <g id="patch_69">
    <path d="M 344.894465 298.6 
L 349.254564 298.6 
L 349.254564 276.868409 
L 344.894465 276.868409 
z
" clip-path="url(#p102533de4d)" style="fill: #1e2e79; fill-opacity: 0.5; stroke: #000000; stroke-width: 0.33128; stroke-linejoin: miter"/>
   </g>
   <g id="patch_70">
    <path d="M 349.254564 298.6 
L 353.614662 298.6 
L 353.614662 278.178469 
L 349.254564 278.178469 
z
" clip-path="url(#p102533de4d)" style="fill: #1e2e79; fill-opacity: 0.5; stroke: #000000; stroke-width: 0.33128; stroke-linejoin: miter"/>
   </g>
   <g id="patch_71">
    <path d="M 353.614662 298.6 
L 357.97476 298.6 
L 357.97476 281.723339 
L 353.614662 281.723339 
z
" clip-path="url(#p102533de4d)" style="fill: #1e2e79; fill-opacity: 0.5; stroke: #000000; stroke-width: 0.33128; stroke-linejoin: miter"/>
   </g>
   <g id="patch_72">
    <path d="M 357.97476 298.6 
L 362.334858 298.6 
L 362.334858 283.572836 
L 357.97476 283.572836 
z
" clip-path="url(#p102533de4d)" style="fill: #1e2e79; fill-opacity: 0.5; stroke: #000000; stroke-width: 0.33128; stroke-linejoin: miter"/>
   </g>
   <g id="patch_73">
    <path d="M 362.334858 298.6 
L 366.694957 298.6 
L 366.694957 284.574647 
L 362.334858 284.574647 
z
" clip-path="url(#p102533de4d)" style="fill: #1e2e79; fill-opacity: 0.5; stroke: #000000; stroke-width: 0.33128; stroke-linejoin: miter"/>
   </g>
   <g id="patch_74">
    <path d="M 366.694957 298.6 
L 371.055055 298.6 
L 371.055055 287.657142 
L 366.694957 287.657142 
z
" clip-path="url(#p102533de4d)" style="fill: #1e2e79; fill-opacity: 0.5; stroke: #000000; stroke-width: 0.33128; stroke-linejoin: miter"/>
   </g>
   <g id="patch_75">
    <path d="M 371.055055 298.6 
L 375.415153 298.6 
L 375.415153 287.888329 
L 371.055055 287.888329 
z
" clip-path="url(#p102533de4d)" style="fill: #1e2e79; fill-opacity: 0.5; stroke: #000000; stroke-width: 0.33128; stroke-linejoin: miter"/>
   </g>
   <g id="patch_76">
    <path d="M 375.415153 298.6 
L 379.775251 298.6 
L 379.775251 290.200201 
L 375.415153 290.200201 
z
" clip-path="url(#p102533de4d)" style="fill: #1e2e79; fill-opacity: 0.5; stroke: #000000; stroke-width: 0.33128; stroke-linejoin: miter"/>
   </g>
   <g id="patch_77">
    <path d="M 379.775251 298.6 
L 384.13535 298.6 
L 384.13535 291.356136 
L 379.775251 291.356136 
z
" clip-path="url(#p102533de4d)" style="fill: #1e2e79; fill-opacity: 0.5; stroke: #000000; stroke-width: 0.33128; stroke-linejoin: miter"/>
   </g>
   <g id="patch_78">
    <path d="M 384.13535 298.6 
L 388.495448 298.6 
L 388.495448 291.741448 
L 384.13535 291.741448 
z
" clip-path="url(#p102533de4d)" style="fill: #1e2e79; fill-opacity: 0.5; stroke: #000000; stroke-width: 0.33128; stroke-linejoin: miter"/>
   </g>
   <g id="patch_79">
    <path d="M 388.495448 298.6 
L 392.855546 298.6 
L 392.855546 293.822132 
L 388.495448 293.822132 
z
" clip-path="url(#p102533de4d)" style="fill: #1e2e79; fill-opacity: 0.5; stroke: #000000; stroke-width: 0.33128; stroke-linejoin: miter"/>
   </g>
   <g id="patch_80">
    <path d="M 392.855546 298.6 
L 397.215644 298.6 
L 397.215644 294.978068 
L 392.855546 294.978068 
z
" clip-path="url(#p102533de4d)" style="fill: #1e2e79; fill-opacity: 0.5; stroke: #000000; stroke-width: 0.33128; stroke-linejoin: miter"/>
   </g>
   <g id="patch_81">
    <path d="M 397.215644 298.6 
L 401.575743 298.6 
L 401.575743 294.746881 
L 397.215644 294.746881 
z
" clip-path="url(#p102533de4d)" style="fill: #1e2e79; fill-opacity: 0.5; stroke: #000000; stroke-width: 0.33128; stroke-linejoin: miter"/>
   </g>
   <g id="patch_82">
    <path d="M 401.575743 298.6 
L 405.935841 298.6 
L 405.935841 295.517505 
L 401.575743 295.517505 
z
" clip-path="url(#p102533de4d)" style="fill: #1e2e79; fill-opacity: 0.5; stroke: #000000; stroke-width: 0.33128; stroke-linejoin: miter"/>
   </g>
   <g id="patch_83">
    <path d="M 405.935841 298.6 
L 410.295939 298.6 
L 410.295939 296.596378 
L 405.935841 296.596378 
z
" clip-path="url(#p102533de4d)" style="fill: #1e2e79; fill-opacity: 0.5; stroke: #000000; stroke-width: 0.33128; stroke-linejoin: miter"/>
   </g>
   <g id="patch_84">
    <path d="M 410.295939 298.6 
L 414.656037 298.6 
L 414.656037 296.673441 
L 410.295939 296.673441 
z
" clip-path="url(#p102533de4d)" style="fill: #1e2e79; fill-opacity: 0.5; stroke: #000000; stroke-width: 0.33128; stroke-linejoin: miter"/>
   </g>
   <g id="patch_85">
    <path d="M 414.656037 298.6 
L 419.016136 298.6 
L 419.016136 296.98169 
L 414.656037 296.98169 
z
" clip-path="url(#p102533de4d)" style="fill: #1e2e79; fill-opacity: 0.5; stroke: #000000; stroke-width: 0.33128; stroke-linejoin: miter"/>
   </g>
   <g id="patch_86">
    <path d="M 419.016136 298.6 
L 423.376234 298.6 
L 423.376234 297.444064 
L 419.016136 297.444064 
z
" clip-path="url(#p102533de4d)" style="fill: #1e2e79; fill-opacity: 0.5; stroke: #000000; stroke-width: 0.33128; stroke-linejoin: miter"/>
   </g>
   <g id="patch_87">
    <path d="M 423.376234 298.6 
L 427.736332 298.6 
L 427.736332 297.521127 
L 423.376234 297.521127 
z
" clip-path="url(#p102533de4d)" style="fill: #1e2e79; fill-opacity: 0.5; stroke: #000000; stroke-width: 0.33128; stroke-linejoin: miter"/>
   </g>
   <g id="patch_88">
    <path d="M 427.736332 298.6 
L 432.09643 298.6 
L 432.09643 297.983501 
L 427.736332 297.983501 
z
" clip-path="url(#p102533de4d)" style="fill: #1e2e79; fill-opacity: 0.5; stroke: #000000; stroke-width: 0.33128; stroke-linejoin: miter"/>
   </g>
   <g id="patch_89">
    <path d="M 432.09643 298.6 
L 436.456529 298.6 
L 436.456529 298.137626 
L 432.09643 298.137626 
z
" clip-path="url(#p102533de4d)" style="fill: #1e2e79; fill-opacity: 0.5; stroke: #000000; stroke-width: 0.33128; stroke-linejoin: miter"/>
   </g>
   <g id="patch_90">
    <path d="M 436.456529 298.6 
L 440.816627 298.6 
L 440.816627 298.445875 
L 436.456529 298.445875 
z
" clip-path="url(#p102533de4d)" style="fill: #1e2e79; fill-opacity: 0.5; stroke: #000000; stroke-width: 0.33128; stroke-linejoin: miter"/>
   </g>
   <g id="patch_91">
    <path d="M 440.816627 298.6 
L 445.176725 298.6 
L 445.176725 298.214688 
L 440.816627 298.214688 
z
" clip-path="url(#p102533de4d)" style="fill: #1e2e79; fill-opacity: 0.5; stroke: #000000; stroke-width: 0.33128; stroke-linejoin: miter"/>
   </g>
   <g id="patch_92">
    <path d="M 445.176725 298.6 
L 449.536823 298.6 
L 449.536823 298.445875 
L 445.176725 298.445875 
z
" clip-path="url(#p102533de4d)" style="fill: #1e2e79; fill-opacity: 0.5; stroke: #000000; stroke-width: 0.33128; stroke-linejoin: miter"/>
   </g>
   <g id="patch_93">
    <path d="M 449.536823 298.6 
L 453.896921 298.6 
L 453.896921 298.6 
L 449.536823 298.6 
z
" clip-path="url(#p102533de4d)" style="fill: #1e2e79; fill-opacity: 0.5; stroke: #000000; stroke-width: 0.33128; stroke-linejoin: miter"/>
   </g>
   <g id="patch_94">
    <path d="M 453.896921 298.6 
L 458.25702 298.6 
L 458.25702 298.6 
L 453.896921 298.6 
z
" clip-path="url(#p102533de4d)" style="fill: #1e2e79; fill-opacity: 0.5; stroke: #000000; stroke-width: 0.33128; stroke-linejoin: miter"/>
   </g>
   <g id="patch_95">
    <path d="M 458.25702 298.6 
L 462.617118 298.6 
L 462.617118 298.445875 
L 458.25702 298.445875 
z
" clip-path="url(#p102533de4d)" style="fill: #1e2e79; fill-opacity: 0.5; stroke: #000000; stroke-width: 0.33128; stroke-linejoin: miter"/>
   </g>
   <g id="patch_96">
    <path d="M 462.617118 298.6 
L 466.977216 298.6 
L 466.977216 298.6 
L 462.617118 298.6 
z
" clip-path="url(#p102533de4d)" style="fill: #1e2e79; fill-opacity: 0.5; stroke: #000000; stroke-width: 0.33128; stroke-linejoin: miter"/>
   </g>
   <g id="patch_97">
    <path d="M 466.977216 298.6 
L 471.337314 298.6 
L 471.337314 298.522938 
L 466.977216 298.522938 
z
" clip-path="url(#p102533de4d)" style="fill: #1e2e79; fill-opacity: 0.5; stroke: #000000; stroke-width: 0.33128; stroke-linejoin: miter"/>
   </g>
   <g id="patch_98">
    <path d="M 471.337314 298.6 
L 475.697413 298.6 
L 475.697413 298.6 
L 471.337314 298.6 
z
" clip-path="url(#p102533de4d)" style="fill: #1e2e79; fill-opacity: 0.5; stroke: #000000; stroke-width: 0.33128; stroke-linejoin: miter"/>
   </g>
   <g id="patch_99">
    <path d="M 475.697413 298.6 
L 480.057511 298.6 
L 480.057511 298.6 
L 475.697413 298.6 
z
" clip-path="url(#p102533de4d)" style="fill: #1e2e79; fill-opacity: 0.5; stroke: #000000; stroke-width: 0.33128; stroke-linejoin: miter"/>
   </g>
   <g id="patch_100">
    <path d="M 480.057511 298.6 
L 484.417609 298.6 
L 484.417609 298.522938 
L 480.057511 298.522938 
z
" clip-path="url(#p102533de4d)" style="fill: #1e2e79; fill-opacity: 0.5; stroke: #000000; stroke-width: 0.33128; stroke-linejoin: miter"/>
   </g>
   <g id="patch_101">
    <path d="M 59.905891 298.6 
L 63.691532 298.6 
L 63.691532 297.712437 
L 59.905891 297.712437 
z
" clip-path="url(#p102533de4d)" style="fill: #f99752; fill-opacity: 0.5; stroke: #000000; stroke-width: 0.287633; stroke-linejoin: miter"/>
   </g>
   <g id="patch_102">
    <path d="M 63.691532 298.6 
L 67.477173 298.6 
L 67.477173 288.925562 
L 63.691532 288.925562 
z
" clip-path="url(#p102533de4d)" style="fill: #f99752; fill-opacity: 0.5; stroke: #000000; stroke-width: 0.287633; stroke-linejoin: miter"/>
   </g>
   <g id="patch_103">
    <path d="M 67.477173 298.6 
L 71.262815 298.6 
L 71.262815 267.091509 
L 67.477173 267.091509 
z
" clip-path="url(#p102533de4d)" style="fill: #f99752; fill-opacity: 0.5; stroke: #000000; stroke-width: 0.287633; stroke-linejoin: miter"/>
   </g>
   <g id="patch_104">
    <path d="M 71.262815 298.6 
L 75.048456 298.6 
L 75.048456 231.500228 
L 71.262815 231.500228 
z
" clip-path="url(#p102533de4d)" style="fill: #f99752; fill-opacity: 0.5; stroke: #000000; stroke-width: 0.287633; stroke-linejoin: miter"/>
   </g>
   <g id="patch_105">
    <path d="M 75.048456 298.6 
L 78.834097 298.6 
L 78.834097 198.660393 
L 75.048456 198.660393 
z
" clip-path="url(#p102533de4d)" style="fill: #f99752; fill-opacity: 0.5; stroke: #000000; stroke-width: 0.287633; stroke-linejoin: miter"/>
   </g>
   <g id="patch_106">
    <path d="M 78.834097 298.6 
L 82.619738 298.6 
L 82.619738 172.0335 
L 78.834097 172.0335 
z
" clip-path="url(#p102533de4d)" style="fill: #f99752; fill-opacity: 0.5; stroke: #000000; stroke-width: 0.287633; stroke-linejoin: miter"/>
   </g>
   <g id="patch_107">
    <path d="M 82.619738 298.6 
L 86.405379 298.6 
L 86.405379 168.838272 
L 82.619738 168.838272 
z
" clip-path="url(#p102533de4d)" style="fill: #f99752; fill-opacity: 0.5; stroke: #000000; stroke-width: 0.287633; stroke-linejoin: miter"/>
   </g>
   <g id="patch_108">
    <path d="M 86.405379 298.6 
L 90.19102 298.6 
L 90.19102 176.82634 
L 86.405379 176.82634 
z
" clip-path="url(#p102533de4d)" style="fill: #f99752; fill-opacity: 0.5; stroke: #000000; stroke-width: 0.287633; stroke-linejoin: miter"/>
   </g>
   <g id="patch_109">
    <path d="M 90.19102 298.6 
L 93.976662 298.6 
L 93.976662 185.613215 
L 90.19102 185.613215 
z
" clip-path="url(#p102533de4d)" style="fill: #f99752; fill-opacity: 0.5; stroke: #000000; stroke-width: 0.287633; stroke-linejoin: miter"/>
   </g>
   <g id="patch_110">
    <path d="M 93.976662 298.6 
L 97.762303 298.6 
L 97.762303 192.092426 
L 93.976662 192.092426 
z
" clip-path="url(#p102533de4d)" style="fill: #f99752; fill-opacity: 0.5; stroke: #000000; stroke-width: 0.287633; stroke-linejoin: miter"/>
   </g>
   <g id="patch_111">
    <path d="M 97.762303 298.6 
L 101.547944 298.6 
L 101.547944 203.453234 
L 97.762303 203.453234 
z
" clip-path="url(#p102533de4d)" style="fill: #f99752; fill-opacity: 0.5; stroke: #000000; stroke-width: 0.287633; stroke-linejoin: miter"/>
   </g>
   <g id="patch_112">
    <path d="M 101.547944 298.6 
L 105.333585 298.6 
L 105.333585 208.512344 
L 101.547944 208.512344 
z
" clip-path="url(#p102533de4d)" style="fill: #f99752; fill-opacity: 0.5; stroke: #000000; stroke-width: 0.287633; stroke-linejoin: miter"/>
   </g>
   <g id="patch_113">
    <path d="M 105.333585 298.6 
L 109.119226 298.6 
L 109.119226 213.216428 
L 105.333585 213.216428 
z
" clip-path="url(#p102533de4d)" style="fill: #f99752; fill-opacity: 0.5; stroke: #000000; stroke-width: 0.287633; stroke-linejoin: miter"/>
   </g>
   <g id="patch_114">
    <path d="M 109.119226 298.6 
L 112.904867 298.6 
L 112.904867 211.263789 
L 109.119226 211.263789 
z
" clip-path="url(#p102533de4d)" style="fill: #f99752; fill-opacity: 0.5; stroke: #000000; stroke-width: 0.287633; stroke-linejoin: miter"/>
   </g>
   <g id="patch_115">
    <path d="M 112.904867 298.6 
L 116.690509 298.6 
L 116.690509 211.263789 
L 112.904867 211.263789 
z
" clip-path="url(#p102533de4d)" style="fill: #f99752; fill-opacity: 0.5; stroke: #000000; stroke-width: 0.287633; stroke-linejoin: miter"/>
   </g>
   <g id="patch_116">
    <path d="M 116.690509 298.6 
L 120.47615 298.6 
L 120.47615 210.642495 
L 116.690509 210.642495 
z
" clip-path="url(#p102533de4d)" style="fill: #f99752; fill-opacity: 0.5; stroke: #000000; stroke-width: 0.287633; stroke-linejoin: miter"/>
   </g>
   <g id="patch_117">
    <path d="M 120.47615 298.6 
L 124.261791 298.6 
L 124.261791 203.808259 
L 120.47615 203.808259 
z
" clip-path="url(#p102533de4d)" style="fill: #f99752; fill-opacity: 0.5; stroke: #000000; stroke-width: 0.287633; stroke-linejoin: miter"/>
   </g>
   <g id="patch_118">
    <path d="M 124.261791 298.6 
L 128.047432 298.6 
L 128.047432 198.837906 
L 124.261791 198.837906 
z
" clip-path="url(#p102533de4d)" style="fill: #f99752; fill-opacity: 0.5; stroke: #000000; stroke-width: 0.287633; stroke-linejoin: miter"/>
   </g>
   <g id="patch_119">
    <path d="M 128.047432 298.6 
L 131.833073 298.6 
L 131.833073 194.045065 
L 128.047432 194.045065 
z
" clip-path="url(#p102533de4d)" style="fill: #f99752; fill-opacity: 0.5; stroke: #000000; stroke-width: 0.287633; stroke-linejoin: miter"/>
   </g>
   <g id="patch_120">
    <path d="M 131.833073 298.6 
L 135.618714 298.6 
L 135.618714 184.54814 
L 131.833073 184.54814 
z
" clip-path="url(#p102533de4d)" style="fill: #f99752; fill-opacity: 0.5; stroke: #000000; stroke-width: 0.287633; stroke-linejoin: miter"/>
   </g>
   <g id="patch_121">
    <path d="M 135.618714 298.6 
L 139.404356 298.6 
L 139.404356 170.879668 
L 135.618714 170.879668 
z
" clip-path="url(#p102533de4d)" style="fill: #f99752; fill-opacity: 0.5; stroke: #000000; stroke-width: 0.287633; stroke-linejoin: miter"/>
   </g>
   <g id="patch_122">
    <path d="M 139.404356 298.6 
L 143.189997 298.6 
L 143.189997 159.962641 
L 139.404356 159.962641 
z
" clip-path="url(#p102533de4d)" style="fill: #f99752; fill-opacity: 0.5; stroke: #000000; stroke-width: 0.287633; stroke-linejoin: miter"/>
   </g>
   <g id="patch_123">
    <path d="M 143.189997 298.6 
L 146.975638 298.6 
L 146.975638 146.649194 
L 143.189997 146.649194 
z
" clip-path="url(#p102533de4d)" style="fill: #f99752; fill-opacity: 0.5; stroke: #000000; stroke-width: 0.287633; stroke-linejoin: miter"/>
   </g>
   <g id="patch_124">
    <path d="M 146.975638 298.6 
L 150.761279 298.6 
L 150.761279 133.868286 
L 146.975638 133.868286 
z
" clip-path="url(#p102533de4d)" style="fill: #f99752; fill-opacity: 0.5; stroke: #000000; stroke-width: 0.287633; stroke-linejoin: miter"/>
   </g>
   <g id="patch_125">
    <path d="M 150.761279 298.6 
L 154.54692 298.6 
L 154.54692 123.040016 
L 150.761279 123.040016 
z
" clip-path="url(#p102533de4d)" style="fill: #f99752; fill-opacity: 0.5; stroke: #000000; stroke-width: 0.287633; stroke-linejoin: miter"/>
   </g>
   <g id="patch_126">
    <path d="M 154.54692 298.6 
L 158.332561 298.6 
L 158.332561 111.767964 
L 154.54692 111.767964 
z
" clip-path="url(#p102533de4d)" style="fill: #f99752; fill-opacity: 0.5; stroke: #000000; stroke-width: 0.287633; stroke-linejoin: miter"/>
   </g>
   <g id="patch_127">
    <path d="M 158.332561 298.6 
L 162.118203 298.6 
L 162.118203 90.111424 
L 158.332561 90.111424 
z
" clip-path="url(#p102533de4d)" style="fill: #f99752; fill-opacity: 0.5; stroke: #000000; stroke-width: 0.287633; stroke-linejoin: miter"/>
   </g>
   <g id="patch_128">
    <path d="M 162.118203 298.6 
L 165.903844 298.6 
L 165.903844 82.567137 
L 162.118203 82.567137 
z
" clip-path="url(#p102533de4d)" style="fill: #f99752; fill-opacity: 0.5; stroke: #000000; stroke-width: 0.287633; stroke-linejoin: miter"/>
   </g>
   <g id="patch_129">
    <path d="M 165.903844 298.6 
L 169.689485 298.6 
L 169.689485 78.395591 
L 165.903844 78.395591 
z
" clip-path="url(#p102533de4d)" style="fill: #f99752; fill-opacity: 0.5; stroke: #000000; stroke-width: 0.287633; stroke-linejoin: miter"/>
   </g>
   <g id="patch_130">
    <path d="M 169.689485 298.6 
L 173.475126 298.6 
L 173.475126 75.200364 
L 169.689485 75.200364 
z
" clip-path="url(#p102533de4d)" style="fill: #f99752; fill-opacity: 0.5; stroke: #000000; stroke-width: 0.287633; stroke-linejoin: miter"/>
   </g>
   <g id="patch_131">
    <path d="M 173.475126 298.6 
L 177.260767 298.6 
L 177.260767 58.247908 
L 173.475126 58.247908 
z
" clip-path="url(#p102533de4d)" style="fill: #f99752; fill-opacity: 0.5; stroke: #000000; stroke-width: 0.287633; stroke-linejoin: miter"/>
   </g>
   <g id="patch_132">
    <path d="M 177.260767 298.6 
L 181.046408 298.6 
L 181.046408 53.543824 
L 177.260767 53.543824 
z
" clip-path="url(#p102533de4d)" style="fill: #f99752; fill-opacity: 0.5; stroke: #000000; stroke-width: 0.287633; stroke-linejoin: miter"/>
   </g>
   <g id="patch_133">
    <path d="M 181.046408 298.6 
L 184.83205 298.6 
L 184.83205 43.248091 
L 181.046408 43.248091 
z
" clip-path="url(#p102533de4d)" style="fill: #f99752; fill-opacity: 0.5; stroke: #000000; stroke-width: 0.287633; stroke-linejoin: miter"/>
   </g>
   <g id="patch_134">
    <path d="M 184.83205 298.6 
L 188.617691 298.6 
L 188.617691 37.7452 
L 184.83205 37.7452 
z
" clip-path="url(#p102533de4d)" style="fill: #f99752; fill-opacity: 0.5; stroke: #000000; stroke-width: 0.287633; stroke-linejoin: miter"/>
   </g>
   <g id="patch_135">
    <path d="M 188.617691 298.6 
L 192.403332 298.6 
L 192.403332 40.14162 
L 188.617691 40.14162 
z
" clip-path="url(#p102533de4d)" style="fill: #f99752; fill-opacity: 0.5; stroke: #000000; stroke-width: 0.287633; stroke-linejoin: miter"/>
   </g>
   <g id="patch_136">
    <path d="M 192.403332 298.6 
L 196.188973 298.6 
L 196.188973 33.484897 
L 192.403332 33.484897 
z
" clip-path="url(#p102533de4d)" style="fill: #f99752; fill-opacity: 0.5; stroke: #000000; stroke-width: 0.287633; stroke-linejoin: miter"/>
   </g>
   <g id="patch_137">
    <path d="M 196.188973 298.6 
L 199.974614 298.6 
L 199.974614 29.490863 
L 196.188973 29.490863 
z
" clip-path="url(#p102533de4d)" style="fill: #f99752; fill-opacity: 0.5; stroke: #000000; stroke-width: 0.287633; stroke-linejoin: miter"/>
   </g>
   <g id="patch_138">
    <path d="M 199.974614 298.6 
L 203.760255 298.6 
L 203.760255 26.561905 
L 199.974614 26.561905 
z
" clip-path="url(#p102533de4d)" style="fill: #f99752; fill-opacity: 0.5; stroke: #000000; stroke-width: 0.287633; stroke-linejoin: miter"/>
   </g>
   <g id="patch_139">
    <path d="M 203.760255 298.6 
L 207.545897 298.6 
L 207.545897 35.615049 
L 203.760255 35.615049 
z
" clip-path="url(#p102533de4d)" style="fill: #f99752; fill-opacity: 0.5; stroke: #000000; stroke-width: 0.287633; stroke-linejoin: miter"/>
   </g>
   <g id="patch_140">
    <path d="M 207.545897 298.6 
L 211.331538 298.6 
L 211.331538 45.289487 
L 207.545897 45.289487 
z
" clip-path="url(#p102533de4d)" style="fill: #f99752; fill-opacity: 0.5; stroke: #000000; stroke-width: 0.287633; stroke-linejoin: miter"/>
   </g>
   <g id="patch_141">
    <path d="M 211.331538 298.6 
L 215.117179 298.6 
L 215.117179 42.893066 
L 211.331538 42.893066 
z
" clip-path="url(#p102533de4d)" style="fill: #f99752; fill-opacity: 0.5; stroke: #000000; stroke-width: 0.287633; stroke-linejoin: miter"/>
   </g>
   <g id="patch_142">
    <path d="M 215.117179 298.6 
L 218.90282 298.6 
L 218.90282 41.295452 
L 215.117179 41.295452 
z
" clip-path="url(#p102533de4d)" style="fill: #f99752; fill-opacity: 0.5; stroke: #000000; stroke-width: 0.287633; stroke-linejoin: miter"/>
   </g>
   <g id="patch_143">
    <path d="M 218.90282 298.6 
L 222.688461 298.6 
L 222.688461 47.952176 
L 218.90282 47.952176 
z
" clip-path="url(#p102533de4d)" style="fill: #f99752; fill-opacity: 0.5; stroke: #000000; stroke-width: 0.287633; stroke-linejoin: miter"/>
   </g>
   <g id="patch_144">
    <path d="M 222.688461 298.6 
L 226.474102 298.6 
L 226.474102 51.147403 
L 222.688461 51.147403 
z
" clip-path="url(#p102533de4d)" style="fill: #f99752; fill-opacity: 0.5; stroke: #000000; stroke-width: 0.287633; stroke-linejoin: miter"/>
   </g>
   <g id="patch_145">
    <path d="M 226.474102 298.6 
L 230.259744 298.6 
L 230.259744 50.96989 
L 226.474102 50.96989 
z
" clip-path="url(#p102533de4d)" style="fill: #f99752; fill-opacity: 0.5; stroke: #000000; stroke-width: 0.287633; stroke-linejoin: miter"/>
   </g>
   <g id="patch_146">
    <path d="M 230.259744 298.6 
L 234.045385 298.6 
L 234.045385 55.940244 
L 230.259744 55.940244 
z
" clip-path="url(#p102533de4d)" style="fill: #f99752; fill-opacity: 0.5; stroke: #000000; stroke-width: 0.287633; stroke-linejoin: miter"/>
   </g>
   <g id="patch_147">
    <path d="M 234.045385 298.6 
L 237.831026 298.6 
L 237.831026 54.431387 
L 234.045385 54.431387 
z
" clip-path="url(#p102533de4d)" style="fill: #f99752; fill-opacity: 0.5; stroke: #000000; stroke-width: 0.287633; stroke-linejoin: miter"/>
   </g>
   <g id="patch_148">
    <path d="M 237.831026 298.6 
L 241.616667 298.6 
L 241.616667 60.023034 
L 237.831026 60.023034 
z
" clip-path="url(#p102533de4d)" style="fill: #f99752; fill-opacity: 0.5; stroke: #000000; stroke-width: 0.287633; stroke-linejoin: miter"/>
   </g>
   <g id="patch_149">
    <path d="M 241.616667 298.6 
L 245.402308 298.6 
L 245.402308 65.703438 
L 241.616667 65.703438 
z
" clip-path="url(#p102533de4d)" style="fill: #f99752; fill-opacity: 0.5; stroke: #000000; stroke-width: 0.287633; stroke-linejoin: miter"/>
   </g>
   <g id="patch_150">
    <path d="M 245.402308 298.6 
L 249.18795 298.6 
L 249.18795 66.591001 
L 245.402308 66.591001 
z
" clip-path="url(#p102533de4d)" style="fill: #f99752; fill-opacity: 0.5; stroke: #000000; stroke-width: 0.287633; stroke-linejoin: miter"/>
   </g>
   <g id="patch_151">
    <path d="M 249.18795 298.6 
L 252.973591 298.6 
L 252.973591 65.880951 
L 249.18795 65.880951 
z
" clip-path="url(#p102533de4d)" style="fill: #f99752; fill-opacity: 0.5; stroke: #000000; stroke-width: 0.287633; stroke-linejoin: miter"/>
   </g>
   <g id="patch_152">
    <path d="M 252.973591 298.6 
L 256.759232 298.6 
L 256.759232 70.23001 
L 252.973591 70.23001 
z
" clip-path="url(#p102533de4d)" style="fill: #f99752; fill-opacity: 0.5; stroke: #000000; stroke-width: 0.287633; stroke-linejoin: miter"/>
   </g>
   <g id="patch_153">
    <path d="M 256.759232 298.6 
L 260.544873 298.6 
L 260.544873 54.786412 
L 256.759232 54.786412 
z
" clip-path="url(#p102533de4d)" style="fill: #f99752; fill-opacity: 0.5; stroke: #000000; stroke-width: 0.287633; stroke-linejoin: miter"/>
   </g>
   <g id="patch_154">
    <path d="M 260.544873 298.6 
L 264.330514 298.6 
L 264.330514 48.750983 
L 260.544873 48.750983 
z
" clip-path="url(#p102533de4d)" style="fill: #f99752; fill-opacity: 0.5; stroke: #000000; stroke-width: 0.287633; stroke-linejoin: miter"/>
   </g>
   <g id="patch_155">
    <path d="M 264.330514 298.6 
L 268.116155 298.6 
L 268.116155 46.709588 
L 264.330514 46.709588 
z
" clip-path="url(#p102533de4d)" style="fill: #f99752; fill-opacity: 0.5; stroke: #000000; stroke-width: 0.287633; stroke-linejoin: miter"/>
   </g>
   <g id="patch_156">
    <path d="M 268.116155 298.6 
L 271.901797 298.6 
L 271.901797 39.520326 
L 268.116155 39.520326 
z
" clip-path="url(#p102533de4d)" style="fill: #f99752; fill-opacity: 0.5; stroke: #000000; stroke-width: 0.287633; stroke-linejoin: miter"/>
   </g>
   <g id="patch_157">
    <path d="M 271.901797 298.6 
L 275.687438 298.6 
L 275.687438 41.295452 
L 271.901797 41.295452 
z
" clip-path="url(#p102533de4d)" style="fill: #f99752; fill-opacity: 0.5; stroke: #000000; stroke-width: 0.287633; stroke-linejoin: miter"/>
   </g>
   <g id="patch_158">
    <path d="M 275.687438 298.6 
L 279.473079 298.6 
L 279.473079 36.680124 
L 275.687438 36.680124 
z
" clip-path="url(#p102533de4d)" style="fill: #f99752; fill-opacity: 0.5; stroke: #000000; stroke-width: 0.287633; stroke-linejoin: miter"/>
   </g>
   <g id="patch_159">
    <path d="M 279.473079 298.6 
L 283.25872 298.6 
L 283.25872 40.762915 
L 279.473079 40.762915 
z
" clip-path="url(#p102533de4d)" style="fill: #f99752; fill-opacity: 0.5; stroke: #000000; stroke-width: 0.287633; stroke-linejoin: miter"/>
   </g>
   <g id="patch_160">
    <path d="M 283.25872 298.6 
L 287.044361 298.6 
L 287.044361 38.188982 
L 283.25872 38.188982 
z
" clip-path="url(#p102533de4d)" style="fill: #f99752; fill-opacity: 0.5; stroke: #000000; stroke-width: 0.287633; stroke-linejoin: miter"/>
   </g>
   <g id="patch_161">
    <path d="M 287.044361 298.6 
L 290.830002 298.6 
L 290.830002 53.898849 
L 287.044361 53.898849 
z
" clip-path="url(#p102533de4d)" style="fill: #f99752; fill-opacity: 0.5; stroke: #000000; stroke-width: 0.287633; stroke-linejoin: miter"/>
   </g>
   <g id="patch_162">
    <path d="M 290.830002 298.6 
L 294.615644 298.6 
L 294.615644 67.034783 
L 290.830002 67.034783 
z
" clip-path="url(#p102533de4d)" style="fill: #f99752; fill-opacity: 0.5; stroke: #000000; stroke-width: 0.287633; stroke-linejoin: miter"/>
   </g>
   <g id="patch_163">
    <path d="M 294.615644 298.6 
L 298.401285 298.6 
L 298.401285 81.679574 
L 294.615644 81.679574 
z
" clip-path="url(#p102533de4d)" style="fill: #f99752; fill-opacity: 0.5; stroke: #000000; stroke-width: 0.287633; stroke-linejoin: miter"/>
   </g>
   <g id="patch_164">
    <path d="M 298.401285 298.6 
L 302.186926 298.6 
L 302.186926 100.052131 
L 298.401285 100.052131 
z
" clip-path="url(#p102533de4d)" style="fill: #f99752; fill-opacity: 0.5; stroke: #000000; stroke-width: 0.287633; stroke-linejoin: miter"/>
   </g>
   <g id="patch_165">
    <path d="M 302.186926 298.6 
L 305.972567 298.6 
L 305.972567 125.968974 
L 302.186926 125.968974 
z
" clip-path="url(#p102533de4d)" style="fill: #f99752; fill-opacity: 0.5; stroke: #000000; stroke-width: 0.287633; stroke-linejoin: miter"/>
   </g>
   <g id="patch_166">
    <path d="M 305.972567 298.6 
L 309.758208 298.6 
L 309.758208 145.495362 
L 305.972567 145.495362 
z
" clip-path="url(#p102533de4d)" style="fill: #f99752; fill-opacity: 0.5; stroke: #000000; stroke-width: 0.287633; stroke-linejoin: miter"/>
   </g>
   <g id="patch_167">
    <path d="M 309.758208 298.6 
L 313.543849 298.6 
L 313.543849 163.867919 
L 309.758208 163.867919 
z
" clip-path="url(#p102533de4d)" style="fill: #f99752; fill-opacity: 0.5; stroke: #000000; stroke-width: 0.287633; stroke-linejoin: miter"/>
   </g>
   <g id="patch_168">
    <path d="M 313.543849 298.6 
L 317.329491 298.6 
L 317.329491 177.270122 
L 313.543849 177.270122 
z
" clip-path="url(#p102533de4d)" style="fill: #f99752; fill-opacity: 0.5; stroke: #000000; stroke-width: 0.287633; stroke-linejoin: miter"/>
   </g>
   <g id="patch_169">
    <path d="M 317.329491 298.6 
L 321.115132 298.6 
L 321.115132 195.997704 
L 317.329491 195.997704 
z
" clip-path="url(#p102533de4d)" style="fill: #f99752; fill-opacity: 0.5; stroke: #000000; stroke-width: 0.287633; stroke-linejoin: miter"/>
   </g>
   <g id="patch_170">
    <path d="M 321.115132 298.6 
L 324.900773 298.6 
L 324.900773 208.423587 
L 321.115132 208.423587 
z
" clip-path="url(#p102533de4d)" style="fill: #f99752; fill-opacity: 0.5; stroke: #000000; stroke-width: 0.287633; stroke-linejoin: miter"/>
   </g>
   <g id="patch_171">
    <path d="M 324.900773 298.6 
L 328.686414 298.6 
L 328.686414 220.671958 
L 324.900773 220.671958 
z
" clip-path="url(#p102533de4d)" style="fill: #f99752; fill-opacity: 0.5; stroke: #000000; stroke-width: 0.287633; stroke-linejoin: miter"/>
   </g>
   <g id="patch_172">
    <path d="M 328.686414 298.6 
L 332.472055 298.6 
L 332.472055 225.819824 
L 328.686414 225.819824 
z
" clip-path="url(#p102533de4d)" style="fill: #f99752; fill-opacity: 0.5; stroke: #000000; stroke-width: 0.287633; stroke-linejoin: miter"/>
   </g>
   <g id="patch_173">
    <path d="M 332.472055 298.6 
L 336.257696 298.6 
L 336.257696 243.659843 
L 332.472055 243.659843 
z
" clip-path="url(#p102533de4d)" style="fill: #f99752; fill-opacity: 0.5; stroke: #000000; stroke-width: 0.287633; stroke-linejoin: miter"/>
   </g>
   <g id="patch_174">
    <path d="M 336.257696 298.6 
L 340.043338 298.6 
L 340.043338 253.423037 
L 336.257696 253.423037 
z
" clip-path="url(#p102533de4d)" style="fill: #f99752; fill-opacity: 0.5; stroke: #000000; stroke-width: 0.287633; stroke-linejoin: miter"/>
   </g>
   <g id="patch_175">
    <path d="M 340.043338 298.6 
L 343.828979 298.6 
L 343.828979 258.748416 
L 340.043338 258.748416 
z
" clip-path="url(#p102533de4d)" style="fill: #f99752; fill-opacity: 0.5; stroke: #000000; stroke-width: 0.287633; stroke-linejoin: miter"/>
   </g>
   <g id="patch_176">
    <path d="M 343.828979 298.6 
L 347.61462 298.6 
L 347.61462 260.34603 
L 343.828979 260.34603 
z
" clip-path="url(#p102533de4d)" style="fill: #f99752; fill-opacity: 0.5; stroke: #000000; stroke-width: 0.287633; stroke-linejoin: miter"/>
   </g>
   <g id="patch_177">
    <path d="M 347.61462 298.6 
L 351.400261 298.6 
L 351.400261 266.82524 
L 347.61462 266.82524 
z
" clip-path="url(#p102533de4d)" style="fill: #f99752; fill-opacity: 0.5; stroke: #000000; stroke-width: 0.287633; stroke-linejoin: miter"/>
   </g>
   <g id="patch_178">
    <path d="M 351.400261 298.6 
L 355.185902 298.6 
L 355.185902 273.038182 
L 351.400261 273.038182 
z
" clip-path="url(#p102533de4d)" style="fill: #f99752; fill-opacity: 0.5; stroke: #000000; stroke-width: 0.287633; stroke-linejoin: miter"/>
   </g>
   <g id="patch_179">
    <path d="M 355.185902 298.6 
L 358.971543 298.6 
L 358.971543 277.564754 
L 355.185902 277.564754 
z
" clip-path="url(#p102533de4d)" style="fill: #f99752; fill-opacity: 0.5; stroke: #000000; stroke-width: 0.287633; stroke-linejoin: miter"/>
   </g>
   <g id="patch_180">
    <path d="M 358.971543 298.6 
L 362.757185 298.6 
L 362.757185 279.872418 
L 358.971543 279.872418 
z
" clip-path="url(#p102533de4d)" style="fill: #f99752; fill-opacity: 0.5; stroke: #000000; stroke-width: 0.287633; stroke-linejoin: miter"/>
   </g>
   <g id="patch_181">
    <path d="M 362.757185 298.6 
L 366.542826 298.6 
L 366.542826 280.582469 
L 362.757185 280.582469 
z
" clip-path="url(#p102533de4d)" style="fill: #f99752; fill-opacity: 0.5; stroke: #000000; stroke-width: 0.287633; stroke-linejoin: miter"/>
   </g>
   <g id="patch_182">
    <path d="M 366.542826 298.6 
L 370.328467 298.6 
L 370.328467 283.422671 
L 366.542826 283.422671 
z
" clip-path="url(#p102533de4d)" style="fill: #f99752; fill-opacity: 0.5; stroke: #000000; stroke-width: 0.287633; stroke-linejoin: miter"/>
   </g>
   <g id="patch_183">
    <path d="M 370.328467 298.6 
L 374.114108 298.6 
L 374.114108 284.665259 
L 370.328467 284.665259 
z
" clip-path="url(#p102533de4d)" style="fill: #f99752; fill-opacity: 0.5; stroke: #000000; stroke-width: 0.287633; stroke-linejoin: miter"/>
   </g>
   <g id="patch_184">
    <path d="M 374.114108 298.6 
L 377.899749 298.6 
L 377.899749 287.239192 
L 374.114108 287.239192 
z
" clip-path="url(#p102533de4d)" style="fill: #f99752; fill-opacity: 0.5; stroke: #000000; stroke-width: 0.287633; stroke-linejoin: miter"/>
   </g>
   <g id="patch_185">
    <path d="M 377.899749 298.6 
L 381.68539 298.6 
L 381.68539 288.215512 
L 377.899749 288.215512 
z
" clip-path="url(#p102533de4d)" style="fill: #f99752; fill-opacity: 0.5; stroke: #000000; stroke-width: 0.287633; stroke-linejoin: miter"/>
   </g>
   <g id="patch_186">
    <path d="M 381.68539 298.6 
L 385.471032 298.6 
L 385.471032 290.789445 
L 381.68539 290.789445 
z
" clip-path="url(#p102533de4d)" style="fill: #f99752; fill-opacity: 0.5; stroke: #000000; stroke-width: 0.287633; stroke-linejoin: miter"/>
   </g>
   <g id="patch_187">
    <path d="M 385.471032 298.6 
L 389.256673 298.6 
L 389.256673 292.032033 
L 385.471032 292.032033 
z
" clip-path="url(#p102533de4d)" style="fill: #f99752; fill-opacity: 0.5; stroke: #000000; stroke-width: 0.287633; stroke-linejoin: miter"/>
   </g>
   <g id="patch_188">
    <path d="M 389.256673 298.6 
L 393.042314 298.6 
L 393.042314 292.475814 
L 389.256673 292.475814 
z
" clip-path="url(#p102533de4d)" style="fill: #f99752; fill-opacity: 0.5; stroke: #000000; stroke-width: 0.287633; stroke-linejoin: miter"/>
   </g>
   <g id="patch_189">
    <path d="M 393.042314 298.6 
L 396.827955 298.6 
L 396.827955 292.83084 
L 393.042314 292.83084 
z
" clip-path="url(#p102533de4d)" style="fill: #f99752; fill-opacity: 0.5; stroke: #000000; stroke-width: 0.287633; stroke-linejoin: miter"/>
   </g>
   <g id="patch_190">
    <path d="M 396.827955 298.6 
L 400.613596 298.6 
L 400.613596 293.363378 
L 396.827955 293.363378 
z
" clip-path="url(#p102533de4d)" style="fill: #f99752; fill-opacity: 0.5; stroke: #000000; stroke-width: 0.287633; stroke-linejoin: miter"/>
   </g>
   <g id="patch_191">
    <path d="M 400.613596 298.6 
L 404.399237 298.6 
L 404.399237 294.694722 
L 400.613596 294.694722 
z
" clip-path="url(#p102533de4d)" style="fill: #f99752; fill-opacity: 0.5; stroke: #000000; stroke-width: 0.287633; stroke-linejoin: miter"/>
   </g>
   <g id="patch_192">
    <path d="M 404.399237 298.6 
L 408.184879 298.6 
L 408.184879 295.316016 
L 404.399237 295.316016 
z
" clip-path="url(#p102533de4d)" style="fill: #f99752; fill-opacity: 0.5; stroke: #000000; stroke-width: 0.287633; stroke-linejoin: miter"/>
   </g>
   <g id="patch_193">
    <path d="M 408.184879 298.6 
L 411.97052 298.6 
L 411.97052 296.381092 
L 408.184879 296.381092 
z
" clip-path="url(#p102533de4d)" style="fill: #f99752; fill-opacity: 0.5; stroke: #000000; stroke-width: 0.287633; stroke-linejoin: miter"/>
   </g>
   <g id="patch_194">
    <path d="M 411.97052 298.6 
L 415.756161 298.6 
L 415.756161 296.647361 
L 411.97052 296.647361 
z
" clip-path="url(#p102533de4d)" style="fill: #f99752; fill-opacity: 0.5; stroke: #000000; stroke-width: 0.287633; stroke-linejoin: miter"/>
   </g>
   <g id="patch_195">
    <path d="M 415.756161 298.6 
L 419.541802 298.6 
L 419.541802 297.002386 
L 415.756161 297.002386 
z
" clip-path="url(#p102533de4d)" style="fill: #f99752; fill-opacity: 0.5; stroke: #000000; stroke-width: 0.287633; stroke-linejoin: miter"/>
   </g>
   <g id="patch_196">
    <path d="M 419.541802 298.6 
L 423.327443 298.6 
L 423.327443 297.091143 
L 419.541802 297.091143 
z
" clip-path="url(#p102533de4d)" style="fill: #f99752; fill-opacity: 0.5; stroke: #000000; stroke-width: 0.287633; stroke-linejoin: miter"/>
   </g>
   <g id="patch_197">
    <path d="M 423.327443 298.6 
L 427.113084 298.6 
L 427.113084 297.801193 
L 423.327443 297.801193 
z
" clip-path="url(#p102533de4d)" style="fill: #f99752; fill-opacity: 0.5; stroke: #000000; stroke-width: 0.287633; stroke-linejoin: miter"/>
   </g>
   <g id="patch_198">
    <path d="M 427.113084 298.6 
L 430.898726 298.6 
L 430.898726 297.712437 
L 427.113084 297.712437 
z
" clip-path="url(#p102533de4d)" style="fill: #f99752; fill-opacity: 0.5; stroke: #000000; stroke-width: 0.287633; stroke-linejoin: miter"/>
   </g>
   <g id="patch_199">
    <path d="M 430.898726 298.6 
L 434.684367 298.6 
L 434.684367 297.88995 
L 430.898726 297.88995 
z
" clip-path="url(#p102533de4d)" style="fill: #f99752; fill-opacity: 0.5; stroke: #000000; stroke-width: 0.287633; stroke-linejoin: miter"/>
   </g>
   <g id="patch_200">
    <path d="M 434.684367 298.6 
L 438.470008 298.6 
L 438.470008 298.156218 
L 434.684367 298.156218 
z
" clip-path="url(#p102533de4d)" style="fill: #f99752; fill-opacity: 0.5; stroke: #000000; stroke-width: 0.287633; stroke-linejoin: miter"/>
   </g>
   <g id="patch_201">
    <path d="M 438.470008 298.6 
L 442.255649 298.6 
L 442.255649 298.067462 
L 438.470008 298.067462 
z
" clip-path="url(#p102533de4d)" style="fill: #f99752; fill-opacity: 0.5; stroke: #000000; stroke-width: 0.287633; stroke-linejoin: miter"/>
   </g>
   <g id="patch_202">
    <path d="M 442.255649 298.6 
L 446.04129 298.6 
L 446.04129 298.244975 
L 442.255649 298.244975 
z
" clip-path="url(#p102533de4d)" style="fill: #f99752; fill-opacity: 0.5; stroke: #000000; stroke-width: 0.287633; stroke-linejoin: miter"/>
   </g>
   <g id="patch_203">
    <path d="M 446.04129 298.6 
L 449.826931 298.6 
L 449.826931 298.333731 
L 446.04129 298.333731 
z
" clip-path="url(#p102533de4d)" style="fill: #f99752; fill-opacity: 0.5; stroke: #000000; stroke-width: 0.287633; stroke-linejoin: miter"/>
   </g>
   <g id="patch_204">
    <path d="M 449.826931 298.6 
L 453.612573 298.6 
L 453.612573 298.244975 
L 449.826931 298.244975 
z
" clip-path="url(#p102533de4d)" style="fill: #f99752; fill-opacity: 0.5; stroke: #000000; stroke-width: 0.287633; stroke-linejoin: miter"/>
   </g>
   <g id="patch_205">
    <path d="M 453.612573 298.6 
L 457.398214 298.6 
L 457.398214 298.511244 
L 453.612573 298.511244 
z
" clip-path="url(#p102533de4d)" style="fill: #f99752; fill-opacity: 0.5; stroke: #000000; stroke-width: 0.287633; stroke-linejoin: miter"/>
   </g>
   <g id="patch_206">
    <path d="M 457.398214 298.6 
L 461.183855 298.6 
L 461.183855 298.422487 
L 457.398214 298.422487 
z
" clip-path="url(#p102533de4d)" style="fill: #f99752; fill-opacity: 0.5; stroke: #000000; stroke-width: 0.287633; stroke-linejoin: miter"/>
   </g>
   <g id="patch_207">
    <path d="M 461.183855 298.6 
L 464.969496 298.6 
L 464.969496 298.6 
L 461.183855 298.6 
z
" clip-path="url(#p102533de4d)" style="fill: #f99752; fill-opacity: 0.5; stroke: #000000; stroke-width: 0.287633; stroke-linejoin: miter"/>
   </g>
   <g id="patch_208">
    <path d="M 464.969496 298.6 
L 468.755137 298.6 
L 468.755137 298.6 
L 464.969496 298.6 
z
" clip-path="url(#p102533de4d)" style="fill: #f99752; fill-opacity: 0.5; stroke: #000000; stroke-width: 0.287633; stroke-linejoin: miter"/>
   </g>
   <g id="patch_209">
    <path d="M 468.755137 298.6 
L 472.540779 298.6 
L 472.540779 298.6 
L 468.755137 298.6 
z
" clip-path="url(#p102533de4d)" style="fill: #f99752; fill-opacity: 0.5; stroke: #000000; stroke-width: 0.287633; stroke-linejoin: miter"/>
   </g>
   <g id="patch_210">
    <path d="M 472.540779 298.6 
L 476.32642 298.6 
L 476.32642 298.6 
L 472.540779 298.6 
z
" clip-path="url(#p102533de4d)" style="fill: #f99752; fill-opacity: 0.5; stroke: #000000; stroke-width: 0.287633; stroke-linejoin: miter"/>
   </g>
   <g id="patch_211">
    <path d="M 476.32642 298.6 
L 480.112061 298.6 
L 480.112061 298.6 
L 476.32642 298.6 
z
" clip-path="url(#p102533de4d)" style="fill: #f99752; fill-opacity: 0.5; stroke: #000000; stroke-width: 0.287633; stroke-linejoin: miter"/>
   </g>
   <g id="patch_212">
    <path d="M 480.112061 298.6 
L 483.897702 298.6 
L 483.897702 298.511244 
L 480.112061 298.511244 
z
" clip-path="url(#p102533de4d)" style="fill: #f99752; fill-opacity: 0.5; stroke: #000000; stroke-width: 0.287633; stroke-linejoin: miter"/>
   </g>
   <g id="matplotlib.axis_1">
    <g id="xtick_1">
     <g id="line2d_1">
      <defs>
       <path id="m2b79fc7c79" d="M 0 0 
L 0 3.5 
" style="stroke: #c2c1c1; stroke-width: 0.8"/>
      </defs>
      <g>
       <use xlink:href="#m2b79fc7c79" x="94.1958" y="298.6" style="fill: #c2c1c1; stroke: #c2c1c1; stroke-width: 0.8"/>
      </g>
     </g>
     <g id="text_1">
      <!-- 3 -->
      <g style="fill: #191919" transform="translate(91.385644 313.1) scale(0.1 -0.1)">
       <defs>
        <path id="Roboto-Regular-33" d="M 1222 2084 
L 1222 2559 
L 1647 2559 
Q 2094 2563 2312 2784 
Q 2531 3006 2531 3338 
Q 2531 4138 1738 4138 
Q 1369 4138 1141 3927 
Q 913 3716 913 3359 
L 334 3359 
Q 334 3881 720 4247 
Q 1106 4613 1738 4613 
Q 2353 4613 2733 4286 
Q 3113 3959 3113 3325 
Q 3113 3072 2942 2784 
Q 2772 2497 2397 2338 
Q 2850 2191 3015 1884 
Q 3181 1578 3181 1269 
Q 3181 631 2768 284 
Q 2356 -63 1741 -63 
Q 1147 -63 722 267 
Q 297 597 297 1203 
L 875 1203 
Q 875 844 1108 628 
Q 1341 413 1741 413 
Q 2138 413 2369 622 
Q 2600 831 2600 1256 
Q 2600 1681 2337 1882 
Q 2075 2084 1634 2084 
L 1222 2084 
z
" transform="scale(0.015625)"/>
       </defs>
       <use xlink:href="#Roboto-Regular-33"/>
      </g>
     </g>
    </g>
    <g id="xtick_2">
     <g id="line2d_2">
      <g>
       <use xlink:href="#m2b79fc7c79" x="172.7834" y="298.6" style="fill: #c2c1c1; stroke: #c2c1c1; stroke-width: 0.8"/>
      </g>
     </g>
     <g id="text_2">
      <!-- 4 -->
      <g style="fill: #191919" transform="translate(169.973244 313.1) scale(0.1 -0.1)">
       <defs>
        <path id="Roboto-Regular-34" d="M 166 1397 
L 2203 4550 
L 2819 4550 
L 2819 1531 
L 3453 1531 
L 3453 1056 
L 2819 1056 
L 2819 0 
L 2241 0 
L 2241 1056 
L 166 1056 
L 166 1397 
z
M 822 1531 
L 2241 1531 
L 2241 3766 
L 2169 3638 
L 822 1531 
z
" transform="scale(0.015625)"/>
       </defs>
       <use xlink:href="#Roboto-Regular-34"/>
      </g>
     </g>
    </g>
    <g id="xtick_3">
     <g id="line2d_3">
      <g>
       <use xlink:href="#m2b79fc7c79" x="251.371" y="298.6" style="fill: #c2c1c1; stroke: #c2c1c1; stroke-width: 0.8"/>
      </g>
     </g>
     <g id="text_3">
      <!-- 5 -->
      <g style="fill: #191919" transform="translate(248.560844 313.1) scale(0.1 -0.1)">
       <defs>
        <path id="Roboto-Regular-35" d="M 1109 2166 
L 647 2284 
L 875 4550 
L 3209 4550 
L 3209 4016 
L 1366 4016 
L 1228 2778 
Q 1572 2975 1988 2975 
Q 2616 2975 2980 2561 
Q 3344 2147 3344 1450 
Q 3344 797 2987 367 
Q 2631 -63 1903 -63 
Q 1350 -63 947 248 
Q 544 559 481 1197 
L 1031 1197 
Q 1141 413 1903 413 
Q 2313 413 2538 691 
Q 2763 969 2763 1444 
Q 2763 1872 2527 2164 
Q 2291 2456 1853 2456 
Q 1563 2456 1413 2378 
Q 1263 2300 1109 2166 
z
" transform="scale(0.015625)"/>
       </defs>
       <use xlink:href="#Roboto-Regular-35"/>
      </g>
     </g>
    </g>
    <g id="xtick_4">
     <g id="line2d_4">
      <g>
       <use xlink:href="#m2b79fc7c79" x="329.9586" y="298.6" style="fill: #c2c1c1; stroke: #c2c1c1; stroke-width: 0.8"/>
      </g>
     </g>
     <g id="text_4">
      <!-- 6 -->
      <g style="fill: #191919" transform="translate(327.148444 313.1) scale(0.1 -0.1)">
       <defs>
        <path id="Roboto-Regular-36" d="M 3291 1484 
Q 3291 838 2930 387 
Q 2569 -63 1878 -63 
Q 1388 -63 1063 198 
Q 738 459 577 861 
Q 416 1263 416 1684 
L 416 1956 
Q 416 2597 595 3194 
Q 775 3791 1247 4173 
Q 1719 4556 2597 4556 
L 2647 4556 
L 2647 4066 
Q 2041 4066 1705 3853 
Q 1369 3641 1205 3302 
Q 1041 2963 1006 2575 
Q 1369 2984 1984 2984 
Q 2438 2984 2727 2765 
Q 3016 2547 3153 2201 
Q 3291 1856 3291 1484 
z
M 997 1666 
Q 997 1059 1267 737 
Q 1538 416 1878 416 
Q 2278 416 2498 708 
Q 2719 1000 2719 1456 
Q 2719 1863 2516 2184 
Q 2313 2506 1891 2506 
Q 1588 2506 1341 2325 
Q 1094 2144 997 1884 
L 997 1666 
z
" transform="scale(0.015625)"/>
       </defs>
       <use xlink:href="#Roboto-Regular-36"/>
      </g>
     </g>
    </g>
    <g id="xtick_5">
     <g id="line2d_5">
      <g>
       <use xlink:href="#m2b79fc7c79" x="408.5462" y="298.6" style="fill: #c2c1c1; stroke: #c2c1c1; stroke-width: 0.8"/>
      </g>
     </g>
     <g id="text_5">
      <!-- 7 -->
      <g style="fill: #191919" transform="translate(405.736044 313.1) scale(0.1 -0.1)">
       <defs>
        <path id="Roboto-Regular-37" d="M 3319 4550 
L 3319 4225 
L 1434 0 
L 825 0 
L 2706 4075 
L 244 4075 
L 244 4550 
L 3319 4550 
z
" transform="scale(0.015625)"/>
       </defs>
       <use xlink:href="#Roboto-Regular-37"/>
      </g>
     </g>
    </g>
    <g id="text_6">
     <!-- CRO66 OH - HIS148 ND1 Distance [] -->
     <g style="fill: #191919" transform="translate(150.370375 330.049375) scale(0.12 -0.12)">
      <defs>
       <path id="Roboto-Bold-43" d="M 3044 1516 
L 3981 1516 
Q 3934 822 3461 379 
Q 2988 -63 2150 -63 
Q 1275 -63 772 526 
Q 269 1116 269 2125 
L 269 2422 
Q 269 3431 784 4023 
Q 1300 4616 2159 4616 
Q 3013 4616 3466 4161 
Q 3919 3706 3984 3006 
L 3047 3006 
Q 3016 3413 2820 3630 
Q 2625 3847 2159 3847 
Q 1247 3847 1222 2500 
L 1222 2125 
Q 1222 1419 1436 1062 
Q 1650 706 2150 706 
Q 2594 706 2801 907 
Q 3009 1109 3044 1516 
z
" transform="scale(0.015625)"/>
       <path id="Roboto-Bold-52" d="M 2944 0 
L 2094 1669 
L 1347 1669 
L 1347 0 
L 406 0 
L 406 4550 
L 2100 4550 
Q 2884 4550 3332 4198 
Q 3781 3847 3781 3175 
Q 3781 2681 3562 2378 
Q 3344 2075 2969 1906 
L 3953 44 
L 3953 0 
L 2944 0 
z
M 1347 3791 
L 1347 2425 
L 2100 2425 
Q 2469 2425 2655 2611 
Q 2841 2797 2841 3103 
Q 2841 3419 2659 3605 
Q 2478 3791 2100 3791 
L 1347 3791 
z
" transform="scale(0.015625)"/>
       <path id="Roboto-Bold-4f" d="M 4147 2172 
Q 4147 1131 3608 534 
Q 3069 -63 2212 -63 
Q 1356 -63 812 534 
Q 269 1131 269 2172 
L 269 2375 
Q 269 3416 809 4014 
Q 1350 4613 2206 4613 
Q 3063 4613 3605 4014 
Q 4147 3416 4147 2375 
L 4147 2172 
z
M 3197 2381 
Q 3197 3094 2937 3466 
Q 2678 3838 2206 3838 
Q 1734 3838 1478 3470 
Q 1222 3103 1219 2397 
L 1219 2172 
Q 1219 1463 1478 1086 
Q 1738 709 2213 709 
Q 2684 709 2939 1081 
Q 3194 1453 3197 2156 
L 3197 2381 
z
" transform="scale(0.015625)"/>
       <path id="Roboto-Bold-36" d="M 3450 1500 
Q 3450 838 3033 387 
Q 2616 -63 1916 -63 
Q 1188 -63 752 443 
Q 316 950 316 1750 
L 316 2097 
Q 316 3200 925 3898 
Q 1534 4597 2634 4597 
L 2763 4597 
L 2763 3853 
L 2672 3853 
Q 2050 3844 1688 3538 
Q 1313 3219 1238 2675 
Q 1603 3047 2156 3047 
Q 2800 3047 3125 2589 
Q 3450 2131 3450 1500 
z
M 1219 1631 
Q 1219 1150 1408 909 
Q 1597 669 1900 669 
Q 2194 669 2370 901 
Q 2547 1134 2547 1491 
Q 2547 1853 2370 2087 
Q 2194 2322 1881 2322 
Q 1641 2322 1469 2198 
Q 1297 2075 1219 1903 
L 1219 1631 
z
" transform="scale(0.015625)"/>
       <path id="Roboto-Bold-20" transform="scale(0.015625)"/>
       <path id="Roboto-Bold-48" d="M 3175 0 
L 3175 1950 
L 1347 1950 
L 1347 0 
L 406 0 
L 406 4550 
L 1347 4550 
L 1347 2706 
L 3175 2706 
L 3175 4550 
L 4113 4550 
L 4113 0 
L 3175 0 
z
" transform="scale(0.015625)"/>
       <path id="Roboto-Bold-2d" d="M 2103 2316 
L 2103 1584 
L 347 1584 
L 347 2316 
L 2103 2316 
z
" transform="scale(0.015625)"/>
       <path id="Roboto-Bold-49" d="M 1403 4550 
L 1403 0 
L 466 0 
L 466 4550 
L 1403 4550 
z
" transform="scale(0.015625)"/>
       <path id="Roboto-Bold-53" d="M 2769 1194 
Q 2769 1422 2612 1573 
Q 2456 1725 1854 1920 
Q 1253 2116 816 2425 
Q 356 2747 356 3341 
Q 356 3913 828 4263 
Q 1300 4613 2038 4613 
Q 2794 4613 3250 4217 
Q 3706 3822 3706 3209 
L 2769 3209 
Q 2769 3497 2584 3681 
Q 2400 3866 2022 3866 
Q 1653 3866 1473 3711 
Q 1294 3556 1294 3338 
Q 1294 3113 1525 2963 
Q 1756 2813 2197 2678 
Q 2944 2450 3326 2106 
Q 3709 1763 3709 1200 
Q 3709 603 3259 270 
Q 2809 -63 2059 -63 
Q 1606 -63 1184 96 
Q 763 256 491 587 
Q 219 919 219 1434 
L 1159 1434 
Q 1159 1019 1407 850 
Q 1656 681 2059 681 
Q 2422 681 2595 828 
Q 2769 975 2769 1194 
z
" transform="scale(0.015625)"/>
       <path id="Roboto-Bold-31" d="M 2503 4556 
L 2503 0 
L 1600 0 
L 1600 3484 
L 525 3150 
L 525 3881 
L 2406 4556 
L 2503 4556 
z
" transform="scale(0.015625)"/>
       <path id="Roboto-Bold-34" d="M 175 1553 
L 2072 4550 
L 2984 4550 
L 2984 1713 
L 3500 1713 
L 3500 984 
L 2984 984 
L 2984 0 
L 2081 0 
L 2081 984 
L 216 984 
L 175 1553 
z
M 1072 1713 
L 2081 1713 
L 2081 3328 
L 2019 3219 
L 1072 1713 
z
" transform="scale(0.015625)"/>
       <path id="Roboto-Bold-38" d="M 3369 1247 
Q 3369 603 2933 270 
Q 2497 -63 1837 -63 
Q 1178 -63 736 270 
Q 294 603 294 1247 
Q 294 1625 489 1908 
Q 684 2191 1013 2347 
Q 725 2497 559 2755 
Q 394 3013 394 3341 
Q 394 3959 800 4287 
Q 1206 4616 1831 4616 
Q 2466 4616 2870 4287 
Q 3275 3959 3275 3341 
Q 3275 3009 3108 2753 
Q 2941 2497 2653 2344 
Q 2981 2188 3175 1906 
Q 3369 1625 3369 1247 
z
M 2372 3297 
Q 2372 3563 2230 3725 
Q 2088 3888 1831 3888 
Q 1581 3888 1439 3730 
Q 1297 3572 1297 3297 
Q 1297 3028 1439 2862 
Q 1581 2697 1837 2697 
Q 2094 2697 2233 2862 
Q 2372 3028 2372 3297 
z
M 2466 1313 
Q 2466 1619 2291 1794 
Q 2116 1969 1831 1969 
Q 1547 1969 1373 1794 
Q 1200 1619 1200 1313 
Q 1200 1009 1373 837 
Q 1547 666 1838 666 
Q 2125 666 2295 837 
Q 2466 1009 2466 1313 
z
" transform="scale(0.015625)"/>
       <path id="Roboto-Bold-4e" d="M 4109 4550 
L 4109 0 
L 3172 0 
L 1347 2997 
L 1347 0 
L 406 0 
L 406 4550 
L 1347 4550 
L 3172 1550 
L 3172 4550 
L 4109 4550 
z
" transform="scale(0.015625)"/>
       <path id="Roboto-Bold-44" d="M 406 0 
L 406 4550 
L 1809 4550 
Q 2728 4550 3308 3950 
Q 3888 3350 3888 2375 
L 3888 2172 
Q 3888 1197 3308 598 
Q 2728 0 1797 0 
L 406 0 
z
M 1347 3791 
L 1347 756 
L 1797 756 
Q 2350 756 2639 1115 
Q 2928 1475 2934 2144 
L 2934 2381 
Q 2934 3075 2661 3428 
Q 2388 3781 1838 3791 
L 1347 3791 
z
" transform="scale(0.015625)"/>
       <path id="Roboto-Bold-69" d="M 341 4256 
Q 341 4459 478 4592 
Q 616 4725 847 4725 
Q 1078 4725 1215 4592 
Q 1353 4459 1353 4256 
Q 1353 4056 1215 3923 
Q 1078 3791 847 3791 
Q 616 3791 478 3923 
Q 341 4056 341 4256 
z
M 1303 3381 
L 1303 0 
L 397 0 
L 397 3381 
L 1303 3381 
z
" transform="scale(0.015625)"/>
       <path id="Roboto-Bold-73" d="M 2178 938 
Q 2178 1081 2045 1179 
Q 1913 1278 1475 1372 
Q 953 1484 618 1721 
Q 284 1959 284 2394 
Q 284 2816 642 3130 
Q 1000 3444 1631 3444 
Q 2291 3444 2669 3134 
Q 3047 2825 3047 2353 
L 2144 2353 
Q 2144 2547 2019 2675 
Q 1894 2803 1628 2803 
Q 1403 2803 1276 2698 
Q 1150 2594 1150 2438 
Q 1150 2294 1284 2200 
Q 1419 2106 1781 2034 
Q 2331 1925 2693 1700 
Q 3056 1475 3056 972 
Q 3056 525 2672 231 
Q 2288 -63 1634 -63 
Q 925 -63 550 301 
Q 175 666 175 1078 
L 1034 1078 
Q 1047 813 1230 697 
Q 1413 581 1653 581 
Q 2178 581 2178 938 
z
" transform="scale(0.015625)"/>
       <path id="Roboto-Bold-74" d="M 2041 22 
Q 1788 -63 1497 -63 
Q 1053 -63 790 168 
Q 528 400 528 938 
L 528 2722 
L 31 2722 
L 31 3381 
L 528 3381 
L 528 4216 
L 1431 4216 
L 1431 3381 
L 2006 3381 
L 2006 2722 
L 1431 2722 
L 1431 1031 
Q 1431 819 1518 750 
Q 1606 681 1778 681 
Q 1916 681 2041 706 
L 2041 22 
z
" transform="scale(0.015625)"/>
       <path id="Roboto-Bold-61" d="M 2306 0 
Q 2250 119 2216 303 
Q 1888 -63 1363 -63 
Q 878 -63 547 223 
Q 216 509 216 950 
Q 216 1481 609 1773 
Q 1003 2066 1775 2066 
L 2178 2066 
L 2178 2263 
Q 2178 2497 2058 2636 
Q 1938 2775 1678 2775 
Q 1194 2775 1194 2369 
L 291 2369 
Q 291 2809 681 3126 
Q 1072 3444 1728 3444 
Q 2313 3444 2698 3147 
Q 3084 2850 3084 2256 
L 3084 750 
Q 3091 300 3219 53 
L 3219 0 
L 2306 0 
z
M 1559 628 
Q 1788 628 1948 729 
Q 2109 831 2178 953 
L 2178 1541 
L 1809 1541 
Q 1450 1541 1284 1389 
Q 1119 1238 1119 1016 
Q 1119 847 1236 737 
Q 1353 628 1559 628 
z
" transform="scale(0.015625)"/>
       <path id="Roboto-Bold-6e" d="M 1806 2713 
Q 1422 2713 1234 2388 
L 1234 0 
L 331 0 
L 331 3381 
L 1178 3381 
L 1209 2994 
Q 1572 3444 2181 3444 
Q 2659 3444 2953 3159 
Q 3247 2875 3250 2169 
L 3250 0 
L 2344 0 
L 2344 2156 
Q 2344 2481 2205 2597 
Q 2066 2713 1806 2713 
z
" transform="scale(0.015625)"/>
       <path id="Roboto-Bold-63" d="M 1753 666 
Q 2000 666 2159 802 
Q 2319 938 2322 1169 
L 3172 1169 
Q 3166 631 2761 284 
Q 2356 -63 1769 -63 
Q 984 -63 595 432 
Q 206 928 206 1647 
L 206 1734 
Q 206 2450 593 2947 
Q 981 3444 1766 3444 
Q 2388 3444 2777 3087 
Q 3166 2731 3172 2122 
L 2322 2122 
Q 2319 2369 2172 2542 
Q 2025 2716 1750 2716 
Q 1356 2716 1234 2420 
Q 1113 2125 1113 1647 
Q 1113 1256 1233 961 
Q 1353 666 1753 666 
z
" transform="scale(0.015625)"/>
       <path id="Roboto-Bold-65" d="M 3225 550 
Q 3063 319 2731 128 
Q 2400 -63 1906 -63 
Q 1119 -63 675 414 
Q 231 891 228 1566 
L 228 1697 
Q 228 2463 654 2953 
Q 1081 3444 1806 3444 
Q 2534 3444 2915 2987 
Q 3297 2531 3297 1781 
L 3297 1397 
L 1144 1397 
Q 1191 1069 1403 867 
Q 1616 666 1963 666 
Q 2478 666 2778 1044 
L 3225 550 
z
M 1800 2716 
Q 1513 2716 1356 2522 
Q 1200 2328 1153 2016 
L 2409 2016 
L 2409 2084 
Q 2403 2356 2258 2536 
Q 2113 2716 1800 2716 
z
" transform="scale(0.015625)"/>
       <path id="Roboto-Bold-5b" d="M 1728 5297 
L 1728 4600 
L 1281 4600 
L 1281 -366 
L 1728 -366 
L 1728 -1059 
L 375 -1059 
L 375 5297 
L 1728 5297 
z
" transform="scale(0.015625)"/>
       <path id="Roboto-Bold-c5" d="M 25 0 
L 1719 4550 
L 2588 4550 
L 4291 0 
L 3291 0 
L 2978 938 
L 1331 938 
L 1019 0 
L 25 0 
z
M 1584 1697 
L 2725 1697 
L 2156 3406 
L 1584 1697 
z
M 1471 5424 
Q 1471 5683 1668 5873 
Q 1865 6064 2168 6064 
Q 2468 6064 2666 5873 
Q 2865 5683 2865 5424 
Q 2865 5158 2666 4975 
Q 2468 4793 2168 4793 
Q 1865 4793 1668 4975 
Q 1471 5158 1471 5424 
z
M 1830 5423 
Q 1830 5286 1922 5187 
Q 2015 5089 2168 5089 
Q 2321 5089 2413 5187 
Q 2505 5286 2505 5423 
Q 2505 5561 2413 5662 
Q 2321 5764 2168 5764 
Q 2015 5764 1922 5662 
Q 1830 5561 1830 5423 
z
" transform="scale(0.015625)"/>
       <path id="Roboto-Bold-5d" d="M 41 4600 
L 41 5297 
L 1394 5297 
L 1394 -1059 
L 41 -1059 
L 41 -366 
L 491 -366 
L 491 4600 
L 41 4600 
z
" transform="scale(0.015625)"/>
      </defs>
      <use xlink:href="#Roboto-Bold-43"/>
      <use xlink:href="#Roboto-Bold-52" x="65.478516"/>
      <use xlink:href="#Roboto-Bold-4f" x="129.296875"/>
      <use xlink:href="#Roboto-Bold-36" x="198.339844"/>
      <use xlink:href="#Roboto-Bold-36" x="255.712891"/>
      <use xlink:href="#Roboto-Bold-20" x="313.085938"/>
      <use xlink:href="#Roboto-Bold-4f" x="337.988281"/>
      <use xlink:href="#Roboto-Bold-48" x="407.03125"/>
      <use xlink:href="#Roboto-Bold-20" x="477.734375"/>
      <use xlink:href="#Roboto-Bold-2d" x="502.636719"/>
      <use xlink:href="#Roboto-Bold-20" x="541.455078"/>
      <use xlink:href="#Roboto-Bold-48" x="566.357422"/>
      <use xlink:href="#Roboto-Bold-49" x="637.060547"/>
      <use xlink:href="#Roboto-Bold-53" x="666.259766"/>
      <use xlink:href="#Roboto-Bold-31" x="727.734375"/>
      <use xlink:href="#Roboto-Bold-34" x="785.107422"/>
      <use xlink:href="#Roboto-Bold-38" x="842.480469"/>
      <use xlink:href="#Roboto-Bold-20" x="899.853516"/>
      <use xlink:href="#Roboto-Bold-4e" x="924.755859"/>
      <use xlink:href="#Roboto-Bold-44" x="995.410156"/>
      <use xlink:href="#Roboto-Bold-31" x="1060.449219"/>
      <use xlink:href="#Roboto-Bold-20" x="1117.822266"/>
      <use xlink:href="#Roboto-Bold-44" x="1142.724609"/>
      <use xlink:href="#Roboto-Bold-69" x="1207.763672"/>
      <use xlink:href="#Roboto-Bold-73" x="1234.277344"/>
      <use xlink:href="#Roboto-Bold-74" x="1285.742188"/>
      <use xlink:href="#Roboto-Bold-61" x="1319.53125"/>
      <use xlink:href="#Roboto-Bold-6e" x="1373.144531"/>
      <use xlink:href="#Roboto-Bold-63" x="1429.150391"/>
      <use xlink:href="#Roboto-Bold-65" x="1481.347656"/>
      <use xlink:href="#Roboto-Bold-20" x="1535.400391"/>
      <use xlink:href="#Roboto-Bold-5b" x="1560.302734"/>
      <use xlink:href="#Roboto-Bold-c5" x="1588.134766"/>
      <use xlink:href="#Roboto-Bold-5d" x="1655.46875"/>
     </g>
    </g>
   </g>
   <g id="matplotlib.axis_2">
    <g id="ytick_1">
     <g id="line2d_6">
      <defs>
       <path id="m011d7c6291" d="M 0 0 
L -3.5 0 
" style="stroke: #c2c1c1; stroke-width: 0.8"/>
      </defs>
      <g>
       <use xlink:href="#m011d7c6291" x="54.902" y="298.6" style="fill: #c2c1c1; stroke: #c2c1c1; stroke-width: 0.8"/>
      </g>
     </g>
     <g id="text_7">
      <!-- 0.00 -->
      <g style="fill: #191919" transform="translate(28.403562 302.35) scale(0.1 -0.1)">
       <defs>
        <path id="Roboto-Regular-30" d="M 3234 1944 
Q 3234 825 2848 381 
Q 2463 -63 1800 -63 
Q 1156 -63 764 368 
Q 372 800 359 1872 
L 359 2638 
Q 359 3753 750 4183 
Q 1141 4613 1794 4613 
Q 2447 4613 2834 4195 
Q 3222 3778 3234 2709 
L 3234 1944 
z
M 2653 2734 
Q 2653 3503 2434 3822 
Q 2216 4141 1794 4141 
Q 1388 4141 1167 3831 
Q 947 3522 941 2778 
L 941 1850 
Q 941 1088 1164 750 
Q 1388 413 1800 413 
Q 2222 413 2436 745 
Q 2650 1078 2653 1825 
L 2653 2734 
z
" transform="scale(0.015625)"/>
        <path id="Roboto-Regular-2e" d="M 450 306 
Q 450 453 542 554 
Q 634 656 809 656 
Q 984 656 1076 554 
Q 1169 453 1169 306 
Q 1169 163 1076 62 
Q 984 -38 809 -38 
Q 634 -38 542 62 
Q 450 163 450 306 
z
" transform="scale(0.015625)"/>
       </defs>
       <use xlink:href="#Roboto-Regular-30"/>
       <use xlink:href="#Roboto-Regular-2e" x="56.201172"/>
       <use xlink:href="#Roboto-Regular-30" x="82.568359"/>
       <use xlink:href="#Roboto-Regular-30" x="138.769531"/>
      </g>
     </g>
    </g>
    <g id="ytick_2">
     <g id="line2d_7">
      <g>
       <use xlink:href="#m011d7c6291" x="54.902" y="266.533916" style="fill: #c2c1c1; stroke: #c2c1c1; stroke-width: 0.8"/>
      </g>
     </g>
     <g id="text_8">
      <!-- 0.05 -->
      <g style="fill: #191919" transform="translate(28.403562 270.283916) scale(0.1 -0.1)">
       <use xlink:href="#Roboto-Regular-30"/>
       <use xlink:href="#Roboto-Regular-2e" x="56.201172"/>
       <use xlink:href="#Roboto-Regular-30" x="82.568359"/>
       <use xlink:href="#Roboto-Regular-35" x="138.769531"/>
      </g>
     </g>
    </g>
    <g id="ytick_3">
     <g id="line2d_8">
      <g>
       <use xlink:href="#m011d7c6291" x="54.902" y="234.467831" style="fill: #c2c1c1; stroke: #c2c1c1; stroke-width: 0.8"/>
      </g>
     </g>
     <g id="text_9">
      <!-- 0.10 -->
      <g style="fill: #191919" transform="translate(28.403562 238.217831) scale(0.1 -0.1)">
       <defs>
        <path id="Roboto-Regular-31" d="M 2278 4575 
L 2278 0 
L 1700 0 
L 1700 3853 
L 534 3428 
L 534 3950 
L 2188 4575 
L 2278 4575 
z
" transform="scale(0.015625)"/>
       </defs>
       <use xlink:href="#Roboto-Regular-30"/>
       <use xlink:href="#Roboto-Regular-2e" x="56.201172"/>
       <use xlink:href="#Roboto-Regular-31" x="82.568359"/>
       <use xlink:href="#Roboto-Regular-30" x="138.769531"/>
      </g>
     </g>
    </g>
    <g id="ytick_4">
     <g id="line2d_9">
      <g>
       <use xlink:href="#m011d7c6291" x="54.902" y="202.401747" style="fill: #c2c1c1; stroke: #c2c1c1; stroke-width: 0.8"/>
      </g>
     </g>
     <g id="text_10">
      <!-- 0.15 -->
      <g style="fill: #191919" transform="translate(28.403562 206.151747) scale(0.1 -0.1)">
       <use xlink:href="#Roboto-Regular-30"/>
       <use xlink:href="#Roboto-Regular-2e" x="56.201172"/>
       <use xlink:href="#Roboto-Regular-31" x="82.568359"/>
       <use xlink:href="#Roboto-Regular-35" x="138.769531"/>
      </g>
     </g>
    </g>
    <g id="ytick_5">
     <g id="line2d_10">
      <g>
       <use xlink:href="#m011d7c6291" x="54.902" y="170.335663" style="fill: #c2c1c1; stroke: #c2c1c1; stroke-width: 0.8"/>
      </g>
     </g>
     <g id="text_11">
      <!-- 0.20 -->
      <g style="fill: #191919" transform="translate(28.403562 174.085663) scale(0.1 -0.1)">
       <defs>
        <path id="Roboto-Regular-32" d="M 3359 475 
L 3359 0 
L 381 0 
L 381 416 
L 1925 2134 
Q 2306 2566 2439 2819 
Q 2572 3072 2572 3328 
Q 2572 3663 2364 3900 
Q 2156 4138 1778 4138 
Q 1322 4138 1097 3878 
Q 872 3619 872 3213 
L 294 3213 
Q 294 3788 672 4200 
Q 1050 4613 1778 4613 
Q 2422 4613 2786 4278 
Q 3150 3944 3150 3397 
Q 3150 2997 2903 2592 
Q 2656 2188 2297 1797 
L 1078 475 
L 3359 475 
z
" transform="scale(0.015625)"/>
       </defs>
       <use xlink:href="#Roboto-Regular-30"/>
       <use xlink:href="#Roboto-Regular-2e" x="56.201172"/>
       <use xlink:href="#Roboto-Regular-32" x="82.568359"/>
       <use xlink:href="#Roboto-Regular-30" x="138.769531"/>
      </g>
     </g>
    </g>
    <g id="ytick_6">
     <g id="line2d_11">
      <g>
       <use xlink:href="#m011d7c6291" x="54.902" y="138.269579" style="fill: #c2c1c1; stroke: #c2c1c1; stroke-width: 0.8"/>
      </g>
     </g>
     <g id="text_12">
      <!-- 0.25 -->
      <g style="fill: #191919" transform="translate(28.403562 142.019579) scale(0.1 -0.1)">
       <use xlink:href="#Roboto-Regular-30"/>
       <use xlink:href="#Roboto-Regular-2e" x="56.201172"/>
       <use xlink:href="#Roboto-Regular-32" x="82.568359"/>
       <use xlink:href="#Roboto-Regular-35" x="138.769531"/>
      </g>
     </g>
    </g>
    <g id="ytick_7">
     <g id="line2d_12">
      <g>
       <use xlink:href="#m011d7c6291" x="54.902" y="106.203494" style="fill: #c2c1c1; stroke: #c2c1c1; stroke-width: 0.8"/>
      </g>
     </g>
     <g id="text_13">
      <!-- 0.30 -->
      <g style="fill: #191919" transform="translate(28.403562 109.953494) scale(0.1 -0.1)">
       <use xlink:href="#Roboto-Regular-30"/>
       <use xlink:href="#Roboto-Regular-2e" x="56.201172"/>
       <use xlink:href="#Roboto-Regular-33" x="82.568359"/>
       <use xlink:href="#Roboto-Regular-30" x="138.769531"/>
      </g>
     </g>
    </g>
    <g id="ytick_8">
     <g id="line2d_13">
      <g>
       <use xlink:href="#m011d7c6291" x="54.902" y="74.13741" style="fill: #c2c1c1; stroke: #c2c1c1; stroke-width: 0.8"/>
      </g>
     </g>
     <g id="text_14">
      <!-- 0.35 -->
      <g style="fill: #191919" transform="translate(28.403562 77.88741) scale(0.1 -0.1)">
       <use xlink:href="#Roboto-Regular-30"/>
       <use xlink:href="#Roboto-Regular-2e" x="56.201172"/>
       <use xlink:href="#Roboto-Regular-33" x="82.568359"/>
       <use xlink:href="#Roboto-Regular-35" x="138.769531"/>
      </g>
     </g>
    </g>
    <g id="ytick_9">
     <g id="line2d_14">
      <g>
       <use xlink:href="#m011d7c6291" x="54.902" y="42.071326" style="fill: #c2c1c1; stroke: #c2c1c1; stroke-width: 0.8"/>
      </g>
     </g>
     <g id="text_15">
      <!-- 0.40 -->
      <g style="fill: #191919" transform="translate(28.403562 45.821326) scale(0.1 -0.1)">
       <use xlink:href="#Roboto-Regular-30"/>
       <use xlink:href="#Roboto-Regular-2e" x="56.201172"/>
       <use xlink:href="#Roboto-Regular-34" x="82.568359"/>
       <use xlink:href="#Roboto-Regular-30" x="138.769531"/>
      </g>
     </g>
    </g>
    <g id="text_16">
     <!-- Density -->
     <g style="fill: #191919" transform="translate(21.842312 176.0075) rotate(-90) scale(0.12 -0.12)">
      <defs>
       <path id="Roboto-Bold-79" d="M 769 -1366 
Q 594 -1366 369 -1306 
L 369 -622 
L 509 -625 
Q 775 -625 903 -539 
Q 1031 -453 1097 -266 
L 1197 -6 
L 13 3381 
L 984 3381 
L 1613 1275 
L 2238 3381 
L 3203 3381 
L 1850 -506 
Q 1791 -675 1675 -876 
Q 1559 -1078 1342 -1222 
Q 1125 -1366 769 -1366 
z
" transform="scale(0.015625)"/>
      </defs>
      <use xlink:href="#Roboto-Bold-44"/>
      <use xlink:href="#Roboto-Bold-65" x="65.039062"/>
      <use xlink:href="#Roboto-Bold-6e" x="119.091797"/>
      <use xlink:href="#Roboto-Bold-73" x="175.097656"/>
      <use xlink:href="#Roboto-Bold-69" x="226.5625"/>
      <use xlink:href="#Roboto-Bold-74" x="253.076172"/>
      <use xlink:href="#Roboto-Bold-79" x="286.865234"/>
     </g>
    </g>
   </g>
   <g id="line2d_15">
    <path d="M 57.127981 289.890893 
L 59.275165 283.457255 
L 61.42235 273.754493 
L 63.569534 260.064328 
L 65.716718 241.993166 
L 67.863902 219.683897 
L 70.011086 193.945871 
L 74.305454 138.480466 
L 76.452638 112.747397 
L 78.599822 90.911849 
L 80.747006 74.36119 
L 82.89419 63.837403 
L 85.041374 59.41652 
L 87.188558 60.592696 
L 89.335742 66.419648 
L 91.482926 75.675641 
L 93.63011 87.036423 
L 97.924479 111.258588 
L 100.071663 122.342427 
L 102.218847 132.093592 
L 104.366031 140.392863 
L 106.513215 147.311992 
L 108.660399 153.011492 
L 110.807583 157.659168 
L 112.954767 161.383581 
L 115.101951 164.260655 
L 117.249135 166.322976 
L 119.396319 167.580567 
L 121.543503 168.044972 
L 123.690687 167.750537 
L 125.837871 166.76717 
L 127.985055 165.200018 
L 130.132239 163.175579 
L 132.279423 160.81944 
L 136.573792 155.491875 
L 140.86816 149.65944 
L 145.162528 143.434953 
L 149.456896 136.810011 
L 153.751264 129.651882 
L 158.045632 121.887554 
L 164.487184 109.843303 
L 168.781552 102.327115 
L 173.075921 95.483566 
L 177.370289 89.151156 
L 181.664657 83.152209 
L 185.959025 77.544689 
L 188.106209 74.960322 
L 190.253393 72.578504 
L 192.400577 70.457455 
L 194.547761 68.664299 
L 196.694945 67.257961 
L 198.842129 66.267745 
L 200.989313 65.681005 
L 203.136497 65.446913 
L 205.283681 65.491814 
L 207.430866 65.735739 
L 213.872418 66.946784 
L 218.166786 67.640605 
L 224.608338 68.286173 
L 228.902706 68.593657 
L 231.04989 68.617997 
L 233.197074 68.424302 
L 235.344258 67.900767 
L 237.491442 66.976672 
L 239.638626 65.653645 
L 241.78581 64.000412 
L 243.932995 62.111038 
L 248.227363 57.854183 
L 252.521731 53.065213 
L 254.668915 50.625787 
L 256.816099 48.379484 
L 258.963283 46.539631 
L 261.110467 45.292585 
L 263.257651 44.768977 
L 265.404835 45.052161 
L 267.552019 46.20779 
L 269.699203 48.309121 
L 271.846387 51.442176 
L 273.993571 55.689899 
L 276.140755 61.103499 
L 278.287939 67.671802 
L 280.435124 75.300135 
L 282.582308 83.809445 
L 286.876676 102.501897 
L 299.75978 160.33015 
L 304.054148 178.69516 
L 308.348516 195.611866 
L 310.4957 203.378677 
L 312.642884 210.691314 
L 314.790068 217.589039 
L 316.937253 224.109788 
L 319.084437 230.270496 
L 321.231621 236.059913 
L 323.378805 241.445655 
L 325.525989 246.39086 
L 327.673173 250.871825 
L 329.820357 254.888817 
L 331.967541 258.467148 
L 334.114725 261.650739 
L 336.261909 264.492811 
L 338.409093 267.047418 
L 340.556277 269.363123 
L 342.703461 271.478686 
L 344.850645 273.420749 
L 346.997829 275.204224 
L 349.145013 276.835811 
L 351.292198 278.319648 
L 355.586566 280.87841 
L 359.880934 283.004235 
L 364.175302 284.858134 
L 370.616854 287.359237 
L 377.058406 289.573866 
L 383.499958 291.476706 
L 389.941511 293.149622 
L 394.235879 294.087743 
L 400.677431 295.194226 
L 407.118983 296.077992 
L 413.560535 296.742771 
L 424.296456 297.540084 
L 432.885192 298.02728 
L 441.473928 298.309518 
L 456.504216 298.532387 
L 461.8 298.544947 
L 461.8 298.544947 
" clip-path="url(#p102533de4d)" style="fill: none; stroke: #1e2e79; stroke-width: 1.5; stroke-linecap: square"/>
   </g>
   <g id="line2d_16">
    <path d="M 59.905891 292.11131 
L 62.036503 287.592873 
L 64.167115 281.079736 
L 66.297727 272.34751 
L 68.42834 261.445144 
L 70.558952 248.764564 
L 74.820176 221.250523 
L 76.950788 208.475042 
L 79.0814 197.672188 
L 81.212012 189.506911 
L 83.342624 184.244073 
L 85.473236 181.754782 
L 87.603849 181.620559 
L 89.734461 183.282166 
L 91.865073 186.170269 
L 93.995685 189.780259 
L 98.256909 197.568498 
L 100.387521 201.140455 
L 102.518133 204.216406 
L 104.648745 206.678516 
L 106.779358 208.474846 
L 108.90997 209.601677 
L 111.040582 210.083034 
L 113.171194 209.953485 
L 115.301806 209.247376 
L 117.432418 207.994895 
L 119.56303 206.222205 
L 121.693642 203.950004 
L 123.824255 201.186509 
L 125.954867 197.918669 
L 128.085479 194.112564 
L 130.216091 189.730806 
L 132.346703 184.761052 
L 134.477315 179.238062 
L 136.607927 173.244578 
L 140.869151 160.288121 
L 147.260988 139.665903 
L 157.914048 104.239356 
L 160.04466 97.768354 
L 162.175273 91.812604 
L 164.305885 86.384048 
L 168.567109 76.658848 
L 179.22017 53.73976 
L 181.350782 49.71309 
L 183.481394 46.140756 
L 185.612006 43.049919 
L 187.742618 40.406073 
L 189.87323 38.150933 
L 192.003842 36.251524 
L 194.134454 34.734702 
L 196.265066 33.688186 
L 198.395679 33.226139 
L 200.526291 33.43194 
L 202.656903 34.29934 
L 204.787515 35.699584 
L 211.179351 40.750166 
L 215.440575 43.464205 
L 219.7018 46.122301 
L 232.485472 54.753886 
L 236.746697 58.096803 
L 241.007921 61.406276 
L 243.138533 62.760757 
L 245.269145 63.767183 
L 247.399757 64.331944 
L 249.530369 64.358775 
L 251.660981 63.747252 
L 253.791594 62.425218 
L 255.922206 60.402081 
L 258.052818 57.803353 
L 264.444654 48.94144 
L 266.575266 46.388567 
L 268.705878 44.273835 
L 270.83649 42.665138 
L 272.967103 41.604776 
L 275.097715 41.121176 
L 277.228327 41.24473 
L 279.358939 42.032392 
L 281.489551 43.588442 
L 283.620163 46.060562 
L 285.750775 49.604157 
L 287.881387 54.333176 
L 290.012 60.287585 
L 292.142612 67.433435 
L 294.273224 75.684614 
L 296.403836 84.921263 
L 298.534448 94.989417 
L 302.795672 116.765819 
L 307.056896 138.93389 
L 311.318121 159.644691 
L 313.448733 169.208987 
L 315.579345 178.253674 
L 317.709957 186.804579 
L 319.840569 194.873661 
L 321.971181 202.470435 
L 326.232405 216.418224 
L 330.49363 229.180476 
L 332.624242 235.173449 
L 334.754854 240.80208 
L 336.885466 245.94502 
L 339.016078 250.521011 
L 341.14669 254.534541 
L 343.277302 258.077376 
L 345.407915 261.287333 
L 349.669139 267.146004 
L 351.799751 269.852707 
L 353.930363 272.355428 
L 356.060975 274.595716 
L 358.191587 276.545272 
L 360.322199 278.219324 
L 362.452811 279.667738 
L 366.714036 282.136638 
L 373.105872 285.387632 
L 379.497708 288.381655 
L 383.758933 290.109369 
L 388.020157 291.477357 
L 392.281381 292.515276 
L 400.80383 294.185101 
L 409.326278 295.786725 
L 413.587502 296.425421 
L 419.979339 297.09459 
L 428.501787 297.700632 
L 437.024235 298.043517 
L 449.807908 298.315593 
L 461.8 298.516208 
L 461.8 298.516208 
" clip-path="url(#p102533de4d)" style="fill: none; stroke: #f99752; stroke-width: 1.5; stroke-linecap: square"/>
   </g>
   <g id="patch_213">
    <path d="M 54.902 298.6 
L 54.902 12.96 
" style="fill: none; stroke: #c2c1c1; stroke-width: 0.8; stroke-linejoin: miter; stroke-linecap: square"/>
   </g>
   <g id="patch_214">
    <path d="M 447.84 298.6 
L 447.84 12.96 
" style="fill: none; stroke: #c2c1c1; stroke-width: 0.8; stroke-linejoin: miter; stroke-linecap: square"/>
   </g>
   <g id="patch_215">
    <path d="M 54.902 298.6 
L 447.84 298.6 
" style="fill: none; stroke: #c2c1c1; stroke-width: 0.8; stroke-linejoin: miter; stroke-linecap: square"/>
   </g>
   <g id="patch_216">
    <path d="M 54.902 12.96 
L 447.84 12.96 
" style="fill: none; stroke: #c2c1c1; stroke-width: 0.8; stroke-linejoin: miter; stroke-linecap: square"/>
   </g>
   <g id="legend_1">
    <g id="patch_217">
     <path d="M 353.041875 57.435 
L 439.44 57.435 
Q 441.84 57.435 441.84 55.035 
L 441.84 21.36 
Q 441.84 18.96 439.44 18.96 
L 353.041875 18.96 
Q 350.641875 18.96 350.641875 21.36 
L 350.641875 55.035 
Q 350.641875 57.435 353.041875 57.435 
z
" style="fill: #ffffff; opacity: 0.8; stroke: #cccccc; stroke-linejoin: miter"/>
    </g>
    <g id="patch_218">
     <path d="M 355.441875 32.76 
L 379.441875 32.76 
L 379.441875 24.36 
L 355.441875 24.36 
z
" style="fill: #1e2e79; fill-opacity: 0.5; stroke: #000000; stroke-width: 0.33128; stroke-linejoin: miter"/>
    </g>
    <g id="text_17">
     <!-- Unbound -->
     <g transform="translate(389.041875 32.76) scale(0.12 -0.12)">
      <defs>
       <path id="Roboto-Regular-55" d="M 3131 4550 
L 3731 4550 
L 3731 1472 
Q 3731 703 3237 320 
Q 2744 -63 2081 -63 
Q 1384 -63 911 320 
Q 438 703 438 1472 
L 438 4550 
L 1034 4550 
L 1034 1472 
Q 1034 938 1323 683 
Q 1613 428 2081 428 
Q 2556 428 2843 683 
Q 3131 938 3131 1472 
L 3131 4550 
z
" transform="scale(0.015625)"/>
       <path id="Roboto-Regular-6e" d="M 1844 2956 
Q 1566 2956 1353 2806 
Q 1141 2656 1019 2416 
L 1019 0 
L 441 0 
L 441 3381 
L 988 3381 
L 1006 2959 
Q 1391 3444 2016 3444 
Q 2513 3444 2805 3166 
Q 3097 2888 3100 2231 
L 3100 0 
L 2519 0 
L 2519 2222 
Q 2519 2619 2345 2787 
Q 2172 2956 1844 2956 
z
" transform="scale(0.015625)"/>
       <path id="Roboto-Regular-62" d="M 3303 1653 
Q 3303 913 2959 425 
Q 2616 -63 1988 -63 
Q 1347 -63 1000 391 
L 969 0 
L 438 0 
L 438 4800 
L 1019 4800 
L 1019 3016 
Q 1363 3444 1981 3444 
Q 2619 3444 2961 2969 
Q 3303 2494 3303 1719 
L 3303 1653 
z
M 1838 2956 
Q 1522 2956 1325 2804 
Q 1128 2653 1019 2431 
L 1019 959 
Q 1131 734 1331 581 
Q 1531 428 1844 428 
Q 2313 428 2517 789 
Q 2722 1150 2722 1653 
L 2722 1719 
Q 2722 2222 2526 2589 
Q 2331 2956 1838 2956 
z
" transform="scale(0.015625)"/>
       <path id="Roboto-Regular-6f" d="M 288 1725 
Q 288 2459 700 2951 
Q 1113 3444 1822 3444 
Q 2531 3444 2943 2961 
Q 3356 2478 3366 1756 
L 3366 1653 
Q 3366 919 2952 428 
Q 2538 -63 1828 -63 
Q 1116 -63 702 428 
Q 288 919 288 1653 
L 288 1725 
z
M 866 1653 
Q 866 1150 1105 781 
Q 1344 413 1828 413 
Q 2300 413 2540 777 
Q 2781 1141 2784 1644 
L 2784 1725 
Q 2784 2222 2543 2595 
Q 2303 2969 1822 2969 
Q 1344 2969 1105 2595 
Q 866 2222 866 1725 
L 866 1653 
z
" transform="scale(0.015625)"/>
       <path id="Roboto-Regular-75" d="M 2538 0 
L 2525 334 
Q 2194 -63 1538 -63 
Q 1041 -63 734 231 
Q 428 525 428 1200 
L 428 3381 
L 1006 3381 
L 1006 1194 
Q 1006 738 1198 583 
Q 1391 428 1628 428 
Q 2281 428 2509 919 
L 2509 3381 
L 3091 3381 
L 3091 0 
L 2538 0 
z
" transform="scale(0.015625)"/>
       <path id="Roboto-Regular-64" d="M 2622 0 
L 2594 363 
Q 2247 -63 1628 -63 
Q 1034 -63 668 418 
Q 303 900 297 1628 
L 297 1719 
Q 297 2494 664 2969 
Q 1031 3444 1634 3444 
Q 2231 3444 2572 3044 
L 2572 4800 
L 3153 4800 
L 3153 0 
L 2622 0 
z
M 878 1653 
Q 878 1150 1090 789 
Q 1303 428 1772 428 
Q 2309 428 2572 919 
L 2572 2475 
Q 2313 2956 1778 2956 
Q 1306 2956 1092 2589 
Q 878 2222 878 1719 
L 878 1653 
z
" transform="scale(0.015625)"/>
      </defs>
      <use xlink:href="#Roboto-Regular-55"/>
      <use xlink:href="#Roboto-Regular-6e" x="64.84375"/>
      <use xlink:href="#Roboto-Regular-62" x="120.068359"/>
      <use xlink:href="#Roboto-Regular-6f" x="176.220703"/>
      <use xlink:href="#Roboto-Regular-75" x="233.251953"/>
      <use xlink:href="#Roboto-Regular-6e" x="288.378906"/>
      <use xlink:href="#Roboto-Regular-64" x="343.603516"/>
     </g>
    </g>
    <g id="patch_219">
     <path d="M 355.441875 50.1975 
L 379.441875 50.1975 
L 379.441875 41.7975 
L 355.441875 41.7975 
z
" style="fill: #f99752; fill-opacity: 0.5; stroke: #000000; stroke-width: 0.287633; stroke-linejoin: miter"/>
    </g>
    <g id="text_18">
     <!-- Bound -->
     <g transform="translate(389.041875 50.1975) scale(0.12 -0.12)">
      <defs>
       <path id="Roboto-Regular-42" d="M 3625 1313 
Q 3625 675 3214 337 
Q 2803 0 2122 0 
L 528 0 
L 528 4550 
L 2019 4550 
Q 2719 4550 3111 4261 
Q 3503 3972 3503 3338 
Q 3503 3022 3323 2776 
Q 3144 2531 2831 2397 
Q 3216 2291 3420 1994 
Q 3625 1697 3625 1313 
z
M 1131 4056 
L 1131 2613 
L 2038 2613 
Q 2425 2613 2662 2806 
Q 2900 3000 2900 3344 
Q 2900 4041 2056 4056 
L 1131 4056 
z
M 3025 1306 
Q 3025 1688 2817 1908 
Q 2609 2128 2150 2128 
L 1131 2128 
L 1131 491 
L 2122 491 
Q 2550 491 2787 711 
Q 3025 931 3025 1306 
z
" transform="scale(0.015625)"/>
      </defs>
      <use xlink:href="#Roboto-Regular-42"/>
      <use xlink:href="#Roboto-Regular-6f" x="62.304688"/>
      <use xlink:href="#Roboto-Regular-75" x="119.335938"/>
      <use xlink:href="#Roboto-Regular-6e" x="174.462891"/>
      <use xlink:href="#Roboto-Regular-64" x="229.6875"/>
     </g>
    </g>
   </g>
  </g>
 </g>
 <defs>
  <clipPath id="p102533de4d">
   <rect x="54.902" y="12.96" width="392.938" height="285.64"/>
  </clipPath>
 </defs>
</svg>
