<?xml version="1.0" encoding="UTF-8" standalone="no"?>
<svg
   width="252pt"
   height="216pt"
   viewBox="0 0 252 216"
   version="1.1"
   id="svg137"
   sodipodi:docname="fig008.svg"
   inkscape:export-filename="Figure S8.pdf"
   inkscape:export-xdpi="96"
   inkscape:export-ydpi="96"
   inkscape:version="1.4.1 (1:1.4.1+202503302257+93de688d07)"
   xmlns:inkscape="http://www.inkscape.org/namespaces/inkscape"
   xmlns:sodipodi="http://sodipodi.sourceforge.net/DTD/sodipodi-0.dtd"
   xmlns:xlink="http://www.w3.org/1999/xlink"
   xmlns="http://www.w3.org/2000/svg"
   xmlns:svg="http://www.w3.org/2000/svg"
   xmlns:rdf="http://www.w3.org/1999/02/22-rdf-syntax-ns#"
   xmlns:cc="http://creativecommons.org/ns#"
   xmlns:dc="http://purl.org/dc/elements/1.1/">
  <sodipodi:namedview
     id="namedview137"
     pagecolor="#ffffff"
     bordercolor="#666666"
     borderopacity="1.0"
     inkscape:showpageshadow="2"
     inkscape:pageopacity="0.0"
     inkscape:pagecheckerboard="0"
     inkscape:deskcolor="#d1d1d1"
     inkscape:document-units="pt"
     inkscape:zoom="1.5520833"
     inkscape:cx="158.49664"
     inkscape:cy="170.73825"
     inkscape:window-width="1868"
     inkscape:window-height="1136"
     inkscape:window-x="1675"
     inkscape:window-y="1467"
     inkscape:window-maximized="1"
     inkscape:current-layer="svg137" />
  <metadata
     id="metadata1">
    <rdf:RDF>
      <cc:Work>
        <dc:type
           rdf:resource="http://purl.org/dc/dcmitype/StillImage" />
        <dc:date>2025-04-28T15:06:00.573902</dc:date>
        <dc:format>image/svg+xml</dc:format>
        <dc:creator>
          <cc:Agent>
            <dc:title>Matplotlib v3.10.1, https://matplotlib.org/</dc:title>
          </cc:Agent>
        </dc:creator>
      </cc:Work>
    </rdf:RDF>
  </metadata>
  <defs
     id="defs1">
    <style
       type="text/css"
       id="style1">*{stroke-linejoin: round; stroke-linecap: butt}</style>
  </defs>
  <g
     id="figure_1">
    <g
       id="patch_1">
      <path
         d="M 0 216  L 252 216  L 252 0  L 0 0  z "
         style="fill: #ffffff"
         id="path1" />
    </g>
    <g
       id="axes_1">
      <g
         id="patch_2">
        <path
           d="M 38.522 179.8  L 237.807 179.8  L 237.807 10.611011  L 38.522 10.611011  z "
           style="fill: #ffffff"
           id="path2" />
      </g>
      <g
         id="line2d_1">
        <path
           d="M 38.522 179.8  L 68.448001 179.70641  L 69.445534 179.551427  L 70.443068 179.154919  L 70.941835 178.792938  L 71.440601 178.260583  L 71.939368 177.507265  L 72.438135 176.496665  L 73.435668 173.63604  L 74.433201 169.511735  L 75.430735 163.894211  L 76.428268 156.580127  L 77.425801 147.463867  L 81.914702 101.979791  L 82.912235 94.473566  L 83.909768 88.888495  L 84.907302 85.169017  L 85.904835 82.407049  L 86.403602 81.560925  L 86.902368 81.341599  L 87.401135 81.801362  L 87.899902 82.839883  L 88.897435 85.99121  L 90.393735 91.995519  L 91.890035 99.296981  L 95.880169 119.102386  L 99.371536 134.652163  L 101.366602 142.484995  L 102.364136 145.633565  L 104.359202 150.699005  L 106.853036 156.266947  L 107.850569 157.815602  L 109.346869 159.64403  L 111.341936 162.410848  L 112.838236 164.30218  L 113.835769 165.154177  L 115.33207 165.941481  L 116.82837 166.684156  L 118.32467 167.617782  L 121.31727 169.102618  L 122.314803 169.628316  L 123.811103 170.049423  L 125.80617 170.472756  L 127.30247 170.523438  L 128.300003 170.91096  L 129.796303 171.508588  L 132.290137 172.425405  L 133.786437 173.203039  L 137.277804 173.94817  L 138.774104 174.385744  L 141.267937 174.738313  L 143.263004 175.50787  L 144.759304 175.881298  L 146.754371 176.174614  L 148.250671 176.592482  L 152.240804 177.271219  L 154.235871 177.875427  L 157.727238 178.427474  L 173.189005 179.510067  L 189.149539 179.756732  L 210.596506 179.799999  L 253 179.799972  L 253 179.799972  "
           clip-path="url(#p998414a79c)"
           style="fill: none; stroke: #1e2e79; stroke-width: 1.5; stroke-linecap: square"
           id="path3" />
      </g>
      <g
         id="line2d_2">
        <path
           d="M 38.522 179.8  L 67.450468 179.705727  L 68.448001 179.557788  L 69.445534 179.079396  L 69.944301 178.599464  L 70.443068 177.772727  L 70.941835 176.488279  L 71.440601 174.588291  L 71.939368 172.044419  L 72.438135 168.899653  L 73.435668 160.440197  L 73.934435 154.750275  L 74.931968 138.083297  L 75.929501 120.99803  L 77.425801 86.948448  L 78.423335 64.207665  L 80.418402 32.633477  L 80.917168 28.843386  L 81.914702 19.504635  L 82.413468 18.66763  L 82.912235 19.363217  L 83.411002 20.70391  L 83.909768 23.287258  L 84.907302 29.848633  L 85.406068 34.494447  L 85.904835 40.720067  L 86.902368 55.463508  L 88.398669 73.784253  L 89.894969 94.632057  L 91.391269 109.53708  L 92.887569 126.699148  L 93.885102 135.730008  L 95.880169 148.685909  L 96.877702 154.624021  L 98.374002 161.101062  L 99.870302 164.722461  L 100.867836 168.171736  L 101.366602 169.230193  L 102.862902 171.371579  L 103.860436 172.741665  L 105.356736 174.692207  L 106.354269 176.01037  L 106.853036 176.134481  L 107.351803 175.971495  L 107.850569 176.230866  L 109.346869 177.433229  L 110.344403 177.650672  L 111.840703 178.22615  L 112.339469 178.217316  L 113.337003 178.470361  L 113.835769 178.319025  L 115.33207 178.761027  L 116.82837 179.198012  L 117.327136 179.381344  L 117.825903 179.410133  L 118.823436 179.216875  L 121.816036 179.500197  L 122.81357 179.450704  L 125.307403 179.659003  L 128.79877 179.711552  L 132.788904 179.741532  L 133.786437 179.723401  L 135.282737 179.751542  L 142.764237 179.798586  L 149.248204 179.8  L 253 179.8  L 253 179.8  "
           clip-path="url(#p998414a79c)"
           style="fill: none; stroke: #ec4067; stroke-width: 1.5; stroke-linecap: square"
           id="path4" />
      </g>
      <g
         id="matplotlib.axis_1">
        <g
           id="xtick_1">
          <g
             id="line2d_3">
            <defs
               id="defs4">
              <path
                 id="m9f0c0dce25"
                 d="M 0 0  L 0 3.5  "
                 style="stroke: #c2c1c1; stroke-width: 0.8" />
            </defs>
            <g
               id="g4">
              <use
                 xlink:href="#m9f0c0dce25"
                 x="38.522"
                 y="179.8"
                 style="fill: #c2c1c1; stroke: #c2c1c1; stroke-width: 0.8"
                 id="use4" />
            </g>
          </g>
          <g
             id="text_1">
            <!-- 1.0 -->
            <g
               style="fill: #191919"
               transform="translate(32.97075 192.8) scale(0.08 -0.08)"
               id="g7">
              <defs
                 id="defs5">
                <path
                   id="Roboto-Regular-31"
                   d="M 2278 4575  L 2278 0  L 1700 0  L 1700 3853  L 534 3428  L 534 3950  L 2188 4575  L 2278 4575  z "
                   transform="scale(0.015625)" />
                <path
                   id="Roboto-Regular-2e"
                   d="M 450 306  Q 450 453 542 554  Q 634 656 809 656  Q 984 656 1076 554  Q 1169 453 1169 306  Q 1169 163 1076 62  Q 984 -38 809 -38  Q 634 -38 542 62  Q 450 163 450 306  z "
                   transform="scale(0.015625)" />
                <path
                   id="Roboto-Regular-30"
                   d="M 3234 1944  Q 3234 825 2848 381  Q 2463 -63 1800 -63  Q 1156 -63 764 368  Q 372 800 359 1872  L 359 2638  Q 359 3753 750 4183  Q 1141 4613 1794 4613  Q 2447 4613 2834 4195  Q 3222 3778 3234 2709  L 3234 1944  z M 2653 2734  Q 2653 3503 2434 3822  Q 2216 4141 1794 4141  Q 1388 4141 1167 3831  Q 947 3522 941 2778  L 941 1850  Q 941 1088 1164 750  Q 1388 413 1800 413  Q 2222 413 2436 745  Q 2650 1078 2653 1825  L 2653 2734  z "
                   transform="scale(0.015625)" />
              </defs>
              <use
                 xlink:href="#Roboto-Regular-31"
                 id="use5" />
              <use
                 xlink:href="#Roboto-Regular-2e"
                 transform="translate(56.201172 0)"
                 id="use6" />
              <use
                 xlink:href="#Roboto-Regular-30"
                 transform="translate(82.568359 0)"
                 id="use7" />
            </g>
          </g>
        </g>
        <g
           id="xtick_2">
          <g
             id="line2d_4">
            <g
               id="g8">
              <use
                 xlink:href="#m9f0c0dce25"
                 x="63.432625"
                 y="179.8"
                 style="fill: #c2c1c1; stroke: #c2c1c1; stroke-width: 0.8"
                 id="use8" />
            </g>
          </g>
          <g
             id="text_2">
            <!-- 1.5 -->
            <g
               style="fill: #191919"
               transform="translate(57.881375 192.8) scale(0.08 -0.08)"
               id="g11">
              <defs
                 id="defs8">
                <path
                   id="Roboto-Regular-35"
                   d="M 1109 2166  L 647 2284  L 875 4550  L 3209 4550  L 3209 4016  L 1366 4016  L 1228 2778  Q 1572 2975 1988 2975  Q 2616 2975 2980 2561  Q 3344 2147 3344 1450  Q 3344 797 2987 367  Q 2631 -63 1903 -63  Q 1350 -63 947 248  Q 544 559 481 1197  L 1031 1197  Q 1141 413 1903 413  Q 2313 413 2538 691  Q 2763 969 2763 1444  Q 2763 1872 2527 2164  Q 2291 2456 1853 2456  Q 1563 2456 1413 2378  Q 1263 2300 1109 2166  z "
                   transform="scale(0.015625)" />
              </defs>
              <use
                 xlink:href="#Roboto-Regular-31"
                 id="use9" />
              <use
                 xlink:href="#Roboto-Regular-2e"
                 transform="translate(56.201172 0)"
                 id="use10" />
              <use
                 xlink:href="#Roboto-Regular-35"
                 transform="translate(82.568359 0)"
                 id="use11" />
            </g>
          </g>
        </g>
        <g
           id="xtick_3">
          <g
             id="line2d_5">
            <g
               id="g12">
              <use
                 xlink:href="#m9f0c0dce25"
                 x="88.34325"
                 y="179.8"
                 style="fill: #c2c1c1; stroke: #c2c1c1; stroke-width: 0.8"
                 id="use12" />
            </g>
          </g>
          <g
             id="text_3">
            <!-- 2.0 -->
            <g
               style="fill: #191919"
               transform="translate(82.792 192.8) scale(0.08 -0.08)"
               id="g15">
              <defs
                 id="defs12">
                <path
                   id="Roboto-Regular-32"
                   d="M 3359 475  L 3359 0  L 381 0  L 381 416  L 1925 2134  Q 2306 2566 2439 2819  Q 2572 3072 2572 3328  Q 2572 3663 2364 3900  Q 2156 4138 1778 4138  Q 1322 4138 1097 3878  Q 872 3619 872 3213  L 294 3213  Q 294 3788 672 4200  Q 1050 4613 1778 4613  Q 2422 4613 2786 4278  Q 3150 3944 3150 3397  Q 3150 2997 2903 2592  Q 2656 2188 2297 1797  L 1078 475  L 3359 475  z "
                   transform="scale(0.015625)" />
              </defs>
              <use
                 xlink:href="#Roboto-Regular-32"
                 id="use13" />
              <use
                 xlink:href="#Roboto-Regular-2e"
                 transform="translate(56.201172 0)"
                 id="use14" />
              <use
                 xlink:href="#Roboto-Regular-30"
                 transform="translate(82.568359 0)"
                 id="use15" />
            </g>
          </g>
        </g>
        <g
           id="xtick_4">
          <g
             id="line2d_6">
            <g
               id="g16">
              <use
                 xlink:href="#m9f0c0dce25"
                 x="113.253875"
                 y="179.8"
                 style="fill: #c2c1c1; stroke: #c2c1c1; stroke-width: 0.8"
                 id="use16" />
            </g>
          </g>
          <g
             id="text_4">
            <!-- 2.5 -->
            <g
               style="fill: #191919"
               transform="translate(107.702625 192.8) scale(0.08 -0.08)"
               id="g19">
              <use
                 xlink:href="#Roboto-Regular-32"
                 id="use17" />
              <use
                 xlink:href="#Roboto-Regular-2e"
                 transform="translate(56.201172 0)"
                 id="use18" />
              <use
                 xlink:href="#Roboto-Regular-35"
                 transform="translate(82.568359 0)"
                 id="use19" />
            </g>
          </g>
        </g>
        <g
           id="xtick_5">
          <g
             id="line2d_7">
            <g
               id="g20">
              <use
                 xlink:href="#m9f0c0dce25"
                 x="138.1645"
                 y="179.8"
                 style="fill: #c2c1c1; stroke: #c2c1c1; stroke-width: 0.8"
                 id="use20" />
            </g>
          </g>
          <g
             id="text_5">
            <!-- 3.0 -->
            <g
               style="fill: #191919"
               transform="translate(132.61325 192.8) scale(0.08 -0.08)"
               id="g23">
              <defs
                 id="defs20">
                <path
                   id="Roboto-Regular-33"
                   d="M 1222 2084  L 1222 2559  L 1647 2559  Q 2094 2563 2312 2784  Q 2531 3006 2531 3338  Q 2531 4138 1738 4138  Q 1369 4138 1141 3927  Q 913 3716 913 3359  L 334 3359  Q 334 3881 720 4247  Q 1106 4613 1738 4613  Q 2353 4613 2733 4286  Q 3113 3959 3113 3325  Q 3113 3072 2942 2784  Q 2772 2497 2397 2338  Q 2850 2191 3015 1884  Q 3181 1578 3181 1269  Q 3181 631 2768 284  Q 2356 -63 1741 -63  Q 1147 -63 722 267  Q 297 597 297 1203  L 875 1203  Q 875 844 1108 628  Q 1341 413 1741 413  Q 2138 413 2369 622  Q 2600 831 2600 1256  Q 2600 1681 2337 1882  Q 2075 2084 1634 2084  L 1222 2084  z "
                   transform="scale(0.015625)" />
              </defs>
              <use
                 xlink:href="#Roboto-Regular-33"
                 id="use21" />
              <use
                 xlink:href="#Roboto-Regular-2e"
                 transform="translate(56.201172 0)"
                 id="use22" />
              <use
                 xlink:href="#Roboto-Regular-30"
                 transform="translate(82.568359 0)"
                 id="use23" />
            </g>
          </g>
        </g>
        <g
           id="xtick_6">
          <g
             id="line2d_8">
            <g
               id="g24">
              <use
                 xlink:href="#m9f0c0dce25"
                 x="163.075125"
                 y="179.8"
                 style="fill: #c2c1c1; stroke: #c2c1c1; stroke-width: 0.8"
                 id="use24" />
            </g>
          </g>
          <g
             id="text_6">
            <!-- 3.5 -->
            <g
               style="fill: #191919"
               transform="translate(157.523875 192.8) scale(0.08 -0.08)"
               id="g27">
              <use
                 xlink:href="#Roboto-Regular-33"
                 id="use25" />
              <use
                 xlink:href="#Roboto-Regular-2e"
                 transform="translate(56.201172 0)"
                 id="use26" />
              <use
                 xlink:href="#Roboto-Regular-35"
                 transform="translate(82.568359 0)"
                 id="use27" />
            </g>
          </g>
        </g>
        <g
           id="xtick_7">
          <g
             id="line2d_9">
            <g
               id="g28">
              <use
                 xlink:href="#m9f0c0dce25"
                 x="187.98575"
                 y="179.8"
                 style="fill: #c2c1c1; stroke: #c2c1c1; stroke-width: 0.8"
                 id="use28" />
            </g>
          </g>
          <g
             id="text_7">
            <!-- 4.0 -->
            <g
               style="fill: #191919"
               transform="translate(182.4345 192.8) scale(0.08 -0.08)"
               id="g31">
              <defs
                 id="defs28">
                <path
                   id="Roboto-Regular-34"
                   d="M 166 1397  L 2203 4550  L 2819 4550  L 2819 1531  L 3453 1531  L 3453 1056  L 2819 1056  L 2819 0  L 2241 0  L 2241 1056  L 166 1056  L 166 1397  z M 822 1531  L 2241 1531  L 2241 3766  L 2169 3638  L 822 1531  z "
                   transform="scale(0.015625)" />
              </defs>
              <use
                 xlink:href="#Roboto-Regular-34"
                 id="use29" />
              <use
                 xlink:href="#Roboto-Regular-2e"
                 transform="translate(56.201172 0)"
                 id="use30" />
              <use
                 xlink:href="#Roboto-Regular-30"
                 transform="translate(82.568359 0)"
                 id="use31" />
            </g>
          </g>
        </g>
        <g
           id="xtick_8">
          <g
             id="line2d_10">
            <g
               id="g32">
              <use
                 xlink:href="#m9f0c0dce25"
                 x="212.896375"
                 y="179.8"
                 style="fill: #c2c1c1; stroke: #c2c1c1; stroke-width: 0.8"
                 id="use32" />
            </g>
          </g>
          <g
             id="text_8">
            <!-- 4.5 -->
            <g
               style="fill: #191919"
               transform="translate(207.345125 192.8) scale(0.08 -0.08)"
               id="g35">
              <use
                 xlink:href="#Roboto-Regular-34"
                 id="use33" />
              <use
                 xlink:href="#Roboto-Regular-2e"
                 transform="translate(56.201172 0)"
                 id="use34" />
              <use
                 xlink:href="#Roboto-Regular-35"
                 transform="translate(82.568359 0)"
                 id="use35" />
            </g>
          </g>
        </g>
        <g
           id="xtick_9">
          <g
             id="line2d_11">
            <g
               id="g36">
              <use
                 xlink:href="#m9f0c0dce25"
                 x="237.807"
                 y="179.8"
                 style="fill: #c2c1c1; stroke: #c2c1c1; stroke-width: 0.8"
                 id="use36" />
            </g>
          </g>
          <g
             id="text_9">
            <!-- 5.0 -->
            <g
               style="fill: #191919"
               transform="translate(232.25575 192.8) scale(0.08 -0.08)"
               id="g39">
              <use
                 xlink:href="#Roboto-Regular-35"
                 id="use37" />
              <use
                 xlink:href="#Roboto-Regular-2e"
                 transform="translate(56.201172 0)"
                 id="use38" />
              <use
                 xlink:href="#Roboto-Regular-30"
                 transform="translate(82.568359 0)"
                 id="use39" />
            </g>
          </g>
        </g>
        <g
           id="text_10">
          <!-- His148 H - Thr203 O [Å] -->
          <g
             style="fill: #191919"
             transform="translate(95.22825 205.6825) scale(0.08 -0.08)"
             id="g62">
            <defs
               id="defs39">
              <path
                 id="Roboto-Bold-48"
                 d="M 3175 0  L 3175 1950  L 1347 1950  L 1347 0  L 406 0  L 406 4550  L 1347 4550  L 1347 2706  L 3175 2706  L 3175 4550  L 4113 4550  L 4113 0  L 3175 0  z "
                 transform="scale(0.015625)" />
              <path
                 id="Roboto-Bold-69"
                 d="M 341 4256  Q 341 4459 478 4592  Q 616 4725 847 4725  Q 1078 4725 1215 4592  Q 1353 4459 1353 4256  Q 1353 4056 1215 3923  Q 1078 3791 847 3791  Q 616 3791 478 3923  Q 341 4056 341 4256  z M 1303 3381  L 1303 0  L 397 0  L 397 3381  L 1303 3381  z "
                 transform="scale(0.015625)" />
              <path
                 id="Roboto-Bold-73"
                 d="M 2178 938  Q 2178 1081 2045 1179  Q 1913 1278 1475 1372  Q 953 1484 618 1721  Q 284 1959 284 2394  Q 284 2816 642 3130  Q 1000 3444 1631 3444  Q 2291 3444 2669 3134  Q 3047 2825 3047 2353  L 2144 2353  Q 2144 2547 2019 2675  Q 1894 2803 1628 2803  Q 1403 2803 1276 2698  Q 1150 2594 1150 2438  Q 1150 2294 1284 2200  Q 1419 2106 1781 2034  Q 2331 1925 2693 1700  Q 3056 1475 3056 972  Q 3056 525 2672 231  Q 2288 -63 1634 -63  Q 925 -63 550 301  Q 175 666 175 1078  L 1034 1078  Q 1047 813 1230 697  Q 1413 581 1653 581  Q 2178 581 2178 938  z "
                 transform="scale(0.015625)" />
              <path
                 id="Roboto-Bold-31"
                 d="M 2503 4556  L 2503 0  L 1600 0  L 1600 3484  L 525 3150  L 525 3881  L 2406 4556  L 2503 4556  z "
                 transform="scale(0.015625)" />
              <path
                 id="Roboto-Bold-34"
                 d="M 175 1553  L 2072 4550  L 2984 4550  L 2984 1713  L 3500 1713  L 3500 984  L 2984 984  L 2984 0  L 2081 0  L 2081 984  L 216 984  L 175 1553  z M 1072 1713  L 2081 1713  L 2081 3328  L 2019 3219  L 1072 1713  z "
                 transform="scale(0.015625)" />
              <path
                 id="Roboto-Bold-38"
                 d="M 3369 1247  Q 3369 603 2933 270  Q 2497 -63 1837 -63  Q 1178 -63 736 270  Q 294 603 294 1247  Q 294 1625 489 1908  Q 684 2191 1013 2347  Q 725 2497 559 2755  Q 394 3013 394 3341  Q 394 3959 800 4287  Q 1206 4616 1831 4616  Q 2466 4616 2870 4287  Q 3275 3959 3275 3341  Q 3275 3009 3108 2753  Q 2941 2497 2653 2344  Q 2981 2188 3175 1906  Q 3369 1625 3369 1247  z M 2372 3297  Q 2372 3563 2230 3725  Q 2088 3888 1831 3888  Q 1581 3888 1439 3730  Q 1297 3572 1297 3297  Q 1297 3028 1439 2862  Q 1581 2697 1837 2697  Q 2094 2697 2233 2862  Q 2372 3028 2372 3297  z M 2466 1313  Q 2466 1619 2291 1794  Q 2116 1969 1831 1969  Q 1547 1969 1373 1794  Q 1200 1619 1200 1313  Q 1200 1009 1373 837  Q 1547 666 1838 666  Q 2125 666 2295 837  Q 2466 1009 2466 1313  z "
                 transform="scale(0.015625)" />
              <path
                 id="Roboto-Bold-20"
                 transform="scale(0.015625)" />
              <path
                 id="Roboto-Bold-2d"
                 d="M 2103 2316  L 2103 1584  L 347 1584  L 347 2316  L 2103 2316  z "
                 transform="scale(0.015625)" />
              <path
                 id="Roboto-Bold-54"
                 d="M 128 3791  L 128 4550  L 3831 4550  L 3831 3791  L 2441 3791  L 2441 0  L 1503 0  L 1503 3791  L 128 3791  z "
                 transform="scale(0.015625)" />
              <path
                 id="Roboto-Bold-68"
                 d="M 1803 2713  Q 1409 2713 1231 2409  L 1231 0  L 328 0  L 328 4800  L 1231 4800  L 1231 3016  Q 1584 3444 2134 3444  Q 2631 3444 2939 3150  Q 3247 2856 3250 2147  L 3250 0  L 2344 0  L 2344 2138  Q 2344 2466 2203 2589  Q 2063 2713 1803 2713  z "
                 transform="scale(0.015625)" />
              <path
                 id="Roboto-Bold-72"
                 d="M 1922 2563  Q 1413 2563 1253 2216  L 1253 0  L 347 0  L 347 3381  L 1200 3381  L 1228 2978  Q 1494 3444 1981 3444  Q 2153 3444 2259 3403  L 2250 2538  L 1922 2563  z "
                 transform="scale(0.015625)" />
              <path
                 id="Roboto-Bold-32"
                 d="M 3428 728  L 3428 0  L 313 0  L 313 619  L 1784 2188  Q 2116 2553 2245 2792  Q 2375 3031 2375 3234  Q 2375 3538 2223 3713  Q 2072 3888 1788 3888  Q 1466 3888 1295 3669  Q 1125 3450 1125 3119  L 222 3119  Q 222 3734 645 4175  Q 1069 4616 1803 4616  Q 2519 4616 2900 4270  Q 3281 3925 3281 3325  Q 3281 2875 3014 2470  Q 2747 2066 2284 1581  L 1472 728  L 3428 728  z "
                 transform="scale(0.015625)" />
              <path
                 id="Roboto-Bold-30"
                 d="M 3372 1884  Q 3372 856 2950 396  Q 2528 -63 1840 -63  Q 1153 -63 726 396  Q 300 856 300 1884  L 300 2675  Q 300 3700 723 4156  Q 1147 4613 1834 4613  Q 2519 4613 2944 4159  Q 3369 3706 3372 2691  L 3372 1884  z M 2469 2800  Q 2469 3406 2303 3645  Q 2138 3884 1834 3884  Q 1538 3884 1372 3650  Q 1206 3416 1203 2825  L 1203 1763  Q 1203 1153 1370 909  Q 1538 666 1841 666  Q 2138 666 2302 905  Q 2466 1144 2469 1738  L 2469 2800  z "
                 transform="scale(0.015625)" />
              <path
                 id="Roboto-Bold-33"
                 d="M 1231 1969  L 1231 2678  L 1713 2678  Q 2053 2678 2220 2848  Q 2388 3019 2388 3306  Q 2388 3559 2236 3723  Q 2084 3888 1772 3888  Q 1525 3888 1342 3750  Q 1159 3613 1159 3372  L 256 3372  Q 256 3934 690 4275  Q 1125 4616 1747 4616  Q 2438 4616 2864 4286  Q 3291 3956 3291 3319  Q 3291 3025 3109 2758  Q 2928 2491 2597 2338  Q 2978 2203 3168 1926  Q 3359 1650 3359 1278  Q 3359 638 2898 287  Q 2438 -63 1747 -63  Q 1363 -63 1008 78  Q 653 219 426 508  Q 200 797 200 1247  L 1106 1247  Q 1106 994 1295 830  Q 1484 666 1772 666  Q 2094 666 2275 837  Q 2456 1009 2456 1291  Q 2456 1969 1706 1969  L 1231 1969  z "
                 transform="scale(0.015625)" />
              <path
                 id="Roboto-Bold-4f"
                 d="M 4147 2172  Q 4147 1131 3608 534  Q 3069 -63 2212 -63  Q 1356 -63 812 534  Q 269 1131 269 2172  L 269 2375  Q 269 3416 809 4014  Q 1350 4613 2206 4613  Q 3063 4613 3605 4014  Q 4147 3416 4147 2375  L 4147 2172  z M 3197 2381  Q 3197 3094 2937 3466  Q 2678 3838 2206 3838  Q 1734 3838 1478 3470  Q 1222 3103 1219 2397  L 1219 2172  Q 1219 1463 1478 1086  Q 1738 709 2213 709  Q 2684 709 2939 1081  Q 3194 1453 3197 2156  L 3197 2381  z "
                 transform="scale(0.015625)" />
              <path
                 id="Roboto-Bold-5b"
                 d="M 1728 5297  L 1728 4600  L 1281 4600  L 1281 -366  L 1728 -366  L 1728 -1059  L 375 -1059  L 375 5297  L 1728 5297  z "
                 transform="scale(0.015625)" />
              <path
                 id="Roboto-Bold-c5"
                 d="M 25 0  L 1719 4550  L 2588 4550  L 4291 0  L 3291 0  L 2978 938  L 1331 938  L 1019 0  L 25 0  z M 1584 1697  L 2725 1697  L 2156 3406  L 1584 1697  z M 1472 5407  Q 1472 5666 1669 5856  Q 1866 6047 2169 6047  Q 2469 6047 2667 5856  Q 2866 5666 2866 5407  Q 2866 5141 2667 4958  Q 2469 4776 2169 4776  Q 1866 4776 1669 4958  Q 1472 5141 1472 5407  z M 1831 5406  Q 1831 5269 1923 5170  Q 2016 5072 2169 5072  Q 2322 5072 2414 5170  Q 2506 5269 2506 5406  Q 2506 5544 2414 5645  Q 2322 5747 2169 5747  Q 2016 5747 1923 5645  Q 1831 5544 1831 5406  z "
                 transform="scale(0.015625)" />
              <path
                 id="Roboto-Bold-5d"
                 d="M 41 4600  L 41 5297  L 1394 5297  L 1394 -1059  L 41 -1059  L 41 -366  L 491 -366  L 491 4600  L 41 4600  z "
                 transform="scale(0.015625)" />
            </defs>
            <use
               xlink:href="#Roboto-Bold-48"
               id="use40" />
            <use
               xlink:href="#Roboto-Bold-69"
               transform="translate(70.703125 0)"
               id="use41" />
            <use
               xlink:href="#Roboto-Bold-73"
               transform="translate(97.216797 0)"
               id="use42" />
            <use
               xlink:href="#Roboto-Bold-31"
               transform="translate(148.681641 0)"
               id="use43" />
            <use
               xlink:href="#Roboto-Bold-34"
               transform="translate(206.054688 0)"
               id="use44" />
            <use
               xlink:href="#Roboto-Bold-38"
               transform="translate(263.427734 0)"
               id="use45" />
            <use
               xlink:href="#Roboto-Bold-20"
               transform="translate(320.800781 0)"
               id="use46" />
            <use
               xlink:href="#Roboto-Bold-48"
               transform="translate(345.703125 0)"
               id="use47" />
            <use
               xlink:href="#Roboto-Bold-20"
               transform="translate(416.40625 0)"
               id="use48" />
            <use
               xlink:href="#Roboto-Bold-2d"
               transform="translate(441.308594 0)"
               id="use49" />
            <use
               xlink:href="#Roboto-Bold-20"
               transform="translate(480.126953 0)"
               id="use50" />
            <use
               xlink:href="#Roboto-Bold-54"
               transform="translate(505.029297 0)"
               id="use51" />
            <use
               xlink:href="#Roboto-Bold-68"
               transform="translate(566.894531 0)"
               id="use52" />
            <use
               xlink:href="#Roboto-Bold-72"
               transform="translate(622.900391 0)"
               id="use53" />
            <use
               xlink:href="#Roboto-Bold-32"
               transform="translate(659.423828 0)"
               id="use54" />
            <use
               xlink:href="#Roboto-Bold-30"
               transform="translate(716.796875 0)"
               id="use55" />
            <use
               xlink:href="#Roboto-Bold-33"
               transform="translate(774.169922 0)"
               id="use56" />
            <use
               xlink:href="#Roboto-Bold-20"
               transform="translate(831.542969 0)"
               id="use57" />
            <use
               xlink:href="#Roboto-Bold-4f"
               transform="translate(856.445312 0)"
               id="use58" />
            <use
               xlink:href="#Roboto-Bold-20"
               transform="translate(925.488281 0)"
               id="use59" />
            <use
               xlink:href="#Roboto-Bold-5b"
               transform="translate(950.390625 0)"
               id="use60" />
            <use
               xlink:href="#Roboto-Bold-c5"
               transform="translate(978.222656 0)"
               id="use61" />
            <use
               xlink:href="#Roboto-Bold-5d"
               transform="translate(1045.556641 0)"
               id="use62" />
          </g>
        </g>
      </g>
      <g
         id="matplotlib.axis_2">
        <g
           id="ytick_1">
          <g
             id="line2d_12">
            <defs
               id="defs62">
              <path
                 id="m75602aa7ea"
                 d="M 0 0  L -3.5 0  "
                 style="stroke: #c2c1c1; stroke-width: 0.8" />
            </defs>
            <g
               id="g63">
              <use
                 xlink:href="#m75602aa7ea"
                 x="38.522"
                 y="179.8"
                 style="fill: #c2c1c1; stroke: #c2c1c1; stroke-width: 0.8"
                 id="use63" />
            </g>
          </g>
          <g
             id="text_11">
            <!-- 0.0 -->
            <g
               style="fill: #191919"
               transform="translate(20.4195 182.8) scale(0.08 -0.08)"
               id="g66">
              <use
                 xlink:href="#Roboto-Regular-30"
                 id="use64" />
              <use
                 xlink:href="#Roboto-Regular-2e"
                 transform="translate(56.201172 0)"
                 id="use65" />
              <use
                 xlink:href="#Roboto-Regular-30"
                 transform="translate(82.568359 0)"
                 id="use66" />
            </g>
          </g>
        </g>
        <g
           id="ytick_2">
          <g
             id="line2d_13">
            <g
               id="g67">
              <use
                 xlink:href="#m75602aa7ea"
                 x="38.522"
                 y="155.783166"
                 style="fill: #c2c1c1; stroke: #c2c1c1; stroke-width: 0.8"
                 id="use67" />
            </g>
          </g>
          <g
             id="text_12">
            <!-- 0.5 -->
            <g
               style="fill: #191919"
               transform="translate(20.4195 158.783166) scale(0.08 -0.08)"
               id="g70">
              <use
                 xlink:href="#Roboto-Regular-30"
                 id="use68" />
              <use
                 xlink:href="#Roboto-Regular-2e"
                 transform="translate(56.201172 0)"
                 id="use69" />
              <use
                 xlink:href="#Roboto-Regular-35"
                 transform="translate(82.568359 0)"
                 id="use70" />
            </g>
          </g>
        </g>
        <g
           id="ytick_3">
          <g
             id="line2d_14">
            <g
               id="g71">
              <use
                 xlink:href="#m75602aa7ea"
                 x="38.522"
                 y="131.766333"
                 style="fill: #c2c1c1; stroke: #c2c1c1; stroke-width: 0.8"
                 id="use71" />
            </g>
          </g>
          <g
             id="text_13">
            <!-- 1.0 -->
            <g
               style="fill: #191919"
               transform="translate(20.4195 134.766333) scale(0.08 -0.08)"
               id="g74">
              <use
                 xlink:href="#Roboto-Regular-31"
                 id="use72" />
              <use
                 xlink:href="#Roboto-Regular-2e"
                 transform="translate(56.201172 0)"
                 id="use73" />
              <use
                 xlink:href="#Roboto-Regular-30"
                 transform="translate(82.568359 0)"
                 id="use74" />
            </g>
          </g>
        </g>
        <g
           id="ytick_4">
          <g
             id="line2d_15">
            <g
               id="g75">
              <use
                 xlink:href="#m75602aa7ea"
                 x="38.522"
                 y="107.749499"
                 style="fill: #c2c1c1; stroke: #c2c1c1; stroke-width: 0.8"
                 id="use75" />
            </g>
          </g>
          <g
             id="text_14">
            <!-- 1.5 -->
            <g
               style="fill: #191919"
               transform="translate(20.4195 110.749499) scale(0.08 -0.08)"
               id="g78">
              <use
                 xlink:href="#Roboto-Regular-31"
                 id="use76" />
              <use
                 xlink:href="#Roboto-Regular-2e"
                 transform="translate(56.201172 0)"
                 id="use77" />
              <use
                 xlink:href="#Roboto-Regular-35"
                 transform="translate(82.568359 0)"
                 id="use78" />
            </g>
          </g>
        </g>
        <g
           id="ytick_5">
          <g
             id="line2d_16">
            <g
               id="g79">
              <use
                 xlink:href="#m75602aa7ea"
                 x="38.522"
                 y="83.732665"
                 style="fill: #c2c1c1; stroke: #c2c1c1; stroke-width: 0.8"
                 id="use79" />
            </g>
          </g>
          <g
             id="text_15">
            <!-- 2.0 -->
            <g
               style="fill: #191919"
               transform="translate(20.4195 86.732665) scale(0.08 -0.08)"
               id="g82">
              <use
                 xlink:href="#Roboto-Regular-32"
                 id="use80" />
              <use
                 xlink:href="#Roboto-Regular-2e"
                 transform="translate(56.201172 0)"
                 id="use81" />
              <use
                 xlink:href="#Roboto-Regular-30"
                 transform="translate(82.568359 0)"
                 id="use82" />
            </g>
          </g>
        </g>
        <g
           id="ytick_6">
          <g
             id="line2d_17">
            <g
               id="g83">
              <use
                 xlink:href="#m75602aa7ea"
                 x="38.522"
                 y="59.715831"
                 style="fill: #c2c1c1; stroke: #c2c1c1; stroke-width: 0.8"
                 id="use83" />
            </g>
          </g>
          <g
             id="text_16">
            <!-- 2.5 -->
            <g
               style="fill: #191919"
               transform="translate(20.4195 62.715831) scale(0.08 -0.08)"
               id="g86">
              <use
                 xlink:href="#Roboto-Regular-32"
                 id="use84" />
              <use
                 xlink:href="#Roboto-Regular-2e"
                 transform="translate(56.201172 0)"
                 id="use85" />
              <use
                 xlink:href="#Roboto-Regular-35"
                 transform="translate(82.568359 0)"
                 id="use86" />
            </g>
          </g>
        </g>
        <g
           id="ytick_7">
          <g
             id="line2d_18">
            <g
               id="g87">
              <use
                 xlink:href="#m75602aa7ea"
                 x="38.522"
                 y="35.698998"
                 style="fill: #c2c1c1; stroke: #c2c1c1; stroke-width: 0.8"
                 id="use87" />
            </g>
          </g>
          <g
             id="text_17">
            <!-- 3.0 -->
            <g
               style="fill: #191919"
               transform="translate(20.4195 38.698998) scale(0.08 -0.08)"
               id="g90">
              <use
                 xlink:href="#Roboto-Regular-33"
                 id="use88" />
              <use
                 xlink:href="#Roboto-Regular-2e"
                 transform="translate(56.201172 0)"
                 id="use89" />
              <use
                 xlink:href="#Roboto-Regular-30"
                 transform="translate(82.568359 0)"
                 id="use90" />
            </g>
          </g>
        </g>
        <g
           id="ytick_8">
          <g
             id="line2d_19">
            <g
               id="g91">
              <use
                 xlink:href="#m75602aa7ea"
                 x="38.522"
                 y="11.682164"
                 style="fill: #c2c1c1; stroke: #c2c1c1; stroke-width: 0.8"
                 id="use91" />
            </g>
          </g>
          <g
             id="text_18">
            <!-- 3.5 -->
            <g
               style="fill: #191919"
               transform="translate(20.4195 14.682164) scale(0.08 -0.08)"
               id="g94">
              <use
                 xlink:href="#Roboto-Regular-33"
                 id="use92" />
              <use
                 xlink:href="#Roboto-Regular-2e"
                 transform="translate(56.201172 0)"
                 id="use93" />
              <use
                 xlink:href="#Roboto-Regular-35"
                 transform="translate(82.568359 0)"
                 id="use94" />
            </g>
          </g>
        </g>
        <g
           id="text_19">
          <!-- Probability Density -->
          <g
             style="fill: #191919"
             transform="translate(14.712 129.183631) rotate(-90) scale(0.08 -0.08)"
             id="g113">
            <defs
               id="defs94">
              <path
                 id="Roboto-Bold-50"
                 d="M 1347 1606  L 1347 0  L 406 0  L 406 4550  L 2184 4550  Q 2991 4550 3442 4125  Q 3894 3700 3894 3047  Q 3894 2388 3442 1997  Q 2991 1606 2184 1606  L 1347 1606  z M 1347 3791  L 1347 2363  L 2184 2363  Q 2588 2363 2766 2553  Q 2944 2744 2944 3041  Q 2944 3338 2766 3564  Q 2588 3791 2184 3791  L 1347 3791  z "
                 transform="scale(0.015625)" />
              <path
                 id="Roboto-Bold-6f"
                 d="M 206 1722  Q 206 2459 625 2951  Q 1044 3444 1806 3444  Q 2578 3444 2993 2951  Q 3409 2459 3409 1722  L 3409 1656  Q 3409 919 2993 428  Q 2578 -63 1813 -63  Q 1053 -63 636 415  Q 219 894 206 1616  L 206 1722  z M 1113 1656  Q 1113 1244 1270 955  Q 1428 666 1813 666  Q 2191 666 2348 953  Q 2506 1241 2506 1722  Q 2506 2125 2348 2420  Q 2191 2716 1806 2716  Q 1425 2716 1269 2422  Q 1113 2128 1113 1656  z "
                 transform="scale(0.015625)" />
              <path
                 id="Roboto-Bold-62"
                 d="M 3394 1659  Q 3394 900 3067 418  Q 2741 -63 2081 -63  Q 1531 -63 1203 359  L 1163 0  L 347 0  L 347 4800  L 1253 4800  L 1253 3081  Q 1569 3444 2075 3444  Q 2741 3444 3067 2959  Q 3394 2475 3394 1725  L 3394 1659  z M 1847 2713  Q 1419 2713 1253 2359  L 1253 1022  Q 1419 669 1853 669  Q 2231 669 2361 945  Q 2491 1222 2491 1725  Q 2491 2125 2361 2419  Q 2231 2713 1847 2713  z "
                 transform="scale(0.015625)" />
              <path
                 id="Roboto-Bold-61"
                 d="M 2306 0  Q 2250 119 2216 303  Q 1888 -63 1363 -63  Q 878 -63 547 223  Q 216 509 216 950  Q 216 1481 609 1773  Q 1003 2066 1775 2066  L 2178 2066  L 2178 2263  Q 2178 2497 2058 2636  Q 1938 2775 1678 2775  Q 1194 2775 1194 2369  L 291 2369  Q 291 2809 681 3126  Q 1072 3444 1728 3444  Q 2313 3444 2698 3147  Q 3084 2850 3084 2256  L 3084 750  Q 3091 300 3219 53  L 3219 0  L 2306 0  z M 1559 628  Q 1788 628 1948 729  Q 2109 831 2178 953  L 2178 1541  L 1809 1541  Q 1450 1541 1284 1389  Q 1119 1238 1119 1016  Q 1119 847 1236 737  Q 1353 628 1559 628  z "
                 transform="scale(0.015625)" />
              <path
                 id="Roboto-Bold-6c"
                 d="M 1303 4800  L 1303 0  L 397 0  L 397 4800  L 1303 4800  z "
                 transform="scale(0.015625)" />
              <path
                 id="Roboto-Bold-74"
                 d="M 2041 22  Q 1788 -63 1497 -63  Q 1053 -63 790 168  Q 528 400 528 938  L 528 2722  L 31 2722  L 31 3381  L 528 3381  L 528 4216  L 1431 4216  L 1431 3381  L 2006 3381  L 2006 2722  L 1431 2722  L 1431 1031  Q 1431 819 1518 750  Q 1606 681 1778 681  Q 1916 681 2041 706  L 2041 22  z "
                 transform="scale(0.015625)" />
              <path
                 id="Roboto-Bold-79"
                 d="M 769 -1366  Q 594 -1366 369 -1306  L 369 -622  L 509 -625  Q 775 -625 903 -539  Q 1031 -453 1097 -266  L 1197 -6  L 13 3381  L 984 3381  L 1613 1275  L 2238 3381  L 3203 3381  L 1850 -506  Q 1791 -675 1675 -876  Q 1559 -1078 1342 -1222  Q 1125 -1366 769 -1366  z "
                 transform="scale(0.015625)" />
              <path
                 id="Roboto-Bold-44"
                 d="M 406 0  L 406 4550  L 1809 4550  Q 2728 4550 3308 3950  Q 3888 3350 3888 2375  L 3888 2172  Q 3888 1197 3308 598  Q 2728 0 1797 0  L 406 0  z M 1347 3791  L 1347 756  L 1797 756  Q 2350 756 2639 1115  Q 2928 1475 2934 2144  L 2934 2381  Q 2934 3075 2661 3428  Q 2388 3781 1838 3791  L 1347 3791  z "
                 transform="scale(0.015625)" />
              <path
                 id="Roboto-Bold-65"
                 d="M 3225 550  Q 3063 319 2731 128  Q 2400 -63 1906 -63  Q 1119 -63 675 414  Q 231 891 228 1566  L 228 1697  Q 228 2463 654 2953  Q 1081 3444 1806 3444  Q 2534 3444 2915 2987  Q 3297 2531 3297 1781  L 3297 1397  L 1144 1397  Q 1191 1069 1403 867  Q 1616 666 1963 666  Q 2478 666 2778 1044  L 3225 550  z M 1800 2716  Q 1513 2716 1356 2522  Q 1200 2328 1153 2016  L 2409 2016  L 2409 2084  Q 2403 2356 2258 2536  Q 2113 2716 1800 2716  z "
                 transform="scale(0.015625)" />
              <path
                 id="Roboto-Bold-6e"
                 d="M 1806 2713  Q 1422 2713 1234 2388  L 1234 0  L 331 0  L 331 3381  L 1178 3381  L 1209 2994  Q 1572 3444 2181 3444  Q 2659 3444 2953 3159  Q 3247 2875 3250 2169  L 3250 0  L 2344 0  L 2344 2156  Q 2344 2481 2205 2597  Q 2066 2713 1806 2713  z "
                 transform="scale(0.015625)" />
            </defs>
            <use
               xlink:href="#Roboto-Bold-50"
               id="use95" />
            <use
               xlink:href="#Roboto-Bold-72"
               transform="translate(64.550781 0)"
               id="use96" />
            <use
               xlink:href="#Roboto-Bold-6f"
               transform="translate(101.074219 0)"
               id="use97" />
            <use
               xlink:href="#Roboto-Bold-62"
               transform="translate(157.617188 0)"
               id="use98" />
            <use
               xlink:href="#Roboto-Bold-61"
               transform="translate(213.916016 0)"
               id="use99" />
            <use
               xlink:href="#Roboto-Bold-62"
               transform="translate(267.529297 0)"
               id="use100" />
            <use
               xlink:href="#Roboto-Bold-69"
               transform="translate(323.828125 0)"
               id="use101" />
            <use
               xlink:href="#Roboto-Bold-6c"
               transform="translate(350.341797 0)"
               id="use102" />
            <use
               xlink:href="#Roboto-Bold-69"
               transform="translate(376.855469 0)"
               id="use103" />
            <use
               xlink:href="#Roboto-Bold-74"
               transform="translate(403.369141 0)"
               id="use104" />
            <use
               xlink:href="#Roboto-Bold-79"
               transform="translate(437.158203 0)"
               id="use105" />
            <use
               xlink:href="#Roboto-Bold-20"
               transform="translate(487.402344 0)"
               id="use106" />
            <use
               xlink:href="#Roboto-Bold-44"
               transform="translate(512.304688 0)"
               id="use107" />
            <use
               xlink:href="#Roboto-Bold-65"
               transform="translate(577.34375 0)"
               id="use108" />
            <use
               xlink:href="#Roboto-Bold-6e"
               transform="translate(631.396484 0)"
               id="use109" />
            <use
               xlink:href="#Roboto-Bold-73"
               transform="translate(687.402344 0)"
               id="use110" />
            <use
               xlink:href="#Roboto-Bold-69"
               transform="translate(738.867188 0)"
               id="use111" />
            <use
               xlink:href="#Roboto-Bold-74"
               transform="translate(765.380859 0)"
               id="use112" />
            <use
               xlink:href="#Roboto-Bold-79"
               transform="translate(799.169922 0)"
               id="use113" />
          </g>
        </g>
      </g>
      <g
         id="line2d_20">
        <path
           d="M 38.522 179.8  L 72.936901 179.713125  L 76.927035 179.399936  L 78.922102 178.980394  L 81.415935 178.50871  L 86.902368 177.754162  L 93.885102 177.545743  L 95.880169 177.282907  L 99.371536 176.505641  L 100.867836 176.003675  L 104.359202 174.44732  L 105.855503 173.414142  L 107.850569 171.706624  L 108.848103 170.571559  L 113.835769 163.46636  L 115.33207 160.527682  L 118.32467 154.416333  L 120.818503 148.346007  L 122.314803 145.112338  L 123.312336 142.447985  L 125.80617 135.270374  L 127.30247 131.68675  L 128.79877 128.788096  L 130.29507 126.472511  L 132.788904 123.266889  L 134.285204 121.078734  L 134.78397 120.517694  L 135.282737 120.133711  L 135.781504 119.961617  L 136.28027 119.998118  L 137.277804 120.48942  L 139.27287 121.947105  L 140.76917 123.229415  L 141.766704 124.493246  L 142.764237 126.334117  L 145.756837 132.632143  L 147.751904 136.909815  L 149.746971 141.015604  L 151.742038 145.011874  L 154.734638 151.210335  L 157.727238 157.440618  L 161.717371 163.754958  L 163.213671 165.265367  L 165.208738 167.006647  L 168.700105 169.364205  L 170.196405 169.996925  L 172.191472 170.685455  L 175.682838 172.252051  L 177.179138 172.802379  L 178.176672 172.924217  L 179.672972 172.992249  L 181.668039 173.387828  L 184.161872 173.884896  L 186.655706 174.174253  L 188.650772 174.569963  L 192.142139 175.342207  L 193.638439 175.71372  L 196.631039 176.63061  L 198.626106 177.084565  L 201.119939 177.606548  L 203.115006 178.105682  L 204.611306 178.266563  L 207.10514 178.432495  L 212.092806 179.03119  L 220.073073 179.483239  L 229.050874 179.716172  L 246.008941 179.781256  L 253 179.799098  L 253 179.799098  "
           clip-path="url(#p998414a79c)"
           style="fill: none; stroke: #f99752; stroke-width: 1.5; stroke-linecap: square"
           id="path113" />
      </g>
      <g
         id="patch_3">
        <path
           d="M 38.522 179.8  L 38.522 10.611011  "
           style="fill: none; stroke: #c2c1c1; stroke-width: 0.8; stroke-linejoin: miter; stroke-linecap: square"
           id="path114" />
      </g>
      <g
         id="patch_4">
        <path
           d="M 237.807 179.8  L 237.807 10.611011  "
           style="fill: none; stroke: #c2c1c1; stroke-width: 0.8; stroke-linejoin: miter; stroke-linecap: square"
           id="path115" />
      </g>
      <g
         id="patch_5">
        <path
           d="M 38.522 179.8  L 237.807 179.8  "
           style="fill: none; stroke: #c2c1c1; stroke-width: 0.8; stroke-linejoin: miter; stroke-linecap: square"
           id="path116" />
      </g>
      <g
         id="patch_6">
        <path
           d="M 38.522 10.611011  L 237.807 10.611011  "
           style="fill: none; stroke: #c2c1c1; stroke-width: 0.8; stroke-linejoin: miter; stroke-linecap: square"
           id="path117" />
      </g>
      <g
         id="legend_1">
        <g
           id="line2d_21">
          <path
             d="M 177.172 21.011011  L 185.172 21.011011  L 193.172 21.011011  "
             style="fill: none; stroke: #1e2e79; stroke-width: 1.5; stroke-linecap: square"
             id="path118" />
        </g>
        <g
           id="text_20">
          <!-- Reduced -->
          <g
             transform="translate(199.572 23.811011) scale(0.08 -0.08)"
             id="g124">
            <defs
               id="defs118">
              <path
                 id="Roboto-Regular-52"
                 d="M 3188 0  L 2200 1844  L 1131 1844  L 1131 0  L 528 0  L 528 4550  L 2034 4550  Q 2800 4550 3214 4200  Q 3628 3850 3628 3184  Q 3628 2759 3398 2442  Q 3169 2125 2763 1969  L 3831 38  L 3831 0  L 3188 0  z M 1131 4056  L 1131 2334  L 2053 2334  Q 2538 2334 2783 2582  Q 3028 2831 3028 3184  Q 3028 3578 2792 3817  Q 2556 4056 2034 4056  L 1131 4056  z "
                 transform="scale(0.015625)" />
              <path
                 id="Roboto-Regular-65"
                 d="M 3116 591  Q 2950 341 2647 139  Q 2344 -63 1844 -63  Q 1138 -63 714 396  Q 291 856 291 1572  L 291 1703  Q 291 2256 502 2645  Q 713 3034 1050 3239  Q 1388 3444 1769 3444  Q 2494 3444 2826 2970  Q 3159 2497 3159 1788  L 3159 1528  L 872 1528  Q 884 1063 1148 736  Q 1413 409 1875 409  Q 2181 409 2393 534  Q 2606 659 2766 869  L 3116 591  z M 1769 2969  Q 1425 2969 1187 2719  Q 950 2469 891 2000  L 2581 2000  L 2581 2044  Q 2559 2381 2386 2675  Q 2213 2969 1769 2969  z "
                 transform="scale(0.015625)" />
              <path
                 id="Roboto-Regular-64"
                 d="M 2622 0  L 2594 363  Q 2247 -63 1628 -63  Q 1034 -63 668 418  Q 303 900 297 1628  L 297 1719  Q 297 2494 664 2969  Q 1031 3444 1634 3444  Q 2231 3444 2572 3044  L 2572 4800  L 3153 4800  L 3153 0  L 2622 0  z M 878 1653  Q 878 1150 1090 789  Q 1303 428 1772 428  Q 2309 428 2572 919  L 2572 2475  Q 2313 2956 1778 2956  Q 1306 2956 1092 2589  Q 878 2222 878 1719  L 878 1653  z "
                 transform="scale(0.015625)" />
              <path
                 id="Roboto-Regular-75"
                 d="M 2538 0  L 2525 334  Q 2194 -63 1538 -63  Q 1041 -63 734 231  Q 428 525 428 1200  L 428 3381  L 1006 3381  L 1006 1194  Q 1006 738 1198 583  Q 1391 428 1628 428  Q 2281 428 2509 919  L 2509 3381  L 3091 3381  L 3091 0  L 2538 0  z "
                 transform="scale(0.015625)" />
              <path
                 id="Roboto-Regular-63"
                 d="M 1794 413  Q 2103 413 2336 597  Q 2569 781 2591 1069  L 3141 1069  Q 3119 616 2725 276  Q 2331 -63 1794 -63  Q 1031 -63 661 440  Q 291 944 291 1625  L 291 1756  Q 291 2438 661 2941  Q 1031 3444 1794 3444  Q 2388 3444 2753 3092  Q 3119 2741 3141 2219  L 2591 2219  Q 2569 2531 2355 2750  Q 2141 2969 1794 2969  Q 1438 2969 1236 2787  Q 1034 2606 951 2328  Q 869 2050 869 1756  L 869 1625  Q 869 1328 950 1050  Q 1031 772 1232 592  Q 1434 413 1794 413  z "
                 transform="scale(0.015625)" />
            </defs>
            <use
               xlink:href="#Roboto-Regular-52"
               id="use118" />
            <use
               xlink:href="#Roboto-Regular-65"
               transform="translate(61.621094 0)"
               id="use119" />
            <use
               xlink:href="#Roboto-Regular-64"
               transform="translate(114.648438 0)"
               id="use120" />
            <use
               xlink:href="#Roboto-Regular-75"
               transform="translate(171.044922 0)"
               id="use121" />
            <use
               xlink:href="#Roboto-Regular-63"
               transform="translate(226.171875 0)"
               id="use122" />
            <use
               xlink:href="#Roboto-Regular-65"
               transform="translate(278.515625 0)"
               id="use123" />
            <use
               xlink:href="#Roboto-Regular-64"
               transform="translate(331.542969 0)"
               id="use124" />
          </g>
        </g>
        <g
           id="line2d_22">
          <path
             d="M 177.172 32.636011  L 185.172 32.636011  L 193.172 32.636011  "
             style="fill: none; stroke: #ec4067; stroke-width: 1.5; stroke-linecap: square"
             id="path124" />
        </g>
        <g
           id="text_21">
          <!-- Oxidized -->
          <g
             transform="translate(199.572 35.436011) scale(0.08 -0.08)"
             id="g132">
            <defs
               id="defs124">
              <path
                 id="Roboto-Regular-4f"
                 d="M 4031 2131  Q 4031 1106 3534 521  Q 3038 -63 2206 -63  Q 1397 -63 884 521  Q 372 1106 372 2131  L 372 2419  Q 372 3441 881 4027  Q 1391 4613 2200 4613  Q 3025 4613 3523 4036  Q 4022 3459 4031 2456  L 4031 2131  z M 3434 2425  Q 3434 3238 3109 3669  Q 2784 4100 2200 4100  Q 1641 4100 1305 3669  Q 969 3238 969 2425  L 969 2131  Q 969 1313 1308 880  Q 1647 447 2206 447  Q 2794 447 3114 880  Q 3434 1313 3434 2131  L 3434 2425  z "
                 transform="scale(0.015625)" />
              <path
                 id="Roboto-Regular-78"
                 d="M 831 3381  L 1572 2150  L 2322 3381  L 3000 3381  L 1894 1713  L 3034 0  L 2366 0  L 1584 1269  L 803 0  L 131 0  L 1269 1713  L 166 3381  L 831 3381  z "
                 transform="scale(0.015625)" />
              <path
                 id="Roboto-Regular-69"
                 d="M 444 4278  Q 444 4419 530 4516  Q 616 4613 784 4613  Q 950 4613 1039 4516  Q 1128 4419 1128 4278  Q 1128 4144 1039 4048  Q 950 3953 784 3953  Q 616 3953 530 4048  Q 444 4144 444 4278  z M 1069 3381  L 1069 0  L 488 0  L 488 3381  L 1069 3381  z "
                 transform="scale(0.015625)" />
              <path
                 id="Roboto-Regular-7a"
                 d="M 303 2903  L 303 3381  L 2869 3381  L 2869 2972  L 988 475  L 2959 475  L 2959 0  L 278 0  L 278 425  L 2141 2903  L 303 2903  z "
                 transform="scale(0.015625)" />
            </defs>
            <use
               xlink:href="#Roboto-Regular-4f"
               id="use125" />
            <use
               xlink:href="#Roboto-Regular-78"
               transform="translate(68.798828 0)"
               id="use126" />
            <use
               xlink:href="#Roboto-Regular-69"
               transform="translate(118.408203 0)"
               id="use127" />
            <use
               xlink:href="#Roboto-Regular-64"
               transform="translate(142.724609 0)"
               id="use128" />
            <use
               xlink:href="#Roboto-Regular-69"
               transform="translate(199.121094 0)"
               id="use129" />
            <use
               xlink:href="#Roboto-Regular-7a"
               transform="translate(223.4375 0)"
               id="use130" />
            <use
               xlink:href="#Roboto-Regular-65"
               transform="translate(273.046875 0)"
               id="use131" />
            <use
               xlink:href="#Roboto-Regular-64"
               transform="translate(326.074219 0)"
               id="use132" />
          </g>
        </g>
        <g
           id="line2d_23">
          <path
             d="M 177.172 44.678511  L 185.172 44.678511  L 193.172 44.678511  "
             style="fill: none; stroke: #f99752; stroke-width: 1.5; stroke-linecap: square"
             id="path132" />
        </g>
        <g
           id="text_22">
          <!-- Cu(I) -->
          <g
             transform="translate(199.572 47.478511) scale(0.08 -0.08)"
             id="g137">
            <defs
               id="defs132">
              <path
                 id="Roboto-Regular-43"
                 d="M 3275 1447  L 3875 1447  Q 3806 800 3387 368  Q 2969 -63 2150 -63  Q 1356 -63 870 504  Q 384 1072 375 2013  L 375 2500  Q 375 3456 867 4034  Q 1359 4613 2203 4613  Q 2975 4613 3390 4188  Q 3806 3763 3875 3091  L 3275 3091  Q 3206 3566 2968 3842  Q 2731 4119 2203 4119  Q 1600 4119 1287 3675  Q 975 3231 975 2506  L 975 2047  Q 975 1375 1259 901  Q 1544 428 2150 428  Q 2725 428 2961 697  Q 3197 966 3275 1447  z "
                 transform="scale(0.015625)" />
              <path
                 id="Roboto-Regular-28"
                 d="M 419 1850  Q 419 2756 678 3434  Q 938 4113 1294 4541  Q 1650 4969 1947 5134  L 2069 4753  Q 1700 4475 1348 3761  Q 997 3047 997 1813  Q 997 625 1348 -97  Q 1700 -819 2069 -1119  L 1947 -1469  Q 1650 -1306 1294 -878  Q 938 -450 678 226  Q 419 903 419 1850  z "
                 transform="scale(0.015625)" />
              <path
                 id="Roboto-Regular-49"
                 d="M 1175 4550  L 1175 0  L 572 0  L 572 4550  L 1175 4550  z "
                 transform="scale(0.015625)" />
              <path
                 id="Roboto-Regular-29"
                 d="M 1772 1819  Q 1772 906 1512 228  Q 1253 -450 895 -878  Q 538 -1306 244 -1469  L 122 -1119  Q 488 -841 841 -109  Q 1194 622 1194 1856  Q 1194 2647 1019 3236  Q 844 3825 594 4212  Q 344 4600 122 4781  L 244 5134  Q 538 4969 895 4541  Q 1253 4113 1512 3436  Q 1772 2759 1772 1819  z "
                 transform="scale(0.015625)" />
            </defs>
            <use
               xlink:href="#Roboto-Regular-43"
               id="use133" />
            <use
               xlink:href="#Roboto-Regular-75"
               transform="translate(65.087891 0)"
               id="use134" />
            <use
               xlink:href="#Roboto-Regular-28"
               transform="translate(120.214844 0)"
               id="use135" />
            <use
               xlink:href="#Roboto-Regular-49"
               transform="translate(154.443359 0)"
               id="use136" />
            <use
               xlink:href="#Roboto-Regular-29"
               transform="translate(181.640625 0)"
               id="use137" />
          </g>
        </g>
      </g>
    </g>
  </g>
  <defs
     id="defs137">
    <clipPath
       id="p998414a79c">
      <rect
         x="38.522"
         y="10.611011"
         width="199.285"
         height="169.188989"
         id="rect137" />
    </clipPath>
  </defs>
</svg>
