<?xml version="1.0" encoding="utf-8" standalone="no"?>
<!DOCTYPE svg PUBLIC "-//W3C//DTD SVG 1.1//EN"
  "http://www.w3.org/Graphics/SVG/1.1/DTD/svg11.dtd">
<svg xmlns:xlink="http://www.w3.org/1999/xlink" width="460.8pt" height="345.6pt" viewBox="0 0 460.8 345.6" xmlns="http://www.w3.org/2000/svg" version="1.1">
 <metadata>
  <rdf:RDF xmlns:dc="http://purl.org/dc/elements/1.1/" xmlns:cc="http://creativecommons.org/ns#" xmlns:rdf="http://www.w3.org/1999/02/22-rdf-syntax-ns#">
   <cc:Work>
    <dc:type rdf:resource="http://purl.org/dc/dcmitype/StillImage"/>
    <dc:date>2024-06-10T22:02:05.756237</dc:date>
    <dc:format>image/svg+xml</dc:format>
    <dc:creator>
     <cc:Agent>
      <dc:title>Matplotlib v3.8.4, https://matplotlib.org/</dc:title>
     </cc:Agent>
    </dc:creator>
   </cc:Work>
  </rdf:RDF>
 </metadata>
 <defs>
  <style type="text/css">*{stroke-linejoin: round; stroke-linecap: butt}</style>
 </defs>
 <g id="figure_1">
  <g id="patch_1">
   <path d="M 0 345.6 
L 460.8 345.6 
L 460.8 0 
L 0 0 
z
" style="fill: #ffffff"/>
  </g>
  <g id="axes_1">
   <g id="patch_2">
    <path d="M 46.64 302.8525 
L 446.805 302.8525 
L 446.805 14.76 
L 46.64 14.76 
z
" style="fill: #ffffff"/>
   </g>
   <g id="line2d_1">
    <path d="M 46.64 171.901364 
L 446.805 171.901364 
" clip-path="url(#p7bc99e6bc9)" style="fill: none; stroke-dasharray: 1.75,2.8875; stroke-dashoffset: 0; stroke: #c0c0c0; stroke-width: 1.75"/>
   </g>
   <g id="line2d_2">
    <path d="M 85.215175 -1 
L 86.295991 27.554121 
L 87.738027 60.271145 
L 89.180063 88.915056 
L 90.622099 114.001045 
L 92.064135 135.210771 
L 93.506171 152.341117 
L 94.948207 166.205707 
L 97.111261 184.0465 
L 98.553297 194.687597 
L 99.995333 203.913594 
L 101.437369 211.483082 
L 102.879405 217.423063 
L 104.321441 222.127798 
L 106.484495 228.081698 
L 107.926532 231.553352 
L 109.368568 234.444729 
L 110.089586 235.601557 
L 110.810604 236.518526 
L 111.531622 237.167008 
L 112.25264 237.542212 
L 112.973658 237.670746 
L 113.694676 237.602951 
L 115.136712 237.091611 
L 116.578748 236.296242 
L 118.020784 235.259502 
L 119.46282 233.821855 
L 120.904856 231.828942 
L 124.509946 226.115318 
L 129.557072 219.092333 
L 135.325216 208.61791 
L 138.209288 202.884077 
L 139.651324 199.590759 
L 142.535396 192.579828 
L 143.977432 189.983014 
L 145.419468 187.471951 
L 146.861505 184.103971 
L 149.024559 178.368128 
L 150.466595 175.130118 
L 151.908631 172.447459 
L 152.629649 171.397275 
L 153.350667 170.638071 
L 154.071685 170.240998 
L 154.792703 170.260084 
L 155.513721 170.724888 
L 156.234739 171.63441 
L 156.955757 172.958351 
L 157.676775 174.646196 
L 159.118811 178.83023 
L 162.002883 187.694177 
L 164.165937 194.11673 
L 165.607973 199.304549 
L 169.213063 213.767218 
L 173.539171 231.717426 
L 177.144261 245.156138 
L 179.307315 252.823263 
L 180.749351 257.381639 
L 182.191387 261.241557 
L 183.633423 264.466422 
L 185.075459 267.230649 
L 187.238514 270.783213 
L 189.401568 273.915065 
L 190.843604 275.771538 
L 192.28564 277.202544 
L 193.006658 277.691725 
L 193.727676 278.026933 
L 195.169712 278.339179 
L 197.332766 278.397801 
L 198.774802 278.281958 
L 200.216838 277.893116 
L 201.658874 277.171434 
L 204.542946 275.266231 
L 205.984982 274.104253 
L 207.427018 272.642819 
L 209.590072 270.33989 
L 211.032108 269.22247 
L 213.195162 268.10184 
L 214.637198 267.328641 
L 216.079234 266.358262 
L 218.242288 264.554719 
L 220.405342 262.691595 
L 229.778577 255.319809 
L 230.499595 254.562695 
L 231.941631 252.544429 
L 235.546721 246.271347 
L 236.988757 244.472077 
L 238.430793 242.804513 
L 239.872829 240.799055 
L 242.756901 236.519041 
L 245.640973 232.736471 
L 247.083009 231.263008 
L 248.525045 230.169144 
L 252.130135 227.950245 
L 253.572171 227.507504 
L 255.735225 227.181024 
L 258.619297 226.287951 
L 259.340315 226.246821 
L 260.061333 226.34761 
L 261.503369 226.862714 
L 262.945405 227.332541 
L 263.666423 227.380628 
L 265.108459 227.072952 
L 267.271514 226.172944 
L 269.434568 225.236012 
L 273.760676 223.78802 
L 275.202712 223.291131 
L 275.92373 223.270888 
L 276.644748 223.433493 
L 279.52882 224.671685 
L 280.249838 224.783543 
L 281.691874 224.701714 
L 283.13391 224.613225 
L 284.575946 224.867986 
L 286.017982 225.240784 
L 286.739 225.30919 
L 287.460018 225.23698 
L 288.181036 225.012738 
L 289.623072 224.168307 
L 292.507144 222.003943 
L 293.228162 221.693005 
L 296.112234 220.910742 
L 296.833252 220.447992 
L 298.275288 219.064244 
L 300.438342 216.714815 
L 301.15936 216.129698 
L 301.880378 215.702703 
L 302.601396 215.426208 
L 304.043432 215.18946 
L 305.485468 214.963865 
L 306.206486 214.656756 
L 306.927505 214.141445 
L 308.369541 212.535096 
L 309.811577 210.710676 
L 310.532595 209.995561 
L 311.253613 209.527531 
L 311.974631 209.329862 
L 312.695649 209.361959 
L 314.858703 209.878315 
L 315.579721 209.885273 
L 316.300739 209.708413 
L 317.021757 209.308587 
L 317.742775 208.658142 
L 318.463793 207.754114 
L 319.905829 205.390356 
L 321.347865 203.02347 
L 322.068883 202.12089 
L 322.789901 201.46506 
L 323.510919 201.028187 
L 324.952955 200.593627 
L 326.394991 200.511032 
L 327.837027 200.70565 
L 329.279063 200.954758 
L 330.000081 200.928035 
L 330.721099 200.708788 
L 331.442117 200.279902 
L 332.884153 198.992286 
L 340.815351 191.353189 
L 341.536369 191.072111 
L 342.257387 191.153691 
L 342.978405 191.62664 
L 344.420441 193.312461 
L 345.862477 194.897152 
L 347.304514 195.827977 
L 349.467568 197.000469 
L 350.909604 197.857673 
L 351.630622 198.098234 
L 352.35164 198.106183 
L 353.072658 197.834499 
L 353.793676 197.267014 
L 354.514694 196.424351 
L 358.119784 191.252454 
L 361.724874 187.000762 
L 362.445892 186.644076 
L 363.16691 186.668055 
L 363.887928 187.030379 
L 366.772 189.378181 
L 367.493018 189.515458 
L 368.214036 189.310637 
L 368.935054 188.815197 
L 370.37709 187.57814 
L 371.098108 187.194536 
L 371.819126 187.092293 
L 372.540144 187.237069 
L 373.98218 187.919062 
L 376.145234 189.094907 
L 377.58727 189.617213 
L 378.308288 189.680792 
L 379.029306 189.540769 
L 379.750324 189.149051 
L 380.471342 188.494987 
L 383.355414 184.993582 
L 384.076432 184.432054 
L 385.518468 183.783474 
L 387.681523 183.020718 
L 389.123559 182.070548 
L 390.565595 180.935073 
L 391.286613 180.572726 
L 392.007631 180.48811 
L 392.728649 180.686798 
L 394.891703 181.863617 
L 395.612721 182.063909 
L 396.333739 182.104475 
L 397.054757 181.999356 
L 397.775775 181.733881 
L 398.496793 181.242649 
L 399.217811 180.439621 
L 399.938829 179.285818 
L 402.101883 174.977898 
L 402.822901 174.012214 
L 403.543919 173.51174 
L 404.264937 173.404629 
L 405.706973 173.75384 
L 409.312063 174.929552 
L 410.033081 174.942329 
L 410.754099 174.601285 
L 411.475117 173.820339 
L 412.196135 172.629001 
L 414.359189 168.441116 
L 415.080207 167.605261 
L 415.801225 167.260764 
L 416.522243 167.332363 
L 417.964279 167.932369 
L 418.685297 168.061621 
L 419.406315 167.958941 
L 421.569369 167.24925 
L 423.732423 167.061601 
L 424.453441 166.613559 
L 425.174459 165.818902 
L 426.616495 163.436889 
L 428.77955 159.588096 
L 431.663622 154.811605 
L 432.38464 154.019038 
L 433.105658 153.916478 
L 433.826676 154.669331 
L 434.547694 156.122042 
L 435.98973 159.339365 
L 436.710748 160.243411 
L 437.431766 160.400337 
L 438.152784 159.840431 
L 438.873802 158.706251 
L 440.315838 155.431414 
L 441.757874 152.053449 
L 442.478892 150.841929 
L 443.19991 150.148859 
L 443.920928 149.952466 
L 444.641946 150.096123 
L 446.805 151.029453 
L 448.247036 151.870964 
L 451.852126 154.695933 
L 455.457216 156.405754 
L 456.178234 156.653755 
L 456.899252 156.629144 
L 457.62027 156.206142 
L 458.341288 155.377316 
L 459.783324 153.233476 
L 460.504342 152.503101 
L 461.22536 152.301281 
L 461.8 152.570783 
L 461.8 152.570783 
" clip-path="url(#p7bc99e6bc9)" style="fill: none; stroke: #1e2e79; stroke-width: 2.5; stroke-linecap: square"/>
   </g>
   <g id="line2d_3">
    <path d="M 76.718283 -1 
L 78.364793 21.423557 
L 80.527847 48.597203 
L 82.690901 73.371465 
L 84.853955 95.857765 
L 87.017009 116.129837 
L 89.180063 134.244991 
L 91.343117 150.259727 
L 93.506171 164.235115 
L 95.669225 176.234723 
L 97.111261 183.167964 
L 98.553297 189.26977 
L 99.995333 194.559776 
L 101.437369 199.059949 
L 102.879405 202.796193 
L 104.321441 205.7999 
L 105.763477 208.109126 
L 107.205514 209.769016 
L 108.64755 210.831135 
L 109.368568 211.155435 
L 110.089586 211.351472 
L 110.810604 211.426406 
L 112.25264 211.240624 
L 113.694676 210.649826 
L 115.136712 209.698138 
L 116.578748 208.421015 
L 118.020784 206.846609 
L 119.46282 204.999216 
L 121.625874 201.772231 
L 123.788928 198.098139 
L 128.115036 190.089307 
L 130.999108 184.98063 
L 133.162162 181.632469 
L 135.325216 178.824949 
L 136.767252 177.255406 
L 138.930306 175.30402 
L 141.09336 173.76114 
L 143.256414 172.571737 
L 145.419468 171.731724 
L 146.861505 171.382637 
L 148.303541 171.220099 
L 149.745577 171.261409 
L 151.187613 171.526542 
L 152.629649 172.040519 
L 154.071685 172.834518 
L 155.513721 173.943214 
L 156.955757 175.397895 
L 158.397793 177.217842 
L 159.839829 179.404021 
L 161.281865 181.938088 
L 163.444919 186.315928 
L 165.607973 191.257493 
L 168.492045 198.468905 
L 178.586297 224.56524 
L 180.749351 229.348093 
L 182.912405 233.577696 
L 185.075459 237.20305 
L 186.517495 239.276573 
L 187.959532 241.077505 
L 189.401568 242.610046 
L 190.843604 243.878074 
L 192.28564 244.883967 
L 193.727676 245.628847 
L 195.169712 246.114123 
L 196.611748 246.343731 
L 198.053784 246.32616 
L 199.49582 246.07541 
L 200.937856 245.610476 
L 202.379892 244.953604 
L 204.542946 243.659016 
L 206.706 242.058192 
L 209.590072 239.556321 
L 212.474144 236.741997 
L 216.079234 232.866276 
L 218.963306 229.448686 
L 222.568396 224.763756 
L 229.778577 215.182796 
L 232.662649 211.751229 
L 236.267739 207.844703 
L 239.151811 205.051056 
L 241.314865 203.222661 
L 243.477919 201.672228 
L 245.640973 200.405249 
L 247.804027 199.404023 
L 249.967081 198.661648 
L 252.130135 198.191076 
L 254.293189 197.992471 
L 257.177261 198.048705 
L 262.224387 198.26939 
L 265.108459 198.153349 
L 273.760676 197.607112 
L 277.365766 197.445358 
L 279.52882 197.16619 
L 281.691874 196.68728 
L 284.575946 195.789149 
L 290.34409 193.851068 
L 293.228162 193.151707 
L 296.112234 192.714544 
L 299.717324 192.445735 
L 303.322414 192.178622 
L 305.485468 191.820585 
L 307.648523 191.202565 
L 309.811577 190.302503 
L 312.695649 188.791468 
L 316.300739 186.872546 
L 319.184811 185.623181 
L 322.068883 184.642353 
L 327.837027 182.806136 
L 330.721099 181.625023 
L 339.373315 177.800519 
L 342.978405 176.227712 
L 345.141459 175.072173 
L 348.025532 173.250407 
L 354.514694 168.692941 
L 358.119784 166.288372 
L 361.003856 164.646951 
L 363.16691 163.69317 
L 365.329964 162.998373 
L 368.214036 162.352775 
L 379.029306 160.296135 
L 381.19236 160.195629 
L 384.076432 160.311055 
L 390.565595 160.803299 
L 392.728649 160.695484 
L 394.891703 160.2965 
L 396.333739 159.839489 
L 397.775775 159.21716 
L 399.217811 158.424524 
L 401.380865 156.920428 
L 403.543919 155.072345 
L 405.706973 152.94884 
L 408.591045 149.806714 
L 411.475117 146.350651 
L 414.359189 142.523814 
L 417.964279 137.268716 
L 428.058532 121.880444 
L 433.826676 112.896276 
L 436.710748 108.89895 
L 441.757874 102.183132 
L 443.920928 98.744078 
L 446.083982 94.750337 
L 451.852126 83.432205 
L 453.294162 81.220308 
L 454.736198 79.429958 
L 456.178234 77.993365 
L 460.504342 74.1625 
L 461.8 72.67752 
L 461.8 72.67752 
" clip-path="url(#p7bc99e6bc9)" style="fill: none; stroke: #ec4067; stroke-width: 2.5; stroke-linecap: square"/>
   </g>
   <g id="matplotlib.axis_1">
    <g id="xtick_1">
     <g id="line2d_4">
      <defs>
       <path id="md6b6520e73" d="M 0 0 
L 0 3.5 
" style="stroke: #000000; stroke-width: 0.8"/>
      </defs>
      <g>
       <use xlink:href="#md6b6520e73" x="46.64" y="302.8525" style="stroke: #000000; stroke-width: 0.8"/>
      </g>
     </g>
     <g id="text_1">
      <!-- 1 -->
      <g transform="translate(43.45875 317.450937) scale(0.1 -0.1)">
       <defs>
        <path id="DejaVuSans-31" d="M 794 531 
L 1825 531 
L 1825 4091 
L 703 3866 
L 703 4441 
L 1819 4666 
L 2450 4666 
L 2450 531 
L 3481 531 
L 3481 0 
L 794 0 
L 794 531 
z
" transform="scale(0.015625)"/>
       </defs>
       <use xlink:href="#DejaVuSans-31"/>
      </g>
     </g>
    </g>
    <g id="xtick_2">
     <g id="line2d_5">
      <g>
       <use xlink:href="#md6b6520e73" x="126.673" y="302.8525" style="stroke: #000000; stroke-width: 0.8"/>
      </g>
     </g>
     <g id="text_2">
      <!-- 2 -->
      <g transform="translate(123.49175 317.450937) scale(0.1 -0.1)">
       <defs>
        <path id="DejaVuSans-32" d="M 1228 531 
L 3431 531 
L 3431 0 
L 469 0 
L 469 531 
Q 828 903 1448 1529 
Q 2069 2156 2228 2338 
Q 2531 2678 2651 2914 
Q 2772 3150 2772 3378 
Q 2772 3750 2511 3984 
Q 2250 4219 1831 4219 
Q 1534 4219 1204 4116 
Q 875 4013 500 3803 
L 500 4441 
Q 881 4594 1212 4672 
Q 1544 4750 1819 4750 
Q 2544 4750 2975 4387 
Q 3406 4025 3406 3419 
Q 3406 3131 3298 2873 
Q 3191 2616 2906 2266 
Q 2828 2175 2409 1742 
Q 1991 1309 1228 531 
z
" transform="scale(0.015625)"/>
       </defs>
       <use xlink:href="#DejaVuSans-32"/>
      </g>
     </g>
    </g>
    <g id="xtick_3">
     <g id="line2d_6">
      <g>
       <use xlink:href="#md6b6520e73" x="206.706" y="302.8525" style="stroke: #000000; stroke-width: 0.8"/>
      </g>
     </g>
     <g id="text_3">
      <!-- 3 -->
      <g transform="translate(203.52475 317.450937) scale(0.1 -0.1)">
       <defs>
        <path id="DejaVuSans-33" d="M 2597 2516 
Q 3050 2419 3304 2112 
Q 3559 1806 3559 1356 
Q 3559 666 3084 287 
Q 2609 -91 1734 -91 
Q 1441 -91 1130 -33 
Q 819 25 488 141 
L 488 750 
Q 750 597 1062 519 
Q 1375 441 1716 441 
Q 2309 441 2620 675 
Q 2931 909 2931 1356 
Q 2931 1769 2642 2001 
Q 2353 2234 1838 2234 
L 1294 2234 
L 1294 2753 
L 1863 2753 
Q 2328 2753 2575 2939 
Q 2822 3125 2822 3475 
Q 2822 3834 2567 4026 
Q 2313 4219 1838 4219 
Q 1578 4219 1281 4162 
Q 984 4106 628 3988 
L 628 4550 
Q 988 4650 1302 4700 
Q 1616 4750 1894 4750 
Q 2613 4750 3031 4423 
Q 3450 4097 3450 3541 
Q 3450 3153 3228 2886 
Q 3006 2619 2597 2516 
z
" transform="scale(0.015625)"/>
       </defs>
       <use xlink:href="#DejaVuSans-33"/>
      </g>
     </g>
    </g>
    <g id="xtick_4">
     <g id="line2d_7">
      <g>
       <use xlink:href="#md6b6520e73" x="286.739" y="302.8525" style="stroke: #000000; stroke-width: 0.8"/>
      </g>
     </g>
     <g id="text_4">
      <!-- 4 -->
      <g transform="translate(283.55775 317.450937) scale(0.1 -0.1)">
       <defs>
        <path id="DejaVuSans-34" d="M 2419 4116 
L 825 1625 
L 2419 1625 
L 2419 4116 
z
M 2253 4666 
L 3047 4666 
L 3047 1625 
L 3713 1625 
L 3713 1100 
L 3047 1100 
L 3047 0 
L 2419 0 
L 2419 1100 
L 313 1100 
L 313 1709 
L 2253 4666 
z
" transform="scale(0.015625)"/>
       </defs>
       <use xlink:href="#DejaVuSans-34"/>
      </g>
     </g>
    </g>
    <g id="xtick_5">
     <g id="line2d_8">
      <g>
       <use xlink:href="#md6b6520e73" x="366.772" y="302.8525" style="stroke: #000000; stroke-width: 0.8"/>
      </g>
     </g>
     <g id="text_5">
      <!-- 5 -->
      <g transform="translate(363.59075 317.450937) scale(0.1 -0.1)">
       <defs>
        <path id="DejaVuSans-35" d="M 691 4666 
L 3169 4666 
L 3169 4134 
L 1269 4134 
L 1269 2991 
Q 1406 3038 1543 3061 
Q 1681 3084 1819 3084 
Q 2600 3084 3056 2656 
Q 3513 2228 3513 1497 
Q 3513 744 3044 326 
Q 2575 -91 1722 -91 
Q 1428 -91 1123 -41 
Q 819 9 494 109 
L 494 744 
Q 775 591 1075 516 
Q 1375 441 1709 441 
Q 2250 441 2565 725 
Q 2881 1009 2881 1497 
Q 2881 1984 2565 2268 
Q 2250 2553 1709 2553 
Q 1456 2553 1204 2497 
Q 953 2441 691 2322 
L 691 4666 
z
" transform="scale(0.015625)"/>
       </defs>
       <use xlink:href="#DejaVuSans-35"/>
      </g>
     </g>
    </g>
    <g id="xtick_6">
     <g id="line2d_9">
      <g>
       <use xlink:href="#md6b6520e73" x="446.805" y="302.8525" style="stroke: #000000; stroke-width: 0.8"/>
      </g>
     </g>
     <g id="text_6">
      <!-- 6 -->
      <g transform="translate(443.62375 317.450937) scale(0.1 -0.1)">
       <defs>
        <path id="DejaVuSans-36" d="M 2113 2584 
Q 1688 2584 1439 2293 
Q 1191 2003 1191 1497 
Q 1191 994 1439 701 
Q 1688 409 2113 409 
Q 2538 409 2786 701 
Q 3034 994 3034 1497 
Q 3034 2003 2786 2293 
Q 2538 2584 2113 2584 
z
M 3366 4563 
L 3366 3988 
Q 3128 4100 2886 4159 
Q 2644 4219 2406 4219 
Q 1781 4219 1451 3797 
Q 1122 3375 1075 2522 
Q 1259 2794 1537 2939 
Q 1816 3084 2150 3084 
Q 2853 3084 3261 2657 
Q 3669 2231 3669 1497 
Q 3669 778 3244 343 
Q 2819 -91 2113 -91 
Q 1303 -91 875 529 
Q 447 1150 447 2328 
Q 447 3434 972 4092 
Q 1497 4750 2381 4750 
Q 2619 4750 2861 4703 
Q 3103 4656 3366 4563 
z
" transform="scale(0.015625)"/>
       </defs>
       <use xlink:href="#DejaVuSans-36"/>
      </g>
     </g>
    </g>
    <g id="text_7">
     <!-- THR203 OG1 - H2O H Distance [Å] -->
     <g transform="translate(160.738906 332.0525) scale(0.1 -0.1)">
      <defs>
       <path id="DejaVuSans-54" d="M -19 4666 
L 3928 4666 
L 3928 4134 
L 2272 4134 
L 2272 0 
L 1638 0 
L 1638 4134 
L -19 4134 
L -19 4666 
z
" transform="scale(0.015625)"/>
       <path id="DejaVuSans-48" d="M 628 4666 
L 1259 4666 
L 1259 2753 
L 3553 2753 
L 3553 4666 
L 4184 4666 
L 4184 0 
L 3553 0 
L 3553 2222 
L 1259 2222 
L 1259 0 
L 628 0 
L 628 4666 
z
" transform="scale(0.015625)"/>
       <path id="DejaVuSans-52" d="M 2841 2188 
Q 3044 2119 3236 1894 
Q 3428 1669 3622 1275 
L 4263 0 
L 3584 0 
L 2988 1197 
Q 2756 1666 2539 1819 
Q 2322 1972 1947 1972 
L 1259 1972 
L 1259 0 
L 628 0 
L 628 4666 
L 2053 4666 
Q 2853 4666 3247 4331 
Q 3641 3997 3641 3322 
Q 3641 2881 3436 2590 
Q 3231 2300 2841 2188 
z
M 1259 4147 
L 1259 2491 
L 2053 2491 
Q 2509 2491 2742 2702 
Q 2975 2913 2975 3322 
Q 2975 3731 2742 3939 
Q 2509 4147 2053 4147 
L 1259 4147 
z
" transform="scale(0.015625)"/>
       <path id="DejaVuSans-30" d="M 2034 4250 
Q 1547 4250 1301 3770 
Q 1056 3291 1056 2328 
Q 1056 1369 1301 889 
Q 1547 409 2034 409 
Q 2525 409 2770 889 
Q 3016 1369 3016 2328 
Q 3016 3291 2770 3770 
Q 2525 4250 2034 4250 
z
M 2034 4750 
Q 2819 4750 3233 4129 
Q 3647 3509 3647 2328 
Q 3647 1150 3233 529 
Q 2819 -91 2034 -91 
Q 1250 -91 836 529 
Q 422 1150 422 2328 
Q 422 3509 836 4129 
Q 1250 4750 2034 4750 
z
" transform="scale(0.015625)"/>
       <path id="DejaVuSans-20" transform="scale(0.015625)"/>
       <path id="DejaVuSans-4f" d="M 2522 4238 
Q 1834 4238 1429 3725 
Q 1025 3213 1025 2328 
Q 1025 1447 1429 934 
Q 1834 422 2522 422 
Q 3209 422 3611 934 
Q 4013 1447 4013 2328 
Q 4013 3213 3611 3725 
Q 3209 4238 2522 4238 
z
M 2522 4750 
Q 3503 4750 4090 4092 
Q 4678 3434 4678 2328 
Q 4678 1225 4090 567 
Q 3503 -91 2522 -91 
Q 1538 -91 948 565 
Q 359 1222 359 2328 
Q 359 3434 948 4092 
Q 1538 4750 2522 4750 
z
" transform="scale(0.015625)"/>
       <path id="DejaVuSans-47" d="M 3809 666 
L 3809 1919 
L 2778 1919 
L 2778 2438 
L 4434 2438 
L 4434 434 
Q 4069 175 3628 42 
Q 3188 -91 2688 -91 
Q 1594 -91 976 548 
Q 359 1188 359 2328 
Q 359 3472 976 4111 
Q 1594 4750 2688 4750 
Q 3144 4750 3555 4637 
Q 3966 4525 4313 4306 
L 4313 3634 
Q 3963 3931 3569 4081 
Q 3175 4231 2741 4231 
Q 1884 4231 1454 3753 
Q 1025 3275 1025 2328 
Q 1025 1384 1454 906 
Q 1884 428 2741 428 
Q 3075 428 3337 486 
Q 3600 544 3809 666 
z
" transform="scale(0.015625)"/>
       <path id="DejaVuSans-2d" d="M 313 2009 
L 1997 2009 
L 1997 1497 
L 313 1497 
L 313 2009 
z
" transform="scale(0.015625)"/>
       <path id="DejaVuSans-44" d="M 1259 4147 
L 1259 519 
L 2022 519 
Q 2988 519 3436 956 
Q 3884 1394 3884 2338 
Q 3884 3275 3436 3711 
Q 2988 4147 2022 4147 
L 1259 4147 
z
M 628 4666 
L 1925 4666 
Q 3281 4666 3915 4102 
Q 4550 3538 4550 2338 
Q 4550 1131 3912 565 
Q 3275 0 1925 0 
L 628 0 
L 628 4666 
z
" transform="scale(0.015625)"/>
       <path id="DejaVuSans-69" d="M 603 3500 
L 1178 3500 
L 1178 0 
L 603 0 
L 603 3500 
z
M 603 4863 
L 1178 4863 
L 1178 4134 
L 603 4134 
L 603 4863 
z
" transform="scale(0.015625)"/>
       <path id="DejaVuSans-73" d="M 2834 3397 
L 2834 2853 
Q 2591 2978 2328 3040 
Q 2066 3103 1784 3103 
Q 1356 3103 1142 2972 
Q 928 2841 928 2578 
Q 928 2378 1081 2264 
Q 1234 2150 1697 2047 
L 1894 2003 
Q 2506 1872 2764 1633 
Q 3022 1394 3022 966 
Q 3022 478 2636 193 
Q 2250 -91 1575 -91 
Q 1294 -91 989 -36 
Q 684 19 347 128 
L 347 722 
Q 666 556 975 473 
Q 1284 391 1588 391 
Q 1994 391 2212 530 
Q 2431 669 2431 922 
Q 2431 1156 2273 1281 
Q 2116 1406 1581 1522 
L 1381 1569 
Q 847 1681 609 1914 
Q 372 2147 372 2553 
Q 372 3047 722 3315 
Q 1072 3584 1716 3584 
Q 2034 3584 2315 3537 
Q 2597 3491 2834 3397 
z
" transform="scale(0.015625)"/>
       <path id="DejaVuSans-74" d="M 1172 4494 
L 1172 3500 
L 2356 3500 
L 2356 3053 
L 1172 3053 
L 1172 1153 
Q 1172 725 1289 603 
Q 1406 481 1766 481 
L 2356 481 
L 2356 0 
L 1766 0 
Q 1100 0 847 248 
Q 594 497 594 1153 
L 594 3053 
L 172 3053 
L 172 3500 
L 594 3500 
L 594 4494 
L 1172 4494 
z
" transform="scale(0.015625)"/>
       <path id="DejaVuSans-61" d="M 2194 1759 
Q 1497 1759 1228 1600 
Q 959 1441 959 1056 
Q 959 750 1161 570 
Q 1363 391 1709 391 
Q 2188 391 2477 730 
Q 2766 1069 2766 1631 
L 2766 1759 
L 2194 1759 
z
M 3341 1997 
L 3341 0 
L 2766 0 
L 2766 531 
Q 2569 213 2275 61 
Q 1981 -91 1556 -91 
Q 1019 -91 701 211 
Q 384 513 384 1019 
Q 384 1609 779 1909 
Q 1175 2209 1959 2209 
L 2766 2209 
L 2766 2266 
Q 2766 2663 2505 2880 
Q 2244 3097 1772 3097 
Q 1472 3097 1187 3025 
Q 903 2953 641 2809 
L 641 3341 
Q 956 3463 1253 3523 
Q 1550 3584 1831 3584 
Q 2591 3584 2966 3190 
Q 3341 2797 3341 1997 
z
" transform="scale(0.015625)"/>
       <path id="DejaVuSans-6e" d="M 3513 2113 
L 3513 0 
L 2938 0 
L 2938 2094 
Q 2938 2591 2744 2837 
Q 2550 3084 2163 3084 
Q 1697 3084 1428 2787 
Q 1159 2491 1159 1978 
L 1159 0 
L 581 0 
L 581 3500 
L 1159 3500 
L 1159 2956 
Q 1366 3272 1645 3428 
Q 1925 3584 2291 3584 
Q 2894 3584 3203 3211 
Q 3513 2838 3513 2113 
z
" transform="scale(0.015625)"/>
       <path id="DejaVuSans-63" d="M 3122 3366 
L 3122 2828 
Q 2878 2963 2633 3030 
Q 2388 3097 2138 3097 
Q 1578 3097 1268 2742 
Q 959 2388 959 1747 
Q 959 1106 1268 751 
Q 1578 397 2138 397 
Q 2388 397 2633 464 
Q 2878 531 3122 666 
L 3122 134 
Q 2881 22 2623 -34 
Q 2366 -91 2075 -91 
Q 1284 -91 818 406 
Q 353 903 353 1747 
Q 353 2603 823 3093 
Q 1294 3584 2113 3584 
Q 2378 3584 2631 3529 
Q 2884 3475 3122 3366 
z
" transform="scale(0.015625)"/>
       <path id="DejaVuSans-65" d="M 3597 1894 
L 3597 1613 
L 953 1613 
Q 991 1019 1311 708 
Q 1631 397 2203 397 
Q 2534 397 2845 478 
Q 3156 559 3463 722 
L 3463 178 
Q 3153 47 2828 -22 
Q 2503 -91 2169 -91 
Q 1331 -91 842 396 
Q 353 884 353 1716 
Q 353 2575 817 3079 
Q 1281 3584 2069 3584 
Q 2775 3584 3186 3129 
Q 3597 2675 3597 1894 
z
M 3022 2063 
Q 3016 2534 2758 2815 
Q 2500 3097 2075 3097 
Q 1594 3097 1305 2825 
Q 1016 2553 972 2059 
L 3022 2063 
z
" transform="scale(0.015625)"/>
       <path id="DejaVuSans-5b" d="M 550 4863 
L 1875 4863 
L 1875 4416 
L 1125 4416 
L 1125 -397 
L 1875 -397 
L 1875 -844 
L 550 -844 
L 550 4863 
z
" transform="scale(0.015625)"/>
       <path id="DejaVuSans-c5" d="M 2663 5081 
Q 2663 5278 2523 5417 
Q 2384 5556 2188 5556 
Q 1988 5556 1852 5420 
Q 1716 5284 1716 5081 
Q 1716 4884 1853 4746 
Q 1991 4609 2188 4609 
Q 2384 4609 2523 4746 
Q 2663 4884 2663 5081 
z
M 2188 4044 
L 1338 1722 
L 3041 1722 
L 2188 4044 
z
M 1716 4366 
Q 1525 4494 1428 4673 
Q 1331 4853 1331 5081 
Q 1331 5441 1579 5691 
Q 1828 5941 2188 5941 
Q 2544 5941 2795 5689 
Q 3047 5438 3047 5081 
Q 3047 4863 2948 4678 
Q 2850 4494 2663 4366 
L 4325 0 
L 3669 0 
L 3244 1197 
L 1141 1197 
L 716 0 
L 50 0 
L 1716 4366 
z
" transform="scale(0.015625)"/>
       <path id="DejaVuSans-5d" d="M 1947 4863 
L 1947 -844 
L 622 -844 
L 622 -397 
L 1369 -397 
L 1369 4416 
L 622 4416 
L 622 4863 
L 1947 4863 
z
" transform="scale(0.015625)"/>
      </defs>
      <use xlink:href="#DejaVuSans-54"/>
      <use xlink:href="#DejaVuSans-48" x="61.083984"/>
      <use xlink:href="#DejaVuSans-52" x="136.279297"/>
      <use xlink:href="#DejaVuSans-32" x="205.761719"/>
      <use xlink:href="#DejaVuSans-30" x="269.384766"/>
      <use xlink:href="#DejaVuSans-33" x="333.007812"/>
      <use xlink:href="#DejaVuSans-20" x="396.630859"/>
      <use xlink:href="#DejaVuSans-4f" x="428.417969"/>
      <use xlink:href="#DejaVuSans-47" x="507.128906"/>
      <use xlink:href="#DejaVuSans-31" x="584.619141"/>
      <use xlink:href="#DejaVuSans-20" x="648.242188"/>
      <use xlink:href="#DejaVuSans-2d" x="680.029297"/>
      <use xlink:href="#DejaVuSans-20" x="716.113281"/>
      <use xlink:href="#DejaVuSans-48" x="747.900391"/>
      <use xlink:href="#DejaVuSans-32" x="823.095703"/>
      <use xlink:href="#DejaVuSans-4f" x="886.71875"/>
      <use xlink:href="#DejaVuSans-20" x="965.429688"/>
      <use xlink:href="#DejaVuSans-48" x="997.216797"/>
      <use xlink:href="#DejaVuSans-20" x="1072.412109"/>
      <use xlink:href="#DejaVuSans-44" x="1104.199219"/>
      <use xlink:href="#DejaVuSans-69" x="1181.201172"/>
      <use xlink:href="#DejaVuSans-73" x="1208.984375"/>
      <use xlink:href="#DejaVuSans-74" x="1261.083984"/>
      <use xlink:href="#DejaVuSans-61" x="1300.292969"/>
      <use xlink:href="#DejaVuSans-6e" x="1361.572266"/>
      <use xlink:href="#DejaVuSans-63" x="1424.951172"/>
      <use xlink:href="#DejaVuSans-65" x="1479.931641"/>
      <use xlink:href="#DejaVuSans-20" x="1541.455078"/>
      <use xlink:href="#DejaVuSans-5b" x="1573.242188"/>
      <use xlink:href="#DejaVuSans-c5" x="1612.255859"/>
      <use xlink:href="#DejaVuSans-5d" x="1680.664062"/>
     </g>
    </g>
   </g>
   <g id="matplotlib.axis_2">
    <g id="ytick_1">
     <g id="line2d_10">
      <defs>
       <path id="m4e3a506628" d="M 0 0 
L -3.5 0 
" style="stroke: #000000; stroke-width: 0.8"/>
      </defs>
      <g>
       <use xlink:href="#m4e3a506628" x="46.64" y="276.662273" style="stroke: #000000; stroke-width: 0.8"/>
      </g>
     </g>
     <g id="text_8">
      <!-- −2 -->
      <g transform="translate(24.897813 280.461491) scale(0.1 -0.1)">
       <defs>
        <path id="DejaVuSans-2212" d="M 678 2272 
L 4684 2272 
L 4684 1741 
L 678 1741 
L 678 2272 
z
" transform="scale(0.015625)"/>
       </defs>
       <use xlink:href="#DejaVuSans-2212"/>
       <use xlink:href="#DejaVuSans-32" x="83.789062"/>
      </g>
     </g>
    </g>
    <g id="ytick_2">
     <g id="line2d_11">
      <g>
       <use xlink:href="#m4e3a506628" x="46.64" y="224.281818" style="stroke: #000000; stroke-width: 0.8"/>
      </g>
     </g>
     <g id="text_9">
      <!-- −1 -->
      <g transform="translate(24.897813 228.081037) scale(0.1 -0.1)">
       <use xlink:href="#DejaVuSans-2212"/>
       <use xlink:href="#DejaVuSans-31" x="83.789062"/>
      </g>
     </g>
    </g>
    <g id="ytick_3">
     <g id="line2d_12">
      <g>
       <use xlink:href="#m4e3a506628" x="46.64" y="171.901364" style="stroke: #000000; stroke-width: 0.8"/>
      </g>
     </g>
     <g id="text_10">
      <!-- 0 -->
      <g transform="translate(33.2775 175.700582) scale(0.1 -0.1)">
       <use xlink:href="#DejaVuSans-30"/>
      </g>
     </g>
    </g>
    <g id="ytick_4">
     <g id="line2d_13">
      <g>
       <use xlink:href="#m4e3a506628" x="46.64" y="119.520909" style="stroke: #000000; stroke-width: 0.8"/>
      </g>
     </g>
     <g id="text_11">
      <!-- 1 -->
      <g transform="translate(33.2775 123.320128) scale(0.1 -0.1)">
       <use xlink:href="#DejaVuSans-31"/>
      </g>
     </g>
    </g>
    <g id="ytick_5">
     <g id="line2d_14">
      <g>
       <use xlink:href="#m4e3a506628" x="46.64" y="67.140455" style="stroke: #000000; stroke-width: 0.8"/>
      </g>
     </g>
     <g id="text_12">
      <!-- 2 -->
      <g transform="translate(33.2775 70.939673) scale(0.1 -0.1)">
       <use xlink:href="#DejaVuSans-32"/>
      </g>
     </g>
    </g>
    <g id="ytick_6">
     <g id="line2d_15">
      <g>
       <use xlink:href="#m4e3a506628" x="46.64" y="14.76" style="stroke: #000000; stroke-width: 0.8"/>
      </g>
     </g>
     <g id="text_13">
      <!-- 3 -->
      <g transform="translate(33.2775 18.559219) scale(0.1 -0.1)">
       <use xlink:href="#DejaVuSans-33"/>
      </g>
     </g>
    </g>
    <g id="text_14">
     <!-- PMF [kcal/mol] -->
     <g transform="translate(18.818125 195.602344) rotate(-90) scale(0.1 -0.1)">
      <defs>
       <path id="DejaVuSans-50" d="M 1259 4147 
L 1259 2394 
L 2053 2394 
Q 2494 2394 2734 2622 
Q 2975 2850 2975 3272 
Q 2975 3691 2734 3919 
Q 2494 4147 2053 4147 
L 1259 4147 
z
M 628 4666 
L 2053 4666 
Q 2838 4666 3239 4311 
Q 3641 3956 3641 3272 
Q 3641 2581 3239 2228 
Q 2838 1875 2053 1875 
L 1259 1875 
L 1259 0 
L 628 0 
L 628 4666 
z
" transform="scale(0.015625)"/>
       <path id="DejaVuSans-4d" d="M 628 4666 
L 1569 4666 
L 2759 1491 
L 3956 4666 
L 4897 4666 
L 4897 0 
L 4281 0 
L 4281 4097 
L 3078 897 
L 2444 897 
L 1241 4097 
L 1241 0 
L 628 0 
L 628 4666 
z
" transform="scale(0.015625)"/>
       <path id="DejaVuSans-46" d="M 628 4666 
L 3309 4666 
L 3309 4134 
L 1259 4134 
L 1259 2759 
L 3109 2759 
L 3109 2228 
L 1259 2228 
L 1259 0 
L 628 0 
L 628 4666 
z
" transform="scale(0.015625)"/>
       <path id="DejaVuSans-6b" d="M 581 4863 
L 1159 4863 
L 1159 1991 
L 2875 3500 
L 3609 3500 
L 1753 1863 
L 3688 0 
L 2938 0 
L 1159 1709 
L 1159 0 
L 581 0 
L 581 4863 
z
" transform="scale(0.015625)"/>
       <path id="DejaVuSans-6c" d="M 603 4863 
L 1178 4863 
L 1178 0 
L 603 0 
L 603 4863 
z
" transform="scale(0.015625)"/>
       <path id="DejaVuSans-2f" d="M 1625 4666 
L 2156 4666 
L 531 -594 
L 0 -594 
L 1625 4666 
z
" transform="scale(0.015625)"/>
       <path id="DejaVuSans-6d" d="M 3328 2828 
Q 3544 3216 3844 3400 
Q 4144 3584 4550 3584 
Q 5097 3584 5394 3201 
Q 5691 2819 5691 2113 
L 5691 0 
L 5113 0 
L 5113 2094 
Q 5113 2597 4934 2840 
Q 4756 3084 4391 3084 
Q 3944 3084 3684 2787 
Q 3425 2491 3425 1978 
L 3425 0 
L 2847 0 
L 2847 2094 
Q 2847 2600 2669 2842 
Q 2491 3084 2119 3084 
Q 1678 3084 1418 2786 
Q 1159 2488 1159 1978 
L 1159 0 
L 581 0 
L 581 3500 
L 1159 3500 
L 1159 2956 
Q 1356 3278 1631 3431 
Q 1906 3584 2284 3584 
Q 2666 3584 2933 3390 
Q 3200 3197 3328 2828 
z
" transform="scale(0.015625)"/>
       <path id="DejaVuSans-6f" d="M 1959 3097 
Q 1497 3097 1228 2736 
Q 959 2375 959 1747 
Q 959 1119 1226 758 
Q 1494 397 1959 397 
Q 2419 397 2687 759 
Q 2956 1122 2956 1747 
Q 2956 2369 2687 2733 
Q 2419 3097 1959 3097 
z
M 1959 3584 
Q 2709 3584 3137 3096 
Q 3566 2609 3566 1747 
Q 3566 888 3137 398 
Q 2709 -91 1959 -91 
Q 1206 -91 779 398 
Q 353 888 353 1747 
Q 353 2609 779 3096 
Q 1206 3584 1959 3584 
z
" transform="scale(0.015625)"/>
      </defs>
      <use xlink:href="#DejaVuSans-50"/>
      <use xlink:href="#DejaVuSans-4d" x="60.302734"/>
      <use xlink:href="#DejaVuSans-46" x="146.582031"/>
      <use xlink:href="#DejaVuSans-20" x="204.101562"/>
      <use xlink:href="#DejaVuSans-5b" x="235.888672"/>
      <use xlink:href="#DejaVuSans-6b" x="274.902344"/>
      <use xlink:href="#DejaVuSans-63" x="332.8125"/>
      <use xlink:href="#DejaVuSans-61" x="387.792969"/>
      <use xlink:href="#DejaVuSans-6c" x="449.072266"/>
      <use xlink:href="#DejaVuSans-2f" x="476.855469"/>
      <use xlink:href="#DejaVuSans-6d" x="510.546875"/>
      <use xlink:href="#DejaVuSans-6f" x="607.958984"/>
      <use xlink:href="#DejaVuSans-6c" x="669.140625"/>
      <use xlink:href="#DejaVuSans-5d" x="696.923828"/>
     </g>
    </g>
   </g>
   <g id="line2d_16">
    <path d="M 87.691677 -1 
L 87.738027 4.886132 
L 88.459045 55.977219 
L 89.180063 70.389773 
L 89.901081 55.755414 
L 90.622099 71.807193 
L 91.343117 102.839174 
L 92.785153 134.096622 
L 94.948207 160.489979 
L 95.669225 165.01643 
L 96.390243 171.231017 
L 97.832279 189.277146 
L 98.553297 196.179685 
L 99.274315 199.393181 
L 99.995333 201.068963 
L 101.437369 208.499853 
L 102.158387 209.959949 
L 103.600423 218.574701 
L 104.321441 219.978162 
L 105.042459 220.858125 
L 105.763477 222.417903 
L 107.205514 224.242787 
L 109.368568 227.658522 
L 110.089586 229.860547 
L 110.810604 231.127092 
L 111.531622 231.203865 
L 112.25264 232.078906 
L 112.973658 233.365293 
L 113.694676 232.80457 
L 114.415694 230.559055 
L 115.136712 229.328104 
L 115.85773 230.796045 
L 116.578748 229.731571 
L 117.299766 227.740695 
L 118.020784 227.212605 
L 118.741802 226.486778 
L 119.46282 225.390604 
L 120.183838 225.392977 
L 121.625874 223.700017 
L 122.346892 224.351541 
L 123.06791 221.48488 
L 123.788928 219.913329 
L 124.509946 218.766715 
L 125.230964 215.693675 
L 125.951982 215.110164 
L 126.673 216.282017 
L 127.394018 214.524064 
L 128.115036 211.492223 
L 128.836054 209.5468 
L 129.557072 208.103793 
L 130.27809 206.198837 
L 130.999108 203.320707 
L 131.720126 199.936684 
L 132.441144 198.279969 
L 133.162162 199.311691 
L 133.88318 196.956112 
L 134.604198 196.068362 
L 135.325216 196.457884 
L 136.046234 192.604468 
L 136.767252 188.06517 
L 137.48827 188.809678 
L 138.930306 187.619482 
L 139.651324 189.563392 
L 140.372342 185.685303 
L 141.09336 179.027451 
L 141.814378 179.508205 
L 142.535396 183.027179 
L 143.256414 181.760182 
L 143.977432 175.169805 
L 144.69845 172.739116 
L 145.419468 175.193924 
L 146.140486 176.507457 
L 146.861505 171.703569 
L 147.582523 172.518249 
L 148.303541 175.540759 
L 149.024559 172.82437 
L 149.745577 169.615979 
L 150.466595 168.726412 
L 151.187613 168.097027 
L 151.908631 169.720577 
L 152.629649 173.914398 
L 153.350667 172.867188 
L 154.071685 169.272448 
L 154.792703 168.915399 
L 156.234739 177.324395 
L 156.955757 173.751896 
L 157.676775 170.796772 
L 158.397793 172.290382 
L 159.118811 173.113034 
L 159.839829 176.2095 
L 161.281865 187.800827 
L 162.002883 189.545726 
L 162.723901 191.942739 
L 163.444919 192.367159 
L 164.165937 194.390892 
L 164.886955 199.846831 
L 165.607973 201.967389 
L 166.328991 203.417228 
L 167.050009 206.804821 
L 168.492045 214.965249 
L 169.213063 217.154046 
L 169.934081 218.407363 
L 170.655099 220.913195 
L 172.818153 233.517246 
L 174.260189 240.094337 
L 174.981207 244.159695 
L 175.702225 246.443621 
L 177.865279 250.347368 
L 178.586297 252.980279 
L 179.307315 256.307531 
L 180.749351 259.360297 
L 182.191387 264.105945 
L 182.912405 265.464636 
L 183.633423 266.218251 
L 184.354441 267.433949 
L 185.075459 269.229183 
L 185.796477 271.640905 
L 186.517495 273.295284 
L 187.238514 273.681017 
L 188.68055 274.898119 
L 189.401568 275.200929 
L 190.122586 275.294972 
L 190.843604 276.04639 
L 191.564622 277.164691 
L 192.28564 277.531954 
L 193.006658 277.741332 
L 194.448694 278.792181 
L 195.169712 279.603377 
L 195.89073 279.852181 
L 196.611748 279.203544 
L 197.332766 278.956182 
L 198.053784 278.276747 
L 198.774802 277.848471 
L 200.216838 277.789007 
L 200.937856 277.702232 
L 201.658874 277.110931 
L 202.379892 275.771148 
L 203.10091 275.296662 
L 203.821928 275.325585 
L 205.984982 271.335626 
L 206.706 269.701393 
L 207.427018 269.307233 
L 208.869054 269.70722 
L 209.590072 269.368127 
L 210.31109 267.412289 
L 211.032108 265.031659 
L 211.753126 264.84146 
L 212.474144 264.040457 
L 213.195162 262.577849 
L 213.91618 262.303219 
L 214.637198 262.223872 
L 215.358216 261.112521 
L 216.079234 259.133385 
L 216.800252 257.7803 
L 217.52127 256.749653 
L 218.242288 256.299852 
L 218.963306 255.679615 
L 219.684324 254.151386 
L 220.405342 252.339744 
L 221.12636 252.133817 
L 221.847378 251.307086 
L 222.568396 250.981206 
L 223.289414 250.517903 
L 224.010432 248.956991 
L 224.73145 248.004605 
L 225.452468 246.61914 
L 226.894505 242.67085 
L 227.615523 241.407826 
L 228.336541 241.342083 
L 229.057559 241.706765 
L 229.778577 241.089548 
L 230.499595 239.594804 
L 231.220613 238.492039 
L 231.941631 239.344066 
L 232.662649 239.689911 
L 233.383667 238.035848 
L 234.104685 235.990833 
L 234.825703 235.142007 
L 235.546721 233.884371 
L 236.267739 232.927062 
L 236.988757 234.804758 
L 238.430793 232.598856 
L 239.151811 233.38516 
L 239.872829 232.747172 
L 240.593847 231.672144 
L 241.314865 231.498017 
L 242.035883 230.352393 
L 242.756901 228.531372 
L 243.477919 228.497739 
L 244.198937 228.903453 
L 245.640973 230.032357 
L 247.083009 228.711925 
L 247.804027 229.437174 
L 248.525045 229.193643 
L 249.246063 228.278163 
L 249.967081 227.979706 
L 250.688099 227.272577 
L 251.409117 225.498344 
L 252.130135 224.722372 
L 252.851153 223.743975 
L 253.572171 223.788186 
L 254.293189 225.273915 
L 255.014207 226.385192 
L 255.735225 225.623127 
L 256.456243 224.589638 
L 257.177261 225.375331 
L 257.898279 226.526109 
L 258.619297 228.052263 
L 259.340315 229.061872 
L 260.061333 228.235992 
L 260.782351 226.469558 
L 261.503369 226.559364 
L 262.945405 228.571035 
L 263.666423 228.807394 
L 264.387441 227.990267 
L 265.108459 225.484207 
L 265.829477 224.74839 
L 266.550495 226.242062 
L 267.271514 227.193253 
L 267.992532 228.67273 
L 268.71355 229.830054 
L 269.434568 229.654488 
L 270.155586 230.155154 
L 270.876604 230.366005 
L 271.597622 228.871053 
L 272.31864 228.660878 
L 273.039658 227.830683 
L 273.760676 225.485328 
L 274.481694 224.603018 
L 275.202712 225.762363 
L 275.92373 227.465834 
L 276.644748 227.993892 
L 277.365766 225.733048 
L 278.086784 221.820336 
L 278.807802 221.653717 
L 279.52882 224.638593 
L 280.249838 223.610553 
L 280.970856 220.444941 
L 281.691874 221.321573 
L 282.412892 222.904824 
L 283.13391 221.450255 
L 283.854928 218.871085 
L 284.575946 218.922553 
L 285.296964 222.080899 
L 286.017982 223.025487 
L 286.739 222.886776 
L 287.460018 221.788471 
L 288.181036 221.522201 
L 288.902054 222.591284 
L 290.34409 222.745695 
L 291.065108 222.285717 
L 291.786126 220.913509 
L 292.507144 218.666362 
L 293.228162 217.045014 
L 293.94918 217.317392 
L 294.670198 215.997597 
L 295.391216 215.125925 
L 296.833252 216.357161 
L 297.55427 216.103261 
L 298.996306 211.934084 
L 299.717324 212.855146 
L 300.438342 213.550779 
L 301.15936 213.496223 
L 301.880378 211.97851 
L 302.601396 208.026015 
L 303.322414 204.875003 
L 304.043432 204.930731 
L 304.76445 205.535698 
L 305.485468 205.356407 
L 306.206486 206.421983 
L 306.927505 206.131847 
L 307.648523 204.048002 
L 308.369541 203.056254 
L 309.090559 200.023166 
L 309.811577 198.263373 
L 310.532595 198.176404 
L 311.974631 203.93068 
L 312.695649 204.130674 
L 313.416667 202.921787 
L 314.137685 199.895798 
L 314.858703 199.409167 
L 315.579721 200.862212 
L 316.300739 198.977812 
L 317.021757 198.770839 
L 317.742775 199.004737 
L 318.463793 196.858817 
L 319.184811 196.250622 
L 319.905829 195.122532 
L 320.626847 195.255085 
L 321.347865 196.590395 
L 322.068883 194.923224 
L 322.789901 193.737159 
L 323.510919 195.138423 
L 324.231937 196.036673 
L 324.952955 196.283989 
L 325.673973 195.970096 
L 326.394991 196.081249 
L 327.116009 196.556341 
L 327.837027 192.754627 
L 328.558045 185.682131 
L 329.279063 185.070636 
L 330.000081 187.787506 
L 330.721099 188.702406 
L 332.163135 190.906599 
L 332.884153 191.658149 
L 333.605171 191.601796 
L 334.326189 191.207163 
L 335.047207 188.376994 
L 335.768225 184.523402 
L 336.489243 185.178241 
L 337.210261 189.118964 
L 337.931279 190.008782 
L 338.652297 189.317793 
L 339.373315 189.330939 
L 340.094333 189.572827 
L 340.815351 190.983274 
L 341.536369 189.898043 
L 342.257387 187.63064 
L 342.978405 189.084637 
L 343.699423 193.070872 
L 344.420441 193.717865 
L 345.141459 188.872373 
L 345.862477 187.97981 
L 346.583495 187.893909 
L 347.304514 186.521802 
L 348.025532 187.992847 
L 349.467568 194.414652 
L 350.188586 194.362103 
L 350.909604 189.28099 
L 351.630622 186.118742 
L 352.35164 189.457378 
L 353.072658 191.016372 
L 353.793676 190.265048 
L 354.514694 190.636092 
L 355.235712 190.434559 
L 355.95673 189.203838 
L 356.677748 188.500137 
L 358.119784 188.834771 
L 359.56182 194.760735 
L 360.282838 194.28642 
L 361.003856 188.219267 
L 361.724874 187.401791 
L 362.445892 187.330199 
L 363.16691 186.107895 
L 363.887928 186.143297 
L 364.608946 188.024558 
L 365.329964 190.873887 
L 366.050982 190.308869 
L 366.772 187.403803 
L 368.214036 189.69595 
L 368.935054 186.632429 
L 369.656072 185.030128 
L 370.37709 184.582133 
L 371.098108 182.813908 
L 371.819126 184.194415 
L 372.540144 189.11356 
L 373.261162 191.901594 
L 374.703198 190.197961 
L 375.424216 187.458155 
L 376.145234 184.00921 
L 376.866252 184.163707 
L 377.58727 188.419767 
L 378.308288 191.001639 
L 379.029306 187.415476 
L 379.750324 183.221963 
L 380.471342 182.530794 
L 381.19236 183.652659 
L 381.913378 186.462617 
L 382.634396 187.096819 
L 383.355414 186.519773 
L 384.076432 185.241225 
L 384.79745 185.994466 
L 385.518468 186.133657 
L 386.239486 183.645633 
L 386.960505 176.778306 
L 387.681523 173.329 
L 388.402541 173.164524 
L 389.123559 176.302879 
L 389.844577 177.73927 
L 390.565595 175.130073 
L 391.286613 176.023307 
L 392.007631 177.748241 
L 392.728649 177.346244 
L 393.449667 176.173793 
L 394.170685 178.677571 
L 394.891703 177.693858 
L 395.612721 173.497221 
L 396.333739 173.612357 
L 397.054757 178.665632 
L 397.775775 181.128767 
L 398.496793 180.495698 
L 399.217811 178.757527 
L 399.938829 178.626599 
L 400.659847 175.537416 
L 401.380865 173.991636 
L 402.101883 175.704937 
L 402.822901 176.204063 
L 403.543919 178.39017 
L 404.264937 176.117707 
L 404.985955 169.427113 
L 405.706973 169.266452 
L 406.427991 173.644416 
L 407.149009 173.45166 
L 407.870027 171.238992 
L 408.591045 170.651134 
L 409.312063 171.507438 
L 410.033081 173.767609 
L 410.754099 175.137112 
L 411.475117 175.253011 
L 412.196135 172.853747 
L 412.917153 172.550483 
L 413.638171 173.066968 
L 414.359189 172.184402 
L 415.080207 166.144999 
L 415.801225 166.18719 
L 416.522243 171.535707 
L 417.243261 168.42164 
L 417.964279 166.905734 
L 419.406315 178.059619 
L 420.127333 181.227364 
L 420.848351 183.125123 
L 421.569369 183.010645 
L 423.011405 173.090387 
L 423.732423 173.495573 
L 424.453441 178.932749 
L 425.174459 182.243489 
L 425.895477 182.450078 
L 427.337514 174.104935 
L 429.500568 178.146044 
L 430.221586 181.311323 
L 430.942604 179.077099 
L 431.663622 170.642875 
L 432.38464 168.274264 
L 433.826676 177.136499 
L 434.547694 179.132026 
L 435.268712 178.58363 
L 435.98973 178.933183 
L 436.710748 179.536156 
L 437.431766 179.232123 
L 438.152784 180.389668 
L 438.873802 179.487226 
L 439.59482 173.993721 
L 440.315838 172.150989 
L 441.036856 174.076982 
L 441.757874 179.016196 
L 442.478892 181.543302 
L 443.19991 179.746077 
L 443.920928 179.37315 
L 444.641946 178.043934 
L 445.362964 172.881851 
L 446.083982 169.997825 
L 446.805 168.990545 
L 447.526018 171.757535 
L 448.247036 175.803153 
L 448.968054 176.388037 
L 449.689072 178.014142 
L 450.41009 176.895483 
L 451.131108 169.22648 
L 451.852126 166.268434 
L 452.573144 169.159581 
L 453.294162 169.133784 
L 454.01518 172.963663 
L 454.736198 180.841462 
L 455.457216 180.275812 
L 456.178234 172.011942 
L 456.899252 167.423477 
L 457.62027 166.882814 
L 458.341288 170.816152 
L 459.062306 173.77387 
L 459.783324 173.025969 
L 460.504342 170.697209 
L 461.8 163.398022 
L 461.8 163.398022 
" clip-path="url(#p7bc99e6bc9)" style="fill: none; stroke: #f99752; stroke-width: 2.5; stroke-linecap: square"/>
   </g>
   <g id="patch_3">
    <path d="M 46.64 302.8525 
L 46.64 14.76 
" style="fill: none; stroke: #000000; stroke-width: 0.8; stroke-linejoin: miter; stroke-linecap: square"/>
   </g>
   <g id="patch_4">
    <path d="M 446.805 302.8525 
L 446.805 14.76 
" style="fill: none; stroke: #000000; stroke-width: 0.8; stroke-linejoin: miter; stroke-linecap: square"/>
   </g>
   <g id="patch_5">
    <path d="M 46.64 302.8525 
L 446.805 302.8525 
" style="fill: none; stroke: #000000; stroke-width: 0.8; stroke-linejoin: miter; stroke-linecap: square"/>
   </g>
   <g id="patch_6">
    <path d="M 46.64 14.76 
L 446.805 14.76 
" style="fill: none; stroke: #000000; stroke-width: 0.8; stroke-linejoin: miter; stroke-linecap: square"/>
   </g>
   <g id="legend_1">
    <g id="patch_7">
     <path d="M 364.359688 66.794375 
L 439.805 66.794375 
Q 441.805 66.794375 441.805 64.794375 
L 441.805 21.76 
Q 441.805 19.76 439.805 19.76 
L 364.359688 19.76 
Q 362.359688 19.76 362.359688 21.76 
L 362.359688 64.794375 
Q 362.359688 66.794375 364.359688 66.794375 
z
" style="fill: #ffffff; opacity: 0.8; stroke: #cccccc; stroke-linejoin: miter"/>
    </g>
    <g id="line2d_17">
     <path d="M 366.359688 27.858437 
L 376.359688 27.858437 
L 386.359688 27.858437 
" style="fill: none; stroke: #1e2e79; stroke-width: 2.5; stroke-linecap: square"/>
    </g>
    <g id="text_15">
     <!-- Reduced -->
     <g transform="translate(394.359688 31.358437) scale(0.1 -0.1)">
      <defs>
       <path id="DejaVuSans-64" d="M 2906 2969 
L 2906 4863 
L 3481 4863 
L 3481 0 
L 2906 0 
L 2906 525 
Q 2725 213 2448 61 
Q 2172 -91 1784 -91 
Q 1150 -91 751 415 
Q 353 922 353 1747 
Q 353 2572 751 3078 
Q 1150 3584 1784 3584 
Q 2172 3584 2448 3432 
Q 2725 3281 2906 2969 
z
M 947 1747 
Q 947 1113 1208 752 
Q 1469 391 1925 391 
Q 2381 391 2643 752 
Q 2906 1113 2906 1747 
Q 2906 2381 2643 2742 
Q 2381 3103 1925 3103 
Q 1469 3103 1208 2742 
Q 947 2381 947 1747 
z
" transform="scale(0.015625)"/>
       <path id="DejaVuSans-75" d="M 544 1381 
L 544 3500 
L 1119 3500 
L 1119 1403 
Q 1119 906 1312 657 
Q 1506 409 1894 409 
Q 2359 409 2629 706 
Q 2900 1003 2900 1516 
L 2900 3500 
L 3475 3500 
L 3475 0 
L 2900 0 
L 2900 538 
Q 2691 219 2414 64 
Q 2138 -91 1772 -91 
Q 1169 -91 856 284 
Q 544 659 544 1381 
z
M 1991 3584 
L 1991 3584 
z
" transform="scale(0.015625)"/>
      </defs>
      <use xlink:href="#DejaVuSans-52"/>
      <use xlink:href="#DejaVuSans-65" x="64.982422"/>
      <use xlink:href="#DejaVuSans-64" x="126.505859"/>
      <use xlink:href="#DejaVuSans-75" x="189.982422"/>
      <use xlink:href="#DejaVuSans-63" x="253.361328"/>
      <use xlink:href="#DejaVuSans-65" x="308.341797"/>
      <use xlink:href="#DejaVuSans-64" x="369.865234"/>
     </g>
    </g>
    <g id="line2d_18">
     <path d="M 366.359688 42.536563 
L 376.359688 42.536563 
L 386.359688 42.536563 
" style="fill: none; stroke: #ec4067; stroke-width: 2.5; stroke-linecap: square"/>
    </g>
    <g id="text_16">
     <!-- Oxidized -->
     <g transform="translate(394.359688 46.036563) scale(0.1 -0.1)">
      <defs>
       <path id="DejaVuSans-78" d="M 3513 3500 
L 2247 1797 
L 3578 0 
L 2900 0 
L 1881 1375 
L 863 0 
L 184 0 
L 1544 1831 
L 300 3500 
L 978 3500 
L 1906 2253 
L 2834 3500 
L 3513 3500 
z
" transform="scale(0.015625)"/>
       <path id="DejaVuSans-7a" d="M 353 3500 
L 3084 3500 
L 3084 2975 
L 922 459 
L 3084 459 
L 3084 0 
L 275 0 
L 275 525 
L 2438 3041 
L 353 3041 
L 353 3500 
z
" transform="scale(0.015625)"/>
      </defs>
      <use xlink:href="#DejaVuSans-4f"/>
      <use xlink:href="#DejaVuSans-78" x="78.710938"/>
      <use xlink:href="#DejaVuSans-69" x="137.890625"/>
      <use xlink:href="#DejaVuSans-64" x="165.673828"/>
      <use xlink:href="#DejaVuSans-69" x="229.150391"/>
      <use xlink:href="#DejaVuSans-7a" x="256.933594"/>
      <use xlink:href="#DejaVuSans-65" x="309.423828"/>
      <use xlink:href="#DejaVuSans-64" x="370.947266"/>
     </g>
    </g>
    <g id="line2d_19">
     <path d="M 366.359688 57.214687 
L 376.359688 57.214687 
L 386.359688 57.214687 
" style="fill: none; stroke: #f99752; stroke-width: 2.5; stroke-linecap: square"/>
    </g>
    <g id="text_17">
     <!-- Cu$^{+}$ -->
     <g transform="translate(394.359688 60.714687) scale(0.1 -0.1)">
      <defs>
       <path id="DejaVuSans-43" d="M 4122 4306 
L 4122 3641 
Q 3803 3938 3442 4084 
Q 3081 4231 2675 4231 
Q 1875 4231 1450 3742 
Q 1025 3253 1025 2328 
Q 1025 1406 1450 917 
Q 1875 428 2675 428 
Q 3081 428 3442 575 
Q 3803 722 4122 1019 
L 4122 359 
Q 3791 134 3420 21 
Q 3050 -91 2638 -91 
Q 1578 -91 968 557 
Q 359 1206 359 2328 
Q 359 3453 968 4101 
Q 1578 4750 2638 4750 
Q 3056 4750 3426 4639 
Q 3797 4528 4122 4306 
z
" transform="scale(0.015625)"/>
       <path id="DejaVuSans-2b" d="M 2944 4013 
L 2944 2272 
L 4684 2272 
L 4684 1741 
L 2944 1741 
L 2944 0 
L 2419 0 
L 2419 1741 
L 678 1741 
L 678 2272 
L 2419 2272 
L 2419 4013 
L 2944 4013 
z
" transform="scale(0.015625)"/>
      </defs>
      <use xlink:href="#DejaVuSans-43" transform="translate(0 0.826562)"/>
      <use xlink:href="#DejaVuSans-75" transform="translate(69.824219 0.826562)"/>
      <use xlink:href="#DejaVuSans-2b" transform="translate(134.160156 39.107812) scale(0.7)"/>
     </g>
    </g>
   </g>
  </g>
 </g>
 <defs>
  <clipPath id="p7bc99e6bc9">
   <rect x="46.64" y="14.76" width="400.165" height="288.0925"/>
  </clipPath>
 </defs>
</svg>
