<?xml version="1.0" encoding="utf-8" standalone="no"?>
<!DOCTYPE svg PUBLIC "-//W3C//DTD SVG 1.1//EN"
  "http://www.w3.org/Graphics/SVG/1.1/DTD/svg11.dtd">
<svg xmlns:xlink="http://www.w3.org/1999/xlink" width="460.8pt" height="345.6pt" viewBox="0 0 460.8 345.6" xmlns="http://www.w3.org/2000/svg" version="1.1">
 <metadata>
  <rdf:RDF xmlns:dc="http://purl.org/dc/elements/1.1/" xmlns:cc="http://creativecommons.org/ns#" xmlns:rdf="http://www.w3.org/1999/02/22-rdf-syntax-ns#">
   <cc:Work>
    <dc:type rdf:resource="http://purl.org/dc/dcmitype/StillImage"/>
    <dc:date>2024-06-10T22:02:05.697155</dc:date>
    <dc:format>image/svg+xml</dc:format>
    <dc:creator>
     <cc:Agent>
      <dc:title>Matplotlib v3.8.4, https://matplotlib.org/</dc:title>
     </cc:Agent>
    </dc:creator>
   </cc:Work>
  </rdf:RDF>
 </metadata>
 <defs>
  <style type="text/css">*{stroke-linejoin: round; stroke-linecap: butt}</style>
 </defs>
 <g id="figure_1">
  <g id="patch_1">
   <path d="M 0 345.6 
L 460.8 345.6 
L 460.8 0 
L 0 0 
z
" style="fill: #ffffff"/>
  </g>
  <g id="axes_1">
   <g id="patch_2">
    <path d="M 47.72 302.8525 
L 446.805 302.8525 
L 446.805 10.8 
L 47.72 10.8 
z
" style="fill: #ffffff"/>
   </g>
   <g id="line2d_1">
    <path d="M 47.72 302.8525 
L 87.268964 302.779159 
L 89.42618 302.516937 
L 90.864324 302.059086 
L 92.302468 301.184348 
L 93.740613 299.772828 
L 95.178757 297.822117 
L 96.616901 295.268785 
L 98.055045 291.842747 
L 99.493189 287.372556 
L 100.931333 282.051674 
L 104.526694 268.155585 
L 110.27927 247.556399 
L 110.998342 245.469509 
L 111.717414 243.759506 
L 112.436486 242.519517 
L 113.155559 241.790226 
L 113.874631 241.538369 
L 114.593703 241.671339 
L 115.312775 242.077763 
L 116.750919 243.374378 
L 118.189063 245.077363 
L 119.627207 247.271868 
L 121.065351 250.23592 
L 124.660712 259.063332 
L 126.098856 261.808265 
L 131.13236 270.397707 
L 133.289577 274.26335 
L 136.165865 278.669722 
L 139.761225 283.725506 
L 142.637514 287.622658 
L 144.075658 289.009096 
L 146.951946 291.166348 
L 149.828234 293.673292 
L 151.266378 294.577417 
L 152.704523 295.258631 
L 154.142667 295.686136 
L 155.580811 295.772357 
L 157.018955 295.453798 
L 158.457099 294.704666 
L 159.895243 293.536447 
L 162.052459 291.277579 
L 164.209676 288.721644 
L 165.64782 286.388262 
L 167.085964 283.21164 
L 168.524108 279.233137 
L 169.962252 274.334402 
L 171.400396 268.172742 
L 172.838541 260.721971 
L 174.276685 252.180931 
L 175.714829 242.472882 
L 177.152973 231.240776 
L 178.591117 218.125475 
L 180.748333 195.425749 
L 183.624622 165.212174 
L 185.781838 144.848885 
L 189.377198 113.364977 
L 191.534414 95.146019 
L 192.253486 89.858521 
L 192.972559 85.406279 
L 193.691631 81.973121 
L 194.410703 79.589322 
L 195.129775 78.125417 
L 195.848847 77.345676 
L 196.567919 76.994467 
L 197.286991 76.879102 
L 198.006063 76.921936 
L 198.725135 77.169542 
L 199.444207 77.758515 
L 200.163279 78.848269 
L 200.882351 80.544014 
L 201.601423 82.841894 
L 203.039568 88.700453 
L 205.196784 98.480005 
L 206.634928 105.945048 
L 208.073072 114.948007 
L 209.511216 124.256994 
L 210.230288 128.306857 
L 210.94936 131.701903 
L 211.668432 134.442292 
L 213.106577 138.568119 
L 214.544721 142.270656 
L 215.982865 146.664125 
L 217.421009 151.941015 
L 221.016369 166.22447 
L 223.173586 173.211086 
L 227.488018 186.744841 
L 230.364306 194.953811 
L 231.083378 197.538394 
L 232.521523 204.129719 
L 235.397811 219.172565 
L 236.116883 222.096641 
L 237.555027 226.618174 
L 239.712243 232.759605 
L 242.588532 241.7987 
L 244.745748 247.358441 
L 246.183892 250.500075 
L 247.622036 252.912963 
L 249.06018 254.632023 
L 251.936468 257.389215 
L 252.655541 257.939504 
L 253.374613 258.335707 
L 254.812757 258.70485 
L 256.250901 259.032333 
L 259.127189 260.267805 
L 259.846261 260.323857 
L 260.565333 260.18637 
L 262.003477 259.47674 
L 263.441622 258.819197 
L 264.160694 258.751339 
L 264.879766 258.889413 
L 266.31791 259.565925 
L 270.632342 261.984983 
L 272.789559 262.75499 
L 275.665847 264.164609 
L 276.384919 264.18968 
L 277.103991 263.987832 
L 278.542135 263.153311 
L 279.980279 262.415846 
L 280.699351 262.270739 
L 282.137495 262.376942 
L 283.57564 262.491476 
L 285.013784 262.160851 
L 286.451928 261.672153 
L 287.171 261.581846 
L 287.890072 261.67717 
L 288.609144 261.97179 
L 289.328216 262.44631 
L 290.76636 263.770133 
L 292.204505 265.182739 
L 292.923577 265.726907 
L 293.642649 266.094743 
L 296.518937 267.004112 
L 297.238009 267.531426 
L 298.676153 269.062411 
L 300.114297 270.77819 
L 301.552441 272.093166 
L 302.271514 272.510902 
L 303.709658 272.927496 
L 305.866874 273.22036 
L 306.585946 273.510354 
L 307.305018 273.990585 
L 308.743162 275.437722 
L 310.181306 276.993515 
L 310.900378 277.578966 
L 311.61945 277.954938 
L 312.338523 278.112043 
L 313.057595 278.0866 
L 315.214811 277.67368 
L 315.933883 277.668069 
L 316.652955 277.810302 
L 317.372027 278.128893 
L 318.091099 278.638545 
L 319.529243 280.157259 
L 320.967387 281.897851 
L 321.686459 282.636225 
L 322.405532 283.212186 
L 323.124604 283.620368 
L 324.562748 284.052894 
L 326.000892 284.196454 
L 327.439036 284.158589 
L 330.315324 283.948282 
L 331.034396 284.080544 
L 332.472541 284.687809 
L 337.506045 287.368016 
L 340.382333 288.702101 
L 341.820477 289.064961 
L 342.53955 289.028895 
L 343.258622 288.817937 
L 344.696766 288.039447 
L 346.13491 287.268327 
L 347.573054 286.796798 
L 349.73027 286.182492 
L 351.168414 285.718552 
L 351.887486 285.58605 
L 352.606559 285.581654 
L 353.325631 285.731263 
L 354.044703 286.039593 
L 355.482847 287.028112 
L 356.920991 288.127741 
L 358.359135 288.985105 
L 361.954495 290.750304 
L 362.673568 290.887753 
L 363.39264 290.878562 
L 364.830784 290.506539 
L 366.988 289.792948 
L 367.707072 289.73541 
L 368.426144 289.821165 
L 371.302432 290.674973 
L 372.740577 290.658375 
L 374.897793 290.226897 
L 377.055009 289.781359 
L 378.493153 289.665777 
L 379.931297 289.888421 
L 381.369441 290.503566 
L 383.526658 291.50372 
L 384.964802 291.84189 
L 388.560162 292.340453 
L 391.43645 293.001829 
L 392.874595 292.965779 
L 395.750883 292.520021 
L 397.189027 292.541358 
L 398.627171 292.788218 
L 400.065315 293.399535 
L 402.222532 294.617657 
L 402.941604 294.868417 
L 404.379748 295.022262 
L 407.975108 294.75627 
L 410.132324 294.627031 
L 411.570468 294.917325 
L 415.165829 296.349408 
L 416.603973 296.405992 
L 418.761189 296.253673 
L 423.794694 296.461646 
L 425.232838 296.710979 
L 431.704486 298.535409 
L 433.142631 298.657402 
L 434.580775 298.350389 
L 436.018919 297.861802 
L 436.737991 297.715206 
L 437.457063 297.689325 
L 438.895207 297.961966 
L 442.490568 299.050758 
L 443.928712 299.157518 
L 447.524072 298.982034 
L 456.872009 298.276682 
L 458.310153 298.456488 
L 460.467369 298.843043 
L 461.8 298.831865 
L 461.8 298.831865 
" clip-path="url(#p0d974bbd34)" style="fill: none; stroke: #1e2e79; stroke-width: 2.5; stroke-linecap: square"/>
   </g>
   <g id="line2d_2">
    <path d="M 47.72 302.8525 
L 78.640099 302.75075 
L 81.516387 302.521965 
L 83.673604 302.121752 
L 85.111748 301.662029 
L 86.549892 300.973807 
L 87.988036 299.978859 
L 89.42618 298.589878 
L 90.864324 296.717459 
L 92.302468 294.280219 
L 93.740613 291.217427 
L 95.178757 287.502864 
L 96.616901 283.157975 
L 98.774117 275.648702 
L 104.526694 254.336961 
L 105.964838 250.037958 
L 107.402982 246.583472 
L 108.122054 245.212223 
L 108.841126 244.089586 
L 109.560198 243.218005 
L 110.27927 242.595463 
L 110.998342 242.215993 
L 111.717414 242.070313 
L 112.436486 242.146528 
L 113.155559 242.430853 
L 113.874631 242.908295 
L 114.593703 243.563245 
L 116.031847 245.342905 
L 117.469991 247.647471 
L 118.908135 250.361786 
L 121.065351 254.96457 
L 127.537 269.394653 
L 129.694216 273.435438 
L 131.13236 275.752892 
L 132.570505 277.752089 
L 134.008649 279.441766 
L 135.446793 280.847352 
L 136.884937 282.005075 
L 138.323081 282.955276 
L 140.480297 284.073644 
L 142.637514 284.90924 
L 144.79473 285.516384 
L 146.951946 285.909819 
L 149.109162 286.079751 
L 151.266378 286.001968 
L 153.423595 285.633247 
L 154.861739 285.189807 
L 156.299883 284.551443 
L 157.738027 283.678741 
L 159.176171 282.528073 
L 160.614315 281.054195 
L 162.052459 279.211521 
L 163.490604 276.953571 
L 164.928748 274.231117 
L 166.366892 270.990302 
L 167.805036 267.172003 
L 169.24318 262.713277 
L 170.681324 257.551233 
L 172.119468 251.629391 
L 173.557613 244.906371 
L 174.995757 237.366278 
L 177.152973 224.5806 
L 179.310189 210.274968 
L 182.90555 184.50745 
L 186.50091 159.249798 
L 188.658126 145.761578 
L 190.09627 137.85969 
L 191.534414 131.022023 
L 192.972559 125.396893 
L 194.410703 121.113052 
L 195.129775 119.505927 
L 195.848847 118.266732 
L 196.567919 117.399579 
L 197.286991 116.904504 
L 198.006063 116.777224 
L 198.725135 117.009103 
L 199.444207 117.587349 
L 200.163279 118.495428 
L 200.882351 119.71366 
L 201.601423 121.219937 
L 203.039568 125.000722 
L 204.477712 129.641131 
L 206.634928 137.798249 
L 209.511216 150.04104 
L 221.735441 203.77322 
L 224.61173 215.345851 
L 226.768946 223.20828 
L 228.926162 230.173582 
L 231.083378 236.216953 
L 233.240595 241.434761 
L 235.397811 245.965678 
L 237.555027 249.909411 
L 239.712243 253.294851 
L 241.869459 256.113205 
L 243.307604 257.681278 
L 244.745748 259.017803 
L 246.183892 260.145525 
L 248.341108 261.493105 
L 250.498324 262.46476 
L 251.936468 262.908161 
L 253.374613 263.189828 
L 255.531829 263.337707 
L 258.408117 263.194082 
L 262.003477 262.973501 
L 264.879766 263.057681 
L 275.665847 263.854724 
L 278.542135 264.097313 
L 280.699351 264.522203 
L 282.856568 265.18319 
L 286.451928 266.607404 
L 290.047288 267.993645 
L 292.923577 268.83451 
L 295.799865 269.376299 
L 298.676153 269.66502 
L 304.42873 270.136088 
L 306.585946 270.591135 
L 308.743162 271.320261 
L 310.900378 272.297819 
L 317.372027 275.465667 
L 320.248315 276.47588 
L 323.843676 277.431112 
L 328.87718 278.757219 
L 333.191613 280.183951 
L 337.506045 281.552813 
L 345.415838 283.877698 
L 350.449342 285.792677 
L 355.482847 287.6286 
L 359.078207 288.731663 
L 361.954495 289.413845 
L 364.830784 289.877244 
L 369.145216 290.282419 
L 379.931297 291.051271 
L 384.24573 291.025191 
L 392.155523 290.853885 
L 395.031811 291.030702 
L 397.908099 291.432331 
L 400.784387 292.05631 
L 404.379748 293.067621 
L 419.480261 297.578148 
L 423.794694 298.574211 
L 429.54727 299.641716 
L 434.580775 300.346546 
L 440.333351 300.890822 
L 453.276649 301.912937 
L 461.8 302.138899 
L 461.8 302.138899 
" clip-path="url(#p0d974bbd34)" style="fill: none; stroke: #ec4067; stroke-width: 2.5; stroke-linecap: square"/>
   </g>
   <g id="matplotlib.axis_1">
    <g id="xtick_1">
     <g id="line2d_3">
      <defs>
       <path id="m731bec58fd" d="M 0 0 
L 0 3.5 
" style="stroke: #000000; stroke-width: 0.8"/>
      </defs>
      <g>
       <use xlink:href="#m731bec58fd" x="47.72" y="302.8525" style="stroke: #000000; stroke-width: 0.8"/>
      </g>
     </g>
     <g id="text_1">
      <!-- 1 -->
      <g transform="translate(44.53875 317.450938) scale(0.1 -0.1)">
       <defs>
        <path id="DejaVuSans-31" d="M 794 531 
L 1825 531 
L 1825 4091 
L 703 3866 
L 703 4441 
L 1819 4666 
L 2450 4666 
L 2450 531 
L 3481 531 
L 3481 0 
L 794 0 
L 794 531 
z
" transform="scale(0.015625)"/>
       </defs>
       <use xlink:href="#DejaVuSans-31"/>
      </g>
     </g>
    </g>
    <g id="xtick_2">
     <g id="line2d_4">
      <g>
       <use xlink:href="#m731bec58fd" x="127.537" y="302.8525" style="stroke: #000000; stroke-width: 0.8"/>
      </g>
     </g>
     <g id="text_2">
      <!-- 2 -->
      <g transform="translate(124.35575 317.450938) scale(0.1 -0.1)">
       <defs>
        <path id="DejaVuSans-32" d="M 1228 531 
L 3431 531 
L 3431 0 
L 469 0 
L 469 531 
Q 828 903 1448 1529 
Q 2069 2156 2228 2338 
Q 2531 2678 2651 2914 
Q 2772 3150 2772 3378 
Q 2772 3750 2511 3984 
Q 2250 4219 1831 4219 
Q 1534 4219 1204 4116 
Q 875 4013 500 3803 
L 500 4441 
Q 881 4594 1212 4672 
Q 1544 4750 1819 4750 
Q 2544 4750 2975 4387 
Q 3406 4025 3406 3419 
Q 3406 3131 3298 2873 
Q 3191 2616 2906 2266 
Q 2828 2175 2409 1742 
Q 1991 1309 1228 531 
z
" transform="scale(0.015625)"/>
       </defs>
       <use xlink:href="#DejaVuSans-32"/>
      </g>
     </g>
    </g>
    <g id="xtick_3">
     <g id="line2d_5">
      <g>
       <use xlink:href="#m731bec58fd" x="207.354" y="302.8525" style="stroke: #000000; stroke-width: 0.8"/>
      </g>
     </g>
     <g id="text_3">
      <!-- 3 -->
      <g transform="translate(204.17275 317.450938) scale(0.1 -0.1)">
       <defs>
        <path id="DejaVuSans-33" d="M 2597 2516 
Q 3050 2419 3304 2112 
Q 3559 1806 3559 1356 
Q 3559 666 3084 287 
Q 2609 -91 1734 -91 
Q 1441 -91 1130 -33 
Q 819 25 488 141 
L 488 750 
Q 750 597 1062 519 
Q 1375 441 1716 441 
Q 2309 441 2620 675 
Q 2931 909 2931 1356 
Q 2931 1769 2642 2001 
Q 2353 2234 1838 2234 
L 1294 2234 
L 1294 2753 
L 1863 2753 
Q 2328 2753 2575 2939 
Q 2822 3125 2822 3475 
Q 2822 3834 2567 4026 
Q 2313 4219 1838 4219 
Q 1578 4219 1281 4162 
Q 984 4106 628 3988 
L 628 4550 
Q 988 4650 1302 4700 
Q 1616 4750 1894 4750 
Q 2613 4750 3031 4423 
Q 3450 4097 3450 3541 
Q 3450 3153 3228 2886 
Q 3006 2619 2597 2516 
z
" transform="scale(0.015625)"/>
       </defs>
       <use xlink:href="#DejaVuSans-33"/>
      </g>
     </g>
    </g>
    <g id="xtick_4">
     <g id="line2d_6">
      <g>
       <use xlink:href="#m731bec58fd" x="287.171" y="302.8525" style="stroke: #000000; stroke-width: 0.8"/>
      </g>
     </g>
     <g id="text_4">
      <!-- 4 -->
      <g transform="translate(283.98975 317.450938) scale(0.1 -0.1)">
       <defs>
        <path id="DejaVuSans-34" d="M 2419 4116 
L 825 1625 
L 2419 1625 
L 2419 4116 
z
M 2253 4666 
L 3047 4666 
L 3047 1625 
L 3713 1625 
L 3713 1100 
L 3047 1100 
L 3047 0 
L 2419 0 
L 2419 1100 
L 313 1100 
L 313 1709 
L 2253 4666 
z
" transform="scale(0.015625)"/>
       </defs>
       <use xlink:href="#DejaVuSans-34"/>
      </g>
     </g>
    </g>
    <g id="xtick_5">
     <g id="line2d_7">
      <g>
       <use xlink:href="#m731bec58fd" x="366.988" y="302.8525" style="stroke: #000000; stroke-width: 0.8"/>
      </g>
     </g>
     <g id="text_5">
      <!-- 5 -->
      <g transform="translate(363.80675 317.450938) scale(0.1 -0.1)">
       <defs>
        <path id="DejaVuSans-35" d="M 691 4666 
L 3169 4666 
L 3169 4134 
L 1269 4134 
L 1269 2991 
Q 1406 3038 1543 3061 
Q 1681 3084 1819 3084 
Q 2600 3084 3056 2656 
Q 3513 2228 3513 1497 
Q 3513 744 3044 326 
Q 2575 -91 1722 -91 
Q 1428 -91 1123 -41 
Q 819 9 494 109 
L 494 744 
Q 775 591 1075 516 
Q 1375 441 1709 441 
Q 2250 441 2565 725 
Q 2881 1009 2881 1497 
Q 2881 1984 2565 2268 
Q 2250 2553 1709 2553 
Q 1456 2553 1204 2497 
Q 953 2441 691 2322 
L 691 4666 
z
" transform="scale(0.015625)"/>
       </defs>
       <use xlink:href="#DejaVuSans-35"/>
      </g>
     </g>
    </g>
    <g id="xtick_6">
     <g id="line2d_8">
      <g>
       <use xlink:href="#m731bec58fd" x="446.805" y="302.8525" style="stroke: #000000; stroke-width: 0.8"/>
      </g>
     </g>
     <g id="text_6">
      <!-- 6 -->
      <g transform="translate(443.62375 317.450938) scale(0.1 -0.1)">
       <defs>
        <path id="DejaVuSans-36" d="M 2113 2584 
Q 1688 2584 1439 2293 
Q 1191 2003 1191 1497 
Q 1191 994 1439 701 
Q 1688 409 2113 409 
Q 2538 409 2786 701 
Q 3034 994 3034 1497 
Q 3034 2003 2786 2293 
Q 2538 2584 2113 2584 
z
M 3366 4563 
L 3366 3988 
Q 3128 4100 2886 4159 
Q 2644 4219 2406 4219 
Q 1781 4219 1451 3797 
Q 1122 3375 1075 2522 
Q 1259 2794 1537 2939 
Q 1816 3084 2150 3084 
Q 2853 3084 3261 2657 
Q 3669 2231 3669 1497 
Q 3669 778 3244 343 
Q 2819 -91 2113 -91 
Q 1303 -91 875 529 
Q 447 1150 447 2328 
Q 447 3434 972 4092 
Q 1497 4750 2381 4750 
Q 2619 4750 2861 4703 
Q 3103 4656 3366 4563 
z
" transform="scale(0.015625)"/>
       </defs>
       <use xlink:href="#DejaVuSans-36"/>
      </g>
     </g>
    </g>
    <g id="text_7">
     <!-- THR203 OG1 - H2O H Distance [Å] -->
     <g transform="translate(161.278906 332.0525) scale(0.1 -0.1)">
      <defs>
       <path id="DejaVuSans-54" d="M -19 4666 
L 3928 4666 
L 3928 4134 
L 2272 4134 
L 2272 0 
L 1638 0 
L 1638 4134 
L -19 4134 
L -19 4666 
z
" transform="scale(0.015625)"/>
       <path id="DejaVuSans-48" d="M 628 4666 
L 1259 4666 
L 1259 2753 
L 3553 2753 
L 3553 4666 
L 4184 4666 
L 4184 0 
L 3553 0 
L 3553 2222 
L 1259 2222 
L 1259 0 
L 628 0 
L 628 4666 
z
" transform="scale(0.015625)"/>
       <path id="DejaVuSans-52" d="M 2841 2188 
Q 3044 2119 3236 1894 
Q 3428 1669 3622 1275 
L 4263 0 
L 3584 0 
L 2988 1197 
Q 2756 1666 2539 1819 
Q 2322 1972 1947 1972 
L 1259 1972 
L 1259 0 
L 628 0 
L 628 4666 
L 2053 4666 
Q 2853 4666 3247 4331 
Q 3641 3997 3641 3322 
Q 3641 2881 3436 2590 
Q 3231 2300 2841 2188 
z
M 1259 4147 
L 1259 2491 
L 2053 2491 
Q 2509 2491 2742 2702 
Q 2975 2913 2975 3322 
Q 2975 3731 2742 3939 
Q 2509 4147 2053 4147 
L 1259 4147 
z
" transform="scale(0.015625)"/>
       <path id="DejaVuSans-30" d="M 2034 4250 
Q 1547 4250 1301 3770 
Q 1056 3291 1056 2328 
Q 1056 1369 1301 889 
Q 1547 409 2034 409 
Q 2525 409 2770 889 
Q 3016 1369 3016 2328 
Q 3016 3291 2770 3770 
Q 2525 4250 2034 4250 
z
M 2034 4750 
Q 2819 4750 3233 4129 
Q 3647 3509 3647 2328 
Q 3647 1150 3233 529 
Q 2819 -91 2034 -91 
Q 1250 -91 836 529 
Q 422 1150 422 2328 
Q 422 3509 836 4129 
Q 1250 4750 2034 4750 
z
" transform="scale(0.015625)"/>
       <path id="DejaVuSans-20" transform="scale(0.015625)"/>
       <path id="DejaVuSans-4f" d="M 2522 4238 
Q 1834 4238 1429 3725 
Q 1025 3213 1025 2328 
Q 1025 1447 1429 934 
Q 1834 422 2522 422 
Q 3209 422 3611 934 
Q 4013 1447 4013 2328 
Q 4013 3213 3611 3725 
Q 3209 4238 2522 4238 
z
M 2522 4750 
Q 3503 4750 4090 4092 
Q 4678 3434 4678 2328 
Q 4678 1225 4090 567 
Q 3503 -91 2522 -91 
Q 1538 -91 948 565 
Q 359 1222 359 2328 
Q 359 3434 948 4092 
Q 1538 4750 2522 4750 
z
" transform="scale(0.015625)"/>
       <path id="DejaVuSans-47" d="M 3809 666 
L 3809 1919 
L 2778 1919 
L 2778 2438 
L 4434 2438 
L 4434 434 
Q 4069 175 3628 42 
Q 3188 -91 2688 -91 
Q 1594 -91 976 548 
Q 359 1188 359 2328 
Q 359 3472 976 4111 
Q 1594 4750 2688 4750 
Q 3144 4750 3555 4637 
Q 3966 4525 4313 4306 
L 4313 3634 
Q 3963 3931 3569 4081 
Q 3175 4231 2741 4231 
Q 1884 4231 1454 3753 
Q 1025 3275 1025 2328 
Q 1025 1384 1454 906 
Q 1884 428 2741 428 
Q 3075 428 3337 486 
Q 3600 544 3809 666 
z
" transform="scale(0.015625)"/>
       <path id="DejaVuSans-2d" d="M 313 2009 
L 1997 2009 
L 1997 1497 
L 313 1497 
L 313 2009 
z
" transform="scale(0.015625)"/>
       <path id="DejaVuSans-44" d="M 1259 4147 
L 1259 519 
L 2022 519 
Q 2988 519 3436 956 
Q 3884 1394 3884 2338 
Q 3884 3275 3436 3711 
Q 2988 4147 2022 4147 
L 1259 4147 
z
M 628 4666 
L 1925 4666 
Q 3281 4666 3915 4102 
Q 4550 3538 4550 2338 
Q 4550 1131 3912 565 
Q 3275 0 1925 0 
L 628 0 
L 628 4666 
z
" transform="scale(0.015625)"/>
       <path id="DejaVuSans-69" d="M 603 3500 
L 1178 3500 
L 1178 0 
L 603 0 
L 603 3500 
z
M 603 4863 
L 1178 4863 
L 1178 4134 
L 603 4134 
L 603 4863 
z
" transform="scale(0.015625)"/>
       <path id="DejaVuSans-73" d="M 2834 3397 
L 2834 2853 
Q 2591 2978 2328 3040 
Q 2066 3103 1784 3103 
Q 1356 3103 1142 2972 
Q 928 2841 928 2578 
Q 928 2378 1081 2264 
Q 1234 2150 1697 2047 
L 1894 2003 
Q 2506 1872 2764 1633 
Q 3022 1394 3022 966 
Q 3022 478 2636 193 
Q 2250 -91 1575 -91 
Q 1294 -91 989 -36 
Q 684 19 347 128 
L 347 722 
Q 666 556 975 473 
Q 1284 391 1588 391 
Q 1994 391 2212 530 
Q 2431 669 2431 922 
Q 2431 1156 2273 1281 
Q 2116 1406 1581 1522 
L 1381 1569 
Q 847 1681 609 1914 
Q 372 2147 372 2553 
Q 372 3047 722 3315 
Q 1072 3584 1716 3584 
Q 2034 3584 2315 3537 
Q 2597 3491 2834 3397 
z
" transform="scale(0.015625)"/>
       <path id="DejaVuSans-74" d="M 1172 4494 
L 1172 3500 
L 2356 3500 
L 2356 3053 
L 1172 3053 
L 1172 1153 
Q 1172 725 1289 603 
Q 1406 481 1766 481 
L 2356 481 
L 2356 0 
L 1766 0 
Q 1100 0 847 248 
Q 594 497 594 1153 
L 594 3053 
L 172 3053 
L 172 3500 
L 594 3500 
L 594 4494 
L 1172 4494 
z
" transform="scale(0.015625)"/>
       <path id="DejaVuSans-61" d="M 2194 1759 
Q 1497 1759 1228 1600 
Q 959 1441 959 1056 
Q 959 750 1161 570 
Q 1363 391 1709 391 
Q 2188 391 2477 730 
Q 2766 1069 2766 1631 
L 2766 1759 
L 2194 1759 
z
M 3341 1997 
L 3341 0 
L 2766 0 
L 2766 531 
Q 2569 213 2275 61 
Q 1981 -91 1556 -91 
Q 1019 -91 701 211 
Q 384 513 384 1019 
Q 384 1609 779 1909 
Q 1175 2209 1959 2209 
L 2766 2209 
L 2766 2266 
Q 2766 2663 2505 2880 
Q 2244 3097 1772 3097 
Q 1472 3097 1187 3025 
Q 903 2953 641 2809 
L 641 3341 
Q 956 3463 1253 3523 
Q 1550 3584 1831 3584 
Q 2591 3584 2966 3190 
Q 3341 2797 3341 1997 
z
" transform="scale(0.015625)"/>
       <path id="DejaVuSans-6e" d="M 3513 2113 
L 3513 0 
L 2938 0 
L 2938 2094 
Q 2938 2591 2744 2837 
Q 2550 3084 2163 3084 
Q 1697 3084 1428 2787 
Q 1159 2491 1159 1978 
L 1159 0 
L 581 0 
L 581 3500 
L 1159 3500 
L 1159 2956 
Q 1366 3272 1645 3428 
Q 1925 3584 2291 3584 
Q 2894 3584 3203 3211 
Q 3513 2838 3513 2113 
z
" transform="scale(0.015625)"/>
       <path id="DejaVuSans-63" d="M 3122 3366 
L 3122 2828 
Q 2878 2963 2633 3030 
Q 2388 3097 2138 3097 
Q 1578 3097 1268 2742 
Q 959 2388 959 1747 
Q 959 1106 1268 751 
Q 1578 397 2138 397 
Q 2388 397 2633 464 
Q 2878 531 3122 666 
L 3122 134 
Q 2881 22 2623 -34 
Q 2366 -91 2075 -91 
Q 1284 -91 818 406 
Q 353 903 353 1747 
Q 353 2603 823 3093 
Q 1294 3584 2113 3584 
Q 2378 3584 2631 3529 
Q 2884 3475 3122 3366 
z
" transform="scale(0.015625)"/>
       <path id="DejaVuSans-65" d="M 3597 1894 
L 3597 1613 
L 953 1613 
Q 991 1019 1311 708 
Q 1631 397 2203 397 
Q 2534 397 2845 478 
Q 3156 559 3463 722 
L 3463 178 
Q 3153 47 2828 -22 
Q 2503 -91 2169 -91 
Q 1331 -91 842 396 
Q 353 884 353 1716 
Q 353 2575 817 3079 
Q 1281 3584 2069 3584 
Q 2775 3584 3186 3129 
Q 3597 2675 3597 1894 
z
M 3022 2063 
Q 3016 2534 2758 2815 
Q 2500 3097 2075 3097 
Q 1594 3097 1305 2825 
Q 1016 2553 972 2059 
L 3022 2063 
z
" transform="scale(0.015625)"/>
       <path id="DejaVuSans-5b" d="M 550 4863 
L 1875 4863 
L 1875 4416 
L 1125 4416 
L 1125 -397 
L 1875 -397 
L 1875 -844 
L 550 -844 
L 550 4863 
z
" transform="scale(0.015625)"/>
       <path id="DejaVuSans-c5" d="M 2663 5081 
Q 2663 5278 2523 5417 
Q 2384 5556 2188 5556 
Q 1988 5556 1852 5420 
Q 1716 5284 1716 5081 
Q 1716 4884 1853 4746 
Q 1991 4609 2188 4609 
Q 2384 4609 2523 4746 
Q 2663 4884 2663 5081 
z
M 2188 4044 
L 1338 1722 
L 3041 1722 
L 2188 4044 
z
M 1716 4366 
Q 1525 4494 1428 4673 
Q 1331 4853 1331 5081 
Q 1331 5441 1579 5691 
Q 1828 5941 2188 5941 
Q 2544 5941 2795 5689 
Q 3047 5438 3047 5081 
Q 3047 4863 2948 4678 
Q 2850 4494 2663 4366 
L 4325 0 
L 3669 0 
L 3244 1197 
L 1141 1197 
L 716 0 
L 50 0 
L 1716 4366 
z
" transform="scale(0.015625)"/>
       <path id="DejaVuSans-5d" d="M 1947 4863 
L 1947 -844 
L 622 -844 
L 622 -397 
L 1369 -397 
L 1369 4416 
L 622 4416 
L 622 4863 
L 1947 4863 
z
" transform="scale(0.015625)"/>
      </defs>
      <use xlink:href="#DejaVuSans-54"/>
      <use xlink:href="#DejaVuSans-48" x="61.083984"/>
      <use xlink:href="#DejaVuSans-52" x="136.279297"/>
      <use xlink:href="#DejaVuSans-32" x="205.761719"/>
      <use xlink:href="#DejaVuSans-30" x="269.384766"/>
      <use xlink:href="#DejaVuSans-33" x="333.007812"/>
      <use xlink:href="#DejaVuSans-20" x="396.630859"/>
      <use xlink:href="#DejaVuSans-4f" x="428.417969"/>
      <use xlink:href="#DejaVuSans-47" x="507.128906"/>
      <use xlink:href="#DejaVuSans-31" x="584.619141"/>
      <use xlink:href="#DejaVuSans-20" x="648.242188"/>
      <use xlink:href="#DejaVuSans-2d" x="680.029297"/>
      <use xlink:href="#DejaVuSans-20" x="716.113281"/>
      <use xlink:href="#DejaVuSans-48" x="747.900391"/>
      <use xlink:href="#DejaVuSans-32" x="823.095703"/>
      <use xlink:href="#DejaVuSans-4f" x="886.71875"/>
      <use xlink:href="#DejaVuSans-20" x="965.429688"/>
      <use xlink:href="#DejaVuSans-48" x="997.216797"/>
      <use xlink:href="#DejaVuSans-20" x="1072.412109"/>
      <use xlink:href="#DejaVuSans-44" x="1104.199219"/>
      <use xlink:href="#DejaVuSans-69" x="1181.201172"/>
      <use xlink:href="#DejaVuSans-73" x="1208.984375"/>
      <use xlink:href="#DejaVuSans-74" x="1261.083984"/>
      <use xlink:href="#DejaVuSans-61" x="1300.292969"/>
      <use xlink:href="#DejaVuSans-6e" x="1361.572266"/>
      <use xlink:href="#DejaVuSans-63" x="1424.951172"/>
      <use xlink:href="#DejaVuSans-65" x="1479.931641"/>
      <use xlink:href="#DejaVuSans-20" x="1541.455078"/>
      <use xlink:href="#DejaVuSans-5b" x="1573.242188"/>
      <use xlink:href="#DejaVuSans-c5" x="1612.255859"/>
      <use xlink:href="#DejaVuSans-5d" x="1680.664062"/>
     </g>
    </g>
   </g>
   <g id="matplotlib.axis_2">
    <g id="ytick_1">
     <g id="line2d_9">
      <defs>
       <path id="mcb5c358a46" d="M 0 0 
L -3.5 0 
" style="stroke: #000000; stroke-width: 0.8"/>
      </defs>
      <g>
       <use xlink:href="#mcb5c358a46" x="47.72" y="302.8525" style="stroke: #000000; stroke-width: 0.8"/>
      </g>
     </g>
     <g id="text_8">
      <!-- 0.0 -->
      <g transform="translate(24.816875 306.651719) scale(0.1 -0.1)">
       <defs>
        <path id="DejaVuSans-2e" d="M 684 794 
L 1344 794 
L 1344 0 
L 684 0 
L 684 794 
z
" transform="scale(0.015625)"/>
       </defs>
       <use xlink:href="#DejaVuSans-30"/>
       <use xlink:href="#DejaVuSans-2e" x="63.623047"/>
       <use xlink:href="#DejaVuSans-30" x="95.410156"/>
      </g>
     </g>
    </g>
    <g id="ytick_2">
     <g id="line2d_10">
      <g>
       <use xlink:href="#mcb5c358a46" x="47.72" y="248.808777" style="stroke: #000000; stroke-width: 0.8"/>
      </g>
     </g>
     <g id="text_9">
      <!-- 0.1 -->
      <g transform="translate(24.816875 252.607996) scale(0.1 -0.1)">
       <use xlink:href="#DejaVuSans-30"/>
       <use xlink:href="#DejaVuSans-2e" x="63.623047"/>
       <use xlink:href="#DejaVuSans-31" x="95.410156"/>
      </g>
     </g>
    </g>
    <g id="ytick_3">
     <g id="line2d_11">
      <g>
       <use xlink:href="#mcb5c358a46" x="47.72" y="194.765055" style="stroke: #000000; stroke-width: 0.8"/>
      </g>
     </g>
     <g id="text_10">
      <!-- 0.2 -->
      <g transform="translate(24.816875 198.564273) scale(0.1 -0.1)">
       <use xlink:href="#DejaVuSans-30"/>
       <use xlink:href="#DejaVuSans-2e" x="63.623047"/>
       <use xlink:href="#DejaVuSans-32" x="95.410156"/>
      </g>
     </g>
    </g>
    <g id="ytick_4">
     <g id="line2d_12">
      <g>
       <use xlink:href="#mcb5c358a46" x="47.72" y="140.721332" style="stroke: #000000; stroke-width: 0.8"/>
      </g>
     </g>
     <g id="text_11">
      <!-- 0.3 -->
      <g transform="translate(24.816875 144.520551) scale(0.1 -0.1)">
       <use xlink:href="#DejaVuSans-30"/>
       <use xlink:href="#DejaVuSans-2e" x="63.623047"/>
       <use xlink:href="#DejaVuSans-33" x="95.410156"/>
      </g>
     </g>
    </g>
    <g id="ytick_5">
     <g id="line2d_13">
      <g>
       <use xlink:href="#mcb5c358a46" x="47.72" y="86.677609" style="stroke: #000000; stroke-width: 0.8"/>
      </g>
     </g>
     <g id="text_12">
      <!-- 0.4 -->
      <g transform="translate(24.816875 90.476828) scale(0.1 -0.1)">
       <use xlink:href="#DejaVuSans-30"/>
       <use xlink:href="#DejaVuSans-2e" x="63.623047"/>
       <use xlink:href="#DejaVuSans-34" x="95.410156"/>
      </g>
     </g>
    </g>
    <g id="ytick_6">
     <g id="line2d_14">
      <g>
       <use xlink:href="#mcb5c358a46" x="47.72" y="32.633886" style="stroke: #000000; stroke-width: 0.8"/>
      </g>
     </g>
     <g id="text_13">
      <!-- 0.5 -->
      <g transform="translate(24.816875 36.433105) scale(0.1 -0.1)">
       <use xlink:href="#DejaVuSans-30"/>
       <use xlink:href="#DejaVuSans-2e" x="63.623047"/>
       <use xlink:href="#DejaVuSans-35" x="95.410156"/>
      </g>
     </g>
    </g>
    <g id="text_14">
     <!-- Density -->
     <g transform="translate(18.737188 175.834844) rotate(-90) scale(0.1 -0.1)">
      <defs>
       <path id="DejaVuSans-79" d="M 2059 -325 
Q 1816 -950 1584 -1140 
Q 1353 -1331 966 -1331 
L 506 -1331 
L 506 -850 
L 844 -850 
Q 1081 -850 1212 -737 
Q 1344 -625 1503 -206 
L 1606 56 
L 191 3500 
L 800 3500 
L 1894 763 
L 2988 3500 
L 3597 3500 
L 2059 -325 
z
" transform="scale(0.015625)"/>
      </defs>
      <use xlink:href="#DejaVuSans-44"/>
      <use xlink:href="#DejaVuSans-65" x="77.001953"/>
      <use xlink:href="#DejaVuSans-6e" x="138.525391"/>
      <use xlink:href="#DejaVuSans-73" x="201.904297"/>
      <use xlink:href="#DejaVuSans-69" x="254.003906"/>
      <use xlink:href="#DejaVuSans-74" x="281.787109"/>
      <use xlink:href="#DejaVuSans-79" x="320.996094"/>
     </g>
    </g>
   </g>
   <g id="line2d_15">
    <path d="M 47.72 302.8525 
L 88.707108 302.810798 
L 90.145252 302.512751 
L 90.864324 302.639867 
L 91.583396 302.496974 
L 93.021541 301.239379 
L 95.178757 298.406213 
L 95.897829 296.767882 
L 96.616901 295.818777 
L 97.335973 294.269975 
L 98.055045 291.472826 
L 99.493189 283.771969 
L 100.212261 281.703863 
L 100.931333 280.537934 
L 102.369477 274.542878 
L 103.08855 273.187766 
L 103.807622 269.136632 
L 104.526694 263.763844 
L 105.245766 261.966986 
L 105.964838 260.798471 
L 106.68391 258.644554 
L 107.402982 257.451418 
L 108.841126 254.297088 
L 110.27927 250.566597 
L 110.998342 246.746485 
L 111.717414 244.424099 
L 112.436486 244.280275 
L 113.155559 242.615765 
L 113.874631 240.082528 
L 114.593703 241.199581 
L 115.312775 245.47733 
L 116.031847 247.695016 
L 116.750919 245.040241 
L 117.469991 246.977737 
L 118.189063 250.428827 
L 118.908135 251.307922 
L 119.627207 252.492178 
L 120.346279 254.229318 
L 121.065351 254.225622 
L 122.503495 256.791706 
L 123.222568 255.820599 
L 123.94164 259.945886 
L 124.660712 262.051783 
L 125.379784 263.522751 
L 126.098856 267.20881 
L 126.817928 267.868663 
L 127.537 266.530893 
L 128.256072 268.519148 
L 128.975144 271.695856 
L 129.694216 273.577659 
L 130.413288 274.899667 
L 131.13236 276.553906 
L 132.570505 281.332553 
L 133.289577 282.444507 
L 134.008649 281.75898 
L 134.727721 283.291608 
L 135.446793 283.839869 
L 136.165865 283.601223 
L 137.604009 288.138279 
L 138.323081 287.783253 
L 139.761225 288.346795 
L 140.480297 287.41511 
L 141.199369 289.218004 
L 141.918441 291.835977 
L 142.637514 291.665061 
L 143.356586 290.330577 
L 144.075658 290.828466 
L 144.79473 293.116198 
L 145.513802 293.845315 
L 146.232874 293.108675 
L 146.951946 292.69007 
L 147.671018 294.13911 
L 148.39009 293.908797 
L 149.109162 292.999848 
L 150.547306 294.702571 
L 151.98545 295.089512 
L 152.704523 294.675226 
L 153.423595 293.499856 
L 154.142667 293.808298 
L 154.861739 294.791737 
L 155.580811 294.883378 
L 157.018955 292.420702 
L 157.738027 293.5484 
L 158.457099 294.388497 
L 159.176171 293.973823 
L 159.895243 293.736814 
L 160.614315 292.786575 
L 162.052459 288.262312 
L 162.771532 287.42384 
L 163.490604 286.19289 
L 164.209676 285.964918 
L 164.928748 284.834247 
L 165.64782 281.394386 
L 166.366892 279.886606 
L 167.085964 278.795188 
L 167.805036 276.038581 
L 169.24318 268.030636 
L 169.962252 265.502306 
L 170.681324 263.97275 
L 171.400396 260.724242 
L 172.119468 254.492392 
L 173.557613 239.776342 
L 174.276685 233.30662 
L 174.995757 224.988521 
L 175.714829 214.162257 
L 176.433901 207.432435 
L 178.591117 194.726199 
L 179.310189 185.214199 
L 180.029261 171.987734 
L 181.467405 158.548193 
L 182.90555 134.863927 
L 183.624622 127.393429 
L 184.343694 123.107516 
L 185.062766 115.971913 
L 185.781838 104.913426 
L 186.50091 89.020482 
L 187.219982 77.386471 
L 187.939054 74.584133 
L 188.658126 69.595411 
L 189.377198 65.511558 
L 190.09627 63.198868 
L 190.815342 62.476046 
L 191.534414 56.621731 
L 192.253486 47.643981 
L 192.972559 44.624753 
L 193.691631 42.88752 
L 195.129775 33.990391 
L 195.848847 26.914588 
L 196.567919 24.707262 
L 197.286991 30.425176 
L 198.006063 32.574649 
L 198.725135 38.391787 
L 199.444207 41.994058 
L 200.163279 42.045881 
L 200.882351 42.490328 
L 201.601423 43.212824 
L 202.320495 48.082962 
L 203.039568 58.782511 
L 203.75864 62.463036 
L 204.477712 62.240281 
L 207.354 101.897495 
L 208.073072 104.418072 
L 209.511216 101.859995 
L 210.230288 104.030745 
L 211.668432 129.809449 
L 212.387505 130.860217 
L 213.106577 135.215859 
L 213.825649 142.886522 
L 214.544721 144.287182 
L 215.263793 144.689581 
L 215.982865 150.219484 
L 216.701937 159.592976 
L 217.421009 165.667892 
L 218.140081 170.121739 
L 218.859153 172.019909 
L 219.578225 174.592877 
L 221.016369 187.602627 
L 221.735441 188.360139 
L 222.454514 191.351516 
L 223.173586 192.509064 
L 223.892658 194.134092 
L 224.61173 199.434871 
L 225.330802 202.541352 
L 226.049874 206.894596 
L 227.488018 218.291594 
L 228.20709 221.643523 
L 228.926162 221.814315 
L 229.645234 220.862374 
L 230.364306 222.467029 
L 231.083378 226.224181 
L 231.80245 228.883029 
L 232.521523 226.837002 
L 233.240595 225.990441 
L 233.959667 229.955776 
L 234.678739 234.576695 
L 235.397811 236.407591 
L 236.116883 239.030407 
L 236.835955 240.957265 
L 237.555027 237.121324 
L 238.993171 241.604395 
L 239.712243 240.04258 
L 240.431315 241.3128 
L 241.150387 243.395314 
L 241.869459 243.725932 
L 242.588532 245.855787 
L 243.307604 249.084505 
L 244.026676 249.142385 
L 244.745748 248.440013 
L 245.46482 247.326211 
L 246.183892 246.436941 
L 246.902964 247.720479 
L 247.622036 248.772723 
L 248.341108 247.502026 
L 249.06018 247.932007 
L 249.779252 249.518726 
L 250.498324 250.026041 
L 251.217396 251.208835 
L 251.936468 254.061267 
L 252.655541 255.258753 
L 253.374613 256.726821 
L 254.093685 256.66147 
L 254.812757 254.410672 
L 255.531829 252.65574 
L 256.250901 253.86591 
L 256.969973 255.460625 
L 257.689045 254.253093 
L 258.408117 252.428709 
L 259.127189 249.903154 
L 259.846261 248.16327 
L 260.565333 249.590702 
L 261.284405 252.519941 
L 262.003477 252.374982 
L 263.441622 249.016169 
L 264.160694 248.607135 
L 264.879766 250.008172 
L 265.598838 254.083351 
L 266.31791 255.219082 
L 267.036982 252.885291 
L 267.756054 251.339855 
L 268.475126 248.840558 
L 269.194198 246.801244 
L 269.91327 247.115492 
L 270.632342 246.214658 
L 271.351414 245.830936 
L 272.070486 248.49644 
L 272.789559 248.861055 
L 273.508631 250.27754 
L 274.227703 254.0816 
L 274.946775 255.440315 
L 275.665847 253.646999 
L 276.384919 250.888235 
L 277.103991 250.002038 
L 277.823063 253.69317 
L 278.542135 259.482479 
L 279.261207 259.713273 
L 279.980279 255.386271 
L 280.699351 256.923478 
L 281.418423 261.351246 
L 282.137495 260.169686 
L 282.856568 257.949824 
L 283.57564 259.993434 
L 284.294712 263.39108 
L 285.013784 263.325987 
L 285.732856 259.119082 
L 286.451928 257.775984 
L 287.171 257.975769 
L 287.890072 259.526712 
L 288.609144 259.894575 
L 289.328216 258.398418 
L 290.76636 258.178059 
L 291.485432 258.831293 
L 292.204505 260.723819 
L 292.923577 263.648939 
L 293.642649 265.632488 
L 294.361721 265.306419 
L 295.080793 266.86021 
L 295.799865 267.851002 
L 296.518937 267.221326 
L 297.238009 266.443384 
L 297.957081 266.738217 
L 299.395225 271.25186 
L 300.114297 270.305901 
L 300.833369 269.57274 
L 301.552441 269.630832 
L 302.271514 271.206871 
L 302.990586 274.969202 
L 303.709658 277.645497 
L 304.42873 277.600473 
L 305.147802 277.106493 
L 305.866874 277.253891 
L 306.585946 276.365307 
L 307.305018 276.610263 
L 308.02409 278.304301 
L 308.743162 279.07168 
L 309.462234 281.272873 
L 310.181306 282.45535 
L 310.900378 282.512078 
L 312.338523 278.396357 
L 313.057595 278.239226 
L 313.776667 279.173862 
L 314.495739 281.360711 
L 315.214811 281.693034 
L 315.933883 280.685188 
L 316.652955 281.983309 
L 317.372027 282.121172 
L 318.091099 281.965308 
L 318.810171 283.352458 
L 319.529243 283.728576 
L 320.248315 284.407102 
L 320.967387 284.328639 
L 321.686459 283.519358 
L 322.405532 284.524455 
L 323.124604 285.207533 
L 323.843676 284.397713 
L 324.562748 283.859153 
L 325.28182 283.70813 
L 326.000892 283.899604 
L 326.719964 283.832021 
L 327.439036 283.54043 
L 328.158108 285.754071 
L 328.87718 289.219389 
L 329.596252 289.483757 
L 330.315324 288.268535 
L 331.034396 287.83493 
L 332.472541 286.736597 
L 333.191613 286.344028 
L 333.910685 286.373793 
L 334.629757 286.580732 
L 335.348829 287.990612 
L 336.067901 289.715994 
L 336.786973 289.437611 
L 337.506045 287.63326 
L 338.225117 287.19335 
L 338.944189 287.536047 
L 339.663261 287.529598 
L 340.382333 287.410445 
L 341.101405 286.696978 
L 341.820477 287.248783 
L 342.53955 288.341611 
L 343.258622 287.64998 
L 343.977694 285.580031 
L 344.696766 285.218432 
L 345.415838 287.752968 
L 346.13491 288.178446 
L 346.853982 288.218756 
L 347.573054 288.847834 
L 348.292126 288.172318 
L 349.011198 286.658078 
L 349.73027 284.820532 
L 350.449342 284.85085 
L 351.168414 287.554087 
L 351.887486 289.027435 
L 352.606559 287.467429 
L 353.325631 286.679845 
L 354.044703 287.064314 
L 354.763775 286.875599 
L 355.482847 286.978378 
L 356.201919 287.591838 
L 356.920991 287.93189 
L 358.359135 287.771139 
L 359.797279 284.619577 
L 360.516351 284.894427 
L 361.235423 288.065489 
L 361.954495 288.447566 
L 362.673568 288.480553 
L 363.39264 289.032237 
L 364.111712 289.01656 
L 364.830784 288.157403 
L 365.549856 286.753471 
L 366.268928 287.042143 
L 366.988 288.446638 
L 368.426144 287.349439 
L 369.145216 288.798132 
L 369.864288 289.501088 
L 370.58336 289.691264 
L 371.302432 290.415805 
L 372.021505 289.853664 
L 372.740577 287.635893 
L 373.459649 286.214827 
L 374.897793 287.098196 
L 376.335937 289.930531 
L 377.055009 289.866441 
L 377.774081 287.970242 
L 378.493153 286.687474 
L 379.931297 290.252225 
L 380.650369 290.52805 
L 381.369441 290.077234 
L 382.088514 288.874352 
L 382.807586 288.587563 
L 383.526658 288.848744 
L 384.24573 289.410526 
L 384.964802 289.082346 
L 385.683874 289.02083 
L 386.402946 290.080108 
L 387.122018 292.601543 
L 387.84109 293.673551 
L 388.560162 293.721771 
L 389.279234 292.75643 
L 389.998306 292.281183 
L 390.717378 293.128578 
L 391.43645 292.846415 
L 392.155523 292.278146 
L 392.874595 292.4134 
L 393.593667 292.798078 
L 394.312739 291.958721 
L 395.031811 292.296545 
L 395.750883 293.623971 
L 396.469955 293.589882 
L 397.189027 291.962885 
L 397.908099 291.069151 
L 398.627171 291.30563 
L 399.346243 291.930792 
L 400.065315 291.976488 
L 400.784387 293.000903 
L 401.503459 293.476695 
L 402.222532 292.947911 
L 402.941604 292.788327 
L 403.660676 292.058522 
L 404.379748 292.816121 
L 405.09882 294.751714 
L 405.817892 294.793285 
L 406.536964 293.580368 
L 407.256036 293.637426 
L 407.975108 294.267783 
L 408.69418 294.42788 
L 409.413252 294.193666 
L 410.132324 293.543717 
L 410.851396 293.126386 
L 411.570468 293.09022 
L 412.289541 293.81219 
L 413.008613 293.89956 
L 413.727685 293.750251 
L 414.446757 294.003904 
L 415.165829 295.559925 
L 415.884901 295.550065 
L 416.603973 294.185823 
L 417.323045 295.008394 
L 418.042117 295.380086 
L 420.199333 291.031887 
L 420.918405 290.29124 
L 421.637477 290.337205 
L 423.075622 293.743422 
L 423.794694 293.624458 
L 424.513766 291.869336 
L 425.232838 290.640921 
L 425.95191 290.559865 
L 426.670982 292.215879 
L 427.390054 293.442615 
L 429.54727 292.142578 
L 430.266342 291.000063 
L 430.985414 291.818448 
L 431.704486 294.430108 
L 432.423559 295.045326 
L 433.142631 293.894225 
L 433.861703 292.483282 
L 434.580775 291.799023 
L 435.299847 291.991444 
L 436.737991 291.655043 
L 437.457063 291.763534 
L 438.176135 291.34477 
L 438.895207 291.672575 
L 439.614279 293.476068 
L 440.333351 294.013367 
L 441.052423 293.451035 
L 441.771495 291.839947 
L 442.490568 290.911686 
L 443.20964 291.579516 
L 443.928712 291.713342 
L 444.647784 292.177541 
L 445.366856 293.80405 
L 446.085928 294.602302 
L 446.805 294.864178 
L 447.524072 294.124039 
L 448.243144 292.91671 
L 448.962216 292.72886 
L 449.681288 292.187721 
L 450.40036 292.563005 
L 451.119432 294.803594 
L 451.838505 295.531042 
L 452.557577 294.820819 
L 453.276649 294.827451 
L 453.995721 293.780313 
L 454.714793 291.177066 
L 455.433865 291.386651 
L 456.152937 294.052638 
L 456.872009 295.255162 
L 457.591081 295.385569 
L 459.029225 293.54185 
L 459.748297 293.762194 
L 460.467369 294.415441 
L 461.186441 295.506051 
L 461.8 296.212721 
L 461.8 296.212721 
" clip-path="url(#p0d974bbd34)" style="fill: none; stroke: #f99752; stroke-width: 2.5; stroke-linecap: square"/>
   </g>
   <g id="patch_3">
    <path d="M 47.72 302.8525 
L 47.72 10.8 
" style="fill: none; stroke: #000000; stroke-width: 0.8; stroke-linejoin: miter; stroke-linecap: square"/>
   </g>
   <g id="patch_4">
    <path d="M 446.805 302.8525 
L 446.805 10.8 
" style="fill: none; stroke: #000000; stroke-width: 0.8; stroke-linejoin: miter; stroke-linecap: square"/>
   </g>
   <g id="patch_5">
    <path d="M 47.72 302.8525 
L 446.805 302.8525 
" style="fill: none; stroke: #000000; stroke-width: 0.8; stroke-linejoin: miter; stroke-linecap: square"/>
   </g>
   <g id="patch_6">
    <path d="M 47.72 10.8 
L 446.805 10.8 
" style="fill: none; stroke: #000000; stroke-width: 0.8; stroke-linejoin: miter; stroke-linecap: square"/>
   </g>
   <g id="legend_1">
    <g id="patch_7">
     <path d="M 364.359688 62.834375 
L 439.805 62.834375 
Q 441.805 62.834375 441.805 60.834375 
L 441.805 17.8 
Q 441.805 15.8 439.805 15.8 
L 364.359688 15.8 
Q 362.359688 15.8 362.359688 17.8 
L 362.359688 60.834375 
Q 362.359688 62.834375 364.359688 62.834375 
z
" style="fill: #ffffff; opacity: 0.8; stroke: #cccccc; stroke-linejoin: miter"/>
    </g>
    <g id="line2d_16">
     <path d="M 366.359688 23.898438 
L 376.359688 23.898438 
L 386.359688 23.898438 
" style="fill: none; stroke: #1e2e79; stroke-width: 2.5; stroke-linecap: square"/>
    </g>
    <g id="text_15">
     <!-- Reduced -->
     <g transform="translate(394.359688 27.398438) scale(0.1 -0.1)">
      <defs>
       <path id="DejaVuSans-64" d="M 2906 2969 
L 2906 4863 
L 3481 4863 
L 3481 0 
L 2906 0 
L 2906 525 
Q 2725 213 2448 61 
Q 2172 -91 1784 -91 
Q 1150 -91 751 415 
Q 353 922 353 1747 
Q 353 2572 751 3078 
Q 1150 3584 1784 3584 
Q 2172 3584 2448 3432 
Q 2725 3281 2906 2969 
z
M 947 1747 
Q 947 1113 1208 752 
Q 1469 391 1925 391 
Q 2381 391 2643 752 
Q 2906 1113 2906 1747 
Q 2906 2381 2643 2742 
Q 2381 3103 1925 3103 
Q 1469 3103 1208 2742 
Q 947 2381 947 1747 
z
" transform="scale(0.015625)"/>
       <path id="DejaVuSans-75" d="M 544 1381 
L 544 3500 
L 1119 3500 
L 1119 1403 
Q 1119 906 1312 657 
Q 1506 409 1894 409 
Q 2359 409 2629 706 
Q 2900 1003 2900 1516 
L 2900 3500 
L 3475 3500 
L 3475 0 
L 2900 0 
L 2900 538 
Q 2691 219 2414 64 
Q 2138 -91 1772 -91 
Q 1169 -91 856 284 
Q 544 659 544 1381 
z
M 1991 3584 
L 1991 3584 
z
" transform="scale(0.015625)"/>
      </defs>
      <use xlink:href="#DejaVuSans-52"/>
      <use xlink:href="#DejaVuSans-65" x="64.982422"/>
      <use xlink:href="#DejaVuSans-64" x="126.505859"/>
      <use xlink:href="#DejaVuSans-75" x="189.982422"/>
      <use xlink:href="#DejaVuSans-63" x="253.361328"/>
      <use xlink:href="#DejaVuSans-65" x="308.341797"/>
      <use xlink:href="#DejaVuSans-64" x="369.865234"/>
     </g>
    </g>
    <g id="line2d_17">
     <path d="M 366.359688 38.576563 
L 376.359688 38.576563 
L 386.359688 38.576563 
" style="fill: none; stroke: #ec4067; stroke-width: 2.5; stroke-linecap: square"/>
    </g>
    <g id="text_16">
     <!-- Oxidized -->
     <g transform="translate(394.359688 42.076563) scale(0.1 -0.1)">
      <defs>
       <path id="DejaVuSans-78" d="M 3513 3500 
L 2247 1797 
L 3578 0 
L 2900 0 
L 1881 1375 
L 863 0 
L 184 0 
L 1544 1831 
L 300 3500 
L 978 3500 
L 1906 2253 
L 2834 3500 
L 3513 3500 
z
" transform="scale(0.015625)"/>
       <path id="DejaVuSans-7a" d="M 353 3500 
L 3084 3500 
L 3084 2975 
L 922 459 
L 3084 459 
L 3084 0 
L 275 0 
L 275 525 
L 2438 3041 
L 353 3041 
L 353 3500 
z
" transform="scale(0.015625)"/>
      </defs>
      <use xlink:href="#DejaVuSans-4f"/>
      <use xlink:href="#DejaVuSans-78" x="78.710938"/>
      <use xlink:href="#DejaVuSans-69" x="137.890625"/>
      <use xlink:href="#DejaVuSans-64" x="165.673828"/>
      <use xlink:href="#DejaVuSans-69" x="229.150391"/>
      <use xlink:href="#DejaVuSans-7a" x="256.933594"/>
      <use xlink:href="#DejaVuSans-65" x="309.423828"/>
      <use xlink:href="#DejaVuSans-64" x="370.947266"/>
     </g>
    </g>
    <g id="line2d_18">
     <path d="M 366.359688 53.254687 
L 376.359688 53.254687 
L 386.359688 53.254687 
" style="fill: none; stroke: #f99752; stroke-width: 2.5; stroke-linecap: square"/>
    </g>
    <g id="text_17">
     <!-- Cu$^{+}$ -->
     <g transform="translate(394.359688 56.754687) scale(0.1 -0.1)">
      <defs>
       <path id="DejaVuSans-43" d="M 4122 4306 
L 4122 3641 
Q 3803 3938 3442 4084 
Q 3081 4231 2675 4231 
Q 1875 4231 1450 3742 
Q 1025 3253 1025 2328 
Q 1025 1406 1450 917 
Q 1875 428 2675 428 
Q 3081 428 3442 575 
Q 3803 722 4122 1019 
L 4122 359 
Q 3791 134 3420 21 
Q 3050 -91 2638 -91 
Q 1578 -91 968 557 
Q 359 1206 359 2328 
Q 359 3453 968 4101 
Q 1578 4750 2638 4750 
Q 3056 4750 3426 4639 
Q 3797 4528 4122 4306 
z
" transform="scale(0.015625)"/>
       <path id="DejaVuSans-2b" d="M 2944 4013 
L 2944 2272 
L 4684 2272 
L 4684 1741 
L 2944 1741 
L 2944 0 
L 2419 0 
L 2419 1741 
L 678 1741 
L 678 2272 
L 2419 2272 
L 2419 4013 
L 2944 4013 
z
" transform="scale(0.015625)"/>
      </defs>
      <use xlink:href="#DejaVuSans-43" transform="translate(0 0.826562)"/>
      <use xlink:href="#DejaVuSans-75" transform="translate(69.824219 0.826562)"/>
      <use xlink:href="#DejaVuSans-2b" transform="translate(134.160156 39.107812) scale(0.7)"/>
     </g>
    </g>
   </g>
  </g>
 </g>
 <defs>
  <clipPath id="p0d974bbd34">
   <rect x="47.72" y="10.8" width="399.085" height="292.0525"/>
  </clipPath>
 </defs>
</svg>
