<?xml version="1.0" encoding="utf-8" standalone="no"?>
<!DOCTYPE svg PUBLIC "-//W3C//DTD SVG 1.1//EN"
  "http://www.w3.org/Graphics/SVG/1.1/DTD/svg11.dtd">
<svg xmlns:xlink="http://www.w3.org/1999/xlink" width="252pt" height="216pt" viewBox="0 0 252 216" xmlns="http://www.w3.org/2000/svg" version="1.1">
 <metadata>
  <rdf:RDF xmlns:dc="http://purl.org/dc/elements/1.1/" xmlns:cc="http://creativecommons.org/ns#" xmlns:rdf="http://www.w3.org/1999/02/22-rdf-syntax-ns#">
   <cc:Work>
    <dc:type rdf:resource="http://purl.org/dc/dcmitype/StillImage"/>
    <dc:date>2024-08-13T17:20:24.150564</dc:date>
    <dc:format>image/svg+xml</dc:format>
    <dc:creator>
     <cc:Agent>
      <dc:title>Matplotlib v3.9.1, https://matplotlib.org/</dc:title>
     </cc:Agent>
    </dc:creator>
   </cc:Work>
  </rdf:RDF>
 </metadata>
 <defs>
  <style type="text/css">*{stroke-linejoin: round; stroke-linecap: butt}</style>
 </defs>
 <g id="figure_1">
  <g id="patch_1">
   <path d="M 0 216 
L 252 216 
L 252 0 
L 0 0 
z
" style="fill: #ffffff"/>
  </g>
  <g id="axes_1">
   <g id="patch_2">
    <path d="M 42.959 180.016 
L 242.044 180.016 
L 242.044 8.64 
L 42.959 8.64 
z
" style="fill: #ffffff"/>
   </g>
   <g id="line2d_1">
    <path d="M 42.959 180.016 
L 74.524633 179.90699 
L 76.462873 179.884132 
L 83.938944 179.813406 
L 88.6461 179.918361 
L 90.307449 179.961335 
L 92.24569 180.002696 
L 94.737713 180.016 
L 120.211733 179.914955 
L 122.149974 179.530848 
L 123.534431 179.119019 
L 124.365106 178.502017 
L 125.749563 176.96585 
L 126.303346 176.012545 
L 126.857129 174.740091 
L 127.687804 171.869569 
L 128.241587 169.601109 
L 129.626045 161.216171 
L 130.733611 151.494693 
L 131.564285 140.543031 
L 132.118068 132.109423 
L 134.610092 84.169947 
L 136.271441 49.188629 
L 137.655898 26.525321 
L 138.209682 23.004571 
L 138.763465 19.9078 
L 139.317248 17.078682 
L 139.594139 16.800762 
L 139.871031 17.051177 
L 140.147922 17.927982 
L 140.424814 19.959683 
L 141.255488 29.822828 
L 141.809271 37.249401 
L 142.916837 57.461129 
L 144.024403 78.623425 
L 145.685752 110.15608 
L 146.239535 119.346274 
L 148.177776 146.052177 
L 149.008451 153.291655 
L 150.946691 166.883958 
L 151.777366 170.264578 
L 153.992498 175.81814 
L 154.546281 176.55089 
L 155.100064 176.925185 
L 156.20763 178.12148 
L 157.315196 178.719752 
L 157.868979 179.023885 
L 158.699654 179.126339 
L 159.530328 179.468582 
L 161.468569 179.750127 
L 162.299243 179.777255 
L 163.406809 179.891989 
L 175.866928 179.949368 
L 177.251385 179.903243 
L 179.743409 179.926756 
L 182.512324 179.934302 
L 186.388805 179.863964 
L 188.050154 179.871268 
L 190.81907 179.836568 
L 191.649744 179.886179 
L 192.75731 179.878376 
L 196.633791 179.87724 
L 197.464466 179.808461 
L 198.848924 179.946659 
L 200.510273 179.880907 
L 201.064056 179.818938 
L 201.89473 179.814076 
L 202.448513 179.858727 
L 203.002296 179.920658 
L 204.940537 179.802797 
L 206.878777 179.828398 
L 207.432561 179.791521 
L 208.817018 179.895112 
L 210.755259 179.808829 
L 213.524174 179.851977 
L 214.908631 179.896674 
L 216.293089 179.942238 
L 217.400655 179.971732 
L 222.938485 179.995957 
L 227.645641 180.002702 
L 233.460363 180.016 
L 242.044 180.016 
L 242.044 180.016 
" clip-path="url(#p315b2a89b6)" style="fill: none; stroke: #1e2e79; stroke-width: 1.5; stroke-linecap: square"/>
   </g>
   <g id="line2d_2">
    <path d="M 42.959 180.016 
L 68.986803 179.931496 
L 70.094369 179.813125 
L 75.078416 179.406868 
L 75.632199 179.235881 
L 78.954897 179.025779 
L 79.50868 178.903001 
L 81.446921 179.050914 
L 82.000704 179.002744 
L 85.600293 179.561934 
L 86.154076 179.559192 
L 86.984751 179.61316 
L 88.369209 179.668409 
L 91.691907 179.928898 
L 104.152025 180.016 
L 118.827275 179.928354 
L 122.426865 179.543476 
L 123.811323 178.879397 
L 124.641997 177.998552 
L 126.026455 176.1542 
L 126.580238 175.474468 
L 127.134021 173.809288 
L 128.241587 169.177091 
L 129.072261 165.01375 
L 129.626045 160.47171 
L 131.010502 146.274371 
L 132.118068 130.058494 
L 133.502526 103.809765 
L 136.271441 46.714919 
L 137.102115 35.348303 
L 138.486573 18.873017 
L 138.763465 17.579458 
L 139.040356 18.230336 
L 139.594139 21.551352 
L 140.147922 23.963356 
L 140.978597 28.54593 
L 141.53238 35.518703 
L 142.363054 50.864811 
L 142.916837 60.896723 
L 143.747512 72.556653 
L 145.408861 106.801227 
L 147.07021 132.739198 
L 148.454668 149.701933 
L 149.008451 155.31012 
L 150.6698 165.894685 
L 152.054257 171.939072 
L 152.60804 173.216682 
L 153.715606 175.277789 
L 155.653847 177.677255 
L 156.20763 178.413413 
L 156.761413 178.73578 
L 158.145871 179.238074 
L 158.976545 179.530786 
L 160.637894 179.692509 
L 161.74546 179.862121 
L 162.576135 179.908809 
L 163.960592 179.852935 
L 165.068159 179.974164 
L 172.544229 179.993627 
L 175.866928 180.007049 
L 201.617839 179.923498 
L 203.002296 179.948374 
L 204.109862 179.936809 
L 221.000245 179.911917 
L 223.492268 179.965599 
L 233.460363 180.006517 
L 238.721302 180.01097 
L 242.044 180.016 
L 242.044 180.016 
" clip-path="url(#p315b2a89b6)" style="fill: none; stroke: #ec4067; stroke-width: 1.5; stroke-linecap: square"/>
   </g>
   <g id="matplotlib.axis_1">
    <g id="xtick_1">
     <g id="line2d_3">
      <defs>
       <path id="m28d00208e3" d="M 0 0 
L 0 3.5 
" style="stroke: #c2c1c1; stroke-width: 0.8"/>
      </defs>
      <g>
       <use xlink:href="#m28d00208e3" x="42.959" y="180.016" style="fill: #c2c1c1; stroke: #c2c1c1; stroke-width: 0.8"/>
      </g>
     </g>
     <g id="text_1">
      <!-- 0 -->
      <g style="fill: #191919" transform="translate(40.710875 193.016) scale(0.08 -0.08)">
       <defs>
        <path id="Roboto-Regular-30" d="M 3234 1944 
Q 3234 825 2848 381 
Q 2463 -63 1800 -63 
Q 1156 -63 764 368 
Q 372 800 359 1872 
L 359 2638 
Q 359 3753 750 4183 
Q 1141 4613 1794 4613 
Q 2447 4613 2834 4195 
Q 3222 3778 3234 2709 
L 3234 1944 
z
M 2653 2734 
Q 2653 3503 2434 3822 
Q 2216 4141 1794 4141 
Q 1388 4141 1167 3831 
Q 947 3522 941 2778 
L 941 1850 
Q 941 1088 1164 750 
Q 1388 413 1800 413 
Q 2222 413 2436 745 
Q 2650 1078 2653 1825 
L 2653 2734 
z
" transform="scale(0.015625)"/>
       </defs>
       <use xlink:href="#Roboto-Regular-30"/>
      </g>
     </g>
    </g>
    <g id="xtick_2">
     <g id="line2d_4">
      <g>
       <use xlink:href="#m28d00208e3" x="76.139833" y="180.016" style="fill: #c2c1c1; stroke: #c2c1c1; stroke-width: 0.8"/>
      </g>
     </g>
     <g id="text_2">
      <!-- 60 -->
      <g style="fill: #191919" transform="translate(71.643583 193.016) scale(0.08 -0.08)">
       <defs>
        <path id="Roboto-Regular-36" d="M 3291 1484 
Q 3291 838 2930 387 
Q 2569 -63 1878 -63 
Q 1388 -63 1063 198 
Q 738 459 577 861 
Q 416 1263 416 1684 
L 416 1956 
Q 416 2597 595 3194 
Q 775 3791 1247 4173 
Q 1719 4556 2597 4556 
L 2647 4556 
L 2647 4066 
Q 2041 4066 1705 3853 
Q 1369 3641 1205 3302 
Q 1041 2963 1006 2575 
Q 1369 2984 1984 2984 
Q 2438 2984 2727 2765 
Q 3016 2547 3153 2201 
Q 3291 1856 3291 1484 
z
M 997 1666 
Q 997 1059 1267 737 
Q 1538 416 1878 416 
Q 2278 416 2498 708 
Q 2719 1000 2719 1456 
Q 2719 1863 2516 2184 
Q 2313 2506 1891 2506 
Q 1588 2506 1341 2325 
Q 1094 2144 997 1884 
L 997 1666 
z
" transform="scale(0.015625)"/>
       </defs>
       <use xlink:href="#Roboto-Regular-36"/>
       <use xlink:href="#Roboto-Regular-30" x="56.201172"/>
      </g>
     </g>
    </g>
    <g id="xtick_3">
     <g id="line2d_5">
      <g>
       <use xlink:href="#m28d00208e3" x="109.320667" y="180.016" style="fill: #c2c1c1; stroke: #c2c1c1; stroke-width: 0.8"/>
      </g>
     </g>
     <g id="text_3">
      <!-- 120 -->
      <g style="fill: #191919" transform="translate(102.576292 193.016) scale(0.08 -0.08)">
       <defs>
        <path id="Roboto-Regular-31" d="M 2278 4575 
L 2278 0 
L 1700 0 
L 1700 3853 
L 534 3428 
L 534 3950 
L 2188 4575 
L 2278 4575 
z
" transform="scale(0.015625)"/>
        <path id="Roboto-Regular-32" d="M 3359 475 
L 3359 0 
L 381 0 
L 381 416 
L 1925 2134 
Q 2306 2566 2439 2819 
Q 2572 3072 2572 3328 
Q 2572 3663 2364 3900 
Q 2156 4138 1778 4138 
Q 1322 4138 1097 3878 
Q 872 3619 872 3213 
L 294 3213 
Q 294 3788 672 4200 
Q 1050 4613 1778 4613 
Q 2422 4613 2786 4278 
Q 3150 3944 3150 3397 
Q 3150 2997 2903 2592 
Q 2656 2188 2297 1797 
L 1078 475 
L 3359 475 
z
" transform="scale(0.015625)"/>
       </defs>
       <use xlink:href="#Roboto-Regular-31"/>
       <use xlink:href="#Roboto-Regular-32" x="56.201172"/>
       <use xlink:href="#Roboto-Regular-30" x="112.402344"/>
      </g>
     </g>
    </g>
    <g id="xtick_4">
     <g id="line2d_6">
      <g>
       <use xlink:href="#m28d00208e3" x="142.5015" y="180.016" style="fill: #c2c1c1; stroke: #c2c1c1; stroke-width: 0.8"/>
      </g>
     </g>
     <g id="text_4">
      <!-- 180 -->
      <g style="fill: #191919" transform="translate(135.757125 193.016) scale(0.08 -0.08)">
       <defs>
        <path id="Roboto-Regular-38" d="M 3244 1231 
Q 3244 606 2826 271 
Q 2409 -63 1796 -63 
Q 1184 -63 767 271 
Q 350 606 350 1231 
Q 350 1613 554 1905 
Q 759 2197 1109 2347 
Q 806 2494 629 2762 
Q 453 3031 453 3366 
Q 453 3963 833 4288 
Q 1213 4613 1794 4613 
Q 2378 4613 2758 4288 
Q 3138 3963 3138 3366 
Q 3138 3028 2956 2761 
Q 2775 2494 2472 2347 
Q 2825 2197 3034 1903 
Q 3244 1609 3244 1231 
z
M 2559 3356 
Q 2559 3697 2346 3917 
Q 2134 4138 1793 4138 
Q 1453 4138 1243 3927 
Q 1034 3716 1034 3356 
Q 1034 3003 1243 2790 
Q 1453 2578 1797 2578 
Q 2138 2578 2348 2790 
Q 2559 3003 2559 3356 
z
M 2663 1244 
Q 2663 1625 2420 1865 
Q 2178 2106 1791 2106 
Q 1394 2106 1161 1865 
Q 928 1625 928 1244 
Q 928 850 1161 631 
Q 1394 413 1797 413 
Q 2200 413 2431 631 
Q 2663 850 2663 1244 
z
" transform="scale(0.015625)"/>
       </defs>
       <use xlink:href="#Roboto-Regular-31"/>
       <use xlink:href="#Roboto-Regular-38" x="56.201172"/>
       <use xlink:href="#Roboto-Regular-30" x="112.402344"/>
      </g>
     </g>
    </g>
    <g id="xtick_5">
     <g id="line2d_7">
      <g>
       <use xlink:href="#m28d00208e3" x="175.682333" y="180.016" style="fill: #c2c1c1; stroke: #c2c1c1; stroke-width: 0.8"/>
      </g>
     </g>
     <g id="text_5">
      <!-- 240 -->
      <g style="fill: #191919" transform="translate(168.937958 193.016) scale(0.08 -0.08)">
       <defs>
        <path id="Roboto-Regular-34" d="M 166 1397 
L 2203 4550 
L 2819 4550 
L 2819 1531 
L 3453 1531 
L 3453 1056 
L 2819 1056 
L 2819 0 
L 2241 0 
L 2241 1056 
L 166 1056 
L 166 1397 
z
M 822 1531 
L 2241 1531 
L 2241 3766 
L 2169 3638 
L 822 1531 
z
" transform="scale(0.015625)"/>
       </defs>
       <use xlink:href="#Roboto-Regular-32"/>
       <use xlink:href="#Roboto-Regular-34" x="56.201172"/>
       <use xlink:href="#Roboto-Regular-30" x="112.402344"/>
      </g>
     </g>
    </g>
    <g id="xtick_6">
     <g id="line2d_8">
      <g>
       <use xlink:href="#m28d00208e3" x="208.863167" y="180.016" style="fill: #c2c1c1; stroke: #c2c1c1; stroke-width: 0.8"/>
      </g>
     </g>
     <g id="text_6">
      <!-- 300 -->
      <g style="fill: #191919" transform="translate(202.118792 193.016) scale(0.08 -0.08)">
       <defs>
        <path id="Roboto-Regular-33" d="M 1222 2084 
L 1222 2559 
L 1647 2559 
Q 2094 2563 2312 2784 
Q 2531 3006 2531 3338 
Q 2531 4138 1738 4138 
Q 1369 4138 1141 3927 
Q 913 3716 913 3359 
L 334 3359 
Q 334 3881 720 4247 
Q 1106 4613 1738 4613 
Q 2353 4613 2733 4286 
Q 3113 3959 3113 3325 
Q 3113 3072 2942 2784 
Q 2772 2497 2397 2338 
Q 2850 2191 3015 1884 
Q 3181 1578 3181 1269 
Q 3181 631 2768 284 
Q 2356 -63 1741 -63 
Q 1147 -63 722 267 
Q 297 597 297 1203 
L 875 1203 
Q 875 844 1108 628 
Q 1341 413 1741 413 
Q 2138 413 2369 622 
Q 2600 831 2600 1256 
Q 2600 1681 2337 1882 
Q 2075 2084 1634 2084 
L 1222 2084 
z
" transform="scale(0.015625)"/>
       </defs>
       <use xlink:href="#Roboto-Regular-33"/>
       <use xlink:href="#Roboto-Regular-30" x="56.201172"/>
       <use xlink:href="#Roboto-Regular-30" x="112.402344"/>
      </g>
     </g>
    </g>
    <g id="xtick_7">
     <g id="line2d_9">
      <g>
       <use xlink:href="#m28d00208e3" x="242.044" y="180.016" style="fill: #c2c1c1; stroke: #c2c1c1; stroke-width: 0.8"/>
      </g>
     </g>
     <g id="text_7">
      <!-- 360 -->
      <g style="fill: #191919" transform="translate(235.299625 193.016) scale(0.08 -0.08)">
       <use xlink:href="#Roboto-Regular-33"/>
       <use xlink:href="#Roboto-Regular-36" x="56.201172"/>
       <use xlink:href="#Roboto-Regular-30" x="112.402344"/>
      </g>
     </g>
    </g>
    <g id="text_8">
     <!-- Glu222 $\chi$ [deg.] -->
     <g style="fill: #191919" transform="translate(115.1015 205.281) scale(0.08 -0.08)">
      <defs>
       <path id="Roboto-Bold-47" d="M 4009 2391 
L 4009 575 
Q 3847 381 3433 159 
Q 3019 -63 2269 -63 
Q 1384 -63 839 510 
Q 294 1084 294 2138 
L 294 2409 
Q 294 3463 816 4039 
Q 1338 4616 2203 4616 
Q 3088 4616 3509 4191 
Q 3931 3766 4006 3103 
L 3094 3103 
Q 3041 3447 2847 3653 
Q 2653 3859 2228 3859 
Q 1306 3859 1250 2584 
L 1247 2138 
Q 1247 1419 1514 1056 
Q 1781 694 2319 694 
Q 2656 694 2825 770 
Q 2994 847 3069 919 
L 3069 1703 
L 2219 1703 
L 2219 2391 
L 4009 2391 
z
" transform="scale(0.015625)"/>
       <path id="Roboto-Bold-6c" d="M 1303 4800 
L 1303 0 
L 397 0 
L 397 4800 
L 1303 4800 
z
" transform="scale(0.015625)"/>
       <path id="Roboto-Bold-75" d="M 2400 0 
L 2375 347 
Q 2044 -63 1450 -63 
Q 953 -63 642 228 
Q 331 519 328 1181 
L 328 3381 
L 1231 3381 
L 1231 1188 
Q 1231 906 1365 789 
Q 1500 672 1709 672 
Q 2169 672 2344 994 
L 2344 3381 
L 3250 3381 
L 3250 0 
L 2400 0 
z
" transform="scale(0.015625)"/>
       <path id="Roboto-Bold-32" d="M 3428 728 
L 3428 0 
L 313 0 
L 313 619 
L 1784 2188 
Q 2116 2553 2245 2792 
Q 2375 3031 2375 3234 
Q 2375 3538 2223 3713 
Q 2072 3888 1788 3888 
Q 1466 3888 1295 3669 
Q 1125 3450 1125 3119 
L 222 3119 
Q 222 3734 645 4175 
Q 1069 4616 1803 4616 
Q 2519 4616 2900 4270 
Q 3281 3925 3281 3325 
Q 3281 2875 3014 2470 
Q 2747 2066 2284 1581 
L 1472 728 
L 3428 728 
z
" transform="scale(0.015625)"/>
       <path id="Roboto-Bold-20" transform="scale(0.015625)"/>
       <path id="DejaVuSans-Oblique-3c7" d="M 1922 -781 
L 1691 416 
L 394 -1334 
L -284 -1334 
L 1553 1141 
L 1269 2613 
Q 1194 3006 713 3006 
L 559 3006 
L 653 3500 
L 872 3494 
Q 1675 3472 1775 2950 
L 2006 1753 
L 3303 3503 
L 3981 3503 
L 2144 1028 
L 2428 -444 
Q 2503 -838 2984 -838 
L 3138 -838 
L 3044 -1331 
L 2825 -1325 
Q 2022 -1303 1922 -781 
z
" transform="scale(0.015625)"/>
       <path id="Roboto-Bold-5b" d="M 1728 5297 
L 1728 4600 
L 1281 4600 
L 1281 -366 
L 1728 -366 
L 1728 -1059 
L 375 -1059 
L 375 5297 
L 1728 5297 
z
" transform="scale(0.015625)"/>
       <path id="Roboto-Bold-64" d="M 2438 0 
L 2394 359 
Q 2059 -63 1528 -63 
Q 900 -63 553 425 
Q 206 913 206 1650 
L 206 1716 
Q 206 2488 553 2966 
Q 900 3444 1534 3444 
Q 2028 3444 2347 3078 
L 2347 4800 
L 3253 4800 
L 3253 0 
L 2438 0 
z
M 1113 1650 
Q 1113 1244 1256 958 
Q 1400 672 1756 672 
Q 2169 672 2347 1022 
L 2347 2363 
Q 2175 2713 1763 2713 
Q 1409 2713 1261 2425 
Q 1113 2138 1113 1650 
z
" transform="scale(0.015625)"/>
       <path id="Roboto-Bold-65" d="M 3225 550 
Q 3063 319 2731 128 
Q 2400 -63 1906 -63 
Q 1119 -63 675 414 
Q 231 891 228 1566 
L 228 1697 
Q 228 2463 654 2953 
Q 1081 3444 1806 3444 
Q 2534 3444 2915 2987 
Q 3297 2531 3297 1781 
L 3297 1397 
L 1144 1397 
Q 1191 1069 1403 867 
Q 1616 666 1963 666 
Q 2478 666 2778 1044 
L 3225 550 
z
M 1800 2716 
Q 1513 2716 1356 2522 
Q 1200 2328 1153 2016 
L 2409 2016 
L 2409 2084 
Q 2403 2356 2258 2536 
Q 2113 2716 1800 2716 
z
" transform="scale(0.015625)"/>
       <path id="Roboto-Bold-67" d="M 1681 -1331 
Q 1375 -1331 1008 -1203 
Q 641 -1075 422 -803 
L 822 -253 
Q 1156 -628 1644 -628 
Q 2003 -628 2203 -436 
Q 2403 -244 2403 113 
L 2403 294 
Q 2084 -63 1581 -63 
Q 953 -63 587 418 
Q 222 900 216 1625 
L 216 1716 
Q 216 2488 583 2966 
Q 950 3444 1588 3444 
Q 2147 3444 2456 3063 
L 2491 3381 
L 3309 3381 
L 3309 116 
Q 3309 -581 2857 -956 
Q 2406 -1331 1681 -1331 
z
M 1119 1650 
Q 1119 1244 1286 958 
Q 1453 672 1809 672 
Q 2222 672 2403 984 
L 2403 2403 
Q 2225 2713 1816 2713 
Q 1463 2713 1291 2423 
Q 1119 2134 1119 1716 
L 1119 1650 
z
" transform="scale(0.015625)"/>
       <path id="Roboto-Bold-2e" d="M 394 447 
Q 394 653 533 792 
Q 672 931 906 931 
Q 1141 931 1278 792 
Q 1416 653 1416 447 
Q 1416 244 1278 105 
Q 1141 -34 906 -34 
Q 672 -34 533 105 
Q 394 244 394 447 
z
" transform="scale(0.015625)"/>
       <path id="Roboto-Bold-5d" d="M 41 4600 
L 41 5297 
L 1394 5297 
L 1394 -1059 
L 41 -1059 
L 41 -366 
L 491 -366 
L 491 4600 
L 41 4600 
z
" transform="scale(0.015625)"/>
      </defs>
      <use xlink:href="#Roboto-Bold-47" transform="translate(0 0.234375)"/>
      <use xlink:href="#Roboto-Bold-6c" transform="translate(68.115234 0.234375)"/>
      <use xlink:href="#Roboto-Bold-75" transform="translate(94.628906 0.234375)"/>
      <use xlink:href="#Roboto-Bold-32" transform="translate(150.634766 0.234375)"/>
      <use xlink:href="#Roboto-Bold-32" transform="translate(208.007812 0.234375)"/>
      <use xlink:href="#Roboto-Bold-32" transform="translate(265.380859 0.234375)"/>
      <use xlink:href="#Roboto-Bold-20" transform="translate(322.753906 0.234375)"/>
      <use xlink:href="#DejaVuSans-Oblique-3c7" transform="translate(347.65625 0.234375)"/>
      <use xlink:href="#Roboto-Bold-20" transform="translate(406.835938 0.234375)"/>
      <use xlink:href="#Roboto-Bold-5b" transform="translate(431.738281 0.234375)"/>
      <use xlink:href="#Roboto-Bold-64" transform="translate(459.570312 0.234375)"/>
      <use xlink:href="#Roboto-Bold-65" transform="translate(515.966797 0.234375)"/>
      <use xlink:href="#Roboto-Bold-67" transform="translate(570.019531 0.234375)"/>
      <use xlink:href="#Roboto-Bold-2e" transform="translate(627.148438 0.234375)"/>
      <use xlink:href="#Roboto-Bold-5d" transform="translate(656.25 0.234375)"/>
     </g>
    </g>
   </g>
   <g id="matplotlib.axis_2">
    <g id="ytick_1">
     <g id="line2d_10">
      <defs>
       <path id="mda60991e90" d="M 0 0 
L -3.5 0 
" style="stroke: #c2c1c1; stroke-width: 0.8"/>
      </defs>
      <g>
       <use xlink:href="#mda60991e90" x="42.959" y="180.016" style="fill: #c2c1c1; stroke: #c2c1c1; stroke-width: 0.8"/>
      </g>
     </g>
     <g id="text_9">
      <!-- 0.00 -->
      <g style="fill: #191919" transform="translate(20.36025 183.016) scale(0.08 -0.08)">
       <defs>
        <path id="Roboto-Regular-2e" d="M 450 306 
Q 450 453 542 554 
Q 634 656 809 656 
Q 984 656 1076 554 
Q 1169 453 1169 306 
Q 1169 163 1076 62 
Q 984 -38 809 -38 
Q 634 -38 542 62 
Q 450 163 450 306 
z
" transform="scale(0.015625)"/>
       </defs>
       <use xlink:href="#Roboto-Regular-30"/>
       <use xlink:href="#Roboto-Regular-2e" x="56.201172"/>
       <use xlink:href="#Roboto-Regular-30" x="82.568359"/>
       <use xlink:href="#Roboto-Regular-30" x="138.769531"/>
      </g>
     </g>
    </g>
    <g id="ytick_2">
     <g id="line2d_11">
      <g>
       <use xlink:href="#mda60991e90" x="42.959" y="144.099764" style="fill: #c2c1c1; stroke: #c2c1c1; stroke-width: 0.8"/>
      </g>
     </g>
     <g id="text_10">
      <!-- 0.01 -->
      <g style="fill: #191919" transform="translate(20.36025 147.099764) scale(0.08 -0.08)">
       <use xlink:href="#Roboto-Regular-30"/>
       <use xlink:href="#Roboto-Regular-2e" x="56.201172"/>
       <use xlink:href="#Roboto-Regular-30" x="82.568359"/>
       <use xlink:href="#Roboto-Regular-31" x="138.769531"/>
      </g>
     </g>
    </g>
    <g id="ytick_3">
     <g id="line2d_12">
      <g>
       <use xlink:href="#mda60991e90" x="42.959" y="108.183528" style="fill: #c2c1c1; stroke: #c2c1c1; stroke-width: 0.8"/>
      </g>
     </g>
     <g id="text_11">
      <!-- 0.02 -->
      <g style="fill: #191919" transform="translate(20.36025 111.183528) scale(0.08 -0.08)">
       <use xlink:href="#Roboto-Regular-30"/>
       <use xlink:href="#Roboto-Regular-2e" x="56.201172"/>
       <use xlink:href="#Roboto-Regular-30" x="82.568359"/>
       <use xlink:href="#Roboto-Regular-32" x="138.769531"/>
      </g>
     </g>
    </g>
    <g id="ytick_4">
     <g id="line2d_13">
      <g>
       <use xlink:href="#mda60991e90" x="42.959" y="72.267293" style="fill: #c2c1c1; stroke: #c2c1c1; stroke-width: 0.8"/>
      </g>
     </g>
     <g id="text_12">
      <!-- 0.03 -->
      <g style="fill: #191919" transform="translate(20.36025 75.267293) scale(0.08 -0.08)">
       <use xlink:href="#Roboto-Regular-30"/>
       <use xlink:href="#Roboto-Regular-2e" x="56.201172"/>
       <use xlink:href="#Roboto-Regular-30" x="82.568359"/>
       <use xlink:href="#Roboto-Regular-33" x="138.769531"/>
      </g>
     </g>
    </g>
    <g id="ytick_5">
     <g id="line2d_14">
      <g>
       <use xlink:href="#mda60991e90" x="42.959" y="36.351057" style="fill: #c2c1c1; stroke: #c2c1c1; stroke-width: 0.8"/>
      </g>
     </g>
     <g id="text_13">
      <!-- 0.04 -->
      <g style="fill: #191919" transform="translate(20.36025 39.351057) scale(0.08 -0.08)">
       <use xlink:href="#Roboto-Regular-30"/>
       <use xlink:href="#Roboto-Regular-2e" x="56.201172"/>
       <use xlink:href="#Roboto-Regular-30" x="82.568359"/>
       <use xlink:href="#Roboto-Regular-34" x="138.769531"/>
      </g>
     </g>
    </g>
    <g id="text_14">
     <!-- Density -->
     <g style="fill: #191919" transform="translate(14.65275 107.813) rotate(-90) scale(0.08 -0.08)">
      <defs>
       <path id="Roboto-Bold-44" d="M 406 0 
L 406 4550 
L 1809 4550 
Q 2728 4550 3308 3950 
Q 3888 3350 3888 2375 
L 3888 2172 
Q 3888 1197 3308 598 
Q 2728 0 1797 0 
L 406 0 
z
M 1347 3791 
L 1347 756 
L 1797 756 
Q 2350 756 2639 1115 
Q 2928 1475 2934 2144 
L 2934 2381 
Q 2934 3075 2661 3428 
Q 2388 3781 1838 3791 
L 1347 3791 
z
" transform="scale(0.015625)"/>
       <path id="Roboto-Bold-6e" d="M 1806 2713 
Q 1422 2713 1234 2388 
L 1234 0 
L 331 0 
L 331 3381 
L 1178 3381 
L 1209 2994 
Q 1572 3444 2181 3444 
Q 2659 3444 2953 3159 
Q 3247 2875 3250 2169 
L 3250 0 
L 2344 0 
L 2344 2156 
Q 2344 2481 2205 2597 
Q 2066 2713 1806 2713 
z
" transform="scale(0.015625)"/>
       <path id="Roboto-Bold-73" d="M 2178 938 
Q 2178 1081 2045 1179 
Q 1913 1278 1475 1372 
Q 953 1484 618 1721 
Q 284 1959 284 2394 
Q 284 2816 642 3130 
Q 1000 3444 1631 3444 
Q 2291 3444 2669 3134 
Q 3047 2825 3047 2353 
L 2144 2353 
Q 2144 2547 2019 2675 
Q 1894 2803 1628 2803 
Q 1403 2803 1276 2698 
Q 1150 2594 1150 2438 
Q 1150 2294 1284 2200 
Q 1419 2106 1781 2034 
Q 2331 1925 2693 1700 
Q 3056 1475 3056 972 
Q 3056 525 2672 231 
Q 2288 -63 1634 -63 
Q 925 -63 550 301 
Q 175 666 175 1078 
L 1034 1078 
Q 1047 813 1230 697 
Q 1413 581 1653 581 
Q 2178 581 2178 938 
z
" transform="scale(0.015625)"/>
       <path id="Roboto-Bold-69" d="M 341 4256 
Q 341 4459 478 4592 
Q 616 4725 847 4725 
Q 1078 4725 1215 4592 
Q 1353 4459 1353 4256 
Q 1353 4056 1215 3923 
Q 1078 3791 847 3791 
Q 616 3791 478 3923 
Q 341 4056 341 4256 
z
M 1303 3381 
L 1303 0 
L 397 0 
L 397 3381 
L 1303 3381 
z
" transform="scale(0.015625)"/>
       <path id="Roboto-Bold-74" d="M 2041 22 
Q 1788 -63 1497 -63 
Q 1053 -63 790 168 
Q 528 400 528 938 
L 528 2722 
L 31 2722 
L 31 3381 
L 528 3381 
L 528 4216 
L 1431 4216 
L 1431 3381 
L 2006 3381 
L 2006 2722 
L 1431 2722 
L 1431 1031 
Q 1431 819 1518 750 
Q 1606 681 1778 681 
Q 1916 681 2041 706 
L 2041 22 
z
" transform="scale(0.015625)"/>
       <path id="Roboto-Bold-79" d="M 769 -1366 
Q 594 -1366 369 -1306 
L 369 -622 
L 509 -625 
Q 775 -625 903 -539 
Q 1031 -453 1097 -266 
L 1197 -6 
L 13 3381 
L 984 3381 
L 1613 1275 
L 2238 3381 
L 3203 3381 
L 1850 -506 
Q 1791 -675 1675 -876 
Q 1559 -1078 1342 -1222 
Q 1125 -1366 769 -1366 
z
" transform="scale(0.015625)"/>
      </defs>
      <use xlink:href="#Roboto-Bold-44"/>
      <use xlink:href="#Roboto-Bold-65" x="65.039062"/>
      <use xlink:href="#Roboto-Bold-6e" x="119.091797"/>
      <use xlink:href="#Roboto-Bold-73" x="175.097656"/>
      <use xlink:href="#Roboto-Bold-69" x="226.5625"/>
      <use xlink:href="#Roboto-Bold-74" x="253.076172"/>
      <use xlink:href="#Roboto-Bold-79" x="286.865234"/>
     </g>
    </g>
   </g>
   <g id="line2d_15">
    <path d="M 42.959 180.016 
L 63.448972 179.91427 
L 65.940996 179.920919 
L 68.433019 179.928191 
L 70.094369 179.841421 
L 71.478826 179.74261 
L 72.309501 179.551588 
L 73.693958 179.458866 
L 75.078416 179.364893 
L 76.462873 179.103015 
L 79.231789 178.888038 
L 79.785572 178.845558 
L 80.893138 178.669798 
L 82.277595 178.920734 
L 82.831378 178.844251 
L 85.877185 179.306073 
L 87.261643 179.407019 
L 88.922992 179.693061 
L 89.753666 179.615604 
L 91.415015 179.87152 
L 94.18393 179.948878 
L 97.229737 180.010057 
L 111.628096 179.992014 
L 114.397011 179.992287 
L 116.335252 179.951767 
L 117.719709 179.830223 
L 118.827275 179.735601 
L 119.381058 179.65894 
L 120.488624 179.642672 
L 121.596191 179.307468 
L 122.149974 179.240155 
L 122.703757 178.886154 
L 123.534431 178.201535 
L 124.088214 177.977616 
L 124.365106 177.65969 
L 125.749563 175.43183 
L 126.026455 175.014743 
L 126.580238 173.519478 
L 128.241587 167.711086 
L 129.349153 161.783137 
L 130.179828 156.046343 
L 131.287394 145.682218 
L 133.779417 115.237762 
L 134.886983 97.505303 
L 136.548332 76.624904 
L 137.102115 71.006802 
L 138.209682 54.638834 
L 138.763465 51.071107 
L 139.040356 50.130466 
L 139.594139 49.352632 
L 140.147922 48.039074 
L 140.424814 48.146843 
L 140.701705 48.570388 
L 140.978597 48.496112 
L 141.255488 48.05445 
L 141.53238 48.596793 
L 142.086163 53.970003 
L 142.916837 62.499856 
L 144.024403 72.152449 
L 144.578186 79.725519 
L 145.962644 100.688632 
L 148.177776 127.822794 
L 149.839125 146.081166 
L 150.6698 152.875979 
L 152.331149 163.55631 
L 153.161823 167.231076 
L 153.992498 170.058881 
L 155.100064 173.036604 
L 156.20763 175.240013 
L 156.761413 176.057703 
L 158.145871 177.512472 
L 158.976545 177.847227 
L 159.80722 178.585202 
L 160.637894 179.006092 
L 161.191677 179.159652 
L 162.022352 179.24512 
L 162.853026 179.517951 
L 164.514376 179.610626 
L 166.175725 179.877369 
L 168.94464 179.866603 
L 170.329097 179.905516 
L 172.267338 179.841141 
L 175.590036 179.939528 
L 178.08206 179.849409 
L 179.189626 179.879824 
L 184.727456 179.617841 
L 185.558131 179.490613 
L 186.665697 179.414714 
L 187.21948 179.305397 
L 188.603937 179.31623 
L 189.15772 179.086296 
L 189.711503 178.83241 
L 190.81907 178.793596 
L 191.649744 178.578668 
L 192.203527 178.601776 
L 194.418659 178.080191 
L 195.249334 177.543568 
L 196.3569 177.393957 
L 197.187574 176.880389 
L 198.018249 176.434948 
L 198.848924 176.482151 
L 200.787164 176.060989 
L 201.340947 176.185137 
L 201.89473 176.045784 
L 202.448513 175.855549 
L 203.002296 176.117108 
L 203.279188 176.2785 
L 203.556079 176.302204 
L 204.109862 175.983026 
L 204.386754 175.808167 
L 204.940537 175.829314 
L 205.771211 175.886993 
L 206.878777 176.508972 
L 207.432561 176.601603 
L 207.709452 176.578974 
L 208.263235 176.883192 
L 209.09391 177.431318 
L 210.478367 177.491099 
L 211.309042 177.7201 
L 211.862825 177.684917 
L 213.247282 178.078546 
L 213.801065 178.056862 
L 214.354848 178.287215 
L 215.185523 178.692095 
L 216.293089 178.945805 
L 220.16957 179.530078 
L 221.000245 179.655282 
L 221.830919 179.808235 
L 223.492268 179.860182 
L 224.322943 179.937159 
L 227.922533 179.951719 
L 234.291038 180.000667 
L 242.044 180.016 
L 242.044 180.016 
" clip-path="url(#p315b2a89b6)" style="fill: none; stroke: #f99752; stroke-width: 1.5; stroke-linecap: square"/>
   </g>
   <g id="patch_3">
    <path d="M 42.959 180.016 
L 42.959 8.64 
" style="fill: none; stroke: #c2c1c1; stroke-width: 0.8; stroke-linejoin: miter; stroke-linecap: square"/>
   </g>
   <g id="patch_4">
    <path d="M 242.044 180.016 
L 242.044 8.64 
" style="fill: none; stroke: #c2c1c1; stroke-width: 0.8; stroke-linejoin: miter; stroke-linecap: square"/>
   </g>
   <g id="patch_5">
    <path d="M 42.959 180.016 
L 242.044 180.016 
" style="fill: none; stroke: #c2c1c1; stroke-width: 0.8; stroke-linejoin: miter; stroke-linecap: square"/>
   </g>
   <g id="patch_6">
    <path d="M 42.959 8.64 
L 242.044 8.64 
" style="fill: none; stroke: #c2c1c1; stroke-width: 0.8; stroke-linejoin: miter; stroke-linecap: square"/>
   </g>
   <g id="legend_1">
    <g id="line2d_16">
     <path d="M 181.409 19.04 
L 189.409 19.04 
L 197.409 19.04 
" style="fill: none; stroke: #1e2e79; stroke-width: 1.5; stroke-linecap: square"/>
    </g>
    <g id="text_15">
     <!-- Reduced -->
     <g transform="translate(203.809 21.84) scale(0.08 -0.08)">
      <defs>
       <path id="Roboto-Regular-52" d="M 3188 0 
L 2200 1844 
L 1131 1844 
L 1131 0 
L 528 0 
L 528 4550 
L 2034 4550 
Q 2800 4550 3214 4200 
Q 3628 3850 3628 3184 
Q 3628 2759 3398 2442 
Q 3169 2125 2763 1969 
L 3831 38 
L 3831 0 
L 3188 0 
z
M 1131 4056 
L 1131 2334 
L 2053 2334 
Q 2538 2334 2783 2582 
Q 3028 2831 3028 3184 
Q 3028 3578 2792 3817 
Q 2556 4056 2034 4056 
L 1131 4056 
z
" transform="scale(0.015625)"/>
       <path id="Roboto-Regular-65" d="M 3116 591 
Q 2950 341 2647 139 
Q 2344 -63 1844 -63 
Q 1138 -63 714 396 
Q 291 856 291 1572 
L 291 1703 
Q 291 2256 502 2645 
Q 713 3034 1050 3239 
Q 1388 3444 1769 3444 
Q 2494 3444 2826 2970 
Q 3159 2497 3159 1788 
L 3159 1528 
L 872 1528 
Q 884 1063 1148 736 
Q 1413 409 1875 409 
Q 2181 409 2393 534 
Q 2606 659 2766 869 
L 3116 591 
z
M 1769 2969 
Q 1425 2969 1187 2719 
Q 950 2469 891 2000 
L 2581 2000 
L 2581 2044 
Q 2559 2381 2386 2675 
Q 2213 2969 1769 2969 
z
" transform="scale(0.015625)"/>
       <path id="Roboto-Regular-64" d="M 2622 0 
L 2594 363 
Q 2247 -63 1628 -63 
Q 1034 -63 668 418 
Q 303 900 297 1628 
L 297 1719 
Q 297 2494 664 2969 
Q 1031 3444 1634 3444 
Q 2231 3444 2572 3044 
L 2572 4800 
L 3153 4800 
L 3153 0 
L 2622 0 
z
M 878 1653 
Q 878 1150 1090 789 
Q 1303 428 1772 428 
Q 2309 428 2572 919 
L 2572 2475 
Q 2313 2956 1778 2956 
Q 1306 2956 1092 2589 
Q 878 2222 878 1719 
L 878 1653 
z
" transform="scale(0.015625)"/>
       <path id="Roboto-Regular-75" d="M 2538 0 
L 2525 334 
Q 2194 -63 1538 -63 
Q 1041 -63 734 231 
Q 428 525 428 1200 
L 428 3381 
L 1006 3381 
L 1006 1194 
Q 1006 738 1198 583 
Q 1391 428 1628 428 
Q 2281 428 2509 919 
L 2509 3381 
L 3091 3381 
L 3091 0 
L 2538 0 
z
" transform="scale(0.015625)"/>
       <path id="Roboto-Regular-63" d="M 1794 413 
Q 2103 413 2336 597 
Q 2569 781 2591 1069 
L 3141 1069 
Q 3119 616 2725 276 
Q 2331 -63 1794 -63 
Q 1031 -63 661 440 
Q 291 944 291 1625 
L 291 1756 
Q 291 2438 661 2941 
Q 1031 3444 1794 3444 
Q 2388 3444 2753 3092 
Q 3119 2741 3141 2219 
L 2591 2219 
Q 2569 2531 2355 2750 
Q 2141 2969 1794 2969 
Q 1438 2969 1236 2787 
Q 1034 2606 951 2328 
Q 869 2050 869 1756 
L 869 1625 
Q 869 1328 950 1050 
Q 1031 772 1232 592 
Q 1434 413 1794 413 
z
" transform="scale(0.015625)"/>
      </defs>
      <use xlink:href="#Roboto-Regular-52"/>
      <use xlink:href="#Roboto-Regular-65" x="61.621094"/>
      <use xlink:href="#Roboto-Regular-64" x="114.648438"/>
      <use xlink:href="#Roboto-Regular-75" x="171.044922"/>
      <use xlink:href="#Roboto-Regular-63" x="226.171875"/>
      <use xlink:href="#Roboto-Regular-65" x="278.515625"/>
      <use xlink:href="#Roboto-Regular-64" x="331.542969"/>
     </g>
    </g>
    <g id="line2d_17">
     <path d="M 181.409 30.665 
L 189.409 30.665 
L 197.409 30.665 
" style="fill: none; stroke: #ec4067; stroke-width: 1.5; stroke-linecap: square"/>
    </g>
    <g id="text_16">
     <!-- Oxidized -->
     <g transform="translate(203.809 33.465) scale(0.08 -0.08)">
      <defs>
       <path id="Roboto-Regular-4f" d="M 4031 2131 
Q 4031 1106 3534 521 
Q 3038 -63 2206 -63 
Q 1397 -63 884 521 
Q 372 1106 372 2131 
L 372 2419 
Q 372 3441 881 4027 
Q 1391 4613 2200 4613 
Q 3025 4613 3523 4036 
Q 4022 3459 4031 2456 
L 4031 2131 
z
M 3434 2425 
Q 3434 3238 3109 3669 
Q 2784 4100 2200 4100 
Q 1641 4100 1305 3669 
Q 969 3238 969 2425 
L 969 2131 
Q 969 1313 1308 880 
Q 1647 447 2206 447 
Q 2794 447 3114 880 
Q 3434 1313 3434 2131 
L 3434 2425 
z
" transform="scale(0.015625)"/>
       <path id="Roboto-Regular-78" d="M 831 3381 
L 1572 2150 
L 2322 3381 
L 3000 3381 
L 1894 1713 
L 3034 0 
L 2366 0 
L 1584 1269 
L 803 0 
L 131 0 
L 1269 1713 
L 166 3381 
L 831 3381 
z
" transform="scale(0.015625)"/>
       <path id="Roboto-Regular-69" d="M 444 4278 
Q 444 4419 530 4516 
Q 616 4613 784 4613 
Q 950 4613 1039 4516 
Q 1128 4419 1128 4278 
Q 1128 4144 1039 4048 
Q 950 3953 784 3953 
Q 616 3953 530 4048 
Q 444 4144 444 4278 
z
M 1069 3381 
L 1069 0 
L 488 0 
L 488 3381 
L 1069 3381 
z
" transform="scale(0.015625)"/>
       <path id="Roboto-Regular-7a" d="M 303 2903 
L 303 3381 
L 2869 3381 
L 2869 2972 
L 988 475 
L 2959 475 
L 2959 0 
L 278 0 
L 278 425 
L 2141 2903 
L 303 2903 
z
" transform="scale(0.015625)"/>
      </defs>
      <use xlink:href="#Roboto-Regular-4f"/>
      <use xlink:href="#Roboto-Regular-78" x="68.798828"/>
      <use xlink:href="#Roboto-Regular-69" x="118.408203"/>
      <use xlink:href="#Roboto-Regular-64" x="142.724609"/>
      <use xlink:href="#Roboto-Regular-69" x="199.121094"/>
      <use xlink:href="#Roboto-Regular-7a" x="223.4375"/>
      <use xlink:href="#Roboto-Regular-65" x="273.046875"/>
      <use xlink:href="#Roboto-Regular-64" x="326.074219"/>
     </g>
    </g>
    <g id="line2d_18">
     <path d="M 181.409 42.7075 
L 189.409 42.7075 
L 197.409 42.7075 
" style="fill: none; stroke: #f99752; stroke-width: 1.5; stroke-linecap: square"/>
    </g>
    <g id="text_17">
     <!-- Cu(I) -->
     <g transform="translate(203.809 45.5075) scale(0.08 -0.08)">
      <defs>
       <path id="Roboto-Regular-43" d="M 3275 1447 
L 3875 1447 
Q 3806 800 3387 368 
Q 2969 -63 2150 -63 
Q 1356 -63 870 504 
Q 384 1072 375 2013 
L 375 2500 
Q 375 3456 867 4034 
Q 1359 4613 2203 4613 
Q 2975 4613 3390 4188 
Q 3806 3763 3875 3091 
L 3275 3091 
Q 3206 3566 2968 3842 
Q 2731 4119 2203 4119 
Q 1600 4119 1287 3675 
Q 975 3231 975 2506 
L 975 2047 
Q 975 1375 1259 901 
Q 1544 428 2150 428 
Q 2725 428 2961 697 
Q 3197 966 3275 1447 
z
" transform="scale(0.015625)"/>
       <path id="Roboto-Regular-28" d="M 419 1850 
Q 419 2756 678 3434 
Q 938 4113 1294 4541 
Q 1650 4969 1947 5134 
L 2069 4753 
Q 1700 4475 1348 3761 
Q 997 3047 997 1813 
Q 997 625 1348 -97 
Q 1700 -819 2069 -1119 
L 1947 -1469 
Q 1650 -1306 1294 -878 
Q 938 -450 678 226 
Q 419 903 419 1850 
z
" transform="scale(0.015625)"/>
       <path id="Roboto-Regular-49" d="M 1175 4550 
L 1175 0 
L 572 0 
L 572 4550 
L 1175 4550 
z
" transform="scale(0.015625)"/>
       <path id="Roboto-Regular-29" d="M 1772 1819 
Q 1772 906 1512 228 
Q 1253 -450 895 -878 
Q 538 -1306 244 -1469 
L 122 -1119 
Q 488 -841 841 -109 
Q 1194 622 1194 1856 
Q 1194 2647 1019 3236 
Q 844 3825 594 4212 
Q 344 4600 122 4781 
L 244 5134 
Q 538 4969 895 4541 
Q 1253 4113 1512 3436 
Q 1772 2759 1772 1819 
z
" transform="scale(0.015625)"/>
      </defs>
      <use xlink:href="#Roboto-Regular-43"/>
      <use xlink:href="#Roboto-Regular-75" x="65.087891"/>
      <use xlink:href="#Roboto-Regular-28" x="120.214844"/>
      <use xlink:href="#Roboto-Regular-49" x="154.443359"/>
      <use xlink:href="#Roboto-Regular-29" x="181.640625"/>
     </g>
    </g>
   </g>
  </g>
 </g>
 <defs>
  <clipPath id="p315b2a89b6">
   <rect x="42.959" y="8.64" width="199.085" height="171.376"/>
  </clipPath>
 </defs>
</svg>
