<?xml version="1.0" encoding="utf-8" standalone="no"?>
<!DOCTYPE svg PUBLIC "-//W3C//DTD SVG 1.1//EN"
  "http://www.w3.org/Graphics/SVG/1.1/DTD/svg11.dtd">
<svg xmlns:xlink="http://www.w3.org/1999/xlink" width="864pt" height="288pt" viewBox="0 0 864 288" xmlns="http://www.w3.org/2000/svg" version="1.1">
 <metadata>
  <rdf:RDF xmlns:dc="http://purl.org/dc/elements/1.1/" xmlns:cc="http://creativecommons.org/ns#" xmlns:rdf="http://www.w3.org/1999/02/22-rdf-syntax-ns#">
   <cc:Work>
    <dc:type rdf:resource="http://purl.org/dc/dcmitype/StillImage"/>
    <dc:date>2025-04-02T18:24:57.179086</dc:date>
    <dc:format>image/svg+xml</dc:format>
    <dc:creator>
     <cc:Agent>
      <dc:title>Matplotlib v3.10.1, https://matplotlib.org/</dc:title>
     </cc:Agent>
    </dc:creator>
   </cc:Work>
  </rdf:RDF>
 </metadata>
 <defs>
  <style type="text/css">*{stroke-linejoin: round; stroke-linecap: butt}</style>
 </defs>
 <g id="figure_1">
  <g id="patch_1">
   <path d="M 0 288 
L 864 288 
L 864 0 
L 0 0 
z
" style="fill: #ffffff"/>
  </g>
  <g id="axes_1">
   <g id="patch_2">
    <path d="M 256.260076 124.171184 
Q 255.79945 79.274531 220.114782 53.478674 
" clip-path="url(#pac9f2375af)" style="fill: none; stroke: #000000; stroke-width: 0.774878; stroke-linecap: round"/>
    <path d="M 222.155755 57.38728 
L 220.114782 53.478674 
L 224.46625 54.191059 
" clip-path="url(#pac9f2375af)" style="fill: none; stroke: #000000; stroke-width: 0.774878; stroke-linecap: round"/>
   </g>
   <g id="patch_3">
    <path d="M 211.975603 56.817047 
Q 212.420474 100.178002 245.112291 125.227765 
" clip-path="url(#pac9f2375af)" style="fill: none; stroke: #000000; stroke-width: 1.423737; stroke-linecap: round"/>
    <path d="M 242.876113 120.637673 
L 245.112291 125.227765 
L 240.098511 124.262652 
" clip-path="url(#pac9f2375af)" style="fill: none; stroke: #000000; stroke-width: 1.423737; stroke-linecap: round"/>
   </g>
   <g id="patch_4">
    <path d="M 205.675991 42.480136 
Q 170.287087 13.823103 128.699358 23.120031 
" clip-path="url(#pac9f2375af)" style="fill: none; stroke: #000000; stroke-width: 1.791496; stroke-linecap: round"/>
    <path d="M 134.037353 24.447359 
L 128.699358 23.120031 
L 132.964018 19.646032 
" clip-path="url(#pac9f2375af)" style="fill: none; stroke: #000000; stroke-width: 1.791496; stroke-linecap: round"/>
   </g>
   <g id="patch_5">
    <path d="M 203.968186 45.498287 
Q 113.192256 18.031576 42.091695 79.328959 
" clip-path="url(#pac9f2375af)" style="fill: none; stroke: #000000; stroke-width: 0.821995; stroke-linecap: round"/>
    <path d="M 46.415382 78.234873 
L 42.091695 79.328959 
L 43.810639 75.213557 
" clip-path="url(#pac9f2375af)" style="fill: none; stroke: #000000; stroke-width: 0.821995; stroke-linecap: round"/>
   </g>
   <g id="patch_6">
    <path d="M 120.288195 32.935107 
Q 157.582512 63.135094 202.936726 50.965805 
" clip-path="url(#pac9f2375af)" style="fill: none; stroke: #000000; stroke-width: 0.921691; stroke-linecap: round"/>
    <path d="M 198.462161 50.05175 
L 202.936726 50.965805 
L 199.520743 53.997024 
" clip-path="url(#pac9f2375af)" style="fill: none; stroke: #000000; stroke-width: 0.921691; stroke-linecap: round"/>
   </g>
   <g id="patch_7">
    <path d="M 105.170563 28.398149 
Q 59.297475 36.213122 39.190883 76.346206 
" clip-path="url(#pac9f2375af)" style="fill: none; stroke: #000000; stroke-width: 1.436352; stroke-linecap: round"/>
    <path d="M 43.288824 73.277857 
L 39.190883 76.346206 
L 39.194969 71.226844 
" clip-path="url(#pac9f2375af)" style="fill: none; stroke: #000000; stroke-width: 1.436352; stroke-linecap: round"/>
   </g>
   <g id="patch_8">
    <path d="M 43.041282 88.505535 
Q 133.912855 116.001186 205.172803 54.455798 
" clip-path="url(#pac9f2375af)" style="fill: none; stroke: #000000; stroke-width: 0.7; stroke-linecap: round"/>
    <path d="M 201.127263 55.48333 
L 205.172803 54.455798 
L 203.567505 58.30875 
" clip-path="url(#pac9f2375af)" style="fill: none; stroke: #000000; stroke-width: 0.7; stroke-linecap: round"/>
   </g>
   <g id="patch_9">
    <path d="M 43.383976 84.695651 
Q 86.936545 77.276004 106.695009 41.626604 
" clip-path="url(#pac9f2375af)" style="fill: none; stroke: #000000; stroke-width: 2.245251; stroke-linecap: round"/>
    <path d="M 101.756821 45.01264 
L 106.695009 41.626604 
L 106.440925 47.608776 
" clip-path="url(#pac9f2375af)" style="fill: none; stroke: #000000; stroke-width: 2.245251; stroke-linecap: round"/>
   </g>
   <g id="patch_10">
    <path d="M 30.616225 93.426258 
Q 11.471895 131.476178 28.696105 168.227234 
" clip-path="url(#pac9f2375af)" style="fill: none; stroke: #000000; stroke-width: 1.283001; stroke-linecap: round"/>
    <path d="M 28.821817 163.274059 
L 28.696105 168.227234 
L 24.808993 165.15476 
" clip-path="url(#pac9f2375af)" style="fill: none; stroke: #000000; stroke-width: 1.283001; stroke-linecap: round"/>
   </g>
   <g id="patch_11">
    <path d="M 35.779962 171.2064 
Q 46.189521 91.569997 103.200663 36.885888 
" clip-path="url(#pac9f2375af)" style="fill: none; stroke: #000000; stroke-width: 0.7; stroke-linecap: round"/>
    <path d="M 99.114319 38.154062 
L 103.200663 36.885888 
L 101.763395 40.915868 
" clip-path="url(#pac9f2375af)" style="fill: none; stroke: #000000; stroke-width: 0.7; stroke-linecap: round"/>
   </g>
   <g id="patch_12">
    <path d="M 38.983596 172.224934 
Q 58.763263 132.912263 39.487452 94.43173 
" clip-path="url(#pac9f2375af)" style="fill: none; stroke: #000000; stroke-width: 0.832444; stroke-linecap: round"/>
    <path d="M 39.490755 98.902911 
L 39.487452 94.43173 
L 43.066378 97.111796 
" clip-path="url(#pac9f2375af)" style="fill: none; stroke: #000000; stroke-width: 0.832444; stroke-linecap: round"/>
   </g>
   <g id="patch_13">
    <path d="M 38.383853 187.693769 
Q 56.970749 224.951517 93.86353 234.723528 
" clip-path="url(#pac9f2375af)" style="fill: none; stroke: #000000; stroke-width: 1.61615; stroke-linecap: round"/>
    <path d="M 89.878722 231.210369 
L 93.86353 234.723528 
L 88.662118 235.803479 
" clip-path="url(#pac9f2375af)" style="fill: none; stroke: #000000; stroke-width: 1.61615; stroke-linecap: round"/>
   </g>
   <g id="patch_14">
    <path d="M 110.170679 230.51482 
Q 90.028348 190.139177 47.470617 181.722905 
" clip-path="url(#pac9f2375af)" style="fill: none; stroke: #000000; stroke-width: 1.033715; stroke-linecap: round"/>
    <path d="M 51.176664 184.592598 
L 47.470617 181.722905 
L 51.99 180.479883 
" clip-path="url(#pac9f2375af)" style="fill: none; stroke: #000000; stroke-width: 1.033715; stroke-linecap: round"/>
   </g>
   <g id="PathCollection_1">
    <path d="M 256.026122 145.029697 
C 259.262687 145.029697 262.367126 143.743796 264.655723 141.455199 
C 266.944319 139.166603 268.23022 136.062164 268.23022 132.825599 
C 268.23022 129.589035 266.944319 126.484596 264.655723 124.195999 
C 262.367126 121.907402 259.262687 120.621501 256.026122 120.621501 
C 252.789558 120.621501 249.685119 121.907402 247.396522 124.195999 
C 245.107925 126.484596 243.822025 129.589035 243.822025 132.825599 
C 243.822025 136.062164 245.107925 139.166603 247.396522 141.455199 
C 249.685119 143.743796 252.789558 145.029697 256.026122 145.029697 
z
" clip-path="url(#pac9f2375af)" style="fill: #1e2e79; stroke: #000000"/>
    <path d="M 212.209557 55.2337 
C 214.084826 55.2337 215.883541 54.488648 217.209557 53.162632 
C 218.535572 51.836617 219.280625 50.037901 219.280625 48.162632 
C 219.280625 46.287363 218.535572 44.488648 217.209557 43.162632 
C 215.883541 41.836617 214.084826 41.091564 212.209557 41.091564 
C 210.334288 41.091564 208.535572 41.836617 207.209557 43.162632 
C 205.883541 44.488648 205.138489 46.287363 205.138489 48.162632 
C 205.138489 50.037901 205.883541 51.836617 207.209557 53.162632 
C 208.535572 54.488648 210.334288 55.2337 212.209557 55.2337 
z
" clip-path="url(#pac9f2375af)" style="fill: #1e2e79; stroke: #000000"/>
    <path d="M 113.754628 41.334513 
C 117.489193 41.334513 121.071302 39.850755 123.712038 37.210019 
C 126.352773 34.569283 127.836532 30.987174 127.836532 27.25261 
C 127.836532 23.518046 126.352773 19.935937 123.712038 17.295201 
C 121.071302 14.654465 117.489193 13.170707 113.754628 13.170707 
C 110.020064 13.170707 106.437955 14.654465 103.797219 17.295201 
C 101.156483 19.935937 99.672725 23.518046 99.672725 27.25261 
C 99.672725 30.987174 101.156483 34.569283 103.797219 37.210019 
C 106.437955 39.850755 110.020064 41.334513 113.754628 41.334513 
z
" clip-path="url(#pac9f2375af)" style="fill: #1e2e79; stroke: #000000"/>
    <path d="M 34.79991 95.076268 
C 37.249082 95.076268 39.598271 94.103202 41.330097 92.371376 
C 43.061922 90.639551 44.034988 88.290361 44.034988 85.84119 
C 44.034988 83.392019 43.061922 81.042829 41.330097 79.311004 
C 39.598271 77.579178 37.249082 76.606112 34.79991 76.606112 
C 32.350739 76.606112 30.00155 77.579178 28.269724 79.311004 
C 26.537898 81.042829 25.564832 83.392019 25.564832 85.84119 
C 25.564832 88.290361 26.537898 90.639551 28.269724 92.371376 
C 30.00155 94.103202 32.350739 95.076268 34.79991 95.076268 
z
" clip-path="url(#pac9f2375af)" style="fill: #1e2e79; stroke: #000000"/>
    <path d="M 34.79991 191.964836 
C 38.02341 191.964836 41.115318 190.684126 43.394676 188.404768 
C 45.674035 186.125409 46.954745 183.033501 46.954745 179.810002 
C 46.954745 176.586502 45.674035 173.494594 43.394676 171.215236 
C 41.115318 168.935877 38.02341 167.655167 34.79991 167.655167 
C 31.57641 167.655167 28.484503 168.935877 26.205144 171.215236 
C 23.925786 173.494594 22.645076 176.586502 22.645076 179.810002 
C 22.645076 183.033501 23.925786 186.125409 26.205144 188.404768 
C 28.484503 190.684126 31.57641 191.964836 34.79991 191.964836 
z
" clip-path="url(#pac9f2375af)" style="fill: #1e2e79; stroke: #000000"/>
    <path d="M 113.754621 257.60987 
C 118.849513 257.60987 123.736416 255.585648 127.339049 251.983016 
C 130.941681 248.380383 132.965903 243.49348 132.965903 238.398588 
C 132.965903 233.303697 130.941681 228.416793 127.339049 224.814161 
C 123.736416 221.211529 118.849513 219.187307 113.754621 219.187307 
C 108.65973 219.187307 103.772826 221.211529 100.170194 224.814161 
C 96.567562 228.416793 94.54334 233.303697 94.54334 238.398588 
C 94.54334 243.49348 96.567562 248.380383 100.170194 251.983016 
C 103.772826 255.585648 108.65973 257.60987 113.754621 257.60987 
z
" clip-path="url(#pac9f2375af)" style="fill: #1e2e79; stroke: #000000"/>
    <path d="M 212.209536 224.559647 
C 214.084805 224.559647 215.883521 223.814594 217.209536 222.488579 
C 218.535552 221.162563 219.280604 219.363848 219.280604 217.488579 
C 219.280604 215.61331 218.535552 213.814594 217.209536 212.488579 
C 215.883521 211.162563 214.084805 210.417511 212.209536 210.417511 
C 210.334267 210.417511 208.535552 211.162563 207.209536 212.488579 
C 205.883521 213.814594 205.138468 215.61331 205.138468 217.488579 
C 205.138468 219.363848 205.883521 221.162563 207.209536 222.488579 
C 208.535552 223.814594 210.334267 224.559647 212.209536 224.559647 
z
" clip-path="url(#pac9f2375af)" style="fill: #1e2e79; stroke: #000000"/>
   </g>
   <g id="text_1">
    <g clip-path="url(#pac9f2375af)">
     <!-- A -->
     <g style="fill: #ffffff" transform="translate(252.156591 135.584974) scale(0.1 -0.1)">
      <defs>
       <path id="DejaVuSans-Bold-41" d="M 3419 850 
L 1538 850 
L 1241 0 
L 31 0 
L 1759 4666 
L 3194 4666 
L 4922 0 
L 3713 0 
L 3419 850 
z
M 1838 1716 
L 3116 1716 
L 2478 3572 
L 1838 1716 
z
" transform="scale(0.015625)"/>
      </defs>
      <use xlink:href="#DejaVuSans-Bold-41"/>
     </g>
    </g>
   </g>
   <g id="text_2">
    <g clip-path="url(#pac9f2375af)">
     <!-- B -->
     <g style="fill: #ffffff" transform="translate(208.398619 50.922007) scale(0.1 -0.1)">
      <defs>
       <path id="DejaVuSans-Bold-42" d="M 2456 2859 
Q 2741 2859 2887 2984 
Q 3034 3109 3034 3353 
Q 3034 3594 2887 3720 
Q 2741 3847 2456 3847 
L 1791 3847 
L 1791 2859 
L 2456 2859 
z
M 2497 819 
Q 2859 819 3042 972 
Q 3225 1125 3225 1434 
Q 3225 1738 3044 1889 
Q 2863 2041 2497 2041 
L 1791 2041 
L 1791 819 
L 2497 819 
z
M 3616 2497 
Q 4003 2384 4215 2081 
Q 4428 1778 4428 1338 
Q 4428 663 3972 331 
Q 3516 0 2584 0 
L 588 0 
L 588 4666 
L 2394 4666 
Q 3366 4666 3802 4372 
Q 4238 4078 4238 3431 
Q 4238 3091 4078 2852 
Q 3919 2613 3616 2497 
z
" transform="scale(0.015625)"/>
      </defs>
      <use xlink:href="#DejaVuSans-Bold-42"/>
     </g>
    </g>
   </g>
   <g id="text_3">
    <g clip-path="url(#pac9f2375af)">
     <!-- C -->
     <g style="fill: #ffffff" transform="translate(110.085097 30.011985) scale(0.1 -0.1)">
      <defs>
       <path id="DejaVuSans-Bold-43" d="M 4288 256 
Q 3956 84 3597 -3 
Q 3238 -91 2847 -91 
Q 1681 -91 1000 561 
Q 319 1213 319 2328 
Q 319 3447 1000 4098 
Q 1681 4750 2847 4750 
Q 3238 4750 3597 4662 
Q 3956 4575 4288 4403 
L 4288 3438 
Q 3953 3666 3628 3772 
Q 3303 3878 2944 3878 
Q 2300 3878 1931 3465 
Q 1563 3053 1563 2328 
Q 1563 1606 1931 1193 
Q 2300 781 2944 781 
Q 3303 781 3628 887 
Q 3953 994 4288 1222 
L 4288 256 
z
" transform="scale(0.015625)"/>
      </defs>
      <use xlink:href="#DejaVuSans-Bold-43"/>
     </g>
    </g>
   </g>
   <g id="text_4">
    <g clip-path="url(#pac9f2375af)">
     <!-- D -->
     <g style="fill: #ffffff" transform="translate(30.649129 88.600565) scale(0.1 -0.1)">
      <defs>
       <path id="DejaVuSans-Bold-44" d="M 1791 3756 
L 1791 909 
L 2222 909 
Q 2959 909 3348 1275 
Q 3738 1641 3738 2338 
Q 3738 3031 3350 3393 
Q 2963 3756 2222 3756 
L 1791 3756 
z
M 588 4666 
L 1856 4666 
Q 2919 4666 3439 4514 
Q 3959 4363 4331 4000 
Q 4659 3684 4818 3271 
Q 4978 2859 4978 2338 
Q 4978 1809 4818 1395 
Q 4659 981 4331 666 
Q 3956 303 3431 151 
Q 2906 0 1856 0 
L 588 0 
L 588 4666 
z
" transform="scale(0.015625)"/>
      </defs>
      <use xlink:href="#DejaVuSans-Bold-44"/>
     </g>
    </g>
   </g>
   <g id="text_5">
    <g clip-path="url(#pac9f2375af)">
     <!-- E -->
     <g style="fill: #ffffff" transform="translate(31.384285 182.569377) scale(0.1 -0.1)">
      <defs>
       <path id="DejaVuSans-Bold-45" d="M 588 4666 
L 3834 4666 
L 3834 3756 
L 1791 3756 
L 1791 2888 
L 3713 2888 
L 3713 1978 
L 1791 1978 
L 1791 909 
L 3903 909 
L 3903 0 
L 588 0 
L 588 4666 
z
" transform="scale(0.015625)"/>
      </defs>
      <use xlink:href="#DejaVuSans-Bold-45"/>
     </g>
    </g>
   </g>
   <g id="text_6">
    <g clip-path="url(#pac9f2375af)">
     <!-- F -->
     <g style="fill: #ffffff" transform="translate(110.338996 241.157963) scale(0.1 -0.1)">
      <defs>
       <path id="DejaVuSans-Bold-46" d="M 588 4666 
L 3834 4666 
L 3834 3756 
L 1791 3756 
L 1791 2888 
L 3713 2888 
L 3713 1978 
L 1791 1978 
L 1791 0 
L 588 0 
L 588 4666 
z
" transform="scale(0.015625)"/>
      </defs>
      <use xlink:href="#DejaVuSans-Bold-46"/>
     </g>
    </g>
   </g>
   <g id="text_7">
    <g clip-path="url(#pac9f2375af)">
     <!-- G -->
     <g style="fill: #ffffff" transform="translate(208.10563 220.247954) scale(0.1 -0.1)">
      <defs>
       <path id="DejaVuSans-Bold-47" d="M 4781 347 
Q 4331 128 3847 18 
Q 3363 -91 2847 -91 
Q 1681 -91 1000 561 
Q 319 1213 319 2328 
Q 319 3456 1012 4103 
Q 1706 4750 2913 4750 
Q 3378 4750 3804 4662 
Q 4231 4575 4609 4403 
L 4609 3438 
Q 4219 3659 3833 3768 
Q 3447 3878 3059 3878 
Q 2341 3878 1952 3476 
Q 1563 3075 1563 2328 
Q 1563 1588 1938 1184 
Q 2313 781 3003 781 
Q 3191 781 3352 804 
Q 3513 828 3641 878 
L 3641 1784 
L 2906 1784 
L 2906 2591 
L 4781 2591 
L 4781 347 
z
" transform="scale(0.015625)"/>
      </defs>
      <use xlink:href="#DejaVuSans-Bold-47"/>
     </g>
    </g>
   </g>
   <g id="text_8">
    <!-- Reduced -->
    <g transform="translate(121.029612 -3.12) scale(0.096 -0.096)">
     <defs>
      <path id="Roboto-Regular-52" d="M 3188 0 
L 2200 1844 
L 1131 1844 
L 1131 0 
L 528 0 
L 528 4550 
L 2034 4550 
Q 2800 4550 3214 4200 
Q 3628 3850 3628 3184 
Q 3628 2759 3398 2442 
Q 3169 2125 2763 1969 
L 3831 38 
L 3831 0 
L 3188 0 
z
M 1131 4056 
L 1131 2334 
L 2053 2334 
Q 2538 2334 2783 2582 
Q 3028 2831 3028 3184 
Q 3028 3578 2792 3817 
Q 2556 4056 2034 4056 
L 1131 4056 
z
" transform="scale(0.015625)"/>
      <path id="Roboto-Regular-65" d="M 3116 591 
Q 2950 341 2647 139 
Q 2344 -63 1844 -63 
Q 1138 -63 714 396 
Q 291 856 291 1572 
L 291 1703 
Q 291 2256 502 2645 
Q 713 3034 1050 3239 
Q 1388 3444 1769 3444 
Q 2494 3444 2826 2970 
Q 3159 2497 3159 1788 
L 3159 1528 
L 872 1528 
Q 884 1063 1148 736 
Q 1413 409 1875 409 
Q 2181 409 2393 534 
Q 2606 659 2766 869 
L 3116 591 
z
M 1769 2969 
Q 1425 2969 1187 2719 
Q 950 2469 891 2000 
L 2581 2000 
L 2581 2044 
Q 2559 2381 2386 2675 
Q 2213 2969 1769 2969 
z
" transform="scale(0.015625)"/>
      <path id="Roboto-Regular-64" d="M 2622 0 
L 2594 363 
Q 2247 -63 1628 -63 
Q 1034 -63 668 418 
Q 303 900 297 1628 
L 297 1719 
Q 297 2494 664 2969 
Q 1031 3444 1634 3444 
Q 2231 3444 2572 3044 
L 2572 4800 
L 3153 4800 
L 3153 0 
L 2622 0 
z
M 878 1653 
Q 878 1150 1090 789 
Q 1303 428 1772 428 
Q 2309 428 2572 919 
L 2572 2475 
Q 2313 2956 1778 2956 
Q 1306 2956 1092 2589 
Q 878 2222 878 1719 
L 878 1653 
z
" transform="scale(0.015625)"/>
      <path id="Roboto-Regular-75" d="M 2538 0 
L 2525 334 
Q 2194 -63 1538 -63 
Q 1041 -63 734 231 
Q 428 525 428 1200 
L 428 3381 
L 1006 3381 
L 1006 1194 
Q 1006 738 1198 583 
Q 1391 428 1628 428 
Q 2281 428 2509 919 
L 2509 3381 
L 3091 3381 
L 3091 0 
L 2538 0 
z
" transform="scale(0.015625)"/>
      <path id="Roboto-Regular-63" d="M 1794 413 
Q 2103 413 2336 597 
Q 2569 781 2591 1069 
L 3141 1069 
Q 3119 616 2725 276 
Q 2331 -63 1794 -63 
Q 1031 -63 661 440 
Q 291 944 291 1625 
L 291 1756 
Q 291 2438 661 2941 
Q 1031 3444 1794 3444 
Q 2388 3444 2753 3092 
Q 3119 2741 3141 2219 
L 2591 2219 
Q 2569 2531 2355 2750 
Q 2141 2969 1794 2969 
Q 1438 2969 1236 2787 
Q 1034 2606 951 2328 
Q 869 2050 869 1756 
L 869 1625 
Q 869 1328 950 1050 
Q 1031 772 1232 592 
Q 1434 413 1794 413 
z
" transform="scale(0.015625)"/>
     </defs>
     <use xlink:href="#Roboto-Regular-52"/>
     <use xlink:href="#Roboto-Regular-65" transform="translate(61.621094 0)"/>
     <use xlink:href="#Roboto-Regular-64" transform="translate(114.648438 0)"/>
     <use xlink:href="#Roboto-Regular-75" transform="translate(171.044922 0)"/>
     <use xlink:href="#Roboto-Regular-63" transform="translate(226.171875 0)"/>
     <use xlink:href="#Roboto-Regular-65" transform="translate(278.515625 0)"/>
     <use xlink:href="#Roboto-Regular-64" transform="translate(331.542969 0)"/>
    </g>
   </g>
  </g>
  <g id="axes_2">
   <g id="patch_15">
    <path d="M 393.19995 28.398149 
Q 347.228899 36.229811 328.045725 74.684904 
" clip-path="url(#p4b2cad362b)" style="fill: none; stroke: #000000; stroke-width: 3.273268; stroke-linecap: round"/>
    <path d="M 333.714552 70.425097 
L 328.045725 74.684904 
L 328.039176 67.593958 
" clip-path="url(#p4b2cad362b)" style="fill: none; stroke: #000000; stroke-width: 3.273268; stroke-linecap: round"/>
   </g>
   <g id="patch_16">
    <path d="M 400.803964 35.856212 
Q 390.079011 117.90548 330.838519 172.609176 
" clip-path="url(#p4b2cad362b)" style="fill: none; stroke: #000000; stroke-width: 1.889822; stroke-linecap: round"/>
    <path d="M 336.223232 171.049371 
L 330.838519 172.609176 
L 332.821503 167.365523 
" clip-path="url(#p4b2cad362b)" style="fill: none; stroke: #000000; stroke-width: 1.889822; stroke-linecap: round"/>
   </g>
   <g id="patch_17">
    <path d="M 331.413364 84.695651 
Q 377.384415 76.863989 397.002457 37.537148 
" clip-path="url(#p4b2cad362b)" style="fill: none; stroke: #000000; stroke-width: 2.401922; stroke-linecap: round"/>
    <path d="M 392.081293 41.235128 
L 397.002457 37.537148 
L 397.008142 43.692868 
" clip-path="url(#p4b2cad362b)" style="fill: none; stroke: #000000; stroke-width: 2.401922; stroke-linecap: round"/>
   </g>
   <g id="patch_18">
    <path d="M 318.645613 93.426258 
Q 298.822175 132.825924 317.438948 169.826693 
" clip-path="url(#p4b2cad362b)" style="fill: none; stroke: #000000; stroke-width: 2.401922; stroke-linecap: round"/>
    <path d="M 317.423477 163.67099 
L 317.438948 169.826693 
L 312.505103 166.145648 
" clip-path="url(#p4b2cad362b)" style="fill: none; stroke: #000000; stroke-width: 2.401922; stroke-linecap: round"/>
   </g>
   <g id="patch_19">
    <path d="M 329.287393 91.609679 
Q 382.265117 140.530835 396.752658 206.988205 
" clip-path="url(#p4b2cad362b)" style="fill: none; stroke: #000000; stroke-width: 1.961161; stroke-linecap: round"/>
    <path d="M 398.153105 201.480825 
L 396.752658 206.988205 
L 393.187022 202.563419 
" clip-path="url(#p4b2cad362b)" style="fill: none; stroke: #000000; stroke-width: 1.961161; stroke-linecap: round"/>
   </g>
   <g id="patch_20">
    <path d="M 327.012983 172.224934 
Q 346.836421 132.825268 327.438878 94.272723 
" clip-path="url(#p4b2cad362b)" style="fill: none; stroke: #000000; stroke-width: 0.848189; stroke-linecap: round"/>
    <path d="M 327.450158 98.760789 
L 327.438878 94.272723 
L 331.0361 96.956539 
" clip-path="url(#p4b2cad362b)" style="fill: none; stroke: #000000; stroke-width: 0.848189; stroke-linecap: round"/>
   </g>
   <g id="patch_21">
    <path d="M 326.413241 187.693769 
Q 342.325952 219.59107 368.592884 229.966224 
" clip-path="url(#p4b2cad362b)" style="fill: none; stroke: #000000; stroke-width: 4.176846; stroke-linecap: round"/>
    <path d="M 363.21158 223.964758 
L 368.592884 229.966224 
L 360.562929 230.670387 
" clip-path="url(#p4b2cad362b)" style="fill: none; stroke: #000000; stroke-width: 4.176846; stroke-linecap: round"/>
   </g>
   <g id="patch_22">
    <path d="M 398.200066 230.51482 
Q 377.382605 188.785865 332.419431 181.126914 
" clip-path="url(#p4b2cad362b)" style="fill: none; stroke: #000000; stroke-width: 0.915075; stroke-linecap: round"/>
    <path d="M 336.097564 183.822049 
L 332.419431 181.126914 
L 336.782419 179.801489 
" clip-path="url(#p4b2cad362b)" style="fill: none; stroke: #000000; stroke-width: 0.915075; stroke-linecap: round"/>
   </g>
   <g id="PathCollection_2">
    <path d="M 544.05551 139.896667 
C 545.930779 139.896667 547.729495 139.151615 549.05551 137.825599 
C 550.381526 136.499584 551.126578 134.700868 551.126578 132.825599 
C 551.126578 130.95033 550.381526 129.151615 549.05551 127.825599 
C 547.729495 126.499584 545.930779 125.754531 544.05551 125.754531 
C 542.180241 125.754531 540.381526 126.499584 539.05551 127.825599 
C 537.729495 129.151615 536.984442 130.95033 536.984442 132.825599 
C 536.984442 134.700868 537.729495 136.499584 539.05551 137.825599 
C 540.381526 139.151615 542.180241 139.896667 544.05551 139.896667 
z
" clip-path="url(#p4b2cad362b)" style="fill: #ec4067; stroke: #000000"/>
    <path d="M 500.238945 55.2337 
C 502.114214 55.2337 503.912929 54.488648 505.238945 53.162632 
C 506.56496 51.836617 507.310013 50.037901 507.310013 48.162632 
C 507.310013 46.287363 506.56496 44.488648 505.238945 43.162632 
C 503.912929 41.836617 502.114214 41.091564 500.238945 41.091564 
C 498.363676 41.091564 496.56496 41.836617 495.238945 43.162632 
C 493.912929 44.488648 493.167877 46.287363 493.167877 48.162632 
C 493.167877 50.037901 493.912929 51.836617 495.238945 53.162632 
C 496.56496 54.488648 498.363676 55.2337 500.238945 55.2337 
z
" clip-path="url(#p4b2cad362b)" style="fill: #ec4067; stroke: #000000"/>
    <path d="M 401.784016 34.323678 
C 403.659285 34.323678 405.458001 33.578625 406.784016 32.25261 
C 408.110032 30.926594 408.855084 29.127879 408.855084 27.25261 
C 408.855084 25.377341 408.110032 23.578625 406.784016 22.25261 
C 405.458001 20.926594 403.659285 20.181542 401.784016 20.181542 
C 399.908747 20.181542 398.110032 20.926594 396.784016 22.25261 
C 395.458001 23.578625 394.712948 25.377341 394.712948 27.25261 
C 394.712948 29.127879 395.458001 30.926594 396.784016 32.25261 
C 398.110032 33.578625 399.908747 34.323678 401.784016 34.323678 
z
" clip-path="url(#p4b2cad362b)" style="fill: #ec4067; stroke: #000000"/>
    <path d="M 322.829298 92.912258 
C 324.704567 92.912258 326.503282 92.167206 327.829298 90.84119 
C 329.155313 89.515175 329.900366 87.716459 329.900366 85.84119 
C 329.900366 83.965921 329.155313 82.167206 327.829298 80.84119 
C 326.503282 79.515175 324.704567 78.770122 322.829298 78.770122 
C 320.954029 78.770122 319.155313 79.515175 317.829298 80.84119 
C 316.503282 82.167206 315.75823 83.965921 315.75823 85.84119 
C 315.75823 87.716459 316.503282 89.515175 317.829298 90.84119 
C 319.155313 92.167206 320.954029 92.912258 322.829298 92.912258 
z
" clip-path="url(#p4b2cad362b)" style="fill: #ec4067; stroke: #000000"/>
    <path d="M 322.829298 186.88107 
C 324.704567 186.88107 326.503282 186.136017 327.829298 184.810002 
C 329.155313 183.483986 329.900366 181.685271 329.900366 179.810002 
C 329.900366 177.934733 329.155313 176.136017 327.829298 174.810002 
C 326.503282 173.483986 324.704567 172.738934 322.829298 172.738934 
C 320.954029 172.738934 319.155313 173.483986 317.829298 174.810002 
C 316.503282 176.136017 315.75823 177.934733 315.75823 179.810002 
C 315.75823 181.685271 316.503282 183.483986 317.829298 184.810002 
C 319.155313 186.136017 320.954029 186.88107 322.829298 186.88107 
z
" clip-path="url(#p4b2cad362b)" style="fill: #ec4067; stroke: #000000"/>
    <path d="M 401.784009 269.281917 
C 409.974364 269.281917 417.830365 266.027855 423.62182 260.236399 
C 429.413276 254.444944 432.667338 246.588943 432.667338 238.398588 
C 432.667338 230.208234 429.413276 222.352232 423.62182 216.560777 
C 417.830365 210.769322 409.974364 207.515259 401.784009 207.515259 
C 393.593655 207.515259 385.737653 210.769322 379.946198 216.560777 
C 374.154743 222.352232 370.90068 230.208234 370.90068 238.398588 
C 370.90068 246.588943 374.154743 254.444944 379.946198 260.236399 
C 385.737653 266.027855 393.593655 269.281917 401.784009 269.281917 
z
" clip-path="url(#p4b2cad362b)" style="fill: #ec4067; stroke: #000000"/>
    <path d="M 500.238924 224.559647 
C 502.114193 224.559647 503.912908 223.814594 505.238924 222.488579 
C 506.564939 221.162563 507.309992 219.363848 507.309992 217.488579 
C 507.309992 215.61331 506.564939 213.814594 505.238924 212.488579 
C 503.912908 211.162563 502.114193 210.417511 500.238924 210.417511 
C 498.363655 210.417511 496.564939 211.162563 495.238924 212.488579 
C 493.912908 213.814594 493.167856 215.61331 493.167856 217.488579 
C 493.167856 219.363848 493.912908 221.162563 495.238924 222.488579 
C 496.564939 223.814594 498.363655 224.559647 500.238924 224.559647 
z
" clip-path="url(#p4b2cad362b)" style="fill: #ec4067; stroke: #000000"/>
   </g>
   <g id="text_9">
    <g clip-path="url(#p4b2cad362b)">
     <!-- A -->
     <g style="fill: #ffffff" transform="translate(540.185979 135.584974) scale(0.1 -0.1)">
      <use xlink:href="#DejaVuSans-Bold-41"/>
     </g>
    </g>
   </g>
   <g id="text_10">
    <g clip-path="url(#p4b2cad362b)">
     <!-- B -->
     <g style="fill: #ffffff" transform="translate(496.428007 50.922007) scale(0.1 -0.1)">
      <use xlink:href="#DejaVuSans-Bold-42"/>
     </g>
    </g>
   </g>
   <g id="text_11">
    <g clip-path="url(#p4b2cad362b)">
     <!-- C -->
     <g style="fill: #ffffff" transform="translate(398.114485 30.011985) scale(0.1 -0.1)">
      <use xlink:href="#DejaVuSans-Bold-43"/>
     </g>
    </g>
   </g>
   <g id="text_12">
    <g clip-path="url(#p4b2cad362b)">
     <!-- D -->
     <g style="fill: #ffffff" transform="translate(318.678517 88.600565) scale(0.1 -0.1)">
      <use xlink:href="#DejaVuSans-Bold-44"/>
     </g>
    </g>
   </g>
   <g id="text_13">
    <g clip-path="url(#p4b2cad362b)">
     <!-- E -->
     <g style="fill: #ffffff" transform="translate(319.413673 182.569377) scale(0.1 -0.1)">
      <use xlink:href="#DejaVuSans-Bold-45"/>
     </g>
    </g>
   </g>
   <g id="text_14">
    <g clip-path="url(#p4b2cad362b)">
     <!-- F -->
     <g style="fill: #ffffff" transform="translate(398.368384 241.157963) scale(0.1 -0.1)">
      <use xlink:href="#DejaVuSans-Bold-46"/>
     </g>
    </g>
   </g>
   <g id="text_15">
    <g clip-path="url(#p4b2cad362b)">
     <!-- G -->
     <g style="fill: #ffffff" transform="translate(496.135018 220.247954) scale(0.1 -0.1)">
      <use xlink:href="#DejaVuSans-Bold-47"/>
     </g>
    </g>
   </g>
   <g id="text_16">
    <!-- Oxidized -->
    <g transform="translate(409.32225 -3.12) scale(0.096 -0.096)">
     <defs>
      <path id="Roboto-Regular-4f" d="M 4031 2131 
Q 4031 1106 3534 521 
Q 3038 -63 2206 -63 
Q 1397 -63 884 521 
Q 372 1106 372 2131 
L 372 2419 
Q 372 3441 881 4027 
Q 1391 4613 2200 4613 
Q 3025 4613 3523 4036 
Q 4022 3459 4031 2456 
L 4031 2131 
z
M 3434 2425 
Q 3434 3238 3109 3669 
Q 2784 4100 2200 4100 
Q 1641 4100 1305 3669 
Q 969 3238 969 2425 
L 969 2131 
Q 969 1313 1308 880 
Q 1647 447 2206 447 
Q 2794 447 3114 880 
Q 3434 1313 3434 2131 
L 3434 2425 
z
" transform="scale(0.015625)"/>
      <path id="Roboto-Regular-78" d="M 831 3381 
L 1572 2150 
L 2322 3381 
L 3000 3381 
L 1894 1713 
L 3034 0 
L 2366 0 
L 1584 1269 
L 803 0 
L 131 0 
L 1269 1713 
L 166 3381 
L 831 3381 
z
" transform="scale(0.015625)"/>
      <path id="Roboto-Regular-69" d="M 444 4278 
Q 444 4419 530 4516 
Q 616 4613 784 4613 
Q 950 4613 1039 4516 
Q 1128 4419 1128 4278 
Q 1128 4144 1039 4048 
Q 950 3953 784 3953 
Q 616 3953 530 4048 
Q 444 4144 444 4278 
z
M 1069 3381 
L 1069 0 
L 488 0 
L 488 3381 
L 1069 3381 
z
" transform="scale(0.015625)"/>
      <path id="Roboto-Regular-7a" d="M 303 2903 
L 303 3381 
L 2869 3381 
L 2869 2972 
L 988 475 
L 2959 475 
L 2959 0 
L 278 0 
L 278 425 
L 2141 2903 
L 303 2903 
z
" transform="scale(0.015625)"/>
     </defs>
     <use xlink:href="#Roboto-Regular-4f"/>
     <use xlink:href="#Roboto-Regular-78" transform="translate(68.798828 0)"/>
     <use xlink:href="#Roboto-Regular-69" transform="translate(118.408203 0)"/>
     <use xlink:href="#Roboto-Regular-64" transform="translate(142.724609 0)"/>
     <use xlink:href="#Roboto-Regular-69" transform="translate(199.121094 0)"/>
     <use xlink:href="#Roboto-Regular-7a" transform="translate(223.4375 0)"/>
     <use xlink:href="#Roboto-Regular-65" transform="translate(273.046875 0)"/>
     <use xlink:href="#Roboto-Regular-64" transform="translate(326.074219 0)"/>
    </g>
   </g>
  </g>
  <g id="axes_3">
   <g id="patch_23">
    <path d="M 780.026961 45.498287 
Q 689.155388 18.002636 619.745733 77.949974 
" clip-path="url(#pd3439a265c)" style="fill: none; stroke: #000000; stroke-width: 2.886751; stroke-linecap: round"/>
    <path d="M 626.216374 76.306486 
L 619.745733 77.949974 
L 622.313328 71.787368 
" clip-path="url(#pd3439a265c)" style="fill: none; stroke: #000000; stroke-width: 2.886751; stroke-linecap: round"/>
   </g>
   <g id="patch_24">
    <path d="M 783.635091 55.47827 
Q 728.220251 140.546504 636.749232 171.864627 
" clip-path="url(#pd3439a265c)" style="fill: none; stroke: #000000; stroke-width: 2.886751; stroke-linecap: round"/>
    <path d="M 643.36568 172.755057 
L 636.749232 171.864627 
L 641.431445 167.105727 
" clip-path="url(#pd3439a265c)" style="fill: none; stroke: #000000; stroke-width: 2.886751; stroke-linecap: round"/>
   </g>
   <g id="patch_25">
    <path d="M 791.351445 56.257393 
Q 819.050974 132.827202 792.448242 206.362021 
" clip-path="url(#pd3439a265c)" style="fill: none; stroke: #000000; stroke-width: 2.886751; stroke-linecap: round"/>
    <path d="M 797.287194 201.762587 
L 792.448242 206.362021 
L 791.672066 199.731199 
" clip-path="url(#pd3439a265c)" style="fill: none; stroke: #000000; stroke-width: 2.886751; stroke-linecap: round"/>
   </g>
   <g id="patch_26">
    <path d="M 698.387662 26.017429 
Q 742.602717 20.940824 780.043644 43.022809 
" clip-path="url(#pd3439a265c)" style="fill: none; stroke: #000000; stroke-width: 0.928477; stroke-linecap: round"/>
    <path d="M 777.558783 39.182331 
L 780.043644 43.022809 
L 775.480345 42.70641 
" clip-path="url(#pd3439a265c)" style="fill: none; stroke: #000000; stroke-width: 0.928477; stroke-linecap: round"/>
   </g>
   <g id="patch_27">
    <path d="M 681.229338 28.398149 
Q 635.258287 36.229811 615.244101 76.350772 
" clip-path="url(#pd3439a265c)" style="fill: none; stroke: #000000; stroke-width: 1.608169; stroke-linecap: round"/>
    <path d="M 619.484181 73.164589 
L 615.244101 76.350772 
L 615.239203 71.046997 
" clip-path="url(#pd3439a265c)" style="fill: none; stroke: #000000; stroke-width: 1.608169; stroke-linecap: round"/>
   </g>
   <g id="patch_28">
    <path d="M 688.833352 35.856212 
Q 679.103818 110.290204 630.324686 161.15122 
" clip-path="url(#pd3439a265c)" style="fill: none; stroke: #000000; stroke-width: 2.78543; stroke-linecap: round"/>
    <path d="M 636.510275 158.944747 
L 630.324686 161.15122 
L 632.270862 154.878865 
" clip-path="url(#pd3439a265c)" style="fill: none; stroke: #000000; stroke-width: 2.78543; stroke-linecap: round"/>
   </g>
   <g id="patch_29">
    <path d="M 692.923044 35.336186 
Q 727.543468 129.063851 695.929703 221.808958 
" clip-path="url(#pd3439a265c)" style="fill: none; stroke: #000000; stroke-width: 0.928477; stroke-linecap: round"/>
    <path d="M 699.185997 218.596427 
L 695.929703 221.808958 
L 695.313455 217.276404 
" clip-path="url(#pd3439a265c)" style="fill: none; stroke: #000000; stroke-width: 0.928477; stroke-linecap: round"/>
   </g>
   <g id="patch_30">
    <path d="M 689.404283 35.903214 
Q 685.824017 149.910958 778.517955 211.205879 
" clip-path="url(#pd3439a265c)" style="fill: none; stroke: #000000; stroke-width: 2.626129; stroke-linecap: round"/>
    <path d="M 775.323657 205.664223 
L 778.517955 211.205879 
L 772.168051 210.436324 
" clip-path="url(#pd3439a265c)" style="fill: none; stroke: #000000; stroke-width: 2.626129; stroke-linecap: round"/>
   </g>
   <g id="patch_31">
    <path d="M 619.100057 88.505535 
Q 709.971631 116.001186 781.231579 54.455798 
" clip-path="url(#pd3439a265c)" style="fill: none; stroke: #000000; stroke-width: 0.7; stroke-linecap: round"/>
    <path d="M 777.103393 55.504321 
L 781.231579 54.455798 
L 779.593486 58.387461 
" clip-path="url(#pd3439a265c)" style="fill: none; stroke: #000000; stroke-width: 0.7; stroke-linecap: round"/>
   </g>
   <g id="patch_32">
    <path d="M 619.442751 84.695651 
Q 665.413803 76.863989 685.279846 37.039998 
" clip-path="url(#pd3439a265c)" style="fill: none; stroke: #000000; stroke-width: 1.905002; stroke-linecap: round"/>
    <path d="M 680.785067 40.417574 
L 685.279846 37.039998 
L 685.285039 42.662367 
" clip-path="url(#pd3439a265c)" style="fill: none; stroke: #000000; stroke-width: 1.905002; stroke-linecap: round"/>
   </g>
   <g id="patch_33">
    <path d="M 606.675 93.426258 
Q 590.391675 125.789845 599.789051 154.844184 
" clip-path="url(#pd3439a265c)" style="fill: none; stroke: #000000; stroke-width: 3.110855; stroke-linecap: round"/>
    <path d="M 600.828308 148.006077 
L 599.789051 154.844184 
L 594.942121 149.909914 
" clip-path="url(#pd3439a265c)" style="fill: none; stroke: #000000; stroke-width: 3.110855; stroke-linecap: round"/>
   </g>
   <g id="patch_34">
    <path d="M 617.316781 91.609679 
Q 675.158123 145.022041 687.394935 220.17556 
" clip-path="url(#pd3439a265c)" style="fill: none; stroke: #000000; stroke-width: 1.555428; stroke-linecap: round"/>
    <path d="M 688.956804 215.166234 
L 687.394935 220.17556 
L 684.324596 215.920469 
" clip-path="url(#pd3439a265c)" style="fill: none; stroke: #000000; stroke-width: 1.555428; stroke-linecap: round"/>
   </g>
   <g id="patch_35">
    <path d="M 614.288044 93.794904 
Q 662.65775 201.399665 778.666539 216.382677 
" clip-path="url(#pd3439a265c)" style="fill: none; stroke: #000000; stroke-width: 0.898027; stroke-linecap: round"/>
    <path d="M 774.898053 213.848039 
L 778.666539 216.382677 
L 774.377737 217.876683 
" clip-path="url(#pd3439a265c)" style="fill: none; stroke: #000000; stroke-width: 0.898027; stroke-linecap: round"/>
   </g>
   <g id="patch_36">
    <path d="M 615.042371 172.224934 
Q 634.865809 132.825268 615.3938 94.124721 
" clip-path="url(#pd3439a265c)" style="fill: none; stroke: #000000; stroke-width: 0.7; stroke-linecap: round"/>
    <path d="M 615.404458 98.365598 
L 615.3938 94.124721 
L 618.792897 96.66072 
" clip-path="url(#pd3439a265c)" style="fill: none; stroke: #000000; stroke-width: 0.7; stroke-linecap: round"/>
   </g>
   <g id="patch_37">
    <path d="M 614.442629 187.693769 
Q 633.44403 225.7824 672.260784 235.347914 
" clip-path="url(#pd3439a265c)" style="fill: none; stroke: #000000; stroke-width: 1.051592; stroke-linecap: round"/>
    <path d="M 668.677135 232.297075 
L 672.260784 235.347914 
L 667.669923 236.38433 
" clip-path="url(#pd3439a265c)" style="fill: none; stroke: #000000; stroke-width: 1.051592; stroke-linecap: round"/>
   </g>
   <g id="patch_38">
    <path d="M 686.229454 230.51482 
Q 668.923505 195.824752 635.864274 185.090869 
" clip-path="url(#pd3439a265c)" style="fill: none; stroke: #000000; stroke-width: 1.533412; stroke-linecap: round"/>
    <path d="M 639.58658 188.755538 
L 635.864274 185.090869 
L 641.029393 184.311826 
" clip-path="url(#pd3439a265c)" style="fill: none; stroke: #000000; stroke-width: 1.533412; stroke-linecap: round"/>
   </g>
   <g id="patch_39">
    <path d="M 788.677433 208.837974 
Q 792.257699 94.830231 698.073175 32.549643 
" clip-path="url(#pd3439a265c)" style="fill: none; stroke: #000000; stroke-width: 1.027783; stroke-linecap: round"/>
    <path d="M 700.410752 36.60501 
L 698.073175 32.549643 
L 702.720015 33.112801 
" clip-path="url(#pd3439a265c)" style="fill: none; stroke: #000000; stroke-width: 1.027783; stroke-linecap: round"/>
   </g>
   <g id="patch_40">
    <path d="M 784.838953 209.534865 
Q 736.469248 101.930104 620.604336 86.965674 
" clip-path="url(#pd3439a265c)" style="fill: none; stroke: #000000; stroke-width: 1.027783; stroke-linecap: round"/>
    <path d="M 624.488384 89.578038 
L 620.604336 86.965674 
L 625.024656 85.425854 
" clip-path="url(#pd3439a265c)" style="fill: none; stroke: #000000; stroke-width: 1.027783; stroke-linecap: round"/>
   </g>
   <g id="patch_41">
    <path d="M 779.713361 218.831982 
Q 700.270763 230.035395 632.47669 192.879088 
" clip-path="url(#pd3439a265c)" style="fill: none; stroke: #000000; stroke-width: 1.258772; stroke-linecap: round"/>
    <path d="M 635.283161 196.930809 
L 632.47669 192.879088 
L 637.401949 193.064944 
" clip-path="url(#pd3439a265c)" style="fill: none; stroke: #000000; stroke-width: 1.258772; stroke-linecap: round"/>
   </g>
   <g id="PathCollection_3">
    <path d="M 832.084898 139.896667 
C 833.960167 139.896667 835.758882 139.151615 837.084898 137.825599 
C 838.410913 136.499584 839.155966 134.700868 839.155966 132.825599 
C 839.155966 130.95033 838.410913 129.151615 837.084898 127.825599 
C 835.758882 126.499584 833.960167 125.754531 832.084898 125.754531 
C 830.209629 125.754531 828.410913 126.499584 827.084898 127.825599 
C 825.758882 129.151615 825.01383 130.95033 825.01383 132.825599 
C 825.01383 134.700868 825.758882 136.499584 827.084898 137.825599 
C 828.410913 139.151615 830.209629 139.896667 832.084898 139.896667 
z
" clip-path="url(#pd3439a265c)" style="fill: #f99752; stroke: #000000"/>
    <path d="M 788.268332 55.2337 
C 790.143602 55.2337 791.942317 54.488648 793.268332 53.162632 
C 794.594348 51.836617 795.3394 50.037901 795.3394 48.162632 
C 795.3394 46.287363 794.594348 44.488648 793.268332 43.162632 
C 791.942317 41.836617 790.143602 41.091564 788.268332 41.091564 
C 786.393063 41.091564 784.594348 41.836617 783.268332 43.162632 
C 781.942317 44.488648 781.197265 46.287363 781.197265 48.162632 
C 781.197265 50.037901 781.942317 51.836617 783.268332 53.162632 
C 784.594348 54.488648 786.393063 55.2337 788.268332 55.2337 
z
" clip-path="url(#pd3439a265c)" style="fill: #f99752; stroke: #000000"/>
    <path d="M 689.813404 34.323678 
C 691.688673 34.323678 693.487388 33.578625 694.813404 32.25261 
C 696.139419 30.926594 696.884472 29.127879 696.884472 27.25261 
C 696.884472 25.377341 696.139419 23.578625 694.813404 22.25261 
C 693.487388 20.926594 691.688673 20.181542 689.813404 20.181542 
C 687.938135 20.181542 686.139419 20.926594 684.813404 22.25261 
C 683.487388 23.578625 682.742336 25.377341 682.742336 27.25261 
C 682.742336 29.127879 683.487388 30.926594 684.813404 32.25261 
C 686.139419 33.578625 687.938135 34.323678 689.813404 34.323678 
z
" clip-path="url(#pd3439a265c)" style="fill: #f99752; stroke: #000000"/>
    <path d="M 610.858686 92.912258 
C 612.733955 92.912258 614.53267 92.167206 615.858686 90.84119 
C 617.184701 89.515175 617.929754 87.716459 617.929754 85.84119 
C 617.929754 83.965921 617.184701 82.167206 615.858686 80.84119 
C 614.53267 79.515175 612.733955 78.770122 610.858686 78.770122 
C 608.983417 78.770122 607.184701 79.515175 605.858686 80.84119 
C 604.53267 82.167206 603.787618 83.965921 603.787618 85.84119 
C 603.787618 87.716459 604.53267 89.515175 605.858686 90.84119 
C 607.184701 92.167206 608.983417 92.912258 610.858686 92.912258 
z
" clip-path="url(#pd3439a265c)" style="fill: #f99752; stroke: #000000"/>
    <path d="M 610.858686 204.680332 
C 617.454374 204.680332 623.780809 202.059837 628.444665 197.395981 
C 633.108521 192.732125 635.729016 186.40569 635.729016 179.810002 
C 635.729016 173.214313 633.108521 166.887879 628.444665 162.224022 
C 623.780809 157.560166 617.454374 154.939671 610.858686 154.939671 
C 604.262997 154.939671 597.936563 157.560166 593.272706 162.224022 
C 588.60885 166.887879 585.988355 173.214313 585.988355 179.810002 
C 585.988355 186.40569 588.60885 192.732125 593.272706 197.395981 
C 597.936563 202.059837 604.262997 204.680332 610.858686 204.680332 
z
" clip-path="url(#pd3439a265c)" style="fill: #f99752; stroke: #000000"/>
    <path d="M 689.813397 255.752742 
C 694.415772 255.752742 698.830266 253.924199 702.084637 250.669828 
C 705.339008 247.415457 707.167551 243.000964 707.167551 238.398588 
C 707.167551 233.796213 705.339008 229.381719 702.084637 226.127348 
C 698.830266 222.872977 694.415772 221.044434 689.813397 221.044434 
C 685.211021 221.044434 680.796528 222.872977 677.542157 226.127348 
C 674.287786 229.381719 672.459243 233.796213 672.459243 238.398588 
C 672.459243 243.000964 674.287786 247.415457 677.542157 250.669828 
C 680.796528 253.924199 685.211021 255.752742 689.813397 255.752742 
z
" clip-path="url(#pd3439a265c)" style="fill: #f99752; stroke: #000000"/>
    <path d="M 788.268312 224.559647 
C 790.143581 224.559647 791.942296 223.814594 793.268312 222.488579 
C 794.594327 221.162563 795.339379 219.363848 795.339379 217.488579 
C 795.339379 215.61331 794.594327 213.814594 793.268312 212.488579 
C 791.942296 211.162563 790.143581 210.417511 788.268312 210.417511 
C 786.393043 210.417511 784.594327 211.162563 783.268312 212.488579 
C 781.942296 213.814594 781.197244 215.61331 781.197244 217.488579 
C 781.197244 219.363848 781.942296 221.162563 783.268312 222.488579 
C 784.594327 223.814594 786.393043 224.559647 788.268312 224.559647 
z
" clip-path="url(#pd3439a265c)" style="fill: #f99752; stroke: #000000"/>
   </g>
   <g id="text_17">
    <g clip-path="url(#pd3439a265c)">
     <!-- A -->
     <g style="fill: #ffffff" transform="translate(828.215367 135.584974) scale(0.1 -0.1)">
      <use xlink:href="#DejaVuSans-Bold-41"/>
     </g>
    </g>
   </g>
   <g id="text_18">
    <g clip-path="url(#pd3439a265c)">
     <!-- B -->
     <g style="fill: #ffffff" transform="translate(784.457395 50.922007) scale(0.1 -0.1)">
      <use xlink:href="#DejaVuSans-Bold-42"/>
     </g>
    </g>
   </g>
   <g id="text_19">
    <g clip-path="url(#pd3439a265c)">
     <!-- C -->
     <g style="fill: #ffffff" transform="translate(686.143873 30.011985) scale(0.1 -0.1)">
      <use xlink:href="#DejaVuSans-Bold-43"/>
     </g>
    </g>
   </g>
   <g id="text_20">
    <g clip-path="url(#pd3439a265c)">
     <!-- D -->
     <g style="fill: #ffffff" transform="translate(606.707904 88.600565) scale(0.1 -0.1)">
      <use xlink:href="#DejaVuSans-Bold-44"/>
     </g>
    </g>
   </g>
   <g id="text_21">
    <g clip-path="url(#pd3439a265c)">
     <!-- E -->
     <g style="fill: #ffffff" transform="translate(607.443061 182.569377) scale(0.1 -0.1)">
      <use xlink:href="#DejaVuSans-Bold-45"/>
     </g>
    </g>
   </g>
   <g id="text_22">
    <g clip-path="url(#pd3439a265c)">
     <!-- F -->
     <g style="fill: #ffffff" transform="translate(686.397772 241.157963) scale(0.1 -0.1)">
      <use xlink:href="#DejaVuSans-Bold-46"/>
     </g>
    </g>
   </g>
   <g id="text_23">
    <g clip-path="url(#pd3439a265c)">
     <!-- G -->
     <g style="fill: #ffffff" transform="translate(784.164405 220.247954) scale(0.1 -0.1)">
      <use xlink:href="#DejaVuSans-Bold-47"/>
     </g>
    </g>
   </g>
   <g id="text_24">
    <!-- Cu(I) -->
    <g transform="translate(705.318888 -3.12) scale(0.096 -0.096)">
     <defs>
      <path id="Roboto-Regular-43" d="M 3275 1447 
L 3875 1447 
Q 3806 800 3387 368 
Q 2969 -63 2150 -63 
Q 1356 -63 870 504 
Q 384 1072 375 2013 
L 375 2500 
Q 375 3456 867 4034 
Q 1359 4613 2203 4613 
Q 2975 4613 3390 4188 
Q 3806 3763 3875 3091 
L 3275 3091 
Q 3206 3566 2968 3842 
Q 2731 4119 2203 4119 
Q 1600 4119 1287 3675 
Q 975 3231 975 2506 
L 975 2047 
Q 975 1375 1259 901 
Q 1544 428 2150 428 
Q 2725 428 2961 697 
Q 3197 966 3275 1447 
z
" transform="scale(0.015625)"/>
      <path id="Roboto-Regular-28" d="M 419 1850 
Q 419 2756 678 3434 
Q 938 4113 1294 4541 
Q 1650 4969 1947 5134 
L 2069 4753 
Q 1700 4475 1348 3761 
Q 997 3047 997 1813 
Q 997 625 1348 -97 
Q 1700 -819 2069 -1119 
L 1947 -1469 
Q 1650 -1306 1294 -878 
Q 938 -450 678 226 
Q 419 903 419 1850 
z
" transform="scale(0.015625)"/>
      <path id="Roboto-Regular-49" d="M 1175 4550 
L 1175 0 
L 572 0 
L 572 4550 
L 1175 4550 
z
" transform="scale(0.015625)"/>
      <path id="Roboto-Regular-29" d="M 1772 1819 
Q 1772 906 1512 228 
Q 1253 -450 895 -878 
Q 538 -1306 244 -1469 
L 122 -1119 
Q 488 -841 841 -109 
Q 1194 622 1194 1856 
Q 1194 2647 1019 3236 
Q 844 3825 594 4212 
Q 344 4600 122 4781 
L 244 5134 
Q 538 4969 895 4541 
Q 1253 4113 1512 3436 
Q 1772 2759 1772 1819 
z
" transform="scale(0.015625)"/>
     </defs>
     <use xlink:href="#Roboto-Regular-43"/>
     <use xlink:href="#Roboto-Regular-75" transform="translate(65.087891 0)"/>
     <use xlink:href="#Roboto-Regular-28" transform="translate(120.214844 0)"/>
     <use xlink:href="#Roboto-Regular-49" transform="translate(154.443359 0)"/>
     <use xlink:href="#Roboto-Regular-29" transform="translate(181.640625 0)"/>
    </g>
   </g>
  </g>
  <g id="text_25">
   <!-- Reduced -->
   <g transform="translate(114.666563 106.56) scale(0.12 -0.12)">
    <defs>
     <path id="Roboto-Bold-52" d="M 2944 0 
L 2094 1669 
L 1347 1669 
L 1347 0 
L 406 0 
L 406 4550 
L 2100 4550 
Q 2884 4550 3332 4198 
Q 3781 3847 3781 3175 
Q 3781 2681 3562 2378 
Q 3344 2075 2969 1906 
L 3953 44 
L 3953 0 
L 2944 0 
z
M 1347 3791 
L 1347 2425 
L 2100 2425 
Q 2469 2425 2655 2611 
Q 2841 2797 2841 3103 
Q 2841 3419 2659 3605 
Q 2478 3791 2100 3791 
L 1347 3791 
z
" transform="scale(0.015625)"/>
     <path id="Roboto-Bold-65" d="M 3225 550 
Q 3063 319 2731 128 
Q 2400 -63 1906 -63 
Q 1119 -63 675 414 
Q 231 891 228 1566 
L 228 1697 
Q 228 2463 654 2953 
Q 1081 3444 1806 3444 
Q 2534 3444 2915 2987 
Q 3297 2531 3297 1781 
L 3297 1397 
L 1144 1397 
Q 1191 1069 1403 867 
Q 1616 666 1963 666 
Q 2478 666 2778 1044 
L 3225 550 
z
M 1800 2716 
Q 1513 2716 1356 2522 
Q 1200 2328 1153 2016 
L 2409 2016 
L 2409 2084 
Q 2403 2356 2258 2536 
Q 2113 2716 1800 2716 
z
" transform="scale(0.015625)"/>
     <path id="Roboto-Bold-64" d="M 2438 0 
L 2394 359 
Q 2059 -63 1528 -63 
Q 900 -63 553 425 
Q 206 913 206 1650 
L 206 1716 
Q 206 2488 553 2966 
Q 900 3444 1534 3444 
Q 2028 3444 2347 3078 
L 2347 4800 
L 3253 4800 
L 3253 0 
L 2438 0 
z
M 1113 1650 
Q 1113 1244 1256 958 
Q 1400 672 1756 672 
Q 2169 672 2347 1022 
L 2347 2363 
Q 2175 2713 1763 2713 
Q 1409 2713 1261 2425 
Q 1113 2138 1113 1650 
z
" transform="scale(0.015625)"/>
     <path id="Roboto-Bold-75" d="M 2400 0 
L 2375 347 
Q 2044 -63 1450 -63 
Q 953 -63 642 228 
Q 331 519 328 1181 
L 328 3381 
L 1231 3381 
L 1231 1188 
Q 1231 906 1365 789 
Q 1500 672 1709 672 
Q 2169 672 2344 994 
L 2344 3381 
L 3250 3381 
L 3250 0 
L 2400 0 
z
" transform="scale(0.015625)"/>
     <path id="Roboto-Bold-63" d="M 1753 666 
Q 2000 666 2159 802 
Q 2319 938 2322 1169 
L 3172 1169 
Q 3166 631 2761 284 
Q 2356 -63 1769 -63 
Q 984 -63 595 432 
Q 206 928 206 1647 
L 206 1734 
Q 206 2450 593 2947 
Q 981 3444 1766 3444 
Q 2388 3444 2777 3087 
Q 3166 2731 3172 2122 
L 2322 2122 
Q 2319 2369 2172 2542 
Q 2025 2716 1750 2716 
Q 1356 2716 1234 2420 
Q 1113 2125 1113 1647 
Q 1113 1256 1233 961 
Q 1353 666 1753 666 
z
" transform="scale(0.015625)"/>
    </defs>
    <use xlink:href="#Roboto-Bold-52"/>
    <use xlink:href="#Roboto-Bold-65" transform="translate(63.818359 0)"/>
    <use xlink:href="#Roboto-Bold-64" transform="translate(117.871094 0)"/>
    <use xlink:href="#Roboto-Bold-75" transform="translate(174.267578 0)"/>
    <use xlink:href="#Roboto-Bold-63" transform="translate(230.273438 0)"/>
    <use xlink:href="#Roboto-Bold-65" transform="translate(282.470703 0)"/>
    <use xlink:href="#Roboto-Bold-64" transform="translate(336.523438 0)"/>
   </g>
  </g>
  <g id="text_26">
   <!-- Oxidized -->
   <g transform="translate(404.235 106.56) scale(0.12 -0.12)">
    <defs>
     <path id="Roboto-Bold-4f" d="M 4147 2172 
Q 4147 1131 3608 534 
Q 3069 -63 2212 -63 
Q 1356 -63 812 534 
Q 269 1131 269 2172 
L 269 2375 
Q 269 3416 809 4014 
Q 1350 4613 2206 4613 
Q 3063 4613 3605 4014 
Q 4147 3416 4147 2375 
L 4147 2172 
z
M 3197 2381 
Q 3197 3094 2937 3466 
Q 2678 3838 2206 3838 
Q 1734 3838 1478 3470 
Q 1222 3103 1219 2397 
L 1219 2172 
Q 1219 1463 1478 1086 
Q 1738 709 2213 709 
Q 2684 709 2939 1081 
Q 3194 1453 3197 2156 
L 3197 2381 
z
" transform="scale(0.015625)"/>
     <path id="Roboto-Bold-78" d="M 1081 3381 
L 1634 2375 
L 2203 3381 
L 3169 3381 
L 2206 1728 
L 3209 0 
L 2244 0 
L 1638 1066 
L 1041 0 
L 69 0 
L 1072 1728 
L 109 3381 
L 1081 3381 
z
" transform="scale(0.015625)"/>
     <path id="Roboto-Bold-69" d="M 341 4256 
Q 341 4459 478 4592 
Q 616 4725 847 4725 
Q 1078 4725 1215 4592 
Q 1353 4459 1353 4256 
Q 1353 4056 1215 3923 
Q 1078 3791 847 3791 
Q 616 3791 478 3923 
Q 341 4056 341 4256 
z
M 1303 3381 
L 1303 0 
L 397 0 
L 397 3381 
L 1303 3381 
z
" transform="scale(0.015625)"/>
     <path id="Roboto-Bold-7a" d="M 281 2653 
L 281 3381 
L 2991 3381 
L 2991 2850 
L 1384 728 
L 3038 728 
L 3038 0 
L 231 0 
L 231 550 
L 1828 2653 
L 281 2653 
z
" transform="scale(0.015625)"/>
    </defs>
    <use xlink:href="#Roboto-Bold-4f"/>
    <use xlink:href="#Roboto-Bold-78" transform="translate(69.042969 0)"/>
    <use xlink:href="#Roboto-Bold-69" transform="translate(119.970703 0)"/>
    <use xlink:href="#Roboto-Bold-64" transform="translate(146.484375 0)"/>
    <use xlink:href="#Roboto-Bold-69" transform="translate(202.880859 0)"/>
    <use xlink:href="#Roboto-Bold-7a" transform="translate(229.394531 0)"/>
    <use xlink:href="#Roboto-Bold-65" transform="translate(280.322266 0)"/>
    <use xlink:href="#Roboto-Bold-64" transform="translate(334.375 0)"/>
   </g>
  </g>
  <g id="text_27">
   <!-- Cu(I) -->
   <g transform="translate(712.497187 106.56) scale(0.12 -0.12)">
    <defs>
     <path id="Roboto-Bold-43" d="M 3044 1516 
L 3981 1516 
Q 3934 822 3461 379 
Q 2988 -63 2150 -63 
Q 1275 -63 772 526 
Q 269 1116 269 2125 
L 269 2422 
Q 269 3431 784 4023 
Q 1300 4616 2159 4616 
Q 3013 4616 3466 4161 
Q 3919 3706 3984 3006 
L 3047 3006 
Q 3016 3413 2820 3630 
Q 2625 3847 2159 3847 
Q 1247 3847 1222 2500 
L 1222 2125 
Q 1222 1419 1436 1062 
Q 1650 706 2150 706 
Q 2594 706 2801 907 
Q 3009 1109 3044 1516 
z
" transform="scale(0.015625)"/>
     <path id="Roboto-Bold-28" d="M 391 1850 
Q 391 2731 633 3392 
Q 875 4053 1234 4473 
Q 1594 4894 1947 5053 
L 2122 4566 
Q 1772 4303 1465 3661 
Q 1159 3019 1153 1906 
L 1153 1772 
Q 1153 628 1461 -23 
Q 1769 -675 2122 -944 
L 1947 -1422 
Q 1594 -1266 1234 -845 
Q 875 -425 633 237 
Q 391 900 391 1778 
L 391 1850 
z
" transform="scale(0.015625)"/>
     <path id="Roboto-Bold-49" d="M 1403 4550 
L 1403 0 
L 466 0 
L 466 4550 
L 1403 4550 
z
" transform="scale(0.015625)"/>
     <path id="Roboto-Bold-29" d="M 1906 1778 
Q 1906 928 1656 264 
Q 1406 -400 1034 -833 
Q 663 -1266 300 -1422 
L 125 -944 
Q 472 -684 780 -37 
Q 1088 609 1094 1722 
L 1094 1856 
Q 1094 3000 780 3656 
Q 466 4313 125 4572 
L 300 5053 
Q 663 4894 1034 4461 
Q 1406 4028 1656 3364 
Q 1906 2700 1906 1847 
L 1906 1778 
z
" transform="scale(0.015625)"/>
    </defs>
    <use xlink:href="#Roboto-Bold-43"/>
    <use xlink:href="#Roboto-Bold-75" transform="translate(65.478516 0)"/>
    <use xlink:href="#Roboto-Bold-28" transform="translate(121.484375 0)"/>
    <use xlink:href="#Roboto-Bold-49" transform="translate(156.591797 0)"/>
    <use xlink:href="#Roboto-Bold-29" transform="translate(185.791016 0)"/>
   </g>
  </g>
 </g>
 <defs>
  <clipPath id="pac9f2375af">
   <rect x="0" y="2.88" width="279.301224" height="270.72"/>
  </clipPath>
  <clipPath id="p4b2cad362b">
   <rect x="288.029388" y="2.88" width="279.301224" height="270.72"/>
  </clipPath>
  <clipPath id="pd3439a265c">
   <rect x="576.058776" y="2.88" width="279.301224" height="270.72"/>
  </clipPath>
 </defs>
</svg>
