<?xml version="1.0" encoding="utf-8" standalone="no"?>
<!DOCTYPE svg PUBLIC "-//W3C//DTD SVG 1.1//EN"
  "http://www.w3.org/Graphics/SVG/1.1/DTD/svg11.dtd">
<svg xmlns:xlink="http://www.w3.org/1999/xlink" width="864pt" height="288pt" viewBox="0 0 864 288" xmlns="http://www.w3.org/2000/svg" version="1.1">
 <metadata>
  <rdf:RDF xmlns:dc="http://purl.org/dc/elements/1.1/" xmlns:cc="http://creativecommons.org/ns#" xmlns:rdf="http://www.w3.org/1999/02/22-rdf-syntax-ns#">
   <cc:Work>
    <dc:type rdf:resource="http://purl.org/dc/dcmitype/StillImage"/>
    <dc:date>2025-04-01T23:05:58.959238</dc:date>
    <dc:format>image/svg+xml</dc:format>
    <dc:creator>
     <cc:Agent>
      <dc:title>Matplotlib v3.10.1, https://matplotlib.org/</dc:title>
     </cc:Agent>
    </dc:creator>
   </cc:Work>
  </rdf:RDF>
 </metadata>
 <defs>
  <style type="text/css">*{stroke-linejoin: round; stroke-linecap: butt}</style>
 </defs>
 <g id="figure_1">
  <g id="patch_1">
   <path d="M 0 288 
L 864 288 
L 864 0 
L 0 0 
z
" style="fill: #ffffff"/>
  </g>
  <g id="axes_1">
   <g id="patch_2">
    <path d="M 257.674845 129.738991 
Q 261.215124 103.379577 244.160713 84.003111 
" clip-path="url(#p36500ecc74)" style="fill: none; stroke: #000000; stroke-width: 0.7; stroke-linecap: round"/>
    <path d="M 245.261718 88.173807 
L 244.160713 84.003111 
L 248.157873 85.624724 
" clip-path="url(#p36500ecc74)" style="fill: none; stroke: #000000; stroke-width: 0.7; stroke-linecap: round"/>
   </g>
   <g id="patch_3">
    <path d="M 235.903198 85.75673 
Q 232.939575 107.822606 243.527608 123.559766 
" clip-path="url(#p36500ecc74)" style="fill: none; stroke: #000000; stroke-width: 1.99112; stroke-linecap: round"/>
    <path d="M 242.794752 117.892148 
L 243.527608 123.559766 
L 238.5538 120.74548 
" clip-path="url(#p36500ecc74)" style="fill: none; stroke: #000000; stroke-width: 1.99112; stroke-linecap: round"/>
   </g>
   <g id="patch_4">
    <path d="M 234.296436 69.235193 
Q 223.501879 46.46063 203.137316 39.590776 
" clip-path="url(#p36500ecc74)" style="fill: none; stroke: #000000; stroke-width: 2.786316; stroke-linecap: round"/>
    <path d="M 207.765031 44.251976 
L 203.137316 39.590776 
L 209.642905 38.685325 
" clip-path="url(#p36500ecc74)" style="fill: none; stroke: #000000; stroke-width: 2.786316; stroke-linecap: round"/>
   </g>
   <g id="patch_5">
    <path d="M 229.632968 73.750368 
Q 180.777937 52.124513 132.638553 30.815441 
" clip-path="url(#p36500ecc74)" style="fill: none; stroke: #000000; stroke-width: 0.7; stroke-linecap: round"/>
    <path d="M 135.253066 33.980543 
L 132.638553 30.815441 
L 136.739343 30.622892 
" clip-path="url(#p36500ecc74)" style="fill: none; stroke: #000000; stroke-width: 0.7; stroke-linecap: round"/>
   </g>
   <g id="patch_6">
    <path d="M 230.91808 82.827367 
Q 151.108551 149.857994 71.898316 216.385284 
" clip-path="url(#p36500ecc74)" style="fill: none; stroke: #000000; stroke-width: 0.7; stroke-linecap: round"/>
    <path d="M 76.082931 215.383639 
L 71.898316 216.385284 
L 73.607769 212.436605 
" clip-path="url(#p36500ecc74)" style="fill: none; stroke: #000000; stroke-width: 0.7; stroke-linecap: round"/>
   </g>
   <g id="patch_7">
    <path d="M 191.250238 43.654043 
Q 202.889851 68.211519 227.689698 75.048723 
" clip-path="url(#p36500ecc74)" style="fill: none; stroke: #000000; stroke-width: 1.297818; stroke-linecap: round"/>
    <path d="M 223.99451 71.72409 
L 227.689698 75.048723 
L 222.812879 76.010093 
" clip-path="url(#p36500ecc74)" style="fill: none; stroke: #000000; stroke-width: 1.297818; stroke-linecap: round"/>
   </g>
   <g id="patch_8">
    <path d="M 180.975996 30.56122 
Q 158.11988 15.9268 132.942909 23.129858 
" clip-path="url(#p36500ecc74)" style="fill: none; stroke: #000000; stroke-width: 0.7; stroke-linecap: round"/>
    <path d="M 137.029906 23.894673 
L 132.942909 23.129858 
L 136.006959 20.31915 
" clip-path="url(#p36500ecc74)" style="fill: none; stroke: #000000; stroke-width: 0.7; stroke-linecap: round"/>
   </g>
   <g id="patch_9">
    <path d="M 130.107409 31.660437 
Q 151.728945 45.504374 175.336716 39.798259 
" clip-path="url(#p36500ecc74)" style="fill: none; stroke: #000000; stroke-width: 0.703031; stroke-linecap: round"/>
    <path d="M 171.11508 38.825403 
L 175.336716 39.798259 
L 172.02545 42.591854 
" clip-path="url(#p36500ecc74)" style="fill: none; stroke: #000000; stroke-width: 0.703031; stroke-linecap: round"/>
   </g>
   <g id="patch_10">
    <path d="M 114.446609 25.979595 
Q 87.244512 25.606535 69.962286 44.886222 
" clip-path="url(#p36500ecc74)" style="fill: none; stroke: #000000; stroke-width: 1.094845; stroke-linecap: round"/>
    <path d="M 74.382505 43.13952 
L 69.962286 44.886222 
L 71.217056 40.302026 
" clip-path="url(#p36500ecc74)" style="fill: none; stroke: #000000; stroke-width: 1.094845; stroke-linecap: round"/>
   </g>
   <g id="patch_11">
    <path d="M 72.08291 53.599988 
Q 99.041424 53.969707 116.192875 35.095413 
" clip-path="url(#p36500ecc74)" style="fill: none; stroke: #000000; stroke-width: 1.15245; stroke-linecap: round"/>
    <path d="M 111.703241 36.834385 
L 116.192875 35.095413 
L 114.890271 39.730504 
" clip-path="url(#p36500ecc74)" style="fill: none; stroke: #000000; stroke-width: 1.15245; stroke-linecap: round"/>
   </g>
   <g id="patch_12">
    <path d="M 55.839334 57.136296 
Q 33.700716 70.917916 29.647819 93.327865 
" clip-path="url(#p36500ecc74)" style="fill: none; stroke: #000000; stroke-width: 2.729529; stroke-linecap: round"/>
    <path d="M 33.547359 88.11834 
L 29.647819 93.327865 
L 27.819922 87.082518 
" clip-path="url(#p36500ecc74)" style="fill: none; stroke: #000000; stroke-width: 2.729529; stroke-linecap: round"/>
   </g>
   <g id="patch_13">
    <path d="M 35.590662 102.315708 
Q 58.160562 88.265608 62.047742 64.83833 
" clip-path="url(#p36500ecc74)" style="fill: none; stroke: #000000; stroke-width: 2.458611; stroke-linecap: round"/>
    <path d="M 58.394961 69.868528 
L 62.047742 64.83833 
L 63.880232 70.778674 
" clip-path="url(#p36500ecc74)" style="fill: none; stroke: #000000; stroke-width: 2.458611; stroke-linecap: round"/>
   </g>
   <g id="patch_14">
    <path d="M 36.566264 168.824115 
Q 137.84577 154.709716 238.350143 140.70334 
" clip-path="url(#p36500ecc74)" style="fill: none; stroke: #000000; stroke-width: 0.7; stroke-linecap: round"/>
    <path d="M 234.382275 139.365586 
L 238.350143 140.70334 
L 234.899219 143.074982 
" clip-path="url(#p36500ecc74)" style="fill: none; stroke: #000000; stroke-width: 0.7; stroke-linecap: round"/>
   </g>
   <g id="patch_15">
    <path d="M 35.909768 166.513333 
Q 132.772521 123.636693 228.919629 81.076835 
" clip-path="url(#p36500ecc74)" style="fill: none; stroke: #000000; stroke-width: 0.7; stroke-linecap: round"/>
    <path d="M 224.600074 80.874014 
L 228.919629 81.076835 
L 226.165639 84.410786 
" clip-path="url(#p36500ecc74)" style="fill: none; stroke: #000000; stroke-width: 0.7; stroke-linecap: round"/>
   </g>
   <g id="patch_16">
    <path d="M 32.773417 162.803658 
Q 75.261652 98.721924 117.048083 35.698666 
" clip-path="url(#p36500ecc74)" style="fill: none; stroke: #000000; stroke-width: 1.135924; stroke-linecap: round"/>
    <path d="M 112.889211 38.08909 
L 117.048083 35.698666 
L 116.465099 40.460018 
" clip-path="url(#p36500ecc74)" style="fill: none; stroke: #000000; stroke-width: 1.135924; stroke-linecap: round"/>
   </g>
   <g id="patch_17">
    <path d="M 32.773295 177.235022 
Q 45.272237 196.086215 55.204552 211.066361 
" clip-path="url(#p36500ecc74)" style="fill: none; stroke: #000000; stroke-width: 4.154283; stroke-linecap: round"/>
    <path d="M 54.227844 203.089381 
L 55.204552 211.066361 
L 48.236943 207.061539 
" clip-path="url(#p36500ecc74)" style="fill: none; stroke: #000000; stroke-width: 4.154283; stroke-linecap: round"/>
   </g>
   <g id="patch_18">
    <path d="M 34.62067 175.589149 
Q 75.537912 209.954832 115.85586 243.817178 
" clip-path="url(#p36500ecc74)" style="fill: none; stroke: #000000; stroke-width: 0.7; stroke-linecap: round"/>
    <path d="M 114.13787 239.848778 
L 115.85586 243.817178 
L 111.650346 242.81053 
" clip-path="url(#p36500ecc74)" style="fill: none; stroke: #000000; stroke-width: 0.7; stroke-linecap: round"/>
   </g>
   <g id="patch_19">
    <path d="M 68.80061 230.295041 
Q 86.987099 250.879506 113.67068 250.511115 
" clip-path="url(#p36500ecc74)" style="fill: none; stroke: #000000; stroke-width: 0.7; stroke-linecap: round"/>
    <path d="M 109.814318 248.649028 
L 113.67068 250.511115 
L 109.867194 252.478953 
" clip-path="url(#p36500ecc74)" style="fill: none; stroke: #000000; stroke-width: 0.7; stroke-linecap: round"/>
   </g>
   <g id="patch_20">
    <path d="M 129.719683 244.322553 
Q 186.338449 196.769449 242.357921 149.719681 
" clip-path="url(#p36500ecc74)" style="fill: none; stroke: #000000; stroke-width: 0.7; stroke-linecap: round"/>
    <path d="M 238.278632 150.696115 
L 242.357921 149.719681 
L 240.691495 153.568972 
" clip-path="url(#p36500ecc74)" style="fill: none; stroke: #000000; stroke-width: 0.7; stroke-linecap: round"/>
   </g>
   <g id="patch_21">
    <path d="M 117.728882 243.085368 
Q 100.077478 223.106541 74.767123 222.885392 
" clip-path="url(#p36500ecc74)" style="fill: none; stroke: #000000; stroke-width: 0.968407; stroke-linecap: round"/>
    <path d="M 78.878595 224.98623 
L 74.767123 222.885392 
L 78.914676 220.856717 
" clip-path="url(#p36500ecc74)" style="fill: none; stroke: #000000; stroke-width: 0.968407; stroke-linecap: round"/>
   </g>
   <g id="PathCollection_1">
    <path d="M 256.026122 156.034194 
C 260.745198 156.034194 265.271627 154.159285 268.608518 150.822395 
C 271.945408 147.485505 273.820316 142.959075 273.820316 138.24 
C 273.820316 133.520924 271.945408 128.994495 268.608518 125.657605 
C 265.271627 122.320714 260.745198 120.445806 256.026122 120.445806 
C 251.307047 120.445806 246.780618 122.320714 243.443727 125.657605 
C 240.106837 128.994495 238.231929 133.520924 238.231929 138.24 
C 238.231929 142.959075 240.106837 147.485505 243.443727 150.822395 
C 246.780618 154.159285 251.307047 156.034194 256.026122 156.034194 
z
" clip-path="url(#p36500ecc74)" style="fill: #1e2e79; stroke: #000000"/>
    <path d="M 237.55192 84.326789 
C 239.427189 84.326789 241.225904 83.581737 242.55192 82.255721 
C 243.877935 80.929706 244.622988 79.13099 244.622988 77.255721 
C 244.622988 75.380452 243.877935 73.581737 242.55192 72.255721 
C 241.225904 70.929706 239.427189 70.184653 237.55192 70.184653 
C 235.676651 70.184653 233.877935 70.929706 232.55192 72.255721 
C 231.225904 73.581737 230.480852 75.380452 230.480852 77.255721 
C 230.480852 79.13099 231.225904 80.929706 232.55192 82.255721 
C 233.877935 83.581737 235.676651 84.326789 237.55192 84.326789 
z
" clip-path="url(#p36500ecc74)" style="fill: #1e2e79; stroke: #000000"/>
    <path d="M 187.994754 48.713525 
C 191.463614 48.713525 194.790864 47.335332 197.243718 44.882478 
C 199.696572 42.429624 201.074765 39.102374 201.074765 35.633514 
C 201.074765 32.164655 199.696572 28.837404 197.243718 26.38455 
C 194.790864 23.931697 191.463614 22.553504 187.994754 22.553504 
C 184.525895 22.553504 181.198644 23.931697 178.74579 26.38455 
C 176.292937 28.837404 174.914744 32.164655 174.914744 35.633514 
C 174.914744 39.102374 176.292937 42.429624 178.74579 44.882478 
C 181.198644 47.335332 184.525895 48.713525 187.994754 48.713525 
z
" clip-path="url(#p36500ecc74)" style="fill: #1e2e79; stroke: #000000"/>
    <path d="M 123.088651 36.662863 
C 125.760498 36.662863 128.323273 35.601327 130.212555 33.712046 
C 132.101836 31.822765 133.163372 29.25999 133.163372 26.588143 
C 133.163372 23.916295 132.101836 21.35352 130.212555 19.464239 
C 128.323273 17.574958 125.760498 16.513422 123.088651 16.513422 
C 120.416804 16.513422 117.854029 17.574958 115.964748 19.464239 
C 114.075467 21.35352 113.01393 23.916295 113.01393 26.588143 
C 113.01393 29.25999 114.075467 31.822765 115.964748 33.712046 
C 117.854029 35.601327 120.416804 36.662863 123.088651 36.662863 
z
" clip-path="url(#p36500ecc74)" style="fill: #1e2e79; stroke: #000000"/>
    <path d="M 63.440868 62.562926 
C 65.979256 62.562926 68.414019 61.554414 70.20893 59.759503 
C 72.003841 57.964592 73.012354 55.529828 73.012354 52.99144 
C 73.012354 50.453053 72.003841 48.018289 70.20893 46.223378 
C 68.414019 44.428467 65.979256 43.419955 63.440868 43.419955 
C 60.90248 43.419955 58.467717 44.428467 56.672806 46.223378 
C 54.877895 48.018289 53.869383 50.453053 53.869383 52.99144 
C 53.869383 55.529828 54.877895 57.964592 56.672806 59.759503 
C 58.467717 61.554414 60.90248 62.562926 63.440868 62.562926 
z
" clip-path="url(#p36500ecc74)" style="fill: #1e2e79; stroke: #000000"/>
    <path d="M 27.989128 117.085064 
C 30.806779 117.085064 33.509405 115.965599 35.501784 113.97322 
C 37.494164 111.98084 38.613628 109.278214 38.613628 106.460564 
C 38.613628 103.642913 37.494164 100.940287 35.501784 98.947908 
C 33.509405 96.955528 30.806779 95.836064 27.989128 95.836064 
C 25.171478 95.836064 22.468852 96.955528 20.476472 98.947908 
C 18.484093 100.940287 17.364628 103.642913 17.364628 106.460564 
C 17.364628 109.278214 18.484093 111.98084 20.476472 113.97322 
C 22.468852 115.965599 25.171478 117.085064 27.989128 117.085064 
z
" clip-path="url(#p36500ecc74)" style="fill: #1e2e79; stroke: #000000"/>
    <path d="M 27.989128 177.0905 
C 29.864397 177.0905 31.663113 176.345448 32.989128 175.019432 
C 34.315144 173.693417 35.060196 171.894701 35.060196 170.019432 
C 35.060196 168.144163 34.315144 166.345448 32.989128 165.019432 
C 31.663113 163.693417 29.864397 162.948364 27.989128 162.948364 
C 26.113859 162.948364 24.315144 163.693417 22.989128 165.019432 
C 21.663113 166.345448 20.91806 168.144163 20.91806 170.019432 
C 20.91806 171.894701 21.663113 173.693417 22.989128 175.019432 
C 24.315144 176.345448 26.113859 177.0905 27.989128 177.0905 
z
" clip-path="url(#p36500ecc74)" style="fill: #1e2e79; stroke: #000000"/>
    <path d="M 63.440861 234.186527 
C 66.277997 234.186527 68.999314 233.059321 71.005472 231.053163 
C 73.01163 229.047005 74.138836 226.325688 74.138836 223.488552 
C 74.138836 220.651416 73.01163 217.9301 71.005472 215.923942 
C 68.999314 213.917783 66.277997 212.790577 63.440861 212.790577 
C 60.603725 212.790577 57.882409 213.917783 55.876251 215.923942 
C 53.870092 217.9301 52.742886 220.651416 52.742886 223.488552 
C 52.742886 226.325688 53.870092 229.047005 55.876251 231.053163 
C 57.882409 233.059321 60.603725 234.186527 63.440861 234.186527 
z
" clip-path="url(#p36500ecc74)" style="fill: #1e2e79; stroke: #000000"/>
    <path d="M 123.08863 257.205771 
C 125.028303 257.205771 126.888793 256.43513 128.260348 255.063575 
C 129.631904 253.692019 130.402544 251.831529 130.402544 249.891857 
C 130.402544 247.952184 129.631904 246.091695 128.260348 244.720139 
C 126.888793 243.348583 125.028303 242.577943 123.08863 242.577943 
C 121.148958 242.577943 119.288468 243.348583 117.916913 244.720139 
C 116.545357 246.091695 115.774717 247.952184 115.774717 249.891857 
C 115.774717 251.831529 116.545357 253.692019 117.916913 255.063575 
C 119.288468 256.43513 121.148958 257.205771 123.08863 257.205771 
z
" clip-path="url(#p36500ecc74)" style="fill: #1e2e79; stroke: #000000"/>
    <path d="M 187.994758 247.917553 
C 189.870027 247.917553 191.668742 247.172501 192.994758 245.846485 
C 194.320773 244.52047 195.065826 242.721754 195.065826 240.846485 
C 195.065826 238.971216 194.320773 237.172501 192.994758 235.846485 
C 191.668742 234.52047 189.870027 233.775417 187.994758 233.775417 
C 186.119489 233.775417 184.320773 234.52047 182.994758 235.846485 
C 181.668742 237.172501 180.92369 238.971216 180.92369 240.846485 
C 180.92369 242.721754 181.668742 244.52047 182.994758 245.846485 
C 184.320773 247.172501 186.119489 247.917553 187.994758 247.917553 
z
" clip-path="url(#p36500ecc74)" style="fill: #1e2e79; stroke: #000000"/>
    <path d="M 237.551913 206.29536 
C 239.427182 206.29536 241.225897 205.550307 242.551913 204.224292 
C 243.877928 202.898276 244.622981 201.099561 244.622981 199.224292 
C 244.622981 197.349023 243.877928 195.550307 242.551913 194.224292 
C 241.225897 192.898276 239.427182 192.153224 237.551913 192.153224 
C 235.676644 192.153224 233.877928 192.898276 232.551913 194.224292 
C 231.225897 195.550307 230.480845 197.349023 230.480845 199.224292 
C 230.480845 201.099561 231.225897 202.898276 232.551913 204.224292 
C 233.877928 205.550307 235.676644 206.29536 237.551913 206.29536 
z
" clip-path="url(#p36500ecc74)" style="fill: #1e2e79; stroke: #000000"/>
   </g>
   <g id="text_1">
    <g clip-path="url(#p36500ecc74)">
     <!-- A -->
     <g style="fill: #ffffff" transform="translate(252.156591 140.999375) scale(0.1 -0.1)">
      <defs>
       <path id="DejaVuSans-Bold-41" d="M 3419 850 
L 1538 850 
L 1241 0 
L 31 0 
L 1759 4666 
L 3194 4666 
L 4922 0 
L 3713 0 
L 3419 850 
z
M 1838 1716 
L 3116 1716 
L 2478 3572 
L 1838 1716 
z
" transform="scale(0.015625)"/>
      </defs>
      <use xlink:href="#DejaVuSans-Bold-41"/>
     </g>
    </g>
   </g>
   <g id="text_2">
    <g clip-path="url(#p36500ecc74)">
     <!-- B -->
     <g style="fill: #ffffff" transform="translate(233.740982 80.015096) scale(0.1 -0.1)">
      <defs>
       <path id="DejaVuSans-Bold-42" d="M 2456 2859 
Q 2741 2859 2887 2984 
Q 3034 3109 3034 3353 
Q 3034 3594 2887 3720 
Q 2741 3847 2456 3847 
L 1791 3847 
L 1791 2859 
L 2456 2859 
z
M 2497 819 
Q 2859 819 3042 972 
Q 3225 1125 3225 1434 
Q 3225 1738 3044 1889 
Q 2863 2041 2497 2041 
L 1791 2041 
L 1791 819 
L 2497 819 
z
M 3616 2497 
Q 4003 2384 4215 2081 
Q 4428 1778 4428 1338 
Q 4428 663 3972 331 
Q 3516 0 2584 0 
L 588 0 
L 588 4666 
L 2394 4666 
Q 3366 4666 3802 4372 
Q 4238 4078 4238 3431 
Q 4238 3091 4078 2852 
Q 3919 2613 3616 2497 
z
" transform="scale(0.015625)"/>
      </defs>
      <use xlink:href="#DejaVuSans-Bold-42"/>
     </g>
    </g>
   </g>
   <g id="text_3">
    <g clip-path="url(#p36500ecc74)">
     <!-- C -->
     <g style="fill: #ffffff" transform="translate(184.325223 38.392889) scale(0.1 -0.1)">
      <defs>
       <path id="DejaVuSans-Bold-43" d="M 4288 256 
Q 3956 84 3597 -3 
Q 3238 -91 2847 -91 
Q 1681 -91 1000 561 
Q 319 1213 319 2328 
Q 319 3447 1000 4098 
Q 1681 4750 2847 4750 
Q 3238 4750 3597 4662 
Q 3956 4575 4288 4403 
L 4288 3438 
Q 3953 3666 3628 3772 
Q 3303 3878 2944 3878 
Q 2300 3878 1931 3465 
Q 1563 3053 1563 2328 
Q 1563 1606 1931 1193 
Q 2300 781 2944 781 
Q 3303 781 3628 887 
Q 3953 994 4288 1222 
L 4288 256 
z
" transform="scale(0.015625)"/>
      </defs>
      <use xlink:href="#DejaVuSans-Bold-43"/>
     </g>
    </g>
   </g>
   <g id="text_4">
    <g clip-path="url(#p36500ecc74)">
     <!-- D -->
     <g style="fill: #ffffff" transform="translate(118.93787 29.347518) scale(0.1 -0.1)">
      <defs>
       <path id="DejaVuSans-Bold-44" d="M 1791 3756 
L 1791 909 
L 2222 909 
Q 2959 909 3348 1275 
Q 3738 1641 3738 2338 
Q 3738 3031 3350 3393 
Q 2963 3756 2222 3756 
L 1791 3756 
z
M 588 4666 
L 1856 4666 
Q 2919 4666 3439 4514 
Q 3959 4363 4331 4000 
Q 4659 3684 4818 3271 
Q 4978 2859 4978 2338 
Q 4978 1809 4818 1395 
Q 4659 981 4331 666 
Q 3956 303 3431 151 
Q 2906 0 1856 0 
L 588 0 
L 588 4666 
z
" transform="scale(0.015625)"/>
      </defs>
      <use xlink:href="#DejaVuSans-Bold-44"/>
     </g>
    </g>
   </g>
   <g id="text_5">
    <g clip-path="url(#p36500ecc74)">
     <!-- E -->
     <g style="fill: #ffffff" transform="translate(60.025243 55.750815) scale(0.1 -0.1)">
      <defs>
       <path id="DejaVuSans-Bold-45" d="M 588 4666 
L 3834 4666 
L 3834 3756 
L 1791 3756 
L 1791 2888 
L 3713 2888 
L 3713 1978 
L 1791 1978 
L 1791 909 
L 3903 909 
L 3903 0 
L 588 0 
L 588 4666 
z
" transform="scale(0.015625)"/>
      </defs>
      <use xlink:href="#DejaVuSans-Bold-45"/>
     </g>
    </g>
   </g>
   <g id="text_6">
    <g clip-path="url(#p36500ecc74)">
     <!-- F -->
     <g style="fill: #ffffff" transform="translate(24.573503 109.219939) scale(0.1 -0.1)">
      <defs>
       <path id="DejaVuSans-Bold-46" d="M 588 4666 
L 3834 4666 
L 3834 3756 
L 1791 3756 
L 1791 2888 
L 3713 2888 
L 3713 1978 
L 1791 1978 
L 1791 0 
L 588 0 
L 588 4666 
z
" transform="scale(0.015625)"/>
      </defs>
      <use xlink:href="#DejaVuSans-Bold-46"/>
     </g>
    </g>
   </g>
   <g id="text_7">
    <g clip-path="url(#p36500ecc74)">
     <!-- G -->
     <g style="fill: #ffffff" transform="translate(23.885222 172.778807) scale(0.1 -0.1)">
      <defs>
       <path id="DejaVuSans-Bold-47" d="M 4781 347 
Q 4331 128 3847 18 
Q 3363 -91 2847 -91 
Q 1681 -91 1000 561 
Q 319 1213 319 2328 
Q 319 3456 1012 4103 
Q 1706 4750 2913 4750 
Q 3378 4750 3804 4662 
Q 4231 4575 4609 4403 
L 4609 3438 
Q 4219 3659 3833 3768 
Q 3447 3878 3059 3878 
Q 2341 3878 1952 3476 
Q 1563 3075 1563 2328 
Q 1563 1588 1938 1184 
Q 2313 781 3003 781 
Q 3191 781 3352 804 
Q 3513 828 3641 878 
L 3641 1784 
L 2906 1784 
L 2906 2591 
L 4781 2591 
L 4781 347 
z
" transform="scale(0.015625)"/>
      </defs>
      <use xlink:href="#DejaVuSans-Bold-47"/>
     </g>
    </g>
   </g>
   <g id="text_8">
    <g clip-path="url(#p36500ecc74)">
     <!-- H -->
     <g style="fill: #ffffff" transform="translate(59.256486 226.247927) scale(0.1 -0.1)">
      <defs>
       <path id="DejaVuSans-Bold-48" d="M 588 4666 
L 1791 4666 
L 1791 2888 
L 3566 2888 
L 3566 4666 
L 4769 4666 
L 4769 0 
L 3566 0 
L 3566 1978 
L 1791 1978 
L 1791 0 
L 588 0 
L 588 4666 
z
" transform="scale(0.015625)"/>
      </defs>
      <use xlink:href="#DejaVuSans-Bold-48"/>
     </g>
    </g>
   </g>
   <g id="text_9">
    <g clip-path="url(#p36500ecc74)">
     <!-- I -->
     <g style="fill: #ffffff" transform="translate(121.228474 252.651232) scale(0.1 -0.1)">
      <defs>
       <path id="DejaVuSans-Bold-49" d="M 588 4666 
L 1791 4666 
L 1791 0 
L 588 0 
L 588 4666 
z
" transform="scale(0.015625)"/>
      </defs>
      <use xlink:href="#DejaVuSans-Bold-49"/>
     </g>
    </g>
   </g>
   <g id="text_10">
    <g clip-path="url(#p36500ecc74)">
     <!-- J -->
     <g style="fill: #ffffff" transform="translate(186.134602 243.60586) scale(0.1 -0.1)">
      <defs>
       <path id="DejaVuSans-Bold-4a" d="M 588 4666 
L 1791 4666 
L 1791 453 
Q 1791 -419 1317 -850 
Q 844 -1281 -116 -1281 
L -359 -1281 
L -359 -372 
L -172 -372 
Q 203 -372 395 -162 
Q 588 47 588 453 
L 588 4666 
z
" transform="scale(0.015625)"/>
      </defs>
      <use xlink:href="#DejaVuSans-Bold-4a"/>
     </g>
    </g>
   </g>
   <g id="text_11">
    <g clip-path="url(#p36500ecc74)">
     <!-- K -->
     <g style="fill: #ffffff" transform="translate(233.677694 201.983667) scale(0.1 -0.1)">
      <defs>
       <path id="DejaVuSans-Bold-4b" d="M 588 4666 
L 1791 4666 
L 1791 2963 
L 3525 4666 
L 4922 4666 
L 2675 2456 
L 5153 0 
L 3647 0 
L 1791 1838 
L 1791 0 
L 588 0 
L 588 4666 
z
" transform="scale(0.015625)"/>
      </defs>
      <use xlink:href="#DejaVuSans-Bold-4b"/>
     </g>
    </g>
   </g>
   <g id="text_12">
    <!-- Reduced -->
    <g transform="translate(121.029612 -3.12) scale(0.096 -0.096)">
     <defs>
      <path id="Roboto-Regular-52" d="M 3188 0 
L 2200 1844 
L 1131 1844 
L 1131 0 
L 528 0 
L 528 4550 
L 2034 4550 
Q 2800 4550 3214 4200 
Q 3628 3850 3628 3184 
Q 3628 2759 3398 2442 
Q 3169 2125 2763 1969 
L 3831 38 
L 3831 0 
L 3188 0 
z
M 1131 4056 
L 1131 2334 
L 2053 2334 
Q 2538 2334 2783 2582 
Q 3028 2831 3028 3184 
Q 3028 3578 2792 3817 
Q 2556 4056 2034 4056 
L 1131 4056 
z
" transform="scale(0.015625)"/>
      <path id="Roboto-Regular-65" d="M 3116 591 
Q 2950 341 2647 139 
Q 2344 -63 1844 -63 
Q 1138 -63 714 396 
Q 291 856 291 1572 
L 291 1703 
Q 291 2256 502 2645 
Q 713 3034 1050 3239 
Q 1388 3444 1769 3444 
Q 2494 3444 2826 2970 
Q 3159 2497 3159 1788 
L 3159 1528 
L 872 1528 
Q 884 1063 1148 736 
Q 1413 409 1875 409 
Q 2181 409 2393 534 
Q 2606 659 2766 869 
L 3116 591 
z
M 1769 2969 
Q 1425 2969 1187 2719 
Q 950 2469 891 2000 
L 2581 2000 
L 2581 2044 
Q 2559 2381 2386 2675 
Q 2213 2969 1769 2969 
z
" transform="scale(0.015625)"/>
      <path id="Roboto-Regular-64" d="M 2622 0 
L 2594 363 
Q 2247 -63 1628 -63 
Q 1034 -63 668 418 
Q 303 900 297 1628 
L 297 1719 
Q 297 2494 664 2969 
Q 1031 3444 1634 3444 
Q 2231 3444 2572 3044 
L 2572 4800 
L 3153 4800 
L 3153 0 
L 2622 0 
z
M 878 1653 
Q 878 1150 1090 789 
Q 1303 428 1772 428 
Q 2309 428 2572 919 
L 2572 2475 
Q 2313 2956 1778 2956 
Q 1306 2956 1092 2589 
Q 878 2222 878 1719 
L 878 1653 
z
" transform="scale(0.015625)"/>
      <path id="Roboto-Regular-75" d="M 2538 0 
L 2525 334 
Q 2194 -63 1538 -63 
Q 1041 -63 734 231 
Q 428 525 428 1200 
L 428 3381 
L 1006 3381 
L 1006 1194 
Q 1006 738 1198 583 
Q 1391 428 1628 428 
Q 2281 428 2509 919 
L 2509 3381 
L 3091 3381 
L 3091 0 
L 2538 0 
z
" transform="scale(0.015625)"/>
      <path id="Roboto-Regular-63" d="M 1794 413 
Q 2103 413 2336 597 
Q 2569 781 2591 1069 
L 3141 1069 
Q 3119 616 2725 276 
Q 2331 -63 1794 -63 
Q 1031 -63 661 440 
Q 291 944 291 1625 
L 291 1756 
Q 291 2438 661 2941 
Q 1031 3444 1794 3444 
Q 2388 3444 2753 3092 
Q 3119 2741 3141 2219 
L 2591 2219 
Q 2569 2531 2355 2750 
Q 2141 2969 1794 2969 
Q 1438 2969 1236 2787 
Q 1034 2606 951 2328 
Q 869 2050 869 1756 
L 869 1625 
Q 869 1328 950 1050 
Q 1031 772 1232 592 
Q 1434 413 1794 413 
z
" transform="scale(0.015625)"/>
     </defs>
     <use xlink:href="#Roboto-Regular-52"/>
     <use xlink:href="#Roboto-Regular-65" transform="translate(61.621094 0)"/>
     <use xlink:href="#Roboto-Regular-64" transform="translate(114.648438 0)"/>
     <use xlink:href="#Roboto-Regular-75" transform="translate(171.044922 0)"/>
     <use xlink:href="#Roboto-Regular-63" transform="translate(226.171875 0)"/>
     <use xlink:href="#Roboto-Regular-65" transform="translate(278.515625 0)"/>
     <use xlink:href="#Roboto-Regular-64" transform="translate(331.542969 0)"/>
    </g>
   </g>
  </g>
  <g id="axes_2">
   <g id="patch_22">
    <path d="M 545.704232 129.738991 
Q 549.244512 103.379577 532.190101 84.003111 
" clip-path="url(#p93ec1f64e2)" style="fill: none; stroke: #000000; stroke-width: 0.7; stroke-linecap: round"/>
    <path d="M 533.262762 88.066438 
L 532.190101 84.003111 
L 536.084359 85.582978 
" clip-path="url(#p93ec1f64e2)" style="fill: none; stroke: #000000; stroke-width: 0.7; stroke-linecap: round"/>
   </g>
   <g id="patch_23">
    <path d="M 537.424458 143.809304 
Q 482.576865 189.87483 428.328567 235.43702 
" clip-path="url(#p93ec1f64e2)" style="fill: none; stroke: #000000; stroke-width: 0.7; stroke-linecap: round"/>
    <path d="M 432.276294 234.492078 
L 428.328567 235.43702 
L 429.941249 231.711873 
" clip-path="url(#p93ec1f64e2)" style="fill: none; stroke: #000000; stroke-width: 0.7; stroke-linecap: round"/>
   </g>
   <g id="patch_24">
    <path d="M 523.932586 85.75673 
Q 521.211238 106.018724 528.634867 118.565071 
" clip-path="url(#p93ec1f64e2)" style="fill: none; stroke: #000000; stroke-width: 4.091348; stroke-linecap: round"/>
    <path d="M 528.072373 110.615943 
L 528.634867 118.565071 
L 521.938068 114.245589 
" clip-path="url(#p93ec1f64e2)" style="fill: none; stroke: #000000; stroke-width: 4.091348; stroke-linecap: round"/>
   </g>
   <g id="patch_25">
    <path d="M 522.325824 69.235193 
Q 510.686211 44.677716 486.04325 37.883765 
" clip-path="url(#p93ec1f64e2)" style="fill: none; stroke: #000000; stroke-width: 1.443376; stroke-linecap: round"/>
    <path d="M 489.854577 41.312891 
L 486.04325 37.883765 
L 491.073347 36.892179 
" clip-path="url(#p93ec1f64e2)" style="fill: none; stroke: #000000; stroke-width: 1.443376; stroke-linecap: round"/>
   </g>
   <g id="patch_26">
    <path d="M 520.404224 70.31199 
Q 481.82723 21.471764 420.544595 25.696559 
" clip-path="url(#p93ec1f64e2)" style="fill: none; stroke: #000000; stroke-width: 0.724819; stroke-linecap: round"/>
    <path d="M 424.565167 27.37192 
L 420.544595 25.696559 
L 424.297226 23.485318 
" clip-path="url(#p93ec1f64e2)" style="fill: none; stroke: #000000; stroke-width: 0.724819; stroke-linecap: round"/>
   </g>
   <g id="patch_27">
    <path d="M 520.793956 84.476114 
Q 471.949706 158.144122 423.537935 231.159856 
" clip-path="url(#p93ec1f64e2)" style="fill: none; stroke: #000000; stroke-width: 0.7; stroke-linecap: round"/>
    <path d="M 427.09136 229.117429 
L 423.537935 231.159856 
L 424.036049 227.091659 
" clip-path="url(#p93ec1f64e2)" style="fill: none; stroke: #000000; stroke-width: 0.7; stroke-linecap: round"/>
   </g>
   <g id="patch_28">
    <path d="M 480.809674 42.851164 
Q 506.776405 82.01479 532.131397 120.255776 
" clip-path="url(#p93ec1f64e2)" style="fill: none; stroke: #000000; stroke-width: 0.990148; stroke-linecap: round"/>
    <path d="M 531.567429 115.649728 
L 532.131397 120.255776 
L 528.108177 117.943322 
" clip-path="url(#p93ec1f64e2)" style="fill: none; stroke: #000000; stroke-width: 0.990148; stroke-linecap: round"/>
   </g>
   <g id="patch_29">
    <path d="M 479.279626 43.654043 
Q 490.919239 68.211519 513.546357 74.449712 
" clip-path="url(#p93ec1f64e2)" style="fill: none; stroke: #000000; stroke-width: 3.313667; stroke-linecap: round"/>
    <path d="M 508.242728 69.677932 
L 513.546357 74.449712 
L 506.546755 75.829548 
" clip-path="url(#p93ec1f64e2)" style="fill: none; stroke: #000000; stroke-width: 3.313667; stroke-linecap: round"/>
   </g>
   <g id="patch_30">
    <path d="M 469.005384 30.56122 
Q 445.726825 15.656316 420.796397 23.164283 
" clip-path="url(#p93ec1f64e2)" style="fill: none; stroke: #000000; stroke-width: 1.43486; stroke-linecap: round"/>
    <path d="M 425.839404 24.035817 
L 420.796397 23.164283 
L 424.519428 19.652798 
" clip-path="url(#p93ec1f64e2)" style="fill: none; stroke: #000000; stroke-width: 1.43486; stroke-linecap: round"/>
   </g>
   <g id="patch_31">
    <path d="M 417.749091 32.157447 
Q 473.065004 78.616315 527.781624 124.571847 
" clip-path="url(#p93ec1f64e2)" style="fill: none; stroke: #000000; stroke-width: 0.7; stroke-linecap: round"/>
    <path d="M 526.117436 120.727726 
L 527.781624 124.571847 
L 523.707814 123.596725 
" clip-path="url(#p93ec1f64e2)" style="fill: none; stroke: #000000; stroke-width: 0.7; stroke-linecap: round"/>
   </g>
   <g id="patch_32">
    <path d="M 416.295123 33.531874 
Q 454.872117 82.3721 515.919566 78.163518 
" clip-path="url(#p93ec1f64e2)" style="fill: none; stroke: #000000; stroke-width: 0.935674; stroke-linecap: round"/>
    <path d="M 511.690092 76.401108 
L 515.919566 78.163518 
L 511.971954 80.489652 
" clip-path="url(#p93ec1f64e2)" style="fill: none; stroke: #000000; stroke-width: 0.935674; stroke-linecap: round"/>
   </g>
   <g id="patch_33">
    <path d="M 418.136797 31.660437 
Q 441.415356 46.565341 466.977676 38.867075 
" clip-path="url(#p93ec1f64e2)" style="fill: none; stroke: #000000; stroke-width: 0.844606; stroke-linecap: round"/>
    <path d="M 462.558942 38.103429 
L 466.977676 38.867075 
L 463.715518 41.943874 
" clip-path="url(#p93ec1f64e2)" style="fill: none; stroke: #000000; stroke-width: 0.844606; stroke-linecap: round"/>
   </g>
   <g id="patch_34">
    <path d="M 402.475997 25.979595 
Q 375.010984 25.602929 358.479633 44.317469 
" clip-path="url(#p93ec1f64e2)" style="fill: none; stroke: #000000; stroke-width: 2.234617; stroke-linecap: round"/>
    <path d="M 364.021428 42.080754 
L 358.479633 44.317469 
L 360.015338 38.542004 
" clip-path="url(#p93ec1f64e2)" style="fill: none; stroke: #000000; stroke-width: 2.234617; stroke-linecap: round"/>
   </g>
   <g id="patch_35">
    <path d="M 403.373512 30.467472 
Q 324.131051 72.15655 316.643085 160.597539 
" clip-path="url(#p93ec1f64e2)" style="fill: none; stroke: #000000; stroke-width: 0.7; stroke-linecap: round"/>
    <path d="M 318.884168 156.926708 
L 316.643085 160.597539 
L 315.05107 156.602174 
" clip-path="url(#p93ec1f64e2)" style="fill: none; stroke: #000000; stroke-width: 0.7; stroke-linecap: round"/>
   </g>
   <g id="patch_36">
    <path d="M 360.112298 53.599988 
Q 387.577311 53.976654 402.642029 36.922436 
" clip-path="url(#p93ec1f64e2)" style="fill: none; stroke: #000000; stroke-width: 4.216068; stroke-linecap: round"/>
    <path d="M 395.128091 39.955124 
L 402.642029 36.922436 
L 400.559817 44.7532 
" clip-path="url(#p93ec1f64e2)" style="fill: none; stroke: #000000; stroke-width: 4.216068; stroke-linecap: round"/>
   </g>
   <g id="patch_37">
    <path d="M 323.763043 166.140103 
Q 403.005504 124.451024 410.493471 36.010036 
" clip-path="url(#p93ec1f64e2)" style="fill: none; stroke: #000000; stroke-width: 0.7; stroke-linecap: round"/>
    <path d="M 408.29883 39.604796 
L 410.493471 36.010036 
L 412.052494 39.922604 
" clip-path="url(#p93ec1f64e2)" style="fill: none; stroke: #000000; stroke-width: 0.7; stroke-linecap: round"/>
   </g>
   <g id="patch_38">
    <path d="M 316.877449 178.634847 
Q 321.074616 205.152145 341.683372 217.983107 
" clip-path="url(#p93ec1f64e2)" style="fill: none; stroke: #000000; stroke-width: 2.298727; stroke-linecap: round"/>
    <path d="M 338.522311 212.83051 
L 341.683372 217.983107 
L 335.664658 217.420398 
" clip-path="url(#p93ec1f64e2)" style="fill: none; stroke: #000000; stroke-width: 2.298727; stroke-linecap: round"/>
   </g>
   <g id="patch_39">
    <path d="M 322.650058 175.589149 
Q 358.578018 205.76442 393.741374 235.297514 
" clip-path="url(#p93ec1f64e2)" style="fill: none; stroke: #000000; stroke-width: 0.893089; stroke-linecap: round"/>
    <path d="M 391.939176 231.134601 
L 393.741374 235.297514 
L 389.329725 234.241525 
" clip-path="url(#p93ec1f64e2)" style="fill: none; stroke: #000000; stroke-width: 0.893089; stroke-linecap: round"/>
   </g>
   <g id="patch_40">
    <path d="M 359.389824 219.982924 
Q 442.363428 183.254362 524.621387 146.842584 
" clip-path="url(#p93ec1f64e2)" style="fill: none; stroke: #000000; stroke-width: 0.7; stroke-linecap: round"/>
    <path d="M 520.444733 146.646472 
L 524.621387 146.842584 
L 521.958505 150.06624 
" clip-path="url(#p93ec1f64e2)" style="fill: none; stroke: #000000; stroke-width: 0.7; stroke-linecap: round"/>
   </g>
   <g id="patch_41">
    <path d="M 350.611316 214.873138 
Q 346.414149 188.35584 325.552567 175.367469 
" clip-path="url(#p93ec1f64e2)" style="fill: none; stroke: #000000; stroke-width: 2.032347; stroke-linecap: round"/>
    <path d="M 328.564119 180.276363 
L 325.552567 175.367469 
L 331.286614 175.903563 
" clip-path="url(#p93ec1f64e2)" style="fill: none; stroke: #000000; stroke-width: 2.032347; stroke-linecap: round"/>
   </g>
   <g id="patch_42">
    <path d="M 359.388578 226.99363 
Q 375.334594 234.052193 388.108933 239.706801 
" clip-path="url(#p93ec1f64e2)" style="fill: none; stroke: #000000; stroke-width: 3.102339; stroke-linecap: round"/>
    <path d="M 383.709819 234.381278 
L 388.108933 239.706801 
L 381.209047 240.030779 
" clip-path="url(#p93ec1f64e2)" style="fill: none; stroke: #000000; stroke-width: 3.102339; stroke-linecap: round"/>
   </g>
   <g id="PathCollection_2">
    <path d="M 544.05551 159.580571 
C 549.715096 159.580571 555.143642 157.331994 559.145573 153.330063 
C 563.147505 149.328131 565.396082 143.899585 565.396082 138.24 
C 565.396082 132.580414 563.147505 127.151868 559.145573 123.149937 
C 555.143642 119.148005 549.715096 116.899428 544.05551 116.899428 
C 538.395924 116.899428 532.967379 119.148005 528.965447 123.149937 
C 524.963516 127.151868 522.714939 132.580414 522.714939 138.24 
C 522.714939 143.899585 524.963516 149.328131 528.965447 153.330063 
C 532.967379 157.331994 538.395924 159.580571 544.05551 159.580571 
z
" clip-path="url(#p93ec1f64e2)" style="fill: #ec4067; stroke: #000000"/>
    <path d="M 525.581308 84.326789 
C 527.456577 84.326789 529.255292 83.581737 530.581308 82.255721 
C 531.907323 80.929706 532.652375 79.13099 532.652375 77.255721 
C 532.652375 75.380452 531.907323 73.581737 530.581308 72.255721 
C 529.255292 70.929706 527.456577 70.184653 525.581308 70.184653 
C 523.706038 70.184653 521.907323 70.929706 520.581308 72.255721 
C 519.255292 73.581737 518.51024 75.380452 518.51024 77.255721 
C 518.51024 79.13099 519.255292 80.929706 520.581308 82.255721 
C 521.907323 83.581737 523.706038 84.326789 525.581308 84.326789 
z
" clip-path="url(#p93ec1f64e2)" style="fill: #ec4067; stroke: #000000"/>
    <path d="M 476.024142 42.704582 
C 477.899411 42.704582 479.698127 41.95953 481.024142 40.633514 
C 482.350158 39.307499 483.09521 37.508783 483.09521 35.633514 
C 483.09521 33.758245 482.350158 31.95953 481.024142 30.633514 
C 479.698127 29.307499 477.899411 28.562446 476.024142 28.562446 
C 474.148873 28.562446 472.350158 29.307499 471.024142 30.633514 
C 469.698127 31.95953 468.953074 33.758245 468.953074 35.633514 
C 468.953074 37.508783 469.698127 39.307499 471.024142 40.633514 
C 472.350158 41.95953 474.148873 42.704582 476.024142 42.704582 
z
" clip-path="url(#p93ec1f64e2)" style="fill: #ec4067; stroke: #000000"/>
    <path d="M 411.118039 33.65921 
C 412.993308 33.65921 414.792024 32.914158 416.118039 31.588143 
C 417.444055 30.262127 418.189107 28.463412 418.189107 26.588143 
C 418.189107 24.712873 417.444055 22.914158 416.118039 21.588143 
C 414.792024 20.262127 412.993308 19.517075 411.118039 19.517075 
C 409.24277 19.517075 407.444055 20.262127 406.118039 21.588143 
C 404.792024 22.914158 404.046971 24.712873 404.046971 26.588143 
C 404.046971 28.463412 404.792024 30.262127 406.118039 31.588143 
C 407.444055 32.914158 409.24277 33.65921 411.118039 33.65921 
z
" clip-path="url(#p93ec1f64e2)" style="fill: #ec4067; stroke: #000000"/>
    <path d="M 351.470256 60.062508 
C 353.345525 60.062508 355.14424 59.317456 356.470256 57.99144 
C 357.796271 56.665425 358.541324 54.86671 358.541324 52.99144 
C 358.541324 51.116171 357.796271 49.317456 356.470256 47.99144 
C 355.14424 46.665425 353.345525 45.920373 351.470256 45.920373 
C 349.594987 45.920373 347.796271 46.665425 346.470256 47.99144 
C 345.14424 49.317456 344.399188 51.116171 344.399188 52.99144 
C 344.399188 54.86671 345.14424 56.665425 346.470256 57.99144 
C 347.796271 59.317456 349.594987 60.062508 351.470256 60.062508 
z
" clip-path="url(#p93ec1f64e2)" style="fill: #ec4067; stroke: #000000"/>
    <path d="M 316.018516 113.531632 
C 317.893785 113.531632 319.6925 112.786579 321.018516 111.460564 
C 322.344531 110.134548 323.089584 108.335833 323.089584 106.460564 
C 323.089584 104.585295 322.344531 102.786579 321.018516 101.460564 
C 319.6925 100.134548 317.893785 99.389496 316.018516 99.389496 
C 314.143247 99.389496 312.344531 100.134548 311.018516 101.460564 
C 309.6925 102.786579 308.947448 104.585295 308.947448 106.460564 
C 308.947448 108.335833 309.6925 110.134548 311.018516 111.460564 
C 312.344531 112.786579 314.143247 113.531632 316.018516 113.531632 
z
" clip-path="url(#p93ec1f64e2)" style="fill: #ec4067; stroke: #000000"/>
    <path d="M 316.018516 177.0905 
C 317.893785 177.0905 319.6925 176.345448 321.018516 175.019432 
C 322.344531 173.693417 323.089584 171.894701 323.089584 170.019432 
C 323.089584 168.144163 322.344531 166.345448 321.018516 165.019432 
C 319.6925 163.693417 317.893785 162.948364 316.018516 162.948364 
C 314.143247 162.948364 312.344531 163.693417 311.018516 165.019432 
C 309.6925 166.345448 308.947448 168.144163 308.947448 170.019432 
C 308.947448 171.894701 309.6925 173.693417 311.018516 175.019432 
C 312.344531 176.345448 314.143247 177.0905 316.018516 177.0905 
z
" clip-path="url(#p93ec1f64e2)" style="fill: #ec4067; stroke: #000000"/>
    <path d="M 351.470249 230.55962 
C 353.345518 230.55962 355.144233 229.814568 356.470249 228.488552 
C 357.796264 227.162537 358.541317 225.363821 358.541317 223.488552 
C 358.541317 221.613283 357.796264 219.814568 356.470249 218.488552 
C 355.144233 217.162537 353.345518 216.417484 351.470249 216.417484 
C 349.59498 216.417484 347.796264 217.162537 346.470249 218.488552 
C 345.144233 219.814568 344.399181 221.613283 344.399181 223.488552 
C 344.399181 225.363821 345.144233 227.162537 346.470249 228.488552 
C 347.796264 229.814568 349.59498 230.55962 351.470249 230.55962 
z
" clip-path="url(#p93ec1f64e2)" style="fill: #ec4067; stroke: #000000"/>
    <path d="M 411.118018 272.511465 
C 417.116808 272.511465 422.870711 270.12812 427.112496 265.886335 
C 431.354282 261.64455 433.737626 255.890647 433.737626 249.891857 
C 433.737626 243.893067 431.354282 238.139164 427.112496 233.897379 
C 422.870711 229.655593 417.116808 227.272249 411.118018 227.272249 
C 405.119228 227.272249 399.365325 229.655593 395.12354 233.897379 
C 390.881755 238.139164 388.49841 243.893067 388.49841 249.891857 
C 388.49841 255.890647 390.881755 261.64455 395.12354 265.886335 
C 399.365325 270.12812 405.119228 272.511465 411.118018 272.511465 
z
" clip-path="url(#p93ec1f64e2)" style="fill: #ec4067; stroke: #000000"/>
    <path d="M 476.024146 247.917553 
C 477.899415 247.917553 479.69813 247.172501 481.024146 245.846485 
C 482.350161 244.52047 483.095213 242.721754 483.095213 240.846485 
C 483.095213 238.971216 482.350161 237.172501 481.024146 235.846485 
C 479.69813 234.52047 477.899415 233.775417 476.024146 233.775417 
C 474.148876 233.775417 472.350161 234.52047 471.024146 235.846485 
C 469.69813 237.172501 468.953078 238.971216 468.953078 240.846485 
C 468.953078 242.721754 469.69813 244.52047 471.024146 245.846485 
C 472.350161 247.172501 474.148876 247.917553 476.024146 247.917553 
z
" clip-path="url(#p93ec1f64e2)" style="fill: #ec4067; stroke: #000000"/>
    <path d="M 525.581301 206.29536 
C 527.45657 206.29536 529.255285 205.550307 530.581301 204.224292 
C 531.907316 202.898276 532.652368 201.099561 532.652368 199.224292 
C 532.652368 197.349023 531.907316 195.550307 530.581301 194.224292 
C 529.255285 192.898276 527.45657 192.153224 525.581301 192.153224 
C 523.706032 192.153224 521.907316 192.898276 520.581301 194.224292 
C 519.255285 195.550307 518.510233 197.349023 518.510233 199.224292 
C 518.510233 201.099561 519.255285 202.898276 520.581301 204.224292 
C 521.907316 205.550307 523.706032 206.29536 525.581301 206.29536 
z
" clip-path="url(#p93ec1f64e2)" style="fill: #ec4067; stroke: #000000"/>
   </g>
   <g id="text_13">
    <g clip-path="url(#p93ec1f64e2)">
     <!-- A -->
     <g style="fill: #ffffff" transform="translate(540.185979 140.999375) scale(0.1 -0.1)">
      <use xlink:href="#DejaVuSans-Bold-41"/>
     </g>
    </g>
   </g>
   <g id="text_14">
    <g clip-path="url(#p93ec1f64e2)">
     <!-- B -->
     <g style="fill: #ffffff" transform="translate(521.77037 80.015096) scale(0.1 -0.1)">
      <use xlink:href="#DejaVuSans-Bold-42"/>
     </g>
    </g>
   </g>
   <g id="text_15">
    <g clip-path="url(#p93ec1f64e2)">
     <!-- C -->
     <g style="fill: #ffffff" transform="translate(472.354611 38.392889) scale(0.1 -0.1)">
      <use xlink:href="#DejaVuSans-Bold-43"/>
     </g>
    </g>
   </g>
   <g id="text_16">
    <g clip-path="url(#p93ec1f64e2)">
     <!-- D -->
     <g style="fill: #ffffff" transform="translate(406.967258 29.347518) scale(0.1 -0.1)">
      <use xlink:href="#DejaVuSans-Bold-44"/>
     </g>
    </g>
   </g>
   <g id="text_17">
    <g clip-path="url(#p93ec1f64e2)">
     <!-- E -->
     <g style="fill: #ffffff" transform="translate(348.054631 55.750815) scale(0.1 -0.1)">
      <use xlink:href="#DejaVuSans-Bold-45"/>
     </g>
    </g>
   </g>
   <g id="text_18">
    <g clip-path="url(#p93ec1f64e2)">
     <!-- F -->
     <g style="fill: #ffffff" transform="translate(312.602891 109.219939) scale(0.1 -0.1)">
      <use xlink:href="#DejaVuSans-Bold-46"/>
     </g>
    </g>
   </g>
   <g id="text_19">
    <g clip-path="url(#p93ec1f64e2)">
     <!-- G -->
     <g style="fill: #ffffff" transform="translate(311.91461 172.778807) scale(0.1 -0.1)">
      <use xlink:href="#DejaVuSans-Bold-47"/>
     </g>
    </g>
   </g>
   <g id="text_20">
    <g clip-path="url(#p93ec1f64e2)">
     <!-- H -->
     <g style="fill: #ffffff" transform="translate(347.285874 226.247927) scale(0.1 -0.1)">
      <use xlink:href="#DejaVuSans-Bold-48"/>
     </g>
    </g>
   </g>
   <g id="text_21">
    <g clip-path="url(#p93ec1f64e2)">
     <!-- I -->
     <g style="fill: #ffffff" transform="translate(409.257862 252.651232) scale(0.1 -0.1)">
      <use xlink:href="#DejaVuSans-Bold-49"/>
     </g>
    </g>
   </g>
   <g id="text_22">
    <g clip-path="url(#p93ec1f64e2)">
     <!-- J -->
     <g style="fill: #ffffff" transform="translate(474.163989 243.60586) scale(0.1 -0.1)">
      <use xlink:href="#DejaVuSans-Bold-4a"/>
     </g>
    </g>
   </g>
   <g id="text_23">
    <g clip-path="url(#p93ec1f64e2)">
     <!-- K -->
     <g style="fill: #ffffff" transform="translate(521.707082 201.983667) scale(0.1 -0.1)">
      <use xlink:href="#DejaVuSans-Bold-4b"/>
     </g>
    </g>
   </g>
   <g id="text_24">
    <!-- Oxidized -->
    <g transform="translate(409.32225 -3.12) scale(0.096 -0.096)">
     <defs>
      <path id="Roboto-Regular-4f" d="M 4031 2131 
Q 4031 1106 3534 521 
Q 3038 -63 2206 -63 
Q 1397 -63 884 521 
Q 372 1106 372 2131 
L 372 2419 
Q 372 3441 881 4027 
Q 1391 4613 2200 4613 
Q 3025 4613 3523 4036 
Q 4022 3459 4031 2456 
L 4031 2131 
z
M 3434 2425 
Q 3434 3238 3109 3669 
Q 2784 4100 2200 4100 
Q 1641 4100 1305 3669 
Q 969 3238 969 2425 
L 969 2131 
Q 969 1313 1308 880 
Q 1647 447 2206 447 
Q 2794 447 3114 880 
Q 3434 1313 3434 2131 
L 3434 2425 
z
" transform="scale(0.015625)"/>
      <path id="Roboto-Regular-78" d="M 831 3381 
L 1572 2150 
L 2322 3381 
L 3000 3381 
L 1894 1713 
L 3034 0 
L 2366 0 
L 1584 1269 
L 803 0 
L 131 0 
L 1269 1713 
L 166 3381 
L 831 3381 
z
" transform="scale(0.015625)"/>
      <path id="Roboto-Regular-69" d="M 444 4278 
Q 444 4419 530 4516 
Q 616 4613 784 4613 
Q 950 4613 1039 4516 
Q 1128 4419 1128 4278 
Q 1128 4144 1039 4048 
Q 950 3953 784 3953 
Q 616 3953 530 4048 
Q 444 4144 444 4278 
z
M 1069 3381 
L 1069 0 
L 488 0 
L 488 3381 
L 1069 3381 
z
" transform="scale(0.015625)"/>
      <path id="Roboto-Regular-7a" d="M 303 2903 
L 303 3381 
L 2869 3381 
L 2869 2972 
L 988 475 
L 2959 475 
L 2959 0 
L 278 0 
L 278 425 
L 2141 2903 
L 303 2903 
z
" transform="scale(0.015625)"/>
     </defs>
     <use xlink:href="#Roboto-Regular-4f"/>
     <use xlink:href="#Roboto-Regular-78" transform="translate(68.798828 0)"/>
     <use xlink:href="#Roboto-Regular-69" transform="translate(118.408203 0)"/>
     <use xlink:href="#Roboto-Regular-64" transform="translate(142.724609 0)"/>
     <use xlink:href="#Roboto-Regular-69" transform="translate(199.121094 0)"/>
     <use xlink:href="#Roboto-Regular-7a" transform="translate(223.4375 0)"/>
     <use xlink:href="#Roboto-Regular-65" transform="translate(273.046875 0)"/>
     <use xlink:href="#Roboto-Regular-64" transform="translate(326.074219 0)"/>
    </g>
   </g>
  </g>
  <g id="axes_3">
   <g id="patch_43">
    <path d="M 833.73362 129.738991 
Q 836.499518 109.145291 827.273638 93.930146 
" clip-path="url(#p6d60051a89)" style="fill: none; stroke: #000000; stroke-width: 1.542779; stroke-linecap: round"/>
    <path d="M 827.699372 99.146394 
L 827.273638 93.930146 
L 831.702077 96.719307 
" clip-path="url(#p6d60051a89)" style="fill: none; stroke: #000000; stroke-width: 1.542779; stroke-linecap: round"/>
   </g>
   <g id="patch_44">
    <path d="M 811.961973 85.75673 
Q 808.781604 109.43641 821.91207 126.983821 
" clip-path="url(#p6d60051a89)" style="fill: none; stroke: #000000; stroke-width: 1.08477; stroke-linecap: round"/>
    <path d="M 821.068919 122.317375 
L 821.91207 126.983821 
L 817.673022 124.858474 
" clip-path="url(#p6d60051a89)" style="fill: none; stroke: #000000; stroke-width: 1.08477; stroke-linecap: round"/>
   </g>
   <g id="patch_45">
    <path d="M 810.355212 69.235193 
Q 798.764825 44.781575 774.745223 38.076508 
" clip-path="url(#p6d60051a89)" style="fill: none; stroke: #000000; stroke-width: 1.863697; stroke-linecap: round"/>
    <path d="M 778.879936 41.820658 
L 774.745223 38.076508 
L 780.221371 37.015228 
" clip-path="url(#p6d60051a89)" style="fill: none; stroke: #000000; stroke-width: 1.863697; stroke-linecap: round"/>
   </g>
   <g id="patch_46">
    <path d="M 767.309013 43.654043 
Q 776.457764 62.95625 790.391789 69.555591 
" clip-path="url(#p6d60051a89)" style="fill: none; stroke: #000000; stroke-width: 4.165799; stroke-linecap: round"/>
    <path d="M 785.426196 63.220934 
L 790.391789 69.555591 
L 782.344707 69.727271 
" clip-path="url(#p6d60051a89)" style="fill: none; stroke: #000000; stroke-width: 4.165799; stroke-linecap: round"/>
   </g>
   <g id="patch_47">
    <path d="M 757.034772 30.56122 
Q 733.756213 15.656316 708.039087 23.401202 
" clip-path="url(#p6d60051a89)" style="fill: none; stroke: #000000; stroke-width: 0.7; stroke-linecap: round"/>
    <path d="M 712.154253 24.112387 
L 708.039087 23.401202 
L 711.077134 20.53578 
" clip-path="url(#p6d60051a89)" style="fill: none; stroke: #000000; stroke-width: 0.7; stroke-linecap: round"/>
   </g>
   <g id="patch_48">
    <path d="M 707.066379 30.093495 
Q 751.262046 49.656867 794.331069 68.721525 
" clip-path="url(#p6d60051a89)" style="fill: none; stroke: #000000; stroke-width: 1.102014; stroke-linecap: round"/>
    <path d="M 791.29928 65.051273 
L 794.331069 68.721525 
L 789.575794 68.944805 
" clip-path="url(#p6d60051a89)" style="fill: none; stroke: #000000; stroke-width: 1.102014; stroke-linecap: round"/>
   </g>
   <g id="patch_49">
    <path d="M 706.166185 31.660437 
Q 729.353051 46.506631 754.424777 39.037924 
" clip-path="url(#p6d60051a89)" style="fill: none; stroke: #000000; stroke-width: 1.192738; stroke-linecap: round"/>
    <path d="M 749.640346 38.196315 
L 754.424777 39.037924 
L 750.880831 42.360504 
" clip-path="url(#p6d60051a89)" style="fill: none; stroke: #000000; stroke-width: 1.192738; stroke-linecap: round"/>
   </g>
   <g id="patch_50">
    <path d="M 690.505385 25.979595 
Q 663.040372 25.602929 646.05302 44.833691 
" clip-path="url(#p6d60051a89)" style="fill: none; stroke: #000000; stroke-width: 1.618551; stroke-linecap: round"/>
    <path d="M 650.981643 42.844457 
L 646.05302 44.833691 
L 647.418807 39.697252 
" clip-path="url(#p6d60051a89)" style="fill: none; stroke: #000000; stroke-width: 1.618551; stroke-linecap: round"/>
   </g>
   <g id="patch_51">
    <path d="M 691.4029 30.467472 
Q 612.160438 72.15655 604.672472 160.597539 
" clip-path="url(#p6d60051a89)" style="fill: none; stroke: #000000; stroke-width: 0.7; stroke-linecap: round"/>
    <path d="M 606.866178 157.00431 
L 604.672472 160.597539 
L 603.114113 156.686637 
" clip-path="url(#p6d60051a89)" style="fill: none; stroke: #000000; stroke-width: 0.7; stroke-linecap: round"/>
   </g>
   <g id="patch_52">
    <path d="M 648.141686 53.599988 
Q 675.606699 53.976654 691.208474 36.314453 
" clip-path="url(#p6d60051a89)" style="fill: none; stroke: #000000; stroke-width: 3.490493; stroke-linecap: round"/>
    <path d="M 684.416702 39.055669 
L 691.208474 36.314453 
L 689.326383 43.392601 
" clip-path="url(#p6d60051a89)" style="fill: none; stroke: #000000; stroke-width: 3.490493; stroke-linecap: round"/>
   </g>
   <g id="patch_53">
    <path d="M 636.988551 61.280685 
Q 621.773305 111.506982 606.790505 160.965966 
" clip-path="url(#p6d60051a89)" style="fill: none; stroke: #000000; stroke-width: 0.717106; stroke-linecap: round"/>
    <path d="M 609.778554 157.808223 
L 606.790505 160.965966 
L 606.05714 156.680881 
" clip-path="url(#p6d60051a89)" style="fill: none; stroke: #000000; stroke-width: 0.717106; stroke-linecap: round"/>
   </g>
   <g id="patch_54">
    <path d="M 644.287108 60.212004 
Q 701.777222 146.919918 758.834857 232.975557 
" clip-path="url(#p6d60051a89)" style="fill: none; stroke: #000000; stroke-width: 0.7; stroke-linecap: round"/>
    <path d="M 758.318005 228.754319 
L 758.834857 232.975557 
L 755.147756 230.856296 
" clip-path="url(#p6d60051a89)" style="fill: none; stroke: #000000; stroke-width: 0.7; stroke-linecap: round"/>
   </g>
   <g id="patch_55">
    <path d="M 611.792431 166.140103 
Q 691.034892 124.451024 698.522858 36.010036 
" clip-path="url(#p6d60051a89)" style="fill: none; stroke: #000000; stroke-width: 0.7; stroke-linecap: round"/>
    <path d="M 696.323688 39.612215 
L 698.522858 36.010036 
L 700.085099 39.93068 
" clip-path="url(#p6d60051a89)" style="fill: none; stroke: #000000; stroke-width: 0.7; stroke-linecap: round"/>
   </g>
   <g id="patch_56">
    <path d="M 604.906837 178.634847 
Q 608.970055 204.305868 629.111787 217.538303 
" clip-path="url(#p6d60051a89)" style="fill: none; stroke: #000000; stroke-width: 1.441517; stroke-linecap: round"/>
    <path d="M 626.539162 213.105891 
L 629.111787 217.538303 
L 624.022283 216.936955 
" clip-path="url(#p6d60051a89)" style="fill: none; stroke: #000000; stroke-width: 1.441517; stroke-linecap: round"/>
   </g>
   <g id="patch_57">
    <path d="M 610.679446 175.589149 
Q 651.596687 209.954832 691.914635 243.817178 
" clip-path="url(#p6d60051a89)" style="fill: none; stroke: #000000; stroke-width: 0.7; stroke-linecap: round"/>
    <path d="M 690.231451 239.929175 
L 691.914635 243.817178 
L 687.794322 242.830924 
" clip-path="url(#p6d60051a89)" style="fill: none; stroke: #000000; stroke-width: 0.7; stroke-linecap: round"/>
   </g>
   <g id="patch_58">
    <path d="M 609.170051 177.003416 
Q 664.548512 249.490954 754.660502 241.816625 
" clip-path="url(#p6d60051a89)" style="fill: none; stroke: #000000; stroke-width: 0.7; stroke-linecap: round"/>
    <path d="M 750.812505 240.285536 
L 754.660502 241.816625 
L 751.126832 243.976369 
" clip-path="url(#p6d60051a89)" style="fill: none; stroke: #000000; stroke-width: 0.7; stroke-linecap: round"/>
   </g>
   <g id="patch_59">
    <path d="M 610.871099 175.349114 
Q 700.665333 243.194484 804.833093 202.779131 
" clip-path="url(#p6d60051a89)" style="fill: none; stroke: #000000; stroke-width: 0.72394; stroke-linecap: round"/>
    <path d="M 800.497409 202.37237 
L 804.833093 202.779131 
L 801.906274 206.003622 
" clip-path="url(#p6d60051a89)" style="fill: none; stroke: #000000; stroke-width: 0.72394; stroke-linecap: round"/>
   </g>
   <g id="patch_60">
    <path d="M 638.640704 214.873138 
Q 634.443537 188.35584 612.317405 174.580163 
" clip-path="url(#p6d60051a89)" style="fill: none; stroke: #000000; stroke-width: 0.7; stroke-linecap: round"/>
    <path d="M 614.506312 178.148127 
L 612.317405 174.580163 
L 616.48512 174.969816 
" clip-path="url(#p6d60051a89)" style="fill: none; stroke: #000000; stroke-width: 0.7; stroke-linecap: round"/>
   </g>
   <g id="patch_61">
    <path d="M 644.859385 230.295041 
Q 663.045875 250.879506 689.491453 250.514401 
" clip-path="url(#p6d60051a89)" style="fill: none; stroke: #000000; stroke-width: 0.912897; stroke-linecap: round"/>
    <path d="M 685.387324 248.532677 
L 689.491453 250.514401 
L 685.443596 252.60867 
" clip-path="url(#p6d60051a89)" style="fill: none; stroke: #000000; stroke-width: 0.912897; stroke-linecap: round"/>
   </g>
   <g id="patch_62">
    <path d="M 693.787657 243.085368 
Q 676.172096 223.14711 651.184312 222.890641 
" clip-path="url(#p6d60051a89)" style="fill: none; stroke: #000000; stroke-width: 1.193169; stroke-linecap: round"/>
    <path d="M 655.507226 225.107846 
L 651.184312 222.890641 
L 655.551824 220.762633 
" clip-path="url(#p6d60051a89)" style="fill: none; stroke: #000000; stroke-width: 1.193169; stroke-linecap: round"/>
   </g>
   <g id="patch_63">
    <path d="M 758.931386 233.862502 
Q 703.552925 161.374963 613.440935 169.049292 
" clip-path="url(#p6d60051a89)" style="fill: none; stroke: #000000; stroke-width: 0.7; stroke-linecap: round"/>
    <path d="M 617.256638 170.567532 
L 613.440935 169.049292 
L 616.944949 166.907674 
" clip-path="url(#p6d60051a89)" style="fill: none; stroke: #000000; stroke-width: 0.7; stroke-linecap: round"/>
   </g>
   <g id="patch_64">
    <path d="M 772.515849 239.025436 
Q 798.714809 231.802946 809.864067 208.28099 
" clip-path="url(#p6d60051a89)" style="fill: none; stroke: #000000; stroke-width: 1.024611; stroke-linecap: round"/>
    <path d="M 806.181933 211.165484 
L 809.864067 208.28099 
L 809.962382 212.957393 
" clip-path="url(#p6d60051a89)" style="fill: none; stroke: #000000; stroke-width: 1.024611; stroke-linecap: round"/>
   </g>
   <g id="patch_65">
    <path d="M 806.787493 193.89461 
Q 716.99326 126.04924 612.800545 166.474275 
" clip-path="url(#p6d60051a89)" style="fill: none; stroke: #000000; stroke-width: 0.7; stroke-linecap: round"/>
    <path d="M 617.015547 166.869714 
L 612.800545 166.474275 
L 615.645897 163.339537 
" clip-path="url(#p6d60051a89)" style="fill: none; stroke: #000000; stroke-width: 0.7; stroke-linecap: round"/>
   </g>
   <g id="patch_66">
    <path d="M 805.148373 201.045341 
Q 778.949413 208.26783 767.759791 231.874945 
" clip-path="url(#p6d60051a89)" style="fill: none; stroke: #000000; stroke-width: 0.94032; stroke-linecap: round"/>
    <path d="M 771.370705 229.046242 
L 767.759791 231.874945 
L 767.663377 227.288992 
" clip-path="url(#p6d60051a89)" style="fill: none; stroke: #000000; stroke-width: 0.94032; stroke-linecap: round"/>
   </g>
   <g id="PathCollection_3">
    <path d="M 832.084898 152.798846 
C 835.945949 152.798846 839.649381 151.264834 842.379557 148.534659 
C 845.109732 145.804483 846.643744 142.101051 846.643744 138.24 
C 846.643744 134.378949 845.109732 130.675516 842.379557 127.945341 
C 839.649381 125.215165 835.945949 123.681154 832.084898 123.681154 
C 828.223847 123.681154 824.520415 125.215165 821.790239 127.945341 
C 819.060064 130.675516 817.526052 134.378949 817.526052 138.24 
C 817.526052 142.101051 819.060064 145.804483 821.790239 148.534659 
C 824.520415 151.264834 828.223847 152.798846 832.084898 152.798846 
z
" clip-path="url(#p6d60051a89)" style="fill: #f99752; stroke: #000000"/>
    <path d="M 813.610695 97.951292 
C 819.099225 97.951292 824.363698 95.770676 828.244674 91.8897 
C 832.125651 88.008723 834.306267 82.744251 834.306267 77.255721 
C 834.306267 71.767191 832.125651 66.502719 828.244674 62.621742 
C 824.363698 58.740766 819.099225 56.56015 813.610695 56.56015 
C 808.122166 56.56015 802.857693 58.740766 798.976717 62.621742 
C 795.09574 66.502719 792.915124 71.767191 792.915124 77.255721 
C 792.915124 82.744251 795.09574 88.008723 798.976717 91.8897 
C 802.857693 95.770676 808.122166 97.951292 813.610695 97.951292 
z
" clip-path="url(#p6d60051a89)" style="fill: #f99752; stroke: #000000"/>
    <path d="M 764.05353 44.894904 
C 766.509679 44.894904 768.865561 43.919065 770.602321 42.182306 
C 772.339081 40.445546 773.314919 38.089663 773.314919 35.633514 
C 773.314919 33.177365 772.339081 30.821483 770.602321 29.084723 
C 768.865561 27.347963 766.509679 26.372125 764.05353 26.372125 
C 761.597381 26.372125 759.241498 27.347963 757.504739 29.084723 
C 755.767979 30.821483 754.79214 33.177365 754.79214 35.633514 
C 754.79214 38.089663 755.767979 40.445546 757.504739 42.182306 
C 759.241498 43.919065 761.597381 44.894904 764.05353 44.894904 
z
" clip-path="url(#p6d60051a89)" style="fill: #f99752; stroke: #000000"/>
    <path d="M 699.147427 33.65921 
C 701.022696 33.65921 702.821411 32.914158 704.147427 31.588143 
C 705.473442 30.262127 706.218495 28.463412 706.218495 26.588143 
C 706.218495 24.712873 705.473442 22.914158 704.147427 21.588143 
C 702.821411 20.262127 701.022696 19.517075 699.147427 19.517075 
C 697.272158 19.517075 695.473442 20.262127 694.147427 21.588143 
C 692.821411 22.914158 692.076359 24.712873 692.076359 26.588143 
C 692.076359 28.463412 692.821411 30.262127 694.147427 31.588143 
C 695.473442 32.914158 697.272158 33.65921 699.147427 33.65921 
z
" clip-path="url(#p6d60051a89)" style="fill: #f99752; stroke: #000000"/>
    <path d="M 639.499644 60.062508 
C 641.374913 60.062508 643.173628 59.317456 644.499644 57.99144 
C 645.825659 56.665425 646.570711 54.86671 646.570711 52.99144 
C 646.570711 51.116171 645.825659 49.317456 644.499644 47.99144 
C 643.173628 46.665425 641.374913 45.920373 639.499644 45.920373 
C 637.624374 45.920373 635.825659 46.665425 634.499644 47.99144 
C 633.173628 49.317456 632.428576 51.116171 632.428576 52.99144 
C 632.428576 54.86671 633.173628 56.665425 634.499644 57.99144 
C 635.825659 59.317456 637.624374 60.062508 639.499644 60.062508 
z
" clip-path="url(#p6d60051a89)" style="fill: #f99752; stroke: #000000"/>
    <path d="M 604.047904 113.531632 
C 605.923173 113.531632 607.721888 112.786579 609.047904 111.460564 
C 610.373919 110.134548 611.118972 108.335833 611.118972 106.460564 
C 611.118972 104.585295 610.373919 102.786579 609.047904 101.460564 
C 607.721888 100.134548 605.923173 99.389496 604.047904 99.389496 
C 602.172635 99.389496 600.373919 100.134548 599.047904 101.460564 
C 597.721888 102.786579 596.976836 104.585295 596.976836 106.460564 
C 596.976836 108.335833 597.721888 110.134548 599.047904 111.460564 
C 600.373919 112.786579 602.172635 113.531632 604.047904 113.531632 
z
" clip-path="url(#p6d60051a89)" style="fill: #f99752; stroke: #000000"/>
    <path d="M 604.047904 177.0905 
C 605.923173 177.0905 607.721888 176.345448 609.047904 175.019432 
C 610.373919 173.693417 611.118972 171.894701 611.118972 170.019432 
C 611.118972 168.144163 610.373919 166.345448 609.047904 165.019432 
C 607.721888 163.693417 605.923173 162.948364 604.047904 162.948364 
C 602.172635 162.948364 600.373919 163.693417 599.047904 165.019432 
C 597.721888 166.345448 596.976836 168.144163 596.976836 170.019432 
C 596.976836 171.894701 597.721888 173.693417 599.047904 175.019432 
C 600.373919 176.345448 602.172635 177.0905 604.047904 177.0905 
z
" clip-path="url(#p6d60051a89)" style="fill: #f99752; stroke: #000000"/>
    <path d="M 639.499637 234.295957 
C 642.365794 234.295957 645.114947 233.157221 647.141626 231.130541 
C 649.168305 229.103862 650.307042 226.354709 650.307042 223.488552 
C 650.307042 220.622395 649.168305 217.873242 647.141626 215.846563 
C 645.114947 213.819884 642.365794 212.681147 639.499637 212.681147 
C 636.633479 212.681147 633.884327 213.819884 631.857647 215.846563 
C 629.830968 217.873242 628.692232 220.622395 628.692232 223.488552 
C 628.692232 226.354709 629.830968 229.103862 631.857647 231.130541 
C 633.884327 233.157221 636.633479 234.295957 639.499637 234.295957 
z
" clip-path="url(#p6d60051a89)" style="fill: #f99752; stroke: #000000"/>
    <path d="M 699.147406 258.18161 
C 701.345874 258.18161 703.454595 257.308149 705.009146 255.753597 
C 706.563698 254.199045 707.437159 252.090325 707.437159 249.891857 
C 707.437159 247.693389 706.563698 245.584668 705.009146 244.030116 
C 703.454595 242.475565 701.345874 241.602104 699.147406 241.602104 
C 696.948938 241.602104 694.840217 242.475565 693.285666 244.030116 
C 691.731114 245.584668 690.857653 247.693389 690.857653 249.891857 
C 690.857653 252.090325 691.731114 254.199045 693.285666 255.753597 
C 694.840217 257.308149 696.948938 258.18161 699.147406 258.18161 
z
" clip-path="url(#p6d60051a89)" style="fill: #f99752; stroke: #000000"/>
    <path d="M 764.053533 247.917553 
C 765.928802 247.917553 767.727518 247.172501 769.053533 245.846485 
C 770.379549 244.52047 771.124601 242.721754 771.124601 240.846485 
C 771.124601 238.971216 770.379549 237.172501 769.053533 235.846485 
C 767.727518 234.52047 765.928802 233.775417 764.053533 233.775417 
C 762.178264 233.775417 760.379549 234.52047 759.053533 235.846485 
C 757.727518 237.172501 756.982465 238.971216 756.982465 240.846485 
C 756.982465 242.721754 757.727518 244.52047 759.053533 245.846485 
C 760.379549 247.172501 762.178264 247.917553 764.053533 247.917553 
z
" clip-path="url(#p6d60051a89)" style="fill: #f99752; stroke: #000000"/>
    <path d="M 813.610688 206.29536 
C 815.485958 206.29536 817.284673 205.550307 818.610688 204.224292 
C 819.936704 202.898276 820.681756 201.099561 820.681756 199.224292 
C 820.681756 197.349023 819.936704 195.550307 818.610688 194.224292 
C 817.284673 192.898276 815.485958 192.153224 813.610688 192.153224 
C 811.735419 192.153224 809.936704 192.898276 808.610688 194.224292 
C 807.284673 195.550307 806.539621 197.349023 806.539621 199.224292 
C 806.539621 201.099561 807.284673 202.898276 808.610688 204.224292 
C 809.936704 205.550307 811.735419 206.29536 813.610688 206.29536 
z
" clip-path="url(#p6d60051a89)" style="fill: #f99752; stroke: #000000"/>
   </g>
   <g id="text_25">
    <g clip-path="url(#p6d60051a89)">
     <!-- A -->
     <g style="fill: #ffffff" transform="translate(828.215367 140.999375) scale(0.1 -0.1)">
      <use xlink:href="#DejaVuSans-Bold-41"/>
     </g>
    </g>
   </g>
   <g id="text_26">
    <g clip-path="url(#p6d60051a89)">
     <!-- B -->
     <g style="fill: #ffffff" transform="translate(809.799758 80.015096) scale(0.1 -0.1)">
      <use xlink:href="#DejaVuSans-Bold-42"/>
     </g>
    </g>
   </g>
   <g id="text_27">
    <g clip-path="url(#p6d60051a89)">
     <!-- C -->
     <g style="fill: #ffffff" transform="translate(760.383999 38.392889) scale(0.1 -0.1)">
      <use xlink:href="#DejaVuSans-Bold-43"/>
     </g>
    </g>
   </g>
   <g id="text_28">
    <g clip-path="url(#p6d60051a89)">
     <!-- D -->
     <g style="fill: #ffffff" transform="translate(694.996646 29.347518) scale(0.1 -0.1)">
      <use xlink:href="#DejaVuSans-Bold-44"/>
     </g>
    </g>
   </g>
   <g id="text_29">
    <g clip-path="url(#p6d60051a89)">
     <!-- E -->
     <g style="fill: #ffffff" transform="translate(636.084019 55.750815) scale(0.1 -0.1)">
      <use xlink:href="#DejaVuSans-Bold-45"/>
     </g>
    </g>
   </g>
   <g id="text_30">
    <g clip-path="url(#p6d60051a89)">
     <!-- F -->
     <g style="fill: #ffffff" transform="translate(600.632279 109.219939) scale(0.1 -0.1)">
      <use xlink:href="#DejaVuSans-Bold-46"/>
     </g>
    </g>
   </g>
   <g id="text_31">
    <g clip-path="url(#p6d60051a89)">
     <!-- G -->
     <g style="fill: #ffffff" transform="translate(599.943997 172.778807) scale(0.1 -0.1)">
      <use xlink:href="#DejaVuSans-Bold-47"/>
     </g>
    </g>
   </g>
   <g id="text_32">
    <g clip-path="url(#p6d60051a89)">
     <!-- H -->
     <g style="fill: #ffffff" transform="translate(635.315262 226.247927) scale(0.1 -0.1)">
      <use xlink:href="#DejaVuSans-Bold-48"/>
     </g>
    </g>
   </g>
   <g id="text_33">
    <g clip-path="url(#p6d60051a89)">
     <!-- I -->
     <g style="fill: #ffffff" transform="translate(697.28725 252.651232) scale(0.1 -0.1)">
      <use xlink:href="#DejaVuSans-Bold-49"/>
     </g>
    </g>
   </g>
   <g id="text_34">
    <g clip-path="url(#p6d60051a89)">
     <!-- J -->
     <g style="fill: #ffffff" transform="translate(762.193377 243.60586) scale(0.1 -0.1)">
      <use xlink:href="#DejaVuSans-Bold-4a"/>
     </g>
    </g>
   </g>
   <g id="text_35">
    <g clip-path="url(#p6d60051a89)">
     <!-- K -->
     <g style="fill: #ffffff" transform="translate(809.73647 201.983667) scale(0.1 -0.1)">
      <use xlink:href="#DejaVuSans-Bold-4b"/>
     </g>
    </g>
   </g>
   <g id="text_36">
    <!-- Cu(I) -->
    <g transform="translate(705.318888 -3.12) scale(0.096 -0.096)">
     <defs>
      <path id="Roboto-Regular-43" d="M 3275 1447 
L 3875 1447 
Q 3806 800 3387 368 
Q 2969 -63 2150 -63 
Q 1356 -63 870 504 
Q 384 1072 375 2013 
L 375 2500 
Q 375 3456 867 4034 
Q 1359 4613 2203 4613 
Q 2975 4613 3390 4188 
Q 3806 3763 3875 3091 
L 3275 3091 
Q 3206 3566 2968 3842 
Q 2731 4119 2203 4119 
Q 1600 4119 1287 3675 
Q 975 3231 975 2506 
L 975 2047 
Q 975 1375 1259 901 
Q 1544 428 2150 428 
Q 2725 428 2961 697 
Q 3197 966 3275 1447 
z
" transform="scale(0.015625)"/>
      <path id="Roboto-Regular-28" d="M 419 1850 
Q 419 2756 678 3434 
Q 938 4113 1294 4541 
Q 1650 4969 1947 5134 
L 2069 4753 
Q 1700 4475 1348 3761 
Q 997 3047 997 1813 
Q 997 625 1348 -97 
Q 1700 -819 2069 -1119 
L 1947 -1469 
Q 1650 -1306 1294 -878 
Q 938 -450 678 226 
Q 419 903 419 1850 
z
" transform="scale(0.015625)"/>
      <path id="Roboto-Regular-49" d="M 1175 4550 
L 1175 0 
L 572 0 
L 572 4550 
L 1175 4550 
z
" transform="scale(0.015625)"/>
      <path id="Roboto-Regular-29" d="M 1772 1819 
Q 1772 906 1512 228 
Q 1253 -450 895 -878 
Q 538 -1306 244 -1469 
L 122 -1119 
Q 488 -841 841 -109 
Q 1194 622 1194 1856 
Q 1194 2647 1019 3236 
Q 844 3825 594 4212 
Q 344 4600 122 4781 
L 244 5134 
Q 538 4969 895 4541 
Q 1253 4113 1512 3436 
Q 1772 2759 1772 1819 
z
" transform="scale(0.015625)"/>
     </defs>
     <use xlink:href="#Roboto-Regular-43"/>
     <use xlink:href="#Roboto-Regular-75" transform="translate(65.087891 0)"/>
     <use xlink:href="#Roboto-Regular-28" transform="translate(120.214844 0)"/>
     <use xlink:href="#Roboto-Regular-49" transform="translate(154.443359 0)"/>
     <use xlink:href="#Roboto-Regular-29" transform="translate(181.640625 0)"/>
    </g>
   </g>
  </g>
  <g id="text_37">
   <!-- Reduced -->
   <g transform="translate(114.666563 106.56) scale(0.12 -0.12)">
    <defs>
     <path id="Roboto-Bold-52" d="M 2944 0 
L 2094 1669 
L 1347 1669 
L 1347 0 
L 406 0 
L 406 4550 
L 2100 4550 
Q 2884 4550 3332 4198 
Q 3781 3847 3781 3175 
Q 3781 2681 3562 2378 
Q 3344 2075 2969 1906 
L 3953 44 
L 3953 0 
L 2944 0 
z
M 1347 3791 
L 1347 2425 
L 2100 2425 
Q 2469 2425 2655 2611 
Q 2841 2797 2841 3103 
Q 2841 3419 2659 3605 
Q 2478 3791 2100 3791 
L 1347 3791 
z
" transform="scale(0.015625)"/>
     <path id="Roboto-Bold-65" d="M 3225 550 
Q 3063 319 2731 128 
Q 2400 -63 1906 -63 
Q 1119 -63 675 414 
Q 231 891 228 1566 
L 228 1697 
Q 228 2463 654 2953 
Q 1081 3444 1806 3444 
Q 2534 3444 2915 2987 
Q 3297 2531 3297 1781 
L 3297 1397 
L 1144 1397 
Q 1191 1069 1403 867 
Q 1616 666 1963 666 
Q 2478 666 2778 1044 
L 3225 550 
z
M 1800 2716 
Q 1513 2716 1356 2522 
Q 1200 2328 1153 2016 
L 2409 2016 
L 2409 2084 
Q 2403 2356 2258 2536 
Q 2113 2716 1800 2716 
z
" transform="scale(0.015625)"/>
     <path id="Roboto-Bold-64" d="M 2438 0 
L 2394 359 
Q 2059 -63 1528 -63 
Q 900 -63 553 425 
Q 206 913 206 1650 
L 206 1716 
Q 206 2488 553 2966 
Q 900 3444 1534 3444 
Q 2028 3444 2347 3078 
L 2347 4800 
L 3253 4800 
L 3253 0 
L 2438 0 
z
M 1113 1650 
Q 1113 1244 1256 958 
Q 1400 672 1756 672 
Q 2169 672 2347 1022 
L 2347 2363 
Q 2175 2713 1763 2713 
Q 1409 2713 1261 2425 
Q 1113 2138 1113 1650 
z
" transform="scale(0.015625)"/>
     <path id="Roboto-Bold-75" d="M 2400 0 
L 2375 347 
Q 2044 -63 1450 -63 
Q 953 -63 642 228 
Q 331 519 328 1181 
L 328 3381 
L 1231 3381 
L 1231 1188 
Q 1231 906 1365 789 
Q 1500 672 1709 672 
Q 2169 672 2344 994 
L 2344 3381 
L 3250 3381 
L 3250 0 
L 2400 0 
z
" transform="scale(0.015625)"/>
     <path id="Roboto-Bold-63" d="M 1753 666 
Q 2000 666 2159 802 
Q 2319 938 2322 1169 
L 3172 1169 
Q 3166 631 2761 284 
Q 2356 -63 1769 -63 
Q 984 -63 595 432 
Q 206 928 206 1647 
L 206 1734 
Q 206 2450 593 2947 
Q 981 3444 1766 3444 
Q 2388 3444 2777 3087 
Q 3166 2731 3172 2122 
L 2322 2122 
Q 2319 2369 2172 2542 
Q 2025 2716 1750 2716 
Q 1356 2716 1234 2420 
Q 1113 2125 1113 1647 
Q 1113 1256 1233 961 
Q 1353 666 1753 666 
z
" transform="scale(0.015625)"/>
    </defs>
    <use xlink:href="#Roboto-Bold-52"/>
    <use xlink:href="#Roboto-Bold-65" transform="translate(63.818359 0)"/>
    <use xlink:href="#Roboto-Bold-64" transform="translate(117.871094 0)"/>
    <use xlink:href="#Roboto-Bold-75" transform="translate(174.267578 0)"/>
    <use xlink:href="#Roboto-Bold-63" transform="translate(230.273438 0)"/>
    <use xlink:href="#Roboto-Bold-65" transform="translate(282.470703 0)"/>
    <use xlink:href="#Roboto-Bold-64" transform="translate(336.523438 0)"/>
   </g>
  </g>
  <g id="text_38">
   <!-- Oxidized -->
   <g transform="translate(404.235 106.56) scale(0.12 -0.12)">
    <defs>
     <path id="Roboto-Bold-4f" d="M 4147 2172 
Q 4147 1131 3608 534 
Q 3069 -63 2212 -63 
Q 1356 -63 812 534 
Q 269 1131 269 2172 
L 269 2375 
Q 269 3416 809 4014 
Q 1350 4613 2206 4613 
Q 3063 4613 3605 4014 
Q 4147 3416 4147 2375 
L 4147 2172 
z
M 3197 2381 
Q 3197 3094 2937 3466 
Q 2678 3838 2206 3838 
Q 1734 3838 1478 3470 
Q 1222 3103 1219 2397 
L 1219 2172 
Q 1219 1463 1478 1086 
Q 1738 709 2213 709 
Q 2684 709 2939 1081 
Q 3194 1453 3197 2156 
L 3197 2381 
z
" transform="scale(0.015625)"/>
     <path id="Roboto-Bold-78" d="M 1081 3381 
L 1634 2375 
L 2203 3381 
L 3169 3381 
L 2206 1728 
L 3209 0 
L 2244 0 
L 1638 1066 
L 1041 0 
L 69 0 
L 1072 1728 
L 109 3381 
L 1081 3381 
z
" transform="scale(0.015625)"/>
     <path id="Roboto-Bold-69" d="M 341 4256 
Q 341 4459 478 4592 
Q 616 4725 847 4725 
Q 1078 4725 1215 4592 
Q 1353 4459 1353 4256 
Q 1353 4056 1215 3923 
Q 1078 3791 847 3791 
Q 616 3791 478 3923 
Q 341 4056 341 4256 
z
M 1303 3381 
L 1303 0 
L 397 0 
L 397 3381 
L 1303 3381 
z
" transform="scale(0.015625)"/>
     <path id="Roboto-Bold-7a" d="M 281 2653 
L 281 3381 
L 2991 3381 
L 2991 2850 
L 1384 728 
L 3038 728 
L 3038 0 
L 231 0 
L 231 550 
L 1828 2653 
L 281 2653 
z
" transform="scale(0.015625)"/>
    </defs>
    <use xlink:href="#Roboto-Bold-4f"/>
    <use xlink:href="#Roboto-Bold-78" transform="translate(69.042969 0)"/>
    <use xlink:href="#Roboto-Bold-69" transform="translate(119.970703 0)"/>
    <use xlink:href="#Roboto-Bold-64" transform="translate(146.484375 0)"/>
    <use xlink:href="#Roboto-Bold-69" transform="translate(202.880859 0)"/>
    <use xlink:href="#Roboto-Bold-7a" transform="translate(229.394531 0)"/>
    <use xlink:href="#Roboto-Bold-65" transform="translate(280.322266 0)"/>
    <use xlink:href="#Roboto-Bold-64" transform="translate(334.375 0)"/>
   </g>
  </g>
  <g id="text_39">
   <!-- Cu(I) -->
   <g transform="translate(703.857188 106.56) scale(0.12 -0.12)">
    <defs>
     <path id="Roboto-Bold-43" d="M 3044 1516 
L 3981 1516 
Q 3934 822 3461 379 
Q 2988 -63 2150 -63 
Q 1275 -63 772 526 
Q 269 1116 269 2125 
L 269 2422 
Q 269 3431 784 4023 
Q 1300 4616 2159 4616 
Q 3013 4616 3466 4161 
Q 3919 3706 3984 3006 
L 3047 3006 
Q 3016 3413 2820 3630 
Q 2625 3847 2159 3847 
Q 1247 3847 1222 2500 
L 1222 2125 
Q 1222 1419 1436 1062 
Q 1650 706 2150 706 
Q 2594 706 2801 907 
Q 3009 1109 3044 1516 
z
" transform="scale(0.015625)"/>
     <path id="Roboto-Bold-28" d="M 391 1850 
Q 391 2731 633 3392 
Q 875 4053 1234 4473 
Q 1594 4894 1947 5053 
L 2122 4566 
Q 1772 4303 1465 3661 
Q 1159 3019 1153 1906 
L 1153 1772 
Q 1153 628 1461 -23 
Q 1769 -675 2122 -944 
L 1947 -1422 
Q 1594 -1266 1234 -845 
Q 875 -425 633 237 
Q 391 900 391 1778 
L 391 1850 
z
" transform="scale(0.015625)"/>
     <path id="Roboto-Bold-49" d="M 1403 4550 
L 1403 0 
L 466 0 
L 466 4550 
L 1403 4550 
z
" transform="scale(0.015625)"/>
     <path id="Roboto-Bold-29" d="M 1906 1778 
Q 1906 928 1656 264 
Q 1406 -400 1034 -833 
Q 663 -1266 300 -1422 
L 125 -944 
Q 472 -684 780 -37 
Q 1088 609 1094 1722 
L 1094 1856 
Q 1094 3000 780 3656 
Q 466 4313 125 4572 
L 300 5053 
Q 663 4894 1034 4461 
Q 1406 4028 1656 3364 
Q 1906 2700 1906 1847 
L 1906 1778 
z
" transform="scale(0.015625)"/>
    </defs>
    <use xlink:href="#Roboto-Bold-43"/>
    <use xlink:href="#Roboto-Bold-75" transform="translate(65.478516 0)"/>
    <use xlink:href="#Roboto-Bold-28" transform="translate(121.484375 0)"/>
    <use xlink:href="#Roboto-Bold-49" transform="translate(156.591797 0)"/>
    <use xlink:href="#Roboto-Bold-29" transform="translate(185.791016 0)"/>
   </g>
  </g>
 </g>
 <defs>
  <clipPath id="p36500ecc74">
   <rect x="0" y="2.88" width="279.301224" height="270.72"/>
  </clipPath>
  <clipPath id="p93ec1f64e2">
   <rect x="288.029388" y="2.88" width="279.301224" height="270.72"/>
  </clipPath>
  <clipPath id="p6d60051a89">
   <rect x="576.058776" y="2.88" width="279.301224" height="270.72"/>
  </clipPath>
 </defs>
</svg>
