<?xml version="1.0" encoding="utf-8" standalone="no"?>
<!DOCTYPE svg PUBLIC "-//W3C//DTD SVG 1.1//EN"
  "http://www.w3.org/Graphics/SVG/1.1/DTD/svg11.dtd">
<svg xmlns:xlink="http://www.w3.org/1999/xlink" width="864pt" height="288pt" viewBox="0 0 864 288" xmlns="http://www.w3.org/2000/svg" version="1.1">
 <metadata>
  <rdf:RDF xmlns:dc="http://purl.org/dc/elements/1.1/" xmlns:cc="http://creativecommons.org/ns#" xmlns:rdf="http://www.w3.org/1999/02/22-rdf-syntax-ns#">
   <cc:Work>
    <dc:type rdf:resource="http://purl.org/dc/dcmitype/StillImage"/>
    <dc:date>2025-04-02T21:11:15.629514</dc:date>
    <dc:format>image/svg+xml</dc:format>
    <dc:creator>
     <cc:Agent>
      <dc:title>Matplotlib v3.10.1, https://matplotlib.org/</dc:title>
     </cc:Agent>
    </dc:creator>
   </cc:Work>
  </rdf:RDF>
 </metadata>
 <defs>
  <style type="text/css">*{stroke-linejoin: round; stroke-linecap: butt}</style>
 </defs>
 <g id="figure_1">
  <g id="patch_1">
   <path d="M 0 288 
L 864 288 
L 864 0 
L 0 0 
z
" style="fill: #ffffff"/>
  </g>
  <g id="axes_1">
   <g id="patch_2">
    <path d="M 256.715574 124.171745 
Q 253.534721 71.339627 209.259408 43.794703 
" clip-path="url(#p789321c51c)" style="fill: none; stroke: #000000; stroke-width: 0.7; stroke-linecap: round"/>
    <path d="M 211.495881 47.437437 
L 209.259408 43.794703 
L 213.515478 44.191165 
" clip-path="url(#p789321c51c)" style="fill: none; stroke: #000000; stroke-width: 0.7; stroke-linecap: round"/>
   </g>
   <g id="patch_3">
    <path d="M 248.389408 131.580736 
Q 159.611053 117.339996 100.359567 51.854764 
" clip-path="url(#p789321c51c)" style="fill: none; stroke: #000000; stroke-width: 0.7; stroke-linecap: round"/>
    <path d="M 101.371209 55.484428 
L 100.359567 51.854764 
L 103.870284 53.223248 
" clip-path="url(#p789321c51c)" style="fill: none; stroke: #000000; stroke-width: 0.7; stroke-linecap: round"/>
   </g>
   <g id="patch_4">
    <path d="M 201.338431 47.699287 
Q 204.386509 98.326075 244.741291 125.414997 
" clip-path="url(#p789321c51c)" style="fill: none; stroke: #000000; stroke-width: 1.119066; stroke-linecap: round"/>
    <path d="M 242.383539 121.258305 
L 244.741291 125.414997 
L 240.001286 124.807183 
" clip-path="url(#p789321c51c)" style="fill: none; stroke: #000000; stroke-width: 1.119066; stroke-linecap: round"/>
   </g>
   <g id="patch_5">
    <path d="M 193.538153 34.817043 
Q 148.585649 11.495191 105.532984 30.734002 
" clip-path="url(#p789321c51c)" style="fill: none; stroke: #000000; stroke-width: 1.861211; stroke-linecap: round"/>
    <path d="M 111.103103 30.97591 
L 105.532984 30.734002 
L 109.068581 26.423051 
" clip-path="url(#p789321c51c)" style="fill: none; stroke: #000000; stroke-width: 1.861211; stroke-linecap: round"/>
   </g>
   <g id="patch_6">
    <path d="M 192.435294 38.934491 
Q 92.572213 39.430573 39.736529 122.551679 
" clip-path="url(#p789321c51c)" style="fill: none; stroke: #000000; stroke-width: 0.7; stroke-linecap: round"/>
    <path d="M 43.106332 120.527458 
L 39.736529 122.551679 
L 40.139034 118.641304 
" clip-path="url(#p789321c51c)" style="fill: none; stroke: #000000; stroke-width: 0.7; stroke-linecap: round"/>
   </g>
   <g id="patch_7">
    <path d="M 96.935114 43.273834 
Q 145.238036 68.33392 192.673038 43.722686 
" clip-path="url(#p789321c51c)" style="fill: none; stroke: #000000; stroke-width: 0.874556; stroke-linecap: round"/>
    <path d="M 188.157162 43.790245 
L 192.673038 43.722686 
L 190.017559 47.375922 
" clip-path="url(#p789321c51c)" style="fill: none; stroke: #000000; stroke-width: 0.874556; stroke-linecap: round"/>
   </g>
   <g id="patch_8">
    <path d="M 81.881923 43.379089 
Q 38.034015 70.656162 34.016961 120.623548 
" clip-path="url(#p789321c51c)" style="fill: none; stroke: #000000; stroke-width: 0.886252; stroke-linecap: round"/>
    <path d="M 36.360459 116.748079 
L 34.016961 120.623548 
L 32.322684 116.423468 
" clip-path="url(#p789321c51c)" style="fill: none; stroke: #000000; stroke-width: 0.886252; stroke-linecap: round"/>
   </g>
   <g id="patch_9">
    <path d="M 42.177736 132.936551 
Q 143.327898 132.434075 196.248708 47.150409 
" clip-path="url(#p789321c51c)" style="fill: none; stroke: #000000; stroke-width: 0.7; stroke-linecap: round"/>
    <path d="M 192.999247 49.150604 
L 196.248708 47.150409 
L 195.899187 50.950096 
" clip-path="url(#p789321c51c)" style="fill: none; stroke: #000000; stroke-width: 0.7; stroke-linecap: round"/>
   </g>
   <g id="patch_10">
    <path d="M 41.010615 128.491959 
Q 82.745478 102.529377 88.297634 56.526234 
" clip-path="url(#p789321c51c)" style="fill: none; stroke: #000000; stroke-width: 1.270576; stroke-linecap: round"/>
    <path d="M 85.574098 60.649355 
L 88.297634 56.526234 
L 89.962009 61.178936 
" clip-path="url(#p789321c51c)" style="fill: none; stroke: #000000; stroke-width: 1.270576; stroke-linecap: round"/>
   </g>
   <g id="patch_11">
    <path d="M 33.757703 141.479458 
Q 36.666717 189.796396 73.344999 216.468069 
" clip-path="url(#p789321c51c)" style="fill: none; stroke: #000000; stroke-width: 1.279573; stroke-linecap: round"/>
    <path d="M 71.065657 212.072856 
L 73.344999 216.468069 
L 68.461223 215.654415 
" clip-path="url(#p789321c51c)" style="fill: none; stroke: #000000; stroke-width: 1.279573; stroke-linecap: round"/>
   </g>
   <g id="patch_12">
    <path d="M 89.134851 217.951908 
Q 86.031393 166.405364 43.943915 139.035872 
" clip-path="url(#p789321c51c)" style="fill: none; stroke: #000000; stroke-width: 0.818781; stroke-linecap: round"/>
    <path d="M 46.198995 142.879718 
L 43.943915 139.035872 
L 48.37204 139.538115 
" clip-path="url(#p789321c51c)" style="fill: none; stroke: #000000; stroke-width: 0.818781; stroke-linecap: round"/>
   </g>
   <g id="PathCollection_1">
    <path d="M 256.957127 146.416355 
C 260.561438 146.416355 264.018611 144.984347 266.567243 142.435714 
C 269.115876 139.887081 270.547884 136.429908 270.547884 132.825597 
C 270.547884 129.221286 269.115876 125.764113 266.567243 123.215481 
C 264.018611 120.666848 260.561438 119.23484 256.957127 119.23484 
C 253.352816 119.23484 249.895643 120.666848 247.34701 123.215481 
C 244.798377 125.764113 243.366369 129.221286 243.366369 132.825597 
C 243.366369 136.429908 244.798377 139.887081 247.34701 142.435714 
C 249.895643 144.984347 253.352816 146.416355 256.957127 146.416355 
z
" clip-path="url(#p789321c51c)" style="fill: #1e2e79; stroke: #000000"/>
    <path d="M 201.096879 46.929722 
C 203.187816 46.929722 205.193396 46.098983 206.671912 44.620468 
C 208.150427 43.141952 208.981166 41.136372 208.981166 39.045435 
C 208.981166 36.954498 208.150427 34.948918 206.671912 33.470403 
C 205.193396 31.991887 203.187816 31.161149 201.096879 31.161149 
C 199.005942 31.161149 197.000363 31.991887 195.521847 33.470403 
C 194.043331 34.948918 193.212593 36.954498 193.212593 39.045435 
C 193.212593 41.136372 194.043331 43.141952 195.521847 44.620468 
C 197.000363 46.098983 199.005942 46.929722 201.096879 46.929722 
z
" clip-path="url(#p789321c51c)" style="fill: #1e2e79; stroke: #000000"/>
    <path d="M 89.376388 55.824604 
C 93.826274 55.824604 98.094503 54.056646 101.241047 50.910101 
C 104.387592 47.763557 106.15555 43.495327 106.15555 39.045442 
C 106.15555 34.595556 104.387592 30.327326 101.241047 27.180782 
C 98.094503 24.034237 93.826274 22.266279 89.376388 22.266279 
C 84.926502 22.266279 80.658273 24.034237 77.511728 27.180782 
C 74.365183 30.327326 72.597225 34.595556 72.597225 39.045442 
C 72.597225 43.495327 74.365183 47.763557 77.511728 50.910101 
C 80.658273 54.056646 84.926502 55.824604 89.376388 55.824604 
z
" clip-path="url(#p789321c51c)" style="fill: #1e2e79; stroke: #000000"/>
    <path d="M 33.51615 144.529403 
C 36.620033 144.529403 39.597207 143.296218 41.791984 141.101441 
C 43.986761 138.906664 45.219947 135.92949 45.219947 132.825607 
C 45.219947 129.721724 43.986761 126.74455 41.791984 124.549773 
C 39.597207 122.354996 36.620033 121.12181 33.51615 121.12181 
C 30.412267 121.12181 27.435093 122.354996 25.240316 124.549773 
C 23.04554 126.74455 21.812354 129.721724 21.812354 132.825607 
C 21.812354 135.92949 23.04554 138.906664 25.240316 141.101441 
C 27.435093 143.296218 30.412267 144.529403 33.51615 144.529403 
z
" clip-path="url(#p789321c51c)" style="fill: #1e2e79; stroke: #000000"/>
    <path d="M 89.376404 244.896211 
C 94.227089 244.896211 98.879755 242.969014 102.309707 239.539062 
C 105.739659 236.10911 107.666856 231.456444 107.666856 226.60576 
C 107.666856 221.755075 105.739659 217.102409 102.309707 213.672457 
C 98.879755 210.242505 94.227089 208.315308 89.376404 208.315308 
C 84.52572 208.315308 79.873054 210.242505 76.443102 213.672457 
C 73.01315 217.102409 71.085953 221.755075 71.085953 226.60576 
C 71.085953 231.456444 73.01315 236.10911 76.443102 239.539062 
C 79.873054 242.969014 84.52572 244.896211 89.376404 244.896211 
z
" clip-path="url(#p789321c51c)" style="fill: #1e2e79; stroke: #000000"/>
    <path d="M 201.096872 233.676827 
C 202.972142 233.676827 204.770857 232.931775 206.096872 231.60576 
C 207.422888 230.279744 208.16794 228.481029 208.16794 226.60576 
C 208.16794 224.730491 207.422888 222.931775 206.096872 221.60576 
C 204.770857 220.279744 202.972142 219.534692 201.096872 219.534692 
C 199.221603 219.534692 197.422888 220.279744 196.096872 221.60576 
C 194.770857 222.931775 194.025805 224.730491 194.025805 226.60576 
C 194.025805 228.481029 194.770857 230.279744 196.096872 231.60576 
C 197.422888 232.931775 199.221603 233.676827 201.096872 233.676827 
z
" clip-path="url(#p789321c51c)" style="fill: #1e2e79; stroke: #000000"/>
   </g>
   <g id="text_1">
    <g clip-path="url(#p789321c51c)">
     <!-- A -->
     <g style="fill: #ffffff" transform="translate(253.087595 135.584972) scale(0.1 -0.1)">
      <defs>
       <path id="DejaVuSans-Bold-41" d="M 3419 850 
L 1538 850 
L 1241 0 
L 31 0 
L 1759 4666 
L 3194 4666 
L 4922 0 
L 3713 0 
L 3419 850 
z
M 1838 1716 
L 3116 1716 
L 2478 3572 
L 1838 1716 
z
" transform="scale(0.015625)"/>
      </defs>
      <use xlink:href="#DejaVuSans-Bold-41"/>
     </g>
    </g>
   </g>
   <g id="text_2">
    <g clip-path="url(#p789321c51c)">
     <!-- B -->
     <g style="fill: #ffffff" transform="translate(197.285942 41.80481) scale(0.1 -0.1)">
      <defs>
       <path id="DejaVuSans-Bold-42" d="M 2456 2859 
Q 2741 2859 2887 2984 
Q 3034 3109 3034 3353 
Q 3034 3594 2887 3720 
Q 2741 3847 2456 3847 
L 1791 3847 
L 1791 2859 
L 2456 2859 
z
M 2497 819 
Q 2859 819 3042 972 
Q 3225 1125 3225 1434 
Q 3225 1738 3044 1889 
Q 2863 2041 2497 2041 
L 1791 2041 
L 1791 819 
L 2497 819 
z
M 3616 2497 
Q 4003 2384 4215 2081 
Q 4428 1778 4428 1338 
Q 4428 663 3972 331 
Q 3516 0 2584 0 
L 588 0 
L 588 4666 
L 2394 4666 
Q 3366 4666 3802 4372 
Q 4238 4078 4238 3431 
Q 4238 3091 4078 2852 
Q 3919 2613 3616 2497 
z
" transform="scale(0.015625)"/>
      </defs>
      <use xlink:href="#DejaVuSans-Bold-42"/>
     </g>
    </g>
   </g>
   <g id="text_3">
    <g clip-path="url(#p789321c51c)">
     <!-- C -->
     <g style="fill: #ffffff" transform="translate(85.706856 41.804817) scale(0.1 -0.1)">
      <defs>
       <path id="DejaVuSans-Bold-43" d="M 4288 256 
Q 3956 84 3597 -3 
Q 3238 -91 2847 -91 
Q 1681 -91 1000 561 
Q 319 1213 319 2328 
Q 319 3447 1000 4098 
Q 1681 4750 2847 4750 
Q 3238 4750 3597 4662 
Q 3956 4575 4288 4403 
L 4288 3438 
Q 3953 3666 3628 3772 
Q 3303 3878 2944 3878 
Q 2300 3878 1931 3465 
Q 1563 3053 1563 2328 
Q 1563 1606 1931 1193 
Q 2300 781 2944 781 
Q 3303 781 3628 887 
Q 3953 994 4288 1222 
L 4288 256 
z
" transform="scale(0.015625)"/>
      </defs>
      <use xlink:href="#DejaVuSans-Bold-43"/>
     </g>
    </g>
   </g>
   <g id="text_4">
    <g clip-path="url(#p789321c51c)">
     <!-- D -->
     <g style="fill: #ffffff" transform="translate(29.365369 135.584982) scale(0.1 -0.1)">
      <defs>
       <path id="DejaVuSans-Bold-44" d="M 1791 3756 
L 1791 909 
L 2222 909 
Q 2959 909 3348 1275 
Q 3738 1641 3738 2338 
Q 3738 3031 3350 3393 
Q 2963 3756 2222 3756 
L 1791 3756 
z
M 588 4666 
L 1856 4666 
Q 2919 4666 3439 4514 
Q 3959 4363 4331 4000 
Q 4659 3684 4818 3271 
Q 4978 2859 4978 2338 
Q 4978 1809 4818 1395 
Q 4659 981 4331 666 
Q 3956 303 3431 151 
Q 2906 0 1856 0 
L 588 0 
L 588 4666 
z
" transform="scale(0.015625)"/>
      </defs>
      <use xlink:href="#DejaVuSans-Bold-44"/>
     </g>
    </g>
   </g>
   <g id="text_5">
    <g clip-path="url(#p789321c51c)">
     <!-- E -->
     <g style="fill: #ffffff" transform="translate(85.960779 229.365135) scale(0.1 -0.1)">
      <defs>
       <path id="DejaVuSans-Bold-45" d="M 588 4666 
L 3834 4666 
L 3834 3756 
L 1791 3756 
L 1791 2888 
L 3713 2888 
L 3713 1978 
L 1791 1978 
L 1791 909 
L 3903 909 
L 3903 0 
L 588 0 
L 588 4666 
z
" transform="scale(0.015625)"/>
      </defs>
      <use xlink:href="#DejaVuSans-Bold-45"/>
     </g>
    </g>
   </g>
   <g id="text_6">
    <g clip-path="url(#p789321c51c)">
     <!-- F -->
     <g style="fill: #ffffff" transform="translate(197.681247 229.365135) scale(0.1 -0.1)">
      <defs>
       <path id="DejaVuSans-Bold-46" d="M 588 4666 
L 3834 4666 
L 3834 3756 
L 1791 3756 
L 1791 2888 
L 3713 2888 
L 3713 1978 
L 1791 1978 
L 1791 0 
L 588 0 
L 588 4666 
z
" transform="scale(0.015625)"/>
      </defs>
      <use xlink:href="#DejaVuSans-Bold-46"/>
     </g>
    </g>
   </g>
   <g id="text_7">
    <!-- Reduced -->
    <g transform="translate(121.029612 -3.12) scale(0.096 -0.096)">
     <defs>
      <path id="Roboto-Regular-52" d="M 3188 0 
L 2200 1844 
L 1131 1844 
L 1131 0 
L 528 0 
L 528 4550 
L 2034 4550 
Q 2800 4550 3214 4200 
Q 3628 3850 3628 3184 
Q 3628 2759 3398 2442 
Q 3169 2125 2763 1969 
L 3831 38 
L 3831 0 
L 3188 0 
z
M 1131 4056 
L 1131 2334 
L 2053 2334 
Q 2538 2334 2783 2582 
Q 3028 2831 3028 3184 
Q 3028 3578 2792 3817 
Q 2556 4056 2034 4056 
L 1131 4056 
z
" transform="scale(0.015625)"/>
      <path id="Roboto-Regular-65" d="M 3116 591 
Q 2950 341 2647 139 
Q 2344 -63 1844 -63 
Q 1138 -63 714 396 
Q 291 856 291 1572 
L 291 1703 
Q 291 2256 502 2645 
Q 713 3034 1050 3239 
Q 1388 3444 1769 3444 
Q 2494 3444 2826 2970 
Q 3159 2497 3159 1788 
L 3159 1528 
L 872 1528 
Q 884 1063 1148 736 
Q 1413 409 1875 409 
Q 2181 409 2393 534 
Q 2606 659 2766 869 
L 3116 591 
z
M 1769 2969 
Q 1425 2969 1187 2719 
Q 950 2469 891 2000 
L 2581 2000 
L 2581 2044 
Q 2559 2381 2386 2675 
Q 2213 2969 1769 2969 
z
" transform="scale(0.015625)"/>
      <path id="Roboto-Regular-64" d="M 2622 0 
L 2594 363 
Q 2247 -63 1628 -63 
Q 1034 -63 668 418 
Q 303 900 297 1628 
L 297 1719 
Q 297 2494 664 2969 
Q 1031 3444 1634 3444 
Q 2231 3444 2572 3044 
L 2572 4800 
L 3153 4800 
L 3153 0 
L 2622 0 
z
M 878 1653 
Q 878 1150 1090 789 
Q 1303 428 1772 428 
Q 2309 428 2572 919 
L 2572 2475 
Q 2313 2956 1778 2956 
Q 1306 2956 1092 2589 
Q 878 2222 878 1719 
L 878 1653 
z
" transform="scale(0.015625)"/>
      <path id="Roboto-Regular-75" d="M 2538 0 
L 2525 334 
Q 2194 -63 1538 -63 
Q 1041 -63 734 231 
Q 428 525 428 1200 
L 428 3381 
L 1006 3381 
L 1006 1194 
Q 1006 738 1198 583 
Q 1391 428 1628 428 
Q 2281 428 2509 919 
L 2509 3381 
L 3091 3381 
L 3091 0 
L 2538 0 
z
" transform="scale(0.015625)"/>
      <path id="Roboto-Regular-63" d="M 1794 413 
Q 2103 413 2336 597 
Q 2569 781 2591 1069 
L 3141 1069 
Q 3119 616 2725 276 
Q 2331 -63 1794 -63 
Q 1031 -63 661 440 
Q 291 944 291 1625 
L 291 1756 
Q 291 2438 661 2941 
Q 1031 3444 1794 3444 
Q 2388 3444 2753 3092 
Q 3119 2741 3141 2219 
L 2591 2219 
Q 2569 2531 2355 2750 
Q 2141 2969 1794 2969 
Q 1438 2969 1236 2787 
Q 1034 2606 951 2328 
Q 869 2050 869 1756 
L 869 1625 
Q 869 1328 950 1050 
Q 1031 772 1232 592 
Q 1434 413 1794 413 
z
" transform="scale(0.015625)"/>
     </defs>
     <use xlink:href="#Roboto-Regular-52"/>
     <use xlink:href="#Roboto-Regular-65" transform="translate(61.621094 0)"/>
     <use xlink:href="#Roboto-Regular-64" transform="translate(114.648438 0)"/>
     <use xlink:href="#Roboto-Regular-75" transform="translate(171.044922 0)"/>
     <use xlink:href="#Roboto-Regular-63" transform="translate(226.171875 0)"/>
     <use xlink:href="#Roboto-Regular-65" transform="translate(278.515625 0)"/>
     <use xlink:href="#Roboto-Regular-64" transform="translate(331.542969 0)"/>
    </g>
   </g>
  </g>
  <g id="axes_2">
   <g id="patch_13">
    <path d="M 369.911311 43.379089 
Q 324.969835 71.336453 321.903846 122.233538 
" clip-path="url(#pe72bd22faf)" style="fill: none; stroke: #000000; stroke-width: 1.733004; stroke-linecap: round"/>
    <path d="M 324.62374 117.524881 
L 321.903846 122.233538 
L 319.768857 117.232428 
" clip-path="url(#pe72bd22faf)" style="fill: none; stroke: #000000; stroke-width: 1.733004; stroke-linecap: round"/>
   </g>
   <g id="patch_14">
    <path d="M 380.502459 47.136155 
Q 408.121588 122.703383 387.248044 197.480846 
" clip-path="url(#pe72bd22faf)" style="fill: none; stroke: #000000; stroke-width: 0.733396; stroke-linecap: round"/>
    <path d="M 390.177857 194.245371 
L 387.248044 197.480846 
L 386.417551 193.195711 
" clip-path="url(#pe72bd22faf)" style="fill: none; stroke: #000000; stroke-width: 0.733396; stroke-linecap: round"/>
   </g>
   <g id="patch_15">
    <path d="M 329.040002 128.491959 
Q 373.981478 100.534596 377.10453 48.690241 
" clip-path="url(#pe72bd22faf)" style="fill: none; stroke: #000000; stroke-width: 0.884205; stroke-linecap: round"/>
    <path d="M 374.840319 52.610023 
L 377.10453 48.690241 
L 378.881829 52.85348 
" clip-path="url(#pe72bd22faf)" style="fill: none; stroke: #000000; stroke-width: 0.884205; stroke-linecap: round"/>
   </g>
   <g id="patch_16">
    <path d="M 321.787091 141.479458 
Q 324.300713 183.22918 350.017078 206.810206 
" clip-path="url(#pe72bd22faf)" style="fill: none; stroke: #000000; stroke-width: 3.48825; stroke-linecap: round"/>
    <path d="M 347.403339 199.970942 
L 350.017078 206.810206 
L 342.977424 204.797639 
" clip-path="url(#pe72bd22faf)" style="fill: none; stroke: #000000; stroke-width: 3.48825; stroke-linecap: round"/>
   </g>
   <g id="patch_17">
    <path d="M 377.164239 217.951908 
Q 373.98338 165.119793 329.708067 137.574874 
" clip-path="url(#pe72bd22faf)" style="fill: none; stroke: #000000; stroke-width: 0.7; stroke-linecap: round"/>
    <path d="M 331.860181 141.080205 
L 329.708067 137.574874 
L 333.8036 137.956381 
" clip-path="url(#pe72bd22faf)" style="fill: none; stroke: #000000; stroke-width: 0.7; stroke-linecap: round"/>
   </g>
   <g id="PathCollection_2">
    <path d="M 544.986514 139.896665 
C 546.861783 139.896665 548.660499 139.151613 549.986514 137.825597 
C 551.31253 136.499582 552.057582 134.700866 552.057582 132.825597 
C 552.057582 130.950328 551.31253 129.151613 549.986514 127.825597 
C 548.660499 126.499582 546.861783 125.75453 544.986514 125.75453 
C 543.111245 125.75453 541.31253 126.499582 539.986514 127.825597 
C 538.660499 129.151613 537.915446 130.950328 537.915446 132.825597 
C 537.915446 134.700866 538.660499 136.499582 539.986514 137.825597 
C 541.31253 139.151613 543.111245 139.896665 544.986514 139.896665 
z
" clip-path="url(#pe72bd22faf)" style="fill: #ec4067; stroke: #000000"/>
    <path d="M 489.126267 46.116503 
C 491.001536 46.116503 492.800251 45.371451 494.126267 44.045435 
C 495.452282 42.71942 496.197335 40.920704 496.197335 39.045435 
C 496.197335 37.170166 495.452282 35.371451 494.126267 34.045435 
C 492.800251 32.71942 491.001536 31.974367 489.126267 31.974367 
C 487.250998 31.974367 485.452282 32.71942 484.126267 34.045435 
C 482.800251 35.371451 482.055199 37.170166 482.055199 39.045435 
C 482.055199 40.920704 482.800251 42.71942 484.126267 44.045435 
C 485.452282 45.371451 487.250998 46.116503 489.126267 46.116503 
z
" clip-path="url(#pe72bd22faf)" style="fill: #ec4067; stroke: #000000"/>
    <path d="M 377.405775 46.116509 
C 379.281045 46.116509 381.07976 45.371457 382.405775 44.045442 
C 383.731791 42.719426 384.476843 40.920711 384.476843 39.045442 
C 384.476843 37.170172 383.731791 35.371457 382.405775 34.045442 
C 381.07976 32.719426 379.281045 31.974374 377.405775 31.974374 
C 375.530506 31.974374 373.731791 32.719426 372.405775 34.045442 
C 371.07976 35.371457 370.334708 37.170172 370.334708 39.045442 
C 370.334708 40.920711 371.07976 42.719426 372.405775 44.045442 
C 373.731791 45.371457 375.530506 46.116509 377.405775 46.116509 
z
" clip-path="url(#pe72bd22faf)" style="fill: #ec4067; stroke: #000000"/>
    <path d="M 321.545538 139.896675 
C 323.420807 139.896675 325.219523 139.151622 326.545538 137.825607 
C 327.871554 136.499591 328.616606 134.700876 328.616606 132.825607 
C 328.616606 130.950338 327.871554 129.151622 326.545538 127.825607 
C 325.219523 126.499591 323.420807 125.754539 321.545538 125.754539 
C 319.670269 125.754539 317.871554 126.499591 316.545538 127.825607 
C 315.219523 129.151622 314.47447 130.950338 314.47447 132.825607 
C 314.47447 134.700876 315.219523 136.499591 316.545538 137.825607 
C 317.871554 139.151622 319.670269 139.896675 321.545538 139.896675 
z
" clip-path="url(#pe72bd22faf)" style="fill: #ec4067; stroke: #000000"/>
    <path d="M 377.405792 257.806 
C 385.680193 257.806 393.616809 254.518546 399.467694 248.667662 
C 405.318579 242.816777 408.606033 234.88016 408.606033 226.60576 
C 408.606033 218.331359 405.318579 210.394743 399.467694 204.543858 
C 393.616809 198.692973 385.680193 195.405519 377.405792 195.405519 
C 369.131391 195.405519 361.194775 198.692973 355.34389 204.543858 
C 349.493005 210.394743 346.205551 218.331359 346.205551 226.60576 
C 346.205551 234.88016 349.493005 242.816777 355.34389 248.667662 
C 361.194775 254.518546 369.131391 257.806 377.405792 257.806 
z
" clip-path="url(#pe72bd22faf)" style="fill: #ec4067; stroke: #000000"/>
    <path d="M 489.12626 233.676827 
C 491.001529 233.676827 492.800245 232.931775 494.12626 231.60576 
C 495.452276 230.279744 496.197328 228.481029 496.197328 226.60576 
C 496.197328 224.730491 495.452276 222.931775 494.12626 221.60576 
C 492.800245 220.279744 491.001529 219.534692 489.12626 219.534692 
C 487.250991 219.534692 485.452276 220.279744 484.12626 221.60576 
C 482.800245 222.931775 482.055192 224.730491 482.055192 226.60576 
C 482.055192 228.481029 482.800245 230.279744 484.12626 231.60576 
C 485.452276 232.931775 487.250991 233.676827 489.12626 233.676827 
z
" clip-path="url(#pe72bd22faf)" style="fill: #ec4067; stroke: #000000"/>
   </g>
   <g id="text_8">
    <g clip-path="url(#pe72bd22faf)">
     <!-- A -->
     <g style="fill: #ffffff" transform="translate(541.116983 135.584972) scale(0.1 -0.1)">
      <use xlink:href="#DejaVuSans-Bold-41"/>
     </g>
    </g>
   </g>
   <g id="text_9">
    <g clip-path="url(#pe72bd22faf)">
     <!-- B -->
     <g style="fill: #ffffff" transform="translate(485.315329 41.80481) scale(0.1 -0.1)">
      <use xlink:href="#DejaVuSans-Bold-42"/>
     </g>
    </g>
   </g>
   <g id="text_10">
    <g clip-path="url(#pe72bd22faf)">
     <!-- C -->
     <g style="fill: #ffffff" transform="translate(373.736244 41.804817) scale(0.1 -0.1)">
      <use xlink:href="#DejaVuSans-Bold-43"/>
     </g>
    </g>
   </g>
   <g id="text_11">
    <g clip-path="url(#pe72bd22faf)">
     <!-- D -->
     <g style="fill: #ffffff" transform="translate(317.394757 135.584982) scale(0.1 -0.1)">
      <use xlink:href="#DejaVuSans-Bold-44"/>
     </g>
    </g>
   </g>
   <g id="text_12">
    <g clip-path="url(#pe72bd22faf)">
     <!-- E -->
     <g style="fill: #ffffff" transform="translate(373.990167 229.365135) scale(0.1 -0.1)">
      <use xlink:href="#DejaVuSans-Bold-45"/>
     </g>
    </g>
   </g>
   <g id="text_13">
    <g clip-path="url(#pe72bd22faf)">
     <!-- F -->
     <g style="fill: #ffffff" transform="translate(485.710635 229.365135) scale(0.1 -0.1)">
      <use xlink:href="#DejaVuSans-Bold-46"/>
     </g>
    </g>
   </g>
   <g id="text_14">
    <!-- Oxidized -->
    <g transform="translate(409.32225 -3.12) scale(0.096 -0.096)">
     <defs>
      <path id="Roboto-Regular-4f" d="M 4031 2131 
Q 4031 1106 3534 521 
Q 3038 -63 2206 -63 
Q 1397 -63 884 521 
Q 372 1106 372 2131 
L 372 2419 
Q 372 3441 881 4027 
Q 1391 4613 2200 4613 
Q 3025 4613 3523 4036 
Q 4022 3459 4031 2456 
L 4031 2131 
z
M 3434 2425 
Q 3434 3238 3109 3669 
Q 2784 4100 2200 4100 
Q 1641 4100 1305 3669 
Q 969 3238 969 2425 
L 969 2131 
Q 969 1313 1308 880 
Q 1647 447 2206 447 
Q 2794 447 3114 880 
Q 3434 1313 3434 2131 
L 3434 2425 
z
" transform="scale(0.015625)"/>
      <path id="Roboto-Regular-78" d="M 831 3381 
L 1572 2150 
L 2322 3381 
L 3000 3381 
L 1894 1713 
L 3034 0 
L 2366 0 
L 1584 1269 
L 803 0 
L 131 0 
L 1269 1713 
L 166 3381 
L 831 3381 
z
" transform="scale(0.015625)"/>
      <path id="Roboto-Regular-69" d="M 444 4278 
Q 444 4419 530 4516 
Q 616 4613 784 4613 
Q 950 4613 1039 4516 
Q 1128 4419 1128 4278 
Q 1128 4144 1039 4048 
Q 950 3953 784 3953 
Q 616 3953 530 4048 
Q 444 4144 444 4278 
z
M 1069 3381 
L 1069 0 
L 488 0 
L 488 3381 
L 1069 3381 
z
" transform="scale(0.015625)"/>
      <path id="Roboto-Regular-7a" d="M 303 2903 
L 303 3381 
L 2869 3381 
L 2869 2972 
L 988 475 
L 2959 475 
L 2959 0 
L 278 0 
L 278 425 
L 2141 2903 
L 303 2903 
z
" transform="scale(0.015625)"/>
     </defs>
     <use xlink:href="#Roboto-Regular-4f"/>
     <use xlink:href="#Roboto-Regular-78" transform="translate(68.798828 0)"/>
     <use xlink:href="#Roboto-Regular-69" transform="translate(118.408203 0)"/>
     <use xlink:href="#Roboto-Regular-64" transform="translate(142.724609 0)"/>
     <use xlink:href="#Roboto-Regular-69" transform="translate(199.121094 0)"/>
     <use xlink:href="#Roboto-Regular-7a" transform="translate(223.4375 0)"/>
     <use xlink:href="#Roboto-Regular-65" transform="translate(273.046875 0)"/>
     <use xlink:href="#Roboto-Regular-64" transform="translate(326.074219 0)"/>
    </g>
   </g>
  </g>
  <g id="axes_3">
   <g id="patch_18">
    <path d="M 769.596929 34.817043 
Q 721.294006 9.756957 676.615146 32.938191 
" clip-path="url(#pb9f549a2ad)" style="fill: none; stroke: #000000; stroke-width: 3.65178; stroke-linecap: round"/>
    <path d="M 684.111517 32.826043 
L 676.615146 32.938191 
L 681.023251 26.873805 
" clip-path="url(#pb9f549a2ad)" style="fill: none; stroke: #000000; stroke-width: 3.65178; stroke-linecap: round"/>
   </g>
   <g id="patch_19">
    <path d="M 771.613411 45.696676 
Q 715.66256 110.862158 635.64821 128.216619 
" clip-path="url(#pb9f549a2ad)" style="fill: none; stroke: #000000; stroke-width: 2.197202; stroke-linecap: round"/>
    <path d="M 641.399575 129.685575 
L 635.64821 128.216619 
L 640.274194 124.496901 
" clip-path="url(#pb9f549a2ad)" style="fill: none; stroke: #000000; stroke-width: 2.197202; stroke-linecap: round"/>
   </g>
   <g id="patch_20">
    <path d="M 772.8318 46.552313 
Q 725.210377 132.827463 771.745823 217.131526 
" clip-path="url(#pb9f549a2ad)" style="fill: none; stroke: #000000; stroke-width: 2.013755; stroke-linecap: round"/>
    <path d="M 771.512156 211.397187 
L 771.745823 217.131526 
L 767.018151 213.877856 
" clip-path="url(#pb9f549a2ad)" style="fill: none; stroke: #000000; stroke-width: 2.013755; stroke-linecap: round"/>
   </g>
   <g id="patch_21">
    <path d="M 672.993889 43.273834 
Q 721.296812 68.33392 768.639795 43.770429 
" clip-path="url(#pb9f549a2ad)" style="fill: none; stroke: #000000; stroke-width: 0.967279; stroke-linecap: round"/>
    <path d="M 764.02441 43.839476 
L 768.639795 43.770429 
L 765.925802 47.504165 
" clip-path="url(#pb9f549a2ad)" style="fill: none; stroke: #000000; stroke-width: 0.967279; stroke-linecap: round"/>
   </g>
   <g id="patch_22">
    <path d="M 657.940699 43.379089 
Q 619.732517 67.14778 612.39969 105.295401 
" clip-path="url(#pb9f549a2ad)" style="fill: none; stroke: #000000; stroke-width: 3.278731; stroke-linecap: round"/>
    <path d="M 616.714634 99.661042 
L 612.39969 105.295401 
L 610.481169 98.462831 
" clip-path="url(#pb9f549a2ad)" style="fill: none; stroke: #000000; stroke-width: 3.278731; stroke-linecap: round"/>
   </g>
   <g id="patch_23">
    <path d="M 668.531847 47.136155 
Q 698.535101 129.226463 671.300718 210.574638 
" clip-path="url(#pb9f549a2ad)" style="fill: none; stroke: #000000; stroke-width: 0.7; stroke-linecap: round"/>
    <path d="M 674.178813 207.704065 
L 671.300718 210.574638 
L 670.731116 206.549818 
" clip-path="url(#pb9f549a2ad)" style="fill: none; stroke: #000000; stroke-width: 0.7; stroke-linecap: round"/>
   </g>
   <g id="patch_24">
    <path d="M 665.5397 47.703359 
Q 668.756683 164.120195 768.138341 221.550416 
" clip-path="url(#pb9f549a2ad)" style="fill: none; stroke: #000000; stroke-width: 1.501785; stroke-linecap: round"/>
    <path d="M 765.280633 217.218513 
L 768.138341 221.550416 
L 762.958194 221.23744 
" clip-path="url(#pb9f549a2ad)" style="fill: none; stroke: #000000; stroke-width: 1.501785; stroke-linecap: round"/>
   </g>
   <g id="patch_25">
    <path d="M 617.06939 128.491959 
Q 662.010866 100.534596 665.141654 48.561819 
" clip-path="url(#pb9f549a2ad)" style="fill: none; stroke: #000000; stroke-width: 0.769132; stroke-linecap: round"/>
    <path d="M 662.93922 52.374653 
L 665.141654 48.561819 
L 666.870461 52.611467 
" clip-path="url(#pb9f549a2ad)" style="fill: none; stroke: #000000; stroke-width: 0.769132; stroke-linecap: round"/>
   </g>
   <g id="patch_26">
    <path d="M 609.816479 141.479458 
Q 612.764298 190.440923 650.678122 217.400981 
" clip-path="url(#pb9f549a2ad)" style="fill: none; stroke: #000000; stroke-width: 0.985908; stroke-linecap: round"/>
    <path d="M 648.500359 213.308442 
L 650.678122 217.400981 
L 646.097432 216.687668 
" clip-path="url(#pb9f549a2ad)" style="fill: none; stroke: #000000; stroke-width: 0.985908; stroke-linecap: round"/>
   </g>
   <g id="patch_27">
    <path d="M 614.010699 140.265988 
Q 667.344272 226.214439 767.711926 226.712821 
" clip-path="url(#pb9f549a2ad)" style="fill: none; stroke: #000000; stroke-width: 0.7; stroke-linecap: round"/>
    <path d="M 764.207467 224.938785 
L 767.711926 226.712821 
L 764.190022 228.451966 
" clip-path="url(#pb9f549a2ad)" style="fill: none; stroke: #000000; stroke-width: 0.7; stroke-linecap: round"/>
   </g>
   <g id="patch_28">
    <path d="M 665.193627 217.951908 
Q 662.489336 173.03529 630.859086 147.127379 
" clip-path="url(#pb9f549a2ad)" style="fill: none; stroke: #000000; stroke-width: 1.453793; stroke-linecap: round"/>
    <path d="M 632.958309 151.817065 
L 630.859086 147.127379 
L 635.870369 148.261812 
" clip-path="url(#pb9f549a2ad)" style="fill: none; stroke: #000000; stroke-width: 1.453793; stroke-linecap: round"/>
   </g>
   <g id="patch_29">
    <path d="M 781.479503 219.098882 
Q 829.100925 132.823732 781.855657 47.233747 
" clip-path="url(#pb9f549a2ad)" style="fill: none; stroke: #000000; stroke-width: 0.7; stroke-linecap: round"/>
    <path d="M 782.021251 51.297523 
L 781.855657 47.233747 
L 785.206034 49.539538 
" clip-path="url(#pb9f549a2ad)" style="fill: none; stroke: #000000; stroke-width: 0.7; stroke-linecap: round"/>
   </g>
   <g id="patch_30">
    <path d="M 777.051111 217.947842 
Q 773.834128 101.531007 674.241539 43.978893 
" clip-path="url(#pb9f549a2ad)" style="fill: none; stroke: #000000; stroke-width: 1.283886; stroke-linecap: round"/>
    <path d="M 676.970462 48.115576 
L 674.241539 43.978893 
L 679.188239 44.277765 
" clip-path="url(#pb9f549a2ad)" style="fill: none; stroke: #000000; stroke-width: 1.283886; stroke-linecap: round"/>
   </g>
   <g id="patch_31">
    <path d="M 772.719874 219.165379 
Q 723.510744 139.863574 634.920466 133.400081 
" clip-path="url(#pb9f549a2ad)" style="fill: none; stroke: #000000; stroke-width: 1.18907; stroke-linecap: round"/>
    <path d="M 639.092507 135.880994 
L 634.920466 133.400081 
L 639.408421 131.550996 
" clip-path="url(#pb9f549a2ad)" style="fill: none; stroke: #000000; stroke-width: 1.18907; stroke-linecap: round"/>
   </g>
   <g id="patch_32">
    <path d="M 769.037776 229.616963 
Q 724.936799 244.693769 681.587533 232.134612 
" clip-path="url(#pb9f549a2ad)" style="fill: none; stroke: #000000; stroke-width: 0.7; stroke-linecap: round"/>
    <path d="M 684.496226 234.820785 
L 681.587533 232.134612 
L 685.481687 231.419362 
" clip-path="url(#pb9f549a2ad)" style="fill: none; stroke: #000000; stroke-width: 0.7; stroke-linecap: round"/>
   </g>
   <g id="PathCollection_3">
    <path d="M 833.015902 139.896665 
C 834.891171 139.896665 836.689887 139.151613 838.015902 137.825597 
C 839.341918 136.499582 840.08697 134.700866 840.08697 132.825597 
C 840.08697 130.950328 839.341918 129.151613 838.015902 127.825597 
C 836.689887 126.499582 834.891171 125.75453 833.015902 125.75453 
C 831.140633 125.75453 829.341918 126.499582 828.015902 127.825597 
C 826.689887 129.151613 825.944834 130.950328 825.944834 132.825597 
C 825.944834 134.700866 826.689887 136.499582 828.015902 137.825597 
C 829.341918 139.151613 831.140633 139.896665 833.015902 139.896665 
z
" clip-path="url(#pb9f549a2ad)" style="fill: #f99752; stroke: #000000"/>
    <path d="M 777.155655 46.116503 
C 779.030924 46.116503 780.829639 45.371451 782.155655 44.045435 
C 783.48167 42.71942 784.226722 40.920704 784.226722 39.045435 
C 784.226722 37.170166 783.48167 35.371451 782.155655 34.045435 
C 780.829639 32.71942 779.030924 31.974367 777.155655 31.974367 
C 775.280386 31.974367 773.48167 32.71942 772.155655 34.045435 
C 770.829639 35.371451 770.084587 37.170166 770.084587 39.045435 
C 770.084587 40.920704 770.829639 42.71942 772.155655 44.045435 
C 773.48167 45.371451 775.280386 46.116503 777.155655 46.116503 
z
" clip-path="url(#pb9f549a2ad)" style="fill: #f99752; stroke: #000000"/>
    <path d="M 665.435163 46.116509 
C 667.310432 46.116509 669.109148 45.371457 670.435163 44.045442 
C 671.761179 42.719426 672.506231 40.920711 672.506231 39.045442 
C 672.506231 37.170172 671.761179 35.371457 670.435163 34.045442 
C 669.109148 32.719426 667.310432 31.974374 665.435163 31.974374 
C 663.559894 31.974374 661.761179 32.719426 660.435163 34.045442 
C 659.109148 35.371457 658.364095 37.170172 658.364095 39.045442 
C 658.364095 40.920711 659.109148 42.719426 660.435163 44.045442 
C 661.761179 45.371457 663.559894 46.116509 665.435163 46.116509 
z
" clip-path="url(#pb9f549a2ad)" style="fill: #f99752; stroke: #000000"/>
    <path d="M 609.574926 157.871516 
C 616.217179 157.871516 622.588276 155.232521 627.285058 150.535739 
C 631.98184 145.838957 634.620835 139.46786 634.620835 132.825607 
C 634.620835 126.183354 631.98184 119.812257 627.285058 115.115475 
C 622.588276 110.418693 616.217179 107.779698 609.574926 107.779698 
C 602.932673 107.779698 596.561576 110.418693 591.864794 115.115475 
C 587.168012 119.812257 584.529017 126.183354 584.529017 132.825607 
C 584.529017 139.46786 587.168012 145.838957 591.864794 150.535739 
C 596.561576 155.232521 602.932673 157.871516 609.574926 157.871516 
z
" clip-path="url(#pb9f549a2ad)" style="fill: #f99752; stroke: #000000"/>
    <path d="M 665.43518 243.590955 
C 669.939706 243.590955 674.260345 241.801287 677.445526 238.616106 
C 680.630708 235.430925 682.420375 231.110286 682.420375 226.60576 
C 682.420375 222.101233 680.630708 217.780594 677.445526 214.595413 
C 674.260345 211.410232 669.939706 209.620565 665.43518 209.620565 
C 660.930653 209.620565 656.610014 211.410232 653.424833 214.595413 
C 650.239652 217.780594 648.449985 222.101233 648.449985 226.60576 
C 648.449985 231.110286 650.239652 235.430925 653.424833 238.616106 
C 656.610014 241.801287 660.930653 243.590955 665.43518 243.590955 
z
" clip-path="url(#pb9f549a2ad)" style="fill: #f99752; stroke: #000000"/>
    <path d="M 777.155648 233.676827 
C 779.030917 233.676827 780.829632 232.931775 782.155648 231.60576 
C 783.481663 230.279744 784.226716 228.481029 784.226716 226.60576 
C 784.226716 224.730491 783.481663 222.931775 782.155648 221.60576 
C 780.829632 220.279744 779.030917 219.534692 777.155648 219.534692 
C 775.280379 219.534692 773.481663 220.279744 772.155648 221.60576 
C 770.829632 222.931775 770.08458 224.730491 770.08458 226.60576 
C 770.08458 228.481029 770.829632 230.279744 772.155648 231.60576 
C 773.481663 232.931775 775.280379 233.676827 777.155648 233.676827 
z
" clip-path="url(#pb9f549a2ad)" style="fill: #f99752; stroke: #000000"/>
   </g>
   <g id="text_15">
    <g clip-path="url(#pb9f549a2ad)">
     <!-- A -->
     <g style="fill: #ffffff" transform="translate(829.146371 135.584972) scale(0.1 -0.1)">
      <use xlink:href="#DejaVuSans-Bold-41"/>
     </g>
    </g>
   </g>
   <g id="text_16">
    <g clip-path="url(#pb9f549a2ad)">
     <!-- B -->
     <g style="fill: #ffffff" transform="translate(773.344717 41.80481) scale(0.1 -0.1)">
      <use xlink:href="#DejaVuSans-Bold-42"/>
     </g>
    </g>
   </g>
   <g id="text_17">
    <g clip-path="url(#pb9f549a2ad)">
     <!-- C -->
     <g style="fill: #ffffff" transform="translate(661.765632 41.804817) scale(0.1 -0.1)">
      <use xlink:href="#DejaVuSans-Bold-43"/>
     </g>
    </g>
   </g>
   <g id="text_18">
    <g clip-path="url(#pb9f549a2ad)">
     <!-- D -->
     <g style="fill: #ffffff" transform="translate(605.424145 135.584982) scale(0.1 -0.1)">
      <use xlink:href="#DejaVuSans-Bold-44"/>
     </g>
    </g>
   </g>
   <g id="text_19">
    <g clip-path="url(#pb9f549a2ad)">
     <!-- E -->
     <g style="fill: #ffffff" transform="translate(662.019555 229.365135) scale(0.1 -0.1)">
      <use xlink:href="#DejaVuSans-Bold-45"/>
     </g>
    </g>
   </g>
   <g id="text_20">
    <g clip-path="url(#pb9f549a2ad)">
     <!-- F -->
     <g style="fill: #ffffff" transform="translate(773.740023 229.365135) scale(0.1 -0.1)">
      <use xlink:href="#DejaVuSans-Bold-46"/>
     </g>
    </g>
   </g>
   <g id="text_21">
    <!-- Cu(I) -->
    <g transform="translate(705.318888 -3.12) scale(0.096 -0.096)">
     <defs>
      <path id="Roboto-Regular-43" d="M 3275 1447 
L 3875 1447 
Q 3806 800 3387 368 
Q 2969 -63 2150 -63 
Q 1356 -63 870 504 
Q 384 1072 375 2013 
L 375 2500 
Q 375 3456 867 4034 
Q 1359 4613 2203 4613 
Q 2975 4613 3390 4188 
Q 3806 3763 3875 3091 
L 3275 3091 
Q 3206 3566 2968 3842 
Q 2731 4119 2203 4119 
Q 1600 4119 1287 3675 
Q 975 3231 975 2506 
L 975 2047 
Q 975 1375 1259 901 
Q 1544 428 2150 428 
Q 2725 428 2961 697 
Q 3197 966 3275 1447 
z
" transform="scale(0.015625)"/>
      <path id="Roboto-Regular-28" d="M 419 1850 
Q 419 2756 678 3434 
Q 938 4113 1294 4541 
Q 1650 4969 1947 5134 
L 2069 4753 
Q 1700 4475 1348 3761 
Q 997 3047 997 1813 
Q 997 625 1348 -97 
Q 1700 -819 2069 -1119 
L 1947 -1469 
Q 1650 -1306 1294 -878 
Q 938 -450 678 226 
Q 419 903 419 1850 
z
" transform="scale(0.015625)"/>
      <path id="Roboto-Regular-49" d="M 1175 4550 
L 1175 0 
L 572 0 
L 572 4550 
L 1175 4550 
z
" transform="scale(0.015625)"/>
      <path id="Roboto-Regular-29" d="M 1772 1819 
Q 1772 906 1512 228 
Q 1253 -450 895 -878 
Q 538 -1306 244 -1469 
L 122 -1119 
Q 488 -841 841 -109 
Q 1194 622 1194 1856 
Q 1194 2647 1019 3236 
Q 844 3825 594 4212 
Q 344 4600 122 4781 
L 244 5134 
Q 538 4969 895 4541 
Q 1253 4113 1512 3436 
Q 1772 2759 1772 1819 
z
" transform="scale(0.015625)"/>
     </defs>
     <use xlink:href="#Roboto-Regular-43"/>
     <use xlink:href="#Roboto-Regular-75" transform="translate(65.087891 0)"/>
     <use xlink:href="#Roboto-Regular-28" transform="translate(120.214844 0)"/>
     <use xlink:href="#Roboto-Regular-49" transform="translate(154.443359 0)"/>
     <use xlink:href="#Roboto-Regular-29" transform="translate(181.640625 0)"/>
    </g>
   </g>
  </g>
  <g id="text_22">
   <!-- Reduced -->
   <g transform="translate(114.666563 135.36) scale(0.12 -0.12)">
    <defs>
     <path id="Roboto-Bold-52" d="M 2944 0 
L 2094 1669 
L 1347 1669 
L 1347 0 
L 406 0 
L 406 4550 
L 2100 4550 
Q 2884 4550 3332 4198 
Q 3781 3847 3781 3175 
Q 3781 2681 3562 2378 
Q 3344 2075 2969 1906 
L 3953 44 
L 3953 0 
L 2944 0 
z
M 1347 3791 
L 1347 2425 
L 2100 2425 
Q 2469 2425 2655 2611 
Q 2841 2797 2841 3103 
Q 2841 3419 2659 3605 
Q 2478 3791 2100 3791 
L 1347 3791 
z
" transform="scale(0.015625)"/>
     <path id="Roboto-Bold-65" d="M 3225 550 
Q 3063 319 2731 128 
Q 2400 -63 1906 -63 
Q 1119 -63 675 414 
Q 231 891 228 1566 
L 228 1697 
Q 228 2463 654 2953 
Q 1081 3444 1806 3444 
Q 2534 3444 2915 2987 
Q 3297 2531 3297 1781 
L 3297 1397 
L 1144 1397 
Q 1191 1069 1403 867 
Q 1616 666 1963 666 
Q 2478 666 2778 1044 
L 3225 550 
z
M 1800 2716 
Q 1513 2716 1356 2522 
Q 1200 2328 1153 2016 
L 2409 2016 
L 2409 2084 
Q 2403 2356 2258 2536 
Q 2113 2716 1800 2716 
z
" transform="scale(0.015625)"/>
     <path id="Roboto-Bold-64" d="M 2438 0 
L 2394 359 
Q 2059 -63 1528 -63 
Q 900 -63 553 425 
Q 206 913 206 1650 
L 206 1716 
Q 206 2488 553 2966 
Q 900 3444 1534 3444 
Q 2028 3444 2347 3078 
L 2347 4800 
L 3253 4800 
L 3253 0 
L 2438 0 
z
M 1113 1650 
Q 1113 1244 1256 958 
Q 1400 672 1756 672 
Q 2169 672 2347 1022 
L 2347 2363 
Q 2175 2713 1763 2713 
Q 1409 2713 1261 2425 
Q 1113 2138 1113 1650 
z
" transform="scale(0.015625)"/>
     <path id="Roboto-Bold-75" d="M 2400 0 
L 2375 347 
Q 2044 -63 1450 -63 
Q 953 -63 642 228 
Q 331 519 328 1181 
L 328 3381 
L 1231 3381 
L 1231 1188 
Q 1231 906 1365 789 
Q 1500 672 1709 672 
Q 2169 672 2344 994 
L 2344 3381 
L 3250 3381 
L 3250 0 
L 2400 0 
z
" transform="scale(0.015625)"/>
     <path id="Roboto-Bold-63" d="M 1753 666 
Q 2000 666 2159 802 
Q 2319 938 2322 1169 
L 3172 1169 
Q 3166 631 2761 284 
Q 2356 -63 1769 -63 
Q 984 -63 595 432 
Q 206 928 206 1647 
L 206 1734 
Q 206 2450 593 2947 
Q 981 3444 1766 3444 
Q 2388 3444 2777 3087 
Q 3166 2731 3172 2122 
L 2322 2122 
Q 2319 2369 2172 2542 
Q 2025 2716 1750 2716 
Q 1356 2716 1234 2420 
Q 1113 2125 1113 1647 
Q 1113 1256 1233 961 
Q 1353 666 1753 666 
z
" transform="scale(0.015625)"/>
    </defs>
    <use xlink:href="#Roboto-Bold-52"/>
    <use xlink:href="#Roboto-Bold-65" transform="translate(63.818359 0)"/>
    <use xlink:href="#Roboto-Bold-64" transform="translate(117.871094 0)"/>
    <use xlink:href="#Roboto-Bold-75" transform="translate(174.267578 0)"/>
    <use xlink:href="#Roboto-Bold-63" transform="translate(230.273438 0)"/>
    <use xlink:href="#Roboto-Bold-65" transform="translate(282.470703 0)"/>
    <use xlink:href="#Roboto-Bold-64" transform="translate(336.523438 0)"/>
   </g>
  </g>
  <g id="text_23">
   <!-- Oxidized -->
   <g transform="translate(404.235 135.36) scale(0.12 -0.12)">
    <defs>
     <path id="Roboto-Bold-4f" d="M 4147 2172 
Q 4147 1131 3608 534 
Q 3069 -63 2212 -63 
Q 1356 -63 812 534 
Q 269 1131 269 2172 
L 269 2375 
Q 269 3416 809 4014 
Q 1350 4613 2206 4613 
Q 3063 4613 3605 4014 
Q 4147 3416 4147 2375 
L 4147 2172 
z
M 3197 2381 
Q 3197 3094 2937 3466 
Q 2678 3838 2206 3838 
Q 1734 3838 1478 3470 
Q 1222 3103 1219 2397 
L 1219 2172 
Q 1219 1463 1478 1086 
Q 1738 709 2213 709 
Q 2684 709 2939 1081 
Q 3194 1453 3197 2156 
L 3197 2381 
z
" transform="scale(0.015625)"/>
     <path id="Roboto-Bold-78" d="M 1081 3381 
L 1634 2375 
L 2203 3381 
L 3169 3381 
L 2206 1728 
L 3209 0 
L 2244 0 
L 1638 1066 
L 1041 0 
L 69 0 
L 1072 1728 
L 109 3381 
L 1081 3381 
z
" transform="scale(0.015625)"/>
     <path id="Roboto-Bold-69" d="M 341 4256 
Q 341 4459 478 4592 
Q 616 4725 847 4725 
Q 1078 4725 1215 4592 
Q 1353 4459 1353 4256 
Q 1353 4056 1215 3923 
Q 1078 3791 847 3791 
Q 616 3791 478 3923 
Q 341 4056 341 4256 
z
M 1303 3381 
L 1303 0 
L 397 0 
L 397 3381 
L 1303 3381 
z
" transform="scale(0.015625)"/>
     <path id="Roboto-Bold-7a" d="M 281 2653 
L 281 3381 
L 2991 3381 
L 2991 2850 
L 1384 728 
L 3038 728 
L 3038 0 
L 231 0 
L 231 550 
L 1828 2653 
L 281 2653 
z
" transform="scale(0.015625)"/>
    </defs>
    <use xlink:href="#Roboto-Bold-4f"/>
    <use xlink:href="#Roboto-Bold-78" transform="translate(69.042969 0)"/>
    <use xlink:href="#Roboto-Bold-69" transform="translate(119.970703 0)"/>
    <use xlink:href="#Roboto-Bold-64" transform="translate(146.484375 0)"/>
    <use xlink:href="#Roboto-Bold-69" transform="translate(202.880859 0)"/>
    <use xlink:href="#Roboto-Bold-7a" transform="translate(229.394531 0)"/>
    <use xlink:href="#Roboto-Bold-65" transform="translate(280.322266 0)"/>
    <use xlink:href="#Roboto-Bold-64" transform="translate(334.375 0)"/>
   </g>
  </g>
  <g id="text_24">
   <!-- Cu(I) -->
   <g transform="translate(703.857188 135.36) scale(0.12 -0.12)">
    <defs>
     <path id="Roboto-Bold-43" d="M 3044 1516 
L 3981 1516 
Q 3934 822 3461 379 
Q 2988 -63 2150 -63 
Q 1275 -63 772 526 
Q 269 1116 269 2125 
L 269 2422 
Q 269 3431 784 4023 
Q 1300 4616 2159 4616 
Q 3013 4616 3466 4161 
Q 3919 3706 3984 3006 
L 3047 3006 
Q 3016 3413 2820 3630 
Q 2625 3847 2159 3847 
Q 1247 3847 1222 2500 
L 1222 2125 
Q 1222 1419 1436 1062 
Q 1650 706 2150 706 
Q 2594 706 2801 907 
Q 3009 1109 3044 1516 
z
" transform="scale(0.015625)"/>
     <path id="Roboto-Bold-28" d="M 391 1850 
Q 391 2731 633 3392 
Q 875 4053 1234 4473 
Q 1594 4894 1947 5053 
L 2122 4566 
Q 1772 4303 1465 3661 
Q 1159 3019 1153 1906 
L 1153 1772 
Q 1153 628 1461 -23 
Q 1769 -675 2122 -944 
L 1947 -1422 
Q 1594 -1266 1234 -845 
Q 875 -425 633 237 
Q 391 900 391 1778 
L 391 1850 
z
" transform="scale(0.015625)"/>
     <path id="Roboto-Bold-49" d="M 1403 4550 
L 1403 0 
L 466 0 
L 466 4550 
L 1403 4550 
z
" transform="scale(0.015625)"/>
     <path id="Roboto-Bold-29" d="M 1906 1778 
Q 1906 928 1656 264 
Q 1406 -400 1034 -833 
Q 663 -1266 300 -1422 
L 125 -944 
Q 472 -684 780 -37 
Q 1088 609 1094 1722 
L 1094 1856 
Q 1094 3000 780 3656 
Q 466 4313 125 4572 
L 300 5053 
Q 663 4894 1034 4461 
Q 1406 4028 1656 3364 
Q 1906 2700 1906 1847 
L 1906 1778 
z
" transform="scale(0.015625)"/>
    </defs>
    <use xlink:href="#Roboto-Bold-43"/>
    <use xlink:href="#Roboto-Bold-75" transform="translate(65.478516 0)"/>
    <use xlink:href="#Roboto-Bold-28" transform="translate(121.484375 0)"/>
    <use xlink:href="#Roboto-Bold-49" transform="translate(156.591797 0)"/>
    <use xlink:href="#Roboto-Bold-29" transform="translate(185.791016 0)"/>
   </g>
  </g>
 </g>
 <defs>
  <clipPath id="p789321c51c">
   <rect x="0" y="2.88" width="279.301224" height="270.72"/>
  </clipPath>
  <clipPath id="pe72bd22faf">
   <rect x="288.029388" y="2.88" width="279.301224" height="270.72"/>
  </clipPath>
  <clipPath id="pb9f549a2ad">
   <rect x="576.058776" y="2.88" width="279.301224" height="270.72"/>
  </clipPath>
 </defs>
</svg>
