<?xml version="1.0" encoding="utf-8" standalone="no"?>
<!DOCTYPE svg PUBLIC "-//W3C//DTD SVG 1.1//EN"
  "http://www.w3.org/Graphics/SVG/1.1/DTD/svg11.dtd">
<svg xmlns:xlink="http://www.w3.org/1999/xlink" width="460.8pt" height="345.6pt" viewBox="0 0 460.8 345.6" xmlns="http://www.w3.org/2000/svg" version="1.1">
 <metadata>
  <rdf:RDF xmlns:dc="http://purl.org/dc/elements/1.1/" xmlns:cc="http://creativecommons.org/ns#" xmlns:rdf="http://www.w3.org/1999/02/22-rdf-syntax-ns#">
   <cc:Work>
    <dc:type rdf:resource="http://purl.org/dc/dcmitype/StillImage"/>
    <dc:date>2024-06-10T22:00:59.428703</dc:date>
    <dc:format>image/svg+xml</dc:format>
    <dc:creator>
     <cc:Agent>
      <dc:title>Matplotlib v3.8.4, https://matplotlib.org/</dc:title>
     </cc:Agent>
    </dc:creator>
   </cc:Work>
  </rdf:RDF>
 </metadata>
 <defs>
  <style type="text/css">*{stroke-linejoin: round; stroke-linecap: butt}</style>
 </defs>
 <g id="figure_1">
  <g id="patch_1">
   <path d="M 0 345.6 
L 460.8 345.6 
L 460.8 0 
L 0 0 
z
" style="fill: #ffffff"/>
  </g>
  <g id="axes_1">
   <g id="patch_2">
    <path d="M 46.64 303.64 
L 450 303.64 
L 450 10.8 
L 46.64 10.8 
z
" style="fill: #ffffff"/>
   </g>
   <g id="line2d_1">
    <path d="M 46.64 252.723378 
L 450 252.723378 
" clip-path="url(#p849cd70e45)" style="fill: none; stroke-dasharray: 1.75,2.8875; stroke-dashoffset: 0; stroke: #c0c0c0; stroke-width: 1.75"/>
   </g>
   <g id="line2d_2">
    <path d="M 46.64 207.960661 
L 48.658819 208.993214 
L 50.273874 209.587616 
L 51.888929 209.973462 
L 53.503984 210.148634 
L 55.119039 210.111387 
L 56.734094 209.860414 
L 58.349149 209.39488 
L 59.964204 208.714453 
L 61.579259 207.819334 
L 63.194314 206.710264 
L 65.213133 205.025099 
L 67.231952 203.011518 
L 69.250771 200.674766 
L 71.26959 198.021557 
L 73.692172 194.431667 
L 76.114755 190.415092 
L 78.537337 185.992141 
L 81.363684 180.350363 
L 84.19003 174.233522 
L 87.42014 166.738252 
L 91.861542 155.808232 
L 97.11047 142.911498 
L 99.533053 137.575587 
L 101.148108 134.476635 
L 102.763163 131.873944 
L 103.974454 130.30564 
L 105.185746 129.099206 
L 106.397037 128.270763 
L 107.204565 127.930403 
L 108.012092 127.757408 
L 108.81962 127.747646 
L 109.627147 127.895477 
L 110.838438 128.397976 
L 112.04973 129.215503 
L 113.261021 130.323451 
L 114.472312 131.698739 
L 116.087367 133.912511 
L 117.702422 136.520633 
L 119.721241 140.274769 
L 121.74006 144.50776 
L 124.162643 150.112066 
L 126.988989 157.204277 
L 131.026627 167.982054 
L 141.928248 197.403591 
L 145.562122 206.459989 
L 148.792232 213.948122 
L 151.618579 219.988308 
L 154.444925 225.493689 
L 156.867508 229.751147 
L 159.29009 233.555215 
L 161.308909 236.362401 
L 163.327728 238.827145 
L 165.346547 240.938971 
L 167.365365 242.688538 
L 168.98042 243.821761 
L 170.595475 244.714021 
L 172.210531 245.36191 
L 173.825586 245.76238 
L 175.440641 245.91273 
L 177.055696 245.8106 
L 178.670751 245.453955 
L 180.285806 244.84108 
L 181.900861 243.970576 
L 183.515916 242.84135 
L 185.130971 241.452615 
L 186.746026 239.803882 
L 188.764845 237.377077 
L 190.783664 234.544004 
L 192.802482 231.305621 
L 194.821301 227.663572 
L 197.243884 222.763606 
L 199.666466 217.291114 
L 202.089049 211.252971 
L 204.511632 204.657723 
L 207.337978 196.273209 
L 210.164324 187.165247 
L 212.990671 177.359501 
L 216.220781 165.340003 
L 219.854655 150.855999 
L 223.892292 133.710166 
L 228.737457 112.046191 
L 233.986386 88.609685 
L 235.601441 82.15063 
L 236.812733 77.966655 
L 237.62026 75.66002 
L 238.427788 73.865857 
L 239.235315 72.69261 
L 239.639079 72.367785 
L 240.042843 72.228549 
L 240.446607 72.279428 
L 240.85037 72.521484 
L 241.254134 72.952222 
L 242.061662 74.353177 
L 242.869189 76.402704 
L 244.08048 80.455581 
L 245.695536 87.106789 
L 248.118118 98.405189 
L 256.597157 138.898699 
L 260.231031 155.017745 
L 263.864905 170.114094 
L 267.095015 182.598587 
L 270.325125 194.14827 
L 273.151471 203.453972 
L 275.977818 211.989412 
L 278.4004 218.679422 
L 280.822983 224.782723 
L 283.245566 230.292917 
L 285.668148 235.205056 
L 287.686967 238.838883 
L 289.705786 242.053016 
L 291.724605 244.846105 
L 293.743423 247.217111 
L 295.358478 248.8095 
L 296.973534 250.131001 
L 298.588589 251.18145 
L 300.203644 251.960785 
L 301.818699 252.469041 
L 303.433754 252.706357 
L 305.048809 252.672978 
L 306.663864 252.369259 
L 308.278919 251.795677 
L 309.893974 250.952841 
L 311.509029 249.841508 
L 313.124084 248.462603 
L 314.739139 246.817245 
L 316.757958 244.387915 
L 318.776777 241.547565 
L 320.795596 238.300158 
L 322.814414 234.650581 
L 325.236997 229.748767 
L 327.65958 224.289511 
L 330.082162 218.28924 
L 332.908509 210.633036 
L 335.734855 202.310829 
L 338.964965 192.054115 
L 342.598839 179.690673 
L 347.04024 163.666377 
L 353.904224 137.875203 
L 370.458539 74.80547 
L 374.092412 59.60095 
L 380.956396 29.960904 
L 381.763924 27.359903 
L 382.571451 25.408512 
L 382.975215 24.738408 
L 383.378979 24.300693 
L 383.782743 24.110909 
L 384.186507 24.177907 
L 384.59027 24.502895 
L 384.994034 25.079301 
L 385.801562 26.926094 
L 386.609089 29.551809 
L 387.82038 34.515932 
L 389.839199 44.156418 
L 395.088128 69.774785 
L 398.318238 84.271931 
L 401.548348 97.69242 
L 404.778458 110.128723 
L 408.008569 121.68063 
L 411.238679 132.436607 
L 414.468789 142.466894 
L 417.698899 151.819849 
L 420.929009 160.521265 
L 424.159119 168.577045 
L 426.985465 175.089776 
L 429.811812 181.090919 
L 432.638158 186.567853 
L 435.060741 190.835546 
L 437.483323 194.701129 
L 439.905906 198.156986 
L 442.328488 201.195208 
L 444.347307 203.401924 
L 446.366126 205.307453 
L 448.384945 206.906255 
L 450 207.960661 
L 450 207.960661 
" clip-path="url(#p849cd70e45)" style="fill: none; stroke: #1e2e79; stroke-width: 2.5; stroke-linecap: square"/>
   </g>
   <g id="line2d_3">
    <path d="M 46.64 220.190325 
L 48.658819 221.605535 
L 50.273874 222.493769 
L 51.888929 223.165723 
L 53.503984 223.622545 
L 55.119039 223.865903 
L 56.734094 223.897904 
L 58.349149 223.720998 
L 59.964204 223.337887 
L 61.579259 222.751448 
L 63.194314 221.964682 
L 65.213133 220.704254 
L 67.231952 219.142044 
L 69.250771 217.285011 
L 71.26959 215.141184 
L 73.692172 212.20404 
L 76.114755 208.890679 
L 78.941101 204.592163 
L 82.171211 199.200142 
L 86.612613 191.256407 
L 91.457778 182.637862 
L 93.88036 178.722457 
L 95.899179 175.841353 
L 97.514234 173.867476 
L 99.129289 172.248589 
L 100.340581 171.298867 
L 101.551872 170.597826 
L 102.763163 170.162329 
L 103.974454 170.005659 
L 105.185746 170.136695 
L 106.397037 170.559186 
L 107.608328 171.271282 
L 108.81962 172.265489 
L 110.030911 173.529113 
L 111.645966 175.603236 
L 113.261021 178.077838 
L 115.27984 181.655491 
L 117.298659 185.680682 
L 119.721241 190.982372 
L 122.951351 198.659555 
L 126.988989 208.930325 
L 134.256737 228.235892 
L 139.909429 242.946202 
L 143.543303 251.844932 
L 146.773413 259.216561 
L 149.59976 265.165818 
L 152.426106 270.585644 
L 154.848689 274.771426 
L 157.271271 278.503709 
L 159.29009 281.250205 
L 161.308909 283.653001 
L 163.327728 285.701321 
L 165.346547 287.385616 
L 166.961602 288.465248 
L 168.576657 289.302625 
L 170.191712 289.894267 
L 171.806767 290.237039 
L 173.421822 290.328124 
L 175.036877 290.164999 
L 176.651932 289.745414 
L 178.266987 289.067367 
L 179.882042 288.129085 
L 181.497097 286.92901 
L 183.112152 285.465776 
L 184.727207 283.738196 
L 186.746026 281.205442 
L 188.764845 278.256399 
L 190.783664 274.889755 
L 192.802482 271.104538 
L 194.821301 266.900135 
L 197.243884 261.301262 
L 199.666466 255.099041 
L 202.089049 248.295325 
L 204.511632 240.893677 
L 207.337978 231.510637 
L 210.164324 221.336235 
L 212.990671 210.392061 
L 216.220781 196.981411 
L 219.854655 180.818328 
L 223.488529 163.625631 
L 227.526166 143.470722 
L 232.371331 118.052648 
L 238.024024 88.083542 
L 239.235315 82.60863 
L 240.042843 79.590951 
L 240.85037 77.31843 
L 241.254134 76.526212 
L 241.657898 75.991802 
L 242.061662 75.729273 
L 242.465425 75.744974 
L 242.869189 76.036806 
L 243.272953 76.594442 
L 244.08048 78.432122 
L 244.888008 81.067178 
L 246.099299 86.05392 
L 248.118118 95.757133 
L 255.385866 131.767788 
L 259.01974 148.439366 
L 262.653614 164.036555 
L 265.883724 176.956431 
L 269.113834 188.946561 
L 271.94018 198.645573 
L 274.766527 207.581587 
L 277.592873 215.735828 
L 280.015455 222.091499 
L 282.438038 227.854582 
L 284.860621 233.01993 
L 286.879439 236.865389 
L 288.898258 240.292512 
L 290.917077 243.301091 
L 292.935896 245.891582 
L 294.954715 248.065029 
L 296.56977 249.504548 
L 298.184825 250.679167 
L 299.79988 251.590092 
L 301.414935 252.238713 
L 303.02999 252.626615 
L 304.645045 252.755592 
L 306.2601 252.62768 
L 307.875155 252.245184 
L 309.49021 251.610728 
L 311.105265 250.727307 
L 312.72032 249.598341 
L 314.335375 248.227746 
L 316.354194 246.181578 
L 318.373013 243.774998 
L 320.391832 241.019778 
L 322.814414 237.272488 
L 325.236997 233.069461 
L 327.65958 228.440729 
L 330.485926 222.546083 
L 333.716036 215.223621 
L 336.946146 207.353162 
L 340.58002 197.937232 
L 345.021421 185.755326 
L 349.866587 171.78663 
L 355.519279 154.763697 
L 360.364444 139.504106 
L 364.402082 126.067952 
L 367.632192 114.603029 
L 370.862302 102.275273 
L 373.688649 90.621631 
L 376.514995 78.056606 
L 380.148869 60.722137 
L 382.571451 49.395186 
L 383.782743 44.636274 
L 384.59027 42.192632 
L 385.397798 40.577212 
L 385.801562 40.135664 
L 386.205325 39.956882 
L 386.609089 40.045214 
L 387.012853 40.396539 
L 387.416617 40.998736 
L 388.224144 42.875769 
L 389.031672 45.480783 
L 390.242963 50.298858 
L 392.665546 61.330597 
L 396.703183 79.718053 
L 399.933293 93.317146 
L 403.163403 105.950815 
L 406.797277 119.25094 
L 410.834915 133.183534 
L 415.276316 147.684062 
L 419.313954 160.107424 
L 422.947828 170.571653 
L 426.177938 179.222683 
L 429.408048 187.205629 
L 432.234394 193.61135 
L 435.060741 199.453638 
L 437.483323 203.997614 
L 439.905906 208.10025 
L 442.328488 211.749119 
L 444.347307 214.43481 
L 446.366126 216.791474 
L 448.384945 218.814443 
L 450 220.190325 
L 450 220.190325 
" clip-path="url(#p849cd70e45)" style="fill: none; stroke: #ec4067; stroke-width: 2.5; stroke-linecap: square"/>
   </g>
   <g id="matplotlib.axis_1">
    <g id="xtick_1">
     <g id="line2d_4">
      <defs>
       <path id="m511e4b3179" d="M 0 0 
L 0 3.5 
" style="stroke: #000000; stroke-width: 0.8"/>
      </defs>
      <g>
       <use xlink:href="#m511e4b3179" x="46.64" y="303.64" style="stroke: #000000; stroke-width: 0.8"/>
      </g>
     </g>
     <g id="text_1">
      <!-- −180 -->
      <g transform="translate(32.906406 318.238437) scale(0.1 -0.1)">
       <defs>
        <path id="DejaVuSans-2212" d="M 678 2272 
L 4684 2272 
L 4684 1741 
L 678 1741 
L 678 2272 
z
" transform="scale(0.015625)"/>
        <path id="DejaVuSans-31" d="M 794 531 
L 1825 531 
L 1825 4091 
L 703 3866 
L 703 4441 
L 1819 4666 
L 2450 4666 
L 2450 531 
L 3481 531 
L 3481 0 
L 794 0 
L 794 531 
z
" transform="scale(0.015625)"/>
        <path id="DejaVuSans-38" d="M 2034 2216 
Q 1584 2216 1326 1975 
Q 1069 1734 1069 1313 
Q 1069 891 1326 650 
Q 1584 409 2034 409 
Q 2484 409 2743 651 
Q 3003 894 3003 1313 
Q 3003 1734 2745 1975 
Q 2488 2216 2034 2216 
z
M 1403 2484 
Q 997 2584 770 2862 
Q 544 3141 544 3541 
Q 544 4100 942 4425 
Q 1341 4750 2034 4750 
Q 2731 4750 3128 4425 
Q 3525 4100 3525 3541 
Q 3525 3141 3298 2862 
Q 3072 2584 2669 2484 
Q 3125 2378 3379 2068 
Q 3634 1759 3634 1313 
Q 3634 634 3220 271 
Q 2806 -91 2034 -91 
Q 1263 -91 848 271 
Q 434 634 434 1313 
Q 434 1759 690 2068 
Q 947 2378 1403 2484 
z
M 1172 3481 
Q 1172 3119 1398 2916 
Q 1625 2713 2034 2713 
Q 2441 2713 2670 2916 
Q 2900 3119 2900 3481 
Q 2900 3844 2670 4047 
Q 2441 4250 2034 4250 
Q 1625 4250 1398 4047 
Q 1172 3844 1172 3481 
z
" transform="scale(0.015625)"/>
        <path id="DejaVuSans-30" d="M 2034 4250 
Q 1547 4250 1301 3770 
Q 1056 3291 1056 2328 
Q 1056 1369 1301 889 
Q 1547 409 2034 409 
Q 2525 409 2770 889 
Q 3016 1369 3016 2328 
Q 3016 3291 2770 3770 
Q 2525 4250 2034 4250 
z
M 2034 4750 
Q 2819 4750 3233 4129 
Q 3647 3509 3647 2328 
Q 3647 1150 3233 529 
Q 2819 -91 2034 -91 
Q 1250 -91 836 529 
Q 422 1150 422 2328 
Q 422 3509 836 4129 
Q 1250 4750 2034 4750 
z
" transform="scale(0.015625)"/>
       </defs>
       <use xlink:href="#DejaVuSans-2212"/>
       <use xlink:href="#DejaVuSans-31" x="83.789062"/>
       <use xlink:href="#DejaVuSans-38" x="147.412109"/>
       <use xlink:href="#DejaVuSans-30" x="211.035156"/>
      </g>
     </g>
    </g>
    <g id="xtick_2">
     <g id="line2d_5">
      <g>
       <use xlink:href="#m511e4b3179" x="113.866667" y="303.64" style="stroke: #000000; stroke-width: 0.8"/>
      </g>
     </g>
     <g id="text_2">
      <!-- −120 -->
      <g transform="translate(100.133073 318.238437) scale(0.1 -0.1)">
       <defs>
        <path id="DejaVuSans-32" d="M 1228 531 
L 3431 531 
L 3431 0 
L 469 0 
L 469 531 
Q 828 903 1448 1529 
Q 2069 2156 2228 2338 
Q 2531 2678 2651 2914 
Q 2772 3150 2772 3378 
Q 2772 3750 2511 3984 
Q 2250 4219 1831 4219 
Q 1534 4219 1204 4116 
Q 875 4013 500 3803 
L 500 4441 
Q 881 4594 1212 4672 
Q 1544 4750 1819 4750 
Q 2544 4750 2975 4387 
Q 3406 4025 3406 3419 
Q 3406 3131 3298 2873 
Q 3191 2616 2906 2266 
Q 2828 2175 2409 1742 
Q 1991 1309 1228 531 
z
" transform="scale(0.015625)"/>
       </defs>
       <use xlink:href="#DejaVuSans-2212"/>
       <use xlink:href="#DejaVuSans-31" x="83.789062"/>
       <use xlink:href="#DejaVuSans-32" x="147.412109"/>
       <use xlink:href="#DejaVuSans-30" x="211.035156"/>
      </g>
     </g>
    </g>
    <g id="xtick_3">
     <g id="line2d_6">
      <g>
       <use xlink:href="#m511e4b3179" x="181.093333" y="303.64" style="stroke: #000000; stroke-width: 0.8"/>
      </g>
     </g>
     <g id="text_3">
      <!-- −60 -->
      <g transform="translate(170.54099 318.238437) scale(0.1 -0.1)">
       <defs>
        <path id="DejaVuSans-36" d="M 2113 2584 
Q 1688 2584 1439 2293 
Q 1191 2003 1191 1497 
Q 1191 994 1439 701 
Q 1688 409 2113 409 
Q 2538 409 2786 701 
Q 3034 994 3034 1497 
Q 3034 2003 2786 2293 
Q 2538 2584 2113 2584 
z
M 3366 4563 
L 3366 3988 
Q 3128 4100 2886 4159 
Q 2644 4219 2406 4219 
Q 1781 4219 1451 3797 
Q 1122 3375 1075 2522 
Q 1259 2794 1537 2939 
Q 1816 3084 2150 3084 
Q 2853 3084 3261 2657 
Q 3669 2231 3669 1497 
Q 3669 778 3244 343 
Q 2819 -91 2113 -91 
Q 1303 -91 875 529 
Q 447 1150 447 2328 
Q 447 3434 972 4092 
Q 1497 4750 2381 4750 
Q 2619 4750 2861 4703 
Q 3103 4656 3366 4563 
z
" transform="scale(0.015625)"/>
       </defs>
       <use xlink:href="#DejaVuSans-2212"/>
       <use xlink:href="#DejaVuSans-36" x="83.789062"/>
       <use xlink:href="#DejaVuSans-30" x="147.412109"/>
      </g>
     </g>
    </g>
    <g id="xtick_4">
     <g id="line2d_7">
      <g>
       <use xlink:href="#m511e4b3179" x="248.32" y="303.64" style="stroke: #000000; stroke-width: 0.8"/>
      </g>
     </g>
     <g id="text_4">
      <!-- 0 -->
      <g transform="translate(245.13875 318.238437) scale(0.1 -0.1)">
       <use xlink:href="#DejaVuSans-30"/>
      </g>
     </g>
    </g>
    <g id="xtick_5">
     <g id="line2d_8">
      <g>
       <use xlink:href="#m511e4b3179" x="315.546667" y="303.64" style="stroke: #000000; stroke-width: 0.8"/>
      </g>
     </g>
     <g id="text_5">
      <!-- 60 -->
      <g transform="translate(309.184167 318.238437) scale(0.1 -0.1)">
       <use xlink:href="#DejaVuSans-36"/>
       <use xlink:href="#DejaVuSans-30" x="63.623047"/>
      </g>
     </g>
    </g>
    <g id="xtick_6">
     <g id="line2d_9">
      <g>
       <use xlink:href="#m511e4b3179" x="382.773333" y="303.64" style="stroke: #000000; stroke-width: 0.8"/>
      </g>
     </g>
     <g id="text_6">
      <!-- 120 -->
      <g transform="translate(373.229583 318.238437) scale(0.1 -0.1)">
       <use xlink:href="#DejaVuSans-31"/>
       <use xlink:href="#DejaVuSans-32" x="63.623047"/>
       <use xlink:href="#DejaVuSans-30" x="127.246094"/>
      </g>
     </g>
    </g>
    <g id="xtick_7">
     <g id="line2d_10">
      <g>
       <use xlink:href="#m511e4b3179" x="450" y="303.64" style="stroke: #000000; stroke-width: 0.8"/>
      </g>
     </g>
     <g id="text_7">
      <!-- 180 -->
      <g transform="translate(440.45625 318.238437) scale(0.1 -0.1)">
       <use xlink:href="#DejaVuSans-31"/>
       <use xlink:href="#DejaVuSans-38" x="63.623047"/>
       <use xlink:href="#DejaVuSans-30" x="127.246094"/>
      </g>
     </g>
    </g>
    <g id="text_8">
     <!-- CRO66 OG1-CB1-CA1-C1 Dihedral [°] -->
     <g transform="translate(155.448125 331.916562) scale(0.1 -0.1)">
      <defs>
       <path id="DejaVuSans-43" d="M 4122 4306 
L 4122 3641 
Q 3803 3938 3442 4084 
Q 3081 4231 2675 4231 
Q 1875 4231 1450 3742 
Q 1025 3253 1025 2328 
Q 1025 1406 1450 917 
Q 1875 428 2675 428 
Q 3081 428 3442 575 
Q 3803 722 4122 1019 
L 4122 359 
Q 3791 134 3420 21 
Q 3050 -91 2638 -91 
Q 1578 -91 968 557 
Q 359 1206 359 2328 
Q 359 3453 968 4101 
Q 1578 4750 2638 4750 
Q 3056 4750 3426 4639 
Q 3797 4528 4122 4306 
z
" transform="scale(0.015625)"/>
       <path id="DejaVuSans-52" d="M 2841 2188 
Q 3044 2119 3236 1894 
Q 3428 1669 3622 1275 
L 4263 0 
L 3584 0 
L 2988 1197 
Q 2756 1666 2539 1819 
Q 2322 1972 1947 1972 
L 1259 1972 
L 1259 0 
L 628 0 
L 628 4666 
L 2053 4666 
Q 2853 4666 3247 4331 
Q 3641 3997 3641 3322 
Q 3641 2881 3436 2590 
Q 3231 2300 2841 2188 
z
M 1259 4147 
L 1259 2491 
L 2053 2491 
Q 2509 2491 2742 2702 
Q 2975 2913 2975 3322 
Q 2975 3731 2742 3939 
Q 2509 4147 2053 4147 
L 1259 4147 
z
" transform="scale(0.015625)"/>
       <path id="DejaVuSans-4f" d="M 2522 4238 
Q 1834 4238 1429 3725 
Q 1025 3213 1025 2328 
Q 1025 1447 1429 934 
Q 1834 422 2522 422 
Q 3209 422 3611 934 
Q 4013 1447 4013 2328 
Q 4013 3213 3611 3725 
Q 3209 4238 2522 4238 
z
M 2522 4750 
Q 3503 4750 4090 4092 
Q 4678 3434 4678 2328 
Q 4678 1225 4090 567 
Q 3503 -91 2522 -91 
Q 1538 -91 948 565 
Q 359 1222 359 2328 
Q 359 3434 948 4092 
Q 1538 4750 2522 4750 
z
" transform="scale(0.015625)"/>
       <path id="DejaVuSans-20" transform="scale(0.015625)"/>
       <path id="DejaVuSans-47" d="M 3809 666 
L 3809 1919 
L 2778 1919 
L 2778 2438 
L 4434 2438 
L 4434 434 
Q 4069 175 3628 42 
Q 3188 -91 2688 -91 
Q 1594 -91 976 548 
Q 359 1188 359 2328 
Q 359 3472 976 4111 
Q 1594 4750 2688 4750 
Q 3144 4750 3555 4637 
Q 3966 4525 4313 4306 
L 4313 3634 
Q 3963 3931 3569 4081 
Q 3175 4231 2741 4231 
Q 1884 4231 1454 3753 
Q 1025 3275 1025 2328 
Q 1025 1384 1454 906 
Q 1884 428 2741 428 
Q 3075 428 3337 486 
Q 3600 544 3809 666 
z
" transform="scale(0.015625)"/>
       <path id="DejaVuSans-2d" d="M 313 2009 
L 1997 2009 
L 1997 1497 
L 313 1497 
L 313 2009 
z
" transform="scale(0.015625)"/>
       <path id="DejaVuSans-42" d="M 1259 2228 
L 1259 519 
L 2272 519 
Q 2781 519 3026 730 
Q 3272 941 3272 1375 
Q 3272 1813 3026 2020 
Q 2781 2228 2272 2228 
L 1259 2228 
z
M 1259 4147 
L 1259 2741 
L 2194 2741 
Q 2656 2741 2882 2914 
Q 3109 3088 3109 3444 
Q 3109 3797 2882 3972 
Q 2656 4147 2194 4147 
L 1259 4147 
z
M 628 4666 
L 2241 4666 
Q 2963 4666 3353 4366 
Q 3744 4066 3744 3513 
Q 3744 3084 3544 2831 
Q 3344 2578 2956 2516 
Q 3422 2416 3680 2098 
Q 3938 1781 3938 1306 
Q 3938 681 3513 340 
Q 3088 0 2303 0 
L 628 0 
L 628 4666 
z
" transform="scale(0.015625)"/>
       <path id="DejaVuSans-41" d="M 2188 4044 
L 1331 1722 
L 3047 1722 
L 2188 4044 
z
M 1831 4666 
L 2547 4666 
L 4325 0 
L 3669 0 
L 3244 1197 
L 1141 1197 
L 716 0 
L 50 0 
L 1831 4666 
z
" transform="scale(0.015625)"/>
       <path id="DejaVuSans-44" d="M 1259 4147 
L 1259 519 
L 2022 519 
Q 2988 519 3436 956 
Q 3884 1394 3884 2338 
Q 3884 3275 3436 3711 
Q 2988 4147 2022 4147 
L 1259 4147 
z
M 628 4666 
L 1925 4666 
Q 3281 4666 3915 4102 
Q 4550 3538 4550 2338 
Q 4550 1131 3912 565 
Q 3275 0 1925 0 
L 628 0 
L 628 4666 
z
" transform="scale(0.015625)"/>
       <path id="DejaVuSans-69" d="M 603 3500 
L 1178 3500 
L 1178 0 
L 603 0 
L 603 3500 
z
M 603 4863 
L 1178 4863 
L 1178 4134 
L 603 4134 
L 603 4863 
z
" transform="scale(0.015625)"/>
       <path id="DejaVuSans-68" d="M 3513 2113 
L 3513 0 
L 2938 0 
L 2938 2094 
Q 2938 2591 2744 2837 
Q 2550 3084 2163 3084 
Q 1697 3084 1428 2787 
Q 1159 2491 1159 1978 
L 1159 0 
L 581 0 
L 581 4863 
L 1159 4863 
L 1159 2956 
Q 1366 3272 1645 3428 
Q 1925 3584 2291 3584 
Q 2894 3584 3203 3211 
Q 3513 2838 3513 2113 
z
" transform="scale(0.015625)"/>
       <path id="DejaVuSans-65" d="M 3597 1894 
L 3597 1613 
L 953 1613 
Q 991 1019 1311 708 
Q 1631 397 2203 397 
Q 2534 397 2845 478 
Q 3156 559 3463 722 
L 3463 178 
Q 3153 47 2828 -22 
Q 2503 -91 2169 -91 
Q 1331 -91 842 396 
Q 353 884 353 1716 
Q 353 2575 817 3079 
Q 1281 3584 2069 3584 
Q 2775 3584 3186 3129 
Q 3597 2675 3597 1894 
z
M 3022 2063 
Q 3016 2534 2758 2815 
Q 2500 3097 2075 3097 
Q 1594 3097 1305 2825 
Q 1016 2553 972 2059 
L 3022 2063 
z
" transform="scale(0.015625)"/>
       <path id="DejaVuSans-64" d="M 2906 2969 
L 2906 4863 
L 3481 4863 
L 3481 0 
L 2906 0 
L 2906 525 
Q 2725 213 2448 61 
Q 2172 -91 1784 -91 
Q 1150 -91 751 415 
Q 353 922 353 1747 
Q 353 2572 751 3078 
Q 1150 3584 1784 3584 
Q 2172 3584 2448 3432 
Q 2725 3281 2906 2969 
z
M 947 1747 
Q 947 1113 1208 752 
Q 1469 391 1925 391 
Q 2381 391 2643 752 
Q 2906 1113 2906 1747 
Q 2906 2381 2643 2742 
Q 2381 3103 1925 3103 
Q 1469 3103 1208 2742 
Q 947 2381 947 1747 
z
" transform="scale(0.015625)"/>
       <path id="DejaVuSans-72" d="M 2631 2963 
Q 2534 3019 2420 3045 
Q 2306 3072 2169 3072 
Q 1681 3072 1420 2755 
Q 1159 2438 1159 1844 
L 1159 0 
L 581 0 
L 581 3500 
L 1159 3500 
L 1159 2956 
Q 1341 3275 1631 3429 
Q 1922 3584 2338 3584 
Q 2397 3584 2469 3576 
Q 2541 3569 2628 3553 
L 2631 2963 
z
" transform="scale(0.015625)"/>
       <path id="DejaVuSans-61" d="M 2194 1759 
Q 1497 1759 1228 1600 
Q 959 1441 959 1056 
Q 959 750 1161 570 
Q 1363 391 1709 391 
Q 2188 391 2477 730 
Q 2766 1069 2766 1631 
L 2766 1759 
L 2194 1759 
z
M 3341 1997 
L 3341 0 
L 2766 0 
L 2766 531 
Q 2569 213 2275 61 
Q 1981 -91 1556 -91 
Q 1019 -91 701 211 
Q 384 513 384 1019 
Q 384 1609 779 1909 
Q 1175 2209 1959 2209 
L 2766 2209 
L 2766 2266 
Q 2766 2663 2505 2880 
Q 2244 3097 1772 3097 
Q 1472 3097 1187 3025 
Q 903 2953 641 2809 
L 641 3341 
Q 956 3463 1253 3523 
Q 1550 3584 1831 3584 
Q 2591 3584 2966 3190 
Q 3341 2797 3341 1997 
z
" transform="scale(0.015625)"/>
       <path id="DejaVuSans-6c" d="M 603 4863 
L 1178 4863 
L 1178 0 
L 603 0 
L 603 4863 
z
" transform="scale(0.015625)"/>
       <path id="DejaVuSans-5b" d="M 550 4863 
L 1875 4863 
L 1875 4416 
L 1125 4416 
L 1125 -397 
L 1875 -397 
L 1875 -844 
L 550 -844 
L 550 4863 
z
" transform="scale(0.015625)"/>
       <path id="DejaVuSans-b0" d="M 1600 4347 
Q 1350 4347 1178 4173 
Q 1006 4000 1006 3750 
Q 1006 3503 1178 3333 
Q 1350 3163 1600 3163 
Q 1850 3163 2022 3333 
Q 2194 3503 2194 3750 
Q 2194 3997 2020 4172 
Q 1847 4347 1600 4347 
z
M 1600 4750 
Q 1800 4750 1984 4673 
Q 2169 4597 2303 4453 
Q 2447 4313 2519 4134 
Q 2591 3956 2591 3750 
Q 2591 3338 2302 3052 
Q 2013 2766 1594 2766 
Q 1172 2766 890 3047 
Q 609 3328 609 3750 
Q 609 4169 896 4459 
Q 1184 4750 1600 4750 
z
" transform="scale(0.015625)"/>
       <path id="DejaVuSans-5d" d="M 1947 4863 
L 1947 -844 
L 622 -844 
L 622 -397 
L 1369 -397 
L 1369 4416 
L 622 4416 
L 622 4863 
L 1947 4863 
z
" transform="scale(0.015625)"/>
      </defs>
      <use xlink:href="#DejaVuSans-43"/>
      <use xlink:href="#DejaVuSans-52" x="69.824219"/>
      <use xlink:href="#DejaVuSans-4f" x="139.306641"/>
      <use xlink:href="#DejaVuSans-36" x="218.017578"/>
      <use xlink:href="#DejaVuSans-36" x="281.640625"/>
      <use xlink:href="#DejaVuSans-20" x="345.263672"/>
      <use xlink:href="#DejaVuSans-4f" x="377.050781"/>
      <use xlink:href="#DejaVuSans-47" x="455.761719"/>
      <use xlink:href="#DejaVuSans-31" x="533.251953"/>
      <use xlink:href="#DejaVuSans-2d" x="596.875"/>
      <use xlink:href="#DejaVuSans-43" x="632.958984"/>
      <use xlink:href="#DejaVuSans-42" x="702.783203"/>
      <use xlink:href="#DejaVuSans-31" x="771.386719"/>
      <use xlink:href="#DejaVuSans-2d" x="835.009766"/>
      <use xlink:href="#DejaVuSans-43" x="871.09375"/>
      <use xlink:href="#DejaVuSans-41" x="940.917969"/>
      <use xlink:href="#DejaVuSans-31" x="1009.326172"/>
      <use xlink:href="#DejaVuSans-2d" x="1072.949219"/>
      <use xlink:href="#DejaVuSans-43" x="1109.033203"/>
      <use xlink:href="#DejaVuSans-31" x="1178.857422"/>
      <use xlink:href="#DejaVuSans-20" x="1242.480469"/>
      <use xlink:href="#DejaVuSans-44" x="1274.267578"/>
      <use xlink:href="#DejaVuSans-69" x="1351.269531"/>
      <use xlink:href="#DejaVuSans-68" x="1379.052734"/>
      <use xlink:href="#DejaVuSans-65" x="1442.431641"/>
      <use xlink:href="#DejaVuSans-64" x="1503.955078"/>
      <use xlink:href="#DejaVuSans-72" x="1567.431641"/>
      <use xlink:href="#DejaVuSans-61" x="1608.544922"/>
      <use xlink:href="#DejaVuSans-6c" x="1669.824219"/>
      <use xlink:href="#DejaVuSans-20" x="1697.607422"/>
      <use xlink:href="#DejaVuSans-5b" x="1729.394531"/>
      <use xlink:href="#DejaVuSans-b0" x="1768.408203"/>
      <use xlink:href="#DejaVuSans-5d" x="1818.408203"/>
     </g>
    </g>
   </g>
   <g id="matplotlib.axis_2">
    <g id="ytick_1">
     <g id="line2d_11">
      <defs>
       <path id="mb6de71be3b" d="M 0 0 
L -3.5 0 
" style="stroke: #000000; stroke-width: 0.8"/>
      </defs>
      <g>
       <use xlink:href="#mb6de71be3b" x="46.64" y="286.034626" style="stroke: #000000; stroke-width: 0.8"/>
      </g>
     </g>
     <g id="text_9">
      <!-- −1 -->
      <g transform="translate(24.897813 289.833845) scale(0.1 -0.1)">
       <use xlink:href="#DejaVuSans-2212"/>
       <use xlink:href="#DejaVuSans-31" x="83.789062"/>
      </g>
     </g>
    </g>
    <g id="ytick_2">
     <g id="line2d_12">
      <g>
       <use xlink:href="#mb6de71be3b" x="46.64" y="252.723378" style="stroke: #000000; stroke-width: 0.8"/>
      </g>
     </g>
     <g id="text_10">
      <!-- 0 -->
      <g transform="translate(33.2775 256.522597) scale(0.1 -0.1)">
       <use xlink:href="#DejaVuSans-30"/>
      </g>
     </g>
    </g>
    <g id="ytick_3">
     <g id="line2d_13">
      <g>
       <use xlink:href="#mb6de71be3b" x="46.64" y="219.41213" style="stroke: #000000; stroke-width: 0.8"/>
      </g>
     </g>
     <g id="text_11">
      <!-- 1 -->
      <g transform="translate(33.2775 223.211349) scale(0.1 -0.1)">
       <use xlink:href="#DejaVuSans-31"/>
      </g>
     </g>
    </g>
    <g id="ytick_4">
     <g id="line2d_14">
      <g>
       <use xlink:href="#mb6de71be3b" x="46.64" y="186.100882" style="stroke: #000000; stroke-width: 0.8"/>
      </g>
     </g>
     <g id="text_12">
      <!-- 2 -->
      <g transform="translate(33.2775 189.9001) scale(0.1 -0.1)">
       <use xlink:href="#DejaVuSans-32"/>
      </g>
     </g>
    </g>
    <g id="ytick_5">
     <g id="line2d_15">
      <g>
       <use xlink:href="#mb6de71be3b" x="46.64" y="152.789633" style="stroke: #000000; stroke-width: 0.8"/>
      </g>
     </g>
     <g id="text_13">
      <!-- 3 -->
      <g transform="translate(33.2775 156.588852) scale(0.1 -0.1)">
       <defs>
        <path id="DejaVuSans-33" d="M 2597 2516 
Q 3050 2419 3304 2112 
Q 3559 1806 3559 1356 
Q 3559 666 3084 287 
Q 2609 -91 1734 -91 
Q 1441 -91 1130 -33 
Q 819 25 488 141 
L 488 750 
Q 750 597 1062 519 
Q 1375 441 1716 441 
Q 2309 441 2620 675 
Q 2931 909 2931 1356 
Q 2931 1769 2642 2001 
Q 2353 2234 1838 2234 
L 1294 2234 
L 1294 2753 
L 1863 2753 
Q 2328 2753 2575 2939 
Q 2822 3125 2822 3475 
Q 2822 3834 2567 4026 
Q 2313 4219 1838 4219 
Q 1578 4219 1281 4162 
Q 984 4106 628 3988 
L 628 4550 
Q 988 4650 1302 4700 
Q 1616 4750 1894 4750 
Q 2613 4750 3031 4423 
Q 3450 4097 3450 3541 
Q 3450 3153 3228 2886 
Q 3006 2619 2597 2516 
z
" transform="scale(0.015625)"/>
       </defs>
       <use xlink:href="#DejaVuSans-33"/>
      </g>
     </g>
    </g>
    <g id="ytick_6">
     <g id="line2d_16">
      <g>
       <use xlink:href="#mb6de71be3b" x="46.64" y="119.478385" style="stroke: #000000; stroke-width: 0.8"/>
      </g>
     </g>
     <g id="text_14">
      <!-- 4 -->
      <g transform="translate(33.2775 123.277604) scale(0.1 -0.1)">
       <defs>
        <path id="DejaVuSans-34" d="M 2419 4116 
L 825 1625 
L 2419 1625 
L 2419 4116 
z
M 2253 4666 
L 3047 4666 
L 3047 1625 
L 3713 1625 
L 3713 1100 
L 3047 1100 
L 3047 0 
L 2419 0 
L 2419 1100 
L 313 1100 
L 313 1709 
L 2253 4666 
z
" transform="scale(0.015625)"/>
       </defs>
       <use xlink:href="#DejaVuSans-34"/>
      </g>
     </g>
    </g>
    <g id="ytick_7">
     <g id="line2d_17">
      <g>
       <use xlink:href="#mb6de71be3b" x="46.64" y="86.167137" style="stroke: #000000; stroke-width: 0.8"/>
      </g>
     </g>
     <g id="text_15">
      <!-- 5 -->
      <g transform="translate(33.2775 89.966355) scale(0.1 -0.1)">
       <defs>
        <path id="DejaVuSans-35" d="M 691 4666 
L 3169 4666 
L 3169 4134 
L 1269 4134 
L 1269 2991 
Q 1406 3038 1543 3061 
Q 1681 3084 1819 3084 
Q 2600 3084 3056 2656 
Q 3513 2228 3513 1497 
Q 3513 744 3044 326 
Q 2575 -91 1722 -91 
Q 1428 -91 1123 -41 
Q 819 9 494 109 
L 494 744 
Q 775 591 1075 516 
Q 1375 441 1709 441 
Q 2250 441 2565 725 
Q 2881 1009 2881 1497 
Q 2881 1984 2565 2268 
Q 2250 2553 1709 2553 
Q 1456 2553 1204 2497 
Q 953 2441 691 2322 
L 691 4666 
z
" transform="scale(0.015625)"/>
       </defs>
       <use xlink:href="#DejaVuSans-35"/>
      </g>
     </g>
    </g>
    <g id="ytick_8">
     <g id="line2d_18">
      <g>
       <use xlink:href="#mb6de71be3b" x="46.64" y="52.855888" style="stroke: #000000; stroke-width: 0.8"/>
      </g>
     </g>
     <g id="text_16">
      <!-- 6 -->
      <g transform="translate(33.2775 56.655107) scale(0.1 -0.1)">
       <use xlink:href="#DejaVuSans-36"/>
      </g>
     </g>
    </g>
    <g id="ytick_9">
     <g id="line2d_19">
      <g>
       <use xlink:href="#mb6de71be3b" x="46.64" y="19.54464" style="stroke: #000000; stroke-width: 0.8"/>
      </g>
     </g>
     <g id="text_17">
      <!-- 7 -->
      <g transform="translate(33.2775 23.343859) scale(0.1 -0.1)">
       <defs>
        <path id="DejaVuSans-37" d="M 525 4666 
L 3525 4666 
L 3525 4397 
L 1831 0 
L 1172 0 
L 2766 4134 
L 525 4134 
L 525 4666 
z
" transform="scale(0.015625)"/>
       </defs>
       <use xlink:href="#DejaVuSans-37"/>
      </g>
     </g>
    </g>
    <g id="text_18">
     <!-- PMF [kcal/mol] -->
     <g transform="translate(18.818125 194.016094) rotate(-90) scale(0.1 -0.1)">
      <defs>
       <path id="DejaVuSans-50" d="M 1259 4147 
L 1259 2394 
L 2053 2394 
Q 2494 2394 2734 2622 
Q 2975 2850 2975 3272 
Q 2975 3691 2734 3919 
Q 2494 4147 2053 4147 
L 1259 4147 
z
M 628 4666 
L 2053 4666 
Q 2838 4666 3239 4311 
Q 3641 3956 3641 3272 
Q 3641 2581 3239 2228 
Q 2838 1875 2053 1875 
L 1259 1875 
L 1259 0 
L 628 0 
L 628 4666 
z
" transform="scale(0.015625)"/>
       <path id="DejaVuSans-4d" d="M 628 4666 
L 1569 4666 
L 2759 1491 
L 3956 4666 
L 4897 4666 
L 4897 0 
L 4281 0 
L 4281 4097 
L 3078 897 
L 2444 897 
L 1241 4097 
L 1241 0 
L 628 0 
L 628 4666 
z
" transform="scale(0.015625)"/>
       <path id="DejaVuSans-46" d="M 628 4666 
L 3309 4666 
L 3309 4134 
L 1259 4134 
L 1259 2759 
L 3109 2759 
L 3109 2228 
L 1259 2228 
L 1259 0 
L 628 0 
L 628 4666 
z
" transform="scale(0.015625)"/>
       <path id="DejaVuSans-6b" d="M 581 4863 
L 1159 4863 
L 1159 1991 
L 2875 3500 
L 3609 3500 
L 1753 1863 
L 3688 0 
L 2938 0 
L 1159 1709 
L 1159 0 
L 581 0 
L 581 4863 
z
" transform="scale(0.015625)"/>
       <path id="DejaVuSans-63" d="M 3122 3366 
L 3122 2828 
Q 2878 2963 2633 3030 
Q 2388 3097 2138 3097 
Q 1578 3097 1268 2742 
Q 959 2388 959 1747 
Q 959 1106 1268 751 
Q 1578 397 2138 397 
Q 2388 397 2633 464 
Q 2878 531 3122 666 
L 3122 134 
Q 2881 22 2623 -34 
Q 2366 -91 2075 -91 
Q 1284 -91 818 406 
Q 353 903 353 1747 
Q 353 2603 823 3093 
Q 1294 3584 2113 3584 
Q 2378 3584 2631 3529 
Q 2884 3475 3122 3366 
z
" transform="scale(0.015625)"/>
       <path id="DejaVuSans-2f" d="M 1625 4666 
L 2156 4666 
L 531 -594 
L 0 -594 
L 1625 4666 
z
" transform="scale(0.015625)"/>
       <path id="DejaVuSans-6d" d="M 3328 2828 
Q 3544 3216 3844 3400 
Q 4144 3584 4550 3584 
Q 5097 3584 5394 3201 
Q 5691 2819 5691 2113 
L 5691 0 
L 5113 0 
L 5113 2094 
Q 5113 2597 4934 2840 
Q 4756 3084 4391 3084 
Q 3944 3084 3684 2787 
Q 3425 2491 3425 1978 
L 3425 0 
L 2847 0 
L 2847 2094 
Q 2847 2600 2669 2842 
Q 2491 3084 2119 3084 
Q 1678 3084 1418 2786 
Q 1159 2488 1159 1978 
L 1159 0 
L 581 0 
L 581 3500 
L 1159 3500 
L 1159 2956 
Q 1356 3278 1631 3431 
Q 1906 3584 2284 3584 
Q 2666 3584 2933 3390 
Q 3200 3197 3328 2828 
z
" transform="scale(0.015625)"/>
       <path id="DejaVuSans-6f" d="M 1959 3097 
Q 1497 3097 1228 2736 
Q 959 2375 959 1747 
Q 959 1119 1226 758 
Q 1494 397 1959 397 
Q 2419 397 2687 759 
Q 2956 1122 2956 1747 
Q 2956 2369 2687 2733 
Q 2419 3097 1959 3097 
z
M 1959 3584 
Q 2709 3584 3137 3096 
Q 3566 2609 3566 1747 
Q 3566 888 3137 398 
Q 2709 -91 1959 -91 
Q 1206 -91 779 398 
Q 353 888 353 1747 
Q 353 2609 779 3096 
Q 1206 3584 1959 3584 
z
" transform="scale(0.015625)"/>
      </defs>
      <use xlink:href="#DejaVuSans-50"/>
      <use xlink:href="#DejaVuSans-4d" x="60.302734"/>
      <use xlink:href="#DejaVuSans-46" x="146.582031"/>
      <use xlink:href="#DejaVuSans-20" x="204.101562"/>
      <use xlink:href="#DejaVuSans-5b" x="235.888672"/>
      <use xlink:href="#DejaVuSans-6b" x="274.902344"/>
      <use xlink:href="#DejaVuSans-63" x="332.8125"/>
      <use xlink:href="#DejaVuSans-61" x="387.792969"/>
      <use xlink:href="#DejaVuSans-6c" x="449.072266"/>
      <use xlink:href="#DejaVuSans-2f" x="476.855469"/>
      <use xlink:href="#DejaVuSans-6d" x="510.546875"/>
      <use xlink:href="#DejaVuSans-6f" x="607.958984"/>
      <use xlink:href="#DejaVuSans-6c" x="669.140625"/>
      <use xlink:href="#DejaVuSans-5d" x="696.923828"/>
     </g>
    </g>
   </g>
   <g id="line2d_20">
    <path d="M 46.64 236.689119 
L 48.255055 237.385234 
L 49.87011 237.871322 
L 51.485165 238.145462 
L 53.10022 238.206074 
L 54.715275 238.051918 
L 56.33033 237.6821 
L 57.945385 237.096062 
L 59.56044 236.293584 
L 61.175495 235.274776 
L 63.194314 233.697758 
L 65.213133 231.785034 
L 67.231952 229.539031 
L 69.250771 226.963052 
L 71.26959 224.061353 
L 73.692172 220.15696 
L 76.114755 215.802915 
L 78.537337 211.01411 
L 81.363684 204.903451 
L 84.19003 198.267487 
L 87.42014 190.112249 
L 91.457778 179.244107 
L 100.744344 153.886925 
L 103.166927 148.144967 
L 104.781982 144.781031 
L 106.397037 141.881798 
L 108.012092 139.512949 
L 109.223383 138.112056 
L 110.434675 137.044465 
L 111.645966 136.311474 
L 112.857257 135.907072 
L 114.068549 135.819329 
L 115.27984 136.032031 
L 116.491131 136.526264 
L 117.702422 137.281739 
L 118.913714 138.277763 
L 120.528769 139.944741 
L 122.143824 141.956508 
L 124.162643 144.889583 
L 126.181461 148.214107 
L 128.604044 152.619358 
L 131.834154 159.015233 
L 136.275556 168.375165 
L 143.543303 183.733569 
L 147.177177 190.861299 
L 150.003524 195.963182 
L 152.82987 200.595757 
L 155.252452 204.147965 
L 157.675035 207.28196 
L 159.693854 209.556145 
L 161.712673 211.510392 
L 163.731491 213.133965 
L 165.346547 214.188294 
L 166.961602 215.02045 
L 168.576657 215.626369 
L 170.191712 216.002306 
L 171.806767 216.144811 
L 173.421822 216.050713 
L 175.036877 215.717101 
L 176.651932 215.141324 
L 178.266987 214.320977 
L 179.882042 213.253897 
L 181.497097 211.938163 
L 183.112152 210.372092 
L 185.130971 208.060291 
L 187.14979 205.352823 
L 189.168609 202.248036 
L 191.187427 198.74496 
L 193.206246 194.843377 
L 195.628829 189.636424 
L 198.051411 183.85963 
L 200.473994 177.518524 
L 203.30034 169.418987 
L 206.126687 160.583391 
L 208.953033 151.040921 
L 212.183143 139.322953 
L 215.817017 125.211324 
L 219.854655 108.600247 
L 230.756276 63.078363 
L 232.371331 57.57983 
L 233.582623 54.302746 
L 234.39015 52.720551 
L 235.197678 51.761258 
L 235.601441 51.550006 
L 236.005205 51.532285 
L 236.408969 51.71519 
L 236.812733 52.101994 
L 237.216496 52.691855 
L 238.024024 54.457237 
L 238.831552 56.930607 
L 240.042843 61.706205 
L 241.657898 69.404202 
L 244.484244 84.469959 
L 250.136937 114.844088 
L 253.770811 133.156727 
L 257.404685 150.264964 
L 260.634795 164.413272 
L 263.864905 177.541652 
L 266.691251 188.179974 
L 269.517598 198.01709 
L 272.343944 207.046255 
L 275.17029 215.262352 
L 277.592873 221.654985 
L 280.015455 227.446695 
L 282.438038 232.637373 
L 284.456857 236.504359 
L 286.475676 239.955389 
L 288.494494 242.991715 
L 290.513313 245.614908 
L 292.532132 247.826824 
L 294.147187 249.301645 
L 295.762242 250.515778 
L 297.377297 251.470496 
L 298.992352 252.167151 
L 300.607407 252.607176 
L 302.222462 252.79208 
L 303.837518 252.723449 
L 305.452573 252.402944 
L 307.067628 251.832306 
L 308.682683 251.013361 
L 310.297738 249.94802 
L 311.912793 248.638294 
L 313.527848 247.086302 
L 315.546667 244.809064 
L 317.565485 242.161533 
L 319.584304 239.148893 
L 321.603123 235.776913 
L 324.025706 231.265435 
L 326.448288 226.259 
L 328.870871 220.773197 
L 331.697217 213.792484 
L 334.523564 206.221683 
L 337.753674 196.905721 
L 341.387548 185.68201 
L 345.425185 172.466604 
L 351.077878 153.109661 
L 367.228428 97.33827 
L 372.477357 79.976319 
L 374.89994 72.547143 
L 376.514995 68.191447 
L 377.726286 65.495661 
L 378.533814 64.088248 
L 379.341341 63.073538 
L 380.148869 62.515622 
L 380.552633 62.423998 
L 380.956396 62.462988 
L 381.36016 62.634686 
L 382.167688 63.374921 
L 382.975215 64.62333 
L 383.782743 66.332487 
L 384.994034 69.6165 
L 386.609089 74.968613 
L 389.031672 84.131183 
L 399.933293 126.697758 
L 403.970931 141.181278 
L 407.604805 153.43868 
L 411.238679 164.931344 
L 414.872553 175.649148 
L 418.102663 184.523752 
L 421.332773 192.783 
L 424.562883 200.422013 
L 427.389229 206.589297 
L 430.215576 212.262829 
L 433.041922 217.4281 
L 435.464505 221.437784 
L 437.887087 225.04907 
L 440.30967 228.249162 
L 442.328488 230.592508 
L 444.347307 232.634118 
L 446.366126 234.367134 
L 448.384945 235.785229 
L 450 236.689119 
L 450 236.689119 
" clip-path="url(#p849cd70e45)" style="fill: none; stroke: #f99752; stroke-width: 2.5; stroke-linecap: square"/>
   </g>
   <g id="patch_3">
    <path d="M 46.64 303.64 
L 46.64 10.8 
" style="fill: none; stroke: #000000; stroke-width: 0.8; stroke-linejoin: miter; stroke-linecap: square"/>
   </g>
   <g id="patch_4">
    <path d="M 450 303.64 
L 450 10.8 
" style="fill: none; stroke: #000000; stroke-width: 0.8; stroke-linejoin: miter; stroke-linecap: square"/>
   </g>
   <g id="patch_5">
    <path d="M 46.64 303.64 
L 450 303.64 
" style="fill: none; stroke: #000000; stroke-width: 0.8; stroke-linejoin: miter; stroke-linecap: square"/>
   </g>
   <g id="patch_6">
    <path d="M 46.64 10.8 
L 450 10.8 
" style="fill: none; stroke: #000000; stroke-width: 0.8; stroke-linejoin: miter; stroke-linecap: square"/>
   </g>
   <g id="legend_1">
    <g id="patch_7">
     <path d="M 53.64 62.834375 
L 129.085313 62.834375 
Q 131.085313 62.834375 131.085313 60.834375 
L 131.085313 17.8 
Q 131.085313 15.8 129.085313 15.8 
L 53.64 15.8 
Q 51.64 15.8 51.64 17.8 
L 51.64 60.834375 
Q 51.64 62.834375 53.64 62.834375 
z
" style="fill: #ffffff; opacity: 0.8; stroke: #cccccc; stroke-linejoin: miter"/>
    </g>
    <g id="line2d_21">
     <path d="M 55.64 23.898438 
L 65.64 23.898438 
L 75.64 23.898438 
" style="fill: none; stroke: #1e2e79; stroke-width: 2.5; stroke-linecap: square"/>
    </g>
    <g id="text_19">
     <!-- Reduced -->
     <g transform="translate(83.64 27.398438) scale(0.1 -0.1)">
      <defs>
       <path id="DejaVuSans-75" d="M 544 1381 
L 544 3500 
L 1119 3500 
L 1119 1403 
Q 1119 906 1312 657 
Q 1506 409 1894 409 
Q 2359 409 2629 706 
Q 2900 1003 2900 1516 
L 2900 3500 
L 3475 3500 
L 3475 0 
L 2900 0 
L 2900 538 
Q 2691 219 2414 64 
Q 2138 -91 1772 -91 
Q 1169 -91 856 284 
Q 544 659 544 1381 
z
M 1991 3584 
L 1991 3584 
z
" transform="scale(0.015625)"/>
      </defs>
      <use xlink:href="#DejaVuSans-52"/>
      <use xlink:href="#DejaVuSans-65" x="64.982422"/>
      <use xlink:href="#DejaVuSans-64" x="126.505859"/>
      <use xlink:href="#DejaVuSans-75" x="189.982422"/>
      <use xlink:href="#DejaVuSans-63" x="253.361328"/>
      <use xlink:href="#DejaVuSans-65" x="308.341797"/>
      <use xlink:href="#DejaVuSans-64" x="369.865234"/>
     </g>
    </g>
    <g id="line2d_22">
     <path d="M 55.64 38.576563 
L 65.64 38.576563 
L 75.64 38.576563 
" style="fill: none; stroke: #ec4067; stroke-width: 2.5; stroke-linecap: square"/>
    </g>
    <g id="text_20">
     <!-- Oxidized -->
     <g transform="translate(83.64 42.076563) scale(0.1 -0.1)">
      <defs>
       <path id="DejaVuSans-78" d="M 3513 3500 
L 2247 1797 
L 3578 0 
L 2900 0 
L 1881 1375 
L 863 0 
L 184 0 
L 1544 1831 
L 300 3500 
L 978 3500 
L 1906 2253 
L 2834 3500 
L 3513 3500 
z
" transform="scale(0.015625)"/>
       <path id="DejaVuSans-7a" d="M 353 3500 
L 3084 3500 
L 3084 2975 
L 922 459 
L 3084 459 
L 3084 0 
L 275 0 
L 275 525 
L 2438 3041 
L 353 3041 
L 353 3500 
z
" transform="scale(0.015625)"/>
      </defs>
      <use xlink:href="#DejaVuSans-4f"/>
      <use xlink:href="#DejaVuSans-78" x="78.710938"/>
      <use xlink:href="#DejaVuSans-69" x="137.890625"/>
      <use xlink:href="#DejaVuSans-64" x="165.673828"/>
      <use xlink:href="#DejaVuSans-69" x="229.150391"/>
      <use xlink:href="#DejaVuSans-7a" x="256.933594"/>
      <use xlink:href="#DejaVuSans-65" x="309.423828"/>
      <use xlink:href="#DejaVuSans-64" x="370.947266"/>
     </g>
    </g>
    <g id="line2d_23">
     <path d="M 55.64 53.254688 
L 65.64 53.254688 
L 75.64 53.254688 
" style="fill: none; stroke: #f99752; stroke-width: 2.5; stroke-linecap: square"/>
    </g>
    <g id="text_21">
     <!-- Cu$^{+}$ -->
     <g transform="translate(83.64 56.754688) scale(0.1 -0.1)">
      <defs>
       <path id="DejaVuSans-2b" d="M 2944 4013 
L 2944 2272 
L 4684 2272 
L 4684 1741 
L 2944 1741 
L 2944 0 
L 2419 0 
L 2419 1741 
L 678 1741 
L 678 2272 
L 2419 2272 
L 2419 4013 
L 2944 4013 
z
" transform="scale(0.015625)"/>
      </defs>
      <use xlink:href="#DejaVuSans-43" transform="translate(0 0.826562)"/>
      <use xlink:href="#DejaVuSans-75" transform="translate(69.824219 0.826562)"/>
      <use xlink:href="#DejaVuSans-2b" transform="translate(134.160156 39.107812) scale(0.7)"/>
     </g>
    </g>
   </g>
  </g>
 </g>
 <defs>
  <clipPath id="p849cd70e45">
   <rect x="46.64" y="10.8" width="403.36" height="292.84"/>
  </clipPath>
 </defs>
</svg>
