<?xml version="1.0" encoding="utf-8" standalone="no"?>
<!DOCTYPE svg PUBLIC "-//W3C//DTD SVG 1.1//EN"
  "http://www.w3.org/Graphics/SVG/1.1/DTD/svg11.dtd">
<svg xmlns:xlink="http://www.w3.org/1999/xlink" width="460.8pt" height="345.6pt" viewBox="0 0 460.8 345.6" xmlns="http://www.w3.org/2000/svg" version="1.1">
 <metadata>
  <rdf:RDF xmlns:dc="http://purl.org/dc/elements/1.1/" xmlns:cc="http://creativecommons.org/ns#" xmlns:rdf="http://www.w3.org/1999/02/22-rdf-syntax-ns#">
   <cc:Work>
    <dc:type rdf:resource="http://purl.org/dc/dcmitype/StillImage"/>
    <dc:date>2024-07-07T13:55:58.453585</dc:date>
    <dc:format>image/svg+xml</dc:format>
    <dc:creator>
     <cc:Agent>
      <dc:title>Matplotlib v3.8.4, https://matplotlib.org/</dc:title>
     </cc:Agent>
    </dc:creator>
   </cc:Work>
  </rdf:RDF>
 </metadata>
 <defs>
  <style type="text/css">*{stroke-linejoin: round; stroke-linecap: butt}</style>
 </defs>
 <g id="figure_1">
  <g id="patch_1">
   <path d="M 0 345.6 
L 460.8 345.6 
L 460.8 0 
L 0 0 
z
" style="fill: #ffffff"/>
  </g>
  <g id="axes_1">
   <g id="patch_2">
    <path d="M 60.509 300.112 
L 447.84 300.112 
L 447.84 12.96 
L 60.509 12.96 
z
" style="fill: #ffffff"/>
   </g>
   <g id="line2d_1">
    <path d="M 60.509 281.140221 
L 62.447594 280.127697 
L 64.386187 279.399762 
L 65.937062 279.049139 
L 67.487937 278.919116 
L 69.038812 279.015553 
L 70.589687 279.336619 
L 72.140562 279.872789 
L 74.079155 280.819379 
L 76.017749 282.029272 
L 78.344061 283.747221 
L 81.83353 286.636283 
L 87.261592 291.117464 
L 89.975623 293.07932 
L 92.689654 294.760077 
L 95.015966 295.960803 
L 97.342278 296.945567 
L 100.056309 297.845168 
L 102.77034 298.513285 
L 105.87209 299.047672 
L 109.361559 299.427882 
L 114.014183 299.688109 
L 119.829964 299.778117 
L 126.808901 299.669616 
L 131.849244 299.400337 
L 135.726431 298.973904 
L 138.440462 298.47434 
L 140.766775 297.843028 
L 142.705368 297.118147 
L 144.643962 296.154321 
L 146.194837 295.166253 
L 147.745712 293.941659 
L 149.296587 292.434635 
L 150.847461 290.594471 
L 152.398336 288.366631 
L 153.949211 285.694367 
L 155.500086 282.52103 
L 157.050961 278.793158 
L 158.601836 274.464321 
L 160.152711 269.499646 
L 161.703586 263.880831 
L 163.642179 255.945253 
L 165.580773 247.062087 
L 167.907085 235.362025 
L 172.171991 212.420304 
L 174.886022 198.345676 
L 176.824616 189.383731 
L 178.37549 183.234468 
L 179.538647 179.367149 
L 180.701803 176.232358 
L 181.47724 174.58519 
L 182.252678 173.312847 
L 183.028115 172.429274 
L 183.803553 171.94478 
L 184.57899 171.865846 
L 185.354427 172.19499 
L 186.129865 172.930702 
L 186.905302 174.067443 
L 187.68074 175.59572 
L 188.843896 178.592139 
L 190.007052 182.378769 
L 191.170208 186.879496 
L 192.721083 193.834785 
L 194.659677 203.721099 
L 197.761426 221.098842 
L 202.026332 244.91603 
L 204.352645 256.565726 
L 206.291238 265.153594 
L 208.229832 272.601025 
L 209.780707 277.719236 
L 211.331582 282.111119 
L 212.882456 285.818799 
L 214.433331 288.899836 
L 215.984206 291.421229 
L 217.535081 293.454175 
L 219.085956 295.069787 
L 220.636831 296.335854 
L 222.187706 297.314588 
L 223.738581 298.061289 
L 225.677174 298.740455 
L 228.003486 299.281856 
L 230.717518 299.66085 
L 234.206986 299.912184 
L 239.635048 300.056584 
L 250.491172 300.078604 
L 257.470109 299.926496 
L 261.347296 299.625956 
L 264.061327 299.186776 
L 265.999921 298.672783 
L 267.938515 297.909005 
L 269.489389 297.052511 
L 271.040264 295.91036 
L 272.20342 294.821899 
L 273.366577 293.495447 
L 274.529733 291.892032 
L 275.692889 289.969825 
L 276.856045 287.684861 
L 278.019201 284.992023 
L 279.182357 281.846325 
L 280.733232 276.873239 
L 282.284107 270.926532 
L 283.834982 263.934261 
L 285.385857 255.854147 
L 286.936732 246.683391 
L 288.875325 233.761312 
L 291.201638 216.417452 
L 294.303387 191.312005 
L 298.180575 160.195197 
L 300.119168 146.42981 
L 301.670043 136.972177 
L 302.833199 131.020518 
L 303.996355 126.192473 
L 304.771793 123.651798 
L 305.54723 121.683832 
L 306.322668 120.308258 
L 307.098105 119.5388 
L 307.485824 119.383965 
L 307.873543 119.382993 
L 308.261261 119.535838 
L 308.64898 119.842057 
L 309.424417 120.910878 
L 310.199855 122.578105 
L 310.975292 124.826342 
L 311.75073 127.632455 
L 312.913886 132.824007 
L 314.077042 139.089528 
L 315.627917 148.876356 
L 317.566511 162.896091 
L 320.280542 184.492678 
L 324.933166 221.631172 
L 327.259478 238.211306 
L 329.198072 250.406786 
L 330.748947 258.983308 
L 332.299822 266.487344 
L 333.850697 272.942946 
L 335.401572 278.407474 
L 336.952446 282.961948 
L 338.503321 286.702022 
L 340.054196 289.730085 
L 341.605071 292.148805 
L 343.155946 294.056242 
L 344.706821 295.542479 
L 346.257696 296.687613 
L 347.808571 297.560877 
L 349.747164 298.358073 
L 351.685758 298.912669 
L 354.01207 299.35506 
L 357.11382 299.702888 
L 361.378726 299.935649 
L 368.745381 300.071157 
L 387.35588 300.109428 
L 403.640066 299.993826 
L 409.843566 299.741145 
L 414.108471 299.366953 
L 417.59794 298.855219 
L 420.69969 298.179925 
L 423.413721 297.371383 
L 426.127752 296.321529 
L 428.841783 295.003283 
L 431.555814 293.40657 
L 434.269845 291.546308 
L 437.759313 288.846654 
L 445.513688 282.658749 
L 447.84 281.140221 
L 447.84 281.140221 
" clip-path="url(#pc04b002532)" style="fill: none; stroke: #1e2e79; stroke-width: 2.5; stroke-linecap: square"/>
   </g>
   <g id="line2d_2">
    <path d="M 60.509 292.112637 
L 63.61075 291.219632 
L 65.937062 290.75661 
L 68.263374 290.506023 
L 70.589687 290.482683 
L 72.915999 290.684349 
L 75.242311 291.09273 
L 77.956342 291.787848 
L 81.445811 292.925346 
L 92.689654 296.809198 
L 96.179122 297.702742 
L 99.668591 298.381363 
L 103.545778 298.904689 
L 107.810684 299.254595 
L 112.851027 299.446731 
L 118.666808 299.44002 
L 123.707151 299.212476 
L 127.584338 298.817493 
L 130.686088 298.274169 
L 133.0124 297.662712 
L 134.950994 296.962965 
L 136.889588 296.029552 
L 138.440462 295.064671 
L 139.991337 293.854338 
L 141.542212 292.340628 
L 143.093087 290.454855 
L 144.643962 288.116891 
L 146.194837 285.234981 
L 147.357993 282.655091 
L 148.908868 278.567889 
L 150.459743 273.632257 
L 152.010618 267.726146 
L 153.561492 260.728787 
L 155.112367 252.527654 
L 156.663242 243.027056 
L 158.214117 232.158118 
L 159.764992 219.889744 
L 161.703586 202.619191 
L 163.642179 183.363173 
L 165.968491 158.127335 
L 173.722866 71.664862 
L 175.273741 57.44313 
L 176.824616 45.437388 
L 177.987772 38.163405 
L 179.150928 32.556772 
L 179.926365 29.812147 
L 180.701803 27.898583 
L 181.089522 27.260852 
L 181.47724 26.83876 
L 181.864959 26.633861 
L 182.252678 26.64718 
L 182.640396 26.879203 
L 183.028115 27.329879 
L 183.803553 28.884269 
L 184.57899 31.299131 
L 185.354427 34.554746 
L 186.129865 38.623183 
L 187.293021 46.169703 
L 188.456177 55.312449 
L 190.007052 69.667614 
L 191.945646 90.380152 
L 194.659677 122.61041 
L 199.70002 183.359287 
L 202.026332 208.398556 
L 203.964926 226.83231 
L 205.515801 239.797537 
L 207.066676 251.134517 
L 208.617551 260.872775 
L 210.168425 269.094116 
L 211.7193 275.918486 
L 212.882456 280.206337 
L 214.045613 283.855386 
L 215.208769 286.932958 
L 216.371925 289.505618 
L 217.535081 291.637475 
L 218.698237 293.388908 
L 219.861393 294.815661 
L 221.02455 295.968281 
L 222.575424 297.155825 
L 224.126299 298.027361 
L 225.677174 298.658262 
L 227.615768 299.199308 
L 229.94208 299.600505 
L 233.04383 299.883001 
L 237.696454 300.047319 
L 247.389422 300.106229 
L 261.347296 300.00944 
L 266.38764 299.775953 
L 269.877108 299.39758 
L 272.591139 298.87812 
L 274.917451 298.19747 
L 276.856045 297.408711 
L 278.794639 296.369104 
L 280.733232 295.032112 
L 282.671826 293.355853 
L 284.610419 291.308968 
L 286.549013 288.877207 
L 288.487607 286.069953 
L 290.813919 282.262126 
L 293.915669 276.665022 
L 298.568293 268.206156 
L 300.506887 265.10707 
L 302.057762 262.974129 
L 303.608637 261.230943 
L 304.771793 260.217543 
L 305.934949 259.479395 
L 307.098105 259.031079 
L 308.261261 258.880757 
L 309.424417 259.029916 
L 310.587574 259.473355 
L 311.75073 260.199428 
L 312.913886 261.19052 
L 314.464761 262.883995 
L 316.015636 264.941351 
L 317.954229 267.90881 
L 320.66826 272.5182 
L 326.096322 281.831767 
L 328.422635 285.37305 
L 330.748947 288.477247 
L 332.687541 290.700452 
L 334.626134 292.593832 
L 336.564728 294.175318 
L 338.503321 295.473475 
L 340.441915 296.522572 
L 342.768227 297.503435 
L 345.09454 298.237437 
L 347.808571 298.852895 
L 350.91032 299.324307 
L 354.787508 299.681694 
L 360.21557 299.933513 
L 368.745381 300.072739 
L 388.906755 300.110872 
L 411.006722 299.997367 
L 417.985659 299.746648 
L 422.638283 299.376551 
L 426.51547 298.863731 
L 430.004939 298.193279 
L 433.494407 297.296445 
L 436.983876 296.176314 
L 441.636501 294.429345 
L 447.84 292.112637 
L 447.84 292.112637 
" clip-path="url(#pc04b002532)" style="fill: none; stroke: #ec4067; stroke-width: 2.5; stroke-linecap: square"/>
   </g>
   <g id="matplotlib.axis_1">
    <g id="xtick_1">
     <g id="line2d_3">
      <defs>
       <path id="mfaa231fbd6" d="M 0 0 
L 0 3.5 
" style="stroke: #c2c1c1; stroke-width: 0.8"/>
      </defs>
      <g>
       <use xlink:href="#mfaa231fbd6" x="60.509" y="300.112" style="fill: #c2c1c1; stroke: #c2c1c1; stroke-width: 0.8"/>
      </g>
     </g>
     <g id="text_1">
      <!-- −180 -->
      <g style="fill: #191919" transform="translate(49.219938 314.612) scale(0.1 -0.1)">
       <defs>
        <path id="Roboto-Regular-2212" d="M 3134 2509 
L 3134 2034 
L 525 2034 
L 525 2509 
L 3134 2509 
z
" transform="scale(0.015625)"/>
        <path id="Roboto-Regular-31" d="M 2278 4575 
L 2278 0 
L 1700 0 
L 1700 3853 
L 534 3428 
L 534 3950 
L 2188 4575 
L 2278 4575 
z
" transform="scale(0.015625)"/>
        <path id="Roboto-Regular-38" d="M 3244 1231 
Q 3244 606 2826 271 
Q 2409 -63 1796 -63 
Q 1184 -63 767 271 
Q 350 606 350 1231 
Q 350 1613 554 1905 
Q 759 2197 1109 2347 
Q 806 2494 629 2762 
Q 453 3031 453 3366 
Q 453 3963 833 4288 
Q 1213 4613 1794 4613 
Q 2378 4613 2758 4288 
Q 3138 3963 3138 3366 
Q 3138 3028 2956 2761 
Q 2775 2494 2472 2347 
Q 2825 2197 3034 1903 
Q 3244 1609 3244 1231 
z
M 2559 3356 
Q 2559 3697 2346 3917 
Q 2134 4138 1793 4138 
Q 1453 4138 1243 3927 
Q 1034 3716 1034 3356 
Q 1034 3003 1243 2790 
Q 1453 2578 1797 2578 
Q 2138 2578 2348 2790 
Q 2559 3003 2559 3356 
z
M 2663 1244 
Q 2663 1625 2420 1865 
Q 2178 2106 1791 2106 
Q 1394 2106 1161 1865 
Q 928 1625 928 1244 
Q 928 850 1161 631 
Q 1394 413 1797 413 
Q 2200 413 2431 631 
Q 2663 850 2663 1244 
z
" transform="scale(0.015625)"/>
        <path id="Roboto-Regular-30" d="M 3234 1944 
Q 3234 825 2848 381 
Q 2463 -63 1800 -63 
Q 1156 -63 764 368 
Q 372 800 359 1872 
L 359 2638 
Q 359 3753 750 4183 
Q 1141 4613 1794 4613 
Q 2447 4613 2834 4195 
Q 3222 3778 3234 2709 
L 3234 1944 
z
M 2653 2734 
Q 2653 3503 2434 3822 
Q 2216 4141 1794 4141 
Q 1388 4141 1167 3831 
Q 947 3522 941 2778 
L 941 1850 
Q 941 1088 1164 750 
Q 1388 413 1800 413 
Q 2222 413 2436 745 
Q 2650 1078 2653 1825 
L 2653 2734 
z
" transform="scale(0.015625)"/>
       </defs>
       <use xlink:href="#Roboto-Regular-2212"/>
       <use xlink:href="#Roboto-Regular-31" x="57.177734"/>
       <use xlink:href="#Roboto-Regular-38" x="113.378906"/>
       <use xlink:href="#Roboto-Regular-30" x="169.580078"/>
      </g>
     </g>
    </g>
    <g id="xtick_2">
     <g id="line2d_4">
      <g>
       <use xlink:href="#mfaa231fbd6" x="125.064167" y="300.112" style="fill: #c2c1c1; stroke: #c2c1c1; stroke-width: 0.8"/>
      </g>
     </g>
     <g id="text_2">
      <!-- −120 -->
      <g style="fill: #191919" transform="translate(113.775104 314.612) scale(0.1 -0.1)">
       <defs>
        <path id="Roboto-Regular-32" d="M 3359 475 
L 3359 0 
L 381 0 
L 381 416 
L 1925 2134 
Q 2306 2566 2439 2819 
Q 2572 3072 2572 3328 
Q 2572 3663 2364 3900 
Q 2156 4138 1778 4138 
Q 1322 4138 1097 3878 
Q 872 3619 872 3213 
L 294 3213 
Q 294 3788 672 4200 
Q 1050 4613 1778 4613 
Q 2422 4613 2786 4278 
Q 3150 3944 3150 3397 
Q 3150 2997 2903 2592 
Q 2656 2188 2297 1797 
L 1078 475 
L 3359 475 
z
" transform="scale(0.015625)"/>
       </defs>
       <use xlink:href="#Roboto-Regular-2212"/>
       <use xlink:href="#Roboto-Regular-31" x="57.177734"/>
       <use xlink:href="#Roboto-Regular-32" x="113.378906"/>
       <use xlink:href="#Roboto-Regular-30" x="169.580078"/>
      </g>
     </g>
    </g>
    <g id="xtick_3">
     <g id="line2d_5">
      <g>
       <use xlink:href="#mfaa231fbd6" x="189.619333" y="300.112" style="fill: #c2c1c1; stroke: #c2c1c1; stroke-width: 0.8"/>
      </g>
     </g>
     <g id="text_3">
      <!-- −60 -->
      <g style="fill: #191919" transform="translate(181.140427 314.612) scale(0.1 -0.1)">
       <defs>
        <path id="Roboto-Regular-36" d="M 3291 1484 
Q 3291 838 2930 387 
Q 2569 -63 1878 -63 
Q 1388 -63 1063 198 
Q 738 459 577 861 
Q 416 1263 416 1684 
L 416 1956 
Q 416 2597 595 3194 
Q 775 3791 1247 4173 
Q 1719 4556 2597 4556 
L 2647 4556 
L 2647 4066 
Q 2041 4066 1705 3853 
Q 1369 3641 1205 3302 
Q 1041 2963 1006 2575 
Q 1369 2984 1984 2984 
Q 2438 2984 2727 2765 
Q 3016 2547 3153 2201 
Q 3291 1856 3291 1484 
z
M 997 1666 
Q 997 1059 1267 737 
Q 1538 416 1878 416 
Q 2278 416 2498 708 
Q 2719 1000 2719 1456 
Q 2719 1863 2516 2184 
Q 2313 2506 1891 2506 
Q 1588 2506 1341 2325 
Q 1094 2144 997 1884 
L 997 1666 
z
" transform="scale(0.015625)"/>
       </defs>
       <use xlink:href="#Roboto-Regular-2212"/>
       <use xlink:href="#Roboto-Regular-36" x="57.177734"/>
       <use xlink:href="#Roboto-Regular-30" x="113.378906"/>
      </g>
     </g>
    </g>
    <g id="xtick_4">
     <g id="line2d_6">
      <g>
       <use xlink:href="#mfaa231fbd6" x="254.1745" y="300.112" style="fill: #c2c1c1; stroke: #c2c1c1; stroke-width: 0.8"/>
      </g>
     </g>
     <g id="text_4">
      <!-- 0 -->
      <g style="fill: #191919" transform="translate(251.364344 314.612) scale(0.1 -0.1)">
       <use xlink:href="#Roboto-Regular-30"/>
      </g>
     </g>
    </g>
    <g id="xtick_5">
     <g id="line2d_7">
      <g>
       <use xlink:href="#mfaa231fbd6" x="318.729667" y="300.112" style="fill: #c2c1c1; stroke: #c2c1c1; stroke-width: 0.8"/>
      </g>
     </g>
     <g id="text_5">
      <!-- 60 -->
      <g style="fill: #191919" transform="translate(313.109354 314.612) scale(0.1 -0.1)">
       <use xlink:href="#Roboto-Regular-36"/>
       <use xlink:href="#Roboto-Regular-30" x="56.201172"/>
      </g>
     </g>
    </g>
    <g id="xtick_6">
     <g id="line2d_8">
      <g>
       <use xlink:href="#mfaa231fbd6" x="383.284833" y="300.112" style="fill: #c2c1c1; stroke: #c2c1c1; stroke-width: 0.8"/>
      </g>
     </g>
     <g id="text_6">
      <!-- 120 -->
      <g style="fill: #191919" transform="translate(374.854365 314.612) scale(0.1 -0.1)">
       <use xlink:href="#Roboto-Regular-31"/>
       <use xlink:href="#Roboto-Regular-32" x="56.201172"/>
       <use xlink:href="#Roboto-Regular-30" x="112.402344"/>
      </g>
     </g>
    </g>
    <g id="xtick_7">
     <g id="line2d_9">
      <g>
       <use xlink:href="#mfaa231fbd6" x="447.84" y="300.112" style="fill: #c2c1c1; stroke: #c2c1c1; stroke-width: 0.8"/>
      </g>
     </g>
     <g id="text_7">
      <!-- 180 -->
      <g style="fill: #191919" transform="translate(439.409531 314.612) scale(0.1 -0.1)">
       <use xlink:href="#Roboto-Regular-31"/>
       <use xlink:href="#Roboto-Regular-38" x="56.201172"/>
       <use xlink:href="#Roboto-Regular-30" x="112.402344"/>
      </g>
     </g>
    </g>
    <g id="text_8">
     <!-- CRO66 OG1-CB1-CA1-C1 Dihedral [°] -->
     <g style="fill: #191919" transform="translate(154.11325 330.12325) scale(0.12 -0.12)">
      <defs>
       <path id="Roboto-Bold-43" d="M 3044 1516 
L 3981 1516 
Q 3934 822 3461 379 
Q 2988 -63 2150 -63 
Q 1275 -63 772 526 
Q 269 1116 269 2125 
L 269 2422 
Q 269 3431 784 4023 
Q 1300 4616 2159 4616 
Q 3013 4616 3466 4161 
Q 3919 3706 3984 3006 
L 3047 3006 
Q 3016 3413 2820 3630 
Q 2625 3847 2159 3847 
Q 1247 3847 1222 2500 
L 1222 2125 
Q 1222 1419 1436 1062 
Q 1650 706 2150 706 
Q 2594 706 2801 907 
Q 3009 1109 3044 1516 
z
" transform="scale(0.015625)"/>
       <path id="Roboto-Bold-52" d="M 2944 0 
L 2094 1669 
L 1347 1669 
L 1347 0 
L 406 0 
L 406 4550 
L 2100 4550 
Q 2884 4550 3332 4198 
Q 3781 3847 3781 3175 
Q 3781 2681 3562 2378 
Q 3344 2075 2969 1906 
L 3953 44 
L 3953 0 
L 2944 0 
z
M 1347 3791 
L 1347 2425 
L 2100 2425 
Q 2469 2425 2655 2611 
Q 2841 2797 2841 3103 
Q 2841 3419 2659 3605 
Q 2478 3791 2100 3791 
L 1347 3791 
z
" transform="scale(0.015625)"/>
       <path id="Roboto-Bold-4f" d="M 4147 2172 
Q 4147 1131 3608 534 
Q 3069 -63 2212 -63 
Q 1356 -63 812 534 
Q 269 1131 269 2172 
L 269 2375 
Q 269 3416 809 4014 
Q 1350 4613 2206 4613 
Q 3063 4613 3605 4014 
Q 4147 3416 4147 2375 
L 4147 2172 
z
M 3197 2381 
Q 3197 3094 2937 3466 
Q 2678 3838 2206 3838 
Q 1734 3838 1478 3470 
Q 1222 3103 1219 2397 
L 1219 2172 
Q 1219 1463 1478 1086 
Q 1738 709 2213 709 
Q 2684 709 2939 1081 
Q 3194 1453 3197 2156 
L 3197 2381 
z
" transform="scale(0.015625)"/>
       <path id="Roboto-Bold-36" d="M 3450 1500 
Q 3450 838 3033 387 
Q 2616 -63 1916 -63 
Q 1188 -63 752 443 
Q 316 950 316 1750 
L 316 2097 
Q 316 3200 925 3898 
Q 1534 4597 2634 4597 
L 2763 4597 
L 2763 3853 
L 2672 3853 
Q 2050 3844 1688 3538 
Q 1313 3219 1238 2675 
Q 1603 3047 2156 3047 
Q 2800 3047 3125 2589 
Q 3450 2131 3450 1500 
z
M 1219 1631 
Q 1219 1150 1408 909 
Q 1597 669 1900 669 
Q 2194 669 2370 901 
Q 2547 1134 2547 1491 
Q 2547 1853 2370 2087 
Q 2194 2322 1881 2322 
Q 1641 2322 1469 2198 
Q 1297 2075 1219 1903 
L 1219 1631 
z
" transform="scale(0.015625)"/>
       <path id="Roboto-Bold-20" transform="scale(0.015625)"/>
       <path id="Roboto-Bold-47" d="M 4009 2391 
L 4009 575 
Q 3847 381 3433 159 
Q 3019 -63 2269 -63 
Q 1384 -63 839 510 
Q 294 1084 294 2138 
L 294 2409 
Q 294 3463 816 4039 
Q 1338 4616 2203 4616 
Q 3088 4616 3509 4191 
Q 3931 3766 4006 3103 
L 3094 3103 
Q 3041 3447 2847 3653 
Q 2653 3859 2228 3859 
Q 1306 3859 1250 2584 
L 1247 2138 
Q 1247 1419 1514 1056 
Q 1781 694 2319 694 
Q 2656 694 2825 770 
Q 2994 847 3069 919 
L 3069 1703 
L 2219 1703 
L 2219 2391 
L 4009 2391 
z
" transform="scale(0.015625)"/>
       <path id="Roboto-Bold-31" d="M 2503 4556 
L 2503 0 
L 1600 0 
L 1600 3484 
L 525 3150 
L 525 3881 
L 2406 4556 
L 2503 4556 
z
" transform="scale(0.015625)"/>
       <path id="Roboto-Bold-2d" d="M 2103 2316 
L 2103 1584 
L 347 1584 
L 347 2316 
L 2103 2316 
z
" transform="scale(0.015625)"/>
       <path id="Roboto-Bold-42" d="M 3788 1341 
Q 3788 684 3369 345 
Q 2950 6 2175 0 
L 406 0 
L 406 4550 
L 2003 4550 
Q 2794 4550 3241 4247 
Q 3688 3944 3688 3306 
Q 3688 2997 3531 2737 
Q 3375 2478 3038 2344 
Q 3438 2244 3613 1956 
Q 3788 1669 3788 1341 
z
M 1347 3791 
L 1347 2647 
L 2003 2647 
Q 2747 2647 2747 3209 
Q 2747 3778 2034 3791 
L 1347 3791 
z
M 2850 1350 
Q 2850 1963 2231 1984 
L 1347 1984 
L 1347 756 
L 2147 756 
Q 2506 756 2678 925 
Q 2850 1094 2850 1350 
z
" transform="scale(0.015625)"/>
       <path id="Roboto-Bold-41" d="M 25 0 
L 1719 4550 
L 2588 4550 
L 4291 0 
L 3291 0 
L 2978 938 
L 1331 938 
L 1019 0 
L 25 0 
z
M 1584 1697 
L 2725 1697 
L 2156 3406 
L 1584 1697 
z
" transform="scale(0.015625)"/>
       <path id="Roboto-Bold-44" d="M 406 0 
L 406 4550 
L 1809 4550 
Q 2728 4550 3308 3950 
Q 3888 3350 3888 2375 
L 3888 2172 
Q 3888 1197 3308 598 
Q 2728 0 1797 0 
L 406 0 
z
M 1347 3791 
L 1347 756 
L 1797 756 
Q 2350 756 2639 1115 
Q 2928 1475 2934 2144 
L 2934 2381 
Q 2934 3075 2661 3428 
Q 2388 3781 1838 3791 
L 1347 3791 
z
" transform="scale(0.015625)"/>
       <path id="Roboto-Bold-69" d="M 341 4256 
Q 341 4459 478 4592 
Q 616 4725 847 4725 
Q 1078 4725 1215 4592 
Q 1353 4459 1353 4256 
Q 1353 4056 1215 3923 
Q 1078 3791 847 3791 
Q 616 3791 478 3923 
Q 341 4056 341 4256 
z
M 1303 3381 
L 1303 0 
L 397 0 
L 397 3381 
L 1303 3381 
z
" transform="scale(0.015625)"/>
       <path id="Roboto-Bold-68" d="M 1803 2713 
Q 1409 2713 1231 2409 
L 1231 0 
L 328 0 
L 328 4800 
L 1231 4800 
L 1231 3016 
Q 1584 3444 2134 3444 
Q 2631 3444 2939 3150 
Q 3247 2856 3250 2147 
L 3250 0 
L 2344 0 
L 2344 2138 
Q 2344 2466 2203 2589 
Q 2063 2713 1803 2713 
z
" transform="scale(0.015625)"/>
       <path id="Roboto-Bold-65" d="M 3225 550 
Q 3063 319 2731 128 
Q 2400 -63 1906 -63 
Q 1119 -63 675 414 
Q 231 891 228 1566 
L 228 1697 
Q 228 2463 654 2953 
Q 1081 3444 1806 3444 
Q 2534 3444 2915 2987 
Q 3297 2531 3297 1781 
L 3297 1397 
L 1144 1397 
Q 1191 1069 1403 867 
Q 1616 666 1963 666 
Q 2478 666 2778 1044 
L 3225 550 
z
M 1800 2716 
Q 1513 2716 1356 2522 
Q 1200 2328 1153 2016 
L 2409 2016 
L 2409 2084 
Q 2403 2356 2258 2536 
Q 2113 2716 1800 2716 
z
" transform="scale(0.015625)"/>
       <path id="Roboto-Bold-64" d="M 2438 0 
L 2394 359 
Q 2059 -63 1528 -63 
Q 900 -63 553 425 
Q 206 913 206 1650 
L 206 1716 
Q 206 2488 553 2966 
Q 900 3444 1534 3444 
Q 2028 3444 2347 3078 
L 2347 4800 
L 3253 4800 
L 3253 0 
L 2438 0 
z
M 1113 1650 
Q 1113 1244 1256 958 
Q 1400 672 1756 672 
Q 2169 672 2347 1022 
L 2347 2363 
Q 2175 2713 1763 2713 
Q 1409 2713 1261 2425 
Q 1113 2138 1113 1650 
z
" transform="scale(0.015625)"/>
       <path id="Roboto-Bold-72" d="M 1922 2563 
Q 1413 2563 1253 2216 
L 1253 0 
L 347 0 
L 347 3381 
L 1200 3381 
L 1228 2978 
Q 1494 3444 1981 3444 
Q 2153 3444 2259 3403 
L 2250 2538 
L 1922 2563 
z
" transform="scale(0.015625)"/>
       <path id="Roboto-Bold-61" d="M 2306 0 
Q 2250 119 2216 303 
Q 1888 -63 1363 -63 
Q 878 -63 547 223 
Q 216 509 216 950 
Q 216 1481 609 1773 
Q 1003 2066 1775 2066 
L 2178 2066 
L 2178 2263 
Q 2178 2497 2058 2636 
Q 1938 2775 1678 2775 
Q 1194 2775 1194 2369 
L 291 2369 
Q 291 2809 681 3126 
Q 1072 3444 1728 3444 
Q 2313 3444 2698 3147 
Q 3084 2850 3084 2256 
L 3084 750 
Q 3091 300 3219 53 
L 3219 0 
L 2306 0 
z
M 1559 628 
Q 1788 628 1948 729 
Q 2109 831 2178 953 
L 2178 1541 
L 1809 1541 
Q 1450 1541 1284 1389 
Q 1119 1238 1119 1016 
Q 1119 847 1236 737 
Q 1353 628 1559 628 
z
" transform="scale(0.015625)"/>
       <path id="Roboto-Bold-6c" d="M 1303 4800 
L 1303 0 
L 397 0 
L 397 4800 
L 1303 4800 
z
" transform="scale(0.015625)"/>
       <path id="Roboto-Bold-5b" d="M 1728 5297 
L 1728 4600 
L 1281 4600 
L 1281 -366 
L 1728 -366 
L 1728 -1059 
L 375 -1059 
L 375 5297 
L 1728 5297 
z
" transform="scale(0.015625)"/>
       <path id="Roboto-Bold-b0" d="M 397 3750 
Q 397 4103 647 4358 
Q 897 4613 1247 4613 
Q 1591 4613 1836 4358 
Q 2081 4103 2081 3750 
Q 2081 3397 1836 3150 
Q 1591 2903 1247 2903 
Q 897 2903 647 3150 
Q 397 3397 397 3750 
z
M 853 3750 
Q 853 3584 970 3473 
Q 1088 3363 1247 3363 
Q 1406 3363 1515 3473 
Q 1625 3584 1625 3750 
Q 1625 3922 1515 4036 
Q 1406 4150 1247 4150 
Q 1088 4150 970 4036 
Q 853 3922 853 3750 
z
" transform="scale(0.015625)"/>
       <path id="Roboto-Bold-5d" d="M 41 4600 
L 41 5297 
L 1394 5297 
L 1394 -1059 
L 41 -1059 
L 41 -366 
L 491 -366 
L 491 4600 
L 41 4600 
z
" transform="scale(0.015625)"/>
      </defs>
      <use xlink:href="#Roboto-Bold-43"/>
      <use xlink:href="#Roboto-Bold-52" x="65.478516"/>
      <use xlink:href="#Roboto-Bold-4f" x="129.296875"/>
      <use xlink:href="#Roboto-Bold-36" x="198.339844"/>
      <use xlink:href="#Roboto-Bold-36" x="255.712891"/>
      <use xlink:href="#Roboto-Bold-20" x="313.085938"/>
      <use xlink:href="#Roboto-Bold-4f" x="337.988281"/>
      <use xlink:href="#Roboto-Bold-47" x="407.03125"/>
      <use xlink:href="#Roboto-Bold-31" x="475.146484"/>
      <use xlink:href="#Roboto-Bold-2d" x="532.519531"/>
      <use xlink:href="#Roboto-Bold-43" x="571.337891"/>
      <use xlink:href="#Roboto-Bold-42" x="636.816406"/>
      <use xlink:href="#Roboto-Bold-31" x="700.634766"/>
      <use xlink:href="#Roboto-Bold-2d" x="758.007812"/>
      <use xlink:href="#Roboto-Bold-43" x="796.826172"/>
      <use xlink:href="#Roboto-Bold-41" x="862.304688"/>
      <use xlink:href="#Roboto-Bold-31" x="929.638672"/>
      <use xlink:href="#Roboto-Bold-2d" x="987.011719"/>
      <use xlink:href="#Roboto-Bold-43" x="1025.830078"/>
      <use xlink:href="#Roboto-Bold-31" x="1091.308594"/>
      <use xlink:href="#Roboto-Bold-20" x="1148.681641"/>
      <use xlink:href="#Roboto-Bold-44" x="1173.583984"/>
      <use xlink:href="#Roboto-Bold-69" x="1238.623047"/>
      <use xlink:href="#Roboto-Bold-68" x="1265.136719"/>
      <use xlink:href="#Roboto-Bold-65" x="1321.142578"/>
      <use xlink:href="#Roboto-Bold-64" x="1375.195312"/>
      <use xlink:href="#Roboto-Bold-72" x="1431.591797"/>
      <use xlink:href="#Roboto-Bold-61" x="1468.115234"/>
      <use xlink:href="#Roboto-Bold-6c" x="1521.728516"/>
      <use xlink:href="#Roboto-Bold-20" x="1548.242188"/>
      <use xlink:href="#Roboto-Bold-5b" x="1573.144531"/>
      <use xlink:href="#Roboto-Bold-b0" x="1600.976562"/>
      <use xlink:href="#Roboto-Bold-5d" x="1639.84375"/>
     </g>
    </g>
   </g>
   <g id="matplotlib.axis_2">
    <g id="ytick_1">
     <g id="line2d_10">
      <defs>
       <path id="m4416b07729" d="M 0 0 
L -3.5 0 
" style="stroke: #c2c1c1; stroke-width: 0.8"/>
      </defs>
      <g>
       <use xlink:href="#m4416b07729" x="60.509" y="300.112" style="fill: #c2c1c1; stroke: #c2c1c1; stroke-width: 0.8"/>
      </g>
     </g>
     <g id="text_9">
      <!-- 0.000 -->
      <g style="fill: #191919" transform="translate(28.39025 303.862) scale(0.1 -0.1)">
       <defs>
        <path id="Roboto-Regular-2e" d="M 450 306 
Q 450 453 542 554 
Q 634 656 809 656 
Q 984 656 1076 554 
Q 1169 453 1169 306 
Q 1169 163 1076 62 
Q 984 -38 809 -38 
Q 634 -38 542 62 
Q 450 163 450 306 
z
" transform="scale(0.015625)"/>
       </defs>
       <use xlink:href="#Roboto-Regular-30"/>
       <use xlink:href="#Roboto-Regular-2e" x="56.201172"/>
       <use xlink:href="#Roboto-Regular-30" x="82.568359"/>
       <use xlink:href="#Roboto-Regular-30" x="138.769531"/>
       <use xlink:href="#Roboto-Regular-30" x="194.970703"/>
      </g>
     </g>
    </g>
    <g id="ytick_2">
     <g id="line2d_11">
      <g>
       <use xlink:href="#m4416b07729" x="60.509" y="247.28147" style="fill: #c2c1c1; stroke: #c2c1c1; stroke-width: 0.8"/>
      </g>
     </g>
     <g id="text_10">
      <!-- 0.005 -->
      <g style="fill: #191919" transform="translate(28.39025 251.03147) scale(0.1 -0.1)">
       <defs>
        <path id="Roboto-Regular-35" d="M 1109 2166 
L 647 2284 
L 875 4550 
L 3209 4550 
L 3209 4016 
L 1366 4016 
L 1228 2778 
Q 1572 2975 1988 2975 
Q 2616 2975 2980 2561 
Q 3344 2147 3344 1450 
Q 3344 797 2987 367 
Q 2631 -63 1903 -63 
Q 1350 -63 947 248 
Q 544 559 481 1197 
L 1031 1197 
Q 1141 413 1903 413 
Q 2313 413 2538 691 
Q 2763 969 2763 1444 
Q 2763 1872 2527 2164 
Q 2291 2456 1853 2456 
Q 1563 2456 1413 2378 
Q 1263 2300 1109 2166 
z
" transform="scale(0.015625)"/>
       </defs>
       <use xlink:href="#Roboto-Regular-30"/>
       <use xlink:href="#Roboto-Regular-2e" x="56.201172"/>
       <use xlink:href="#Roboto-Regular-30" x="82.568359"/>
       <use xlink:href="#Roboto-Regular-30" x="138.769531"/>
       <use xlink:href="#Roboto-Regular-35" x="194.970703"/>
      </g>
     </g>
    </g>
    <g id="ytick_3">
     <g id="line2d_12">
      <g>
       <use xlink:href="#m4416b07729" x="60.509" y="194.450941" style="fill: #c2c1c1; stroke: #c2c1c1; stroke-width: 0.8"/>
      </g>
     </g>
     <g id="text_11">
      <!-- 0.010 -->
      <g style="fill: #191919" transform="translate(28.39025 198.200941) scale(0.1 -0.1)">
       <use xlink:href="#Roboto-Regular-30"/>
       <use xlink:href="#Roboto-Regular-2e" x="56.201172"/>
       <use xlink:href="#Roboto-Regular-30" x="82.568359"/>
       <use xlink:href="#Roboto-Regular-31" x="138.769531"/>
       <use xlink:href="#Roboto-Regular-30" x="194.970703"/>
      </g>
     </g>
    </g>
    <g id="ytick_4">
     <g id="line2d_13">
      <g>
       <use xlink:href="#m4416b07729" x="60.509" y="141.620411" style="fill: #c2c1c1; stroke: #c2c1c1; stroke-width: 0.8"/>
      </g>
     </g>
     <g id="text_12">
      <!-- 0.015 -->
      <g style="fill: #191919" transform="translate(28.39025 145.370411) scale(0.1 -0.1)">
       <use xlink:href="#Roboto-Regular-30"/>
       <use xlink:href="#Roboto-Regular-2e" x="56.201172"/>
       <use xlink:href="#Roboto-Regular-30" x="82.568359"/>
       <use xlink:href="#Roboto-Regular-31" x="138.769531"/>
       <use xlink:href="#Roboto-Regular-35" x="194.970703"/>
      </g>
     </g>
    </g>
    <g id="ytick_5">
     <g id="line2d_14">
      <g>
       <use xlink:href="#m4416b07729" x="60.509" y="88.789881" style="fill: #c2c1c1; stroke: #c2c1c1; stroke-width: 0.8"/>
      </g>
     </g>
     <g id="text_13">
      <!-- 0.020 -->
      <g style="fill: #191919" transform="translate(28.39025 92.539881) scale(0.1 -0.1)">
       <use xlink:href="#Roboto-Regular-30"/>
       <use xlink:href="#Roboto-Regular-2e" x="56.201172"/>
       <use xlink:href="#Roboto-Regular-30" x="82.568359"/>
       <use xlink:href="#Roboto-Regular-32" x="138.769531"/>
       <use xlink:href="#Roboto-Regular-30" x="194.970703"/>
      </g>
     </g>
    </g>
    <g id="ytick_6">
     <g id="line2d_15">
      <g>
       <use xlink:href="#m4416b07729" x="60.509" y="35.959352" style="fill: #c2c1c1; stroke: #c2c1c1; stroke-width: 0.8"/>
      </g>
     </g>
     <g id="text_14">
      <!-- 0.025 -->
      <g style="fill: #191919" transform="translate(28.39025 39.709352) scale(0.1 -0.1)">
       <use xlink:href="#Roboto-Regular-30"/>
       <use xlink:href="#Roboto-Regular-2e" x="56.201172"/>
       <use xlink:href="#Roboto-Regular-30" x="82.568359"/>
       <use xlink:href="#Roboto-Regular-32" x="138.769531"/>
       <use xlink:href="#Roboto-Regular-35" x="194.970703"/>
      </g>
     </g>
    </g>
    <g id="text_15">
     <!-- Density -->
     <g style="fill: #191919" transform="translate(21.829 176.7635) rotate(-90) scale(0.12 -0.12)">
      <defs>
       <path id="Roboto-Bold-6e" d="M 1806 2713 
Q 1422 2713 1234 2388 
L 1234 0 
L 331 0 
L 331 3381 
L 1178 3381 
L 1209 2994 
Q 1572 3444 2181 3444 
Q 2659 3444 2953 3159 
Q 3247 2875 3250 2169 
L 3250 0 
L 2344 0 
L 2344 2156 
Q 2344 2481 2205 2597 
Q 2066 2713 1806 2713 
z
" transform="scale(0.015625)"/>
       <path id="Roboto-Bold-73" d="M 2178 938 
Q 2178 1081 2045 1179 
Q 1913 1278 1475 1372 
Q 953 1484 618 1721 
Q 284 1959 284 2394 
Q 284 2816 642 3130 
Q 1000 3444 1631 3444 
Q 2291 3444 2669 3134 
Q 3047 2825 3047 2353 
L 2144 2353 
Q 2144 2547 2019 2675 
Q 1894 2803 1628 2803 
Q 1403 2803 1276 2698 
Q 1150 2594 1150 2438 
Q 1150 2294 1284 2200 
Q 1419 2106 1781 2034 
Q 2331 1925 2693 1700 
Q 3056 1475 3056 972 
Q 3056 525 2672 231 
Q 2288 -63 1634 -63 
Q 925 -63 550 301 
Q 175 666 175 1078 
L 1034 1078 
Q 1047 813 1230 697 
Q 1413 581 1653 581 
Q 2178 581 2178 938 
z
" transform="scale(0.015625)"/>
       <path id="Roboto-Bold-74" d="M 2041 22 
Q 1788 -63 1497 -63 
Q 1053 -63 790 168 
Q 528 400 528 938 
L 528 2722 
L 31 2722 
L 31 3381 
L 528 3381 
L 528 4216 
L 1431 4216 
L 1431 3381 
L 2006 3381 
L 2006 2722 
L 1431 2722 
L 1431 1031 
Q 1431 819 1518 750 
Q 1606 681 1778 681 
Q 1916 681 2041 706 
L 2041 22 
z
" transform="scale(0.015625)"/>
       <path id="Roboto-Bold-79" d="M 769 -1366 
Q 594 -1366 369 -1306 
L 369 -622 
L 509 -625 
Q 775 -625 903 -539 
Q 1031 -453 1097 -266 
L 1197 -6 
L 13 3381 
L 984 3381 
L 1613 1275 
L 2238 3381 
L 3203 3381 
L 1850 -506 
Q 1791 -675 1675 -876 
Q 1559 -1078 1342 -1222 
Q 1125 -1366 769 -1366 
z
" transform="scale(0.015625)"/>
      </defs>
      <use xlink:href="#Roboto-Bold-44"/>
      <use xlink:href="#Roboto-Bold-65" x="65.039062"/>
      <use xlink:href="#Roboto-Bold-6e" x="119.091797"/>
      <use xlink:href="#Roboto-Bold-73" x="175.097656"/>
      <use xlink:href="#Roboto-Bold-69" x="226.5625"/>
      <use xlink:href="#Roboto-Bold-74" x="253.076172"/>
      <use xlink:href="#Roboto-Bold-79" x="286.865234"/>
     </g>
    </g>
   </g>
   <g id="line2d_16">
    <path d="M 60.509 214.033953 
L 61.672156 211.653669 
L 62.835312 209.745418 
L 63.998468 208.346196 
L 64.773906 207.710504 
L 65.549343 207.319776 
L 66.324781 207.177972 
L 67.100218 207.286959 
L 67.875656 207.646475 
L 68.651093 208.254128 
L 69.426531 209.105421 
L 70.589687 210.824339 
L 71.752843 213.04606 
L 72.915999 215.731432 
L 74.466874 219.951189 
L 76.405467 226.070666 
L 78.73178 234.28527 
L 86.873873 263.958089 
L 89.200185 271.183422 
L 91.138779 276.485211 
L 93.077372 281.093882 
L 94.628247 284.283724 
L 96.179122 287.049029 
L 97.729997 289.416003 
L 99.280872 291.417418 
L 100.831747 293.089969 
L 102.382622 294.47199 
L 103.933496 295.601596 
L 105.87209 296.713965 
L 107.810684 297.553955 
L 110.136996 298.28207 
L 112.463308 298.781275 
L 115.565058 299.198797 
L 119.442245 299.466727 
L 124.482589 299.575595 
L 130.686088 299.48111 
L 136.11415 299.178694 
L 139.991337 298.762154 
L 143.093087 298.238358 
L 145.807118 297.581853 
L 148.13343 296.825703 
L 150.459743 295.848041 
L 152.786055 294.608338 
L 155.112367 293.071762 
L 157.43868 291.216055 
L 159.764992 289.039251 
L 162.091304 286.567189 
L 165.193054 282.920148 
L 171.784272 275.031262 
L 173.722866 273.079017 
L 175.273741 271.763287 
L 176.824616 270.717325 
L 178.37549 269.980926 
L 179.538647 269.650431 
L 180.701803 269.519976 
L 181.864959 269.594181 
L 183.028115 269.873449 
L 184.191271 270.353892 
L 185.742146 271.292846 
L 187.293021 272.544569 
L 188.843896 274.068187 
L 190.782489 276.2792 
L 193.496521 279.750604 
L 199.70002 287.845448 
L 202.026332 290.491467 
L 204.352645 292.780982 
L 206.291238 294.393226 
L 208.229832 295.737902 
L 210.168425 296.830799 
L 212.107019 297.697166 
L 214.433331 298.481004 
L 216.759644 299.038447 
L 219.473675 299.472871 
L 222.963143 299.797963 
L 228.003486 300.006879 
L 236.921017 300.097169 
L 252.817484 300.033497 
L 257.470109 299.829273 
L 260.571859 299.483272 
L 262.898171 299.003133 
L 264.836765 298.370783 
L 266.38764 297.649336 
L 267.938515 296.673513 
L 269.489389 295.372896 
L 270.652546 294.135144 
L 271.815702 292.629544 
L 272.978858 290.813843 
L 274.142014 288.643185 
L 275.30517 286.071005 
L 276.468326 283.0502 
L 277.631482 279.534594 
L 279.182357 274.002865 
L 280.733232 267.42545 
L 282.284107 259.737199 
L 283.834982 250.90685 
L 285.773576 238.286243 
L 287.712169 224.043552 
L 290.038481 205.221156 
L 297.792856 140.45481 
L 299.343731 129.832204 
L 300.894606 120.862705 
L 302.057762 115.411534 
L 303.220918 111.17689 
L 303.996355 109.072304 
L 304.771793 107.564615 
L 305.54723 106.66637 
L 305.934949 106.448108 
L 306.322668 106.384246 
L 306.710386 106.474688 
L 307.098105 106.718968 
L 307.873543 107.665327 
L 308.64898 109.212301 
L 309.424417 111.343253 
L 310.199855 114.03623 
L 311.363011 119.069405 
L 312.526167 125.196311 
L 314.077042 134.843359 
L 316.015636 148.791305 
L 318.341948 167.348325 
L 324.545447 217.898462 
L 326.87176 234.605911 
L 328.810353 246.927949 
L 330.748947 257.654213 
L 332.299822 265.071053 
L 333.850697 271.484423 
L 335.401572 276.952185 
L 336.952446 281.551103 
L 338.503321 285.369526 
L 340.054196 288.501047 
L 341.605071 291.039308 
L 343.155946 293.074033 
L 344.706821 294.688243 
L 346.257696 295.956525 
L 347.808571 296.944205 
L 349.747164 297.868558 
L 351.685758 298.530872 
L 354.01207 299.077175 
L 356.726101 299.482357 
L 360.21557 299.779098 
L 365.643632 299.986973 
L 375.3366 300.088497 
L 392.008505 300.042011 
L 398.599723 299.842357 
L 402.864629 299.503252 
L 405.966378 299.048416 
L 408.680409 298.421273 
L 411.006722 297.643116 
L 412.945315 296.771857 
L 414.883909 295.647363 
L 416.822503 294.215951 
L 418.373377 292.810707 
L 419.924252 291.140424 
L 421.475127 289.173608 
L 423.026002 286.879807 
L 424.576877 284.231169 
L 426.127752 281.204316 
L 428.066345 276.864189 
L 430.004939 271.8953 
L 431.943533 266.314808 
L 434.269845 258.889391 
L 436.983876 249.450676 
L 443.962813 224.762618 
L 445.901406 218.926236 
L 447.452281 214.924768 
L 447.84 214.033953 
L 447.84 214.033953 
" clip-path="url(#pc04b002532)" style="fill: none; stroke: #f99752; stroke-width: 2.5; stroke-linecap: square"/>
   </g>
   <g id="patch_3">
    <path d="M 60.509 300.112 
L 60.509 12.96 
" style="fill: none; stroke: #c2c1c1; stroke-width: 0.8; stroke-linejoin: miter; stroke-linecap: square"/>
   </g>
   <g id="patch_4">
    <path d="M 447.84 300.112 
L 447.84 12.96 
" style="fill: none; stroke: #c2c1c1; stroke-width: 0.8; stroke-linejoin: miter; stroke-linecap: square"/>
   </g>
   <g id="patch_5">
    <path d="M 60.509 300.112 
L 447.84 300.112 
" style="fill: none; stroke: #c2c1c1; stroke-width: 0.8; stroke-linejoin: miter; stroke-linecap: square"/>
   </g>
   <g id="patch_6">
    <path d="M 60.509 12.96 
L 447.84 12.96 
" style="fill: none; stroke: #c2c1c1; stroke-width: 0.8; stroke-linejoin: miter; stroke-linecap: square"/>
   </g>
   <g id="legend_1">
    <g id="line2d_17">
     <path d="M 356.8875 28.56 
L 368.8875 28.56 
L 380.8875 28.56 
" style="fill: none; stroke: #1e2e79; stroke-width: 2.5; stroke-linecap: square"/>
    </g>
    <g id="text_16">
     <!-- Reduced -->
     <g transform="translate(390.4875 32.76) scale(0.12 -0.12)">
      <defs>
       <path id="Roboto-Regular-52" d="M 3188 0 
L 2200 1844 
L 1131 1844 
L 1131 0 
L 528 0 
L 528 4550 
L 2034 4550 
Q 2800 4550 3214 4200 
Q 3628 3850 3628 3184 
Q 3628 2759 3398 2442 
Q 3169 2125 2763 1969 
L 3831 38 
L 3831 0 
L 3188 0 
z
M 1131 4056 
L 1131 2334 
L 2053 2334 
Q 2538 2334 2783 2582 
Q 3028 2831 3028 3184 
Q 3028 3578 2792 3817 
Q 2556 4056 2034 4056 
L 1131 4056 
z
" transform="scale(0.015625)"/>
       <path id="Roboto-Regular-65" d="M 3116 591 
Q 2950 341 2647 139 
Q 2344 -63 1844 -63 
Q 1138 -63 714 396 
Q 291 856 291 1572 
L 291 1703 
Q 291 2256 502 2645 
Q 713 3034 1050 3239 
Q 1388 3444 1769 3444 
Q 2494 3444 2826 2970 
Q 3159 2497 3159 1788 
L 3159 1528 
L 872 1528 
Q 884 1063 1148 736 
Q 1413 409 1875 409 
Q 2181 409 2393 534 
Q 2606 659 2766 869 
L 3116 591 
z
M 1769 2969 
Q 1425 2969 1187 2719 
Q 950 2469 891 2000 
L 2581 2000 
L 2581 2044 
Q 2559 2381 2386 2675 
Q 2213 2969 1769 2969 
z
" transform="scale(0.015625)"/>
       <path id="Roboto-Regular-64" d="M 2622 0 
L 2594 363 
Q 2247 -63 1628 -63 
Q 1034 -63 668 418 
Q 303 900 297 1628 
L 297 1719 
Q 297 2494 664 2969 
Q 1031 3444 1634 3444 
Q 2231 3444 2572 3044 
L 2572 4800 
L 3153 4800 
L 3153 0 
L 2622 0 
z
M 878 1653 
Q 878 1150 1090 789 
Q 1303 428 1772 428 
Q 2309 428 2572 919 
L 2572 2475 
Q 2313 2956 1778 2956 
Q 1306 2956 1092 2589 
Q 878 2222 878 1719 
L 878 1653 
z
" transform="scale(0.015625)"/>
       <path id="Roboto-Regular-75" d="M 2538 0 
L 2525 334 
Q 2194 -63 1538 -63 
Q 1041 -63 734 231 
Q 428 525 428 1200 
L 428 3381 
L 1006 3381 
L 1006 1194 
Q 1006 738 1198 583 
Q 1391 428 1628 428 
Q 2281 428 2509 919 
L 2509 3381 
L 3091 3381 
L 3091 0 
L 2538 0 
z
" transform="scale(0.015625)"/>
       <path id="Roboto-Regular-63" d="M 1794 413 
Q 2103 413 2336 597 
Q 2569 781 2591 1069 
L 3141 1069 
Q 3119 616 2725 276 
Q 2331 -63 1794 -63 
Q 1031 -63 661 440 
Q 291 944 291 1625 
L 291 1756 
Q 291 2438 661 2941 
Q 1031 3444 1794 3444 
Q 2388 3444 2753 3092 
Q 3119 2741 3141 2219 
L 2591 2219 
Q 2569 2531 2355 2750 
Q 2141 2969 1794 2969 
Q 1438 2969 1236 2787 
Q 1034 2606 951 2328 
Q 869 2050 869 1756 
L 869 1625 
Q 869 1328 950 1050 
Q 1031 772 1232 592 
Q 1434 413 1794 413 
z
" transform="scale(0.015625)"/>
      </defs>
      <use xlink:href="#Roboto-Regular-52"/>
      <use xlink:href="#Roboto-Regular-65" x="61.621094"/>
      <use xlink:href="#Roboto-Regular-64" x="114.648438"/>
      <use xlink:href="#Roboto-Regular-75" x="171.044922"/>
      <use xlink:href="#Roboto-Regular-63" x="226.171875"/>
      <use xlink:href="#Roboto-Regular-65" x="278.515625"/>
      <use xlink:href="#Roboto-Regular-64" x="331.542969"/>
     </g>
    </g>
    <g id="line2d_18">
     <path d="M 356.8875 45.9975 
L 368.8875 45.9975 
L 380.8875 45.9975 
" style="fill: none; stroke: #ec4067; stroke-width: 2.5; stroke-linecap: square"/>
    </g>
    <g id="text_17">
     <!-- Oxidized -->
     <g transform="translate(390.4875 50.1975) scale(0.12 -0.12)">
      <defs>
       <path id="Roboto-Regular-4f" d="M 4031 2131 
Q 4031 1106 3534 521 
Q 3038 -63 2206 -63 
Q 1397 -63 884 521 
Q 372 1106 372 2131 
L 372 2419 
Q 372 3441 881 4027 
Q 1391 4613 2200 4613 
Q 3025 4613 3523 4036 
Q 4022 3459 4031 2456 
L 4031 2131 
z
M 3434 2425 
Q 3434 3238 3109 3669 
Q 2784 4100 2200 4100 
Q 1641 4100 1305 3669 
Q 969 3238 969 2425 
L 969 2131 
Q 969 1313 1308 880 
Q 1647 447 2206 447 
Q 2794 447 3114 880 
Q 3434 1313 3434 2131 
L 3434 2425 
z
" transform="scale(0.015625)"/>
       <path id="Roboto-Regular-78" d="M 831 3381 
L 1572 2150 
L 2322 3381 
L 3000 3381 
L 1894 1713 
L 3034 0 
L 2366 0 
L 1584 1269 
L 803 0 
L 131 0 
L 1269 1713 
L 166 3381 
L 831 3381 
z
" transform="scale(0.015625)"/>
       <path id="Roboto-Regular-69" d="M 444 4278 
Q 444 4419 530 4516 
Q 616 4613 784 4613 
Q 950 4613 1039 4516 
Q 1128 4419 1128 4278 
Q 1128 4144 1039 4048 
Q 950 3953 784 3953 
Q 616 3953 530 4048 
Q 444 4144 444 4278 
z
M 1069 3381 
L 1069 0 
L 488 0 
L 488 3381 
L 1069 3381 
z
" transform="scale(0.015625)"/>
       <path id="Roboto-Regular-7a" d="M 303 2903 
L 303 3381 
L 2869 3381 
L 2869 2972 
L 988 475 
L 2959 475 
L 2959 0 
L 278 0 
L 278 425 
L 2141 2903 
L 303 2903 
z
" transform="scale(0.015625)"/>
      </defs>
      <use xlink:href="#Roboto-Regular-4f"/>
      <use xlink:href="#Roboto-Regular-78" x="68.798828"/>
      <use xlink:href="#Roboto-Regular-69" x="118.408203"/>
      <use xlink:href="#Roboto-Regular-64" x="142.724609"/>
      <use xlink:href="#Roboto-Regular-69" x="199.121094"/>
      <use xlink:href="#Roboto-Regular-7a" x="223.4375"/>
      <use xlink:href="#Roboto-Regular-65" x="273.046875"/>
      <use xlink:href="#Roboto-Regular-64" x="326.074219"/>
     </g>
    </g>
    <g id="line2d_19">
     <path d="M 356.8875 64.06125 
L 368.8875 64.06125 
L 380.8875 64.06125 
" style="fill: none; stroke: #f99752; stroke-width: 2.5; stroke-linecap: square"/>
    </g>
    <g id="text_18">
     <!-- Cu(I) -->
     <g transform="translate(390.4875 68.26125) scale(0.12 -0.12)">
      <defs>
       <path id="Roboto-Regular-43" d="M 3275 1447 
L 3875 1447 
Q 3806 800 3387 368 
Q 2969 -63 2150 -63 
Q 1356 -63 870 504 
Q 384 1072 375 2013 
L 375 2500 
Q 375 3456 867 4034 
Q 1359 4613 2203 4613 
Q 2975 4613 3390 4188 
Q 3806 3763 3875 3091 
L 3275 3091 
Q 3206 3566 2968 3842 
Q 2731 4119 2203 4119 
Q 1600 4119 1287 3675 
Q 975 3231 975 2506 
L 975 2047 
Q 975 1375 1259 901 
Q 1544 428 2150 428 
Q 2725 428 2961 697 
Q 3197 966 3275 1447 
z
" transform="scale(0.015625)"/>
       <path id="Roboto-Regular-28" d="M 419 1850 
Q 419 2756 678 3434 
Q 938 4113 1294 4541 
Q 1650 4969 1947 5134 
L 2069 4753 
Q 1700 4475 1348 3761 
Q 997 3047 997 1813 
Q 997 625 1348 -97 
Q 1700 -819 2069 -1119 
L 1947 -1469 
Q 1650 -1306 1294 -878 
Q 938 -450 678 226 
Q 419 903 419 1850 
z
" transform="scale(0.015625)"/>
       <path id="Roboto-Regular-49" d="M 1175 4550 
L 1175 0 
L 572 0 
L 572 4550 
L 1175 4550 
z
" transform="scale(0.015625)"/>
       <path id="Roboto-Regular-29" d="M 1772 1819 
Q 1772 906 1512 228 
Q 1253 -450 895 -878 
Q 538 -1306 244 -1469 
L 122 -1119 
Q 488 -841 841 -109 
Q 1194 622 1194 1856 
Q 1194 2647 1019 3236 
Q 844 3825 594 4212 
Q 344 4600 122 4781 
L 244 5134 
Q 538 4969 895 4541 
Q 1253 4113 1512 3436 
Q 1772 2759 1772 1819 
z
" transform="scale(0.015625)"/>
      </defs>
      <use xlink:href="#Roboto-Regular-43"/>
      <use xlink:href="#Roboto-Regular-75" x="65.087891"/>
      <use xlink:href="#Roboto-Regular-28" x="120.214844"/>
      <use xlink:href="#Roboto-Regular-49" x="154.443359"/>
      <use xlink:href="#Roboto-Regular-29" x="181.640625"/>
     </g>
    </g>
   </g>
  </g>
 </g>
 <defs>
  <clipPath id="pc04b002532">
   <rect x="60.509" y="12.96" width="387.331" height="287.152"/>
  </clipPath>
 </defs>
</svg>
