<?xml version="1.0" encoding="utf-8" standalone="no"?>
<!DOCTYPE svg PUBLIC "-//W3C//DTD SVG 1.1//EN"
  "http://www.w3.org/Graphics/SVG/1.1/DTD/svg11.dtd">
<svg xmlns:xlink="http://www.w3.org/1999/xlink" width="460.8pt" height="345.6pt" viewBox="0 0 460.8 345.6" xmlns="http://www.w3.org/2000/svg" version="1.1">
 <metadata>
  <rdf:RDF xmlns:dc="http://purl.org/dc/elements/1.1/" xmlns:cc="http://creativecommons.org/ns#" xmlns:rdf="http://www.w3.org/1999/02/22-rdf-syntax-ns#">
   <cc:Work>
    <dc:type rdf:resource="http://purl.org/dc/dcmitype/StillImage"/>
    <dc:date>2024-06-10T22:00:59.360572</dc:date>
    <dc:format>image/svg+xml</dc:format>
    <dc:creator>
     <cc:Agent>
      <dc:title>Matplotlib v3.8.4, https://matplotlib.org/</dc:title>
     </cc:Agent>
    </dc:creator>
   </cc:Work>
  </rdf:RDF>
 </metadata>
 <defs>
  <style type="text/css">*{stroke-linejoin: round; stroke-linecap: butt}</style>
 </defs>
 <g id="figure_1">
  <g id="patch_1">
   <path d="M 0 345.6 
L 460.8 345.6 
L 460.8 0 
L 0 0 
z
" style="fill: #ffffff"/>
  </g>
  <g id="axes_1">
   <g id="patch_2">
    <path d="M 60.32 303.64 
L 450 303.64 
L 450 10.8 
L 60.32 10.8 
z
" style="fill: #ffffff"/>
   </g>
   <g id="line2d_1">
    <path d="M 60.32 284.292422 
L 62.27035 283.259842 
L 63.830631 282.640617 
L 65.390911 282.228621 
L 66.951191 282.03892 
L 68.511471 282.079396 
L 70.071752 282.350161 
L 71.632032 282.843436 
L 73.192312 283.543921 
L 75.142663 284.676867 
L 77.483083 286.340359 
L 80.603644 288.891961 
L 87.624905 294.768817 
L 90.355395 296.731318 
L 93.085886 298.401882 
L 95.426306 299.588885 
L 97.766727 300.557936 
L 100.497217 301.439057 
L 103.227708 302.090204 
L 106.348268 302.608122 
L 110.248969 303.003398 
L 114.92981 303.232239 
L 121.170931 303.296697 
L 128.192192 303.144822 
L 132.873033 302.847548 
L 136.383664 302.419181 
L 139.114154 301.877895 
L 141.454575 301.194857 
L 143.404925 300.411771 
L 145.355275 299.37227 
L 146.915556 298.308426 
L 148.475836 296.99216 
L 150.036116 295.375372 
L 151.596396 293.405254 
L 153.156677 291.025446 
L 154.716957 288.177848 
L 156.277237 284.805176 
L 157.837518 280.854306 
L 159.397798 276.280379 
L 160.958078 271.05156 
L 162.518358 265.154244 
L 164.468709 256.860344 
L 166.419059 247.62299 
L 169.14955 233.437137 
L 175.780741 197.934807 
L 177.731091 189.052627 
L 179.291371 183.054725 
L 180.461582 179.350883 
L 181.631792 176.419857 
L 182.411932 174.929187 
L 183.192072 173.828325 
L 183.972212 173.129668 
L 184.752352 172.841798 
L 185.532492 172.969316 
L 186.312633 173.51274 
L 187.092773 174.468473 
L 187.872913 175.828835 
L 188.653053 177.582173 
L 189.823263 180.914223 
L 190.993473 185.027974 
L 192.553754 191.584379 
L 194.114034 199.152738 
L 196.454454 211.839453 
L 203.865786 253.460591 
L 205.816136 262.868869 
L 207.766486 271.169834 
L 209.326767 276.959992 
L 210.887047 281.991486 
L 212.447327 286.291174 
L 214.007608 289.906554 
L 215.567888 292.899282 
L 217.128168 295.339219 
L 218.688448 297.299319 
L 220.248729 298.851526 
L 221.809009 300.063726 
L 223.369289 300.997697 
L 225.31964 301.85621 
L 227.26999 302.454153 
L 229.61041 302.927007 
L 232.730971 303.288155 
L 237.021742 303.511539 
L 244.043003 303.612217 
L 255.355035 303.554214 
L 260.425946 303.332068 
L 263.546507 302.984605 
L 265.886927 302.511942 
L 267.837277 301.896349 
L 269.397558 301.198603 
L 270.957838 300.25879 
L 272.518118 299.009775 
L 273.688328 297.823066 
L 274.858539 296.380761 
L 276.028749 294.642081 
L 277.198959 292.563548 
L 278.369169 290.099806 
L 279.539379 287.204733 
L 280.70959 283.832831 
L 282.26987 278.521166 
L 283.83015 272.195965 
L 285.39043 264.79048 
L 286.950711 256.270731 
L 288.510991 246.645437 
L 290.461341 233.156712 
L 292.801762 215.180786 
L 296.702462 182.915036 
L 299.432953 160.95168 
L 301.383303 146.913624 
L 302.943584 137.26865 
L 304.113794 131.1991 
L 305.284004 126.275418 
L 306.064144 123.684417 
L 306.844284 121.677469 
L 307.624424 120.274647 
L 308.404565 119.489947 
L 308.794635 119.332046 
L 309.184705 119.331054 
L 309.574775 119.486927 
L 309.964845 119.799211 
L 310.744985 120.889204 
L 311.525125 122.589456 
L 312.305265 124.882226 
L 313.085405 127.743925 
L 314.255616 133.038312 
L 315.425826 139.427943 
L 316.986106 149.408631 
L 318.936456 163.706074 
L 321.666947 185.730453 
L 326.347788 223.604598 
L 328.688208 240.513156 
L 330.638559 252.950209 
L 332.198839 261.696618 
L 333.759119 269.349296 
L 335.319399 275.932773 
L 336.87968 281.505543 
L 338.43996 286.150234 
L 340.00024 289.964393 
L 341.560521 293.052437 
L 343.120801 295.519068 
L 344.681081 297.464288 
L 346.241361 298.979965 
L 347.801642 300.147781 
L 349.361922 301.038344 
L 351.312272 301.851331 
L 353.262623 302.416912 
L 355.603043 302.868066 
L 358.723604 303.222784 
L 363.014374 303.460156 
L 370.035636 303.59493 
L 387.588789 303.637982 
L 405.141942 303.528435 
L 411.383063 303.286237 
L 415.673834 302.924942 
L 419.184464 302.428174 
L 422.305025 301.769457 
L 425.035516 300.977161 
L 427.766006 299.943659 
L 430.496496 298.639525 
L 433.226987 297.051501 
L 435.957477 295.190686 
L 439.078038 292.786441 
L 448.43972 285.292886 
L 450 284.292422 
L 450 284.292422 
" clip-path="url(#pe3e4f72117)" style="fill: none; stroke: #1e2e79; stroke-width: 2.5; stroke-linecap: square"/>
   </g>
   <g id="line2d_2">
    <path d="M 60.32 295.482183 
L 63.440561 294.571489 
L 65.780981 294.099295 
L 68.121401 293.843745 
L 70.461822 293.819943 
L 72.802242 294.025603 
L 75.142663 294.442074 
L 77.873153 295.150961 
L 81.383784 296.31099 
L 92.695816 300.271775 
L 96.206446 301.183019 
L 99.717077 301.875082 
L 103.617778 302.408774 
L 107.908549 302.765611 
L 112.979459 302.961553 
L 118.44044 302.962855 
L 123.511351 302.750288 
L 127.412052 302.372341 
L 130.532613 301.850109 
L 132.873033 301.261775 
L 135.213453 300.428588 
L 137.163804 299.476685 
L 138.724084 298.492692 
L 140.284364 297.258384 
L 141.844645 295.71469 
L 143.404925 293.791563 
L 144.965205 291.407288 
L 146.135415 289.2606 
L 147.305626 286.758404 
L 148.475836 283.8537 
L 150.036116 279.26833 
L 151.596396 273.755703 
L 153.156677 267.191226 
L 154.716957 259.454947 
L 156.277237 250.439503 
L 157.837518 240.059633 
L 159.397798 228.262927 
L 161.348148 211.517371 
L 163.298498 192.658476 
L 165.638919 167.637648 
L 169.14955 127.079039 
L 172.66018 86.915558 
L 174.610531 66.857565 
L 176.170811 52.872292 
L 177.341021 43.92071 
L 178.511231 36.502642 
L 179.681441 30.784951 
L 180.461582 27.98596 
L 181.241722 26.034491 
L 181.631792 25.384128 
L 182.021862 24.953675 
L 182.411932 24.744717 
L 182.802002 24.7583 
L 183.192072 24.994919 
L 183.582142 25.454522 
L 184.362282 27.039702 
L 185.142422 29.502398 
L 185.922563 32.822502 
L 186.702703 36.971527 
L 187.872913 44.667532 
L 189.043123 53.99138 
L 190.603403 68.630897 
L 192.553754 89.753715 
L 195.284244 122.622401 
L 200.355155 184.574612 
L 202.695576 210.109866 
L 204.645926 228.908762 
L 206.206206 242.130809 
L 207.766486 253.692355 
L 209.326767 263.623512 
L 210.887047 272.007704 
L 212.447327 278.967253 
L 213.617538 283.340039 
L 214.787748 287.06137 
L 215.957958 290.199904 
L 217.128168 292.823523 
L 218.298378 294.997609 
L 219.468589 296.783735 
L 220.638799 298.238749 
L 221.809009 299.414201 
L 223.369289 300.625268 
L 224.92957 301.514068 
L 226.48985 302.157466 
L 228.4402 302.709229 
L 230.780621 303.118373 
L 233.901181 303.406465 
L 238.582022 303.574038 
L 248.333774 303.634115 
L 262.376296 303.535409 
L 267.447207 303.297297 
L 270.957838 302.911428 
L 273.688328 302.381679 
L 276.028749 301.687546 
L 277.979099 300.883164 
L 279.929449 299.822964 
L 281.8798 298.459488 
L 283.44008 297.121339 
L 285.00036 295.544324 
L 286.950711 293.221737 
L 288.901061 290.509104 
L 290.851411 287.433266 
L 293.191832 283.348267 
L 301.383303 268.538831 
L 302.943584 266.27583 
L 304.503864 264.392194 
L 305.674074 263.269517 
L 306.844284 262.421217 
L 308.014494 261.86424 
L 309.184705 261.609134 
L 310.354915 261.659698 
L 311.525125 262.012887 
L 312.695335 262.658973 
L 313.865546 263.581953 
L 315.035756 264.76018 
L 316.596036 266.681888 
L 318.546386 269.543563 
L 320.886807 273.44204 
L 328.688208 286.854465 
L 331.028629 290.251385 
L 332.978979 292.722594 
L 334.929329 294.854024 
L 336.87968 296.654757 
L 338.83003 298.148069 
L 340.78038 299.36597 
L 342.730731 300.344551 
L 345.071151 301.254388 
L 347.411572 301.931563 
L 350.142062 302.496507 
L 353.652693 302.968601 
L 357.943463 303.297275 
L 363.794515 303.50865 
L 373.936336 303.620156 
L 402.411451 303.623861 
L 414.893694 303.476798 
L 421.134815 303.19348 
L 425.815656 302.756183 
L 429.716356 302.163482 
L 433.226987 301.404708 
L 436.737618 300.411818 
L 440.638318 299.056771 
L 450 295.482183 
L 450 295.482183 
" clip-path="url(#pe3e4f72117)" style="fill: none; stroke: #ec4067; stroke-width: 2.5; stroke-linecap: square"/>
   </g>
   <g id="matplotlib.axis_1">
    <g id="xtick_1">
     <g id="line2d_3">
      <defs>
       <path id="mb381f8f691" d="M 0 0 
L 0 3.5 
" style="stroke: #000000; stroke-width: 0.8"/>
      </defs>
      <g>
       <use xlink:href="#mb381f8f691" x="60.32" y="303.64" style="stroke: #000000; stroke-width: 0.8"/>
      </g>
     </g>
     <g id="text_1">
      <!-- −180 -->
      <g transform="translate(46.586406 318.238437) scale(0.1 -0.1)">
       <defs>
        <path id="DejaVuSans-2212" d="M 678 2272 
L 4684 2272 
L 4684 1741 
L 678 1741 
L 678 2272 
z
" transform="scale(0.015625)"/>
        <path id="DejaVuSans-31" d="M 794 531 
L 1825 531 
L 1825 4091 
L 703 3866 
L 703 4441 
L 1819 4666 
L 2450 4666 
L 2450 531 
L 3481 531 
L 3481 0 
L 794 0 
L 794 531 
z
" transform="scale(0.015625)"/>
        <path id="DejaVuSans-38" d="M 2034 2216 
Q 1584 2216 1326 1975 
Q 1069 1734 1069 1313 
Q 1069 891 1326 650 
Q 1584 409 2034 409 
Q 2484 409 2743 651 
Q 3003 894 3003 1313 
Q 3003 1734 2745 1975 
Q 2488 2216 2034 2216 
z
M 1403 2484 
Q 997 2584 770 2862 
Q 544 3141 544 3541 
Q 544 4100 942 4425 
Q 1341 4750 2034 4750 
Q 2731 4750 3128 4425 
Q 3525 4100 3525 3541 
Q 3525 3141 3298 2862 
Q 3072 2584 2669 2484 
Q 3125 2378 3379 2068 
Q 3634 1759 3634 1313 
Q 3634 634 3220 271 
Q 2806 -91 2034 -91 
Q 1263 -91 848 271 
Q 434 634 434 1313 
Q 434 1759 690 2068 
Q 947 2378 1403 2484 
z
M 1172 3481 
Q 1172 3119 1398 2916 
Q 1625 2713 2034 2713 
Q 2441 2713 2670 2916 
Q 2900 3119 2900 3481 
Q 2900 3844 2670 4047 
Q 2441 4250 2034 4250 
Q 1625 4250 1398 4047 
Q 1172 3844 1172 3481 
z
" transform="scale(0.015625)"/>
        <path id="DejaVuSans-30" d="M 2034 4250 
Q 1547 4250 1301 3770 
Q 1056 3291 1056 2328 
Q 1056 1369 1301 889 
Q 1547 409 2034 409 
Q 2525 409 2770 889 
Q 3016 1369 3016 2328 
Q 3016 3291 2770 3770 
Q 2525 4250 2034 4250 
z
M 2034 4750 
Q 2819 4750 3233 4129 
Q 3647 3509 3647 2328 
Q 3647 1150 3233 529 
Q 2819 -91 2034 -91 
Q 1250 -91 836 529 
Q 422 1150 422 2328 
Q 422 3509 836 4129 
Q 1250 4750 2034 4750 
z
" transform="scale(0.015625)"/>
       </defs>
       <use xlink:href="#DejaVuSans-2212"/>
       <use xlink:href="#DejaVuSans-31" x="83.789062"/>
       <use xlink:href="#DejaVuSans-38" x="147.412109"/>
       <use xlink:href="#DejaVuSans-30" x="211.035156"/>
      </g>
     </g>
    </g>
    <g id="xtick_2">
     <g id="line2d_4">
      <g>
       <use xlink:href="#mb381f8f691" x="125.266667" y="303.64" style="stroke: #000000; stroke-width: 0.8"/>
      </g>
     </g>
     <g id="text_2">
      <!-- −120 -->
      <g transform="translate(111.533073 318.238437) scale(0.1 -0.1)">
       <defs>
        <path id="DejaVuSans-32" d="M 1228 531 
L 3431 531 
L 3431 0 
L 469 0 
L 469 531 
Q 828 903 1448 1529 
Q 2069 2156 2228 2338 
Q 2531 2678 2651 2914 
Q 2772 3150 2772 3378 
Q 2772 3750 2511 3984 
Q 2250 4219 1831 4219 
Q 1534 4219 1204 4116 
Q 875 4013 500 3803 
L 500 4441 
Q 881 4594 1212 4672 
Q 1544 4750 1819 4750 
Q 2544 4750 2975 4387 
Q 3406 4025 3406 3419 
Q 3406 3131 3298 2873 
Q 3191 2616 2906 2266 
Q 2828 2175 2409 1742 
Q 1991 1309 1228 531 
z
" transform="scale(0.015625)"/>
       </defs>
       <use xlink:href="#DejaVuSans-2212"/>
       <use xlink:href="#DejaVuSans-31" x="83.789062"/>
       <use xlink:href="#DejaVuSans-32" x="147.412109"/>
       <use xlink:href="#DejaVuSans-30" x="211.035156"/>
      </g>
     </g>
    </g>
    <g id="xtick_3">
     <g id="line2d_5">
      <g>
       <use xlink:href="#mb381f8f691" x="190.213333" y="303.64" style="stroke: #000000; stroke-width: 0.8"/>
      </g>
     </g>
     <g id="text_3">
      <!-- −60 -->
      <g transform="translate(179.66099 318.238437) scale(0.1 -0.1)">
       <defs>
        <path id="DejaVuSans-36" d="M 2113 2584 
Q 1688 2584 1439 2293 
Q 1191 2003 1191 1497 
Q 1191 994 1439 701 
Q 1688 409 2113 409 
Q 2538 409 2786 701 
Q 3034 994 3034 1497 
Q 3034 2003 2786 2293 
Q 2538 2584 2113 2584 
z
M 3366 4563 
L 3366 3988 
Q 3128 4100 2886 4159 
Q 2644 4219 2406 4219 
Q 1781 4219 1451 3797 
Q 1122 3375 1075 2522 
Q 1259 2794 1537 2939 
Q 1816 3084 2150 3084 
Q 2853 3084 3261 2657 
Q 3669 2231 3669 1497 
Q 3669 778 3244 343 
Q 2819 -91 2113 -91 
Q 1303 -91 875 529 
Q 447 1150 447 2328 
Q 447 3434 972 4092 
Q 1497 4750 2381 4750 
Q 2619 4750 2861 4703 
Q 3103 4656 3366 4563 
z
" transform="scale(0.015625)"/>
       </defs>
       <use xlink:href="#DejaVuSans-2212"/>
       <use xlink:href="#DejaVuSans-36" x="83.789062"/>
       <use xlink:href="#DejaVuSans-30" x="147.412109"/>
      </g>
     </g>
    </g>
    <g id="xtick_4">
     <g id="line2d_6">
      <g>
       <use xlink:href="#mb381f8f691" x="255.16" y="303.64" style="stroke: #000000; stroke-width: 0.8"/>
      </g>
     </g>
     <g id="text_4">
      <!-- 0 -->
      <g transform="translate(251.97875 318.238437) scale(0.1 -0.1)">
       <use xlink:href="#DejaVuSans-30"/>
      </g>
     </g>
    </g>
    <g id="xtick_5">
     <g id="line2d_7">
      <g>
       <use xlink:href="#mb381f8f691" x="320.106667" y="303.64" style="stroke: #000000; stroke-width: 0.8"/>
      </g>
     </g>
     <g id="text_5">
      <!-- 60 -->
      <g transform="translate(313.744167 318.238437) scale(0.1 -0.1)">
       <use xlink:href="#DejaVuSans-36"/>
       <use xlink:href="#DejaVuSans-30" x="63.623047"/>
      </g>
     </g>
    </g>
    <g id="xtick_6">
     <g id="line2d_8">
      <g>
       <use xlink:href="#mb381f8f691" x="385.053333" y="303.64" style="stroke: #000000; stroke-width: 0.8"/>
      </g>
     </g>
     <g id="text_6">
      <!-- 120 -->
      <g transform="translate(375.509583 318.238437) scale(0.1 -0.1)">
       <use xlink:href="#DejaVuSans-31"/>
       <use xlink:href="#DejaVuSans-32" x="63.623047"/>
       <use xlink:href="#DejaVuSans-30" x="127.246094"/>
      </g>
     </g>
    </g>
    <g id="xtick_7">
     <g id="line2d_9">
      <g>
       <use xlink:href="#mb381f8f691" x="450" y="303.64" style="stroke: #000000; stroke-width: 0.8"/>
      </g>
     </g>
     <g id="text_7">
      <!-- 180 -->
      <g transform="translate(440.45625 318.238437) scale(0.1 -0.1)">
       <use xlink:href="#DejaVuSans-31"/>
       <use xlink:href="#DejaVuSans-38" x="63.623047"/>
       <use xlink:href="#DejaVuSans-30" x="127.246094"/>
      </g>
     </g>
    </g>
    <g id="text_8">
     <!-- CRO66 OG1-CB1-CA1-C1 Dihedral [°] -->
     <g transform="translate(162.288125 331.916562) scale(0.1 -0.1)">
      <defs>
       <path id="DejaVuSans-43" d="M 4122 4306 
L 4122 3641 
Q 3803 3938 3442 4084 
Q 3081 4231 2675 4231 
Q 1875 4231 1450 3742 
Q 1025 3253 1025 2328 
Q 1025 1406 1450 917 
Q 1875 428 2675 428 
Q 3081 428 3442 575 
Q 3803 722 4122 1019 
L 4122 359 
Q 3791 134 3420 21 
Q 3050 -91 2638 -91 
Q 1578 -91 968 557 
Q 359 1206 359 2328 
Q 359 3453 968 4101 
Q 1578 4750 2638 4750 
Q 3056 4750 3426 4639 
Q 3797 4528 4122 4306 
z
" transform="scale(0.015625)"/>
       <path id="DejaVuSans-52" d="M 2841 2188 
Q 3044 2119 3236 1894 
Q 3428 1669 3622 1275 
L 4263 0 
L 3584 0 
L 2988 1197 
Q 2756 1666 2539 1819 
Q 2322 1972 1947 1972 
L 1259 1972 
L 1259 0 
L 628 0 
L 628 4666 
L 2053 4666 
Q 2853 4666 3247 4331 
Q 3641 3997 3641 3322 
Q 3641 2881 3436 2590 
Q 3231 2300 2841 2188 
z
M 1259 4147 
L 1259 2491 
L 2053 2491 
Q 2509 2491 2742 2702 
Q 2975 2913 2975 3322 
Q 2975 3731 2742 3939 
Q 2509 4147 2053 4147 
L 1259 4147 
z
" transform="scale(0.015625)"/>
       <path id="DejaVuSans-4f" d="M 2522 4238 
Q 1834 4238 1429 3725 
Q 1025 3213 1025 2328 
Q 1025 1447 1429 934 
Q 1834 422 2522 422 
Q 3209 422 3611 934 
Q 4013 1447 4013 2328 
Q 4013 3213 3611 3725 
Q 3209 4238 2522 4238 
z
M 2522 4750 
Q 3503 4750 4090 4092 
Q 4678 3434 4678 2328 
Q 4678 1225 4090 567 
Q 3503 -91 2522 -91 
Q 1538 -91 948 565 
Q 359 1222 359 2328 
Q 359 3434 948 4092 
Q 1538 4750 2522 4750 
z
" transform="scale(0.015625)"/>
       <path id="DejaVuSans-20" transform="scale(0.015625)"/>
       <path id="DejaVuSans-47" d="M 3809 666 
L 3809 1919 
L 2778 1919 
L 2778 2438 
L 4434 2438 
L 4434 434 
Q 4069 175 3628 42 
Q 3188 -91 2688 -91 
Q 1594 -91 976 548 
Q 359 1188 359 2328 
Q 359 3472 976 4111 
Q 1594 4750 2688 4750 
Q 3144 4750 3555 4637 
Q 3966 4525 4313 4306 
L 4313 3634 
Q 3963 3931 3569 4081 
Q 3175 4231 2741 4231 
Q 1884 4231 1454 3753 
Q 1025 3275 1025 2328 
Q 1025 1384 1454 906 
Q 1884 428 2741 428 
Q 3075 428 3337 486 
Q 3600 544 3809 666 
z
" transform="scale(0.015625)"/>
       <path id="DejaVuSans-2d" d="M 313 2009 
L 1997 2009 
L 1997 1497 
L 313 1497 
L 313 2009 
z
" transform="scale(0.015625)"/>
       <path id="DejaVuSans-42" d="M 1259 2228 
L 1259 519 
L 2272 519 
Q 2781 519 3026 730 
Q 3272 941 3272 1375 
Q 3272 1813 3026 2020 
Q 2781 2228 2272 2228 
L 1259 2228 
z
M 1259 4147 
L 1259 2741 
L 2194 2741 
Q 2656 2741 2882 2914 
Q 3109 3088 3109 3444 
Q 3109 3797 2882 3972 
Q 2656 4147 2194 4147 
L 1259 4147 
z
M 628 4666 
L 2241 4666 
Q 2963 4666 3353 4366 
Q 3744 4066 3744 3513 
Q 3744 3084 3544 2831 
Q 3344 2578 2956 2516 
Q 3422 2416 3680 2098 
Q 3938 1781 3938 1306 
Q 3938 681 3513 340 
Q 3088 0 2303 0 
L 628 0 
L 628 4666 
z
" transform="scale(0.015625)"/>
       <path id="DejaVuSans-41" d="M 2188 4044 
L 1331 1722 
L 3047 1722 
L 2188 4044 
z
M 1831 4666 
L 2547 4666 
L 4325 0 
L 3669 0 
L 3244 1197 
L 1141 1197 
L 716 0 
L 50 0 
L 1831 4666 
z
" transform="scale(0.015625)"/>
       <path id="DejaVuSans-44" d="M 1259 4147 
L 1259 519 
L 2022 519 
Q 2988 519 3436 956 
Q 3884 1394 3884 2338 
Q 3884 3275 3436 3711 
Q 2988 4147 2022 4147 
L 1259 4147 
z
M 628 4666 
L 1925 4666 
Q 3281 4666 3915 4102 
Q 4550 3538 4550 2338 
Q 4550 1131 3912 565 
Q 3275 0 1925 0 
L 628 0 
L 628 4666 
z
" transform="scale(0.015625)"/>
       <path id="DejaVuSans-69" d="M 603 3500 
L 1178 3500 
L 1178 0 
L 603 0 
L 603 3500 
z
M 603 4863 
L 1178 4863 
L 1178 4134 
L 603 4134 
L 603 4863 
z
" transform="scale(0.015625)"/>
       <path id="DejaVuSans-68" d="M 3513 2113 
L 3513 0 
L 2938 0 
L 2938 2094 
Q 2938 2591 2744 2837 
Q 2550 3084 2163 3084 
Q 1697 3084 1428 2787 
Q 1159 2491 1159 1978 
L 1159 0 
L 581 0 
L 581 4863 
L 1159 4863 
L 1159 2956 
Q 1366 3272 1645 3428 
Q 1925 3584 2291 3584 
Q 2894 3584 3203 3211 
Q 3513 2838 3513 2113 
z
" transform="scale(0.015625)"/>
       <path id="DejaVuSans-65" d="M 3597 1894 
L 3597 1613 
L 953 1613 
Q 991 1019 1311 708 
Q 1631 397 2203 397 
Q 2534 397 2845 478 
Q 3156 559 3463 722 
L 3463 178 
Q 3153 47 2828 -22 
Q 2503 -91 2169 -91 
Q 1331 -91 842 396 
Q 353 884 353 1716 
Q 353 2575 817 3079 
Q 1281 3584 2069 3584 
Q 2775 3584 3186 3129 
Q 3597 2675 3597 1894 
z
M 3022 2063 
Q 3016 2534 2758 2815 
Q 2500 3097 2075 3097 
Q 1594 3097 1305 2825 
Q 1016 2553 972 2059 
L 3022 2063 
z
" transform="scale(0.015625)"/>
       <path id="DejaVuSans-64" d="M 2906 2969 
L 2906 4863 
L 3481 4863 
L 3481 0 
L 2906 0 
L 2906 525 
Q 2725 213 2448 61 
Q 2172 -91 1784 -91 
Q 1150 -91 751 415 
Q 353 922 353 1747 
Q 353 2572 751 3078 
Q 1150 3584 1784 3584 
Q 2172 3584 2448 3432 
Q 2725 3281 2906 2969 
z
M 947 1747 
Q 947 1113 1208 752 
Q 1469 391 1925 391 
Q 2381 391 2643 752 
Q 2906 1113 2906 1747 
Q 2906 2381 2643 2742 
Q 2381 3103 1925 3103 
Q 1469 3103 1208 2742 
Q 947 2381 947 1747 
z
" transform="scale(0.015625)"/>
       <path id="DejaVuSans-72" d="M 2631 2963 
Q 2534 3019 2420 3045 
Q 2306 3072 2169 3072 
Q 1681 3072 1420 2755 
Q 1159 2438 1159 1844 
L 1159 0 
L 581 0 
L 581 3500 
L 1159 3500 
L 1159 2956 
Q 1341 3275 1631 3429 
Q 1922 3584 2338 3584 
Q 2397 3584 2469 3576 
Q 2541 3569 2628 3553 
L 2631 2963 
z
" transform="scale(0.015625)"/>
       <path id="DejaVuSans-61" d="M 2194 1759 
Q 1497 1759 1228 1600 
Q 959 1441 959 1056 
Q 959 750 1161 570 
Q 1363 391 1709 391 
Q 2188 391 2477 730 
Q 2766 1069 2766 1631 
L 2766 1759 
L 2194 1759 
z
M 3341 1997 
L 3341 0 
L 2766 0 
L 2766 531 
Q 2569 213 2275 61 
Q 1981 -91 1556 -91 
Q 1019 -91 701 211 
Q 384 513 384 1019 
Q 384 1609 779 1909 
Q 1175 2209 1959 2209 
L 2766 2209 
L 2766 2266 
Q 2766 2663 2505 2880 
Q 2244 3097 1772 3097 
Q 1472 3097 1187 3025 
Q 903 2953 641 2809 
L 641 3341 
Q 956 3463 1253 3523 
Q 1550 3584 1831 3584 
Q 2591 3584 2966 3190 
Q 3341 2797 3341 1997 
z
" transform="scale(0.015625)"/>
       <path id="DejaVuSans-6c" d="M 603 4863 
L 1178 4863 
L 1178 0 
L 603 0 
L 603 4863 
z
" transform="scale(0.015625)"/>
       <path id="DejaVuSans-5b" d="M 550 4863 
L 1875 4863 
L 1875 4416 
L 1125 4416 
L 1125 -397 
L 1875 -397 
L 1875 -844 
L 550 -844 
L 550 4863 
z
" transform="scale(0.015625)"/>
       <path id="DejaVuSans-b0" d="M 1600 4347 
Q 1350 4347 1178 4173 
Q 1006 4000 1006 3750 
Q 1006 3503 1178 3333 
Q 1350 3163 1600 3163 
Q 1850 3163 2022 3333 
Q 2194 3503 2194 3750 
Q 2194 3997 2020 4172 
Q 1847 4347 1600 4347 
z
M 1600 4750 
Q 1800 4750 1984 4673 
Q 2169 4597 2303 4453 
Q 2447 4313 2519 4134 
Q 2591 3956 2591 3750 
Q 2591 3338 2302 3052 
Q 2013 2766 1594 2766 
Q 1172 2766 890 3047 
Q 609 3328 609 3750 
Q 609 4169 896 4459 
Q 1184 4750 1600 4750 
z
" transform="scale(0.015625)"/>
       <path id="DejaVuSans-5d" d="M 1947 4863 
L 1947 -844 
L 622 -844 
L 622 -397 
L 1369 -397 
L 1369 4416 
L 622 4416 
L 622 4863 
L 1947 4863 
z
" transform="scale(0.015625)"/>
      </defs>
      <use xlink:href="#DejaVuSans-43"/>
      <use xlink:href="#DejaVuSans-52" x="69.824219"/>
      <use xlink:href="#DejaVuSans-4f" x="139.306641"/>
      <use xlink:href="#DejaVuSans-36" x="218.017578"/>
      <use xlink:href="#DejaVuSans-36" x="281.640625"/>
      <use xlink:href="#DejaVuSans-20" x="345.263672"/>
      <use xlink:href="#DejaVuSans-4f" x="377.050781"/>
      <use xlink:href="#DejaVuSans-47" x="455.761719"/>
      <use xlink:href="#DejaVuSans-31" x="533.251953"/>
      <use xlink:href="#DejaVuSans-2d" x="596.875"/>
      <use xlink:href="#DejaVuSans-43" x="632.958984"/>
      <use xlink:href="#DejaVuSans-42" x="702.783203"/>
      <use xlink:href="#DejaVuSans-31" x="771.386719"/>
      <use xlink:href="#DejaVuSans-2d" x="835.009766"/>
      <use xlink:href="#DejaVuSans-43" x="871.09375"/>
      <use xlink:href="#DejaVuSans-41" x="940.917969"/>
      <use xlink:href="#DejaVuSans-31" x="1009.326172"/>
      <use xlink:href="#DejaVuSans-2d" x="1072.949219"/>
      <use xlink:href="#DejaVuSans-43" x="1109.033203"/>
      <use xlink:href="#DejaVuSans-31" x="1178.857422"/>
      <use xlink:href="#DejaVuSans-20" x="1242.480469"/>
      <use xlink:href="#DejaVuSans-44" x="1274.267578"/>
      <use xlink:href="#DejaVuSans-69" x="1351.269531"/>
      <use xlink:href="#DejaVuSans-68" x="1379.052734"/>
      <use xlink:href="#DejaVuSans-65" x="1442.431641"/>
      <use xlink:href="#DejaVuSans-64" x="1503.955078"/>
      <use xlink:href="#DejaVuSans-72" x="1567.431641"/>
      <use xlink:href="#DejaVuSans-61" x="1608.544922"/>
      <use xlink:href="#DejaVuSans-6c" x="1669.824219"/>
      <use xlink:href="#DejaVuSans-20" x="1697.607422"/>
      <use xlink:href="#DejaVuSans-5b" x="1729.394531"/>
      <use xlink:href="#DejaVuSans-b0" x="1768.408203"/>
      <use xlink:href="#DejaVuSans-5d" x="1818.408203"/>
     </g>
    </g>
   </g>
   <g id="matplotlib.axis_2">
    <g id="ytick_1">
     <g id="line2d_10">
      <defs>
       <path id="m24f4357084" d="M 0 0 
L -3.5 0 
" style="stroke: #000000; stroke-width: 0.8"/>
      </defs>
      <g>
       <use xlink:href="#m24f4357084" x="60.32" y="303.64" style="stroke: #000000; stroke-width: 0.8"/>
      </g>
     </g>
     <g id="text_9">
      <!-- 0.000 -->
      <g transform="translate(24.691875 307.439219) scale(0.1 -0.1)">
       <defs>
        <path id="DejaVuSans-2e" d="M 684 794 
L 1344 794 
L 1344 0 
L 684 0 
L 684 794 
z
" transform="scale(0.015625)"/>
       </defs>
       <use xlink:href="#DejaVuSans-30"/>
       <use xlink:href="#DejaVuSans-2e" x="63.623047"/>
       <use xlink:href="#DejaVuSans-30" x="95.410156"/>
       <use xlink:href="#DejaVuSans-30" x="159.033203"/>
       <use xlink:href="#DejaVuSans-30" x="222.65625"/>
      </g>
     </g>
    </g>
    <g id="ytick_2">
     <g id="line2d_11">
      <g>
       <use xlink:href="#m24f4357084" x="60.32" y="249.762986" style="stroke: #000000; stroke-width: 0.8"/>
      </g>
     </g>
     <g id="text_10">
      <!-- 0.005 -->
      <g transform="translate(24.691875 253.562205) scale(0.1 -0.1)">
       <defs>
        <path id="DejaVuSans-35" d="M 691 4666 
L 3169 4666 
L 3169 4134 
L 1269 4134 
L 1269 2991 
Q 1406 3038 1543 3061 
Q 1681 3084 1819 3084 
Q 2600 3084 3056 2656 
Q 3513 2228 3513 1497 
Q 3513 744 3044 326 
Q 2575 -91 1722 -91 
Q 1428 -91 1123 -41 
Q 819 9 494 109 
L 494 744 
Q 775 591 1075 516 
Q 1375 441 1709 441 
Q 2250 441 2565 725 
Q 2881 1009 2881 1497 
Q 2881 1984 2565 2268 
Q 2250 2553 1709 2553 
Q 1456 2553 1204 2497 
Q 953 2441 691 2322 
L 691 4666 
z
" transform="scale(0.015625)"/>
       </defs>
       <use xlink:href="#DejaVuSans-30"/>
       <use xlink:href="#DejaVuSans-2e" x="63.623047"/>
       <use xlink:href="#DejaVuSans-30" x="95.410156"/>
       <use xlink:href="#DejaVuSans-30" x="159.033203"/>
       <use xlink:href="#DejaVuSans-35" x="222.65625"/>
      </g>
     </g>
    </g>
    <g id="ytick_3">
     <g id="line2d_12">
      <g>
       <use xlink:href="#m24f4357084" x="60.32" y="195.885972" style="stroke: #000000; stroke-width: 0.8"/>
      </g>
     </g>
     <g id="text_11">
      <!-- 0.010 -->
      <g transform="translate(24.691875 199.685191) scale(0.1 -0.1)">
       <use xlink:href="#DejaVuSans-30"/>
       <use xlink:href="#DejaVuSans-2e" x="63.623047"/>
       <use xlink:href="#DejaVuSans-30" x="95.410156"/>
       <use xlink:href="#DejaVuSans-31" x="159.033203"/>
       <use xlink:href="#DejaVuSans-30" x="222.65625"/>
      </g>
     </g>
    </g>
    <g id="ytick_4">
     <g id="line2d_13">
      <g>
       <use xlink:href="#m24f4357084" x="60.32" y="142.008958" style="stroke: #000000; stroke-width: 0.8"/>
      </g>
     </g>
     <g id="text_12">
      <!-- 0.015 -->
      <g transform="translate(24.691875 145.808177) scale(0.1 -0.1)">
       <use xlink:href="#DejaVuSans-30"/>
       <use xlink:href="#DejaVuSans-2e" x="63.623047"/>
       <use xlink:href="#DejaVuSans-30" x="95.410156"/>
       <use xlink:href="#DejaVuSans-31" x="159.033203"/>
       <use xlink:href="#DejaVuSans-35" x="222.65625"/>
      </g>
     </g>
    </g>
    <g id="ytick_5">
     <g id="line2d_14">
      <g>
       <use xlink:href="#m24f4357084" x="60.32" y="88.131944" style="stroke: #000000; stroke-width: 0.8"/>
      </g>
     </g>
     <g id="text_13">
      <!-- 0.020 -->
      <g transform="translate(24.691875 91.931163) scale(0.1 -0.1)">
       <use xlink:href="#DejaVuSans-30"/>
       <use xlink:href="#DejaVuSans-2e" x="63.623047"/>
       <use xlink:href="#DejaVuSans-30" x="95.410156"/>
       <use xlink:href="#DejaVuSans-32" x="159.033203"/>
       <use xlink:href="#DejaVuSans-30" x="222.65625"/>
      </g>
     </g>
    </g>
    <g id="ytick_6">
     <g id="line2d_15">
      <g>
       <use xlink:href="#m24f4357084" x="60.32" y="34.25493" style="stroke: #000000; stroke-width: 0.8"/>
      </g>
     </g>
     <g id="text_14">
      <!-- 0.025 -->
      <g transform="translate(24.691875 38.054149) scale(0.1 -0.1)">
       <use xlink:href="#DejaVuSans-30"/>
       <use xlink:href="#DejaVuSans-2e" x="63.623047"/>
       <use xlink:href="#DejaVuSans-30" x="95.410156"/>
       <use xlink:href="#DejaVuSans-32" x="159.033203"/>
       <use xlink:href="#DejaVuSans-35" x="222.65625"/>
      </g>
     </g>
    </g>
    <g id="text_15">
     <!-- Density -->
     <g transform="translate(18.612188 176.228594) rotate(-90) scale(0.1 -0.1)">
      <defs>
       <path id="DejaVuSans-6e" d="M 3513 2113 
L 3513 0 
L 2938 0 
L 2938 2094 
Q 2938 2591 2744 2837 
Q 2550 3084 2163 3084 
Q 1697 3084 1428 2787 
Q 1159 2491 1159 1978 
L 1159 0 
L 581 0 
L 581 3500 
L 1159 3500 
L 1159 2956 
Q 1366 3272 1645 3428 
Q 1925 3584 2291 3584 
Q 2894 3584 3203 3211 
Q 3513 2838 3513 2113 
z
" transform="scale(0.015625)"/>
       <path id="DejaVuSans-73" d="M 2834 3397 
L 2834 2853 
Q 2591 2978 2328 3040 
Q 2066 3103 1784 3103 
Q 1356 3103 1142 2972 
Q 928 2841 928 2578 
Q 928 2378 1081 2264 
Q 1234 2150 1697 2047 
L 1894 2003 
Q 2506 1872 2764 1633 
Q 3022 1394 3022 966 
Q 3022 478 2636 193 
Q 2250 -91 1575 -91 
Q 1294 -91 989 -36 
Q 684 19 347 128 
L 347 722 
Q 666 556 975 473 
Q 1284 391 1588 391 
Q 1994 391 2212 530 
Q 2431 669 2431 922 
Q 2431 1156 2273 1281 
Q 2116 1406 1581 1522 
L 1381 1569 
Q 847 1681 609 1914 
Q 372 2147 372 2553 
Q 372 3047 722 3315 
Q 1072 3584 1716 3584 
Q 2034 3584 2315 3537 
Q 2597 3491 2834 3397 
z
" transform="scale(0.015625)"/>
       <path id="DejaVuSans-74" d="M 1172 4494 
L 1172 3500 
L 2356 3500 
L 2356 3053 
L 1172 3053 
L 1172 1153 
Q 1172 725 1289 603 
Q 1406 481 1766 481 
L 2356 481 
L 2356 0 
L 1766 0 
Q 1100 0 847 248 
Q 594 497 594 1153 
L 594 3053 
L 172 3053 
L 172 3500 
L 594 3500 
L 594 4494 
L 1172 4494 
z
" transform="scale(0.015625)"/>
       <path id="DejaVuSans-79" d="M 2059 -325 
Q 1816 -950 1584 -1140 
Q 1353 -1331 966 -1331 
L 506 -1331 
L 506 -850 
L 844 -850 
Q 1081 -850 1212 -737 
Q 1344 -625 1503 -206 
L 1606 56 
L 191 3500 
L 800 3500 
L 1894 763 
L 2988 3500 
L 3597 3500 
L 2059 -325 
z
" transform="scale(0.015625)"/>
      </defs>
      <use xlink:href="#DejaVuSans-44"/>
      <use xlink:href="#DejaVuSans-65" x="77.001953"/>
      <use xlink:href="#DejaVuSans-6e" x="138.525391"/>
      <use xlink:href="#DejaVuSans-73" x="201.904297"/>
      <use xlink:href="#DejaVuSans-69" x="254.003906"/>
      <use xlink:href="#DejaVuSans-74" x="281.787109"/>
      <use xlink:href="#DejaVuSans-79" x="320.996094"/>
     </g>
    </g>
   </g>
   <g id="line2d_16">
    <path d="M 60.32 215.856891 
L 61.49021 213.429458 
L 62.66042 211.483407 
L 63.830631 210.056469 
L 64.610771 209.408185 
L 65.390911 209.009718 
L 66.171051 208.865105 
L 66.951191 208.97625 
L 67.731331 209.342887 
L 68.511471 209.962577 
L 69.291612 210.830733 
L 70.461822 212.5837 
L 71.632032 214.849429 
L 72.802242 217.587994 
L 74.362523 221.891338 
L 76.312873 228.132031 
L 78.653293 236.509353 
L 86.844765 266.76994 
L 89.185185 274.138395 
L 91.135536 279.545203 
L 93.085886 284.245164 
L 94.646166 287.498192 
L 96.206446 290.318273 
L 97.766727 292.732133 
L 99.327007 294.773193 
L 100.887287 296.478874 
L 102.447568 297.88827 
L 104.007848 299.040252 
L 105.958198 300.174656 
L 107.908549 301.031285 
L 110.248969 301.773822 
L 112.589389 302.282916 
L 115.70995 302.708708 
L 119.610651 302.981946 
L 124.681562 303.092969 
L 130.922683 302.996613 
L 135.993594 302.719573 
L 140.284364 302.263416 
L 143.404925 301.729244 
L 146.135415 301.059735 
L 148.475836 300.288607 
L 150.816256 299.291579 
L 153.156677 298.02732 
L 155.107027 296.743676 
L 157.447447 294.906251 
L 159.787868 292.739928 
L 162.128288 290.265848 
L 165.248849 286.588315 
L 172.27011 278.062455 
L 174.22046 276.071539 
L 175.780741 274.729746 
L 177.341021 273.663066 
L 178.901301 272.91208 
L 180.071512 272.575039 
L 181.241722 272.441999 
L 182.411932 272.517674 
L 183.582142 272.802474 
L 184.752352 273.292433 
L 185.922563 273.979295 
L 187.482843 275.179583 
L 189.043123 276.668491 
L 190.993473 278.860994 
L 193.723964 282.352321 
L 200.745225 291.602822 
L 203.085646 294.244661 
L 205.035996 296.163767 
L 206.986346 297.807947 
L 208.936697 299.179258 
L 210.887047 300.293803 
L 212.837397 301.177332 
L 215.177818 301.976696 
L 217.518238 302.545182 
L 220.248729 302.988211 
L 223.759359 303.319743 
L 228.4402 303.52314 
L 236.631672 303.620808 
L 253.014615 303.575813 
L 258.085526 303.379946 
L 261.206086 303.058249 
L 263.546507 302.609199 
L 265.496857 302.014954 
L 267.057137 301.334273 
L 268.617417 300.410228 
L 270.177698 299.17406 
L 271.347908 297.993822 
L 272.518118 296.554086 
L 273.688328 294.8128 
L 274.858539 292.72502 
L 276.028749 290.24372 
L 277.198959 287.320894 
L 278.369169 283.908954 
L 279.929449 278.520777 
L 281.48973 272.087031 
L 283.05001 264.534209 
L 284.61029 255.820851 
L 286.170571 245.947441 
L 288.120921 232.058106 
L 290.461341 213.443115 
L 293.581902 186.505091 
L 297.482603 152.970709 
L 299.432953 137.97348 
L 300.993233 127.528921 
L 302.163443 120.840076 
L 303.333654 115.280928 
L 304.503864 110.962402 
L 305.284004 108.816128 
L 306.064144 107.278573 
L 306.844284 106.362536 
L 307.234354 106.139951 
L 307.624424 106.074824 
L 308.014494 106.167058 
L 308.404565 106.416176 
L 309.184705 107.381281 
L 309.964845 108.958898 
L 310.744985 111.13206 
L 311.525125 113.87838 
L 312.695335 119.011255 
L 313.865546 125.259525 
L 315.425826 135.097664 
L 317.376176 149.321895 
L 319.716597 168.246499 
L 325.957718 219.797949 
L 328.298138 236.836345 
L 330.248488 249.402462 
L 332.198839 260.341195 
L 333.759119 267.904951 
L 335.319399 274.445358 
L 336.87968 280.021428 
L 338.43996 284.711443 
L 340.00024 288.605503 
L 341.560521 291.799054 
L 343.120801 294.387593 
L 344.681081 296.462623 
L 346.241361 298.108807 
L 347.801642 299.402212 
L 349.361922 300.409457 
L 350.922202 301.187585 
L 352.872553 301.91015 
L 355.212973 302.507192 
L 357.943463 302.950639 
L 361.454094 303.275674 
L 366.525005 303.493512 
L 375.496617 303.609226 
L 392.6597 303.584095 
L 400.071031 303.385287 
L 404.361802 303.062219 
L 407.482362 302.62677 
L 410.212853 302.023943 
L 412.553273 301.273331 
L 414.503624 300.430406 
L 416.453974 299.339489 
L 418.404324 297.946956 
L 419.964605 296.576432 
L 421.524885 294.943658 
L 423.085165 293.016462 
L 424.645445 290.763387 
L 426.205726 288.155199 
L 427.766006 285.166721 
L 429.716356 280.868188 
L 431.666707 275.928788 
L 433.617057 270.359408 
L 435.957477 262.913324 
L 438.687968 253.388359 
L 446.099299 226.798073 
L 448.04965 220.846082 
L 449.60993 216.765352 
L 450 215.856891 
L 450 215.856891 
" clip-path="url(#pe3e4f72117)" style="fill: none; stroke: #f99752; stroke-width: 2.5; stroke-linecap: square"/>
   </g>
   <g id="patch_3">
    <path d="M 60.32 303.64 
L 60.32 10.8 
" style="fill: none; stroke: #000000; stroke-width: 0.8; stroke-linejoin: miter; stroke-linecap: square"/>
   </g>
   <g id="patch_4">
    <path d="M 450 303.64 
L 450 10.8 
" style="fill: none; stroke: #000000; stroke-width: 0.8; stroke-linejoin: miter; stroke-linecap: square"/>
   </g>
   <g id="patch_5">
    <path d="M 60.32 303.64 
L 450 303.64 
" style="fill: none; stroke: #000000; stroke-width: 0.8; stroke-linejoin: miter; stroke-linecap: square"/>
   </g>
   <g id="patch_6">
    <path d="M 60.32 10.8 
L 450 10.8 
" style="fill: none; stroke: #000000; stroke-width: 0.8; stroke-linejoin: miter; stroke-linecap: square"/>
   </g>
   <g id="legend_1">
    <g id="patch_7">
     <path d="M 367.554688 62.834375 
L 443 62.834375 
Q 445 62.834375 445 60.834375 
L 445 17.8 
Q 445 15.8 443 15.8 
L 367.554688 15.8 
Q 365.554688 15.8 365.554688 17.8 
L 365.554688 60.834375 
Q 365.554688 62.834375 367.554688 62.834375 
z
" style="fill: #ffffff; opacity: 0.8; stroke: #cccccc; stroke-linejoin: miter"/>
    </g>
    <g id="line2d_17">
     <path d="M 369.554688 23.898438 
L 379.554688 23.898438 
L 389.554688 23.898438 
" style="fill: none; stroke: #1e2e79; stroke-width: 2.5; stroke-linecap: square"/>
    </g>
    <g id="text_16">
     <!-- Reduced -->
     <g transform="translate(397.554688 27.398438) scale(0.1 -0.1)">
      <defs>
       <path id="DejaVuSans-75" d="M 544 1381 
L 544 3500 
L 1119 3500 
L 1119 1403 
Q 1119 906 1312 657 
Q 1506 409 1894 409 
Q 2359 409 2629 706 
Q 2900 1003 2900 1516 
L 2900 3500 
L 3475 3500 
L 3475 0 
L 2900 0 
L 2900 538 
Q 2691 219 2414 64 
Q 2138 -91 1772 -91 
Q 1169 -91 856 284 
Q 544 659 544 1381 
z
M 1991 3584 
L 1991 3584 
z
" transform="scale(0.015625)"/>
       <path id="DejaVuSans-63" d="M 3122 3366 
L 3122 2828 
Q 2878 2963 2633 3030 
Q 2388 3097 2138 3097 
Q 1578 3097 1268 2742 
Q 959 2388 959 1747 
Q 959 1106 1268 751 
Q 1578 397 2138 397 
Q 2388 397 2633 464 
Q 2878 531 3122 666 
L 3122 134 
Q 2881 22 2623 -34 
Q 2366 -91 2075 -91 
Q 1284 -91 818 406 
Q 353 903 353 1747 
Q 353 2603 823 3093 
Q 1294 3584 2113 3584 
Q 2378 3584 2631 3529 
Q 2884 3475 3122 3366 
z
" transform="scale(0.015625)"/>
      </defs>
      <use xlink:href="#DejaVuSans-52"/>
      <use xlink:href="#DejaVuSans-65" x="64.982422"/>
      <use xlink:href="#DejaVuSans-64" x="126.505859"/>
      <use xlink:href="#DejaVuSans-75" x="189.982422"/>
      <use xlink:href="#DejaVuSans-63" x="253.361328"/>
      <use xlink:href="#DejaVuSans-65" x="308.341797"/>
      <use xlink:href="#DejaVuSans-64" x="369.865234"/>
     </g>
    </g>
    <g id="line2d_18">
     <path d="M 369.554688 38.576563 
L 379.554688 38.576563 
L 389.554688 38.576563 
" style="fill: none; stroke: #ec4067; stroke-width: 2.5; stroke-linecap: square"/>
    </g>
    <g id="text_17">
     <!-- Oxidized -->
     <g transform="translate(397.554688 42.076563) scale(0.1 -0.1)">
      <defs>
       <path id="DejaVuSans-78" d="M 3513 3500 
L 2247 1797 
L 3578 0 
L 2900 0 
L 1881 1375 
L 863 0 
L 184 0 
L 1544 1831 
L 300 3500 
L 978 3500 
L 1906 2253 
L 2834 3500 
L 3513 3500 
z
" transform="scale(0.015625)"/>
       <path id="DejaVuSans-7a" d="M 353 3500 
L 3084 3500 
L 3084 2975 
L 922 459 
L 3084 459 
L 3084 0 
L 275 0 
L 275 525 
L 2438 3041 
L 353 3041 
L 353 3500 
z
" transform="scale(0.015625)"/>
      </defs>
      <use xlink:href="#DejaVuSans-4f"/>
      <use xlink:href="#DejaVuSans-78" x="78.710938"/>
      <use xlink:href="#DejaVuSans-69" x="137.890625"/>
      <use xlink:href="#DejaVuSans-64" x="165.673828"/>
      <use xlink:href="#DejaVuSans-69" x="229.150391"/>
      <use xlink:href="#DejaVuSans-7a" x="256.933594"/>
      <use xlink:href="#DejaVuSans-65" x="309.423828"/>
      <use xlink:href="#DejaVuSans-64" x="370.947266"/>
     </g>
    </g>
    <g id="line2d_19">
     <path d="M 369.554688 53.254688 
L 379.554688 53.254688 
L 389.554688 53.254688 
" style="fill: none; stroke: #f99752; stroke-width: 2.5; stroke-linecap: square"/>
    </g>
    <g id="text_18">
     <!-- Cu$^{+}$ -->
     <g transform="translate(397.554688 56.754688) scale(0.1 -0.1)">
      <defs>
       <path id="DejaVuSans-2b" d="M 2944 4013 
L 2944 2272 
L 4684 2272 
L 4684 1741 
L 2944 1741 
L 2944 0 
L 2419 0 
L 2419 1741 
L 678 1741 
L 678 2272 
L 2419 2272 
L 2419 4013 
L 2944 4013 
z
" transform="scale(0.015625)"/>
      </defs>
      <use xlink:href="#DejaVuSans-43" transform="translate(0 0.826562)"/>
      <use xlink:href="#DejaVuSans-75" transform="translate(69.824219 0.826562)"/>
      <use xlink:href="#DejaVuSans-2b" transform="translate(134.160156 39.107812) scale(0.7)"/>
     </g>
    </g>
   </g>
  </g>
 </g>
 <defs>
  <clipPath id="pe3e4f72117">
   <rect x="60.32" y="10.8" width="389.68" height="292.84"/>
  </clipPath>
 </defs>
</svg>
