<?xml version="1.0" encoding="utf-8" standalone="no"?>
<!DOCTYPE svg PUBLIC "-//W3C//DTD SVG 1.1//EN"
  "http://www.w3.org/Graphics/SVG/1.1/DTD/svg11.dtd">
<svg xmlns:xlink="http://www.w3.org/1999/xlink" width="460.8pt" height="345.6pt" viewBox="0 0 460.8 345.6" xmlns="http://www.w3.org/2000/svg" version="1.1">
 <metadata>
  <rdf:RDF xmlns:dc="http://purl.org/dc/elements/1.1/" xmlns:cc="http://creativecommons.org/ns#" xmlns:rdf="http://www.w3.org/1999/02/22-rdf-syntax-ns#">
   <cc:Work>
    <dc:type rdf:resource="http://purl.org/dc/dcmitype/StillImage"/>
    <dc:date>2024-07-20T19:53:45.190999</dc:date>
    <dc:format>image/svg+xml</dc:format>
    <dc:creator>
     <cc:Agent>
      <dc:title>Matplotlib v3.9.1, https://matplotlib.org/</dc:title>
     </cc:Agent>
    </dc:creator>
   </cc:Work>
  </rdf:RDF>
 </metadata>
 <defs>
  <style type="text/css">*{stroke-linejoin: round; stroke-linecap: butt}</style>
 </defs>
 <g id="figure_1">
  <g id="patch_1">
   <path d="M 0 345.6 
L 460.8 345.6 
L 460.8 0 
L 0 0 
z
" style="fill: #ffffff"/>
  </g>
  <g id="axes_1">
   <g id="patch_2">
    <path d="M 49.286 298.6 
L 445.032 298.6 
L 445.032 12.96 
L 49.286 12.96 
z
" style="fill: #ffffff"/>
   </g>
   <g id="line2d_1">
    <path d="M 49.286 298.6 
L 93.658855 298.512499 
L 96.035972 298.3026 
L 97.620717 297.960038 
L 99.205462 297.308052 
L 99.997834 296.815336 
L 100.790207 296.181211 
L 101.582579 295.381249 
L 102.374952 294.389803 
L 103.167324 293.180556 
L 103.959697 291.727754 
L 104.752069 290.008232 
L 106.336814 285.705077 
L 107.921559 280.233023 
L 109.506303 273.708717 
L 111.091048 266.342938 
L 113.468166 254.185245 
L 117.430028 233.439106 
L 119.014772 226.029181 
L 120.599517 219.393601 
L 122.184262 213.591844 
L 123.769007 208.725622 
L 125.353752 204.850847 
L 126.938497 201.908328 
L 127.730869 200.756649 
L 128.523241 199.81244 
L 129.315614 199.082974 
L 130.107986 198.582075 
L 130.900359 198.32312 
L 131.692731 198.310036 
L 132.485103 198.529776 
L 133.277476 198.949647 
L 134.862221 200.189303 
L 140.408828 205.274332 
L 145.955434 210.785124 
L 147.540179 211.881198 
L 149.124924 212.657148 
L 153.086786 214.323822 
L 155.463903 215.67936 
L 157.841021 217.36097 
L 160.218138 219.14723 
L 161.802883 220.069094 
L 162.595255 220.363119 
L 163.387628 220.519799 
L 164.18 220.532554 
L 164.972372 220.408487 
L 166.557117 219.855467 
L 168.934234 218.938256 
L 170.518979 218.680332 
L 172.896097 218.443813 
L 173.688469 218.18128 
L 174.480841 217.761075 
L 176.065586 216.486617 
L 181.612193 210.899531 
L 183.196938 209.079895 
L 184.781683 207.026192 
L 186.366428 204.674689 
L 187.951172 201.957558 
L 191.120662 196.164913 
L 192.705407 193.730545 
L 195.874897 189.278459 
L 197.459641 186.453359 
L 199.836759 181.379639 
L 203.798621 172.714725 
L 205.383366 169.628593 
L 206.96811 167.078346 
L 208.552855 165.220032 
L 210.1376 164.007934 
L 211.722345 163.194846 
L 215.684207 161.447532 
L 217.268952 161.071256 
L 218.853697 161.070927 
L 221.230814 161.200491 
L 222.815559 160.91541 
L 224.400303 160.466835 
L 225.192676 160.367265 
L 225.985048 160.464181 
L 226.777421 160.814075 
L 227.569793 161.432159 
L 228.362166 162.290415 
L 229.94691 164.469762 
L 233.1164 168.995272 
L 237.870634 175.40863 
L 240.247752 179.170656 
L 244.209614 186.011725 
L 248.171476 192.821432 
L 252.133338 199.261948 
L 256.887572 207.653048 
L 258.472317 209.923605 
L 261.641807 214.273321 
L 263.226552 216.922199 
L 267.980786 225.77022 
L 269.565531 228.051511 
L 271.150276 229.8198 
L 272.735021 231.20112 
L 275.112138 232.905301 
L 285.412979 239.721741 
L 287.790097 241.00468 
L 293.336703 243.316595 
L 294.921448 243.883045 
L 296.506193 244.185345 
L 298.88331 244.261347 
L 300.468055 244.346457 
L 302.0528 244.652422 
L 303.637545 245.21179 
L 306.014662 246.372353 
L 309.976524 248.632218 
L 312.353641 250.287177 
L 314.730759 252.287438 
L 317.900248 254.951531 
L 320.277366 256.608709 
L 322.654483 258.264777 
L 324.239228 259.606295 
L 330.578207 265.473041 
L 334.540069 268.769138 
L 336.917186 270.711731 
L 341.671421 274.360767 
L 347.218028 279.060504 
L 351.972262 282.68902 
L 354.349379 284.141982 
L 358.311241 286.154885 
L 362.273103 287.987794 
L 368.612083 290.556913 
L 377.328179 293.734792 
L 379.705297 294.0935 
L 383.667159 294.528794 
L 387.629021 295.297427 
L 390.79851 295.828017 
L 393.968 296.111967 
L 407.438331 297.11167 
L 412.192566 297.642008 
L 415.362055 297.723069 
L 420.11629 297.852642 
L 426.455269 298.139849 
L 449.434069 298.504917 
L 457.357793 298.55253 
L 461.8 298.578866 
L 461.8 298.578866 
" clip-path="url(#p58cbe47af4)" style="fill: none; stroke: #1e2e79; stroke-width: 2.5; stroke-linecap: square"/>
   </g>
   <g id="line2d_2">
    <path d="M 49.286 298.6 
L 94.451228 298.499951 
L 96.828345 298.258246 
L 98.41309 297.917911 
L 99.997834 297.33824 
L 101.582579 296.400823 
L 102.374952 295.750749 
L 103.167324 294.94987 
L 103.959697 293.973168 
L 104.752069 292.794306 
L 105.544441 291.386936 
L 106.336814 289.726778 
L 107.921559 285.577735 
L 109.506303 280.295062 
L 111.091048 273.984663 
L 113.468166 263.07451 
L 120.599517 228.54114 
L 122.184262 222.099454 
L 123.769007 216.374199 
L 125.353752 211.484091 
L 126.938497 207.558155 
L 127.730869 205.98284 
L 128.523241 204.670133 
L 129.315614 203.617341 
L 130.107986 202.816951 
L 130.900359 202.255346 
L 131.692731 201.910916 
L 132.485103 201.752761 
L 134.069848 201.832276 
L 138.03171 202.688404 
L 139.616455 203.191096 
L 141.2012 204.045831 
L 142.785945 205.331381 
L 149.124924 211.418944 
L 153.086786 214.567705 
L 154.671531 215.633643 
L 156.256276 216.475231 
L 157.841021 217.00604 
L 159.425766 217.139365 
L 161.01051 216.878538 
L 166.557117 215.299178 
L 168.934234 215.174844 
L 170.518979 215.109145 
L 171.311352 214.970541 
L 172.103724 214.69534 
L 172.896097 214.235075 
L 173.688469 213.551262 
L 174.480841 212.622888 
L 175.273214 211.451854 
L 176.857959 208.50985 
L 180.819821 200.326382 
L 182.404566 197.544752 
L 187.951172 188.596967 
L 189.535917 185.413354 
L 191.913034 180.020956 
L 195.874897 170.874931 
L 205.383366 150.370864 
L 206.96811 147.970084 
L 207.760483 147.104044 
L 208.552855 146.469604 
L 209.345228 146.049204 
L 210.1376 145.805379 
L 211.722345 145.635191 
L 214.891834 145.541225 
L 215.684207 145.610683 
L 216.476579 145.793319 
L 217.268952 146.114502 
L 218.853697 147.152344 
L 221.230814 149.233938 
L 222.815559 150.774501 
L 224.400303 152.658361 
L 225.985048 155.158111 
L 227.569793 158.33886 
L 229.154538 162.083747 
L 231.531655 168.496264 
L 233.908772 175.643706 
L 237.870634 187.858998 
L 240.247752 194.429806 
L 243.417241 202.258977 
L 247.379103 211.347712 
L 252.133338 221.5163 
L 254.510455 226.208266 
L 256.887572 230.425478 
L 258.472317 232.902745 
L 260.849434 236.114121 
L 269.565531 246.848921 
L 271.150276 248.396231 
L 273.527393 250.388746 
L 275.90451 252.157378 
L 277.489255 253.057873 
L 279.074 253.685954 
L 282.24349 254.772713 
L 286.997724 256.648646 
L 289.374841 257.180756 
L 293.336703 257.898642 
L 295.713821 258.604356 
L 298.88331 259.662353 
L 300.468055 259.960723 
L 302.0528 260.036169 
L 303.637545 259.908759 
L 305.22229 259.577565 
L 306.807034 259.036723 
L 309.976524 257.838403 
L 311.561269 257.633402 
L 313.146014 257.762721 
L 315.523131 258.057422 
L 317.107876 258.037244 
L 320.277366 257.793069 
L 321.86211 257.87852 
L 324.239228 258.319144 
L 330.578207 259.851098 
L 334.540069 261.222437 
L 336.917186 261.755242 
L 339.294303 262.282325 
L 340.879048 262.79764 
L 343.256166 263.818854 
L 346.425655 265.212286 
L 351.17989 267.143944 
L 353.557007 268.348836 
L 355.934124 269.782578 
L 358.311241 271.511334 
L 365.442593 277.155288 
L 370.196828 280.371116 
L 373.366317 282.255368 
L 379.705297 285.690777 
L 385.251903 288.295873 
L 388.421393 289.539579 
L 401.099352 293.998955 
L 404.268841 294.908218 
L 407.438331 295.584154 
L 412.984938 296.435613 
L 418.531545 297.142634 
L 424.078152 297.532854 
L 433.586621 297.973736 
L 444.679834 298.289728 
L 458.150166 298.470869 
L 461.8 298.44981 
L 461.8 298.44981 
" clip-path="url(#p58cbe47af4)" style="fill: none; stroke: #ec4067; stroke-width: 2.5; stroke-linecap: square"/>
   </g>
   <g id="matplotlib.axis_1">
    <g id="xtick_1">
     <g id="line2d_3">
      <defs>
       <path id="m60ba756ba7" d="M 0 0 
L 0 3.5 
" style="stroke: #c2c1c1; stroke-width: 0.8"/>
      </defs>
      <g>
       <use xlink:href="#m60ba756ba7" x="49.286" y="298.6" style="fill: #c2c1c1; stroke: #c2c1c1; stroke-width: 0.8"/>
      </g>
     </g>
     <g id="text_1">
      <!-- 1 -->
      <g style="fill: #191919" transform="translate(46.475844 313.1) scale(0.1 -0.1)">
       <defs>
        <path id="Roboto-Regular-31" d="M 2278 4575 
L 2278 0 
L 1700 0 
L 1700 3853 
L 534 3428 
L 534 3950 
L 2188 4575 
L 2278 4575 
z
" transform="scale(0.015625)"/>
       </defs>
       <use xlink:href="#Roboto-Regular-31"/>
      </g>
     </g>
    </g>
    <g id="xtick_2">
     <g id="line2d_4">
      <g>
       <use xlink:href="#m60ba756ba7" x="128.4352" y="298.6" style="fill: #c2c1c1; stroke: #c2c1c1; stroke-width: 0.8"/>
      </g>
     </g>
     <g id="text_2">
      <!-- 2 -->
      <g style="fill: #191919" transform="translate(125.625044 313.1) scale(0.1 -0.1)">
       <defs>
        <path id="Roboto-Regular-32" d="M 3359 475 
L 3359 0 
L 381 0 
L 381 416 
L 1925 2134 
Q 2306 2566 2439 2819 
Q 2572 3072 2572 3328 
Q 2572 3663 2364 3900 
Q 2156 4138 1778 4138 
Q 1322 4138 1097 3878 
Q 872 3619 872 3213 
L 294 3213 
Q 294 3788 672 4200 
Q 1050 4613 1778 4613 
Q 2422 4613 2786 4278 
Q 3150 3944 3150 3397 
Q 3150 2997 2903 2592 
Q 2656 2188 2297 1797 
L 1078 475 
L 3359 475 
z
" transform="scale(0.015625)"/>
       </defs>
       <use xlink:href="#Roboto-Regular-32"/>
      </g>
     </g>
    </g>
    <g id="xtick_3">
     <g id="line2d_5">
      <g>
       <use xlink:href="#m60ba756ba7" x="207.5844" y="298.6" style="fill: #c2c1c1; stroke: #c2c1c1; stroke-width: 0.8"/>
      </g>
     </g>
     <g id="text_3">
      <!-- 3 -->
      <g style="fill: #191919" transform="translate(204.774244 313.1) scale(0.1 -0.1)">
       <defs>
        <path id="Roboto-Regular-33" d="M 1222 2084 
L 1222 2559 
L 1647 2559 
Q 2094 2563 2312 2784 
Q 2531 3006 2531 3338 
Q 2531 4138 1738 4138 
Q 1369 4138 1141 3927 
Q 913 3716 913 3359 
L 334 3359 
Q 334 3881 720 4247 
Q 1106 4613 1738 4613 
Q 2353 4613 2733 4286 
Q 3113 3959 3113 3325 
Q 3113 3072 2942 2784 
Q 2772 2497 2397 2338 
Q 2850 2191 3015 1884 
Q 3181 1578 3181 1269 
Q 3181 631 2768 284 
Q 2356 -63 1741 -63 
Q 1147 -63 722 267 
Q 297 597 297 1203 
L 875 1203 
Q 875 844 1108 628 
Q 1341 413 1741 413 
Q 2138 413 2369 622 
Q 2600 831 2600 1256 
Q 2600 1681 2337 1882 
Q 2075 2084 1634 2084 
L 1222 2084 
z
" transform="scale(0.015625)"/>
       </defs>
       <use xlink:href="#Roboto-Regular-33"/>
      </g>
     </g>
    </g>
    <g id="xtick_4">
     <g id="line2d_6">
      <g>
       <use xlink:href="#m60ba756ba7" x="286.7336" y="298.6" style="fill: #c2c1c1; stroke: #c2c1c1; stroke-width: 0.8"/>
      </g>
     </g>
     <g id="text_4">
      <!-- 4 -->
      <g style="fill: #191919" transform="translate(283.923444 313.1) scale(0.1 -0.1)">
       <defs>
        <path id="Roboto-Regular-34" d="M 166 1397 
L 2203 4550 
L 2819 4550 
L 2819 1531 
L 3453 1531 
L 3453 1056 
L 2819 1056 
L 2819 0 
L 2241 0 
L 2241 1056 
L 166 1056 
L 166 1397 
z
M 822 1531 
L 2241 1531 
L 2241 3766 
L 2169 3638 
L 822 1531 
z
" transform="scale(0.015625)"/>
       </defs>
       <use xlink:href="#Roboto-Regular-34"/>
      </g>
     </g>
    </g>
    <g id="xtick_5">
     <g id="line2d_7">
      <g>
       <use xlink:href="#m60ba756ba7" x="365.8828" y="298.6" style="fill: #c2c1c1; stroke: #c2c1c1; stroke-width: 0.8"/>
      </g>
     </g>
     <g id="text_5">
      <!-- 5 -->
      <g style="fill: #191919" transform="translate(363.072644 313.1) scale(0.1 -0.1)">
       <defs>
        <path id="Roboto-Regular-35" d="M 1109 2166 
L 647 2284 
L 875 4550 
L 3209 4550 
L 3209 4016 
L 1366 4016 
L 1228 2778 
Q 1572 2975 1988 2975 
Q 2616 2975 2980 2561 
Q 3344 2147 3344 1450 
Q 3344 797 2987 367 
Q 2631 -63 1903 -63 
Q 1350 -63 947 248 
Q 544 559 481 1197 
L 1031 1197 
Q 1141 413 1903 413 
Q 2313 413 2538 691 
Q 2763 969 2763 1444 
Q 2763 1872 2527 2164 
Q 2291 2456 1853 2456 
Q 1563 2456 1413 2378 
Q 1263 2300 1109 2166 
z
" transform="scale(0.015625)"/>
       </defs>
       <use xlink:href="#Roboto-Regular-35"/>
      </g>
     </g>
    </g>
    <g id="xtick_6">
     <g id="line2d_8">
      <g>
       <use xlink:href="#m60ba756ba7" x="445.032" y="298.6" style="fill: #c2c1c1; stroke: #c2c1c1; stroke-width: 0.8"/>
      </g>
     </g>
     <g id="text_6">
      <!-- 6 -->
      <g style="fill: #191919" transform="translate(442.221844 313.1) scale(0.1 -0.1)">
       <defs>
        <path id="Roboto-Regular-36" d="M 3291 1484 
Q 3291 838 2930 387 
Q 2569 -63 1878 -63 
Q 1388 -63 1063 198 
Q 738 459 577 861 
Q 416 1263 416 1684 
L 416 1956 
Q 416 2597 595 3194 
Q 775 3791 1247 4173 
Q 1719 4556 2597 4556 
L 2647 4556 
L 2647 4066 
Q 2041 4066 1705 3853 
Q 1369 3641 1205 3302 
Q 1041 2963 1006 2575 
Q 1369 2984 1984 2984 
Q 2438 2984 2727 2765 
Q 3016 2547 3153 2201 
Q 3291 1856 3291 1484 
z
M 997 1666 
Q 997 1059 1267 737 
Q 1538 416 1878 416 
Q 2278 416 2498 708 
Q 2719 1000 2719 1456 
Q 2719 1863 2516 2184 
Q 2313 2506 1891 2506 
Q 1588 2506 1341 2325 
Q 1094 2144 997 1884 
L 997 1666 
z
" transform="scale(0.015625)"/>
       </defs>
       <use xlink:href="#Roboto-Regular-36"/>
      </g>
     </g>
    </g>
    <g id="text_7">
     <!-- His148 HD1 - Asn146 O Distance [Å] -->
     <g style="fill: #191919" transform="translate(149.129313 330.049375) scale(0.12 -0.12)">
      <defs>
       <path id="Roboto-Bold-48" d="M 3175 0 
L 3175 1950 
L 1347 1950 
L 1347 0 
L 406 0 
L 406 4550 
L 1347 4550 
L 1347 2706 
L 3175 2706 
L 3175 4550 
L 4113 4550 
L 4113 0 
L 3175 0 
z
" transform="scale(0.015625)"/>
       <path id="Roboto-Bold-69" d="M 341 4256 
Q 341 4459 478 4592 
Q 616 4725 847 4725 
Q 1078 4725 1215 4592 
Q 1353 4459 1353 4256 
Q 1353 4056 1215 3923 
Q 1078 3791 847 3791 
Q 616 3791 478 3923 
Q 341 4056 341 4256 
z
M 1303 3381 
L 1303 0 
L 397 0 
L 397 3381 
L 1303 3381 
z
" transform="scale(0.015625)"/>
       <path id="Roboto-Bold-73" d="M 2178 938 
Q 2178 1081 2045 1179 
Q 1913 1278 1475 1372 
Q 953 1484 618 1721 
Q 284 1959 284 2394 
Q 284 2816 642 3130 
Q 1000 3444 1631 3444 
Q 2291 3444 2669 3134 
Q 3047 2825 3047 2353 
L 2144 2353 
Q 2144 2547 2019 2675 
Q 1894 2803 1628 2803 
Q 1403 2803 1276 2698 
Q 1150 2594 1150 2438 
Q 1150 2294 1284 2200 
Q 1419 2106 1781 2034 
Q 2331 1925 2693 1700 
Q 3056 1475 3056 972 
Q 3056 525 2672 231 
Q 2288 -63 1634 -63 
Q 925 -63 550 301 
Q 175 666 175 1078 
L 1034 1078 
Q 1047 813 1230 697 
Q 1413 581 1653 581 
Q 2178 581 2178 938 
z
" transform="scale(0.015625)"/>
       <path id="Roboto-Bold-31" d="M 2503 4556 
L 2503 0 
L 1600 0 
L 1600 3484 
L 525 3150 
L 525 3881 
L 2406 4556 
L 2503 4556 
z
" transform="scale(0.015625)"/>
       <path id="Roboto-Bold-34" d="M 175 1553 
L 2072 4550 
L 2984 4550 
L 2984 1713 
L 3500 1713 
L 3500 984 
L 2984 984 
L 2984 0 
L 2081 0 
L 2081 984 
L 216 984 
L 175 1553 
z
M 1072 1713 
L 2081 1713 
L 2081 3328 
L 2019 3219 
L 1072 1713 
z
" transform="scale(0.015625)"/>
       <path id="Roboto-Bold-38" d="M 3369 1247 
Q 3369 603 2933 270 
Q 2497 -63 1837 -63 
Q 1178 -63 736 270 
Q 294 603 294 1247 
Q 294 1625 489 1908 
Q 684 2191 1013 2347 
Q 725 2497 559 2755 
Q 394 3013 394 3341 
Q 394 3959 800 4287 
Q 1206 4616 1831 4616 
Q 2466 4616 2870 4287 
Q 3275 3959 3275 3341 
Q 3275 3009 3108 2753 
Q 2941 2497 2653 2344 
Q 2981 2188 3175 1906 
Q 3369 1625 3369 1247 
z
M 2372 3297 
Q 2372 3563 2230 3725 
Q 2088 3888 1831 3888 
Q 1581 3888 1439 3730 
Q 1297 3572 1297 3297 
Q 1297 3028 1439 2862 
Q 1581 2697 1837 2697 
Q 2094 2697 2233 2862 
Q 2372 3028 2372 3297 
z
M 2466 1313 
Q 2466 1619 2291 1794 
Q 2116 1969 1831 1969 
Q 1547 1969 1373 1794 
Q 1200 1619 1200 1313 
Q 1200 1009 1373 837 
Q 1547 666 1838 666 
Q 2125 666 2295 837 
Q 2466 1009 2466 1313 
z
" transform="scale(0.015625)"/>
       <path id="Roboto-Bold-20" transform="scale(0.015625)"/>
       <path id="Roboto-Bold-44" d="M 406 0 
L 406 4550 
L 1809 4550 
Q 2728 4550 3308 3950 
Q 3888 3350 3888 2375 
L 3888 2172 
Q 3888 1197 3308 598 
Q 2728 0 1797 0 
L 406 0 
z
M 1347 3791 
L 1347 756 
L 1797 756 
Q 2350 756 2639 1115 
Q 2928 1475 2934 2144 
L 2934 2381 
Q 2934 3075 2661 3428 
Q 2388 3781 1838 3791 
L 1347 3791 
z
" transform="scale(0.015625)"/>
       <path id="Roboto-Bold-2d" d="M 2103 2316 
L 2103 1584 
L 347 1584 
L 347 2316 
L 2103 2316 
z
" transform="scale(0.015625)"/>
       <path id="Roboto-Bold-41" d="M 25 0 
L 1719 4550 
L 2588 4550 
L 4291 0 
L 3291 0 
L 2978 938 
L 1331 938 
L 1019 0 
L 25 0 
z
M 1584 1697 
L 2725 1697 
L 2156 3406 
L 1584 1697 
z
" transform="scale(0.015625)"/>
       <path id="Roboto-Bold-6e" d="M 1806 2713 
Q 1422 2713 1234 2388 
L 1234 0 
L 331 0 
L 331 3381 
L 1178 3381 
L 1209 2994 
Q 1572 3444 2181 3444 
Q 2659 3444 2953 3159 
Q 3247 2875 3250 2169 
L 3250 0 
L 2344 0 
L 2344 2156 
Q 2344 2481 2205 2597 
Q 2066 2713 1806 2713 
z
" transform="scale(0.015625)"/>
       <path id="Roboto-Bold-36" d="M 3450 1500 
Q 3450 838 3033 387 
Q 2616 -63 1916 -63 
Q 1188 -63 752 443 
Q 316 950 316 1750 
L 316 2097 
Q 316 3200 925 3898 
Q 1534 4597 2634 4597 
L 2763 4597 
L 2763 3853 
L 2672 3853 
Q 2050 3844 1688 3538 
Q 1313 3219 1238 2675 
Q 1603 3047 2156 3047 
Q 2800 3047 3125 2589 
Q 3450 2131 3450 1500 
z
M 1219 1631 
Q 1219 1150 1408 909 
Q 1597 669 1900 669 
Q 2194 669 2370 901 
Q 2547 1134 2547 1491 
Q 2547 1853 2370 2087 
Q 2194 2322 1881 2322 
Q 1641 2322 1469 2198 
Q 1297 2075 1219 1903 
L 1219 1631 
z
" transform="scale(0.015625)"/>
       <path id="Roboto-Bold-4f" d="M 4147 2172 
Q 4147 1131 3608 534 
Q 3069 -63 2212 -63 
Q 1356 -63 812 534 
Q 269 1131 269 2172 
L 269 2375 
Q 269 3416 809 4014 
Q 1350 4613 2206 4613 
Q 3063 4613 3605 4014 
Q 4147 3416 4147 2375 
L 4147 2172 
z
M 3197 2381 
Q 3197 3094 2937 3466 
Q 2678 3838 2206 3838 
Q 1734 3838 1478 3470 
Q 1222 3103 1219 2397 
L 1219 2172 
Q 1219 1463 1478 1086 
Q 1738 709 2213 709 
Q 2684 709 2939 1081 
Q 3194 1453 3197 2156 
L 3197 2381 
z
" transform="scale(0.015625)"/>
       <path id="Roboto-Bold-74" d="M 2041 22 
Q 1788 -63 1497 -63 
Q 1053 -63 790 168 
Q 528 400 528 938 
L 528 2722 
L 31 2722 
L 31 3381 
L 528 3381 
L 528 4216 
L 1431 4216 
L 1431 3381 
L 2006 3381 
L 2006 2722 
L 1431 2722 
L 1431 1031 
Q 1431 819 1518 750 
Q 1606 681 1778 681 
Q 1916 681 2041 706 
L 2041 22 
z
" transform="scale(0.015625)"/>
       <path id="Roboto-Bold-61" d="M 2306 0 
Q 2250 119 2216 303 
Q 1888 -63 1363 -63 
Q 878 -63 547 223 
Q 216 509 216 950 
Q 216 1481 609 1773 
Q 1003 2066 1775 2066 
L 2178 2066 
L 2178 2263 
Q 2178 2497 2058 2636 
Q 1938 2775 1678 2775 
Q 1194 2775 1194 2369 
L 291 2369 
Q 291 2809 681 3126 
Q 1072 3444 1728 3444 
Q 2313 3444 2698 3147 
Q 3084 2850 3084 2256 
L 3084 750 
Q 3091 300 3219 53 
L 3219 0 
L 2306 0 
z
M 1559 628 
Q 1788 628 1948 729 
Q 2109 831 2178 953 
L 2178 1541 
L 1809 1541 
Q 1450 1541 1284 1389 
Q 1119 1238 1119 1016 
Q 1119 847 1236 737 
Q 1353 628 1559 628 
z
" transform="scale(0.015625)"/>
       <path id="Roboto-Bold-63" d="M 1753 666 
Q 2000 666 2159 802 
Q 2319 938 2322 1169 
L 3172 1169 
Q 3166 631 2761 284 
Q 2356 -63 1769 -63 
Q 984 -63 595 432 
Q 206 928 206 1647 
L 206 1734 
Q 206 2450 593 2947 
Q 981 3444 1766 3444 
Q 2388 3444 2777 3087 
Q 3166 2731 3172 2122 
L 2322 2122 
Q 2319 2369 2172 2542 
Q 2025 2716 1750 2716 
Q 1356 2716 1234 2420 
Q 1113 2125 1113 1647 
Q 1113 1256 1233 961 
Q 1353 666 1753 666 
z
" transform="scale(0.015625)"/>
       <path id="Roboto-Bold-65" d="M 3225 550 
Q 3063 319 2731 128 
Q 2400 -63 1906 -63 
Q 1119 -63 675 414 
Q 231 891 228 1566 
L 228 1697 
Q 228 2463 654 2953 
Q 1081 3444 1806 3444 
Q 2534 3444 2915 2987 
Q 3297 2531 3297 1781 
L 3297 1397 
L 1144 1397 
Q 1191 1069 1403 867 
Q 1616 666 1963 666 
Q 2478 666 2778 1044 
L 3225 550 
z
M 1800 2716 
Q 1513 2716 1356 2522 
Q 1200 2328 1153 2016 
L 2409 2016 
L 2409 2084 
Q 2403 2356 2258 2536 
Q 2113 2716 1800 2716 
z
" transform="scale(0.015625)"/>
       <path id="Roboto-Bold-5b" d="M 1728 5297 
L 1728 4600 
L 1281 4600 
L 1281 -366 
L 1728 -366 
L 1728 -1059 
L 375 -1059 
L 375 5297 
L 1728 5297 
z
" transform="scale(0.015625)"/>
       <path id="Roboto-Bold-c5" d="M 25 0 
L 1719 4550 
L 2588 4550 
L 4291 0 
L 3291 0 
L 2978 938 
L 1331 938 
L 1019 0 
L 25 0 
z
M 1584 1697 
L 2725 1697 
L 2156 3406 
L 1584 1697 
z
M 1471 5424 
Q 1471 5683 1668 5873 
Q 1865 6064 2168 6064 
Q 2468 6064 2666 5873 
Q 2865 5683 2865 5424 
Q 2865 5158 2666 4975 
Q 2468 4793 2168 4793 
Q 1865 4793 1668 4975 
Q 1471 5158 1471 5424 
z
M 1830 5423 
Q 1830 5286 1922 5187 
Q 2015 5089 2168 5089 
Q 2321 5089 2413 5187 
Q 2505 5286 2505 5423 
Q 2505 5561 2413 5662 
Q 2321 5764 2168 5764 
Q 2015 5764 1922 5662 
Q 1830 5561 1830 5423 
z
" transform="scale(0.015625)"/>
       <path id="Roboto-Bold-5d" d="M 41 4600 
L 41 5297 
L 1394 5297 
L 1394 -1059 
L 41 -1059 
L 41 -366 
L 491 -366 
L 491 4600 
L 41 4600 
z
" transform="scale(0.015625)"/>
      </defs>
      <use xlink:href="#Roboto-Bold-48"/>
      <use xlink:href="#Roboto-Bold-69" x="70.703125"/>
      <use xlink:href="#Roboto-Bold-73" x="97.216797"/>
      <use xlink:href="#Roboto-Bold-31" x="148.681641"/>
      <use xlink:href="#Roboto-Bold-34" x="206.054688"/>
      <use xlink:href="#Roboto-Bold-38" x="263.427734"/>
      <use xlink:href="#Roboto-Bold-20" x="320.800781"/>
      <use xlink:href="#Roboto-Bold-48" x="345.703125"/>
      <use xlink:href="#Roboto-Bold-44" x="416.40625"/>
      <use xlink:href="#Roboto-Bold-31" x="481.445312"/>
      <use xlink:href="#Roboto-Bold-20" x="538.818359"/>
      <use xlink:href="#Roboto-Bold-2d" x="563.720703"/>
      <use xlink:href="#Roboto-Bold-20" x="602.539062"/>
      <use xlink:href="#Roboto-Bold-41" x="627.441406"/>
      <use xlink:href="#Roboto-Bold-73" x="694.775391"/>
      <use xlink:href="#Roboto-Bold-6e" x="746.240234"/>
      <use xlink:href="#Roboto-Bold-31" x="802.246094"/>
      <use xlink:href="#Roboto-Bold-34" x="859.619141"/>
      <use xlink:href="#Roboto-Bold-36" x="916.992188"/>
      <use xlink:href="#Roboto-Bold-20" x="974.365234"/>
      <use xlink:href="#Roboto-Bold-4f" x="999.267578"/>
      <use xlink:href="#Roboto-Bold-20" x="1068.310547"/>
      <use xlink:href="#Roboto-Bold-44" x="1093.212891"/>
      <use xlink:href="#Roboto-Bold-69" x="1158.251953"/>
      <use xlink:href="#Roboto-Bold-73" x="1184.765625"/>
      <use xlink:href="#Roboto-Bold-74" x="1236.230469"/>
      <use xlink:href="#Roboto-Bold-61" x="1270.019531"/>
      <use xlink:href="#Roboto-Bold-6e" x="1323.632812"/>
      <use xlink:href="#Roboto-Bold-63" x="1379.638672"/>
      <use xlink:href="#Roboto-Bold-65" x="1431.835938"/>
      <use xlink:href="#Roboto-Bold-20" x="1485.888672"/>
      <use xlink:href="#Roboto-Bold-5b" x="1510.791016"/>
      <use xlink:href="#Roboto-Bold-c5" x="1538.623047"/>
      <use xlink:href="#Roboto-Bold-5d" x="1605.957031"/>
     </g>
    </g>
   </g>
   <g id="matplotlib.axis_2">
    <g id="ytick_1">
     <g id="line2d_9">
      <defs>
       <path id="mf41c434d94" d="M 0 0 
L -3.5 0 
" style="stroke: #c2c1c1; stroke-width: 0.8"/>
      </defs>
      <g>
       <use xlink:href="#mf41c434d94" x="49.286" y="298.6" style="fill: #c2c1c1; stroke: #c2c1c1; stroke-width: 0.8"/>
      </g>
     </g>
     <g id="text_8">
      <!-- 0.0 -->
      <g style="fill: #191919" transform="translate(28.407875 302.35) scale(0.1 -0.1)">
       <defs>
        <path id="Roboto-Regular-30" d="M 3234 1944 
Q 3234 825 2848 381 
Q 2463 -63 1800 -63 
Q 1156 -63 764 368 
Q 372 800 359 1872 
L 359 2638 
Q 359 3753 750 4183 
Q 1141 4613 1794 4613 
Q 2447 4613 2834 4195 
Q 3222 3778 3234 2709 
L 3234 1944 
z
M 2653 2734 
Q 2653 3503 2434 3822 
Q 2216 4141 1794 4141 
Q 1388 4141 1167 3831 
Q 947 3522 941 2778 
L 941 1850 
Q 941 1088 1164 750 
Q 1388 413 1800 413 
Q 2222 413 2436 745 
Q 2650 1078 2653 1825 
L 2653 2734 
z
" transform="scale(0.015625)"/>
        <path id="Roboto-Regular-2e" d="M 450 306 
Q 450 453 542 554 
Q 634 656 809 656 
Q 984 656 1076 554 
Q 1169 453 1169 306 
Q 1169 163 1076 62 
Q 984 -38 809 -38 
Q 634 -38 542 62 
Q 450 163 450 306 
z
" transform="scale(0.015625)"/>
       </defs>
       <use xlink:href="#Roboto-Regular-30"/>
       <use xlink:href="#Roboto-Regular-2e" x="56.201172"/>
       <use xlink:href="#Roboto-Regular-30" x="82.568359"/>
      </g>
     </g>
    </g>
    <g id="ytick_2">
     <g id="line2d_10">
      <g>
       <use xlink:href="#mf41c434d94" x="49.286" y="247.911677" style="fill: #c2c1c1; stroke: #c2c1c1; stroke-width: 0.8"/>
      </g>
     </g>
     <g id="text_9">
      <!-- 0.2 -->
      <g style="fill: #191919" transform="translate(28.407875 251.661677) scale(0.1 -0.1)">
       <use xlink:href="#Roboto-Regular-30"/>
       <use xlink:href="#Roboto-Regular-2e" x="56.201172"/>
       <use xlink:href="#Roboto-Regular-32" x="82.568359"/>
      </g>
     </g>
    </g>
    <g id="ytick_3">
     <g id="line2d_11">
      <g>
       <use xlink:href="#mf41c434d94" x="49.286" y="197.223353" style="fill: #c2c1c1; stroke: #c2c1c1; stroke-width: 0.8"/>
      </g>
     </g>
     <g id="text_10">
      <!-- 0.4 -->
      <g style="fill: #191919" transform="translate(28.407875 200.973353) scale(0.1 -0.1)">
       <use xlink:href="#Roboto-Regular-30"/>
       <use xlink:href="#Roboto-Regular-2e" x="56.201172"/>
       <use xlink:href="#Roboto-Regular-34" x="82.568359"/>
      </g>
     </g>
    </g>
    <g id="ytick_4">
     <g id="line2d_12">
      <g>
       <use xlink:href="#mf41c434d94" x="49.286" y="146.53503" style="fill: #c2c1c1; stroke: #c2c1c1; stroke-width: 0.8"/>
      </g>
     </g>
     <g id="text_11">
      <!-- 0.6 -->
      <g style="fill: #191919" transform="translate(28.407875 150.28503) scale(0.1 -0.1)">
       <use xlink:href="#Roboto-Regular-30"/>
       <use xlink:href="#Roboto-Regular-2e" x="56.201172"/>
       <use xlink:href="#Roboto-Regular-36" x="82.568359"/>
      </g>
     </g>
    </g>
    <g id="ytick_5">
     <g id="line2d_13">
      <g>
       <use xlink:href="#mf41c434d94" x="49.286" y="95.846707" style="fill: #c2c1c1; stroke: #c2c1c1; stroke-width: 0.8"/>
      </g>
     </g>
     <g id="text_12">
      <!-- 0.8 -->
      <g style="fill: #191919" transform="translate(28.407875 99.596707) scale(0.1 -0.1)">
       <defs>
        <path id="Roboto-Regular-38" d="M 3244 1231 
Q 3244 606 2826 271 
Q 2409 -63 1796 -63 
Q 1184 -63 767 271 
Q 350 606 350 1231 
Q 350 1613 554 1905 
Q 759 2197 1109 2347 
Q 806 2494 629 2762 
Q 453 3031 453 3366 
Q 453 3963 833 4288 
Q 1213 4613 1794 4613 
Q 2378 4613 2758 4288 
Q 3138 3963 3138 3366 
Q 3138 3028 2956 2761 
Q 2775 2494 2472 2347 
Q 2825 2197 3034 1903 
Q 3244 1609 3244 1231 
z
M 2559 3356 
Q 2559 3697 2346 3917 
Q 2134 4138 1793 4138 
Q 1453 4138 1243 3927 
Q 1034 3716 1034 3356 
Q 1034 3003 1243 2790 
Q 1453 2578 1797 2578 
Q 2138 2578 2348 2790 
Q 2559 3003 2559 3356 
z
M 2663 1244 
Q 2663 1625 2420 1865 
Q 2178 2106 1791 2106 
Q 1394 2106 1161 1865 
Q 928 1625 928 1244 
Q 928 850 1161 631 
Q 1394 413 1797 413 
Q 2200 413 2431 631 
Q 2663 850 2663 1244 
z
" transform="scale(0.015625)"/>
       </defs>
       <use xlink:href="#Roboto-Regular-30"/>
       <use xlink:href="#Roboto-Regular-2e" x="56.201172"/>
       <use xlink:href="#Roboto-Regular-38" x="82.568359"/>
      </g>
     </g>
    </g>
    <g id="ytick_6">
     <g id="line2d_14">
      <g>
       <use xlink:href="#mf41c434d94" x="49.286" y="45.158383" style="fill: #c2c1c1; stroke: #c2c1c1; stroke-width: 0.8"/>
      </g>
     </g>
     <g id="text_13">
      <!-- 1.0 -->
      <g style="fill: #191919" transform="translate(28.407875 48.908383) scale(0.1 -0.1)">
       <use xlink:href="#Roboto-Regular-31"/>
       <use xlink:href="#Roboto-Regular-2e" x="56.201172"/>
       <use xlink:href="#Roboto-Regular-30" x="82.568359"/>
      </g>
     </g>
    </g>
    <g id="text_14">
     <!-- Density -->
     <g style="fill: #191919" transform="translate(21.846625 176.0075) rotate(-90) scale(0.12 -0.12)">
      <defs>
       <path id="Roboto-Bold-79" d="M 769 -1366 
Q 594 -1366 369 -1306 
L 369 -622 
L 509 -625 
Q 775 -625 903 -539 
Q 1031 -453 1097 -266 
L 1197 -6 
L 13 3381 
L 984 3381 
L 1613 1275 
L 2238 3381 
L 3203 3381 
L 1850 -506 
Q 1791 -675 1675 -876 
Q 1559 -1078 1342 -1222 
Q 1125 -1366 769 -1366 
z
" transform="scale(0.015625)"/>
      </defs>
      <use xlink:href="#Roboto-Bold-44"/>
      <use xlink:href="#Roboto-Bold-65" x="65.039062"/>
      <use xlink:href="#Roboto-Bold-6e" x="119.091797"/>
      <use xlink:href="#Roboto-Bold-73" x="175.097656"/>
      <use xlink:href="#Roboto-Bold-69" x="226.5625"/>
      <use xlink:href="#Roboto-Bold-74" x="253.076172"/>
      <use xlink:href="#Roboto-Bold-79" x="286.865234"/>
     </g>
    </g>
   </g>
   <g id="line2d_15">
    <path d="M 49.286 298.6 
L 94.451228 298.536768 
L 96.035972 298.349232 
L 96.828345 298.144164 
L 97.620717 297.812599 
L 98.41309 297.302375 
L 99.205462 296.553891 
L 99.997834 295.502691 
L 100.790207 294.077305 
L 101.582579 292.189855 
L 102.374952 289.726839 
L 103.167324 286.557091 
L 103.959697 282.564832 
L 104.752069 277.686419 
L 105.544441 271.913747 
L 107.129186 257.712913 
L 108.713931 239.975328 
L 110.298676 219.162115 
L 111.883421 195.735836 
L 114.260538 156.292261 
L 116.637655 117.295968 
L 118.2224 93.771928 
L 119.807145 73.95756 
L 120.599517 66.070627 
L 121.39189 59.466816 
L 122.976634 48.642079 
L 124.561379 38.978005 
L 125.353752 34.717754 
L 126.146124 31.306857 
L 126.938497 28.978697 
L 127.730869 27.650306 
L 128.523241 26.989536 
L 129.315614 26.664885 
L 130.107986 26.561905 
L 130.900359 26.798852 
L 131.692731 27.561256 
L 132.485103 28.912184 
L 133.277476 30.732751 
L 134.862221 35.132975 
L 135.654593 37.731957 
L 136.446966 40.806094 
L 138.03171 48.42613 
L 140.408828 60.614228 
L 144.37069 80.077547 
L 146.747807 91.377753 
L 149.917297 104.904138 
L 151.502041 110.808041 
L 157.841021 132.281914 
L 159.425766 136.938229 
L 161.01051 140.791621 
L 161.802883 142.30996 
L 163.387628 144.633944 
L 164.972372 146.909976 
L 166.557117 149.904573 
L 168.141862 152.954236 
L 168.934234 154.14216 
L 169.726607 155.062411 
L 173.688469 158.834315 
L 176.857959 163.205996 
L 177.650331 163.934873 
L 178.442703 164.454626 
L 179.235076 164.821401 
L 180.027448 165.062298 
L 183.196938 165.597664 
L 184.781683 166.360971 
L 185.574055 166.549197 
L 187.1588 166.470105 
L 187.951172 166.688157 
L 188.743545 167.407163 
L 191.120662 171.095028 
L 191.913034 171.753848 
L 192.705407 171.931866 
L 194.290152 171.796477 
L 195.082524 171.987313 
L 195.874897 172.488054 
L 196.667269 173.257857 
L 197.459641 174.240971 
L 198.252014 175.432757 
L 199.044386 176.870236 
L 200.629131 180.487146 
L 203.006248 186.422363 
L 207.760483 196.841587 
L 209.345228 200.118256 
L 210.929972 202.947205 
L 212.514717 205.651755 
L 213.30709 207.361987 
L 214.099462 209.498781 
L 216.476579 216.98784 
L 217.268952 219.004023 
L 218.853697 222.117462 
L 219.646069 223.651042 
L 220.438441 225.451838 
L 222.023186 230.001771 
L 224.400303 237.272033 
L 225.192676 239.159937 
L 225.985048 240.650627 
L 229.154538 245.441449 
L 230.739283 248.874537 
L 233.1164 254.528796 
L 234.701145 257.779872 
L 237.870634 263.422387 
L 239.455379 265.981408 
L 241.040124 268.138254 
L 248.963848 277.378327 
L 251.340966 279.492125 
L 252.92571 280.742206 
L 256.887572 283.481979 
L 260.057062 286.154455 
L 261.641807 287.029437 
L 271.942648 291.310259 
L 275.112138 292.102206 
L 279.074 292.995088 
L 283.828234 294.48516 
L 286.205352 294.879084 
L 291.751959 295.373136 
L 293.336703 295.450291 
L 294.921448 295.758962 
L 297.298566 296.328754 
L 299.675683 296.567316 
L 306.807034 297.000659 
L 309.976524 297.411981 
L 312.353641 297.447658 
L 316.315503 297.424239 
L 319.484993 297.58079 
L 323.446855 297.91389 
L 331.370579 298.114803 
L 338.501931 298.182449 
L 340.879048 298.385339 
L 346.425655 298.426889 
L 354.349379 298.489291 
L 357.518869 298.573638 
L 393.968 298.6 
L 461.8 298.6 
L 461.8 298.6 
" clip-path="url(#p58cbe47af4)" style="fill: none; stroke: #f99752; stroke-width: 2.5; stroke-linecap: square"/>
   </g>
   <g id="patch_3">
    <path d="M 49.286 298.6 
L 49.286 12.96 
" style="fill: none; stroke: #c2c1c1; stroke-width: 0.8; stroke-linejoin: miter; stroke-linecap: square"/>
   </g>
   <g id="patch_4">
    <path d="M 445.032 298.6 
L 445.032 12.96 
" style="fill: none; stroke: #c2c1c1; stroke-width: 0.8; stroke-linejoin: miter; stroke-linecap: square"/>
   </g>
   <g id="patch_5">
    <path d="M 49.286 298.6 
L 445.032 298.6 
" style="fill: none; stroke: #c2c1c1; stroke-width: 0.8; stroke-linejoin: miter; stroke-linecap: square"/>
   </g>
   <g id="patch_6">
    <path d="M 49.286 12.96 
L 445.032 12.96 
" style="fill: none; stroke: #c2c1c1; stroke-width: 0.8; stroke-linejoin: miter; stroke-linecap: square"/>
   </g>
   <g id="legend_1">
    <g id="line2d_16">
     <path d="M 354.0795 28.56 
L 366.0795 28.56 
L 378.0795 28.56 
" style="fill: none; stroke: #1e2e79; stroke-width: 2.5; stroke-linecap: square"/>
    </g>
    <g id="text_15">
     <!-- Reduced -->
     <g transform="translate(387.6795 32.76) scale(0.12 -0.12)">
      <defs>
       <path id="Roboto-Regular-52" d="M 3188 0 
L 2200 1844 
L 1131 1844 
L 1131 0 
L 528 0 
L 528 4550 
L 2034 4550 
Q 2800 4550 3214 4200 
Q 3628 3850 3628 3184 
Q 3628 2759 3398 2442 
Q 3169 2125 2763 1969 
L 3831 38 
L 3831 0 
L 3188 0 
z
M 1131 4056 
L 1131 2334 
L 2053 2334 
Q 2538 2334 2783 2582 
Q 3028 2831 3028 3184 
Q 3028 3578 2792 3817 
Q 2556 4056 2034 4056 
L 1131 4056 
z
" transform="scale(0.015625)"/>
       <path id="Roboto-Regular-65" d="M 3116 591 
Q 2950 341 2647 139 
Q 2344 -63 1844 -63 
Q 1138 -63 714 396 
Q 291 856 291 1572 
L 291 1703 
Q 291 2256 502 2645 
Q 713 3034 1050 3239 
Q 1388 3444 1769 3444 
Q 2494 3444 2826 2970 
Q 3159 2497 3159 1788 
L 3159 1528 
L 872 1528 
Q 884 1063 1148 736 
Q 1413 409 1875 409 
Q 2181 409 2393 534 
Q 2606 659 2766 869 
L 3116 591 
z
M 1769 2969 
Q 1425 2969 1187 2719 
Q 950 2469 891 2000 
L 2581 2000 
L 2581 2044 
Q 2559 2381 2386 2675 
Q 2213 2969 1769 2969 
z
" transform="scale(0.015625)"/>
       <path id="Roboto-Regular-64" d="M 2622 0 
L 2594 363 
Q 2247 -63 1628 -63 
Q 1034 -63 668 418 
Q 303 900 297 1628 
L 297 1719 
Q 297 2494 664 2969 
Q 1031 3444 1634 3444 
Q 2231 3444 2572 3044 
L 2572 4800 
L 3153 4800 
L 3153 0 
L 2622 0 
z
M 878 1653 
Q 878 1150 1090 789 
Q 1303 428 1772 428 
Q 2309 428 2572 919 
L 2572 2475 
Q 2313 2956 1778 2956 
Q 1306 2956 1092 2589 
Q 878 2222 878 1719 
L 878 1653 
z
" transform="scale(0.015625)"/>
       <path id="Roboto-Regular-75" d="M 2538 0 
L 2525 334 
Q 2194 -63 1538 -63 
Q 1041 -63 734 231 
Q 428 525 428 1200 
L 428 3381 
L 1006 3381 
L 1006 1194 
Q 1006 738 1198 583 
Q 1391 428 1628 428 
Q 2281 428 2509 919 
L 2509 3381 
L 3091 3381 
L 3091 0 
L 2538 0 
z
" transform="scale(0.015625)"/>
       <path id="Roboto-Regular-63" d="M 1794 413 
Q 2103 413 2336 597 
Q 2569 781 2591 1069 
L 3141 1069 
Q 3119 616 2725 276 
Q 2331 -63 1794 -63 
Q 1031 -63 661 440 
Q 291 944 291 1625 
L 291 1756 
Q 291 2438 661 2941 
Q 1031 3444 1794 3444 
Q 2388 3444 2753 3092 
Q 3119 2741 3141 2219 
L 2591 2219 
Q 2569 2531 2355 2750 
Q 2141 2969 1794 2969 
Q 1438 2969 1236 2787 
Q 1034 2606 951 2328 
Q 869 2050 869 1756 
L 869 1625 
Q 869 1328 950 1050 
Q 1031 772 1232 592 
Q 1434 413 1794 413 
z
" transform="scale(0.015625)"/>
      </defs>
      <use xlink:href="#Roboto-Regular-52"/>
      <use xlink:href="#Roboto-Regular-65" x="61.621094"/>
      <use xlink:href="#Roboto-Regular-64" x="114.648438"/>
      <use xlink:href="#Roboto-Regular-75" x="171.044922"/>
      <use xlink:href="#Roboto-Regular-63" x="226.171875"/>
      <use xlink:href="#Roboto-Regular-65" x="278.515625"/>
      <use xlink:href="#Roboto-Regular-64" x="331.542969"/>
     </g>
    </g>
    <g id="line2d_17">
     <path d="M 354.0795 45.9975 
L 366.0795 45.9975 
L 378.0795 45.9975 
" style="fill: none; stroke: #ec4067; stroke-width: 2.5; stroke-linecap: square"/>
    </g>
    <g id="text_16">
     <!-- Oxidized -->
     <g transform="translate(387.6795 50.1975) scale(0.12 -0.12)">
      <defs>
       <path id="Roboto-Regular-4f" d="M 4031 2131 
Q 4031 1106 3534 521 
Q 3038 -63 2206 -63 
Q 1397 -63 884 521 
Q 372 1106 372 2131 
L 372 2419 
Q 372 3441 881 4027 
Q 1391 4613 2200 4613 
Q 3025 4613 3523 4036 
Q 4022 3459 4031 2456 
L 4031 2131 
z
M 3434 2425 
Q 3434 3238 3109 3669 
Q 2784 4100 2200 4100 
Q 1641 4100 1305 3669 
Q 969 3238 969 2425 
L 969 2131 
Q 969 1313 1308 880 
Q 1647 447 2206 447 
Q 2794 447 3114 880 
Q 3434 1313 3434 2131 
L 3434 2425 
z
" transform="scale(0.015625)"/>
       <path id="Roboto-Regular-78" d="M 831 3381 
L 1572 2150 
L 2322 3381 
L 3000 3381 
L 1894 1713 
L 3034 0 
L 2366 0 
L 1584 1269 
L 803 0 
L 131 0 
L 1269 1713 
L 166 3381 
L 831 3381 
z
" transform="scale(0.015625)"/>
       <path id="Roboto-Regular-69" d="M 444 4278 
Q 444 4419 530 4516 
Q 616 4613 784 4613 
Q 950 4613 1039 4516 
Q 1128 4419 1128 4278 
Q 1128 4144 1039 4048 
Q 950 3953 784 3953 
Q 616 3953 530 4048 
Q 444 4144 444 4278 
z
M 1069 3381 
L 1069 0 
L 488 0 
L 488 3381 
L 1069 3381 
z
" transform="scale(0.015625)"/>
       <path id="Roboto-Regular-7a" d="M 303 2903 
L 303 3381 
L 2869 3381 
L 2869 2972 
L 988 475 
L 2959 475 
L 2959 0 
L 278 0 
L 278 425 
L 2141 2903 
L 303 2903 
z
" transform="scale(0.015625)"/>
      </defs>
      <use xlink:href="#Roboto-Regular-4f"/>
      <use xlink:href="#Roboto-Regular-78" x="68.798828"/>
      <use xlink:href="#Roboto-Regular-69" x="118.408203"/>
      <use xlink:href="#Roboto-Regular-64" x="142.724609"/>
      <use xlink:href="#Roboto-Regular-69" x="199.121094"/>
      <use xlink:href="#Roboto-Regular-7a" x="223.4375"/>
      <use xlink:href="#Roboto-Regular-65" x="273.046875"/>
      <use xlink:href="#Roboto-Regular-64" x="326.074219"/>
     </g>
    </g>
    <g id="line2d_18">
     <path d="M 354.0795 64.06125 
L 366.0795 64.06125 
L 378.0795 64.06125 
" style="fill: none; stroke: #f99752; stroke-width: 2.5; stroke-linecap: square"/>
    </g>
    <g id="text_17">
     <!-- Cu(I) -->
     <g transform="translate(387.6795 68.26125) scale(0.12 -0.12)">
      <defs>
       <path id="Roboto-Regular-43" d="M 3275 1447 
L 3875 1447 
Q 3806 800 3387 368 
Q 2969 -63 2150 -63 
Q 1356 -63 870 504 
Q 384 1072 375 2013 
L 375 2500 
Q 375 3456 867 4034 
Q 1359 4613 2203 4613 
Q 2975 4613 3390 4188 
Q 3806 3763 3875 3091 
L 3275 3091 
Q 3206 3566 2968 3842 
Q 2731 4119 2203 4119 
Q 1600 4119 1287 3675 
Q 975 3231 975 2506 
L 975 2047 
Q 975 1375 1259 901 
Q 1544 428 2150 428 
Q 2725 428 2961 697 
Q 3197 966 3275 1447 
z
" transform="scale(0.015625)"/>
       <path id="Roboto-Regular-28" d="M 419 1850 
Q 419 2756 678 3434 
Q 938 4113 1294 4541 
Q 1650 4969 1947 5134 
L 2069 4753 
Q 1700 4475 1348 3761 
Q 997 3047 997 1813 
Q 997 625 1348 -97 
Q 1700 -819 2069 -1119 
L 1947 -1469 
Q 1650 -1306 1294 -878 
Q 938 -450 678 226 
Q 419 903 419 1850 
z
" transform="scale(0.015625)"/>
       <path id="Roboto-Regular-49" d="M 1175 4550 
L 1175 0 
L 572 0 
L 572 4550 
L 1175 4550 
z
" transform="scale(0.015625)"/>
       <path id="Roboto-Regular-29" d="M 1772 1819 
Q 1772 906 1512 228 
Q 1253 -450 895 -878 
Q 538 -1306 244 -1469 
L 122 -1119 
Q 488 -841 841 -109 
Q 1194 622 1194 1856 
Q 1194 2647 1019 3236 
Q 844 3825 594 4212 
Q 344 4600 122 4781 
L 244 5134 
Q 538 4969 895 4541 
Q 1253 4113 1512 3436 
Q 1772 2759 1772 1819 
z
" transform="scale(0.015625)"/>
      </defs>
      <use xlink:href="#Roboto-Regular-43"/>
      <use xlink:href="#Roboto-Regular-75" x="65.087891"/>
      <use xlink:href="#Roboto-Regular-28" x="120.214844"/>
      <use xlink:href="#Roboto-Regular-49" x="154.443359"/>
      <use xlink:href="#Roboto-Regular-29" x="181.640625"/>
     </g>
    </g>
   </g>
  </g>
 </g>
 <defs>
  <clipPath id="p58cbe47af4">
   <rect x="49.286" y="12.96" width="395.746" height="285.64"/>
  </clipPath>
 </defs>
</svg>
