<?xml version="1.0" encoding="utf-8" standalone="no"?>
<!DOCTYPE svg PUBLIC "-//W3C//DTD SVG 1.1//EN"
  "http://www.w3.org/Graphics/SVG/1.1/DTD/svg11.dtd">
<svg xmlns:xlink="http://www.w3.org/1999/xlink" width="460.8pt" height="345.6pt" viewBox="0 0 460.8 345.6" xmlns="http://www.w3.org/2000/svg" version="1.1">
 <metadata>
  <rdf:RDF xmlns:dc="http://purl.org/dc/elements/1.1/" xmlns:cc="http://creativecommons.org/ns#" xmlns:rdf="http://www.w3.org/1999/02/22-rdf-syntax-ns#">
   <cc:Work>
    <dc:type rdf:resource="http://purl.org/dc/dcmitype/StillImage"/>
    <dc:date>2024-07-13T22:45:19.160470</dc:date>
    <dc:format>image/svg+xml</dc:format>
    <dc:creator>
     <cc:Agent>
      <dc:title>Matplotlib v3.9.1, https://matplotlib.org/</dc:title>
     </cc:Agent>
    </dc:creator>
   </cc:Work>
  </rdf:RDF>
 </metadata>
 <defs>
  <style type="text/css">*{stroke-linejoin: round; stroke-linecap: butt}</style>
 </defs>
 <g id="figure_1">
  <g id="patch_1">
   <path d="M 0 345.6 
L 460.8 345.6 
L 460.8 0 
L 0 0 
z
" style="fill: #ffffff"/>
  </g>
  <g id="axes_1">
   <g id="patch_2">
    <path d="M 47.243 300.112 
L 447.84 300.112 
L 447.84 16.74 
L 47.243 16.74 
z
" style="fill: #ffffff"/>
   </g>
   <g id="line2d_1">
    <path d="M 47.243 268.626222 
L 447.84 268.626222 
" clip-path="url(#p33fd95afdb)" style="fill: none; stroke-dasharray: 1.75,2.8875; stroke-dashoffset: 0; stroke: #c0c0c0; stroke-width: 1.75"/>
   </g>
   <g id="line2d_2">
    <path d="M 47.243 143.648013 
L 48.357317 145.077011 
L 48.914476 146.256584 
L 50.585951 152.585135 
L 51.14311 153.708676 
L 52.257427 154.840096 
L 54.486061 158.410673 
L 55.04322 159.832849 
L 56.714695 165.821306 
L 58.386171 171.748674 
L 58.94333 173.071202 
L 59.500488 173.799735 
L 60.057647 174.080747 
L 61.171964 174.240982 
L 61.729122 174.214849 
L 62.286281 173.976803 
L 63.400598 173.267952 
L 63.957757 173.190346 
L 65.629232 173.517658 
L 67.300708 174.436445 
L 67.857866 174.23595 
L 70.086501 172.138171 
L 70.643659 171.553747 
L 71.200818 170.76176 
L 71.757976 169.678275 
L 73.986611 164.412818 
L 74.543769 164.076455 
L 75.100928 164.410577 
L 76.215245 165.6578 
L 76.772403 165.578408 
L 77.329562 164.718233 
L 78.443879 161.948507 
L 79.001038 160.9549 
L 80.115355 159.519036 
L 80.672513 158.390822 
L 81.78683 155.77066 
L 82.343989 155.005412 
L 83.458306 153.993026 
L 84.572623 152.106358 
L 85.129782 150.984257 
L 85.68694 149.544231 
L 86.244099 147.440485 
L 87.358416 141.924469 
L 87.915574 140.274815 
L 88.472733 140.182494 
L 89.58705 141.647233 
L 90.144209 141.820075 
L 91.815684 141.290851 
L 92.372843 140.913516 
L 92.930001 140.798235 
L 93.48716 141.688314 
L 94.044318 143.343078 
L 94.601477 144.519694 
L 95.158636 144.284841 
L 95.715794 142.623277 
L 96.272953 140.299028 
L 96.830111 138.521152 
L 97.38727 138.298697 
L 97.944428 139.534907 
L 98.501587 141.07175 
L 99.058745 141.809235 
L 99.615904 141.381431 
L 100.173063 140.056775 
L 101.28738 136.971727 
L 101.844538 136.358864 
L 102.401697 136.784711 
L 103.516014 138.922351 
L 104.073172 139.376854 
L 104.630331 139.220725 
L 105.18749 138.851148 
L 105.744648 138.707325 
L 106.301807 138.911767 
L 107.416124 139.611511 
L 107.973282 139.576649 
L 108.530441 138.953234 
L 109.087599 137.648818 
L 110.201917 133.438009 
L 110.759075 131.141998 
L 111.316234 129.382966 
L 111.873392 128.660196 
L 112.430551 129.441252 
L 112.987709 131.932025 
L 114.102026 138.771233 
L 114.659185 141.197044 
L 115.216344 142.812608 
L 116.887819 146.438077 
L 119.116453 150.676523 
L 120.230771 152.480321 
L 121.345088 154.604411 
L 121.902246 155.180867 
L 122.459405 154.897131 
L 123.016563 153.725912 
L 123.573722 152.204543 
L 124.13088 151.330198 
L 124.688039 151.753583 
L 125.802356 153.952039 
L 126.359515 154.069807 
L 127.473832 153.061772 
L 128.03099 153.06544 
L 128.588149 153.284991 
L 129.145307 153.081288 
L 129.702466 152.117456 
L 130.816783 148.874524 
L 131.9311 145.02692 
L 132.488259 142.933528 
L 133.045417 141.472692 
L 133.602576 141.121558 
L 134.159734 141.456438 
L 134.716893 141.465511 
L 135.274051 140.2327 
L 135.83121 137.267131 
L 136.945527 127.76238 
L 137.502686 124.719336 
L 138.059844 125.068394 
L 139.174161 130.113479 
L 139.73132 131.635777 
L 140.288478 131.742853 
L 140.845637 130.353138 
L 141.402796 127.557212 
L 142.517113 119.0113 
L 143.63143 109.702945 
L 144.188588 106.301596 
L 144.745747 105.060235 
L 145.302905 105.933007 
L 145.860064 107.112357 
L 146.417223 106.733815 
L 146.974381 103.887552 
L 147.53154 98.393791 
L 148.645857 82.914763 
L 149.203015 79.380747 
L 149.760174 81.137472 
L 150.317332 83.398368 
L 150.874491 82.653528 
L 151.43165 77.81474 
L 152.545967 59.604489 
L 153.103125 58.786163 
L 154.217442 76.865667 
L 154.774601 82.133696 
L 155.331759 82.940522 
L 155.888918 79.194912 
L 156.446076 70.891346 
L 157.003235 58.118846 
L 157.560394 42.017954 
L 158.117552 32.151132 
L 158.674711 42.804361 
L 159.231869 58.835979 
L 159.789028 71.39919 
L 160.346186 79.481697 
L 160.903345 83.003428 
L 161.460503 81.958279 
L 162.017662 76.345786 
L 162.574821 66.165914 
L 163.131979 51.41866 
L 163.689138 32.104024 
L 164.426902 -1 
M 207.483148 -1 
L 208.261822 39.243953 
L 209.376139 82.137546 
L 209.933298 97.70464 
L 210.490456 109.720626 
L 211.047615 118.737705 
L 212.161932 131.450621 
L 214.390566 153.089381 
L 215.504883 161.876693 
L 216.6192 168.75036 
L 218.847834 181.528937 
L 221.633627 198.721163 
L 224.976579 216.53311 
L 230.548164 241.702165 
L 232.21964 247.457795 
L 234.448274 254.048761 
L 236.11975 258.262579 
L 237.791225 261.770232 
L 238.905542 263.672655 
L 240.01986 265.273839 
L 241.134177 266.590984 
L 242.248494 267.600013 
L 243.362811 268.29444 
L 244.477128 268.62596 
L 245.591445 268.616826 
L 246.705762 268.313129 
L 247.820079 267.713299 
L 248.934396 266.730176 
L 250.048713 265.346632 
L 251.163031 263.673592 
L 252.277348 261.704872 
L 253.948823 258.152934 
L 255.06314 255.383363 
L 256.734616 250.50709 
L 258.406092 245.094869 
L 260.077567 238.879875 
L 262.86336 227.334896 
L 265.091994 216.922501 
L 268.434946 199.806735 
L 269.549263 192.995672 
L 272.335056 175.002389 
L 274.006531 165.018958 
L 275.120848 158.319454 
L 276.792324 149.698607 
L 277.906641 142.066217 
L 279.020958 134.84875 
L 280.135275 130.455386 
L 281.249592 127.256248 
L 282.36391 125.178808 
L 282.921068 124.574463 
L 283.478227 124.776212 
L 284.592544 126.584727 
L 285.149702 126.278398 
L 285.706861 124.593734 
L 286.264019 122.400288 
L 286.821178 121.572326 
L 287.378337 123.324869 
L 288.492654 129.148 
L 289.049812 130.276412 
L 289.606971 129.910743 
L 290.164129 128.583983 
L 291.278446 125.55661 
L 291.835605 124.840395 
L 292.392764 125.015664 
L 292.949922 125.950913 
L 293.507081 127.182361 
L 294.064239 128.057381 
L 294.621398 127.90763 
L 295.178556 126.307428 
L 296.292873 120.317187 
L 296.850032 118.691618 
L 297.407191 119.538183 
L 298.521508 125.054598 
L 299.078666 126.821544 
L 299.635825 126.729216 
L 300.192983 124.734679 
L 301.3073 118.705892 
L 301.864459 117.587349 
L 302.978776 118.609013 
L 303.535935 117.663772 
L 304.093093 114.857719 
L 305.20741 108.013628 
L 305.764569 106.717216 
L 306.321727 106.515846 
L 306.878886 106.632288 
L 307.993203 107.20628 
L 308.550362 106.762335 
L 309.664679 104.076299 
L 310.221837 104.469391 
L 311.336154 108.726251 
L 311.893313 109.670409 
L 312.450471 109.220047 
L 313.00763 107.809347 
L 314.121947 104.697886 
L 314.679106 104.025162 
L 315.236264 103.88836 
L 315.793423 103.474608 
L 316.350581 101.68235 
L 316.90774 97.51901 
L 317.464898 90.315664 
L 318.579216 70.133351 
L 319.136374 70.665854 
L 320.250691 93.003482 
L 320.80785 101.049591 
L 321.365008 105.567075 
L 321.922167 106.661203 
L 322.479325 104.396603 
L 323.036484 98.785978 
L 324.150801 81.44194 
L 324.70796 79.806885 
L 325.822277 92.940017 
L 326.379435 96.057922 
L 326.936594 94.80656 
L 327.493752 89.087895 
L 328.60807 67.399445 
L 329.165228 62.551409 
L 329.722387 69.82436 
L 330.279545 79.519574 
L 330.836704 86.930134 
L 331.393862 92.009657 
L 331.951021 95.502567 
L 332.508179 97.621704 
L 333.065338 97.772243 
L 333.622497 95.071553 
L 334.179655 88.836014 
L 334.736814 78.666261 
L 335.293972 64.352612 
L 335.851131 45.782997 
L 336.896637 -1 
M 339.262471 -1 
L 340.308399 45.538809 
L 340.865558 63.976404 
L 341.422716 78.142172 
L 341.979875 88.087046 
L 342.537033 93.88626 
L 343.094192 95.728884 
L 343.65135 94.255769 
L 344.208509 91.49543 
L 344.765668 91.446369 
L 345.322826 96.046376 
L 346.437143 108.156854 
L 346.994302 112.32893 
L 347.55146 114.652496 
L 348.108619 114.842804 
L 348.665777 113.048327 
L 349.222936 110.398419 
L 349.780095 108.972691 
L 350.337253 110.186301 
L 351.45157 117.090723 
L 354.794522 137.356147 
L 355.35168 139.087398 
L 355.908839 139.752808 
L 357.023156 140.221082 
L 357.580314 140.687372 
L 358.137473 140.930474 
L 358.694631 140.548286 
L 359.808949 138.301461 
L 360.366107 138.132085 
L 360.923266 139.942285 
L 362.037583 145.87326 
L 362.594741 147.103921 
L 363.1519 146.496532 
L 364.266217 142.841219 
L 364.823376 142.478881 
L 365.380534 143.765479 
L 365.937693 145.669592 
L 366.494851 147.01519 
L 367.05201 147.210856 
L 367.609168 146.337697 
L 369.280644 142.160745 
L 369.837803 141.075215 
L 370.394961 140.274466 
L 370.95212 139.81077 
L 372.066437 139.359428 
L 372.623595 138.900103 
L 373.180754 138.085377 
L 374.295071 136.100489 
L 374.852229 135.634379 
L 375.409388 135.813471 
L 376.523705 137.068591 
L 377.080864 137.063413 
L 377.638022 136.033215 
L 378.195181 133.892324 
L 379.309498 128.461282 
L 379.866656 127.771864 
L 380.423815 129.566466 
L 381.538132 135.064269 
L 382.095291 136.340105 
L 383.209608 137.156509 
L 385.438242 140.358953 
L 385.995401 140.88949 
L 386.552559 141.692346 
L 387.109718 142.862489 
L 388.781193 147.033931 
L 389.338352 147.87844 
L 389.89551 148.224748 
L 390.452669 147.955598 
L 391.009828 146.99576 
L 392.124145 144.499624 
L 392.681303 144.287859 
L 393.238462 144.89828 
L 394.352779 146.950615 
L 396.024255 150.607694 
L 397.138572 152.450913 
L 397.69573 153.274075 
L 398.252889 153.894583 
L 398.810047 154.072942 
L 399.367206 153.617627 
L 399.924364 152.522212 
L 401.038682 149.566316 
L 401.59584 148.403303 
L 402.152999 147.627683 
L 402.710157 147.223289 
L 403.267316 147.251278 
L 403.824474 147.803687 
L 404.938791 149.686577 
L 405.49595 150.180765 
L 406.610267 150.349081 
L 407.167426 151.053503 
L 408.281743 153.585778 
L 408.838901 154.525505 
L 409.953218 155.973039 
L 411.067535 157.59103 
L 412.739011 159.025831 
L 413.29617 160.23004 
L 414.967645 164.818124 
L 415.524804 165.637024 
L 416.081962 165.874949 
L 416.639121 165.661472 
L 418.310597 164.288896 
L 418.867755 164.476878 
L 419.424914 165.284739 
L 420.539231 167.2526 
L 421.096389 167.743711 
L 421.653548 167.934987 
L 422.210707 167.990353 
L 422.767865 167.920619 
L 423.325024 167.581434 
L 424.996499 165.4587 
L 425.553658 165.520719 
L 426.667975 166.436879 
L 428.339451 167.119291 
L 428.896609 167.16519 
L 429.453768 166.769148 
L 430.010926 165.908078 
L 431.682402 162.677735 
L 433.353878 159.95997 
L 433.911036 159.488022 
L 435.025353 159.036181 
L 435.582512 158.273901 
L 436.13967 156.96098 
L 436.696829 155.19155 
L 437.811146 150.367126 
L 438.368305 147.852984 
L 438.925463 146.507544 
L 439.482622 146.919217 
L 440.03978 148.203226 
L 440.596939 148.909181 
L 441.154097 148.173601 
L 441.711256 145.828308 
L 443.382732 134.381013 
L 443.93989 133.057171 
L 444.497049 134.10935 
L 445.611366 138.325582 
L 446.725683 141.352974 
L 447.84 143.648013 
L 447.84 143.648013 
" clip-path="url(#p33fd95afdb)" style="fill: none; stroke: #1e2e79; stroke-width: 2.5; stroke-linecap: square"/>
   </g>
   <g id="line2d_3">
    <path d="M 57.074377 -1 
L 57.829013 32.400803 
L 58.386171 51.349563 
L 58.94333 65.771403 
L 59.500488 75.666323 
L 60.057647 81.034323 
L 60.614805 81.875403 
L 61.171964 78.189563 
L 61.729122 69.976803 
L 62.286281 57.237122 
L 62.843439 39.970522 
L 63.806542 -1 
M 78.608043 -1 
L 79.558196 39.531756 
L 80.115355 56.899796 
L 80.672513 69.740915 
L 81.229672 78.055116 
L 81.78683 81.842412 
L 82.343989 81.102972 
L 82.901147 75.83888 
L 83.458306 66.075638 
L 84.572623 37.280411 
L 85.129782 36.688937 
L 86.244099 66.018746 
L 86.801257 76.910802 
L 87.358416 84.263207 
L 87.915574 88.990586 
L 90.144209 103.113939 
L 90.701367 105.157257 
L 91.258526 105.747925 
L 91.815684 105.587303 
L 92.372843 106.304695 
L 92.930001 109.318662 
L 94.601477 123.06967 
L 95.158636 125.309249 
L 95.715794 126.234853 
L 96.272953 126.884185 
L 96.830111 128.404725 
L 97.944428 133.297043 
L 98.501587 134.474035 
L 99.058745 133.87128 
L 99.615904 131.677757 
L 100.173063 128.900521 
L 100.730221 126.916114 
L 101.28738 126.187927 
L 101.844538 125.954605 
L 102.401697 125.467056 
L 103.516014 123.665728 
L 104.073172 123.154141 
L 104.630331 123.921344 
L 105.18749 126.416532 
L 106.301807 132.861604 
L 106.858965 134.455539 
L 107.416124 134.281924 
L 107.973282 132.454634 
L 109.644758 123.328353 
L 111.873392 115.099575 
L 112.430551 113.197585 
L 112.987709 112.37723 
L 113.544868 112.882272 
L 114.102026 114.384012 
L 115.773502 120.207786 
L 116.330661 121.642067 
L 116.887819 122.358283 
L 117.444978 121.648302 
L 118.002136 118.857226 
L 119.116453 109.050039 
L 119.673612 106.480203 
L 120.230771 106.984503 
L 120.787929 108.278913 
L 121.345088 108.502431 
L 121.902246 107.247911 
L 122.459405 105.2545 
L 123.016563 104.071462 
L 123.573722 104.726188 
L 124.13088 106.456346 
L 124.688039 107.771168 
L 125.245197 107.689852 
L 125.802356 105.714385 
L 126.359515 101.680813 
L 127.473832 90.776205 
L 128.03099 87.290738 
L 128.588149 84.723092 
L 129.145307 80.517661 
L 129.702466 72.925468 
L 130.259624 61.20289 
L 130.816783 45.086007 
L 131.373942 24.486252 
L 131.938137 -1 
M 171.764221 -1 
L 172.603675 35.614073 
L 173.160833 53.867848 
L 173.717992 67.600848 
L 174.27515 76.831331 
L 174.832309 81.631396 
L 175.389467 82.280185 
L 176.503784 76.907787 
L 177.060943 77.340553 
L 177.618102 80.473567 
L 178.17526 82.458741 
L 178.732419 80.971565 
L 179.289577 75.23939 
L 179.846736 65.052334 
L 180.403894 50.356549 
L 180.961053 31.138424 
L 181.683652 -1 
M 186.762737 -1 
L 187.646955 39.881211 
L 188.204114 59.616126 
L 188.761273 74.967203 
L 189.318431 85.94785 
L 189.87559 92.584078 
L 190.432748 94.956561 
L 190.989907 93.359144 
L 192.104224 84.116403 
L 192.661382 82.906513 
L 193.7757 87.040341 
L 194.332858 88.031675 
L 194.890017 87.939318 
L 195.447175 86.535671 
L 196.004334 82.912471 
L 196.561492 76.0832 
L 197.118651 65.451246 
L 198.232968 40.072129 
L 198.790127 45.9755 
L 199.904444 73.693446 
L 200.461602 82.909456 
L 201.018761 88.663414 
L 201.575919 91.311254 
L 202.133078 91.091717 
L 202.690236 87.982547 
L 203.247395 81.71245 
L 203.804554 71.903783 
L 204.361712 58.216408 
L 205.476029 20.623836 
L 206.033188 16.582845 
L 207.704663 75.816738 
L 208.261822 89.654917 
L 208.818981 100.312983 
L 209.933298 115.706658 
L 211.047615 127.250089 
L 211.604773 131.195892 
L 213.276249 139.577458 
L 214.390566 148.478183 
L 215.504883 157.117123 
L 216.6192 163.786053 
L 217.733517 170.203245 
L 220.51931 188.923966 
L 225.533737 215.69613 
L 227.762371 225.715511 
L 232.21964 244.414487 
L 233.891115 249.776631 
L 236.11975 255.888247 
L 237.791225 259.980056 
L 238.905542 262.309851 
L 240.01986 264.235153 
L 241.134177 265.79903 
L 242.248494 267.112779 
L 243.362811 268.086218 
L 244.477128 268.625297 
L 245.591445 268.780914 
L 246.705762 268.642597 
L 247.820079 268.207402 
L 248.934396 267.300401 
L 250.048713 265.940437 
L 251.163031 264.323129 
L 252.277348 262.363957 
L 253.391665 259.909549 
L 255.06314 255.70523 
L 256.734616 250.846403 
L 258.406092 245.190668 
L 260.077567 238.610149 
L 262.306202 228.682496 
L 263.420519 222.910483 
L 266.76347 203.532434 
L 268.434946 191.166591 
L 270.106421 179.781543 
L 272.892214 162.459256 
L 274.006531 154.033508 
L 275.678007 139.554065 
L 276.235166 135.965811 
L 276.792324 133.436956 
L 277.906641 129.352604 
L 278.4638 126.205451 
L 279.020958 121.284801 
L 279.578117 113.991734 
L 281.249592 85.366705 
L 281.806751 89.558431 
L 282.36391 98.456446 
L 282.921068 105.154739 
L 283.478227 108.055346 
L 284.035385 107.315316 
L 285.149702 101.61741 
L 285.706861 101.737521 
L 286.264019 102.990374 
L 286.821178 102.381187 
L 287.378337 98.29582 
L 287.935495 90.178547 
L 288.492654 77.867548 
L 289.049812 61.315878 
L 289.606971 40.504043 
L 290.47538 -1 
M 313.11255 -1 
L 314.121947 41.506482 
L 314.679106 58.413753 
L 315.236264 70.794104 
L 315.793423 78.647534 
L 316.350581 81.974045 
L 316.90774 80.773636 
L 317.464898 75.046306 
L 318.022057 64.792057 
L 318.579216 50.010887 
L 319.136374 30.702797 
L 319.848092 -1 
M 371.948967 -1 
L 372.623595 29.196306 
L 373.180754 48.822426 
L 373.737912 63.931423 
L 374.295071 74.548188 
L 374.852229 80.760491 
L 375.409388 82.872021 
L 375.966547 81.8603 
L 376.523705 80.205543 
L 377.080864 81.193484 
L 378.195181 88.655833 
L 378.752339 90.663458 
L 379.309498 90.480044 
L 379.866656 87.924 
L 380.423815 82.944271 
L 380.980974 76.695414 
L 381.538132 73.580026 
L 382.095291 77.553919 
L 383.209608 91.664048 
L 384.881083 107.638209 
L 385.438242 112.004287 
L 385.995401 114.913223 
L 386.552559 115.953173 
L 387.109718 115.253697 
L 388.224035 111.845133 
L 389.338352 109.354443 
L 391.009828 103.845476 
L 391.566986 103.366509 
L 392.124145 103.227968 
L 392.681303 102.551823 
L 393.238462 100.426084 
L 393.79562 95.881185 
L 394.352779 88.075982 
L 394.909937 76.435897 
L 395.467096 60.633627 
L 396.581413 18.850589 
L 397.138572 16.237806 
L 398.252889 56.918897 
L 398.810047 72.879691 
L 399.367206 84.489782 
L 399.924364 91.749296 
L 400.481523 94.663641 
L 401.038682 93.235196 
L 401.59584 87.462805 
L 402.152999 77.34223 
L 402.710157 62.873685 
L 403.824474 23.783554 
L 404.381633 19.927833 
L 405.49595 55.109754 
L 406.053108 68.466327 
L 406.610267 77.31209 
L 407.167426 81.631827 
L 407.724584 81.424694 
L 408.281743 76.690644 
L 408.838901 67.429674 
L 409.39606 53.641784 
L 409.953218 35.326974 
L 410.784903 -1 
L 410.784903 -1 
" clip-path="url(#p33fd95afdb)" style="fill: none; stroke: #ec4067; stroke-width: 2.5; stroke-linecap: square"/>
   </g>
   <g id="matplotlib.axis_1">
    <g id="xtick_1">
     <g id="line2d_4">
      <defs>
       <path id="m99d305a826" d="M 0 0 
L 0 3.5 
" style="stroke: #c2c1c1; stroke-width: 0.8"/>
      </defs>
      <g>
       <use xlink:href="#m99d305a826" x="47.243" y="300.112" style="fill: #c2c1c1; stroke: #c2c1c1; stroke-width: 0.8"/>
      </g>
     </g>
     <g id="text_1">
      <!-- 0 -->
      <g style="fill: #191919" transform="translate(44.432844 314.612) scale(0.1 -0.1)">
       <defs>
        <path id="Roboto-Regular-30" d="M 3234 1944 
Q 3234 825 2848 381 
Q 2463 -63 1800 -63 
Q 1156 -63 764 368 
Q 372 800 359 1872 
L 359 2638 
Q 359 3753 750 4183 
Q 1141 4613 1794 4613 
Q 2447 4613 2834 4195 
Q 3222 3778 3234 2709 
L 3234 1944 
z
M 2653 2734 
Q 2653 3503 2434 3822 
Q 2216 4141 1794 4141 
Q 1388 4141 1167 3831 
Q 947 3522 941 2778 
L 941 1850 
Q 941 1088 1164 750 
Q 1388 413 1800 413 
Q 2222 413 2436 745 
Q 2650 1078 2653 1825 
L 2653 2734 
z
" transform="scale(0.015625)"/>
       </defs>
       <use xlink:href="#Roboto-Regular-30"/>
      </g>
     </g>
    </g>
    <g id="xtick_2">
     <g id="line2d_5">
      <g>
       <use xlink:href="#m99d305a826" x="114.009167" y="300.112" style="fill: #c2c1c1; stroke: #c2c1c1; stroke-width: 0.8"/>
      </g>
     </g>
     <g id="text_2">
      <!-- 60 -->
      <g style="fill: #191919" transform="translate(108.388854 314.612) scale(0.1 -0.1)">
       <defs>
        <path id="Roboto-Regular-36" d="M 3291 1484 
Q 3291 838 2930 387 
Q 2569 -63 1878 -63 
Q 1388 -63 1063 198 
Q 738 459 577 861 
Q 416 1263 416 1684 
L 416 1956 
Q 416 2597 595 3194 
Q 775 3791 1247 4173 
Q 1719 4556 2597 4556 
L 2647 4556 
L 2647 4066 
Q 2041 4066 1705 3853 
Q 1369 3641 1205 3302 
Q 1041 2963 1006 2575 
Q 1369 2984 1984 2984 
Q 2438 2984 2727 2765 
Q 3016 2547 3153 2201 
Q 3291 1856 3291 1484 
z
M 997 1666 
Q 997 1059 1267 737 
Q 1538 416 1878 416 
Q 2278 416 2498 708 
Q 2719 1000 2719 1456 
Q 2719 1863 2516 2184 
Q 2313 2506 1891 2506 
Q 1588 2506 1341 2325 
Q 1094 2144 997 1884 
L 997 1666 
z
" transform="scale(0.015625)"/>
       </defs>
       <use xlink:href="#Roboto-Regular-36"/>
       <use xlink:href="#Roboto-Regular-30" x="56.201172"/>
      </g>
     </g>
    </g>
    <g id="xtick_3">
     <g id="line2d_6">
      <g>
       <use xlink:href="#m99d305a826" x="180.775333" y="300.112" style="fill: #c2c1c1; stroke: #c2c1c1; stroke-width: 0.8"/>
      </g>
     </g>
     <g id="text_3">
      <!-- 120 -->
      <g style="fill: #191919" transform="translate(172.344865 314.612) scale(0.1 -0.1)">
       <defs>
        <path id="Roboto-Regular-31" d="M 2278 4575 
L 2278 0 
L 1700 0 
L 1700 3853 
L 534 3428 
L 534 3950 
L 2188 4575 
L 2278 4575 
z
" transform="scale(0.015625)"/>
        <path id="Roboto-Regular-32" d="M 3359 475 
L 3359 0 
L 381 0 
L 381 416 
L 1925 2134 
Q 2306 2566 2439 2819 
Q 2572 3072 2572 3328 
Q 2572 3663 2364 3900 
Q 2156 4138 1778 4138 
Q 1322 4138 1097 3878 
Q 872 3619 872 3213 
L 294 3213 
Q 294 3788 672 4200 
Q 1050 4613 1778 4613 
Q 2422 4613 2786 4278 
Q 3150 3944 3150 3397 
Q 3150 2997 2903 2592 
Q 2656 2188 2297 1797 
L 1078 475 
L 3359 475 
z
" transform="scale(0.015625)"/>
       </defs>
       <use xlink:href="#Roboto-Regular-31"/>
       <use xlink:href="#Roboto-Regular-32" x="56.201172"/>
       <use xlink:href="#Roboto-Regular-30" x="112.402344"/>
      </g>
     </g>
    </g>
    <g id="xtick_4">
     <g id="line2d_7">
      <g>
       <use xlink:href="#m99d305a826" x="247.5415" y="300.112" style="fill: #c2c1c1; stroke: #c2c1c1; stroke-width: 0.8"/>
      </g>
     </g>
     <g id="text_4">
      <!-- 180 -->
      <g style="fill: #191919" transform="translate(239.111031 314.612) scale(0.1 -0.1)">
       <defs>
        <path id="Roboto-Regular-38" d="M 3244 1231 
Q 3244 606 2826 271 
Q 2409 -63 1796 -63 
Q 1184 -63 767 271 
Q 350 606 350 1231 
Q 350 1613 554 1905 
Q 759 2197 1109 2347 
Q 806 2494 629 2762 
Q 453 3031 453 3366 
Q 453 3963 833 4288 
Q 1213 4613 1794 4613 
Q 2378 4613 2758 4288 
Q 3138 3963 3138 3366 
Q 3138 3028 2956 2761 
Q 2775 2494 2472 2347 
Q 2825 2197 3034 1903 
Q 3244 1609 3244 1231 
z
M 2559 3356 
Q 2559 3697 2346 3917 
Q 2134 4138 1793 4138 
Q 1453 4138 1243 3927 
Q 1034 3716 1034 3356 
Q 1034 3003 1243 2790 
Q 1453 2578 1797 2578 
Q 2138 2578 2348 2790 
Q 2559 3003 2559 3356 
z
M 2663 1244 
Q 2663 1625 2420 1865 
Q 2178 2106 1791 2106 
Q 1394 2106 1161 1865 
Q 928 1625 928 1244 
Q 928 850 1161 631 
Q 1394 413 1797 413 
Q 2200 413 2431 631 
Q 2663 850 2663 1244 
z
" transform="scale(0.015625)"/>
       </defs>
       <use xlink:href="#Roboto-Regular-31"/>
       <use xlink:href="#Roboto-Regular-38" x="56.201172"/>
       <use xlink:href="#Roboto-Regular-30" x="112.402344"/>
      </g>
     </g>
    </g>
    <g id="xtick_5">
     <g id="line2d_8">
      <g>
       <use xlink:href="#m99d305a826" x="314.307667" y="300.112" style="fill: #c2c1c1; stroke: #c2c1c1; stroke-width: 0.8"/>
      </g>
     </g>
     <g id="text_5">
      <!-- 240 -->
      <g style="fill: #191919" transform="translate(305.877198 314.612) scale(0.1 -0.1)">
       <defs>
        <path id="Roboto-Regular-34" d="M 166 1397 
L 2203 4550 
L 2819 4550 
L 2819 1531 
L 3453 1531 
L 3453 1056 
L 2819 1056 
L 2819 0 
L 2241 0 
L 2241 1056 
L 166 1056 
L 166 1397 
z
M 822 1531 
L 2241 1531 
L 2241 3766 
L 2169 3638 
L 822 1531 
z
" transform="scale(0.015625)"/>
       </defs>
       <use xlink:href="#Roboto-Regular-32"/>
       <use xlink:href="#Roboto-Regular-34" x="56.201172"/>
       <use xlink:href="#Roboto-Regular-30" x="112.402344"/>
      </g>
     </g>
    </g>
    <g id="xtick_6">
     <g id="line2d_9">
      <g>
       <use xlink:href="#m99d305a826" x="381.073833" y="300.112" style="fill: #c2c1c1; stroke: #c2c1c1; stroke-width: 0.8"/>
      </g>
     </g>
     <g id="text_6">
      <!-- 300 -->
      <g style="fill: #191919" transform="translate(372.643365 314.612) scale(0.1 -0.1)">
       <defs>
        <path id="Roboto-Regular-33" d="M 1222 2084 
L 1222 2559 
L 1647 2559 
Q 2094 2563 2312 2784 
Q 2531 3006 2531 3338 
Q 2531 4138 1738 4138 
Q 1369 4138 1141 3927 
Q 913 3716 913 3359 
L 334 3359 
Q 334 3881 720 4247 
Q 1106 4613 1738 4613 
Q 2353 4613 2733 4286 
Q 3113 3959 3113 3325 
Q 3113 3072 2942 2784 
Q 2772 2497 2397 2338 
Q 2850 2191 3015 1884 
Q 3181 1578 3181 1269 
Q 3181 631 2768 284 
Q 2356 -63 1741 -63 
Q 1147 -63 722 267 
Q 297 597 297 1203 
L 875 1203 
Q 875 844 1108 628 
Q 1341 413 1741 413 
Q 2138 413 2369 622 
Q 2600 831 2600 1256 
Q 2600 1681 2337 1882 
Q 2075 2084 1634 2084 
L 1222 2084 
z
" transform="scale(0.015625)"/>
       </defs>
       <use xlink:href="#Roboto-Regular-33"/>
       <use xlink:href="#Roboto-Regular-30" x="56.201172"/>
       <use xlink:href="#Roboto-Regular-30" x="112.402344"/>
      </g>
     </g>
    </g>
    <g id="xtick_7">
     <g id="line2d_10">
      <g>
       <use xlink:href="#m99d305a826" x="447.84" y="300.112" style="fill: #c2c1c1; stroke: #c2c1c1; stroke-width: 0.8"/>
      </g>
     </g>
     <g id="text_7">
      <!-- 360 -->
      <g style="fill: #191919" transform="translate(439.409531 314.612) scale(0.1 -0.1)">
       <use xlink:href="#Roboto-Regular-33"/>
       <use xlink:href="#Roboto-Regular-36" x="56.201172"/>
       <use xlink:href="#Roboto-Regular-30" x="112.402344"/>
      </g>
     </g>
    </g>
    <g id="text_8">
     <!-- Cro66 CD2-CG2-CB2-CA2 Dihedral [°] -->
     <g style="fill: #191919" transform="translate(146.178063 330.12325) scale(0.12 -0.12)">
      <defs>
       <path id="Roboto-Bold-43" d="M 3044 1516 
L 3981 1516 
Q 3934 822 3461 379 
Q 2988 -63 2150 -63 
Q 1275 -63 772 526 
Q 269 1116 269 2125 
L 269 2422 
Q 269 3431 784 4023 
Q 1300 4616 2159 4616 
Q 3013 4616 3466 4161 
Q 3919 3706 3984 3006 
L 3047 3006 
Q 3016 3413 2820 3630 
Q 2625 3847 2159 3847 
Q 1247 3847 1222 2500 
L 1222 2125 
Q 1222 1419 1436 1062 
Q 1650 706 2150 706 
Q 2594 706 2801 907 
Q 3009 1109 3044 1516 
z
" transform="scale(0.015625)"/>
       <path id="Roboto-Bold-72" d="M 1922 2563 
Q 1413 2563 1253 2216 
L 1253 0 
L 347 0 
L 347 3381 
L 1200 3381 
L 1228 2978 
Q 1494 3444 1981 3444 
Q 2153 3444 2259 3403 
L 2250 2538 
L 1922 2563 
z
" transform="scale(0.015625)"/>
       <path id="Roboto-Bold-6f" d="M 206 1722 
Q 206 2459 625 2951 
Q 1044 3444 1806 3444 
Q 2578 3444 2993 2951 
Q 3409 2459 3409 1722 
L 3409 1656 
Q 3409 919 2993 428 
Q 2578 -63 1813 -63 
Q 1053 -63 636 415 
Q 219 894 206 1616 
L 206 1722 
z
M 1113 1656 
Q 1113 1244 1270 955 
Q 1428 666 1813 666 
Q 2191 666 2348 953 
Q 2506 1241 2506 1722 
Q 2506 2125 2348 2420 
Q 2191 2716 1806 2716 
Q 1425 2716 1269 2422 
Q 1113 2128 1113 1656 
z
" transform="scale(0.015625)"/>
       <path id="Roboto-Bold-36" d="M 3450 1500 
Q 3450 838 3033 387 
Q 2616 -63 1916 -63 
Q 1188 -63 752 443 
Q 316 950 316 1750 
L 316 2097 
Q 316 3200 925 3898 
Q 1534 4597 2634 4597 
L 2763 4597 
L 2763 3853 
L 2672 3853 
Q 2050 3844 1688 3538 
Q 1313 3219 1238 2675 
Q 1603 3047 2156 3047 
Q 2800 3047 3125 2589 
Q 3450 2131 3450 1500 
z
M 1219 1631 
Q 1219 1150 1408 909 
Q 1597 669 1900 669 
Q 2194 669 2370 901 
Q 2547 1134 2547 1491 
Q 2547 1853 2370 2087 
Q 2194 2322 1881 2322 
Q 1641 2322 1469 2198 
Q 1297 2075 1219 1903 
L 1219 1631 
z
" transform="scale(0.015625)"/>
       <path id="Roboto-Bold-20" transform="scale(0.015625)"/>
       <path id="Roboto-Bold-44" d="M 406 0 
L 406 4550 
L 1809 4550 
Q 2728 4550 3308 3950 
Q 3888 3350 3888 2375 
L 3888 2172 
Q 3888 1197 3308 598 
Q 2728 0 1797 0 
L 406 0 
z
M 1347 3791 
L 1347 756 
L 1797 756 
Q 2350 756 2639 1115 
Q 2928 1475 2934 2144 
L 2934 2381 
Q 2934 3075 2661 3428 
Q 2388 3781 1838 3791 
L 1347 3791 
z
" transform="scale(0.015625)"/>
       <path id="Roboto-Bold-32" d="M 3428 728 
L 3428 0 
L 313 0 
L 313 619 
L 1784 2188 
Q 2116 2553 2245 2792 
Q 2375 3031 2375 3234 
Q 2375 3538 2223 3713 
Q 2072 3888 1788 3888 
Q 1466 3888 1295 3669 
Q 1125 3450 1125 3119 
L 222 3119 
Q 222 3734 645 4175 
Q 1069 4616 1803 4616 
Q 2519 4616 2900 4270 
Q 3281 3925 3281 3325 
Q 3281 2875 3014 2470 
Q 2747 2066 2284 1581 
L 1472 728 
L 3428 728 
z
" transform="scale(0.015625)"/>
       <path id="Roboto-Bold-2d" d="M 2103 2316 
L 2103 1584 
L 347 1584 
L 347 2316 
L 2103 2316 
z
" transform="scale(0.015625)"/>
       <path id="Roboto-Bold-47" d="M 4009 2391 
L 4009 575 
Q 3847 381 3433 159 
Q 3019 -63 2269 -63 
Q 1384 -63 839 510 
Q 294 1084 294 2138 
L 294 2409 
Q 294 3463 816 4039 
Q 1338 4616 2203 4616 
Q 3088 4616 3509 4191 
Q 3931 3766 4006 3103 
L 3094 3103 
Q 3041 3447 2847 3653 
Q 2653 3859 2228 3859 
Q 1306 3859 1250 2584 
L 1247 2138 
Q 1247 1419 1514 1056 
Q 1781 694 2319 694 
Q 2656 694 2825 770 
Q 2994 847 3069 919 
L 3069 1703 
L 2219 1703 
L 2219 2391 
L 4009 2391 
z
" transform="scale(0.015625)"/>
       <path id="Roboto-Bold-42" d="M 3788 1341 
Q 3788 684 3369 345 
Q 2950 6 2175 0 
L 406 0 
L 406 4550 
L 2003 4550 
Q 2794 4550 3241 4247 
Q 3688 3944 3688 3306 
Q 3688 2997 3531 2737 
Q 3375 2478 3038 2344 
Q 3438 2244 3613 1956 
Q 3788 1669 3788 1341 
z
M 1347 3791 
L 1347 2647 
L 2003 2647 
Q 2747 2647 2747 3209 
Q 2747 3778 2034 3791 
L 1347 3791 
z
M 2850 1350 
Q 2850 1963 2231 1984 
L 1347 1984 
L 1347 756 
L 2147 756 
Q 2506 756 2678 925 
Q 2850 1094 2850 1350 
z
" transform="scale(0.015625)"/>
       <path id="Roboto-Bold-41" d="M 25 0 
L 1719 4550 
L 2588 4550 
L 4291 0 
L 3291 0 
L 2978 938 
L 1331 938 
L 1019 0 
L 25 0 
z
M 1584 1697 
L 2725 1697 
L 2156 3406 
L 1584 1697 
z
" transform="scale(0.015625)"/>
       <path id="Roboto-Bold-69" d="M 341 4256 
Q 341 4459 478 4592 
Q 616 4725 847 4725 
Q 1078 4725 1215 4592 
Q 1353 4459 1353 4256 
Q 1353 4056 1215 3923 
Q 1078 3791 847 3791 
Q 616 3791 478 3923 
Q 341 4056 341 4256 
z
M 1303 3381 
L 1303 0 
L 397 0 
L 397 3381 
L 1303 3381 
z
" transform="scale(0.015625)"/>
       <path id="Roboto-Bold-68" d="M 1803 2713 
Q 1409 2713 1231 2409 
L 1231 0 
L 328 0 
L 328 4800 
L 1231 4800 
L 1231 3016 
Q 1584 3444 2134 3444 
Q 2631 3444 2939 3150 
Q 3247 2856 3250 2147 
L 3250 0 
L 2344 0 
L 2344 2138 
Q 2344 2466 2203 2589 
Q 2063 2713 1803 2713 
z
" transform="scale(0.015625)"/>
       <path id="Roboto-Bold-65" d="M 3225 550 
Q 3063 319 2731 128 
Q 2400 -63 1906 -63 
Q 1119 -63 675 414 
Q 231 891 228 1566 
L 228 1697 
Q 228 2463 654 2953 
Q 1081 3444 1806 3444 
Q 2534 3444 2915 2987 
Q 3297 2531 3297 1781 
L 3297 1397 
L 1144 1397 
Q 1191 1069 1403 867 
Q 1616 666 1963 666 
Q 2478 666 2778 1044 
L 3225 550 
z
M 1800 2716 
Q 1513 2716 1356 2522 
Q 1200 2328 1153 2016 
L 2409 2016 
L 2409 2084 
Q 2403 2356 2258 2536 
Q 2113 2716 1800 2716 
z
" transform="scale(0.015625)"/>
       <path id="Roboto-Bold-64" d="M 2438 0 
L 2394 359 
Q 2059 -63 1528 -63 
Q 900 -63 553 425 
Q 206 913 206 1650 
L 206 1716 
Q 206 2488 553 2966 
Q 900 3444 1534 3444 
Q 2028 3444 2347 3078 
L 2347 4800 
L 3253 4800 
L 3253 0 
L 2438 0 
z
M 1113 1650 
Q 1113 1244 1256 958 
Q 1400 672 1756 672 
Q 2169 672 2347 1022 
L 2347 2363 
Q 2175 2713 1763 2713 
Q 1409 2713 1261 2425 
Q 1113 2138 1113 1650 
z
" transform="scale(0.015625)"/>
       <path id="Roboto-Bold-61" d="M 2306 0 
Q 2250 119 2216 303 
Q 1888 -63 1363 -63 
Q 878 -63 547 223 
Q 216 509 216 950 
Q 216 1481 609 1773 
Q 1003 2066 1775 2066 
L 2178 2066 
L 2178 2263 
Q 2178 2497 2058 2636 
Q 1938 2775 1678 2775 
Q 1194 2775 1194 2369 
L 291 2369 
Q 291 2809 681 3126 
Q 1072 3444 1728 3444 
Q 2313 3444 2698 3147 
Q 3084 2850 3084 2256 
L 3084 750 
Q 3091 300 3219 53 
L 3219 0 
L 2306 0 
z
M 1559 628 
Q 1788 628 1948 729 
Q 2109 831 2178 953 
L 2178 1541 
L 1809 1541 
Q 1450 1541 1284 1389 
Q 1119 1238 1119 1016 
Q 1119 847 1236 737 
Q 1353 628 1559 628 
z
" transform="scale(0.015625)"/>
       <path id="Roboto-Bold-6c" d="M 1303 4800 
L 1303 0 
L 397 0 
L 397 4800 
L 1303 4800 
z
" transform="scale(0.015625)"/>
       <path id="Roboto-Bold-5b" d="M 1728 5297 
L 1728 4600 
L 1281 4600 
L 1281 -366 
L 1728 -366 
L 1728 -1059 
L 375 -1059 
L 375 5297 
L 1728 5297 
z
" transform="scale(0.015625)"/>
       <path id="Roboto-Bold-b0" d="M 397 3750 
Q 397 4103 647 4358 
Q 897 4613 1247 4613 
Q 1591 4613 1836 4358 
Q 2081 4103 2081 3750 
Q 2081 3397 1836 3150 
Q 1591 2903 1247 2903 
Q 897 2903 647 3150 
Q 397 3397 397 3750 
z
M 853 3750 
Q 853 3584 970 3473 
Q 1088 3363 1247 3363 
Q 1406 3363 1515 3473 
Q 1625 3584 1625 3750 
Q 1625 3922 1515 4036 
Q 1406 4150 1247 4150 
Q 1088 4150 970 4036 
Q 853 3922 853 3750 
z
" transform="scale(0.015625)"/>
       <path id="Roboto-Bold-5d" d="M 41 4600 
L 41 5297 
L 1394 5297 
L 1394 -1059 
L 41 -1059 
L 41 -366 
L 491 -366 
L 491 4600 
L 41 4600 
z
" transform="scale(0.015625)"/>
      </defs>
      <use xlink:href="#Roboto-Bold-43"/>
      <use xlink:href="#Roboto-Bold-72" x="65.478516"/>
      <use xlink:href="#Roboto-Bold-6f" x="102.001953"/>
      <use xlink:href="#Roboto-Bold-36" x="158.544922"/>
      <use xlink:href="#Roboto-Bold-36" x="215.917969"/>
      <use xlink:href="#Roboto-Bold-20" x="273.291016"/>
      <use xlink:href="#Roboto-Bold-43" x="298.193359"/>
      <use xlink:href="#Roboto-Bold-44" x="363.671875"/>
      <use xlink:href="#Roboto-Bold-32" x="428.710938"/>
      <use xlink:href="#Roboto-Bold-2d" x="486.083984"/>
      <use xlink:href="#Roboto-Bold-43" x="524.902344"/>
      <use xlink:href="#Roboto-Bold-47" x="590.380859"/>
      <use xlink:href="#Roboto-Bold-32" x="658.496094"/>
      <use xlink:href="#Roboto-Bold-2d" x="715.869141"/>
      <use xlink:href="#Roboto-Bold-43" x="754.6875"/>
      <use xlink:href="#Roboto-Bold-42" x="820.166016"/>
      <use xlink:href="#Roboto-Bold-32" x="883.984375"/>
      <use xlink:href="#Roboto-Bold-2d" x="941.357422"/>
      <use xlink:href="#Roboto-Bold-43" x="980.175781"/>
      <use xlink:href="#Roboto-Bold-41" x="1045.654297"/>
      <use xlink:href="#Roboto-Bold-32" x="1112.988281"/>
      <use xlink:href="#Roboto-Bold-20" x="1170.361328"/>
      <use xlink:href="#Roboto-Bold-44" x="1195.263672"/>
      <use xlink:href="#Roboto-Bold-69" x="1260.302734"/>
      <use xlink:href="#Roboto-Bold-68" x="1286.816406"/>
      <use xlink:href="#Roboto-Bold-65" x="1342.822266"/>
      <use xlink:href="#Roboto-Bold-64" x="1396.875"/>
      <use xlink:href="#Roboto-Bold-72" x="1453.271484"/>
      <use xlink:href="#Roboto-Bold-61" x="1489.794922"/>
      <use xlink:href="#Roboto-Bold-6c" x="1543.408203"/>
      <use xlink:href="#Roboto-Bold-20" x="1569.921875"/>
      <use xlink:href="#Roboto-Bold-5b" x="1594.824219"/>
      <use xlink:href="#Roboto-Bold-b0" x="1622.65625"/>
      <use xlink:href="#Roboto-Bold-5d" x="1661.523438"/>
     </g>
    </g>
   </g>
   <g id="matplotlib.axis_2">
    <g id="ytick_1">
     <g id="line2d_11">
      <defs>
       <path id="m1bcf3ea48b" d="M 0 0 
L -3.5 0 
" style="stroke: #c2c1c1; stroke-width: 0.8"/>
      </defs>
      <g>
       <use xlink:href="#m1bcf3ea48b" x="47.243" y="300.112" style="fill: #c2c1c1; stroke: #c2c1c1; stroke-width: 0.8"/>
      </g>
     </g>
     <g id="text_9">
      <!-- −1 -->
      <g style="fill: #191919" transform="translate(28.9055 303.862) scale(0.1 -0.1)">
       <defs>
        <path id="Roboto-Regular-2212" d="M 3134 2509 
L 3134 2034 
L 525 2034 
L 525 2509 
L 3134 2509 
z
" transform="scale(0.015625)"/>
       </defs>
       <use xlink:href="#Roboto-Regular-2212"/>
       <use xlink:href="#Roboto-Regular-31" x="57.177734"/>
      </g>
     </g>
    </g>
    <g id="ytick_2">
     <g id="line2d_12">
      <g>
       <use xlink:href="#m1bcf3ea48b" x="47.243" y="268.626222" style="fill: #c2c1c1; stroke: #c2c1c1; stroke-width: 0.8"/>
      </g>
     </g>
     <g id="text_10">
      <!-- 0 -->
      <g style="fill: #191919" transform="translate(34.622687 272.376222) scale(0.1 -0.1)">
       <use xlink:href="#Roboto-Regular-30"/>
      </g>
     </g>
    </g>
    <g id="ytick_3">
     <g id="line2d_13">
      <g>
       <use xlink:href="#m1bcf3ea48b" x="47.243" y="237.140444" style="fill: #c2c1c1; stroke: #c2c1c1; stroke-width: 0.8"/>
      </g>
     </g>
     <g id="text_11">
      <!-- 1 -->
      <g style="fill: #191919" transform="translate(34.622687 240.890444) scale(0.1 -0.1)">
       <use xlink:href="#Roboto-Regular-31"/>
      </g>
     </g>
    </g>
    <g id="ytick_4">
     <g id="line2d_14">
      <g>
       <use xlink:href="#m1bcf3ea48b" x="47.243" y="205.654667" style="fill: #c2c1c1; stroke: #c2c1c1; stroke-width: 0.8"/>
      </g>
     </g>
     <g id="text_12">
      <!-- 2 -->
      <g style="fill: #191919" transform="translate(34.622687 209.404667) scale(0.1 -0.1)">
       <use xlink:href="#Roboto-Regular-32"/>
      </g>
     </g>
    </g>
    <g id="ytick_5">
     <g id="line2d_15">
      <g>
       <use xlink:href="#m1bcf3ea48b" x="47.243" y="174.168889" style="fill: #c2c1c1; stroke: #c2c1c1; stroke-width: 0.8"/>
      </g>
     </g>
     <g id="text_13">
      <!-- 3 -->
      <g style="fill: #191919" transform="translate(34.622687 177.918889) scale(0.1 -0.1)">
       <use xlink:href="#Roboto-Regular-33"/>
      </g>
     </g>
    </g>
    <g id="ytick_6">
     <g id="line2d_16">
      <g>
       <use xlink:href="#m1bcf3ea48b" x="47.243" y="142.683111" style="fill: #c2c1c1; stroke: #c2c1c1; stroke-width: 0.8"/>
      </g>
     </g>
     <g id="text_14">
      <!-- 4 -->
      <g style="fill: #191919" transform="translate(34.622687 146.433111) scale(0.1 -0.1)">
       <use xlink:href="#Roboto-Regular-34"/>
      </g>
     </g>
    </g>
    <g id="ytick_7">
     <g id="line2d_17">
      <g>
       <use xlink:href="#m1bcf3ea48b" x="47.243" y="111.197333" style="fill: #c2c1c1; stroke: #c2c1c1; stroke-width: 0.8"/>
      </g>
     </g>
     <g id="text_15">
      <!-- 5 -->
      <g style="fill: #191919" transform="translate(34.622687 114.947333) scale(0.1 -0.1)">
       <defs>
        <path id="Roboto-Regular-35" d="M 1109 2166 
L 647 2284 
L 875 4550 
L 3209 4550 
L 3209 4016 
L 1366 4016 
L 1228 2778 
Q 1572 2975 1988 2975 
Q 2616 2975 2980 2561 
Q 3344 2147 3344 1450 
Q 3344 797 2987 367 
Q 2631 -63 1903 -63 
Q 1350 -63 947 248 
Q 544 559 481 1197 
L 1031 1197 
Q 1141 413 1903 413 
Q 2313 413 2538 691 
Q 2763 969 2763 1444 
Q 2763 1872 2527 2164 
Q 2291 2456 1853 2456 
Q 1563 2456 1413 2378 
Q 1263 2300 1109 2166 
z
" transform="scale(0.015625)"/>
       </defs>
       <use xlink:href="#Roboto-Regular-35"/>
      </g>
     </g>
    </g>
    <g id="ytick_8">
     <g id="line2d_18">
      <g>
       <use xlink:href="#m1bcf3ea48b" x="47.243" y="79.711556" style="fill: #c2c1c1; stroke: #c2c1c1; stroke-width: 0.8"/>
      </g>
     </g>
     <g id="text_16">
      <!-- 6 -->
      <g style="fill: #191919" transform="translate(34.622687 83.461556) scale(0.1 -0.1)">
       <use xlink:href="#Roboto-Regular-36"/>
      </g>
     </g>
    </g>
    <g id="ytick_9">
     <g id="line2d_19">
      <g>
       <use xlink:href="#m1bcf3ea48b" x="47.243" y="48.225778" style="fill: #c2c1c1; stroke: #c2c1c1; stroke-width: 0.8"/>
      </g>
     </g>
     <g id="text_17">
      <!-- 7 -->
      <g style="fill: #191919" transform="translate(34.622687 51.975778) scale(0.1 -0.1)">
       <defs>
        <path id="Roboto-Regular-37" d="M 3319 4550 
L 3319 4225 
L 1434 0 
L 825 0 
L 2706 4075 
L 244 4075 
L 244 4550 
L 3319 4550 
z
" transform="scale(0.015625)"/>
       </defs>
       <use xlink:href="#Roboto-Regular-37"/>
      </g>
     </g>
    </g>
    <g id="ytick_10">
     <g id="line2d_20">
      <g>
       <use xlink:href="#m1bcf3ea48b" x="47.243" y="16.74" style="fill: #c2c1c1; stroke: #c2c1c1; stroke-width: 0.8"/>
      </g>
     </g>
     <g id="text_18">
      <!-- 8 -->
      <g style="fill: #191919" transform="translate(34.622687 20.49) scale(0.1 -0.1)">
       <use xlink:href="#Roboto-Regular-38"/>
      </g>
     </g>
    </g>
    <g id="text_19">
     <!-- PMF [kcal/mol] -->
     <g style="fill: #191919" transform="translate(22.468 199.245687) rotate(-90) scale(0.12 -0.12)">
      <defs>
       <path id="Roboto-Bold-50" d="M 1347 1606 
L 1347 0 
L 406 0 
L 406 4550 
L 2184 4550 
Q 2991 4550 3442 4125 
Q 3894 3700 3894 3047 
Q 3894 2388 3442 1997 
Q 2991 1606 2184 1606 
L 1347 1606 
z
M 1347 3791 
L 1347 2363 
L 2184 2363 
Q 2588 2363 2766 2553 
Q 2944 2744 2944 3041 
Q 2944 3338 2766 3564 
Q 2588 3791 2184 3791 
L 1347 3791 
z
" transform="scale(0.015625)"/>
       <path id="Roboto-Bold-4d" d="M 2800 1250 
L 3966 4550 
L 5194 4550 
L 5194 0 
L 4253 0 
L 4253 1244 
L 4347 3381 
L 3122 0 
L 2478 0 
L 1253 3381 
L 1347 1244 
L 1347 0 
L 406 0 
L 406 4550 
L 1634 4550 
L 2800 1250 
z
" transform="scale(0.015625)"/>
       <path id="Roboto-Bold-46" d="M 406 0 
L 406 4550 
L 3372 4550 
L 3372 3791 
L 1347 3791 
L 1347 2616 
L 3147 2616 
L 3147 1859 
L 1347 1859 
L 1347 0 
L 406 0 
z
" transform="scale(0.015625)"/>
       <path id="Roboto-Bold-6b" d="M 2444 0 
L 1575 1356 
L 1253 1034 
L 1253 0 
L 350 0 
L 350 4803 
L 1253 4803 
L 1253 2144 
L 1428 2369 
L 2291 3381 
L 3375 3381 
L 2156 1975 
L 3484 0 
L 2444 0 
z
" transform="scale(0.015625)"/>
       <path id="Roboto-Bold-63" d="M 1753 666 
Q 2000 666 2159 802 
Q 2319 938 2322 1169 
L 3172 1169 
Q 3166 631 2761 284 
Q 2356 -63 1769 -63 
Q 984 -63 595 432 
Q 206 928 206 1647 
L 206 1734 
Q 206 2450 593 2947 
Q 981 3444 1766 3444 
Q 2388 3444 2777 3087 
Q 3166 2731 3172 2122 
L 2322 2122 
Q 2319 2369 2172 2542 
Q 2025 2716 1750 2716 
Q 1356 2716 1234 2420 
Q 1113 2125 1113 1647 
Q 1113 1256 1233 961 
Q 1353 666 1753 666 
z
" transform="scale(0.015625)"/>
       <path id="Roboto-Bold-2f" d="M 2306 4550 
L 631 -391 
L -41 -391 
L 1634 4550 
L 2306 4550 
z
" transform="scale(0.015625)"/>
       <path id="Roboto-Bold-6d" d="M 1806 2713 
Q 1431 2713 1253 2394 
L 1253 0 
L 347 0 
L 347 3381 
L 1197 3381 
L 1228 3009 
Q 1581 3444 2197 3444 
Q 2850 3444 3094 2928 
Q 3441 3444 4109 3444 
Q 4597 3444 4894 3156 
Q 5191 2869 5194 2169 
L 5194 0 
L 4288 0 
L 4288 2156 
Q 4288 2494 4152 2603 
Q 4016 2713 3781 2713 
Q 3381 2713 3222 2334 
L 3222 0 
L 2319 0 
L 2319 2150 
Q 2319 2484 2181 2598 
Q 2044 2713 1806 2713 
z
" transform="scale(0.015625)"/>
      </defs>
      <use xlink:href="#Roboto-Bold-50"/>
      <use xlink:href="#Roboto-Bold-4d" x="64.550781"/>
      <use xlink:href="#Roboto-Bold-46" x="152.148438"/>
      <use xlink:href="#Roboto-Bold-20" x="206.982422"/>
      <use xlink:href="#Roboto-Bold-5b" x="231.884766"/>
      <use xlink:href="#Roboto-Bold-6b" x="259.716797"/>
      <use xlink:href="#Roboto-Bold-63" x="313.134766"/>
      <use xlink:href="#Roboto-Bold-61" x="365.332031"/>
      <use xlink:href="#Roboto-Bold-6c" x="418.945312"/>
      <use xlink:href="#Roboto-Bold-2f" x="445.458984"/>
      <use xlink:href="#Roboto-Bold-6d" x="482.861328"/>
      <use xlink:href="#Roboto-Bold-6f" x="569.433594"/>
      <use xlink:href="#Roboto-Bold-6c" x="625.976562"/>
      <use xlink:href="#Roboto-Bold-5d" x="652.490234"/>
     </g>
    </g>
   </g>
   <g id="line2d_21">
    <path d="M 47.243 123.88024 
L 47.800159 129.259411 
L 48.357317 132.458972 
L 48.914476 133.328484 
L 49.471634 132.114665 
L 50.028793 129.415319 
L 51.14311 123.262732 
L 51.700268 121.374142 
L 52.257427 120.841549 
L 52.814586 121.891232 
L 53.928903 126.564199 
L 54.486061 128.145056 
L 55.04322 128.409502 
L 55.600378 127.499402 
L 56.157537 126.161098 
L 56.714695 125.346745 
L 57.271854 125.340864 
L 57.829013 125.580206 
L 58.386171 125.552766 
L 58.94333 125.307418 
L 59.500488 124.939916 
L 60.057647 123.947414 
L 60.614805 121.502654 
L 62.286281 109.368975 
L 62.843439 109.272186 
L 63.400598 111.552097 
L 65.072074 122.40044 
L 65.629232 124.697631 
L 66.186391 125.885425 
L 67.300708 126.773753 
L 67.857866 127.590531 
L 68.972184 130.720892 
L 69.529342 131.511071 
L 70.086501 130.711677 
L 71.200818 126.119554 
L 71.757976 125.252695 
L 72.315135 125.839731 
L 72.872293 126.071262 
L 73.429452 124.498616 
L 74.543769 118.21954 
L 75.100928 118.052277 
L 76.215245 122.84716 
L 76.772403 123.896394 
L 77.329562 123.655451 
L 77.88672 123.089243 
L 78.443879 123.177063 
L 80.115355 125.779378 
L 80.672513 126.306542 
L 81.229672 127.146895 
L 81.78683 128.32186 
L 82.343989 129.086018 
L 82.901147 128.678303 
L 84.015465 125.737143 
L 84.572623 125.305739 
L 85.68694 125.99537 
L 86.244099 126.441834 
L 86.801257 127.351901 
L 87.915574 129.840373 
L 88.472733 130.728723 
L 89.029892 131.091523 
L 90.144209 130.720452 
L 90.701367 131.631367 
L 91.258526 133.994501 
L 92.372843 139.623041 
L 92.930001 141.523776 
L 93.48716 142.570597 
L 94.044318 142.803203 
L 94.601477 142.583522 
L 95.158636 142.636878 
L 95.715794 143.482817 
L 96.830111 146.080333 
L 97.38727 146.855313 
L 98.501587 148.048063 
L 99.615904 150.339542 
L 100.173063 151.506893 
L 100.730221 152.344225 
L 101.28738 152.766994 
L 101.844538 152.780825 
L 102.958855 152.361252 
L 103.516014 152.77829 
L 104.630331 154.836973 
L 105.18749 155.172689 
L 105.744648 154.58226 
L 106.301807 153.522268 
L 106.858965 152.872825 
L 107.416124 153.173233 
L 107.973282 154.031772 
L 108.530441 154.54178 
L 109.087599 154.072919 
L 109.644758 152.632142 
L 110.201917 150.840123 
L 110.759075 149.627304 
L 111.316234 149.629624 
L 112.430551 151.767008 
L 112.987709 151.98672 
L 113.544868 150.726214 
L 115.216344 142.529214 
L 115.773502 141.250502 
L 116.330661 140.281563 
L 118.002136 135.922259 
L 118.559295 135.250761 
L 119.116453 134.757126 
L 120.787929 132.753641 
L 121.345088 132.471928 
L 121.902246 131.886569 
L 122.459405 130.597033 
L 123.016563 128.939412 
L 123.573722 127.85475 
L 124.13088 127.892515 
L 124.688039 128.492118 
L 125.245197 128.624583 
L 125.802356 127.652696 
L 126.359515 125.561613 
L 127.473832 120.389988 
L 128.03099 118.595766 
L 129.145307 115.750535 
L 130.816783 109.469685 
L 131.373942 108.891383 
L 131.9311 109.046579 
L 132.488259 108.984337 
L 133.045417 108.055728 
L 133.602576 105.834114 
L 134.159734 101.791797 
L 135.274051 88.153873 
L 135.83121 84.315706 
L 136.388369 87.730454 
L 136.945527 93.525863 
L 137.502686 96.961998 
L 138.059844 96.807793 
L 138.617003 93.622606 
L 139.174161 89.500287 
L 139.73132 87.16695 
L 140.288478 86.520905 
L 140.845637 84.723349 
L 141.402796 79.605831 
L 141.959954 70.31126 
L 143.074271 43.580331 
L 143.63143 44.931706 
L 144.745747 71.86435 
L 145.302905 80.640957 
L 145.860064 85.319792 
L 146.417223 86.713584 
L 146.974381 86.488188 
L 147.53154 86.489554 
L 148.088698 86.792897 
L 148.645857 85.758734 
L 149.760174 78.506924 
L 150.317332 78.648864 
L 151.988808 93.619208 
L 152.545967 94.418759 
L 153.103125 92.295815 
L 154.217442 83.982523 
L 154.774601 85.571775 
L 155.888918 99.12835 
L 156.446076 102.979051 
L 157.003235 103.265265 
L 157.560394 100.153991 
L 158.674711 89.664448 
L 159.231869 88.267246 
L 159.789028 90.219935 
L 161.460503 99.082991 
L 162.017662 100.059662 
L 162.574821 98.824383 
L 163.689138 92.60978 
L 164.246296 89.245224 
L 164.803455 84.62047 
L 165.360613 77.41894 
L 165.917772 68.453406 
L 166.47493 64.696778 
L 167.032089 72.449104 
L 167.589248 83.541795 
L 168.146406 92.15088 
L 168.703565 97.397572 
L 169.260723 99.789737 
L 169.817882 100.382231 
L 170.37504 100.265884 
L 170.932199 99.687198 
L 171.489357 97.813356 
L 172.046516 93.508342 
L 172.603675 85.939006 
L 173.160833 74.61618 
L 173.717992 59.257927 
L 175.389467 1.994096 
L 175.946626 19.457744 
L 177.060943 63.210183 
L 177.618102 79.535959 
L 178.17526 92.344132 
L 178.732419 101.978048 
L 179.289577 108.755617 
L 179.846736 112.873541 
L 180.403894 114.368718 
L 180.961053 113.260527 
L 181.518211 109.967122 
L 182.07537 105.871832 
L 182.632529 102.950227 
L 184.304004 98.687591 
L 184.861163 98.049549 
L 185.418321 98.674955 
L 185.97548 98.690867 
L 186.532638 96.438375 
L 187.089797 92.499529 
L 187.646955 90.756449 
L 188.204114 94.516937 
L 188.761273 100.511862 
L 189.318431 104.776583 
L 189.87559 106.134781 
L 190.432748 104.955984 
L 190.989907 102.622467 
L 191.547065 101.699804 
L 192.104224 104.690278 
L 193.218541 117.057209 
L 193.7757 121.568751 
L 194.332858 123.957021 
L 194.890017 124.564794 
L 195.447175 123.864609 
L 196.004334 122.090091 
L 196.561492 119.295323 
L 197.675809 112.372276 
L 198.232968 109.741735 
L 198.790127 107.985189 
L 199.347285 107.436819 
L 199.904444 109.448897 
L 201.575919 123.93138 
L 202.133078 125.607363 
L 202.690236 124.981371 
L 203.247395 122.707508 
L 204.361712 117.296266 
L 204.918871 115.741428 
L 205.476029 115.196676 
L 206.033188 115.698165 
L 206.590346 117.395818 
L 207.147505 120.346794 
L 209.376139 136.41604 
L 210.490456 140.284388 
L 211.047615 143.095248 
L 213.833408 162.869316 
L 215.504883 173.523873 
L 218.290676 192.140239 
L 220.51931 205.206809 
L 223.305103 220.236661 
L 224.976579 228.332203 
L 227.205213 237.858078 
L 228.876688 244.104842 
L 230.548164 249.725724 
L 232.21964 254.526987 
L 233.891115 258.6423 
L 235.562591 261.835231 
L 237.234067 264.498609 
L 238.905542 266.662391 
L 240.01986 267.690052 
L 241.134177 268.339739 
L 242.248494 268.694928 
L 243.362811 268.772739 
L 244.477128 268.62744 
L 245.591445 268.234374 
L 246.705762 267.528477 
L 247.820079 266.474411 
L 248.934396 265.086306 
L 250.605872 262.652778 
L 251.720189 260.753001 
L 252.834506 258.457353 
L 255.06314 252.952739 
L 256.734616 248.459701 
L 258.406092 243.46417 
L 260.077567 237.596255 
L 261.749043 230.79986 
L 266.206312 211.417462 
L 271.220739 185.110519 
L 274.006531 167.210186 
L 275.678007 152.723102 
L 276.792324 143.648945 
L 277.349483 140.099903 
L 277.906641 137.607927 
L 279.578117 133.282838 
L 280.135275 130.95421 
L 280.692434 127.871912 
L 281.249592 124.007183 
L 282.921068 109.33763 
L 283.478227 107.312017 
L 284.035385 107.460302 
L 284.592544 107.468897 
L 285.149702 105.854037 
L 286.821178 95.86348 
L 287.378337 94.814343 
L 287.935495 95.446774 
L 289.606971 99.94597 
L 290.164129 100.771486 
L 290.721288 100.969942 
L 291.278446 100.613902 
L 291.835605 99.558866 
L 292.392764 97.251121 
L 292.949922 92.895836 
L 293.507081 85.724581 
L 294.064239 75.131609 
L 294.621398 60.696235 
L 295.735715 22.902754 
L 296.292873 22.065278 
L 297.407191 58.312776 
L 297.964349 71.557428 
L 298.521508 80.230793 
L 299.078666 84.495458 
L 299.635825 85.01824 
L 300.192983 83.944104 
L 300.750142 85.297334 
L 301.864459 95.468427 
L 302.421618 97.551436 
L 302.978776 95.639939 
L 304.093093 85.047839 
L 304.650252 86.663238 
L 305.764569 100.909348 
L 306.321727 104.179838 
L 306.878886 103.557569 
L 307.436045 99.624547 
L 307.993203 94.462833 
L 308.550362 92.094478 
L 309.10752 94.353411 
L 309.664679 98.24393 
L 310.221837 100.99835 
L 310.778996 101.737693 
L 311.336154 100.523279 
L 312.450471 94.864081 
L 313.564789 87.847193 
L 314.121947 84.325748 
L 314.679106 83.844625 
L 315.236264 87.795723 
L 316.350581 98.468804 
L 316.90774 102.042337 
L 317.464898 104.254724 
L 318.022057 105.40037 
L 318.579216 105.900915 
L 319.136374 106.190948 
L 319.693533 106.832431 
L 320.250691 108.444175 
L 320.80785 110.805508 
L 321.365008 112.612254 
L 321.922167 112.573057 
L 322.479325 110.117444 
L 324.150801 96.746523 
L 324.70796 96.969951 
L 325.265118 99.381296 
L 325.822277 102.657181 
L 327.493752 115.64646 
L 328.050911 117.378845 
L 328.60807 116.718266 
L 329.722387 112.715515 
L 330.279545 112.430502 
L 330.836704 113.539981 
L 331.393862 115.025534 
L 331.951021 116.188172 
L 333.065338 117.983812 
L 334.736814 122.303648 
L 335.293972 122.387969 
L 335.851131 121.957007 
L 336.408289 122.355956 
L 336.965448 124.492523 
L 338.079765 130.530449 
L 338.636924 132.410073 
L 339.194082 133.231794 
L 339.751241 133.066947 
L 340.308399 131.973085 
L 341.422716 128.57007 
L 341.979875 127.646151 
L 342.537033 127.769205 
L 343.094192 128.782163 
L 343.65135 130.17548 
L 344.208509 131.269251 
L 344.765668 131.610766 
L 345.879985 131.137688 
L 346.437143 131.597283 
L 346.994302 132.319058 
L 347.55146 132.370246 
L 348.108619 131.295889 
L 349.222936 127.589006 
L 349.780095 126.568592 
L 350.337253 126.743163 
L 352.008729 130.076555 
L 352.565887 130.41604 
L 353.123046 129.899029 
L 353.680204 128.397386 
L 354.794522 124.582065 
L 355.35168 124.155547 
L 355.908839 124.37434 
L 356.465997 123.62539 
L 357.023156 120.682657 
L 357.580314 115.254073 
L 358.137473 108.43452 
L 358.694631 103.578758 
L 359.25179 103.817903 
L 360.366107 109.849775 
L 361.480424 113.598445 
L 363.1519 120.243705 
L 363.709058 121.124314 
L 364.266217 120.826614 
L 364.823376 118.925299 
L 365.380534 114.79263 
L 365.937693 107.894147 
L 367.05201 88.613977 
L 367.609168 83.784788 
L 368.166327 84.446699 
L 368.723485 85.299071 
L 369.280644 84.104849 
L 369.837803 83.529054 
L 370.394961 88.524941 
L 371.509278 105.480521 
L 372.066437 110.058398 
L 372.623595 111.155882 
L 373.737912 108.467557 
L 374.295071 109.73771 
L 374.852229 113.814721 
L 375.966547 122.861428 
L 376.523705 125.290866 
L 377.080864 125.689353 
L 378.195181 122.906878 
L 378.752339 123.233465 
L 379.309498 125.789357 
L 379.866656 128.867396 
L 380.423815 131.097935 
L 380.980974 132.41056 
L 382.095291 134.54122 
L 383.209608 136.773559 
L 383.766766 137.810702 
L 384.323925 139.31006 
L 385.438242 143.377555 
L 385.995401 144.532109 
L 386.552559 144.4624 
L 387.109718 143.224638 
L 388.781193 136.780094 
L 389.338352 135.858694 
L 389.89551 135.807915 
L 390.452669 136.212818 
L 391.009828 136.887634 
L 392.124145 138.582922 
L 392.681303 138.989925 
L 393.238462 138.559922 
L 393.79562 137.054002 
L 394.909937 132.229458 
L 395.467096 130.960968 
L 396.024255 131.369894 
L 396.581413 132.568681 
L 397.138572 133.252725 
L 397.69573 132.764591 
L 398.810047 129.657552 
L 399.367206 128.736257 
L 399.924364 128.712527 
L 401.038682 129.287715 
L 401.59584 129.183218 
L 402.152999 128.510243 
L 402.710157 126.914687 
L 403.824474 122.077238 
L 404.381633 121.194428 
L 404.938791 121.878101 
L 405.49595 122.751905 
L 406.053108 122.647658 
L 406.610267 121.377352 
L 408.838901 113.528859 
L 409.39606 110.206502 
L 410.510377 101.910085 
L 411.067535 98.867797 
L 411.624694 96.489491 
L 412.181853 93.406169 
L 412.739011 88.607131 
L 413.29617 82.727194 
L 413.853328 79.616722 
L 414.410487 82.944367 
L 414.967645 89.286822 
L 415.524804 94.343004 
L 416.081962 96.885323 
L 416.639121 97.224832 
L 417.19628 96.224098 
L 418.310597 93.411249 
L 418.867755 92.625856 
L 419.424914 92.936491 
L 419.982072 94.298294 
L 421.096389 97.473244 
L 422.210707 99.844416 
L 422.767865 100.798107 
L 423.882182 102.223478 
L 424.996499 104.686797 
L 425.553658 105.177279 
L 426.110816 103.970021 
L 427.225134 98.631951 
L 427.782292 99.187667 
L 428.339451 103.365712 
L 428.896609 108.457009 
L 429.453768 112.130216 
L 430.010926 113.57335 
L 430.568085 113.107817 
L 431.125243 111.871195 
L 431.682402 110.964252 
L 432.239561 110.366989 
L 432.796719 109.446398 
L 433.911036 107.254287 
L 434.468195 106.59094 
L 435.025353 105.697479 
L 435.582512 104.592134 
L 436.13967 104.415955 
L 436.696829 106.304106 
L 437.811146 112.64074 
L 438.368305 113.966038 
L 438.925463 113.349737 
L 439.482622 111.582703 
L 440.03978 110.191394 
L 440.596939 110.217728 
L 441.154097 111.180957 
L 441.711256 111.907015 
L 442.268414 111.629796 
L 442.825573 110.077664 
L 443.382732 107.252549 
L 444.497049 100.386777 
L 445.054207 99.484 
L 445.611366 101.27153 
L 446.168524 104.946336 
L 446.725683 110.314614 
L 447.84 123.88024 
L 447.84 123.88024 
" clip-path="url(#p33fd95afdb)" style="fill: none; stroke: #f99752; stroke-width: 2.5; stroke-linecap: square"/>
   </g>
   <g id="patch_3">
    <path d="M 47.243 300.112 
L 47.243 16.74 
" style="fill: none; stroke: #c2c1c1; stroke-width: 0.8; stroke-linejoin: miter; stroke-linecap: square"/>
   </g>
   <g id="patch_4">
    <path d="M 447.84 300.112 
L 447.84 16.74 
" style="fill: none; stroke: #c2c1c1; stroke-width: 0.8; stroke-linejoin: miter; stroke-linecap: square"/>
   </g>
   <g id="patch_5">
    <path d="M 47.243 300.112 
L 447.84 300.112 
" style="fill: none; stroke: #c2c1c1; stroke-width: 0.8; stroke-linejoin: miter; stroke-linecap: square"/>
   </g>
   <g id="patch_6">
    <path d="M 47.243 16.74 
L 447.84 16.74 
" style="fill: none; stroke: #c2c1c1; stroke-width: 0.8; stroke-linejoin: miter; stroke-linecap: square"/>
   </g>
   <g id="legend_1">
    <g id="line2d_22">
     <path d="M 58.043 246.856375 
L 70.043 246.856375 
L 82.043 246.856375 
" style="fill: none; stroke: #1e2e79; stroke-width: 2.5; stroke-linecap: square"/>
    </g>
    <g id="text_20">
     <!-- Reduced -->
     <g transform="translate(91.643 251.056375) scale(0.12 -0.12)">
      <defs>
       <path id="Roboto-Regular-52" d="M 3188 0 
L 2200 1844 
L 1131 1844 
L 1131 0 
L 528 0 
L 528 4550 
L 2034 4550 
Q 2800 4550 3214 4200 
Q 3628 3850 3628 3184 
Q 3628 2759 3398 2442 
Q 3169 2125 2763 1969 
L 3831 38 
L 3831 0 
L 3188 0 
z
M 1131 4056 
L 1131 2334 
L 2053 2334 
Q 2538 2334 2783 2582 
Q 3028 2831 3028 3184 
Q 3028 3578 2792 3817 
Q 2556 4056 2034 4056 
L 1131 4056 
z
" transform="scale(0.015625)"/>
       <path id="Roboto-Regular-65" d="M 3116 591 
Q 2950 341 2647 139 
Q 2344 -63 1844 -63 
Q 1138 -63 714 396 
Q 291 856 291 1572 
L 291 1703 
Q 291 2256 502 2645 
Q 713 3034 1050 3239 
Q 1388 3444 1769 3444 
Q 2494 3444 2826 2970 
Q 3159 2497 3159 1788 
L 3159 1528 
L 872 1528 
Q 884 1063 1148 736 
Q 1413 409 1875 409 
Q 2181 409 2393 534 
Q 2606 659 2766 869 
L 3116 591 
z
M 1769 2969 
Q 1425 2969 1187 2719 
Q 950 2469 891 2000 
L 2581 2000 
L 2581 2044 
Q 2559 2381 2386 2675 
Q 2213 2969 1769 2969 
z
" transform="scale(0.015625)"/>
       <path id="Roboto-Regular-64" d="M 2622 0 
L 2594 363 
Q 2247 -63 1628 -63 
Q 1034 -63 668 418 
Q 303 900 297 1628 
L 297 1719 
Q 297 2494 664 2969 
Q 1031 3444 1634 3444 
Q 2231 3444 2572 3044 
L 2572 4800 
L 3153 4800 
L 3153 0 
L 2622 0 
z
M 878 1653 
Q 878 1150 1090 789 
Q 1303 428 1772 428 
Q 2309 428 2572 919 
L 2572 2475 
Q 2313 2956 1778 2956 
Q 1306 2956 1092 2589 
Q 878 2222 878 1719 
L 878 1653 
z
" transform="scale(0.015625)"/>
       <path id="Roboto-Regular-75" d="M 2538 0 
L 2525 334 
Q 2194 -63 1538 -63 
Q 1041 -63 734 231 
Q 428 525 428 1200 
L 428 3381 
L 1006 3381 
L 1006 1194 
Q 1006 738 1198 583 
Q 1391 428 1628 428 
Q 2281 428 2509 919 
L 2509 3381 
L 3091 3381 
L 3091 0 
L 2538 0 
z
" transform="scale(0.015625)"/>
       <path id="Roboto-Regular-63" d="M 1794 413 
Q 2103 413 2336 597 
Q 2569 781 2591 1069 
L 3141 1069 
Q 3119 616 2725 276 
Q 2331 -63 1794 -63 
Q 1031 -63 661 440 
Q 291 944 291 1625 
L 291 1756 
Q 291 2438 661 2941 
Q 1031 3444 1794 3444 
Q 2388 3444 2753 3092 
Q 3119 2741 3141 2219 
L 2591 2219 
Q 2569 2531 2355 2750 
Q 2141 2969 1794 2969 
Q 1438 2969 1236 2787 
Q 1034 2606 951 2328 
Q 869 2050 869 1756 
L 869 1625 
Q 869 1328 950 1050 
Q 1031 772 1232 592 
Q 1434 413 1794 413 
z
" transform="scale(0.015625)"/>
      </defs>
      <use xlink:href="#Roboto-Regular-52"/>
      <use xlink:href="#Roboto-Regular-65" x="61.621094"/>
      <use xlink:href="#Roboto-Regular-64" x="114.648438"/>
      <use xlink:href="#Roboto-Regular-75" x="171.044922"/>
      <use xlink:href="#Roboto-Regular-63" x="226.171875"/>
      <use xlink:href="#Roboto-Regular-65" x="278.515625"/>
      <use xlink:href="#Roboto-Regular-64" x="331.542969"/>
     </g>
    </g>
    <g id="line2d_23">
     <path d="M 58.043 264.293875 
L 70.043 264.293875 
L 82.043 264.293875 
" style="fill: none; stroke: #ec4067; stroke-width: 2.5; stroke-linecap: square"/>
    </g>
    <g id="text_21">
     <!-- Oxidized -->
     <g transform="translate(91.643 268.493875) scale(0.12 -0.12)">
      <defs>
       <path id="Roboto-Regular-4f" d="M 4031 2131 
Q 4031 1106 3534 521 
Q 3038 -63 2206 -63 
Q 1397 -63 884 521 
Q 372 1106 372 2131 
L 372 2419 
Q 372 3441 881 4027 
Q 1391 4613 2200 4613 
Q 3025 4613 3523 4036 
Q 4022 3459 4031 2456 
L 4031 2131 
z
M 3434 2425 
Q 3434 3238 3109 3669 
Q 2784 4100 2200 4100 
Q 1641 4100 1305 3669 
Q 969 3238 969 2425 
L 969 2131 
Q 969 1313 1308 880 
Q 1647 447 2206 447 
Q 2794 447 3114 880 
Q 3434 1313 3434 2131 
L 3434 2425 
z
" transform="scale(0.015625)"/>
       <path id="Roboto-Regular-78" d="M 831 3381 
L 1572 2150 
L 2322 3381 
L 3000 3381 
L 1894 1713 
L 3034 0 
L 2366 0 
L 1584 1269 
L 803 0 
L 131 0 
L 1269 1713 
L 166 3381 
L 831 3381 
z
" transform="scale(0.015625)"/>
       <path id="Roboto-Regular-69" d="M 444 4278 
Q 444 4419 530 4516 
Q 616 4613 784 4613 
Q 950 4613 1039 4516 
Q 1128 4419 1128 4278 
Q 1128 4144 1039 4048 
Q 950 3953 784 3953 
Q 616 3953 530 4048 
Q 444 4144 444 4278 
z
M 1069 3381 
L 1069 0 
L 488 0 
L 488 3381 
L 1069 3381 
z
" transform="scale(0.015625)"/>
       <path id="Roboto-Regular-7a" d="M 303 2903 
L 303 3381 
L 2869 3381 
L 2869 2972 
L 988 475 
L 2959 475 
L 2959 0 
L 278 0 
L 278 425 
L 2141 2903 
L 303 2903 
z
" transform="scale(0.015625)"/>
      </defs>
      <use xlink:href="#Roboto-Regular-4f"/>
      <use xlink:href="#Roboto-Regular-78" x="68.798828"/>
      <use xlink:href="#Roboto-Regular-69" x="118.408203"/>
      <use xlink:href="#Roboto-Regular-64" x="142.724609"/>
      <use xlink:href="#Roboto-Regular-69" x="199.121094"/>
      <use xlink:href="#Roboto-Regular-7a" x="223.4375"/>
      <use xlink:href="#Roboto-Regular-65" x="273.046875"/>
      <use xlink:href="#Roboto-Regular-64" x="326.074219"/>
     </g>
    </g>
    <g id="line2d_24">
     <path d="M 58.043 282.357625 
L 70.043 282.357625 
L 82.043 282.357625 
" style="fill: none; stroke: #f99752; stroke-width: 2.5; stroke-linecap: square"/>
    </g>
    <g id="text_22">
     <!-- Cu(I) -->
     <g transform="translate(91.643 286.557625) scale(0.12 -0.12)">
      <defs>
       <path id="Roboto-Regular-43" d="M 3275 1447 
L 3875 1447 
Q 3806 800 3387 368 
Q 2969 -63 2150 -63 
Q 1356 -63 870 504 
Q 384 1072 375 2013 
L 375 2500 
Q 375 3456 867 4034 
Q 1359 4613 2203 4613 
Q 2975 4613 3390 4188 
Q 3806 3763 3875 3091 
L 3275 3091 
Q 3206 3566 2968 3842 
Q 2731 4119 2203 4119 
Q 1600 4119 1287 3675 
Q 975 3231 975 2506 
L 975 2047 
Q 975 1375 1259 901 
Q 1544 428 2150 428 
Q 2725 428 2961 697 
Q 3197 966 3275 1447 
z
" transform="scale(0.015625)"/>
       <path id="Roboto-Regular-28" d="M 419 1850 
Q 419 2756 678 3434 
Q 938 4113 1294 4541 
Q 1650 4969 1947 5134 
L 2069 4753 
Q 1700 4475 1348 3761 
Q 997 3047 997 1813 
Q 997 625 1348 -97 
Q 1700 -819 2069 -1119 
L 1947 -1469 
Q 1650 -1306 1294 -878 
Q 938 -450 678 226 
Q 419 903 419 1850 
z
" transform="scale(0.015625)"/>
       <path id="Roboto-Regular-49" d="M 1175 4550 
L 1175 0 
L 572 0 
L 572 4550 
L 1175 4550 
z
" transform="scale(0.015625)"/>
       <path id="Roboto-Regular-29" d="M 1772 1819 
Q 1772 906 1512 228 
Q 1253 -450 895 -878 
Q 538 -1306 244 -1469 
L 122 -1119 
Q 488 -841 841 -109 
Q 1194 622 1194 1856 
Q 1194 2647 1019 3236 
Q 844 3825 594 4212 
Q 344 4600 122 4781 
L 244 5134 
Q 538 4969 895 4541 
Q 1253 4113 1512 3436 
Q 1772 2759 1772 1819 
z
" transform="scale(0.015625)"/>
      </defs>
      <use xlink:href="#Roboto-Regular-43"/>
      <use xlink:href="#Roboto-Regular-75" x="65.087891"/>
      <use xlink:href="#Roboto-Regular-28" x="120.214844"/>
      <use xlink:href="#Roboto-Regular-49" x="154.443359"/>
      <use xlink:href="#Roboto-Regular-29" x="181.640625"/>
     </g>
    </g>
   </g>
  </g>
 </g>
 <defs>
  <clipPath id="p33fd95afdb">
   <rect x="47.243" y="16.74" width="400.597" height="283.372"/>
  </clipPath>
 </defs>
</svg>
